<svg width="337" height="312" viewBox="0 0 337 312" fill="none" xmlns="http://www.w3.org/2000/svg">
<path d="M295.481 65.0126L295.35 65.1826L295.245 65.3693C294.657 66.4181 294.458 67.6413 294.684 68.8214L294.708 68.9431L294.741 69.0625C295.628 72.2457 297.126 75.2247 299.151 77.8313L299.176 77.8627L299.201 77.8934C300.867 79.9235 302.742 81.7701 304.796 83.4021C305.777 84.2507 306.506 85.3577 306.901 86.6015L306.905 86.6139L306.909 86.6262C307.628 88.8245 308.543 90.9529 309.642 92.9856V93.2463L310.128 93.9929C311.161 95.5787 312.035 97.2644 312.735 99.0251L312.739 99.0349L312.743 99.0447L315.612 106.112C316.489 108.409 317.241 110.751 317.865 113.13L317.873 113.164L317.883 113.197C318.497 115.336 318.937 117.521 319.199 119.732L319.205 119.784L319.214 119.837C319.495 121.655 319.747 123.353 319.982 124.939C320.084 125.619 320.181 126.279 320.277 126.919L320.279 126.933L320.282 126.947C320.708 129.619 321.432 132.235 322.441 134.745C322.652 135.358 322.995 135.92 323.447 136.389C323.897 136.855 324.444 137.218 325.049 137.45C325.61 137.693 326.217 137.819 326.831 137.819C327.434 137.819 328.029 137.698 328.582 137.464C329.19 137.241 329.742 136.887 330.2 136.427C330.654 135.97 331.003 135.421 331.224 134.818C331.467 134.245 331.593 133.629 331.593 133.006C331.593 132.354 331.455 131.71 331.19 131.116C330.469 129.286 329.949 127.383 329.638 125.439C329.58 125.05 329.522 124.652 329.462 124.246C329.196 122.444 328.906 120.477 328.579 118.361C328.257 115.708 327.719 113.086 326.97 110.521C326.254 107.815 325.398 105.148 324.408 102.531L324.395 102.497L324.381 102.462C324.022 101.582 323.671 100.703 323.324 99.8387C322.699 98.2788 322.092 96.763 321.496 95.3562C320.575 93.0471 319.43 90.8348 318.077 88.7518C317.098 87.071 316.29 85.2952 315.664 83.4514C314.766 80.6544 313.141 78.147 310.955 76.1889L310.881 76.1221L310.802 76.0604C309.253 74.8489 307.838 73.473 306.582 71.9563C305.399 70.3886 304.509 68.6175 303.954 66.7291C303.824 66.0938 303.553 65.4935 303.161 64.9727C302.762 64.4423 302.248 64.0094 301.657 63.7069C300.64 63.1197 299.438 62.9306 298.285 63.1836L298.197 63.2028L298.111 63.2272C297.063 63.5236 296.141 64.1508 295.481 65.0126Z" fill="black" stroke="black" stroke-width="6"/>
<path d="M265.431 271.282L265.177 271.32L264.933 271.401C263.867 271.756 262.951 272.454 262.326 273.383L262.252 273.492L262.189 273.607C261.901 274.127 261.512 274.582 261.046 274.945C260.58 275.307 260.046 275.57 259.478 275.718L259.385 275.742L259.293 275.772C256.241 276.78 253.464 278.483 251.178 280.748L251.108 280.817L251.043 280.891C249.901 282.181 248.496 283.207 246.925 283.898L246.845 283.933L246.768 283.972C245.18 284.784 243.449 285.275 241.675 285.42C238.689 285.646 235.829 286.709 233.417 288.487L233.408 288.493L233.399 288.5C232.326 289.303 231.035 289.751 229.702 289.785L229.557 289.789L229.413 289.807C226.377 290.181 223.418 291.03 220.645 292.325L220.562 292.364L220.482 292.408C218.657 293.399 216.732 294.191 214.74 294.769L214.563 294.82L214.395 294.893C213.333 295.347 212.473 296.165 211.962 297.192C211.429 298.173 211.245 299.307 211.441 300.408L211.48 300.623L211.549 300.831C211.755 301.448 212.084 302.018 212.516 302.505C212.943 302.987 213.463 303.378 214.044 303.656C214.647 303.948 215.308 304.1 215.979 304.1C216.547 304.1 217.109 303.991 217.633 303.78C220.16 303.037 222.598 302.018 224.903 300.74C226.695 299.943 228.593 299.412 230.536 299.163C233.667 298.985 236.678 297.905 239.212 296.054C240.282 295.402 241.488 295.009 242.734 294.905L242.778 294.902L242.821 294.897C245.548 294.59 248.201 293.807 250.659 292.584C253.411 291.407 255.881 289.656 257.906 287.448C259.127 286.31 260.574 285.448 262.149 284.918C263.886 284.461 265.514 283.659 266.937 282.561C268.376 281.451 269.575 280.061 270.464 278.475C271.068 277.457 271.283 276.254 271.067 275.089C270.847 273.899 270.192 272.83 269.226 272.093L268.42 271.479H267.865C267.084 271.227 266.251 271.157 265.431 271.282Z" fill="black" stroke="black" stroke-width="6"/>
<path d="M115.573 25.5401L115.852 25.7687L116.178 25.9246C116.802 26.2234 117.486 26.3788 118.179 26.3788C118.751 26.3788 119.317 26.2727 119.849 26.0674C122.497 25.3701 125.075 24.4298 127.552 23.2583C130.117 22.2804 132.53 20.9409 134.719 19.2805C135.782 18.6162 136.992 18.2316 138.24 18.1619L138.295 18.1588L138.35 18.1538C141.506 17.8611 144.573 16.9396 147.37 15.4435C148.621 14.7911 150.024 14.4965 151.428 14.5901C153.817 14.8978 156.234 14.9087 158.625 14.6228C160.596 14.8069 162.792 14.8068 165.072 14.8068L165.158 14.8068C168.483 14.8642 171.773 14.1308 174.758 12.6699C175.302 12.5462 175.819 12.3207 176.282 12.0032C176.97 11.532 177.51 10.8776 177.843 10.1164C178.109 9.51269 178.246 8.86018 178.246 8.20078C178.246 7.54428 178.11 6.89463 177.846 6.29315C177.585 5.69002 177.195 5.1508 176.701 4.7147C176.236 4.3035 175.689 3.99371 175.097 3.8054C173.985 3.41231 172.768 3.4267 171.663 3.84858L171.509 3.90734L171.362 3.9826C169.581 4.89769 167.601 5.35122 165.602 5.30303L165.566 5.30216H165.53L165.401 5.30215C162.795 5.30208 160.286 5.30202 158.124 5.55404L158.106 5.55619L158.087 5.55856C156.429 5.77262 154.751 5.77262 153.093 5.55856L153.044 5.55223L152.995 5.54751C149.698 5.23205 146.383 5.88044 143.446 7.41283C141.603 8.2821 139.601 8.75698 137.566 8.8077L137.517 8.80892L137.469 8.8117C134.46 8.98435 131.559 9.99376 129.09 11.7257L129.016 11.7775L128.945 11.8337C127.475 13.0025 125.823 13.9162 124.055 14.5376L123.9 14.5923L123.751 14.6637C121.714 15.6421 119.583 16.4067 117.391 16.9454L117.255 16.9786L117.123 17.0243C116.047 17.3975 115.13 18.1216 114.516 19.0771L114.468 19.1521L114.425 19.23C113.836 20.2787 113.638 21.5019 113.863 22.6821L113.867 22.6981L113.87 22.714C114.095 23.8225 114.695 24.8217 115.573 25.5401Z" fill="black" stroke="black" stroke-width="6"/>
<path d="M116.322 27.9108L116.333 27.9064L116.344 27.9019C116.961 27.6465 117.518 27.2674 117.981 26.7886C118.413 26.3422 118.755 25.818 118.99 25.2449C119.25 24.6672 119.384 24.0406 119.384 23.4068C119.384 22.7311 119.232 22.0639 118.937 21.4552C118.403 20.3375 117.464 19.4624 116.306 19.012C115.748 18.7848 115.151 18.6677 114.548 18.6677C113.933 18.6677 113.324 18.7894 112.757 19.0253C110.22 20.054 107.761 21.2698 105.402 22.6626L105.274 22.7382L105.154 22.826C103.449 24.0756 101.58 25.4547 99.562 27.0133L99.562 27.0133L99.5548 27.0189L94.2247 31.1607L94.136 31.2296L94.0527 31.305C92.6558 32.5689 90.902 34.0823 88.7779 35.6154L88.7072 35.6664L88.6396 35.7215C86.8124 37.2091 84.8624 38.537 82.8109 39.6908L82.7605 39.7192L82.7112 39.7495C80.6599 41.0097 78.6326 42.2153 76.6225 43.3989L76.5682 43.4309L76.5152 43.4651C74.9356 44.487 73.5837 45.8245 72.5433 47.3935C71.5028 48.9624 70.7959 50.7293 70.466 52.5836L70.4529 52.6571L70.4435 52.7311C70.3035 53.8334 70.5077 54.953 71.0293 55.9352L71.0462 55.9671L71.0639 55.9986C71.3554 56.5172 71.7464 56.9739 72.2152 57.342C72.6643 57.6947 73.1762 57.9595 73.7242 58.1218C74.4028 58.3355 75.1223 58.3882 75.8257 58.2751C76.4678 58.1718 77.0789 57.9331 77.6194 57.5768C78.1992 57.2405 78.6913 56.7712 79.0551 56.2073C79.4169 55.6465 79.6405 55.0099 79.7102 54.3498C79.937 53.2394 80.5652 52.2564 81.4686 51.5898L87.4277 48.0011C89.949 46.5957 92.3339 44.9564 94.551 43.1046C96.7275 41.4063 98.5636 39.9092 100.049 38.6179C101.671 37.4788 103.419 36.1806 105.314 34.7303C105.317 34.7284 105.319 34.7265 105.322 34.7246L110.511 30.8055C112.371 29.6917 114.314 28.724 116.322 27.9108Z" fill="black" stroke="black" stroke-width="6"/>
<path d="M38.1136 115.064L38.2442 115.155L38.3836 115.231C39.0239 115.582 39.7426 115.767 40.4739 115.767C41.1454 115.767 41.8064 115.611 42.4058 115.314C43.0011 115.046 43.5329 114.656 43.966 114.167C44.4115 113.665 44.7416 113.073 44.9346 112.432C45.6789 110.238 46.3555 107.808 46.9682 105.176C47.5081 103.247 48.2123 101.368 49.0729 99.5612C50.2179 97.6158 51.175 95.5649 51.9313 93.4366C52.5922 91.8634 53.5021 89.8417 54.6893 87.4256C55.8101 85.279 57.0617 83.2043 58.4369 81.2132C59.3347 80.0594 60.2281 78.8963 61.0889 77.7757C61.6976 76.9832 62.29 76.212 62.8562 75.4802L62.8809 75.4482L62.9047 75.4156C63.7684 74.2349 64.68 73.0908 65.6371 71.986V72.6064L70.9463 66.2041C72.8766 63.8764 74.6353 61.4105 76.2085 58.8259C76.5767 58.2987 76.8257 57.6972 76.9377 57.0634C77.0449 56.4577 77.0244 55.8372 76.8788 55.2416C76.7791 54.673 76.5743 54.1266 76.2738 53.6311C75.9235 53.0537 75.4514 52.5588 74.8893 52.1817L74.8302 52.1421L74.7693 52.1053C73.746 51.4871 72.5298 51.2692 71.3545 51.4955L71.2028 51.5247L71.0549 51.5693C69.9908 51.8904 69.0544 52.5343 68.3731 53.4095L68.2612 53.5532L68.1676 53.7094C66.8433 55.9175 65.3337 58.0074 63.6554 59.9566L63.6054 60.0147L63.5584 60.0753C62.4118 61.5534 61.1605 62.9461 59.8142 64.2425L59.7543 64.3003L59.6976 64.3612C58.1174 66.0616 56.6325 67.8489 55.2496 69.7148L55.2268 69.7457L55.2047 69.7771C53.8744 71.6718 52.4299 73.5431 50.8989 75.362L50.801 75.4783L50.7153 75.604C49.0154 78.0976 47.5051 80.7164 46.1972 83.4382L46.1972 83.4381L46.1917 83.4498C44.9501 86.0622 43.9359 88.2773 43.236 90.021L43.0201 90.5589V90.714C42.4428 92.1411 41.7564 93.5212 40.9671 94.842L40.9015 94.9517L40.8456 95.0666C39.67 97.4784 38.7332 100 38.0485 102.596L38.0358 102.644L38.0247 102.692C37.4723 105.108 36.8724 107.3 36.2295 109.223C36.0228 109.76 35.9168 110.331 35.9168 110.906C35.9168 111.488 36.025 112.064 36.2358 112.606C36.5889 113.599 37.2442 114.46 38.1136 115.064Z" fill="black" stroke="black" stroke-width="6"/>
<path d="M34.275 175.737L34.0277 175.705C33.3548 175.619 32.7102 175.384 32.1408 175.017C31.7028 174.734 31.3179 174.38 31.0015 173.97C30.6394 173.593 30.3418 173.158 30.1211 172.683C29.8583 172.117 29.7102 171.505 29.6842 170.883C29.5463 169.321 29.5944 167.517 29.639 165.84C29.66 165.055 29.6801 164.298 29.6801 163.606V163.447L29.6969 163.29C29.8892 161.477 29.7277 159.644 29.2219 157.893L29.1994 157.815L29.1812 157.737C28.5653 155.076 28.1843 152.365 28.0425 149.637C27.8719 146.726 28.2161 143.807 29.0592 141.016L29.0704 140.979L29.0826 140.942C29.6832 139.125 30.0713 137.243 30.2391 135.335L30.2444 135.275L30.2521 135.215C30.5742 132.713 30.9696 130.231 31.8014 127.453C32.2635 125.559 32.7028 123.429 33.146 120.645L33.1555 120.585L33.1673 120.526C33.6669 118.036 34.3256 115.581 35.1392 113.176L34.275 175.737ZM34.275 175.737L34.524 175.727M34.275 175.737L34.524 175.727M34.524 175.727C35.1713 175.702 35.8065 175.548 36.3923 175.273C36.9713 175.001 37.4901 174.618 37.9195 174.146M34.524 175.727L37.9195 174.146M37.9195 174.146C38.3527 173.674 38.6856 173.121 38.8987 172.518C39.1004 171.948 39.191 171.345 39.1663 170.742V170.735V170.723V170.711V170.699V170.687V170.675V170.663V170.651V170.639V170.627V170.615V170.603V170.591V170.579V170.567V170.555V170.543V170.531V170.519V170.507V170.495V170.483V170.471V170.459V170.447V170.435V170.423V170.411V170.399V170.387V170.375V170.363V170.351V170.339V170.326V170.314V170.302V170.29V170.278V170.266V170.254V170.242V170.23V170.217V170.205V170.193V170.181V170.169V170.157V170.144V170.132V170.12V170.108V170.096V170.083V170.071V170.059V170.047V170.035V170.022V170.01V169.998V169.986V169.973V169.961V169.949V169.937V169.924V169.912V169.9V169.888V169.875V169.863V169.851V169.838V169.826V169.814V169.801V169.789V169.777V169.764V169.752V169.74V169.727V169.715V169.703V169.69V169.678V169.666V169.653V169.641V169.628V169.616V169.604V169.591V169.579V169.566V169.554V169.542V169.529V169.517V169.504V169.492V169.479V169.467V169.454V169.442V169.43V169.417V169.405V169.392V169.38V169.367V169.355V169.342V169.33V169.317V169.305V169.292V169.279V169.267V169.254V169.242V169.229V169.217V169.204V169.192V169.179V169.166V169.154V169.141V169.129V169.116V169.103V169.091V169.078V169.066V169.053V169.04V169.028V169.015V169.002V168.99V168.977V168.964V168.952V168.939V168.926V168.914V168.901V168.888V168.876V168.863V168.85V168.837V168.825V168.812V168.799V168.787V168.774V168.761V168.748V168.736V168.723V168.71V168.697V168.685V168.672V168.659V168.646V168.633V168.621V168.608V168.595V168.582V168.569V168.556V168.544V168.531V168.518V168.505V168.492V168.479V168.467V168.454V168.441V168.428V168.415V168.402V168.389V168.376V168.363V168.351V168.338V168.325V168.312V168.299V168.286V168.273V168.26V168.247V168.234V168.221V168.208V168.195V168.182V168.169V168.156V168.143V168.13V168.117V168.104V168.091V168.078V168.065V168.052V168.039V168.026V168.013V168V167.987V167.974V167.961V167.948V167.935V167.922V167.909V167.896V167.883V167.869V167.856V167.843V167.83V167.817V167.804V167.791V167.778V167.765V167.751V167.738V167.725V167.712V167.699V167.686V167.673V167.659V167.646V167.633V167.62V167.607V167.593V167.58V167.567V167.554V167.541V167.527V167.514V167.501V167.488V167.474V167.461V167.448V167.435V167.421V167.408V167.395V167.382V167.368V167.355V167.342V167.328V167.315V167.302V167.288V167.275V167.262V167.249V167.235V167.222V167.209V167.195V167.182V167.168V167.155V167.142V167.128V167.115V167.102V167.088V167.075V167.061V167.048V167.035V167.021V167.008V166.994V166.981V166.968V166.954V166.941V166.927V166.914V166.9V166.887V166.873V166.86V166.846V166.833V166.819V166.806V166.793V166.779V166.766V166.752V166.738V166.725V166.711V166.698V166.684V166.671V166.657V166.644V166.63V166.617V166.603V166.59V166.576V166.562V166.549V166.535V166.522V166.508V166.494V166.481V166.467V166.454V166.44V166.426V166.413V166.399V166.385V166.372V166.358V166.344V166.331V166.317V166.303V166.29V166.276V166.262V166.249V166.235V166.221V166.208V166.194V166.18V166.167V166.153V166.139V166.125V166.112V166.098V166.084V166.07V166.057V166.043V166.029V166.015V166.002V165.988V165.974V165.96V165.946V165.933V165.919V165.905V165.891V165.877V165.864V165.85V165.836V165.822V165.808V165.794V165.781V165.767V165.753V165.739V165.725V165.711V165.697V165.683V165.67V165.656V165.642V165.628V165.614V165.6V165.586V165.572V165.558V165.544V165.53V165.516V165.502V165.489V165.475V165.461V165.447V165.433V165.419V165.405V165.391V165.377V165.363V165.349V165.335V165.321V165.307V165.293V165.279V165.265V165.251V165.237V165.223V165.208V165.194V165.18V165.166V165.152V165.138V165.124V165.11V165.096V165.082V165.068V165.054V165.04V165.025V165.011V164.997V164.983V164.969V164.955V164.941V164.927V164.912V164.898V164.884V164.87V164.856V164.842V164.827V164.813V164.799V164.785V164.771V164.756V164.742V164.728V164.714V164.7V164.685V164.671V164.657V164.643V164.628V164.614V164.6V164.586V164.571V164.557V164.543V164.529V164.514V164.5V164.486V164.471V164.457V164.443V164.429V164.414V164.4V164.386V164.371V164.357V164.343V164.328V164.314V164.3V164.285V164.271V164.257V164.242V164.228V164.218C39.4477 161.293 39.1826 158.341 38.3843 155.513C37.9169 153.4 37.6279 151.252 37.5204 149.091L37.5184 149.05L37.5152 149.009C37.3824 147.285 37.5328 145.551 37.9601 143.877C38.8875 141.458 39.4983 138.928 39.7771 136.351C40.1116 134.055 40.4433 131.888 40.7995 129.839C41.3637 127.695 41.8587 125.191 42.3412 122.399C42.762 120.364 43.3108 118.358 43.9843 116.393C44.2127 115.828 44.3302 115.224 44.3302 114.614C44.3302 113.957 44.194 113.307 43.9299 112.706C43.6691 112.103 43.2786 111.564 42.785 111.128C42.3195 110.716 41.7735 110.407 41.1814 110.218C40.0689 109.825 38.8517 109.84 37.7469 110.262L37.4568 110.372L37.1956 110.54C36.23 111.16 35.5062 112.09 35.1397 113.174L37.9195 174.146Z" fill="black" stroke="black" stroke-width="6"/>
<path d="M177.435 12.834L177.504 12.8372H177.573L177.641 12.8372C179.866 12.8373 182.32 12.8373 184.829 12.5726C186.688 12.532 188.544 12.7409 190.348 13.1939C193.028 13.9876 195.826 14.3061 198.616 14.135L198.616 14.135L198.628 14.1343C200.441 14.0162 202.262 14.1795 204.026 14.6186C206.568 15.3386 209.206 15.6574 211.845 15.5637C213.809 15.705 215.727 16.2308 217.492 17.1125C218.114 17.4355 218.806 17.6047 219.508 17.6047C220.08 17.6047 220.644 17.4927 221.17 17.2769C221.714 17.1106 222.222 16.8409 222.666 16.4816C223.206 16.0442 223.635 15.4869 223.92 14.8556C224.207 14.2412 224.356 13.571 224.356 12.8929C224.356 12.2037 224.203 11.5228 223.906 10.9002C223.43 9.88596 222.621 9.06319 221.611 8.57177C218.547 6.98592 215.169 6.10657 211.722 5.99875L211.612 5.99529L211.501 5.99998C209.804 6.07211 208.105 5.86697 206.473 5.39242L206.423 5.37799L206.373 5.36528C203.629 4.66917 200.794 4.40531 197.969 4.58318C196.267 4.67471 194.562 4.47093 192.928 3.98059L192.868 3.96277L192.808 3.94742C190.047 3.24163 187.202 2.92746 184.354 3.01404C183.134 3.0156 181.935 3.07663 180.827 3.13305L180.813 3.13374C179.67 3.19191 178.625 3.24484 177.599 3.24571C176.399 3.22868 175.235 3.6511 174.324 4.43142L174.127 4.60022L173.962 4.80033C173.235 5.6826 172.822 6.78151 172.788 7.92251L172.787 7.95727L172.787 7.99205C172.783 8.61186 172.902 9.2266 173.139 9.80005C173.359 10.3333 173.676 10.8212 174.074 11.2386C174.486 11.6973 174.981 12.0736 175.536 12.3461C176.128 12.6373 176.775 12.8036 177.435 12.834Z" fill="black" stroke="black" stroke-width="6"/>
<path d="M273.9 48.4338L273.95 48.4683L274.002 48.5007C275.698 49.558 277.269 50.8056 278.685 52.2197L278.714 52.2488L278.744 52.277C280.671 54.0989 282.353 55.7034 283.77 57.0999L283.8 57.129L283.83 57.1573C285.104 58.3449 286.18 59.7318 287.016 61.2649L287.019 61.2715L287.023 61.278C288.694 64.306 291.144 66.8294 294.12 68.5827L294.215 68.6386L294.313 68.6875C294.928 68.9912 295.605 69.1495 296.291 69.1495C296.784 69.1495 297.272 69.0678 297.736 68.909C298.247 68.8033 298.737 68.6098 299.184 68.3359C299.793 67.9626 300.304 67.4509 300.677 66.8438L300.755 66.7159L300.821 66.5808C301.125 65.952 301.283 65.2625 301.283 64.5643C301.283 64.0179 301.186 63.4769 300.998 62.9661C300.878 62.4887 300.68 62.0327 300.412 61.6166C300.059 61.0705 299.593 60.6059 299.044 60.2552L299.016 60.2369L298.987 60.2193C297.566 59.3556 296.38 58.1485 295.537 56.7062C294.271 54.2703 292.609 52.0636 290.618 50.1778L290.618 50.1778L290.608 50.1683L285.457 45.3352C283.581 43.4618 281.506 41.8019 279.268 40.3857C277.699 39.2849 276.337 37.9118 275.246 36.33C273.113 33.166 269.938 30.8545 266.274 29.8055L266.11 29.7587L265.942 29.7307C265.562 29.6671 265.198 29.5234 264.874 29.3083C264.551 29.0931 264.275 28.811 264.065 28.4796L264.031 28.4246L263.994 28.3712C263.271 27.3315 262.197 26.5857 260.966 26.2758L260.851 26.2469L260.734 26.2271C259.602 26.0355 258.439 26.2437 257.444 26.8147L257.357 26.8645L257.274 26.9199C256.322 27.5535 255.618 28.4918 255.272 29.5776L255.252 29.6378L255.236 29.6986C255.058 30.3506 255.023 31.0333 255.134 31.6997C255.237 32.3201 255.463 32.9135 255.8 33.4444C256.647 34.9078 257.801 36.1703 259.184 37.1433C260.53 38.0901 262.059 38.7402 263.673 39.051C265.161 39.5574 266.451 40.5364 267.345 41.8465C269.095 44.4386 271.319 46.6741 273.9 48.4338Z" fill="black" stroke="black" stroke-width="6"/>
<path d="M221.74 18.3606L222.057 18.5392L222.408 18.6366C224.656 19.2606 226.851 20.0657 228.971 21.0441C231.319 22.2716 233.83 23.1561 236.428 23.6705L237.856 23.9531C238.649 24.3064 239.396 24.7639 240.076 25.3157L240.107 25.3409L240.138 25.3652C241.766 26.6168 243.541 27.8024 245.344 29.0066C245.806 29.3155 246.271 29.6256 246.735 29.9383C249.529 31.9429 252.824 33.13 256.253 33.3655L256.268 33.3665L256.282 33.3674C256.943 33.4064 257.605 33.3049 258.224 33.0698C258.782 32.8582 259.292 32.5429 259.73 32.1416C260.19 31.7585 260.569 31.2881 260.846 30.7577C261.155 30.1669 261.329 29.5157 261.358 28.8504L261.358 28.8386C261.383 28.203 261.283 27.5686 261.063 26.9713C260.85 26.39 260.527 25.8544 260.111 25.394C259.706 24.9328 259.213 24.5555 258.66 24.2845C258.115 24.0173 257.523 23.8589 256.918 23.8184C255.22 23.6578 253.596 23.0373 252.218 22.0209L252.149 21.9699L252.077 21.9229C249.925 20.5181 247.962 19.1271 246.178 17.7218C243.968 15.9182 241.369 14.6553 238.587 14.0344L238.548 14.0257L238.509 14.018C236.781 13.6805 235.109 13.1007 233.542 12.2954L233.507 12.2777L233.473 12.261C230.849 10.9974 228.12 9.9662 225.318 9.17921L225.179 9.14022L225.037 9.11473C223.839 8.89941 222.604 9.12597 221.56 9.75041C220.536 10.3574 219.771 11.3175 219.405 12.447L219.348 12.6252L219.313 12.809C219.124 13.8014 219.245 14.8243 219.654 15.7395C219.788 16.1923 219.992 16.6225 220.262 17.0132C220.646 17.568 221.15 18.0292 221.74 18.3606Z" fill="black" stroke="black" stroke-width="6"/>
<path d="M145.931 295.691L145.824 295.657L145.714 295.63C143.29 295.051 140.838 294.597 138.367 294.273C137.099 294.088 135.889 293.609 134.833 292.873L134.725 292.797L134.611 292.732C132.009 291.237 129.218 290.102 126.314 289.357L126.253 289.341L126.193 289.329C124.571 288.984 123.049 288.272 121.741 287.246C119.441 285.19 116.7 283.693 113.73 282.873C112.026 282.304 110.487 281.322 109.249 280.012C108.226 278.693 106.946 277.594 105.486 276.784C103.996 275.957 102.351 275.448 100.654 275.29C100.057 275.219 99.451 275.262 98.8694 275.418C98.2586 275.582 97.6875 275.866 97.1894 276.254L97.0695 276.348L96.9596 276.453C96.0638 277.309 95.5223 278.468 95.4361 279.701C95.3413 280.893 95.6863 282.08 96.4092 283.037L96.4869 283.14L96.5731 283.235C97.0054 283.715 97.5295 284.104 98.1154 284.379C98.6655 284.637 99.2592 284.79 99.8655 284.828C100.265 284.873 100.652 284.996 101.005 285.192C101.373 285.396 101.697 285.674 101.956 286.011L102.022 286.097L102.094 286.177C104.437 288.808 107.431 290.772 110.774 291.869L110.851 291.895L110.929 291.916C112.529 292.347 114.017 293.124 115.29 294.194C117.75 296.334 120.698 297.834 123.873 298.559C125.871 299.135 127.785 299.975 129.566 301.056C131.792 302.621 134.358 303.634 137.053 304.01L137.073 304.013L137.093 304.015C138.794 304.229 140.91 304.607 143.441 305.137C144.079 305.316 144.749 305.355 145.405 305.249C146.047 305.146 146.659 304.907 147.199 304.551C147.779 304.214 148.271 303.745 148.635 303.181C148.977 302.651 149.195 302.054 149.277 301.433C149.398 300.871 149.409 300.289 149.308 299.721C149.216 299.199 149.032 298.699 148.765 298.244C148.535 297.722 148.21 297.245 147.805 296.838C147.282 296.312 146.64 295.918 145.931 295.691Z" fill="black" stroke="black" stroke-width="6"/>
<path d="M300.914 234.751L300.801 234.854L300.699 234.968C299.421 236.391 297.762 238.117 295.719 240.2L295.672 240.248L295.627 240.298C293.558 242.607 291.684 245.084 290.025 247.705L289.983 247.77L289.945 247.838C289.001 249.516 287.869 251.08 286.571 252.499L286.51 252.566L286.452 252.637C285.244 254.131 283.924 255.53 282.503 256.822L282.418 256.899L282.34 256.982C280.705 258.714 278.932 260.644 277.035 262.908L277.019 262.928L277.002 262.948C276.03 264.15 274.827 265.141 273.466 265.861L273.425 265.883L273.385 265.905C270.89 267.325 268.623 269.114 266.658 271.212L266.593 271.281L266.533 271.354C265.806 272.236 265.393 273.335 265.359 274.476L265.357 274.552L265.358 274.628C265.383 275.809 265.845 276.942 266.657 277.803C267.095 278.275 267.624 278.654 268.212 278.917C268.811 279.185 269.458 279.326 270.114 279.333C270.811 279.34 271.499 279.183 272.124 278.877C272.68 278.604 273.172 278.219 273.57 277.748C274.866 276.42 276.321 275.259 277.902 274.294C280.287 272.971 282.372 271.165 284.024 268.991C285.693 267.096 287.301 265.37 288.821 263.839C290.563 262.316 292.177 260.651 293.647 258.862C295.403 256.935 296.925 254.805 298.181 252.518C299.552 250.478 301.076 248.548 302.742 246.744C304.753 244.694 306.465 242.916 307.823 241.405C308.281 240.933 308.631 240.368 308.85 239.749C309.069 239.13 309.152 238.471 309.093 237.819C309.057 237.215 308.902 236.623 308.638 236.078C308.356 235.497 307.955 234.98 307.46 234.563C306.915 234.103 306.27 233.774 305.576 233.603C304.986 233.457 304.373 233.43 303.774 233.521C302.712 233.6 301.705 234.032 300.914 234.751Z" fill="black" stroke="black" stroke-width="6"/>
<path d="M319.216 198.522L319.099 198.584L318.989 198.656C318.034 199.275 317.318 200.197 316.949 201.27L316.907 201.393L316.876 201.52C316.224 204.138 315.58 206.445 314.943 208.42L314.916 208.506L314.893 208.593C314.522 210.038 313.838 211.381 312.892 212.528L312.843 212.587L312.797 212.649C311.277 214.696 309.981 216.901 308.929 219.225L308.915 219.255L308.902 219.286C307.956 221.506 306.896 223.675 305.726 225.783L305.686 225.855L305.65 225.929C304.509 228.279 303.394 230.325 302.358 232.129C301.745 233.17 301.525 234.396 301.736 235.585L301.783 235.847L301.874 236.096C302.25 237.117 302.935 237.996 303.836 238.61L304.054 238.759L304.295 238.867C304.903 239.141 305.563 239.283 306.231 239.283C306.784 239.283 307.331 239.186 307.848 238.997C308.422 238.839 308.96 238.568 309.429 238.199C309.94 237.796 310.356 237.287 310.649 236.709C311.794 234.753 312.978 232.573 314.202 230.172C315.578 227.638 316.763 225.227 317.722 223C318.472 221.326 319.381 219.729 320.434 218.231C322.147 216.052 323.399 213.544 324.112 210.862C324.761 208.766 325.413 206.401 326.07 203.773C326.274 203.244 326.378 202.681 326.378 202.113C326.378 201.415 326.22 200.726 325.916 200.097L325.64 199.527L325.158 199.117C324.365 198.444 323.381 198.037 322.346 197.954C321.27 197.814 320.176 198.012 319.216 198.522Z" fill="black" stroke="black" stroke-width="6"/>
<path d="M326.5 184.228C326.125 186.951 325.837 189.413 325.578 192.048C325.413 193.717 325.284 195.223 325.167 196.581C325.099 197.369 325.036 198.106 324.973 198.797C324.949 199.033 324.875 199.262 324.756 199.467C324.636 199.672 324.475 199.848 324.281 199.984C324.116 200.158 323.913 200.291 323.688 200.371C323.463 200.452 323.222 200.478 322.985 200.448C322.749 200.426 322.521 200.353 322.317 200.233C322.113 200.112 321.937 199.949 321.803 199.753C321.663 199.591 321.558 199.402 321.493 199.198C321.429 198.994 321.407 198.778 321.429 198.565C321.504 197.734 321.585 196.803 321.671 195.81C321.783 194.52 321.904 193.124 322.034 191.701C322.264 189.181 322.581 186.632 322.985 183.736C323.304 181.343 323.776 178.972 324.396 176.64L326.5 184.228ZM326.5 184.228C326.797 182.031 327.23 179.855 327.796 177.711L326.5 184.228ZM333.305 148.076L333.265 147.935L333.211 147.799C332.647 146.357 332.182 144.878 331.819 143.372C331.526 141.94 331.602 140.457 332.037 139.063C332.273 138.513 332.394 137.921 332.394 137.321C332.394 136.638 332.236 135.964 331.932 135.352C331.653 134.771 331.258 134.252 330.77 133.828C330.294 133.414 329.738 133.099 329.138 132.902C328.062 132.521 326.885 132.532 325.815 132.936L325.579 133.025L325.361 133.153C324.418 133.703 323.667 134.528 323.206 135.514L323.125 135.687L323.067 135.869C322.076 138.956 321.933 142.254 322.652 145.416L322.657 145.437L322.662 145.457C323.105 147.284 323.653 149.084 324.304 150.847C324.512 152.276 324.437 153.734 324.081 155.135L324.036 155.315L324.013 155.5C323.961 155.915 323.953 156.335 323.989 156.751V156.762V156.775V156.788V156.801V156.814V156.826V156.839V156.852V156.865V156.877V156.89V156.903V156.916V156.929V156.941V156.954V156.967V156.98V156.993V157.005V157.018V157.031V157.044V157.057V157.07V157.082V157.095V157.108V157.121V157.134V157.147V157.159V157.172V157.185V157.198V157.211V157.224V157.236V157.249V157.262V157.275V157.288V157.301V157.314V157.327V157.339V157.352V157.365V157.378V157.391V157.404V157.417V157.43V157.443V157.456V157.468V157.481V157.494V157.507V157.52V157.533V157.546V157.559V157.572V157.585V157.598V157.611V157.624V157.636V157.649V157.662V157.675V157.688V157.701V157.714V157.727V157.74V157.753V157.766V157.779V157.792V157.805V157.818V157.831V157.844V157.857V157.87V157.883V157.896V157.909V157.922V157.935V157.948V157.961V157.974V157.987V158V158.013V158.026V158.039V158.052V158.065V158.078V158.091V158.104V158.117V158.13V158.143V158.156V158.169V158.182V158.195V158.209V158.222V158.235V158.248V158.261V158.274V158.287V158.3V158.313V158.326V158.339V158.352V158.365V158.379V158.392V158.405V158.418V158.431V158.444V158.457V158.47V158.483V158.496V158.51V158.523V158.536V158.549V158.562V158.575V158.588V158.601V158.615V158.628V158.641V158.654V158.667V158.68V158.694V158.707V158.72V158.733V158.746V158.759V158.773V158.786V158.799V158.812V158.825V158.838V158.852V158.865V158.878V158.891V158.904V158.918V158.931V158.944V158.957V158.97V158.984V158.997V159.01V159.023V159.037V159.05V159.063V159.076V159.089V159.103V159.116V159.129V159.142V159.156V159.169V159.182V159.195V159.209V159.222V159.235V159.248V159.262V159.275V159.288V159.302V159.315V159.328V159.341V159.355V159.368V159.381V159.395V159.408V159.421V159.435V159.448V159.461V159.474V159.488V159.501V159.514V159.528V159.541V159.554V159.568V159.581V159.594V159.608V159.621V159.634V159.648V159.661V159.674V159.688V159.701V159.715V159.728V159.741V159.755V159.768V159.781V159.795V159.808V159.822V159.835V159.848V159.862V159.875V159.888V159.902V159.915V159.929V159.942V159.955V159.969V159.982V159.996V160.009V160.023V160.036V160.049V160.063V160.076V160.09V160.103V160.117V160.13V160.143V160.157V160.17V160.184V160.197V160.211V160.224V160.238V160.251V160.265V160.278V160.292V160.305V160.319V160.332V160.345V160.359V160.372V160.386V160.399V160.413V160.426V160.44V160.453V160.467V160.48V160.494V160.508V160.521V160.535V160.548V160.562V160.575V160.589V160.602V160.616V160.629V160.643V160.656V160.67V160.683V160.697V160.711V160.724V160.738V160.751V160.765V160.778V160.792V160.806V160.819V160.833V160.846V160.86V160.873V160.887V160.901V160.914V160.928V160.941V160.955V160.969V160.982V160.996V161.01V161.023V161.037V161.05V161.064V161.078V161.091V161.105V161.119V161.132V161.146V161.159V161.173V161.187V161.2V161.214V161.228V161.241V161.255V161.269V161.282V161.296V161.31V161.323V161.337V161.351V161.364V161.378V161.392V161.406V161.419V161.433V161.447V161.46V161.474V161.488V161.501V161.515V161.529V161.543V161.556V161.57V161.584V161.597V161.611V161.625V161.639V161.652V161.666V161.68V161.694V161.707V161.721V161.735V161.749V161.762V161.776V161.79V161.804V161.817V161.831V161.845V161.859V161.873V161.886V161.9V161.914V161.928V161.942V161.955V161.969V161.983V161.997V162.011V162.024V162.038V162.052V162.066V162.08V162.093V162.107V162.121V162.135V162.149V162.163V162.176V162.19V162.204V162.218V162.232V162.246V162.26V162.273V162.287V162.301V162.315V162.329V162.343V162.357V162.371V162.384V162.398V162.412V162.426V162.44V162.454V162.468V162.482V162.496V162.509V162.523V162.537V162.551V162.565V162.579V162.593V162.607V162.621V162.635V162.649V162.663V162.677V162.69V162.704V162.718V162.732V162.746V162.76V162.774V162.788V162.802V162.816V162.83V162.844V162.858V162.872V162.886V162.9V162.914V162.928V162.942V162.956V162.97V162.984V162.998V163.012V163.026V163.04V163.054V163.068V163.082V163.096V163.11V163.124V163.138V163.152V163.166V163.18V163.194V163.208V163.222V163.236V163.25V163.264V163.278V163.292V163.306V163.32V163.335V163.349V163.363V163.377V163.391V163.405V163.419V163.424C323.934 165.598 323.644 167.759 323.125 169.87L323.11 169.933L323.097 169.996C322.712 171.917 322.198 173.81 321.56 175.663L321.525 175.764L321.497 175.868C320.845 178.321 320.348 180.814 320.012 183.33C319.606 186.247 319.283 188.845 319.046 191.428C318.918 192.832 318.793 194.267 318.679 195.58C318.593 196.572 318.513 197.495 318.442 198.282C318.382 198.895 318.447 199.513 318.632 200.101C318.803 200.641 319.072 201.144 319.427 201.586C319.795 202.084 320.26 202.503 320.796 202.818C321.365 203.153 322 203.362 322.658 203.43C323.346 203.51 324.044 203.43 324.697 203.196C325.272 202.991 325.798 202.672 326.244 202.26C326.687 201.904 327.062 201.469 327.348 200.976C327.684 200.399 327.892 199.757 327.958 199.094L327.959 199.083L327.96 199.071C328.027 198.346 328.091 197.594 328.159 196.801C328.275 195.461 328.4 194 328.563 192.342C328.819 189.744 329.102 187.32 329.472 184.637L329.472 184.631C329.748 182.595 330.147 180.577 330.667 178.59C331.421 176.429 332.035 174.222 332.507 171.981C333.194 169.217 333.576 166.385 333.647 163.536L333.648 163.499V163.461V156.673C334.213 153.822 334.096 150.875 333.305 148.076Z" fill="black" stroke="black" stroke-width="6"/>
<path d="M202.621 296.735L202.6 296.747L202.579 296.758C201.233 297.497 199.692 297.79 198.173 297.599L198.164 297.598C195.248 297.24 192.289 297.468 189.461 298.268L189.372 298.294L189.284 298.325C187.877 298.819 186.376 298.977 184.899 298.788L184.846 298.781L184.793 298.776C181.732 298.492 178.648 298.577 175.606 299.027L175.511 299.041L175.418 299.061C173.678 299.434 171.88 299.437 170.139 299.069C167.956 298.546 165.748 298.134 163.524 297.836C161.554 297.551 159.604 297.142 157.685 296.612L157.628 296.597L157.571 296.583C154.886 295.954 152.151 295.57 149.397 295.436L149.37 295.435L149.343 295.434C148.109 295.396 146.911 295.835 145.994 296.652C145.517 297.052 145.127 297.546 144.85 298.103C144.567 298.672 144.408 299.295 144.382 299.93C144.343 300.559 144.431 301.19 144.641 301.785C144.845 302.363 145.161 302.895 145.57 303.351C145.962 303.82 146.445 304.207 146.99 304.488C147.578 304.791 148.224 304.963 148.884 304.992C151.011 305.094 153.126 305.375 155.206 305.833C157.511 306.477 159.854 306.971 162.223 307.311L162.239 307.313L162.255 307.315C164.322 307.588 166.205 307.944 167.936 308.329C170.98 309.12 174.163 309.213 177.248 308.602C179.517 308.275 181.816 308.207 184.101 308.398C186.963 308.729 189.862 308.402 192.578 307.441C194.177 307.029 195.837 306.91 197.478 307.089C200.946 307.52 204.462 306.87 207.55 305.229C208.586 304.693 209.776 304.553 210.903 304.829C211.447 305.053 212.031 305.169 212.622 305.169C213.31 305.169 213.987 305.012 214.603 304.711C215.247 304.42 215.81 303.975 216.242 303.417C216.578 302.982 216.827 302.49 216.978 301.966C217.202 301.441 217.318 300.875 217.318 300.301C217.318 299.605 217.147 298.921 216.822 298.308C216.413 297.427 215.746 296.689 214.904 296.194C214.206 295.784 213.419 295.559 212.617 295.536C209.257 294.688 205.697 295.111 202.621 296.735Z" fill="black" stroke="black" stroke-width="6"/>
<path d="M100.394 274.522L100.365 274.49L100.334 274.459C98.7722 272.874 97.1191 271.383 95.3832 269.994C94.6332 269.355 93.7151 268.598 92.6898 267.753C91.6813 266.921 90.5691 266.004 89.4114 265.03C86.8458 262.871 84.6601 261.362 82.7452 260.041L82.6839 259.998C81.2073 258.958 79.9024 257.689 78.8175 256.24C77.4962 254.36 76.0078 252.604 74.3705 250.994L74.3526 250.976L74.3345 250.959C73.3839 250.055 72.0303 248.564 70.1469 246.409C68.3491 244.352 66.9616 242.54 65.8265 241.028C65.0792 240.022 63.9704 239.343 62.73 239.138L62.6928 239.132L62.6555 239.127C62.029 239.039 61.3916 239.079 60.7808 239.242C60.1801 239.403 59.6178 239.681 59.1254 240.06C58.1296 240.813 57.4643 241.92 57.2633 243.149L57.2573 243.185L57.2521 243.222C57.166 243.846 57.2047 244.48 57.3662 245.089C57.5251 245.688 57.8 246.251 58.1758 246.745C59.4211 248.413 60.9806 250.394 62.8821 252.658L62.8906 252.668L62.8992 252.678C64.4439 254.485 66.0799 256.212 67.8008 257.85C69.0094 259.08 70.1174 260.407 71.1141 261.816L71.1279 261.836L71.1419 261.855C72.8386 264.175 74.8996 266.204 77.2448 267.861C79.0741 269.162 81.1193 270.683 83.329 272.483L89.3303 277.448C90.8316 278.715 92.162 279.943 93.3522 281.159C93.7375 281.622 94.2128 282.004 94.7511 282.281C95.34 282.585 95.9885 282.754 96.6504 282.777C97.2982 282.813 97.9464 282.713 98.5533 282.482C99.1413 282.259 99.6766 281.919 100.128 281.484C100.613 281.047 101 280.513 101.264 279.916C101.516 279.346 101.65 278.733 101.659 278.112C101.703 277.499 101.628 276.882 101.438 276.296C101.223 275.636 100.867 275.03 100.394 274.522Z" fill="black" stroke="black" stroke-width="6"/>
<path d="M63.9435 242.397L63.9954 242.299L64.0398 242.197C64.3026 241.594 64.4381 240.944 64.4381 240.287C64.4381 239.631 64.3026 238.981 64.0398 238.378L64.0238 238.342L64.0068 238.305C62.6719 235.456 60.8015 232.891 58.4977 230.753C57.5343 229.845 56.8395 228.685 56.4924 227.401C55.8533 224.254 54.3297 221.355 52.0997 219.048C50.9811 217.804 50.2481 216.255 49.994 214.592L49.9919 214.579C49.5475 211.755 48.7084 209.008 47.4992 206.419L47.4938 206.408L47.4883 206.396C46.5363 204.402 45.4415 202.291 44.2066 200.064L44.1754 200.008L44.1418 199.953C43.2948 198.57 42.7931 196.999 42.6802 195.377C42.6435 192.783 42.2613 190.205 41.5436 187.713C41.1209 185.983 40.6139 183.83 40.0504 181.338C39.6527 179.383 39.5088 177.384 39.6226 175.391L39.6227 175.39C39.6591 174.747 39.5601 174.103 39.3316 173.5C39.1256 172.956 38.8186 172.457 38.4266 172.028C38.0375 171.563 37.5585 171.178 37.0169 170.9C36.4393 170.602 35.8047 170.432 35.1557 170.4C34.0322 170.326 32.917 170.633 31.9894 171.271L31.7704 171.421L31.5812 171.608C30.6974 172.481 30.1763 173.653 30.1165 174.889C29.9495 177.715 30.1642 180.551 30.7547 183.319L30.7588 183.338L30.7632 183.357C31.0169 184.475 31.2543 185.539 31.4767 186.536C31.7749 187.873 32.0463 189.089 32.2941 190.152L32.3128 190.232L32.3358 190.311C32.8475 192.064 33.1271 193.878 33.1672 195.706L33.1681 195.748L33.1702 195.79C33.327 198.927 34.2278 201.981 35.7982 204.698C36.502 205.99 37.1263 207.19 37.7209 208.334C38.0822 209.028 38.4326 209.702 38.7833 210.362C39.591 212.094 40.1353 213.938 40.3977 215.834L40.4054 215.889L40.4151 215.944C41.0342 219.447 42.6445 222.698 45.0554 225.307L45.0632 225.316L45.0711 225.324C46.0565 226.374 46.7352 227.679 47.0302 229.096L47.0341 229.115L47.0382 229.134C47.7466 232.331 49.4184 235.233 51.8287 237.444L51.839 237.453C53.2687 238.753 54.4322 240.322 55.263 242.073C55.5376 242.658 55.9273 243.183 56.4096 243.616C56.8366 243.999 57.3284 244.302 57.8617 244.512C58.4343 244.775 59.0581 244.912 59.6911 244.912C60.2894 244.912 60.8797 244.79 61.4262 244.554C61.9072 244.388 62.357 244.142 62.7564 243.826C63.2477 243.437 63.6517 242.95 63.9435 242.397Z" fill="black" stroke="black" stroke-width="6"/>
<path d="M138.273 235.391L142.521 239.614C169.638 215.382 195.703 189.986 221.437 164.339L222.407 165.315V163.372C223.478 162.305 224.549 161.236 225.619 160.167L225.625 160.161L225.632 160.154C226.726 159.048 227.337 157.556 227.337 156.003C227.337 154.45 226.726 152.958 225.632 151.852L225.625 151.845L225.619 151.839C224.549 150.77 223.478 149.701 222.407 148.633V146.686L221.436 147.664C209.274 135.54 197.064 123.485 184.665 111.567C170.855 98.2925 156.96 85.1663 142.507 72.409L138.271 76.6418C162.334 103.946 187.531 130.164 213.154 156.005C187.535 181.872 162.389 208.089 138.273 235.391Z" fill="black" stroke="black" stroke-width="6"/>
<path d="M270.481 65.0126L270.35 65.1826L270.245 65.3693C269.657 66.4181 269.458 67.6413 269.684 68.8214L269.708 68.9431L269.741 69.0625C270.628 72.2457 272.126 75.2247 274.151 77.8313L274.176 77.8627L274.201 77.8934C275.867 79.9235 277.742 81.7701 279.796 83.4021C280.777 84.2507 281.506 85.3577 281.901 86.6015L281.905 86.6139L281.909 86.6262C282.628 88.8245 283.543 90.9529 284.642 92.9856V93.2463L285.128 93.9929C286.161 95.5787 287.035 97.2644 287.735 99.0251L287.739 99.0349L287.743 99.0447L290.612 106.112C291.489 108.409 292.241 110.751 292.865 113.13L292.873 113.164L292.883 113.197C293.497 115.336 293.937 117.521 294.199 119.732L294.205 119.784L294.214 119.837C294.495 121.655 294.747 123.353 294.982 124.939C295.084 125.619 295.181 126.279 295.277 126.919L295.279 126.933L295.282 126.947C295.708 129.619 296.432 132.235 297.441 134.745C297.652 135.358 297.995 135.92 298.447 136.389C298.897 136.855 299.444 137.218 300.049 137.45C300.61 137.693 301.217 137.819 301.831 137.819C302.434 137.819 303.029 137.698 303.582 137.464C304.19 137.241 304.742 136.887 305.2 136.427C305.654 135.97 306.003 135.421 306.224 134.818C306.467 134.245 306.593 133.629 306.593 133.006C306.593 132.354 306.455 131.71 306.19 131.116C305.469 129.286 304.949 127.383 304.638 125.439C304.58 125.05 304.522 124.652 304.462 124.246C304.196 122.444 303.906 120.477 303.579 118.361C303.257 115.708 302.719 113.086 301.97 110.521C301.254 107.815 300.398 105.148 299.408 102.531L299.395 102.497L299.381 102.462C299.022 101.582 298.671 100.703 298.324 99.8387C297.699 98.2788 297.092 96.763 296.496 95.3562C295.575 93.0471 294.43 90.8348 293.077 88.7518C292.098 87.071 291.29 85.2952 290.664 83.4514C289.766 80.6544 288.141 78.147 285.955 76.1889L285.881 76.1221L285.802 76.0604C284.253 74.8489 282.838 73.473 281.582 71.9563C280.399 70.3886 279.509 68.6175 278.954 66.7291C278.824 66.0938 278.553 65.4935 278.161 64.9727C277.762 64.4423 277.248 64.0094 276.657 63.7069C275.64 63.1197 274.438 62.9306 273.285 63.1836L273.197 63.2028L273.111 63.2272C272.063 63.5236 271.141 64.1508 270.481 65.0126Z" fill="white" stroke="white" stroke-width="6"/>
<path d="M240.431 271.282L240.177 271.32L239.933 271.401C238.867 271.756 237.951 272.454 237.326 273.383L237.252 273.492L237.189 273.607C236.901 274.127 236.512 274.582 236.046 274.945C235.58 275.307 235.046 275.57 234.478 275.718L234.385 275.742L234.293 275.772C231.241 276.78 228.464 278.483 226.178 280.748L226.108 280.817L226.043 280.891C224.901 282.181 223.496 283.207 221.925 283.898L221.845 283.933L221.768 283.972C220.18 284.784 218.449 285.275 216.675 285.42C213.689 285.646 210.829 286.709 208.417 288.487L208.408 288.493L208.399 288.5C207.326 289.303 206.035 289.751 204.702 289.785L204.557 289.789L204.413 289.807C201.377 290.181 198.418 291.03 195.645 292.325L195.562 292.364L195.482 292.408C193.657 293.399 191.732 294.191 189.74 294.769L189.563 294.82L189.395 294.893C188.333 295.347 187.473 296.165 186.962 297.192C186.429 298.173 186.245 299.307 186.441 300.408L186.48 300.623L186.549 300.831C186.755 301.448 187.084 302.018 187.516 302.505C187.943 302.987 188.463 303.378 189.044 303.656C189.647 303.948 190.308 304.1 190.979 304.1C191.547 304.1 192.109 303.991 192.633 303.78C195.16 303.037 197.598 302.018 199.903 300.74C201.695 299.943 203.593 299.412 205.536 299.163C208.667 298.985 211.678 297.905 214.212 296.054C215.282 295.402 216.488 295.009 217.734 294.905L217.778 294.902L217.821 294.897C220.548 294.59 223.201 293.807 225.659 292.584C228.411 291.407 230.881 289.656 232.906 287.448C234.127 286.31 235.574 285.448 237.149 284.918C238.886 284.461 240.514 283.659 241.937 282.561C243.376 281.451 244.575 280.061 245.464 278.475C246.068 277.457 246.283 276.254 246.067 275.089C245.847 273.899 245.192 272.83 244.226 272.093L243.42 271.479H242.865C242.084 271.227 241.251 271.157 240.431 271.282Z" fill="white" stroke="white" stroke-width="6"/>
<path d="M90.5725 25.5401L90.8519 25.7687L91.1776 25.9246C91.802 26.2234 92.4856 26.3788 93.1785 26.3788C93.7509 26.3788 94.3169 26.2727 94.8485 26.0674C97.4965 25.3701 100.075 24.4298 102.552 23.2583C105.117 22.2804 107.53 20.9409 109.719 19.2805C110.782 18.6162 111.992 18.2316 113.24 18.1619L113.295 18.1588L113.35 18.1538C116.506 17.8611 119.573 16.9396 122.37 15.4435C123.621 14.7911 125.024 14.4965 126.428 14.5901C128.817 14.8978 131.234 14.9087 133.625 14.6228C135.596 14.8069 137.792 14.8068 140.072 14.8068L140.158 14.8068C143.483 14.8642 146.773 14.1308 149.758 12.6699C150.302 12.5462 150.819 12.3207 151.282 12.0032C151.97 11.532 152.51 10.8776 152.843 10.1164C153.109 9.51269 153.246 8.86018 153.246 8.20078C153.246 7.54428 153.11 6.89463 152.846 6.29315C152.585 5.69002 152.195 5.1508 151.701 4.7147C151.236 4.3035 150.689 3.99371 150.097 3.8054C148.985 3.41231 147.768 3.4267 146.663 3.84858L146.509 3.90734L146.362 3.9826C144.581 4.89769 142.601 5.35122 140.602 5.30303L140.566 5.30216H140.53L140.401 5.30215C137.795 5.30208 135.286 5.30202 133.124 5.55404L133.106 5.55619L133.087 5.55856C131.429 5.77262 129.751 5.77262 128.093 5.55856L128.044 5.55223L127.995 5.54751C124.698 5.23205 121.383 5.88044 118.446 7.41283C116.603 8.2821 114.601 8.75698 112.566 8.8077L112.517 8.80892L112.469 8.8117C109.46 8.98435 106.559 9.99376 104.09 11.7257L104.016 11.7775L103.945 11.8337C102.475 13.0025 100.823 13.9162 99.055 14.5376L98.8995 14.5923L98.751 14.6637C96.7143 15.6421 94.5829 16.4067 92.3906 16.9454L92.2552 16.9786L92.1234 17.0243C91.0474 17.3975 90.1304 18.1216 89.5165 19.0771L89.4682 19.1521L89.4245 19.23C88.8357 20.2787 88.6375 21.5019 88.8635 22.6821L88.8665 22.6981L88.8698 22.714C89.0945 23.8225 89.6948 24.8217 90.5725 25.5401Z" fill="white" stroke="white" stroke-width="6"/>
<path d="M91.3221 27.9108L91.3331 27.9064L91.344 27.9019C91.9606 27.6465 92.5176 27.2674 92.9809 26.7886C93.413 26.3422 93.7552 25.818 93.9902 25.2449C94.2498 24.6672 94.3842 24.0406 94.3842 23.4068C94.3842 22.7311 94.2315 22.0639 93.9372 21.4552C93.4033 20.3375 92.4638 19.4624 91.3064 19.012C90.7484 18.7848 90.1513 18.6677 89.548 18.6677C88.933 18.6677 88.3244 18.7894 87.7572 19.0253C85.2196 20.054 82.7612 21.2698 80.4021 22.6626L80.2742 22.7382L80.1543 22.826C78.4487 24.0756 76.5805 25.4547 74.562 27.0133L74.562 27.0133L74.5548 27.0189L69.2247 31.1607L69.136 31.2296L69.0527 31.305C67.6558 32.5689 65.902 34.0823 63.7779 35.6154L63.7072 35.6664L63.6396 35.7215C61.8124 37.2091 59.8624 38.537 57.8109 39.6908L57.7605 39.7192L57.7112 39.7495C55.6599 41.0097 53.6326 42.2153 51.6225 43.3989L51.5682 43.4309L51.5152 43.4651C49.9356 44.487 48.5837 45.8245 47.5433 47.3935C46.5028 48.9624 45.7959 50.7293 45.466 52.5836L45.4529 52.6571L45.4435 52.7311C45.3035 53.8334 45.5077 54.953 46.0293 55.9352L46.0462 55.9671L46.0639 55.9986C46.3554 56.5172 46.7464 56.9739 47.2152 57.342C47.6643 57.6947 48.1762 57.9595 48.7242 58.1218C49.4028 58.3355 50.1223 58.3882 50.8257 58.2751C51.4678 58.1718 52.0789 57.9331 52.6194 57.5768C53.1992 57.2405 53.6913 56.7712 54.0551 56.2073C54.4169 55.6465 54.6405 55.0099 54.7102 54.3498C54.937 53.2394 55.5652 52.2564 56.4686 51.5898L62.4277 48.0011C64.949 46.5957 67.3339 44.9564 69.551 43.1046C71.7275 41.4063 73.5636 39.9092 75.0491 38.6179C76.6707 37.4788 78.419 36.1806 80.3145 34.7303C80.317 34.7284 80.3194 34.7265 80.3219 34.7246L85.5106 30.8055C87.3709 29.6917 89.3138 28.724 91.3221 27.9108Z" fill="white" stroke="white" stroke-width="6"/>
<path d="M13.1136 115.064L13.2442 115.155L13.3836 115.231C14.0239 115.582 14.7426 115.767 15.4739 115.767C16.1454 115.767 16.8064 115.611 17.4058 115.314C18.0011 115.046 18.5329 114.656 18.966 114.167C19.4115 113.665 19.7416 113.073 19.9346 112.432C20.6789 110.238 21.3555 107.808 21.9682 105.176C22.5081 103.247 23.2123 101.368 24.0729 99.5612C25.2179 97.6158 26.175 95.5649 26.9313 93.4366C27.5922 91.8634 28.5021 89.8417 29.6893 87.4256C30.8101 85.279 32.0617 83.2043 33.4369 81.2132C34.3347 80.0594 35.2281 78.8963 36.0889 77.7757C36.6976 76.9832 37.29 76.212 37.8562 75.4802L37.8809 75.4482L37.9047 75.4156C38.7684 74.2349 39.68 73.0908 40.6371 71.986V72.6064L45.9463 66.2041C47.8766 63.8764 49.6353 61.4105 51.2085 58.8259C51.5767 58.2987 51.8257 57.6972 51.9377 57.0634C52.0449 56.4577 52.0244 55.8372 51.8788 55.2416C51.7791 54.673 51.5743 54.1266 51.2738 53.6311C50.9235 53.0537 50.4514 52.5588 49.8893 52.1817L49.8302 52.1421L49.7693 52.1053C48.746 51.4871 47.5298 51.2692 46.3545 51.4955L46.2028 51.5247L46.0549 51.5693C44.9908 51.8904 44.0544 52.5343 43.3731 53.4095L43.2612 53.5532L43.1676 53.7094C41.8433 55.9175 40.3337 58.0074 38.6554 59.9566L38.6054 60.0147L38.5584 60.0753C37.4118 61.5534 36.1605 62.9461 34.8142 64.2425L34.7543 64.3003L34.6976 64.3612C33.1174 66.0616 31.6325 67.8489 30.2496 69.7148L30.2268 69.7457L30.2047 69.7771C28.8744 71.6718 27.4299 73.5431 25.8989 75.362L25.801 75.4783L25.7153 75.604C24.0154 78.0976 22.5051 80.7164 21.1972 83.4382L21.1972 83.4381L21.1917 83.4498C19.9501 86.0622 18.9359 88.2773 18.236 90.021L18.0201 90.5589V90.714C17.4428 92.1411 16.7564 93.5212 15.9671 94.842L15.9015 94.9517L15.8456 95.0666C14.67 97.4784 13.7332 100 13.0485 102.596L13.0358 102.644L13.0247 102.692C12.4723 105.108 11.8724 107.3 11.2295 109.223C11.0228 109.76 10.9168 110.331 10.9168 110.906C10.9168 111.488 11.025 112.064 11.2358 112.606C11.5889 113.599 12.2442 114.46 13.1136 115.064Z" fill="white" stroke="white" stroke-width="6"/>
<path d="M9.27496 175.737L9.0277 175.705C8.35476 175.619 7.71024 175.384 7.1408 175.017C6.70281 174.734 6.3179 174.38 6.00147 173.97C5.63938 173.593 5.34177 173.158 5.12114 172.683C4.85834 172.117 4.71018 171.505 4.6842 170.883C4.5463 169.321 4.59437 167.517 4.63905 165.84C4.65997 165.055 4.68015 164.298 4.68015 163.606V163.447L4.69688 163.29C4.88915 161.477 4.72774 159.644 4.22186 157.893L4.19942 157.815L4.18118 157.737C3.56531 155.076 3.18427 152.365 3.04246 149.637C2.8719 146.726 3.21607 143.807 4.05921 141.016L4.07042 140.979L4.08258 140.942C4.68317 139.125 5.07132 137.243 5.2391 135.335L5.2444 135.275L5.25212 135.215C5.57421 132.713 5.96956 130.231 6.8014 127.453C7.26345 125.559 7.70284 123.429 8.14601 120.645L8.15548 120.585L8.16734 120.526C8.66693 118.036 9.32559 115.581 10.1392 113.176L9.27496 175.737ZM9.27496 175.737L9.52405 175.727M9.27496 175.737L9.52405 175.727M9.52405 175.727C10.1713 175.702 10.8065 175.548 11.3923 175.273C11.9713 175.001 12.4901 174.618 12.9195 174.146M9.52405 175.727L12.9195 174.146M12.9195 174.146C13.3527 173.674 13.6856 173.121 13.8987 172.518C14.1004 171.948 14.191 171.345 14.1663 170.742V170.735V170.723V170.711V170.699V170.687V170.675V170.663V170.651V170.639V170.627V170.615V170.603V170.591V170.579V170.567V170.555V170.543V170.531V170.519V170.507V170.495V170.483V170.471V170.459V170.447V170.435V170.423V170.411V170.399V170.387V170.375V170.363V170.351V170.339V170.326V170.314V170.302V170.29V170.278V170.266V170.254V170.242V170.23V170.217V170.205V170.193V170.181V170.169V170.157V170.144V170.132V170.12V170.108V170.096V170.083V170.071V170.059V170.047V170.035V170.022V170.01V169.998V169.986V169.973V169.961V169.949V169.937V169.924V169.912V169.9V169.888V169.875V169.863V169.851V169.838V169.826V169.814V169.801V169.789V169.777V169.764V169.752V169.74V169.727V169.715V169.703V169.69V169.678V169.666V169.653V169.641V169.628V169.616V169.604V169.591V169.579V169.566V169.554V169.542V169.529V169.517V169.504V169.492V169.479V169.467V169.454V169.442V169.43V169.417V169.405V169.392V169.38V169.367V169.355V169.342V169.33V169.317V169.305V169.292V169.279V169.267V169.254V169.242V169.229V169.217V169.204V169.192V169.179V169.166V169.154V169.141V169.129V169.116V169.103V169.091V169.078V169.066V169.053V169.04V169.028V169.015V169.002V168.99V168.977V168.964V168.952V168.939V168.926V168.914V168.901V168.888V168.876V168.863V168.85V168.837V168.825V168.812V168.799V168.787V168.774V168.761V168.748V168.736V168.723V168.71V168.697V168.685V168.672V168.659V168.646V168.633V168.621V168.608V168.595V168.582V168.569V168.556V168.544V168.531V168.518V168.505V168.492V168.479V168.467V168.454V168.441V168.428V168.415V168.402V168.389V168.376V168.363V168.351V168.338V168.325V168.312V168.299V168.286V168.273V168.26V168.247V168.234V168.221V168.208V168.195V168.182V168.169V168.156V168.143V168.13V168.117V168.104V168.091V168.078V168.065V168.052V168.039V168.026V168.013V168V167.987V167.974V167.961V167.948V167.935V167.922V167.909V167.896V167.883V167.869V167.856V167.843V167.83V167.817V167.804V167.791V167.778V167.765V167.751V167.738V167.725V167.712V167.699V167.686V167.673V167.659V167.646V167.633V167.62V167.607V167.593V167.58V167.567V167.554V167.541V167.527V167.514V167.501V167.488V167.474V167.461V167.448V167.435V167.421V167.408V167.395V167.382V167.368V167.355V167.342V167.328V167.315V167.302V167.288V167.275V167.262V167.249V167.235V167.222V167.209V167.195V167.182V167.168V167.155V167.142V167.128V167.115V167.102V167.088V167.075V167.061V167.048V167.035V167.021V167.008V166.994V166.981V166.968V166.954V166.941V166.927V166.914V166.9V166.887V166.873V166.86V166.846V166.833V166.819V166.806V166.793V166.779V166.766V166.752V166.738V166.725V166.711V166.698V166.684V166.671V166.657V166.644V166.63V166.617V166.603V166.59V166.576V166.562V166.549V166.535V166.522V166.508V166.494V166.481V166.467V166.454V166.44V166.426V166.413V166.399V166.385V166.372V166.358V166.344V166.331V166.317V166.303V166.29V166.276V166.262V166.249V166.235V166.221V166.208V166.194V166.18V166.167V166.153V166.139V166.125V166.112V166.098V166.084V166.07V166.057V166.043V166.029V166.015V166.002V165.988V165.974V165.96V165.946V165.933V165.919V165.905V165.891V165.877V165.864V165.85V165.836V165.822V165.808V165.794V165.781V165.767V165.753V165.739V165.725V165.711V165.697V165.683V165.67V165.656V165.642V165.628V165.614V165.6V165.586V165.572V165.558V165.544V165.53V165.516V165.502V165.489V165.475V165.461V165.447V165.433V165.419V165.405V165.391V165.377V165.363V165.349V165.335V165.321V165.307V165.293V165.279V165.265V165.251V165.237V165.223V165.208V165.194V165.18V165.166V165.152V165.138V165.124V165.11V165.096V165.082V165.068V165.054V165.04V165.025V165.011V164.997V164.983V164.969V164.955V164.941V164.927V164.912V164.898V164.884V164.87V164.856V164.842V164.827V164.813V164.799V164.785V164.771V164.756V164.742V164.728V164.714V164.7V164.685V164.671V164.657V164.643V164.628V164.614V164.6V164.586V164.571V164.557V164.543V164.529V164.514V164.5V164.486V164.471V164.457V164.443V164.429V164.414V164.4V164.386V164.371V164.357V164.343V164.328V164.314V164.3V164.285V164.271V164.257V164.242V164.228V164.218C14.4477 161.293 14.1826 158.341 13.3843 155.513C12.9169 153.4 12.6279 151.252 12.5204 149.091L12.5184 149.05L12.5152 149.009C12.3824 147.285 12.5328 145.551 12.9601 143.877C13.8875 141.458 14.4983 138.928 14.7771 136.351C15.1116 134.055 15.4433 131.888 15.7995 129.839C16.3637 127.695 16.8587 125.191 17.3412 122.399C17.762 120.364 18.3108 118.358 18.9843 116.393C19.2127 115.828 19.3302 115.224 19.3302 114.614C19.3302 113.957 19.194 113.307 18.9299 112.706C18.6691 112.103 18.2786 111.564 17.785 111.128C17.3195 110.716 16.7735 110.407 16.1814 110.218C15.0689 109.825 13.8517 109.84 12.7469 110.262L12.4568 110.372L12.1956 110.54C11.23 111.16 10.5062 112.09 10.1397 113.174L12.9195 174.146Z" fill="white" stroke="white" stroke-width="6"/>
<path d="M152.435 12.834L152.504 12.8372H152.573L152.641 12.8372C154.866 12.8373 157.32 12.8373 159.829 12.5726C161.688 12.532 163.544 12.7409 165.348 13.1939C168.028 13.9876 170.826 14.3061 173.616 14.135L173.616 14.135L173.628 14.1343C175.441 14.0162 177.262 14.1795 179.026 14.6186C181.568 15.3386 184.206 15.6574 186.845 15.5637C188.809 15.705 190.727 16.2308 192.492 17.1125C193.114 17.4355 193.806 17.6047 194.508 17.6047C195.08 17.6047 195.644 17.4927 196.17 17.2769C196.714 17.1106 197.222 16.8409 197.666 16.4816C198.206 16.0442 198.635 15.4869 198.92 14.8556C199.207 14.2412 199.356 13.571 199.356 12.8929C199.356 12.2037 199.203 11.5228 198.906 10.9002C198.43 9.88596 197.621 9.06319 196.611 8.57177C193.547 6.98592 190.169 6.10657 186.722 5.99875L186.612 5.99529L186.501 5.99998C184.804 6.07211 183.105 5.86697 181.473 5.39242L181.423 5.37799L181.373 5.36528C178.629 4.66917 175.794 4.40531 172.969 4.58318C171.267 4.67471 169.562 4.47093 167.928 3.98059L167.868 3.96277L167.808 3.94742C165.047 3.24163 162.202 2.92746 159.354 3.01404C158.134 3.0156 156.935 3.07663 155.827 3.13305L155.813 3.13374C154.67 3.19191 153.625 3.24484 152.599 3.24571C151.399 3.22868 150.235 3.6511 149.324 4.43142L149.127 4.60022L148.962 4.80033C148.235 5.6826 147.822 6.78151 147.788 7.92251L147.787 7.95727L147.787 7.99205C147.783 8.61186 147.902 9.2266 148.139 9.80005C148.359 10.3333 148.676 10.8212 149.074 11.2386C149.486 11.6973 149.981 12.0736 150.536 12.3461C151.128 12.6373 151.775 12.8036 152.435 12.834Z" fill="white" stroke="white" stroke-width="6"/>
<path d="M248.9 48.4338L248.95 48.4683L249.002 48.5007C250.698 49.558 252.269 50.8056 253.685 52.2197L253.714 52.2488L253.744 52.277C255.671 54.0989 257.353 55.7034 258.77 57.0999L258.8 57.129L258.83 57.1573C260.104 58.3449 261.18 59.7318 262.016 61.2649L262.019 61.2715L262.023 61.278C263.694 64.306 266.144 66.8294 269.12 68.5827L269.215 68.6386L269.313 68.6875C269.928 68.9912 270.605 69.1495 271.291 69.1495C271.784 69.1495 272.272 69.0678 272.736 68.909C273.247 68.8033 273.737 68.6098 274.184 68.3359C274.793 67.9626 275.304 67.4509 275.677 66.8438L275.755 66.7159L275.821 66.5808C276.125 65.952 276.283 65.2625 276.283 64.5643C276.283 64.0179 276.186 63.4769 275.998 62.9661C275.878 62.4887 275.68 62.0327 275.412 61.6166C275.059 61.0705 274.593 60.6059 274.044 60.2552L274.016 60.2369L273.987 60.2193C272.566 59.3556 271.38 58.1485 270.537 56.7062C269.271 54.2703 267.609 52.0636 265.618 50.1778L265.618 50.1778L265.608 50.1683L260.457 45.3352C258.581 43.4618 256.506 41.8019 254.268 40.3857C252.699 39.2849 251.337 37.9118 250.246 36.33C248.113 33.166 244.938 30.8545 241.274 29.8055L241.11 29.7587L240.942 29.7307C240.562 29.6671 240.198 29.5234 239.874 29.3083C239.551 29.0931 239.275 28.811 239.065 28.4796L239.031 28.4246L238.994 28.3712C238.271 27.3315 237.197 26.5857 235.966 26.2758L235.851 26.2469L235.734 26.2271C234.602 26.0355 233.439 26.2437 232.444 26.8147L232.357 26.8645L232.274 26.9199C231.322 27.5535 230.618 28.4918 230.272 29.5776L230.252 29.6378L230.236 29.6986C230.058 30.3506 230.023 31.0333 230.134 31.6997C230.237 32.3201 230.463 32.9135 230.8 33.4444C231.647 34.9078 232.801 36.1703 234.184 37.1433C235.53 38.0901 237.059 38.7402 238.673 39.051C240.161 39.5574 241.451 40.5364 242.345 41.8465C244.095 44.4386 246.319 46.6741 248.9 48.4338Z" fill="white" stroke="white" stroke-width="6"/>
<path d="M196.74 18.3606L197.057 18.5392L197.408 18.6366C199.656 19.2606 201.851 20.0657 203.971 21.0441C206.319 22.2716 208.83 23.1561 211.428 23.6705L212.856 23.9531C213.649 24.3064 214.396 24.7639 215.076 25.3157L215.107 25.3409L215.138 25.3652C216.766 26.6168 218.541 27.8024 220.344 29.0066C220.806 29.3155 221.271 29.6256 221.735 29.9383C224.529 31.9429 227.824 33.13 231.253 33.3655L231.268 33.3665L231.282 33.3674C231.943 33.4064 232.605 33.3049 233.224 33.0698C233.782 32.8582 234.292 32.5429 234.73 32.1416C235.19 31.7585 235.569 31.2881 235.846 30.7577C236.155 30.1669 236.329 29.5157 236.358 28.8504L236.358 28.8386C236.383 28.203 236.283 27.5686 236.063 26.9713C235.85 26.39 235.527 25.8544 235.111 25.394C234.706 24.9328 234.213 24.5555 233.66 24.2845C233.115 24.0173 232.523 23.8589 231.918 23.8184C230.22 23.6578 228.596 23.0373 227.218 22.0209L227.149 21.9699L227.077 21.9229C224.925 20.5181 222.962 19.1271 221.178 17.7218C218.968 15.9182 216.369 14.6553 213.587 14.0344L213.548 14.0257L213.509 14.018C211.781 13.6805 210.109 13.1007 208.542 12.2954L208.507 12.2777L208.473 12.261C205.849 10.9974 203.12 9.9662 200.318 9.17921L200.179 9.14022L200.037 9.11473C198.839 8.89941 197.604 9.12597 196.56 9.75041C195.536 10.3574 194.771 11.3175 194.405 12.447L194.348 12.6252L194.313 12.809C194.124 13.8014 194.245 14.8243 194.654 15.7395C194.788 16.1923 194.992 16.6225 195.262 17.0132C195.646 17.568 196.15 18.0292 196.74 18.3606Z" fill="white" stroke="white" stroke-width="6"/>
<path d="M120.931 295.691L120.824 295.657L120.714 295.63C118.29 295.051 115.838 294.597 113.367 294.273C112.099 294.088 110.889 293.609 109.833 292.873L109.725 292.797L109.611 292.732C107.009 291.237 104.218 290.102 101.314 289.357L101.253 289.341L101.193 289.329C99.5713 288.984 98.0489 288.272 96.741 287.246C94.4415 285.19 91.7002 283.693 88.7296 282.873C87.0263 282.304 85.4873 281.322 84.2489 280.012C83.2256 278.693 81.946 277.594 80.4863 276.784C78.9958 275.957 77.3506 275.448 75.6542 275.29C75.0568 275.219 74.451 275.262 73.8694 275.418C73.2586 275.582 72.6875 275.866 72.1894 276.254L72.0695 276.348L71.9596 276.453C71.0638 277.309 70.5223 278.468 70.4361 279.701C70.3413 280.893 70.6863 282.08 71.4092 283.037L71.4869 283.14L71.5731 283.235C72.0054 283.715 72.5295 284.104 73.1154 284.379C73.6655 284.637 74.2592 284.79 74.8655 284.828C75.2646 284.873 75.6517 284.996 76.0049 285.192C76.3733 285.396 76.6973 285.674 76.9561 286.011L77.0221 286.097L77.0941 286.177C79.4374 288.808 82.4314 290.772 85.7745 291.869L85.8512 291.895L85.9292 291.916C87.5292 292.347 89.0175 293.124 90.29 294.194C92.7503 296.334 95.6979 297.834 98.873 298.559C100.871 299.135 102.785 299.975 104.566 301.056C106.792 302.621 109.358 303.634 112.053 304.01L112.073 304.013L112.093 304.015C113.794 304.229 115.91 304.607 118.441 305.137C119.079 305.316 119.749 305.355 120.405 305.249C121.047 305.146 121.659 304.907 122.199 304.551C122.779 304.214 123.271 303.745 123.635 303.181C123.977 302.651 124.195 302.054 124.277 301.433C124.398 300.871 124.409 300.289 124.308 299.721C124.216 299.199 124.032 298.699 123.765 298.244C123.535 297.722 123.21 297.245 122.805 296.838C122.282 296.312 121.64 295.918 120.931 295.691Z" fill="white" stroke="white" stroke-width="6"/>
<path d="M275.914 234.751L275.801 234.854L275.699 234.968C274.421 236.391 272.762 238.117 270.719 240.2L270.672 240.248L270.627 240.298C268.558 242.607 266.684 245.084 265.025 247.705L264.983 247.77L264.945 247.838C264.001 249.516 262.869 251.08 261.571 252.499L261.51 252.566L261.452 252.637C260.244 254.131 258.924 255.53 257.503 256.822L257.418 256.899L257.34 256.982C255.705 258.714 253.932 260.644 252.035 262.908L252.019 262.928L252.002 262.948C251.03 264.15 249.827 265.141 248.466 265.861L248.425 265.883L248.385 265.905C245.89 267.325 243.623 269.114 241.658 271.212L241.593 271.281L241.533 271.354C240.806 272.236 240.393 273.335 240.359 274.476L240.357 274.552L240.358 274.628C240.383 275.809 240.845 276.942 241.657 277.803C242.095 278.275 242.624 278.654 243.212 278.917C243.811 279.185 244.458 279.326 245.114 279.333C245.811 279.34 246.499 279.183 247.124 278.877C247.68 278.604 248.172 278.219 248.57 277.748C249.866 276.42 251.321 275.259 252.902 274.294C255.287 272.971 257.372 271.165 259.024 268.991C260.693 267.096 262.301 265.37 263.821 263.839C265.563 262.316 267.177 260.651 268.647 258.862C270.403 256.935 271.925 254.805 273.181 252.518C274.552 250.478 276.076 248.548 277.742 246.744C279.753 244.694 281.465 242.916 282.823 241.405C283.281 240.933 283.631 240.368 283.85 239.749C284.069 239.13 284.152 238.471 284.093 237.819C284.057 237.215 283.902 236.623 283.638 236.078C283.356 235.497 282.955 234.98 282.46 234.563C281.915 234.103 281.27 233.774 280.576 233.603C279.986 233.457 279.373 233.43 278.774 233.521C277.712 233.6 276.705 234.032 275.914 234.751Z" fill="white" stroke="white" stroke-width="6"/>
<path d="M294.216 198.522L294.099 198.584L293.989 198.656C293.034 199.275 292.318 200.197 291.949 201.27L291.907 201.393L291.876 201.52C291.224 204.138 290.58 206.445 289.943 208.42L289.916 208.506L289.893 208.593C289.522 210.038 288.838 211.381 287.892 212.528L287.843 212.587L287.797 212.649C286.277 214.696 284.981 216.901 283.929 219.225L283.915 219.255L283.902 219.286C282.956 221.506 281.896 223.675 280.726 225.783L280.686 225.855L280.65 225.929C279.509 228.279 278.394 230.325 277.358 232.129C276.745 233.17 276.525 234.396 276.736 235.585L276.783 235.847L276.874 236.096C277.25 237.117 277.935 237.996 278.836 238.61L279.054 238.759L279.295 238.867C279.903 239.141 280.563 239.283 281.231 239.283C281.784 239.283 282.331 239.186 282.848 238.997C283.422 238.839 283.96 238.568 284.429 238.199C284.94 237.796 285.356 237.287 285.649 236.709C286.794 234.753 287.978 232.573 289.202 230.172C290.578 227.638 291.763 225.227 292.722 223C293.472 221.326 294.381 219.729 295.434 218.231C297.147 216.052 298.399 213.544 299.112 210.862C299.761 208.766 300.413 206.401 301.07 203.773C301.274 203.244 301.378 202.681 301.378 202.113C301.378 201.415 301.22 200.726 300.916 200.097L300.64 199.527L300.158 199.117C299.365 198.444 298.381 198.037 297.346 197.954C296.27 197.814 295.176 198.012 294.216 198.522Z" fill="white" stroke="white" stroke-width="6"/>
<path d="M301.5 184.228C301.125 186.951 300.837 189.413 300.578 192.048C300.413 193.717 300.284 195.223 300.167 196.581C300.099 197.369 300.036 198.106 299.973 198.797C299.949 199.033 299.875 199.262 299.756 199.467C299.636 199.672 299.475 199.848 299.281 199.984C299.116 200.158 298.913 200.291 298.688 200.371C298.463 200.452 298.222 200.478 297.985 200.448C297.749 200.426 297.521 200.353 297.317 200.233C297.113 200.112 296.937 199.949 296.803 199.753C296.663 199.591 296.558 199.402 296.493 199.198C296.429 198.994 296.407 198.778 296.429 198.565C296.504 197.734 296.585 196.803 296.671 195.81C296.783 194.52 296.904 193.124 297.034 191.701C297.264 189.181 297.581 186.632 297.985 183.736C298.304 181.343 298.776 178.972 299.396 176.64L301.5 184.228ZM301.5 184.228C301.797 182.031 302.23 179.855 302.796 177.711L301.5 184.228ZM308.305 148.076L308.265 147.935L308.211 147.799C307.647 146.357 307.182 144.878 306.819 143.372C306.526 141.94 306.602 140.457 307.037 139.063C307.273 138.513 307.394 137.921 307.394 137.321C307.394 136.638 307.236 135.964 306.932 135.352C306.653 134.771 306.258 134.252 305.77 133.828C305.294 133.414 304.738 133.099 304.138 132.902C303.062 132.521 301.885 132.532 300.815 132.936L300.579 133.025L300.361 133.153C299.418 133.703 298.667 134.528 298.206 135.514L298.125 135.687L298.067 135.869C297.076 138.956 296.933 142.254 297.652 145.416L297.657 145.437L297.662 145.457C298.105 147.284 298.653 149.084 299.304 150.847C299.512 152.276 299.437 153.734 299.081 155.135L299.036 155.315L299.013 155.5C298.961 155.915 298.953 156.335 298.989 156.751V156.762V156.775V156.788V156.801V156.814V156.826V156.839V156.852V156.865V156.877V156.89V156.903V156.916V156.929V156.941V156.954V156.967V156.98V156.993V157.005V157.018V157.031V157.044V157.057V157.07V157.082V157.095V157.108V157.121V157.134V157.147V157.159V157.172V157.185V157.198V157.211V157.224V157.236V157.249V157.262V157.275V157.288V157.301V157.314V157.327V157.339V157.352V157.365V157.378V157.391V157.404V157.417V157.43V157.443V157.456V157.468V157.481V157.494V157.507V157.52V157.533V157.546V157.559V157.572V157.585V157.598V157.611V157.624V157.636V157.649V157.662V157.675V157.688V157.701V157.714V157.727V157.74V157.753V157.766V157.779V157.792V157.805V157.818V157.831V157.844V157.857V157.87V157.883V157.896V157.909V157.922V157.935V157.948V157.961V157.974V157.987V158V158.013V158.026V158.039V158.052V158.065V158.078V158.091V158.104V158.117V158.13V158.143V158.156V158.169V158.182V158.195V158.209V158.222V158.235V158.248V158.261V158.274V158.287V158.3V158.313V158.326V158.339V158.352V158.365V158.379V158.392V158.405V158.418V158.431V158.444V158.457V158.47V158.483V158.496V158.51V158.523V158.536V158.549V158.562V158.575V158.588V158.601V158.615V158.628V158.641V158.654V158.667V158.68V158.694V158.707V158.72V158.733V158.746V158.759V158.773V158.786V158.799V158.812V158.825V158.838V158.852V158.865V158.878V158.891V158.904V158.918V158.931V158.944V158.957V158.97V158.984V158.997V159.01V159.023V159.037V159.05V159.063V159.076V159.089V159.103V159.116V159.129V159.142V159.156V159.169V159.182V159.195V159.209V159.222V159.235V159.248V159.262V159.275V159.288V159.302V159.315V159.328V159.341V159.355V159.368V159.381V159.395V159.408V159.421V159.435V159.448V159.461V159.474V159.488V159.501V159.514V159.528V159.541V159.554V159.568V159.581V159.594V159.608V159.621V159.634V159.648V159.661V159.674V159.688V159.701V159.715V159.728V159.741V159.755V159.768V159.781V159.795V159.808V159.822V159.835V159.848V159.862V159.875V159.888V159.902V159.915V159.929V159.942V159.955V159.969V159.982V159.996V160.009V160.023V160.036V160.049V160.063V160.076V160.09V160.103V160.117V160.13V160.143V160.157V160.17V160.184V160.197V160.211V160.224V160.238V160.251V160.265V160.278V160.292V160.305V160.319V160.332V160.345V160.359V160.372V160.386V160.399V160.413V160.426V160.44V160.453V160.467V160.48V160.494V160.508V160.521V160.535V160.548V160.562V160.575V160.589V160.602V160.616V160.629V160.643V160.656V160.67V160.683V160.697V160.711V160.724V160.738V160.751V160.765V160.778V160.792V160.806V160.819V160.833V160.846V160.86V160.873V160.887V160.901V160.914V160.928V160.941V160.955V160.969V160.982V160.996V161.01V161.023V161.037V161.05V161.064V161.078V161.091V161.105V161.119V161.132V161.146V161.159V161.173V161.187V161.2V161.214V161.228V161.241V161.255V161.269V161.282V161.296V161.31V161.323V161.337V161.351V161.364V161.378V161.392V161.406V161.419V161.433V161.447V161.46V161.474V161.488V161.501V161.515V161.529V161.543V161.556V161.57V161.584V161.597V161.611V161.625V161.639V161.652V161.666V161.68V161.694V161.707V161.721V161.735V161.749V161.762V161.776V161.79V161.804V161.817V161.831V161.845V161.859V161.873V161.886V161.9V161.914V161.928V161.942V161.955V161.969V161.983V161.997V162.011V162.024V162.038V162.052V162.066V162.08V162.093V162.107V162.121V162.135V162.149V162.163V162.176V162.19V162.204V162.218V162.232V162.246V162.26V162.273V162.287V162.301V162.315V162.329V162.343V162.357V162.371V162.384V162.398V162.412V162.426V162.44V162.454V162.468V162.482V162.496V162.509V162.523V162.537V162.551V162.565V162.579V162.593V162.607V162.621V162.635V162.649V162.663V162.677V162.69V162.704V162.718V162.732V162.746V162.76V162.774V162.788V162.802V162.816V162.83V162.844V162.858V162.872V162.886V162.9V162.914V162.928V162.942V162.956V162.97V162.984V162.998V163.012V163.026V163.04V163.054V163.068V163.082V163.096V163.11V163.124V163.138V163.152V163.166V163.18V163.194V163.208V163.222V163.236V163.25V163.264V163.278V163.292V163.306V163.32V163.335V163.349V163.363V163.377V163.391V163.405V163.419V163.424C298.934 165.598 298.644 167.759 298.125 169.87L298.11 169.933L298.097 169.996C297.712 171.917 297.198 173.81 296.56 175.663L296.525 175.764L296.497 175.868C295.845 178.321 295.348 180.814 295.012 183.33C294.606 186.247 294.283 188.845 294.046 191.428C293.918 192.832 293.793 194.267 293.679 195.58C293.593 196.572 293.513 197.495 293.442 198.282C293.382 198.895 293.447 199.513 293.632 200.101C293.803 200.641 294.072 201.144 294.427 201.586C294.795 202.084 295.26 202.503 295.796 202.818C296.365 203.153 297 203.362 297.658 203.43C298.346 203.51 299.044 203.43 299.697 203.196C300.272 202.991 300.798 202.672 301.244 202.26C301.687 201.904 302.062 201.469 302.348 200.976C302.684 200.399 302.892 199.757 302.958 199.094L302.959 199.083L302.96 199.071C303.027 198.346 303.091 197.594 303.159 196.801C303.275 195.461 303.4 194 303.563 192.342C303.819 189.744 304.102 187.32 304.472 184.637L304.472 184.631C304.748 182.595 305.147 180.577 305.667 178.59C306.421 176.429 307.035 174.222 307.507 171.981C308.194 169.217 308.576 166.385 308.647 163.536L308.648 163.499V163.461V156.673C309.213 153.822 309.096 150.875 308.305 148.076Z" fill="white" stroke="white" stroke-width="6"/>
<path d="M177.621 296.735L177.6 296.747L177.579 296.758C176.233 297.497 174.692 297.79 173.173 297.599L173.164 297.598C170.248 297.24 167.289 297.468 164.461 298.268L164.372 298.294L164.284 298.325C162.877 298.819 161.376 298.977 159.899 298.788L159.846 298.781L159.793 298.776C156.732 298.492 153.648 298.577 150.606 299.027L150.511 299.041L150.418 299.061C148.678 299.434 146.88 299.437 145.139 299.069C142.956 298.546 140.748 298.134 138.524 297.836C136.554 297.551 134.604 297.142 132.685 296.612L132.628 296.597L132.571 296.583C129.886 295.954 127.151 295.57 124.397 295.436L124.37 295.435L124.343 295.434C123.109 295.396 121.911 295.835 120.994 296.652C120.517 297.052 120.127 297.546 119.85 298.103C119.567 298.672 119.408 299.295 119.382 299.93C119.343 300.559 119.431 301.19 119.641 301.785C119.845 302.363 120.161 302.895 120.57 303.351C120.962 303.82 121.445 304.207 121.99 304.488C122.578 304.791 123.224 304.963 123.884 304.992C126.011 305.094 128.126 305.375 130.206 305.833C132.511 306.477 134.854 306.971 137.223 307.311L137.239 307.313L137.255 307.315C139.322 307.588 141.205 307.944 142.936 308.329C145.98 309.12 149.163 309.213 152.248 308.602C154.517 308.275 156.816 308.207 159.101 308.398C161.963 308.729 164.862 308.402 167.578 307.441C169.177 307.029 170.837 306.91 172.478 307.089C175.946 307.52 179.462 306.87 182.55 305.229C183.586 304.693 184.776 304.553 185.903 304.829C186.447 305.053 187.031 305.169 187.622 305.169C188.31 305.169 188.987 305.012 189.603 304.711C190.247 304.42 190.81 303.975 191.242 303.417C191.578 302.982 191.827 302.49 191.978 301.966C192.202 301.441 192.318 300.875 192.318 300.301C192.318 299.605 192.147 298.921 191.822 298.308C191.413 297.427 190.746 296.689 189.904 296.194C189.206 295.784 188.419 295.559 187.617 295.536C184.257 294.688 180.697 295.111 177.621 296.735Z" fill="white" stroke="white" stroke-width="6"/>
<path d="M75.3942 274.522L75.3645 274.49L75.3339 274.459C73.7722 272.874 72.1191 271.383 70.3832 269.994C69.6332 269.355 68.7151 268.598 67.6898 267.753C66.6813 266.921 65.5691 266.004 64.4114 265.03C61.8458 262.871 59.6601 261.362 57.7452 260.041L57.6839 259.998C56.2073 258.958 54.9024 257.689 53.8175 256.24C52.4962 254.36 51.0078 252.604 49.3705 250.994L49.3526 250.976L49.3345 250.959C48.3839 250.055 47.0303 248.564 45.1469 246.409C43.3491 244.352 41.9616 242.54 40.8265 241.028C40.0792 240.022 38.9704 239.343 37.73 239.138L37.6928 239.132L37.6555 239.127C37.029 239.039 36.3916 239.079 35.7808 239.242C35.1801 239.403 34.6178 239.681 34.1254 240.06C33.1296 240.813 32.4643 241.92 32.2633 243.149L32.2573 243.185L32.2521 243.222C32.166 243.846 32.2047 244.48 32.3662 245.089C32.5251 245.688 32.8 246.251 33.1758 246.745C34.4211 248.413 35.9806 250.394 37.8821 252.658L37.8906 252.668L37.8992 252.678C39.4439 254.485 41.0799 256.212 42.8008 257.85C44.0094 259.08 45.1174 260.407 46.1141 261.816L46.1279 261.836L46.1419 261.855C47.8386 264.175 49.8996 266.204 52.2448 267.861C54.0741 269.162 56.1193 270.683 58.329 272.483L64.3303 277.448C65.8316 278.715 67.162 279.943 68.3522 281.159C68.7375 281.622 69.2128 282.004 69.7511 282.281C70.34 282.585 70.9885 282.754 71.6504 282.777C72.2982 282.813 72.9464 282.713 73.5533 282.482C74.1413 282.259 74.6766 281.919 75.1277 281.484C75.6132 281.047 76.0004 280.513 76.2643 279.916C76.5161 279.346 76.6499 278.733 76.6591 278.112C76.7029 277.499 76.628 276.882 76.4377 276.296C76.2233 275.636 75.8675 275.03 75.3942 274.522Z" fill="white" stroke="white" stroke-width="6"/>
<path d="M38.9435 242.397L38.9954 242.299L39.0398 242.197C39.3026 241.594 39.4381 240.944 39.4381 240.287C39.4381 239.631 39.3026 238.981 39.0398 238.378L39.0238 238.342L39.0068 238.305C37.6719 235.456 35.8015 232.891 33.4977 230.753C32.5343 229.845 31.8395 228.685 31.4924 227.401C30.8533 224.254 29.3297 221.355 27.0997 219.048C25.9811 217.804 25.2481 216.255 24.994 214.592L24.9919 214.579C24.5475 211.755 23.7084 209.008 22.4992 206.419L22.4938 206.408L22.4883 206.396C21.5363 204.402 20.4415 202.291 19.2066 200.064L19.1754 200.008L19.1418 199.953C18.2948 198.57 17.7931 196.999 17.6802 195.377C17.6435 192.783 17.2613 190.205 16.5436 187.713C16.1209 185.983 15.6139 183.83 15.0504 181.338C14.6527 179.383 14.5088 177.384 14.6226 175.391L14.6227 175.39C14.6591 174.747 14.5601 174.103 14.3316 173.5C14.1256 172.956 13.8186 172.457 13.4266 172.028C13.0375 171.563 12.5585 171.178 12.0169 170.9C11.4393 170.602 10.8047 170.432 10.1557 170.4C9.03215 170.326 7.91701 170.633 6.98936 171.271L6.77035 171.421L6.58122 171.608C5.69739 172.481 5.17626 173.653 5.11654 174.889C4.94955 177.715 5.1642 180.551 5.75471 183.319L5.75881 183.338L5.76316 183.357C6.01689 184.475 6.25429 185.539 6.47674 186.536C6.77493 187.873 7.04626 189.089 7.29406 190.152L7.31275 190.232L7.33582 190.311C7.84753 192.064 8.1271 193.878 8.16721 195.706L8.16813 195.748L8.17022 195.79C8.327 198.927 9.22783 201.981 10.7982 204.698C11.502 205.99 12.1263 207.19 12.7209 208.334C13.0822 209.028 13.4326 209.702 13.7833 210.362C14.591 212.094 15.1353 213.938 15.3977 215.834L15.4054 215.889L15.4151 215.944C16.0342 219.447 17.6445 222.698 20.0554 225.307L20.0632 225.316L20.0711 225.324C21.0565 226.374 21.7352 227.679 22.0302 229.096L22.0341 229.115L22.0382 229.134C22.7466 232.331 24.4184 235.233 26.8287 237.444L26.839 237.453C28.2687 238.753 29.4322 240.322 30.263 242.073C30.5376 242.658 30.9273 243.183 31.4096 243.616C31.8366 243.999 32.3284 244.302 32.8617 244.512C33.4343 244.775 34.0581 244.912 34.6911 244.912C35.2894 244.912 35.8797 244.79 36.4262 244.554C36.9072 244.388 37.357 244.142 37.7564 243.826C38.2477 243.437 38.6517 242.95 38.9435 242.397Z" fill="white" stroke="white" stroke-width="6"/>
<path d="M113.273 235.391L117.521 239.614C144.638 215.382 170.703 189.986 196.437 164.339L197.407 165.315V163.372C198.478 162.305 199.549 161.236 200.619 160.167L200.625 160.161L200.632 160.154C201.726 159.048 202.337 157.556 202.337 156.003C202.337 154.45 201.726 152.958 200.632 151.852L200.625 151.845L200.619 151.839C199.549 150.77 198.478 149.701 197.407 148.633V146.686L196.436 147.664C184.274 135.54 172.064 123.485 159.665 111.567C145.855 98.2925 131.96 85.1663 117.507 72.409L113.271 76.6418C137.334 103.946 162.531 130.164 188.154 156.005C162.535 181.872 137.389 208.089 113.273 235.391Z" fill="white" stroke="white" stroke-width="6"/>
</svg>
