<svg width="337" height="312" viewBox="0 0 337 312" fill="none" xmlns="http://www.w3.org/2000/svg">
<path d="M41.5195 246.988L41.6498 246.818L41.7546 246.631C42.3435 245.582 42.5417 244.359 42.3157 243.179L42.2924 243.057L42.2591 242.938C41.3721 239.755 39.8741 236.776 37.8486 234.169L37.8242 234.138L37.799 234.107C36.1335 232.077 34.2579 230.23 32.2039 228.598C31.2234 227.75 30.4939 226.643 30.0989 225.399L30.095 225.386L30.0909 225.374C29.3718 223.176 28.4572 221.047 27.3585 219.015V218.754L26.872 218.007C25.8387 216.422 24.9653 214.736 24.2648 212.975L24.2609 212.965L24.2569 212.956L21.3876 205.888C20.5112 203.592 19.7594 201.249 19.1355 198.87L19.1267 198.837L19.1172 198.804C18.5034 196.665 18.0632 194.479 17.801 192.269L17.7947 192.216L17.7866 192.163C17.5053 190.345 17.2531 188.647 17.0176 187.061C16.9166 186.381 16.8186 185.721 16.7227 185.081L16.7206 185.067L16.7184 185.053C16.2921 182.381 15.5677 179.765 14.5588 177.256C14.3481 176.642 14.0054 176.08 13.553 175.611C13.103 175.145 12.5564 174.782 11.9516 174.55C11.3896 174.307 10.7831 174.181 10.1688 174.181C9.56619 174.181 8.97094 174.302 8.418 174.536C7.80985 174.759 7.25778 175.113 6.80052 175.573C6.34574 176.03 5.99702 176.58 5.77657 177.182C5.53295 177.755 5.40717 178.371 5.40717 178.994C5.40717 179.646 5.54462 180.29 5.81048 180.884C6.53104 182.714 7.05134 184.617 7.36205 186.561C7.41961 186.95 7.47824 187.348 7.5381 187.754C7.80381 189.557 8.09362 191.523 8.42092 193.639C8.7426 196.292 9.28077 198.914 10.03 201.479C10.7465 204.185 11.6017 206.852 12.5923 209.469L12.6054 209.504L12.6194 209.538C12.9778 210.419 13.3295 211.297 13.6758 212.161C14.3007 213.721 14.9078 215.237 15.5044 216.644C16.4247 218.953 17.57 221.165 18.9235 223.248C19.9022 224.929 20.7105 226.705 21.3361 228.549C22.234 231.346 23.8587 233.853 26.0447 235.811L26.1193 235.878L26.1982 235.94C27.7473 237.151 29.1622 238.527 30.4183 240.044C31.6011 241.612 32.4915 243.383 33.0457 245.271C33.1765 245.906 33.4466 246.507 33.8387 247.028C34.238 247.558 34.7523 247.991 35.343 248.293C36.3598 248.881 37.562 249.07 38.7154 248.817L38.803 248.797L38.8894 248.773C39.937 248.477 40.8587 247.849 41.5195 246.988Z" fill="black" stroke="black" stroke-width="6"/>
<path d="M71.5692 40.7188L71.8232 40.6803L72.067 40.5992C73.1328 40.2444 74.0488 39.5463 74.6743 38.6169L74.7477 38.508L74.8112 38.3931C75.0987 37.873 75.4877 37.4182 75.9539 37.0557C76.42 36.6932 76.9536 36.4304 77.5221 36.2825L77.6155 36.2582L77.7071 36.228C80.7589 35.2205 83.536 33.5172 85.8217 31.2526L85.8916 31.1834L85.9569 31.1096C87.0988 29.8192 88.5041 28.7936 90.0756 28.1022L90.1547 28.0674L90.2317 28.0281C91.8205 27.2169 93.5507 26.7253 95.3255 26.5802C98.3106 26.354 101.172 25.291 103.583 23.5137L103.593 23.507L103.601 23.5003C104.674 22.6976 105.965 22.2494 107.298 22.2149L107.443 22.2111L107.587 22.1934C110.623 21.8197 113.582 20.9699 116.355 19.6751L116.438 19.6363L116.518 19.5926C118.343 18.601 120.268 17.8093 122.261 17.2311L122.437 17.18L122.605 17.1078C123.667 16.6532 124.527 15.8358 125.038 14.8079C125.571 13.8273 125.756 12.693 125.559 11.5924L125.521 11.377L125.451 11.1695C125.245 10.5523 124.916 9.9825 124.484 9.49499C124.057 9.01376 123.537 8.62242 122.956 8.34482C122.353 8.0526 121.692 7.90038 121.021 7.90038C120.453 7.90038 119.891 8.0096 119.367 8.22061C116.84 8.96303 114.402 9.9824 112.098 11.2603C110.305 12.0574 108.407 12.5885 106.464 12.8371C103.333 13.015 100.322 14.0952 97.7884 15.9466C96.718 16.5985 95.5124 16.9916 94.2662 17.0951L94.2226 17.0987L94.1791 17.1036C91.4517 17.4105 88.7991 18.1934 86.3408 19.4166C83.5891 20.5938 81.119 22.3448 79.0936 24.5528C77.8729 25.6899 76.4264 26.5519 74.8507 27.0826C73.114 27.5397 71.4863 28.3411 70.0632 29.4392C68.6245 30.5493 67.425 31.9394 66.5359 33.5252C65.9318 34.5432 65.7175 35.7466 65.933 36.9111C66.1534 38.1017 66.8081 39.1707 67.774 39.9069L68.5796 40.521H69.1349C69.9161 40.7734 70.7492 40.8431 71.5692 40.7188Z" fill="black" stroke="black" stroke-width="6"/>
<path d="M221.428 286.46L221.148 286.232L220.822 286.076C220.198 285.777 219.514 285.621 218.822 285.621C218.249 285.621 217.683 285.727 217.152 285.933C214.504 286.63 211.925 287.57 209.448 288.742C206.883 289.72 204.47 291.059 202.281 292.72C201.218 293.384 200.008 293.769 198.76 293.838L198.705 293.841L198.65 293.846C195.494 294.139 192.427 295.061 189.63 296.557C188.379 297.209 186.976 297.504 185.572 297.41C183.183 297.102 180.766 297.092 178.375 297.377C176.404 297.193 174.208 297.193 171.928 297.193L171.843 297.193C168.517 297.136 165.227 297.869 162.242 299.33C161.698 299.454 161.181 299.68 160.718 299.997C160.03 300.468 159.49 301.123 159.158 301.884C158.891 302.488 158.754 303.14 158.754 303.799C158.754 304.456 158.89 305.106 159.154 305.707C159.415 306.31 159.805 306.849 160.299 307.286C160.765 307.697 161.311 308.007 161.903 308.195C163.015 308.588 164.232 308.574 165.337 308.152L165.491 308.093L165.638 308.018C167.419 307.103 169.399 306.649 171.398 306.697L171.434 306.698H171.47L171.599 306.698C174.205 306.698 176.714 306.698 178.876 306.446L178.894 306.444L178.913 306.442C180.571 306.228 182.249 306.228 183.907 306.442L183.956 306.448L184.005 306.453C187.302 306.768 190.617 306.12 193.554 304.587C195.397 303.718 197.399 303.243 199.434 303.193L199.483 303.191L199.531 303.189C202.54 303.016 205.441 302.006 207.91 300.275L207.984 300.223L208.055 300.167C209.525 298.998 211.177 298.084 212.945 297.463L213.101 297.408L213.249 297.337C215.286 296.358 217.417 295.594 219.609 295.055L219.745 295.022L219.877 294.976C220.953 294.603 221.87 293.879 222.484 292.923L222.532 292.848L222.576 292.77C223.164 291.722 223.363 290.498 223.137 289.318L223.134 289.302L223.13 289.286C222.906 288.178 222.305 287.179 221.428 286.46Z" fill="black" stroke="black" stroke-width="6"/>
<path d="M220.678 284.089L220.667 284.094L220.656 284.098C220.039 284.354 219.483 284.733 219.019 285.212C218.587 285.658 218.245 286.182 218.01 286.755C217.75 287.333 217.616 287.96 217.616 288.593C217.616 289.269 217.769 289.936 218.063 290.545C218.597 291.663 219.536 292.538 220.694 292.988C221.252 293.215 221.849 293.333 222.452 293.333C223.067 293.333 223.676 293.211 224.243 292.975C226.78 291.946 229.239 290.73 231.598 289.338L231.726 289.262L231.846 289.174C233.551 287.925 235.42 286.546 237.438 284.987L237.438 284.987L237.445 284.981L242.775 280.84L242.864 280.771L242.947 280.695C244.344 279.431 246.098 277.918 248.222 276.385L248.293 276.334L248.361 276.279C250.188 274.791 252.138 273.463 254.189 272.309L254.24 272.281L254.289 272.251C256.34 270.991 258.367 269.785 260.378 268.601L260.432 268.569L260.485 268.535C262.064 267.513 263.416 266.176 264.457 264.607C265.497 263.038 266.204 261.271 266.534 259.417L266.547 259.343L266.557 259.269C266.697 258.167 266.492 257.047 265.971 256.065L265.954 256.033L265.936 256.002C265.645 255.483 265.254 255.026 264.785 254.658C264.336 254.306 263.824 254.041 263.276 253.878C262.597 253.665 261.878 253.612 261.174 253.725C260.532 253.828 259.921 254.067 259.381 254.423C258.801 254.76 258.309 255.229 257.945 255.793C257.583 256.354 257.36 256.99 257.29 257.65C257.063 258.761 256.435 259.744 255.531 260.41L249.572 263.999C247.051 265.405 244.666 267.044 242.449 268.896C240.273 270.594 238.436 272.091 236.951 273.382C235.329 274.521 233.581 275.82 231.686 277.27C231.683 277.272 231.681 277.274 231.678 277.276L226.489 281.195C224.629 282.309 222.686 283.276 220.678 284.089Z" fill="black" stroke="black" stroke-width="6"/>
<path d="M298.886 196.936L298.756 196.845L298.616 196.769C297.976 196.418 297.257 196.233 296.526 196.233C295.855 196.233 295.194 196.389 294.594 196.686C293.999 196.954 293.467 197.345 293.034 197.833C292.589 198.335 292.258 198.927 292.065 199.568C291.321 201.762 290.645 204.192 290.032 206.824C289.492 208.753 288.788 210.632 287.927 212.439C286.782 214.384 285.825 216.435 285.069 218.564C284.408 220.137 283.498 222.158 282.311 224.575C281.19 226.721 279.938 228.796 278.563 230.787C277.665 231.941 276.772 233.104 275.911 234.224C275.302 235.017 274.71 235.788 274.144 236.52L274.119 236.552L274.095 236.585C273.232 237.765 272.32 238.909 271.363 240.014V239.394L266.054 245.796C264.123 248.124 262.365 250.59 260.792 253.174C260.423 253.701 260.174 254.303 260.062 254.937C259.955 255.542 259.976 256.163 260.121 256.758C260.221 257.327 260.426 257.873 260.726 258.369C261.077 258.946 261.549 259.441 262.111 259.818L262.17 259.858L262.231 259.895C263.254 260.513 264.47 260.731 265.646 260.505L265.797 260.475L265.945 260.431C267.009 260.11 267.946 259.466 268.627 258.591L268.739 258.447L268.833 258.291C270.157 256.083 271.666 253.993 273.345 252.044L273.395 251.985L273.442 251.925C274.588 250.447 275.84 249.054 277.186 247.758L277.246 247.7L277.302 247.639C278.883 245.938 280.368 244.151 281.75 242.285L281.773 242.254L281.795 242.223C283.126 240.328 284.57 238.457 286.101 236.638L286.199 236.522L286.285 236.396C287.985 233.903 289.495 231.284 290.803 228.562L290.803 228.562L290.808 228.55C292.05 225.938 293.064 223.723 293.764 221.979L293.98 221.441V221.286C294.557 219.859 295.244 218.479 296.033 217.158L296.099 217.048L296.154 216.934C297.33 214.522 298.267 212 298.952 209.404L298.964 209.356L298.975 209.308C299.528 206.892 300.128 204.7 300.771 202.777C300.977 202.24 301.083 201.67 301.083 201.094C301.083 200.512 300.975 199.936 300.764 199.394C300.411 198.401 299.756 197.54 298.886 196.936Z" fill="black" stroke="black" stroke-width="6"/>
<path d="M302.725 136.263L302.972 136.295C303.645 136.381 304.29 136.617 304.859 136.984C305.297 137.266 305.682 137.62 305.999 138.03C306.361 138.407 306.658 138.842 306.879 139.317C307.142 139.884 307.29 140.495 307.316 141.117C307.454 142.679 307.406 144.483 307.361 146.16C307.34 146.945 307.32 147.703 307.32 148.394V148.553L307.303 148.711C307.111 150.524 307.272 152.357 307.778 154.107L307.801 154.185L307.819 154.264C308.435 156.925 308.816 159.635 308.958 162.363C309.128 165.274 308.784 168.193 307.941 170.985L307.93 171.022L307.917 171.059C307.317 172.876 306.929 174.757 306.761 176.665L306.756 176.725L306.748 176.785C306.426 179.287 306.03 181.77 305.199 184.548C304.737 186.442 304.297 188.571 303.854 191.356L303.845 191.415L303.833 191.474C303.333 193.964 302.674 196.419 301.861 198.824L302.725 136.263ZM302.725 136.263L302.476 136.273M302.725 136.263L302.476 136.273M302.476 136.273C301.829 136.298 301.194 136.452 300.608 136.727C300.029 136.999 299.51 137.382 299.081 137.855M302.476 136.273L299.081 137.855M299.081 137.855C298.647 138.326 298.314 138.88 298.101 139.482C297.9 140.052 297.809 140.655 297.834 141.259V141.266V141.277V141.289V141.301V141.313V141.325V141.337V141.349V141.361V141.373V141.385V141.397V141.409V141.421V141.433V141.445V141.457V141.469V141.481V141.493V141.505V141.517V141.529V141.541V141.553V141.565V141.577V141.589V141.601V141.613V141.625V141.638V141.65V141.662V141.674V141.686V141.698V141.71V141.722V141.734V141.746V141.759V141.771V141.783V141.795V141.807V141.819V141.831V141.844V141.856V141.868V141.88V141.892V141.905V141.917V141.929V141.941V141.953V141.966V141.978V141.99V142.002V142.015V142.027V142.039V142.051V142.064V142.076V142.088V142.1V142.113V142.125V142.137V142.15V142.162V142.174V142.186V142.199V142.211V142.223V142.236V142.248V142.26V142.273V142.285V142.297V142.31V142.322V142.335V142.347V142.359V142.372V142.384V142.397V142.409V142.421V142.434V142.446V142.459V142.471V142.484V142.496V142.508V142.521V142.533V142.546V142.558V142.571V142.583V142.596V142.608V142.621V142.633V142.646V142.658V142.671V142.683V142.696V142.708V142.721V142.733V142.746V142.758V142.771V142.784V142.796V142.809V142.821V142.834V142.846V142.859V142.872V142.884V142.897V142.909V142.922V142.935V142.947V142.96V142.973V142.985V142.998V143.011V143.023V143.036V143.049V143.061V143.074V143.087V143.099V143.112V143.125V143.137V143.15V143.163V143.175V143.188V143.201V143.214V143.226V143.239V143.252V143.265V143.277V143.29V143.303V143.316V143.329V143.341V143.354V143.367V143.38V143.392V143.405V143.418V143.431V143.444V143.457V143.469V143.482V143.495V143.508V143.521V143.534V143.547V143.559V143.572V143.585V143.598V143.611V143.624V143.637V143.65V143.663V143.675V143.688V143.701V143.714V143.727V143.74V143.753V143.766V143.779V143.792V143.805V143.818V143.831V143.844V143.857V143.87V143.883V143.896V143.909V143.922V143.935V143.948V143.961V143.974V143.987V144V144.013V144.026V144.039V144.052V144.065V144.078V144.091V144.105V144.118V144.131V144.144V144.157V144.17V144.183V144.196V144.209V144.223V144.236V144.249V144.262V144.275V144.288V144.301V144.315V144.328V144.341V144.354V144.367V144.38V144.394V144.407V144.42V144.433V144.446V144.46V144.473V144.486V144.499V144.513V144.526V144.539V144.552V144.566V144.579V144.592V144.605V144.619V144.632V144.645V144.659V144.672V144.685V144.698V144.712V144.725V144.738V144.752V144.765V144.778V144.792V144.805V144.818V144.832V144.845V144.859V144.872V144.885V144.899V144.912V144.925V144.939V144.952V144.966V144.979V144.992V145.006V145.019V145.033V145.046V145.06V145.073V145.086V145.1V145.113V145.127V145.14V145.154V145.167V145.181V145.194V145.208V145.221V145.235V145.248V145.262V145.275V145.289V145.302V145.316V145.329V145.343V145.356V145.37V145.384V145.397V145.411V145.424V145.438V145.451V145.465V145.479V145.492V145.506V145.519V145.533V145.547V145.56V145.574V145.588V145.601V145.615V145.628V145.642V145.656V145.669V145.683V145.697V145.71V145.724V145.738V145.751V145.765V145.779V145.793V145.806V145.82V145.834V145.847V145.861V145.875V145.889V145.902V145.916V145.93V145.944V145.957V145.971V145.985V145.999V146.012V146.026V146.04V146.054V146.068V146.081V146.095V146.109V146.123V146.137V146.151V146.164V146.178V146.192V146.206V146.22V146.234V146.247V146.261V146.275V146.289V146.303V146.317V146.331V146.345V146.359V146.372V146.386V146.4V146.414V146.428V146.442V146.456V146.47V146.484V146.498V146.512V146.526V146.54V146.554V146.568V146.582V146.596V146.61V146.624V146.638V146.652V146.666V146.68V146.694V146.708V146.722V146.736V146.75V146.764V146.778V146.792V146.806V146.82V146.834V146.848V146.862V146.876V146.89V146.904V146.918V146.933V146.947V146.961V146.975V146.989V147.003V147.017V147.031V147.045V147.06V147.074V147.088V147.102V147.116V147.13V147.145V147.159V147.173V147.187V147.201V147.215V147.23V147.244V147.258V147.272V147.286V147.301V147.315V147.329V147.343V147.358V147.372V147.386V147.4V147.415V147.429V147.443V147.457V147.472V147.486V147.5V147.514V147.529V147.543V147.557V147.572V147.586V147.6V147.615V147.629V147.643V147.658V147.672V147.686V147.701V147.715V147.729V147.744V147.758V147.772V147.782C297.552 150.707 297.817 153.66 298.616 156.488C299.083 158.6 299.372 160.748 299.48 162.909L299.482 162.95L299.485 162.991C299.618 164.715 299.467 166.449 299.04 168.123C298.113 170.542 297.502 173.072 297.223 175.65C296.889 177.946 296.557 180.112 296.201 182.161C295.636 184.306 295.141 186.809 294.659 189.602C294.238 191.637 293.689 193.643 293.016 195.608C292.787 196.173 292.67 196.777 292.67 197.386C292.67 198.043 292.806 198.693 293.07 199.294C293.331 199.897 293.721 200.437 294.215 200.873C294.681 201.284 295.227 201.594 295.819 201.782C296.931 202.175 298.148 202.161 299.253 201.739L299.543 201.628L299.804 201.46C300.77 200.84 301.494 199.91 301.86 198.826L299.081 137.855Z" fill="black" stroke="black" stroke-width="6"/>
<path d="M159.565 299.166L159.496 299.163H159.427L159.359 299.163C157.134 299.163 154.68 299.163 152.171 299.428C150.312 299.468 148.456 299.259 146.652 298.806C143.972 298.013 141.174 297.694 138.384 297.865L138.384 297.865L138.372 297.866C136.559 297.984 134.738 297.821 132.974 297.382C130.432 296.662 127.794 296.343 125.155 296.437C123.191 296.295 121.273 295.769 119.508 294.888C118.886 294.565 118.194 294.396 117.492 294.396C116.92 294.396 116.356 294.508 115.83 294.723C115.286 294.89 114.778 295.159 114.335 295.519C113.794 295.956 113.365 296.513 113.08 297.145C112.793 297.759 112.644 298.429 112.644 299.107C112.644 299.797 112.798 300.477 113.094 301.1C113.57 302.114 114.379 302.937 115.389 303.428C118.453 305.014 121.831 305.894 125.278 306.001L125.388 306.005L125.499 306C127.197 305.928 128.895 306.133 130.527 306.608L130.577 306.622L130.627 306.635C133.371 307.331 136.206 307.595 139.031 307.417C140.733 307.326 142.439 307.529 144.072 308.02L144.132 308.037L144.192 308.053C146.953 308.759 149.799 309.073 152.646 308.986C153.866 308.985 155.065 308.924 156.173 308.867L156.187 308.866C157.33 308.808 158.375 308.755 159.401 308.755C160.602 308.772 161.765 308.349 162.676 307.569L162.873 307.4L163.038 307.2C163.765 306.318 164.178 305.219 164.212 304.078L164.213 304.043L164.213 304.008C164.217 303.388 164.098 302.774 163.861 302.2C163.641 301.667 163.324 301.179 162.926 300.762C162.515 300.303 162.019 299.927 161.464 299.654C160.872 299.363 160.225 299.197 159.565 299.166Z" fill="black" stroke="black" stroke-width="6"/>
<path d="M63.1003 263.566L63.0497 263.532L62.9977 263.5C61.3022 262.442 59.7313 261.195 58.3153 259.781L58.2861 259.751L58.2562 259.723C56.3288 257.901 54.6475 256.297 53.23 254.9L53.2005 254.871L53.1701 254.843C51.896 253.655 50.8201 252.268 49.9842 250.735L49.9806 250.729L49.977 250.722C48.3062 247.694 45.8559 245.171 42.8805 243.418L42.7855 243.362L42.6866 243.313C42.0721 243.009 41.3955 242.851 40.7092 242.851C40.2159 242.851 39.7277 242.932 39.2639 243.091C38.753 243.197 38.2631 243.39 37.8162 243.664C37.2072 244.038 36.6961 244.549 36.3233 245.156L36.2447 245.284L36.1793 245.419C35.875 246.048 35.7171 246.738 35.7171 247.436C35.7171 247.982 35.8138 248.523 36.0017 249.034C36.1223 249.512 36.32 249.968 36.5885 250.384C36.9409 250.93 37.4069 251.394 37.9557 251.745L37.9842 251.763L38.0132 251.781C39.4345 252.645 40.6206 253.852 41.4633 255.294C42.7286 257.73 44.3911 259.937 46.3823 261.822L46.3822 261.822L46.3924 261.832L51.5435 266.665C53.4189 268.538 55.4945 270.198 57.7325 271.615C59.3009 272.715 60.6629 274.088 61.7544 275.67C63.887 278.834 67.0624 281.146 70.7262 282.195L70.8898 282.242L71.0576 282.27C71.4383 282.333 71.8023 282.477 72.1257 282.692C72.4492 282.907 72.7251 283.189 72.9347 283.521L72.9695 283.576L73.0066 283.629C73.7289 284.669 74.8034 285.415 76.0345 285.724L76.1493 285.753L76.2661 285.773C77.3986 285.965 78.5613 285.757 79.5564 285.186L79.6432 285.136L79.7264 285.08C80.6776 284.447 81.3825 283.508 81.7284 282.423L81.7476 282.362L81.7642 282.302C81.9421 281.65 81.9769 280.967 81.8664 280.301C81.7636 279.68 81.5369 279.087 81.1999 278.556C80.3529 277.092 79.1987 275.83 77.8159 274.857C76.4705 273.91 74.9408 273.26 73.3276 272.949C71.8392 272.443 70.5494 271.464 69.6553 270.154C67.9053 267.562 65.6812 265.326 63.1003 263.566Z" fill="black" stroke="black" stroke-width="6"/>
<path d="M115.26 293.64L114.943 293.461L114.592 293.364C112.344 292.74 110.149 291.935 108.029 290.956C105.681 289.729 103.17 288.844 100.572 288.33L99.1441 288.047C98.3506 287.694 97.604 287.236 96.9245 286.685L96.8935 286.659L96.8618 286.635C95.2337 285.383 93.4589 284.198 91.6561 282.994C91.1937 282.685 90.7295 282.375 90.2654 282.062C87.4707 280.057 84.1757 278.87 80.7468 278.635L80.7324 278.634L80.7181 278.633C80.0566 278.594 79.3947 278.695 78.7757 278.93C78.2185 279.142 77.7077 279.457 77.2698 279.859C76.8101 280.242 76.431 280.712 76.154 281.243C75.8455 281.833 75.671 282.485 75.6424 283.15L75.6419 283.162C75.6171 283.797 75.7172 284.432 75.9368 285.029C76.1505 285.61 76.4735 286.146 76.8889 286.606C77.2945 287.067 77.7875 287.445 78.3402 287.716C78.885 287.983 79.4766 288.141 80.0822 288.182C81.7799 288.342 83.4041 288.963 84.7817 289.979L84.8509 290.03L84.9229 290.077C87.0749 291.482 89.0386 292.873 90.8217 294.278C93.0323 296.082 95.6313 297.345 98.4135 297.966L98.4524 297.975L98.4916 297.982C100.219 298.32 101.891 298.9 103.458 299.705L103.493 299.723L103.528 299.739C106.151 301.003 108.88 302.034 111.682 302.821L111.821 302.86L111.963 302.886C113.161 303.101 114.396 302.874 115.44 302.25C116.464 301.643 117.229 300.683 117.595 299.553L117.652 299.375L117.687 299.191C117.877 298.199 117.755 297.176 117.346 296.261C117.212 295.808 117.008 295.378 116.738 294.987C116.355 294.432 115.85 293.971 115.26 293.64Z" fill="black" stroke="black" stroke-width="6"/>
<path d="M191.069 16.3092L191.176 16.3437L191.286 16.37C193.71 16.9497 196.162 17.4028 198.633 17.7275C199.902 17.9125 201.111 18.3915 202.167 19.1277L202.275 19.2031L202.389 19.2687C204.991 20.7631 207.782 21.8983 210.686 22.6433L210.747 22.6588L210.808 22.6717C212.429 23.0166 213.951 23.7287 215.259 24.7545C217.559 26.8107 220.3 28.3075 223.27 29.1272C224.974 29.6963 226.513 30.6787 227.751 31.9887C228.774 33.3076 230.054 34.4059 231.514 35.2162C233.004 36.0436 234.649 36.5522 236.346 36.7098C236.943 36.7815 237.549 36.7383 238.131 36.5824C238.741 36.4187 239.313 36.134 239.811 35.7461L239.931 35.6527L240.04 35.5476C240.936 34.6911 241.478 33.532 241.564 32.2996C241.659 31.1076 241.314 29.9198 240.591 28.9635L240.513 28.8607L240.427 28.765C239.995 28.2851 239.471 27.8958 238.885 27.6209C238.335 27.3628 237.741 27.2107 237.135 27.1725C236.735 27.1276 236.348 27.0042 235.995 26.8086C235.627 26.6045 235.303 26.326 235.044 25.9894L234.978 25.9036L234.906 25.8229C232.563 23.1921 229.569 21.2281 226.226 20.1309L226.149 20.1057L226.071 20.0847C224.471 19.6534 222.983 18.8763 221.71 17.8065C219.25 15.6661 216.302 14.1666 213.127 13.4412C211.129 12.865 209.215 12.0256 207.434 10.9445C205.208 9.37905 202.642 8.36588 199.947 7.99011L199.927 7.98731L199.907 7.98477C198.206 7.77112 196.09 7.39287 193.559 6.86373C192.921 6.68449 192.251 6.64564 191.595 6.75121C190.953 6.85449 190.342 7.09313 189.801 7.44953C189.221 7.78587 188.729 8.25521 188.365 8.81898C188.024 9.34883 187.805 9.94628 187.723 10.5672C187.602 11.1294 187.591 11.7108 187.692 12.2793C187.784 12.8009 187.968 13.3009 188.235 13.7561C188.465 14.2781 188.79 14.7553 189.195 15.1624C189.718 15.6885 190.36 16.0822 191.069 16.3092Z" fill="black" stroke="black" stroke-width="6"/>
<path d="M36.0859 77.2496L36.1992 77.1466L36.3014 77.0326C37.5788 75.6089 39.2385 73.8828 41.281 71.8006L41.3283 71.7524L41.3734 71.702C43.4422 69.3936 45.3159 66.9162 46.9753 64.2954L47.0168 64.2298L47.0549 64.1622C47.9995 62.4841 49.1316 60.9204 50.429 59.5015L50.4904 59.4342L50.5477 59.3634C51.7561 57.869 53.0763 56.47 54.497 55.1786L54.5817 55.1016L54.6604 55.0183C56.2954 53.2866 58.0682 51.3566 59.9648 49.0925L59.9815 49.0726L59.9977 49.0525C60.9698 47.8504 62.1731 46.8597 63.5344 46.139L63.575 46.1176L63.6149 46.0949C66.1099 44.6748 68.3775 42.8858 70.342 40.7884L70.4067 40.7193L70.4669 40.6464C71.1945 39.7641 71.6067 38.6652 71.6409 37.5242L71.6432 37.4483L71.6416 37.3724C71.6173 36.1908 71.1555 35.0584 70.3431 34.1969C69.9053 33.7253 69.3765 33.3461 68.7877 33.083C68.1891 32.8156 67.5417 32.674 66.8856 32.6675C66.189 32.6607 65.5011 32.817 64.8764 33.1233C64.3201 33.3961 63.8281 33.781 63.4301 34.252C62.1345 35.5805 60.6792 36.7408 59.098 37.7061C56.7127 39.0291 54.6283 40.8354 52.9763 43.0091C51.307 44.9044 49.6993 46.6299 48.1792 48.1614C46.4372 49.6844 44.823 51.3488 43.353 53.1378C41.5967 55.0652 40.0748 57.195 38.8188 59.4825C37.4484 61.5221 35.9237 63.4522 34.2582 65.2558C32.2474 67.3061 30.5351 69.0847 29.1766 70.5957C28.7192 71.0674 28.3693 71.6323 28.1503 72.2515C27.9314 72.8704 27.8486 73.5288 27.9067 74.1816C27.9433 74.7855 28.0979 75.3771 28.3626 75.9226C28.6446 76.5037 29.0455 77.02 29.5401 77.4373C30.0853 77.8976 30.7297 78.2265 31.4238 78.3974C32.0144 78.5428 32.6266 78.5702 33.2258 78.4794C34.2878 78.4003 35.2949 77.9682 36.0859 77.2496Z" fill="black" stroke="black" stroke-width="6"/>
<path d="M17.784 113.478L17.9007 113.416L18.0114 113.344C18.9656 112.725 19.6825 111.804 20.0508 110.73L20.0931 110.607L20.1246 110.481C20.7758 107.862 21.4204 105.555 22.0566 103.581L22.0844 103.495L22.1069 103.407C22.478 101.962 23.1616 100.619 24.1079 99.4726L24.157 99.4131L24.203 99.3512C25.7227 97.3042 27.0195 95.0996 28.0713 92.7752L28.085 92.7448L28.0981 92.7142C29.0437 90.4943 30.104 88.3255 31.2744 86.2168L31.3143 86.1451L31.3501 86.0712C32.4909 83.7216 33.6056 81.6753 34.6426 79.8715C35.2554 78.8304 35.4754 77.6043 35.2641 76.4157L35.2176 76.1537L35.1256 75.904C34.7499 74.8836 34.0652 74.004 33.1645 73.3901L32.9463 73.2413L32.7053 73.133C32.0969 72.8593 31.437 72.7175 30.769 72.7175C30.2163 72.7175 29.6691 72.8146 29.152 73.0032C28.5779 73.161 28.0404 73.4323 27.5714 73.8017C27.06 74.2047 26.644 74.7135 26.3507 75.2914C25.2058 77.2475 24.0218 79.4277 22.7983 81.8285C21.4218 84.3626 20.2367 86.773 19.2777 89.0002C18.5277 90.6738 17.6196 92.2708 16.5658 93.7691C14.8527 95.9486 13.6015 98.4562 12.8884 101.138C12.2395 103.234 11.5868 105.599 10.9296 108.228C10.7266 108.756 10.6221 109.319 10.6221 109.887C10.6221 110.585 10.7799 111.274 11.0843 111.903L11.36 112.473L11.8424 112.883C12.635 113.556 13.6187 113.963 14.6542 114.046C15.7301 114.186 16.8238 113.988 17.784 113.478Z" fill="black" stroke="black" stroke-width="6"/>
<path d="M10.5005 127.772C10.875 125.05 11.1632 122.588 11.4225 119.952C11.5866 118.283 11.7162 116.777 11.833 115.419C11.9007 114.632 11.9641 113.894 12.0275 113.203C12.051 112.967 12.125 112.739 12.2443 112.534C12.3637 112.329 12.5256 112.152 12.719 112.016C12.8839 111.842 13.0872 111.71 13.3124 111.629C13.5376 111.549 13.7784 111.522 14.0155 111.552C14.251 111.574 14.479 111.648 14.6831 111.768C14.8872 111.888 15.0626 112.052 15.1968 112.248C15.3368 112.409 15.4423 112.598 15.5067 112.802C15.5712 113.007 15.5931 113.222 15.5713 113.435C15.4961 114.267 15.4154 115.197 15.3293 116.191C15.2175 117.48 15.0965 118.876 14.9663 120.3C14.7358 122.819 14.4189 125.368 14.0155 128.265C13.696 130.658 13.2244 133.028 12.6037 135.361L10.5005 127.772ZM10.5005 127.772C10.2027 129.969 9.76973 132.146 9.20399 134.289L10.5005 127.772ZM3.69534 163.924L3.73522 164.065L3.78865 164.202C4.35314 165.643 4.81839 167.122 5.18104 168.628C5.47384 170.061 5.39836 171.544 4.96288 172.937C4.72752 173.487 4.60578 174.08 4.60578 174.679C4.60578 175.362 4.76389 176.036 5.06808 176.648C5.34717 177.229 5.7422 177.748 6.22983 178.172C6.70657 178.587 7.26161 178.902 7.86235 179.098C8.93837 179.479 10.1155 179.468 11.1855 179.064L11.4215 178.975L11.6394 178.848C12.5819 178.297 13.3326 177.473 13.7941 176.486L13.875 176.313L13.9333 176.131C14.9238 173.044 15.0669 169.746 14.3477 166.584L14.3431 166.564L14.3381 166.543C13.8953 164.716 13.3471 162.917 12.6961 161.154C12.488 159.724 12.5633 158.266 12.9187 156.865L12.9643 156.685L12.9874 156.501C13.0395 156.085 13.0472 155.666 13.0107 155.249V155.238V155.225V155.212V155.2V155.187V155.174V155.161V155.149V155.136V155.123V155.11V155.097V155.085V155.072V155.059V155.046V155.033V155.021V155.008V154.995V154.982V154.969V154.956V154.944V154.931V154.918V154.905V154.892V154.88V154.867V154.854V154.841V154.828V154.815V154.802V154.79V154.777V154.764V154.751V154.738V154.725V154.712V154.7V154.687V154.674V154.661V154.648V154.635V154.622V154.609V154.596V154.584V154.571V154.558V154.545V154.532V154.519V154.506V154.493V154.48V154.467V154.454V154.442V154.429V154.416V154.403V154.39V154.377V154.364V154.351V154.338V154.325V154.312V154.299V154.286V154.273V154.26V154.247V154.234V154.221V154.208V154.195V154.182V154.169V154.156V154.144V154.131V154.118V154.105V154.092V154.079V154.066V154.053V154.04V154.027V154.013V154V153.987V153.974V153.961V153.948V153.935V153.922V153.909V153.896V153.883V153.87V153.857V153.844V153.831V153.818V153.805V153.792V153.779V153.766V153.753V153.74V153.727V153.713V153.7V153.687V153.674V153.661V153.648V153.635V153.622V153.609V153.596V153.583V153.569V153.556V153.543V153.53V153.517V153.504V153.491V153.478V153.465V153.451V153.438V153.425V153.412V153.399V153.386V153.373V153.359V153.346V153.333V153.32V153.307V153.294V153.281V153.267V153.254V153.241V153.228V153.215V153.201V153.188V153.175V153.162V153.149V153.136V153.122V153.109V153.096V153.083V153.07V153.056V153.043V153.03V153.017V153.004V152.99V152.977V152.964V152.951V152.937V152.924V152.911V152.898V152.884V152.871V152.858V152.845V152.831V152.818V152.805V152.792V152.778V152.765V152.752V152.739V152.725V152.712V152.699V152.685V152.672V152.659V152.646V152.632V152.619V152.606V152.592V152.579V152.566V152.553V152.539V152.526V152.513V152.499V152.486V152.473V152.459V152.446V152.433V152.419V152.406V152.393V152.379V152.366V152.353V152.339V152.326V152.313V152.299V152.286V152.272V152.259V152.246V152.232V152.219V152.206V152.192V152.179V152.165V152.152V152.139V152.125V152.112V152.099V152.085V152.072V152.058V152.045V152.031V152.018V152.005V151.991V151.978V151.964V151.951V151.938V151.924V151.911V151.897V151.884V151.87V151.857V151.843V151.83V151.817V151.803V151.79V151.776V151.763V151.749V151.736V151.722V151.709V151.695V151.682V151.668V151.655V151.641V151.628V151.614V151.601V151.587V151.574V151.56V151.547V151.533V151.52V151.506V151.493V151.479V151.466V151.452V151.439V151.425V151.412V151.398V151.385V151.371V151.358V151.344V151.33V151.317V151.303V151.29V151.276V151.263V151.249V151.236V151.222V151.208V151.195V151.181V151.168V151.154V151.14V151.127V151.113V151.1V151.086V151.073V151.059V151.045V151.032V151.018V151.004V150.991V150.977V150.964V150.95V150.936V150.923V150.909V150.895V150.882V150.868V150.855V150.841V150.827V150.814V150.8V150.786V150.773V150.759V150.745V150.732V150.718V150.704V150.691V150.677V150.663V150.65V150.636V150.622V150.609V150.595V150.581V150.567V150.554V150.54V150.526V150.513V150.499V150.485V150.472V150.458V150.444V150.43V150.417V150.403V150.389V150.375V150.362V150.348V150.334V150.32V150.307V150.293V150.279V150.265V150.252V150.238V150.224V150.21V150.197V150.183V150.169V150.155V150.142V150.128V150.114V150.1V150.086V150.073V150.059V150.045V150.031V150.017V150.004V149.99V149.976V149.962V149.948V149.935V149.921V149.907V149.893V149.879V149.865V149.852V149.838V149.824V149.81V149.796V149.782V149.768V149.755V149.741V149.727V149.713V149.699V149.685V149.671V149.658V149.644V149.63V149.616V149.602V149.588V149.574V149.56V149.547V149.533V149.519V149.505V149.491V149.477V149.463V149.449V149.435V149.421V149.407V149.394V149.38V149.366V149.352V149.338V149.324V149.31V149.296V149.282V149.268V149.254V149.24V149.226V149.212V149.198V149.184V149.17V149.156V149.142V149.128V149.114V149.101V149.087V149.073V149.059V149.045V149.031V149.017V149.003V148.989V148.975V148.961V148.947V148.933V148.919V148.905V148.891V148.876V148.862V148.848V148.834V148.82V148.806V148.792V148.778V148.764V148.75V148.736V148.722V148.708V148.694V148.68V148.666V148.652V148.638V148.624V148.61V148.596V148.581V148.577C13.0664 146.403 13.3561 144.241 13.8748 142.13L13.8902 142.068L13.9028 142.005C14.2885 140.083 14.8021 138.19 15.4402 136.338L15.4752 136.236L15.5029 136.132C16.1556 133.679 16.6516 131.187 16.988 128.67C17.3941 125.753 17.7176 123.156 17.9538 120.573C18.0822 119.169 18.2068 117.734 18.3207 116.42C18.4068 115.428 18.4868 114.505 18.558 113.718C18.6176 113.106 18.5531 112.487 18.3678 111.9C18.1974 111.36 17.9281 110.856 17.5735 110.414C17.2053 109.917 16.7401 109.497 16.2046 109.182C15.635 108.847 15 108.638 14.3423 108.57C13.6536 108.491 12.9557 108.571 12.3026 108.804C11.728 109.009 11.2026 109.328 10.7565 109.74C10.313 110.097 9.93849 110.532 9.65181 111.024C9.31593 111.601 9.1083 112.243 9.04227 112.906L9.04114 112.918L9.04009 112.929C8.97346 113.655 8.9089 114.406 8.84075 115.199C8.72551 116.54 8.60001 118 8.43687 119.658C8.18126 122.256 7.89764 124.68 7.52848 127.363L7.52767 127.369C7.25168 129.406 6.85269 131.423 6.3329 133.411C5.57924 135.572 4.96472 137.779 4.49317 140.019C3.80643 142.784 3.42396 145.616 3.3526 148.464L3.35166 148.502V148.539V155.328C2.78669 158.178 2.90371 161.125 3.69534 163.924Z" fill="black" stroke="black" stroke-width="6"/>
<path d="M134.379 15.2651L134.4 15.2538L134.421 15.2422C135.767 14.5038 137.308 14.2101 138.827 14.4013L138.836 14.4023C141.752 14.7607 144.711 14.5328 147.539 13.7319L147.628 13.7066L147.716 13.6758C149.123 13.1815 150.624 13.0231 152.102 13.2128L152.154 13.2195L152.207 13.2244C155.268 13.5079 158.352 13.4235 161.394 12.9731L161.489 12.959L161.583 12.9389C163.322 12.5662 165.12 12.5638 166.861 12.9317C169.044 13.4547 171.252 13.8661 173.477 14.1643C175.446 14.4496 177.396 14.8583 179.315 15.3882L179.372 15.4038L179.429 15.4172C182.114 16.0463 184.849 16.4303 187.603 16.5645L187.63 16.5658L187.657 16.5666C188.891 16.6045 190.089 16.1658 191.006 15.348C191.483 14.9488 191.873 14.4548 192.15 13.8978C192.433 13.328 192.592 12.7052 192.618 12.0707C192.657 11.4416 192.57 10.8104 192.359 10.2152C192.155 9.63761 191.839 9.10554 191.43 8.64943C191.038 8.18011 190.555 7.79301 190.01 7.5121C189.422 7.20974 188.776 7.03774 188.116 7.00857C185.989 6.90643 183.874 6.62507 181.794 6.16746C179.489 5.52315 177.146 5.02956 174.777 4.68982L174.761 4.68748L174.745 4.68532C172.678 4.41193 170.795 4.05677 169.065 3.67146C166.02 2.88057 162.837 2.78738 159.752 3.39868C157.483 3.72513 155.184 3.79348 152.899 3.60245C150.037 3.27134 147.138 3.59875 144.422 4.55906C142.823 4.97112 141.164 5.09056 139.522 4.91151C136.054 4.48055 132.538 5.12996 129.45 6.77087C128.414 7.30733 127.224 7.44781 126.097 7.17148C125.553 6.94769 124.969 6.83163 124.378 6.83163C123.691 6.83163 123.013 6.98841 122.397 7.28891C121.753 7.58025 121.19 8.02497 120.758 8.58348C120.422 9.01806 120.173 9.51078 120.022 10.0345C119.798 10.5594 119.682 11.1258 119.682 11.6999C119.682 12.3954 119.853 13.0797 120.178 13.6927C120.587 14.573 121.254 15.3119 122.096 15.8068C122.794 16.2169 123.581 16.4413 124.383 16.4639C127.743 17.3125 131.303 16.8892 134.379 15.2651Z" fill="black" stroke="black" stroke-width="6"/>
<path d="M236.606 37.4788L236.636 37.5107L236.666 37.5417C238.228 39.1261 239.881 40.6169 241.617 42.0065C242.367 42.6458 243.285 43.4027 244.31 44.2478C245.319 45.0792 246.431 45.996 247.589 46.9704C250.154 49.1296 252.34 50.6382 254.255 51.9597L254.316 52.002C255.793 53.0426 257.098 54.311 258.183 55.7609C259.504 57.6408 260.992 59.3966 262.63 61.0065L262.647 61.0241L262.666 61.0413C263.616 61.9452 264.97 63.4359 266.853 65.5913C268.651 67.6488 270.038 69.4606 271.174 70.9725C271.921 71.9779 273.03 72.6573 274.27 72.8624L274.307 72.8685L274.345 72.8737C274.971 72.9612 275.608 72.9218 276.219 72.7581C276.82 72.5971 277.382 72.3191 277.875 71.9409C278.87 71.1878 279.536 70.0806 279.737 68.8518L279.743 68.8149L279.748 68.7779C279.834 68.1545 279.795 67.52 279.634 66.9115C279.475 66.3124 279.2 65.7497 278.824 65.2558C277.579 63.5874 276.019 61.6066 274.118 59.3422L274.109 59.332L274.101 59.322C272.556 57.515 270.92 55.7888 269.199 54.1503C267.991 52.9201 266.883 51.5937 265.886 50.1841L265.872 50.1646L265.858 50.1454C264.161 47.8249 262.1 45.7964 259.755 44.1396C257.926 42.8381 255.881 41.3169 253.671 39.5177L247.67 34.5527C246.168 33.2855 244.838 32.057 243.648 30.8414C243.263 30.3784 242.787 29.9961 242.249 29.719C241.66 29.4157 241.012 29.2464 240.35 29.2233C239.702 29.1872 239.054 29.2876 238.447 29.5181C237.859 29.7414 237.323 30.0816 236.872 30.5168C236.387 30.9533 236 31.4877 235.736 32.0846C235.484 32.6542 235.35 33.2678 235.341 33.8884C235.297 34.5014 235.372 35.1181 235.562 35.7042C235.777 36.3641 236.133 36.9699 236.606 37.4788Z" fill="black" stroke="black" stroke-width="6"/>
<path d="M273.057 69.6033L273.005 69.7016L272.96 69.8036C272.697 70.406 272.562 71.056 272.562 71.7128C272.562 72.3695 272.697 73.0195 272.96 73.622L272.976 73.6587L272.993 73.695C274.328 76.5447 276.199 79.1093 278.502 81.2473C279.466 82.1548 280.161 83.3151 280.508 84.5991C281.147 87.7461 282.67 90.6453 284.9 92.9521C286.019 94.1965 286.752 95.7454 287.006 97.4079L287.008 97.421C287.453 100.245 288.292 102.992 289.501 105.581L289.506 105.593L289.512 105.604C290.464 107.598 291.559 109.709 292.793 111.936L292.825 111.992L292.858 112.047C293.705 113.431 294.207 115.001 294.32 116.623C294.357 119.217 294.739 121.795 295.456 124.288C295.879 126.018 296.386 128.17 296.95 130.662C297.347 132.617 297.491 134.616 297.377 136.609L297.377 136.61C297.341 137.253 297.44 137.898 297.668 138.501C297.874 139.044 298.181 139.544 298.573 139.972C298.963 140.438 299.441 140.822 299.983 141.101C300.561 141.398 301.195 141.568 301.844 141.6C302.968 141.674 304.083 141.367 305.011 140.729L305.23 140.579L305.419 140.392C306.303 139.52 306.824 138.348 306.884 137.111C307.05 134.285 306.836 131.45 306.245 128.681L306.241 128.662L306.237 128.643C305.983 127.526 305.746 126.461 305.523 125.464C305.225 124.128 304.954 122.911 304.706 121.849L304.687 121.768L304.664 121.689C304.153 119.936 303.873 118.122 303.833 116.295L303.832 116.253L303.83 116.211C303.673 113.074 302.772 110.019 301.202 107.302C300.498 106.01 299.874 104.81 299.279 103.667C298.918 102.972 298.567 102.298 298.217 101.638C297.409 99.9064 296.865 98.062 296.602 96.1667L296.595 96.1112L296.585 96.056C295.966 92.5535 294.356 89.3027 291.945 86.6931L291.937 86.6847L291.929 86.6762C290.944 85.6261 290.265 84.3208 289.97 82.904L289.966 82.8852L289.962 82.8665C289.253 79.6696 287.582 76.7674 285.171 74.5562L285.161 74.5469C283.731 73.2474 282.568 71.6781 281.737 69.9271C281.462 69.3418 281.073 68.817 280.59 68.3845C280.163 68.0017 279.672 67.6983 279.138 67.4886C278.566 67.2252 277.942 67.0879 277.309 67.0879C276.711 67.0879 276.12 67.2106 275.574 67.4466C275.093 67.6119 274.643 67.8578 274.244 68.1741C273.752 68.5632 273.348 69.0502 273.057 69.6033Z" fill="black" stroke="black" stroke-width="6"/>
<path d="M198.727 76.6097L194.479 72.3866C167.362 96.6182 141.297 122.014 115.563 147.661L114.593 146.686V148.628C113.522 149.696 112.451 150.764 111.381 151.833L111.375 151.839L111.368 151.846C110.275 152.952 109.664 154.445 109.664 155.997C109.664 157.55 110.275 159.043 111.368 160.149L111.375 160.155L111.381 160.162C112.451 161.231 113.522 162.299 114.593 163.367V165.314L115.565 164.336C127.726 176.46 139.936 188.515 152.335 200.433C166.145 213.708 180.04 226.834 194.493 239.591L198.729 235.358C174.666 208.055 149.469 181.836 123.847 155.995C149.465 130.128 174.611 103.911 198.727 76.6097Z" fill="black" stroke="black" stroke-width="6"/>
<path d="M66.5195 246.988L66.6498 246.818L66.7546 246.631C67.3435 245.582 67.5417 244.359 67.3157 243.179L67.2924 243.057L67.2591 242.938C66.3721 239.755 64.8741 236.776 62.8486 234.169L62.8242 234.138L62.799 234.107C61.1335 232.077 59.2579 230.23 57.2039 228.598C56.2234 227.75 55.4939 226.643 55.0989 225.399L55.095 225.386L55.0909 225.374C54.3718 223.176 53.4572 221.047 52.3585 219.015V218.754L51.872 218.007C50.8387 216.422 49.9653 214.736 49.2648 212.975L49.2609 212.965L49.2569 212.956L46.3876 205.888C45.5112 203.592 44.7594 201.249 44.1355 198.87L44.1267 198.837L44.1172 198.804C43.5034 196.665 43.0632 194.479 42.801 192.269L42.7947 192.216L42.7866 192.163C42.5053 190.345 42.2531 188.647 42.0176 187.061C41.9166 186.381 41.8186 185.721 41.7227 185.081L41.7206 185.067L41.7184 185.053C41.2921 182.381 40.5677 179.765 39.5588 177.256C39.3481 176.642 39.0054 176.08 38.553 175.611C38.103 175.145 37.5564 174.782 36.9516 174.55C36.3896 174.307 35.7831 174.181 35.1688 174.181C34.5662 174.181 33.9709 174.302 33.418 174.536C32.8099 174.759 32.2578 175.113 31.8005 175.573C31.3457 176.03 30.997 176.58 30.7766 177.182C30.533 177.755 30.4072 178.371 30.4072 178.994C30.4072 179.646 30.5446 180.29 30.8105 180.884C31.531 182.714 32.0513 184.617 32.362 186.561C32.4196 186.95 32.4782 187.348 32.5381 187.754C32.8038 189.557 33.0936 191.523 33.4209 193.639C33.7426 196.292 34.2808 198.914 35.03 201.479C35.7465 204.185 36.6017 206.852 37.5923 209.469L37.6054 209.504L37.6194 209.538C37.9778 210.419 38.3295 211.297 38.6758 212.161C39.3007 213.721 39.9078 215.237 40.5044 216.644C41.4247 218.953 42.57 221.165 43.9235 223.248C44.9022 224.929 45.7105 226.705 46.3361 228.549C47.234 231.346 48.8587 233.853 51.0447 235.811L51.1193 235.878L51.1982 235.94C52.7473 237.151 54.1622 238.527 55.4183 240.044C56.6011 241.612 57.4915 243.383 58.0457 245.271C58.1765 245.906 58.4466 246.507 58.8387 247.028C59.238 247.558 59.7523 247.991 60.343 248.293C61.3598 248.881 62.562 249.07 63.7154 248.817L63.803 248.797L63.8894 248.773C64.937 248.477 65.8587 247.849 66.5195 246.988Z" fill="white" stroke="white" stroke-width="6"/>
<path d="M96.5692 40.7188L96.8232 40.6803L97.067 40.5992C98.1328 40.2444 99.0488 39.5463 99.6743 38.6169L99.7477 38.508L99.8112 38.3931C100.099 37.873 100.488 37.4182 100.954 37.0557C101.42 36.6932 101.954 36.4304 102.522 36.2825L102.615 36.2582L102.707 36.228C105.759 35.2205 108.536 33.5172 110.822 31.2526L110.892 31.1834L110.957 31.1096C112.099 29.8192 113.504 28.7936 115.076 28.1022L115.155 28.0674L115.232 28.0281C116.82 27.2169 118.551 26.7253 120.325 26.5802C123.311 26.354 126.172 25.291 128.583 23.5137L128.593 23.507L128.601 23.5003C129.674 22.6976 130.965 22.2494 132.298 22.2149L132.443 22.2111L132.587 22.1934C135.623 21.8197 138.582 20.9699 141.355 19.6751L141.438 19.6363L141.518 19.5926C143.343 18.601 145.268 17.8093 147.261 17.2311L147.437 17.18L147.605 17.1078C148.667 16.6532 149.527 15.8358 150.038 14.8079C150.571 13.8273 150.756 12.693 150.559 11.5924L150.521 11.377L150.451 11.1695C150.245 10.5523 149.916 9.9825 149.484 9.49499C149.057 9.01376 148.537 8.62242 147.956 8.34482C147.353 8.0526 146.692 7.90038 146.021 7.90038C145.453 7.90038 144.891 8.0096 144.367 8.22061C141.84 8.96303 139.402 9.9824 137.098 11.2603C135.305 12.0574 133.407 12.5885 131.464 12.8371C128.333 13.015 125.322 14.0952 122.788 15.9466C121.718 16.5985 120.512 16.9916 119.266 17.0951L119.223 17.0987L119.179 17.1036C116.452 17.4105 113.799 18.1934 111.341 19.4166C108.589 20.5938 106.119 22.3448 104.094 24.5528C102.873 25.6899 101.426 26.5519 99.8507 27.0826C98.114 27.5397 96.4863 28.3411 95.0632 29.4392C93.6245 30.5493 92.425 31.9394 91.5359 33.5252C90.9318 34.5432 90.7175 35.7466 90.933 36.9111C91.1534 38.1017 91.8081 39.1707 92.774 39.9069L93.5796 40.521H94.1349C94.9161 40.7734 95.7492 40.8431 96.5692 40.7188Z" fill="white" stroke="white" stroke-width="6"/>
<path d="M246.428 286.46L246.148 286.232L245.822 286.076C245.198 285.777 244.514 285.621 243.822 285.621C243.249 285.621 242.683 285.727 242.152 285.933C239.504 286.63 236.925 287.57 234.448 288.742C231.883 289.72 229.47 291.059 227.281 292.72C226.218 293.384 225.008 293.769 223.76 293.838L223.705 293.841L223.65 293.846C220.494 294.139 217.427 295.061 214.63 296.557C213.379 297.209 211.976 297.504 210.572 297.41C208.183 297.102 205.766 297.092 203.375 297.377C201.404 297.193 199.208 297.193 196.928 297.193L196.843 297.193C193.517 297.136 190.227 297.869 187.242 299.33C186.698 299.454 186.181 299.68 185.718 299.997C185.03 300.468 184.49 301.123 184.158 301.884C183.891 302.488 183.754 303.14 183.754 303.799C183.754 304.456 183.89 305.106 184.154 305.707C184.415 306.31 184.805 306.849 185.299 307.286C185.765 307.697 186.311 308.007 186.903 308.195C188.015 308.588 189.232 308.574 190.337 308.152L190.491 308.093L190.638 308.018C192.419 307.103 194.399 306.649 196.398 306.697L196.434 306.698H196.47L196.599 306.698C199.205 306.698 201.714 306.698 203.876 306.446L203.894 306.444L203.913 306.442C205.571 306.228 207.249 306.228 208.907 306.442L208.956 306.448L209.005 306.453C212.302 306.768 215.617 306.12 218.554 304.587C220.397 303.718 222.399 303.243 224.434 303.193L224.483 303.191L224.531 303.189C227.54 303.016 230.441 302.006 232.91 300.275L232.984 300.223L233.055 300.167C234.525 298.998 236.177 298.084 237.945 297.463L238.101 297.408L238.249 297.337C240.286 296.358 242.417 295.594 244.609 295.055L244.745 295.022L244.877 294.976C245.953 294.603 246.87 293.879 247.484 292.923L247.532 292.848L247.576 292.77C248.164 291.722 248.363 290.498 248.137 289.318L248.134 289.302L248.13 289.286C247.906 288.178 247.305 287.179 246.428 286.46Z" fill="white" stroke="white" stroke-width="6"/>
<path d="M245.678 284.089L245.667 284.094L245.656 284.098C245.039 284.354 244.483 284.733 244.019 285.212C243.587 285.658 243.245 286.182 243.01 286.755C242.75 287.333 242.616 287.96 242.616 288.593C242.616 289.269 242.769 289.936 243.063 290.545C243.597 291.663 244.536 292.538 245.694 292.988C246.252 293.215 246.849 293.333 247.452 293.333C248.067 293.333 248.676 293.211 249.243 292.975C251.78 291.946 254.239 290.73 256.598 289.338L256.726 289.262L256.846 289.174C258.551 287.925 260.42 286.546 262.438 284.987L262.438 284.987L262.445 284.981L267.775 280.84L267.864 280.771L267.947 280.695C269.344 279.431 271.098 277.918 273.222 276.385L273.293 276.334L273.361 276.279C275.188 274.791 277.138 273.463 279.189 272.309L279.24 272.281L279.289 272.251C281.34 270.991 283.367 269.785 285.378 268.601L285.432 268.569L285.485 268.535C287.064 267.513 288.416 266.176 289.457 264.607C290.497 263.038 291.204 261.271 291.534 259.417L291.547 259.343L291.557 259.269C291.697 258.167 291.492 257.047 290.971 256.065L290.954 256.033L290.936 256.002C290.645 255.483 290.254 255.026 289.785 254.658C289.336 254.306 288.824 254.041 288.276 253.878C287.597 253.665 286.878 253.612 286.174 253.725C285.532 253.828 284.921 254.067 284.381 254.423C283.801 254.76 283.309 255.229 282.945 255.793C282.583 256.354 282.36 256.99 282.29 257.65C282.063 258.761 281.435 259.744 280.531 260.41L274.572 263.999C272.051 265.405 269.666 267.044 267.449 268.896C265.273 270.594 263.436 272.091 261.951 273.382C260.329 274.521 258.581 275.82 256.686 277.27C256.683 277.272 256.681 277.274 256.678 277.276L251.489 281.195C249.629 282.309 247.686 283.276 245.678 284.089Z" fill="white" stroke="white" stroke-width="6"/>
<path d="M323.886 196.936L323.756 196.845L323.616 196.769C322.976 196.418 322.257 196.233 321.526 196.233C320.855 196.233 320.194 196.389 319.594 196.686C318.999 196.954 318.467 197.345 318.034 197.833C317.589 198.335 317.258 198.927 317.065 199.568C316.321 201.762 315.645 204.192 315.032 206.824C314.492 208.753 313.788 210.632 312.927 212.439C311.782 214.384 310.825 216.435 310.069 218.564C309.408 220.137 308.498 222.158 307.311 224.575C306.19 226.721 304.938 228.796 303.563 230.787C302.665 231.941 301.772 233.104 300.911 234.224C300.302 235.017 299.71 235.788 299.144 236.52L299.119 236.552L299.095 236.585C298.232 237.765 297.32 238.909 296.363 240.014V239.394L291.054 245.796C289.123 248.124 287.365 250.59 285.792 253.174C285.423 253.701 285.174 254.303 285.062 254.937C284.955 255.542 284.976 256.163 285.121 256.758C285.221 257.327 285.426 257.873 285.726 258.369C286.077 258.946 286.549 259.441 287.111 259.818L287.17 259.858L287.231 259.895C288.254 260.513 289.47 260.731 290.646 260.505L290.797 260.475L290.945 260.431C292.009 260.11 292.946 259.466 293.627 258.591L293.739 258.447L293.833 258.291C295.157 256.083 296.666 253.993 298.345 252.044L298.395 251.985L298.442 251.925C299.588 250.447 300.84 249.054 302.186 247.758L302.246 247.7L302.302 247.639C303.883 245.938 305.368 244.151 306.75 242.285L306.773 242.254L306.795 242.223C308.126 240.328 309.57 238.457 311.101 236.638L311.199 236.522L311.285 236.396C312.985 233.903 314.495 231.284 315.803 228.562L315.803 228.562L315.808 228.55C317.05 225.938 318.064 223.723 318.764 221.979L318.98 221.441V221.286C319.557 219.859 320.244 218.479 321.033 217.158L321.099 217.048L321.155 216.934C322.33 214.522 323.267 212 323.952 209.404L323.964 209.356L323.975 209.308C324.528 206.892 325.128 204.7 325.771 202.777C325.977 202.24 326.083 201.67 326.083 201.094C326.083 200.512 325.975 199.936 325.764 199.394C325.411 198.401 324.756 197.54 323.886 196.936Z" fill="white" stroke="white" stroke-width="6"/>
<path d="M327.725 136.263L327.972 136.295C328.645 136.381 329.29 136.617 329.859 136.984C330.297 137.266 330.682 137.62 330.999 138.03C331.361 138.407 331.658 138.842 331.879 139.317C332.142 139.884 332.29 140.495 332.316 141.117C332.454 142.679 332.406 144.483 332.361 146.16C332.34 146.945 332.32 147.703 332.32 148.394V148.553L332.303 148.711C332.111 150.524 332.272 152.357 332.778 154.107L332.801 154.185L332.819 154.264C333.435 156.925 333.816 159.635 333.958 162.363C334.128 165.274 333.784 168.193 332.941 170.985L332.93 171.022L332.917 171.059C332.317 172.876 331.929 174.757 331.761 176.665L331.756 176.725L331.748 176.785C331.426 179.287 331.03 181.77 330.199 184.548C329.737 186.442 329.297 188.571 328.854 191.356L328.845 191.415L328.833 191.474C328.333 193.964 327.674 196.419 326.861 198.824L327.725 136.263ZM327.725 136.263L327.476 136.273M327.725 136.263L327.476 136.273M327.476 136.273C326.829 136.298 326.194 136.452 325.608 136.727C325.029 136.999 324.51 137.382 324.081 137.855M327.476 136.273L324.081 137.855M324.081 137.855C323.647 138.326 323.314 138.88 323.101 139.482C322.9 140.052 322.809 140.655 322.834 141.259V141.266V141.277V141.289V141.301V141.313V141.325V141.337V141.349V141.361V141.373V141.385V141.397V141.409V141.421V141.433V141.445V141.457V141.469V141.481V141.493V141.505V141.517V141.529V141.541V141.553V141.565V141.577V141.589V141.601V141.613V141.625V141.638V141.65V141.662V141.674V141.686V141.698V141.71V141.722V141.734V141.746V141.759V141.771V141.783V141.795V141.807V141.819V141.831V141.844V141.856V141.868V141.88V141.892V141.905V141.917V141.929V141.941V141.953V141.966V141.978V141.99V142.002V142.015V142.027V142.039V142.051V142.064V142.076V142.088V142.1V142.113V142.125V142.137V142.15V142.162V142.174V142.186V142.199V142.211V142.223V142.236V142.248V142.26V142.273V142.285V142.297V142.31V142.322V142.335V142.347V142.359V142.372V142.384V142.397V142.409V142.421V142.434V142.446V142.459V142.471V142.484V142.496V142.508V142.521V142.533V142.546V142.558V142.571V142.583V142.596V142.608V142.621V142.633V142.646V142.658V142.671V142.683V142.696V142.708V142.721V142.733V142.746V142.758V142.771V142.784V142.796V142.809V142.821V142.834V142.846V142.859V142.872V142.884V142.897V142.909V142.922V142.935V142.947V142.96V142.973V142.985V142.998V143.011V143.023V143.036V143.049V143.061V143.074V143.087V143.099V143.112V143.125V143.137V143.15V143.163V143.175V143.188V143.201V143.214V143.226V143.239V143.252V143.265V143.277V143.29V143.303V143.316V143.329V143.341V143.354V143.367V143.38V143.392V143.405V143.418V143.431V143.444V143.457V143.469V143.482V143.495V143.508V143.521V143.534V143.547V143.559V143.572V143.585V143.598V143.611V143.624V143.637V143.65V143.663V143.675V143.688V143.701V143.714V143.727V143.74V143.753V143.766V143.779V143.792V143.805V143.818V143.831V143.844V143.857V143.87V143.883V143.896V143.909V143.922V143.935V143.948V143.961V143.974V143.987V144V144.013V144.026V144.039V144.052V144.065V144.078V144.091V144.105V144.118V144.131V144.144V144.157V144.17V144.183V144.196V144.209V144.223V144.236V144.249V144.262V144.275V144.288V144.301V144.315V144.328V144.341V144.354V144.367V144.38V144.394V144.407V144.42V144.433V144.446V144.46V144.473V144.486V144.499V144.513V144.526V144.539V144.552V144.566V144.579V144.592V144.605V144.619V144.632V144.645V144.659V144.672V144.685V144.698V144.712V144.725V144.738V144.752V144.765V144.778V144.792V144.805V144.818V144.832V144.845V144.859V144.872V144.885V144.899V144.912V144.925V144.939V144.952V144.966V144.979V144.992V145.006V145.019V145.033V145.046V145.06V145.073V145.086V145.1V145.113V145.127V145.14V145.154V145.167V145.181V145.194V145.208V145.221V145.235V145.248V145.262V145.275V145.289V145.302V145.316V145.329V145.343V145.356V145.37V145.384V145.397V145.411V145.424V145.438V145.451V145.465V145.479V145.492V145.506V145.519V145.533V145.547V145.56V145.574V145.588V145.601V145.615V145.628V145.642V145.656V145.669V145.683V145.697V145.71V145.724V145.738V145.751V145.765V145.779V145.793V145.806V145.82V145.834V145.847V145.861V145.875V145.889V145.902V145.916V145.93V145.944V145.957V145.971V145.985V145.999V146.012V146.026V146.04V146.054V146.068V146.081V146.095V146.109V146.123V146.137V146.151V146.164V146.178V146.192V146.206V146.22V146.234V146.247V146.261V146.275V146.289V146.303V146.317V146.331V146.345V146.359V146.372V146.386V146.4V146.414V146.428V146.442V146.456V146.47V146.484V146.498V146.512V146.526V146.54V146.554V146.568V146.582V146.596V146.61V146.624V146.638V146.652V146.666V146.68V146.694V146.708V146.722V146.736V146.75V146.764V146.778V146.792V146.806V146.82V146.834V146.848V146.862V146.876V146.89V146.904V146.918V146.933V146.947V146.961V146.975V146.989V147.003V147.017V147.031V147.045V147.06V147.074V147.088V147.102V147.116V147.13V147.145V147.159V147.173V147.187V147.201V147.215V147.23V147.244V147.258V147.272V147.286V147.301V147.315V147.329V147.343V147.358V147.372V147.386V147.4V147.415V147.429V147.443V147.457V147.472V147.486V147.5V147.514V147.529V147.543V147.557V147.572V147.586V147.6V147.615V147.629V147.643V147.658V147.672V147.686V147.701V147.715V147.729V147.744V147.758V147.772V147.782C322.552 150.707 322.817 153.66 323.616 156.488C324.083 158.6 324.372 160.748 324.48 162.909L324.482 162.95L324.485 162.991C324.618 164.715 324.467 166.449 324.04 168.123C323.113 170.542 322.502 173.072 322.223 175.65C321.889 177.946 321.557 180.112 321.201 182.161C320.636 184.306 320.141 186.809 319.659 189.602C319.238 191.637 318.689 193.643 318.016 195.608C317.787 196.173 317.67 196.777 317.67 197.386C317.67 198.043 317.806 198.693 318.07 199.294C318.331 199.897 318.721 200.437 319.215 200.873C319.681 201.284 320.227 201.594 320.819 201.782C321.931 202.175 323.148 202.161 324.253 201.739L324.543 201.628L324.804 201.46C325.77 200.84 326.494 199.91 326.86 198.826L324.081 137.855Z" fill="white" stroke="white" stroke-width="6"/>
<path d="M184.565 299.166L184.496 299.163H184.427L184.359 299.163C182.134 299.163 179.68 299.163 177.171 299.428C175.312 299.468 173.456 299.259 171.652 298.806C168.972 298.013 166.174 297.694 163.384 297.865L163.384 297.865L163.372 297.866C161.559 297.984 159.738 297.821 157.975 297.382C155.432 296.662 152.794 296.343 150.155 296.437C148.191 296.295 146.273 295.769 144.508 294.888C143.886 294.565 143.194 294.396 142.492 294.396C141.92 294.396 141.356 294.508 140.83 294.723C140.286 294.89 139.778 295.159 139.335 295.519C138.794 295.956 138.365 296.513 138.08 297.145C137.793 297.759 137.644 298.429 137.644 299.107C137.644 299.797 137.798 300.477 138.094 301.1C138.57 302.114 139.379 302.937 140.389 303.428C143.453 305.014 146.831 305.894 150.278 306.001L150.389 306.005L150.499 306C152.197 305.928 153.895 306.133 155.527 306.608L155.577 306.622L155.627 306.635C158.371 307.331 161.206 307.595 164.031 307.417C165.733 307.326 167.439 307.529 169.072 308.02L169.132 308.037L169.192 308.053C171.953 308.759 174.799 309.073 177.646 308.986C178.866 308.985 180.065 308.924 181.173 308.867L181.187 308.866C182.33 308.808 183.375 308.755 184.401 308.755C185.602 308.772 186.765 308.349 187.676 307.569L187.873 307.4L188.038 307.2C188.765 306.318 189.178 305.219 189.212 304.078L189.213 304.043L189.213 304.008C189.217 303.388 189.098 302.774 188.861 302.2C188.641 301.667 188.324 301.179 187.926 300.762C187.515 300.303 187.019 299.927 186.464 299.654C185.872 299.363 185.225 299.197 184.565 299.166Z" fill="white" stroke="white" stroke-width="6"/>
<path d="M88.1003 263.566L88.0497 263.532L87.9977 263.5C86.3022 262.442 84.7313 261.195 83.3153 259.781L83.2861 259.751L83.2562 259.723C81.3288 257.901 79.6475 256.297 78.23 254.9L78.2005 254.871L78.1701 254.843C76.896 253.655 75.8201 252.268 74.9842 250.735L74.9806 250.729L74.977 250.722C73.3062 247.694 70.8559 245.171 67.8805 243.418L67.7855 243.362L67.6866 243.313C67.0721 243.009 66.3955 242.851 65.7092 242.851C65.2159 242.851 64.7277 242.932 64.2639 243.091C63.753 243.197 63.2631 243.39 62.8162 243.664C62.2072 244.038 61.6961 244.549 61.3233 245.156L61.2447 245.284L61.1793 245.419C60.875 246.048 60.7171 246.738 60.7171 247.436C60.7171 247.982 60.8138 248.523 61.0017 249.034C61.1223 249.512 61.32 249.968 61.5885 250.384C61.9409 250.93 62.4069 251.394 62.9557 251.745L62.9842 251.763L63.0132 251.781C64.4345 252.645 65.6206 253.852 66.4633 255.294C67.7286 257.73 69.3911 259.937 71.3823 261.822L71.3822 261.822L71.3924 261.832L76.5435 266.665C78.4189 268.538 80.4945 270.198 82.7325 271.615C84.3009 272.715 85.6629 274.088 86.7544 275.67C88.887 278.834 92.0624 281.146 95.7262 282.195L95.8898 282.242L96.0576 282.27C96.4383 282.333 96.8023 282.477 97.1257 282.692C97.4492 282.907 97.7251 283.189 97.9347 283.521L97.9695 283.576L98.0066 283.629C98.7289 284.669 99.8034 285.415 101.034 285.724L101.149 285.753L101.266 285.773C102.399 285.965 103.561 285.757 104.556 285.186L104.643 285.136L104.726 285.08C105.678 284.447 106.382 283.508 106.728 282.423L106.748 282.362L106.764 282.302C106.942 281.65 106.977 280.967 106.866 280.301C106.764 279.68 106.537 279.087 106.2 278.556C105.353 277.092 104.199 275.83 102.816 274.857C101.47 273.91 99.9408 273.26 98.3276 272.949C96.8392 272.443 95.5494 271.464 94.6553 270.154C92.9053 267.562 90.6812 265.326 88.1003 263.566Z" fill="white" stroke="white" stroke-width="6"/>
<path d="M140.26 293.64L139.943 293.461L139.592 293.364C137.344 292.74 135.149 291.935 133.029 290.956C130.681 289.729 128.17 288.844 125.572 288.33L124.144 288.047C123.351 287.694 122.604 287.236 121.924 286.685L121.893 286.659L121.862 286.635C120.234 285.383 118.459 284.198 116.656 282.994C116.194 282.685 115.729 282.375 115.265 282.062C112.471 280.057 109.176 278.87 105.747 278.635L105.732 278.634L105.718 278.633C105.057 278.594 104.395 278.695 103.776 278.93C103.218 279.142 102.708 279.457 102.27 279.859C101.81 280.242 101.431 280.712 101.154 281.243C100.845 281.833 100.671 282.485 100.642 283.15L100.642 283.162C100.617 283.797 100.717 284.432 100.937 285.029C101.15 285.61 101.474 286.146 101.889 286.606C102.295 287.067 102.787 287.445 103.34 287.716C103.885 287.983 104.477 288.141 105.082 288.182C106.78 288.342 108.404 288.963 109.782 289.979L109.851 290.03L109.923 290.077C112.075 291.482 114.039 292.873 115.822 294.278C118.032 296.082 120.631 297.345 123.413 297.966L123.452 297.975L123.492 297.982C125.219 298.32 126.891 298.9 128.458 299.705L128.493 299.723L128.528 299.739C131.151 301.003 133.88 302.034 136.682 302.821L136.821 302.86L136.963 302.886C138.161 303.101 139.396 302.874 140.44 302.25C141.464 301.643 142.229 300.683 142.595 299.553L142.652 299.375L142.687 299.191C142.877 298.199 142.755 297.176 142.346 296.261C142.212 295.808 142.008 295.378 141.738 294.987C141.355 294.432 140.85 293.971 140.26 293.64Z" fill="white" stroke="white" stroke-width="6"/>
<path d="M216.069 16.3092L216.176 16.3437L216.286 16.37C218.71 16.9497 221.162 17.4028 223.633 17.7275C224.902 17.9125 226.111 18.3915 227.167 19.1277L227.275 19.2031L227.389 19.2687C229.991 20.7631 232.782 21.8983 235.686 22.6433L235.747 22.6588L235.808 22.6717C237.429 23.0166 238.951 23.7287 240.259 24.7545C242.559 26.8107 245.3 28.3075 248.27 29.1272C249.974 29.6963 251.513 30.6787 252.751 31.9887C253.774 33.3076 255.054 34.4059 256.514 35.2162C258.004 36.0436 259.649 36.5522 261.346 36.7098C261.943 36.7815 262.549 36.7383 263.131 36.5824C263.741 36.4187 264.313 36.134 264.811 35.7461L264.931 35.6527L265.04 35.5476C265.936 34.6911 266.478 33.532 266.564 32.2996C266.659 31.1076 266.314 29.9198 265.591 28.9635L265.513 28.8607L265.427 28.765C264.995 28.2851 264.471 27.8958 263.885 27.6209C263.335 27.3628 262.741 27.2107 262.135 27.1725C261.735 27.1276 261.348 27.0042 260.995 26.8086C260.627 26.6045 260.303 26.326 260.044 25.9894L259.978 25.9036L259.906 25.8229C257.563 23.1921 254.569 21.2281 251.226 20.1309L251.149 20.1057L251.071 20.0847C249.471 19.6534 247.983 18.8763 246.71 17.8065C244.25 15.6661 241.302 14.1666 238.127 13.4412C236.129 12.865 234.215 12.0256 232.434 10.9445C230.208 9.37905 227.642 8.36588 224.947 7.99011L224.927 7.98731L224.907 7.98477C223.206 7.77112 221.09 7.39287 218.559 6.86373C217.921 6.68449 217.251 6.64564 216.595 6.75121C215.953 6.85449 215.342 7.09313 214.801 7.44953C214.221 7.78587 213.729 8.25521 213.365 8.81898C213.024 9.34883 212.805 9.94628 212.723 10.5672C212.602 11.1294 212.591 11.7108 212.692 12.2793C212.784 12.8009 212.968 13.3009 213.235 13.7561C213.465 14.2781 213.79 14.7553 214.195 15.1624C214.718 15.6885 215.36 16.0822 216.069 16.3092Z" fill="white" stroke="white" stroke-width="6"/>
<path d="M61.0859 77.2496L61.1992 77.1466L61.3014 77.0326C62.5788 75.6089 64.2385 73.8828 66.281 71.8006L66.3283 71.7524L66.3734 71.702C68.4422 69.3936 70.3159 66.9162 71.9753 64.2954L72.0168 64.2298L72.0549 64.1622C72.9995 62.4841 74.1316 60.9204 75.429 59.5015L75.4904 59.4342L75.5477 59.3634C76.7561 57.869 78.0763 56.47 79.497 55.1786L79.5817 55.1016L79.6604 55.0183C81.2954 53.2866 83.0682 51.3566 84.9648 49.0925L84.9815 49.0726L84.9977 49.0525C85.9698 47.8504 87.1731 46.8597 88.5344 46.139L88.575 46.1176L88.6149 46.0949C91.1099 44.6748 93.3775 42.8858 95.342 40.7884L95.4067 40.7193L95.4669 40.6464C96.1945 39.7641 96.6067 38.6652 96.6409 37.5242L96.6432 37.4483L96.6416 37.3724C96.6173 36.1908 96.1555 35.0584 95.3431 34.1969C94.9053 33.7253 94.3765 33.3461 93.7877 33.083C93.1891 32.8156 92.5417 32.674 91.8856 32.6675C91.189 32.6607 90.5011 32.817 89.8764 33.1233C89.3201 33.3961 88.8281 33.781 88.4301 34.252C87.1345 35.5805 85.6792 36.7408 84.098 37.7061C81.7127 39.0291 79.6283 40.8354 77.9763 43.0091C76.307 44.9044 74.6993 46.6299 73.1792 48.1614C71.4372 49.6844 69.823 51.3488 68.353 53.1378C66.5967 55.0652 65.0748 57.195 63.8188 59.4825C62.4484 61.5221 60.9237 63.4522 59.2582 65.2558C57.2474 67.3061 55.5351 69.0847 54.1766 70.5957C53.7192 71.0674 53.3693 71.6323 53.1503 72.2515C52.9314 72.8704 52.8486 73.5288 52.9067 74.1816C52.9433 74.7855 53.0979 75.3771 53.3626 75.9226C53.6446 76.5037 54.0455 77.02 54.5401 77.4373C55.0853 77.8976 55.7297 78.2265 56.4238 78.3974C57.0144 78.5428 57.6266 78.5702 58.2258 78.4794C59.2878 78.4003 60.2949 77.9682 61.0859 77.2496Z" fill="white" stroke="white" stroke-width="6"/>
<path d="M42.784 113.478L42.9007 113.416L43.0114 113.344C43.9656 112.725 44.6825 111.804 45.0508 110.73L45.0931 110.607L45.1246 110.481C45.7758 107.862 46.4204 105.555 47.0566 103.581L47.0844 103.495L47.1069 103.407C47.478 101.962 48.1616 100.619 49.1079 99.4726L49.157 99.4131L49.203 99.3512C50.7227 97.3042 52.0195 95.0996 53.0713 92.7752L53.085 92.7448L53.0981 92.7142C54.0437 90.4943 55.104 88.3255 56.2744 86.2168L56.3143 86.1451L56.3501 86.0712C57.4909 83.7216 58.6056 81.6753 59.6426 79.8715C60.2554 78.8304 60.4754 77.6043 60.2641 76.4157L60.2176 76.1537L60.1256 75.904C59.7499 74.8836 59.0652 74.004 58.1645 73.3901L57.9463 73.2413L57.7053 73.133C57.0969 72.8593 56.437 72.7175 55.769 72.7175C55.2163 72.7175 54.6691 72.8146 54.152 73.0032C53.5779 73.161 53.0404 73.4323 52.5714 73.8017C52.06 74.2047 51.644 74.7135 51.3507 75.2914C50.2058 77.2475 49.0218 79.4277 47.7983 81.8285C46.4218 84.3626 45.2367 86.773 44.2777 89.0002C43.5277 90.6738 42.6196 92.2708 41.5658 93.7691C39.8527 95.9486 38.6015 98.4562 37.8884 101.138C37.2395 103.234 36.5868 105.599 35.9296 108.228C35.7266 108.756 35.6221 109.319 35.6221 109.887C35.6221 110.585 35.7799 111.274 36.0843 111.903L36.36 112.473L36.8424 112.883C37.635 113.556 38.6187 113.963 39.6542 114.046C40.7301 114.186 41.8238 113.988 42.784 113.478Z" fill="white" stroke="white" stroke-width="6"/>
<path d="M35.5005 127.772C35.875 125.05 36.1632 122.588 36.4225 119.952C36.5866 118.283 36.7162 116.777 36.833 115.419C36.9007 114.632 36.9641 113.894 37.0275 113.203C37.051 112.967 37.125 112.739 37.2443 112.534C37.3637 112.329 37.5256 112.152 37.719 112.016C37.8839 111.842 38.0872 111.71 38.3124 111.629C38.5376 111.549 38.7784 111.522 39.0155 111.552C39.251 111.574 39.479 111.648 39.6831 111.768C39.8872 111.888 40.0626 112.052 40.1968 112.248C40.3368 112.409 40.4423 112.598 40.5067 112.802C40.5712 113.007 40.5931 113.222 40.5713 113.435C40.4961 114.267 40.4154 115.197 40.3293 116.191C40.2175 117.48 40.0965 118.876 39.9663 120.3C39.7358 122.819 39.4189 125.368 39.0155 128.265C38.696 130.658 38.2244 133.028 37.6037 135.361L35.5005 127.772ZM35.5005 127.772C35.2027 129.969 34.7697 132.146 34.204 134.289L35.5005 127.772ZM28.6953 163.924L28.7352 164.065L28.7886 164.202C29.3531 165.643 29.8184 167.122 30.181 168.628C30.4738 170.061 30.3984 171.544 29.9629 172.937C29.7275 173.487 29.6058 174.08 29.6058 174.679C29.6058 175.362 29.7639 176.036 30.0681 176.648C30.3472 177.229 30.7422 177.748 31.2298 178.172C31.7066 178.587 32.2616 178.902 32.8623 179.098C33.9384 179.479 35.1155 179.468 36.1855 179.064L36.4215 178.975L36.6394 178.848C37.5819 178.297 38.3326 177.473 38.7941 176.486L38.875 176.313L38.9333 176.131C39.9238 173.044 40.0669 169.746 39.3477 166.584L39.3431 166.564L39.3381 166.543C38.8953 164.716 38.3471 162.917 37.6961 161.154C37.488 159.724 37.5633 158.266 37.9187 156.865L37.9643 156.685L37.9874 156.501C38.0395 156.085 38.0472 155.666 38.0107 155.249V155.238V155.225V155.212V155.2V155.187V155.174V155.161V155.149V155.136V155.123V155.11V155.097V155.085V155.072V155.059V155.046V155.033V155.021V155.008V154.995V154.982V154.969V154.956V154.944V154.931V154.918V154.905V154.892V154.88V154.867V154.854V154.841V154.828V154.815V154.802V154.79V154.777V154.764V154.751V154.738V154.725V154.712V154.7V154.687V154.674V154.661V154.648V154.635V154.622V154.609V154.596V154.584V154.571V154.558V154.545V154.532V154.519V154.506V154.493V154.48V154.467V154.454V154.442V154.429V154.416V154.403V154.39V154.377V154.364V154.351V154.338V154.325V154.312V154.299V154.286V154.273V154.26V154.247V154.234V154.221V154.208V154.195V154.182V154.169V154.156V154.144V154.131V154.118V154.105V154.092V154.079V154.066V154.053V154.04V154.027V154.013V154V153.987V153.974V153.961V153.948V153.935V153.922V153.909V153.896V153.883V153.87V153.857V153.844V153.831V153.818V153.805V153.792V153.779V153.766V153.753V153.74V153.727V153.713V153.7V153.687V153.674V153.661V153.648V153.635V153.622V153.609V153.596V153.583V153.569V153.556V153.543V153.53V153.517V153.504V153.491V153.478V153.465V153.451V153.438V153.425V153.412V153.399V153.386V153.373V153.359V153.346V153.333V153.32V153.307V153.294V153.281V153.267V153.254V153.241V153.228V153.215V153.201V153.188V153.175V153.162V153.149V153.136V153.122V153.109V153.096V153.083V153.07V153.056V153.043V153.03V153.017V153.004V152.99V152.977V152.964V152.951V152.937V152.924V152.911V152.898V152.884V152.871V152.858V152.845V152.831V152.818V152.805V152.792V152.778V152.765V152.752V152.739V152.725V152.712V152.699V152.685V152.672V152.659V152.646V152.632V152.619V152.606V152.592V152.579V152.566V152.553V152.539V152.526V152.513V152.499V152.486V152.473V152.459V152.446V152.433V152.419V152.406V152.393V152.379V152.366V152.353V152.339V152.326V152.313V152.299V152.286V152.272V152.259V152.246V152.232V152.219V152.206V152.192V152.179V152.165V152.152V152.139V152.125V152.112V152.099V152.085V152.072V152.058V152.045V152.031V152.018V152.005V151.991V151.978V151.964V151.951V151.938V151.924V151.911V151.897V151.884V151.87V151.857V151.843V151.83V151.817V151.803V151.79V151.776V151.763V151.749V151.736V151.722V151.709V151.695V151.682V151.668V151.655V151.641V151.628V151.614V151.601V151.587V151.574V151.56V151.547V151.533V151.52V151.506V151.493V151.479V151.466V151.452V151.439V151.425V151.412V151.398V151.385V151.371V151.358V151.344V151.33V151.317V151.303V151.29V151.276V151.263V151.249V151.236V151.222V151.208V151.195V151.181V151.168V151.154V151.14V151.127V151.113V151.1V151.086V151.073V151.059V151.045V151.032V151.018V151.004V150.991V150.977V150.964V150.95V150.936V150.923V150.909V150.895V150.882V150.868V150.855V150.841V150.827V150.814V150.8V150.786V150.773V150.759V150.745V150.732V150.718V150.704V150.691V150.677V150.663V150.65V150.636V150.622V150.609V150.595V150.581V150.567V150.554V150.54V150.526V150.513V150.499V150.485V150.472V150.458V150.444V150.43V150.417V150.403V150.389V150.375V150.362V150.348V150.334V150.32V150.307V150.293V150.279V150.265V150.252V150.238V150.224V150.21V150.197V150.183V150.169V150.155V150.142V150.128V150.114V150.1V150.086V150.073V150.059V150.045V150.031V150.017V150.004V149.99V149.976V149.962V149.948V149.935V149.921V149.907V149.893V149.879V149.865V149.852V149.838V149.824V149.81V149.796V149.782V149.768V149.755V149.741V149.727V149.713V149.699V149.685V149.671V149.658V149.644V149.63V149.616V149.602V149.588V149.574V149.56V149.547V149.533V149.519V149.505V149.491V149.477V149.463V149.449V149.435V149.421V149.407V149.394V149.38V149.366V149.352V149.338V149.324V149.31V149.296V149.282V149.268V149.254V149.24V149.226V149.212V149.198V149.184V149.17V149.156V149.142V149.128V149.114V149.101V149.087V149.073V149.059V149.045V149.031V149.017V149.003V148.989V148.975V148.961V148.947V148.933V148.919V148.905V148.891V148.876V148.862V148.848V148.834V148.82V148.806V148.792V148.778V148.764V148.75V148.736V148.722V148.708V148.694V148.68V148.666V148.652V148.638V148.624V148.61V148.596V148.581V148.577C38.0664 146.403 38.3561 144.241 38.8748 142.13L38.8902 142.068L38.9028 142.005C39.2885 140.083 39.8021 138.19 40.4402 136.338L40.4752 136.236L40.5029 136.132C41.1556 133.679 41.6516 131.187 41.988 128.67C42.3941 125.753 42.7176 123.156 42.9538 120.573C43.0822 119.169 43.2068 117.734 43.3207 116.42C43.4068 115.428 43.4868 114.505 43.558 113.718C43.6176 113.106 43.5531 112.487 43.3678 111.9C43.1974 111.36 42.9281 110.856 42.5735 110.414C42.2053 109.917 41.7401 109.497 41.2046 109.182C40.635 108.847 40 108.638 39.3423 108.57C38.6536 108.491 37.9557 108.571 37.3026 108.804C36.728 109.009 36.2026 109.328 35.7565 109.74C35.313 110.097 34.9385 110.532 34.6518 111.024C34.3159 111.601 34.1083 112.243 34.0423 112.906L34.0411 112.918L34.0401 112.929C33.9735 113.655 33.9089 114.406 33.8407 115.199C33.7255 116.54 33.6 118 33.4369 119.658C33.1813 122.256 32.8976 124.68 32.5285 127.363L32.5277 127.369C32.2517 129.406 31.8527 131.423 31.3329 133.411C30.5792 135.572 29.9647 137.779 29.4932 140.019C28.8064 142.784 28.424 145.616 28.3526 148.464L28.3517 148.502V148.539V155.328C27.7867 158.178 27.9037 161.125 28.6953 163.924Z" fill="white" stroke="white" stroke-width="6"/>
<path d="M159.379 15.2651L159.4 15.2538L159.421 15.2422C160.767 14.5038 162.308 14.2101 163.827 14.4013L163.836 14.4023C166.752 14.7607 169.711 14.5328 172.539 13.7319L172.628 13.7066L172.716 13.6758C174.123 13.1815 175.624 13.0231 177.102 13.2128L177.154 13.2195L177.207 13.2244C180.268 13.5079 183.352 13.4235 186.394 12.9731L186.489 12.959L186.583 12.9389C188.322 12.5662 190.12 12.5638 191.861 12.9317C194.044 13.4547 196.252 13.8661 198.477 14.1643C200.446 14.4496 202.396 14.8583 204.315 15.3882L204.372 15.4038L204.429 15.4172C207.114 16.0463 209.849 16.4303 212.603 16.5645L212.63 16.5658L212.657 16.5666C213.891 16.6045 215.089 16.1658 216.006 15.348C216.483 14.9488 216.873 14.4548 217.15 13.8978C217.433 13.328 217.592 12.7052 217.618 12.0707C217.657 11.4416 217.57 10.8104 217.359 10.2152C217.155 9.63761 216.839 9.10554 216.43 8.64943C216.038 8.18011 215.555 7.79301 215.01 7.5121C214.422 7.20974 213.776 7.03774 213.116 7.00857C210.989 6.90643 208.874 6.62507 206.794 6.16746C204.489 5.52315 202.146 5.02956 199.777 4.68982L199.761 4.68748L199.745 4.68532C197.678 4.41193 195.795 4.05677 194.065 3.67146C191.02 2.88057 187.837 2.78738 184.752 3.39868C182.483 3.72513 180.184 3.79348 177.899 3.60245C175.037 3.27134 172.138 3.59875 169.422 4.55906C167.823 4.97112 166.164 5.09056 164.522 4.91151C161.054 4.48055 157.538 5.12996 154.45 6.77087C153.414 7.30733 152.224 7.44781 151.097 7.17148C150.553 6.94769 149.969 6.83163 149.378 6.83163C148.691 6.83163 148.013 6.98841 147.397 7.28891C146.753 7.58025 146.19 8.02497 145.758 8.58348C145.422 9.01806 145.173 9.51078 145.022 10.0345C144.798 10.5594 144.682 11.1258 144.682 11.6999C144.682 12.3954 144.853 13.0797 145.178 13.6927C145.587 14.573 146.254 15.3119 147.096 15.8068C147.794 16.2169 148.581 16.4413 149.383 16.4639C152.743 17.3125 156.303 16.8892 159.379 15.2651Z" fill="white" stroke="white" stroke-width="6"/>
<path d="M261.606 37.4788L261.636 37.5107L261.666 37.5417C263.228 39.1261 264.881 40.6169 266.617 42.0065C267.367 42.6458 268.285 43.4027 269.31 44.2478C270.319 45.0792 271.431 45.996 272.589 46.9704C275.154 49.1296 277.34 50.6382 279.255 51.9597L279.316 52.002C280.793 53.0426 282.098 54.311 283.183 55.7609C284.504 57.6408 285.992 59.3966 287.63 61.0065L287.647 61.0241L287.666 61.0413C288.616 61.9452 289.97 63.4359 291.853 65.5913C293.651 67.6488 295.038 69.4606 296.174 70.9725C296.921 71.9779 298.03 72.6573 299.27 72.8624L299.307 72.8685L299.345 72.8737C299.971 72.9612 300.608 72.9218 301.219 72.7581C301.82 72.5971 302.382 72.3191 302.875 71.9409C303.87 71.1878 304.536 70.0806 304.737 68.8518L304.743 68.8149L304.748 68.7779C304.834 68.1545 304.795 67.52 304.634 66.9115C304.475 66.3124 304.2 65.7497 303.824 65.2558C302.579 63.5874 301.019 61.6066 299.118 59.3422L299.109 59.332L299.101 59.322C297.556 57.515 295.92 55.7888 294.199 54.1503C292.991 52.9201 291.883 51.5937 290.886 50.1841L290.872 50.1646L290.858 50.1454C289.161 47.8249 287.1 45.7964 284.755 44.1396C282.926 42.8381 280.881 41.3169 278.671 39.5177L272.67 34.5527C271.168 33.2855 269.838 32.057 268.648 30.8414C268.263 30.3784 267.787 29.9961 267.249 29.719C266.66 29.4157 266.012 29.2464 265.35 29.2233C264.702 29.1872 264.054 29.2876 263.447 29.5181C262.859 29.7414 262.323 30.0816 261.872 30.5168C261.387 30.9533 261 31.4877 260.736 32.0846C260.484 32.6542 260.35 33.2678 260.341 33.8884C260.297 34.5014 260.372 35.1181 260.562 35.7042C260.777 36.3641 261.133 36.9699 261.606 37.4788Z" fill="white" stroke="white" stroke-width="6"/>
<path d="M298.057 69.6033L298.005 69.7016L297.96 69.8036C297.697 70.406 297.562 71.056 297.562 71.7128C297.562 72.3695 297.697 73.0195 297.96 73.622L297.976 73.6587L297.993 73.695C299.328 76.5447 301.199 79.1093 303.502 81.2473C304.466 82.1548 305.161 83.3151 305.508 84.5991C306.147 87.7461 307.67 90.6453 309.9 92.9521C311.019 94.1965 311.752 95.7454 312.006 97.4079L312.008 97.421C312.453 100.245 313.292 102.992 314.501 105.581L314.506 105.593L314.512 105.604C315.464 107.598 316.559 109.709 317.793 111.936L317.825 111.992L317.858 112.047C318.705 113.431 319.207 115.001 319.32 116.623C319.357 119.217 319.739 121.795 320.456 124.288C320.879 126.018 321.386 128.17 321.95 130.662C322.347 132.617 322.491 134.616 322.377 136.609L322.377 136.61C322.341 137.253 322.44 137.898 322.668 138.501C322.874 139.044 323.181 139.544 323.573 139.972C323.963 140.438 324.441 140.822 324.983 141.101C325.561 141.398 326.195 141.568 326.844 141.6C327.968 141.674 329.083 141.367 330.011 140.729L330.23 140.579L330.419 140.392C331.303 139.52 331.824 138.348 331.884 137.111C332.05 134.285 331.836 131.45 331.245 128.681L331.241 128.662L331.237 128.643C330.983 127.526 330.746 126.461 330.523 125.464C330.225 124.128 329.954 122.911 329.706 121.849L329.687 121.768L329.664 121.689C329.153 119.936 328.873 118.122 328.833 116.295L328.832 116.253L328.83 116.211C328.673 113.074 327.772 110.019 326.202 107.302C325.498 106.01 324.874 104.81 324.279 103.667C323.918 102.972 323.567 102.298 323.217 101.638C322.409 99.9064 321.865 98.062 321.602 96.1667L321.595 96.1112L321.585 96.056C320.966 92.5535 319.356 89.3027 316.945 86.6931L316.937 86.6847L316.929 86.6762C315.944 85.6261 315.265 84.3208 314.97 82.904L314.966 82.8852L314.962 82.8665C314.253 79.6696 312.582 76.7674 310.171 74.5562L310.161 74.5469C308.731 73.2474 307.568 71.6781 306.737 69.9271C306.462 69.3418 306.073 68.817 305.59 68.3845C305.163 68.0017 304.672 67.6983 304.138 67.4886C303.566 67.2252 302.942 67.0879 302.309 67.0879C301.711 67.0879 301.12 67.2106 300.574 67.4466C300.093 67.6119 299.643 67.8578 299.244 68.1741C298.752 68.5632 298.348 69.0502 298.057 69.6033Z" fill="white" stroke="white" stroke-width="6"/>
<path d="M223.727 76.6097L219.479 72.3866C192.362 96.6182 166.297 122.014 140.563 147.661L139.593 146.686V148.628C138.522 149.696 137.451 150.764 136.381 151.833L136.375 151.839L136.368 151.846C135.275 152.952 134.664 154.445 134.664 155.997C134.664 157.55 135.275 159.043 136.368 160.149L136.375 160.155L136.381 160.162C137.451 161.231 138.522 162.299 139.593 163.367V165.314L140.565 164.336C152.726 176.46 164.936 188.515 177.335 200.433C191.145 213.708 205.04 226.834 219.493 239.591L223.729 235.358C199.666 208.055 174.469 181.836 148.847 155.995C174.465 130.128 199.611 103.911 223.727 76.6097Z" fill="white" stroke="white" stroke-width="6"/>
</svg>
