<svg width="1737" height="1059" viewBox="0 0 1737 1059" fill="none" xmlns="http://www.w3.org/2000/svg">
<path d="M1017.74 979.568L1019.83 978.239H1019.55C1018.97 978.677 1018.35 979.089 1017.74 979.568Z" fill="black"/>
<path d="M1527.09 303.205C1536.72 292.877 1549.93 285.088 1565.47 280.489C1555.73 275.712 1545.53 271.935 1535.03 269.217C1532.78 268.619 1530.39 268.913 1528.36 270.038C1526.32 271.162 1524.8 273.031 1524.11 275.252C1521.67 283.253 1522.68 292.664 1527.09 303.205Z" fill="url(#paint0_linear_333_992)"/>
<path d="M1538.15 247.617C1538.33 248.817 1538.79 249.959 1539.48 250.956C1540.17 251.953 1541.08 252.78 1542.14 253.373C1554.53 260.379 1567.72 265.86 1581.43 269.695C1586.75 245.863 1603.44 226.656 1621.53 207.489L1624.55 204.219C1582.13 213.763 1553.8 226.098 1540.24 240.799C1539.4 241.705 1538.78 242.789 1538.42 243.97C1538.06 245.15 1537.96 246.397 1538.15 247.617Z" fill="url(#paint1_linear_333_992)"/>
<path d="M1535.2 217.736C1535.56 218.137 1536.02 218.443 1536.53 218.626C1537.04 218.809 1537.59 218.864 1538.12 218.787C1538.29 218.781 1538.45 218.759 1538.6 218.72C1540.19 218.335 1541.77 217.923 1543.32 217.497C1549.53 215.876 1555.5 214.254 1561.25 212.579C1562.45 212.22 1563.62 211.875 1564.78 211.556C1570.96 209.655 1576.88 207.794 1582.57 205.88C1584.47 205.242 1586.32 204.551 1588.18 203.939C1590.04 203.328 1591.6 202.743 1593.29 202.105L1595.71 201.241C1596.26 201.028 1596.86 200.816 1597.46 200.563C1598.66 200.138 1599.81 199.699 1600.97 199.234H1601.05C1601.91 198.875 1602.76 198.53 1603.64 198.224L1604.13 198.011L1607.88 196.536C1607.88 196.536 1607.96 196.536 1607.99 196.536C1608.39 196.39 1608.8 196.217 1609.18 196.044C1610.66 195.446 1612.13 194.848 1613.57 194.21C1613.85 194.117 1614.17 193.97 1614.49 193.864L1618.7 192.043C1618.79 192.037 1618.87 192.014 1618.95 191.977C1619.68 191.618 1620.46 191.299 1621.19 190.953C1621.92 190.607 1622.64 190.355 1623.34 190.036L1623.66 189.89L1624.99 189.265C1626.06 188.813 1627.11 188.308 1628.22 187.829C1627.65 187.51 1627.09 187.191 1626.57 186.833C1626.17 186.62 1625.83 186.381 1625.47 186.168L1623.79 184.839L1622.94 184.174C1622.7 183.989 1622.47 183.789 1622.25 183.576L1621.29 182.725C1620.69 182.167 1620.1 181.569 1619.54 180.971C1618.98 180.373 1618.59 179.987 1618.21 179.469C1617.82 178.95 1617.37 178.445 1616.99 177.953C1616.6 177.462 1616.41 177.183 1616.15 176.837C1615.88 176.491 1615.4 175.787 1615.05 175.215C1614.69 174.644 1614.42 174.205 1614.14 173.7C1613.86 173.301 1613.61 172.878 1613.4 172.437C1613.01 171.773 1612.65 171.108 1612.33 170.364C1612.02 169.619 1611.71 169.035 1611.43 168.37C1611.15 167.705 1610.97 167.2 1610.75 166.615C1610.69 166.477 1610.63 166.335 1610.58 166.19C1610.43 165.831 1610.34 165.459 1610.19 165.1C1609.56 163.185 1609.04 161.237 1608.63 159.265C1608.55 158.879 1608.48 158.494 1608.41 158.108C1608.35 157.723 1608.23 157.191 1608.16 156.7C1608.01 155.756 1607.88 154.839 1607.77 153.882C1607.77 153.443 1607.7 153.018 1607.67 152.552C1607.61 152.054 1607.57 151.553 1607.56 151.05C1606.83 151.542 1606.05 152.061 1605.29 152.592C1604.53 153.124 1603.81 153.642 1603.03 154.174C1601.59 155.251 1600.08 156.394 1598.58 157.577C1598.36 157.723 1598.19 157.896 1597.98 158.042C1597.77 158.188 1597.53 158.414 1597.27 158.6C1592.05 162.734 1586.43 167.586 1580.59 172.743C1579.82 173.447 1579.08 174.072 1578.32 174.817L1575.78 177.063C1574.45 178.259 1573.12 179.455 1571.79 180.612C1565.15 186.62 1558.36 192.867 1551.55 198.902C1546.1 203.753 1540.66 208.485 1535.28 212.911C1534.64 213.546 1534.27 214.406 1534.26 215.308C1534.24 216.209 1534.58 217.081 1535.2 217.736Z" fill="url(#paint2_linear_333_992)"/>
<path d="M562.598 115.428C562.973 117.115 562.757 118.879 561.986 120.426C556.583 129.044 549.57 136.54 541.331 142.504C534.302 147.337 526.759 151.376 518.841 154.547L518.322 154.826C512.32 157.562 507.191 161.905 503.502 167.373C498.724 174.254 493.255 180.628 487.179 186.394L487.073 186.793C481.553 191.594 476.53 196.937 472.079 202.743L455.584 223.878C450.141 231.061 445.092 238.533 440.458 246.262C436.004 253.307 432.124 260.699 428.854 268.366C424.99 276.74 421.485 284.361 418.34 291.228C414.592 299.171 409.954 306.663 404.516 313.559C404.059 314.234 403.449 314.791 402.735 315.184C402.021 315.577 401.223 315.794 400.409 315.819C399.642 316.034 398.836 316.068 398.054 315.918C397.272 315.768 396.535 315.439 395.903 314.955C395.23 314.492 394.676 313.878 394.283 313.163C393.891 312.447 393.672 311.65 393.643 310.834C393.446 309.995 393.433 309.124 393.606 308.279C393.778 307.435 394.131 306.638 394.64 305.943C399.448 299.834 403.546 293.199 406.855 286.164C409.992 279.306 413.497 271.689 417.369 263.315C420.882 255.13 425.047 247.24 429.824 239.722C434.718 231.623 440.043 223.791 445.774 216.261C451.729 208.623 457.228 201.578 462.27 195.127C467.231 188.737 472.82 182.859 478.951 177.582L478.552 177.462C484.11 172.228 489.116 166.438 493.493 160.182C498.539 152.68 505.642 146.791 513.949 143.222C521.139 140.342 527.994 136.687 534.392 132.322C541.162 127.312 546.918 121.06 551.353 113.9C551.725 113.166 552.266 112.532 552.932 112.049C553.597 111.566 554.368 111.248 555.181 111.122C556.723 110.681 558.375 110.852 559.793 111.6C561.145 112.511 562.137 113.865 562.598 115.428Z" fill="black"/>
<path d="M468.092 843.405C468.266 843.501 468.448 843.581 468.637 843.644L468.504 843.551C468.372 843.488 468.234 843.439 468.092 843.405Z" fill="black"/>
<path d="M1214.15 145.548C1213.31 145.743 1212.44 145.756 1211.59 145.586C1210.75 145.417 1209.95 145.068 1209.25 144.564C1201.28 139.8 1193.76 134.295 1186.82 128.122L1187.1 128.64C1178.51 121.852 1172.27 115.57 1168.37 109.792C1164.94 105.477 1159.77 101.959 1152.87 99.2383C1143.77 95.6977 1135.48 90.3586 1128.49 83.5404C1123.29 78.5686 1116.78 75.18 1109.72 73.7708C1101.75 72.666 1093.95 70.5488 1086.52 67.4704C1080.24 65.0778 1072.88 62.6542 1064.44 60.1996L1064.04 60.08C1053.75 57.3214 1044.29 52.0717 1036.51 44.7942C1035.84 44.3308 1035.29 43.717 1034.89 43.0016C1034.5 42.2862 1034.28 41.489 1034.25 40.6736C1034.2 39.8139 1034.33 38.9527 1034.64 38.148C1034.94 37.3433 1035.42 36.6136 1036.03 36.0082C1036.53 35.4313 1037.14 34.9668 1037.82 34.6458C1038.51 34.3248 1039.26 34.1548 1040.02 34.1473C1041.72 34.0127 1043.42 34.4834 1044.81 35.4765C1051.2 41.5024 1058.99 45.842 1067.48 48.1039C1076.66 50.7623 1084.55 53.3409 1091.14 55.8398L1091.54 55.9595C1097.96 58.5741 1104.7 60.3607 1111.57 61.2763L1111.97 61.3959C1121.47 63.1523 1130.24 67.6426 1137.22 74.3157C1143.03 80.0776 1149.95 84.5996 1157.56 87.6078C1166.94 91.3472 1173.87 96.221 1178.35 102.229L1178.75 102.349C1181.96 107.346 1187.27 112.778 1194.7 118.645C1201.23 124.361 1208.28 129.443 1215.77 133.824C1217.14 134.742 1218.15 136.117 1218.61 137.705C1219 139.393 1218.79 141.163 1218.03 142.716C1217.1 144.083 1215.73 145.085 1214.15 145.548Z" fill="black"/>
<path d="M1327.93 295.163C1327.05 295.182 1326.18 294.993 1325.39 294.612C1324.6 294.231 1323.91 293.668 1323.38 292.97C1322.81 292.432 1322.39 291.758 1322.16 291.01C1321.92 290.263 1321.89 289.468 1322.05 288.703C1322.42 280.577 1320.55 274.13 1316.44 269.363C1310.81 263.408 1305.1 257.289 1299.31 251.007C1292.58 244.316 1286.45 237.049 1280.99 229.288C1275.21 221.312 1270.44 214.454 1266.66 208.712L1266.78 208.313C1262.48 202.996 1257.77 196.882 1252.67 189.97C1247.56 183.058 1242.76 176.771 1238.27 171.109L1238.16 171.507C1232.46 165.396 1226.31 159.718 1219.77 154.52C1219.04 153.971 1218.44 153.275 1218.01 152.478C1217.57 151.681 1217.3 150.801 1217.23 149.894C1217.12 149.111 1217.18 148.312 1217.41 147.555C1217.64 146.798 1218.03 146.099 1218.56 145.508C1219.73 144.237 1221.34 143.469 1223.06 143.368C1223.85 143.261 1224.64 143.324 1225.4 143.553C1226.15 143.783 1226.85 144.173 1227.44 144.697C1234.57 150.282 1241.28 156.387 1247.51 162.96L1247.91 163.08C1252.47 168.929 1257.34 175.389 1262.53 182.46C1267.71 189.531 1272.38 195.778 1276.52 201.202L1276.92 201.308C1280.59 207.068 1285.37 213.927 1291.25 221.884C1296.3 229.177 1301.97 236.021 1308.2 242.34C1314 248.632 1319.72 254.751 1325.33 260.697C1331.93 267.662 1334.93 277.17 1334.33 289.221C1334.1 290.928 1333.34 292.518 1332.15 293.767C1331.58 294.282 1330.91 294.672 1330.19 294.913C1329.46 295.153 1328.69 295.238 1327.93 295.163Z" fill="black"/>
<path d="M1363.75 377.826C1362.82 378.671 1362.16 379.779 1361.87 381.002C1361.58 382.226 1361.66 383.51 1362.11 384.684C1363.55 388.353 1365.02 392.044 1366.54 395.757L1366.92 395.863C1369.79 404.481 1372.15 413.26 1374 422.155L1374.13 421.769C1375.67 431.459 1376.79 439.448 1377.56 445.695L1377.66 445.309C1378.19 452.659 1379.4 459.944 1381.28 467.068C1382.65 474.792 1383.27 482.632 1383.13 490.476L1383.23 490.09C1382.75 498.704 1382.7 507.337 1383.09 515.956C1383.07 516.825 1383.25 517.686 1383.62 518.47C1383.99 519.255 1384.54 519.942 1385.23 520.476C1385.76 521.068 1386.42 521.528 1387.16 521.819C1387.9 522.11 1388.7 522.223 1389.49 522.15C1391.21 522.001 1392.82 521.231 1394.01 519.984C1394.99 518.747 1395.44 517.177 1395.28 515.611C1394.96 508.008 1395.06 499.66 1395.58 490.662C1395.79 481.94 1395.14 473.219 1393.65 464.623L1393.37 464.091C1391.64 457.694 1390.5 451.147 1389.99 444.538L1390.09 444.153C1389.28 437.813 1388.06 429.705 1386.38 419.762L1386 419.616C1384.05 410.058 1381.45 400.646 1378.2 391.45L1378.3 391.065C1376.71 387.423 1375.18 383.807 1373.73 380.192C1373.35 379.258 1372.76 378.429 1371.99 377.776C1371.23 377.124 1370.31 376.666 1369.33 376.444C1368.35 376.222 1367.33 376.241 1366.36 376.501C1365.38 376.76 1364.49 377.251 1363.75 377.932V377.826Z" fill="black"/>
<path d="M1341 336.634C1341.35 336.501 1341.68 336.355 1342 336.195C1342.2 336.089 1342.41 335.996 1342.61 335.876C1343.13 335.584 1343.65 335.278 1344.15 334.959L1345.15 334.308C1343.82 335.078 1342.41 335.823 1341 336.634Z" fill="black"/>
<path d="M1345.04 327.941C1346.34 327.193 1347.33 326.001 1347.82 324.584C1348.31 323.167 1348.27 321.621 1347.7 320.232C1345.47 314.622 1343.3 308.162 1341.19 300.852C1340.61 299.201 1339.48 297.796 1338 296.864C1336.57 296.201 1334.96 296.028 1333.41 296.372C1332.63 296.658 1331.91 297.096 1331.3 297.662C1330.69 298.228 1330.2 298.91 1329.85 299.669C1329.39 300.336 1329.11 301.11 1329.03 301.917C1328.95 302.723 1329.08 303.537 1329.4 304.281C1331.55 311.999 1333.77 318.836 1336.05 324.791C1336.37 325.626 1336.87 326.38 1337.52 327.003C1338.16 327.625 1338.94 328.101 1339.78 328.398C1340.63 328.694 1341.53 328.805 1342.42 328.721C1343.31 328.638 1344.18 328.363 1344.95 327.914L1345.04 327.941Z" fill="black"/>
<path d="M1349.22 729.294C1348.4 729.031 1347.64 728.607 1346.99 728.045C1346.33 727.483 1345.8 726.796 1345.42 726.024C1345.03 725.284 1344.8 724.472 1344.75 723.638C1344.69 722.805 1344.81 721.969 1345.1 721.185C1347.54 713.687 1349.6 706.07 1351.28 698.363C1352.97 689.275 1356.37 680.592 1361.3 672.776C1365.26 665.535 1368.61 657.977 1371.31 650.179C1373.91 643.24 1375.31 635.909 1375.46 628.5L1375.34 628.899C1374.85 620.392 1375.44 611.858 1377.09 603.498C1378.32 595.248 1379.33 587.335 1380.1 579.758L1380.38 580.277C1380.59 572.869 1381.25 564.136 1382.37 554.078L1382.65 554.597C1383.29 546.731 1383.42 538.832 1383.03 530.95C1382.98 530.09 1383.11 529.229 1383.42 528.424C1383.73 527.62 1384.2 526.89 1384.81 526.285C1385.31 525.708 1385.92 525.243 1386.61 524.922C1387.3 524.601 1388.04 524.431 1388.8 524.424C1390.5 524.288 1392.19 524.759 1393.57 525.753C1394.66 526.968 1395.28 528.526 1395.33 530.153C1395.74 538.602 1395.59 547.071 1394.88 555.5C1393.73 565.248 1393.01 573.666 1392.72 580.755L1392.6 581.154C1391.72 588.89 1390.64 597.069 1389.37 605.691C1387.86 613.086 1387.28 620.641 1387.63 628.181L1388.03 628.301C1387.91 637.256 1386.22 646.12 1383.02 654.486C1380.08 662.94 1376.41 671.119 1372.04 678.93L1371.93 679.329C1367.81 685.817 1364.98 693.037 1363.59 700.596L1363.47 700.995C1361.47 709.856 1359.29 717.862 1356.93 725.013C1356.67 725.833 1356.25 726.592 1355.69 727.245C1355.13 727.899 1354.44 728.432 1353.67 728.815C1353 729.202 1352.26 729.444 1351.5 729.526C1350.73 729.609 1349.95 729.53 1349.22 729.294Z" fill="black"/>
<path d="M1024.47 41.7236C1016.63 39.4551 1008.74 36.8765 1000.8 33.9877C993.484 31.6208 985.879 30.2789 978.199 30.0001C969.505 30.0522 960.869 28.5673 952.692 25.6137C945.585 23.0894 938.136 21.6597 930.6 21.3735C920.419 21.0279 912.186 19.6456 905.904 17.2264L905.505 17.1068C899.674 15.3966 891.225 15.2504 880.157 16.6682C879.379 16.8584 878.568 16.8754 877.782 16.718C876.996 16.5606 876.255 16.2326 875.609 15.7572C874.964 15.2819 874.431 14.6707 874.048 13.9668C873.665 13.263 873.441 12.4836 873.391 11.6837C873.19 10.8437 873.173 9.96993 873.343 9.12298C873.513 8.27603 873.865 7.47618 874.375 6.7789C875.444 5.56932 876.901 4.77024 878.496 4.51926C892.302 2.6318 902.723 2.92423 909.758 5.39654L910.157 5.50286C915.474 7.54983 922.479 8.71953 931.172 9.01195C939.97 9.29025 948.67 10.9406 956.958 13.9034C963.825 16.353 971.068 17.5768 978.359 17.5189C987.436 17.8427 996.424 19.4309 1005.06 22.2375C1012.75 25.0377 1020.37 27.541 1027.92 29.7475C1029.55 30.1894 1030.97 31.204 1031.91 32.6053C1032.58 34.1345 1032.7 35.8503 1032.24 37.4569C1032.05 38.1991 1031.71 38.8937 1031.23 39.4973C1030.76 40.101 1030.17 40.6009 1029.49 40.966C1028.75 41.4319 1027.92 41.7397 1027.06 41.8701C1026.2 42.0005 1025.31 41.9506 1024.47 41.7236Z" fill="black"/>
<path d="M730.13 36.6861C723.821 42.8891 715.531 45.6627 705.261 45.0069C697.622 45.0069 690.205 47.7495 683.01 53.2347C673.785 60.2263 665.429 64.7146 657.941 66.6995L657.822 67.0983C650.318 69.2219 643.081 72.1918 636.249 75.9507L635.85 75.8311C627.52 80.0314 620.232 83.8196 613.985 87.1958C607.497 90.4045 601.59 94.6721 596.506 99.8232C589.753 106.717 580.98 111.658 570.187 114.644C569.42 114.859 568.613 114.891 567.83 114.739C567.048 114.586 566.312 114.254 565.681 113.767C564.899 113.469 564.197 112.995 563.627 112.382C563.058 111.769 562.637 111.033 562.398 110.231C562.198 109.391 562.182 108.517 562.351 107.67C562.521 106.824 562.873 106.024 563.382 105.326C563.704 104.621 564.178 103.996 564.772 103.498C565.365 102.999 566.061 102.638 566.811 102.442C574.724 100.481 581.987 96.4851 587.879 90.8511L587.773 91.2499C593.678 85.0739 600.569 79.9218 608.163 76.0039C614.534 72.6632 621.955 68.9148 630.427 64.7589C638.037 60.5662 646.099 57.2529 654.459 54.8829C660.733 53.1106 667.755 49.2471 675.527 43.2923C685.274 35.8665 695.239 32.2821 705.42 32.539L705.819 32.6454C712.226 33.0973 717.454 31.4491 721.504 27.7007C722.872 26.6286 724.564 26.0522 726.302 26.0658C727.888 26.2367 729.36 26.9728 730.449 28.1394C731.479 29.3803 732.089 30.9161 732.19 32.5257C732.137 33.3206 731.928 34.0971 731.574 34.811C731.221 35.5249 730.73 36.1621 730.13 36.6861Z" fill="black"/>
<path d="M864.539 16.9071C855.691 16.7772 846.847 17.3908 838.101 18.7414C829.868 20.3714 821.445 20.819 813.086 20.0706L813.205 19.6718C806.636 19.4183 800.092 20.6164 794.038 23.1809L794.437 23.2873C786.276 26.4596 777.512 29.3883 768.145 32.0733L768.544 32.1929C757.99 35.7375 747.999 36.4375 738.571 34.2931C737.747 34.1074 736.969 33.7575 736.284 33.2642C735.599 32.7708 735.02 32.1442 734.583 31.422C734.13 30.7641 733.821 30.0178 733.676 29.232C733.532 28.4463 733.556 27.6388 733.746 26.8628C733.928 26.038 734.277 25.2591 734.771 24.5735C735.264 23.888 735.892 23.3101 736.617 22.8752C737.277 22.4279 738.024 22.1226 738.808 21.9785C739.593 21.8343 740.399 21.8545 741.176 22.0378C749.004 23.5781 757.104 22.9437 764.596 20.2035C773.458 17.5451 781.787 14.6342 789.585 11.4707C797.327 8.22103 805.717 6.81059 814.096 7.35013L814.495 7.46977C821.671 8.1203 828.903 7.74885 835.974 6.36654C845.455 4.86208 855.047 4.17721 864.645 4.31955C866.366 4.50279 867.971 5.27251 869.191 6.49944C870.261 7.72138 870.877 9.27567 870.932 10.8991C870.804 12.4947 870.066 13.9797 868.872 15.0462C868.349 15.6778 867.684 16.1759 866.93 16.4994C866.177 16.823 865.357 16.9627 864.539 16.9071Z" fill="black"/>
<path d="M349.846 542.101C351.568 542.287 353.174 543.062 354.391 544.295C355.467 545.509 356.088 547.059 356.146 548.681C355.8 558.26 355.738 566.882 355.96 574.547L355.84 574.946C355.588 581.706 356.883 588.435 359.628 594.618L359.522 595.017C362.406 602.697 364.435 610.672 365.57 618.796C366.527 626.701 368.051 635.345 370.142 644.729L370.541 644.849C372.216 654.18 373.988 662.465 375.858 669.705C376.245 671.393 376.038 673.162 375.273 674.716C374.353 676.053 373.002 677.034 371.445 677.494C370.605 677.688 369.732 677.701 368.886 677.532C368.041 677.362 367.241 677.014 366.54 676.51C365.81 676.136 365.179 675.594 364.698 674.928C364.218 674.263 363.901 673.493 363.776 672.682C361.826 665.292 359.961 656.834 358.18 647.308C356.009 637.604 354.431 628.655 353.448 620.458C352.357 613.339 350.631 606.333 348.29 599.523L347.892 599.416C344.705 591.605 343.167 583.22 343.372 574.786C343.186 567.024 343.279 558.269 343.651 548.521C343.601 547.661 343.735 546.799 344.044 545.995C344.354 545.19 344.832 544.461 345.446 543.856C346.664 542.777 348.22 542.156 349.846 542.101Z" fill="black"/>
<path d="M372.695 359.163C376.311 354.434 379.623 349.479 382.611 344.329C385.945 337.969 387.567 330.851 387.316 323.674C387.21 322.879 387.307 322.07 387.601 321.323C387.894 320.577 388.372 319.917 388.991 319.407C389.551 318.755 390.241 318.227 391.017 317.856C391.793 317.485 392.637 317.28 393.497 317.254C395.067 317.318 396.569 317.907 397.764 318.928C398.919 320.178 399.665 321.75 399.904 323.434C400.227 332.874 397.966 342.222 393.364 350.47C390.099 356.126 386.486 361.573 382.544 366.78C380.355 370.227 378.769 376.678 377.786 386.133C377.688 386.959 377.454 387.762 377.094 388.512C375.012 395.787 372.912 403.528 370.794 411.733C368.604 419.84 367.347 428.171 367.046 436.563C366.447 443.858 366.34 451.185 366.727 458.495L367.125 458.601C366.927 467.055 366.207 475.49 364.972 483.856C363.59 493.603 362.07 502.806 360.413 511.463C358.641 520.661 357.072 528.552 355.708 535.136C355.593 535.875 355.325 536.581 354.919 537.208C354.514 537.836 353.981 538.371 353.355 538.778C352.019 539.79 350.338 540.234 348.676 540.014C347.844 539.875 347.056 539.542 346.375 539.044C345.694 538.545 345.139 537.895 344.755 537.143C344.207 536.511 343.811 535.762 343.597 534.954C343.382 534.145 343.356 533.298 343.519 532.478C344.821 526 346.354 518.238 348.118 509.19C349.731 500.657 351.21 491.587 352.557 481.982C353.709 474.316 354.401 466.588 354.631 458.84L354.511 459.239C354.071 451.493 354.16 443.725 354.777 435.991C355.065 426.76 356.403 417.591 358.765 408.663C360.936 400.271 363.116 392.269 365.304 384.657C366.705 372.057 369.168 363.558 372.695 359.163Z" fill="black"/>
<path d="M368.122 683.023C368.364 682.252 368.775 681.544 369.324 680.951C369.874 680.358 370.548 679.894 371.299 679.594C372.029 679.199 372.836 678.968 373.665 678.915C374.493 678.862 375.323 678.99 376.098 679.288C377.59 679.702 378.859 680.685 379.633 682.027C382.744 688.247 386.705 695.917 391.596 704.902L391.45 705.327C392.779 707.986 394.002 710.644 395.158 713.156C396.315 715.669 397.365 718.168 398.375 720.693C400.01 724.867 401.512 729.001 402.801 733.188V733.267C404.508 740.607 407.078 747.719 410.457 754.455C410.457 754.734 410.564 754.907 410.776 754.947C413.57 761.639 416.895 768.098 420.719 774.26L421.091 774.393C421.835 775.842 422.62 777.344 423.404 778.846L423.989 777.716C424.135 777.463 424.281 777.224 424.401 776.971C476.532 681.189 543.63 657.715 634.508 652.718C635.016 652.701 635.509 652.539 635.928 652.251C636.347 651.963 636.674 651.561 636.872 651.092C637.069 650.623 637.128 650.108 637.041 649.607C636.954 649.106 636.725 648.64 636.382 648.265C619.235 628.633 602.992 608.495 582.616 585.447C564.126 564.445 560.391 537.024 562.784 509.23C564.246 491.951 570.015 479.177 585.46 475.788H585.766C595.026 474.65 604.349 474.091 613.679 474.113C665.97 474.113 709.568 485.318 739.847 509.403C740.324 509.787 740.912 510.009 741.524 510.035C742.136 510.062 742.741 509.891 743.249 509.549C748.417 506.063 752.65 501.361 755.577 495.857C758.504 490.353 760.036 484.215 760.037 477.981C760.037 476.505 760.104 475.03 760.144 473.594C760.465 467.971 761.419 462.402 762.988 456.993C765.812 447.702 766.756 437.942 765.766 428.282C764.966 421.49 765.609 414.605 767.654 408.078C768.47 405.547 769.506 403.092 770.751 400.741C772.975 396.538 775.835 392.705 779.231 389.376C779.544 389.078 779.78 388.708 779.918 388.298C780.056 387.888 780.092 387.451 780.022 387.024C779.953 386.597 779.78 386.193 779.52 385.848C779.259 385.503 778.918 385.227 778.526 385.043C772.409 381.964 767.406 377.051 764.216 370.991C761.027 364.931 759.809 358.026 760.735 351.24C761.66 344.454 764.682 338.127 769.377 333.142C774.073 328.157 780.209 324.763 786.927 323.435C816.542 316.297 830.791 335.464 871.158 335.464C912.178 335.464 920.844 314.715 955.257 323.82L956.081 324.033C959.198 324.924 962.167 326.267 964.894 328.02C969.798 331.135 973.788 335.495 976.457 340.656C979.126 345.816 980.378 351.592 980.086 357.395C979.795 363.197 977.969 368.818 974.795 373.685C971.622 378.551 967.215 382.489 962.023 385.096C961.632 385.281 961.292 385.558 961.033 385.904C960.774 386.25 960.602 386.654 960.534 387.08C960.466 387.507 960.503 387.944 960.642 388.354C960.781 388.763 961.018 389.132 961.331 389.429C964.724 392.772 967.592 396.608 969.838 400.807C971.047 403.17 972.07 405.623 972.896 408.145C974.97 414.697 975.618 421.618 974.796 428.441C973.802 438.079 974.746 447.819 977.574 457.086C979.134 462.488 980.083 468.048 980.406 473.661C980.472 475.096 980.512 476.572 980.512 478.047C980.52 484.636 982.239 491.11 985.501 496.835C988.763 502.56 993.456 507.34 999.121 510.706C999.838 511.105 1000.56 511.543 1001.26 512.035C1001.71 512.312 1002.23 512.448 1002.76 512.427C1003.29 512.406 1003.8 512.228 1004.22 511.915C1019.75 500.883 1040.72 492.363 1064.15 484.879C1082.58 477.928 1108.91 470.87 1148.95 463.612C1160.08 461.758 1170.19 456.017 1177.49 447.409C1213.61 403.12 1275.85 363.311 1341.04 336.66C1341.39 336.501 1341.7 336.368 1342 336.195C1342.2 336.088 1342.41 335.995 1342.61 335.876C1343.13 335.583 1343.65 335.278 1344.15 334.959L1345.18 334.321C1345.63 334.042 1346.08 333.802 1346.51 333.523C1348.3 332.526 1350.06 331.516 1351.82 330.493C1353.59 329.469 1355.65 328.313 1357.55 327.263C1397.15 304.533 1429.91 284.303 1442.26 266.545L1442.33 266.452C1480.76 217.577 1560.51 175.973 1597.93 128.441C1598.04 128.294 1598.15 128.139 1598.24 127.975C1599.28 125.914 1599.81 123.636 1599.79 121.329C1599.78 118.319 1600.38 115.338 1601.54 112.56C1602.7 109.782 1604.4 107.263 1606.55 105.149C1608.69 103.035 1611.23 101.368 1614.03 100.246C1616.82 99.1244 1619.81 98.5692 1622.82 98.6133C1635.29 98.7861 1645.92 110.191 1645.25 122.698C1644.9 128.186 1642.58 133.365 1638.72 137.275C1634.85 141.185 1629.7 143.562 1624.22 143.966C1620.81 143.966 1616.64 145.574 1611.9 148.272H1611.79C1611.28 148.563 1610.89 149.011 1610.66 149.55C1610.43 150.088 1610.39 150.685 1610.54 151.25C1611.02 153.217 1611.54 155.131 1612.13 157.032C1615.17 166.908 1620.68 176.106 1629.71 181.303C1631.52 182.415 1633.42 183.375 1635.4 184.174C1635.4 184.174 1635.4 184.174 1635.5 184.108C1635.88 183.935 1636.24 183.735 1636.58 183.509C1637.84 182.885 1639.08 182.18 1640.27 181.582C1643.61 179.801 1646.11 176.772 1647.23 173.155C1648.78 168.145 1651.9 163.766 1656.13 160.662C1660.36 157.558 1665.47 155.892 1670.71 155.909C1675.96 155.926 1681.06 157.625 1685.27 160.757C1689.48 163.889 1692.57 168.288 1694.09 173.308C1695.61 178.327 1695.48 183.703 1693.72 188.644C1691.96 193.585 1688.67 197.831 1684.31 200.758C1679.96 203.685 1674.78 205.139 1669.54 204.905C1664.3 204.671 1659.28 202.763 1655.2 199.46C1654.08 198.597 1652.79 197.994 1651.41 197.695C1650.03 197.396 1648.6 197.409 1647.23 197.732C1643.57 198.569 1640.03 199.42 1636.59 200.284C1635.95 200.47 1635.33 200.576 1634.76 200.749C1634.39 200.856 1633.96 200.922 1633.57 201.028C1633.43 201.135 1633.28 201.281 1633.15 201.387C1622.86 210.027 1613.42 219.677 1606.35 231.121C1598.26 243.868 1591.65 257.918 1589.07 272.659C1589.23 272.685 1589.38 272.735 1589.53 272.805C1591.96 273.302 1594.5 272.969 1596.73 271.861C1599.31 270.594 1602.16 269.943 1605.04 269.961C1608.55 269.959 1611.99 270.917 1614.99 272.73C1617.99 274.543 1620.44 277.142 1622.08 280.247C1623.71 283.352 1624.47 286.844 1624.26 290.346C1624.05 293.848 1622.89 297.227 1620.9 300.117C1618.91 303.007 1616.17 305.299 1612.97 306.745C1609.78 308.19 1606.25 308.734 1602.76 308.319C1599.28 307.903 1595.98 306.543 1593.21 304.386C1590.44 302.229 1588.32 299.357 1587.07 296.08C1585.72 292.754 1583.38 289.93 1580.35 287.998L1578.33 286.669C1577.76 286.295 1577.07 286.157 1576.39 286.283C1559.67 289.407 1543.38 295.588 1529.87 305.836C1529.32 306.252 1528.95 306.859 1528.83 307.536C1528.71 308.214 1528.85 308.911 1529.22 309.491C1530.66 311.736 1532.45 313.73 1534.54 315.393C1536.6 317.075 1538.21 319.255 1539.2 321.727C1540.2 324.2 1540.55 326.885 1540.22 329.53C1539.9 332.175 1538.9 334.693 1537.34 336.849C1535.77 339.006 1533.68 340.729 1531.27 341.857C1519.57 347.373 1507.82 337.112 1508.9 326C1508.98 325.403 1509.1 324.813 1509.25 324.232C1510.58 318.197 1511.78 303.417 1508.87 297.927C1498.08 277.883 1484.39 283.864 1459.98 297.927L1459.76 298.047C1419.97 316.363 1395.59 338.774 1368.73 363.723C1368.45 364.002 1368.15 364.241 1367.85 364.52C1364.88 367.298 1361.89 370.076 1358.83 372.881C1358.54 373.12 1358.27 373.378 1358.02 373.652C1327.13 407.639 1291.56 445.349 1232.4 470.564C1220.53 475.588 1209.19 482.925 1201.32 493.16C1175.27 527.321 1114.92 577.392 1069.9 589.607C1069.53 589.703 1069.19 589.877 1068.9 590.117C1068.6 590.357 1068.36 590.657 1068.19 590.997C1068.03 591.337 1067.93 591.709 1067.92 592.088C1067.91 592.468 1067.97 592.845 1068.12 593.196C1070.95 600.491 1073.39 607.937 1075.4 615.5L1075.91 615.593C1163.77 633.497 1247.1 691.982 1310.46 780.414C1310.61 780.564 1310.73 780.728 1310.84 780.906C1310.91 780.972 1310.95 781.052 1311.06 781.172C1311.55 781.836 1312 782.501 1312.48 783.139L1313.92 785.133L1314.14 785.492C1314.14 785.492 1314.14 785.492 1314.14 785.571L1314.73 786.409C1315.5 784.8 1316.31 783.245 1317.16 781.796C1318.01 780.348 1318.66 779.258 1319.43 778.061C1322.67 772.496 1326.52 765.7 1330.98 757.671C1334.66 750.656 1337.41 743.195 1339.17 735.474C1339.32 734.644 1339.64 733.857 1340.13 733.168C1340.61 732.478 1341.24 731.904 1341.97 731.486C1342.64 731.022 1343.39 730.707 1344.18 730.563C1344.98 730.418 1345.79 730.448 1346.57 730.649C1348.07 730.923 1349.42 731.702 1350.42 732.855C1350.57 733.027 1350.69 733.219 1350.79 733.427C1351.51 734.869 1351.71 736.52 1351.35 738.092C1349.31 746.897 1346.11 755.39 1341.83 763.347C1337.24 771.677 1333.32 778.726 1330.07 784.495C1326.15 790.703 1323.09 797.409 1320.96 804.433L1320.83 804.845C1317.75 813.668 1312.64 821.642 1305.9 828.119C1299.85 834.14 1294.54 839.776 1289.72 845.066C1287.59 847.431 1285.62 849.946 1283.84 852.59C1282.32 854.889 1280.88 857.255 1279.53 859.834C1278.69 861.362 1277.91 862.984 1277.12 864.685C1275.15 868.664 1272.68 872.379 1269.79 875.744C1269.44 876.225 1269.04 876.67 1268.6 877.074C1267.67 878.137 1266.66 879.174 1265.61 880.157C1265.11 880.636 1264.62 881.075 1264.1 881.487C1261.72 883.575 1259.16 885.439 1256.44 887.056C1253.11 889.128 1250.07 891.631 1247.4 894.499L1247.12 894.779C1246.36 895.57 1245.67 896.419 1245.04 897.317C1244.66 897.809 1244.32 898.274 1243.97 898.779C1243.8 899.045 1243.6 899.311 1243.44 899.577C1243.14 900.122 1242.84 900.654 1242.58 901.185C1242.45 901.403 1242.33 901.629 1242.23 901.863L1242.1 902.275C1241.87 902.754 1241.63 903.192 1241.38 903.605C1238.49 908.602 1234.59 912.94 1229.92 916.338C1228.43 917.47 1226.87 918.526 1225.27 919.502C1224.34 920.073 1223.38 920.632 1222.4 921.163C1217.41 923.623 1212.75 926.705 1208.54 930.335C1206.56 932.027 1204.71 933.866 1203.01 935.838C1202.54 936.307 1202.03 936.717 1201.46 937.06C1201.36 937.137 1201.24 937.204 1201.12 937.26C1201.12 937.26 1201.04 937.26 1201 937.326L1200.38 937.858C1199.43 938.655 1198.21 939.546 1196.84 940.516C1195.47 941.487 1194.18 942.404 1192.77 943.427C1192.51 943.627 1192.29 943.87 1192.12 944.145C1191.73 944.727 1191.22 945.221 1190.63 945.594C1190.45 945.753 1190.25 945.9 1190.02 946.072C1188.93 946.91 1187.77 947.787 1186.55 948.731C1185.73 949.356 1184.86 949.98 1183.97 950.605C1183.65 950.818 1183.33 951.07 1183 951.296C1180.26 953.29 1177.22 955.377 1173.96 957.65C1172.5 958.62 1171 959.657 1169.44 960.68C1169.11 960.893 1168.81 961.066 1168.49 961.239C1162.08 965.399 1155.47 969.228 1148.67 972.71C1146.16 974.012 1143.74 975.472 1141.41 977.083C1141.16 977.269 1140.89 977.455 1140.6 977.641L1139.98 978.08L1139.26 978.558C1138.91 978.797 1138.54 979.09 1138.17 979.329C1137.8 979.568 1137.68 979.688 1137.41 979.861C1136.85 980.273 1136.29 980.711 1135.7 981.11C1135.53 981.266 1135.35 981.404 1135.15 981.522C1134.18 982.2 1133.21 982.945 1132.2 983.729C1132.2 983.729 1132.13 983.729 1132.11 983.729C1131.02 984.553 1129.89 985.337 1128.8 986.055C1125.21 988.505 1121.46 990.699 1117.57 992.621L1117.14 992.821C1114.38 994.199 1111.53 995.372 1108.59 996.33C1105.68 997.34 1102.65 998.443 1099.45 999.613L1095.33 1001.18C1093.71 1001.81 1092.1 1002.51 1090.4 1003.12C1089.48 1003.45 1088.58 1003.8 1087.67 1004.17C1086.5 1004.65 1085.28 1005.14 1084.02 1005.69C1083.66 1005.81 1083.34 1005.97 1082.98 1006.1L1082.62 1006.23C1081.53 1006.71 1080.49 1007.15 1079.46 1007.56C1078.04 1008.15 1076.73 1008.73 1075.47 1009.3C1074.51 1009.69 1073.53 1010.1 1072.63 1010.51C1072.26 1010.64 1071.9 1010.8 1071.56 1010.99L1070.42 1011.46L1065.79 1013.42L1062.74 1014.75C1062.16 1014.98 1061.65 1015.23 1061.11 1015.43C1060.45 1015.76 1059.79 1016.03 1059.24 1016.28L1058.02 1016.85L1057.65 1017.04C1056.71 1017.42 1055.81 1017.84 1054.89 1018.25C1053.22 1018.98 1051.64 1019.72 1050.07 1020.51C1048.17 1021.41 1046.31 1022.34 1044.54 1023.3C1042.77 1024.26 1041.03 1025.17 1039.38 1026.14C1038.48 1026.75 1037.43 1027.11 1036.34 1027.17C1034.32 1028.02 1031.91 1028.95 1029.6 1029.89L1024.5 1032.05C1023.34 1032.18 1014.41 1031.67 1013.33 1031.86C1012.61 1031.94 1011.92 1032.07 1011.27 1032.18H1011.18L1010.19 1032.36C1009.99 1032.4 1009.8 1032.45 1009.61 1032.52C1007.95 1033.19 1006.38 1034.05 1004.92 1035.08C996.515 1040.39 986.586 1043.21 975.195 1043.7C965.784 1044.05 958.593 1045.58 953.596 1048.23L953.463 1048.65C946.524 1052.19 937.144 1053.79 925.323 1053.45C916.922 1053.22 908.528 1054.12 900.361 1056.1L900.481 1055.69C899.258 1056.1 898.048 1056.45 896.825 1056.76C890.33 1058.51 883.542 1058.9 876.887 1057.91C870.467 1056.89 862.492 1056 852.962 1055.25C852.013 1055.27 851.075 1055.05 850.237 1054.6C850.06 1054.62 849.882 1054.62 849.705 1054.6H849.094C848.655 1054.54 848.243 1054.48 847.765 1054.38C845.465 1053.94 842.86 1053.41 840.281 1052.9C838.367 1052.55 836.546 1052.25 834.805 1051.89C833.755 1051.4 832.745 1050.92 831.761 1050.56C831.096 1050.3 830.432 1050 829.82 1049.71C829.82 1049.71 829.82 1049.64 829.754 1049.71C824.207 1048.65 818.593 1047.97 812.953 1047.68C804.912 1047.56 796.887 1046.94 788.921 1045.84C781.238 1044.69 774.114 1043.95 767.654 1043.6C760.042 1043.76 750.861 1041.35 740.113 1036.39C731.926 1032.67 723.341 1029.91 714.525 1028.14C704.889 1026.28 696.98 1022.97 690.733 1018.21L691.145 1018.3C684.913 1014.59 678.065 1012.03 670.928 1010.74C666.19 1009.97 661.588 1008.53 657.263 1006.44C654.503 1005.15 651.873 1003.6 649.408 1001.81C647.876 1000.65 646.407 999.421 645.008 998.111L644.237 997.406L644.649 997.513C641.046 994.23 636.692 991.884 631.969 990.68C630.096 990.233 628.178 990.005 626.253 990.003C625.958 990.043 625.658 990.043 625.363 990.003C624.65 989.977 623.95 989.809 623.304 989.508C622.657 989.206 622.078 988.778 621.601 988.248C619.288 987.092 616.63 985.669 613.998 984.367L608.442 981.615H608.375C607.405 980.725 606.435 979.941 605.491 979.183C604.866 978.638 604.268 978.146 603.67 977.668C603.67 977.668 603.67 977.668 603.604 977.668C601.477 976.112 599.35 974.504 597.29 972.75C596.798 972.337 596.293 971.925 595.828 971.5L594.751 970.583L594.685 970.516L593.448 969.427C592.438 968.523 591.468 967.592 590.484 966.622C590.126 966.316 589.78 965.984 589.448 965.652L589.82 965.785C588.198 964.376 586.497 963.06 584.782 961.797C583.453 960.8 582.057 959.856 580.608 958.952C580.422 958.819 580.196 958.7 580.01 958.58C579.824 958.461 579.771 958.434 579.638 958.328C579.027 957.956 578.429 957.583 577.804 957.238C577.684 957.131 577.538 957.052 577.418 956.945L575.052 955.616C574.693 955.457 574.348 955.271 573.976 955.084C573.873 955.009 573.761 954.947 573.643 954.898C573.643 954.898 573.55 954.898 573.524 954.898C573.497 954.898 573.417 954.898 573.378 954.898C573.298 954.838 573.208 954.793 573.112 954.765L571.955 954.194C571.898 954.199 571.84 954.199 571.783 954.194C571.171 953.888 570.453 953.582 569.829 953.29C569.778 953.242 569.712 953.214 569.643 953.21C569.489 953.12 569.329 953.04 569.164 952.971C567.635 952.36 566.133 951.735 564.738 951.084C564.259 950.844 563.781 950.645 563.409 950.379L563.183 950.299C562.763 950.101 562.355 949.879 561.96 949.635C561.96 949.635 561.893 949.635 561.88 949.635C560.644 948.997 559.474 948.306 558.384 947.614C556.88 946.677 555.441 945.637 554.078 944.504C552.58 943.3 551.192 941.966 549.93 940.516C549.824 940.437 549.758 940.33 549.665 940.251C548.754 939.262 547.911 938.214 547.139 937.114L547.259 936.675C543.822 932.754 539.59 929.609 534.844 927.45C533.993 927.038 533.129 926.666 532.186 926.307C531.242 925.948 530.298 925.536 529.394 925.111C525.306 923.335 521.394 921.176 517.711 918.664C516.333 917.768 515.002 916.8 513.723 915.767C513.528 915.637 513.342 915.495 513.165 915.341C512.672 914.981 512.206 914.585 511.769 914.158C511.588 914.042 511.423 913.904 511.277 913.746C510.573 913.161 509.948 912.563 509.27 911.925C508.932 911.673 508.608 911.403 508.3 911.114C505.364 908.635 502.659 905.894 500.218 902.927C500.119 902.797 500.013 902.672 499.899 902.554C499.168 901.597 498.411 900.64 497.693 899.643C497.637 899.559 497.575 899.479 497.507 899.404C496.483 897.955 495.513 896.453 494.596 894.872C494.317 894.486 494.064 894.034 493.812 893.635C493.743 893.542 493.689 893.439 493.652 893.33C493.506 893.051 493.293 892.798 493.174 892.506C492.812 891.908 492.483 891.292 492.19 890.658L492.562 890.751C491.991 889.807 491.446 888.89 490.794 888C488.079 883.867 484.744 880.177 480.905 877.06C480.829 876.994 480.749 876.932 480.666 876.874C479.547 875.918 478.37 875.03 477.143 874.216C476.731 873.963 476.306 873.764 475.947 873.511C467.972 868.421 462.562 860.844 459.89 850.716C459.586 849.895 459.477 849.015 459.571 848.146C459.666 847.276 459.962 846.44 460.435 845.704C460.779 845.013 461.264 844.401 461.86 843.909C462.455 843.416 463.147 843.054 463.891 842.847C465.352 842.523 466.876 842.648 468.264 843.206H468.437C468.611 843.302 468.793 843.382 468.982 843.445C470.246 844.373 471.178 845.682 471.64 847.18C472.014 848.483 472.457 849.766 472.97 851.021C473.278 851.862 473.656 852.676 474.1 853.454C475.5 856.268 477.463 858.766 479.868 860.791C480.121 861.03 480.373 861.216 480.573 861.389C481.543 862.192 482.579 862.913 483.67 863.542L484.055 863.689C486.769 865.52 489.325 867.574 491.698 869.829C491.98 870.099 492.318 870.303 492.688 870.427C493.058 870.551 493.451 870.592 493.838 870.547H494.423C497.334 870.268 500.325 869.909 503.369 869.564C536.745 865.297 548.109 841.65 557.866 812.727C563.183 797.082 571.158 769.807 588.73 763.985C614.968 755.199 637.91 788.283 617.454 812.98C602.788 830.776 586.57 847.234 568.991 862.16C567.776 863.178 566.908 864.55 566.509 866.084C566.111 867.618 566.201 869.239 566.767 870.72C567.333 872.201 568.348 873.468 569.668 874.345C570.989 875.222 572.551 875.664 574.135 875.612C587.534 875.067 602.514 869.67 617.201 862.319C648.33 846.84 681.341 835.478 715.403 828.518C749.742 821.742 785.191 823.107 818.908 832.505H819.041C857.76 845.718 895.696 863.197 931.797 882.377C972.311 903.87 1010.22 938.204 1058.83 936.874C1093.63 935.944 1125.79 915.993 1147.27 889.462C1161.67 871.717 1175.97 819.094 1203.75 820.529C1225.52 821.699 1232.7 852.204 1227.33 867.809C1224.67 875.615 1221.33 883.176 1217.36 890.406C1216.46 892.046 1216.18 893.957 1216.58 895.786C1216.97 897.615 1218.02 899.24 1219.52 900.361L1220.46 901.212C1221.23 901.935 1221.96 902.703 1222.64 903.511C1222.82 903.723 1223.05 903.894 1223.3 904.015C1223.55 904.136 1223.83 904.203 1224.1 904.213C1224.38 904.223 1224.66 904.176 1224.92 904.073C1225.18 903.971 1225.42 903.816 1225.62 903.618C1225.8 903.484 1225.98 903.333 1226.13 903.166C1227.16 902.193 1228.11 901.144 1228.98 900.029C1229.73 899.142 1230.4 898.19 1230.99 897.184C1231.11 896.945 1231.27 896.706 1231.4 896.493L1231.11 896.374H1231.01C1231.11 896.201 1231.16 896.015 1231.27 895.829C1231.27 895.829 1231.27 895.829 1231.27 895.762C1231.44 895.496 1231.57 895.204 1231.78 894.898C1233.21 892.219 1234.96 889.723 1236.99 887.468C1240.81 883.24 1245.23 879.591 1250.1 876.635C1256.96 872.493 1262.47 866.443 1265.96 859.222C1266.99 857.029 1268.08 854.929 1269.19 852.909C1270.52 850.689 1271.74 848.496 1273.18 846.449C1273.91 845.266 1274.73 844.176 1275.58 843.046C1276.43 841.916 1277 841.105 1277.73 840.202C1278.73 839.019 1279.7 837.822 1280.74 836.692C1285.71 831.269 1291.29 825.381 1297.5 819.12C1302.89 813.955 1306.96 807.574 1309.38 800.512C1309.85 799.049 1310.33 797.641 1310.86 796.258L1310.51 795.74L1310.14 795.208C1309.54 794.317 1308.94 793.453 1308.35 792.55C1307.75 791.646 1307.26 790.994 1306.74 790.237L1306.11 789.346L1305.77 788.854C1305.67 788.729 1305.58 788.596 1305.5 788.456C1244.97 702.988 1165.84 645.5 1082.26 626.134C1081.79 625.944 1081.27 625.896 1080.76 625.996C1080.26 626.095 1079.8 626.338 1079.43 626.695C1079.06 627.051 1078.8 627.507 1078.69 628.007C1078.57 628.506 1078.6 629.028 1078.78 629.51C1081.28 640.821 1083.11 652.518 1084.54 664.428C1084.64 665.381 1084.95 666.302 1085.42 667.134C1085.9 667.966 1086.55 668.691 1087.31 669.266C1105.34 682.678 1117.73 698.947 1134.87 703.506C1138.57 704.526 1142.45 704.717 1146.24 704.065C1146.97 703.952 1147.71 703.908 1148.46 703.932C1151.39 703.934 1154.28 704.676 1156.86 706.089C1159.43 707.502 1161.61 709.541 1163.18 712.017C1164.76 714.494 1165.69 717.328 1165.88 720.258C1166.08 723.188 1165.53 726.119 1164.29 728.782C1163.05 731.445 1161.16 733.752 1158.8 735.492C1156.43 737.232 1153.67 738.347 1150.76 738.736C1147.85 739.125 1144.89 738.774 1142.15 737.716C1139.41 736.658 1136.98 734.927 1135.08 732.682C1130.38 726.888 1124.12 722.561 1117.03 720.215C1106.77 717.197 1095.54 713.688 1085.78 706.803C1085.36 706.521 1084.87 706.352 1084.36 706.312C1083.85 706.271 1083.34 706.361 1082.88 706.573C1082.41 706.784 1082.01 707.11 1081.71 707.52C1081.41 707.93 1081.21 708.411 1081.15 708.916C1079.88 719.377 1082.13 725.664 1084.24 731.672C1085.22 734.612 1086.99 737.224 1089.36 739.222C1091.44 740.845 1093.12 742.923 1094.27 745.296C1095.42 747.67 1096.02 750.275 1096.01 752.913C1096.1 757.252 1094.58 761.472 1091.74 764.752C1088.9 768.032 1084.94 770.139 1080.63 770.663C1076.32 771.186 1071.97 770.089 1068.43 767.585C1064.88 765.081 1062.39 761.349 1061.45 757.113C1060.69 754.168 1060.74 751.073 1061.59 748.154C1062.35 745.111 1062.47 741.945 1061.95 738.853C1061.43 735.761 1060.28 732.81 1058.56 730.184C1055.69 725.402 1053.07 720.468 1050.73 715.403C1050.14 714.08 1049.24 712.921 1048.1 712.023C1046.96 711.125 1045.62 710.515 1044.2 710.245C1042.78 709.975 1041.31 710.052 1039.92 710.471C1038.53 710.89 1037.27 711.638 1036.23 712.651C1025.07 723.75 1018.29 721.411 1008.43 728.137C1005.74 730.037 1003.42 732.406 1001.58 735.128C999.598 737.856 996.871 739.955 993.727 741.172C990.582 742.39 987.153 742.675 983.851 741.993C980.548 741.312 977.513 739.692 975.108 737.328C972.702 734.965 971.03 731.958 970.29 728.668C969.742 726.11 969.772 723.461 970.378 720.915C970.984 718.37 972.15 715.992 973.792 713.954C975.433 711.916 977.509 710.271 979.867 709.137C982.225 708.003 984.807 707.41 987.424 707.401C989.284 707.384 991.135 707.676 992.9 708.265C995.357 709.053 997.979 709.181 1000.5 708.635C1003.02 708.089 1005.36 706.889 1007.27 705.155C1015.9 697.472 1024.81 684.366 1039.74 671.699C1040.71 670.91 1041.44 669.879 1041.87 668.71C1042.31 667.542 1042.42 666.279 1042.2 665.053C1038.84 648.06 1032.36 631.836 1023.1 617.201C1022.89 616.866 1022.62 616.581 1022.29 616.365C1021.96 616.15 1021.59 616.009 1021.2 615.955C1020.81 615.9 1020.42 615.932 1020.04 616.049C1019.67 616.166 1019.32 616.364 1019.03 616.63L1018.57 617.042C980.95 649.727 934.415 664.999 881.965 671.353C881.718 671.388 881.477 671.455 881.247 671.552C877.752 673.084 873.978 673.875 870.162 673.875C866.346 673.875 862.571 673.084 859.076 671.552C858.854 671.448 858.616 671.38 858.372 671.353C828.079 667.233 804.831 661.929 786.502 655.934C786.182 655.841 785.85 655.801 785.518 655.815L783.538 655.934L774.233 656.572L769.953 656.838C737.481 659.005 713.741 660.201 699.505 660.4H699.253C698.881 661.956 698.522 663.537 698.229 665.146C697.998 666.37 698.102 667.634 698.531 668.804C698.959 669.974 699.695 671.006 700.662 671.792C715.589 684.486 724.508 697.592 733.108 705.274C735.034 707.006 737.381 708.202 739.914 708.743C742.447 709.284 745.077 709.151 747.543 708.358C749.309 707.772 751.159 707.48 753.019 707.494C756.023 707.491 758.977 708.26 761.597 709.729C764.217 711.197 766.416 713.316 767.981 715.879C769.546 718.443 770.424 721.367 770.533 724.368C770.641 727.37 769.975 730.349 768.599 733.019C767.223 735.689 765.183 737.96 762.675 739.614C760.168 741.267 757.277 742.248 754.281 742.461C751.285 742.674 748.284 742.113 745.568 740.831C742.851 739.549 740.51 737.59 738.77 735.141C736.948 732.428 734.657 730.06 732.004 728.15C722.102 721.424 715.323 723.764 704.158 712.665C703.118 711.646 701.847 710.894 700.454 710.472C699.061 710.05 697.586 709.97 696.156 710.241C694.726 710.511 693.382 711.122 692.238 712.024C691.095 712.925 690.186 714.088 689.59 715.416C687.276 720.494 684.661 725.43 681.761 730.197C680.059 732.828 678.916 735.781 678.401 738.872C677.887 741.963 678.012 745.127 678.77 748.168C679.61 751.082 679.674 754.166 678.956 757.113C677.935 761.268 675.427 764.905 671.906 767.336C668.384 769.767 664.094 770.822 659.847 770.303C655.6 769.784 651.69 767.727 648.858 764.519C646.025 761.312 644.467 757.178 644.477 752.9C644.474 750.263 645.071 747.66 646.222 745.288C647.373 742.917 649.049 740.838 651.123 739.209C653.502 737.222 655.276 734.606 656.24 731.659C658.353 725.651 660.6 719.364 659.324 708.903C659.26 708.398 659.068 707.917 658.766 707.507C658.464 707.096 658.063 706.77 657.6 706.558C657.136 706.346 656.626 706.257 656.119 706.297C655.611 706.338 655.122 706.507 654.698 706.79C644.902 713.675 633.697 717.184 623.409 720.201C616.348 722.55 610.11 726.877 605.438 732.669C603.454 734.997 600.898 736.768 598.023 737.81C595.147 738.851 592.05 739.127 589.036 738.611C584.515 737.881 580.461 735.409 577.741 731.725C575.022 728.04 573.855 723.437 574.489 718.903C575.124 714.368 577.51 710.262 581.136 707.466C584.763 704.67 589.34 703.406 593.887 703.945C597.587 704.483 601.353 704.366 605.013 703.6C622.465 699.28 634.933 682.811 653.156 669.147C653.91 668.586 654.542 667.876 655.013 667.063C655.484 666.249 655.784 665.348 655.894 664.415V664.003C655.947 663.617 655.915 663.224 655.799 662.852C655.683 662.48 655.487 662.138 655.225 661.85C654.962 661.562 654.64 661.335 654.28 661.186C653.92 661.037 653.532 660.968 653.143 660.985C650.112 661.074 647.086 661.185 644.064 661.318C550.582 665.172 482.234 687.171 430.395 784.933C430.169 785.412 429.917 785.85 429.664 786.263L429.226 787.1C429.119 787.286 429.04 787.485 428.947 787.645V789.918L431.339 794.916C431.937 796.099 432.496 797.322 433.094 798.518C433.904 800.272 434.729 801.881 435.579 803.409C437.879 807.869 440.948 811.887 444.644 815.279C449.19 819.453 454.387 826.648 460.236 836.865C460.316 837 460.382 837.143 460.435 837.291C461.005 838.777 461.089 840.406 460.675 841.943C460.472 842.683 460.121 843.375 459.644 843.975C459.166 844.576 458.572 845.074 457.897 845.439C457.168 845.891 456.355 846.189 455.507 846.315C454.658 846.441 453.794 846.391 452.965 846.17C452.184 845.956 451.465 845.559 450.868 845.011C450.272 844.463 449.815 843.78 449.536 843.019C444.525 834.406 440.152 828.225 436.417 824.583L436.31 824.49C431.286 820.343 426.501 813.551 422.008 803.941C418.003 795.461 414.068 787.694 410.205 780.64L410.311 780.241C406.085 773.767 402.442 766.93 399.425 759.812L399.292 760.197C395.453 752.565 392.57 744.489 390.705 736.152L390.998 736.643C390.612 735.421 390.227 734.198 389.802 732.975C388.898 730.317 387.888 727.578 386.837 724.853C384.95 720.121 382.85 715.443 380.391 710.684C375.526 701.619 371.578 693.989 368.428 687.769C368.055 687.041 367.836 686.244 367.783 685.428C367.731 684.612 367.846 683.793 368.122 683.023ZM1628.21 187.789C1627.63 187.47 1627.08 187.151 1626.56 186.793C1626.16 186.58 1625.81 186.341 1625.45 186.128L1623.78 184.799L1622.93 184.134C1622.69 183.949 1622.46 183.749 1622.24 183.536L1621.28 182.685C1620.68 182.127 1620.08 181.529 1619.53 180.931C1618.97 180.333 1618.58 179.947 1618.2 179.429C1617.81 178.91 1617.36 178.405 1616.97 177.913C1616.59 177.422 1616.4 177.143 1616.14 176.797C1615.87 176.451 1615.39 175.747 1615.03 175.175C1614.67 174.604 1614.41 174.165 1614.13 173.66C1613.85 173.261 1613.6 172.838 1613.38 172.397C1613 171.733 1612.64 171.068 1612.32 170.324C1612 169.579 1611.7 168.995 1611.42 168.33C1611.14 167.665 1610.95 167.16 1610.74 166.575C1610.67 166.437 1610.61 166.295 1610.57 166.15C1610.42 165.791 1610.33 165.419 1610.18 165.06C1609.55 163.145 1609.03 161.197 1608.61 159.225C1608.53 158.839 1608.47 158.454 1608.4 158.069C1608.33 157.683 1608.21 157.151 1608.15 156.66C1608 155.716 1607.87 154.799 1607.76 153.842C1607.76 153.403 1607.68 152.978 1607.66 152.512C1607.59 152.014 1607.56 151.513 1607.55 151.01C1606.82 151.502 1606.03 152.021 1605.28 152.552C1604.52 153.084 1603.8 153.602 1603.02 154.134C1601.58 155.211 1600.07 156.354 1598.56 157.537C1598.35 157.683 1598.18 157.856 1597.97 158.002C1597.75 158.148 1597.51 158.374 1597.26 158.56C1592.04 162.694 1586.41 167.546 1580.58 172.703C1579.81 173.407 1579.06 174.032 1578.31 174.777L1575.77 177.023C1574.44 178.219 1573.11 179.415 1571.78 180.572C1565.13 186.58 1558.34 192.827 1551.54 198.862C1546.09 203.713 1540.65 208.445 1535.27 212.871C1534.93 213.186 1534.67 213.563 1534.48 213.981C1534.3 214.4 1534.2 214.851 1534.19 215.308C1534.18 215.766 1534.26 216.221 1534.42 216.647C1534.59 217.073 1534.84 217.461 1535.16 217.79C1535.53 218.191 1535.98 218.496 1536.49 218.679C1537 218.862 1537.55 218.917 1538.09 218.84C1538.25 218.834 1538.41 218.812 1538.56 218.773C1540.15 218.388 1541.73 217.976 1543.28 217.55C1549.49 215.929 1555.46 214.307 1561.21 212.632C1562.41 212.273 1563.58 211.928 1564.74 211.609C1570.92 209.708 1576.84 207.847 1582.53 205.933C1584.43 205.295 1586.28 204.604 1588.14 203.992C1590 203.381 1591.56 202.796 1593.25 202.158L1595.67 201.294C1596.22 201.081 1596.82 200.869 1597.42 200.616C1598.62 200.191 1599.77 199.752 1600.93 199.287H1601.01C1601.87 198.928 1602.72 198.583 1603.6 198.277L1604.09 198.064L1607.84 196.589C1607.84 196.589 1607.92 196.589 1607.95 196.589C1608.35 196.443 1608.76 196.27 1609.14 196.097C1610.62 195.499 1612.1 194.901 1613.53 194.263C1613.81 194.17 1614.13 194.023 1614.45 193.917L1618.66 192.096C1618.75 192.09 1618.83 192.067 1618.91 192.03C1619.64 191.671 1620.42 191.352 1621.15 191.006C1621.88 190.661 1622.6 190.408 1623.3 190.089L1623.62 189.943L1624.95 189.318C1626.1 188.773 1627.15 188.215 1628.26 187.789H1628.21ZM1581.38 269.695C1586.69 245.862 1603.39 226.655 1621.48 207.488L1624.5 204.218C1582.08 213.762 1553.74 226.097 1540.19 240.798C1539.36 241.709 1538.74 242.795 1538.39 243.976C1538.04 245.156 1537.96 246.4 1538.15 247.617C1538.33 248.816 1538.79 249.958 1539.48 250.956C1540.17 251.953 1541.08 252.779 1542.14 253.372C1554.51 260.375 1567.69 265.856 1581.38 269.695ZM1527.09 303.204C1536.72 292.876 1549.93 285.087 1565.47 280.488C1555.73 275.711 1545.53 271.935 1535.03 269.216C1532.78 268.618 1530.39 268.912 1528.36 270.037C1526.32 271.162 1524.8 273.03 1524.12 275.251C1521.67 283.253 1522.68 292.663 1527.09 303.204ZM1019.55 978.306C1018.97 978.678 1018.35 979.103 1017.74 979.635L1019.83 978.306H1019.55ZM931.212 376.961C931.728 377.365 932.265 377.742 932.82 378.091C933.312 378.429 933.823 378.739 934.349 379.022C934.88 379.288 935.412 379.567 936.117 379.899C936.489 380.072 936.887 380.245 937.446 380.444C939.444 381.242 941.533 381.787 943.666 382.066L944.544 382.185C944.996 382.185 945.421 382.252 945.873 382.292H948.385L949.635 382.185C950.266 382.165 950.894 382.08 951.509 381.933C952 381.853 952.492 381.773 952.944 381.667C953.396 381.561 953.901 381.454 954.42 381.295C959.368 379.91 963.809 377.12 967.205 373.264C970.601 369.407 972.807 364.649 973.555 359.565C974.303 354.481 973.562 349.289 971.421 344.618C969.28 339.947 965.831 335.996 961.491 333.244C960.176 332.392 958.783 331.666 957.331 331.077C954.373 329.863 951.221 329.192 948.026 329.097H946.79C943.382 329.156 940.017 329.864 936.874 331.184C936.09 331.529 935.319 331.888 934.508 332.327C933.882 332.661 933.274 333.03 932.687 333.43L932.182 333.749L930.68 334.879C930.454 335.052 930.228 335.238 929.896 335.53C929.564 335.823 928.886 336.447 928.42 336.859C927.955 337.271 927.836 337.471 927.437 337.923C927.202 338.164 926.98 338.417 926.772 338.68C925.6 340.065 924.58 341.571 923.728 343.173C922.801 344.908 922.07 346.74 921.549 348.636C921.402 349.155 921.296 349.66 921.19 350.151C921.083 350.643 921.004 351.135 920.91 351.614C920.716 352.956 920.618 354.311 920.618 355.668C920.618 356.146 920.618 356.611 920.618 357.356C920.618 358.1 920.724 358.685 920.817 359.243C920.817 359.562 920.91 359.895 920.964 360.227L921.19 361.436C921.296 361.915 921.429 362.393 921.549 362.845L921.668 363.218C921.811 363.821 921.989 364.416 922.2 364.999L922.333 365.344C922.519 365.783 922.705 366.261 922.957 366.78C923.66 368.42 924.553 369.972 925.616 371.405L926.307 372.309L926.413 372.416C926.442 372.465 926.478 372.51 926.52 372.549L927.57 373.745C927.772 374.03 928.013 374.286 928.288 374.502C928.726 374.981 929.191 375.393 929.617 375.832C930.128 376.236 930.661 376.613 931.212 376.961ZM860.498 453.67C867.199 456.187 874.586 456.187 881.287 453.67C894.672 448.778 917.415 443.475 929.138 429.186C917.694 438.065 897.237 442.385 870.919 442.385C844.601 442.385 824.131 438.065 812.714 429.186C824.371 443.501 847.087 448.805 860.498 453.696V453.67ZM786.063 381.308C788.389 381.971 790.796 382.306 793.214 382.305C800.265 382.305 807.026 379.504 812.012 374.519C816.997 369.533 819.798 362.771 819.798 355.721C819.798 355.163 819.798 354.591 819.798 354.059C819.562 350.146 818.464 346.333 816.582 342.894C814.4 338.91 811.234 335.551 807.385 333.138C803.536 330.724 799.133 329.338 794.597 329.11C794.224 329.11 793.812 329.11 793.427 329.11H793.241H792.55C789.835 329.19 787.147 329.674 784.574 330.546C782.61 331.207 780.732 332.1 778.978 333.204C774.635 335.957 771.183 339.91 769.041 344.585C766.899 349.26 766.159 354.455 766.91 359.542C767.661 364.63 769.872 369.389 773.274 373.246C776.675 377.102 781.123 379.888 786.076 381.268L786.063 381.308ZM765.872 647.986C743.156 637.844 729.984 626.426 718.407 615.38C713.876 622.5 709.916 629.967 706.563 637.711C704.684 642.159 703.038 646.702 701.632 651.322C718.327 651.123 744.393 649.448 765.872 647.986ZM645.885 588.052C654.738 596.665 662.647 603.231 665.385 614.144C666.222 611.127 667.139 608.176 668.043 605.239C670.394 597.908 673.164 590.719 676.337 583.705C669.727 580.714 662.88 578.273 655.868 576.408C643.998 572.713 641.738 581.393 645.885 588.052Z" fill="black"/>
<path d="M793.214 364.002C801.128 364.002 807.543 360.289 807.543 355.708C807.543 351.127 801.128 347.414 793.214 347.414C785.3 347.414 778.885 351.127 778.885 355.708C778.885 360.289 785.3 364.002 793.214 364.002Z" fill="black"/>
<path d="M947.175 364.002C955.089 364.002 961.504 360.289 961.504 355.708C961.504 351.127 955.089 347.414 947.175 347.414C939.262 347.414 932.847 351.127 932.847 355.708C932.847 360.289 939.262 364.002 947.175 364.002Z" fill="black"/>
<path d="M1019.55 978.306H1019.83L1017.74 979.635C1018.35 979.09 1018.97 978.678 1019.55 978.306ZM468.676 843.671C468.488 843.608 468.305 843.528 468.131 843.432C468.331 843.512 468.504 843.618 468.676 843.671Z" fill="black"/>
<path d="M689.497 785.265C718.805 818.243 623.036 830.99 612.935 844.468C624.751 828.717 666.608 759.519 689.497 785.265Z" fill="black"/>
<path d="M1044.03 880.623C1054.44 877.313 1062.88 867.836 1073 864.101C1089.33 858.066 1107.01 865.948 1096.62 883.215C1057.23 948.625 889.581 853.693 889.581 853.693C920.405 859.462 978.93 901.318 1044.03 880.623Z" fill="black"/>
<path d="M1161.3 782.169C1166.2 773.263 1176.33 772.413 1183.16 781.132C1200.2 802.878 1157.67 839.724 1141.12 852.338C1148.07 836.494 1158.12 821.447 1160.78 804.207C1161.67 798.478 1158.49 787.247 1161.3 782.169Z" fill="black"/>
<defs>
<linearGradient id="paint0_linear_333_992" x1="1549.36" y1="295.748" x2="1509.19" y2="244.733" gradientUnits="userSpaceOnUse">
<stop stop-color="#FAFBFB" stop-opacity="0"/>
<stop offset="0.54" stop-color="#1E1E1E"/>
</linearGradient>
<linearGradient id="paint1_linear_333_992" x1="1624.2" y1="235.508" x2="1498.08" y2="244.082" gradientUnits="userSpaceOnUse">
<stop stop-color="#FAFBFB" stop-opacity="0"/>
<stop offset="0.71" stop-color="#1E1E1E"/>
</linearGradient>
<linearGradient id="paint2_linear_333_992" x1="1619.68" y1="168.343" x2="1500.14" y2="237.13" gradientUnits="userSpaceOnUse">
<stop stop-color="#FAFBFB" stop-opacity="0"/>
<stop offset="0.71" stop-color="#1E1E1E"/>
</linearGradient>
</defs>
</svg>
