<svg width="219" height="72" viewBox="0 0 219 72" fill="none" xmlns="http://www.w3.org/2000/svg">
<path d="M31 62C48.1208 62 62 48.1208 62 31C62 13.8792 48.1208 0 31 0C13.8792 0 0 13.8792 0 31C0 48.1208 13.8792 62 31 62Z" fill="#E59617"/>
<path d="M53.6 5.15H59.96C59.51 5.27 59.03 5.57 59.03 6.2C59.03 7.04 59.33 8.03 59.63 9.02L65.33 25.1C66.92 20.63 68.54 16.16 70.1 11.69C70.58 10.73 71.48 7.58 71.48 6.74C71.48 5.9 71.24 5.45 70.67 5.21C70.64 5.21 70.52 5.15 70.43 5.12H74.75C74.72 5.15 74.72 5.15 74.66 5.15H74.69C73.61 5.45 72.74 6.65 72.08 7.91C71.66 8.81 71.3 9.8 70.97 10.64C70.82 10.97 70.73 11.27 70.64 11.51L65.42 26.03H62.66L57.62 11.54C57.29 10.49 55.82 6.98 55.07 6.08C54.62 5.54 54.11 5.27 53.6 5.15ZM42.92 6.05C42.53 5.51 41.96 5.24 41.48 5.12H47.81C47.36 5.24 46.91 5.54 46.91 6.17C46.91 7.01 47.18 8 47.48 8.99C47.66 9.35 47.78 9.68 47.9 10.04C48.14 10.64 48.41 11.21 48.59 11.69L53.63 25.1C55.04 21.26 56.42 17.33 57.77 13.46L58.01 14.06L53.75 26.03H50.99L45.5 11.51C45.11 10.46 43.7 6.95 42.92 6.05ZM70.936 19.19C70.936 14.78 73.666 11.72 78.196 11.72C82.426 11.72 85.066 14.66 85.156 18.86H74.026C74.026 22.34 74.626 25.91 79.066 25.91C81.076 25.91 83.446 24.56 84.646 22.58H84.856C83.836 24.95 80.986 26.3 78.586 26.3C74.176 26.3 70.936 23.6 70.936 19.19ZM78.346 12.02C75.076 12.02 74.296 16.25 74.056 18.56H82.216C82.126 16.31 81.796 12.02 78.346 12.02ZM93.496 22.55C93.256 21.68 93.586 18.44 93.856 16.91L94.396 16.88C93.496 21.98 97.156 25.88 101.536 25.97C105.226 25.91 107.296 23.75 107.296 20.75C107.296 17.69 104.386 15.89 101.206 15.02C97.876 14.06 94.546 12.68 94.546 9.44C94.546 5.6 98.476 4.76 101.656 4.76C104.386 4.76 106.306 5.24 108.406 6.17C108.406 7.58 108.196 9.17 107.926 10.79H107.656C108.106 7.43 105.646 5.21 101.656 5.09C98.686 5.15 97.726 7.01 97.576 8.87C97.576 11.27 99.736 12.11 102.136 12.8C105.856 13.85 109.936 15.2 109.936 19.67C109.936 23.57 106.096 26.33 101.506 26.3C99.106 26.27 94.876 25.28 93.496 22.55ZM111.086 11.93C114.926 11.81 115.406 9.41 115.586 7.1H116.996V11.78H121.016V12.23H116.996V23.78C116.996 25.04 117.536 25.52 118.226 25.52C119.216 25.52 120.536 24.47 120.776 23.45L121.016 23.66C119.606 26.33 118.106 26.3 117.086 26.3C115.586 26.3 114.176 25.04 114.176 23.63V12.23H111.086V11.93ZM129.429 26C124.869 26.03 122.439 24.74 122.439 21.77C122.439 18.77 125.439 17.24 129.639 17.36C130.449 17.39 131.289 17.6 131.919 17.78V16.67C131.919 14.54 131.649 11.93 128.739 11.93C127.209 11.93 126.639 12.8 126.249 13.64C126.189 13.73 126.159 13.82 126.099 13.91C126.069 14.03 126.009 14.12 125.919 14.21C125.829 14.36 125.769 14.51 125.649 14.66C125.499 14.9 125.259 15.05 124.809 15.05C124.179 15.05 123.879 14.75 123.879 14.15C123.879 12.29 127.629 11.72 129.039 11.72C130.299 11.72 132.399 12.08 133.359 12.89C134.319 13.82 134.649 15.08 134.649 16.37L134.619 21.77C134.619 22.73 134.649 24.62 134.979 25.28C135.249 25.7 135.639 25.91 136.059 26H129.429ZM129.579 17.6C125.739 17.6 125.079 19.76 125.079 21.77C125.079 23.78 125.619 25.82 129.429 25.82C130.059 25.82 130.959 25.82 131.379 25.37C131.379 25.34 131.409 25.31 131.439 25.25C131.799 24.53 131.859 22.7 131.859 21.56L131.889 17.96C131.319 17.81 130.539 17.6 129.579 17.6ZM138.668 13.04C138.248 12.44 137.678 12.11 136.958 11.96C138.248 11.84 140.438 11.72 141.848 11.72V14C142.868 12.89 144.878 11.63 146.858 11.63C150.668 11.63 152.558 14.24 152.558 17.27V21.2C152.558 22.1 152.618 24.59 153.008 25.28C153.278 25.67 153.638 25.88 154.088 26H148.328C148.778 25.88 149.168 25.67 149.408 25.25C149.798 24.53 149.828 21.86 149.828 20.93L149.798 17.69C149.798 15.86 149.888 12.08 146.678 12.08C144.758 12.08 142.718 13.37 141.848 14.54L141.878 17.36L141.848 21.53C141.848 22.4 141.848 24.59 142.238 25.28C142.478 25.7 142.898 25.91 143.318 26H137.558C138.038 25.91 138.428 25.7 138.698 25.25C139.118 24.41 139.118 22.13 139.118 21.14C139.118 17.18 139.238 14.33 138.668 13.04ZM155.192 19.04C155.192 14.66 158.102 11.72 162.332 11.72C163.862 11.72 165.392 12.35 166.382 13.19C166.382 9.29 166.352 5.48 166.022 4.76C165.572 4.16 165.062 3.83 164.312 3.68C165.572 3.56 167.792 3.44 169.232 3.44L169.082 21.53C169.082 22.4 169.082 24.59 169.442 25.28C169.682 25.7 170.102 25.91 170.522 26H165.452C164.582 26.24 163.502 26.3 162.452 26.3C158.252 26.3 155.192 23.36 155.192 19.04ZM158.102 19.04C158.102 21.32 158.672 26.06 162.452 26.06C163.442 26.06 164.582 26 165.542 25.67C165.662 25.55 165.782 25.43 165.902 25.25C166.322 24.41 166.322 22.13 166.322 21.14C166.322 19.49 166.382 16.64 166.382 13.76C165.392 12.74 163.862 11.96 162.302 11.96C158.492 11.96 158.102 16.73 158.102 19.04ZM185.619 26H178.329C178.749 25.91 179.139 25.76 179.439 25.49C179.919 25.1 180.159 23.69 180.219 22.46C180.309 21.14 180.309 19.79 180.309 19.34V10.79C180.309 9.62 180.279 6.32 179.439 5.6C179.199 5.36 178.809 5.21 178.449 5.12H193.509V8.15H193.299C192.999 7.19 192.189 6.53 191.139 6.14C189.279 5.45 185.289 5.42 183.339 5.42V16.34H184.119C188.499 16.28 189.759 16.91 190.059 13.43H190.209V19.49H190.059C189.909 16.4 188.439 16.67 184.119 16.64H183.339V19.34C183.339 19.82 183.339 20.9 183.369 21.95C183.429 23.18 183.579 25.4 185.019 25.88H184.989C185.079 25.88 185.199 25.91 185.259 25.94C185.349 25.97 185.469 25.97 185.619 26ZM199.327 26.3C195.097 26.3 192.247 23.33 192.247 19.01C192.247 14.78 195.037 11.72 199.177 11.72C203.377 11.72 206.287 14.66 206.287 19.04C206.287 23.36 203.527 26.3 199.327 26.3ZM199.207 11.96C195.397 11.96 195.157 16.76 195.157 19.01C195.157 21.32 195.517 26.06 199.327 26.06C203.107 26.06 203.377 21.32 203.377 19.04C203.377 16.73 202.987 11.96 199.207 11.96ZM206.979 11.96C208.629 11.81 210.249 11.72 211.869 11.72C211.869 12.92 211.869 14.12 211.899 15.29C212.439 13.46 214.209 11.84 216.219 11.84C216.939 11.84 218.229 12.08 218.229 12.98C218.229 13.61 217.839 14 217.359 14C216.159 14.03 216.009 12.86 214.599 12.98C212.469 13.16 211.929 17.51 211.869 18.98C211.839 21.08 211.839 24.56 212.259 25.28C212.499 25.67 212.889 25.91 213.339 26H207.579C208.059 25.91 208.479 25.67 208.689 25.25C209.289 24.29 209.139 19.31 209.139 17.93C209.139 16.97 209.169 13.82 208.659 13.04C208.329 12.47 207.639 12.11 206.979 11.96ZM38.54 54.18V53.88L38.57 53.82C38.6 53.46 38.78 51.72 38.99 51.57C39.02 51.24 39.02 51.18 39.2 50.88V50.49C39.44 50.31 39.5 49.86 39.68 49.62V49.47L39.77 49.26C39.95 49.11 40.1 48.21 40.4 47.94C40.43 47.61 40.55 47.7 40.67 47.52V47.31L40.79 47.16L40.82 47.01C41 46.83 41 46.5 41.21 46.32C41.24 46.17 41.48 45.72 41.6 45.63L41.63 45.45C41.9 45.21 41.9 45.18 41.99 44.85C42.29 44.55 42.53 44.04 42.74 43.68V43.56C42.86 43.32 43.28 42.87 43.31 42.66C43.61 42.33 44.09 41.25 44.33 41.07L44.36 40.95C44.57 40.71 44.72 40.47 44.96 40.26L44.99 40.08C45.17 39.93 45.26 39.72 45.41 39.54L45.44 39.45C45.56 39.33 45.62 39.15 45.77 39.06C45.86 38.7 46.76 37.92 46.76 37.8L46.88 37.71C46.88 37.32 48.2 35.97 48.5 35.58V35.46C48.56 35.37 48.62 35.31 48.68 35.25C48.71 35.04 48.89 34.92 49.04 34.77L49.16 34.71V34.56C49.28 34.41 49.46 34.35 49.61 34.23L49.64 34.08C50.42 32.88 51.68 31.68 52.73 30.69L52.76 30.6C52.97 30.36 53.21 30.12 53.45 29.91C53.51 29.7 53.84 29.49 53.99 29.34L54.14 29.28L54.2 29.19C54.38 29.13 55.22 28.08 55.52 27.99L55.61 27.9L55.64 27.75L55.85 27.63C55.91 27.51 56 27.42 56.12 27.36C56.24 27.09 57.98 25.8 58.31 25.65L58.4 25.5C58.79 25.2 59.42 24.54 59.87 24.42C59.99 24.33 60.29 24.09 60.44 24.06C60.56 23.94 60.74 23.79 60.92 23.76L61.1 23.61C61.37 23.58 61.64 23.46 61.85 23.28H61.97C62.36 22.92 63.05 22.74 63.53 22.53C64.31 22.47 65.09 22.23 65.87 22.23C66.89 22.23 68.18 22.53 68.99 23.16C69.17 23.31 69.29 23.55 69.47 23.7C69.53 23.88 69.62 24.03 69.68 24.21C69.92 24.45 69.98 24.48 69.95 24.84L70.07 25.02V25.32L69.95 25.47C69.95 25.56 69.95 25.68 69.92 25.77C69.71 25.98 69.65 26.43 69.68 26.67L69.59 26.91C69.53 26.94 69.44 27 69.35 27V27.09L69.17 27.33C69.11 27.78 68.36 28.5 68.03 28.8C67.88 28.83 67.85 28.89 67.82 29.04L67.61 29.28C67.52 29.61 67.34 29.64 67.1 29.85L66.92 29.88L66.74 30.03L66.77 30.18C66.47 30.57 65.9 30.72 65.66 31.2C65.45 31.29 65.48 31.44 65.21 31.5V31.68C65.18 31.71 64.67 32.1 64.55 32.22L64.52 32.37C64.22 32.76 63.71 33 63.35 33.33C63.17 33.36 63.11 33.54 63.11 33.69C62.96 33.84 62.69 33.93 62.51 34.05L62.39 34.2H62.12C62.09 34.23 62 34.32 62 34.35V34.41L62.09 34.5V34.56C61.91 34.65 61.31 35.01 61.19 35.16V35.34C61.01 35.4 60.8 35.49 60.68 35.64L60.65 35.76C60.41 36.09 59.9 36.21 59.66 36.51L59.63 36.6C59.51 36.66 59.09 37.08 58.97 37.2C58.76 37.2 57.71 38.01 57.47 38.19L57.41 38.28C57.29 38.31 57.14 38.37 57.02 38.43C56.96 38.58 56.81 38.67 56.72 38.79C56.6 38.85 56.42 38.91 56.39 39.03C56.15 39.18 55.88 39.24 55.61 39.33C55.46 39.39 55.37 39.54 55.22 39.6C54.86 39.6 54.5 39.72 54.14 39.72C53.93 39.63 53.48 39.27 53.42 39.06L53.27 38.88V38.55C53.48 38.46 53.75 38.34 53.84 38.13H53.99C54.26 38.13 54.53 38.19 54.74 38.34H55.01C55.13 38.34 55.25 38.31 55.34 38.28C55.46 38.1 55.7 38.13 55.82 37.95C55.91 37.92 56 37.89 56.09 37.89C56.18 37.71 56.45 37.65 56.57 37.47C56.78 37.44 58.22 36.57 58.31 36.42L58.43 36.39C58.43 36.33 58.49 36.27 58.52 36.21C59.06 36.03 59.36 35.43 59.9 35.28L59.96 35.16C60.11 34.98 60.26 34.95 60.44 34.83L60.56 34.65L60.74 34.59C61.19 33.96 62.6 33 63.26 32.37L63.41 32.34C63.68 32.07 64.13 31.77 64.31 31.41C64.67 31.32 64.94 30.87 65.15 30.57C65.42 30.42 65.63 30.12 65.9 30L65.93 29.88C66.08 29.85 66.26 29.7 66.29 29.55C66.5 29.4 66.8 29.19 66.95 28.98V28.86L67.04 28.65C67.34 28.5 67.37 28.38 67.61 28.14L67.64 28.02C67.79 27.84 68.06 27.78 68.21 27.57V27.48L68.42 27.15L68.63 27.03C68.66 26.88 68.75 26.73 68.87 26.64C68.93 26.43 69.11 26.25 69.08 26.01C69.11 25.92 69.17 25.83 69.23 25.77C69.29 25.56 69.35 25.29 69.35 25.08C69.32 24.96 69.26 24.84 69.17 24.75V24.6C69.05 24.48 69.02 24.3 68.9 24.18C68.15 23.49 66.98 23.01 65.96 23.01C65.81 23.01 65.69 23.04 65.54 23.04L65.45 23.1C65.06 23.13 64.67 23.25 64.28 23.22C64.07 23.46 63.71 23.37 63.44 23.37L63.32 23.52L63.11 23.55L62.9 23.73C62.78 23.73 62.69 23.7 62.57 23.7C62.15 24.09 62.27 24.03 61.79 24.03H61.7L61.58 24.21C61.13 24.48 60.77 24.66 60.41 25.02C60.32 25.11 59.96 25.2 59.78 25.38L59.6 25.35L59.48 25.38C59.33 25.5 59.18 25.65 59 25.71C59 25.86 58.85 25.98 58.7 25.98L58.58 26.13C58.37 26.16 58.4 26.31 58.25 26.4C58.1 26.43 58.01 26.52 57.98 26.67L57.44 26.97C57.32 27.15 57.11 27.3 56.96 27.45C56.87 27.45 56.75 27.48 56.66 27.51L56.6 27.6L56.57 27.78C56.42 27.96 56.06 28.05 56.03 28.26L55.85 28.32C55.58 28.74 55.19 28.89 54.92 29.25L54.89 29.4C54.8 29.52 54.65 29.52 54.53 29.58C54.41 29.67 53.18 31.02 53.12 31.14H52.85C52.85 31.2 52.88 31.23 52.88 31.29C52.88 31.53 52.28 31.83 52.34 32.01C52.22 32.13 52.13 32.28 52.01 32.37C51.86 32.4 51.71 32.49 51.62 32.61C51.56 33.12 51.08 32.97 51.2 33.24C50.99 33.57 50.48 33.54 50.54 34.08C50.42 34.23 49.01 35.76 48.95 35.79C48.92 36.09 48.5 36.12 48.44 36.42C48.35 36.51 48.29 36.69 48.26 36.81C48.02 37.08 47.63 37.35 47.57 37.74C47.36 38.01 47.33 37.68 47.21 38.22L47.03 38.31C47 38.46 46.76 38.7 46.64 38.85L46.61 38.97C46.4 39.12 46.28 39.21 46.25 39.48C45.86 39.96 44.18 42.06 44.15 42.54C43.91 42.72 43.85 42.99 43.67 43.2C43.67 43.35 43.55 43.47 43.52 43.62L43.37 43.74C43.34 43.86 43.22 43.98 43.13 44.04C43.1 44.25 42.95 44.43 42.89 44.67C42.8 44.7 42.68 44.76 42.62 44.85C42.62 44.94 42.59 45.03 42.53 45.09C42.47 45.66 41.84 46.17 41.75 46.8C41.66 46.92 41.48 46.95 41.39 47.07V47.13L41.51 47.19C41.33 47.43 41.27 47.7 41.12 47.94L41 48.03C40.97 48.12 40.94 48.18 40.88 48.24C40.82 48.39 40.79 48.57 40.82 48.72C40.76 48.81 40.61 48.87 40.55 48.99C40.49 49.08 40.25 49.77 40.28 49.86L40.16 49.98V50.22L40.04 50.31L39.98 50.46V50.64C39.89 50.76 39.83 50.88 39.74 51V51.06C39.74 51.3 39.59 52.47 39.47 52.62V52.77C39.47 53.04 39.44 53.28 39.44 53.55L39.38 53.7C39.38 53.88 39.38 54.03 39.38 54.21C39.44 54.36 39.5 54.48 39.5 54.63C39.5 54.75 39.35 54.99 39.29 55.05V55.11L39.32 55.14C39.62 55.23 39.59 55.41 39.77 55.62C39.74 55.92 40.04 56.07 40.1 56.34C40.37 56.64 41.39 57.45 41.78 57.39C42.08 57.57 42.44 57.45 42.74 57.57L42.86 57.69C42.95 57.72 43.01 57.72 43.1 57.72C43.52 57.72 45.41 57.66 45.62 57.39C45.77 57.33 45.95 57.39 46.1 57.39C46.61 57.39 47.06 57 47.57 56.94L47.72 56.79C47.9 56.79 47.99 56.76 48.14 56.64H48.26C48.59 56.43 49.1 56.19 49.49 56.16L49.55 56.1C50.06 55.89 50.45 55.62 50.96 55.41C51.05 55.26 51.35 55.29 51.38 55.17C51.56 54.96 51.89 54.87 52.13 54.72C52.22 54.72 52.28 54.72 52.37 54.69C52.52 54.48 53.48 54.03 53.75 53.91C53.87 53.7 54.8 53.16 55.04 53.07C55.19 52.92 55.4 52.74 55.61 52.68C55.67 52.62 55.73 52.56 55.79 52.47C56.3 52.23 57.44 51.24 57.8 51.18C57.89 51.12 57.95 51 58.01 50.91C58.4 50.79 58.97 50.07 59.27 50.04C59.36 49.95 59.48 49.86 59.6 49.83C59.75 49.65 59.87 49.35 60.14 49.32C60.29 49.14 60.68 48.81 60.92 48.84C61.13 48.6 61.31 48.36 61.52 48.15L61.64 48.12C61.85 47.91 62.12 47.82 62.33 47.64C62.93 47.13 63.47 46.56 64.13 46.11L64.22 45.96L64.31 45.93C64.43 45.84 64.58 45.75 64.64 45.63C64.88 45.54 64.94 45.45 65.06 45.24L65.18 45.21L65.27 45.09L65.36 45.06C65.42 44.85 65.87 44.7 65.93 44.46C66.11 44.31 66.35 44.13 66.38 43.89L66.47 43.77C66.62 43.77 66.74 43.68 66.89 43.68C66.98 43.5 67.1 43.29 67.25 43.14C67.73 43.05 67.28 42.72 67.97 42.72C68.03 42.81 68.12 42.96 68.09 43.05C68 43.2 67.52 43.44 67.37 43.62L67.1 43.74V43.95L66.98 43.98L66.95 44.1L66.77 44.28V44.4L66.65 44.46V44.55C66.44 44.58 66.47 44.73 66.29 44.82L66.26 44.91L66.05 45.03L65.99 45.12V45.21L65.87 45.24C65.78 45.33 65.72 45.45 65.6 45.51L65.57 45.6H65.48L65.39 45.69L65.27 45.72V45.75L65.33 45.87C65.12 45.9 64.73 46.23 64.61 46.38H64.46V46.47L64.49 46.53L64.22 46.71L64.1 46.92C63.86 46.95 63.77 47.22 63.56 47.28C63.5 47.4 63.32 47.49 63.2 47.52C63.14 47.85 61.88 48.72 61.55 48.87C61.31 49.23 61.13 49.41 60.68 49.41V49.47L60.74 49.59V49.62C60.74 49.71 60.53 49.83 60.47 49.86H60.38C60.08 50.07 59.48 50.73 59.24 50.85H59.06C58.94 50.85 58.88 51.15 58.79 51.21C58.4 51.57 57.74 51.78 57.41 52.2C57.17 52.23 56.21 53.19 55.76 53.31C55.64 53.46 54.89 53.97 54.71 54C54.5 54.24 53.42 54.9 53.12 54.93C52.91 55.17 52.43 55.44 52.13 55.59C51.71 55.56 51.8 55.71 51.5 55.83C51.32 56.04 51.02 55.98 50.81 56.25C50.51 56.34 50.12 56.46 49.88 56.7C49.46 56.79 49.1 57.12 48.68 57.18L48.53 57.33L48.32 57.36C48.08 57.54 47.36 57.66 47.27 57.78C47.06 57.84 46.91 57.9 46.67 57.87L46.61 57.93C46.25 58.08 45.8 58.02 45.47 58.23C45.14 58.23 44.84 58.35 44.51 58.38C44.3 58.41 44.09 58.35 43.88 58.35C43.79 58.35 43.7 58.38 43.61 58.41H43.52C43.37 58.41 43.22 58.29 43.07 58.29L42.89 58.41H42.77L42.65 58.35C42.23 58.35 41.84 58.2 41.45 58.17C41.15 58.02 40.85 57.87 40.55 57.75C40.25 57.75 40.1 57.75 40.01 57.42L39.86 57.3C39.77 57.12 39.56 57.06 39.44 56.88C39.32 56.7 39.26 56.46 39.05 56.34C38.99 56.22 38.93 56.07 38.96 55.95C38.72 55.38 38.54 54.81 38.54 54.18ZM45.68 39.87V39.9L45.71 39.93L45.86 39.84H45.8C45.77 39.84 45.71 39.87 45.68 39.87ZM39.11 51.6C39.08 51.6 39.08 51.6 39.08 51.63C39.08 51.66 39.08 51.66 39.11 51.66C39.14 51.66 39.14 51.66 39.14 51.63C39.14 51.6 39.14 51.6 39.11 51.6ZM39.59 50.73L39.62 50.76H39.65V50.73L39.59 50.67V50.73ZM58.34 26.01V26.04H58.4V26.01H58.34ZM59.6 25.02C59.6 25.05 59.6 25.05 59.63 25.05V24.99C59.6 24.99 59.6 24.99 59.6 25.02ZM58.22 25.98V26.01H58.28L58.22 25.98ZM64.0984 48.81L64.0684 48.78L64.1284 48.66V48.39L64.2184 48.3V48.27L64.0984 48.15C64.3684 47.61 64.8484 46.89 65.0584 46.29L65.2684 46.2C65.3284 45.96 65.5384 45.75 65.5684 45.51L65.6584 45.42C65.7484 45.18 65.7484 45.12 65.9884 45V44.85C66.0484 44.7 66.1384 44.49 66.3184 44.46V44.34C66.4984 44.07 66.5584 44.04 66.6184 43.71C66.7084 43.71 66.8284 43.65 66.8884 43.56V43.47L66.9184 43.44L67.0984 43.41L67.1884 43.2C67.2484 43.17 67.3384 43.08 67.3684 43.02C67.6084 42.96 67.5784 42.78 67.7284 42.66C67.7284 42.54 67.8184 42.45 67.9084 42.36L68.0584 42.33C68.2684 42.09 68.2984 41.94 68.7184 41.7H68.7484L68.9884 41.58H69.1084C69.2284 41.58 69.5884 41.91 69.5584 42L69.6484 42.12C69.6184 42.21 69.5884 42.33 69.5884 42.42C69.6784 42.54 70.1284 42.81 70.3084 42.99C70.3084 43.11 70.3684 43.26 70.4284 43.35V43.41C70.4284 43.56 70.4884 43.71 70.4884 43.86C70.4884 43.98 70.4584 44.1 70.4584 44.22L70.3684 44.34H70.2484V44.37L70.4284 44.55C70.3084 44.85 69.4384 46.41 69.4384 46.5C69.1684 46.77 68.8984 47.04 68.6584 47.31V47.55C68.5984 47.61 68.5084 47.64 68.4184 47.67L68.3584 47.76C68.1484 47.85 68.0284 47.94 67.9984 48.18C67.9384 48.27 67.8184 48.3 67.6984 48.3C67.7284 48.36 67.7284 48.45 67.7284 48.51C67.3684 48.6 67.2484 49.02 66.7984 48.96C66.7084 49.05 66.6184 49.14 66.5584 49.26H66.4984C66.3484 49.26 66.2584 49.32 66.1384 49.35L65.9284 49.56C65.7484 49.62 65.4184 49.65 65.2084 49.65C64.7284 49.41 64.7284 49.44 64.3384 49.05L64.3084 48.93C64.2484 48.87 64.1884 48.84 64.0984 48.81ZM65.0284 48.15V48.3C65.0884 48.39 65.0884 48.54 65.1184 48.66L65.2684 48.75H65.4784C65.9284 48.75 66.5584 48.12 66.9484 48.09C67.2184 47.88 67.9084 46.83 68.2384 46.8L68.2984 46.65L68.4184 46.56L68.4784 46.44L68.8384 46.2L68.7484 46.08C69.0484 45.78 69.1684 45.36 69.4684 45.09C69.5284 44.91 69.6184 44.76 69.6784 44.58C69.7084 44.46 69.6784 44.22 69.7684 44.13V43.74C69.7684 43.68 69.7384 43.59 69.7384 43.53C69.6484 43.44 69.6784 43.2 69.5884 43.14H69.4984L69.4384 43.17H69.3484L69.2584 43.11H69.1084C69.0784 43.11 69.0484 43.14 69.0184 43.14C68.8084 43.68 68.0584 44.37 67.9684 44.7C67.7884 44.82 67.6684 44.97 67.6084 45.18C67.4284 45.33 67.3084 45.54 67.0684 45.63L67.0384 45.75C66.9484 45.87 66.7684 45.99 66.7384 46.14L66.5584 46.29L66.3184 46.38C66.2884 46.62 66.1384 46.65 65.9884 46.8L65.9584 46.89L65.8684 46.95H65.7184L65.6584 47.1L65.3284 47.43V47.55C65.1784 47.73 65.1184 47.94 65.0284 48.15ZM69.1984 46.17L69.1384 46.23V46.29L69.1984 46.32H69.2284V46.17H69.1984ZM66.5584 45.36C66.5584 45.39 66.5584 45.39 66.5884 45.39C66.6184 45.39 66.6184 45.39 66.6184 45.36C66.6184 45.33 66.6184 45.33 66.5884 45.33C66.5584 45.33 66.5584 45.33 66.5584 45.36ZM65.4784 46.08C65.4784 46.11 65.4784 46.11 65.5084 46.11C65.5384 46.11 65.5384 46.11 65.5384 46.08C65.5384 46.05 65.5384 46.05 65.5084 46.05C65.4784 46.05 65.4784 46.05 65.4784 46.08ZM69.4084 45.51V45.57H69.4684V45.54L69.4084 45.51ZM66.4984 44.97C66.4684 44.97 66.4684 44.97 66.4684 45C66.4684 45.03 66.4684 45.03 66.4984 45.03C66.5284 45.03 66.5284 45.03 66.5284 45C66.5284 44.97 66.5284 44.97 66.4984 44.97ZM69.2284 42.63C69.2284 42.66 69.2284 42.66 69.2584 42.66V42.6C69.2284 42.6 69.2284 42.6 69.2284 42.63ZM65.5084 46.02C65.5084 46.05 65.5084 46.05 65.5384 46.05C65.5684 46.05 65.5684 46.05 65.5684 46.02H65.5084ZM72.4552 47.43L72.3052 47.28V47.16L72.3652 47.04V46.83L72.5452 46.65V46.62L72.3952 46.56L72.3352 46.44C72.4252 46.35 72.4552 46.23 72.4852 46.11L72.6052 45.99L72.5452 45.87C72.6652 45.57 72.8152 45.27 72.9052 44.94L72.9952 44.85L72.9652 44.7C73.0852 44.64 73.2352 44.61 73.3552 44.58L73.3852 44.55L73.2652 44.31V44.28L73.4452 44.16C73.4752 44.04 73.5352 43.95 73.5952 43.86L73.5652 43.8V43.71L73.7152 43.68C73.7752 43.62 73.8352 43.59 73.8952 43.53L73.9252 43.44C74.1652 43.14 74.3452 42.78 74.7652 42.78V42.54C74.8552 42.39 75.0052 42.39 75.0352 42.21C75.1852 42.06 75.3652 41.85 75.5452 41.73L75.6952 41.7C75.8152 41.58 75.9052 41.43 76.0552 41.31C76.4452 41.19 76.7452 40.89 77.1352 40.77C77.2552 40.62 77.4352 40.56 77.6452 40.56C77.8852 40.56 78.1252 40.65 78.2452 40.89C78.2452 41.04 78.3052 41.13 78.3952 41.25C78.3952 41.31 78.4252 41.4 78.4252 41.46C78.4252 41.58 78.3352 41.67 78.3652 41.79L78.2752 41.91L78.2452 42.06L78.0052 42.3L77.9752 42.48C77.8252 42.66 77.5852 42.75 77.4352 42.93V43.08C77.3452 43.17 77.2852 43.29 77.2252 43.41C77.0752 43.44 76.9552 43.56 76.8652 43.68C76.8652 43.98 76.8652 44.1 76.6252 44.31C76.5052 44.34 76.3552 44.43 76.2652 44.52V44.61L76.1752 44.7C76.1152 45.06 75.8452 44.91 75.7852 45.21C75.6652 45.3 75.4852 45.45 75.4552 45.6C75.3652 45.63 75.2752 45.66 75.2452 45.75C75.0052 45.93 74.7952 46.14 74.5552 46.32L74.3152 46.38C74.2552 46.41 74.2552 46.53 74.2252 46.59C74.1052 46.74 73.8952 46.86 73.7452 47.01V47.13L73.6552 47.16L73.5052 47.1H73.4452C73.3852 47.13 73.3852 47.22 73.3852 47.28C73.3852 47.46 73.4452 47.67 73.5352 47.82L73.6252 47.85C73.7452 47.97 73.8652 48.09 74.0152 48.18L74.1952 48.21C74.2852 48.39 74.3452 48.48 74.5252 48.57H74.6152L74.6452 48.45C74.9152 48.45 75.1852 48.48 75.4552 48.48C75.6652 48.48 75.8452 48.42 76.0552 48.42L76.1152 48.39C76.2052 48.39 76.3252 48.39 76.4152 48.36L76.6252 48.39L76.8352 48.21C76.9252 48.21 77.0152 48.21 77.0752 48.24C77.2552 48.06 77.4352 48.18 77.5552 47.91L77.6752 47.97H77.7052C77.8852 47.88 78.0652 47.85 78.2452 47.79L78.3052 47.73C79.2652 47.43 80.1052 46.86 81.0352 46.47L81.0952 46.41L81.3052 46.38L81.6352 46.14L81.6652 46.05L81.7252 46.02L81.9952 45.99C82.4152 45.6 82.7752 45.51 83.1652 45.21L83.1952 45.12L83.3452 45H83.6752L83.7652 44.94L83.8252 44.73L83.9752 44.58H84.0952C84.1552 44.58 84.3052 44.7 84.3352 44.73V44.76L84.2452 44.97C83.8852 45 83.9152 44.94 83.9152 45.27L83.8252 45.36L83.5252 45.39L83.4652 45.45V45.57C83.2852 45.69 83.1352 45.72 82.9252 45.75L82.8952 45.93C82.7152 46.11 82.4152 46.47 82.1152 46.47C81.9952 46.65 81.6352 46.77 81.4252 46.83C81.3052 46.98 81.0952 47.07 80.9452 47.19C80.6452 47.22 80.4652 47.52 80.1652 47.52L80.1352 47.55V47.67L79.8952 47.79H79.6852L79.4152 47.97L79.2352 48C79.1452 48.12 78.9652 48.12 78.8152 48.15L78.7252 48.27C78.6052 48.27 78.4552 48.3 78.3352 48.33C78.2752 48.39 78.2152 48.45 78.1252 48.45C78.0352 48.54 77.9452 48.66 77.8252 48.66L77.6752 48.6V48.48L77.5852 48.39V48.63C77.4952 48.72 77.3752 48.78 77.2552 48.84L77.0752 48.81C76.9252 48.84 76.7752 48.87 76.6852 48.99C76.2352 49.11 75.7852 49.08 75.3352 49.11L75.2452 49.17H75.1252L74.4352 49.05H74.3752C74.2252 49.05 74.1052 48.99 73.9852 49.02C73.7452 48.93 72.9952 48.39 72.8452 48.18V48C72.7852 47.85 72.5452 47.88 72.4852 47.73L72.4552 47.43ZM73.3852 45.75C73.3852 45.96 73.2352 46.2 73.2352 46.23C73.2952 46.32 73.3552 46.38 73.4752 46.38C73.6252 46.35 73.8652 46.02 73.9552 45.9C74.1352 45.9 74.2552 45.81 74.2852 45.63C74.3752 45.48 74.5552 45.36 74.7052 45.3C74.7652 45.24 74.7952 45.18 74.8552 45.12L74.9152 44.91L75.0352 44.88L75.9052 44.04L75.9352 43.95L76.0852 43.77C76.2052 43.71 76.2952 43.68 76.3852 43.59C76.3852 43.47 76.3852 43.35 76.4452 43.26H76.5352L76.5952 43.17L76.6852 43.14V43.05C76.9552 42.69 77.0152 42.6 77.1352 42.21C77.2252 42.12 77.3452 42.06 77.4352 42V41.94L77.3452 41.76V41.7H77.5252L77.5852 41.61H77.3452C77.2252 41.7 77.1352 41.82 77.0152 41.91H76.8352L76.6852 42.06C76.5952 42.09 76.4752 42.12 76.3852 42.18H76.3552C75.9052 42.18 75.5752 43.02 75.1552 43.11C75.1552 43.17 75.1852 43.2 75.1852 43.26C75.1852 43.35 74.9752 43.5 74.9152 43.56L74.8852 43.65C74.7652 43.77 74.6752 43.86 74.6152 44.01L74.3452 44.13L74.2852 44.19C74.2252 44.37 74.2852 44.43 74.0752 44.52L74.0452 44.64L73.9852 44.7L73.9552 44.85C73.7752 45.06 73.5352 45.12 73.4452 45.42V45.66L73.3852 45.75ZM76.4452 41.37L76.4752 41.4H76.6552C76.6852 41.4 76.7452 41.37 76.7752 41.37V41.28L76.7452 41.25H76.6252L76.5652 41.31H76.4452V41.37ZM77.8252 41.79L77.7352 41.88V41.97L77.7652 42H77.8252L77.9452 41.91V41.88L77.8852 41.79H77.8252ZM76.8952 41.1L76.9852 41.19L77.0452 41.16V41.04H76.9252L76.8952 41.07V41.1ZM76.5952 43.47L76.6252 43.5H76.6552L76.7152 43.38L76.6552 43.32H76.6252L76.5952 43.35V43.47ZM77.4052 41.07C77.4352 41.1 77.4352 41.13 77.4052 41.16V41.19L77.4652 41.25H77.4952V41.19C77.4952 41.13 77.4652 41.07 77.4652 41.01L77.4052 40.98V41.07ZM77.1352 41.43L77.1052 41.49V41.58H77.1652L77.2252 41.55V41.46L77.1652 41.43H77.1352ZM75.3052 44.91V44.94H75.4252L75.4552 44.91V44.88L75.4252 44.85H75.3352L75.3052 44.91ZM75.5752 44.58V44.64L75.6352 44.7H75.6652V44.61L75.6352 44.58H75.5752ZM75.9652 41.64L76.0552 41.73L76.0852 41.7V41.64H75.9652ZM74.7052 45.54V45.6L74.7352 45.63H74.7652L74.7952 45.6V45.57L74.7652 45.54H74.7052ZM74.2852 43.68L74.2552 43.71V43.74H74.3152V43.68H74.2852ZM77.5852 42.24V42.33H77.6452C77.6152 42.3 77.6152 42.27 77.5852 42.24ZM77.1052 40.98H77.0452C77.0452 41.01 77.0452 41.01 77.0752 41.01C77.1052 41.01 77.1052 41.01 77.1052 40.98ZM74.5552 43.23H74.4952C74.4952 43.26 74.4952 43.26 74.5252 43.26C74.5552 43.26 74.5552 43.26 74.5552 43.23ZM76.3552 41.97L76.3852 42V41.97H76.3552ZM77.6851 53.1V53.01C77.6851 52.92 77.7151 52.83 77.7151 52.74C77.8051 52.71 77.9251 52.65 77.9851 52.56C78.0151 52.47 78.0151 52.41 78.0151 52.32C78.1351 52.17 78.4651 51.75 78.6451 51.72L78.6751 51.66V51.51C78.9451 51.18 80.0851 50.43 80.1451 50.16L80.2651 50.07L80.2951 49.95C80.6551 49.62 80.9251 49.14 81.3451 48.87L81.4951 48.63C81.7651 48.57 82.2151 47.85 82.4851 47.64C82.7251 47.58 82.8451 47.34 83.0851 47.25L83.1151 47.16C83.2351 47.04 83.3851 46.92 83.4751 46.77C83.6251 46.74 83.7151 46.56 83.7451 46.44L83.8051 46.38H83.9551L83.9851 46.29L83.8951 46.23L83.7751 46.26L83.6851 46.14L83.7751 46.02V45.87L83.8351 45.75C83.8351 45.36 83.8351 44.85 84.1051 44.55V44.28C84.1951 44.07 84.3751 43.38 84.5251 43.26C84.5251 43.17 84.5251 43.05 84.5551 42.96H84.6451V42.81C84.7351 42.66 84.9151 42.36 84.9151 42.18C85.0951 41.97 85.5151 40.77 85.4851 40.53L85.6651 40.26V40.14C85.7251 40.02 85.8151 39.93 85.9051 39.84C85.9051 39.72 85.9651 39.63 85.9951 39.51L86.0851 39.42C86.1451 39.12 86.2351 39.06 86.3551 38.79V38.7C86.5651 38.49 86.5651 38.19 86.7751 37.98V37.95C86.7751 37.74 86.9551 37.47 87.0151 37.26L87.1351 37.14L87.2851 37.11L87.3751 37.05H87.4351C87.5851 37.11 87.7051 37.23 87.8551 37.26V37.35L87.7951 37.41C87.7351 37.56 87.7651 37.74 87.7351 37.92L87.6751 37.98L87.7051 38.13C87.6451 38.31 87.5551 38.49 87.5251 38.67C87.3451 38.91 87.1051 39.21 86.8651 39.36C86.8951 39.54 86.8351 39.6 86.7151 39.72L86.6251 39.75V39.87L86.5351 40.02V40.17C86.4751 40.26 86.3251 40.29 86.2951 40.41L86.3551 40.56V40.65L86.1451 40.95V41.19C86.0551 41.28 86.0551 41.43 86.0551 41.55C85.9351 41.67 85.9051 41.85 85.7851 41.94V42.06C85.6351 42.3 85.4551 42.57 85.3651 42.84L85.3951 42.99L85.3651 43.05L85.2151 43.14C85.1251 43.29 84.9451 44.07 84.9451 44.25C84.8251 44.43 84.8851 44.7 84.6751 44.85C84.6451 45 84.6751 45.15 84.6151 45.3L84.6451 45.45L84.5551 45.54V45.78L84.6151 45.87H84.7351C85.3051 45.63 85.7551 45.06 86.3251 44.85C86.4451 44.7 86.9251 44.4 87.1051 44.25C87.1951 44.25 87.3151 44.22 87.4051 44.16L87.4351 44.04C87.5851 43.98 87.7051 43.92 87.7951 43.8H87.9151C87.9451 43.68 88.7551 43.08 88.9051 43.02L89.0251 42.9H89.2351L89.2951 42.87C89.3551 42.72 89.4751 42.63 89.6251 42.6C89.7451 42.51 89.8951 42.45 89.9851 42.33L90.1351 42.3C90.3751 42.15 90.6151 41.97 90.8851 41.82C90.9451 41.82 91.0651 41.82 91.1251 41.85L91.2151 41.64C91.2751 41.58 91.3651 41.55 91.4551 41.52L91.5151 41.43L91.6051 41.4C91.8751 41.01 93.0751 40.68 93.5851 40.2C93.8851 40.11 94.1851 40.05 94.4551 39.93C94.4851 39.93 94.8451 39.81 94.7251 39.72V39.63L94.7551 39.6H94.8451C95.0251 39.6 95.2051 39.54 95.3851 39.51C95.4451 39.45 95.5351 39.42 95.5951 39.39H96.2251L96.2851 39.42C96.8851 39.45 96.8551 39.75 97.2451 39.81L97.3051 39.87C97.3351 39.99 97.3651 40.08 97.3651 40.2L97.3351 40.26V40.35C97.2751 40.44 97.2451 40.56 97.2151 40.68L97.0651 40.83L97.0351 40.98L96.9751 41.04C96.9451 41.31 96.7951 41.49 96.5851 41.67V41.79L96.3751 42C96.3151 42.33 95.8951 42.99 95.6851 43.23C95.5951 43.26 95.5051 43.32 95.4451 43.38C95.3551 43.71 95.2051 44.01 94.9351 44.22L94.8751 44.4C94.6351 44.67 94.3951 45 94.0951 45.24C94.0351 45.51 93.5851 45.96 93.3751 46.11L93.3451 46.26L93.1351 46.35C93.0451 46.8 92.5351 46.92 92.4751 47.19C92.2951 47.34 92.1751 47.55 92.0251 47.7L91.9651 47.85C91.7251 47.97 91.5751 48.24 91.3051 48.3C91.2151 48.54 90.7651 48.9 90.5551 49.02C90.4651 49.29 89.2351 50.16 88.9651 50.22L88.9051 50.34C88.6351 50.49 88.3951 50.67 88.0951 50.79H88.0051C87.4951 51.21 86.9551 51.24 86.5351 51.54H86.3851L86.3251 51.51H86.2051C85.9351 51.51 85.6951 51.57 85.4251 51.57C84.5851 51.57 83.8051 49.44 83.7451 49.38V49.29C83.7451 48.9 83.6251 48.54 83.6551 48.15L83.5651 47.88L83.5051 47.82H83.3851C83.3251 47.82 83.2051 47.88 83.1451 47.88C83.0851 47.94 83.0251 48.03 82.9951 48.09C82.8451 48.18 82.8451 48.24 82.7251 48.33C82.5751 48.45 82.3351 48.42 82.2151 48.57C82.2151 48.66 82.2451 48.72 82.2451 48.81L81.9151 48.99L81.7651 49.32C81.6751 49.32 81.5851 49.32 81.5251 49.38L81.4951 49.5L81.1351 49.8C81.0751 49.95 81.0151 50.07 80.8351 50.1L80.7451 50.19C80.7151 50.34 80.7151 50.4 80.5351 50.46C80.3551 50.73 80.0551 50.94 79.9051 51.24C79.7551 51.3 78.9451 52.17 78.9451 52.29C78.9451 52.44 78.9151 52.62 78.9151 52.77C79.0051 52.86 79.0351 53.07 79.0651 53.19C78.9451 53.25 78.8251 53.31 78.7351 53.43H78.2551L77.6851 53.1ZM84.3151 47.85V47.88C84.4651 48.12 84.4951 48.6 84.4651 48.9L84.5251 49.02L84.4951 49.14C84.5551 49.26 84.5551 49.41 84.6451 49.53V49.59C84.6451 49.8 84.7651 50.01 84.8851 50.19C85.4851 51.15 85.2151 50.64 85.9951 51.03H86.0551L86.1451 50.91H86.4451C86.7151 50.76 87.0451 50.76 87.3151 50.61C87.5851 50.46 87.8551 50.25 88.1551 50.13L88.1851 50.04C88.5751 49.86 89.5351 49.35 89.7451 49.05H89.8651L89.9551 48.81C90.2251 48.72 90.3751 48.39 90.6451 48.3C90.7051 48.18 90.7951 48.06 90.9151 48L90.9451 47.91L91.0651 47.88L91.1251 47.76L91.2751 47.64C91.3651 47.37 91.6951 47.25 91.8451 47.04L91.9951 46.98C92.1751 46.74 92.7751 45.87 93.0151 45.81C93.0751 45.57 93.2851 45.45 93.4351 45.27L93.4651 45.12C93.6751 44.91 94.4851 43.92 94.6051 43.89L94.6351 43.83V43.71C94.6951 43.59 94.8451 43.56 94.9351 43.47L94.9651 43.32C95.1451 43.14 94.9951 43.02 95.3551 42.9V42.72L95.3851 42.66C95.5351 42.54 95.6551 42.42 95.6851 42.24C95.7451 42.18 95.8351 42.15 95.8951 42.06L95.9251 41.91L96.0451 41.76L96.0751 41.58L96.1651 41.52C96.1951 41.43 96.2251 41.37 96.3151 41.34L96.7051 40.5V40.35L96.6151 40.2C96.3751 40.14 96.1351 40.14 95.8951 40.14C95.7151 40.14 95.5651 40.17 95.3851 40.17C94.7851 40.41 93.9751 40.8 93.3751 40.8C93.3151 40.89 93.1951 40.92 93.1351 41.01L92.9251 41.1C92.8051 41.28 92.5651 41.34 92.3851 41.4L92.2651 41.37L92.2351 41.43H92.3251C92.2051 41.58 91.1851 42.18 90.9751 42.21C90.8851 42.3 90.8251 42.39 90.7351 42.48H90.5551C90.5251 42.6 90.4051 42.69 90.2851 42.66L90.1651 42.51H90.1351L90.1951 42.69L90.0751 42.84L89.6851 43.02C89.5951 43.26 88.9351 43.35 88.7551 43.62L88.7251 43.71C88.5451 43.83 88.3351 43.95 88.1851 44.1C87.7951 44.16 85.7851 45.84 85.4251 45.9C85.3351 46.32 84.3151 46.2 84.4051 47.1L84.3451 47.25C84.3451 47.43 84.3751 47.61 84.3751 47.79L84.3151 47.85ZM84.1351 45.66V45.69L84.2251 45.78H84.2851L84.3151 45.75V45.69L84.2551 45.63H84.1651L84.1351 45.66ZM89.8351 42.81L90.0451 42.75L89.9851 42.69H89.9551L89.8351 42.75V42.81ZM96.4951 41.34L96.4051 41.4L96.5251 41.46L96.5551 41.43V41.37L96.5251 41.34H96.4951ZM85.9651 40.53H86.0551V40.47L85.9951 40.44L85.9651 40.47V40.53ZM93.8551 44.91V44.94L93.8851 45H93.9751V44.97L93.8551 44.91ZM96.8851 40.77V40.8H96.9751V40.74H96.9151L96.8851 40.77ZM83.9851 48.03C84.0151 48.06 84.0451 48.06 84.0751 48.09L84.1051 48.06V48.03H83.9851ZM88.4851 43.47C88.4851 43.5 88.4851 43.5 88.5151 43.5C88.5451 43.5 88.5451 43.5 88.5451 43.47C88.5451 43.44 88.5451 43.44 88.5151 43.44C88.4851 43.44 88.4851 43.44 88.4851 43.47ZM95.5651 43.08C95.5651 43.11 95.5651 43.11 95.5951 43.11C95.6251 43.11 95.6251 43.11 95.6251 43.08C95.6251 43.05 95.6251 43.05 95.5951 43.05C95.5651 43.05 95.5651 43.05 95.5651 43.08ZM85.8451 40.68C85.8451 40.71 85.8451 40.71 85.8751 40.71C85.9051 40.71 85.9051 40.71 85.9051 40.68C85.9051 40.65 85.9051 40.65 85.8751 40.65C85.8451 40.65 85.8451 40.65 85.8451 40.68ZM89.6251 49.68C89.6251 49.71 89.6251 49.71 89.6551 49.71V49.65C89.6251 49.65 89.6251 49.65 89.6251 49.68ZM90.3751 42.3C90.3751 42.33 90.3751 42.33 90.4051 42.33C90.4351 42.33 90.4351 42.33 90.4351 42.3H90.3751ZM91.3651 48.12H91.3351V48.15H91.3651V48.12ZM86.1151 45.3H86.0551L86.1151 45.33V45.3ZM79.0051 51.75V51.78H79.0351V51.75H79.0051ZM94.2751 40.47H94.2451V40.5H94.2751V40.47ZM94.0175 49.02C94.0175 48.87 94.0475 48.75 94.0475 48.6C94.1075 48.51 94.1975 48.45 94.2575 48.36V48.21C94.2575 48.15 94.2275 48.12 94.2275 48.06L94.0775 47.94L94.2575 47.85C94.3475 47.61 94.6775 47.25 94.6475 46.98L94.6775 46.92V46.77C94.8875 46.65 94.9175 46.56 95.0375 46.38V46.2L95.1575 46.05L95.1875 45.93L95.3675 45.75V45.63C95.5175 45.45 95.7575 45.42 95.7875 45.15C95.9075 45.03 95.9675 44.88 96.0875 44.76V44.55L96.2675 44.37C96.2975 44.28 96.3875 44.16 96.3275 44.07C96.6575 43.92 96.6275 43.92 96.8375 43.65C96.8675 43.47 96.9875 43.35 97.1375 43.26C97.1975 43.14 97.1975 42.99 97.2575 42.84L97.3175 42.78C97.4075 42.78 97.5275 42.75 97.5875 42.66L97.5575 42.45C97.7075 42.24 97.8575 42 98.0975 41.88C98.1275 41.73 98.2475 41.61 98.3675 41.52V41.4L98.5175 41.25C98.5475 41.07 98.7875 40.95 98.9075 40.83L99.0575 40.8L99.1775 40.62C99.5975 40.35 99.6275 40.2 100.168 40.2C100.228 40.2 100.288 40.2 100.348 40.23L100.528 40.5L100.498 40.62L100.528 40.68V40.83L100.588 40.92L100.558 40.95C100.378 41.01 100.198 41.1 100.108 41.28C100.018 41.34 99.8975 41.34 99.7775 41.34L99.5375 41.52V41.61L99.4175 41.76C99.2675 41.82 98.9975 41.94 98.9075 42.09C98.8475 42.27 98.6975 42.36 98.5775 42.51C98.4275 42.54 98.3075 42.63 98.1575 42.69V42.78C98.0675 42.96 97.8875 43.11 97.8575 43.32C97.6775 43.56 97.3175 43.68 97.2875 44.04L97.1675 44.1L97.2275 44.16V44.22L97.1975 44.25C96.9275 44.31 97.1975 44.4 96.8975 44.52V44.55L96.9875 44.58V44.64C96.9275 44.7 96.7175 44.73 96.6275 44.76L96.5075 44.73L96.5675 44.88L96.6575 44.97C96.5675 45.06 96.4775 45.12 96.3875 45.21C96.3875 45.3 96.3575 45.39 96.3575 45.48C96.2675 45.54 96.1775 45.63 96.0875 45.72L95.9375 45.78L95.8475 45.9V45.96L95.9375 46.02L95.6975 46.26L95.6675 46.41L95.7275 46.47L95.5775 46.65L95.6675 46.71L95.4875 46.8L95.3975 46.95L95.4275 47.04L95.3375 47.1L95.2775 47.4L95.2475 47.43C95.1575 47.43 95.0675 47.4 94.9775 47.4L94.8875 47.61C94.9775 47.67 95.0375 47.76 95.1275 47.82V47.85L95.0975 47.91V48.06C95.0375 48.15 94.9475 48.18 94.8875 48.24V48.33L94.8575 48.36V48.51L94.8875 48.54V48.63L94.8275 48.72V49.23L94.8875 49.32C94.8575 49.53 94.9775 49.71 94.9475 49.92C95.6075 50.34 95.1275 50.46 96.2675 50.46C96.4775 50.46 96.6875 50.34 96.8975 50.31L96.9875 50.13H97.3775C97.6775 49.83 97.7375 49.92 98.0975 49.8L98.1275 49.77V49.68C98.4275 49.5 98.7875 49.2 99.1175 49.08L99.2075 49.11C99.2975 49.05 99.3575 48.99 99.3875 48.87C99.5075 48.78 99.6875 48.72 99.8375 48.69L99.9275 48.54L100.138 48.51L100.198 48.45L100.168 48.39L100.228 48.33C100.468 48.24 101.068 47.97 101.128 47.73C101.278 47.52 101.878 47.1 102.118 47.04L102.147 47.01V46.86C102.388 46.68 102.568 46.53 102.778 46.35L102.958 46.32C102.928 46.14 103.078 46.02 103.198 45.93L103.228 45.84L103.408 45.72V45.66C103.738 45.42 104.008 45.09 104.248 44.79C104.518 44.7 104.578 44.73 104.668 44.43C104.818 44.31 104.818 44.16 105.028 44.07C105.058 43.83 105.358 43.56 105.568 43.5L105.628 43.35V43.26C105.718 43.17 105.808 43.11 105.898 43.02C105.958 42.84 106.018 42.81 106.198 42.84L106.288 42.69L106.258 42.54L106.348 42.45L106.438 42.42L106.738 42.18L106.798 42.03L106.738 41.94V41.91L107.278 41.58L107.308 41.46L107.518 41.28L107.638 41.25L107.728 41.1L107.848 41.04L107.818 40.95C107.938 40.89 108.028 40.8 108.118 40.71V40.62C108.208 40.53 108.268 40.44 108.358 40.35C108.478 40.32 108.538 40.23 108.658 40.17L108.718 39.99L109.228 39.72C109.258 39.39 109.408 39.51 109.498 39.42H109.618C109.738 39.57 109.888 39.66 110.038 39.78V39.87L110.128 39.96L110.008 40.02V40.05C110.068 40.23 110.218 40.47 110.218 40.65L110.098 40.74L110.128 40.92L110.038 41.04L110.128 41.1V41.37L110.008 41.52L110.038 41.61C109.948 41.7 109.918 41.82 109.918 41.94V42L110.008 42.12H109.857L109.888 42.21L109.857 42.27L109.738 42.33L109.798 42.48V42.69L109.768 42.75L109.857 42.81L109.918 42.93L109.857 42.99L109.708 43.02C109.678 43.08 109.738 43.11 109.738 43.17C109.738 43.26 109.618 43.41 109.558 43.5V43.53L109.678 43.65V43.71L109.587 43.8L109.678 43.83C109.528 43.83 109.378 43.86 109.258 43.92L109.468 43.98V44.07C109.348 44.19 109.258 44.31 109.168 44.43L109.228 44.49L109.198 44.58C109.258 44.64 109.318 44.67 109.378 44.73L109.168 44.76L109.018 44.88L109.078 44.97L108.988 45.15C109.048 45.24 109.108 45.33 109.198 45.39H109.258L109.378 45.33C109.587 45.3 109.798 45.33 109.948 45.18C110.308 45.15 110.518 44.94 110.848 44.82H110.967C111.238 44.61 113.698 44.28 114.448 43.83H114.718V43.74C114.868 43.74 115.018 43.62 115.198 43.65C115.288 43.62 115.408 43.56 115.468 43.47C115.528 43.44 115.618 43.44 115.708 43.44H115.918L116.278 43.74L115.978 43.92L115.948 44.04C115.708 44.07 115.438 44.16 115.228 44.28L115.138 44.25L115.108 44.28C114.718 44.28 114.388 44.49 114.058 44.64H113.908L113.818 44.7C113.758 44.67 113.698 44.67 113.638 44.67C113.458 44.67 113.278 44.91 113.098 44.88L113.038 44.94C112.648 45 112.168 45.18 111.808 45.15L111.688 45.24L111.598 45.15L111.478 45.18V45.27L111.387 45.3L111.238 45.42C111.178 45.42 111.118 45.39 111.058 45.39C110.908 45.39 110.788 45.54 110.638 45.6C110.488 45.66 110.308 45.69 110.188 45.78H110.128C109.828 45.78 109.587 45.96 109.288 45.96L109.228 46.02L109.108 45.99C108.958 46.17 108.718 46.26 108.628 46.47L108.508 46.53V46.59C108.418 46.71 108.298 46.86 108.118 46.86V47.1C108.058 47.16 108.028 47.22 107.968 47.28L108.028 47.34V47.37C107.968 47.43 107.968 47.52 107.908 47.58L107.788 47.64V47.67C107.788 47.76 107.638 47.73 107.668 47.85L107.578 47.94L107.608 47.97C107.518 48.12 107.368 48.18 107.248 48.33V48.36L107.008 48.54L107.038 48.66L106.948 48.69L106.828 48.84V48.93C106.708 48.93 106.588 49.14 106.528 49.2C106.138 49.59 105.718 49.92 105.238 50.19C105.088 50.16 104.698 50.37 104.488 50.4C104.278 50.28 104.158 50.04 104.008 49.86V49.38L104.128 49.26C104.158 49.17 104.188 49.08 104.248 49.02V48.69C104.398 48.54 105.058 47.88 105.118 47.76C105.298 47.61 105.568 47.55 105.718 47.34C105.898 47.28 106.108 47.16 106.168 46.95C106.618 46.71 107.068 46.47 107.488 46.17L107.638 46.2V46.14C107.788 46.02 107.938 45.87 108.088 45.72V45.69C108.328 45.51 108.418 44.37 108.748 43.98C108.748 43.89 108.718 43.8 108.718 43.68V43.62C108.808 43.56 108.838 43.41 108.928 43.32V43.2L109.078 43.08L109.048 42.93C109.078 42.87 109.168 42.6 109.168 42.54C109.168 42.48 109.108 42.42 109.078 42.36V42.24L109.138 42.18C109.168 42.06 109.168 41.97 109.198 41.85L109.288 41.76L109.318 41.64L109.228 41.49V41.37L109.318 41.25V41.1C109.318 40.95 109.348 40.74 109.438 40.62V40.53C109.438 40.47 109.348 40.32 109.318 40.29H109.288L109.258 40.32C109.078 40.35 108.928 40.44 108.808 40.59V40.68L108.688 40.8H108.568L108.598 40.86L108.448 41.01L108.328 41.04L108.298 41.1L108.358 41.19L108.148 41.28C108.088 41.43 107.908 41.49 107.878 41.64L107.788 41.7V41.76L107.728 41.82C107.608 41.85 107.518 41.91 107.398 41.94L107.428 42.03L107.248 42.15L107.068 42.45L106.978 42.48L106.888 42.63L106.768 42.69L106.798 42.75C106.798 42.84 106.678 42.87 106.618 42.93V43.02C106.438 43.08 106.318 43.2 106.138 43.26L106.228 43.29V43.35C106.138 43.38 106.048 43.44 106.018 43.53L105.928 43.59L105.898 43.83C105.628 43.92 105.358 44.28 105.148 44.49L105.208 44.55C105.148 44.61 105.118 44.7 105.088 44.79C104.968 45 104.398 45.24 104.188 45.57L104.068 45.6L103.978 45.75L103.858 45.81V45.93L103.888 45.99L103.708 46.05L103.678 46.17C103.618 46.2 103.348 46.35 103.378 46.44C103.228 46.5 103.108 46.68 103.018 46.8L103.048 46.89L103.018 46.92C102.808 46.98 102.658 47.1 102.448 47.16L102.418 47.19V47.28L102.357 47.4L102.028 47.67C101.848 47.73 101.818 47.67 101.818 47.85L101.788 47.88C101.698 47.91 101.608 47.97 101.518 48C101.188 48.33 101.368 48.45 100.828 48.51L100.888 48.54C100.888 48.69 100.378 48.93 100.228 48.93L100.198 49.02H100.078L99.8975 49.11V49.2C98.9075 49.83 98.2475 50.43 97.1675 50.67C96.9875 50.88 96.0575 51.15 95.7875 51.15C95.7575 51.15 95.7275 51.15 95.6975 51.12C95.6075 51.12 95.4875 51.12 95.3975 51.09L95.3375 51.03L95.1275 50.97C95.0075 50.85 94.8875 50.76 94.7675 50.67C94.0475 50.55 94.0175 49.59 94.0175 49.02ZM104.938 49.26L105.088 49.47L105.328 49.5C105.478 49.35 105.658 49.23 105.808 49.08L105.838 48.99C106.048 48.75 106.318 48.6 106.498 48.36L106.528 48.12C106.618 48.09 106.678 48.06 106.768 48.06V47.94C106.828 47.88 106.888 47.85 106.948 47.79C107.008 47.58 107.128 47.64 107.218 47.52V47.37L107.278 47.34V47.25H107.098C107.068 47.25 107.038 47.28 107.008 47.28L107.038 47.4L107.008 47.43L106.888 47.37L106.858 47.46L106.888 47.49L106.978 47.46V47.49L106.888 47.61L106.708 47.58L106.648 47.52C106.558 47.52 106.498 47.61 106.468 47.67V47.7C106.348 47.82 106.258 47.94 106.108 48.03L106.048 48.12C105.928 48.18 105.838 48.24 105.718 48.27L105.628 48.36V48.45L105.478 48.66L105.388 48.69L105.238 48.81L105.178 48.96C105.118 49.02 104.938 49.17 104.938 49.26ZM101.248 36.09L101.518 35.82L101.608 35.79C101.848 35.85 101.938 35.82 102.147 35.82C102.268 35.82 102.388 35.85 102.508 35.85L102.568 35.94V36L102.388 36.24C102.478 36.39 102.568 36.54 102.688 36.66L102.658 36.69C102.418 36.78 102.178 36.87 101.968 36.99H101.938L101.848 36.72L101.758 36.69C101.698 36.63 101.638 36.54 101.578 36.48L101.428 36.42C101.398 36.3 101.308 36.24 101.248 36.12V36.09ZM104.848 49.8L104.758 49.86V49.89C104.758 49.92 104.788 49.95 104.788 49.98L104.968 50.1L105.118 50.01C105.028 49.95 104.998 49.86 104.938 49.8H104.848ZM99.1475 41.1L99.1775 41.13H99.2675L99.4775 40.92V40.86L99.3575 40.89L99.3275 40.98L99.1475 41.1ZM105.508 47.82L105.478 47.88L105.508 47.94H105.598L105.658 47.91V47.88L105.568 47.82H105.508ZM108.898 44.01V44.1H108.928L108.988 44.01L108.958 43.95L108.898 44.01ZM108.388 46.05C108.418 46.11 108.448 46.14 108.508 46.17H108.538L108.418 46.05H108.388ZM96.5375 44.58C96.6275 44.58 96.6275 44.58 96.6575 44.52C96.5675 44.52 96.5675 44.52 96.5375 44.58ZM98.6075 41.61H98.6375L98.8175 41.64V41.61C98.7575 41.61 98.7275 41.58 98.6675 41.58H98.6075V41.61ZM106.138 47.61C106.108 47.61 106.108 47.61 106.108 47.7V47.64C106.108 47.67 106.108 47.67 106.138 47.67C106.168 47.67 106.168 47.67 106.168 47.64C106.168 47.61 106.168 47.61 106.138 47.61ZM97.6775 42.9H97.7375V42.84L97.7075 42.81H97.6775V42.9ZM98.9675 41.25C98.9375 41.25 98.9375 41.25 98.9375 41.28C98.9375 41.31 98.9375 41.31 98.9675 41.31C98.9975 41.31 98.9975 41.31 98.9975 41.28C98.9975 41.25 98.9975 41.25 98.9675 41.25ZM97.1675 43.71C97.1375 43.71 97.1375 43.71 97.1375 43.74C97.1375 43.77 97.1375 43.77 97.1675 43.77C97.1975 43.77 97.1975 43.77 97.1975 43.74C97.1975 43.71 97.1975 43.71 97.1675 43.71ZM109.678 40.86C109.678 40.89 109.678 40.89 109.708 40.89C109.738 40.89 109.738 40.89 109.738 40.86C109.738 40.83 109.738 40.83 109.708 40.83C109.678 40.83 109.678 40.83 109.678 40.86ZM106.108 47.4C106.108 47.43 106.108 47.43 106.138 47.43C106.168 47.43 106.168 47.43 106.168 47.4C106.168 47.37 106.168 47.37 106.138 47.37C106.108 47.37 106.108 47.37 106.108 47.4ZM109.408 42.33C109.408 42.36 109.408 42.36 109.438 42.36C109.468 42.36 109.468 42.36 109.468 42.33C109.468 42.3 109.468 42.3 109.438 42.3C109.408 42.3 109.408 42.3 109.408 42.33ZM109.348 43.23C109.318 43.23 109.318 43.23 109.318 43.26C109.318 43.29 109.318 43.29 109.348 43.29C109.378 43.29 109.378 43.29 109.378 43.26C109.378 43.23 109.378 43.23 109.348 43.23ZM98.6075 41.73C98.5775 41.73 98.5775 41.73 98.5775 41.76C98.5775 41.79 98.5775 41.79 98.6075 41.79C98.6375 41.79 98.6375 41.79 98.6375 41.76C98.6375 41.73 98.6375 41.73 98.6075 41.73ZM108.628 46.02C108.598 46.02 108.598 46.02 108.598 46.05C108.598 46.08 108.598 46.08 108.628 46.08C108.658 46.08 108.658 46.08 108.658 46.05C108.658 46.02 108.658 46.02 108.628 46.02ZM108.718 46.05C108.718 46.08 108.718 46.08 108.748 46.08C108.778 46.08 108.778 46.08 108.778 46.05C108.778 46.02 108.778 46.02 108.748 46.02C108.718 46.02 108.718 46.02 108.718 46.05ZM98.1875 42.24H98.2475V42.18L98.1875 42.21V42.24ZM104.848 44.4C104.848 44.43 104.848 44.43 104.878 44.43C104.908 44.43 104.908 44.43 104.908 44.4C104.908 44.37 104.908 44.37 104.878 44.37C104.848 44.37 104.848 44.37 104.848 44.4ZM108.898 44.16C108.898 44.19 108.898 44.19 108.928 44.19C108.958 44.19 108.958 44.19 108.958 44.16C108.958 44.13 108.958 44.13 108.928 44.13C108.898 44.13 108.898 44.13 108.898 44.16ZM108.028 46.8H108.118V46.77H108.028V46.8ZM105.058 48.63H105.148V48.6H105.088L105.058 48.63ZM109.168 43.44V43.5H109.198V43.44H109.168ZM94.6475 48.24L94.6175 48.21V48.3L94.6475 48.27V48.24ZM106.738 47.67C106.708 47.67 106.708 47.67 106.708 47.64C106.708 47.61 106.708 47.61 106.738 47.61V47.67ZM109.738 41.31C109.738 41.34 109.738 41.34 109.768 41.34C109.798 41.34 109.798 41.34 109.798 41.31H109.738ZM106.288 47.4C106.258 47.4 106.258 47.4 106.258 47.43C106.258 47.46 106.258 47.46 106.288 47.46V47.4ZM98.3675 42.21C98.3675 42.24 98.3675 42.24 98.3975 42.24C98.4275 42.24 98.4275 42.24 98.4275 42.21H98.3675ZM99.0575 41.46V41.49H99.1175V41.46H99.0575ZM96.6875 44.31C96.6575 44.31 96.6575 44.31 96.6575 44.34C96.6575 44.37 96.6575 44.37 96.6875 44.37V44.31ZM99.4175 41.1C99.3875 41.1 99.3875 41.1 99.3875 41.13C99.3875 41.16 99.3875 41.16 99.4175 41.16V41.1ZM99.1175 41.25C99.0875 41.25 99.0875 41.25 99.0875 41.28C99.0875 41.31 99.0875 41.31 99.1175 41.31V41.25ZM98.9075 41.43H98.9375V41.37L98.9075 41.4V41.43ZM105.298 48.12L105.328 48.15V48.06L105.298 48.12ZM109.438 42.75H109.378V42.78H109.408L109.438 42.75ZM106.558 47.22V47.25H106.588V47.22H106.558ZM109.288 43.41H109.348V43.38L109.288 43.41ZM96.6275 44.55C96.5975 44.55 96.5975 44.55 96.5975 44.52C96.6275 44.52 96.6275 44.52 96.6275 44.55ZM96.5975 44.58C96.5675 44.58 96.5675 44.58 96.5675 44.55C96.5975 44.55 96.5975 44.55 96.5975 44.58ZM96.6575 44.52C96.6575 44.49 96.6575 44.49 96.6275 44.49C96.6275 44.52 96.6275 44.52 96.6575 44.52ZM130.064 24.63L130.124 24.57H130.154C130.214 24.57 130.514 24.63 130.574 24.66L130.784 24.96L130.874 24.99L130.844 25.02L130.784 25.32C130.814 25.38 130.814 25.44 130.814 25.47C130.814 25.56 130.814 25.68 130.784 25.74C130.694 25.8 130.574 25.86 130.454 25.92H130.364L130.274 25.98V26.13L130.244 26.19V26.31L130.184 26.28C130.124 26.34 130.034 26.4 129.974 26.46C129.944 26.55 129.884 26.58 129.794 26.61C129.734 26.7 129.704 26.88 129.704 26.97C129.554 27.03 129.464 27.18 129.344 27.27V27.3L129.404 27.39L129.344 27.48L129.314 27.63L129.224 27.66L129.164 27.78C129.104 27.84 129.014 27.9 128.924 27.93L128.894 27.96L128.744 27.9V27.81C128.774 27.75 128.834 27.66 128.834 27.57L128.894 27.39L128.774 27.24H128.744L128.564 27.39L128.594 27.45L128.564 27.48C128.444 27.48 128.354 27.54 128.264 27.6L128.294 27.63C128.054 27.69 127.964 27.93 127.844 28.11V28.23L127.604 28.32H127.514L127.454 28.35V28.65C127.154 28.89 126.914 29.19 126.644 29.43V29.52C126.434 29.64 126.224 30 126.014 30.21L125.924 30.18L125.834 30.3L125.894 30.36L125.834 30.48H125.804C125.744 30.54 125.714 30.6 125.654 30.66L125.624 30.75L125.534 30.84C125.534 30.93 125.294 31.26 125.204 31.35L125.114 31.38L125.084 31.5L125.114 31.68H125.024C124.904 31.86 124.844 31.8 124.694 31.92V31.95L124.844 32.13L124.964 32.01H125.204L125.384 32.1H125.414L125.444 32.04L125.654 31.98L125.834 32.01L125.894 31.98C126.014 31.98 126.164 31.95 126.284 31.92L126.314 31.89L126.404 31.92L126.464 31.89H127.094L127.154 31.83V31.92H127.184C127.454 31.68 127.964 31.83 128.324 31.83L128.354 31.8H128.984L129.044 31.74H129.584L129.614 31.77C129.794 31.77 129.974 31.8 130.154 31.8H130.274L130.364 31.74C130.514 31.71 130.694 31.74 130.844 31.8L130.874 31.74H130.964L131.024 31.8C131.054 31.77 131.144 31.77 131.174 31.8H131.264L131.354 31.74H131.384L131.564 31.83H131.594C131.654 31.83 131.804 31.77 131.834 31.74C131.894 31.74 131.984 31.74 132.044 31.77C132.104 31.74 132.164 31.71 132.224 31.71C132.344 31.71 132.614 31.83 132.704 31.74C132.794 31.74 132.944 31.74 133.004 31.77L133.094 31.71H133.634L133.694 31.77H133.724L133.814 31.71H133.904L133.964 31.74H134.774L134.804 31.71C134.984 31.71 135.164 31.68 135.344 31.68C135.584 31.68 135.884 31.71 136.124 31.77L136.184 31.71C136.394 31.68 136.634 31.68 136.874 31.68H137.114L137.174 31.71C137.264 31.71 137.444 31.68 137.534 31.74L137.564 31.71H139.454C139.724 31.71 139.964 31.62 140.234 31.62C140.534 31.62 140.954 31.59 141.254 31.65L141.314 31.71L141.404 31.65H142.244L142.394 31.71C142.454 31.71 142.514 31.71 142.574 31.74C142.694 31.71 142.844 31.68 142.964 31.65C143.054 31.71 143.354 31.68 143.504 31.71C143.534 31.71 143.864 31.74 143.954 31.74L144.014 31.71C144.524 31.71 145.604 31.83 146.204 31.77L146.234 31.74H146.474C146.594 31.8 146.744 31.77 146.864 31.83C146.954 31.77 147.104 31.8 147.194 31.8H147.524L147.674 31.89L147.764 31.8H147.794C147.884 31.8 147.974 31.86 148.064 31.8H148.154L148.244 31.86L148.274 31.8H148.784L148.994 31.89C149.144 31.83 149.324 31.83 149.474 31.83H149.774L149.804 31.86C150.044 31.86 150.314 31.92 150.524 31.86L150.554 31.83H150.824L150.884 31.89H151.034L151.094 31.95H151.214C151.394 31.95 151.574 31.89 151.754 31.89C151.904 31.89 152.144 32.01 152.264 32.07C152.354 32.04 152.444 32.04 152.534 31.98H152.624C152.684 31.92 152.774 31.89 152.864 31.89C152.924 31.89 153.194 32.01 153.254 32.04H153.494L153.644 31.98C153.884 31.98 154.214 31.98 154.424 32.1C154.484 32.1 154.574 32.07 154.634 32.07C155.264 32.07 155.894 32.25 156.524 32.22C156.644 32.31 157.124 32.28 157.274 32.28L157.304 32.31C157.484 32.31 157.664 32.34 157.844 32.34C157.964 32.34 158.084 32.31 158.174 32.28L158.204 32.34C158.444 32.37 158.714 32.4 158.954 32.46L158.984 32.49C159.134 32.52 159.254 32.67 159.404 32.7L159.374 32.73V32.82L159.464 32.91V32.97L159.404 33.06C159.254 33.12 159.074 33.15 158.924 33.15C158.804 33.24 158.774 33.36 158.654 33.45C158.414 33.51 158.144 33.42 157.874 33.51C157.634 33.45 157.064 33.51 156.884 33.39L156.914 33.27L156.854 33.24L156.674 33.42L156.524 33.45L156.404 33.54C156.374 33.63 156.254 33.84 156.164 33.84C155.834 33.84 155.834 33.51 155.624 33.39L155.444 33.36L155.414 33.3V33.21L155.294 33.06L155.264 32.94C155.084 32.85 154.784 32.82 154.574 32.82L154.514 32.79H154.364L154.334 32.82C154.274 32.82 154.184 32.82 154.124 32.79V32.82H154.064C153.854 32.82 153.644 32.73 153.434 32.76L153.314 32.7C153.224 32.76 153.104 32.73 153.014 32.73C152.924 32.64 152.774 32.7 152.654 32.64H152.474L152.294 32.73H152.114C151.994 32.61 150.854 32.61 150.614 32.61L150.494 32.55C149.774 32.55 149.084 32.55 148.364 32.55C148.214 32.46 146.324 32.43 145.994 32.43L145.874 32.52L145.814 32.49H145.724L145.694 32.58C145.574 32.52 145.484 32.43 145.394 32.34H145.364C145.094 32.34 144.854 32.46 144.584 32.46L144.434 32.4C144.284 32.4 142.904 32.43 142.664 32.34L142.514 32.4C142.244 32.31 141.944 32.4 141.674 32.37L141.554 32.31C141.494 32.34 141.404 32.34 141.344 32.34L141.164 32.22C140.924 32.31 140.684 32.31 140.444 32.31C140.414 32.34 140.384 32.34 140.354 32.34C140.204 32.34 140.054 32.31 139.934 32.22L139.844 32.25C139.784 32.34 139.574 32.34 139.484 32.28L139.424 32.34C139.154 32.37 138.884 32.34 138.614 32.34H138.404L138.254 32.43L138.044 32.4L137.864 32.28L137.804 32.34H137.594L137.534 32.37C137.414 32.37 137.324 32.43 137.204 32.4C137.114 32.46 136.874 32.46 136.754 32.46C135.794 32.46 134.834 32.4 133.874 32.4L133.844 32.43C132.614 32.43 131.354 32.52 130.124 32.46C129.884 32.55 127.244 32.58 126.644 32.64L126.554 32.58C126.494 32.64 126.344 32.61 126.254 32.61C126.104 32.61 125.984 32.61 125.834 32.64L125.504 32.52C125.504 32.55 125.504 32.58 125.534 32.58C125.534 32.7 125.264 32.73 125.204 32.67H124.994C124.934 32.67 124.814 32.73 124.754 32.73L124.724 32.76C124.664 32.76 124.574 32.73 124.514 32.73C124.424 32.73 124.334 32.82 124.244 32.79C124.034 32.97 123.584 33.27 123.614 33.57L123.254 33.87C123.224 34.05 123.074 34.17 123.044 34.35L122.954 34.47L122.834 34.5L122.804 34.59L122.624 34.74L122.534 34.92V34.95C122.534 35.01 122.414 35.01 122.444 35.1C122.354 35.19 122.294 35.28 122.234 35.4L122.144 35.46L122.054 35.67L121.874 35.82C121.814 36 121.664 36.12 121.634 36.3L121.514 36.39L121.484 36.48L121.274 36.6L121.244 36.69L121.124 36.75C121.124 36.84 121.094 36.96 121.064 37.05H120.944L120.884 37.11L120.914 37.35C120.794 37.38 120.704 37.47 120.644 37.56C120.614 37.77 120.284 38.22 120.134 38.4L120.074 38.43C119.984 38.55 119.954 38.76 119.804 38.82L119.744 38.91L119.564 38.97C119.594 39.03 119.594 39.12 119.594 39.18C119.594 39.21 119.564 39.27 119.564 39.3C119.504 39.36 119.324 39.57 119.324 39.66L119.114 39.87L119.084 39.96H118.994L118.964 39.99L118.934 40.17C118.784 40.32 118.724 40.32 118.754 40.56H118.724C118.634 40.62 118.544 40.77 118.514 40.86L118.394 40.89C118.304 41.07 118.274 41.25 118.094 41.37L118.064 41.52L117.974 41.61V41.76L117.914 41.85V41.97L117.764 42.09L117.674 42.12C117.614 42.24 117.464 42.48 117.464 42.63L117.344 42.72L117.164 43.11C117.044 43.2 117.014 43.35 116.894 43.44L116.864 43.62L116.714 43.71C116.684 43.8 116.684 43.86 116.684 43.95C116.564 44.04 116.474 44.22 116.444 44.37C116.324 44.46 116.174 44.46 116.024 44.46L115.964 44.52H115.844L115.814 44.55L115.934 44.67C115.994 44.64 116.054 44.64 116.114 44.64L116.204 44.73V44.82C116.114 44.97 115.874 44.94 115.814 45.33L115.754 45.42C115.664 45.45 115.604 45.54 115.574 45.6V45.81L115.634 45.9L115.484 45.99L115.394 46.23L115.274 46.29C115.244 46.5 115.214 46.74 115.094 46.89V47.01L114.974 47.13H114.944L114.854 47.07L114.794 47.16L114.914 47.22L114.854 47.28L114.674 47.34V47.43C114.674 47.52 114.794 47.46 114.794 47.55L114.734 47.7L114.764 47.82H114.674V47.88L114.734 48V48.24L114.614 48.33V48.57H114.554C114.554 48.87 114.524 48.96 114.284 49.14V49.44H114.314L114.374 49.5V49.71L114.284 49.62H114.224L114.164 49.71V49.83C114.164 49.86 114.194 49.89 114.194 49.92L114.284 49.89C114.404 49.95 114.314 50.31 114.314 50.43C114.314 50.58 114.374 50.73 114.404 50.88H114.494C114.494 51 114.494 51.48 114.584 51.6V51.69H114.404C114.554 51.69 114.644 51.81 114.794 51.84L115.124 52.05C115.214 52.17 115.364 52.23 115.454 52.35H115.694C115.784 52.35 115.874 52.32 115.964 52.32C116.054 52.26 116.144 52.26 116.234 52.2H116.564C116.744 52.11 117.074 51.81 117.254 51.78L117.404 51.6H117.494C117.704 51.6 117.854 51.42 118.064 51.36L118.154 51.39L118.214 51.24L118.304 51.27C118.454 51.09 118.664 50.88 118.874 50.76L118.964 50.79V50.76L118.934 50.7L118.964 50.64C119.054 50.58 119.144 50.52 119.204 50.43C119.444 50.4 119.774 50.07 119.924 49.89C120.044 49.83 120.824 49.11 120.944 48.96C121.004 48.96 121.154 48.96 121.154 48.87L121.274 48.9C121.274 48.81 121.334 48.69 121.394 48.6C121.514 48.57 121.604 48.45 121.694 48.39V48.3L121.754 48.18C121.874 48.09 121.994 47.97 122.114 47.91L122.144 47.79C122.204 47.73 122.294 47.64 122.384 47.61L122.564 47.4V47.22L122.774 47.13L122.804 47.01L122.984 46.8V46.38L122.924 46.29V46.2C122.924 46.17 122.954 46.14 122.954 46.11L123.014 46.05V45.96C123.014 45.96 123.224 45.78 123.104 45.81V45.66L123.224 45.6L123.164 45.51V45.48L123.224 45.3L123.374 45.18L123.284 45.12L123.314 45C123.404 45 123.464 45.03 123.554 45.03V45L123.464 44.88L123.404 44.67L123.464 44.52C123.554 44.46 123.614 44.4 123.674 44.31V44.25H123.764L123.824 44.19V44.1L123.764 44.01C123.764 44.01 124.214 43.2 124.214 43.17L124.244 43.14V43.05C124.364 43.02 124.544 42.63 124.664 42.54V42.36C124.814 42.24 124.934 42.03 125.024 41.88L125.084 41.85L125.114 41.76H125.264L125.324 41.64V41.58L125.234 41.49V41.46C125.384 41.4 125.534 41.25 125.474 41.07L125.654 40.98C125.684 40.89 125.714 40.83 125.774 40.77L125.804 40.62C125.924 40.53 125.984 40.38 126.104 40.29L126.134 40.17H126.164C126.284 40.02 126.434 39.93 126.554 39.78H126.704V39.75L126.674 39.72H126.554V39.69L126.644 39.63C126.674 39.54 126.704 39.48 126.764 39.42H126.854L126.944 39.36V39.24C127.154 39 127.454 38.79 127.634 38.52V38.43C127.724 38.34 127.994 38.13 127.994 38.04C128.084 38.01 128.144 37.95 128.204 37.89L128.414 37.83L128.504 37.71L128.594 37.68L128.624 37.56L128.744 37.41L128.894 37.35H129.044L129.254 37.26C129.254 37.23 129.314 37.14 129.344 37.2C129.434 37.17 129.524 37.17 129.614 37.17L129.734 37.26H129.794L129.914 37.17H130.064V37.26L130.244 37.44L130.304 37.71L130.244 37.68C130.154 37.77 130.124 37.98 130.124 38.1L130.004 38.25H129.914L129.884 38.31L129.794 38.34L129.824 38.49C129.674 38.55 129.644 38.85 129.464 39L129.404 39.15C129.344 39.15 129.284 39.15 129.224 39.12L129.194 39.24L129.224 39.27L129.164 39.42L129.044 39.54C129.014 39.66 128.924 39.72 128.894 39.84V39.9C128.894 39.99 128.864 40.08 128.804 40.17L128.714 40.23C128.594 40.41 128.504 40.65 128.294 40.74L128.324 40.83C128.204 40.98 128.084 41.13 127.934 41.28C127.934 41.37 127.934 41.46 127.904 41.52C127.694 41.82 127.454 42.06 127.184 42.33V42.45H127.064L127.004 42.63L126.914 42.72V42.87C126.764 42.93 126.704 43.2 126.554 43.32L126.524 43.41C126.434 43.5 126.134 43.95 126.044 43.92L126.014 44.04C125.864 44.16 125.834 44.34 125.684 44.46L125.564 44.43L125.534 44.49V44.79C125.324 44.88 125.234 45.09 125.174 45.3C125.084 45.36 124.994 45.45 124.904 45.51C124.784 45.75 124.604 45.96 124.454 46.2C124.214 46.32 124.004 46.65 124.004 46.92L123.944 47.04L124.124 47.13L124.274 47.28V47.37L124.244 47.4L124.304 47.58C124.424 47.73 124.604 47.82 124.724 47.97L124.754 48.06C124.874 48.15 124.934 48.27 125.054 48.36H125.084C125.144 48.39 125.234 48.45 125.324 48.45L125.354 48.48C125.504 48.54 125.684 48.54 125.834 48.54L125.774 48.57L125.894 48.63H126.494C126.674 48.63 126.854 48.6 127.004 48.51H127.214C127.274 48.51 127.334 48.48 127.394 48.48L127.454 48.42C127.694 48.3 127.994 48.27 128.234 48.27L128.324 48.18L128.414 48.24H128.444V48.21L128.474 48.15L128.564 48.12L128.684 48.15C128.804 47.97 129.014 47.79 129.224 47.7C129.374 47.46 129.614 47.46 129.734 47.28L129.854 47.25C129.944 47.1 130.214 47.07 130.274 46.89H130.394L130.544 46.83C130.544 46.77 131.384 46.14 131.504 46.02V45.93C131.594 45.72 131.714 45.75 131.834 45.6C131.864 45.36 132.134 45.27 132.284 45.09L132.404 45.06C132.464 45 132.494 44.91 132.494 44.82L132.674 44.73C132.824 44.79 132.884 44.94 132.884 45.09C132.734 45.51 132.494 45.48 132.254 45.75C132.074 45.96 131.984 46.29 131.804 46.5C131.534 46.83 130.934 46.98 130.784 47.37C130.514 47.43 130.064 47.73 129.884 47.94C129.644 48.03 129.494 48.06 129.464 48.33L129.374 48.39L129.254 48.36L129.134 48.39L129.164 48.48L129.104 48.6L129.044 48.63H128.894C128.864 48.84 128.414 48.96 128.234 48.96L128.204 48.93L128.144 48.96H128.024L127.844 49.08L127.694 49.05L127.364 49.29H127.214L127.154 49.26L127.094 49.32H126.794C126.734 49.38 126.674 49.44 126.584 49.44C126.524 49.5 126.404 49.5 126.314 49.5C126.194 49.5 126.104 49.5 125.984 49.47L125.954 49.44H125.894L125.834 49.5H125.684C125.654 49.47 125.384 49.26 125.354 49.38H125.174C125.084 49.38 124.484 49.02 124.364 48.96L124.304 48.99L124.274 48.93C124.124 48.87 124.064 48.72 123.914 48.66L123.854 48.45C123.524 48.39 123.464 47.97 123.404 47.7C123.314 47.67 123.254 47.58 123.164 47.55L123.134 47.67C122.984 47.76 122.504 48.33 122.444 48.48C122.324 48.54 122.174 48.66 122.114 48.78C122.054 48.78 121.964 48.84 121.964 48.9L121.994 48.99L121.904 49.05L121.874 49.14L121.724 49.17C121.634 49.29 121.544 49.38 121.424 49.47L121.364 49.44L121.274 49.65L121.124 49.74C120.884 49.98 120.584 50.01 120.464 50.37H120.374L120.194 50.58L120.074 50.64L120.044 50.7C119.834 50.76 119.744 50.97 119.564 51.06V51.12H119.474L119.414 51.27L119.324 51.24C119.324 51.33 119.204 51.48 119.144 51.54C118.934 51.63 118.754 51.75 118.574 51.87L118.484 52.02H118.274C118.094 52.2 117.824 52.26 117.644 52.44C117.404 52.53 117.134 52.62 116.954 52.8L116.744 52.74L116.534 52.89L116.354 52.92C116.324 52.83 116.324 52.68 116.234 52.62H116.114V52.68C116.114 52.71 116.144 52.74 116.144 52.77C116.204 52.83 116.234 52.89 116.294 52.95V52.98L116.174 53.07C116.084 53.04 115.934 53.04 115.844 53.04C115.784 53.1 115.694 53.13 115.634 53.16H115.544L115.514 53.19L115.454 53.16H115.334L115.274 53.1H114.914L114.764 53.04L114.554 52.83L114.464 52.8L114.374 52.68L114.254 52.62C114.164 52.47 114.074 52.35 114.044 52.17C113.984 52.08 113.864 52.02 113.774 51.99C113.804 51.9 113.804 51.78 113.804 51.69C113.654 51.57 113.624 51.42 113.654 51.24L113.594 51.12V50.82L113.684 50.76L113.624 50.64H113.594C113.564 50.61 113.594 50.16 113.594 50.07C113.594 49.95 113.564 49.86 113.534 49.74L113.594 49.68C113.624 49.56 113.624 49.41 113.624 49.29L113.684 49.11L113.744 49.05H113.774L113.864 49.17V49.08L113.714 48.93L113.684 48.72L113.774 48.6V48.51H113.804C113.864 48.51 113.894 48.09 113.924 48.03L113.954 48L113.984 47.82C114.164 47.67 114.044 47.31 114.224 47.19L114.374 47.22V47.19L114.254 47.07V47.04C114.254 47.01 114.284 46.98 114.284 46.95L114.404 46.83L114.524 46.8L114.554 46.71L114.494 46.59V46.5C114.584 46.41 114.644 46.23 114.764 46.14H114.854C114.824 46.08 114.824 45.99 114.824 45.93C114.824 45.9 114.854 45.84 114.854 45.81L114.944 45.78L114.974 45.45C115.034 45.39 115.064 45.33 115.094 45.24L115.184 45.27C115.334 45.09 115.484 44.88 115.514 44.64L115.694 44.67L115.784 44.58L115.604 44.49V44.37C115.604 44.31 115.754 44.19 115.814 44.16L115.934 44.19L116.024 44.16V44.07L115.934 43.98V43.95H115.994V43.77H116.084C116.204 43.59 116.144 43.32 116.354 43.17L116.474 43.14V43.08C116.474 43.05 116.444 43.02 116.414 42.99C116.414 42.9 116.534 42.84 116.564 42.75L116.654 42.9L116.744 42.84V42.81C116.744 42.51 117.014 42.33 117.134 42.09C117.134 41.88 117.104 41.7 117.344 41.61C117.404 41.55 117.434 41.46 117.434 41.4L117.584 41.13C117.584 40.95 117.794 40.77 117.824 40.59L117.914 40.5V40.47L118.184 40.2L118.244 40.05L118.334 40.08C118.334 39.81 118.304 39.81 118.514 39.6L118.634 39.57L118.724 39.27L118.904 39.24V39.18L118.814 39.15C118.874 39.09 118.934 38.94 119.024 38.97L119.084 38.91V38.76L119.204 38.7L119.264 38.52C119.384 38.43 119.474 38.34 119.504 38.19L119.594 38.1L119.624 38.01C119.684 37.95 119.744 37.86 119.804 37.8L119.864 37.56C120.014 37.38 120.134 37.17 120.314 37.02L120.344 36.9L120.494 36.72H120.614V36.57L120.824 36.27V36.21L120.914 36.09V36H120.974C121.154 35.88 121.124 35.67 121.364 35.61L121.424 35.52L121.394 35.43L121.454 35.34V35.25C121.544 35.13 121.664 35.01 121.784 34.95L121.874 34.68L121.964 34.62L122.024 34.44L122.114 34.38V34.26C122.384 34.05 123.104 33.24 123.104 32.91L123.074 32.88C123.014 32.85 122.954 32.85 122.894 32.85C122.714 32.85 122.234 32.85 122.084 32.94C121.994 32.94 121.904 32.91 121.814 32.91C121.154 32.91 120.524 33.09 119.894 33.12C119.834 33.18 119.774 33.12 119.714 33.12C119.324 33.12 118.964 33.27 118.574 33.27H118.514L118.394 33.18H118.334C118.244 33.18 117.764 33.36 117.734 33.27L117.644 33.24L117.404 33.36C117.164 33.39 116.924 33.39 116.684 33.39L116.624 33.42H116.504C116.324 33.54 115.514 33.54 115.304 33.51C115.214 33.54 115.094 33.57 115.034 33.63L114.974 33.54V33.6C114.794 33.6 114.614 33.6 114.434 33.66H114.074L114.044 33.63C113.864 33.69 113.624 33.63 113.474 33.75H113.384L113.264 33.69C113.264 33.72 113.294 33.78 113.294 33.81C113.144 33.9 112.964 33.81 112.784 33.81C112.574 33.81 111.704 33.87 111.584 33.99C111.404 33.99 111.224 33.96 111.044 33.96C110.924 33.96 110.654 34.11 110.444 34.11L110.384 34.17C110.264 34.17 110.144 34.14 110.024 34.14L109.994 34.11L109.934 34.17L109.664 34.26C109.454 34.26 109.274 34.23 109.094 34.23H108.224L108.164 34.32C107.984 34.32 107.774 34.32 107.594 34.32L107.504 34.23C107.294 34.23 107.054 34.23 106.844 34.26L106.814 34.2C106.664 34.17 106.544 34.02 106.484 33.9V33.81C106.484 33.75 106.544 33.63 106.544 33.57L106.694 33.48L106.724 33.39L106.664 33.3L106.844 33.12L106.964 33.09C107.084 33.12 107.234 33.18 107.354 33.18L107.444 33.27L107.474 33.18L107.564 33.09L107.624 33.12C107.834 33.06 108.164 33.03 108.164 33.33L108.194 33.36C108.284 33.39 108.374 33.42 108.464 33.48H108.584L108.734 33.39H108.944C109.214 33.39 109.514 33.36 109.784 33.36L109.844 33.39L109.874 33.36C110.054 33.3 110.414 33.33 110.594 33.33L110.654 33.3C111.224 33.33 111.794 33.15 112.364 33.15L112.394 33.21L112.484 33.12C112.784 33 113.174 33.09 113.474 33.06C113.504 33.03 113.534 33.03 113.564 33.03C113.594 33.03 113.654 33.06 113.684 33.06L113.804 33.18H113.834C113.864 33.18 113.954 33 113.954 32.97H114.224L114.254 32.94C114.434 32.94 114.614 32.94 114.794 32.91L114.764 32.88C114.854 32.88 114.944 32.91 115.004 32.94L115.124 32.82H115.214L115.754 32.91V32.82L115.994 32.76C115.994 32.7 116.084 32.76 116.144 32.76C116.144 32.76 116.174 32.73 116.204 32.73H116.444C116.534 32.79 116.654 32.7 116.744 32.73V32.7C116.924 32.7 117.104 32.7 117.284 32.64L117.404 32.67L117.464 32.64H117.704C118.004 32.43 120.104 32.43 120.614 32.4L120.734 32.28C120.854 32.28 121.274 32.31 121.364 32.25V32.22C121.634 32.22 121.934 32.16 122.204 32.19L122.264 32.22L122.324 32.19H122.834L122.984 32.13L123.104 32.16L123.164 32.13C123.404 32.16 123.644 32.1 123.854 32.01L123.914 31.92V31.86C124.034 31.77 124.094 31.65 124.094 31.5C124.394 31.53 124.664 30.84 124.874 30.66V30.57L124.904 30.51H124.994C125.084 30.42 125.144 30.3 125.204 30.18L125.294 30.12L125.324 29.94L125.534 29.91L125.564 29.7C125.624 29.64 125.684 29.61 125.744 29.55L125.804 29.43V29.34L125.924 29.37V29.31L126.044 29.19C126.044 29.13 126.044 28.98 126.134 29.01L126.284 28.86V28.77C126.404 28.62 126.464 28.44 126.614 28.32L126.734 28.29V28.2C126.824 28.08 126.884 27.96 127.004 27.87L127.124 27.84C127.154 27.75 127.214 27.69 127.274 27.63L127.304 27.51L127.364 27.45H127.514C127.544 27.33 127.574 27.18 127.634 27.06H127.664C127.844 27 127.964 26.76 128.114 26.64V26.61L128.234 26.73H128.264V26.67L128.234 26.61V26.46C128.324 26.37 128.684 26.01 128.624 25.86L128.744 25.83C128.864 25.71 128.984 25.56 129.104 25.44H129.254L129.344 25.53H129.374L129.494 25.23H129.584V25.11L129.644 24.99L129.704 24.96L129.764 24.75C129.854 24.66 129.974 24.66 130.064 24.63ZM129.794 24.81C129.824 24.81 129.824 24.81 129.824 24.78H129.764C129.764 24.81 129.764 24.81 129.794 24.81ZM129.704 25.05C129.734 25.05 129.734 25.05 129.734 25.02C129.734 24.99 129.734 24.99 129.704 24.99C129.674 24.99 129.674 24.99 129.674 25.02C129.674 25.05 129.674 25.05 129.704 25.05ZM130.094 25.32C130.094 25.29 130.094 25.29 130.064 25.29C130.034 25.29 130.034 25.29 130.034 25.32C130.034 25.35 130.034 25.35 130.064 25.35C130.094 25.35 130.094 25.35 130.094 25.32ZM129.704 25.53C129.734 25.53 129.734 25.53 129.734 25.5C129.734 25.47 129.734 25.47 129.704 25.47C129.674 25.47 129.674 25.47 129.674 25.5C129.674 25.53 129.674 25.53 129.704 25.53ZM129.044 27.15C129.074 27.15 129.074 27.15 129.074 27.12C129.074 27.09 129.074 27.09 129.044 27.09C129.014 27.09 129.014 27.09 129.014 27.12C129.014 27.15 129.014 27.15 129.044 27.15ZM127.814 28.23C127.844 28.23 127.844 28.23 127.844 28.2C127.844 28.17 127.844 28.17 127.814 28.17C127.784 28.17 127.784 28.17 127.784 28.2C127.784 28.23 127.784 28.23 127.814 28.23ZM126.074 29.55C126.104 29.55 126.104 29.55 126.104 29.52H126.044C126.044 29.55 126.044 29.55 126.074 29.55ZM126.134 29.64C126.164 29.64 126.164 29.64 126.164 29.61C126.164 29.58 126.164 29.58 126.134 29.58C126.104 29.58 126.104 29.58 126.104 29.61C126.104 29.64 126.104 29.64 126.134 29.64ZM126.224 29.67H126.164H126.224ZM126.074 30.03C126.104 30.03 126.104 30.03 126.104 30C126.104 29.97 126.104 29.97 126.074 29.97C126.044 29.97 126.044 29.97 126.044 30C126.044 30.03 126.044 30.03 126.074 30.03ZM125.174 31.5C125.144 31.5 125.144 31.5 125.144 31.47H125.204C125.204 31.5 125.204 31.5 125.174 31.5ZM124.604 31.74L124.574 31.89H124.604L124.634 31.74H124.604ZM141.974 31.86C142.004 31.86 142.004 31.86 142.004 31.83H141.944C141.944 31.86 141.944 31.86 141.974 31.86ZM133.634 31.89C133.664 31.89 133.664 31.89 133.664 31.86H133.604C133.604 31.89 133.604 31.89 133.634 31.89ZM150.254 31.95C150.284 31.95 150.284 31.95 150.284 31.92C150.284 31.89 150.284 31.89 150.254 31.89C150.224 31.89 150.224 31.89 150.224 31.92C150.224 31.95 150.224 31.95 150.254 31.95ZM144.464 32.19C144.494 32.19 144.494 32.19 144.494 32.16H144.434C144.434 32.19 144.434 32.19 144.464 32.19ZM156.974 32.19V32.25C156.944 32.25 156.944 32.25 156.944 32.22C156.944 32.19 156.944 32.19 156.974 32.19ZM145.844 32.25V32.28L145.904 32.34H145.934V32.31C145.904 32.28 145.874 32.28 145.844 32.25ZM143.234 32.46C143.204 32.46 143.204 32.46 143.204 32.43C143.204 32.4 143.204 32.4 143.234 32.4C143.264 32.4 143.264 32.4 143.264 32.43C143.264 32.46 143.264 32.46 143.234 32.46ZM156.824 32.61C156.854 32.61 156.854 32.61 156.854 32.58C156.854 32.55 156.854 32.55 156.824 32.55C156.794 32.55 156.794 32.55 156.794 32.58C156.794 32.61 156.794 32.61 156.824 32.61ZM158.474 33.15L158.414 33.18V33.24L158.444 33.27H158.564L158.594 33.24L158.564 33.15H158.474ZM111.404 33.21H111.494H111.404ZM112.874 33.48C112.904 33.48 112.904 33.48 112.904 33.45C112.904 33.42 112.904 33.42 112.874 33.42C112.844 33.42 112.844 33.42 112.844 33.45C112.844 33.48 112.844 33.48 112.874 33.48ZM108.224 33.57L108.134 33.63L108.284 33.72V33.57H108.224ZM115.454 33.6C115.424 33.6 115.424 33.6 115.424 33.57C115.424 33.54 115.424 33.54 115.454 33.54C115.484 33.54 115.484 33.54 115.484 33.57C115.484 33.6 115.484 33.6 115.454 33.6ZM108.044 33.63C108.074 33.63 108.074 33.63 108.074 33.6C108.074 33.57 108.074 33.57 108.044 33.57C108.014 33.57 108.014 33.57 108.014 33.6C108.014 33.63 108.014 33.63 108.044 33.63ZM107.984 33.63L107.954 33.66V33.72L108.014 33.78V33.63H107.984ZM107.294 33.72L107.264 33.75V33.99L107.174 34.05L107.294 34.11H107.444V34.05L107.324 33.99V33.9L107.354 33.87V33.72H107.294ZM114.044 33.75C114.014 33.75 114.014 33.75 114.014 33.72C114.014 33.69 114.014 33.69 114.044 33.69C114.074 33.69 114.074 33.69 114.074 33.72C114.074 33.75 114.074 33.75 114.044 33.75ZM109.484 33.96C109.514 33.96 109.514 33.96 109.514 33.93C109.514 33.9 109.514 33.9 109.484 33.9C109.454 33.9 109.454 33.9 109.454 33.93C109.454 33.96 109.454 33.96 109.484 33.96ZM121.964 35.19L122.024 35.25V35.19H121.964ZM129.734 37.47L129.704 37.5L129.764 37.53L129.734 37.47ZM130.304 37.5C130.274 37.5 130.274 37.5 130.274 37.47H130.334C130.334 37.5 130.334 37.5 130.304 37.5ZM129.314 37.5V37.56H129.374V37.53L129.344 37.5H129.314ZM129.794 37.62C129.824 37.62 129.824 37.62 129.824 37.59C129.824 37.56 129.824 37.56 129.794 37.56C129.764 37.56 129.764 37.56 129.764 37.59C129.764 37.62 129.764 37.62 129.794 37.62ZM128.234 39.12H128.144C128.084 39.06 128.054 39 127.994 38.94V38.85H127.964L127.904 38.91L127.874 39.06L127.964 39.18V39.27H127.874C127.604 39.51 127.424 39.9 127.094 40.08L127.004 40.29C126.704 40.44 126.794 40.65 126.614 40.8L126.584 40.89L126.464 40.95H126.344L126.284 40.98C126.254 41.07 126.164 41.16 126.104 41.22V41.31C125.984 41.46 125.894 41.67 125.834 41.85L125.774 41.88L125.744 42L125.564 42.18C125.534 42.3 125.504 42.45 125.384 42.54H125.354C125.294 42.54 125.234 42.69 125.204 42.75L125.144 42.9L125.054 42.93C124.994 43.02 125.024 43.14 125.024 43.23C124.874 43.35 124.814 43.53 124.664 43.65L124.604 43.89C124.454 43.98 124.424 44.28 124.334 44.31C124.274 44.61 124.094 44.94 124.094 45.27L124.184 45.3L124.574 44.97C124.724 44.64 124.964 44.37 125.204 44.1L125.234 43.92C125.294 43.86 125.354 43.83 125.414 43.77H125.504L125.534 43.62C125.624 43.56 125.774 43.38 125.774 43.26C125.864 43.2 125.954 43.11 126.044 43.02L126.164 43.05L126.194 43.02L126.134 42.84L126.224 42.78C126.374 42.54 126.494 42.51 126.554 42.18L126.614 42.15C126.674 42.06 126.794 41.97 126.854 41.88V41.82C126.914 41.76 127.034 41.55 127.124 41.58C127.124 41.64 127.184 41.7 127.244 41.7L127.274 41.67C127.274 41.58 127.124 41.55 127.124 41.46V41.43L127.304 41.25L127.484 41.22C127.544 41.16 127.574 41.1 127.634 41.04L127.724 40.89H127.814V40.83L127.724 40.71V40.62L127.844 40.5L127.814 40.44C128.114 40.26 127.964 40.29 128.114 40.08V39.99C128.204 39.9 128.294 39.75 128.264 39.63H128.294C128.384 39.63 128.414 39.39 128.534 39.36C128.594 39.27 128.654 39.18 128.684 39.09L128.864 38.91L128.834 38.82L128.894 38.7V38.58H128.834C128.624 38.73 128.414 38.91 128.234 39.12ZM128.144 38.64C128.174 38.64 128.174 38.64 128.174 38.61H128.114C128.114 38.64 128.114 38.64 128.144 38.64ZM127.664 38.85V38.79C127.634 38.79 127.634 38.79 127.634 38.82C127.634 38.85 127.634 38.85 127.664 38.85ZM127.544 39.51C127.574 39.51 127.574 39.51 127.574 39.48C127.574 39.45 127.574 39.45 127.544 39.45C127.514 39.45 127.514 39.45 127.514 39.48C127.514 39.51 127.514 39.51 127.544 39.51ZM126.614 39.6C126.584 39.6 126.584 39.6 126.584 39.57C126.584 39.54 126.584 39.54 126.614 39.54C126.644 39.54 126.644 39.54 126.644 39.57C126.644 39.6 126.644 39.6 126.614 39.6ZM128.024 40.11C127.994 40.11 127.994 40.11 127.994 40.08H128.054C128.054 40.11 128.054 40.11 128.024 40.11ZM127.544 41.28L127.514 41.31H127.544V41.28ZM127.064 41.49C127.034 41.49 127.034 41.49 127.034 41.46C127.034 41.43 127.034 41.43 127.064 41.43C127.094 41.43 127.094 41.43 127.094 41.46C127.094 41.49 127.094 41.49 127.064 41.49ZM127.574 41.97C127.544 41.97 127.544 41.97 127.544 41.94C127.544 41.91 127.544 41.91 127.574 41.91C127.604 41.91 127.604 41.91 127.604 41.94C127.604 41.97 127.604 41.97 127.574 41.97ZM126.644 42.33C126.674 42.33 126.674 42.33 126.674 42.3H126.614C126.614 42.33 126.614 42.33 126.644 42.33ZM117.344 42.33V42.36H117.374L117.344 42.33ZM116.984 42.72C117.014 42.72 117.014 42.72 117.014 42.69C117.014 42.66 117.014 42.66 116.984 42.66C116.954 42.66 116.954 42.66 116.954 42.69C116.954 42.72 116.954 42.72 116.984 42.72ZM117.044 42.72C117.074 42.72 117.074 42.72 117.074 42.69C117.074 42.66 117.074 42.66 117.044 42.66C117.014 42.66 117.014 42.66 117.014 42.69C117.014 42.72 117.014 42.72 117.044 42.72ZM125.264 42.78C125.234 42.78 125.234 42.78 125.234 42.75H125.294C125.294 42.78 125.294 42.78 125.264 42.78ZM116.984 42.81C117.014 42.81 117.014 42.81 117.014 42.78C117.014 42.75 117.014 42.75 116.984 42.75C116.954 42.75 116.954 42.75 116.954 42.78C116.954 42.81 116.954 42.81 116.984 42.81ZM126.554 42.81V42.87V42.81ZM116.594 43.41L116.564 43.44C116.564 43.47 116.534 43.5 116.534 43.53V43.62H116.594V43.41ZM116.354 43.8L116.324 43.86L116.354 43.95C116.354 43.92 116.384 43.89 116.384 43.86V43.83L116.354 43.8ZM116.264 44.25C116.294 44.25 116.294 44.25 116.294 44.22C116.294 44.19 116.294 44.19 116.264 44.19C116.234 44.19 116.234 44.19 116.234 44.22C116.234 44.25 116.234 44.25 116.264 44.25ZM123.404 44.55C123.374 44.55 123.374 44.55 123.374 44.52H123.434C123.434 44.55 123.434 44.55 123.404 44.55ZM123.944 44.67L123.974 44.7V44.67H123.944ZM115.694 45L115.664 45.03H115.694V45ZM123.254 45.03C123.224 45.03 123.224 45.03 123.224 45C123.224 44.97 123.224 44.97 123.254 44.97C123.284 44.97 123.284 44.97 123.284 45C123.284 45.03 123.284 45.03 123.254 45.03ZM123.254 45.18C123.224 45.18 123.224 45.18 123.224 45.15H123.284C123.284 45.18 123.284 45.18 123.254 45.18ZM124.004 45.36L123.944 45.39V45.6L123.854 45.66V45.72H124.034C124.004 45.63 124.004 45.57 124.004 45.48C124.004 45.45 124.004 45.39 124.064 45.42L124.004 45.36ZM115.154 45.66H115.184V45.48C115.154 45.54 115.154 45.6 115.154 45.66ZM124.094 45.54C124.124 45.54 124.124 45.54 124.124 45.51C124.124 45.48 124.124 45.48 124.094 45.48C124.064 45.48 124.064 45.48 124.064 45.51C124.064 45.54 124.064 45.54 124.094 45.54ZM114.974 45.84L115.004 45.87V45.84H114.974ZM131.444 46.17L131.294 46.32V46.35L131.324 46.41H131.474L131.444 46.26L131.474 46.2V46.17H131.444ZM131.354 46.53C131.384 46.53 131.384 46.53 131.384 46.5H131.324C131.324 46.53 131.324 46.53 131.354 46.53ZM130.304 46.95V46.98H130.334V46.95H130.304ZM124.784 48.06C124.754 48.06 124.754 48.06 124.754 48.03C124.754 48 124.754 48 124.784 48C124.814 48 124.814 48 124.814 48.03C124.814 48.06 124.814 48.06 124.784 48.06ZM114.464 48.09V48.15C114.494 48.15 114.524 48.18 114.554 48.18H114.614V48.15L114.494 48.09H114.464ZM128.564 48.42C128.594 48.42 128.594 48.42 128.594 48.39C128.594 48.36 128.594 48.36 128.564 48.36C128.534 48.36 128.534 48.36 128.534 48.39C128.534 48.42 128.534 48.42 128.564 48.42ZM125.864 48.75V48.69C125.834 48.69 125.834 48.69 125.834 48.72C125.834 48.75 125.834 48.75 125.864 48.75ZM121.094 48.99L121.034 49.05C121.064 49.08 121.064 49.14 121.064 49.2H121.124C121.124 49.17 121.154 49.11 121.154 49.08V49.02L121.124 48.99H121.094ZM121.274 49.23H121.334C121.334 49.2 121.334 49.2 121.304 49.2C121.274 49.2 121.274 49.2 121.274 49.23ZM113.774 49.41L113.714 49.5V49.53L113.744 49.59H113.834V49.47L113.774 49.41ZM125.084 49.44C125.054 49.44 125.054 49.44 125.054 49.41C125.054 49.38 125.054 49.38 125.084 49.38C125.114 49.38 125.114 49.38 125.114 49.41C125.114 49.44 125.114 49.44 125.084 49.44ZM113.834 49.65V49.68L113.864 49.71H113.894L113.834 49.65ZM120.464 49.86L120.494 49.89H120.524V49.86H120.464ZM120.554 49.95V50.01H120.584V49.95H120.554ZM114.134 50.37V50.4L114.164 50.43H114.224V50.4L114.194 50.37H114.134ZM114.224 51.3V51.24C114.194 51.24 114.194 51.24 114.194 51.27C114.194 51.3 114.194 51.3 114.224 51.3ZM114.044 51.51L113.984 51.6L114.134 51.66L114.164 51.72H114.194C114.194 51.69 114.224 51.66 114.224 51.63V51.6L114.134 51.51H114.044ZM113.924 51.78H113.984C113.984 51.75 113.984 51.75 113.954 51.75C113.924 51.75 113.924 51.75 113.924 51.78ZM114.074 51.75L114.164 51.84H114.194V51.81L114.104 51.75H114.074ZM113.954 51.96V51.9C113.924 51.9 113.924 51.9 113.924 51.93C113.924 51.96 113.924 51.96 113.954 51.96ZM117.704 52.14H117.764C117.764 52.11 117.764 52.11 117.734 52.11C117.704 52.11 117.704 52.11 117.704 52.14ZM116.594 52.47L116.534 52.5H116.714V52.47H116.594ZM116.444 52.53L116.414 52.56V52.59H116.474L116.504 52.53H116.444ZM131.045 49.77C130.925 49.68 130.895 49.5 130.805 49.41V49.29L130.865 49.14V49.02C130.925 48.87 131.135 48.48 131.135 48.36L131.165 48.33C131.225 48.15 131.255 47.94 131.285 47.76C131.615 47.52 131.585 47.16 131.825 46.92C131.945 46.89 132.035 46.65 132.155 46.56C132.125 46.47 132.275 46.41 132.335 46.38L132.425 46.23C132.455 45.99 132.635 45.81 132.635 45.63V45.57H132.545V45.51C133.055 44.64 133.565 43.77 134.195 42.96V42.93C134.285 42.87 134.315 42.75 134.405 42.69L134.435 42.57L134.555 42.48H134.675L134.795 42.36C134.825 42.27 134.825 42.18 134.885 42.09L134.975 42.03L135.035 41.91V41.79L135.335 41.4C135.425 41.13 135.485 40.86 135.515 40.56C135.575 40.47 135.665 40.35 135.695 40.23H135.725L136.445 40.56L136.475 40.65L136.415 40.71C136.355 40.92 136.325 41.13 136.235 41.31L136.085 41.4L136.115 41.61L136.055 41.73V41.97C135.785 42.21 135.665 42.51 135.425 42.78L135.455 42.87C135.245 43.17 135.155 43.59 134.855 43.86C134.795 44.04 134.435 44.58 134.285 44.7L134.255 44.94L134.105 45L134.045 44.94H134.015C133.865 45.45 133.865 45.3 133.445 45.57L133.385 45.51L133.355 45.33C133.265 45.36 133.295 45.48 133.325 45.54C133.295 45.54 133.265 45.54 133.265 45.51L133.235 45.57L133.385 45.63V45.87L133.265 45.99C133.235 46.11 133.175 46.2 133.175 46.32L133.115 46.38V46.41C133.085 46.47 132.485 47.22 132.485 47.22C132.455 47.31 132.395 47.4 132.335 47.46L132.305 47.58C132.245 47.55 132.125 47.55 132.035 47.55C132.065 47.64 132.065 47.76 132.065 47.85L132.155 48.09L132.305 48.18H132.395L132.425 48.09C132.605 47.91 132.875 47.85 132.995 47.61C133.145 47.52 133.325 47.49 133.475 47.4V47.31L133.505 47.28C133.595 47.25 133.715 47.22 133.775 47.16C133.805 47.13 133.805 47.1 133.835 47.1L134.045 46.98L134.015 46.95V46.92L134.045 46.95H134.165L134.225 46.92V46.77C134.315 46.59 134.435 46.47 134.615 46.38H134.675V46.26L134.825 46.11L134.915 46.08L135.035 45.96C135.125 45.66 135.395 45.6 135.605 45.42L135.695 45.24C135.995 45 136.235 44.82 136.505 44.55C136.835 44.43 137.045 44.1 137.405 44.04L137.525 44.07L137.465 43.98V43.92L137.525 43.86C137.495 43.77 137.825 43.62 137.885 43.56C138.185 43.32 140.105 42.15 140.375 42.09L140.615 41.88H140.645L140.675 42.03L140.765 42.15L140.915 42.18L140.945 42.24H141.035L141.125 41.97L141.065 41.91L141.005 41.97H140.975L140.885 41.91V41.85C141.005 41.85 141.095 41.76 141.185 41.7H141.275L141.455 41.61L141.815 41.79L141.935 41.76C142.055 41.85 142.055 42.09 142.055 42.24C142.055 42.3 141.935 42.48 141.905 42.51C141.875 43.14 141.605 43.14 141.515 43.56C141.395 43.59 141.305 43.77 141.245 43.86L141.215 44.04C141.005 44.28 140.825 44.61 140.675 44.88C140.585 44.94 140.555 45.06 140.465 45.12C140.465 45.21 140.465 45.27 140.435 45.36L140.255 45.51V45.54C140.255 45.72 140.045 46.14 139.985 46.35L139.955 46.38H139.865V46.44L139.805 46.53V46.59C139.805 46.77 139.745 46.92 139.745 47.1V47.16C139.985 47.49 139.925 47.85 140.255 48.15H140.315L140.375 48.09C140.465 48.09 140.555 48.03 140.645 48.03L140.855 48.18L140.975 48.21C141.215 48.06 141.365 48.06 141.635 48.06L141.695 48.15H141.785V48.06C141.905 47.97 142.025 47.85 142.145 47.76C142.205 47.76 142.295 47.73 142.355 47.67C142.595 47.67 143.555 47.31 143.615 47.07C143.765 46.95 143.945 46.83 144.125 46.8C144.395 46.53 145.415 45.99 145.535 45.81C145.835 45.63 146.015 45.36 146.285 45.12C146.405 45.12 146.495 45 146.585 44.94C146.645 44.76 146.795 44.61 146.975 44.52H147.095C147.155 44.61 147.185 44.73 147.215 44.85L147.275 44.91V44.94L147.185 45L146.975 45.03C146.495 45.39 146.165 45.93 145.655 46.29C145.505 46.38 145.295 46.53 145.115 46.56C145.115 46.56 145.055 46.59 145.055 46.56L145.025 46.65C144.875 46.83 144.515 47.1 144.305 47.16L144.215 47.13L144.095 47.25L144.155 47.31V47.34L143.945 47.52L143.855 47.55L143.825 47.61C143.525 47.7 142.385 48.72 141.725 48.54C141.605 48.6 141.545 48.72 141.425 48.78H141.335C141.215 48.78 141.095 48.81 140.975 48.87C140.795 48.87 140.585 48.9 140.405 48.9C140.345 48.9 140.225 48.84 140.165 48.84C139.385 48.24 139.175 48.33 139.175 47.19C139.175 46.89 139.295 46.56 139.265 46.29C139.325 46.14 139.385 45.99 139.505 45.9C139.565 45.72 139.595 45.54 139.625 45.36L139.745 45.27L139.835 45.06L139.925 45.03L140.045 44.88L140.075 44.73C140.255 44.49 140.405 44.22 140.525 43.95L140.615 43.92C140.675 43.74 140.795 43.71 140.885 43.59V43.32C141.005 43.17 141.125 43.14 141.215 42.96C141.215 42.87 141.245 42.78 141.245 42.69C141.185 42.6 141.125 42.54 141.035 42.48H140.945C140.825 42.48 140.135 42.87 140.015 42.99C139.865 42.99 139.715 42.99 139.595 42.99L139.535 43.08L139.445 43.11C139.415 43.2 139.355 43.26 139.325 43.35C138.995 43.53 138.635 43.8 138.305 43.92C138.245 44.04 138.155 44.01 138.065 43.98L137.975 44.07L138.065 44.1L137.945 44.19L137.915 44.34C137.585 44.52 136.805 44.97 136.595 45.27H136.505C136.445 45.54 136.205 45.63 135.965 45.72H135.875V45.81L135.845 45.84V45.96L135.695 46.14L135.485 46.17L135.425 46.23H135.365L135.395 46.32L135.245 46.41L135.215 46.5L135.155 46.53C135.035 46.74 134.405 47.49 134.195 47.49L134.165 47.46V47.49L134.195 47.64C134.075 47.7 133.565 47.91 133.625 48.06L133.475 48.21C133.265 48.21 133.175 48.21 133.085 48.39L133.055 48.54C132.935 48.72 132.635 48.72 132.515 48.9V49.02C132.395 49.29 131.375 49.77 131.075 49.77H131.045ZM132.485 46.29L132.545 46.41H132.605L132.575 46.2H132.545L132.485 46.26V46.29ZM137.915 43.95L137.945 43.98L138.035 43.92L138.005 43.86L138.035 43.8L137.975 43.77L137.915 43.95ZM134.555 43.68L134.645 43.77H134.675V43.65L134.615 43.59H134.585L134.555 43.62V43.68ZM140.705 48.3L140.675 48.33V48.45L140.765 48.36V48.33L140.735 48.3H140.705ZM139.565 47.94L139.625 48H139.715L139.745 47.97C139.715 47.97 139.685 47.94 139.655 47.94H139.565ZM140.825 48.39L140.795 48.45V48.48H140.825L140.855 48.42V48.39H140.825ZM137.615 44.01C137.615 44.04 137.615 44.04 137.645 44.04C137.675 44.04 137.675 44.04 137.675 44.01C137.675 43.98 137.675 43.98 137.645 43.98C137.615 43.98 137.615 43.98 137.615 44.01ZM144.035 47.28C144.035 47.31 144.035 47.31 144.065 47.31C144.095 47.31 144.095 47.31 144.095 47.28C144.095 47.25 144.095 47.25 144.065 47.25C144.035 47.25 144.035 47.25 144.035 47.28ZM132.095 47.46C132.095 47.49 132.095 47.49 132.125 47.49C132.155 47.49 132.155 47.49 132.155 47.46C132.155 47.43 132.155 47.43 132.125 47.43C132.095 47.43 132.095 47.43 132.095 47.46ZM132.935 45.54C132.905 45.54 132.905 45.54 132.905 45.57C132.905 45.6 132.905 45.6 132.935 45.6C132.965 45.6 132.965 45.6 132.965 45.57C132.965 45.54 132.965 45.54 132.935 45.54ZM140.975 42.12C140.975 42.09 140.975 42.09 141.005 42.09C141.035 42.09 141.035 42.09 141.035 42.12C141.035 42.15 141.035 42.15 141.005 42.15C140.975 42.15 140.975 42.15 140.975 42.12ZM141.155 42.21C141.155 42.24 141.155 42.24 141.185 42.24C141.215 42.24 141.215 42.24 141.215 42.21C141.215 42.18 141.215 42.18 141.185 42.18C141.155 42.18 141.155 42.18 141.155 42.21ZM133.895 44.55V44.58H133.985L133.925 44.52L133.895 44.55ZM133.805 44.76L133.775 44.79H133.865V44.76H133.805ZM146.465 45.24C146.465 45.27 146.465 45.27 146.495 45.27V45.21C146.465 45.21 146.465 45.21 146.465 45.24ZM142.955 47.76C142.925 47.76 142.925 47.76 142.925 47.79C142.925 47.82 142.925 47.82 142.955 47.82V47.76ZM131.105 48.57H131.165C131.165 48.54 131.165 48.54 131.135 48.54C131.105 48.54 131.105 48.54 131.105 48.57ZM132.185 47.67C132.155 47.67 132.155 47.67 132.155 47.64C132.155 47.61 132.155 47.61 132.185 47.61V47.67ZM140.555 42.3C140.555 42.33 140.555 42.33 140.585 42.33V42.27C140.555 42.27 140.555 42.27 140.555 42.3ZM135.785 45.57C135.785 45.6 135.785 45.6 135.815 45.6V45.54C135.785 45.54 135.785 45.54 135.785 45.57ZM133.745 44.61C133.745 44.64 133.745 44.64 133.775 44.64C133.805 44.64 133.805 44.64 133.805 44.61H133.745ZM132.725 46.35C132.725 46.38 132.725 46.38 132.755 46.38C132.785 46.38 132.785 46.38 132.785 46.35H132.725ZM141.545 42.75C141.515 42.75 141.515 42.75 141.515 42.78C141.515 42.81 141.515 42.81 141.545 42.81V42.75ZM137.525 44.13V44.16L137.555 44.19V44.13H137.525ZM131.885 48.3H131.855V48.33L131.885 48.36V48.3ZM141.275 42.54L141.305 42.57H141.335V42.54H141.275ZM138.965 43.2L138.935 43.23V43.26H138.965V43.2ZM132.695 45.51L132.725 45.48V45.45H132.695V45.51ZM132.485 46.83H132.455V46.86H132.485V46.83ZM131.975 48.42V48.45H132.005V48.42H131.975ZM142.445 47.97V47.91V47.97ZM140.465 42.36H140.435L140.465 42.39V42.36ZM140.795 41.88H140.825L140.795 41.91V41.88ZM135.755 45.78H135.785L135.755 45.75V45.78ZM132.845 45.48L132.875 45.51V45.48H132.845ZM135.935 45.57L135.905 45.51V45.54L135.935 45.57ZM145.147 48.3L145.117 48.21C145.177 48.15 145.237 48.03 145.237 47.94C145.237 47.82 145.177 47.73 145.177 47.61C145.177 47.43 145.237 47.28 145.267 47.1L145.237 46.98C145.327 46.89 145.417 46.68 145.387 46.56C145.537 46.29 145.567 46.02 145.627 45.72L145.687 45.66V45.51C145.957 45.3 146.047 44.97 146.257 44.7C146.407 44.64 146.437 44.55 146.467 44.4L146.617 44.22L146.647 44.07L146.827 43.89V43.77L147.007 43.71L147.097 43.53C147.337 43.38 147.577 43.11 147.727 42.87L147.757 42.66C147.877 42.54 148.027 42.39 148.177 42.3C148.207 42.12 148.387 41.97 148.477 41.79C148.627 41.7 148.777 41.52 148.897 41.4L148.927 41.31C149.077 41.16 149.257 41.04 149.407 40.89C149.467 40.5 151.807 38.64 152.257 38.46C152.287 38.28 152.797 38.04 152.947 37.89H153.067L153.097 37.83L153.007 37.8V37.77C153.277 37.65 153.517 37.41 153.817 37.38C153.907 37.32 153.937 37.17 154.027 37.11C154.357 36.84 155.497 36.72 155.947 36.72C156.187 36.87 156.427 37.08 156.727 37.08C156.937 37.26 157.117 37.53 157.297 37.74V37.86C157.387 38.01 157.387 38.19 157.387 38.37C157.297 38.55 157.177 38.73 157.057 38.91L157.027 39.06C156.787 39.21 156.547 39.63 156.457 39.9V39.99C156.217 40.38 155.797 40.59 155.557 40.98V41.16C155.467 41.25 155.377 41.34 155.257 41.4V41.52L155.137 41.58L155.167 41.7H154.777L154.717 41.73L154.597 41.94H154.507C154.417 41.88 154.327 41.82 154.237 41.79L154.117 41.61H153.997L153.937 41.46L153.997 41.37C154.057 41.34 154.117 41.31 154.117 41.22L153.997 41.19L154.027 41.07L153.997 40.92L154.087 40.8L154.237 40.89H154.357C154.507 40.74 154.987 40.41 155.197 40.32V40.23C155.257 40.14 155.377 40.11 155.467 40.05C155.557 39.69 155.707 39.57 155.977 39.33C156.097 39.06 156.157 38.73 156.277 38.46V38.43C156.217 38.34 156.157 38.22 156.157 38.1C156.067 38.04 156.007 37.95 155.977 37.86L155.887 37.8H155.737L155.677 37.86H155.647L155.527 37.74H155.437L155.347 37.8C155.047 37.62 154.417 38.1 154.207 38.28L153.967 38.31C153.817 38.4 153.697 38.58 153.517 38.61L153.427 38.7H153.307C153.067 38.88 152.827 39.06 152.527 39.15L152.437 39.3L152.257 39.27C152.257 39.3 152.287 39.36 152.287 39.39C152.137 39.57 151.897 39.69 151.717 39.87H151.627L151.447 39.99L151.477 40.08C151.357 40.11 151.057 40.17 151.087 40.35C150.937 40.53 150.727 40.59 150.577 40.77L150.517 40.92H150.217L150.127 41.01L150.097 41.16L149.947 41.28L149.917 41.37C149.827 41.43 149.737 41.43 149.647 41.49L149.617 41.46V41.22H149.497L149.437 41.31L149.497 41.49L149.647 41.64L149.467 41.76V41.91L149.287 42.09C149.227 42.3 149.107 42.33 148.927 42.45C148.897 42.6 148.717 42.72 148.597 42.78L148.567 42.87L148.477 42.96L148.507 43.05C148.357 43.23 148.117 43.26 148.057 43.5L147.967 43.59L147.937 43.74C147.727 43.86 147.727 44.19 147.487 44.34C147.457 44.7 147.247 44.67 147.097 44.94V45.03C146.977 45.12 146.917 45.24 146.917 45.42L146.857 45.48L146.647 45.51L146.617 45.54C146.647 45.63 146.707 45.75 146.677 45.84C146.617 45.9 146.557 45.96 146.467 45.99L146.647 46.05V46.17L146.527 46.23V46.44C146.467 46.5 146.407 46.56 146.467 46.65C146.437 46.71 146.407 46.89 146.407 46.98L146.467 47.07L146.437 47.1C146.347 47.13 146.257 47.13 146.197 47.22L146.227 47.37L146.317 47.46V47.55C146.287 47.61 146.257 47.7 146.197 47.76V47.82C146.197 48 146.317 48.15 146.317 48.33C146.317 48.42 146.287 48.48 146.287 48.57L146.197 48.54L146.047 48.57L146.227 48.66L146.317 48.63L146.377 48.69V48.78L146.287 48.87L146.467 49.05C146.467 49.14 146.527 49.2 146.587 49.26L146.617 49.38C146.887 49.74 148.537 50.37 149.017 50.37C150.337 50.37 154.117 49.41 155.137 48.6C155.527 48.27 155.947 48 156.427 47.82L156.457 47.73C156.517 47.64 156.757 47.61 156.847 47.55C157.537 47.13 158.137 46.56 158.887 46.2L158.977 46.05L159.127 46.02C159.247 45.9 159.367 45.72 159.457 45.57C159.607 45.54 159.757 45.42 159.847 45.33L159.997 45.42V45.45L159.937 45.51V45.63L159.787 45.84L159.607 45.93L159.517 46.05C159.517 46.14 159.517 46.26 159.427 46.32C158.887 46.32 158.617 47.1 158.017 47.22C157.297 47.82 156.397 48.24 155.647 48.81C155.377 48.84 155.017 49.08 154.867 49.29C154.837 49.29 151.207 50.67 151.177 50.7L150.847 50.73L150.637 50.91H149.977C149.677 51.03 149.377 51.06 149.047 51.06C148.477 51.06 148.027 50.94 147.487 50.88C146.767 50.31 145.747 50.31 145.417 49.26L145.477 49.17H145.327L145.267 49.11C145.267 48.87 145.267 48.66 145.267 48.42L145.147 48.3ZM148.717 42.27V42.33L148.747 42.36H148.837L148.927 42.24V42.21C148.897 42.21 148.867 42.18 148.837 42.18H148.807L148.717 42.27ZM147.817 50.7V50.76H147.907L148.087 50.64V50.61H147.997L147.817 50.7ZM147.037 43.8L147.067 43.83H147.157L147.247 43.77L147.217 43.74H147.067L147.037 43.77V43.8ZM149.017 41.73L149.047 41.79H149.167L149.107 41.67H149.047L149.017 41.7V41.73ZM153.577 38.22L153.517 38.25L153.547 38.28H153.667V38.25L153.637 38.22H153.577ZM145.867 48.51V48.57H145.927L145.987 48.54L145.957 48.51H145.867ZM155.377 40.8H155.317V40.89H155.347L155.377 40.86V40.8ZM147.637 43.68L147.577 43.71L147.607 43.74H147.667V43.68H147.637ZM147.217 44.52H147.157V44.55L147.187 44.58H147.217V44.52ZM148.147 42.96L148.177 43.02H148.237L148.207 42.96H148.147ZM149.017 41.97C149.017 42 149.017 42 149.047 42C149.077 42 149.077 42 149.077 41.97C149.077 41.94 149.077 41.94 149.047 41.94C149.017 41.94 149.017 41.94 149.017 41.97ZM146.557 44.67C146.557 44.7 146.557 44.7 146.587 44.7C146.617 44.7 146.617 44.7 146.617 44.67C146.617 44.64 146.617 44.64 146.587 44.64C146.557 44.64 146.557 44.64 146.557 44.67ZM149.107 41.91C149.107 41.94 149.107 41.94 149.137 41.94C149.167 41.94 149.167 41.94 149.167 41.91C149.167 41.88 149.167 41.88 149.137 41.88C149.107 41.88 149.107 41.88 149.107 41.91ZM146.047 46.26C146.017 46.26 146.017 46.26 146.017 46.29C146.017 46.32 146.017 46.32 146.047 46.32V46.26ZM152.647 38.7H152.587C152.587 38.73 152.587 38.73 152.617 38.73C152.647 38.73 152.647 38.73 152.647 38.7ZM151.237 39.66C151.237 39.69 151.237 39.69 151.267 39.69C151.297 39.69 151.297 39.69 151.297 39.66H151.237ZM146.227 45.6C146.227 45.63 146.227 45.63 146.257 45.63C146.287 45.63 146.287 45.63 146.287 45.6H146.227ZM146.707 45.03H146.677V45.06H146.737L146.707 45.03ZM145.477 46.98H145.417H145.477ZM153.967 41.22L153.937 41.25V41.22H153.967ZM146.377 45.6L146.407 45.63V45.6H146.377ZM159.379 47.43L159.229 47.28V47.16L159.289 47.04V46.83L159.469 46.65V46.62L159.319 46.56L159.259 46.44C159.349 46.35 159.379 46.23 159.409 46.11L159.529 45.99L159.469 45.87C159.589 45.57 159.739 45.27 159.829 44.94L159.919 44.85L159.889 44.7C160.009 44.64 160.159 44.61 160.279 44.58L160.309 44.55L160.189 44.31V44.28L160.369 44.16C160.399 44.04 160.459 43.95 160.519 43.86L160.489 43.8V43.71L160.639 43.68C160.699 43.62 160.759 43.59 160.819 43.53L160.849 43.44C161.089 43.14 161.269 42.78 161.689 42.78V42.54C161.779 42.39 161.929 42.39 161.959 42.21C162.109 42.06 162.289 41.85 162.469 41.73L162.619 41.7C162.739 41.58 162.829 41.43 162.979 41.31C163.369 41.19 163.669 40.89 164.059 40.77C164.179 40.62 164.359 40.56 164.569 40.56C164.809 40.56 165.049 40.65 165.169 40.89C165.169 41.04 165.229 41.13 165.319 41.25C165.319 41.31 165.349 41.4 165.349 41.46C165.349 41.58 165.259 41.67 165.289 41.79L165.199 41.91L165.169 42.06L164.929 42.3L164.899 42.48C164.749 42.66 164.509 42.75 164.359 42.93V43.08C164.269 43.17 164.209 43.29 164.149 43.41C163.999 43.44 163.879 43.56 163.789 43.68C163.789 43.98 163.789 44.1 163.549 44.31C163.429 44.34 163.279 44.43 163.189 44.52V44.61L163.099 44.7C163.039 45.06 162.769 44.91 162.709 45.21C162.589 45.3 162.409 45.45 162.379 45.6C162.289 45.63 162.199 45.66 162.169 45.75C161.929 45.93 161.719 46.14 161.479 46.32L161.239 46.38C161.179 46.41 161.179 46.53 161.149 46.59C161.029 46.74 160.819 46.86 160.669 47.01V47.13L160.579 47.16L160.429 47.1H160.369C160.309 47.13 160.309 47.22 160.309 47.28C160.309 47.46 160.369 47.67 160.459 47.82L160.549 47.85C160.669 47.97 160.789 48.09 160.939 48.18L161.119 48.21C161.209 48.39 161.269 48.48 161.449 48.57H161.539L161.569 48.45C161.839 48.45 162.109 48.48 162.379 48.48C162.589 48.48 162.769 48.42 162.979 48.42L163.039 48.39C163.129 48.39 163.249 48.39 163.339 48.36L163.549 48.39L163.759 48.21C163.849 48.21 163.939 48.21 163.999 48.24C164.179 48.06 164.359 48.18 164.479 47.91L164.599 47.97H164.629C164.809 47.88 164.989 47.85 165.169 47.79L165.229 47.73C166.189 47.43 167.029 46.86 167.959 46.47L168.019 46.41L168.229 46.38L168.559 46.14L168.589 46.05L168.649 46.02L168.919 45.99C169.339 45.6 169.699 45.51 170.089 45.21L170.119 45.12L170.269 45H170.599L170.689 44.94L170.749 44.73L170.899 44.58H171.019C171.079 44.58 171.229 44.7 171.259 44.73V44.76L171.169 44.97C170.809 45 170.839 44.94 170.839 45.27L170.749 45.36L170.449 45.39L170.389 45.45V45.57C170.209 45.69 170.059 45.72 169.849 45.75L169.819 45.93C169.639 46.11 169.339 46.47 169.039 46.47C168.919 46.65 168.559 46.77 168.349 46.83C168.229 46.98 168.019 47.07 167.869 47.19C167.569 47.22 167.389 47.52 167.089 47.52L167.059 47.55V47.67L166.819 47.79H166.609L166.339 47.97L166.159 48C166.069 48.12 165.889 48.12 165.739 48.15L165.649 48.27C165.529 48.27 165.379 48.3 165.259 48.33C165.199 48.39 165.139 48.45 165.049 48.45C164.959 48.54 164.869 48.66 164.749 48.66L164.599 48.6V48.48L164.509 48.39V48.63C164.419 48.72 164.299 48.78 164.179 48.84L163.999 48.81C163.849 48.84 163.699 48.87 163.609 48.99C163.159 49.11 162.709 49.08 162.259 49.11L162.169 49.17H162.049L161.359 49.05H161.299C161.149 49.05 161.029 48.99 160.909 49.02C160.669 48.93 159.919 48.39 159.769 48.18V48C159.709 47.85 159.469 47.88 159.409 47.73L159.379 47.43ZM160.309 45.75C160.309 45.96 160.159 46.2 160.159 46.23C160.219 46.32 160.279 46.38 160.399 46.38C160.549 46.35 160.789 46.02 160.879 45.9C161.059 45.9 161.179 45.81 161.209 45.63C161.299 45.48 161.479 45.36 161.629 45.3C161.689 45.24 161.719 45.18 161.779 45.12L161.839 44.91L161.959 44.88L162.829 44.04L162.859 43.95L163.009 43.77C163.129 43.71 163.219 43.68 163.309 43.59C163.309 43.47 163.309 43.35 163.369 43.26H163.459L163.519 43.17L163.609 43.14V43.05C163.879 42.69 163.939 42.6 164.059 42.21C164.149 42.12 164.269 42.06 164.359 42V41.94L164.269 41.76V41.7H164.449L164.509 41.61H164.269C164.149 41.7 164.059 41.82 163.939 41.91H163.759L163.609 42.06C163.519 42.09 163.399 42.12 163.309 42.18H163.279C162.829 42.18 162.499 43.02 162.079 43.11C162.079 43.17 162.109 43.2 162.109 43.26C162.109 43.35 161.899 43.5 161.839 43.56L161.809 43.65C161.689 43.77 161.599 43.86 161.539 44.01L161.269 44.13L161.209 44.19C161.149 44.37 161.209 44.43 160.999 44.52L160.969 44.64L160.909 44.7L160.879 44.85C160.699 45.06 160.459 45.12 160.369 45.42V45.66L160.309 45.75ZM163.369 41.37L163.399 41.4H163.579C163.609 41.4 163.669 41.37 163.699 41.37V41.28L163.669 41.25H163.549L163.489 41.31H163.369V41.37ZM164.749 41.79L164.659 41.88V41.97L164.689 42H164.749L164.869 41.91V41.88L164.809 41.79H164.749ZM163.819 41.1L163.909 41.19L163.969 41.16V41.04H163.849L163.819 41.07V41.1ZM163.519 43.47L163.549 43.5H163.579L163.639 43.38L163.579 43.32H163.549L163.519 43.35V43.47ZM164.329 41.07C164.359 41.1 164.359 41.13 164.329 41.16V41.19L164.389 41.25H164.419V41.19C164.419 41.13 164.389 41.07 164.389 41.01L164.329 40.98V41.07ZM164.059 41.43L164.029 41.49V41.58H164.089L164.149 41.55V41.46L164.089 41.43H164.059ZM162.229 44.91V44.94H162.349L162.379 44.91V44.88L162.349 44.85H162.259L162.229 44.91ZM162.499 44.58V44.64L162.559 44.7H162.589V44.61L162.559 44.58H162.499ZM162.889 41.64L162.979 41.73L163.009 41.7V41.64H162.889ZM161.629 45.54V45.6L161.659 45.63H161.689L161.719 45.6V45.57L161.689 45.54H161.629ZM161.209 43.68L161.179 43.71V43.74H161.239V43.68H161.209ZM164.509 42.24V42.33H164.569C164.539 42.3 164.539 42.27 164.509 42.24ZM164.029 40.98H163.969C163.969 41.01 163.969 41.01 163.999 41.01C164.029 41.01 164.029 41.01 164.029 40.98ZM161.479 43.23H161.419C161.419 43.26 161.419 43.26 161.449 43.26C161.479 43.26 161.479 43.26 161.479 43.23ZM163.279 41.97L163.309 42V41.97H163.279Z" fill="black"/>
<g clip-path="url(#clip0_271_550)">
<path d="M39 70.648C73.5327 69.7856 108.467 69.7791 143 70.648C108.467 71.5233 73.5327 71.5168 39 70.648Z" fill="black"/>
</g>
<defs>
<clipPath id="clip0_271_550">
<rect width="104" height="1.30324" fill="white" transform="translate(39 70)"/>
</clipPath>
</defs>
</svg>
