<?xml version="1.0" encoding="UTF-8"?>
<svg id="Layer_2" data-name="Layer 2" xmlns="http://www.w3.org/2000/svg" viewBox="0 0 655.18 152.72">
  <defs>
    <style>
      .cls-1 {
        fill: #03141e;
      }
    </style>
  </defs>
  <g id="Text">
    <g>
      <g>
        <path class="cls-1" d="m1.54,54.17c0-16.78,12.64-26.45,26.98-26.55,12.75-.11,23.16,5.95,23.16,16.46,0,3.4-2.23,7.01-8.71,6.69-12-.74-10.83-17.63-17.53-17.42-3.4.11-5.52,4.57-5.52,10.09,0,13.49,6.48,22.52,16.57,22.52,5.63,0,8.92-2.76,11.05-5.2,1.49-1.7,4.25-1.06,4.25,1.38,0,9.56-7.33,18.59-22.52,18.59-17.21,0-27.72-13.06-27.72-26.55Z"/>
        <path class="cls-1" d="m66.22,54.17c0-15.93,14.13-26.55,29.63-26.55s29.53,10.62,29.53,26.55-13.91,26.55-29.53,26.55-29.63-10.62-29.63-26.55Zm37.07,9.67c0-5.63-3.19-30.48-11.05-30.48-4.14,0-4.78,4.04-4.78,11.37,0,6.8,3.19,30.27,10.94,30.27,4.25,0,4.89-4.46,4.89-11.15Z"/>
        <path class="cls-1" d="m203.56,77.11v.42c0,1.38-1.06,2.23-2.66,2.23h-23.47c-1.59,0-2.66-.85-2.66-2.23v-.42c0-3.29,4.14-4.89,3.82-10.09l-1.06-18.38c-.53-9.88-1.7-13.28-5.84-13.28-3.82,0-5.2,3.61-5.2,9.13v22.52c0,5.2,4.89,6.8,4.89,10.09v.42c0,1.38-1.06,2.23-2.66,2.23h-25.6c-1.59,0-2.66-.85-2.66-2.23v-.42c0-3.29,4.89-4.89,4.89-10.09v-17.95c0-5.2-5.95-6.16-5.95-9.45v-.42c0-1.38,1.17-2.02,2.76-2.87l16.68-8.28c2.87-1.49,4.35.53,4.35,2.76v4.35c2.76-4.89,7.97-7.54,14.87-7.54,8.92,0,18.91,4.67,20.29,21.77l1.38,17.63c.42,5.2,3.82,6.8,3.82,10.09Z"/>
        <path class="cls-1" d="m280.78,77.11v.42c0,1.38-1.06,2.23-2.66,2.23h-23.47c-1.59,0-2.66-.85-2.66-2.23v-.42c0-3.29,4.14-4.89,3.82-10.09l-1.06-18.38c-.53-9.88-1.7-13.28-5.84-13.28-3.82,0-5.2,3.61-5.2,9.13v22.52c0,5.2,4.89,6.8,4.89,10.09v.42c0,1.38-1.06,2.23-2.66,2.23h-25.6c-1.59,0-2.66-.85-2.66-2.23v-.42c0-3.29,4.89-4.89,4.89-10.09v-17.95c0-5.2-5.95-6.16-5.95-9.45v-.42c0-1.38,1.17-2.02,2.76-2.87l16.68-8.28c2.87-1.49,4.35.53,4.35,2.76v4.35c2.76-4.89,7.97-7.54,14.87-7.54,8.92,0,18.91,4.67,20.29,21.77l1.38,17.63c.42,5.2,3.82,6.8,3.82,10.09Z"/>
        <path class="cls-1" d="m342.59,64.05c0,5.74-7.44,16.68-21.56,16.68-15.83,0-26.66-10.83-26.66-26.87s12.53-26.24,26.34-26.24,20.5,7.75,20.5,14.13c0,2.87-1.49,4.89-3.61,6.27l-19.23,12.53c2.66,3.4,6.27,5.31,10.62,5.31,3.72,0,7.65-1.59,9.45-3.4,1.59-1.59,4.14-.85,4.14,1.59Zm-29.21-22.09c0,4.78.64,9.03,1.91,12.64l6.8-4.99c1.7-1.27,2.76-3.51,2.76-5.84,0-2.97-.85-10.41-5.84-10.41-3.5,0-5.63,4.14-5.63,8.6Z"/>
        <path class="cls-1" d="m356.61,54.17c0-16.78,12.64-26.45,26.98-26.55,12.75-.11,23.16,5.95,23.16,16.46,0,3.4-2.23,7.01-8.71,6.69-12-.74-10.83-17.63-17.53-17.42-3.4.11-5.52,4.57-5.52,10.09,0,13.49,6.48,22.52,16.57,22.52,5.63,0,8.92-2.76,11.05-5.2,1.49-1.7,4.25-1.06,4.25,1.38,0,9.56-7.33,18.59-22.52,18.59-17.21,0-27.72-13.06-27.72-26.55Z"/>
        <path class="cls-1" d="m426.29,60.12v-23.47h-3.19c-1.49,0-2.66-1.17-2.66-2.66v-2.66c0-1.59,1.06-2.66,2.66-2.66h1.49c6.9,0,12.64-4.35,14.23-10.83.42-1.81,1.7-2.97,3.19-2.97h2.87c1.81,0,3.08,1.17,3.08,2.97v10.83h9.98c1.49,0,2.66,1.17,2.66,2.66v2.66c0,1.49-1.17,2.66-2.66,2.66h-9.98v23.9c0,2.97,1.91,4.89,4.36,4.89,3.93,0,5.42-1.91,6.69-3.4,1.7-1.91,4.25-1.17,4.25.96,0,8.5-6.27,17.74-18.69,17.74-11.05,0-18.27-7.22-18.27-20.61Z"/>
        <path class="cls-1" d="m476.74,77.43v-.42c0-3.29,4.36-4.89,4.36-10.09v-17.1c0-5.2-4.36-6.8-4.36-9.67v-.42c0-1.27,1.06-1.91,2.66-2.66l18.16-8.92c3.19-1.59,5.21.32,5.21,2.44v36.33c0,5.2,4.89,6.8,4.89,10.09v.42c0,1.38-1.06,2.23-2.66,2.23h-25.6c-1.59,0-2.66-.85-2.66-2.23Zm1.91-65.75c0-6.59,5.42-11.68,13.49-11.68s13.49,5.1,13.49,11.68-5.42,11.79-13.49,11.79-13.49-5.2-13.49-11.79Z"/>
        <path class="cls-1" d="m585.29,77.11v.42c0,1.38-1.06,2.23-2.66,2.23h-23.47c-1.59,0-2.66-.85-2.66-2.23v-.42c0-3.29,4.14-4.89,3.82-10.09l-1.06-18.38c-.53-9.88-1.7-13.28-5.84-13.28-3.82,0-5.2,3.61-5.2,9.13v22.52c0,5.2,4.89,6.8,4.89,10.09v.42c0,1.38-1.06,2.23-2.66,2.23h-25.6c-1.59,0-2.66-.85-2.66-2.23v-.42c0-3.29,4.89-4.89,4.89-10.09v-17.95c0-5.2-5.95-6.16-5.95-9.45v-.42c0-1.38,1.17-2.02,2.76-2.87l16.68-8.28c2.87-1.49,4.35.53,4.35,2.76v4.35c2.76-4.89,7.97-7.54,14.87-7.54,8.92,0,18.91,4.67,20.29,21.77l1.38,17.63c.42,5.2,3.82,6.8,3.82,10.09Z"/>
        <path class="cls-1" d="m647.32,37.81c2.66,3.5,4.67,7.86,4.67,12.75,0,7.97-4.25,14.34-11.05,18.06,9.56,2.02,12.11,5.74,12.11,10.83,0,8.07-12.75,13.81-28.57,13.81-14.87,0-25.17-3.72-25.17-13.28,0-3.72,2.55-7.86,8.18-7.86,10.41,0,9.35,15.4,17,15.61,4.78.11,7.33-3.29,7.33-8.18,0-3.82-.85-6.69-2.55-7.65-1.27.11-2.44.21-3.72.21-15.51,0-26.55-8.6-26.55-21.56,0-13.81,11.05-22.94,26.55-22.94,6.59,0,12.11,1.06,20.61,1.06,7.75,0,9.03.96,9.03,3.72,0,4.67-4.46,4.25-7.86,5.42Zm-18.91,28.47c2.44,0,3.72-2.66,3.72-7.44,0-7.65-4.04-25.49-9.56-25.49-2.34,0-3.72,2.44-3.72,7.44,0,10.09,4.46,25.49,9.56,25.49Z"/>
      </g>
      <g>
        <path class="cls-1" d="m10.2,139.13v-36.11H1.06c-.74,0-1.06-.42-1.06-1.06v-.21c0-.64.32-1.06,1.06-1.06h5.1c4.14,0,4.78-3.93,4.78-9.67,0-1.17.32-1.81,1.06-1.81h.21c.85,0,.96.64.96,1.81l.21,9.67h17c.64,0,1.06.42,1.06,1.06v.21c0,.64-.42,1.06-1.06,1.06H13.38v36.01c0,7.33,3.08,11.05,7.86,11.05s8.39-3.19,8.39-7.86c.11-1.49,2.66-1.7,2.66.11,0,5.63-4.35,10.3-10.94,10.3s-11.15-4.14-11.15-13.49Z"/>
        <path class="cls-1" d="m129.05,150.49v.42c0,.53-.74.74-1.91.74h-7.01c-1.17,0-1.81-.21-1.81-.74v-.42c0-1.38,3.82-.64,3.72-3.72l-.96-22.73c-.64-14.66-7.86-22.09-17-22.09s-16.46,6.59-17.42,15.4v29.63c0,2.97,3.82,2.02,3.82,3.5v.21c0,.53-.85.96-2.02.96h-6.69c-1.17,0-1.81-.42-1.81-.96v-.21c0-1.49,3.51-.53,3.51-3.5v-67.13c0-3.61-3.4-3.61-3.4-4.57v-.21c0-.53.32-.74.96-1.06l3.29-1.49c1.59-.74,2.44-.11,2.44.96l-.21,37.28c3.19-6.58,9.88-11.15,17.63-11.15,11.15,0,19.22,8.18,19.97,24.32l1.06,22.73c.21,3.19,3.82,2.44,3.82,3.82Z"/>
        <path class="cls-1" d="m223.05,138.28c-1.91,6.8-8.71,14.45-21.56,14.45s-23.47-10.2-23.47-27.08c0-14.45,10.09-26.02,24.43-26.02,10.83,0,19.54,8.71,19.54,15.83,0,2.23-1.27,3.29-4.14,4.04l-36.43,9.88c1.59,13.28,10.3,20.82,21.03,20.82,9.98,0,15.61-5.52,18.16-12.32.53-1.49,2.97-1.38,2.44.42Zm-41.85-13.28c0,.74,0,1.49.11,2.12l35.48-9.45c1.59-.53,2.12-1.27,2.12-2.34,0-5.52-7.33-13.49-16.89-13.49-12.43,0-20.82,11.05-20.82,23.16Z"/>
        <path class="cls-1" d="m388.74,150.81v.21c0,.53-.32.64-.96.64h-4.78c-.64,0-1.06-.53-1.06-1.06v-9.45c-3.61,7.65-11.37,11.58-18.69,11.58-13.17,0-24.32-11.47-24.32-26.77s10.09-26.34,24.75-26.34c7.86,0,15.08,4.57,18.38,10.73v-30.38c0-4.14-3.61-3.4-3.61-4.67v-.21c0-.42.32-.74,1.06-1.06l3.29-1.49c1.59-.74,2.23-.21,2.23.96v73.5c0,3.08,3.72,2.76,3.72,3.82Zm-6.8-17.21l.11-16.68c-.53-6.69-8.6-15.08-19.44-15.08-11.68,0-20.5,10.3-20.5,23.47,0,14.66,9.35,25.07,22.09,25.07,7.12,0,16.78-5.84,17.74-16.78Z"/>
        <path class="cls-1" d="m438.66,125c0-14.13,10.2-25.28,24.85-25.28s24.85,11.68,24.85,27.19-9.98,25.71-24.11,25.71-25.6-12.43-25.6-27.62Zm46.52,2.66c0-14.98-9.13-25.71-22.3-25.71-11.9,0-21.03,9.98-21.03,22.41,0,14.45,9.56,26.02,23.16,26.02,11.47,0,20.18-10.09,20.18-22.73Z"/>
        <path class="cls-1" d="m543.5,139.13v-36.11h-9.13c-.74,0-1.06-.42-1.06-1.06v-.21c0-.64.32-1.06,1.06-1.06h5.1c4.14,0,4.78-3.93,4.78-9.67,0-1.17.32-1.81,1.06-1.81h.21c.85,0,.96.64.96,1.81l.21,9.67h17c.64,0,1.06.42,1.06,1.06v.21c0,.64-.42,1.06-1.06,1.06h-17v36.01c0,7.33,3.08,11.05,7.86,11.05s8.39-3.19,8.39-7.86c.11-1.49,2.66-1.7,2.66.11,0,5.63-4.35,10.3-10.94,10.3s-11.15-4.14-11.15-13.49Z"/>
        <path class="cls-1" d="m612.11,140.72c0-1.06.64-1.91,1.91-1.91,3.93,0,.53,11.68,18.59,11.68,9.13,0,16.57-4.35,16.57-11.58,0-18.06-35.48-5.63-35.48-25.81,0-7.33,7.44-13.49,18.16-13.49,12.85,0,19.54,7.54,19.54,12.32,0,1.17-.64,1.91-1.59,1.91-3.29,0-1.06-12-18.06-12-7.86,0-14.87,4.67-14.87,11.37,0,17.1,35.48,4.35,35.48,25.81,0,7.54-7.65,13.7-19.76,13.7-14.76,0-20.5-8.6-20.5-12Z"/>
      </g>
    </g>
  </g>
</svg>