<svg width="599" height="118" viewBox="0 0 599 118" fill="none" xmlns="http://www.w3.org/2000/svg">
<path d="M467.7 30.55C466.467 29.9167 464.433 29.45 461.6 29.15C459.5 28.9167 458 28.95 457.1 29.25C455.767 29.6833 454.75 30.8167 454.05 32.65C452.55 36.6167 452.1 46.0834 452.7 61.05C453.033 69.75 451.967 75.5333 449.5 78.4C447.6 80.5667 443.833 81.7167 438.2 81.85C435.4 81.9167 433.383 81.8333 432.15 81.6C430.083 81.2 428.433 80.2667 427.2 78.8C424.133 75.1667 423.017 67.2833 423.85 55.15C424.317 48.05 424.4 43.2667 424.1 40.8C423.1 33.1334 419.833 29.25 414.3 29.15C411.633 29.1167 409.667 29.5667 408.4 30.5C406.967 31.5667 405.95 33.5333 405.35 36.4C404.45 40.7667 404.2 52.4333 404.6 71.4C404.733 78.6 406.533 84.2 410 88.2C413.6 92.3666 418.933 94.6166 426 94.95C428.9 95.1166 431.933 94.4333 435.1 92.9C438.3 91.3667 441.317 90.65 444.15 90.75C445.717 90.8167 448.717 91.3667 453.15 92.4C457.583 93.4 460.733 93.9334 462.6 94C467.167 94.1667 470.15 92.3833 471.55 88.65C472.75 85.4167 473.533 78.0334 473.9 66.5C474.4 50.3 473.683 39.8666 471.75 35.2C470.817 32.9666 469.467 31.4167 467.7 30.55ZM388.7 29.7C387 28.3667 384.45 27.7334 381.05 27.8C376.55 27.9 373.633 29.9667 372.3 34C371.067 37.6667 370.45 45.3833 370.45 57.15C370.417 73.3167 370.767 82.95 371.5 86.05C372.233 89.0167 373.45 91.0666 375.15 92.2C376.883 93.4 379.417 93.8334 382.75 93.5C387.717 93 390.717 90.6667 391.75 86.5C392.317 84.2 392.65 76.8167 392.75 64.35C392.883 56.2167 392.933 50.6 392.9 47.5C392.9 42.4 392.633 38.6 392.1 36.1C391.5 33.1 390.367 30.9667 388.7 29.7ZM387 1.70001C384.8 0.566679 382.7 0 380.7 0C378.133 0 376.05 0.533339 374.45 1.60001C373.05 2.53334 372.35 3.61667 372.35 4.85001C372.35 6.11667 373.067 7.41667 374.5 8.75C376.433 10.5167 379.05 11.5 382.35 11.7C384.75 11.8333 386.767 11.4333 388.4 10.5C390.033 9.56667 390.883 8.36666 390.95 6.89999C391.05 4.83333 389.733 3.10001 387 1.70001ZM345 0.899994C339.667 0.699994 336.517 3.66669 335.55 9.80002C335.183 12.1667 335 15.7333 335 20.5C335 23.2667 335 27.95 335 34.55C334.667 53.65 334.533 65.6166 334.6 70.45C334.733 79.6833 335.4 85.6833 336.6 88.45C338.267 92.25 341.533 93.95 346.4 93.55C349.933 93.25 352.6 91.2 354.4 87.4C355.333 85.4333 355.967 81.2167 356.3 74.75C356.6 68.5834 356.667 59.45 356.5 47.35C356.5 47.05 356.483 39.3667 356.45 24.3C356.45 17.6667 356.233 12.9833 355.8 10.25C355.267 6.81667 354.217 4.43334 352.65 3.10001C351.083 1.76667 348.533 1.03333 345 0.899994ZM551.25 27.25C547.75 27.2833 544.4 28.45 541.2 30.75C537.8 33.15 533.4 34.5167 528 34.85C525.033 35.05 520.867 33.9 515.5 31.4C509.967 28.8333 505.867 27.5333 503.2 27.5C497.2 27.4667 492.683 29.85 489.65 34.65C485.683 40.95 483.867 51.6333 484.2 66.7C484.433 77.4 484.733 83.6167 485.1 85.35C486.233 90.5833 489.233 93.2667 494.1 93.4C498.933 93.5333 502.15 91.6167 503.75 87.65C504.65 85.3833 505.067 81.8334 505 77C504.733 72.3667 504.533 68.6667 504.4 65.9C504.167 60.7667 504.25 56.5833 504.65 53.35C505.95 43.75 510.533 39.4 518.4 40.3C521.567 40.6667 523.883 41.2 525.35 41.9C527.25 42.8333 528.667 44.3667 529.6 46.5C531.433 50.7667 532 60.2834 531.3 75.05C531.033 80.2834 531.417 84.35 532.45 87.25C534.083 91.7834 537.267 94.0334 542 94C546.667 93.9667 549.717 91.7167 551.15 87.25C552.05 84.35 552.25 80.7333 551.75 76.4C550.017 61.8333 549.917 52.4333 551.45 48.2C552.417 45.6333 554.067 43.8 556.4 42.7C558.6 41.6666 561.8 41.1333 566 41.1C571.133 41.0667 574.467 42.8333 576 46.4C577.6 50.1 578.2 57.7 577.8 69.2C577.467 78.4 577.9 84.65 579.1 87.95C580.567 92.05 583.683 93.85 588.45 93.35C592.617 92.9167 595.417 89.85 596.85 84.15C597.783 80.4833 598.25 74.5667 598.25 66.4C598.25 42.0667 594.883 29.3833 588.15 28.35C586.317 28.0833 583.733 28.9333 580.4 30.9C576.9 32.9667 574.05 33.9667 571.85 33.9C569.95 33.8333 566.55 32.6833 561.65 30.45C556.883 28.2833 553.417 27.2167 551.25 27.25ZM45.8 27.25C43.6667 27.3167 40.2 28.4167 35.4 30.55C30.5666 32.7167 27.1666 33.8333 25.2 33.9C23 33.9667 20.15 32.9667 16.65 30.9C13.3166 28.9333 10.7333 28.0833 8.89996 28.35C4.6333 29.0167 1.89995 34.6167 0.699951 45.15C0.233285 49.2167 0 56.7 0 67.6C0 79.9667 0.683321 87.3333 2.04999 89.7C2.71665 90.9 3.73331 91.7833 5.09998 92.35C6.36664 92.9167 8.06662 93.25 10.2 93.35C15.6333 93.5833 18.8666 91.7167 19.9 87.75C20.4 85.8167 20.4666 79.6333 20.1 69.2C19.7 57.7333 20.3166 50.0666 21.95 46.2C23.55 42.5 26.9167 40.5 32.05 40.2C40.7167 39.7 45.6666 43.0833 46.9 50.35C47.7 54.8167 47.7 63.5 46.9 76.4C47 81.2667 47.4333 84.8666 48.2 87.2C49.6666 91.6 52.4833 93.8667 56.65 94C61.8166 94.1667 65.1333 92.2667 66.6 88.3C67.2666 86.5334 67.5166 83.7167 67.35 79.85C66.9166 73.2833 66.6333 68.4833 66.5 65.45C66.2333 60.2166 66.3167 56.1 66.75 53.1C67.95 45.1667 72.3 41.2 79.8 41.2C87.9667 41.2 92.6 44.55 93.7 51.25C94.1 53.75 94.1666 57.5167 93.9 62.55C93.4 71.45 93.1333 76.2834 93.1 77.05C92.8333 88.4834 96.7 94.0167 104.7 93.65C108.9 93.45 111.667 90.7 113 85.4C113.767 82.3 114.25 76.0666 114.45 66.7C114.783 51.8333 112.45 41.1167 107.45 34.55C103.717 29.65 98.6833 27.2167 92.35 27.25C89.5166 27.2833 85.5833 28.5334 80.55 31C75.4833 33.5 71.65 34.7833 69.05 34.85C63.5167 34.9833 59.0833 33.7333 55.75 31.1C53.9167 29.6667 52.6333 28.7667 51.9 28.4C50.2333 27.5667 48.2 27.1833 45.8 27.25ZM307.25 32.65C302.05 29.6833 296.167 28.1667 289.6 28.1C277.733 28 268.783 32.5167 262.75 41.65C258.35 48.25 256.25 55.0833 256.45 62.15C256.717 71.6833 259.917 79.7334 266.05 86.3C272.35 93.0667 280.2 96.5 289.6 96.6C296.167 96.6667 302.467 95.2667 308.5 92.4C314.167 89.7 317.2 86.9666 317.6 84.2C317.8 82.7 316.117 82.2 312.55 82.7C307.317 83.7666 303.1 84.6167 299.9 85.25C286.633 87.75 278.517 86.3667 275.55 81.1C273.117 76.7667 272.667 73.1333 274.2 70.2C275.333 68 277.383 66.3667 280.35 65.3C283.25 64.2334 287.95 63.6334 294.45 63.5C297.95 63.4334 302.333 63.4667 307.6 63.6C316.833 63.6 322.283 62.5 323.95 60.3C325.017 58.9334 324.617 55.95 322.75 51.35C319.25 42.8167 314.083 36.5833 307.25 32.65ZM274.65 52.35C274.45 50.1833 275.067 47.6167 276.5 44.65C278.333 40.9167 280.833 38.7 284 38C286.633 37.4334 289.8 37.3667 293.5 37.8C297.533 38.2667 300.433 39.2 302.2 40.6C304.367 42.3 305.75 45.0167 306.35 48.75C306.983 52.7834 306.083 55.8 303.65 57.8C302.55 58.7334 300.917 59.3333 298.75 59.6C296.817 59.8333 294.067 59.85 290.5 59.65C285.2 59.35 281.917 59.0167 280.65 58.65C276.983 57.65 274.983 55.55 274.65 52.35ZM181 32C180.6 31.2334 179.767 30.5834 178.5 30.05C177.267 29.5167 176.033 29.25 174.8 29.25C166.633 29.25 161.867 36.6667 160.5 51.5C159.8 59.3 156.5 63.2 150.6 63.2C146.233 63.2 142.617 59.5333 139.75 52.2C138.85 49.8333 137.983 46.9667 137.15 43.6C136.383 40.3667 135.883 38.35 135.65 37.55C134.683 34.55 133.233 32.3 131.3 30.8C129.433 29.4 127.033 28.6333 124.1 28.5C119.233 28.3 116.683 29.1667 116.45 31.1C116.25 32.5667 117.6 36.1 120.5 41.7C123.2 46.8666 126.317 54.1667 129.85 63.6C134.817 76.9333 137.233 86.6833 137.1 92.85C137.067 95.35 136.8 97.2334 136.3 98.5C135.4 100.933 133.633 102.433 131 103C123.267 104.633 119.3 107.25 119.1 110.85C118.967 113.183 120.05 115 122.35 116.3C124.517 117.567 127.4 118.117 131 117.95C137.433 117.683 143.033 115.6 147.8 111.7C151.8 108.4 155.5 103.55 158.9 97.15C163.267 89.05 167.917 77.25 172.85 61.75C176.45 50.95 178.733 43.9667 179.7 40.8C181.167 36.0334 181.6 33.1 181 32ZM214.8 38.95C217.933 38.8833 221.483 40.4333 225.45 43.6C229.717 47.0333 233.3 48.9667 236.2 49.4C237.7 49.6333 239.4 49.5333 241.3 49.1C243.633 48.6 245.067 47.7667 245.6 46.6C245.867 46.0333 245.4 44.8334 244.2 43C242.833 40.9 241.05 38.85 238.85 36.85C232.65 31.2833 225.6 28.3667 217.7 28.1C209.433 27.8 202 30.25 195.4 35.45C187.333 41.7833 183.4 50.7 183.6 62.2C183.8 72.6333 187.533 81.0167 194.8 87.35C201 92.75 208.283 95.65 216.65 96.05C224.883 96.45 232.317 93.7 238.95 87.8C241.283 85.7334 243.233 83.5 244.8 81.1C246.167 79.0333 246.833 77.5666 246.8 76.7C246.733 74.7333 245.9 73.4667 244.3 72.9C242.5 72.2333 240 72.6 236.8 74C235.8 74.4334 233.733 76.3667 230.6 79.8C227.833 82.8 224.967 84.5334 222 85C216.067 85.9 211.233 84.8 207.5 81.7C202.667 77.6666 200.433 70.6666 200.8 60.7C201.1 52.9 203.017 47.05 206.55 43.15C209.083 40.3833 211.833 38.9833 214.8 38.95Z" fill="black"/>
</svg>
