<svg width="2428" height="1641" viewBox="0 0 2428 1641" fill="none" xmlns="http://www.w3.org/2000/svg">
<g filter="url(#filter0_f_356_1108)">
<rect x="200" y="200" width="2028" height="1241" fill="black" fill-opacity="0.2"/>
</g>
<path d="M654.722 942.689C661.821 959.116 665.681 971.647 666.302 980.281C668.481 1003.69 657.738 1020.87 638.193 1029.37C623.14 1035.92 609.475 1035.63 597.153 1028.35C584.83 1021.07 575.058 1008.92 567.654 991.704L553.762 959.632C554.835 961.132 556.264 962.34 557.92 963.146L557.863 963.013C559.233 963.662 563.106 962.917 569.567 960.568C576.209 958.301 581.69 956.228 586.01 954.35L623.33 938.114C636.814 932.24 643.827 927.932 644.674 925.22C645.306 923.683 645.442 921.987 645.064 920.368L654.722 942.689ZM569.139 990.892C581.176 1018.75 600.54 1027.51 631.418 1014.05C646.215 1007.61 655.588 998.685 659.337 987.215C663.086 975.744 662.049 963.242 656.026 949.307C654.826 946.427 653.404 943.646 651.772 940.988L580.32 972.124C579.658 972.403 578.981 972.646 578.293 972.85C575.809 973.929 575.438 974.235 573.04 975.448C569.234 977.415 566.284 981.045 566.884 985.314C567.321 986.68 568.111 988.523 569.139 990.892Z" fill="#F4F4F5"/>
<path d="M659.879 1080.62C662.196 1084.38 663.98 1088.44 665.18 1092.69L669.633 1089.83C674.8 1086.52 677.94 1083.99 680.918 1079.89C684.125 1075.62 683.963 1070.29 680.509 1064.85C677.588 1060.27 673.154 1058.35 667.273 1059.22C666.791 1059.32 666.298 1059.35 665.808 1059.31C665.262 1059.45 664.695 1059.46 664.142 1059.36L661.649 1059.43C660.184 1059.51 658.928 1058.62 657.938 1057.05C656.321 1054.51 656.758 1052.53 659.166 1051C661.573 1049.46 664.218 1049.62 667.549 1051.4C674.41 1055 679.12 1060.81 682.117 1065.52C684.136 1068.76 685.768 1072.23 686.98 1075.85C688.36 1079.89 688.883 1083.12 688.474 1085.93C687.332 1091.59 683.716 1096.29 677.816 1100.06L656.083 1113.81C648.622 1118.59 644.236 1122.07 642.923 1124.27C642.454 1125.23 642.2 1126.28 642.178 1127.36C642.157 1128.43 642.369 1129.49 642.799 1130.47L625.833 1103.74C621.303 1096.61 618.686 1091.16 616.812 1083.68C615.185 1076.04 617.697 1069.35 624.919 1064.72C636.109 1057.57 649.441 1064.16 659.879 1080.62ZM631.675 1075.4C626.975 1078.41 624.358 1080.94 622.445 1085.39C620.532 1089.84 621.95 1096.07 626.556 1103.32C629.163 1107.42 631.456 1109.7 633.35 1110L633.988 1109.93C636.966 1109.55 642.276 1107 649.859 1102.15L664.38 1093.04C663.319 1089.46 661.817 1086.03 659.908 1082.82C650.164 1067.43 639.735 1070.2 631.675 1075.36V1075.4Z" fill="#F4F4F5"/>
<path d="M708.408 1107.68C714.27 1113.41 719.722 1119.07 724.48 1124.6L716.278 1131.72C724.337 1132.11 734.7 1135.81 740.39 1142.43C746.08 1149.04 748.431 1155.7 747.622 1162.65C746.784 1169.69 743.273 1176.13 737.821 1180.63L723.671 1192.9C715.792 1199.74 711.396 1204.5 710.349 1207.23C709.807 1209.3 710.083 1211.51 711.12 1213.38L693.193 1192.57C694.934 1193.86 697.109 1194.42 699.254 1194.12C701.928 1193.5 707.58 1189.55 716.116 1182.16L727.687 1171.93L730.922 1169.12C732.216 1167.99 736.365 1163.83 737.631 1161.79C739.096 1159.76 741.618 1155.68 741.618 1152.84C741.726 1149.29 740.496 1145.82 738.173 1143.14C735.148 1139.71 731.295 1137.12 726.983 1135.62C722.955 1133.98 718.63 1133.22 714.289 1133.37L704.231 1142.28L689.13 1155.2C681.784 1161.57 677.625 1165.93 676.845 1168.31C676.478 1169.32 676.356 1170.41 676.49 1171.48C676.624 1172.55 677.01 1173.57 677.616 1174.46L659.727 1153.69C660.578 1154.42 661.578 1154.96 662.658 1155.27C663.737 1155.57 664.87 1155.64 665.978 1155.46C668.833 1154.66 674.19 1150.98 682.079 1144.15L687.788 1139.19L697.941 1130.38C700.629 1128.15 703.142 1125.72 705.458 1123.1C707.271 1121.44 708.753 1119.45 709.826 1117.23C710.237 1115.62 710.324 1113.95 710.08 1112.31C709.837 1110.67 709.268 1109.1 708.408 1107.68Z" fill="#F4F4F5"/>
<path d="M743.74 1231.88C743.479 1227.44 744.101 1222.99 745.572 1218.79C747.042 1214.59 749.331 1210.73 752.304 1207.43C759.06 1199.65 766.958 1195.35 775.989 1194.33C785.019 1193.3 793.526 1196.36 801.281 1203.14C805.124 1206.58 808.403 1210.6 810.996 1215.06C813.851 1219.84 814.118 1223.66 811.672 1226.52C810.083 1228.36 808.056 1228.3 805.791 1226.32C803.317 1224.15 803.736 1219.96 804.84 1216.34C806.115 1212.9 805.249 1207.57 800.948 1203.81C791.366 1195.43 779.224 1199.83 764.503 1216.78C759.665 1222.21 755.877 1228.5 753.332 1235.32C750.887 1242.49 752.105 1250.03 757.814 1255.01C764.37 1260.74 773.438 1263.18 781.374 1260.8L782.45 1261.75C773.182 1265.23 764.123 1263.02 755.083 1255.07C751.668 1252.23 748.891 1248.69 746.936 1244.69C744.981 1240.7 743.892 1236.33 743.74 1231.88Z" fill="#F4F4F5"/>
<path d="M834.699 1231.62C841.655 1235.64 848.212 1239.73 854.292 1244.04L839.001 1266.18L827.496 1282.41C821.92 1290.39 818.932 1295.65 818.77 1298.14C818.668 1299.21 818.817 1300.28 819.206 1301.28C819.594 1302.27 820.211 1303.16 821.007 1303.87L798.569 1288.09C799.552 1288.59 800.639 1288.87 801.744 1288.89C802.85 1288.9 803.945 1288.67 804.944 1288.19C807.666 1286.79 811.938 1281.92 817.924 1273.36L822.272 1267.14L829.97 1256.12C832.03 1253.3 833.875 1250.33 835.489 1247.23C836.688 1245.07 837.594 1242.77 838.182 1240.37C838.252 1238.75 837.978 1237.13 837.378 1235.62C836.777 1234.11 835.864 1232.75 834.699 1231.62ZM867.776 1226.75C866.464 1228.6 864.478 1229.85 862.252 1230.23C860.026 1230.61 857.739 1230.1 855.89 1228.8C854.04 1227.5 852.777 1225.51 852.376 1223.28C851.976 1221.05 852.469 1218.75 853.75 1216.88C854.388 1216.01 855.193 1215.27 856.117 1214.71C857.042 1214.15 858.067 1213.78 859.135 1213.62C860.203 1213.46 861.292 1213.52 862.339 1213.78C863.386 1214.05 864.37 1214.52 865.235 1215.17C869.317 1218.01 870.307 1223.08 867.776 1226.75Z" fill="#F4F4F5"/>
<path d="M876.035 1261.13C883.543 1264.37 890.661 1267.72 897.065 1271.18L891.936 1280.73C899.605 1278.21 910.596 1277.95 918.265 1282.1C925.935 1286.24 930.503 1291.65 932.215 1298.41C933.931 1305.28 932.939 1312.55 929.446 1318.71L920.587 1335.24C915.658 1344.45 913.241 1350.46 913.279 1353.39C913.511 1355.52 914.55 1357.48 916.182 1358.86L892.05 1345.83C894.114 1346.43 896.331 1346.2 898.226 1345.18C900.509 1343.64 904.382 1337.92 909.72 1327.99L916.895 1314.29L918.922 1310.47C919.731 1308.96 922.129 1303.59 922.576 1301.23C923.223 1298.81 924.137 1294.09 923.128 1291.44C921.965 1288.08 919.588 1285.29 916.467 1283.61C912.42 1281.49 907.898 1280.45 903.336 1280.59C898.996 1280.51 894.688 1281.34 890.689 1283.03L884.457 1294.96L874.941 1312.43C870.336 1321.03 868.004 1326.59 868.118 1329.09C868.138 1330.17 868.411 1331.22 868.915 1332.17C869.42 1333.13 870.141 1333.94 871.021 1334.56L846.889 1321.53C847.943 1321.91 849.067 1322.06 850.182 1321.96C851.298 1321.86 852.379 1321.52 853.35 1320.96C855.767 1319.17 859.44 1313.84 864.379 1304.62L867.957 1297.93L874.313 1286.07C876.025 1283.03 877.508 1279.86 878.747 1276.59C879.845 1274.38 880.52 1271.99 880.736 1269.53C880.553 1267.88 880.043 1266.29 879.235 1264.85C878.428 1263.41 877.34 1262.15 876.035 1261.13Z" fill="#F4F4F5"/>
<path d="M969.107 1313.37C975.92 1311.72 983.856 1312.47 992.572 1315.64C994.998 1316.51 997.371 1317.53 999.68 1318.68C1008 1314.54 1015.21 1313.5 1021.52 1315.81C1022.18 1316.06 1023.21 1316.59 1024.37 1317.16C1026.5 1318.39 1027.66 1321.09 1026.48 1323.1C1024.47 1325.73 1022.19 1326.58 1019.51 1325.6C1019.23 1325.51 1018.56 1324.48 1017.28 1322.51C1016.09 1320.56 1014.26 1319.09 1012.11 1318.34C1008.22 1316.93 1005.76 1317.39 1001.19 1319.56C1013.3 1326.4 1018.86 1336.64 1014.35 1349.16C1008.77 1364.66 993.98 1367.31 976.291 1360.93C975.082 1360.49 973.389 1359.72 971.153 1358.75C964.631 1357.48 960.622 1358.92 959.125 1363.07C954.948 1374.66 1009.13 1376.36 997.863 1405.93C995.208 1412.89 990.117 1417.75 982.638 1420.37C975.159 1422.98 966.461 1422.72 956.527 1419.11C947.088 1415.38 935.992 1409.56 932.5 1399.42C931.438 1396.02 931.579 1392.36 932.9 1389.06C934.213 1385.42 936.887 1383.04 940.988 1381.78C944.878 1380.56 949.057 1380.63 952.902 1381.99C954.373 1382.52 955.732 1383.32 956.908 1384.36C955.005 1384.13 952.597 1384.93 949.847 1386.67C947.323 1388.16 945.372 1390.46 944.309 1393.19C940.427 1403.98 944.033 1412.91 957.279 1417.86C970.163 1422.54 980.697 1418.6 985.302 1405.8C988.461 1397.04 982.904 1390.15 974.245 1385.94C962.113 1380 945.27 1374.96 949.505 1364.14C951.008 1359.97 955.214 1357.53 961.97 1356.94L967.346 1356.76C954.71 1349.27 950.494 1339.51 954.814 1327.52C957.526 1319.82 962.294 1315.01 969.107 1313.37ZM967.461 1332.27C965.082 1338.87 964.711 1344.52 966.119 1349.46C967.717 1354.31 971.191 1357.7 976.7 1359.71C982.21 1361.71 987.044 1361.33 991.221 1358.58C995.579 1355.72 998.9 1351.16 1001.28 1344.56C1003.66 1337.96 1004.03 1332.3 1002.49 1327.37C1000.95 1322.44 997.463 1318.99 992.087 1317.04C986.711 1315.1 981.877 1315.47 977.518 1318.31C973.16 1321.14 969.839 1325.67 967.461 1332.27ZM1001.19 1319.53L1000.24 1319.96L998.814 1319.29L999.642 1318.68C1000.13 1319 1000.65 1319.29 1001.19 1319.53Z" fill="#F4F4F5"/>
<path d="M1081.02 1411.6C1082.99 1411.54 1084.92 1410.94 1086.58 1409.87C1088.92 1408.44 1090.68 1403.76 1092.12 1396C1092.94 1391.92 1093.73 1386.97 1094.47 1381.28L1099.74 1340.8C1101.57 1326.74 1101.21 1318.46 1098.83 1315.69C1097.64 1314.37 1096.14 1313.38 1094.46 1312.82L1165.51 1322.13L1163.61 1336.46L1162.65 1336.33C1161.96 1331.75 1158.96 1328.19 1153.71 1325.48C1147.91 1322.4 1135.75 1319.65 1117.35 1317.24L1110.62 1368.94L1114.31 1369.43L1117.56 1369.85L1126.48 1371.03C1132.27 1371.78 1136.33 1371.6 1138.66 1370.31C1140.98 1369.02 1142.76 1365.35 1144.12 1359.33L1144.82 1359.41L1141.09 1388.06L1140.38 1387.97C1140.91 1381.68 1139.71 1377.63 1136.9 1375.95C1134.1 1374.28 1128.13 1372.64 1118.82 1371.42L1114.15 1370.8L1110.48 1370.32L1108.81 1383.1C1108.17 1388.07 1107.63 1392.19 1107.34 1395.51C1106.48 1406.53 1108.23 1412.97 1112.71 1415.15H1112.56C1113 1415.23 1113.42 1415.38 1113.8 1415.6C1114.33 1415.84 1114.89 1416.01 1115.47 1416.11L1081.02 1411.6Z" fill="#F4F4F5"/>
<path d="M1181.94 1355.31C1190.36 1354.58 1198.12 1354.14 1205.21 1354.13C1205.21 1361.77 1205.21 1367.5 1205.38 1371.18C1206.73 1366.62 1209.41 1362.58 1213.07 1359.56C1216.6 1356.41 1221.17 1354.66 1225.9 1354.67C1230.47 1354.67 1235.48 1356.24 1235.48 1360.11C1235.48 1362.97 1233.63 1364.98 1231.35 1364.98C1229.14 1364.82 1227.04 1363.98 1225.34 1362.55C1223.61 1361.1 1221.46 1360.25 1219.2 1360.13H1218.21C1213.5 1360.57 1209.79 1365.59 1207.95 1372.32C1206.46 1377.7 1205.55 1383.23 1205.26 1388.8C1205 1406.28 1205.59 1416.31 1207.16 1418.89C1207.71 1419.8 1208.46 1420.58 1209.35 1421.17C1210.24 1421.77 1211.25 1422.16 1212.31 1422.31H1184.9C1186 1422.18 1187.05 1421.78 1187.97 1421.16C1188.89 1420.53 1189.64 1419.7 1190.17 1418.72C1191.31 1417 1192.02 1412.55 1192.15 1406.11C1192.29 1402.81 1192.29 1400.09 1192.29 1397.8C1192.43 1394.93 1192.43 1392.06 1192.29 1389.2V1383.76C1192.29 1370.39 1191.53 1362.75 1189.96 1360.41C1188.37 1357.88 1185.8 1356.16 1181.94 1355.31Z" fill="#F4F4F5"/>
<path d="M1308.97 1356.06C1316 1361.68 1320.14 1369.53 1321.43 1379.94C1322.73 1390.35 1320.76 1398.79 1315.46 1405.95C1310.32 1413.1 1302.78 1417.22 1292.87 1418.47C1282.81 1419.73 1274.35 1417.62 1267.46 1411.98C1260.57 1406.35 1256.41 1398.36 1255.14 1388.1C1253.86 1377.85 1255.82 1369.39 1261.11 1362.23C1266.4 1355.07 1273.77 1350.68 1283.54 1349.45C1293.46 1348.19 1301.93 1350.44 1308.97 1356.06ZM1302.01 1361.41C1298.61 1353.77 1292.18 1349.5 1283.83 1350.55C1271.08 1352.15 1266.09 1364.04 1268.87 1386.36C1269.68 1393.35 1271.55 1400.17 1274.41 1406.59C1277.8 1414.11 1284.23 1418.36 1292.72 1417.29C1305.46 1415.69 1310.45 1403.8 1307.69 1381.63C1306.9 1374.63 1304.98 1367.8 1302.01 1361.42V1361.41Z" fill="#F4F4F5"/>
<path d="M1345.81 1345.01C1350.45 1339.74 1357.37 1335.78 1366.33 1333.36C1368.81 1332.68 1371.33 1332.14 1373.88 1331.75C1378.33 1323.57 1383.64 1318.57 1390.11 1316.82C1390.81 1316.62 1391.94 1316.46 1393.23 1316.27C1395.68 1316.04 1398.16 1317.6 1398.35 1319.92C1398.2 1323.22 1396.82 1325.23 1394.06 1325.98C1393.79 1326.06 1392.64 1325.63 1390.48 1324.73C1388.37 1323.81 1386.02 1323.66 1383.81 1324.3C1379.82 1325.38 1378.11 1327.17 1375.57 1331.58C1389.4 1330.21 1399.81 1335.4 1403.27 1348.26C1407.56 1364.16 1396.99 1374.89 1378.81 1379.83C1377.56 1380.17 1375.74 1380.51 1373.36 1381.01C1367.28 1383.7 1364.82 1387.2 1365.97 1391.51C1369.17 1403.4 1414.5 1373.59 1422.2 1404.3C1424 1411.53 1422.61 1418.45 1417.99 1424.89C1413.36 1431.34 1406.08 1436.13 1395.88 1438.9C1386.03 1441.28 1373.6 1442.87 1364.96 1436.6C1362.14 1434.43 1360.16 1431.35 1359.35 1427.88C1358.4 1424.15 1359.18 1420.66 1361.82 1417.27C1364.31 1414.03 1367.78 1411.69 1371.7 1410.59C1373.21 1410.17 1374.78 1410.05 1376.34 1410.22C1374.65 1411.12 1373.13 1413.16 1371.87 1416.17C1370.66 1418.85 1370.37 1421.85 1371.06 1424.71C1374.04 1435.77 1382.11 1441.01 1395.8 1437.44C1409.03 1433.85 1415.41 1424.56 1411.87 1411.42C1409.45 1402.43 1400.95 1399.96 1391.46 1401.52C1378.13 1403.65 1361.44 1409.22 1358.7 1397.94C1357.55 1393.65 1359.65 1389.23 1364.79 1384.86L1369.09 1381.62C1354.47 1382.76 1345.43 1377.21 1342.12 1364.89C1340.01 1356.97 1341.17 1350.27 1345.81 1345.01ZM1355.26 1361.44C1357.09 1368.22 1360.02 1373.06 1363.99 1376.29C1368.07 1379.34 1372.86 1380.11 1378.51 1378.58C1384.15 1377.05 1387.91 1373.96 1389.76 1369.3C1391.71 1364.46 1391.81 1358.79 1389.99 1352.02C1388.17 1345.25 1385.23 1340.4 1381.12 1337.21C1377.01 1334.02 1372.22 1333.24 1366.71 1334.74C1361.2 1336.24 1357.44 1339.33 1355.49 1344.16C1353.54 1348.99 1353.44 1354.67 1355.26 1361.42V1361.44ZM1375.61 1331.58L1375.11 1332.46L1373.56 1332.74L1373.88 1331.78C1374.46 1331.76 1375.04 1331.7 1375.61 1331.58Z" fill="#F4F4F5"/>
<path d="M1466.7 1294C1466.43 1293.5 1465.54 1291.86 1464.24 1289.15C1463.26 1287.02 1462.14 1284.96 1460.9 1282.98C1460.02 1281.67 1458.95 1279.97 1457.42 1278.03C1454.56 1274.21 1450.99 1273.06 1447.31 1273.76L1472.52 1260.03C1471.67 1260.88 1470.93 1261.84 1470.32 1262.89C1469.08 1266.01 1472.72 1275.44 1481.3 1291.3L1494.62 1315.97C1496.47 1312.2 1499.61 1308.7 1504.03 1305.47C1508.11 1302.46 1512.42 1299.78 1516.93 1297.47C1521.42 1295.21 1525.66 1292.46 1529.56 1289.28C1533.27 1286.36 1536.18 1282.53 1538 1278.16L1530.56 1264.44C1523.28 1250.97 1518.19 1243.32 1515.22 1241.17C1514.1 1240.25 1512.72 1239.69 1511.28 1239.58H1511.03L1509.7 1239.82L1533.66 1226.76C1530.74 1229.49 1531.85 1235.74 1536.79 1245.76C1538.37 1248.98 1540.48 1252.88 1543.06 1257.66L1560.29 1289.52C1562.81 1294.17 1565.11 1298.11 1566.95 1301.21C1571.77 1309.49 1575.94 1313.9 1579.47 1314.45C1580.18 1314.41 1580.88 1314.3 1581.57 1314.11L1556.73 1327.66C1557.49 1326.89 1558.09 1325.97 1558.5 1324.97C1558.91 1323.96 1559.11 1322.89 1559.09 1321.8C1559.02 1319.56 1557.4 1315.12 1554.16 1308.18C1552.58 1304.97 1550.47 1301.07 1547.88 1296.28L1539.23 1280.29C1537.58 1284.11 1534.47 1287.76 1530.27 1291.05C1526.3 1294.14 1522.05 1296.84 1517.58 1299.11C1513.1 1301.38 1508.85 1304.07 1504.88 1307.16C1501.06 1309.98 1497.93 1313.64 1495.73 1317.86L1500.76 1327.18C1501.04 1327.67 1501.71 1328.94 1502.75 1331.14C1504.42 1334.48 1506.27 1337.71 1508.32 1340.83C1511.8 1345.77 1515.66 1348.4 1520.48 1347.41L1494.85 1361.32C1495.21 1360.8 1496.21 1359.93 1496.27 1359.74C1497.89 1357.06 1496.61 1351.07 1492.41 1341.79C1490.83 1338.57 1488.71 1334.67 1486.13 1329.88L1466.7 1294Z" fill="#F4F4F5"/>
<path d="M1605.98 1244.18C1609.5 1241.52 1613.38 1239.38 1617.49 1237.8L1614.26 1233.61C1610.46 1228.73 1607.73 1225.81 1603.38 1223.22C1598.86 1220.35 1593.59 1221.03 1588.5 1224.97C1584.21 1228.3 1582.7 1232.91 1584.1 1238.71C1584.24 1239.18 1584.32 1239.67 1584.32 1240.16C1584.51 1240.69 1584.57 1241.26 1584.52 1241.82L1584.8 1244.31C1585.02 1245.77 1584.24 1247.09 1582.78 1248.24C1580.41 1250.07 1578.4 1249.82 1576.66 1247.55C1574.92 1245.29 1574.85 1242.61 1576.31 1239.13C1579.26 1231.96 1584.61 1226.71 1589.02 1223.3C1592.04 1220.99 1595.33 1219.05 1598.82 1217.52C1602.7 1215.78 1605.86 1214.96 1608.69 1215.12C1614.4 1215.75 1619.39 1218.94 1623.66 1224.51L1639.26 1245C1644.66 1252.01 1648.52 1256.08 1650.82 1257.22C1651.82 1257.6 1652.88 1257.76 1653.95 1257.69C1655.01 1257.61 1656.05 1257.31 1656.98 1256.79L1632.02 1276.14C1625.36 1281.31 1620.17 1284.42 1612.93 1286.95C1605.51 1289.26 1598.66 1287.36 1593.4 1280.55C1585.25 1270.01 1590.63 1256.09 1605.98 1244.18ZM1603.34 1272.83C1606.74 1277.26 1609.49 1279.65 1614.07 1281.17C1618.66 1282.69 1624.71 1280.7 1631.5 1275.44C1635.3 1272.46 1637.39 1269.97 1637.53 1268.05L1637.4 1267.42C1636.77 1264.48 1633.75 1259.39 1628.25 1252.24L1617.9 1238.55C1614.44 1239.93 1611.17 1241.74 1608.15 1243.93C1593.81 1255.07 1597.49 1265.25 1603.33 1272.84L1603.34 1272.83Z" fill="#F4F4F5"/>
<path d="M1615.08 1148.63L1648.92 1181.93C1648.92 1175.35 1652.12 1167.09 1657.38 1161.63C1664.43 1154.33 1672.44 1150.75 1681.33 1150.81C1690.22 1150.87 1698.46 1154.29 1705.93 1161.57C1713.21 1168.64 1716.97 1176.85 1717.12 1186C1717.26 1195.15 1713.76 1203.27 1706.71 1210.59C1702.54 1214.91 1698.95 1218 1695.86 1219.78L1677.48 1238.81C1678.14 1237.9 1678.58 1236.85 1678.79 1235.75C1679 1234.64 1678.97 1233.5 1678.69 1232.41C1677.64 1229.55 1673.42 1224.7 1665.94 1217.42C1665.53 1217.03 1659.79 1211.24 1648.5 1200.07C1625.94 1177.54 1612.82 1165.19 1609.07 1163.93C1607.44 1163.67 1605.77 1163.73 1604.16 1164.12C1602.55 1164.51 1601.04 1165.22 1599.71 1166.21C1604.86 1159.89 1609.99 1153.89 1615.08 1148.63ZM1651.07 1184.03L1676.5 1209.15C1683.37 1215.83 1688.08 1219.6 1690.42 1220.48C1694.74 1219.52 1699.93 1215.97 1705.89 1209.79C1711.85 1203.61 1712.23 1195.6 1708.74 1188.47C1705.68 1182.09 1701.49 1176.32 1696.37 1171.44C1692.42 1167.47 1687.94 1164.06 1683.05 1161.32C1675 1156.48 1665.79 1154.51 1658.23 1162.33C1655.57 1165.23 1653.55 1168.66 1652.32 1172.4C1651.08 1176.15 1650.66 1180.11 1651.07 1184.03Z" fill="#F4F4F5"/>
<path d="M1687.66 1092.22C1689.39 1093.63 1690.5 1095.67 1690.75 1097.9C1691.01 1100.12 1690.39 1102.36 1689.02 1104.14C1687.66 1105.91 1685.66 1107.08 1683.45 1107.39C1681.24 1107.71 1678.99 1107.14 1677.19 1105.82C1676.35 1105.14 1675.65 1104.3 1675.14 1103.34C1674.63 1102.39 1674.31 1101.34 1674.2 1100.27C1674.09 1099.19 1674.19 1098.1 1674.51 1097.06C1674.82 1096.02 1675.33 1095.06 1676.02 1094.22C1679.06 1090.25 1684.21 1089.5 1687.66 1092.22ZM1690.98 1125.65C1695.31 1118.86 1699.68 1112.48 1704.23 1106.54L1725.54 1122.91L1741.14 1135.22C1748.81 1141.18 1753.9 1144.4 1756.37 1144.7C1757.43 1144.86 1758.52 1144.76 1759.54 1144.41C1760.56 1144.07 1761.49 1143.48 1762.24 1142.7L1745.46 1164.46C1746.02 1163.5 1746.34 1162.42 1746.41 1161.31C1746.48 1160.21 1746.3 1159.1 1745.87 1158.07C1744.61 1155.27 1739.96 1150.76 1731.72 1144.37L1725.74 1139.71L1715.13 1131.47C1712.42 1129.28 1709.56 1127.29 1706.56 1125.52C1704.49 1124.22 1702.25 1123.21 1699.9 1122.5C1698.28 1122.35 1696.65 1122.55 1695.11 1123.08C1693.57 1123.62 1692.16 1124.47 1690.98 1125.6V1125.65Z" fill="#F4F4F5"/>
<path d="M1721.41 1085.13C1725.97 1077.67 1726.7 1071.18 1724.18 1066.34C1721.49 1061.23 1718.86 1058.7 1713.51 1054.62L1717.11 1048.93L1735.9 1060.93L1746.16 1044.69L1747.97 1045.85L1737.71 1062.08L1784.08 1091.69C1788.78 1094.69 1792.14 1094.46 1794.2 1091.2C1795.51 1089.14 1795.96 1086.54 1795.53 1083.22C1795.11 1079.9 1794.15 1077.4 1792.4 1075.58L1793.86 1075.15C1796.06 1078.79 1797.46 1082.87 1797.96 1087.1C1798 1090.85 1796.81 1094.5 1794.58 1097.51C1792.61 1100.55 1789.62 1102.8 1786.16 1103.85C1784.53 1104.41 1782.79 1104.59 1781.08 1104.38C1779.37 1104.17 1777.72 1103.58 1776.27 1102.64L1730.51 1073.42L1722.62 1085.84L1721.41 1085.13Z" fill="#F4F4F5"/>
<path d="M1793.64 1010.9C1795.61 1006.95 1798.11 1003.29 1801.08 1000.03L1796.32 997.731C1790.8 995.057 1787.01 993.7 1781.96 993.328C1776.66 992.822 1772.22 995.773 1769.43 1001.58C1767.08 1006.48 1767.79 1011.27 1771.61 1015.84C1771.95 1016.19 1772.24 1016.6 1772.46 1017.04C1772.88 1017.43 1773.2 1017.91 1773.41 1018.44L1774.78 1020.53C1775.63 1021.74 1775.51 1023.28 1774.71 1024.95C1773.41 1027.66 1771.51 1028.33 1768.93 1027.09C1766.49 1025.91 1765.12 1023.49 1764.87 1019.72C1764.31 1011.97 1766.77 1004.88 1769.19 999.851C1770.86 996.431 1772.94 993.224 1775.37 990.3C1778.06 986.996 1780.53 984.847 1783.13 983.72C1788.52 981.714 1794.4 982.335 1800.7 985.382L1823.79 996.718C1831.76 1000.58 1837.02 1002.49 1839.57 1002.45C1840.63 1002.34 1841.66 1002.01 1842.58 1001.46C1843.5 1000.92 1844.29 1000.18 1844.89 999.297L1831.19 1027.82C1827.53 1035.46 1824.28 1040.54 1818.93 1046.06C1813.33 1051.46 1806.32 1052.84 1798.62 1049.1C1786.63 1043.27 1785.2 1028.43 1793.64 1010.9ZM1804.05 1037.73C1809.07 1040.16 1812.61 1041.07 1817.37 1040.36C1822.13 1039.64 1826.69 1035.16 1830.41 1027.42C1832.51 1023.03 1833.26 1019.89 1832.51 1018.1L1832.12 1017.6C1830.22 1015.25 1825.27 1012.06 1817.17 1008.13L1801.81 1000.49C1799.33 1003.28 1797.21 1006.37 1795.49 1009.68C1787.6 1026.09 1795.43 1033.54 1804.04 1037.7L1804.05 1037.73Z" fill="#F4F4F5"/>
<path d="M1788.77 958.486C1791.52 950.195 1790.78 943.701 1787.23 939.565C1783.42 935.201 1780.34 933.338 1774.19 930.559L1776.42 924.208L1797.45 931.629L1803.79 913.482L1805.81 914.189L1799.46 932.335L1851.31 950.644C1856.56 952.497 1859.77 951.513 1861.06 947.865C1861.86 945.563 1861.72 942.937 1860.55 939.785C1859.38 936.633 1857.89 934.446 1855.8 933.099L1857.11 932.354C1860.07 935.409 1862.34 939.063 1863.77 943.07C1864.64 946.71 1864.31 950.536 1862.82 953.968C1861.58 957.381 1859.19 960.246 1856.05 962.058C1854.59 962.981 1852.94 963.557 1851.22 963.741C1849.51 963.925 1847.77 963.711 1846.15 963.118L1794.99 945L1790.11 958.925L1788.77 958.486Z" fill="#F4F4F5"/>
<path d="M1357.03 1173.27L1359.11 1172H1358.84C1358.25 1172.39 1357.65 1172.81 1357.03 1173.27Z" fill="#F4F4F5"/>
<path d="M1862.93 498.975C1872.45 488.679 1885.61 480.914 1901.05 476.33C1891.38 471.573 1881.25 467.807 1870.82 465.089C1868.59 464.494 1866.21 464.788 1864.19 465.909C1862.17 467.03 1860.66 468.892 1859.97 471.106C1857.53 479.109 1858.55 488.469 1862.93 498.975Z" fill="url(#paint0_linear_356_1108)"/>
<path d="M1873.92 443.58C1874.1 444.769 1874.54 445.903 1875.22 446.896C1875.89 447.888 1876.79 448.714 1877.83 449.31C1890.13 456.276 1903.23 461.728 1916.84 465.547C1922.18 441.784 1938.73 422.635 1956.67 403.523L1959.67 400.267C1917.54 409.817 1889.4 422.081 1875.93 436.741C1875.1 437.654 1874.49 438.743 1874.14 439.928C1873.79 441.113 1873.72 442.362 1873.92 443.58Z" fill="url(#paint1_linear_356_1108)"/>
<path d="M1870.99 413.791C1871.35 414.184 1871.79 414.486 1872.29 414.669C1872.79 414.852 1873.32 414.911 1873.85 414.841C1874.01 414.836 1874.17 414.813 1874.33 414.774C1875.9 414.392 1877.47 413.972 1879.01 413.552C1885.18 411.938 1891.11 410.324 1896.83 408.652C1898.02 408.299 1899.17 407.945 1900.32 407.63C1906.46 405.72 1912.35 403.886 1918 401.967C1919.9 401.336 1921.73 400.706 1923.58 400.056C1925.42 399.407 1926.96 398.863 1928.64 398.232C1929.44 397.955 1930.24 397.64 1931.05 397.363C1931.6 397.153 1932.2 396.943 1932.79 396.695C1933.98 396.274 1935.12 395.825 1936.27 395.367H1936.35C1937.21 395.014 1938.05 394.67 1938.92 394.355L1939.41 394.144L1943.14 392.674C1943.14 392.674 1943.22 392.674 1943.24 392.674C1943.63 392.53 1944.05 392.358 1944.43 392.186C1945.9 391.585 1947.37 390.993 1948.79 390.362C1949.07 390.257 1949.38 390.114 1949.74 390.009C1951.14 389.417 1952.6 388.786 1953.93 388.194C1954.02 388.189 1954.1 388.166 1954.18 388.127C1954.91 387.774 1955.67 387.459 1956.4 387.105C1957.14 386.752 1957.84 386.513 1958.54 386.198C1958.64 386.198 1958.75 386.093 1958.85 386.055L1960.21 385.424C1961.29 384.976 1962.33 384.469 1963.42 383.992C1962.86 383.677 1962.3 383.361 1961.78 383.037C1961.39 382.827 1961.05 382.578 1960.7 382.368L1959.02 381.107C1958.75 380.897 1958.47 380.687 1958.18 380.448C1957.94 380.263 1957.71 380.062 1957.49 379.847L1956.54 379.006C1955.95 378.452 1955.35 377.851 1954.8 377.258C1954.32 376.785 1953.86 376.284 1953.44 375.759C1953.02 375.224 1952.6 374.737 1952.22 374.25C1951.84 373.763 1951.66 373.476 1951.38 373.133C1951.03 372.607 1950.65 372.082 1950.3 371.518C1949.94 370.955 1949.67 370.506 1949.34 370.009C1949.07 369.61 1948.82 369.188 1948.61 368.749C1948.23 368.09 1947.88 367.383 1947.56 366.686C1947.25 365.988 1946.94 365.358 1946.61 364.69C1946.29 364.021 1946.16 363.534 1945.95 362.942C1945.88 362.806 1945.82 362.666 1945.78 362.522C1945.63 362.168 1945.53 361.786 1945.4 361.433C1944.77 359.524 1944.24 357.582 1943.83 355.616C1943.75 355.234 1943.68 354.852 1943.62 354.461C1943.55 354.069 1943.44 353.553 1943.37 353.066C1943.23 352.111 1943.09 351.204 1942.99 350.258C1942.99 349.809 1942.91 349.389 1942.88 348.931C1942.85 348.472 1942.81 347.918 1942.78 347.431C1942.05 347.918 1941.28 348.444 1940.51 348.969C1939.75 349.494 1939.05 350.019 1938.28 350.545C1936.85 351.624 1935.35 352.751 1933.85 353.935C1933.64 354.079 1933.46 354.25 1933.25 354.394C1933.04 354.537 1932.81 354.776 1932.56 354.957C1927.36 359.083 1921.78 363.916 1915.99 369.054C1915.22 369.761 1914.49 370.42 1913.73 371.127C1912.97 371.834 1912.05 372.626 1911.22 373.362C1909.92 374.556 1908.6 375.749 1907.3 376.896C1900.72 382.884 1893.98 389.111 1887.19 395.138C1881.78 399.97 1876.38 404.689 1871.01 409.101C1870.42 409.736 1870.09 410.572 1870.09 411.442C1870.08 412.312 1870.41 413.151 1870.99 413.791Z" fill="url(#paint2_linear_356_1108)"/>
<path d="M904.972 311.778C905.352 313.461 905.147 315.223 904.391 316.773C899.025 325.366 892.06 332.84 883.876 338.788C876.891 343.603 869.398 347.63 861.533 350.793L861.019 351.07C855.045 353.787 849.937 358.111 846.261 363.563C841.528 370.421 836.108 376.773 830.084 382.521L829.97 382.913C824.49 387.702 819.501 393.029 815.078 398.815L798.692 419.827C793.295 426.993 788.28 434.44 783.667 442.138C779.243 449.167 775.389 456.541 772.144 464.191C768.337 472.538 764.848 480.131 761.677 486.969C757.959 494.889 753.355 502.358 747.955 509.233C747.5 509.905 746.893 510.461 746.183 510.854C745.474 511.247 744.683 511.467 743.873 511.496C743.099 511.685 742.294 511.701 741.513 511.543C740.733 511.385 739.996 511.058 739.356 510.583C738.715 510.109 738.186 509.499 737.806 508.797C737.426 508.095 737.203 507.318 737.155 506.52C736.954 505.686 736.935 504.818 737.099 503.975C737.264 503.133 737.607 502.336 738.106 501.64C742.888 495.556 746.959 488.941 750.239 481.927C753.36 475.088 756.849 467.492 760.706 459.138C764.198 450.982 768.335 443.118 773.076 435.624C777.914 427.552 783.177 419.744 788.844 412.234L805.22 391.174C810.174 384.786 815.753 378.912 821.872 373.639L821.482 373.524C826.999 368.318 831.97 362.557 836.317 356.333C841.855 348.425 848.63 342.793 856.642 339.437C863.782 336.564 870.588 332.916 876.939 328.559C883.677 323.585 889.407 317.364 893.819 310.231C894.189 309.499 894.727 308.866 895.389 308.384C896.051 307.903 896.818 307.586 897.626 307.461C899.155 307.015 900.797 307.187 902.203 307.939C903.542 308.856 904.521 310.214 904.972 311.778Z" fill="#F4F4F5"/>
<path d="M811.11 1037.53C811.281 1037.63 811.459 1037.71 811.644 1037.78L811.52 1037.68C811.389 1037.62 811.252 1037.57 811.11 1037.53Z" fill="#F4F4F5"/>
<path d="M1552.1 341.825C1551.27 342.023 1550.4 342.041 1549.56 341.876C1548.72 341.711 1547.93 341.368 1547.23 340.87C1539.31 336.115 1531.85 330.628 1524.95 324.481L1525.23 324.996C1516.72 318.222 1510.52 311.966 1506.64 306.229C1503.22 301.931 1498.09 298.429 1491.24 295.723C1482.2 292.187 1473.97 286.86 1467.03 280.06C1461.86 275.112 1455.4 271.738 1448.4 270.327C1440.47 269.221 1432.72 267.102 1425.33 264.024C1419.11 261.649 1411.81 259.232 1403.44 256.775L1403.04 256.66C1392.83 253.894 1383.44 248.646 1375.73 241.379C1375.05 240.926 1374.49 240.318 1374.09 239.606C1373.7 238.894 1373.47 238.097 1373.44 237.281C1373.39 236.424 1373.52 235.565 1373.82 234.763C1374.13 233.961 1374.6 233.233 1375.21 232.63C1375.7 232.041 1376.3 231.566 1376.99 231.236C1377.67 230.906 1378.42 230.73 1379.18 230.72C1380.88 230.604 1382.56 231.094 1383.94 232.105C1390.29 238.12 1398.02 242.461 1406.45 244.74C1415.58 247.383 1423.42 249.952 1429.96 252.448L1430.35 252.563C1436.73 255.187 1443.42 256.988 1450.25 257.921L1450.65 258.045C1460.06 259.804 1468.75 264.278 1475.66 270.919C1481.44 276.645 1488.31 281.138 1495.87 284.128C1505.16 287.84 1512.05 292.714 1516.52 298.751L1516.91 298.865C1520.08 303.838 1525.38 309.25 1532.8 315.102C1539.28 320.802 1546.29 325.871 1553.73 330.24C1555.07 331.153 1556.04 332.504 1556.48 334.06C1556.87 335.743 1556.66 337.506 1555.9 339.055C1554.99 340.393 1553.65 341.372 1552.1 341.825Z" fill="#F4F4F5"/>
<path d="M1665.11 490.971C1664.24 490.993 1663.38 490.807 1662.59 490.428C1661.81 490.05 1661.12 489.49 1660.59 488.794C1660.02 488.262 1659.59 487.59 1659.36 486.843C1659.12 486.096 1659.09 485.3 1659.25 484.534C1659.61 476.448 1657.76 470.023 1653.68 465.26C1648.09 459.332 1642.42 453.233 1636.66 446.961C1629.98 440.29 1623.89 433.041 1618.47 425.299C1612.76 417.321 1608 410.486 1604.2 404.794L1604.31 404.402C1600.03 399.06 1595.36 392.963 1590.29 386.112C1585.22 379.261 1580.47 372.996 1576.02 367.316L1575.9 367.708C1570.25 361.611 1564.15 355.947 1557.65 350.765C1556.93 350.218 1556.34 349.526 1555.9 348.733C1555.46 347.94 1555.2 347.064 1555.12 346.161C1555.01 345.383 1555.07 344.591 1555.29 343.837C1555.51 343.083 1555.88 342.384 1556.39 341.787C1557.55 340.521 1559.16 339.754 1560.87 339.647C1561.64 339.535 1562.43 339.59 1563.18 339.809C1563.93 340.028 1564.63 340.406 1565.22 340.918C1572.32 346.515 1579 352.635 1585.2 359.227L1585.6 359.341C1590.13 365.174 1594.99 371.611 1600.18 378.653C1605.37 385.695 1610 391.926 1614.07 397.344L1614.47 397.459C1618.11 403.189 1622.87 410.024 1628.75 417.964C1633.76 425.243 1639.39 432.069 1645.58 438.365C1651.34 444.63 1657.02 450.73 1662.59 456.665C1669.14 463.598 1672.12 473.076 1671.53 485.097C1671.3 486.799 1670.54 488.384 1669.36 489.625C1668.78 490.136 1668.11 490.521 1667.38 490.753C1666.65 490.985 1665.88 491.06 1665.11 490.971Z" fill="#F4F4F5"/>
<path d="M1700.68 573.386C1699.76 574.228 1699.11 575.331 1698.82 576.55C1698.54 577.769 1698.62 579.047 1699.08 580.215C1700.5 583.882 1701.96 587.563 1703.46 591.256L1703.84 591.361C1706.7 599.936 1709.04 608.675 1710.86 617.53L1711.01 617.138C1712.54 626.804 1713.68 634.76 1714.41 640.93L1714.52 640.548C1715.03 647.877 1716.23 655.142 1718.1 662.247C1719.47 669.949 1720.09 677.767 1719.94 685.589L1720.05 685.198C1719.57 693.786 1719.52 702.392 1719.9 710.985C1719.88 711.85 1720.06 712.707 1720.43 713.489C1720.8 714.271 1721.35 714.954 1722.03 715.484C1722.55 716.076 1723.21 716.536 1723.95 716.826C1724.68 717.116 1725.47 717.229 1726.26 717.155C1727.97 717.009 1729.57 716.242 1730.75 714.996C1731.73 713.764 1732.17 712.195 1732 710.632C1731.69 703.067 1731.79 694.796 1732.31 685.799C1732.52 677.105 1731.88 668.411 1730.41 659.84L1730.13 659.325C1728.4 652.945 1727.27 646.415 1726.77 639.822L1726.86 639.44C1726.06 633.126 1724.85 625.027 1723.18 615.123L1722.8 614.98C1720.87 605.45 1718.28 596.068 1715.05 586.9L1715.16 586.518C1713.56 582.889 1712.05 579.276 1710.61 575.678C1710.24 574.746 1709.64 573.919 1708.88 573.268C1708.12 572.617 1707.22 572.16 1706.24 571.939C1705.26 571.717 1704.25 571.736 1703.28 571.995C1702.32 572.254 1701.43 572.744 1700.69 573.424L1700.68 573.386Z" fill="#F4F4F5"/>
<path d="M1678.11 532.326C1678.45 532.193 1678.78 532.049 1679.06 531.887C1679.27 531.791 1679.47 531.686 1679.67 531.572C1680.2 531.285 1680.71 530.97 1681.21 530.617L1682.17 529.967C1680.9 530.77 1679.5 531.515 1678.11 532.326Z" fill="#F4F4F5"/>
<path d="M1682.12 523.664C1683.42 522.927 1684.41 521.742 1684.91 520.328C1685.4 518.915 1685.37 517.368 1684.82 515.975C1682.6 510.378 1680.44 503.935 1678.35 496.644C1677.77 495.012 1676.65 493.623 1675.19 492.7C1673.77 492.042 1672.16 491.871 1670.63 492.213C1669.85 492.496 1669.14 492.933 1668.53 493.497C1667.93 494.061 1667.44 494.742 1667.09 495.498C1666.63 496.164 1666.35 496.935 1666.27 497.741C1666.19 498.546 1666.32 499.358 1666.64 500.102C1668.78 507.8 1671 514.616 1673.3 520.55C1673.62 521.381 1674.13 522.132 1674.77 522.752C1675.41 523.371 1676.18 523.845 1677.02 524.14C1677.86 524.436 1678.75 524.546 1679.64 524.464C1680.52 524.381 1681.38 524.109 1682.16 523.664H1682.12Z" fill="#F4F4F5"/>
<path d="M1686.27 923.76C1685.45 923.508 1684.68 923.091 1684.03 922.532C1683.37 921.974 1682.84 921.286 1682.46 920.512C1682.08 919.773 1681.85 918.962 1681.79 918.13C1681.74 917.298 1681.85 916.463 1682.14 915.68C1684.36 908.93 1686.41 901.347 1688.28 892.929C1689.96 883.869 1693.34 875.211 1698.24 867.419C1702.17 860.209 1705.5 852.678 1708.17 844.908C1710.76 837.99 1712.14 830.681 1712.27 823.294L1712.16 823.686C1711.68 815.206 1712.27 806.699 1713.91 798.366C1715.13 790.133 1716.12 782.244 1716.89 774.699L1717.16 775.205C1717.37 767.819 1718.03 759.115 1719.14 749.093L1719.42 749.6C1720.06 741.763 1720.19 733.891 1719.8 726.038C1719.75 725.18 1719.88 724.322 1720.18 723.519C1720.49 722.717 1720.96 721.99 1721.57 721.386C1722.06 720.807 1722.67 720.341 1723.36 720.021C1724.04 719.701 1724.79 719.535 1725.55 719.533C1727.25 719.406 1728.93 719.894 1730.31 720.909C1731.38 722.122 1731.99 723.672 1732.05 725.293C1732.47 733.717 1732.32 742.16 1731.6 750.564C1730.44 760.249 1729.73 768.65 1729.47 775.769L1729.34 776.17C1728.48 783.868 1727.41 792.021 1726.14 800.63C1724.65 807.967 1724.06 815.461 1724.41 822.941L1724.81 823.055C1724.85 831.065 1723.19 839.769 1719.83 849.167C1716.92 857.594 1713.28 865.749 1708.95 873.541L1708.84 873.933C1704.73 880.421 1701.92 887.643 1700.54 895.202L1700.43 895.594C1698.67 903.68 1696.5 911.671 1693.94 919.538C1693.68 920.362 1693.27 921.125 1692.71 921.782C1692.15 922.438 1691.47 922.975 1690.7 923.358C1690.03 923.734 1689.29 923.964 1688.53 924.033C1687.76 924.102 1686.99 924.009 1686.27 923.76Z" fill="#F4F4F5"/>
<path d="M1363.71 238.322C1355.92 236.055 1348.09 233.48 1340.19 230.596C1332.93 228.241 1325.38 226.91 1317.75 226.642C1309.11 226.689 1300.54 225.212 1292.42 222.277C1285.38 219.763 1278 218.333 1270.53 218.036C1260.42 217.699 1252.24 216.323 1245.99 213.91L1245.59 213.786C1239.81 212.08 1231.41 211.933 1220.41 213.347C1219.65 213.56 1218.85 213.593 1218.08 213.442C1217.3 213.291 1216.58 212.961 1215.95 212.478C1215.28 212.022 1214.73 211.412 1214.34 210.7C1213.95 209.988 1213.73 209.193 1213.7 208.38C1213.5 207.546 1213.48 206.678 1213.65 205.835C1213.81 204.992 1214.15 204.196 1214.66 203.5C1215.71 202.288 1217.15 201.489 1218.74 201.246C1232.47 199.336 1242.82 199.622 1249.8 202.105L1250.2 202.22C1255.44 204.27 1262.39 205.451 1271.04 205.763C1279.78 206.037 1288.42 207.684 1296.65 210.644C1303.48 213.085 1310.67 214.304 1317.92 214.244C1326.93 214.568 1335.85 216.153 1344.43 218.953C1352.04 221.748 1359.62 224.241 1367.15 226.431C1368.74 226.902 1370.12 227.916 1371.04 229.297C1371.71 230.822 1371.82 232.531 1371.36 234.129C1371.17 234.871 1370.83 235.566 1370.36 236.169C1369.89 236.773 1369.3 237.272 1368.63 237.635C1367.9 238.08 1367.08 238.371 1366.24 238.489C1365.39 238.607 1364.53 238.55 1363.71 238.322Z" fill="#F4F4F5"/>
<path d="M1071.41 233.26C1065.14 239.437 1056.89 242.203 1046.67 241.56C1039.06 241.56 1031.69 244.295 1024.57 249.764C1015.41 256.724 1007.1 261.193 999.662 263.174L999.547 263.575C992.107 265.695 984.931 268.655 978.156 272.4L977.757 272.285C969.478 276.468 962.24 280.244 956.042 283.613C949.597 286.815 943.728 291.073 938.676 296.21C931.952 303.087 923.226 308.009 912.499 310.976C911.739 311.188 910.94 311.22 910.166 311.069C909.391 310.918 908.662 310.589 908.036 310.107C907.258 309.809 906.56 309.335 905.994 308.722C905.428 308.109 905.01 307.374 904.772 306.573C904.568 305.739 904.547 304.87 904.711 304.027C904.875 303.184 905.221 302.387 905.724 301.692C906.045 300.992 906.517 300.371 907.107 299.876C907.696 299.38 908.387 299.022 909.13 298.827C917.663 296.497 924.641 292.644 930.065 287.271L929.951 287.672C935.821 281.518 942.667 276.384 950.209 272.476C956.553 269.153 963.924 265.415 972.323 261.264C979.895 257.077 987.918 253.77 996.236 251.407C1002.46 249.624 1009.44 245.772 1017.17 239.85C1026.83 232.439 1036.73 228.864 1046.86 229.125L1047.26 229.239C1053.6 229.692 1058.79 228.046 1062.84 224.302C1064.19 223.236 1065.87 222.663 1067.59 222.678C1069.17 222.837 1070.64 223.57 1071.72 224.741C1072.74 225.98 1073.35 227.511 1073.45 229.115C1073.35 230.714 1072.61 232.205 1071.41 233.26Z" fill="#F4F4F5"/>
<path d="M1204.86 213.586C1196.08 213.455 1187.29 214.065 1178.6 215.41C1169.05 217.116 1160.77 217.575 1153.76 216.785L1153.87 216.384C1147.35 216.131 1140.85 217.328 1134.84 219.889L1135.23 220.004C1127.11 223.187 1118.4 226.104 1109.11 228.752L1109.51 228.867C1099.02 232.401 1089.1 233.098 1079.74 230.959C1078.93 230.768 1078.17 230.416 1077.5 229.923C1076.83 229.431 1076.27 228.809 1075.84 228.093C1075.4 227.435 1075.09 226.69 1074.95 225.908C1074.81 225.125 1074.83 224.321 1075.02 223.547C1075.21 222.738 1075.56 221.975 1076.05 221.304C1076.54 220.633 1077.16 220.067 1077.87 219.641C1078.53 219.194 1079.27 218.89 1080.05 218.747C1080.83 218.604 1081.63 218.625 1082.4 218.81C1089.7 220.376 1097.46 219.765 1105.67 216.976C1114.5 214.315 1122.77 211.414 1130.48 208.275C1138.17 205.034 1146.51 203.628 1154.83 204.168L1155.22 204.283C1161.22 204.983 1168.33 204.617 1176.56 203.185C1185.97 201.687 1195.5 201.004 1205.03 201.141C1206.74 201.326 1208.33 202.095 1209.55 203.318C1210.61 204.525 1211.22 206.064 1211.29 207.674C1211.16 209.27 1210.43 210.756 1209.23 211.819C1208.7 212.441 1208.02 212.925 1207.26 213.233C1206.5 213.54 1205.68 213.661 1204.86 213.586Z" fill="#F4F4F5"/>
<path d="M693.64 737.164C695.351 737.341 696.948 738.107 698.16 739.332C699.219 740.552 699.83 742.099 699.892 743.716C699.55 753.267 699.496 761.863 699.73 769.503L699.616 769.895C699.381 776.636 700.683 783.343 703.422 789.503L703.308 789.904C706.172 797.561 708.189 805.51 709.322 813.609C710.274 821.498 711.787 830.119 713.861 839.473L714.251 839.588C715.926 848.884 717.686 857.161 719.532 864.42C719.903 866.104 719.695 867.864 718.942 869.415C718.029 870.749 716.684 871.724 715.136 872.175C714.305 872.374 713.44 872.391 712.602 872.226C711.763 872.061 710.969 871.718 710.274 871.22C709.546 870.848 708.917 870.308 708.438 869.644C707.96 868.979 707.647 868.21 707.524 867.4C705.582 860.026 703.73 851.593 701.966 842.099C699.816 832.421 698.249 823.507 697.266 815.357C696.185 808.264 694.472 801.283 692.146 794.498L691.747 794.383C688.579 786.597 687.053 778.236 687.265 769.828C687.062 762.105 687.154 753.378 687.541 743.649C687.488 742.792 687.619 741.933 687.924 741.131C688.229 740.329 688.702 739.601 689.311 738.998C690.498 737.901 692.029 737.253 693.64 737.164Z" fill="#F4F4F5"/>
<path d="M716.354 554.78C719.944 550.082 723.234 545.16 726.203 540.043C729.375 534.173 730.932 527.309 730.875 519.452C730.774 518.659 730.873 517.854 731.162 517.11C731.451 516.366 731.922 515.707 732.531 515.192C733.09 514.544 733.777 514.02 734.549 513.651C735.32 513.283 736.159 513.079 737.013 513.053C738.571 513.118 740.062 513.706 741.247 514.724C742.399 515.966 743.144 517.533 743.379 519.213C743.48 529.49 741.31 538.474 736.87 546.166C733.646 551.797 730.074 557.22 726.174 562.402C723.992 565.834 722.406 572.265 721.417 581.695C721.315 582.52 721.08 583.323 720.722 584.073C718.648 591.313 716.56 599.026 714.461 607.215C712.303 615.287 711.065 623.58 710.769 631.932C710.172 639.207 710.067 646.515 710.455 653.804L710.854 653.918C710.651 662.356 709.936 670.773 708.713 679.123C707.337 688.846 705.827 698.021 704.184 706.649C702.395 715.818 700.834 723.687 699.502 730.258C699.388 730.992 699.121 731.693 698.72 732.317C698.318 732.941 697.79 733.472 697.171 733.878C696.516 734.38 695.768 734.748 694.972 734.959C694.175 735.17 693.344 735.222 692.527 735.11C691.7 734.972 690.918 734.64 690.242 734.143C689.566 733.645 689.016 732.995 688.635 732.245C688.09 731.614 687.696 730.866 687.483 730.058C687.27 729.25 687.244 728.404 687.408 727.584C688.677 721.141 690.199 713.404 691.975 704.376C693.574 695.863 695.043 686.818 696.381 677.242C697.52 669.592 698.193 661.88 698.398 654.148L698.284 654.549C697.845 646.828 697.934 639.087 698.551 631.378C698.852 622.172 700.199 613.03 702.566 604.13C704.679 595.789 706.826 587.798 709.008 580.157C710.398 567.614 712.846 559.155 716.354 554.78Z" fill="#F4F4F5"/>
<path d="M711.815 877.648C712.053 876.877 712.461 876.17 713.008 875.578C713.554 874.986 714.226 874.525 714.974 874.229C715.697 873.831 716.497 873.597 717.319 873.545C718.141 873.492 718.965 873.621 719.732 873.923C721.214 874.33 722.477 875.308 723.243 876.645C726.336 882.853 730.266 890.494 735.1 899.452L734.957 899.873C736.28 902.49 737.498 905.106 738.639 907.685C739.781 910.264 740.828 912.68 741.837 915.192C743.464 919.356 744.948 923.473 746.233 927.608V927.685C747.925 935.005 750.48 942.098 753.845 948.811C753.845 949.088 753.95 949.27 754.159 949.298C756.93 955.989 760.24 962.441 764.056 968.591L764.436 968.696C765.178 970.148 765.959 971.638 766.729 973.147L767.319 972.01V972.058C767.462 971.81 767.605 971.561 767.729 971.313C819.503 875.804 886.15 852.424 976.415 847.448C976.919 847.43 977.408 847.268 977.824 846.982C978.241 846.696 978.567 846.297 978.767 845.832C978.966 845.367 979.03 844.854 978.95 844.354C978.871 843.854 978.651 843.387 978.318 843.007C961.294 823.437 945.156 803.361 924.926 780.382C906.551 759.446 902.85 732.112 905.229 704.395C906.675 687.204 912.403 674.444 927.742 671.063L928.047 671.015C937.228 669.89 946.469 669.335 955.718 669.353C1007.64 669.353 1050.96 680.527 1081.03 704.529C1081.5 704.914 1082.09 705.137 1082.7 705.165C1083.31 705.192 1083.91 705.023 1084.42 704.682C1089.54 701.208 1093.73 696.529 1096.64 691.054C1099.54 685.578 1101.07 679.472 1101.08 673.269C1101.08 671.798 1101.14 670.337 1101.18 668.895C1101.51 663.29 1102.47 657.741 1104.04 652.352C1106.85 643.082 1107.79 633.34 1106.81 623.7C1106.02 616.926 1106.67 610.062 1108.71 603.557C1109.52 601.032 1110.55 598.584 1111.78 596.241C1113.95 592.068 1116.75 588.255 1120.07 584.933C1120.37 584.631 1120.6 584.262 1120.73 583.854C1120.87 583.447 1120.9 583.013 1120.83 582.59C1120.76 582.167 1120.6 581.766 1120.34 581.421C1120.09 581.076 1119.76 580.797 1119.38 580.606C1113.3 577.54 1108.33 572.643 1105.15 566.602C1101.98 560.56 1100.77 553.674 1101.69 546.908C1102.61 540.142 1105.62 533.834 1110.28 528.865C1114.95 523.896 1121.05 520.515 1127.72 519.194C1157.13 512.079 1171.31 531.181 1211.37 531.181C1252.12 531.181 1260.72 510.503 1294.91 519.576L1295.73 519.796C1302.07 521.569 1307.74 525.228 1311.97 530.292C1316.2 535.357 1318.81 541.589 1319.45 548.169C1320.09 554.749 1318.72 561.368 1315.54 567.157C1312.36 572.945 1307.51 577.63 1301.62 580.597C1301.24 580.787 1300.9 581.066 1300.65 581.411C1300.4 581.757 1300.23 582.158 1300.16 582.582C1300.09 583.006 1300.13 583.44 1300.26 583.847C1300.4 584.254 1300.63 584.623 1300.93 584.923C1304.31 588.247 1307.16 592.07 1309.38 596.26C1310.59 598.614 1311.6 601.06 1312.42 603.576C1314.49 610.108 1315.14 617.009 1314.32 623.814C1313.34 633.423 1314.28 643.132 1317.08 652.371C1318.65 657.751 1319.6 663.291 1319.94 668.885C1320 670.327 1320.04 671.75 1320.04 673.259C1320.05 679.825 1321.75 686.276 1324.99 691.982C1328.22 697.689 1332.87 702.456 1338.49 705.818C1339.2 706.219 1339.91 706.659 1340.61 707.088C1341.06 707.364 1341.58 707.5 1342.1 707.479C1342.62 707.459 1343.13 707.283 1343.55 706.974C1358.98 695.971 1379.82 687.48 1403.07 680.021C1421.38 673.087 1447.54 666.048 1487.3 658.876C1498.32 656.88 1508.71 651.426 1515.76 642.744C1551.64 598.6 1613.4 558.907 1678.2 532.336C1678.54 532.183 1678.85 532.05 1679.15 531.878C1679.36 531.782 1679.56 531.677 1679.76 531.563C1680.28 531.276 1680.8 530.961 1681.3 530.608C1681.64 530.397 1681.96 530.187 1682.31 529.977C1682.66 529.767 1683.26 529.452 1683.63 529.175C1685.41 528.22 1687.15 527.179 1688.9 526.157C1690.81 525.106 1692.71 523.989 1694.61 522.938C1733.94 500.284 1766.48 480.112 1778.76 462.405L1778.82 462.319C1816.98 413.609 1896.19 372.12 1933.37 324.729C1933.48 324.583 1933.58 324.426 1933.67 324.261C1934.7 322.21 1935.23 319.94 1935.2 317.642V317.576C1935.2 314.578 1935.8 311.611 1936.95 308.845C1938.1 306.08 1939.78 303.571 1941.91 301.464C1944.03 299.358 1946.55 297.696 1949.32 296.574C1952.09 295.452 1955.06 294.894 1958.04 294.93C1970.41 295.102 1980.98 306.477 1980.32 318.941C1979.99 324.429 1977.69 329.611 1973.83 333.52C1969.98 337.43 1964.85 339.801 1959.38 340.192C1956 340.192 1951.86 341.796 1947.15 344.49L1947.04 344.547C1946.54 344.842 1946.16 345.288 1945.93 345.821C1945.71 346.354 1945.66 346.945 1945.79 347.508C1946.27 349.466 1946.75 351.386 1947.38 353.238C1950.39 363.076 1955.86 372.245 1964.83 377.431C1966.63 378.537 1968.52 379.495 1970.48 380.296C1970.48 380.296 1970.54 380.296 1970.58 380.229C1970.96 380.061 1971.32 379.863 1971.66 379.637C1972.91 379.007 1974.14 378.376 1975.32 377.727C1978.64 375.954 1981.13 372.932 1982.23 369.322C1983.77 364.326 1986.87 359.957 1991.07 356.859C1995.26 353.76 2000.34 352.095 2005.55 352.108C2010.76 352.121 2015.83 353.811 2020.01 356.931C2024.2 360.05 2027.27 364.434 2028.79 369.438C2030.3 374.442 2030.18 379.802 2028.44 384.73C2026.69 389.659 2023.42 393.896 2019.1 396.818C2014.78 399.74 2009.63 401.194 2004.43 400.966C1999.22 400.737 1994.23 398.839 1990.18 395.549C1989.06 394.68 1987.76 394.074 1986.38 393.777C1985 393.479 1983.57 393.497 1982.19 393.83C1978.57 394.67 1975.05 395.511 1971.59 396.38C1970.96 396.561 1970.34 396.666 1969.77 396.838C1969.39 396.943 1968.97 397.01 1968.59 397.115C1968.45 397.22 1968.31 397.363 1968.18 397.468C1957.96 406.064 1948.57 415.711 1941.53 427.076C1933.48 439.788 1926.93 453.819 1924.4 468.489C1924.56 468.515 1924.72 468.563 1924.86 468.632C1927.28 469.122 1929.8 468.786 1932.01 467.677C1934.58 466.41 1937.4 465.756 1940.27 465.767C1943.75 465.766 1947.17 466.72 1950.15 468.528C1953.14 470.335 1955.57 472.927 1957.19 476.023C1958.81 479.118 1959.56 482.6 1959.36 486.091C1959.15 489.583 1958 492.951 1956.02 495.832C1954.05 498.713 1951.32 500.998 1948.15 502.439C1944.97 503.879 1941.46 504.421 1938 504.007C1934.54 503.592 1931.26 502.235 1928.52 500.084C1925.77 497.933 1923.66 495.07 1922.41 491.802C1921.08 488.489 1918.75 485.675 1915.75 483.751C1915.07 483.331 1914.41 482.882 1913.75 482.462C1913.18 482.102 1912.5 481.966 1911.84 482.08C1895.23 485.193 1879.05 491.306 1865.62 501.573C1865.08 501.989 1864.71 502.594 1864.59 503.268C1864.47 503.942 1864.61 504.635 1864.98 505.212C1866.39 507.453 1868.17 509.441 1870.24 511.095C1872.29 512.772 1873.89 514.945 1874.88 517.411C1875.87 519.876 1876.22 522.553 1875.89 525.191C1875.57 527.828 1874.58 530.34 1873.03 532.49C1871.47 534.64 1869.39 536.359 1867 537.484C1855.38 542.985 1843.7 532.756 1844.78 521.668C1844.86 521.075 1844.97 520.488 1845.13 519.911C1846.42 513.894 1847.64 499.157 1844.75 493.693C1834.02 473.703 1820.44 479.673 1796.22 493.636L1795.99 493.751C1756.48 512.012 1732.24 534.351 1705.59 559.222C1705.32 559.499 1705 559.747 1704.72 560.024C1701.76 562.794 1698.79 565.554 1695.75 568.362C1695.47 568.599 1695.2 568.855 1694.95 569.126C1664.27 603.013 1629.01 640.605 1570.18 665.733C1558.39 670.747 1547.12 678.063 1539.31 688.283C1513.46 722.465 1453.56 772.359 1408.81 784.546C1408.45 784.647 1408.11 784.823 1407.82 785.063C1407.53 785.303 1407.3 785.602 1407.13 785.94C1406.96 786.278 1406.87 786.647 1406.85 787.024C1406.84 787.401 1406.9 787.777 1407.04 788.127C1409.86 795.39 1412.28 802.803 1414.28 810.333L1414.78 810.429C1502.06 828.184 1584.84 886.568 1647.77 974.704C1647.91 974.853 1648.04 975.017 1648.16 975.191C1648.21 975.258 1648.25 975.334 1648.36 975.458C1648.85 976.117 1649.31 976.757 1649.77 977.416L1651.2 979.412L1651.43 979.766C1651.45 979.793 1651.47 979.819 1651.5 979.842L1652.08 980.682C1652.84 979.078 1653.65 977.521 1654.48 976.079C1655.32 974.637 1655.98 973.548 1656.74 972.354C1659.96 966.805 1663.77 960.053 1668.22 952.03C1671.86 945.035 1674.6 937.597 1676.35 929.901C1676.5 929.081 1676.83 928.304 1677.31 927.624C1677.79 926.944 1678.42 926.378 1679.14 925.966C1679.8 925.504 1680.54 925.19 1681.33 925.044C1682.12 924.899 1682.93 924.927 1683.71 925.125C1685.19 925.407 1686.53 926.185 1687.51 927.331C1687.66 927.499 1687.79 927.689 1687.88 927.895C1688.6 929.333 1688.8 930.977 1688.45 932.546C1686.43 941.346 1683.26 949.836 1679 957.789C1674.43 966.098 1670.56 973.118 1667.31 978.877C1663.39 985.025 1660.32 991.675 1658.18 998.648L1658.03 999.058C1654.98 1007.85 1649.9 1015.8 1643.21 1022.26C1637.2 1028.26 1631.92 1033.88 1627.15 1039.15C1625.03 1041.51 1623.07 1044.02 1621.3 1046.66C1619.76 1048.99 1618.33 1051.4 1617.02 1053.88C1616.18 1055.4 1615.4 1057.02 1614.62 1058.71C1612.67 1062.68 1610.22 1066.38 1607.34 1069.73C1607 1070.23 1606.61 1070.7 1606.17 1071.12C1605.24 1072.2 1604.25 1073.23 1603.21 1074.2C1602.71 1074.67 1602.25 1075.11 1601.7 1075.52C1599.34 1077.6 1596.79 1079.46 1594.09 1081.07C1590.78 1083.14 1587.77 1085.64 1585.12 1088.5L1584.83 1088.77C1584.08 1089.56 1583.39 1090.41 1582.76 1091.3C1582.39 1091.8 1582.04 1092.26 1581.71 1092.76C1581.53 1093.03 1581.34 1093.3 1581.18 1093.56C1580.87 1094.1 1580.59 1094.63 1580.32 1095.17C1580.19 1095.39 1580.07 1095.61 1579.97 1095.85L1579.84 1096.26C1579.62 1096.74 1579.38 1097.16 1579.13 1097.59C1576.25 1102.58 1572.36 1106.91 1567.71 1110.29C1566.23 1111.42 1564.68 1112.47 1563.09 1113.44C1562.14 1114.01 1561.18 1114.57 1560.23 1115.1C1555.28 1117.56 1550.65 1120.63 1546.46 1124.24C1544.5 1125.93 1542.66 1127.77 1540.97 1129.73C1540.52 1130.2 1540.01 1130.61 1539.45 1130.95L1539.11 1131.15C1539.11 1131.15 1539.02 1131.15 1538.98 1131.21L1538.37 1131.75C1537.41 1132.53 1536.22 1133.43 1534.85 1134.42C1533.63 1135.38 1532.25 1136.33 1530.81 1137.29C1530.55 1137.48 1530.33 1137.73 1530.16 1138C1529.78 1138.58 1529.27 1139.07 1528.69 1139.45C1528.51 1139.61 1528.3 1139.75 1528.08 1139.91C1527 1140.75 1525.84 1141.62 1524.64 1142.5C1523.82 1143.12 1522.95 1143.74 1522.08 1144.41C1521.76 1144.62 1521.44 1144.87 1521.12 1145.1C1518.4 1147.09 1515.41 1149.17 1512.15 1151.43C1510.7 1152.39 1509.2 1153.43 1507.66 1154.46C1507.34 1154.66 1507.03 1154.84 1506.71 1155.01C1500.34 1159.16 1493.78 1162.99 1487.03 1166.48C1484.54 1167.78 1482.13 1169.23 1479.82 1170.83C1479.57 1171.01 1479.3 1171.19 1479.02 1171.38L1478.4 1171.81C1478.15 1171.98 1477.93 1172.14 1477.69 1172.29C1477.44 1172.44 1476.96 1172.83 1476.6 1173.07C1476.24 1173.3 1476.11 1173.42 1475.84 1173.6C1475.29 1174.01 1474.74 1174.45 1474.14 1174.84C1473.97 1175 1473.79 1175.14 1473.6 1175.25C1472.65 1175.93 1471.7 1176.68 1470.67 1177.45C1470.67 1177.45 1470.62 1177.45 1470.59 1177.52C1469.5 1178.34 1468.38 1179.12 1467.29 1179.84C1463.74 1182.28 1460.01 1184.47 1456.14 1186.38L1455.71 1186.59C1452.97 1187.96 1450.14 1189.13 1447.23 1190.09C1444.37 1191.09 1441.33 1192.19 1438.15 1193.35L1434.07 1194.92C1432.45 1195.54 1430.85 1196.2 1429.17 1196.83C1428.21 1197.15 1427.36 1197.51 1426.46 1197.88C1425.3 1198.35 1424.09 1198.83 1422.84 1199.38C1422.49 1199.5 1422.16 1199.66 1421.81 1199.79L1421.45 1199.93C1420.36 1200.41 1419.34 1200.89 1418.31 1201.27C1416.9 1201.84 1415.61 1202.42 1414.29 1203C1413.34 1203.39 1412.39 1203.8 1411.44 1204.21C1411.07 1204.34 1410.71 1204.5 1410.37 1204.69L1409.25 1205.16L1404.65 1207.07C1403.61 1207.53 1402.59 1208.02 1401.62 1208.44C1401.05 1208.67 1400.53 1208.92 1400 1209.12C1399.34 1209.45 1398.73 1209.72 1398.1 1209.97L1396.89 1210.54L1396.52 1210.72C1395.57 1211.12 1394.69 1211.53 1393.79 1211.94C1392.13 1212.66 1390.55 1213.4 1389.03 1214.18C1387.13 1215.14 1385.3 1216.02 1383.54 1216.96C1381.78 1217.91 1380.06 1218.87 1378.42 1219.83C1377.52 1220.43 1376.48 1220.79 1375.4 1220.86C1373.39 1221.7 1371.02 1222.62 1368.74 1223.57L1363.68 1225.71C1363.68 1225.71 1363.68 1225.71 1363.62 1225.71C1362.47 1225.85 1353.6 1225.35 1352.54 1225.53C1351.81 1225.61 1351.14 1225.74 1350.48 1225.85H1350.39C1350.04 1225.85 1349.72 1225.98 1349.43 1226.03C1349.24 1226.07 1349.04 1226.12 1348.85 1226.2C1347.21 1226.87 1345.65 1227.72 1344.2 1228.74C1335.86 1233.98 1326.03 1236.84 1314.7 1237.33C1305.36 1237.68 1298.21 1239.19 1293.25 1241.86L1293.12 1242.27C1286.23 1245.79 1276.91 1247.38 1265.17 1247.05C1255.3 1247.05 1247.01 1247.91 1240.38 1249.72L1240.49 1249.31C1239.28 1249.72 1238.07 1250.07 1236.87 1250.38C1230.43 1252.12 1223.7 1252.51 1217.11 1251.53C1210.74 1250.5 1202.84 1249.62 1193.4 1248.94C1192.46 1248.95 1191.53 1248.73 1190.7 1248.28C1190.52 1248.28 1190.34 1248.26 1190.16 1248.22C1190.16 1248.22 1190.16 1248.22 1190.1 1248.22C1189.67 1248.15 1189.26 1248.1 1188.83 1247.99C1186.56 1247.56 1183.96 1247.04 1181.4 1246.53C1179.5 1246.18 1177.69 1245.87 1175.97 1245.52H1175.9C1174.86 1245.03 1173.85 1244.56 1172.87 1244.12C1172.22 1243.86 1171.56 1243.57 1170.97 1243.28C1170.97 1243.28 1170.97 1243.22 1170.91 1243.28C1165.4 1242.23 1159.83 1241.55 1154.22 1241.25C1146.23 1241.13 1138.26 1240.52 1130.35 1239.42C1122.74 1238.27 1115.64 1237.51 1109.16 1237.18C1101.6 1237.35 1092.48 1234.95 1081.8 1230C1073.66 1226.3 1065.14 1223.54 1056.38 1221.77C1046.81 1219.92 1038.96 1216.63 1032.76 1211.88L1033.17 1211.98C1026.98 1208.27 1020.17 1205.71 1013.08 1204.43C1008.37 1203.66 1003.8 1202.22 999.509 1200.15C996.767 1198.86 994.154 1197.31 991.706 1195.52C990.184 1194.38 988.726 1193.15 987.338 1191.84C987.091 1191.61 986.825 1191.38 986.577 1191.15L986.986 1191.24C983.402 1187.97 979.077 1185.64 974.388 1184.43H974.34C972.47 1183.98 970.554 1183.76 968.631 1183.75C968.338 1183.8 968.039 1183.8 967.746 1183.75C967.039 1183.73 966.344 1183.56 965.703 1183.26C965.062 1182.96 964.488 1182.53 964.016 1182.01C961.723 1180.85 959.077 1179.44 956.47 1178.18C954.567 1177.23 952.664 1176.27 950.941 1175.43H950.875C949.923 1174.56 948.972 1173.77 948.02 1173.01C947.402 1172.47 946.812 1171.99 946.212 1171.51C946.214 1171.5 946.214 1171.49 946.212 1171.48C946.209 1171.48 946.205 1171.47 946.2 1171.46C946.194 1171.46 946.187 1171.45 946.179 1171.45C946.171 1171.45 946.163 1171.45 946.155 1171.45C944.043 1169.9 941.93 1168.3 939.884 1166.55C939.39 1166.14 938.933 1165.73 938.428 1165.3L937.363 1164.39L937.296 1164.33L936.069 1163.24C935.06 1162.28 934.099 1161.4 933.119 1160.44C932.767 1160.13 932.424 1159.8 932.091 1159.48L932.462 1159.61C930.845 1158.2 929.16 1156.9 927.457 1155.64C926.087 1154.68 924.755 1153.72 923.318 1152.77C923.137 1152.65 922.909 1152.52 922.728 1152.4C922.598 1152.32 922.474 1152.24 922.357 1152.15C921.738 1151.79 921.148 1151.41 920.53 1151.06C920.406 1150.96 920.263 1150.88 920.14 1150.77H920.092L917.742 1149.47C917.39 1149.31 917.037 1149.13 916.676 1148.94C916.569 1148.87 916.458 1148.81 916.343 1148.76C916.343 1148.76 916.248 1148.76 916.219 1148.7C916.191 1148.64 916.124 1148.7 916.076 1148.63C915.997 1148.58 915.906 1148.53 915.81 1148.51L914.668 1147.94C914.607 1147.93 914.548 1147.9 914.497 1147.87C913.888 1147.56 913.231 1147.26 912.594 1146.97C912.541 1146.92 912.474 1146.89 912.403 1146.89C912.254 1146.8 912.098 1146.72 911.937 1146.66C910.415 1146.05 908.921 1145.43 907.531 1144.75C907.062 1144.54 906.605 1144.31 906.161 1144.05L905.933 1143.96C905.518 1143.77 905.115 1143.55 904.724 1143.31C904.696 1143.31 904.667 1143.31 904.639 1143.31C903.411 1142.67 902.26 1141.99 901.175 1141.29C899.68 1140.35 898.249 1139.32 896.893 1138.19C895.41 1137.01 894.031 1135.7 892.773 1134.28C892.668 1134.19 892.611 1134.09 892.506 1134.01C891.604 1133.02 890.768 1131.98 890.004 1130.88L890.127 1130.45C886.702 1126.54 882.485 1123.4 877.757 1121.25C876.91 1120.84 876.054 1120.47 875.15 1120.11C874.246 1119.74 873.247 1119.34 872.381 1118.91C868.322 1117.14 864.438 1114.99 860.781 1112.49C859.43 1111.54 858.079 1110.58 856.851 1109.63C856.661 1109.49 856.48 1109.36 856.3 1109.2C855.816 1108.84 855.355 1108.44 854.92 1108.02C854.92 1108.02 854.92 1108.02 854.863 1108.02C854.68 1107.91 854.513 1107.77 854.368 1107.61C853.673 1107.04 853.017 1106.44 852.379 1105.8C852.056 1105.55 851.723 1105.28 851.428 1105C848.51 1102.52 845.821 1099.79 843.396 1096.83C843.311 1096.71 843.187 1096.58 843.082 1096.46C842.35 1095.5 841.608 1094.55 840.894 1093.59C840.835 1093.51 840.772 1093.42 840.704 1093.34C839.689 1091.91 838.737 1090.4 837.849 1088.84C837.563 1088.44 837.316 1088 837.069 1087.6C837 1087.51 836.945 1087.41 836.907 1087.3C836.764 1087.01 836.555 1086.76 836.431 1086.48C836.08 1085.88 835.763 1085.27 835.479 1084.63L835.851 1084.73C835.289 1083.77 834.737 1082.88 834.1 1081.98C831.396 1077.86 828.081 1074.18 824.27 1071.07C824.204 1071.01 824.099 1070.95 824.042 1070.89C822.924 1069.95 821.755 1069.07 820.54 1068.25C820.131 1068.01 819.712 1067.81 819.351 1067.56C811.415 1062.48 806.029 1054.92 803.402 1044.83C803.1 1044.01 802.993 1043.13 803.088 1042.26C803.184 1041.4 803.481 1040.56 803.954 1039.83C804.292 1039.14 804.772 1038.53 805.363 1038.03C805.953 1037.54 806.64 1037.17 807.38 1036.97C808.829 1036.65 810.34 1036.77 811.719 1037.32H811.9C812.07 1037.42 812.248 1037.5 812.433 1037.57C813.678 1038.5 814.593 1039.8 815.04 1041.29C815.419 1042.59 815.863 1043.86 816.372 1045.11C816.684 1045.95 817.06 1046.76 817.495 1047.54C818.878 1050.34 820.821 1052.83 823.204 1054.84C823.452 1055.08 823.699 1055.27 823.899 1055.44C824.863 1056.24 825.891 1056.96 826.973 1057.6L827.363 1057.74C830.065 1059.56 832.611 1061.61 834.975 1063.85C835.255 1064.12 835.59 1064.32 835.956 1064.45C836.323 1064.58 836.712 1064.62 837.097 1064.58L837.687 1064.51C840.542 1064.22 843.549 1063.87 846.575 1063.56C879.717 1059.3 891.012 1035.74 900.709 1006.9C905.933 991.303 913.84 964.112 931.368 958.305C957.431 949.547 980.221 982.526 959.915 1007.15C945.351 1024.9 929.241 1041.32 911.775 1056.21C910.61 1057.24 909.787 1058.61 909.417 1060.12C909.047 1061.64 909.147 1063.23 909.704 1064.68C910.261 1066.14 911.249 1067.39 912.534 1068.26C913.82 1069.14 915.341 1069.6 916.895 1069.58C930.217 1069.05 945.07 1063.66 959.667 1056.37C990.584 1040.94 1023.37 1029.61 1057.2 1022.68C1091.3 1015.93 1126.49 1017.3 1159.97 1026.67L1160.12 1026.72C1198.57 1039.89 1236.25 1057.28 1272.11 1076.38C1312.34 1097.81 1349.98 1132.01 1398.28 1130.67C1432.84 1129.71 1464.79 1109.85 1486.13 1083.4C1500.4 1065.7 1514.67 1013.25 1542.27 1014.64C1563.89 1015.8 1571.02 1046.21 1565.7 1061.78C1563.04 1069.56 1559.73 1077.1 1555.79 1084.31C1554.89 1085.95 1554.62 1087.85 1555.01 1089.67C1555.4 1091.5 1556.43 1093.12 1557.92 1094.24C1558.23 1094.51 1558.54 1094.8 1558.87 1095.08C1559.64 1095.81 1560.36 1096.57 1561.04 1097.37C1561.22 1097.59 1561.45 1097.76 1561.7 1097.88C1561.95 1098 1562.22 1098.07 1562.5 1098.08C1562.77 1098.09 1563.05 1098.05 1563.31 1097.94C1563.57 1097.84 1563.8 1097.69 1564 1097.49C1564.18 1097.35 1564.35 1097.2 1564.52 1097.04C1565.54 1096.06 1566.49 1095.02 1567.37 1093.91C1568.11 1093.01 1568.78 1092.05 1569.36 1091.04C1569.48 1090.81 1569.64 1090.57 1569.77 1090.36L1569.48 1090.24H1569.4C1569.48 1090.06 1569.54 1089.88 1569.64 1089.69C1569.64 1089.69 1569.64 1089.69 1569.64 1089.63C1569.82 1089.36 1569.96 1089.07 1570.16 1088.76C1571.58 1086.09 1573.32 1083.6 1575.34 1081.35C1575.34 1081.35 1575.34 1081.35 1575.34 1081.29C1579.14 1077.08 1583.52 1073.44 1588.36 1070.49C1594.86 1066.29 1600.05 1060.33 1603.33 1053.31C1604.36 1051.13 1605.44 1049.03 1606.53 1047.01C1607.8 1044.8 1609.07 1042.61 1610.45 1040.58C1611.18 1039.4 1612 1038.31 1612.84 1037.19C1613.52 1036.23 1614.25 1035.28 1614.98 1034.32C1615.93 1033.15 1616.94 1031.95 1617.96 1030.81C1622.9 1025.41 1628.43 1019.54 1634.61 1013.31C1639.96 1008.17 1644.01 1001.81 1646.42 994.78C1646.87 993.318 1647.37 991.914 1647.88 990.539L1647.54 990.023L1647.17 989.488C1646.58 988.61 1645.98 987.741 1645.39 986.881C1644.8 986.021 1644.3 985.334 1643.79 984.579L1643.17 983.691C1643.05 983.532 1642.93 983.366 1642.83 983.194C1642.73 983.073 1642.64 982.941 1642.56 982.803C1582.43 897.59 1503.85 840.285 1420.85 820.982C1420.41 820.885 1419.95 820.9 1419.52 821.028C1419.08 821.155 1418.69 821.39 1418.37 821.711C1418.05 822.032 1417.82 822.428 1417.69 822.864C1417.57 823.299 1417.55 823.759 1417.65 824.201C1420.14 835.471 1421.95 847.123 1423.36 859.004C1423.47 859.956 1423.77 860.876 1424.24 861.707C1424.72 862.538 1425.36 863.263 1426.12 863.837C1444.01 877.313 1456.32 893.445 1473.31 898.039C1476.99 899.046 1480.84 899.235 1484.6 898.593C1485.33 898.48 1486.07 898.435 1486.8 898.459C1489.72 898.468 1492.58 899.214 1495.13 900.627C1497.68 902.04 1499.84 904.075 1501.4 906.545C1502.96 909.014 1503.88 911.839 1504.07 914.758C1504.25 917.677 1503.71 920.596 1502.48 923.247C1501.24 925.897 1499.37 928.194 1497.02 929.924C1494.67 931.655 1491.92 932.764 1489.03 933.149C1486.14 933.534 1483.2 933.183 1480.49 932.128C1477.77 931.073 1475.36 929.348 1473.48 927.112C1468.66 921.448 1462.67 916.854 1455.55 914.696C1445.37 911.687 1434.21 908.182 1424.51 901.324C1424.09 901.042 1423.61 900.873 1423.1 900.832C1422.6 900.791 1422.09 900.88 1421.63 901.09C1421.17 901.3 1420.77 901.625 1420.47 902.034C1420.16 902.443 1419.97 902.921 1419.91 903.425C1418.65 913.855 1420.86 920.12 1422.98 926.109C1423.95 929.041 1425.72 931.645 1428.07 933.635C1430.12 935.262 1431.78 937.336 1432.92 939.701C1434.05 942.065 1434.64 944.658 1434.63 947.283C1434.64 951.554 1433.1 955.683 1430.29 958.887C1427.47 962.091 1423.58 964.147 1419.36 964.665C1415.14 965.183 1410.87 964.127 1407.37 961.698C1403.87 959.269 1401.38 955.635 1400.37 951.485C1399.62 948.549 1399.67 945.466 1400.51 942.555C1401.27 939.522 1401.39 936.365 1400.88 933.281C1400.36 930.198 1399.21 927.255 1397.51 924.638C1394.66 919.868 1392.06 914.949 1389.73 909.901C1389.14 908.586 1388.24 907.433 1387.11 906.541C1385.98 905.649 1384.66 905.043 1383.24 904.775C1381.83 904.507 1380.37 904.585 1379 905.001C1377.62 905.418 1376.37 906.162 1375.34 907.169C1364.24 918.229 1357.51 915.889 1347.74 922.604C1345.08 924.5 1342.77 926.862 1340.94 929.576C1338.97 932.293 1336.26 934.382 1333.14 935.593C1330.01 936.805 1326.61 937.088 1323.33 936.407C1320.05 935.727 1317.04 934.113 1314.65 931.758C1312.26 929.403 1310.6 926.407 1309.87 923.129C1309.32 920.576 1309.34 917.931 1309.94 915.388C1310.54 912.845 1311.69 910.469 1313.32 908.432C1314.96 906.396 1317.02 904.752 1319.37 903.619C1321.71 902.487 1324.28 901.895 1326.88 901.888C1328.73 901.87 1330.57 902.164 1332.33 902.757C1334.76 903.546 1337.37 903.677 1339.87 903.137C1342.38 902.598 1344.7 901.406 1346.6 899.682C1355.16 892.041 1364.03 878.956 1378.86 866.32C1379.81 865.537 1380.54 864.511 1380.97 863.349C1381.4 862.187 1381.51 860.931 1381.29 859.711C1378.12 842.835 1371.54 826.885 1362.33 811.957C1362.12 811.628 1361.85 811.348 1361.52 811.137C1361.19 810.926 1360.83 810.788 1360.44 810.734C1360.06 810.679 1359.67 810.709 1359.3 810.822C1358.93 810.934 1358.58 811.126 1358.29 811.384L1357.83 811.795C1320.46 844.382 1274.24 859.606 1222.15 865.938C1221.91 865.971 1221.67 866.039 1221.44 866.139C1217.97 867.667 1214.22 868.457 1210.43 868.457C1206.63 868.457 1202.88 867.667 1199.41 866.139C1199.19 866.042 1198.96 865.978 1198.72 865.948C1168.63 861.831 1145.53 856.55 1127.35 850.581C1127.04 850.481 1126.72 850.439 1126.4 850.456L1124.43 850.571C1121.39 850.781 1118.27 850.982 1115.12 851.211L1110.88 851.478C1078.62 853.637 1055.05 854.831 1040.91 855.022H1040.65C1040.29 856.579 1039.93 858.154 1039.65 859.797C1039.43 861.006 1039.53 862.251 1039.96 863.404C1040.38 864.556 1041.1 865.574 1042.05 866.349C1056.88 879.014 1065.74 892.07 1074.28 899.777C1076.19 901.502 1078.52 902.694 1081.04 903.233C1083.55 903.773 1086.16 903.642 1088.61 902.852C1090.37 902.262 1092.21 901.968 1094.06 901.983C1097.03 901.987 1099.95 902.757 1102.55 904.218C1105.14 905.68 1107.32 907.785 1108.87 910.332C1110.42 912.879 1111.29 915.782 1111.41 918.765C1111.52 921.748 1110.87 924.71 1109.52 927.369C1108.16 930.027 1106.15 932.293 1103.68 933.95C1101.21 935.606 1098.35 936.597 1095.38 936.829C1092.42 937.061 1089.44 936.526 1086.74 935.274C1084.04 934.023 1081.71 932.097 1079.96 929.681C1078.15 926.974 1075.87 924.613 1073.24 922.709C1063.4 916.023 1056.67 918.334 1045.57 907.275C1044.54 906.267 1043.28 905.524 1041.9 905.108C1040.52 904.691 1039.07 904.613 1037.65 904.881C1036.23 905.149 1034.9 905.754 1033.77 906.646C1032.64 907.538 1031.74 908.69 1031.14 910.006C1028.84 915.069 1026.25 919.99 1023.36 924.743C1021.67 927.366 1020.54 930.31 1020.03 933.392C1019.52 936.475 1019.64 939.629 1020.4 942.66C1021.23 945.691 1021.24 948.892 1020.41 951.925C1019.58 954.958 1017.95 957.709 1015.69 959.887C1013.43 962.065 1010.63 963.588 1007.57 964.295C1004.52 965.002 1001.33 964.866 998.351 963.902C995.368 962.938 992.702 961.182 990.634 958.819C988.565 956.457 987.173 953.577 986.604 950.484C986.035 947.392 986.31 944.202 987.401 941.254C988.492 938.306 990.358 935.71 992.8 933.74C995.168 931.761 996.932 929.153 997.891 926.214C999.985 920.226 1002.21 913.96 1000.96 903.531C1000.89 903.027 1000.7 902.548 1000.4 902.139C1000.1 901.73 999.701 901.405 999.241 901.194C998.78 900.984 998.274 900.895 997.77 900.936C997.265 900.977 996.78 901.147 996.359 901.429C986.625 908.287 975.501 911.792 965.281 914.801C958.202 916.969 952.207 921.563 947.43 927.217C945.459 929.537 942.921 931.302 940.065 932.34C937.209 933.379 934.133 933.654 931.14 933.138C926.762 932.293 922.876 929.792 920.283 926.153C917.691 922.514 916.589 918.014 917.207 913.584C917.826 909.153 920.116 905.13 923.604 902.345C927.093 899.561 931.514 898.228 935.954 898.621C939.632 899.154 943.375 899.035 947.012 898.268C964.339 893.97 976.719 877.552 994.818 863.885C995.57 863.326 996.199 862.618 996.667 861.805C997.136 860.991 997.432 860.09 997.539 859.157L997.587 858.756C997.635 858.372 997.6 857.982 997.484 857.612C997.367 857.243 997.173 856.903 996.913 856.616C996.654 856.33 996.336 856.103 995.98 855.951C995.625 855.799 995.242 855.727 994.856 855.738C991.839 855.834 988.832 855.939 985.835 856.072C892.973 859.893 825.069 881.793 773.638 979.278C773.409 979.756 773.162 980.234 772.915 980.663L772.467 981.504C772.363 981.685 772.287 981.876 772.201 982.039L772.134 984.302L774.523 989.278C775.113 990.463 775.665 991.685 776.264 992.869C777.063 994.617 777.891 996.222 778.729 997.75C781.65 1002.98 784.6 1006.93 787.73 1009.58C792.253 1013.73 797.417 1020.91 803.222 1031.1C803.298 1031.24 803.365 1031.38 803.421 1031.53C803.986 1033.01 804.066 1034.63 803.65 1036.16C803.452 1036.9 803.106 1037.59 802.633 1038.19C802.16 1038.79 801.571 1039.29 800.9 1039.65C800.177 1040.1 799.369 1040.4 798.526 1040.53C797.683 1040.65 796.823 1040.61 795.999 1040.38C795.223 1040.17 794.509 1039.77 793.917 1039.23C793.324 1038.68 792.87 1038 792.593 1037.24C787.607 1028.65 783.258 1022.5 779.556 1018.86L779.452 1018.76C774.466 1014.64 769.708 1007.85 765.245 998.275C761.274 989.832 757.369 982.09 753.531 975.047L753.636 974.656C749.434 968.203 745.817 961.385 742.826 954.284L742.684 954.666C739.353 948.35 736.514 940.362 734.167 930.703L734.453 931.19C734.062 929.967 733.682 928.754 733.263 927.532C732.359 924.848 731.36 922.155 730.313 919.433C728.41 914.724 726.317 910.054 723.919 905.307C719.085 896.272 715.165 888.669 712.062 882.461C711.687 881.721 711.471 880.91 711.429 880.081C711.386 879.252 711.518 878.423 711.815 877.648ZM1963.41 383.935C1962.85 383.62 1962.29 383.305 1961.77 382.98C1961.38 382.77 1961.04 382.521 1960.69 382.311L1959.01 381.051C1958.74 380.84 1958.46 380.63 1958.17 380.392C1957.93 380.206 1957.7 380.005 1957.48 379.79L1956.53 378.949C1955.94 378.395 1955.34 377.794 1954.79 377.202C1954.31 376.728 1953.85 376.227 1953.43 375.702C1953.01 375.167 1952.59 374.68 1952.21 374.193C1951.83 373.706 1951.65 373.419 1951.37 373.076C1951.02 372.55 1950.64 372.025 1950.29 371.461C1949.93 370.898 1949.66 370.449 1949.33 369.952C1949.06 369.553 1948.81 369.132 1948.6 368.692C1948.22 368.033 1947.87 367.326 1947.55 366.629C1947.24 365.932 1946.93 365.301 1946.6 364.633C1946.28 363.964 1946.15 363.477 1945.94 362.885C1945.87 362.749 1945.81 362.609 1945.77 362.465C1945.62 362.111 1945.52 361.729 1945.39 361.376C1944.76 359.467 1944.23 357.525 1943.82 355.559C1943.74 355.177 1943.67 354.795 1943.61 354.404C1943.54 354.012 1943.43 353.496 1943.36 353.009C1943.22 352.054 1943.08 351.147 1942.98 350.201C1942.98 349.752 1942.9 349.332 1942.87 348.874C1942.84 348.415 1942.8 347.861 1942.77 347.374C1942.04 347.861 1941.27 348.387 1940.5 348.912C1939.74 349.437 1939.04 349.962 1938.27 350.488C1936.84 351.567 1935.34 352.694 1933.84 353.878C1933.63 354.022 1933.45 354.194 1933.24 354.337C1933.03 354.48 1932.8 354.719 1932.55 354.9C1927.35 359.026 1921.77 363.859 1915.98 368.997C1915.21 369.704 1914.48 370.363 1913.72 371.07C1912.96 371.777 1912.04 372.569 1911.21 373.305C1909.91 374.499 1908.59 375.693 1907.29 376.839C1900.71 382.827 1893.97 389.054 1887.18 395.081C1881.77 399.914 1876.37 404.632 1871 409.044C1870.67 409.358 1870.41 409.734 1870.22 410.15C1870.04 410.567 1869.94 411.016 1869.93 411.472C1869.92 411.928 1870 412.381 1870.17 412.805C1870.33 413.229 1870.58 413.616 1870.9 413.944C1871.25 414.338 1871.7 414.639 1872.2 414.822C1872.69 415.005 1873.23 415.064 1873.75 414.994C1873.92 414.989 1874.08 414.967 1874.24 414.927C1875.81 414.545 1877.38 414.125 1878.92 413.705C1885.09 412.091 1891.01 410.477 1896.73 408.805C1897.92 408.452 1899.07 408.099 1900.22 407.783C1906.36 405.873 1912.25 404.039 1917.9 402.12C1919.81 401.489 1921.63 400.859 1923.48 400.21C1925.33 399.56 1926.87 399.016 1928.54 398.385C1929.34 398.108 1930.14 397.793 1930.95 397.516C1931.5 397.306 1932.1 397.096 1932.69 396.848C1933.88 396.427 1935.02 395.979 1936.17 395.52H1936.25C1937.12 395.167 1937.95 394.823 1938.83 394.508L1939.31 394.298L1943.04 392.827C1943.04 392.827 1943.12 392.827 1943.15 392.827C1943.54 392.683 1943.96 392.512 1944.34 392.34C1945.8 391.738 1947.27 391.146 1948.7 390.515C1948.97 390.41 1949.29 390.267 1949.65 390.162C1951.05 389.57 1952.5 388.94 1953.84 388.347C1953.92 388.342 1954.01 388.32 1954.08 388.281C1954.82 387.927 1955.58 387.612 1956.31 387.259C1957.04 386.905 1957.75 386.666 1958.44 386.351C1958.55 386.351 1958.65 386.246 1958.75 386.208L1960.12 385.578C1961.28 384.919 1962.32 384.422 1963.41 383.935ZM1916.85 465.595C1922.19 441.832 1938.73 422.683 1956.68 403.571L1959.68 400.315C1917.55 409.865 1889.41 422.129 1875.94 436.789C1875.12 437.695 1874.51 438.777 1874.16 439.953C1873.81 441.129 1873.73 442.369 1873.92 443.58C1874.1 444.769 1874.54 445.903 1875.22 446.896C1875.89 447.889 1876.78 448.714 1877.82 449.311C1890.13 456.294 1903.24 461.761 1916.85 465.595ZM1862.93 499.023C1872.45 488.727 1885.61 480.962 1901.05 476.378C1891.38 471.621 1881.25 467.855 1870.82 465.136C1868.59 464.542 1866.21 464.835 1864.19 465.957C1862.17 467.078 1860.66 468.94 1859.97 471.153C1857.53 479.109 1858.55 488.469 1862.93 498.975V499.023ZM1358.84 1172.01C1358.25 1172.39 1357.65 1172.81 1357.03 1173.27L1359.11 1172.01H1358.84ZM1271.08 572.517C1271.56 572.889 1272.03 573.223 1272.69 573.644C1273.18 573.991 1273.68 574.31 1274.2 574.599C1274.74 574.866 1275.26 575.143 1275.96 575.468C1276.33 575.64 1276.73 575.821 1277.26 576.012C1279.24 576.806 1281.32 577.348 1283.43 577.626C1283.68 577.626 1283.93 577.712 1284.31 577.751C1284.69 577.789 1285.18 577.817 1285.61 577.856C1286.05 577.894 1286.5 577.856 1286.96 577.856C1287.41 577.856 1287.75 577.856 1288.11 577.856L1289.34 577.751C1289.98 577.728 1290.62 577.645 1291.25 577.502C1291.74 577.426 1292.2 577.34 1292.67 577.235C1293.15 577.13 1293.63 577.025 1294.14 576.862C1299.06 575.485 1303.47 572.706 1306.85 568.86C1310.23 565.015 1312.42 560.27 1313.16 555.199C1313.9 550.129 1313.17 544.95 1311.04 540.292C1308.91 535.634 1305.48 531.696 1301.16 528.955C1299.85 528.113 1298.47 527.394 1297.03 526.806C1294.1 525.594 1290.97 524.924 1287.79 524.829H1286.56C1283.17 524.888 1279.83 525.595 1276.72 526.911C1275.94 527.255 1275.17 527.609 1274.37 528.048C1273.79 528.344 1273.22 528.716 1272.55 529.146L1272.05 529.461L1270.56 530.598C1270.33 530.76 1270.11 530.951 1269.78 531.238C1269.27 531.677 1268.83 532.193 1268.31 532.613C1268 532.919 1267.73 533.215 1267.36 533.664C1267.14 533.893 1266.93 534.141 1266.71 534.418C1264.28 537.311 1262.51 540.701 1261.52 544.351C1261.38 544.867 1261.27 545.364 1261.17 545.86C1261.06 546.357 1260.98 546.815 1260.88 547.312C1260.69 548.653 1260.59 550.007 1260.59 551.362C1260.59 551.839 1260.59 552.317 1260.59 553.043C1260.59 553.768 1260.69 554.303 1260.79 554.953C1260.79 555.268 1260.87 555.602 1260.93 555.908L1261.16 557.102C1261.26 557.579 1261.39 558.057 1261.51 558.515L1261.63 558.888C1261.79 559.467 1261.98 560.035 1262.21 560.588L1262.34 560.941C1262.53 561.38 1262.71 561.896 1262.96 562.374C1263.66 564.007 1264.56 565.552 1265.62 566.977C1265.85 567.292 1266.08 567.579 1266.31 567.885L1266.41 567.99C1266.44 568.038 1266.48 568.083 1266.52 568.123L1267.56 569.317C1267.76 569.6 1268 569.854 1268.27 570.072C1268.7 570.54 1269.16 570.96 1269.64 571.39C1270.11 571.82 1270.52 572.144 1271.08 572.517ZM1200.82 649.019C1204.14 650.222 1207.64 650.868 1211.17 650.929C1214.68 650.867 1218.16 650.221 1221.46 649.019C1234.78 644.148 1257.34 638.867 1268.99 624.617C1257.63 633.47 1237.29 637.778 1211.17 637.778C1185.05 637.778 1164.69 633.47 1153.36 624.617C1164.97 638.867 1187.5 644.148 1200.82 649.019ZM1126.86 576.891C1129.17 577.539 1131.56 577.861 1133.96 577.846C1140.98 577.841 1147.7 575.043 1152.66 570.067C1157.62 565.09 1160.4 558.342 1160.41 551.304C1160.41 550.741 1160.41 550.168 1160.35 549.642C1159.96 543.131 1157.19 536.994 1152.57 532.41C1147.95 527.826 1141.8 525.119 1135.31 524.81C1134.93 524.81 1134.53 524.81 1134.14 524.81H1133.96C1133.8 524.81 1133.69 524.81 1133.28 524.81C1130.59 524.885 1127.92 525.368 1125.37 526.243C1123.41 526.912 1121.55 527.817 1119.8 528.936C1115.5 531.685 1112.07 535.628 1109.95 540.288C1107.82 544.948 1107.09 550.126 1107.84 555.196C1108.58 560.265 1110.78 565.01 1114.15 568.855C1117.53 572.7 1121.94 575.481 1126.86 576.862V576.891ZM1106.87 842.711C1084.3 832.606 1071.24 821.221 1059.72 810.238C1055.22 817.336 1051.29 824.78 1047.96 832.501C1046.1 836.933 1044.46 841.46 1043.07 846.063C1059.65 845.834 1085.53 844.134 1106.87 842.711ZM987.672 782.97C996.464 791.566 1004.31 798.099 1007.04 808.977C1007.86 805.969 1008.78 803.027 1009.72 800.095C1012.05 792.788 1014.8 785.622 1017.95 778.634C1011.38 775.646 1004.58 773.212 997.615 771.356C985.826 767.679 983.551 776.323 987.672 782.97Z" fill="#F4F4F5"/>
<path d="M1134.02 559.604C1141.88 559.604 1148.26 555.905 1148.26 551.342C1148.26 546.779 1141.88 543.081 1134.02 543.081C1126.16 543.081 1119.79 546.779 1119.79 551.342C1119.79 555.905 1126.16 559.604 1134.02 559.604Z" fill="#F4F4F5"/>
<path d="M1286.95 559.604C1294.81 559.604 1301.18 555.905 1301.18 551.342C1301.18 546.779 1294.81 543.081 1286.95 543.081C1279.08 543.081 1272.71 546.779 1272.71 551.342C1272.71 555.905 1279.08 559.604 1286.95 559.604Z" fill="#F4F4F5"/>
<path d="M1358.84 1172.01H1359.11L1357.03 1173.27C1357.65 1172.81 1358.25 1172.39 1358.84 1172.01ZM811.691 1037.8C811.506 1037.73 811.328 1037.65 811.158 1037.55C811.348 1037.64 811.519 1037.74 811.681 1037.8H811.691Z" fill="#F4F4F5"/>
<path d="M1031 979.565C1060.11 1012.45 965.006 1025.14 954.967 1038.59C966.738 1022.89 1008.27 953.902 1031 979.565Z" fill="#F4F4F5"/>
<path d="M1383.15 1074.63C1393.48 1071.33 1401.87 1061.87 1411.91 1058.15C1428.09 1052.14 1445.69 1060 1435.37 1077.25C1396.25 1142.46 1229.74 1047.83 1229.74 1047.83C1260.35 1053.49 1318.48 1095.26 1383.15 1074.63Z" fill="#F4F4F5"/>
<path d="M1499.61 976.518C1504.48 967.646 1514.55 966.805 1521.33 975.496C1538.25 997.167 1496 1033.9 1479.57 1046.48C1486.47 1030.68 1496.46 1015.68 1499.1 998.495C1499.98 992.755 1496.83 981.533 1499.61 976.518Z" fill="#F4F4F5"/>
<defs>
<filter id="filter0_f_356_1108" x="0" y="0" width="2428" height="1641" filterUnits="userSpaceOnUse" color-interpolation-filters="sRGB">
<feFlood flood-opacity="0" result="BackgroundImageFix"/>
<feBlend mode="normal" in="SourceGraphic" in2="BackgroundImageFix" result="shape"/>
<feGaussianBlur stdDeviation="100" result="effect1_foregroundBlur_356_1108"/>
</filter>
<linearGradient id="paint0_linear_356_1108" x1="1885.05" y1="491.564" x2="1844.97" y2="440.849" gradientUnits="userSpaceOnUse">
<stop stop-color="#FBFCFC" stop-opacity="0"/>
<stop offset="0.53" stop-color="#F4F4F5"/>
</linearGradient>
<linearGradient id="paint1_linear_356_1108" x1="1959.39" y1="431.517" x2="1834.11" y2="439.983" gradientUnits="userSpaceOnUse">
<stop stop-color="#FBFCFC" stop-opacity="0"/>
<stop offset="0.72" stop-color="#F4F4F5"/>
</linearGradient>
<linearGradient id="paint2_linear_356_1108" x1="1954.9" y1="364.546" x2="1835.94" y2="432.741" gradientUnits="userSpaceOnUse">
<stop stop-color="#FBFCFC" stop-opacity="0"/>
<stop offset="0.71" stop-color="#F4F4F5"/>
</linearGradient>
</defs>
</svg>
