<svg width="242" height="148" viewBox="0 0 242 148" fill="none" xmlns="http://www.w3.org/2000/svg">
<path d="M141.793 136.474L142.083 136.289H142.044C141.963 136.35 141.878 136.407 141.793 136.474Z" fill="black"/>
<path d="M212.756 42.2427C214.096 40.8038 215.937 39.7186 218.102 39.0778C216.745 38.4123 215.324 37.8862 213.861 37.5075C213.548 37.4241 213.215 37.4651 212.932 37.6218C212.648 37.7785 212.436 38.0388 212.341 38.3482C212 39.463 212.141 40.7741 212.756 42.2427Z" fill="url(#paint0_linear_204_164)"/>
<path d="M214.296 34.4982C214.322 34.6653 214.385 34.8244 214.481 34.9634C214.578 35.1023 214.704 35.2175 214.852 35.3C216.578 36.2762 218.416 37.0398 220.326 37.5741C221.067 34.2538 223.393 31.5778 225.913 28.9075L226.333 28.4519C220.424 29.7815 216.476 31.5001 214.587 33.5482C214.47 33.6745 214.384 33.8255 214.333 33.99C214.283 34.1545 214.27 34.3282 214.296 34.4982Z" fill="url(#paint1_linear_204_164)"/>
<path d="M213.885 30.3352C213.936 30.391 214 30.4336 214.071 30.4591C214.142 30.4846 214.218 30.4923 214.293 30.4815C214.315 30.4807 214.337 30.4776 214.359 30.4722C214.58 30.4185 214.8 30.3611 215.017 30.3018C215.881 30.0759 216.713 29.85 217.515 29.6167C217.681 29.5667 217.844 29.5185 218.006 29.4741C218.867 29.2092 219.693 28.95 220.485 28.6833C220.75 28.5944 221.007 28.4981 221.267 28.413C221.526 28.3278 221.743 28.2463 221.978 28.1574L222.315 28.037C222.393 28.0074 222.476 27.9778 222.559 27.9426C222.726 27.8833 222.887 27.8222 223.048 27.7574H223.059C223.18 27.7074 223.298 27.6592 223.42 27.6167L223.489 27.587L224.011 27.3815C224.011 27.3815 224.022 27.3815 224.026 27.3815C224.081 27.3611 224.139 27.337 224.193 27.313C224.398 27.2296 224.604 27.1463 224.804 27.0574C224.843 27.0444 224.887 27.0241 224.931 27.0092L225.519 26.7555C225.531 26.7547 225.543 26.7515 225.554 26.7463C225.656 26.6963 225.763 26.6518 225.865 26.6037C225.967 26.5555 226.067 26.5204 226.165 26.4759L226.209 26.4555L226.394 26.3685C226.544 26.3055 226.691 26.2352 226.844 26.1685C226.765 26.1241 226.687 26.0796 226.615 26.0296C226.559 26 226.511 25.9667 226.461 25.937L226.228 25.7518L226.109 25.6592C226.076 25.6334 226.043 25.6056 226.013 25.5759L225.88 25.4574C225.796 25.3796 225.713 25.2963 225.635 25.213C225.557 25.1296 225.504 25.0759 225.45 25.0037C225.396 24.9315 225.333 24.8611 225.28 24.7926C225.226 24.7241 225.2 24.6852 225.163 24.637C225.126 24.5889 225.059 24.4907 225.009 24.4111C224.959 24.3315 224.922 24.2704 224.883 24.2C224.844 24.1444 224.809 24.0855 224.78 24.0241C224.726 23.9315 224.676 23.8389 224.631 23.7352C224.587 23.6315 224.544 23.55 224.506 23.4574C224.467 23.3648 224.441 23.2944 224.411 23.213C224.402 23.1937 224.394 23.1739 224.387 23.1537C224.367 23.1037 224.354 23.0518 224.333 23.0018C224.246 22.7351 224.173 22.4637 224.115 22.1889C224.104 22.1352 224.094 22.0815 224.085 22.0278C224.076 21.9741 224.059 21.9 224.05 21.8315C224.03 21.7 224.011 21.5722 223.996 21.4389C223.996 21.3778 223.985 21.3185 223.981 21.2537C223.973 21.1843 223.968 21.1144 223.967 21.0444C223.865 21.113 223.756 21.1852 223.65 21.2592C223.544 21.3333 223.444 21.4055 223.335 21.4796C223.135 21.6296 222.924 21.7889 222.715 21.9537C222.685 21.9741 222.661 21.9981 222.631 22.0185C222.602 22.0389 222.569 22.0704 222.533 22.0963C221.806 22.6722 221.022 23.3481 220.209 24.0667C220.102 24.1648 219.998 24.2518 219.893 24.3555L219.539 24.6685C219.354 24.8352 219.169 25.0018 218.983 25.163C218.057 26 217.111 26.8704 216.163 27.7111C215.404 28.387 214.646 29.0463 213.896 29.663C213.807 29.7514 213.756 29.8712 213.754 29.9968C213.752 30.1224 213.799 30.2438 213.885 30.3352Z" fill="url(#paint2_linear_204_164)"/>
<path d="M78.3815 16.0815C78.4338 16.3165 78.4037 16.5624 78.2963 16.7778C77.5436 17.9785 76.5665 19.0228 75.4185 19.8538C74.4393 20.5271 73.3884 21.0898 72.2852 21.5315L72.213 21.5704C71.3767 21.9517 70.6621 22.5567 70.1482 23.3186C69.4825 24.2772 68.7205 25.1651 67.8741 25.9686L67.8593 26.0241C67.0902 26.6929 66.3904 27.4374 65.7704 28.2463L63.4722 31.1908C62.714 32.1915 62.0105 33.2325 61.3648 34.3093C60.7443 35.2909 60.2037 36.3208 59.7482 37.3889C59.2099 38.5556 58.7216 39.6173 58.2833 40.5741C57.7612 41.6807 57.1151 42.7244 56.3574 43.6852C56.2938 43.7793 56.2087 43.8569 56.1092 43.9116C56.0098 43.9663 55.8987 43.9967 55.7852 44C55.6784 44.0301 55.5661 44.0348 55.4571 44.0139C55.3481 43.9931 55.2455 43.9471 55.1574 43.8797C55.0637 43.8152 54.9865 43.7297 54.9318 43.63C54.8771 43.5303 54.8466 43.4192 54.8426 43.3056C54.8152 43.1887 54.8134 43.0673 54.8374 42.9496C54.8613 42.832 54.9105 42.721 54.9815 42.6241C55.6513 41.773 56.2223 40.8486 56.6833 39.8686C57.1204 38.913 57.6086 37.8519 58.1482 36.6852C58.6376 35.5449 59.2179 34.4456 59.8833 33.3982C60.5652 32.2698 61.307 31.1787 62.1056 30.1297C62.9352 29.0655 63.7012 28.084 64.4037 27.1852C65.095 26.295 65.8735 25.4761 66.7278 24.7408L66.6722 24.7241C67.4465 23.9949 68.144 23.1882 68.7537 22.3167C69.4568 21.2715 70.4463 20.451 71.6037 19.9538C72.6054 19.5525 73.5604 19.0433 74.4519 18.4352C75.395 17.7371 76.1969 16.8661 76.8148 15.8686C76.8666 15.7664 76.942 15.678 77.0348 15.6107C77.1275 15.5434 77.2349 15.4991 77.3482 15.4815C77.5629 15.4201 77.7931 15.444 77.9907 15.5482C78.1791 15.6751 78.3173 15.8637 78.3815 16.0815Z" fill="black"/>
<path d="M65.2148 117.504C65.2391 117.517 65.2645 117.528 65.2908 117.537L65.2723 117.524C65.2539 117.515 65.2346 117.508 65.2148 117.504Z" fill="black"/>
<path d="M169.156 20.2778C169.039 20.305 168.918 20.3068 168.8 20.2832C168.682 20.2595 168.571 20.211 168.474 20.1408C167.363 19.477 166.316 18.7101 165.348 17.85L165.387 17.9222C164.191 16.9766 163.321 16.1012 162.778 15.2963C162.3 14.6951 161.58 14.2049 160.619 13.8259C159.351 13.3327 158.196 12.5888 157.222 11.6389C156.497 10.9462 155.591 10.4741 154.607 10.2778C153.497 10.1239 152.41 9.8289 151.374 9.40001C150.5 9.06668 149.475 8.72902 148.298 8.38705L148.243 8.37038C146.809 7.98606 145.492 7.25466 144.407 6.24075C144.314 6.1762 144.237 6.09068 144.182 5.99101C144.127 5.89134 144.097 5.78027 144.093 5.66668C144.085 5.5469 144.104 5.42692 144.146 5.3148C144.189 5.20269 144.255 5.10103 144.341 5.01668C144.409 4.93631 144.495 4.87159 144.59 4.82687C144.686 4.78216 144.791 4.75847 144.896 4.75742C145.133 4.73866 145.37 4.80425 145.563 4.9426C146.454 5.78214 147.539 6.38673 148.722 6.70186C150.001 7.07223 151.1 7.43149 152.019 7.77964L152.074 7.79631C152.969 8.16058 153.907 8.40949 154.865 8.53705L154.92 8.55371C156.243 8.79842 157.466 9.424 158.439 10.3537C159.248 11.1565 160.212 11.7865 161.272 12.2056C162.578 12.7266 163.544 13.4056 164.169 14.2426L164.224 14.2593C164.671 14.9556 165.412 15.7124 166.446 16.5296C167.356 17.326 168.338 18.0341 169.382 18.6445C169.573 18.7724 169.714 18.9639 169.778 19.1852C169.832 19.4204 169.803 19.6669 169.696 19.8833C169.568 20.0738 169.376 20.2133 169.156 20.2778Z" fill="black"/>
<path d="M185.007 41.1223C184.885 41.125 184.764 41.0987 184.654 41.0456C184.544 40.9924 184.448 40.914 184.374 40.8167C184.295 40.7419 184.236 40.6479 184.204 40.5437C184.171 40.4396 184.166 40.3289 184.189 40.2223C184.241 39.0902 183.98 38.192 183.407 37.5278C182.623 36.6982 181.828 35.8457 181.02 34.9704C180.083 34.0383 179.229 33.0258 178.469 31.9445C177.664 30.8334 176.998 29.8778 176.472 29.0778L176.489 29.0223C175.889 28.2815 175.233 27.4297 174.522 26.4667C173.811 25.5038 173.143 24.6278 172.517 23.8389L172.502 23.8945C171.707 23.0431 170.851 22.252 169.939 21.5278C169.838 21.4513 169.754 21.3543 169.693 21.2433C169.632 21.1322 169.596 21.0096 169.585 20.8834C169.57 20.7742 169.579 20.663 169.611 20.5575C169.643 20.452 169.697 20.3546 169.77 20.2723C169.933 20.0951 170.158 19.9882 170.398 19.9741C170.507 19.9592 170.618 19.968 170.723 19.9999C170.828 20.0319 170.925 20.0863 171.007 20.1593C172.001 20.9374 172.936 21.7879 173.804 22.7038L173.859 22.7204C174.495 23.5352 175.174 24.4352 175.896 25.4204C176.619 26.4056 177.269 27.276 177.846 28.0315L177.902 28.0463C178.413 28.8488 179.078 29.8044 179.898 30.913C180.602 31.9291 181.392 32.8826 182.259 33.763C183.068 34.6396 183.864 35.492 184.646 36.3204C185.565 37.2908 185.983 38.6155 185.9 40.2945C185.868 40.5322 185.761 40.7538 185.596 40.9278C185.517 40.9996 185.424 41.0539 185.322 41.0874C185.221 41.1209 185.114 41.1328 185.007 41.1223Z" fill="black"/>
<path d="M189.998 52.6389C189.868 52.7567 189.777 52.911 189.737 53.0815C189.696 53.252 189.708 53.4308 189.77 53.5945C189.97 54.1056 190.176 54.6198 190.387 55.1371L190.441 55.1519C190.84 56.3525 191.169 57.5756 191.426 58.8148L191.444 58.7611C191.659 60.1111 191.815 61.2241 191.922 62.0945L191.937 62.0408C192.01 63.0647 192.179 64.0796 192.441 65.0722C192.632 66.1483 192.719 67.2405 192.698 68.3334L192.713 68.2796C192.646 69.4798 192.639 70.6825 192.693 71.8834C192.69 72.0043 192.715 72.1243 192.767 72.2336C192.819 72.343 192.895 72.4386 192.991 72.513C193.065 72.5955 193.157 72.6596 193.26 72.7001C193.363 72.7406 193.475 72.7565 193.585 72.7463C193.825 72.7254 194.049 72.6182 194.215 72.4445C194.351 72.2721 194.414 72.0535 194.391 71.8352C194.346 70.7759 194.361 69.613 194.433 68.3593C194.462 67.1442 194.372 65.9292 194.165 64.7315L194.126 64.6574C193.884 63.7661 193.726 62.8541 193.654 61.9334L193.669 61.8796C193.556 60.9963 193.385 59.8667 193.152 58.4815L193.098 58.4611C192.827 57.1295 192.464 55.8183 192.011 54.5371L192.026 54.4834C191.804 53.9759 191.591 53.4722 191.389 52.9685C191.337 52.8384 191.254 52.723 191.147 52.632C191.04 52.5411 190.913 52.4774 190.776 52.4464C190.639 52.4155 190.497 52.4182 190.362 52.4543C190.226 52.4904 190.101 52.5588 189.998 52.6537V52.6389Z" fill="black"/>
<path d="M186.83 46.9C186.878 46.8815 186.924 46.8611 186.969 46.8389C186.996 46.8241 187.026 46.8111 187.054 46.7944C187.126 46.7537 187.198 46.7111 187.269 46.6667L187.407 46.5759C187.222 46.6833 187.026 46.787 186.83 46.9Z" fill="black"/>
<path d="M187.393 45.6889C187.574 45.5848 187.711 45.4187 187.779 45.2212C187.847 45.0238 187.841 44.8084 187.763 44.6149C187.452 43.8334 187.149 42.9334 186.856 41.9149C186.774 41.6849 186.618 41.4892 186.411 41.3593C186.211 41.2669 185.987 41.2429 185.772 41.2908C185.663 41.3305 185.563 41.3916 185.478 41.4705C185.393 41.5493 185.324 41.6444 185.276 41.75C185.212 41.8431 185.172 41.9508 185.161 42.0632C185.15 42.1756 185.168 42.289 185.213 42.3926C185.513 43.4679 185.822 44.4204 186.139 45.25C186.184 45.3664 186.254 45.4715 186.344 45.5582C186.434 45.6449 186.541 45.7112 186.659 45.7526C186.777 45.7939 186.902 45.8093 187.027 45.7977C187.151 45.786 187.271 45.7477 187.38 45.6852L187.393 45.6889Z" fill="black"/>
<path d="M187.974 101.606C187.86 101.569 187.754 101.51 187.663 101.432C187.572 101.353 187.498 101.258 187.444 101.15C187.39 101.047 187.359 100.934 187.351 100.818C187.343 100.702 187.36 100.585 187.4 100.476C187.74 99.4313 188.028 98.37 188.261 97.2963C188.496 96.0302 188.97 94.8205 189.657 93.7315C190.209 92.7227 190.675 91.6697 191.052 90.5834C191.414 89.6165 191.609 88.5952 191.63 87.563L191.613 87.6186C191.546 86.4334 191.628 85.2444 191.857 84.0797C192.029 82.9303 192.169 81.8278 192.276 80.7723L192.315 80.8445C192.344 79.8124 192.437 78.5957 192.593 77.1945L192.631 77.2667C192.721 76.1709 192.739 75.0704 192.685 73.9723C192.678 73.8525 192.696 73.7325 192.739 73.6204C192.782 73.5083 192.848 73.4066 192.933 73.3223C193.002 73.2419 193.087 73.1772 193.183 73.1325C193.279 73.0878 193.383 73.0641 193.489 73.063C193.725 73.0441 193.961 73.1097 194.154 73.2482C194.305 73.4175 194.391 73.6345 194.398 73.8612C194.456 75.0384 194.435 76.2182 194.335 77.3926C194.175 78.7507 194.075 79.9235 194.035 80.9112L194.019 80.9667C193.895 82.0445 193.745 83.184 193.569 84.3852C193.358 85.4155 193.276 86.4681 193.326 87.5186L193.382 87.5352C193.365 88.7829 193.128 90.0178 192.683 91.1834C192.274 92.3612 191.762 93.5008 191.154 94.5889L191.139 94.6445C190.565 95.5484 190.17 96.5543 189.976 97.6075L189.959 97.663C189.681 98.8976 189.378 100.013 189.048 101.009C189.012 101.124 188.953 101.229 188.875 101.32C188.797 101.411 188.702 101.486 188.594 101.539C188.501 101.593 188.398 101.627 188.291 101.638C188.184 101.65 188.076 101.638 187.974 101.606Z" fill="black"/>
<path d="M142.73 5.81296C141.637 5.49691 140.538 5.13765 139.431 4.73518C138.413 4.40543 137.353 4.21847 136.283 4.17963C135.072 4.1869 133.869 3.98001 132.73 3.56852C131.74 3.21683 130.702 3.01764 129.652 2.97777C128.233 2.92963 127.086 2.73703 126.211 2.4L126.156 2.38333C125.343 2.14506 124.166 2.12469 122.624 2.32222C122.516 2.34872 122.403 2.35109 122.293 2.32916C122.184 2.30723 122.08 2.26154 121.99 2.19531C121.901 2.12908 121.826 2.04393 121.773 1.94587C121.72 1.84781 121.688 1.73922 121.681 1.62778C121.653 1.51075 121.651 1.38902 121.675 1.27102C121.698 1.15302 121.747 1.04159 121.819 0.944442C121.967 0.775922 122.17 0.664594 122.393 0.629628C124.316 0.366665 125.768 0.407406 126.748 0.751851L126.804 0.766663C127.544 1.05185 128.52 1.21481 129.731 1.25555C130.957 1.29432 132.169 1.52426 133.324 1.93703C134.281 2.27831 135.29 2.4488 136.306 2.44074C137.57 2.48586 138.822 2.70713 140.026 3.09815C141.096 3.48827 142.158 3.83703 143.211 4.14444C143.438 4.206 143.635 4.34736 143.767 4.54259C143.86 4.75565 143.877 4.99468 143.813 5.21852C143.786 5.32193 143.738 5.41869 143.672 5.50279C143.606 5.5869 143.524 5.65654 143.43 5.70741C143.327 5.77232 143.211 5.81521 143.091 5.83337C142.97 5.85154 142.847 5.84459 142.73 5.81296Z" fill="black"/>
<path d="M101.722 5.11113C100.843 5.97533 99.6883 6.36175 98.2574 6.27039C97.1932 6.27039 96.1599 6.65249 95.1574 7.41669C93.8722 8.39076 92.708 9.01607 91.6648 9.29262L91.6481 9.34817C90.6028 9.64403 89.5944 10.0578 88.6426 10.5815L88.587 10.5648C87.4265 11.15 86.4111 11.6778 85.5407 12.1482C84.6369 12.5952 83.8139 13.1898 83.1055 13.9074C82.1648 14.8679 80.9426 15.5562 79.4389 15.9722C79.3319 16.0022 79.2195 16.0067 79.1105 15.9855C79.0015 15.9643 78.899 15.9179 78.8111 15.85C78.7022 15.8085 78.6042 15.7425 78.5249 15.6571C78.4456 15.5717 78.387 15.4691 78.3537 15.3574C78.3257 15.2404 78.3235 15.1187 78.3472 15.0007C78.3708 14.8827 78.4198 14.7713 78.4907 14.6741C78.5356 14.5759 78.6017 14.4888 78.6843 14.4193C78.767 14.3498 78.864 14.2996 78.9685 14.2722C80.0709 13.999 81.0828 13.4424 81.9037 12.6574L81.8889 12.713C82.7116 11.8525 83.6716 11.1348 84.7296 10.5889C85.6173 10.1235 86.6512 9.60126 87.8315 9.02224C88.8917 8.43812 90.015 7.97651 91.1796 7.64632C92.0537 7.39941 93.0321 6.86113 94.1148 6.0315C95.4728 4.99694 96.8611 4.49755 98.2796 4.53336L98.3352 4.54817C99.2278 4.61113 99.9562 4.3815 100.52 3.85928C100.711 3.70991 100.947 3.62961 101.189 3.6315C101.41 3.65532 101.615 3.75786 101.767 3.92039C101.91 4.09327 101.995 4.30725 102.009 4.5315C102.002 4.64224 101.973 4.75043 101.923 4.84989C101.874 4.94935 101.806 5.03812 101.722 5.11113Z" fill="black"/>
<path d="M120.448 2.35551C119.215 2.33741 117.983 2.4229 116.765 2.61106C115.618 2.83816 114.444 2.90052 113.28 2.79625L113.296 2.74069C112.381 2.70537 111.469 2.87229 110.626 3.22958L110.681 3.2444C109.544 3.68637 108.323 4.0944 107.019 4.46847L107.074 4.48514C105.604 4.97896 104.212 5.0765 102.898 4.77773C102.783 4.75187 102.675 4.70311 102.58 4.63438C102.484 4.56565 102.404 4.47835 102.343 4.37773C102.279 4.28608 102.236 4.1821 102.216 4.07262C102.196 3.96315 102.199 3.85066 102.226 3.74255C102.251 3.62764 102.3 3.51911 102.369 3.4236C102.438 3.32809 102.525 3.24758 102.626 3.18699C102.718 3.12467 102.822 3.08213 102.931 3.06205C103.041 3.04197 103.153 3.04479 103.261 3.07032C104.352 3.28492 105.48 3.19653 106.524 2.81477C107.759 2.4444 108.919 2.03884 110.006 1.5981C111.084 1.14536 112.253 0.948856 113.42 1.02403L113.476 1.04069C114.476 1.13133 115.483 1.07957 116.469 0.88699C117.789 0.677388 119.126 0.581972 120.463 0.601803C120.703 0.627332 120.926 0.73457 121.096 0.905507C121.245 1.07575 121.331 1.29229 121.339 1.51847C121.321 1.74078 121.218 1.94765 121.052 2.09625C120.979 2.18424 120.886 2.25363 120.781 2.29871C120.676 2.34379 120.562 2.36326 120.448 2.35551Z" fill="black"/>
<path d="M48.7407 75.5259C48.9807 75.5518 49.2044 75.6597 49.3741 75.8314C49.524 76.0006 49.6104 76.2167 49.6185 76.4425C49.5704 77.7771 49.5617 78.9784 49.5926 80.0463L49.5759 80.1018C49.5407 81.0437 49.7213 81.9811 50.1037 82.8425L50.0889 82.8981C50.4907 83.9681 50.7733 85.0791 50.9315 86.2111C51.0648 87.3123 51.2772 88.5166 51.5685 89.824L51.6241 89.8407C51.8574 91.1407 52.1043 92.295 52.3648 93.3037C52.4187 93.5388 52.3899 93.7854 52.2833 94.0018C52.1551 94.1881 51.9669 94.3247 51.75 94.3888C51.6329 94.4159 51.5114 94.4177 51.3935 94.3941C51.2757 94.3705 51.1643 94.322 51.0667 94.2518C50.9649 94.1996 50.877 94.1241 50.81 94.0314C50.7431 93.9387 50.699 93.8315 50.6815 93.7185C50.4099 92.6888 50.15 91.5105 49.9019 90.1833C49.5994 88.8314 49.3796 87.5845 49.2426 86.4425C49.0907 85.4508 48.8502 84.4747 48.5241 83.5259L48.4685 83.5111C48.0246 82.4228 47.8103 81.2546 47.8389 80.0796C47.813 78.9981 47.8259 77.7784 47.8778 76.4203C47.8707 76.3004 47.8894 76.1804 47.9325 76.0683C47.9756 75.9562 48.0422 75.8546 48.1278 75.7703C48.2974 75.62 48.5142 75.5336 48.7407 75.5259Z" fill="black"/>
<path d="M51.9241 50.0388C52.4279 49.3799 52.8893 48.6896 53.3056 47.9722C53.7701 47.0861 53.996 46.0943 53.9611 45.0944C53.9463 44.9837 53.9599 44.8709 54.0008 44.7669C54.0416 44.6629 54.1083 44.571 54.1945 44.5C54.2725 44.4091 54.3687 44.3355 54.4768 44.2839C54.5849 44.2322 54.7025 44.2036 54.8222 44.2C55.0409 44.2089 55.2503 44.291 55.4167 44.4333C55.5776 44.6073 55.6816 44.8263 55.7148 45.0611C55.7599 46.3762 55.4449 47.6786 54.8037 48.8277C54.3489 49.6157 53.8454 50.3746 53.2963 51.1C52.9914 51.5802 52.7704 52.479 52.6333 53.7962C52.6197 53.9113 52.5872 54.0233 52.537 54.1277C52.2469 55.1413 51.9543 56.2197 51.6593 57.3629C51.3542 58.4924 51.179 59.653 51.137 60.8222C51.0536 61.8385 51.0388 62.8594 51.0926 63.8777L51.1482 63.8925C51.1204 65.0704 51.0203 66.2455 50.8482 67.4111C50.6556 68.7691 50.4438 70.0512 50.213 71.2574C49.9661 72.5388 49.7475 73.6382 49.5574 74.5555C49.5415 74.6584 49.5041 74.7567 49.4476 74.8441C49.3911 74.9316 49.3169 75.0061 49.2296 75.0629C49.0435 75.2039 48.8093 75.2658 48.5778 75.2351C48.4618 75.2157 48.3521 75.1694 48.2572 75.0999C48.1623 75.0305 48.085 74.9398 48.0315 74.8351C47.9552 74.7471 47.9 74.6427 47.8701 74.5301C47.8403 74.4174 47.8366 74.2994 47.8593 74.1851C48.0408 73.2827 48.2543 72.2012 48.5 70.9407C48.7247 69.7518 48.9309 68.4882 49.1185 67.15C49.2789 66.082 49.3754 65.0054 49.4074 63.9259L49.3908 63.9814C49.3295 62.9022 49.3418 61.8201 49.4278 60.7425C49.4679 59.4564 49.6542 58.1791 49.9833 56.9351C50.2858 55.766 50.5895 54.6512 50.8945 53.5907C51.0895 51.8351 51.4327 50.6512 51.9241 50.0388Z" fill="black"/>
<path d="M51.287 95.1592C51.3208 95.0518 51.378 94.9531 51.4545 94.8705C51.5311 94.7878 51.625 94.7233 51.7296 94.6815C51.8314 94.6265 51.9438 94.5942 52.0592 94.5868C52.1746 94.5795 52.2903 94.5972 52.3982 94.6389C52.606 94.6965 52.783 94.8335 52.8907 95.0203C53.3241 95.887 53.8759 96.9555 54.5574 98.2074L54.537 98.2666C54.7222 98.637 54.8926 99.0074 55.0537 99.3574C55.2148 99.7074 55.3611 100.056 55.5019 100.407C55.7296 100.989 55.9389 101.565 56.1185 102.148V102.159C56.3563 103.182 56.7143 104.173 57.1852 105.111C57.1852 105.15 57.2 105.174 57.2296 105.18C57.6189 106.112 58.0821 107.012 58.6148 107.87L58.6667 107.889C58.7704 108.091 58.8796 108.3 58.9889 108.509L59.0704 108.352C59.0907 108.317 59.1111 108.283 59.1278 108.248C66.3907 94.9037 75.7389 91.6333 88.4 90.937C88.4708 90.9347 88.5395 90.9122 88.5979 90.872C88.6563 90.8319 88.7019 90.7758 88.7294 90.7105C88.7569 90.6452 88.7651 90.5734 88.753 90.5036C88.7409 90.4338 88.709 90.3689 88.6611 90.3166C86.2722 87.5815 84.0093 84.7759 81.1704 81.5648C78.5945 78.6389 78.0741 74.8185 78.4074 70.9463C78.6111 68.5389 79.4148 66.7592 81.5667 66.287H81.6093C82.8995 66.1285 84.1983 66.0506 85.4982 66.0537C92.7833 66.0537 98.8574 67.6148 103.076 70.9703C103.142 71.0239 103.224 71.0548 103.31 71.0584C103.395 71.0621 103.479 71.0384 103.55 70.9907C104.27 70.5049 104.86 69.8499 105.267 69.0831C105.675 68.3163 105.889 67.4611 105.889 66.5926C105.889 66.387 105.898 66.1815 105.904 65.9815C105.948 65.198 106.081 64.4221 106.3 63.6685C106.693 62.3741 106.825 61.0143 106.687 59.6685C106.576 58.7222 106.665 57.763 106.95 56.8537C107.064 56.501 107.208 56.159 107.381 55.8315C107.691 55.2459 108.09 54.7118 108.563 54.2481C108.607 54.2066 108.639 54.155 108.659 54.0979C108.678 54.0408 108.683 53.9798 108.673 53.9204C108.664 53.8609 108.64 53.8047 108.603 53.7566C108.567 53.7085 108.519 53.67 108.465 53.6444C107.613 53.2155 106.916 52.531 106.471 51.6867C106.027 50.8424 105.857 49.8804 105.986 48.935C106.115 47.9896 106.536 47.1081 107.19 46.4136C107.844 45.719 108.699 45.2462 109.635 45.0611C113.761 44.0666 115.746 46.737 121.37 46.737C127.085 46.737 128.293 43.8463 133.087 45.1148L133.202 45.1444C133.636 45.2686 134.05 45.4558 134.43 45.7C135.113 46.134 135.669 46.7414 136.041 47.4604C136.412 48.1793 136.587 48.984 136.546 49.7924C136.506 50.6008 136.251 51.384 135.809 52.062C135.367 52.74 134.753 53.2886 134.03 53.6518C133.975 53.6776 133.928 53.7162 133.892 53.7644C133.856 53.8126 133.832 53.8688 133.822 53.9283C133.813 53.9877 133.818 54.0486 133.837 54.1057C133.857 54.1627 133.89 54.2141 133.933 54.2555C134.406 54.7213 134.806 55.2557 135.119 55.8407C135.287 56.1698 135.429 56.5116 135.544 56.8629C135.834 57.7758 135.924 58.74 135.809 59.6907C135.671 61.0335 135.802 62.3904 136.196 63.6815C136.414 64.4341 136.546 65.2087 136.591 65.9907C136.6 66.1907 136.606 66.3963 136.606 66.6018C136.607 67.5198 136.846 68.4218 137.301 69.2194C137.755 70.017 138.409 70.6829 139.198 71.1518C139.298 71.2074 139.398 71.2685 139.496 71.337C139.559 71.3756 139.632 71.3946 139.705 71.3916C139.779 71.3887 139.85 71.3639 139.909 71.3204C142.072 69.7833 144.994 68.5963 148.257 67.5537C150.826 66.5852 154.494 65.6018 160.072 64.5907C161.623 64.3324 163.032 63.5325 164.048 62.3333C169.081 56.1629 177.752 50.6166 186.835 46.9037C186.883 46.8815 186.926 46.8629 186.969 46.8389C186.996 46.824 187.026 46.8111 187.054 46.7944C187.126 46.7537 187.198 46.7111 187.269 46.6666L187.411 46.5778C187.474 46.5389 187.537 46.5055 187.596 46.4666C187.846 46.3278 188.091 46.187 188.337 46.0444C188.583 45.9018 188.87 45.7407 189.135 45.5944C194.652 42.4278 199.217 39.6092 200.937 37.1352L200.946 37.1222C206.3 30.3129 217.411 24.5166 222.624 17.8944C222.641 17.874 222.655 17.8523 222.669 17.8296C222.813 17.5425 222.886 17.225 222.883 16.9037C222.883 16.4842 222.966 16.0689 223.128 15.6819C223.29 15.2949 223.527 14.9439 223.825 14.6494C224.124 14.3549 224.478 14.1227 224.868 13.9664C225.257 13.8101 225.673 13.7327 226.093 13.7389C227.83 13.7629 229.311 15.3518 229.217 17.0944C229.169 17.859 228.846 18.5804 228.307 19.1252C227.769 19.6699 227.051 20.0011 226.287 20.0574C225.813 20.0574 225.231 20.2815 224.57 20.6574H224.556C224.485 20.6978 224.43 20.7604 224.398 20.8353C224.367 20.9103 224.361 20.9935 224.381 21.0722C224.448 21.3463 224.52 21.6129 224.604 21.8778C225.026 23.2537 225.794 24.5352 227.052 25.2592C227.305 25.4142 227.57 25.548 227.844 25.6592C227.844 25.6592 227.844 25.6592 227.859 25.65C227.911 25.6259 227.961 25.5981 228.009 25.5666C228.185 25.4796 228.357 25.3815 228.524 25.2981C228.989 25.05 229.337 24.628 229.493 24.1241C229.709 23.4261 230.144 22.816 230.733 22.3835C231.322 21.951 232.034 21.7189 232.765 21.7213C233.496 21.7237 234.207 21.9604 234.793 22.3968C235.379 22.8331 235.81 23.446 236.022 24.1453C236.234 24.8447 236.216 25.5936 235.971 26.282C235.726 26.9704 235.266 27.562 234.66 27.9698C234.053 28.3776 233.332 28.5801 232.602 28.5475C231.872 28.5149 231.171 28.249 230.604 27.7889C230.448 27.6686 230.268 27.5846 230.075 27.543C229.883 27.5013 229.684 27.5031 229.493 27.5481C228.983 27.6648 228.491 27.7833 228.011 27.9037C227.922 27.9296 227.835 27.9444 227.756 27.9685C227.704 27.9833 227.644 27.9926 227.591 28.0074C227.57 28.0222 227.55 28.0426 227.531 28.0574C226.098 29.2611 224.783 30.6055 223.798 32.2C222.67 33.9759 221.75 35.9333 221.391 37.987C221.413 37.9907 221.434 37.9976 221.454 38.0074C221.794 38.0765 222.147 38.0303 222.457 37.8759C222.818 37.6993 223.214 37.6086 223.615 37.6111C224.104 37.6109 224.583 37.7443 225.002 37.9969C225.42 38.2495 225.761 38.6116 225.989 39.0442C226.217 39.4768 226.322 39.9633 226.293 40.4512C226.264 40.9391 226.102 41.4098 225.825 41.8125C225.548 42.2152 225.166 42.5345 224.721 42.7359C224.275 42.9372 223.783 43.0131 223.298 42.9552C222.813 42.8972 222.353 42.7078 221.967 42.4072C221.582 42.1067 221.286 41.7065 221.111 41.25C220.924 40.7867 220.597 40.3932 220.176 40.1241L219.894 39.9389C219.815 39.8868 219.718 39.8676 219.624 39.8852C217.294 40.3203 215.024 41.1815 213.143 42.6092C213.066 42.6672 213.015 42.7518 212.998 42.8461C212.981 42.9405 213 43.0377 213.052 43.1185C213.252 43.4312 213.502 43.709 213.793 43.9407C214.081 44.1751 214.304 44.4787 214.443 44.8232C214.581 45.1677 214.63 45.5417 214.585 45.9103C214.539 46.2788 214.401 46.6297 214.183 46.9301C213.964 47.2305 213.673 47.4705 213.337 47.6278C211.707 48.3963 210.07 46.9666 210.22 45.4185C210.231 45.3354 210.248 45.2531 210.27 45.1722C210.456 44.3315 210.622 42.2722 210.217 41.5074C208.713 38.7148 206.806 39.5481 203.406 41.5074L203.374 41.5241C197.831 44.0759 194.435 47.1981 190.693 50.6741C190.654 50.7129 190.611 50.7463 190.57 50.7852C190.156 51.1722 189.739 51.5592 189.313 51.95C189.273 51.9834 189.235 52.0192 189.2 52.0574C184.896 56.7926 179.941 62.0463 171.698 65.5592C170.044 66.2592 168.465 67.2815 167.369 68.7074C163.739 73.4666 155.331 80.4426 149.059 82.1444C149.008 82.1578 148.96 82.1821 148.919 82.2155C148.878 82.2488 148.845 82.2906 148.822 82.338C148.798 82.3854 148.785 82.4372 148.783 82.4901C148.781 82.5429 148.791 82.5956 148.811 82.6444C149.206 83.6608 149.545 84.6982 149.826 85.7518L149.896 85.7648C162.137 88.2592 173.746 96.4074 182.574 108.728C182.594 108.749 182.612 108.772 182.628 108.796C182.637 108.806 182.643 108.817 182.657 108.833C182.726 108.926 182.789 109.018 182.856 109.107L183.056 109.385L183.087 109.435C183.087 109.435 183.087 109.435 183.087 109.446L183.169 109.563C183.276 109.339 183.389 109.122 183.507 108.92C183.626 108.718 183.717 108.567 183.824 108.4C184.275 107.625 184.811 106.678 185.433 105.559C185.945 104.582 186.329 103.542 186.574 102.467C186.594 102.351 186.64 102.241 186.708 102.145C186.775 102.049 186.863 101.969 186.965 101.911C187.057 101.846 187.162 101.803 187.272 101.782C187.383 101.762 187.497 101.766 187.606 101.794C187.814 101.833 188.003 101.941 188.141 102.102C188.162 102.126 188.179 102.153 188.193 102.181C188.294 102.382 188.321 102.612 188.27 102.831C187.987 104.058 187.541 105.241 186.944 106.35C186.305 107.51 185.759 108.493 185.306 109.296C184.76 110.161 184.334 111.096 184.037 112.074L184.019 112.131C183.59 113.361 182.877 114.472 181.939 115.374C181.096 116.213 180.356 116.998 179.685 117.735C179.387 118.065 179.113 118.415 178.865 118.783C178.654 119.104 178.454 119.433 178.265 119.793C178.148 120.006 178.039 120.231 177.93 120.468C177.655 121.023 177.311 121.54 176.907 122.009C176.859 122.076 176.803 122.138 176.743 122.194C176.613 122.343 176.472 122.487 176.326 122.624C176.256 122.691 176.187 122.752 176.115 122.809C175.784 123.1 175.427 123.36 175.048 123.585C174.585 123.874 174.161 124.222 173.789 124.622L173.75 124.661C173.644 124.771 173.547 124.89 173.459 125.015C173.407 125.083 173.359 125.148 173.311 125.218C173.287 125.256 173.259 125.293 173.237 125.33C173.194 125.406 173.154 125.48 173.117 125.554C173.098 125.584 173.082 125.616 173.069 125.648L173.05 125.706C173.019 125.772 172.985 125.833 172.95 125.891C172.548 126.587 172.004 127.191 171.354 127.665C171.145 127.822 170.929 127.97 170.706 128.106C170.576 128.185 170.443 128.263 170.306 128.337C169.61 128.68 168.961 129.109 168.374 129.615C168.098 129.85 167.841 130.107 167.604 130.381C167.539 130.447 167.467 130.504 167.389 130.552C167.374 130.562 167.358 130.572 167.341 130.58C167.341 130.58 167.33 130.58 167.324 130.589L167.237 130.663C167.106 130.774 166.935 130.898 166.744 131.033C166.554 131.168 166.374 131.296 166.178 131.439C166.142 131.467 166.111 131.501 166.087 131.539C166.033 131.62 165.962 131.689 165.88 131.741C165.854 131.763 165.826 131.783 165.794 131.807C165.643 131.924 165.481 132.046 165.311 132.178C165.196 132.265 165.076 132.352 164.952 132.439C164.907 132.468 164.863 132.504 164.817 132.535C164.435 132.813 164.011 133.104 163.557 133.42C163.354 133.556 163.144 133.7 162.928 133.843C162.881 133.872 162.839 133.896 162.794 133.92C161.902 134.5 160.98 135.033 160.033 135.518C159.684 135.7 159.346 135.903 159.022 136.128C158.987 136.154 158.95 136.18 158.909 136.206L158.822 136.267L158.722 136.333C158.674 136.367 158.622 136.407 158.57 136.441C158.519 136.474 158.502 136.491 158.465 136.515C158.387 136.572 158.309 136.633 158.226 136.689C158.203 136.711 158.177 136.73 158.15 136.746C158.015 136.841 157.88 136.944 157.739 137.054C157.739 137.054 157.73 137.054 157.726 137.054C157.574 137.168 157.417 137.278 157.265 137.378C156.765 137.719 156.242 138.025 155.7 138.293L155.641 138.32C155.256 138.512 154.858 138.676 154.45 138.809C154.044 138.95 153.622 139.104 153.176 139.267L152.602 139.485C152.376 139.572 152.152 139.67 151.915 139.756C151.787 139.802 151.661 139.85 151.535 139.902C151.372 139.968 151.202 140.037 151.026 140.113C150.976 140.13 150.931 140.152 150.881 140.17L150.831 140.189C150.68 140.256 150.535 140.317 150.391 140.374C150.193 140.456 150.011 140.537 149.835 140.617C149.702 140.67 149.565 140.728 149.439 140.785C149.387 140.802 149.338 140.825 149.291 140.852L149.131 140.917L148.487 141.191L148.061 141.376C147.981 141.407 147.909 141.443 147.835 141.47C147.743 141.517 147.65 141.554 147.574 141.589L147.404 141.668L147.352 141.694C147.222 141.748 147.096 141.806 146.969 141.863C146.735 141.965 146.515 142.068 146.296 142.178C146.031 142.304 145.772 142.433 145.526 142.567C145.28 142.7 145.037 142.828 144.807 142.963C144.681 143.048 144.535 143.097 144.383 143.106C144.102 143.224 143.767 143.354 143.444 143.485L142.733 143.785C142.572 143.804 141.328 143.733 141.178 143.759C141.078 143.77 140.981 143.789 140.891 143.804H140.878L140.741 143.83C140.713 143.834 140.686 143.842 140.659 143.852C140.429 143.945 140.209 144.064 140.006 144.207C138.835 144.948 137.452 145.341 135.865 145.409C134.554 145.457 133.552 145.67 132.856 146.041L132.837 146.098C131.87 146.592 130.564 146.815 128.917 146.767C127.746 146.736 126.577 146.86 125.439 147.137L125.456 147.08C125.285 147.137 125.117 147.185 124.946 147.228C124.041 147.472 123.096 147.527 122.169 147.389C121.274 147.246 120.163 147.122 118.835 147.018C118.703 147.021 118.572 146.99 118.456 146.928C118.431 146.93 118.406 146.93 118.381 146.928H118.296C118.235 146.918 118.178 146.911 118.111 146.896C117.791 146.835 117.428 146.761 117.069 146.691C116.802 146.643 116.548 146.6 116.306 146.55C116.159 146.481 116.019 146.415 115.881 146.365C115.789 146.328 115.696 146.287 115.611 146.246C115.611 146.246 115.611 146.237 115.602 146.246C114.829 146.098 114.047 146.003 113.261 145.963C112.141 145.946 111.023 145.861 109.913 145.707C108.843 145.546 107.85 145.444 106.95 145.394C105.89 145.417 104.611 145.082 103.113 144.391C101.972 143.873 100.776 143.487 99.5482 143.241C98.2056 142.981 97.1037 142.52 96.2333 141.857L96.2908 141.87C95.4225 141.353 94.4685 140.996 93.4741 140.817C92.814 140.71 92.1728 140.509 91.5704 140.218C91.1858 140.038 90.8193 139.822 90.4759 139.572C90.2625 139.412 90.0578 139.24 89.863 139.057L89.7556 138.959L89.813 138.974C89.311 138.517 88.7043 138.19 88.0463 138.022C87.7855 137.96 87.5182 137.928 87.25 137.928C87.2088 137.933 87.1671 137.933 87.1259 137.928C87.0266 137.924 86.9291 137.901 86.8391 137.859C86.749 137.817 86.6684 137.757 86.6019 137.683C86.2796 137.522 85.9093 137.324 85.5426 137.143L84.7685 136.759H84.7593C84.6241 136.635 84.4889 136.526 84.3574 136.42C84.2704 136.344 84.187 136.276 84.1037 136.209C84.1037 136.209 84.1037 136.209 84.0945 136.209C83.7982 135.993 83.5019 135.768 83.2148 135.524C83.1463 135.467 83.0759 135.409 83.0111 135.35L82.8611 135.222L82.8519 135.213L82.6796 135.061C82.5389 134.935 82.4037 134.806 82.2667 134.67C82.2167 134.628 82.1685 134.581 82.1222 134.535L82.1741 134.554C81.9482 134.357 81.7111 134.174 81.4722 133.998C81.287 133.859 81.0926 133.728 80.8907 133.602C80.8648 133.583 80.8333 133.567 80.8074 133.55C80.7815 133.533 80.7741 133.53 80.7556 133.515C80.6704 133.463 80.587 133.411 80.5 133.363C80.4833 133.348 80.463 133.337 80.4463 133.322L80.1167 133.137C80.0667 133.115 80.0185 133.089 79.9667 133.063C79.9524 133.052 79.9368 133.044 79.9204 133.037C79.9204 133.037 79.9074 133.037 79.9037 133.037C79.9 133.037 79.8889 133.037 79.8833 133.037C79.8722 133.029 79.8597 133.022 79.8463 133.018L79.6852 132.939C79.6772 132.94 79.6691 132.94 79.6611 132.939C79.5759 132.896 79.4759 132.854 79.3889 132.813C79.3819 132.806 79.3727 132.802 79.363 132.802C79.3415 132.789 79.3192 132.778 79.2963 132.768C79.0833 132.683 78.8741 132.596 78.6796 132.506C78.613 132.472 78.5463 132.444 78.4945 132.407L78.463 132.396C78.4045 132.369 78.3476 132.338 78.2926 132.304C78.2926 132.304 78.2833 132.304 78.2815 132.304C78.1093 132.215 77.9463 132.118 77.7945 132.022C77.5848 131.892 77.3844 131.747 77.1945 131.589C76.9858 131.421 76.7924 131.235 76.6167 131.033C76.6019 131.022 76.5926 131.007 76.5796 130.996C76.4528 130.859 76.3353 130.713 76.2278 130.559L76.2445 130.498C75.7656 129.952 75.176 129.514 74.5148 129.213C74.3963 129.156 74.2759 129.104 74.1445 129.054C74.013 129.004 73.8815 128.946 73.7556 128.887C73.1859 128.64 72.6409 128.339 72.1278 127.989C71.9358 127.864 71.7504 127.729 71.5722 127.585C71.5451 127.567 71.5191 127.547 71.4945 127.526C71.4258 127.476 71.3608 127.421 71.3 127.361C71.2748 127.345 71.2518 127.326 71.2315 127.304C71.1333 127.222 71.0463 127.139 70.9519 127.05C70.9047 127.015 70.8596 126.977 70.8167 126.937C70.4077 126.592 70.0308 126.21 69.6907 125.796C69.6769 125.778 69.6621 125.761 69.6463 125.744C69.5445 125.611 69.4389 125.478 69.3389 125.339C69.3312 125.327 69.3225 125.316 69.313 125.306C69.1704 125.104 69.0352 124.894 68.9074 124.674C68.8685 124.62 68.8333 124.557 68.7982 124.502C68.7886 124.489 68.7811 124.474 68.7759 124.459C68.7556 124.42 68.7259 124.385 68.7093 124.344C68.6589 124.261 68.6131 124.175 68.5722 124.087L68.6241 124.1C68.5445 123.968 68.4685 123.841 68.3778 123.717C67.9995 123.141 67.5348 122.627 67 122.193C66.9894 122.183 66.9782 122.175 66.9667 122.167C66.8107 122.033 66.6469 121.91 66.4759 121.796C66.4185 121.761 66.3593 121.733 66.3093 121.698C65.1982 120.989 64.4445 119.933 64.0722 118.522C64.0298 118.408 64.0146 118.285 64.0278 118.164C64.041 118.043 64.0822 117.927 64.1482 117.824C64.1961 117.728 64.2637 117.642 64.3466 117.574C64.4296 117.505 64.526 117.455 64.6296 117.426C64.8331 117.381 65.0455 117.398 65.2389 117.476H65.263C65.2872 117.489 65.3126 117.5 65.3389 117.509C65.515 117.638 65.6448 117.821 65.7093 118.03C65.7613 118.211 65.8231 118.39 65.8945 118.565C65.9374 118.682 65.9901 118.795 66.0519 118.904C66.247 119.296 66.5205 119.644 66.8556 119.926C66.8907 119.959 66.9259 119.985 66.9537 120.009C67.0889 120.121 67.2332 120.221 67.3852 120.309L67.4389 120.33C67.817 120.585 68.1731 120.871 68.5037 121.185C68.543 121.223 68.5901 121.251 68.6416 121.268C68.6932 121.286 68.7479 121.291 68.8019 121.285H68.8833C69.2889 121.246 69.7056 121.196 70.1296 121.148C74.7796 120.554 76.363 117.259 77.7222 113.23C78.463 111.05 79.5741 107.25 82.0222 106.439C85.6778 105.215 88.8741 109.824 86.0241 113.265C83.9809 115.744 81.7214 118.037 79.2722 120.117C79.1029 120.258 78.982 120.45 78.9265 120.663C78.8709 120.877 78.8835 121.103 78.9624 121.309C79.0413 121.516 79.1826 121.692 79.3666 121.814C79.5506 121.936 79.7681 121.998 79.9889 121.991C81.8556 121.915 83.9426 121.163 85.9889 120.139C90.3258 117.982 94.9249 116.399 99.6704 115.43C104.455 114.486 109.393 114.676 114.091 115.985H114.109C119.504 117.826 124.789 120.261 129.819 122.933C135.463 125.928 140.744 130.711 147.517 130.526C152.365 130.396 156.846 127.617 159.839 123.92C161.844 121.448 163.837 114.117 167.707 114.317C170.741 114.48 171.741 118.73 170.993 120.904C170.622 121.991 170.157 123.045 169.604 124.052C169.478 124.28 169.439 124.547 169.494 124.801C169.55 125.056 169.695 125.283 169.904 125.439L170.035 125.557C170.143 125.658 170.244 125.765 170.339 125.878C170.364 125.907 170.396 125.931 170.431 125.948C170.466 125.965 170.504 125.974 170.543 125.976C170.582 125.977 170.621 125.97 170.657 125.956C170.693 125.942 170.726 125.92 170.754 125.893C170.78 125.874 170.804 125.853 170.826 125.83C170.969 125.694 171.101 125.548 171.222 125.393C171.327 125.269 171.421 125.136 171.502 124.996C171.519 124.963 171.541 124.93 171.559 124.9L171.519 124.883H171.506C171.519 124.859 171.526 124.833 171.541 124.807C171.541 124.807 171.541 124.807 171.541 124.798C171.565 124.761 171.583 124.72 171.613 124.678C171.812 124.304 172.056 123.957 172.339 123.643C172.871 123.054 173.486 122.545 174.165 122.133C175.121 121.556 175.889 120.713 176.374 119.707C176.519 119.402 176.67 119.109 176.824 118.828C177.009 118.518 177.18 118.213 177.38 117.928C177.481 117.763 177.596 117.611 177.715 117.454C177.833 117.296 177.913 117.183 178.015 117.057C178.154 116.893 178.289 116.726 178.433 116.568C179.126 115.813 179.904 114.993 180.769 114.12C181.519 113.401 182.087 112.512 182.424 111.528C182.489 111.324 182.556 111.128 182.63 110.935L182.581 110.863L182.53 110.789C182.446 110.665 182.363 110.544 182.28 110.418C182.196 110.293 182.128 110.202 182.056 110.096L181.969 109.972L181.92 109.904C181.907 109.886 181.894 109.868 181.883 109.848C173.45 97.9407 162.426 89.9315 150.781 87.2333C150.715 87.2069 150.643 87.2002 150.573 87.2141C150.502 87.228 150.438 87.2618 150.387 87.3115C150.335 87.3612 150.3 87.4247 150.284 87.4942C150.268 87.5638 150.272 87.6365 150.296 87.7037C150.644 89.2796 150.9 90.9092 151.098 92.5685C151.113 92.7013 151.156 92.8296 151.222 92.9455C151.289 93.0614 151.378 93.1625 151.485 93.2426C153.996 95.1111 155.722 97.3777 158.111 98.0129C158.627 98.155 159.167 98.1816 159.694 98.0907C159.797 98.0751 159.9 98.0688 160.004 98.0722C160.413 98.0725 160.815 98.1759 161.174 98.3727C161.532 98.5696 161.836 98.8537 162.056 99.1987C162.275 99.5437 162.405 99.9385 162.432 100.347C162.459 100.755 162.383 101.163 162.21 101.534C162.037 101.905 161.774 102.227 161.445 102.469C161.115 102.712 160.73 102.867 160.324 102.921C159.919 102.975 159.506 102.926 159.125 102.779C158.743 102.632 158.405 102.39 158.141 102.078C157.486 101.27 156.613 100.668 155.626 100.341C154.196 99.9203 152.631 99.4315 151.272 98.4722C151.213 98.4329 151.145 98.4094 151.074 98.4038C151.003 98.3982 150.932 98.4107 150.867 98.4401C150.803 98.4696 150.747 98.515 150.704 98.5721C150.662 98.6293 150.635 98.6962 150.626 98.7666C150.45 100.224 150.763 101.1 151.057 101.937C151.194 102.347 151.44 102.71 151.77 102.989C152.06 103.215 152.294 103.505 152.455 103.835C152.615 104.166 152.698 104.529 152.696 104.896C152.71 105.501 152.498 106.089 152.102 106.546C151.706 107.003 151.154 107.296 150.554 107.369C149.954 107.442 149.348 107.289 148.854 106.94C148.36 106.592 148.013 106.072 147.881 105.481C147.776 105.071 147.783 104.64 147.902 104.233C148.007 103.809 148.024 103.368 147.951 102.937C147.879 102.507 147.718 102.096 147.48 101.73C147.079 101.063 146.715 100.376 146.389 99.6703C146.306 99.4861 146.18 99.3246 146.022 99.1995C145.863 99.0743 145.677 98.9893 145.479 98.9517C145.28 98.9141 145.076 98.9249 144.883 98.9833C144.689 99.0417 144.513 99.1459 144.369 99.287C142.813 100.833 141.869 100.507 140.494 101.444C140.121 101.709 139.798 102.039 139.541 102.418C139.265 102.799 138.885 103.091 138.447 103.261C138.009 103.43 137.531 103.47 137.071 103.375C136.611 103.28 136.188 103.054 135.853 102.725C135.518 102.396 135.285 101.977 135.181 101.518C135.105 101.162 135.109 100.793 135.194 100.438C135.278 100.084 135.441 99.7524 135.669 99.4685C135.898 99.1846 136.187 98.9553 136.516 98.7974C136.844 98.6394 137.204 98.5568 137.569 98.5555C137.828 98.5532 138.086 98.5939 138.331 98.6759C138.674 98.7857 139.039 98.8035 139.39 98.7274C139.742 98.6514 140.067 98.4841 140.333 98.2426C141.535 97.1722 142.778 95.3463 144.857 93.5815C144.992 93.4716 145.094 93.3279 145.155 93.1651C145.215 93.0023 145.231 92.8264 145.2 92.6555C144.732 90.2881 143.83 88.0278 142.539 85.9889C142.51 85.9422 142.472 85.9024 142.426 85.8724C142.38 85.8423 142.329 85.8228 142.274 85.8152C142.22 85.8076 142.165 85.8121 142.113 85.8283C142.061 85.8446 142.013 85.8722 141.972 85.9092L141.907 85.9666C136.667 90.5203 130.183 92.6481 122.876 93.5333C122.842 93.5382 122.808 93.5476 122.776 93.5611C122.289 93.7745 121.763 93.8846 121.231 93.8846C120.7 93.8846 120.174 93.7745 119.687 93.5611C119.656 93.5465 119.623 93.5371 119.589 93.5333C115.369 92.9592 112.13 92.2203 109.576 91.3852C109.531 91.3722 109.485 91.3666 109.439 91.3685L109.163 91.3852L107.867 91.474L107.27 91.5111C102.746 91.8129 99.4389 91.9796 97.4556 92.0074H97.4204C97.3685 92.224 97.3185 92.4444 97.2778 92.6685C97.2456 92.839 97.2601 93.0151 97.3197 93.1781C97.3794 93.3411 97.482 93.4849 97.6167 93.5944C99.6963 95.3629 100.939 97.1889 102.137 98.2592C102.405 98.5005 102.732 98.6671 103.085 98.7425C103.438 98.8179 103.805 98.7994 104.148 98.6889C104.394 98.6073 104.652 98.5666 104.911 98.5685C105.33 98.568 105.741 98.6752 106.106 98.8798C106.471 99.0844 106.778 99.3795 106.996 99.7367C107.214 100.094 107.336 100.501 107.351 100.919C107.366 101.338 107.273 101.753 107.082 102.125C106.89 102.497 106.606 102.813 106.256 103.043C105.907 103.274 105.504 103.41 105.087 103.44C104.669 103.47 104.251 103.392 103.873 103.213C103.495 103.034 103.168 102.761 102.926 102.42C102.672 102.042 102.353 101.712 101.983 101.446C100.604 100.509 99.6593 100.835 98.1037 99.2889C97.9588 99.147 97.7818 99.0422 97.5877 98.9834C97.3936 98.9246 97.1882 98.9135 96.9889 98.9511C96.7896 98.9888 96.6024 99.074 96.4431 99.1995C96.2838 99.3251 96.1572 99.4872 96.0741 99.6722C95.7517 100.38 95.3875 101.067 94.9833 101.731C94.7463 102.098 94.587 102.509 94.5153 102.94C94.4437 103.371 94.4611 103.812 94.5667 104.235C94.6837 104.641 94.6927 105.071 94.5926 105.481C94.4504 106.06 94.1009 106.567 93.6103 106.906C93.1197 107.244 92.522 107.391 91.9303 107.319C91.3386 107.247 90.7939 106.96 90.3993 106.513C90.0047 106.066 89.7875 105.491 89.7889 104.894C89.7885 104.527 89.8717 104.164 90.0321 103.834C90.1925 103.504 90.426 103.214 90.7148 102.987C91.0464 102.71 91.2934 102.346 91.4278 101.935C91.7222 101.098 92.0352 100.222 91.8574 98.7648C91.8485 98.6944 91.8218 98.6274 91.7797 98.5702C91.7377 98.5131 91.6817 98.4676 91.6172 98.4381C91.5526 98.4086 91.4816 98.3961 91.4109 98.4017C91.3402 98.4074 91.272 98.431 91.213 98.4703C89.8482 99.4296 88.287 99.9185 86.8537 100.339C85.87 100.666 85.0009 101.269 84.35 102.076C84.0736 102.4 83.7175 102.647 83.3169 102.792C82.9163 102.937 82.4848 102.976 82.0648 102.904C81.435 102.802 80.8701 102.458 80.4913 101.944C80.1124 101.431 79.9498 100.79 80.0382 100.158C80.1266 99.5261 80.4591 98.9541 80.9643 98.5646C81.4695 98.175 82.1072 97.9989 82.7407 98.074C83.2562 98.149 83.7809 98.1327 84.2907 98.0259C86.7222 97.424 88.4593 95.1296 90.9982 93.2259C91.1032 93.1477 91.1913 93.0489 91.2568 92.9356C91.3224 92.8222 91.3642 92.6967 91.3796 92.5666V92.5092C91.387 92.4555 91.3825 92.4007 91.3664 92.3489C91.3503 92.2971 91.3229 92.2494 91.2864 92.2093C91.2498 92.1692 91.2049 92.1376 91.1547 92.1168C91.1046 92.096 91.0505 92.0865 90.9963 92.0889C90.5741 92.1012 90.1525 92.1166 89.7315 92.1352C76.7074 92.6722 67.1852 95.737 59.963 109.357C59.9315 109.424 59.8963 109.485 59.8611 109.543L59.8 109.659C59.7852 109.685 59.7741 109.713 59.7611 109.735V110.052L60.0945 110.748C60.1778 110.913 60.2556 111.083 60.3389 111.25C60.4519 111.494 60.5667 111.718 60.6852 111.931C61.0055 112.553 61.4331 113.113 61.9482 113.585C62.5815 114.167 63.3056 115.169 64.1204 116.593C64.1315 116.611 64.1408 116.631 64.1482 116.652C64.2276 116.859 64.2392 117.086 64.1815 117.3C64.1533 117.403 64.1044 117.499 64.0379 117.583C63.9714 117.667 63.8885 117.736 63.7945 117.787C63.693 117.85 63.5797 117.892 63.4615 117.909C63.3433 117.927 63.2228 117.92 63.1074 117.889C62.9985 117.859 62.8984 117.804 62.8152 117.727C62.7321 117.651 62.6685 117.556 62.6296 117.45C61.9315 116.25 61.3222 115.389 60.8019 114.881L60.787 114.868C60.087 114.291 59.4204 113.344 58.7945 112.006C58.2364 110.824 57.6883 109.742 57.15 108.759L57.1648 108.704C56.576 107.802 56.0685 106.849 55.6482 105.857L55.6296 105.911C55.0948 104.848 54.693 103.723 54.4333 102.561L54.4741 102.63C54.4204 102.459 54.3667 102.289 54.3074 102.118C54.1815 101.748 54.0407 101.367 53.8945 100.987C53.6315 100.328 53.3389 99.6759 52.9963 99.0129C52.3185 97.75 51.7685 96.687 51.3296 95.8203C51.2777 95.7189 51.2471 95.6079 51.2398 95.4942C51.2325 95.3805 51.2486 95.2665 51.287 95.1592ZM226.843 26.1629C226.763 26.1185 226.685 26.074 226.613 26.024C226.557 25.9944 226.509 25.9611 226.459 25.9315L226.226 25.7463L226.107 25.6537C226.074 25.6278 226.042 25.6 226.011 25.5703L225.878 25.4518C225.794 25.374 225.711 25.2907 225.633 25.2074C225.556 25.124 225.502 25.0703 225.448 24.9981C225.394 24.9259 225.331 24.8555 225.278 24.787C225.224 24.7185 225.198 24.6796 225.161 24.6315C225.124 24.5833 225.057 24.4852 225.007 24.4055C224.957 24.3259 224.92 24.2648 224.881 24.1944C224.842 24.1388 224.807 24.0799 224.778 24.0185C224.724 23.9259 224.674 23.8333 224.63 23.7296C224.585 23.6259 224.543 23.5444 224.504 23.4518C224.465 23.3592 224.439 23.2889 224.409 23.2074C224.4 23.1882 224.392 23.1684 224.385 23.1481C224.365 23.0981 224.352 23.0463 224.331 22.9963C224.244 22.7295 224.171 22.4581 224.113 22.1833C224.102 22.1296 224.093 22.0759 224.083 22.0222C224.074 21.9685 224.057 21.8944 224.048 21.8259C224.028 21.6944 224.009 21.5666 223.994 21.4333C223.994 21.3722 223.983 21.3129 223.98 21.2481C223.971 21.1787 223.966 21.1088 223.965 21.0389C223.863 21.1074 223.754 21.1796 223.648 21.2537C223.543 21.3278 223.443 21.4 223.333 21.474C223.133 21.624 222.922 21.7833 222.713 21.9481C222.683 21.9685 222.659 21.9926 222.63 22.0129C222.6 22.0333 222.567 22.0648 222.531 22.0907C221.804 22.6666 221.02 23.3426 220.207 24.0611C220.1 24.1592 219.996 24.2463 219.891 24.35L219.537 24.6629C219.352 24.8296 219.167 24.9963 218.981 25.1574C218.056 25.9944 217.109 26.8648 216.161 27.7055C215.402 28.3815 214.644 29.0407 213.894 29.6574C213.848 29.7012 213.811 29.7537 213.785 29.812C213.759 29.8703 213.745 29.9331 213.744 29.9969C213.742 30.0606 213.754 30.124 213.777 30.1833C213.8 30.2427 213.835 30.2968 213.88 30.3426C213.93 30.3984 213.994 30.441 214.065 30.4665C214.136 30.492 214.212 30.4997 214.287 30.4889C214.31 30.4881 214.332 30.485 214.354 30.4796C214.574 30.4259 214.794 30.3685 215.011 30.3092C215.876 30.0833 216.707 29.8574 217.509 29.624C217.676 29.574 217.839 29.5259 218 29.4815C218.861 29.2166 219.687 28.9574 220.48 28.6907C220.744 28.6018 221.002 28.5055 221.261 28.4203C221.52 28.3352 221.737 28.2537 221.972 28.1648L222.309 28.0444C222.387 28.0148 222.47 27.9852 222.554 27.95C222.72 27.8907 222.881 27.8296 223.043 27.7648H223.054C223.174 27.7148 223.293 27.6666 223.415 27.6241L223.483 27.5944L224.006 27.3889C224.006 27.3889 224.017 27.3889 224.02 27.3889C224.076 27.3685 224.133 27.3444 224.187 27.3203C224.393 27.237 224.598 27.1537 224.798 27.0648C224.837 27.0518 224.881 27.0315 224.926 27.0166L225.513 26.7629C225.525 26.7621 225.537 26.7589 225.548 26.7537C225.65 26.7037 225.757 26.6592 225.859 26.6111C225.961 26.5629 226.061 26.5278 226.159 26.4833L226.204 26.4629L226.389 26.3759C226.55 26.3 226.696 26.2222 226.85 26.1629H226.843ZM220.319 37.574C221.059 34.2537 223.385 31.5778 225.906 28.9074L226.326 28.4518C220.417 29.7815 216.469 31.5 214.58 33.5481C214.464 33.6751 214.379 33.8264 214.33 33.9909C214.281 34.1553 214.269 34.3287 214.296 34.4981C214.322 34.6652 214.385 34.8243 214.481 34.9633C214.578 35.1022 214.704 35.2174 214.852 35.3C216.576 36.2756 218.411 37.0392 220.319 37.574ZM212.756 42.2426C214.096 40.8037 215.937 39.7185 218.102 39.0778C216.745 38.4123 215.324 37.8861 213.861 37.5074C213.548 37.424 213.215 37.465 212.932 37.6217C212.648 37.7784 212.437 38.0387 212.341 38.3481C212 39.4629 212.141 40.7741 212.756 42.2426ZM142.044 136.298C141.963 136.35 141.878 136.409 141.793 136.483L142.083 136.298H142.044ZM129.737 52.5185C129.809 52.5747 129.884 52.6273 129.961 52.6759C130.03 52.7229 130.101 52.7662 130.174 52.8055C130.248 52.8426 130.322 52.8815 130.42 52.9278C130.472 52.9518 130.528 52.9759 130.606 53.0037C130.884 53.1148 131.175 53.1907 131.472 53.2296L131.594 53.2463C131.657 53.2463 131.717 53.2555 131.78 53.2611H132.13L132.304 53.2463C132.392 53.2434 132.479 53.2317 132.565 53.2111C132.633 53.2 132.702 53.1889 132.765 53.1741C132.828 53.1592 132.898 53.1444 132.97 53.1222C133.66 52.9292 134.279 52.5406 134.752 52.0033C135.225 51.466 135.532 50.8031 135.636 50.0948C135.741 49.3865 135.637 48.6632 135.339 48.0124C135.041 47.3616 134.56 46.8112 133.956 46.4278C133.772 46.309 133.578 46.2079 133.376 46.1259C132.964 45.9567 132.525 45.8633 132.08 45.85H131.907C131.433 45.8582 130.964 45.9569 130.526 46.1407C130.417 46.1889 130.309 46.2389 130.196 46.3C130.109 46.3466 130.024 46.3979 129.943 46.4537L129.872 46.4981L129.663 46.6555C129.631 46.6796 129.6 46.7055 129.554 46.7463C129.507 46.787 129.413 46.874 129.348 46.9315C129.283 46.9889 129.267 47.0166 129.211 47.0796C129.178 47.1132 129.148 47.1484 129.119 47.1852C128.955 47.3781 128.813 47.5879 128.694 47.8111C128.565 48.0527 128.463 48.308 128.391 48.5722C128.37 48.6444 128.356 48.7148 128.341 48.7833C128.326 48.8518 128.315 48.9203 128.302 48.987C128.275 49.1741 128.261 49.3628 128.261 49.5518C128.261 49.6185 128.261 49.6833 128.261 49.787C128.261 49.8907 128.276 49.9722 128.289 50.05C128.289 50.0944 128.302 50.1407 128.309 50.187L128.341 50.3555C128.356 50.4222 128.374 50.4889 128.391 50.5518L128.407 50.6037C128.427 50.6878 128.452 50.7706 128.481 50.8518L128.5 50.9C128.526 50.9611 128.552 51.0278 128.587 51.1C128.685 51.3285 128.809 51.5448 128.957 51.7444L129.054 51.8703L129.069 51.8852C129.073 51.892 129.078 51.8983 129.083 51.9037L129.23 52.0703C129.258 52.1101 129.291 52.1457 129.33 52.1759C129.391 52.2426 129.456 52.3 129.515 52.3611C129.586 52.4174 129.66 52.47 129.737 52.5185ZM119.885 63.2055C120.819 63.5562 121.848 63.5562 122.781 63.2055C124.646 62.524 127.815 61.7852 129.448 59.7944C127.854 61.0315 125.004 61.6333 121.337 61.6333C117.67 61.6333 114.819 61.0315 113.228 59.7944C114.852 61.7889 118.017 62.5278 119.885 63.2092V63.2055ZM109.515 53.124C109.839 53.2164 110.174 53.2632 110.511 53.2629C111.493 53.2629 112.435 52.8727 113.13 52.1781C113.825 51.4836 114.215 50.5415 114.215 49.5592C114.215 49.4815 114.215 49.4018 114.215 49.3278C114.182 48.7825 114.029 48.2513 113.767 47.7722C113.463 47.2171 113.022 46.7491 112.485 46.4129C111.949 46.0767 111.336 45.8836 110.704 45.8518C110.652 45.8518 110.594 45.8518 110.541 45.8518H110.515H110.419C110.04 45.8629 109.666 45.9303 109.307 46.0518C109.034 46.144 108.772 46.2683 108.528 46.4222C107.923 46.8057 107.442 47.3565 107.143 48.0078C106.845 48.6591 106.742 49.3829 106.846 50.0917C106.951 50.8004 107.259 51.4636 107.733 52.0008C108.207 52.538 108.827 52.9263 109.517 53.1185L109.515 53.124ZM106.702 90.2778C103.537 88.8648 101.702 87.274 100.089 85.7352C99.4577 86.727 98.906 87.7673 98.4389 88.8463C98.177 89.466 97.9477 90.0989 97.7519 90.7426C100.078 90.7148 103.709 90.4815 106.702 90.2778ZM89.9852 81.9278C91.2185 83.1278 92.3204 84.0426 92.7019 85.5629C92.8185 85.1426 92.9463 84.7315 93.0722 84.3222C93.3998 83.3009 93.7856 82.2993 94.2278 81.3222C93.3068 80.9054 92.3529 80.5653 91.3759 80.3055C89.7222 79.7907 89.4074 81 89.9852 81.9278Z" fill="black"/>
<path d="M110.511 50.713C111.614 50.713 112.507 50.1956 112.507 49.5574C112.507 48.9192 111.614 48.4019 110.511 48.4019C109.409 48.4019 108.515 48.9192 108.515 49.5574C108.515 50.1956 109.409 50.713 110.511 50.713Z" fill="black"/>
<path d="M131.961 50.713C133.064 50.713 133.957 50.1956 133.957 49.5574C133.957 48.9192 133.064 48.4019 131.961 48.4019C130.859 48.4019 129.965 48.9192 129.965 49.5574C129.965 50.1956 130.859 50.713 131.961 50.713Z" fill="black"/>
<path d="M142.044 136.298H142.083L141.793 136.483C141.878 136.407 141.963 136.35 142.044 136.298ZM65.2963 117.541C65.27 117.532 65.2446 117.521 65.2204 117.507C65.2482 117.519 65.2723 117.533 65.2963 117.541Z" fill="black"/>
<path d="M96.0611 109.404C100.144 113.998 86.8019 115.774 85.3945 117.652C87.0408 115.457 92.8722 105.817 96.0611 109.404Z" fill="black"/>
<path d="M145.456 122.689C146.906 122.228 148.081 120.907 149.491 120.387C151.767 119.546 154.23 120.644 152.781 123.05C147.294 132.163 123.937 118.937 123.937 118.937C128.231 119.741 136.385 125.572 145.456 122.689Z" fill="black"/>
<path d="M161.793 108.972C162.476 107.732 163.887 107.613 164.839 108.828C167.213 111.857 161.287 116.991 158.981 118.748C159.95 116.541 161.35 114.444 161.72 112.043C161.844 111.244 161.402 109.68 161.793 108.972Z" fill="black"/>
<defs>
<linearGradient id="paint0_linear_204_164" x1="215.857" y1="41.2038" x2="210.261" y2="34.0964" gradientUnits="userSpaceOnUse">
<stop stop-color="#FAFBFB" stop-opacity="0"/>
<stop offset="0.54" stop-color="#1E1E1E"/>
</linearGradient>
<linearGradient id="paint1_linear_204_164" x1="226.285" y1="32.8112" x2="208.713" y2="34.0056" gradientUnits="userSpaceOnUse">
<stop stop-color="#FAFBFB" stop-opacity="0"/>
<stop offset="0.71" stop-color="#1E1E1E"/>
</linearGradient>
<linearGradient id="paint2_linear_204_164" x1="225.656" y1="23.4537" x2="209" y2="33.037" gradientUnits="userSpaceOnUse">
<stop stop-color="#FAFBFB" stop-opacity="0"/>
<stop offset="0.71" stop-color="#1E1E1E"/>
</linearGradient>
</defs>
</svg>
