<svg width="1726" height="1300" viewBox="0 0 1726 1300" fill="none" xmlns="http://www.w3.org/2000/svg">
<path d="M280.1 777.614C287.56 794.814 291.617 807.934 292.27 816.974C294.56 841.484 283.27 859.474 262.73 868.374C246.91 875.234 232.55 874.924 219.6 867.304C206.65 859.684 196.38 846.964 188.6 828.934L174 795.354C175.128 796.926 176.63 798.19 178.37 799.034L178.31 798.894C179.75 799.574 183.82 798.794 190.61 796.334C197.59 793.961 203.35 791.791 207.89 789.824L247.11 772.824C261.28 766.674 268.65 762.164 269.54 759.324C270.205 757.716 270.348 755.939 269.95 754.244L280.1 777.614ZM190.16 828.084C202.81 857.254 223.16 866.424 255.61 852.334C271.16 845.584 281.01 836.244 284.95 824.234C288.89 812.224 287.8 799.134 281.47 784.544C280.21 781.529 278.715 778.617 277 775.834L201.91 808.434C201.214 808.727 200.503 808.98 199.78 809.194C197.17 810.324 196.78 810.644 194.26 811.914C190.26 813.974 187.16 817.774 187.79 822.244C188.25 823.674 189.08 825.604 190.16 828.084Z" fill="#0B0B0A"/>
<path d="M285.519 922.034C287.954 925.968 289.829 930.223 291.089 934.674L295.769 931.674C301.199 928.204 304.499 925.564 307.629 921.264C310.999 916.794 310.829 911.214 307.199 905.524C304.129 900.724 299.469 898.714 293.289 899.624C292.783 899.73 292.265 899.764 291.749 899.724C291.176 899.863 290.58 899.88 289.999 899.774L287.379 899.844C285.839 899.934 284.519 898.994 283.479 897.354C281.779 894.694 282.239 892.624 284.769 891.014C287.299 889.404 290.079 889.574 293.579 891.434C300.789 895.204 305.739 901.294 308.889 906.224C311.011 909.615 312.726 913.243 313.999 917.034C315.449 921.264 315.999 924.644 315.569 927.594C314.369 933.514 310.569 938.434 304.369 942.384L281.529 956.784C273.689 961.784 269.079 965.434 267.699 967.734C267.207 968.741 266.94 969.844 266.917 970.965C266.895 972.086 267.117 973.198 267.569 974.224L249.739 946.234C244.979 938.774 242.229 933.064 240.259 925.234C238.549 917.234 241.189 910.234 248.779 905.384C260.539 897.894 274.549 904.794 285.519 922.034ZM255.879 916.564C250.939 919.714 248.189 922.364 246.179 927.024C244.169 931.684 245.659 938.204 250.499 945.794C253.239 950.094 255.649 952.474 257.639 952.794L258.309 952.724C261.439 952.324 267.019 949.654 274.989 944.574L290.249 935.034C289.134 931.286 287.555 927.692 285.549 924.334C275.309 908.224 264.349 911.124 255.879 916.524V916.564Z" fill="#0B0B0A"/>
<path d="M336.52 950.364C342.68 956.364 348.41 962.294 353.41 968.084L344.79 975.534C353.26 975.944 364.15 979.814 370.13 986.744C376.11 993.674 378.58 1000.64 377.73 1007.92C376.85 1015.29 373.16 1022.03 367.43 1026.74L352.56 1039.59C344.28 1046.75 339.66 1051.73 338.56 1054.59C337.991 1056.77 338.281 1059.07 339.37 1061.03L320.53 1039.24C322.36 1040.6 324.646 1041.18 326.9 1040.87C329.71 1040.22 335.65 1036.08 344.62 1028.34L356.78 1017.63L360.18 1014.69C361.54 1013.51 365.9 1009.15 367.23 1007.01C368.77 1004.89 371.42 1000.62 371.42 997.644C371.534 993.926 370.241 990.302 367.8 987.494C364.622 983.902 360.572 981.188 356.04 979.614C351.808 977.903 347.263 977.102 342.7 977.264L332.13 986.594L316.26 1000.11C308.54 1006.78 304.17 1011.35 303.35 1013.84C302.965 1014.91 302.837 1016.04 302.978 1017.16C303.118 1018.28 303.524 1019.35 304.16 1020.28L285.36 998.534C286.255 999.302 287.306 999.866 288.441 1000.19C289.575 1000.51 290.766 1000.58 291.93 1000.39C294.93 999.554 300.56 995.704 308.85 988.554L314.85 983.354L325.52 974.134C328.345 971.801 330.986 969.253 333.42 966.514C335.325 964.773 336.883 962.686 338.01 960.364C338.442 958.683 338.533 956.931 338.277 955.214C338.021 953.496 337.424 951.847 336.52 950.364Z" fill="#0B0B0A"/>
<path d="M373.65 1080.4C373.375 1075.75 374.029 1071.09 375.574 1066.7C377.12 1062.3 379.525 1058.26 382.65 1054.8C389.75 1046.66 398.05 1042.15 407.54 1041.08C417.03 1040.01 425.97 1043.21 434.12 1050.31C438.159 1053.91 441.605 1058.12 444.33 1062.79C447.33 1067.79 447.61 1071.79 445.04 1074.79C443.37 1076.72 441.24 1076.65 438.86 1074.58C436.26 1072.31 436.7 1067.92 437.86 1064.13C439.2 1060.53 438.29 1054.95 433.77 1051.01C423.7 1042.24 410.94 1046.84 395.47 1064.59C390.386 1070.28 386.404 1076.86 383.73 1084C381.16 1091.51 382.44 1099.4 388.44 1104.62C395.33 1110.62 404.86 1113.17 413.2 1110.68L414.33 1111.68C404.59 1115.32 395.07 1113 385.57 1104.68C381.981 1101.71 379.063 1098.01 377.008 1093.82C374.954 1089.64 373.809 1085.06 373.65 1080.4Z" fill="#0B0B0A"/>
<path d="M469.24 1080.13C476.55 1084.34 483.44 1088.62 489.83 1093.13L473.76 1116.31L461.67 1133.31C455.81 1141.66 452.67 1147.17 452.5 1149.78C452.392 1150.9 452.549 1152.02 452.957 1153.07C453.365 1154.11 454.014 1155.04 454.85 1155.78L431.27 1139.25C432.303 1139.79 433.445 1140.07 434.607 1140.09C435.769 1140.11 436.919 1139.86 437.97 1139.36C440.83 1137.89 445.32 1132.79 451.61 1123.83L456.18 1117.32L464.27 1105.78C466.434 1102.83 468.373 1099.72 470.07 1096.47C471.329 1094.22 472.281 1091.8 472.9 1089.29C472.973 1087.6 472.685 1085.9 472.054 1084.32C471.423 1082.74 470.464 1081.31 469.24 1080.13ZM504 1075.03C502.621 1076.97 500.535 1078.28 498.195 1078.68C495.856 1079.08 493.452 1078.54 491.508 1077.18C489.564 1075.81 488.238 1073.74 487.816 1071.4C487.395 1069.07 487.914 1066.66 489.26 1064.7C489.931 1063.79 490.776 1063.02 491.748 1062.43C492.719 1061.84 493.797 1061.46 494.919 1061.29C496.042 1061.12 497.186 1061.18 498.286 1061.45C499.386 1061.73 500.421 1062.22 501.33 1062.9C505.62 1065.88 506.66 1071.19 504 1075.03Z" fill="#0B0B0A"/>
<path d="M512.68 1111.03C520.57 1114.42 528.05 1117.93 534.78 1121.55L529.39 1131.55C537.45 1128.91 549 1128.64 557.06 1132.98C565.12 1137.32 569.92 1142.98 571.72 1150.06C573.523 1157.26 572.481 1164.87 568.81 1171.31L559.5 1188.62C554.32 1198.26 551.78 1204.56 551.82 1207.62C552.063 1209.85 553.155 1211.91 554.87 1213.35L529.51 1199.71C531.679 1200.34 534.009 1200.1 536 1199.03C538.4 1197.42 542.47 1191.43 548.08 1181.03L555.62 1166.69L557.75 1162.69C558.6 1161.11 561.12 1155.48 561.59 1153.01C562.27 1150.48 563.23 1145.54 562.17 1142.76C560.948 1139.25 558.449 1136.32 555.17 1134.56C550.916 1132.35 546.165 1131.26 541.37 1131.4C536.81 1131.32 532.282 1132.19 528.08 1133.96L521.53 1146.45L511.53 1164.74C506.69 1173.74 504.24 1179.56 504.36 1182.18C504.38 1183.31 504.667 1184.42 505.197 1185.42C505.727 1186.41 506.485 1187.27 507.41 1187.91L482.05 1174.27C483.158 1174.67 484.338 1174.82 485.511 1174.72C486.683 1174.62 487.819 1174.26 488.84 1173.67C491.38 1171.8 495.24 1166.21 500.43 1156.56L504.19 1149.56L510.87 1137.14C512.669 1133.96 514.227 1130.64 515.53 1127.21C516.683 1124.9 517.392 1122.4 517.62 1119.82C517.428 1118.1 516.891 1116.44 516.043 1114.93C515.194 1113.42 514.05 1112.09 512.68 1111.03Z" fill="#0B0B0A"/>
<path d="M610.491 1165.72C617.651 1164 625.991 1164.78 635.151 1168.1C637.7 1169.02 640.194 1170.08 642.621 1171.28C651.361 1166.95 658.941 1165.86 665.571 1168.28C666.271 1168.54 667.351 1169.09 668.571 1169.69C670.811 1170.98 672.021 1173.81 670.781 1175.91C668.671 1178.66 666.281 1179.55 663.461 1178.53C663.171 1178.43 662.461 1177.36 661.121 1175.29C659.863 1173.26 657.942 1171.72 655.681 1170.93C651.591 1169.45 649.011 1169.93 644.211 1172.2C656.931 1179.36 662.781 1190.09 658.041 1203.2C652.171 1219.42 636.631 1222.2 618.041 1215.52C616.771 1215.06 614.991 1214.25 612.641 1213.24C605.787 1211.91 601.574 1213.42 600.001 1217.76C595.611 1229.89 652.551 1231.67 640.711 1262.64C637.921 1269.92 632.571 1275.01 624.711 1277.75C616.851 1280.49 607.711 1280.21 597.271 1276.44C587.351 1272.53 575.691 1266.44 572.021 1255.82C570.904 1252.27 571.053 1248.43 572.441 1244.97C573.821 1241.16 576.631 1238.67 580.941 1237.35C585.028 1236.08 589.42 1236.15 593.461 1237.57C595.007 1238.13 596.435 1238.97 597.671 1240.05C595.671 1239.81 593.141 1240.65 590.251 1242.47C587.598 1244.03 585.547 1246.44 584.431 1249.3C580.351 1260.59 584.141 1269.94 598.061 1275.13C611.601 1280.03 622.671 1275.9 627.511 1262.5C630.831 1253.33 624.991 1246.11 615.891 1241.7C603.141 1235.49 585.441 1230.21 589.891 1218.88C591.471 1214.51 595.891 1211.96 602.991 1211.34L608.641 1211.15C595.361 1203.31 590.931 1193.09 595.471 1180.54C598.321 1172.48 603.331 1167.44 610.491 1165.72ZM608.761 1185.51C606.261 1192.42 605.871 1198.34 607.351 1203.51C609.031 1208.59 612.681 1212.14 618.471 1214.24C624.261 1216.34 629.341 1215.94 633.731 1213.06C638.311 1210.06 641.801 1205.29 644.301 1198.38C646.801 1191.47 647.191 1185.54 645.571 1180.38C643.951 1175.22 640.291 1171.61 634.641 1169.57C628.991 1167.53 623.911 1167.92 619.331 1170.89C614.751 1173.86 611.261 1178.6 608.761 1185.51ZM644.211 1172.17L643.211 1172.62L641.711 1171.92L642.581 1171.28C643.098 1171.63 643.644 1171.92 644.211 1172.17Z" fill="#0B0B0A"/>
<path d="M728.1 1268.57C730.175 1268.52 732.195 1267.89 733.94 1266.76C736.4 1265.26 738.25 1260.36 739.77 1252.24C740.63 1247.97 741.46 1242.78 742.23 1236.83L747.77 1194.44C749.7 1179.72 749.32 1171.05 746.82 1168.15C745.57 1166.78 743.985 1165.74 742.22 1165.15L816.89 1174.9L814.89 1189.9L813.89 1189.76C813.16 1184.97 810.01 1181.24 804.49 1178.4C798.4 1175.18 785.62 1172.3 766.28 1169.77L759.21 1223.91L763.08 1224.42L766.5 1224.86L775.87 1226.09C781.96 1226.88 786.23 1226.69 788.67 1225.34C791.11 1223.99 792.98 1220.15 794.41 1213.84L795.15 1213.93L791.23 1243.93L790.48 1243.83C791.04 1237.25 789.78 1233 786.83 1231.25C783.88 1229.5 777.61 1227.78 767.83 1226.5L762.92 1225.85L759.06 1225.35L757.31 1238.73C756.63 1243.94 756.06 1248.25 755.76 1251.73C754.86 1263.26 756.7 1270.01 761.4 1272.29H761.25C761.707 1272.38 762.146 1272.53 762.55 1272.76C763.109 1273.01 763.697 1273.19 764.3 1273.29L728.1 1268.57Z" fill="#0B0B0A"/>
<path d="M834.16 1209.64C843.01 1208.87 851.16 1208.41 858.61 1208.4C858.61 1216.4 858.61 1222.4 858.79 1226.25C860.208 1221.48 863.022 1217.25 866.87 1214.09C870.584 1210.79 875.387 1208.96 880.36 1208.97C885.16 1208.97 890.42 1210.61 890.42 1214.66C890.42 1217.66 888.48 1219.76 886.08 1219.76C883.762 1219.6 881.554 1218.71 879.77 1217.22C877.95 1215.7 875.688 1214.81 873.32 1214.68H872.27C867.32 1215.14 863.43 1220.4 861.49 1227.45C859.924 1233.08 858.975 1238.87 858.66 1244.7C858.39 1263 859.01 1273.5 860.66 1276.2C861.245 1277.16 862.032 1277.98 862.967 1278.6C863.901 1279.22 864.961 1279.63 866.07 1279.79H837.27C838.426 1279.65 839.532 1279.24 840.495 1278.58C841.459 1277.93 842.252 1277.06 842.81 1276.03C844.01 1274.23 844.75 1269.57 844.89 1262.82C845.04 1259.37 845.03 1256.52 845.03 1254.12C845.18 1251.13 845.18 1248.12 845.03 1245.12V1239.42C845.03 1225.42 844.24 1217.42 842.59 1214.98C840.92 1212.33 838.21 1210.53 834.16 1209.64Z" fill="#0B0B0A"/>
<path d="M967.65 1210.42C975.04 1216.3 979.39 1224.52 980.75 1235.42C982.11 1246.32 980.05 1255.16 974.48 1262.66C969.07 1270.14 961.15 1274.46 950.73 1275.76C940.16 1277.08 931.27 1274.87 924.03 1268.97C916.79 1263.07 912.42 1254.71 911.08 1243.97C909.74 1233.23 911.8 1224.38 917.36 1216.88C922.92 1209.38 930.66 1204.79 940.93 1203.5C951.35 1202.18 960.26 1204.54 967.65 1210.42ZM960.34 1216.02C956.77 1208.02 950.01 1203.55 941.23 1204.65C927.84 1206.33 922.59 1218.78 925.51 1242.14C926.361 1249.46 928.328 1256.61 931.34 1263.33C934.9 1271.2 941.65 1275.65 950.58 1274.53C963.967 1272.86 969.21 1260.41 966.31 1237.19C965.481 1229.86 963.465 1222.72 960.34 1216.03V1216.02Z" fill="#0B0B0A"/>
<path d="M1006.37 1198.85C1011.25 1193.33 1018.52 1189.19 1027.93 1186.65C1030.54 1185.94 1033.19 1185.38 1035.87 1184.97C1040.55 1176.4 1046.13 1171.17 1052.93 1169.33C1053.66 1169.13 1054.85 1168.96 1056.2 1168.76C1058.78 1168.52 1061.39 1170.15 1061.58 1172.58C1061.43 1176.04 1059.98 1178.14 1057.08 1178.93C1056.79 1179.01 1055.58 1178.56 1053.31 1177.62C1051.1 1176.66 1048.62 1176.5 1046.31 1177.17C1042.11 1178.3 1040.31 1180.17 1037.65 1184.79C1052.18 1183.35 1063.12 1188.79 1066.76 1202.25C1071.26 1218.9 1060.16 1230.14 1041.05 1235.31C1039.74 1235.66 1037.82 1236.02 1035.32 1236.54C1028.93 1239.36 1026.35 1243.03 1027.56 1247.54C1030.92 1259.99 1078.56 1228.77 1086.65 1260.93C1088.54 1268.5 1087.08 1275.74 1082.22 1282.49C1077.36 1289.24 1069.71 1294.26 1058.99 1297.16C1048.64 1299.65 1035.57 1301.31 1026.49 1294.75C1023.53 1292.48 1021.45 1289.26 1020.6 1285.62C1019.6 1281.71 1020.42 1278.06 1023.2 1274.51C1025.81 1271.12 1029.46 1268.67 1033.58 1267.51C1035.17 1267.08 1036.82 1266.95 1038.45 1267.13C1036.68 1268.07 1035.08 1270.21 1033.76 1273.36C1032.48 1276.16 1032.18 1279.31 1032.91 1282.3C1036.04 1293.88 1044.52 1299.36 1058.91 1295.63C1072.81 1291.87 1079.51 1282.14 1075.79 1268.38C1073.25 1258.97 1064.32 1256.38 1054.34 1258.02C1040.34 1260.25 1022.8 1266.08 1019.92 1254.27C1018.71 1249.78 1020.92 1245.15 1026.32 1240.57L1030.84 1237.18C1015.47 1238.38 1005.97 1232.56 1002.49 1219.67C1000.28 1211.37 1001.49 1204.36 1006.37 1198.85ZM1016.3 1216.05C1018.22 1223.15 1021.3 1228.22 1025.48 1231.6C1029.76 1234.79 1034.8 1235.6 1040.73 1234C1046.66 1232.4 1050.61 1229.16 1052.56 1224.28C1054.61 1219.22 1054.71 1213.28 1052.8 1206.19C1050.89 1199.1 1047.8 1194.02 1043.48 1190.68C1039.16 1187.34 1034.12 1186.53 1028.33 1188.1C1022.54 1189.67 1018.59 1192.9 1016.54 1197.96C1014.49 1203.02 1014.39 1208.96 1016.3 1216.03V1216.05ZM1037.69 1184.79L1037.16 1185.71L1035.53 1186L1035.87 1185C1036.48 1184.99 1037.09 1184.92 1037.69 1184.79Z" fill="#0B0B0A"/>
<path d="M1133.42 1145.44C1133.13 1144.92 1132.2 1143.2 1130.83 1140.36C1129.8 1138.14 1128.63 1135.98 1127.32 1133.9C1126.4 1132.53 1125.27 1130.75 1123.66 1128.72C1120.66 1124.72 1116.9 1123.52 1113.04 1124.25L1139.53 1109.87C1138.63 1110.77 1137.86 1111.78 1137.22 1112.87C1135.92 1116.14 1139.74 1126.01 1148.76 1142.62L1162.76 1168.45C1164.7 1164.5 1168 1160.83 1172.65 1157.45C1176.93 1154.3 1181.47 1151.5 1186.2 1149.07C1190.92 1146.71 1195.37 1143.83 1199.47 1140.5C1203.37 1137.45 1206.43 1133.44 1208.34 1128.86L1200.53 1114.49C1192.88 1100.39 1187.53 1092.38 1184.41 1090.13C1183.23 1089.17 1181.78 1088.58 1180.26 1088.46H1180L1178.6 1088.71L1203.78 1075.04C1200.72 1077.9 1201.88 1084.44 1207.07 1094.93C1208.73 1098.3 1210.95 1102.39 1213.66 1107.39L1231.77 1140.75C1234.42 1145.62 1236.84 1149.75 1238.77 1152.99C1243.83 1161.66 1248.22 1166.28 1251.93 1166.85C1252.67 1166.82 1253.41 1166.7 1254.13 1166.5L1228.03 1180.68C1228.83 1179.88 1229.46 1178.92 1229.89 1177.87C1230.31 1176.82 1230.53 1175.69 1230.51 1174.55C1230.43 1172.2 1228.73 1167.55 1225.33 1160.29C1223.67 1156.93 1221.45 1152.84 1218.73 1147.83L1209.64 1131.09C1207.9 1135.09 1204.64 1138.91 1200.22 1142.35C1196.05 1145.59 1191.59 1148.42 1186.88 1150.79C1182.17 1153.17 1177.71 1155.99 1173.54 1159.22C1169.52 1162.18 1166.23 1166.01 1163.92 1170.42L1169.21 1180.18C1169.5 1180.7 1170.21 1182.02 1171.3 1184.33C1173.05 1187.83 1175 1191.21 1177.15 1194.47C1180.81 1199.65 1184.87 1202.4 1189.93 1201.36L1163 1215.93C1163.38 1215.38 1164.43 1214.47 1164.49 1214.27C1166.2 1211.47 1164.84 1205.2 1160.43 1195.48C1158.77 1192.11 1156.55 1188.02 1153.83 1183.01L1133.42 1145.44Z" fill="#0B0B0A"/>
<path d="M1279.79 1093.28C1283.49 1090.5 1287.56 1088.25 1291.88 1086.6L1288.49 1082.21C1284.49 1077.1 1281.62 1074.05 1277.05 1071.33C1272.3 1068.33 1266.76 1069.04 1261.42 1073.17C1256.91 1076.65 1255.32 1081.48 1256.79 1087.55C1256.94 1088.05 1257.02 1088.56 1257.02 1089.07C1257.22 1089.63 1257.29 1090.23 1257.23 1090.81L1257.53 1093.42C1257.76 1094.94 1256.94 1096.33 1255.4 1097.53C1252.91 1099.45 1250.8 1099.18 1248.97 1096.81C1247.14 1094.44 1247.07 1091.64 1248.61 1087.99C1251.71 1080.48 1257.33 1074.99 1261.96 1071.42C1265.14 1069 1268.6 1066.97 1272.26 1065.37C1276.34 1063.54 1279.66 1062.68 1282.63 1062.85C1288.63 1063.51 1293.88 1066.85 1298.37 1072.68L1314.76 1094.14C1320.44 1101.48 1324.49 1105.74 1326.91 1106.93C1327.96 1107.34 1329.08 1107.5 1330.2 1107.43C1331.31 1107.35 1332.4 1107.03 1333.38 1106.48L1307.15 1126.74C1300.15 1132.15 1294.7 1135.41 1287.09 1138.06C1279.29 1140.48 1272.09 1138.49 1266.56 1131.36C1258 1120.32 1263.65 1105.75 1279.79 1093.28ZM1277.01 1123.28C1280.58 1127.91 1283.47 1130.42 1288.29 1132.01C1293.11 1133.6 1299.47 1131.52 1306.6 1126.01C1310.6 1122.89 1312.79 1120.28 1312.94 1118.27L1312.81 1117.61C1312.14 1114.53 1308.97 1109.2 1303.19 1101.72L1292.31 1087.38C1288.68 1088.84 1285.24 1090.73 1282.07 1093.02C1267 1104.68 1270.86 1115.34 1277 1123.29L1277.01 1123.28Z" fill="#0B0B0A"/>
<path d="M1289.35 993.244L1324.91 1028.1C1324.91 1021.21 1328.27 1012.56 1333.8 1006.85C1341.21 999.204 1349.63 995.464 1358.97 995.524C1368.31 995.584 1376.97 999.164 1384.82 1006.78C1392.47 1014.19 1396.43 1022.78 1396.58 1032.36C1396.73 1041.94 1393.05 1050.45 1385.64 1058.11C1381.26 1062.63 1377.49 1065.87 1374.24 1067.73L1354.93 1087.66C1355.62 1086.71 1356.08 1085.61 1356.3 1084.45C1356.52 1083.3 1356.49 1082.11 1356.2 1080.96C1355.09 1077.96 1350.66 1072.88 1342.8 1065.26C1342.37 1064.85 1336.33 1058.79 1324.47 1047.1C1300.76 1023.51 1286.97 1010.57 1283.03 1009.26C1281.32 1008.98 1279.56 1009.05 1277.87 1009.46C1276.19 1009.87 1274.6 1010.61 1273.2 1011.64C1278.61 1005.03 1284 998.744 1289.35 993.244ZM1327.17 1030.3L1353.9 1056.6C1361.12 1063.6 1366.06 1067.54 1368.52 1068.46C1373.06 1067.46 1378.52 1063.74 1384.78 1057.27C1391.04 1050.8 1391.44 1042.42 1387.78 1034.95C1384.56 1028.28 1380.15 1022.24 1374.78 1017.12C1370.63 1012.96 1365.91 1009.39 1360.78 1006.52C1352.32 1001.46 1342.64 999.394 1334.7 1007.58C1331.9 1010.62 1329.78 1014.21 1328.48 1018.13C1327.18 1022.05 1326.74 1026.2 1327.17 1030.3Z" fill="#0B0B0A"/>
<path d="M1365.62 934.174C1367.44 935.657 1368.61 937.791 1368.87 940.121C1369.14 942.452 1368.49 944.795 1367.06 946.652C1365.62 948.509 1363.52 949.732 1361.2 950.061C1358.87 950.39 1356.51 949.799 1354.62 948.414C1353.74 947.701 1353.01 946.82 1352.47 945.822C1351.93 944.824 1351.59 943.729 1351.48 942.601C1351.36 941.472 1351.47 940.332 1351.8 939.246C1352.13 938.16 1352.67 937.15 1353.39 936.274C1356.59 932.114 1362 931.324 1365.62 934.174ZM1369.11 969.174C1373.66 962.074 1378.26 955.384 1383.04 949.174L1405.43 966.314L1421.83 979.194C1429.89 985.434 1435.24 988.814 1437.83 989.124C1438.95 989.29 1440.09 989.187 1441.17 988.824C1442.24 988.461 1443.21 987.847 1444 987.034L1426.37 1009.81C1426.95 1008.81 1427.29 1007.68 1427.37 1006.52C1427.44 1005.36 1427.25 1004.2 1426.8 1003.12C1425.47 1000.19 1420.59 995.474 1411.93 988.774L1405.64 983.904L1394.49 975.274C1391.65 972.976 1388.64 970.894 1385.49 969.044C1383.31 967.685 1380.95 966.623 1378.49 965.884C1376.79 965.724 1375.07 965.93 1373.45 966.489C1371.83 967.048 1370.35 967.947 1369.11 969.124V969.174Z" fill="#0B0B0A"/>
<path d="M1401.09 926.754C1405.88 918.944 1406.65 912.144 1404 907.084C1401.18 901.734 1398.41 899.084 1392.79 894.804L1396.57 888.854L1416.32 901.414L1427.1 884.414L1429 885.624L1418.22 902.624L1466.95 933.624C1471.89 936.764 1475.42 936.524 1477.59 933.104C1478.96 930.954 1479.44 928.234 1478.99 924.754C1478.54 921.274 1477.53 918.664 1475.7 916.754L1477.23 916.304C1479.54 920.119 1481.01 924.384 1481.54 928.814C1481.58 932.737 1480.33 936.565 1477.99 939.714C1475.91 942.899 1472.78 945.25 1469.14 946.354C1467.42 946.941 1465.6 947.132 1463.8 946.912C1462 946.692 1460.27 946.067 1458.75 945.084L1410.65 914.494L1402.36 927.494L1401.09 926.754Z" fill="#0B0B0A"/>
<path d="M1477 849.034C1479.07 844.897 1481.7 841.067 1484.82 837.654L1479.82 835.244C1474.01 832.444 1470.03 831.024 1464.72 830.634C1459.15 830.104 1454.49 833.194 1451.56 839.274C1449.09 844.404 1449.83 849.424 1453.85 854.204C1454.21 854.577 1454.51 855.002 1454.74 855.464C1455.18 855.87 1455.52 856.369 1455.74 856.924L1457.18 859.114C1458.07 860.384 1457.95 861.994 1457.11 863.744C1455.74 866.584 1453.74 867.284 1451.03 865.984C1448.47 864.744 1447.03 862.214 1446.76 858.264C1446.18 850.154 1448.76 842.734 1451.3 837.464C1453.06 833.883 1455.24 830.526 1457.8 827.464C1460.63 824.004 1463.22 821.754 1465.95 820.574C1471.62 818.474 1477.8 819.124 1484.42 822.314L1508.68 834.184C1517.06 838.224 1522.59 840.224 1525.27 840.184C1526.39 840.074 1527.46 839.722 1528.43 839.152C1529.4 838.582 1530.22 837.808 1530.86 836.884L1516.46 866.744C1512.61 874.744 1509.2 880.064 1503.58 885.844C1497.69 891.504 1490.33 892.944 1482.23 889.034C1469.63 882.924 1468.13 867.384 1477 849.034ZM1487.94 877.124C1493.21 879.664 1496.94 880.624 1501.94 879.874C1506.94 879.124 1511.73 874.434 1515.64 866.334C1517.85 861.734 1518.64 858.444 1517.85 856.574L1517.44 856.044C1515.44 853.584 1510.24 850.244 1501.73 846.134L1485.58 838.134C1482.98 841.055 1480.75 844.286 1478.94 847.754C1470.65 864.934 1478.88 872.734 1487.93 877.094L1487.94 877.124Z" fill="#0B0B0A"/>
<path d="M1471.88 794.154C1474.77 785.474 1473.99 778.674 1470.26 774.344C1466.26 769.774 1463.02 767.824 1456.56 764.914L1458.9 758.264L1481 766.034L1487.67 747.034L1489.79 747.774L1483.12 766.774L1537.6 785.944C1543.12 787.884 1546.5 786.854 1547.85 783.034C1548.69 780.624 1548.55 777.874 1547.32 774.574C1546.09 771.274 1544.52 768.984 1542.32 767.574L1543.7 766.794C1546.81 769.993 1549.19 773.818 1550.7 778.014C1551.62 781.825 1551.27 785.831 1549.7 789.424C1548.4 792.997 1545.88 795.997 1542.59 797.894C1541.06 798.862 1539.32 799.464 1537.51 799.657C1535.71 799.849 1533.89 799.626 1532.18 799.004L1478.42 780.034L1473.29 794.614L1471.88 794.154Z" fill="#0B0B0A"/>
<path d="M1018.16 1019.03L1020.35 1017.71H1020.06C1019.44 1018.11 1018.81 1018.55 1018.16 1019.03Z" fill="#0B0B0A"/>
<path d="M1549.82 313.034C1559.82 302.254 1573.65 294.124 1589.88 289.324C1579.71 284.344 1569.07 280.4 1558.11 277.554C1555.76 276.932 1553.27 277.239 1551.14 278.413C1549.02 279.587 1547.43 281.537 1546.71 283.854C1544.14 292.234 1545.21 302.034 1549.82 313.034Z" fill="url(#paint0_linear_271_524)"/>
<path d="M1561.37 255.034C1561.55 256.28 1562.02 257.467 1562.73 258.506C1563.44 259.546 1564.38 260.41 1565.47 261.034C1578.4 268.328 1592.17 274.036 1606.47 278.034C1612.08 253.154 1629.47 233.104 1648.33 213.094L1651.48 209.684C1607.21 219.684 1577.63 232.524 1563.48 247.874C1562.61 248.829 1561.96 249.97 1561.6 251.211C1561.23 252.452 1561.16 253.759 1561.37 255.034Z" fill="url(#paint1_linear_271_524)"/>
<path d="M1558.29 223.844C1558.66 224.257 1559.13 224.572 1559.65 224.764C1560.18 224.955 1560.74 225.017 1561.29 224.944C1561.46 224.939 1561.63 224.915 1561.8 224.874C1563.45 224.474 1565.1 224.034 1566.72 223.594C1573.2 221.904 1579.43 220.214 1585.44 218.464C1586.69 218.094 1587.9 217.724 1589.11 217.394C1595.56 215.394 1601.75 213.474 1607.69 211.464C1609.69 210.804 1611.61 210.144 1613.55 209.464C1615.49 208.784 1617.11 208.214 1618.87 207.554C1619.71 207.264 1620.55 206.934 1621.4 206.644C1621.98 206.424 1622.61 206.204 1623.23 205.944C1624.48 205.504 1625.68 205.034 1626.89 204.554H1626.97C1627.88 204.184 1628.76 203.824 1629.68 203.494L1630.19 203.274L1634.11 201.734C1634.11 201.734 1634.19 201.734 1634.22 201.734C1634.63 201.584 1635.07 201.404 1635.47 201.224C1637.01 200.594 1638.55 199.974 1640.05 199.314C1640.34 199.204 1640.67 199.054 1641.05 198.944C1642.52 198.324 1644.05 197.664 1645.45 197.044C1645.54 197.039 1645.63 197.015 1645.71 196.974C1646.48 196.604 1647.28 196.274 1648.05 195.904C1648.82 195.534 1649.56 195.284 1650.29 194.954C1650.4 194.954 1650.51 194.844 1650.62 194.804L1652.05 194.144C1653.18 193.674 1654.28 193.144 1655.42 192.644C1654.83 192.314 1654.25 191.984 1653.7 191.644C1653.29 191.424 1652.93 191.164 1652.56 190.944L1650.8 189.624C1650.51 189.404 1650.22 189.184 1649.92 188.934C1649.66 188.741 1649.42 188.53 1649.19 188.304L1648.19 187.424C1647.57 186.844 1646.94 186.214 1646.36 185.594C1645.85 185.098 1645.38 184.574 1644.93 184.024C1644.49 183.464 1644.05 182.954 1643.65 182.444C1643.25 181.934 1643.06 181.634 1642.77 181.274C1642.4 180.724 1642 180.174 1641.63 179.584C1641.26 178.994 1640.97 178.524 1640.63 178.004C1640.34 177.586 1640.08 177.145 1639.86 176.684C1639.46 175.994 1639.09 175.254 1638.76 174.524C1638.43 173.794 1638.1 173.134 1637.76 172.434C1637.42 171.734 1637.28 171.224 1637.06 170.604C1636.99 170.462 1636.93 170.315 1636.88 170.164C1636.73 169.794 1636.62 169.394 1636.48 169.024C1635.82 167.026 1635.27 164.993 1634.83 162.934C1634.75 162.534 1634.68 162.134 1634.61 161.724C1634.54 161.314 1634.42 160.774 1634.35 160.264C1634.2 159.264 1634.06 158.314 1633.95 157.324C1633.95 156.854 1633.87 156.414 1633.84 155.934C1633.81 155.454 1633.76 154.874 1633.73 154.364C1632.96 154.874 1632.15 155.424 1631.35 155.974C1630.55 156.524 1629.81 157.074 1629 157.624C1627.5 158.754 1625.92 159.934 1624.35 161.174C1624.13 161.324 1623.94 161.504 1623.72 161.654C1623.5 161.804 1623.25 162.054 1622.99 162.244C1617.53 166.564 1611.66 171.624 1605.58 177.004C1604.77 177.744 1604 178.434 1603.2 179.174C1602.4 179.914 1601.44 180.744 1600.56 181.514C1599.2 182.764 1597.81 184.014 1596.45 185.214C1589.53 191.484 1582.45 198.004 1575.31 204.314C1569.63 209.374 1563.95 214.314 1558.31 218.934C1557.69 219.599 1557.34 220.475 1557.34 221.385C1557.33 222.296 1557.67 223.174 1558.29 223.844Z" fill="url(#paint2_linear_271_524)"/>
<path d="M543.09 117.034C543.49 118.796 543.275 120.642 542.48 122.264C536.841 131.261 529.521 139.087 520.92 145.314C513.581 150.357 505.706 154.572 497.44 157.884L496.9 158.174C490.622 161.019 485.254 165.546 481.39 171.254C476.417 178.435 470.721 185.086 464.39 191.104L464.27 191.514C458.511 196.528 453.268 202.106 448.62 208.164L431.4 230.164C425.729 237.667 420.458 245.465 415.61 253.524C410.961 260.884 406.911 268.605 403.5 276.614C399.5 285.354 395.834 293.304 392.5 300.464C388.593 308.756 383.755 316.576 378.08 323.774C377.602 324.479 376.964 325.06 376.218 325.472C375.473 325.884 374.641 326.114 373.79 326.144C372.977 326.342 372.131 326.359 371.311 326.194C370.49 326.028 369.716 325.685 369.043 325.189C368.37 324.692 367.814 324.053 367.414 323.318C367.015 322.583 366.781 321.769 366.73 320.934C366.519 320.061 366.499 319.152 366.672 318.27C366.844 317.388 367.205 316.554 367.73 315.824C372.755 309.454 377.033 302.529 380.48 295.184C383.76 288.024 387.427 280.071 391.48 271.324C395.15 262.784 399.497 254.551 404.48 246.704C409.564 238.252 415.096 230.077 421.05 222.214L438.26 200.164C443.467 193.476 449.329 187.325 455.76 181.804L455.35 181.684C461.148 176.233 466.372 170.201 470.94 163.684C476.76 155.404 483.88 149.508 492.3 145.994C499.804 142.986 506.957 139.167 513.63 134.604C520.712 129.396 526.733 122.883 531.37 115.414C531.759 114.648 532.324 113.985 533.02 113.481C533.715 112.977 534.521 112.645 535.37 112.514C536.978 112.048 538.703 112.227 540.18 113.014C541.588 113.975 542.617 115.397 543.09 117.034Z" fill="#0B0B0A"/>
<path d="M444.45 876.914C444.629 877.017 444.816 877.104 445.01 877.174L444.88 877.074C444.743 877.007 444.599 876.953 444.45 876.914Z" fill="#0B0B0A"/>
<path d="M1223.16 148.494C1222.29 148.702 1221.38 148.72 1220.5 148.548C1219.62 148.376 1218.78 148.016 1218.05 147.494C1209.73 142.516 1201.88 136.771 1194.63 130.334L1194.93 130.874C1185.98 123.781 1179.47 117.231 1175.39 111.224C1171.8 106.724 1166.4 103.058 1159.2 100.224C1149.7 96.5227 1141.05 90.9449 1133.76 83.8244C1128.33 78.6447 1121.54 75.1114 1114.18 73.6344C1105.85 72.4758 1097.71 70.2578 1089.94 67.0344C1083.4 64.5478 1075.73 62.0178 1066.94 59.4444L1066.52 59.3244C1055.78 56.4285 1045.92 50.9334 1037.81 43.3244C1037.1 42.8503 1036.51 42.2141 1036.09 41.4683C1035.68 40.7226 1035.44 39.8884 1035.41 39.0344C1035.35 38.1369 1035.49 37.2378 1035.81 36.3977C1036.13 35.5576 1036.63 34.796 1037.27 34.1644C1037.78 33.5483 1038.41 33.0502 1039.13 32.7048C1039.85 32.3594 1040.64 32.175 1041.44 32.1644C1043.23 32.0432 1045 32.5567 1046.44 33.6144C1053.11 39.9126 1061.24 44.4582 1070.1 46.8444C1079.69 49.6111 1087.93 52.3011 1094.81 54.9144L1095.22 55.0344C1101.92 57.7826 1108.95 59.6677 1116.13 60.6444L1116.55 60.7744C1126.43 62.6161 1135.57 67.3007 1142.83 74.2544C1148.9 80.2494 1156.13 84.9537 1164.07 88.0844C1173.84 91.9711 1181.07 97.0744 1185.77 103.394L1186.18 103.514C1189.51 108.721 1195.08 114.388 1202.88 120.514C1209.69 126.483 1217.06 131.79 1224.88 136.364C1226.28 137.321 1227.3 138.735 1227.77 140.364C1228.17 142.126 1227.96 143.973 1227.16 145.594C1226.2 146.995 1224.79 148.02 1223.16 148.494Z" fill="#0B0B0A"/>
<path d="M1341.93 304.654C1341.01 304.677 1340.11 304.482 1339.28 304.086C1338.45 303.69 1337.73 303.103 1337.18 302.374C1336.58 301.818 1336.13 301.114 1335.88 300.332C1335.63 299.55 1335.6 298.716 1335.77 297.914C1336.15 289.448 1334.2 282.721 1329.91 277.734C1324.04 271.528 1318.08 265.141 1312.03 258.574C1305 251.589 1298.61 244 1292.91 235.894C1286.91 227.541 1281.91 220.384 1277.91 214.424L1278.03 214.014C1273.54 208.421 1268.63 202.038 1263.3 194.864C1257.97 187.691 1252.97 181.131 1248.3 175.184L1248.17 175.594C1242.23 169.211 1235.82 163.281 1229 157.854C1228.24 157.283 1227.62 156.558 1227.16 155.727C1226.7 154.897 1226.42 153.98 1226.34 153.034C1226.22 152.22 1226.28 151.391 1226.51 150.601C1226.74 149.812 1227.14 149.08 1227.67 148.454C1228.89 147.129 1230.58 146.327 1232.38 146.214C1233.19 146.096 1234.02 146.154 1234.81 146.383C1235.6 146.613 1236.33 147.009 1236.95 147.544C1244.42 153.405 1251.44 159.812 1257.95 166.714L1258.37 166.834C1263.13 172.941 1268.24 179.681 1273.69 187.054C1279.14 194.428 1284.01 200.951 1288.29 206.624L1288.71 206.744C1292.54 212.744 1297.54 219.901 1303.71 228.214C1308.97 235.835 1314.89 242.982 1321.4 249.574C1327.46 256.134 1333.42 262.521 1339.28 268.734C1346.16 275.994 1349.29 285.918 1348.67 298.504C1348.43 300.286 1347.63 301.945 1346.39 303.244C1345.79 303.78 1345.08 304.183 1344.31 304.426C1343.54 304.669 1342.73 304.747 1341.93 304.654Z" fill="#0B0B0A"/>
<path d="M1379.31 390.944C1378.34 391.826 1377.66 392.981 1377.36 394.257C1377.05 395.533 1377.15 396.871 1377.62 398.094C1379.11 401.934 1380.65 405.788 1382.23 409.654L1382.63 409.764C1385.63 418.743 1388.09 427.893 1390.01 437.164L1390.16 436.754C1391.77 446.874 1392.97 455.204 1393.74 461.664L1393.85 461.264C1394.39 468.938 1395.65 476.545 1397.61 483.984C1399.05 492.048 1399.7 500.234 1399.55 508.424L1399.66 508.014C1399.15 517.006 1399.1 526.017 1399.51 535.014C1399.49 535.919 1399.67 536.818 1400.06 537.636C1400.45 538.454 1401.02 539.17 1401.74 539.724C1402.29 540.344 1402.98 540.826 1403.76 541.13C1404.53 541.434 1405.36 541.552 1406.19 541.474C1407.99 541.322 1409.66 540.518 1410.91 539.214C1411.93 537.923 1412.4 536.281 1412.22 534.644C1411.89 526.724 1412 518.064 1412.55 508.644C1412.77 499.541 1412.1 490.438 1410.55 481.464L1410.26 480.924C1408.44 474.244 1407.25 467.407 1406.72 460.504L1406.82 460.104C1405.98 453.494 1404.71 445.014 1402.95 434.644L1402.55 434.494C1400.52 424.517 1397.8 414.693 1394.41 405.094L1394.52 404.694C1392.85 400.894 1391.25 397.111 1389.74 393.344C1389.35 392.369 1388.73 391.503 1387.93 390.821C1387.13 390.139 1386.17 389.661 1385.15 389.429C1384.12 389.197 1383.06 389.217 1382.04 389.488C1381.03 389.759 1380.09 390.272 1379.32 390.984L1379.31 390.944Z" fill="#0B0B0A"/>
<path d="M1355.59 347.954C1355.95 347.814 1356.29 347.664 1356.59 347.494C1356.81 347.394 1357.02 347.284 1357.23 347.164C1357.78 346.864 1358.32 346.534 1358.85 346.164L1359.85 345.484C1358.52 346.324 1357.05 347.104 1355.59 347.954Z" fill="#0B0B0A"/>
<path d="M1359.8 338.884C1361.17 338.113 1362.21 336.872 1362.73 335.392C1363.25 333.912 1363.22 332.293 1362.64 330.834C1360.31 324.974 1358.04 318.228 1355.84 310.594C1355.23 308.885 1354.06 307.431 1352.52 306.464C1351.02 305.776 1349.34 305.597 1347.73 305.954C1346.91 306.251 1346.16 306.709 1345.52 307.299C1344.88 307.89 1344.37 308.602 1344.01 309.394C1343.53 310.091 1343.23 310.899 1343.15 311.742C1343.06 312.585 1343.2 313.436 1343.53 314.214C1345.78 322.274 1348.12 329.411 1350.53 335.624C1350.87 336.495 1351.4 337.281 1352.08 337.93C1352.75 338.578 1353.56 339.074 1354.44 339.383C1355.32 339.693 1356.26 339.808 1357.19 339.722C1358.13 339.636 1359.03 339.35 1359.84 338.884H1359.8Z" fill="#0B0B0A"/>
<path d="M1364.16 757.794C1363.3 757.531 1362.5 757.094 1361.81 756.509C1361.12 755.924 1360.56 755.205 1360.16 754.394C1359.76 753.621 1359.52 752.771 1359.46 751.9C1359.4 751.029 1359.52 750.155 1359.82 749.334C1362.16 742.268 1364.31 734.328 1366.28 725.514C1368.04 716.028 1371.59 706.963 1376.74 698.804C1380.88 691.255 1384.37 683.37 1387.18 675.234C1389.9 667.992 1391.35 660.338 1391.49 652.604L1391.37 653.014C1390.87 644.135 1391.49 635.229 1393.21 626.504C1394.49 617.884 1395.53 609.624 1396.34 601.724L1396.63 602.254C1396.85 594.521 1397.54 585.408 1398.71 574.914L1399 575.444C1399.68 567.239 1399.81 558.997 1399.4 550.774C1399.34 549.877 1399.48 548.978 1399.8 548.138C1400.12 547.297 1400.62 546.536 1401.26 545.904C1401.77 545.297 1402.41 544.809 1403.14 544.474C1403.86 544.14 1404.64 543.965 1405.44 543.964C1407.23 543.831 1409 544.342 1410.44 545.404C1411.57 546.674 1412.21 548.298 1412.27 549.994C1412.71 558.815 1412.56 567.655 1411.8 576.454C1410.59 586.594 1409.84 595.391 1409.56 602.844L1409.43 603.264C1408.52 611.324 1407.39 619.861 1406.06 628.874C1404.49 636.556 1403.88 644.402 1404.24 652.234L1404.66 652.354C1404.71 660.741 1402.96 669.854 1399.43 679.694C1396.37 688.517 1392.54 697.056 1388 705.214L1387.88 705.624C1383.57 712.417 1380.61 719.979 1379.16 727.894L1379.04 728.304C1377.19 736.77 1374.91 745.138 1372.22 753.374C1371.95 754.237 1371.52 755.036 1370.93 755.723C1370.35 756.411 1369.63 756.973 1368.82 757.374C1368.12 757.768 1367.34 758.008 1366.53 758.081C1365.73 758.153 1364.92 758.055 1364.16 757.794Z" fill="#0B0B0A"/>
<path d="M1025.18 40.1243C1017 37.751 1008.76 35.0543 1000.47 32.0343C992.836 29.5693 984.897 28.176 976.88 27.8943C967.808 27.9442 958.797 26.3973 950.26 23.3243C942.862 20.6923 935.107 19.1954 927.26 18.8843C916.634 18.531 908.037 17.091 901.47 14.5643L901.05 14.4343C894.97 12.6477 886.15 12.4943 874.59 13.9743C873.792 14.198 872.952 14.2322 872.138 14.0742C871.323 13.9163 870.557 13.5705 869.9 13.0643C869.196 12.5869 868.614 11.9492 868.204 11.2034C867.794 10.4576 867.566 9.62513 867.54 8.77435C867.327 7.90098 867.306 6.99174 867.479 6.10948C867.652 5.22721 868.014 4.39295 868.54 3.66435C869.646 2.39526 871.166 1.55912 872.83 1.30435C887.264 -0.695652 898.144 -0.395652 905.47 2.20435L905.89 2.32435C911.397 4.47101 918.7 5.70768 927.8 6.03435C936.982 6.32088 946.063 8.04514 954.71 11.1443C961.882 13.7003 969.447 14.9763 977.06 14.9143C986.531 15.253 995.908 16.9124 1004.92 19.8443C1012.92 22.771 1020.88 25.381 1028.8 27.6743C1030.47 28.1675 1031.92 29.2285 1032.89 30.6743C1033.59 32.2711 1033.7 34.0607 1033.22 35.7343C1033.02 36.5112 1032.66 37.2385 1032.17 37.8702C1031.68 38.5019 1031.06 39.0243 1030.35 39.4043C1029.58 39.8707 1028.73 40.1751 1027.84 40.2989C1026.95 40.4228 1026.05 40.3633 1025.18 40.1243Z" fill="#0B0B0A"/>
<path d="M718 34.8244C711.413 41.2911 702.746 44.1878 692 43.5144C684 43.5144 676.26 46.3778 668.78 52.1044C659.146 59.3911 650.42 64.0711 642.6 66.1444L642.48 66.5644C634.661 68.7841 627.119 71.8839 620 75.8044L619.58 75.6844C610.88 80.0644 603.273 84.0178 596.76 87.5444C589.986 90.8976 583.819 95.3552 578.51 100.734C571.443 107.934 562.273 113.088 551 116.194C550.201 116.417 549.361 116.45 548.547 116.292C547.734 116.134 546.967 115.789 546.31 115.284C545.492 114.972 544.758 114.476 544.163 113.835C543.568 113.193 543.129 112.423 542.88 111.584C542.665 110.711 542.643 109.802 542.815 108.919C542.988 108.036 543.351 107.202 543.88 106.474C544.217 105.741 544.714 105.091 545.333 104.572C545.952 104.054 546.678 103.679 547.46 103.474C556.426 101.034 563.76 97.0011 569.46 91.3744L569.34 91.7944C575.509 85.3517 582.703 79.9756 590.63 75.8844C597.296 72.4044 605.043 68.4911 613.87 64.1444C621.827 59.7612 630.258 56.2988 639 53.8244C645.54 51.9578 652.873 47.9244 661 41.7244C671.153 33.9644 681.553 30.2211 692.2 30.4944L692.62 30.6144C699.286 31.0878 704.743 29.3644 708.99 25.4444C710.416 24.3281 712.179 23.7288 713.99 23.7444C715.652 23.9104 717.195 24.6787 718.33 25.9044C719.403 27.2015 720.04 28.8043 720.15 30.4844C720.036 32.1586 719.262 33.7193 718 34.8244Z" fill="#0B0B0A"/>
<path d="M858.25 14.2243C849.013 14.0877 839.78 14.7266 830.65 16.1343C820.61 17.9209 811.907 18.4009 804.54 17.5743L804.66 17.1543C797.804 16.8898 790.975 18.143 784.66 20.8243L785.07 20.9443C776.537 24.2776 767.387 27.3309 757.62 30.1043L758.04 30.2243C747.02 33.9243 736.59 34.6543 726.75 32.4143C725.902 32.2144 725.102 31.8458 724.4 31.3304C723.697 30.815 723.105 30.1633 722.66 29.4143C722.192 28.7247 721.874 27.9454 721.724 27.1259C721.574 26.3063 721.596 25.4646 721.79 24.6543C721.991 23.8067 722.361 23.0081 722.876 22.3056C723.391 21.6031 724.042 21.011 724.79 20.5643C725.479 20.0967 726.259 19.7779 727.078 19.6281C727.898 19.4784 728.74 19.5009 729.55 19.6943C737.223 21.3343 745.373 20.6943 754 17.7743C763.28 14.9876 771.973 11.9509 780.08 8.66427C788.162 5.27068 796.922 3.79875 805.67 4.36427L806.08 4.48427C812.38 5.21761 819.853 4.83427 828.5 3.33427C838.394 1.76661 848.404 1.05065 858.42 1.19427C860.217 1.38833 861.894 2.19311 863.17 3.47427C864.287 4.73803 864.933 6.34883 865 8.03427C864.87 9.7062 864.095 11.2622 862.84 12.3743C862.277 13.0255 861.567 13.5331 860.769 13.8549C859.97 14.1766 859.107 14.3033 858.25 14.2243Z" fill="#0B0B0A"/>
<path d="M321 562.424C322.797 562.61 324.476 563.412 325.75 564.694C326.862 565.972 327.505 567.591 327.57 569.284C327.21 579.284 327.153 588.284 327.4 596.284L327.28 596.694C327.033 603.753 328.401 610.775 331.28 617.224L331.16 617.644C334.169 625.661 336.288 633.984 337.48 642.464C338.48 650.724 340.07 659.751 342.25 669.544L342.66 669.664C344.42 679.398 346.27 688.064 348.21 695.664C348.599 697.428 348.381 699.271 347.59 700.894C346.63 702.291 345.217 703.312 343.59 703.784C342.716 703.992 341.808 704.01 340.926 703.838C340.045 703.665 339.211 703.306 338.48 702.784C337.715 702.395 337.054 701.829 336.551 701.134C336.048 700.438 335.719 699.633 335.59 698.784C333.55 691.064 331.603 682.234 329.75 672.294C327.49 662.161 325.843 652.828 324.81 644.294C323.674 636.868 321.873 629.559 319.43 622.454L319.01 622.334C315.68 614.182 314.076 605.428 314.3 596.624C314.086 588.538 314.183 579.401 314.59 569.214C314.534 568.317 314.671 567.418 314.992 566.578C315.313 565.738 315.81 564.976 316.45 564.344C317.698 563.196 319.306 562.517 321 562.424Z" fill="#0B0B0A"/>
<path d="M344.869 371.464C348.642 366.545 352.099 361.391 355.219 356.034C358.553 349.888 360.189 342.701 360.129 334.474C360.023 333.645 360.127 332.802 360.431 332.023C360.735 331.243 361.23 330.553 361.869 330.014C362.457 329.336 363.179 328.787 363.99 328.401C364.801 328.016 365.682 327.802 366.579 327.774C368.217 327.842 369.784 328.459 371.029 329.524C372.241 330.824 373.023 332.465 373.269 334.224C373.376 344.984 371.096 354.391 366.429 362.444C363.042 368.34 359.288 374.018 355.189 379.444C352.896 383.038 351.229 389.771 350.189 399.644C350.082 400.508 349.836 401.349 349.459 402.134C347.279 409.714 345.086 417.791 342.879 426.364C340.612 434.817 339.311 443.499 338.999 452.244C338.373 459.862 338.262 467.512 338.669 475.144L339.089 475.264C338.876 484.099 338.125 492.912 336.839 501.654C335.393 511.834 333.806 521.441 332.079 530.474C330.199 540.074 328.559 548.314 327.159 555.194C327.039 555.962 326.759 556.697 326.337 557.35C325.915 558.003 325.361 558.56 324.709 558.984C324.021 559.51 323.236 559.895 322.398 560.116C321.561 560.337 320.688 560.391 319.829 560.274C318.961 560.129 318.138 559.782 317.427 559.261C316.717 558.74 316.139 558.06 315.739 557.274C315.166 556.613 314.752 555.83 314.528 554.984C314.305 554.138 314.278 553.252 314.449 552.394C315.783 545.648 317.383 537.548 319.249 528.094C320.929 519.181 322.473 509.711 323.879 499.684C325.076 491.675 325.784 483.6 325.999 475.504L325.879 475.924C325.418 467.841 325.512 459.735 326.159 451.664C326.476 442.025 327.892 432.453 330.379 423.134C332.599 414.401 334.856 406.034 337.149 398.034C338.609 384.901 341.183 376.044 344.869 371.464Z" fill="#0B0B0A"/>
<path d="M340.1 709.514C340.35 708.707 340.779 707.967 341.353 707.347C341.928 706.728 342.634 706.245 343.42 705.934C344.179 705.518 345.02 705.274 345.884 705.218C346.748 705.163 347.614 705.298 348.42 705.614C349.978 706.04 351.304 707.065 352.11 708.464C355.36 714.964 359.49 722.964 364.57 732.344L364.42 732.784C365.81 735.524 367.09 738.264 368.29 740.964C369.49 743.664 370.59 746.194 371.65 748.824C373.36 753.184 374.92 757.494 376.27 761.824V761.904C378.048 769.569 380.734 776.995 384.27 784.024C384.27 784.314 384.38 784.504 384.6 784.534C387.512 791.539 390.99 798.295 395 804.734L395.4 804.844C396.18 806.364 397 807.924 397.81 809.504L398.43 808.314V808.364C398.58 808.104 398.73 807.844 398.86 807.584C453.27 707.584 523.31 683.104 618.17 677.894C618.7 677.875 619.213 677.706 619.651 677.407C620.089 677.107 620.432 676.69 620.642 676.202C620.851 675.715 620.918 675.179 620.835 674.655C620.751 674.131 620.521 673.642 620.17 673.244C602.28 652.754 585.32 631.734 564.06 607.674C544.75 585.754 540.86 557.134 543.36 528.114C544.88 510.114 550.9 496.754 567.02 493.214L567.34 493.164C576.988 491.987 586.7 491.406 596.42 491.424C650.99 491.424 696.51 503.124 728.11 528.254C728.608 528.658 729.223 528.891 729.863 528.92C730.504 528.949 731.137 528.772 731.67 528.414C737.051 524.778 741.46 519.879 744.513 514.146C747.565 508.412 749.167 502.019 749.18 495.524C749.18 493.984 749.25 492.454 749.29 490.944C749.635 485.077 750.641 479.266 752.29 473.624C755.246 463.918 756.236 453.718 755.2 443.624C754.374 436.532 755.055 429.345 757.2 422.534C758.049 419.891 759.13 417.328 760.43 414.874C762.71 410.505 765.648 406.512 769.14 403.034C769.459 402.719 769.698 402.331 769.837 401.905C769.976 401.478 770.011 401.025 769.94 400.582C769.869 400.139 769.692 399.719 769.426 399.358C769.16 398.996 768.812 398.704 768.41 398.504C762.021 395.294 756.796 390.167 753.464 383.841C750.132 377.515 748.861 370.306 749.827 363.222C750.793 356.137 753.949 349.532 758.853 344.33C763.757 339.127 770.165 335.587 777.18 334.204C808.09 326.754 822.99 346.754 865.09 346.754C907.91 346.754 916.95 325.104 952.88 334.604L953.74 334.834C960.408 336.69 966.359 340.522 970.808 345.824C975.257 351.127 977.997 357.652 978.667 364.541C979.337 371.431 977.906 378.362 974.561 384.422C971.217 390.483 966.116 395.388 959.93 398.494C959.527 398.693 959.178 398.986 958.911 399.347C958.645 399.709 958.469 400.129 958.398 400.573C958.328 401.017 958.365 401.471 958.506 401.897C958.647 402.324 958.888 402.71 959.21 403.024C962.759 406.504 965.753 410.507 968.09 414.894C969.356 417.359 970.422 419.92 971.28 422.554C973.454 429.393 974.136 436.619 973.28 443.744C972.245 453.805 973.231 463.97 976.18 473.644C977.824 479.277 978.83 485.077 979.18 490.934C979.25 492.444 979.29 493.934 979.29 495.514C979.297 502.388 981.088 509.143 984.487 515.118C987.885 521.093 992.775 526.084 998.68 529.604C999.42 530.024 1000.17 530.484 1000.91 530.934C1001.38 531.223 1001.92 531.365 1002.47 531.344C1003.02 531.322 1003.55 531.138 1004 530.814C1020.21 519.294 1042.11 510.404 1066.55 502.594C1085.79 495.334 1113.28 487.964 1155.06 480.454C1166.64 478.364 1177.56 472.654 1184.97 463.564C1222.68 417.344 1287.58 375.784 1355.68 347.964C1356.04 347.804 1356.37 347.664 1356.68 347.484C1356.9 347.384 1357.11 347.274 1357.32 347.154C1357.87 346.854 1358.41 346.524 1358.94 346.154C1359.3 345.934 1359.63 345.714 1360 345.494C1360.37 345.274 1361 344.944 1361.39 344.654C1363.26 343.654 1365.09 342.564 1366.93 341.494C1368.93 340.394 1370.93 339.224 1372.93 338.124C1414.26 314.404 1448.46 293.284 1461.36 274.744L1461.42 274.654C1501.53 223.654 1584.77 180.214 1623.84 130.594C1623.96 130.441 1624.07 130.277 1624.16 130.104C1625.24 127.957 1625.8 125.58 1625.77 123.174V123.104C1625.77 119.966 1626.39 116.859 1627.6 113.963C1628.81 111.068 1630.58 108.441 1632.82 106.235C1635.05 104.03 1637.7 102.29 1640.61 101.115C1643.52 99.9409 1646.63 99.356 1649.77 99.3944C1662.77 99.5744 1673.88 111.484 1673.18 124.534C1672.84 130.281 1670.41 135.706 1666.37 139.799C1662.32 143.892 1656.92 146.375 1651.18 146.784C1647.63 146.784 1643.27 148.464 1638.32 151.284L1638.21 151.344C1637.69 151.653 1637.28 152.12 1637.04 152.678C1636.81 153.237 1636.76 153.855 1636.9 154.444C1637.4 156.494 1637.9 158.504 1638.57 160.444C1641.73 170.744 1647.48 180.344 1656.9 185.774C1658.8 186.933 1660.78 187.936 1662.84 188.774C1662.84 188.774 1662.91 188.774 1662.95 188.704C1663.34 188.528 1663.72 188.321 1664.08 188.084C1665.4 187.424 1666.69 186.764 1667.93 186.084C1671.42 184.229 1674.03 181.064 1675.19 177.284C1676.81 172.053 1680.06 167.479 1684.48 164.235C1688.89 160.99 1694.22 159.247 1699.7 159.26C1705.18 159.274 1710.5 161.044 1714.9 164.31C1719.29 167.576 1722.53 172.166 1724.12 177.406C1725.71 182.645 1725.58 188.257 1723.75 193.417C1721.92 198.578 1718.48 203.013 1713.93 206.073C1709.39 209.133 1703.99 210.655 1698.52 210.416C1693.05 210.177 1687.8 208.189 1683.54 204.744C1682.37 203.835 1681 203.201 1679.55 202.889C1678.1 202.578 1676.59 202.596 1675.15 202.944C1671.34 203.824 1667.64 204.704 1664.01 205.614C1663.35 205.804 1662.69 205.914 1662.1 206.094C1661.7 206.204 1661.26 206.274 1660.86 206.384C1660.71 206.494 1660.56 206.644 1660.42 206.754C1649.68 215.754 1639.82 225.854 1632.42 237.754C1623.96 251.064 1617.07 265.754 1614.42 281.114C1614.59 281.142 1614.75 281.192 1614.9 281.264C1617.44 281.778 1620.09 281.426 1622.41 280.264C1625.11 278.938 1628.08 278.253 1631.09 278.264C1634.75 278.263 1638.34 279.263 1641.48 281.155C1644.61 283.048 1647.17 285.761 1648.88 289.003C1650.58 292.244 1651.37 295.889 1651.15 299.545C1650.93 303.2 1649.72 306.727 1647.65 309.744C1645.57 312.76 1642.71 315.152 1639.37 316.661C1636.04 318.169 1632.35 318.737 1628.71 318.302C1625.08 317.868 1621.63 316.448 1618.74 314.196C1615.85 311.944 1613.64 308.945 1612.33 305.524C1610.93 302.055 1608.48 299.109 1605.33 297.094C1604.61 296.654 1603.92 296.184 1603.22 295.744C1602.63 295.368 1601.91 295.225 1601.22 295.344C1583.76 298.604 1566.76 305.004 1552.64 315.754C1552.07 316.19 1551.69 316.823 1551.56 317.529C1551.44 318.234 1551.58 318.961 1551.97 319.564C1553.46 321.911 1555.33 323.993 1557.5 325.724C1559.66 327.48 1561.34 329.755 1562.37 332.337C1563.41 334.918 1563.78 337.721 1563.44 340.483C1563.1 343.244 1562.06 345.874 1560.43 348.125C1558.79 350.377 1556.61 352.176 1554.09 353.354C1541.88 359.114 1529.61 348.404 1530.74 336.794C1530.82 336.174 1530.95 335.559 1531.11 334.954C1532.47 328.654 1533.75 313.224 1530.71 307.504C1519.44 286.574 1505.16 292.824 1479.71 307.444L1479.47 307.564C1437.95 326.684 1412.47 350.074 1384.47 376.114C1384.18 376.404 1383.85 376.664 1383.55 376.954C1380.44 379.854 1377.32 382.744 1374.13 385.684C1373.83 385.933 1373.55 386.2 1373.29 386.484C1341.04 421.964 1303.99 461.324 1242.16 487.634C1229.77 492.884 1217.93 500.544 1209.72 511.244C1182.56 547.034 1119.61 599.274 1072.58 612.034C1072.2 612.14 1071.84 612.324 1071.54 612.576C1071.24 612.827 1070.99 613.14 1070.81 613.494C1070.64 613.848 1070.54 614.235 1070.52 614.629C1070.51 615.024 1070.57 615.418 1070.72 615.784C1073.68 623.389 1076.22 631.151 1078.33 639.034L1078.85 639.134C1170.58 657.724 1257.57 718.854 1323.7 811.134C1323.85 811.291 1323.99 811.462 1324.11 811.644C1324.17 811.714 1324.21 811.794 1324.32 811.924C1324.84 812.614 1325.32 813.284 1325.81 813.974L1327.31 816.064L1327.55 816.434C1327.57 816.463 1327.59 816.49 1327.62 816.514L1328.23 817.394C1329.03 815.714 1329.88 814.084 1330.76 812.574C1331.64 811.064 1332.33 809.924 1333.13 808.674C1336.51 802.864 1340.52 795.794 1345.19 787.394C1349.02 780.07 1351.9 772.283 1353.74 764.224C1353.9 763.366 1354.24 762.552 1354.75 761.841C1355.26 761.129 1355.91 760.537 1356.67 760.104C1357.36 759.621 1358.15 759.292 1358.97 759.14C1359.8 758.988 1360.65 759.017 1361.47 759.224C1363.03 759.52 1364.44 760.334 1365.47 761.534C1365.63 761.71 1365.76 761.909 1365.86 762.124C1366.61 763.63 1366.82 765.352 1366.45 766.994C1364.34 776.208 1361 785.098 1356.52 793.424C1351.72 802.124 1347.65 809.474 1344.24 815.504C1340.12 821.941 1336.89 828.904 1334.64 836.204L1334.49 836.634C1331.28 845.844 1325.94 854.166 1318.91 860.924C1312.6 867.214 1307.05 873.094 1302.03 878.614C1299.8 881.087 1297.75 883.713 1295.89 886.474C1294.26 888.916 1292.76 891.439 1291.39 894.034C1290.51 895.624 1289.69 897.324 1288.87 899.094C1286.82 903.248 1284.25 907.125 1281.22 910.634C1280.86 911.156 1280.45 911.642 1279.99 912.084C1279.01 913.214 1277.97 914.293 1276.87 915.314C1276.35 915.804 1275.87 916.264 1275.29 916.694C1272.81 918.873 1270.13 920.818 1267.29 922.504C1263.82 924.668 1260.64 927.285 1257.86 930.284L1257.56 930.564C1256.77 931.395 1256.04 932.28 1255.38 933.214C1254.99 933.734 1254.63 934.214 1254.28 934.744C1254.09 935.024 1253.89 935.304 1253.72 935.584C1253.4 936.144 1253.1 936.704 1252.82 937.264C1252.68 937.493 1252.56 937.73 1252.45 937.974L1252.32 938.404C1252.08 938.904 1251.83 939.354 1251.57 939.804C1248.55 945.027 1244.46 949.556 1239.57 953.094C1238.01 954.277 1236.39 955.378 1234.71 956.394C1233.71 956.994 1232.71 957.574 1231.71 958.134C1226.5 960.706 1221.64 963.921 1217.24 967.704C1215.17 969.473 1213.25 971.395 1211.47 973.454C1210.99 973.941 1210.45 974.368 1209.87 974.724L1209.51 974.934C1209.51 974.934 1209.42 974.934 1209.38 975.004L1208.73 975.564C1207.73 976.384 1206.47 977.324 1205.03 978.364C1203.75 979.364 1202.3 980.364 1200.79 981.364C1200.52 981.57 1200.29 981.824 1200.11 982.114C1199.7 982.719 1199.17 983.233 1198.56 983.624C1198.37 983.794 1198.15 983.944 1197.92 984.114C1196.78 984.994 1195.57 985.904 1194.3 986.824C1193.44 987.474 1192.53 988.124 1191.61 988.824C1191.28 989.044 1190.94 989.304 1190.61 989.544C1187.75 991.624 1184.61 993.804 1181.18 996.174C1179.65 997.174 1178.08 998.264 1176.46 999.344C1176.12 999.554 1175.8 999.744 1175.46 999.924C1168.77 1004.27 1161.87 1008.27 1154.78 1011.92C1152.16 1013.29 1149.63 1014.81 1147.2 1016.48C1146.94 1016.67 1146.66 1016.86 1146.36 1017.06L1145.71 1017.51C1145.45 1017.68 1145.22 1017.85 1144.96 1018.01C1144.7 1018.17 1144.2 1018.57 1143.82 1018.82C1143.44 1019.07 1143.3 1019.19 1143.02 1019.38C1142.44 1019.81 1141.86 1020.27 1141.23 1020.68C1141.06 1020.85 1140.87 1020.99 1140.67 1021.11C1139.67 1021.82 1138.67 1022.6 1137.59 1023.41C1137.59 1023.41 1137.53 1023.41 1137.5 1023.48C1136.36 1024.34 1135.18 1025.16 1134.04 1025.91C1130.3 1028.48 1126.39 1030.77 1122.32 1032.76L1121.87 1032.98C1118.99 1034.42 1116.01 1035.64 1112.95 1036.64C1109.95 1037.69 1106.75 1038.84 1103.41 1040.06L1099.12 1041.7C1097.42 1042.35 1095.74 1043.04 1093.97 1043.7C1092.97 1044.04 1092.07 1044.41 1091.13 1044.8C1089.91 1045.29 1088.64 1045.8 1087.32 1046.37C1086.95 1046.5 1086.61 1046.67 1086.24 1046.8L1085.86 1046.95C1084.72 1047.45 1083.64 1047.95 1082.56 1048.35C1081.08 1048.95 1079.72 1049.56 1078.34 1050.16C1077.34 1050.57 1076.34 1051 1075.34 1051.43C1074.95 1051.57 1074.58 1051.74 1074.22 1051.93L1073.04 1052.42L1068.21 1054.42C1067.11 1054.91 1066.04 1055.42 1065.02 1055.86C1064.42 1056.1 1063.88 1056.36 1063.32 1056.57C1062.63 1056.92 1061.98 1057.2 1061.32 1057.46L1060.05 1058.06L1059.66 1058.25C1058.66 1058.66 1057.74 1059.09 1056.79 1059.52C1055.05 1060.28 1053.39 1061.05 1051.79 1061.87C1049.79 1062.87 1047.87 1063.79 1046.02 1064.78C1044.17 1065.77 1042.36 1066.78 1040.64 1067.78C1039.7 1068.42 1038.6 1068.79 1037.47 1068.86C1035.36 1069.74 1032.86 1070.71 1030.47 1071.7L1025.15 1073.94C1025.15 1073.94 1025.15 1073.94 1025.09 1073.94C1023.88 1074.09 1014.56 1073.56 1013.44 1073.75C1012.68 1073.84 1011.97 1073.97 1011.28 1074.09H1011.18C1010.82 1074.09 1010.48 1074.22 1010.18 1074.28C1009.97 1074.32 1009.77 1074.38 1009.57 1074.45C1007.85 1075.16 1006.21 1076.05 1004.68 1077.11C995.913 1082.6 985.58 1085.6 973.68 1086.11C963.86 1086.48 956.343 1088.06 951.13 1090.85L951 1091.28C943.753 1094.97 933.963 1096.64 921.63 1096.28C911.25 1096.28 902.54 1097.18 895.57 1099.08L895.69 1098.65C894.42 1099.08 893.15 1099.45 891.88 1099.77C885.115 1101.59 878.049 1102 871.12 1100.97C864.42 1099.9 856.12 1098.97 846.2 1098.26C845.21 1098.28 844.232 1098.04 843.36 1097.57C843.172 1097.57 842.984 1097.55 842.8 1097.51C842.8 1097.51 842.8 1097.51 842.73 1097.51C842.28 1097.44 841.85 1097.38 841.4 1097.27C839.01 1096.82 836.28 1096.27 833.59 1095.74C831.59 1095.37 829.69 1095.05 827.88 1094.68H827.81C826.72 1094.17 825.66 1093.68 824.63 1093.22C823.94 1092.94 823.25 1092.64 822.63 1092.34C822.63 1092.34 822.63 1092.27 822.57 1092.34C816.778 1091.24 810.918 1090.52 805.03 1090.21C796.635 1090.09 788.256 1089.45 779.94 1088.3C771.94 1087.09 764.48 1086.3 757.67 1085.95C749.723 1086.13 740.14 1083.62 728.92 1078.43C720.371 1074.56 711.41 1071.67 702.21 1069.82C692.15 1067.88 683.9 1064.43 677.38 1059.46L677.81 1059.56C671.305 1055.68 664.154 1053.01 656.7 1051.66C651.757 1050.86 646.955 1049.35 642.44 1047.18C639.558 1045.83 636.812 1044.21 634.24 1042.33C632.64 1041.14 631.108 1039.85 629.65 1038.48C629.39 1038.24 629.11 1038 628.85 1037.75L629.28 1037.85C625.513 1034.43 620.968 1031.99 616.04 1030.72H615.99C614.024 1030.26 612.01 1030.02 609.99 1030.01C609.682 1030.06 609.368 1030.06 609.06 1030.01C608.317 1029.99 607.587 1029.81 606.913 1029.5C606.239 1029.18 605.636 1028.74 605.14 1028.18C602.73 1026.97 599.95 1025.49 597.21 1024.18C595.21 1023.18 593.21 1022.18 591.4 1021.3H591.33C590.33 1020.38 589.33 1019.56 588.33 1018.76C587.68 1018.2 587.06 1017.69 586.43 1017.19C586.432 1017.19 586.431 1017.18 586.429 1017.17C586.427 1017.16 586.422 1017.15 586.416 1017.15C586.41 1017.14 586.403 1017.14 586.395 1017.14C586.387 1017.13 586.378 1017.13 586.37 1017.13C584.15 1015.51 581.93 1013.83 579.78 1012C579.26 1011.57 578.78 1011.14 578.25 1010.69L577.13 1009.74L577.06 1009.67L575.77 1008.53C574.71 1007.53 573.7 1006.61 572.67 1005.6C572.3 1005.28 571.94 1004.93 571.59 1004.6L571.98 1004.73C570.28 1003.26 568.51 1001.89 566.72 1000.57C565.28 999.574 563.88 998.574 562.37 997.574C562.18 997.444 561.94 997.314 561.75 997.184C561.613 997.108 561.483 997.021 561.36 996.924C560.71 996.544 560.09 996.154 559.44 995.784C559.31 995.674 559.16 995.594 559.03 995.484H558.98L556.51 994.124C556.14 993.954 555.77 993.764 555.39 993.564C555.278 993.493 555.161 993.429 555.04 993.374C555.04 993.374 554.94 993.374 554.91 993.314C554.88 993.254 554.81 993.314 554.76 993.244C554.676 993.183 554.581 993.139 554.48 993.114L553.28 992.514C553.215 992.504 553.154 992.48 553.1 992.444C552.46 992.124 551.77 991.804 551.1 991.504C551.044 991.454 550.974 991.423 550.9 991.414C550.743 991.322 550.579 991.242 550.41 991.174C548.81 990.534 547.24 989.884 545.78 989.174C545.287 988.957 544.806 988.713 544.34 988.444L544.1 988.354C543.664 988.147 543.24 987.917 542.83 987.664C542.8 987.674 542.769 987.674 542.74 987.664C541.45 986.994 540.24 986.284 539.1 985.554C537.529 984.573 536.025 983.487 534.6 982.304C533.041 981.068 531.593 979.7 530.27 978.214C530.16 978.124 530.1 978.014 529.99 977.934C529.042 976.9 528.163 975.805 527.36 974.654L527.49 974.204C523.89 970.107 519.458 966.824 514.49 964.574C513.6 964.144 512.7 963.754 511.75 963.374C510.8 962.994 509.75 962.574 508.84 962.124C504.574 960.273 500.493 958.023 496.65 955.404C495.23 954.404 493.81 953.404 492.52 952.404C492.32 952.254 492.13 952.124 491.94 951.954C491.431 951.575 490.947 951.164 490.49 950.724C490.49 950.724 490.49 950.724 490.43 950.724C490.237 950.606 490.062 950.461 489.91 950.294C489.18 949.694 488.49 949.064 487.82 948.394C487.48 948.134 487.13 947.854 486.82 947.554C483.753 944.966 480.928 942.104 478.38 939.004C478.29 938.874 478.16 938.744 478.05 938.614C477.28 937.614 476.5 936.614 475.75 935.614C475.688 935.524 475.621 935.437 475.55 935.354C474.483 933.848 473.483 932.274 472.55 930.634C472.25 930.224 471.99 929.754 471.73 929.344C471.658 929.247 471.6 929.139 471.56 929.024C471.41 928.724 471.19 928.464 471.06 928.164C470.691 927.54 470.358 926.896 470.06 926.234L470.45 926.334C469.86 925.334 469.28 924.394 468.61 923.454C465.768 919.144 462.285 915.293 458.28 912.034C458.21 911.974 458.1 911.904 458.04 911.844C456.865 910.857 455.637 909.936 454.36 909.084C453.93 908.824 453.49 908.614 453.11 908.354C444.77 903.034 439.11 895.124 436.35 884.554C436.032 883.698 435.919 882.779 436.02 881.871C436.12 880.963 436.432 880.091 436.93 879.324C437.285 878.599 437.789 877.957 438.41 877.44C439.03 876.923 439.752 876.543 440.53 876.324C442.053 875.989 443.641 876.118 445.09 876.694H445.28C445.458 876.797 445.646 876.884 445.84 876.954C447.149 877.926 448.11 879.294 448.58 880.854C448.978 882.211 449.445 883.546 449.98 884.854C450.308 885.73 450.702 886.579 451.16 887.394C452.613 890.329 454.656 892.934 457.16 895.044C457.42 895.294 457.68 895.494 457.89 895.664C458.903 896.504 459.983 897.26 461.12 897.924L461.53 898.074C464.369 899.982 467.045 902.123 469.53 904.474C469.824 904.756 470.175 904.97 470.561 905.101C470.946 905.233 471.355 905.278 471.76 905.234L472.38 905.164C475.38 904.864 478.54 904.494 481.72 904.164C516.55 899.704 528.42 875.044 538.61 844.844C544.1 828.514 552.41 800.044 570.83 793.964C598.22 784.794 622.17 819.324 600.83 845.104C585.525 863.695 568.594 880.887 550.24 896.474C549.015 897.554 548.15 898.983 547.761 900.568C547.372 902.154 547.478 903.821 548.063 905.345C548.649 906.869 549.687 908.177 551.037 909.094C552.388 910.011 553.987 910.493 555.62 910.474C569.62 909.914 585.23 904.274 600.57 896.644C633.061 880.486 667.517 868.626 703.07 861.364C738.902 854.303 775.89 855.735 811.07 865.544L811.23 865.594C851.64 879.384 891.23 897.594 928.92 917.594C971.2 940.034 1010.75 975.834 1061.51 974.434C1097.83 973.434 1131.41 952.634 1153.83 924.944C1168.83 906.414 1183.83 851.494 1212.83 852.944C1235.55 854.164 1243.05 886.004 1237.45 902.304C1234.66 910.452 1231.18 918.345 1227.04 925.894C1226.1 927.607 1225.81 929.602 1226.22 931.512C1226.63 933.423 1227.72 935.121 1229.28 936.294C1229.61 936.574 1229.93 936.874 1230.28 937.174C1231.08 937.933 1231.84 938.734 1232.56 939.574C1232.75 939.796 1232.98 939.977 1233.25 940.104C1233.51 940.231 1233.8 940.303 1234.09 940.314C1234.38 940.325 1234.67 940.276 1234.94 940.169C1235.22 940.063 1235.46 939.901 1235.67 939.694C1235.86 939.548 1236.04 939.391 1236.21 939.224C1237.28 938.202 1238.29 937.106 1239.21 935.944C1239.99 935.005 1240.69 934.002 1241.3 932.944C1241.43 932.704 1241.6 932.444 1241.73 932.234L1241.43 932.104H1241.34C1241.43 931.914 1241.49 931.724 1241.6 931.524C1241.6 931.524 1241.6 931.524 1241.6 931.464C1241.78 931.184 1241.93 930.874 1242.14 930.554C1243.64 927.758 1245.47 925.152 1247.59 922.794C1247.59 922.794 1247.59 922.794 1247.59 922.734C1251.58 918.32 1256.19 914.51 1261.27 911.424C1268.1 907.028 1273.55 900.792 1277 893.434C1278.08 891.154 1279.22 888.954 1280.36 886.844C1281.7 884.524 1283.03 882.234 1284.48 880.104C1285.25 878.874 1286.11 877.734 1287 876.554C1287.71 875.554 1288.48 874.554 1289.24 873.554C1290.24 872.324 1291.3 871.074 1292.38 869.884C1297.57 864.224 1303.38 858.084 1309.87 851.554C1315.5 846.171 1319.75 839.519 1322.28 832.154C1322.76 830.624 1323.28 829.154 1323.82 827.714L1323.46 827.174L1323.07 826.614C1322.45 825.694 1321.82 824.784 1321.2 823.884C1320.58 822.984 1320.06 822.264 1319.52 821.474L1318.87 820.544C1318.74 820.378 1318.62 820.205 1318.51 820.024C1318.4 819.897 1318.31 819.76 1318.23 819.614C1255.04 730.394 1172.46 670.394 1085.23 650.184C1084.77 650.082 1084.28 650.098 1083.83 650.232C1083.37 650.365 1082.96 650.611 1082.62 650.947C1082.29 651.283 1082.04 651.698 1081.91 652.154C1081.78 652.61 1081.77 653.091 1081.87 653.554C1084.48 665.354 1086.39 677.554 1087.87 689.994C1087.98 690.991 1088.3 691.954 1088.8 692.824C1089.3 693.694 1089.97 694.453 1090.77 695.054C1109.57 709.164 1122.51 726.054 1140.36 730.864C1144.23 731.919 1148.28 732.117 1152.23 731.444C1152.99 731.326 1153.77 731.279 1154.54 731.304C1157.6 731.314 1160.61 732.095 1163.29 733.574C1165.98 735.054 1168.24 737.185 1169.88 739.77C1171.52 742.356 1172.49 745.313 1172.68 748.37C1172.88 751.426 1172.31 754.482 1171.01 757.258C1169.72 760.033 1167.74 762.437 1165.27 764.249C1162.81 766.061 1159.92 767.222 1156.88 767.626C1153.85 768.029 1150.76 767.661 1147.9 766.556C1145.05 765.451 1142.51 763.645 1140.54 761.304C1135.48 755.374 1129.18 750.564 1121.7 748.304C1111 745.154 1099.27 741.484 1089.08 734.304C1088.64 734.009 1088.13 733.832 1087.6 733.789C1087.07 733.746 1086.53 733.839 1086.05 734.059C1085.56 734.279 1085.14 734.62 1084.83 735.047C1084.51 735.475 1084.31 735.977 1084.24 736.504C1082.92 747.424 1085.24 753.984 1087.47 760.254C1088.49 763.324 1090.34 766.051 1092.82 768.134C1094.98 769.838 1096.72 772.01 1097.91 774.485C1099.11 776.961 1099.72 779.676 1099.71 782.424C1099.73 786.896 1098.1 791.219 1095.15 794.574C1092.19 797.928 1088.1 800.081 1083.67 800.623C1079.23 801.166 1074.74 800.061 1071.06 797.517C1067.39 794.974 1064.77 791.169 1063.71 786.824C1062.93 783.75 1062.98 780.522 1063.86 777.474C1064.66 774.298 1064.78 770.992 1064.24 767.764C1063.7 764.536 1062.49 761.454 1060.7 758.714C1057.7 753.72 1054.98 748.57 1052.53 743.284C1051.91 741.907 1050.96 740.701 1049.78 739.766C1048.59 738.832 1047.19 738.198 1045.71 737.917C1044.22 737.637 1042.69 737.718 1041.25 738.154C1039.8 738.591 1038.48 739.369 1037.4 740.424C1025.74 752.004 1018.67 749.554 1008.4 756.584C1005.6 758.57 1003.18 761.043 1001.25 763.884C999.18 766.729 996.334 768.916 993.052 770.185C989.771 771.454 986.193 771.75 982.748 771.037C979.303 770.325 976.136 768.635 973.627 766.169C971.118 763.703 969.372 760.567 968.6 757.134C968.02 754.461 968.045 751.692 968.673 749.029C969.302 746.367 970.517 743.879 972.231 741.747C973.945 739.615 976.114 737.893 978.58 736.707C981.045 735.522 983.744 734.902 986.48 734.894C988.424 734.876 990.357 735.184 992.2 735.804C994.763 736.631 997.498 736.768 1000.13 736.203C1002.76 735.638 1005.2 734.39 1007.2 732.584C1016.2 724.584 1025.52 710.884 1041.1 697.654C1042.1 696.834 1042.87 695.759 1043.32 694.543C1043.77 693.326 1043.89 692.011 1043.66 690.734C1040.33 673.064 1033.41 656.364 1023.73 640.734C1023.51 640.39 1023.22 640.097 1022.88 639.876C1022.54 639.655 1022.15 639.511 1021.75 639.454C1021.35 639.397 1020.93 639.428 1020.54 639.546C1020.15 639.663 1019.79 639.864 1019.49 640.134L1019 640.564C979.73 674.684 931.16 690.624 876.42 697.254C876.161 697.289 875.909 697.36 875.67 697.464C872.021 699.065 868.079 699.891 864.095 699.891C860.11 699.891 856.169 699.065 852.52 697.464C852.287 697.363 852.041 697.296 851.79 697.264C820.17 692.954 795.9 687.424 776.79 681.174C776.467 681.07 776.128 681.026 775.79 681.044L773.72 681.164C770.53 681.384 767.25 681.594 763.94 681.834L759.48 682.114C725.58 684.374 700.81 685.624 685.95 685.824H685.68C685.3 687.454 684.92 689.104 684.62 690.824C684.388 692.09 684.501 693.394 684.946 694.601C685.391 695.807 686.152 696.872 687.15 697.684C702.73 710.944 712.04 724.614 721.02 732.684C723.03 734.49 725.478 735.738 728.12 736.303C730.763 736.868 733.507 736.731 736.08 735.904C737.923 735.286 739.856 734.978 741.8 734.994C744.925 734.998 747.998 735.804 750.723 737.334C753.448 738.865 755.735 741.069 757.365 743.735C758.995 746.402 759.914 749.442 760.034 752.565C760.153 755.689 759.469 758.79 758.048 761.574C756.626 764.357 754.515 766.73 751.914 768.464C749.314 770.198 746.313 771.236 743.197 771.479C740.08 771.722 736.954 771.161 734.117 769.851C731.279 768.541 728.825 766.524 726.99 763.994C725.086 761.16 722.692 758.688 719.92 756.694C709.58 749.694 702.51 752.114 690.85 740.534C689.764 739.48 688.441 738.702 686.992 738.266C685.543 737.829 684.01 737.748 682.523 738.028C681.036 738.309 679.638 738.943 678.447 739.877C677.256 740.81 676.307 742.017 675.68 743.394C673.265 748.695 670.537 753.848 667.51 758.824C665.733 761.571 664.539 764.654 664.003 767.881C663.466 771.108 663.598 774.41 664.39 777.584C665.271 780.757 665.276 784.109 664.406 787.285C663.535 790.46 661.822 793.341 659.446 795.621C657.071 797.902 654.123 799.496 650.914 800.237C647.706 800.977 644.357 800.834 641.223 799.825C638.089 798.816 635.286 796.977 633.113 794.503C630.939 792.03 629.476 789.014 628.878 785.776C628.28 782.538 628.569 779.199 629.716 776.112C630.862 773.025 632.823 770.307 635.39 768.244C637.878 766.172 639.732 763.441 640.74 760.364C642.94 754.094 645.28 747.534 643.96 736.614C643.893 736.087 643.692 735.585 643.377 735.157C643.061 734.729 642.642 734.389 642.158 734.168C641.674 733.948 641.142 733.855 640.612 733.898C640.082 733.941 639.572 734.119 639.13 734.414C628.9 741.594 617.21 745.264 606.47 748.414C599.03 750.684 592.73 755.494 587.71 761.414C585.639 763.843 582.971 765.692 579.97 766.779C576.969 767.866 573.736 768.154 570.59 767.614C565.99 766.729 561.906 764.111 559.181 760.301C556.456 756.491 555.299 751.779 555.948 747.14C556.598 742.501 559.005 738.289 562.671 735.373C566.337 732.458 570.984 731.062 575.65 731.474C579.515 732.032 583.448 731.907 587.27 731.104C605.48 726.604 618.49 709.414 637.51 695.104C638.3 694.519 638.962 693.778 639.454 692.926C639.946 692.075 640.257 691.131 640.37 690.154L640.42 689.734C640.47 689.332 640.433 688.923 640.311 688.537C640.189 688.15 639.985 687.794 639.712 687.494C639.439 687.194 639.105 686.956 638.732 686.797C638.358 686.639 637.955 686.563 637.55 686.574C634.38 686.674 631.22 686.784 628.07 686.924C530.48 690.924 459.12 713.854 405.07 815.924C404.83 816.424 404.57 816.924 404.31 817.374L403.84 818.254C403.73 818.444 403.65 818.644 403.56 818.814L403.49 821.184L406 826.394C406.62 827.634 407.2 828.914 407.83 830.154C408.67 831.984 409.54 833.664 410.42 835.264C413.49 840.744 416.59 844.874 419.88 847.654C424.633 852.001 430.06 859.511 436.16 870.184C436.24 870.329 436.31 870.48 436.37 870.634C436.963 872.184 437.047 873.883 436.61 875.484C436.402 876.257 436.038 876.98 435.541 877.608C435.044 878.235 434.425 878.755 433.72 879.134C432.96 879.609 432.111 879.922 431.225 880.054C430.339 880.186 429.435 880.136 428.57 879.904C427.754 879.681 427.004 879.265 426.381 878.693C425.758 878.121 425.281 877.408 424.99 876.614C419.75 867.614 415.18 861.174 411.29 857.364L411.18 857.264C405.94 852.944 400.94 845.844 396.25 835.814C392.076 826.974 387.973 818.868 383.94 811.494L384.05 811.084C379.634 804.328 375.832 797.189 372.69 789.754L372.54 790.154C369.04 783.541 366.056 775.178 363.59 765.064L363.89 765.574C363.48 764.294 363.08 763.024 362.64 761.744C361.69 758.934 360.64 756.114 359.54 753.264C357.54 748.334 355.34 743.444 352.82 738.474C347.74 729.014 343.62 721.054 340.36 714.554C339.965 713.779 339.739 712.93 339.694 712.062C339.649 711.194 339.787 710.326 340.1 709.514ZM1655.41 192.584C1654.82 192.254 1654.24 191.924 1653.69 191.584C1653.28 191.364 1652.92 191.104 1652.55 190.884L1650.79 189.564C1650.5 189.344 1650.21 189.124 1649.91 188.874C1649.65 188.681 1649.41 188.47 1649.18 188.244L1648.18 187.364C1647.56 186.784 1646.93 186.154 1646.35 185.534C1645.84 185.038 1645.37 184.514 1644.92 183.964C1644.48 183.404 1644.04 182.894 1643.64 182.384C1643.24 181.874 1643.05 181.574 1642.76 181.214C1642.39 180.664 1641.99 180.114 1641.62 179.524C1641.25 178.934 1640.96 178.464 1640.62 177.944C1640.33 177.526 1640.07 177.085 1639.85 176.624C1639.45 175.934 1639.08 175.194 1638.75 174.464C1638.42 173.734 1638.09 173.074 1637.75 172.374C1637.41 171.674 1637.27 171.164 1637.05 170.544C1636.98 170.402 1636.92 170.255 1636.87 170.104C1636.72 169.734 1636.61 169.334 1636.47 168.964C1635.81 166.966 1635.26 164.933 1634.82 162.874C1634.74 162.474 1634.67 162.074 1634.6 161.664C1634.53 161.254 1634.41 160.714 1634.34 160.204C1634.19 159.204 1634.05 158.254 1633.94 157.264C1633.94 156.794 1633.86 156.354 1633.83 155.874C1633.8 155.394 1633.75 154.814 1633.72 154.304C1632.95 154.814 1632.14 155.364 1631.34 155.914C1630.54 156.464 1629.8 157.014 1628.99 157.564C1627.49 158.694 1625.91 159.874 1624.34 161.114C1624.12 161.264 1623.93 161.444 1623.71 161.594C1623.49 161.744 1623.24 161.994 1622.98 162.184C1617.52 166.504 1611.65 171.564 1605.57 176.944C1604.76 177.684 1603.99 178.374 1603.19 179.114C1602.39 179.854 1601.43 180.684 1600.55 181.454C1599.19 182.704 1597.8 183.954 1596.44 185.154C1589.52 191.424 1582.44 197.944 1575.3 204.254C1569.62 209.314 1563.94 214.254 1558.3 218.874C1557.95 219.203 1557.68 219.596 1557.48 220.033C1557.29 220.469 1557.18 220.939 1557.17 221.416C1557.16 221.893 1557.25 222.368 1557.42 222.812C1557.6 223.256 1557.86 223.661 1558.19 224.004C1558.56 224.417 1559.03 224.732 1559.55 224.924C1560.08 225.115 1560.64 225.177 1561.19 225.104C1561.36 225.099 1561.53 225.075 1561.7 225.034C1563.35 224.634 1565 224.194 1566.62 223.754C1573.1 222.064 1579.33 220.374 1585.34 218.624C1586.59 218.254 1587.8 217.884 1589.01 217.554C1595.46 215.554 1601.65 213.634 1607.59 211.624C1609.59 210.964 1611.51 210.304 1613.45 209.624C1615.39 208.944 1617.01 208.374 1618.77 207.714C1619.61 207.424 1620.45 207.094 1621.3 206.804C1621.88 206.584 1622.51 206.364 1623.13 206.104C1624.38 205.664 1625.58 205.194 1626.79 204.714H1626.87C1627.78 204.344 1628.66 203.984 1629.58 203.654L1630.09 203.434L1634.01 201.894C1634.01 201.894 1634.09 201.894 1634.12 201.894C1634.53 201.744 1634.97 201.564 1635.37 201.384C1636.91 200.754 1638.45 200.134 1639.95 199.474C1640.24 199.364 1640.57 199.214 1640.95 199.104C1642.42 198.484 1643.95 197.824 1645.35 197.204C1645.44 197.199 1645.53 197.175 1645.61 197.134C1646.38 196.764 1647.18 196.434 1647.95 196.064C1648.72 195.694 1649.46 195.444 1650.19 195.114C1650.3 195.114 1650.41 195.004 1650.52 194.964L1651.95 194.304C1653.17 193.614 1654.27 193.094 1655.41 192.584ZM1606.48 278.084C1612.09 253.204 1629.48 233.154 1648.34 213.144L1651.49 209.734C1607.22 219.734 1577.64 232.574 1563.49 247.924C1562.62 248.873 1561.98 250.005 1561.62 251.236C1561.25 252.468 1561.16 253.766 1561.37 255.034C1561.55 256.28 1562.02 257.467 1562.73 258.506C1563.44 259.546 1564.38 260.41 1565.47 261.034C1578.4 268.346 1592.17 274.071 1606.48 278.084ZM1549.82 313.084C1559.82 302.304 1573.65 294.174 1589.88 289.374C1579.71 284.394 1569.07 280.45 1558.11 277.604C1555.76 276.982 1553.27 277.289 1551.14 278.463C1549.02 279.637 1547.43 281.587 1546.71 283.904C1544.14 292.234 1545.21 302.034 1549.82 313.034V313.084ZM1020.06 1017.71C1019.44 1018.11 1018.81 1018.55 1018.16 1019.03L1020.35 1017.71H1020.06ZM927.84 390.034C928.34 390.424 928.84 390.774 929.53 391.214C930.04 391.578 930.571 391.912 931.12 392.214C931.68 392.494 932.23 392.784 932.96 393.124C933.35 393.304 933.77 393.494 934.33 393.694C936.415 394.525 938.595 395.093 940.82 395.384C941.08 395.384 941.34 395.474 941.74 395.514C942.14 395.554 942.65 395.584 943.11 395.624C943.57 395.664 944.04 395.624 944.52 395.624C945 395.624 945.36 395.624 945.73 395.624L947.03 395.514C947.703 395.491 948.373 395.404 949.03 395.254C949.55 395.174 950.03 395.084 950.53 394.974C951.03 394.864 951.53 394.754 952.07 394.584C957.239 393.142 961.878 390.232 965.427 386.206C968.975 382.18 971.279 377.212 972.06 371.903C972.841 366.593 972.066 361.172 969.827 356.295C967.589 351.417 963.984 347.294 959.45 344.424C958.075 343.543 956.622 342.79 955.11 342.174C952.024 340.905 948.735 340.204 945.4 340.104H944.1C940.546 340.166 937.036 340.906 933.76 342.284C932.94 342.644 932.13 343.014 931.29 343.474C930.68 343.784 930.09 344.174 929.38 344.624L928.86 344.954L927.29 346.144C927.05 346.314 926.82 346.514 926.47 346.814C925.93 347.274 925.47 347.814 924.93 348.254C924.6 348.574 924.32 348.884 923.93 349.354C923.7 349.594 923.48 349.854 923.24 350.144C920.688 353.173 918.828 356.722 917.79 360.544C917.64 361.084 917.53 361.604 917.42 362.124C917.31 362.644 917.22 363.124 917.12 363.644C916.919 365.049 916.815 366.466 916.81 367.884C916.81 368.384 916.81 368.884 916.81 369.644C916.81 370.404 916.92 370.964 917.02 371.644C917.02 371.974 917.11 372.324 917.17 372.644L917.41 373.894C917.52 374.394 917.65 374.894 917.78 375.374L917.91 375.764C918.072 376.371 918.276 376.966 918.52 377.544L918.65 377.914C918.85 378.374 919.04 378.914 919.3 379.414C920.042 381.125 920.982 382.742 922.1 384.234C922.34 384.564 922.58 384.864 922.82 385.184L922.93 385.294C922.961 385.345 922.998 385.392 923.04 385.434L924.14 386.684C924.349 386.981 924.598 387.246 924.88 387.474C925.34 387.964 925.82 388.404 926.32 388.854C926.82 389.304 927.25 389.644 927.84 390.034ZM854 470.134C857.492 471.394 861.168 472.07 864.88 472.134C868.569 472.069 872.222 471.393 875.69 470.134C889.69 465.034 913.4 459.504 925.64 444.584C913.7 453.854 892.33 458.364 864.88 458.364C837.43 458.364 816.03 453.854 804.12 444.584C816.32 459.504 840 465.034 854 470.134ZM776.27 394.614C778.701 395.293 781.215 395.63 783.74 395.614C791.109 395.609 798.174 392.68 803.384 387.469C808.595 382.259 811.525 375.193 811.53 367.824C811.53 367.234 811.53 366.634 811.47 366.084C811.063 359.267 808.15 352.841 803.292 348.041C798.433 343.242 791.972 340.408 785.15 340.084C784.76 340.084 784.33 340.084 783.93 340.084H783.74C783.57 340.084 783.45 340.084 783.02 340.084C780.19 340.163 777.388 340.669 774.71 341.584C772.653 342.286 770.689 343.232 768.86 344.404C764.331 347.282 760.733 351.41 758.501 356.29C756.269 361.169 755.498 366.591 756.282 371.899C757.066 377.207 759.371 382.174 762.918 386.2C766.465 390.226 771.103 393.138 776.27 394.584V394.614ZM755.27 672.934C731.55 662.354 717.82 650.434 705.72 638.934C700.992 646.366 696.859 654.161 693.36 662.244C691.399 666.885 689.684 671.624 688.22 676.444C705.64 676.204 732.84 674.424 755.27 672.934ZM630 610.384C639.24 619.384 647.49 626.224 650.35 637.614C651.22 634.464 652.18 631.384 653.17 628.314C655.618 620.664 658.506 613.161 661.82 605.844C654.92 602.716 647.772 600.167 640.45 598.224C628.06 594.374 625.67 603.424 630 610.384Z" fill="#0B0B0A"/>
<path d="M783.8 376.514C792.062 376.514 798.76 372.642 798.76 367.864C798.76 363.087 792.062 359.214 783.8 359.214C775.538 359.214 768.84 363.087 768.84 367.864C768.84 372.642 775.538 376.514 783.8 376.514Z" fill="#0B0B0A"/>
<path d="M944.51 376.514C952.772 376.514 959.47 372.642 959.47 367.864C959.47 363.087 952.772 359.214 944.51 359.214C936.248 359.214 929.55 363.087 929.55 367.864C929.55 372.642 936.248 376.514 944.51 376.514Z" fill="#0B0B0A"/>
<path d="M1020.06 1017.71H1020.35L1018.16 1019.03C1018.81 1018.55 1019.44 1018.11 1020.06 1017.71ZM445.06 877.194C444.866 877.124 444.679 877.037 444.5 876.934C444.7 877.034 444.88 877.134 445.05 877.194H445.06Z" fill="#0B0B0A"/>
<path d="M675.53 816.224C706.13 850.654 606.18 863.944 595.63 878.024C608 861.584 651.65 789.354 675.53 816.224Z" fill="#0B0B0A"/>
<path d="M1045.61 915.764C1056.47 912.304 1065.28 902.404 1075.84 898.504C1092.84 892.214 1111.34 900.444 1100.49 918.504C1059.38 986.774 884.391 887.694 884.391 887.694C916.561 893.624 977.651 937.364 1045.61 915.764Z" fill="#0B0B0A"/>
<path d="M1168 813.034C1173.12 803.744 1183.7 802.864 1190.83 811.964C1208.61 834.654 1164.21 873.114 1146.94 886.284C1154.19 869.744 1164.69 854.034 1167.46 836.044C1168.39 830.034 1165.08 818.284 1168 813.034Z" fill="#0B0B0A"/>
<defs>
<linearGradient id="paint0_linear_271_524" x1="1573.06" y1="305.274" x2="1531.13" y2="252.024" gradientUnits="userSpaceOnUse">
<stop stop-color="#040303" stop-opacity="0"/>
<stop offset="1" stop-color="#0B0B0A"/>
</linearGradient>
<linearGradient id="paint1_linear_271_524" x1="1651.19" y1="242.404" x2="1519.53" y2="251.334" gradientUnits="userSpaceOnUse">
<stop stop-color="#040303" stop-opacity="0"/>
<stop offset="1" stop-color="#0B0B0A"/>
</linearGradient>
<linearGradient id="paint2_linear_271_524" x1="1646.47" y1="172.284" x2="1521.68" y2="244.084" gradientUnits="userSpaceOnUse">
<stop stop-color="#040303" stop-opacity="0"/>
<stop offset="1" stop-color="#0B0B0A"/>
</linearGradient>
</defs>
</svg>
