<svg width="191" height="60" viewBox="0 0 191 60" fill="none" xmlns="http://www.w3.org/2000/svg">
<mask id="mask0_355_944" style="mask-type:luminance" maskUnits="userSpaceOnUse" x="0" y="0" width="191" height="60">
<path d="M190.824 0H0V60H190.824V0Z" fill="white"/>
</mask>
<g mask="url(#mask0_355_944)">
<path d="M0 42.4821C0.19639 40.3218 0.426447 37.5947 0.707005 34.8846C0.787303 34.3244 0.951888 33.7795 1.19517 33.2686C1.95829 31.4786 3.05246 30.9287 4.64042 31.9836C7.10932 33.6164 9.39867 33.2966 11.8171 32.0453C13.9942 30.9231 16.0423 30.8782 18.1408 32.5054C19.8242 33.8241 21.9171 33.8858 23.9428 33.1339C25.065 32.7074 26.1872 32.1183 27.3095 31.6806C30.5415 30.4461 33.4817 31.602 35.0136 34.6938C36.4949 37.6677 36.5735 40.866 36.5117 44.0981C36.48 45.8401 36.33 47.5779 36.0628 49.2996C35.7598 51.2916 34.7891 52.1837 33.1899 52.1837C31.5908 52.1837 30.3002 51.2803 30.0645 49.3782C29.8289 47.476 30.0196 45.4504 30.0084 43.4528C30.0797 41.8552 30.0497 40.2547 29.9186 38.6609C29.6605 36.6857 28.3419 35.715 26.1479 35.513C24.0494 35.3278 22.366 36.1246 21.7713 37.8809C21.3802 39.0882 21.1795 40.3489 21.1765 41.6179C21.1765 43.5931 21.4009 45.5457 21.4907 47.5489C21.5396 48.2978 21.5133 49.0497 21.4121 49.7934C21.1484 51.4374 20.2899 52.1837 18.6571 52.2679C17.0242 52.3521 15.7842 51.7068 15.5148 50.0739C15.2835 48.254 15.1729 46.4208 15.1838 44.5862C15.1501 42.7794 15.2455 40.9614 15.1501 39.1939C14.993 36.4837 13.5565 35.1876 10.8744 35.1651C8.19228 35.1427 6.73338 36.3435 6.61554 39.1659C6.46965 42.3193 6.54821 45.4784 6.52576 48.6375C6.52576 51.5553 5.02759 52.6663 2.23885 51.9424C0.959506 51.6226 0.505003 50.7248 0.420836 49.5577C0.269335 47.3974 0.162723 45.2315 0 42.4821Z" fill="white"/>
<path d="M154.396 42.9815C154.541 40.6827 154.813 38.3936 155.21 36.1247C156.158 31.7424 159.132 30.3003 163.284 31.9837C164.076 32.3035 164.85 32.6514 165.63 32.9768C166.739 33.4664 167.955 33.6636 169.163 33.5497C170.37 33.4357 171.528 33.0144 172.526 32.3259C173.391 31.7028 174.412 31.3328 175.476 31.2575C176.539 31.1822 177.603 31.4045 178.547 31.8995C179.108 32.1632 179.669 32.3708 180.23 32.6458C180.979 33.0594 181.829 33.2546 182.683 33.2089C183.537 33.1633 184.361 32.8787 185.061 32.3877C187.799 30.6258 189.202 31.7255 189.881 34.4862C190.967 39.1417 191.158 43.9614 190.442 48.688C190.307 49.4854 190.015 50.2482 189.584 50.9325C189.306 51.4062 188.883 51.7783 188.379 51.9944C187.874 52.2105 187.313 52.2592 186.778 52.1333C186.254 52.0714 185.765 51.8345 185.391 51.4609C185.018 51.0873 184.781 50.5987 184.719 50.074C184.531 48.7216 184.418 47.3597 184.382 45.9947C184.27 43.5033 184.337 40.9952 184.096 38.5094C183.894 36.4052 182.755 35.558 180.679 35.5018C177.026 35.4008 175.55 36.77 175.573 40.434C175.573 42.4597 175.831 44.4797 175.915 46.5053C175.988 47.581 175.96 48.6613 175.831 49.7317C175.578 51.4151 174.709 52.1445 173.278 52.2736C171.594 52.4195 170.472 51.8191 169.99 50.2423C169.72 49.1007 169.588 47.9308 169.597 46.7578C169.49 44.0757 169.563 41.3767 169.344 38.7058C169.142 36.3323 167.824 35.3391 165.159 35.2157C163.138 35.1035 161.685 36.0125 161.309 38.1728C160.933 40.333 161.017 42.4765 160.939 44.6312C160.877 46.3145 161.017 48.0315 160.804 49.6812C160.591 51.3309 159.401 52.1557 157.847 52.1726C157.485 52.2025 157.12 52.1606 156.774 52.0492C156.428 51.9378 156.107 51.7591 155.831 51.5235C155.554 51.2878 155.326 50.9998 155.161 50.6759C154.996 50.3521 154.896 49.9988 154.868 49.6363C154.61 47.6949 154.576 45.6917 154.396 42.9815Z" fill="white"/>
<path d="M128.972 40.6416C129.096 38.4925 129.152 36.4669 129.343 34.4693C129.517 32.6682 130.184 31.9612 131.548 31.8377C133.343 31.6694 134.639 32.3371 134.886 34.0822C135.201 36.2986 135.032 38.5711 135.139 40.8155C135.164 42.5951 135.314 44.3707 135.588 46.1293C135.896 47.7397 137.013 48.4411 138.663 48.5253C143.084 48.7497 144.38 47.5321 144.442 43.1329C144.487 40.1646 144.515 37.1963 144.627 34.2337C144.667 33.1451 144.824 31.9892 146.221 31.7367C147.944 31.4281 149.806 32.1575 150.311 33.521C150.764 34.6577 151.009 35.8664 151.035 37.0897C150.985 41.2364 150.884 45.383 150.581 49.5128C150.424 51.6675 149.363 52.3184 147.214 52.223C146.697 52.2037 146.184 52.1303 145.682 52.0042C142.989 51.2803 140.43 51.1793 137.686 52.2567C136.805 52.5783 135.861 52.6959 134.928 52.6006C133.994 52.5054 133.094 52.1997 132.295 51.7067C131.496 51.2137 130.82 50.5461 130.316 49.754C129.813 48.962 129.495 48.0661 129.387 47.1337C129.056 44.9734 129.096 42.7402 128.972 40.6416Z" fill="white"/>
<path d="M41.5842 60.0001C40.8362 59.93 40.1016 59.7563 39.4015 59.4838C39.1058 59.3305 38.8465 59.1153 38.6413 58.853C38.436 58.5906 38.2896 58.2871 38.2119 57.9632C38.2525 57.6254 38.3651 57.3003 38.5423 57.0099C38.7195 56.7194 38.957 56.4705 39.2388 56.2799C39.9601 55.8352 40.757 55.5271 41.5899 55.3709C43.0488 55.0118 43.9129 54.0859 43.7445 52.6551C43.464 50.2367 43.2283 47.7565 42.4484 45.4784C41.1522 41.7021 39.4183 38.0773 37.9314 34.3627C37.7071 33.5919 37.5605 32.8005 37.4937 32.0004C38.335 31.776 39.199 31.648 40.0692 31.6189C42.0556 31.776 42.9309 33.1844 43.4359 34.9407C43.9185 36.624 44.4571 38.2625 45.0127 39.9065C45.1942 40.3427 45.4339 40.7523 45.7253 41.1242C46.4547 42.1678 47.4423 42.7682 48.7441 42.5269C50.0459 42.2857 50.8202 41.2644 51.0951 39.9851C51.3532 38.7899 51.4037 37.5442 51.7236 36.3659C52.0118 35.2808 52.444 34.2391 53.0085 33.2686C53.3163 32.7564 53.7671 32.3454 54.3055 32.0862C54.8438 31.827 55.4463 31.7309 56.0386 31.8097C57.4694 31.9163 58.0698 32.584 57.6658 33.9419C55.6738 40.6753 53.738 47.4367 50.4779 53.6931C49.019 56.4987 47.0776 58.8217 43.8175 59.6129C43.1385 59.7924 42.4315 59.8598 41.5842 60.0001Z" fill="white"/>
<path d="M101.382 49.221C101.026 49.7768 100.608 50.2907 100.137 50.7529C95.6923 54.2655 88.5269 53.8053 84.8965 49.8102C82.9601 47.6765 81.9029 44.8891 81.9373 42.008C81.9716 39.1269 83.095 36.3655 85.0816 34.2786C89.1778 29.9524 97.5047 30.5976 101.062 35.614C101.967 37.0322 102.73 38.5357 103.341 40.1029C103.846 41.2252 103.262 41.9995 102.157 42.1734C100.668 42.3843 99.1697 42.5136 97.6674 42.5606C95.5015 42.6728 93.3356 42.7065 91.1754 42.8019C90.7056 42.8395 90.2422 42.9337 89.795 43.0824C88.1117 43.5874 87.1634 44.6255 87.1746 46.0002C87.1688 46.8088 87.42 47.5983 87.892 48.2549C88.364 48.9114 89.0323 49.401 89.8006 49.6531C92.393 50.405 94.9348 49.7317 97.4823 49.2715C98.6662 49.0583 99.8614 48.8788 101.051 48.7104L101.382 49.221ZM93.1954 41.5562V41.4552C93.8999 41.4945 94.6062 41.4945 95.3108 41.4552C95.8569 41.4432 96.385 41.2571 96.818 40.9241C97.251 40.591 97.5663 40.1283 97.7179 39.6035C98.3239 37.5891 97.0783 35.2044 95.0583 34.6994C94.1393 34.4768 93.1982 34.3582 92.2527 34.3459C89.694 34.3066 88.1902 35.5523 87.6684 38.0324C87.3205 39.6765 88.0163 40.838 89.6716 41.169C90.8443 41.3823 92.0226 41.4272 93.1954 41.5562Z" fill="white"/>
<path d="M113.429 36.9382C113.429 40.7537 113.497 44.5805 113.384 48.3961C113.292 49.3698 112.95 50.3032 112.391 51.1063C111.712 52.1724 110.534 52.3576 109.35 52.1107C108.803 52.0232 108.3 51.7545 107.924 51.3475C107.547 50.9405 107.319 50.4189 107.274 49.8663C106.986 47.766 106.821 45.6507 106.78 43.5313C106.78 38.1053 106.898 32.6793 106.982 27.2589C106.991 26.6482 107.057 26.0396 107.179 25.4409C107.611 23.3985 108.486 22.6859 110.366 22.77C112.245 22.8542 113.345 23.6902 113.413 25.7608C113.542 29.481 113.452 33.2068 113.452 36.9326L113.429 36.9382Z" fill="white"/>
<path d="M63.9053 42.4426C64.1915 43.7612 64.2925 45.164 64.8031 46.3704C66.3069 49.9952 70.5433 50.7583 73.4218 48.0537C74.2641 47.1858 75.2281 46.4448 76.2835 45.8541C76.8446 45.5792 77.7312 46.0056 78.4718 46.1122C78.3372 46.8136 78.3933 47.6329 78.0398 48.1884C76.893 50.0215 75.1882 51.4382 73.1761 52.2301C71.164 53.022 68.9509 53.1473 66.8624 52.5875C64.6969 52.0794 62.7484 50.8973 61.2974 49.2114C59.8465 47.5255 58.9678 45.4227 58.7879 43.2057C58.3559 37.2242 61.2456 33.0439 66.7333 31.7028C70.8126 30.7096 75.6663 32.6399 77.8658 36.13C78.5392 37.1905 78.3933 37.8134 77.1925 37.9031C75.9549 37.9668 74.7173 37.7759 73.5565 37.342C72.5745 36.9773 71.7889 36.102 70.8575 35.5521C68.7365 34.2952 66.868 34.7385 65.4764 36.7753C64.3093 38.4418 64.0624 40.4001 63.9053 42.4426Z" fill="white"/>
<path d="M118.16 42.0836C118.294 39.6091 118.35 37.0335 118.603 34.4412C118.855 31.8488 120.41 30.9174 122.85 31.4729C123.488 31.5877 124.062 31.9295 124.466 32.435C124.87 32.9406 125.078 33.5755 125.05 34.2224C125.162 38.0828 125.185 41.9433 125.213 45.8038C125.213 46.926 125.129 48.0482 125.039 49.1704C124.887 51.0614 123.743 52.0939 121.762 52.1836C119.882 52.2622 118.788 51.4766 118.592 49.5464C118.328 47.1336 118.294 44.6535 118.16 42.0836Z" fill="white"/>
<path d="M121.863 26.2657C120.987 25.8999 120.152 25.4429 119.372 24.9022C118.502 24.1952 118.81 23.3984 119.719 22.8654C120.909 22.1696 123.058 22.4614 124.096 23.4265C124.289 23.5669 124.439 23.7572 124.531 23.9768C124.623 24.1965 124.654 24.4371 124.619 24.6728C124.584 24.9084 124.486 25.1302 124.334 25.314C124.183 25.4978 123.984 25.6368 123.759 25.7158C123.144 25.9517 122.509 26.1356 121.863 26.2657Z" fill="white"/>
<path d="M38.7676 7.08683C38.7676 3.27125 41.3094 0.600342 44.7996 0.600342C47.6725 0.600342 49.7598 2.65402 49.7598 3.96703C49.7677 4.07365 49.7521 4.1807 49.7143 4.2807C49.6765 4.38071 49.6174 4.47126 49.541 4.54605C49.4646 4.62084 49.3728 4.67807 49.272 4.71374C49.1712 4.74941 49.0639 4.76267 48.9574 4.75259C47.5995 4.74698 47.6949 1.34662 44.3787 1.34662C42.2746 1.34662 40.4004 3.31053 40.4004 6.17221C40.4004 9.8419 42.7852 12.3894 45.3439 12.3894C47.5266 12.3894 48.7779 10.706 49.339 9.37057C49.5578 9.01145 50.1246 9.07879 50.0123 9.60623C49.8171 10.8139 49.1901 11.9096 48.2478 12.6898C47.3056 13.47 46.1122 13.8816 44.8894 13.8483C41.691 13.8483 38.7676 10.6611 38.7676 7.08683Z" fill="white"/>
<path d="M51.5384 9.17968C51.5269 8.59663 51.6333 8.01726 51.8512 7.47632C52.0691 6.93538 52.3939 6.444 52.8063 6.03163C53.2187 5.61927 53.71 5.29442 54.251 5.07654C54.7919 4.85867 55.3713 4.75227 55.9543 4.76371C56.5647 4.74668 57.1721 4.85434 57.7394 5.08011C58.3067 5.30588 58.8219 5.645 59.2537 6.07674C59.6854 6.50848 60.0245 7.02375 60.2503 7.59105C60.4761 8.15835 60.5837 8.76574 60.5667 9.37607C60.5667 11.8843 58.8441 13.865 56.2798 13.865C55.6567 13.8841 55.0362 13.7764 54.4561 13.5485C53.8759 13.3205 53.348 12.977 52.9046 12.5388C52.4612 12.1007 52.1115 11.577 51.8766 10.9995C51.6417 10.4221 51.5267 9.80295 51.5384 9.17968ZM58.9675 9.92036C58.9675 7.37851 57.6265 5.3641 55.7748 5.3641C54.2261 5.3641 53.1544 6.63222 53.1544 8.66907C53.1544 10.9921 54.5011 13.2478 56.5211 13.2478C57.9182 13.2478 58.9675 11.9572 58.9675 9.92036Z" fill="white"/>
<path d="M71.649 13.377V13.4668C71.649 13.6127 71.5031 13.7024 71.2674 13.7024H69.1071C68.8715 13.7024 68.7256 13.6127 68.7256 13.4668V13.3938C68.7256 13.0459 69.4157 13.0459 69.3765 12.395L69.1969 8.75901C69.1071 6.54261 68.215 5.48771 66.9524 5.48771C65.6058 5.48771 64.708 6.55944 64.708 7.99589V12.4119C64.708 13.0459 65.4374 13.0459 65.4374 13.3938V13.4668C65.4374 13.6127 65.2915 13.7024 65.0559 13.7024H62.8114C62.5926 13.7024 62.4467 13.6127 62.4467 13.4668V13.3938C62.4467 13.0459 63.1537 13.0459 63.1537 12.4119V6.8905C63.1537 6.10494 62.3906 6.14421 62.3906 5.81877V5.76266C62.3906 5.6336 62.5028 5.56065 62.6824 5.48771L64.0459 4.83682C64.3938 4.65165 64.5565 4.83682 64.5565 5.10615V6.43599C64.8224 5.92317 65.2255 5.49425 65.7209 5.19703C66.2163 4.89982 66.7844 4.74598 67.3621 4.75265C69.1408 4.75265 70.6334 5.95343 70.8129 8.76462L71.0149 12.3445C71.0317 13.0291 71.649 13.0291 71.649 13.377Z" fill="white"/>
<path d="M73.1018 11.7835C73.0973 11.6912 73.1127 11.5989 73.1472 11.5132C73.1817 11.4274 73.2343 11.3502 73.3015 11.2867C73.3687 11.2233 73.4488 11.1751 73.5364 11.1456C73.624 11.1161 73.7169 11.1059 73.8088 11.1157C74.9311 11.1157 74.37 13.3321 76.7884 13.3321C77.9555 13.3321 78.8589 12.771 78.8589 11.733C78.8589 9.06207 73.3038 10.8576 73.3038 7.27773C73.3038 5.88055 74.7179 4.79199 76.7154 4.79199C78.9599 4.79199 80.2617 5.9535 80.2617 6.93545C80.2617 7.02064 80.2446 7.10496 80.2113 7.18339C80.1781 7.26182 80.1294 7.33274 80.0681 7.39192C80.0068 7.4511 79.9342 7.49733 79.8547 7.52784C79.7752 7.55835 79.6903 7.57252 79.6052 7.56951C78.5727 7.56951 79.044 5.3531 76.7996 5.3531C75.7503 5.3531 74.9311 6.02644 74.9311 6.93545C74.9311 9.55024 80.4693 7.77151 80.4693 11.4243C80.4693 12.7822 79.0553 13.8764 76.7996 13.8764C74.3756 13.8315 73.1018 12.6139 73.1018 11.7835Z" fill="white"/>
<path d="M89.9973 11.2504C89.7785 12.3389 88.5833 13.8483 86.3108 13.8483C84.0383 13.8483 82.0968 12.0696 82.0968 9.23036C82.0702 8.65083 82.1615 8.07192 82.3649 7.52863C82.5684 6.98533 82.8798 6.48891 83.2805 6.06936C83.6812 5.6498 84.1627 5.31582 84.6961 5.08759C85.2295 4.85935 85.8036 4.74161 86.3837 4.74146C88.5608 4.74146 89.7504 6.17791 89.7504 7.42919C89.7602 7.68038 89.6795 7.92672 89.5229 8.12341C89.3664 8.3201 89.1445 8.45407 88.8975 8.50092L83.8475 10.1843C84.2627 11.7442 85.3737 12.6925 86.8438 12.6925C87.3855 12.7189 87.9226 12.5822 88.3857 12.3001C88.8489 12.018 89.2168 11.6035 89.4418 11.1101C89.6326 10.852 90.0534 10.9025 89.9973 11.2504ZM83.6735 8.65242C83.6714 8.96255 83.6958 9.2723 83.7465 9.57826L87.7977 8.12498C87.9312 8.08371 88.047 7.99874 88.1263 7.88374C88.2057 7.76874 88.2441 7.63038 88.2354 7.49092C88.1922 6.93964 87.9548 6.42158 87.5653 6.02903C87.1759 5.63649 86.6597 5.39495 86.1088 5.34746C84.6386 5.34746 83.6735 6.80075 83.6735 8.65242Z" fill="white"/>
<path d="M97.7911 6.17238C97.7911 6.64371 97.5722 7.02527 97.0672 7.02527C96.119 7.02527 96.5735 5.75715 95.4456 5.75715C94.4468 5.75715 93.9026 6.87938 93.9026 8.26533V12.4063C93.9026 13.0404 94.6657 13.0572 94.6657 13.3883V13.4668C94.6657 13.6127 94.5366 13.6801 94.3009 13.6801H92.0565C91.8208 13.6801 91.6918 13.6127 91.6918 13.4668V13.3939C91.6918 13.0628 92.3651 13.046 92.3651 12.412V6.86816C92.3651 6.17799 91.6357 6.16115 91.6357 5.81887V5.7796C91.6357 5.65615 91.7479 5.54393 91.9106 5.45415L93.2909 4.83692C93.6388 4.6742 93.7623 4.83692 93.7623 5.08942V6.54271C93.8994 6.02419 94.2069 5.56684 94.6354 5.24422C95.0638 4.9216 95.5883 4.75245 96.1246 4.76398C97.2075 4.76398 97.7911 5.39804 97.7911 6.17238Z" fill="white"/>
<path d="M107.734 5.1455V5.20162C107.734 5.5439 107.044 5.61684 106.808 6.21723L103.935 13.3041C103.909 13.4083 103.848 13.5005 103.762 13.5657C103.677 13.6309 103.571 13.6653 103.464 13.6632H102.903C102.793 13.6654 102.685 13.6316 102.596 13.5667C102.506 13.5019 102.441 13.4096 102.409 13.3041L99.1601 6.21723C98.8683 5.61684 98.3801 5.5439 98.3801 5.20162V5.1455C98.3801 5.01645 98.4868 4.9435 98.6495 4.9435H101.175C101.206 4.94043 101.238 4.94369 101.268 4.9531C101.298 4.96251 101.326 4.97788 101.35 4.99829C101.374 5.0187 101.394 5.04374 101.408 5.07192C101.422 5.1001 101.431 5.13085 101.433 5.16234V5.21845C101.433 5.48778 100.72 5.65612 100.939 6.23407L103.503 12.5185L105.989 6.39679C106.298 5.56073 105.355 5.5439 105.355 5.21845V5.16234C105.355 5.01645 105.462 4.9435 105.63 4.9435H107.465C107.639 4.9435 107.734 5.01645 107.734 5.1455Z" fill="white"/>
<path d="M116.392 11.2504C116.173 12.3389 114.978 13.8483 112.706 13.8483C110.433 13.8483 108.492 12.0696 108.492 9.23036C108.465 8.65083 108.556 8.07192 108.76 7.52863C108.963 6.98533 109.275 6.48891 109.675 6.06936C110.076 5.6498 110.558 5.31582 111.091 5.08759C111.624 4.85935 112.198 4.74161 112.778 4.74146C114.961 4.74146 116.145 6.17791 116.145 7.42919C116.155 7.68038 116.074 7.92672 115.918 8.12341C115.761 8.3201 115.539 8.45407 115.292 8.50092L110.242 10.1843C110.663 11.7442 111.768 12.6925 113.239 12.6925C113.78 12.7189 114.317 12.5822 114.78 12.3001C115.244 12.018 115.612 11.6035 115.837 11.1101C116.033 10.852 116.448 10.9025 116.392 11.2504ZM110.074 8.65242C110.069 8.96265 110.093 9.27264 110.147 9.57826L114.198 8.12498C114.331 8.08355 114.446 7.99836 114.525 7.88324C114.603 7.76812 114.64 7.62985 114.63 7.49092C114.587 6.93964 114.35 6.42158 113.96 6.02903C113.571 5.63649 113.054 5.39495 112.504 5.34746C111.033 5.34746 110.074 6.80075 110.074 8.65242Z" fill="white"/>
<path d="M127.042 13.4105V13.4666C127.042 13.5957 126.947 13.663 126.767 13.663H125.241C125.202 13.6645 125.163 13.6583 125.126 13.6447C125.089 13.6312 125.056 13.6105 125.027 13.5839C124.999 13.5573 124.975 13.5254 124.959 13.4899C124.943 13.4543 124.934 13.4159 124.932 13.3769L124.893 12.4679C124.579 12.9045 124.164 13.2583 123.683 13.4988C123.202 13.7393 122.67 13.8592 122.132 13.8482C119.916 13.8482 117.935 12.047 117.935 9.28632C117.935 6.63224 119.77 4.76373 122.188 4.76373C122.687 4.75756 123.181 4.85973 123.636 5.06318C124.092 5.26662 124.497 5.56649 124.826 5.94207V1.9806C124.826 1.21749 124.062 1.23993 124.062 0.908873V0.875206C124.062 0.729316 124.169 0.639538 124.332 0.566593L125.802 0.0728121C126.183 -0.0674666 126.363 0.0391452 126.363 0.347758V12.3949C126.369 13.0458 127.042 13.1019 127.042 13.4105ZM124.826 10.6611V9.73521V7.88914C124.773 7.21311 124.474 6.58003 123.984 6.11106C123.495 5.64208 122.849 5.37015 122.172 5.34729C120.606 5.34729 119.517 6.70519 119.501 8.74204C119.461 11.2334 120.701 13.231 122.514 13.231C122.835 13.2152 123.149 13.1361 123.44 12.9981C123.73 12.8602 123.99 12.6662 124.205 12.4273C124.42 12.1884 124.585 11.9094 124.692 11.6062C124.798 11.3031 124.844 10.9819 124.826 10.6611Z" fill="white"/>
<path d="M142.372 9.17983C142.372 11.8676 140.52 13.8483 138.214 13.8483C137.669 13.8623 137.13 13.744 136.641 13.5036C136.152 13.2632 135.729 12.9078 135.408 12.468V13.3938C135.408 13.5958 135.302 13.6856 135.1 13.6856H133.517C133.355 13.6856 133.248 13.6183 133.248 13.4892V13.4331C133.248 13.1076 133.921 13.0515 133.921 12.4006V2.19957C133.921 1.45889 133.192 1.43645 133.192 1.111V1.05489C133.192 0.931447 133.282 0.858502 133.5 0.768724L134.959 0.0729412C135.307 -0.0897821 135.52 0.0224408 135.52 0.331054V5.9422C135.851 5.56041 136.262 5.25668 136.723 5.05292C137.185 4.84915 137.687 4.75042 138.191 4.76386C138.76 4.76457 139.323 4.88108 139.845 5.10629C140.368 5.33151 140.839 5.66072 141.23 6.07386C141.621 6.48701 141.924 6.97545 142.12 7.50943C142.317 8.04341 142.402 8.61175 142.372 9.17983ZM140.756 9.61189C140.756 7.10932 139.555 5.34742 137.776 5.34742C137.18 5.36613 136.614 5.61395 136.196 6.03931C135.778 6.46466 135.54 7.03482 135.532 7.63116V10.2123V10.4704C135.532 11.9237 136.732 13.276 137.989 13.276C139.667 13.2647 140.756 11.8507 140.756 9.61189Z" fill="white"/>
<path d="M152.623 5.16209V5.21821C152.623 5.58293 152.152 5.56049 151.804 6.34044L148.37 13.9155C147.663 15.5147 146.827 17.5122 145.048 17.5122C143.685 17.5122 142.804 16.6032 142.804 15.8962C142.793 15.8017 142.802 15.7059 142.83 15.6152C142.859 15.5245 142.907 15.441 142.971 15.3703C143.035 15.2996 143.113 15.2434 143.2 15.2054C143.287 15.1674 143.382 15.1485 143.477 15.15C144.425 15.15 144.167 16.8614 145.295 16.8614C146.075 16.8614 146.877 15.5876 147.511 13.9884L144.027 6.30116C143.662 5.53804 143.152 5.56049 143.152 5.17893V5.16209C143.152 5.0162 143.281 4.94326 143.427 4.94326H145.789C145.82 4.94018 145.851 4.94347 145.881 4.95295C145.911 4.96242 145.939 4.97787 145.962 4.99835C145.986 5.01883 146.005 5.04391 146.019 5.07206C146.032 5.10022 146.04 5.13085 146.041 5.16209V5.21821C146.041 5.58293 145.385 5.56049 145.733 6.34044L148.348 12.5127L150.94 6.49194C151.338 5.56049 150.25 5.58293 150.25 5.21821V5.16209C150.25 5.03304 150.362 4.94326 150.525 4.94326H152.337C152.489 4.94326 152.623 5.0162 152.623 5.16209Z" fill="white"/>
</g>
</svg>
