<svg width="191" height="60" viewBox="0 0 191 60" fill="none" xmlns="http://www.w3.org/2000/svg">
<g clip-path="url(#clip0_203_542)">
<path d="M0 42.4821C0.19639 40.3218 0.426447 37.5947 0.707005 34.8846C0.787303 34.3244 0.951888 33.7795 1.19517 33.2686C1.95829 31.4786 3.05246 30.9287 4.64042 31.9836C7.10932 33.6164 9.39867 33.2966 11.8171 32.0453C13.9942 30.9231 16.0423 30.8782 18.1408 32.5054C19.8242 33.8241 21.9171 33.8858 23.9428 33.1339C25.065 32.7074 26.1872 32.1183 27.3095 31.6806C30.5415 30.4461 33.4817 31.602 35.0136 34.6938C36.4949 37.6677 36.5735 40.866 36.5117 44.0981C36.48 45.8401 36.33 47.5779 36.0628 49.2996C35.7598 51.2916 34.7891 52.1837 33.1899 52.1837C31.5908 52.1837 30.3002 51.2803 30.0645 49.3782C29.8289 47.476 30.0196 45.4504 30.0084 43.4528C30.0797 41.8552 30.0497 40.2547 29.9186 38.6609C29.6605 36.6857 28.3419 35.715 26.1479 35.513C24.0494 35.3278 22.366 36.1246 21.7713 37.8809C21.3802 39.0882 21.1795 40.3489 21.1765 41.6179C21.1765 43.5931 21.4009 45.5457 21.4907 47.5489C21.5396 48.2978 21.5133 49.0497 21.4121 49.7934C21.1484 51.4374 20.2899 52.1837 18.6571 52.2679C17.0242 52.3521 15.7842 51.7068 15.5148 50.0739C15.2835 48.254 15.1729 46.4208 15.1838 44.5862C15.1501 42.7794 15.2455 40.9614 15.1501 39.1939C14.993 36.4837 13.5565 35.1876 10.8744 35.1651C8.19228 35.1427 6.73338 36.3435 6.61554 39.1659C6.46965 42.3193 6.54821 45.4784 6.52576 48.6375C6.52576 51.5553 5.02759 52.6663 2.23885 51.9424C0.959506 51.6226 0.505003 50.7248 0.420836 49.5577C0.269335 47.3974 0.162723 45.2315 0 42.4821Z" fill="black"/>
<path d="M154.396 42.9814C154.541 40.6826 154.813 38.3935 155.21 36.1246C156.158 31.7423 159.132 30.3002 163.284 31.9836C164.076 32.3034 164.85 32.6513 165.63 32.9767C166.739 33.4663 167.955 33.6635 169.163 33.5496C170.37 33.4356 171.528 33.0143 172.526 32.3258C173.391 31.7027 174.412 31.3327 175.476 31.2574C176.539 31.1821 177.603 31.4044 178.547 31.8994C179.108 32.1631 179.669 32.3707 180.23 32.6457C180.979 33.0593 181.829 33.2545 182.683 33.2088C183.537 33.1632 184.361 32.8786 185.061 32.3876C187.799 30.6257 189.202 31.7254 189.881 34.4861C190.967 39.1416 191.158 43.9613 190.442 48.6879C190.307 49.4853 190.015 50.2481 189.584 50.9324C189.306 51.4061 188.883 51.7782 188.379 51.9943C187.874 52.2104 187.313 52.2591 186.778 52.1332C186.254 52.0713 185.765 51.8344 185.391 51.4608C185.018 51.0872 184.781 50.5986 184.719 50.0739C184.531 48.7215 184.418 47.3596 184.382 45.9946C184.27 43.5032 184.337 40.9951 184.096 38.5093C183.894 36.4051 182.755 35.5579 180.679 35.5017C177.026 35.4007 175.55 36.7699 175.573 40.4339C175.573 42.4596 175.831 44.4796 175.915 46.5052C175.988 47.5809 175.96 48.6612 175.831 49.7316C175.578 51.415 174.709 52.1444 173.278 52.2735C171.594 52.4194 170.472 51.819 169.99 50.2422C169.72 49.1006 169.588 47.9307 169.597 46.7577C169.49 44.0756 169.563 41.3766 169.344 38.7057C169.142 36.3322 167.824 35.339 165.159 35.2156C163.138 35.1034 161.685 36.0124 161.309 38.1727C160.933 40.3329 161.017 42.4764 160.939 44.6311C160.877 46.3144 161.017 48.0314 160.804 49.6811C160.591 51.3308 159.401 52.1556 157.847 52.1725C157.485 52.2024 157.12 52.1605 156.774 52.0491C156.428 51.9377 156.107 51.759 155.831 51.5234C155.554 51.2877 155.326 50.9997 155.161 50.6758C154.996 50.352 154.896 49.9987 154.868 49.6362C154.61 47.6948 154.576 45.6916 154.396 42.9814Z" fill="black"/>
<path d="M128.972 40.6416C129.096 38.4925 129.152 36.4669 129.343 34.4693C129.517 32.6682 130.184 31.9612 131.548 31.8377C133.343 31.6694 134.639 32.3371 134.886 34.0822C135.201 36.2986 135.032 38.5711 135.139 40.8155C135.164 42.5951 135.314 44.3707 135.588 46.1293C135.896 47.7397 137.013 48.4411 138.663 48.5253C143.084 48.7497 144.38 47.5321 144.442 43.1329C144.487 40.1646 144.515 37.1963 144.627 34.2337C144.667 33.1451 144.824 31.9892 146.221 31.7367C147.944 31.4281 149.806 32.1575 150.311 33.521C150.764 34.6577 151.009 35.8664 151.035 37.0897C150.985 41.2364 150.884 45.383 150.581 49.5128C150.424 51.6675 149.363 52.3184 147.214 52.223C146.697 52.2037 146.184 52.1303 145.682 52.0042C142.989 51.2803 140.43 51.1793 137.686 52.2567C136.805 52.5783 135.861 52.6959 134.928 52.6006C133.994 52.5054 133.094 52.1997 132.295 51.7067C131.496 51.2137 130.82 50.5461 130.316 49.754C129.813 48.962 129.495 48.0661 129.387 47.1337C129.056 44.9734 129.096 42.7402 128.972 40.6416Z" fill="black"/>
<path d="M41.5842 60C40.8362 59.9299 40.1016 59.7562 39.4015 59.4837C39.1058 59.3304 38.8465 59.1152 38.6413 58.8529C38.436 58.5905 38.2896 58.287 38.2119 57.9631C38.2525 57.6253 38.3651 57.3002 38.5423 57.0098C38.7195 56.7193 38.957 56.4704 39.2388 56.2798C39.9601 55.8351 40.757 55.527 41.5899 55.3708C43.0488 55.0117 43.9129 54.0858 43.7445 52.655C43.464 50.2366 43.2283 47.7564 42.4484 45.4783C41.1522 41.702 39.4183 38.0772 37.9314 34.3626C37.7071 33.5918 37.5605 32.8004 37.4937 32.0003C38.335 31.7759 39.199 31.6479 40.0692 31.6188C42.0556 31.7759 42.9309 33.1843 43.4359 34.9406C43.9185 36.6239 44.4571 38.2624 45.0127 39.9064C45.1942 40.3426 45.4339 40.7522 45.7253 41.1241C46.4547 42.1677 47.4423 42.7681 48.7441 42.5268C50.0459 42.2856 50.8202 41.2643 51.0951 39.985C51.3532 38.7898 51.4037 37.5441 51.7236 36.3658C52.0118 35.2807 52.444 34.239 53.0085 33.2685C53.3163 32.7563 53.7671 32.3453 54.3055 32.0861C54.8438 31.8269 55.4463 31.7308 56.0386 31.8096C57.4694 31.9162 58.0698 32.5839 57.6658 33.9418C55.6738 40.6752 53.738 47.4366 50.4779 53.693C49.019 56.4986 47.0776 58.8216 43.8175 59.6128C43.1385 59.7923 42.4315 59.8597 41.5842 60Z" fill="black"/>
<path d="M101.382 49.2209C101.026 49.7767 100.608 50.2906 100.137 50.7528C95.6925 54.2654 88.5271 53.8052 84.8967 49.8101C82.9603 47.6764 81.9031 44.889 81.9375 42.0079C81.9718 39.1268 83.0952 36.3654 85.0818 34.2785C89.178 29.9523 97.5049 30.5975 101.062 35.6139C101.967 37.0321 102.73 38.5356 103.341 40.1028C103.846 41.2251 103.262 41.9994 102.157 42.1733C100.668 42.3842 99.1699 42.5135 97.6676 42.5605C95.5017 42.6727 93.3358 42.7064 91.1756 42.8018C90.7058 42.8394 90.2424 42.9336 89.7952 43.0823C88.1119 43.5873 87.1636 44.6254 87.1748 46.0001C87.169 46.8087 87.4202 47.5982 87.8922 48.2548C88.3642 48.9113 89.0325 49.4009 89.8008 49.653C92.3932 50.4049 94.935 49.7316 97.4825 49.2714C98.6664 49.0582 99.8616 48.8787 101.051 48.7103L101.382 49.2209ZM93.1956 41.5561V41.4551C93.9001 41.4944 94.6064 41.4944 95.311 41.4551C95.8571 41.4431 96.3852 41.257 96.8182 40.924C97.2512 40.5909 97.5665 40.1282 97.7181 39.6034C98.3241 37.589 97.0785 35.2043 95.0585 34.6993C94.1395 34.4767 93.1984 34.3581 92.2529 34.3458C89.6942 34.3065 88.1904 35.5522 87.6686 38.0323C87.3207 39.6764 88.0165 40.8379 89.6718 41.1689C90.8445 41.3822 92.0228 41.4271 93.1956 41.5561Z" fill="black"/>
<path d="M113.429 36.9382C113.429 40.7537 113.497 44.5805 113.384 48.3961C113.292 49.3698 112.95 50.3032 112.391 51.1063C111.712 52.1724 110.534 52.3576 109.35 52.1107C108.803 52.0232 108.3 51.7545 107.924 51.3475C107.547 50.9405 107.319 50.4189 107.274 49.8663C106.986 47.766 106.821 45.6507 106.78 43.5313C106.78 38.1053 106.898 32.6793 106.982 27.2589C106.991 26.6482 107.057 26.0396 107.179 25.4409C107.611 23.3985 108.486 22.6859 110.366 22.77C112.245 22.8542 113.345 23.6902 113.413 25.7608C113.542 29.481 113.452 33.2068 113.452 36.9326L113.429 36.9382Z" fill="black"/>
<path d="M63.9054 42.4427C64.1916 43.7613 64.2926 45.1641 64.8032 46.3705C66.307 49.9953 70.5434 50.7584 73.4219 48.0538C74.2642 47.1859 75.2282 46.4449 76.2836 45.8542C76.8447 45.5793 77.7313 46.0057 78.4719 46.1123C78.3373 46.8137 78.3934 47.633 78.0399 48.1885C76.8931 50.0216 75.1883 51.4383 73.1762 52.2302C71.1641 53.0221 68.951 53.1474 66.8625 52.5876C64.697 52.0795 62.7485 50.8974 61.2975 49.2115C59.8466 47.5256 58.9679 45.4228 58.788 43.2058C58.356 37.2243 61.2457 33.044 66.7334 31.7029C70.8127 30.7097 75.6664 32.64 77.8659 36.1301C78.5393 37.1906 78.3934 37.8135 77.1926 37.9032C75.955 37.9669 74.7174 37.776 73.5566 37.3421C72.5746 36.9774 71.789 36.1021 70.8576 35.5522C68.7366 34.2953 66.8681 34.7386 65.4765 36.7754C64.3094 38.4419 64.0625 40.4002 63.9054 42.4427Z" fill="black"/>
<path d="M118.16 42.0836C118.294 39.6091 118.35 37.0335 118.603 34.4412C118.855 31.8488 120.41 30.9174 122.85 31.4729C123.488 31.5877 124.062 31.9295 124.466 32.435C124.87 32.9406 125.078 33.5755 125.05 34.2224C125.162 38.0828 125.185 41.9433 125.213 45.8038C125.213 46.926 125.129 48.0482 125.039 49.1704C124.887 51.0614 123.743 52.0939 121.762 52.1836C119.882 52.2622 118.788 51.4766 118.592 49.5464C118.328 47.1336 118.294 44.6535 118.16 42.0836Z" fill="black"/>
<path d="M121.863 26.2657C120.987 25.8999 120.152 25.4429 119.372 24.9022C118.502 24.1952 118.81 23.3984 119.719 22.8654C120.909 22.1696 123.058 22.4614 124.096 23.4265C124.289 23.5669 124.439 23.7572 124.531 23.9768C124.623 24.1965 124.654 24.4371 124.619 24.6728C124.584 24.9084 124.486 25.1302 124.334 25.314C124.183 25.4978 123.984 25.6368 123.759 25.7158C123.144 25.9517 122.509 26.1356 121.863 26.2657Z" fill="black"/>
<path d="M38.7674 7.08683C38.7674 3.27125 41.3092 0.600342 44.7994 0.600342C47.6723 0.600342 49.7596 2.65402 49.7596 3.96703C49.7675 4.07365 49.7519 4.1807 49.7141 4.2807C49.6763 4.38071 49.6172 4.47126 49.5408 4.54605C49.4644 4.62084 49.3726 4.67807 49.2718 4.71374C49.171 4.74941 49.0637 4.76267 48.9572 4.75259C47.5993 4.74698 47.6947 1.34662 44.3785 1.34662C42.2744 1.34662 40.4002 3.31053 40.4002 6.17221C40.4002 9.8419 42.785 12.3894 45.3437 12.3894C47.5264 12.3894 48.7777 10.706 49.3388 9.37057C49.5576 9.01145 50.1244 9.07879 50.0121 9.60623C49.8169 10.8139 49.1899 11.9096 48.2476 12.6898C47.3054 13.47 46.112 13.8816 44.8892 13.8483C41.6908 13.8483 38.7674 10.6611 38.7674 7.08683Z" fill="black"/>
<path d="M51.5384 9.1798C51.5269 8.59675 51.6333 8.01738 51.8512 7.47644C52.0691 6.9355 52.3939 6.44412 52.8063 6.03175C53.2187 5.61939 53.71 5.29454 54.251 5.07666C54.7919 4.85879 55.3713 4.75239 55.9543 4.76383C56.5647 4.7468 57.1721 4.85446 57.7394 5.08023C58.3067 5.306 58.8219 5.64512 59.2537 6.07686C59.6854 6.5086 60.0245 7.02387 60.2503 7.59117C60.4761 8.15847 60.5837 8.76586 60.5667 9.37619C60.5667 11.8844 58.8441 13.8651 56.2798 13.8651C55.6567 13.8842 55.0362 13.7765 54.4561 13.5486C53.8759 13.3206 53.348 12.9771 52.9046 12.5389C52.4612 12.1008 52.1115 11.5771 51.8766 10.9996C51.6417 10.4222 51.5267 9.80307 51.5384 9.1798ZM58.9675 9.92048C58.9675 7.37863 57.6265 5.36422 55.7748 5.36422C54.2261 5.36422 53.1544 6.63234 53.1544 8.66919C53.1544 10.9922 54.5011 13.2479 56.5211 13.2479C57.9182 13.2479 58.9675 11.9573 58.9675 9.92048Z" fill="black"/>
<path d="M71.6488 13.377V13.4668C71.6488 13.6127 71.5029 13.7024 71.2672 13.7024H69.1069C68.8713 13.7024 68.7254 13.6127 68.7254 13.4668V13.3938C68.7254 13.0459 69.4155 13.0459 69.3763 12.395L69.1967 8.75901C69.1069 6.54261 68.2148 5.48771 66.9522 5.48771C65.6056 5.48771 64.7078 6.55944 64.7078 7.99589V12.4119C64.7078 13.0459 65.4372 13.0459 65.4372 13.3938V13.4668C65.4372 13.6127 65.2913 13.7024 65.0557 13.7024H62.8112C62.5924 13.7024 62.4465 13.6127 62.4465 13.4668V13.3938C62.4465 13.0459 63.1535 13.0459 63.1535 12.4119V6.8905C63.1535 6.10494 62.3904 6.14421 62.3904 5.81877V5.76266C62.3904 5.6336 62.5026 5.56065 62.6822 5.48771L64.0457 4.83682C64.3936 4.65165 64.5563 4.83682 64.5563 5.10615V6.43599C64.8222 5.92317 65.2253 5.49425 65.7207 5.19703C66.2161 4.89982 66.7842 4.74598 67.3619 4.75265C69.1406 4.75265 70.6332 5.95343 70.8127 8.76462L71.0147 12.3445C71.0315 13.0291 71.6488 13.0291 71.6488 13.377Z" fill="black"/>
<path d="M73.102 11.7834C73.0975 11.6911 73.1129 11.5988 73.1474 11.5131C73.1819 11.4273 73.2345 11.3501 73.3017 11.2866C73.3689 11.2232 73.449 11.175 73.5366 11.1455C73.6242 11.116 73.7171 11.1058 73.809 11.1156C74.9313 11.1156 74.3702 13.332 76.7886 13.332C77.9557 13.332 78.8591 12.7709 78.8591 11.7329C78.8591 9.06195 73.304 10.8575 73.304 7.27761C73.304 5.88043 74.7181 4.79187 76.7156 4.79187C78.9601 4.79187 80.2619 5.95338 80.2619 6.93533C80.2619 7.02052 80.2448 7.10484 80.2115 7.18327C80.1783 7.2617 80.1296 7.33262 80.0683 7.3918C80.007 7.45098 79.9344 7.49721 79.8549 7.52772C79.7754 7.55823 79.6905 7.5724 79.6054 7.56939C78.5729 7.56939 79.0442 5.35298 76.7998 5.35298C75.7505 5.35298 74.9313 6.02632 74.9313 6.93533C74.9313 9.55012 80.4695 7.77139 80.4695 11.4242C80.4695 12.7821 79.0555 13.8763 76.7998 13.8763C74.3758 13.8314 73.102 12.6138 73.102 11.7834Z" fill="black"/>
<path d="M89.9972 11.2504C89.7784 12.3389 88.5832 13.8483 86.3107 13.8483C84.0382 13.8483 82.0967 12.0696 82.0967 9.23037C82.0701 8.65084 82.1614 8.07193 82.3648 7.52863C82.5683 6.98533 82.8797 6.48891 83.2804 6.06936C83.6811 5.6498 84.1626 5.31582 84.696 5.08759C85.2294 4.85935 85.8035 4.74161 86.3836 4.74146C88.5607 4.74146 89.7503 6.17791 89.7503 7.42919C89.7601 7.68038 89.6794 7.92672 89.5228 8.12341C89.3663 8.3201 89.1444 8.45407 88.8974 8.50092L83.8474 10.1843C84.2626 11.7442 85.3736 12.6925 86.8437 12.6925C87.3854 12.7189 87.9225 12.5822 88.3856 12.3001C88.8488 12.018 89.2167 11.6035 89.4417 11.1101C89.6325 10.852 90.0533 10.9025 89.9972 11.2504ZM83.6734 8.65242C83.6713 8.96255 83.6957 9.2723 83.7464 9.57826L87.7976 8.12498C87.9311 8.08371 88.0469 7.99874 88.1262 7.88374C88.2056 7.76874 88.244 7.63038 88.2353 7.49092C88.1921 6.93964 87.9547 6.42158 87.5652 6.02903C87.1758 5.63649 86.6596 5.39495 86.1087 5.34746C84.6385 5.34746 83.6734 6.80075 83.6734 8.65242Z" fill="black"/>
<path d="M97.7911 6.17226C97.7911 6.64359 97.5722 7.02515 97.0672 7.02515C96.119 7.02515 96.5735 5.75703 95.4456 5.75703C94.4468 5.75703 93.9026 6.87926 93.9026 8.26521V12.4062C93.9026 13.0403 94.6657 13.0571 94.6657 13.3882V13.4667C94.6657 13.6126 94.5366 13.68 94.3009 13.68H92.0565C91.8208 13.68 91.6918 13.6126 91.6918 13.4667V13.3938C91.6918 13.0627 92.3651 13.0459 92.3651 12.4119V6.86804C92.3651 6.17787 91.6357 6.16103 91.6357 5.81875V5.77948C91.6357 5.65603 91.7479 5.54381 91.9106 5.45403L93.2909 4.8368C93.6388 4.67408 93.7623 4.8368 93.7623 5.0893V6.54259C93.8994 6.02407 94.2069 5.56672 94.6354 5.2441C95.0638 4.92148 95.5883 4.75233 96.1246 4.76386C97.2075 4.76386 97.7911 5.39792 97.7911 6.17226Z" fill="black"/>
<path d="M107.734 5.14538V5.2015C107.734 5.54378 107.044 5.61672 106.808 6.21711L103.935 13.304C103.909 13.4082 103.848 13.5004 103.762 13.5656C103.677 13.6308 103.571 13.6652 103.464 13.6631H102.903C102.793 13.6653 102.685 13.6315 102.596 13.5666C102.506 13.5018 102.441 13.4095 102.409 13.304L99.1602 6.21711C98.8684 5.61672 98.3802 5.54378 98.3802 5.2015V5.14538C98.3802 5.01633 98.4869 4.94338 98.6496 4.94338H101.175C101.206 4.94031 101.238 4.94357 101.268 4.95298C101.298 4.96239 101.326 4.97776 101.35 4.99817C101.374 5.01858 101.394 5.04362 101.408 5.0718C101.422 5.09998 101.431 5.13073 101.433 5.16222V5.21833C101.433 5.48766 100.72 5.656 100.939 6.23395L103.503 12.5184L105.989 6.39667C106.298 5.56061 105.355 5.54378 105.355 5.21833V5.16222C105.355 5.01633 105.462 4.94338 105.63 4.94338H107.465C107.639 4.94338 107.734 5.01633 107.734 5.14538Z" fill="black"/>
<path d="M116.392 11.2504C116.173 12.3389 114.978 13.8483 112.706 13.8483C110.433 13.8483 108.492 12.0696 108.492 9.23037C108.465 8.65084 108.556 8.07193 108.76 7.52863C108.963 6.98533 109.275 6.48891 109.675 6.06936C110.076 5.6498 110.558 5.31582 111.091 5.08759C111.624 4.85935 112.198 4.74161 112.778 4.74146C114.961 4.74146 116.145 6.17791 116.145 7.42919C116.155 7.68038 116.074 7.92672 115.918 8.12341C115.761 8.3201 115.539 8.45407 115.292 8.50092L110.242 10.1843C110.663 11.7442 111.768 12.6925 113.239 12.6925C113.78 12.7189 114.317 12.5822 114.78 12.3001C115.244 12.018 115.612 11.6035 115.837 11.1101C116.033 10.852 116.448 10.9025 116.392 11.2504ZM110.074 8.65242C110.069 8.96265 110.093 9.27264 110.147 9.57826L114.198 8.12498C114.331 8.08355 114.446 7.99836 114.525 7.88324C114.603 7.76812 114.64 7.62985 114.63 7.49092C114.587 6.93964 114.35 6.42158 113.96 6.02903C113.571 5.63649 113.054 5.39495 112.504 5.34746C111.033 5.34746 110.074 6.80075 110.074 8.65242Z" fill="black"/>
<path d="M127.042 13.4106V13.4667C127.042 13.5958 126.947 13.6631 126.767 13.6631H125.241C125.202 13.6646 125.163 13.6584 125.126 13.6448C125.089 13.6313 125.056 13.6106 125.027 13.584C124.999 13.5574 124.975 13.5255 124.959 13.49C124.943 13.4544 124.934 13.416 124.932 13.377L124.893 12.468C124.579 12.9046 124.164 13.2584 123.683 13.4989C123.202 13.7394 122.67 13.8593 122.132 13.8483C119.916 13.8483 117.935 12.0471 117.935 9.28644C117.935 6.63236 119.77 4.76385 122.188 4.76385C122.687 4.75768 123.181 4.85985 123.636 5.0633C124.092 5.26674 124.497 5.56661 124.826 5.94219V1.98072C124.826 1.21761 124.062 1.24005 124.062 0.908995V0.875328C124.062 0.729438 124.169 0.63966 124.332 0.566715L125.802 0.0729341C126.183 -0.0673446 126.363 0.0392672 126.363 0.34788V12.395C126.369 13.0459 127.042 13.102 127.042 13.4106ZM124.826 10.6612V9.73533V7.88926C124.773 7.21323 124.474 6.58015 123.984 6.11118C123.495 5.6422 122.849 5.37027 122.172 5.34741C120.606 5.34741 119.517 6.70531 119.501 8.74216C119.461 11.2335 120.701 13.2311 122.514 13.2311C122.835 13.2153 123.149 13.1362 123.44 12.9982C123.73 12.8603 123.99 12.6663 124.205 12.4274C124.42 12.1885 124.585 11.9095 124.692 11.6063C124.798 11.3032 124.844 10.982 124.826 10.6612Z" fill="black"/>
<path d="M142.372 9.17983C142.372 11.8676 140.52 13.8483 138.214 13.8483C137.669 13.8623 137.13 13.744 136.641 13.5036C136.152 13.2632 135.729 12.9078 135.408 12.468V13.3938C135.408 13.5958 135.302 13.6856 135.1 13.6856H133.517C133.355 13.6856 133.248 13.6183 133.248 13.4892V13.4331C133.248 13.1076 133.921 13.0515 133.921 12.4006V2.19957C133.921 1.45889 133.192 1.43645 133.192 1.111V1.05489C133.192 0.931447 133.282 0.858502 133.5 0.768724L134.959 0.0729412C135.307 -0.0897821 135.52 0.0224408 135.52 0.331054V5.9422C135.851 5.56041 136.262 5.25668 136.723 5.05292C137.185 4.84915 137.687 4.75042 138.191 4.76386C138.76 4.76457 139.323 4.88108 139.845 5.10629C140.368 5.33151 140.839 5.66072 141.23 6.07386C141.621 6.48701 141.924 6.97545 142.12 7.50943C142.317 8.04341 142.402 8.61175 142.372 9.17983ZM140.756 9.61189C140.756 7.10932 139.555 5.34742 137.776 5.34742C137.18 5.36613 136.614 5.61395 136.196 6.03931C135.778 6.46466 135.54 7.03482 135.532 7.63116V10.2123V10.4704C135.532 11.9237 136.732 13.276 137.989 13.276C139.667 13.2647 140.756 11.8507 140.756 9.61189Z" fill="black"/>
<path d="M152.623 5.16221V5.21833C152.623 5.58305 152.152 5.56061 151.804 6.34056L148.37 13.9156C147.663 15.5148 146.827 17.5123 145.048 17.5123C143.685 17.5123 142.804 16.6033 142.804 15.8963C142.793 15.8018 142.802 15.706 142.83 15.6153C142.859 15.5246 142.907 15.4411 142.971 15.3704C143.035 15.2997 143.113 15.2435 143.2 15.2055C143.287 15.1675 143.382 15.1486 143.477 15.1501C144.425 15.1501 144.167 16.8615 145.295 16.8615C146.075 16.8615 146.877 15.5877 147.511 13.9885L144.027 6.30128C143.662 5.53816 143.152 5.56061 143.152 5.17905V5.16221C143.152 5.01632 143.281 4.94338 143.427 4.94338H145.789C145.82 4.9403 145.851 4.94359 145.881 4.95307C145.911 4.96254 145.939 4.97799 145.962 4.99847C145.986 5.01895 146.005 5.04403 146.019 5.07218C146.032 5.10034 146.04 5.13097 146.041 5.16221V5.21833C146.041 5.58305 145.385 5.56061 145.733 6.34056L148.348 12.5128L150.94 6.49206C151.338 5.56061 150.25 5.58305 150.25 5.21833V5.16221C150.25 5.03316 150.362 4.94338 150.525 4.94338H152.337C152.489 4.94338 152.623 5.01632 152.623 5.16221Z" fill="black"/>
</g>
<defs>
<clipPath id="clip0_203_542">
<rect width="190.824" height="60" fill="white"/>
</clipPath>
</defs>
</svg>
