<svg width="1435" height="204" viewBox="0 0 1435 204" fill="none" xmlns="http://www.w3.org/2000/svg">
<path d="M0.34375 7.79999H117.344V29.4H115.944C113.744 10.2 83.9438 9.79999 69.1438 9.79999V102.6C69.1438 106 69.1438 113.8 69.5438 121.4C69.9438 128.8 70.9438 136.8 72.7438 140C74.7438 143.8 78.3438 146 82.3438 147H35.9438C37.5438 146.6 39.1438 146 40.7438 145C42.1438 144 43.7438 142.4 45.1438 140C49.1438 134 48.7438 113.4 48.7438 105.4V9.79999C32.3438 9.79999 6.74375 9.99999 1.54375 28.8H0.34375V7.79999ZM129.028 2C137.628 1.19999 152.228 0.399992 161.628 0.399992L161.828 67C168.628 59.4 182.228 51.2 195.028 51.2C220.428 51.2 233.028 66.6 233.028 86.8V115C233.028 121 233.428 137.6 236.028 142.2C237.828 144.8 240.228 146.2 243.228 147H204.828C207.828 146.2 210.228 144.8 212.028 142C214.628 137.2 214.828 119.4 214.828 113.2L214.628 89.6C214.628 77.4 215.228 54.2 193.828 54.2C180.828 54.2 167.428 62.8 161.828 70.8V89.4L161.628 117.2C161.628 123 161.628 137.6 164.228 142.2C165.828 145 168.628 146.4 171.428 147H133.028C136.028 146.4 138.828 145 140.628 142C143.428 136.4 143.428 121.2 143.428 114.6C143.428 88.2 144.228 17.8 140.428 9.2C137.628 5.19999 133.828 2.99999 129.028 2ZM260.23 101.6C260.23 72.2 278.43 51.8 308.63 51.8C336.83 51.8 354.43 71.4 355.03 99.4H280.83C280.83 122.6 284.83 146.4 314.43 146.4C327.83 146.4 343.63 137.4 351.63 124.2H353.03C346.23 140 327.23 149 311.23 149C281.83 149 260.23 131 260.23 101.6ZM309.63 53.8C287.83 53.8 282.63 82 281.03 97.4H335.43C334.83 82.4 332.63 53.8 309.63 53.8ZM428.03 147C430.83 146.4 433.03 145.4 435.43 143.6C441.03 139 441.23 110.4 441.23 102.6V45.6C441.23 37.8 441.03 15.8 435.43 11C433.43 9.4 431.23 8.4 428.83 7.79999H529.63V28.6H528.43C526.23 21.8 522.23 17.2 515.23 14.6C502.63 9.79999 474.43 9.79999 461.43 9.79999V82.6H464.43C493.63 82.2 502.23 86.4 504.23 63.2H505.23V103.4H504.23C503.23 82.8 493.23 84.8 464.43 84.6H461.43V120.2C461.63 125.2 462.03 130.6 463.23 134.8C463.83 137.8 467.63 144.6 473.63 144.8C493.03 145.4 531.63 146.4 536.03 125.2H537.23V147H428.03ZM559.956 101.4C559.956 73 578.556 51.8 607.756 51.8C616.756 51.8 640.156 54.8 640.156 66.8C640.156 71 637.156 72 633.756 72C623.156 72 625.956 52.8 607.956 52.8C583.556 52.8 581.356 82 581.356 100C581.356 117.6 586.556 146.4 609.356 146.4C621.156 146.4 633.356 141 639.556 130.8H641.556C634.556 143.8 620.756 149 606.556 149C579.956 149 559.956 127.2 559.956 101.4ZM707.534 149C679.334 149 660.334 129.2 660.334 100.4C660.334 72.2 678.934 51.8 706.534 51.8C734.534 51.8 753.934 71.4 753.934 100.6C753.934 129.4 735.534 149 707.534 149ZM706.734 53.4C681.334 53.4 679.734 85.4 679.734 100.4C679.734 115.8 682.134 147.4 707.534 147.4C732.734 147.4 734.534 115.8 734.534 100.6C734.534 85.2 731.934 53.4 706.734 53.4ZM778.041 75.6C778.041 56.8 799.241 47.6 817.641 48.4C825.041 48.8 838.441 51.6 845.441 54.6L845.641 59.2C845.641 64.6 845.241 69.8 844.841 75L843.641 75.2C841.841 62.6 830.641 50.8 813.641 50.8C802.841 50.8 794.241 59.6 794.241 71.4C794.241 96.4 851.641 88.6 851.641 122.8C851.641 143.2 828.241 152.6 809.241 152C796.441 151.6 787.841 147.8 780.241 143C780.041 140 780.041 137 780.041 134C780.041 130.8 780.041 127.8 780.241 124.6L781.641 124.4C784.241 138 794.641 150 812.641 149.2C826.041 148.6 835.641 141 835.441 128C835.041 102.4 778.041 111.4 778.041 75.6ZM859.978 54H900.978C896.178 55.4 894.178 59 894.178 64C894.178 79.6 919.978 124.2 923.378 132C927.978 117.4 949.978 77.6 951.578 64.8C952.578 56.6 941.978 55.8 936.178 54L968.578 54.2C959.178 57.6 954.778 72.2 945.178 93L915.778 157.2C907.378 175.8 898.178 191.2 892.178 199.6C889.978 202.6 887.378 203.8 884.978 203.8C882.378 203.8 879.978 202.4 878.378 200.4C874.978 197 874.178 188 877.578 189.2C879.178 189.8 880.778 190.2 882.178 190.2C892.978 190.2 903.378 175.6 913.778 152.8L879.978 81C874.978 70.8 872.378 57.4 859.978 54ZM980.072 75.6C980.072 56.8 1001.27 47.6 1019.67 48.4C1027.07 48.8 1040.47 51.6 1047.47 54.6L1047.67 59.2C1047.67 64.6 1047.27 69.8 1046.87 75L1045.67 75.2C1043.87 62.6 1032.67 50.8 1015.67 50.8C1004.87 50.8 996.272 59.6 996.272 71.4C996.272 96.4 1053.67 88.6 1053.67 122.8C1053.67 143.2 1030.27 152.6 1011.27 152C998.472 151.6 989.872 147.8 982.272 143C982.072 140 982.072 137 982.072 134C982.072 130.8 982.072 127.8 982.272 124.6L983.672 124.4C986.272 138 996.672 150 1014.67 149.2C1028.07 148.6 1037.67 141 1037.47 128C1037.07 102.4 980.072 111.4 980.072 75.6ZM1069.81 53.2C1095.41 52.4 1098.61 36.4 1099.81 21H1109.21V52.2H1136.01V55.2H1109.21V132.2C1109.21 140.6 1112.81 143.8 1117.41 143.8C1124.01 143.8 1132.81 136.8 1134.41 130L1136.01 131.4C1126.61 149.2 1116.61 149 1109.81 149C1099.81 149 1090.41 140.6 1090.41 131.2V55.2H1069.81V53.2ZM1155.89 101.6C1155.89 72.2 1174.09 51.8 1204.29 51.8C1232.49 51.8 1250.09 71.4 1250.69 99.4H1176.49C1176.49 122.6 1180.49 146.4 1210.09 146.4C1223.49 146.4 1239.29 137.4 1247.29 124.2H1248.69C1241.89 140 1222.89 149 1206.89 149C1177.49 149 1155.89 131 1155.89 101.6ZM1205.29 53.8C1183.49 53.8 1178.29 82 1176.69 97.4H1231.09C1230.49 82.4 1228.29 53.8 1205.29 53.8ZM1276.39 60.6C1273.59 56.6 1269.79 54.4 1264.99 53.4C1273.59 52.6 1288.19 51.8 1297.79 51.8V66.6C1304.19 59.2 1316.19 51.2 1327.79 51.2C1342.59 51.2 1352.59 56.6 1357.99 67.2C1364.19 59.6 1376.59 51.2 1388.39 51.2C1411.59 51.2 1425.19 68.6 1425.19 88.8V115C1425.19 121 1425.39 137.6 1427.79 142.2C1429.39 144.8 1431.79 146.2 1434.39 147H1397.19C1399.99 146.2 1402.59 144.8 1403.99 142C1406.19 137.2 1406.39 119.4 1406.39 113.2L1406.19 89.6C1406.19 77.4 1406.79 54.6 1387.19 54.6C1376.19 54.6 1364.59 62 1358.99 69.4C1361.39 75.2 1362.59 82.2 1362.59 90.8V115C1362.59 121 1362.99 137.6 1365.39 142.2C1366.59 144.8 1369.19 146.2 1371.79 147H1334.79C1337.39 146.2 1339.79 144.8 1341.39 142C1343.79 137.2 1344.39 119.4 1344.39 113.2C1344.19 98.2 1347.99 54.6 1326.79 54.6C1315.19 54.6 1302.99 62.6 1297.79 70.2V117.2C1297.79 123 1297.79 137.6 1299.99 142.2C1301.79 145 1304.59 146.4 1307.59 147H1268.99C1271.99 146.4 1274.79 145 1276.59 142C1279.19 136.4 1279.19 121.2 1279.19 114.6C1279.19 88.2 1279.99 69.2 1276.39 60.6Z" fill="black"/>
<path d="M0.34375 7.79999V2.79999H-4.65625V7.79999H0.34375ZM117.344 7.79999H122.344V2.79999H117.344V7.79999ZM117.344 29.4V34.4H122.344V29.4H117.344ZM115.944 29.4L110.976 29.9692L111.484 34.4H115.944V29.4ZM69.1438 9.79999V4.79999H64.1438V9.79999H69.1438ZM69.5438 121.4L64.5507 121.663L64.551 121.67L69.5438 121.4ZM72.7438 140L77.1683 137.671L77.1358 137.61L77.1016 137.549L72.7438 140ZM82.3438 147V152L83.5564 142.149L82.3438 147ZM35.9438 147L34.7311 142.149L35.9438 152V147ZM40.7438 145L43.3937 149.24L43.5245 149.158L43.6499 149.069L40.7438 145ZM45.1438 140L40.9835 137.226L40.9004 137.351L40.8249 137.481L45.1438 140ZM48.7438 9.79999H53.7438V4.79999H48.7438V9.79999ZM1.54375 28.8V33.8H5.34851L6.36281 30.1329L1.54375 28.8ZM0.34375 28.8H-4.65625V33.8H0.34375V28.8ZM0.34375 12.8H117.344V2.79999H0.34375V12.8ZM112.344 7.79999V29.4H122.344V7.79999H112.344ZM117.344 24.4H115.944V34.4H117.344V24.4ZM120.911 28.8308C119.441 15.9983 108.63 10.1988 98.5319 7.56218C88.2489 4.87733 76.482 4.79999 69.1438 4.79999V14.8C76.6055 14.8 87.1386 14.9227 96.0056 17.2378C105.057 19.6012 110.247 23.6017 110.976 29.9692L120.911 28.8308ZM64.1438 9.79999V102.6H74.1438V9.79999H64.1438ZM64.1438 102.6C64.1438 105.997 64.143 113.916 64.5507 121.663L74.5368 121.137C74.1445 113.684 74.1438 106.003 74.1438 102.6H64.1438ZM64.551 121.67C64.7568 125.477 65.1199 129.508 65.6799 133.055C66.2061 136.387 67.0028 139.993 68.3859 142.451L77.1016 137.549C76.6847 136.807 76.0815 134.813 75.5576 131.495C75.0676 128.392 74.7307 124.723 74.5365 121.13L64.551 121.67ZM68.3192 142.329C71.1634 147.733 76.1793 150.613 81.1311 151.851L83.5564 142.149C80.5082 141.387 78.3241 139.867 77.1683 137.671L68.3192 142.329ZM82.3438 142H35.9438V152H82.3438V142ZM37.1564 151.851C39.1552 151.351 41.2631 150.572 43.3937 149.24L38.0938 140.76C37.0244 141.428 35.9323 141.849 34.7311 142.149L37.1564 151.851ZM43.6499 149.069C45.6333 147.652 47.7117 145.521 49.4626 142.519L40.8249 137.481C39.7758 139.279 38.6542 140.348 37.8376 140.931L43.6499 149.069ZM49.304 142.774C50.9068 140.369 51.7687 137.089 52.3138 134.078C52.8896 130.897 53.2298 127.286 53.4354 123.739C53.8461 116.654 53.7438 109.305 53.7438 105.4H43.7438C43.7438 109.494 43.8414 116.446 43.4521 123.161C43.2577 126.514 42.9479 129.678 42.4737 132.297C41.9688 135.086 41.3807 136.631 40.9835 137.226L49.304 142.774ZM53.7438 105.4V9.79999H43.7438V105.4H53.7438ZM48.7438 4.79999C40.647 4.79999 29.4971 4.8232 19.6687 7.41531C9.77178 10.0255 0.00777126 15.5975 -3.27531 27.4671L6.36281 30.1329C8.27973 23.2025 13.9157 19.2745 22.2188 17.0847C30.5904 14.8768 40.4405 14.8 48.7438 14.8V4.79999ZM1.54375 23.8H0.34375V33.8H1.54375V23.8ZM5.34375 28.8V7.79999H-4.65625V28.8H5.34375ZM129.028 2L128.565 -2.97851L128.008 6.8949L129.028 2ZM161.628 0.399992L166.628 0.384977L166.613 -4.60001H161.628V0.399992ZM161.828 67L156.828 67.015L156.867 80.043L165.554 70.334L161.828 67ZM236.028 142.2L231.675 144.66L231.787 144.859L231.917 145.046L236.028 142.2ZM243.228 147V152L244.516 142.169L243.228 147ZM204.828 147L203.54 142.169L204.828 152V147ZM212.028 142L216.234 144.704L216.335 144.546L216.425 144.381L212.028 142ZM214.828 113.2H219.828V113.179L219.828 113.158L214.828 113.2ZM214.628 89.6H209.628V89.6212L209.628 89.6424L214.628 89.6ZM161.828 70.8L157.732 67.9327L156.828 69.2239V70.8H161.828ZM161.828 89.4L166.828 89.436L166.828 89.418V89.4H161.828ZM161.628 117.2L156.628 117.164L156.628 117.182V117.2H161.628ZM164.228 142.2L159.875 144.66L159.881 144.671L159.887 144.681L164.228 142.2ZM171.428 147V152L172.476 142.111L171.428 147ZM133.028 147L132.048 142.097L133.028 152V147ZM140.628 142L144.916 144.572L145.014 144.408L145.1 144.236L140.628 142ZM140.428 9.2L145.002 7.17918L144.804 6.73263L144.524 6.33269L140.428 9.2ZM129.491 6.9785C137.968 6.18996 152.411 5.39999 161.628 5.39999V-4.60001C152.045 -4.60001 137.288 -3.78997 128.565 -2.97851L129.491 6.9785ZM156.628 0.415007L156.828 67.015L166.828 66.985L166.628 0.384977L156.628 0.415007ZM165.554 70.334C168.501 67.0412 173.092 63.4515 178.46 60.6991C183.834 57.9432 189.645 56.2 195.028 56.2V46.2C187.611 46.2 180.223 48.5568 173.897 51.8009C167.564 55.0485 161.956 59.3588 158.102 63.666L165.554 70.334ZM195.028 56.2C206.699 56.2 214.812 59.7137 220.004 64.9466C225.216 70.2005 228.028 77.7342 228.028 86.8H238.028C238.028 75.6658 234.54 65.3995 227.103 57.9034C219.644 50.3863 208.757 46.2 195.028 46.2V56.2ZM228.028 86.8V115H238.028V86.8H228.028ZM228.028 115C228.028 118.077 228.13 123.865 228.568 129.512C228.787 132.331 229.096 135.2 229.538 137.717C229.949 140.062 230.57 142.705 231.675 144.66L240.381 139.74C240.186 139.395 239.782 138.238 239.387 135.989C239.023 133.912 238.744 131.394 238.538 128.738C238.126 123.435 238.028 117.923 238.028 115H228.028ZM231.917 145.046C234.544 148.84 238.079 150.802 241.94 151.831L244.516 142.169C242.378 141.598 241.113 140.76 240.139 139.354L231.917 145.046ZM243.228 142H204.828V152H243.228V142ZM206.116 151.831C210.014 150.792 213.607 148.791 216.234 144.704L207.822 139.296C206.849 140.809 205.642 141.608 203.54 142.169L206.116 151.831ZM216.425 144.381C217.519 142.361 218.113 139.593 218.502 137.125C218.92 134.471 219.2 131.433 219.393 128.446C219.778 122.461 219.828 116.335 219.828 113.2H209.828C209.828 116.265 209.778 122.139 209.413 127.804C209.231 130.642 208.974 133.341 208.623 135.569C208.243 137.982 207.838 139.239 207.632 139.619L216.425 144.381ZM219.828 113.158L219.628 89.5576L209.628 89.6424L209.828 113.242L219.828 113.158ZM219.628 89.6C219.628 83.7645 219.835 73.9779 216.98 65.6955C215.515 61.4441 213.14 57.2435 209.232 54.1133C205.262 50.9332 200.136 49.2 193.828 49.2V59.2C198.22 59.2 201.044 60.3668 202.98 61.918C204.979 63.519 206.467 65.8809 207.526 68.9545C209.721 75.3221 209.628 83.2355 209.628 89.6H219.628ZM193.828 49.2C186.271 49.2 178.838 51.6805 172.627 55.1283C166.435 58.5649 161.054 63.1865 157.732 67.9327L165.924 73.6673C168.202 70.4134 172.321 66.735 177.48 63.8717C182.618 61.0194 188.385 59.2 193.828 59.2V49.2ZM156.828 70.8V89.4H166.828V70.8H156.828ZM156.828 89.364L156.628 117.164L166.628 117.236L166.828 89.436L156.828 89.364ZM156.628 117.2C156.628 120.089 156.627 125.342 156.964 130.478C157.132 133.043 157.391 135.674 157.799 138.024C158.183 140.237 158.782 142.725 159.875 144.66L168.581 139.74C168.375 139.375 167.998 138.313 167.651 136.314C167.328 134.451 167.099 132.207 166.942 129.822C166.63 125.058 166.628 120.111 166.628 117.2H156.628ZM159.887 144.681C162.445 149.158 166.781 151.118 170.38 151.889L172.476 142.111C170.475 141.682 169.211 140.842 168.569 139.719L159.887 144.681ZM171.428 142H133.028V152H171.428V142ZM134.009 151.903C137.914 151.122 142.174 149.142 144.916 144.572L136.341 139.428C135.482 140.858 134.142 141.678 132.048 142.097L134.009 151.903ZM145.1 144.236C146.136 142.165 146.758 139.58 147.176 137.123C147.609 134.575 147.886 131.758 148.067 129.003C148.43 123.492 148.428 117.888 148.428 114.6H138.428C138.428 117.912 138.427 123.208 138.089 128.347C137.92 130.917 137.672 133.362 137.318 135.446C136.948 137.62 136.52 139.035 136.156 139.764L145.1 144.236ZM148.428 114.6C148.428 101.463 148.628 77.1779 148.353 55.1624C148.215 44.1525 147.958 33.6361 147.492 25.3054C147.26 21.1458 146.972 17.4646 146.611 14.5093C146.277 11.7757 145.817 9.02535 145.002 7.17918L135.855 11.2208C135.851 11.2127 135.892 11.308 135.962 11.5529C136.029 11.7875 136.106 12.103 136.189 12.5103C136.356 13.3297 136.523 14.3983 136.685 15.7212C137.008 18.3651 137.281 21.8011 137.508 25.8633C137.961 33.9764 138.216 44.3225 138.354 55.2876C138.628 77.222 138.428 101.337 138.428 114.6H148.428ZM144.524 6.33269C140.88 1.1264 135.884 -1.67906 130.048 -2.89491L128.008 6.8949C131.772 7.67905 134.376 9.27358 136.332 12.0673L144.524 6.33269ZM355.03 99.4V104.4H360.138L360.029 99.2929L355.03 99.4ZM280.83 99.4V94.4H275.83V99.4H280.83ZM351.63 124.2V119.2H348.813L347.354 121.608L351.63 124.2ZM353.03 124.2L357.622 126.177L360.625 119.2H353.03V124.2ZM281.03 97.4L276.056 96.8833L275.483 102.4H281.03V97.4ZM335.43 97.4V102.4H340.634L340.426 97.2002L335.43 97.4ZM265.23 101.6C265.23 87.9277 269.448 76.7938 276.732 69.1163C283.984 61.4726 294.702 56.8 308.63 56.8V46.8C292.358 46.8 278.876 52.3274 269.477 62.2337C260.111 72.1062 255.23 85.8723 255.23 101.6H265.23ZM308.63 56.8C321.514 56.8 331.603 61.2446 338.559 68.5483C345.552 75.8912 349.753 86.5231 350.031 99.5071L360.029 99.2929C359.707 84.2769 354.807 71.1088 345.8 61.6517C336.756 52.1554 323.945 46.8 308.63 46.8V56.8ZM355.03 94.4H280.83V104.4H355.03V94.4ZM275.83 99.4C275.83 111.062 276.787 123.915 282.114 133.945C284.841 139.08 288.738 143.531 294.211 146.66C299.659 149.774 306.357 151.4 314.43 151.4V141.4C307.702 141.4 302.8 140.051 299.174 137.978C295.571 135.919 292.918 132.97 290.946 129.255C286.872 121.585 285.83 110.938 285.83 99.4H275.83ZM314.43 151.4C329.722 151.4 347.076 141.36 355.906 126.792L347.354 121.608C340.183 133.44 325.938 141.4 314.43 141.4V151.4ZM351.63 129.2H353.03V119.2H351.63V129.2ZM348.437 122.223C342.649 135.672 325.863 144 311.23 144V154C328.597 154 349.81 144.328 357.622 126.177L348.437 122.223ZM311.23 144C297.533 144 286.049 139.815 278.051 132.61C270.111 125.457 265.23 114.998 265.23 101.6H255.23C255.23 117.602 261.148 130.843 271.358 140.04C281.511 149.185 295.526 154 311.23 154V144ZM309.63 48.8C295.982 48.8 287.868 57.846 283.231 67.6954C278.632 77.4657 276.869 89.0644 276.056 96.8833L286.003 97.9167C286.791 90.3356 288.428 80.1343 292.278 71.9546C296.092 63.854 301.477 58.8 309.63 58.8V48.8ZM281.03 102.4H335.43V92.4H281.03V102.4ZM340.426 97.2002C340.127 89.7221 339.426 78.0545 335.591 68.1671C333.654 63.1702 330.801 58.3126 326.507 54.6842C322.12 50.9764 316.515 48.8 309.63 48.8V58.8C314.245 58.8 317.54 60.1986 320.052 62.322C322.659 64.5248 324.706 67.7548 326.268 71.7829C329.434 79.9455 330.133 90.0779 330.434 97.5998L340.426 97.2002ZM428.03 147L426.982 142.111L428.03 152V147ZM435.43 143.6L438.43 147.6L438.518 147.534L438.603 147.464L435.43 143.6ZM435.43 11L438.684 7.20371L438.619 7.14858L438.553 7.09566L435.43 11ZM428.83 7.79999V2.79999L427.617 12.6507L428.83 7.79999ZM529.63 7.79999H534.63V2.79999H529.63V7.79999ZM529.63 28.6V33.6H534.63V28.6H529.63ZM528.43 28.6L523.672 30.1391L524.792 33.6H528.43V28.6ZM515.23 14.6L513.45 19.2724L513.469 19.2799L513.489 19.2871L515.23 14.6ZM461.43 9.79999V4.79999H456.43V9.79999H461.43ZM461.43 82.6H456.43V87.6H461.43V82.6ZM464.43 82.6V87.6H464.464L464.498 87.5995L464.43 82.6ZM504.23 63.2V58.2H499.642L499.248 62.7706L504.23 63.2ZM505.23 63.2H510.23V58.2H505.23V63.2ZM505.23 103.4V108.4H510.23V103.4H505.23ZM504.23 103.4L499.236 103.642L499.467 108.4H504.23V103.4ZM464.43 84.6L464.464 79.6001L464.447 79.6H464.43V84.6ZM461.43 84.6V79.6H456.43V84.6H461.43ZM461.43 120.2H456.43V120.3L456.434 120.4L461.43 120.2ZM463.23 134.8L468.133 133.819L468.093 133.621L468.037 133.426L463.23 134.8ZM473.63 144.8L473.463 149.797L473.475 149.798L473.63 144.8ZM536.03 125.2V120.2H531.961L531.134 124.184L536.03 125.2ZM537.23 125.2H542.23V120.2H537.23V125.2ZM537.23 147V152H542.23V147H537.23ZM429.077 151.889C432.601 151.134 435.464 149.824 438.43 147.6L432.43 139.6C430.595 140.976 429.058 141.666 426.982 142.111L429.077 151.889ZM438.603 147.464C440.191 146.159 441.196 144.376 441.868 142.842C442.575 141.225 443.125 139.38 443.567 137.488C444.453 133.699 445.028 129.177 445.411 124.729C446.181 115.803 446.23 106.522 446.23 102.6H436.23C436.23 106.478 436.179 115.397 435.448 123.871C435.082 128.123 434.557 132.101 433.83 135.212C433.466 136.77 433.081 137.975 432.706 138.833C432.294 139.774 432.068 139.891 432.256 139.736L438.603 147.464ZM446.23 102.6V45.6H436.23V102.6H446.23ZM446.23 45.6C446.23 41.6824 446.182 34.0055 445.402 26.6479C445.013 22.9798 444.426 19.2228 443.511 15.9774C442.663 12.9703 441.281 9.43018 438.684 7.20371L432.176 14.7963C432.174 14.795 432.244 14.8558 432.368 15.027C432.492 15.1973 432.646 15.4458 432.82 15.792C433.175 16.4966 433.539 17.4587 433.886 18.6913C434.584 21.1647 435.096 24.2952 435.458 27.7021C436.178 34.4945 436.23 41.7176 436.23 45.6H446.23ZM438.553 7.09566C435.917 4.98648 433.04 3.69878 430.042 2.94928L427.617 12.6507C429.419 13.1012 430.943 13.8135 432.306 14.9043L438.553 7.09566ZM428.83 12.8H529.63V2.79999H428.83V12.8ZM524.63 7.79999V28.6H534.63V7.79999H524.63ZM529.63 23.6H528.43V33.6H529.63V23.6ZM533.187 27.0609C530.557 18.9325 525.525 13.0904 516.971 9.91286L513.489 19.2871C518.934 21.3096 521.902 24.6674 523.672 30.1391L533.187 27.0609ZM517.01 9.92755C509.906 7.22137 498.991 6.00672 488.772 5.40853C478.357 4.79886 467.92 4.79999 461.43 4.79999V14.8C467.94 14.8 478.103 14.8011 488.188 15.3914C498.469 15.9933 507.953 17.1786 513.45 19.2724L517.01 9.92755ZM456.43 9.79999V82.6H466.43V9.79999H456.43ZM461.43 87.6H464.43V77.6H461.43V87.6ZM464.498 87.5995C471.951 87.4974 477.352 87.6895 482.711 87.6624C487.644 87.6375 492.207 87.4202 496.028 86.2203C500.191 84.9128 503.466 82.4491 505.679 78.3279C507.717 74.5307 508.696 69.6089 509.211 63.6294L499.248 62.7706C498.764 68.3911 497.917 71.6443 496.868 73.5971C495.994 75.2259 494.918 76.0871 493.032 76.6797C490.802 77.3798 487.615 77.6375 482.661 77.6626C478.132 77.6855 471.508 77.5026 464.361 77.6005L464.498 87.5995ZM504.23 68.2H505.23V58.2H504.23V68.2ZM500.23 63.2V103.4H510.23V63.2H500.23ZM505.23 98.4H504.23V108.4H505.23V98.4ZM509.224 103.158C508.96 97.714 508.087 93.0592 505.995 89.3458C503.767 85.3904 500.439 82.9909 496.353 81.6123C492.5 80.3126 487.892 79.8924 482.82 79.7276C477.74 79.5626 471.5 79.649 464.464 79.6001L464.395 89.5999C471.76 89.651 477.57 89.5624 482.496 89.7224C487.43 89.8826 490.784 90.2874 493.156 91.0877C495.295 91.8091 496.455 92.7846 497.283 94.2542C498.247 95.9658 499 98.786 499.236 103.642L509.224 103.158ZM464.43 79.6H461.43V89.6H464.43V79.6ZM456.43 84.6V120.2H466.43V84.6H456.43ZM456.434 120.4C456.634 125.396 457.04 131.338 458.422 136.174L468.037 133.426C467.019 129.862 466.626 125.004 466.426 120L456.434 120.4ZM458.327 135.781C458.814 138.217 460.341 141.421 462.586 144.078C464.857 146.764 468.513 149.632 473.463 149.797L473.796 139.803C472.746 139.768 471.503 139.136 470.223 137.622C468.918 136.079 468.245 134.383 468.133 133.819L458.327 135.781ZM473.475 149.798C483.1 150.095 498.127 150.529 511.36 148.092C517.981 146.873 524.527 144.874 529.828 141.514C535.238 138.085 539.491 133.129 540.925 126.216L531.134 124.184C530.369 127.871 528.147 130.74 524.475 133.068C520.695 135.463 515.553 137.152 509.549 138.258C497.532 140.471 483.559 140.105 473.784 139.802L473.475 149.798ZM536.03 130.2H537.23V120.2H536.03V130.2ZM532.23 125.2V147H542.23V125.2H532.23ZM537.23 142H428.03V152H537.23V142ZM639.556 130.8V125.8H636.744L635.284 128.203L639.556 130.8ZM641.556 130.8L645.959 133.171L649.927 125.8H641.556V130.8ZM564.956 101.4C564.956 88.2917 569.238 77.1709 576.553 69.3704C583.836 61.6056 594.428 56.8 607.756 56.8V46.8C591.884 46.8 578.577 52.5944 569.259 62.5296C559.975 72.4291 554.956 86.1083 554.956 101.4H564.956ZM607.756 56.8C611.889 56.8 619.445 57.5097 625.796 59.5585C628.983 60.5867 631.502 61.8379 633.136 63.2159C634.675 64.5139 635.156 65.6578 635.156 66.8H645.156C645.156 61.9422 642.713 58.2111 639.583 55.5716C636.548 53.0121 632.654 51.2633 628.866 50.0415C621.268 47.5903 612.624 46.8 607.756 46.8V56.8ZM635.156 66.8C635.156 67.2586 635.075 67.326 635.142 67.1894C635.224 67.0214 635.366 66.8749 635.478 66.8011C635.55 66.754 635.487 66.8168 635.164 66.8847C634.841 66.9524 634.38 67 633.756 67V77C635.763 77 638.57 76.7411 640.984 75.1489C643.802 73.2904 645.156 70.2715 645.156 66.8H635.156ZM633.756 67C632.987 67 632.468 66.8032 631.616 65.7873C630.446 64.3919 629.647 62.7135 627.921 59.8308C626.392 57.2786 624.312 54.182 621.063 51.7797C617.695 49.2894 613.432 47.8 607.956 47.8V57.8C611.481 57.8 613.617 58.7106 615.118 59.8203C616.738 61.018 617.995 62.7213 619.342 64.9692C620.49 66.8865 622.104 70.0081 623.953 72.2127C626.12 74.7967 629.226 77 633.756 77V67ZM607.956 47.8C600.773 47.8 594.91 49.9816 590.313 53.7961C585.803 57.5393 582.823 62.5923 580.828 67.8863C576.881 78.3552 576.356 90.9551 576.356 100H586.356C586.356 91.0449 586.931 80.0448 590.185 71.4137C591.789 67.1577 593.935 63.7857 596.699 61.4913C599.378 59.2684 602.94 57.8 607.956 57.8V47.8ZM576.356 100C576.356 109.146 577.688 121.527 582.232 131.819C586.835 142.244 595.239 151.4 609.356 151.4V141.4C600.673 141.4 595.078 136.156 591.38 127.781C587.624 119.273 586.356 108.454 586.356 100H576.356ZM609.356 151.4C622.483 151.4 636.523 145.416 643.829 133.397L635.284 128.203C630.189 136.584 619.83 141.4 609.356 141.4V151.4ZM639.556 135.8H641.556V125.8H639.556V135.8ZM637.154 128.429C631.336 139.234 619.679 144 606.556 144V154C621.833 154 637.777 148.366 645.959 133.171L637.154 128.429ZM606.556 144C582.91 144 564.956 124.635 564.956 101.4H554.956C554.956 129.765 577.003 154 606.556 154V144ZM707.534 144C694.646 144 684.191 139.502 676.952 132.023C669.7 124.529 665.334 113.685 665.334 100.4H655.334C655.334 115.915 660.469 129.371 669.767 138.977C679.078 148.598 692.222 154 707.534 154V144ZM665.334 100.4C665.334 87.405 669.608 76.531 676.729 68.9479C683.824 61.3928 694.025 56.8 706.534 56.8V46.8C691.444 46.8 678.544 52.4072 669.44 62.1021C660.361 71.769 655.334 85.195 655.334 100.4H665.334ZM706.534 56.8C719.331 56.8 729.844 61.255 737.157 68.7434C744.478 76.2395 748.934 87.1279 748.934 100.6H758.934C758.934 84.8721 753.691 71.3605 744.312 61.7565C734.925 52.145 721.737 46.8 706.534 46.8V56.8ZM748.934 100.6C748.934 113.929 744.692 124.724 737.615 132.151C730.56 139.554 720.321 144 707.534 144V154C722.748 154 735.709 148.646 744.854 139.049C753.977 129.476 758.934 116.071 758.934 100.6H748.934ZM706.734 48.4C699.232 48.4 693.191 50.8013 688.52 54.8603C683.948 58.8337 680.974 64.1415 679.008 69.573C675.111 80.3386 674.734 92.8598 674.734 100.4H684.734C684.734 92.9402 685.158 81.9614 688.411 72.977C690.019 68.5335 692.208 64.9038 695.08 62.4084C697.853 59.9987 701.537 58.4 706.734 58.4V48.4ZM674.734 100.4C674.734 108.216 675.32 120.741 679.442 131.468C681.521 136.879 684.609 142.127 689.251 146.044C693.985 150.037 700.051 152.4 707.534 152.4V142.4C702.318 142.4 698.559 140.813 695.699 138.4C692.748 135.91 690.473 132.296 688.777 127.882C685.348 118.959 684.734 107.984 684.734 100.4H674.734ZM707.534 152.4C714.98 152.4 720.99 150.028 725.649 146.012C730.212 142.079 733.196 136.82 735.178 131.424C739.106 120.73 739.534 108.257 739.534 100.6H729.534C729.534 108.143 729.063 119.07 725.791 127.976C724.173 132.38 721.982 135.971 719.12 138.438C716.354 140.822 712.689 142.4 707.534 142.4V152.4ZM739.534 100.6C739.534 92.7622 738.894 80.1974 734.751 69.4293C732.662 64.0016 729.573 58.7345 724.949 54.8009C720.231 50.7878 714.187 48.4 706.734 48.4V58.4C711.882 58.4 715.612 59.9872 718.47 62.4178C721.421 64.928 723.707 68.5734 725.418 73.0207C728.874 82.0026 729.534 93.0378 729.534 100.6H739.534ZM817.641 48.4L817.911 43.4073L817.884 43.4059L817.858 43.4047L817.641 48.4ZM845.441 54.6L850.436 54.3828L850.299 51.2425L847.41 50.0043L845.441 54.6ZM845.641 59.2H850.641V59.0914L850.636 58.9828L845.641 59.2ZM844.841 75L845.663 79.932L849.526 79.2882L849.826 75.3835L844.841 75ZM843.641 75.2L838.691 75.9071L839.415 80.9733L844.463 80.132L843.641 75.2ZM809.241 152L809.398 147.002L809.397 147.002L809.241 152ZM780.241 143L775.252 143.333L775.421 145.87L777.571 147.227L780.241 143ZM780.241 124.6L779.534 119.65L775.504 120.226L775.25 124.288L780.241 124.6ZM781.641 124.4L786.552 123.461L785.656 118.776L780.934 119.45L781.641 124.4ZM812.641 149.2L812.863 154.195L812.864 154.195L812.641 149.2ZM835.441 128L840.44 127.923L840.44 127.922L835.441 128ZM783.041 75.6C783.041 68.4036 786.991 62.842 793.509 58.9399C800.134 54.9739 809.03 53.0303 817.423 53.3953L817.858 43.4047C807.852 42.9697 796.948 45.2261 788.372 50.36C779.69 55.5579 773.041 63.9964 773.041 75.6H783.041ZM817.371 53.3927C824.286 53.7665 837.096 56.4635 843.471 59.1957L847.41 50.0043C839.785 46.7365 825.795 43.8335 817.911 43.4073L817.371 53.3927ZM840.445 54.8172L840.645 59.4172L850.636 58.9828L850.436 54.3828L840.445 54.8172ZM840.641 59.2C840.641 64.3777 840.257 69.3895 839.855 74.6165L849.826 75.3835C850.224 70.2105 850.641 64.8223 850.641 59.2H840.641ZM844.019 70.068L842.819 70.268L844.463 80.132L845.663 79.932L844.019 70.068ZM848.59 74.4929C846.447 59.4861 833.185 45.8 813.641 45.8V55.8C828.096 55.8 837.235 65.7139 838.691 75.9071L848.59 74.4929ZM813.641 45.8C799.852 45.8 789.241 57.0713 789.241 71.4H799.241C799.241 62.1287 805.829 55.8 813.641 55.8V45.8ZM789.241 71.4C789.241 80.0836 794.44 85.6351 800.585 89.4245C806.49 93.0667 814.319 95.724 821.165 98.3242C828.372 101.061 834.812 103.828 839.478 107.703C843.882 111.361 846.641 115.942 846.641 122.8H856.641C856.641 112.558 852.224 105.289 845.866 100.01C839.77 94.9468 831.859 91.6888 824.716 88.9758C817.212 86.126 810.691 83.9083 805.834 80.913C801.216 78.0649 799.241 75.2164 799.241 71.4H789.241ZM846.641 122.8C846.641 130.74 842.202 136.758 835.036 140.962C827.762 145.229 818.13 147.278 809.398 147.002L809.083 156.998C819.351 157.322 830.919 154.971 840.096 149.588C849.379 144.142 856.641 135.26 856.641 122.8H846.641ZM809.397 147.002C797.689 146.637 789.947 143.216 782.911 138.773L777.571 147.227C785.735 152.384 795.192 156.563 809.084 156.998L809.397 147.002ZM785.23 142.667C785.042 139.861 785.041 137.028 785.041 134H775.041C775.041 136.972 775.039 140.139 775.252 143.333L785.23 142.667ZM785.041 134C785.041 130.779 785.042 127.932 785.231 124.912L775.25 124.288C775.039 127.668 775.041 130.821 775.041 134H785.041ZM780.948 129.55L782.348 129.35L780.934 119.45L779.534 119.65L780.948 129.55ZM776.73 125.339C778.203 133.047 781.922 140.495 788.044 145.937C794.237 151.442 802.625 154.65 812.863 154.195L812.419 144.205C804.656 144.55 798.844 142.158 794.687 138.463C790.46 134.705 787.678 129.353 786.552 123.461L776.73 125.339ZM812.864 154.195C820.408 153.857 827.353 151.529 832.462 146.987C837.672 142.356 840.561 135.779 840.44 127.923L830.441 128.077C830.52 133.221 828.709 136.944 825.819 139.513C822.829 142.171 818.273 143.943 812.417 144.205L812.864 154.195ZM840.44 127.922C840.303 119.157 835.114 113.589 828.919 109.786C822.996 106.149 815.163 103.529 808.364 100.95C801.199 98.2318 794.824 95.4555 790.209 91.4961C785.858 87.763 783.041 82.9552 783.041 75.6H773.041C773.041 86.1448 777.348 93.637 783.697 99.0852C789.783 104.307 797.682 107.593 804.817 110.3C812.319 113.146 818.811 115.314 823.687 118.308C828.293 121.136 830.378 124.043 830.441 128.078L840.44 127.922ZM859.978 54V49L858.656 58.822L859.978 54ZM900.978 54L902.378 58.8L900.978 49V54ZM923.378 132L918.795 133.998L924.133 146.244L928.147 133.503L923.378 132ZM951.578 64.8L956.54 65.4202L956.54 65.4127L956.541 65.4053L951.578 64.8ZM936.178 54L936.209 49.0001L934.696 58.7753L936.178 54ZM968.578 54.2L970.279 58.9019L968.609 49.2001L968.578 54.2ZM945.178 93L940.638 90.9047L940.635 90.9114L940.632 90.9182L945.178 93ZM915.778 157.2L911.232 155.118L911.227 155.13L911.221 155.142L915.778 157.2ZM892.178 199.6L896.21 202.557L896.229 202.532L896.247 202.506L892.178 199.6ZM878.378 200.4L882.282 197.277L882.109 197.06L881.914 196.864L878.378 200.4ZM877.578 189.2L879.334 184.518L879.288 184.501L879.242 184.485L877.578 189.2ZM913.778 152.8L918.327 154.875L919.289 152.767L918.302 150.67L913.778 152.8ZM879.978 81L884.502 78.8704L884.485 78.8347L884.468 78.7992L879.978 81ZM859.978 59H900.978V49H859.978V59ZM899.578 49.2C896.185 50.1897 893.417 52.0947 891.58 54.9337C889.8 57.6852 889.178 60.8723 889.178 64H899.178C899.178 62.1277 899.556 61.0148 899.976 60.3662C900.339 59.8053 900.971 59.2103 902.378 58.8L899.578 49.2ZM889.178 64C889.178 68.9061 891.114 75.3816 893.589 81.8874C896.139 88.5896 899.545 96.0256 903.01 103.119C906.482 110.227 910.055 117.075 912.954 122.601C915.924 128.262 918.039 132.265 918.795 133.998L927.962 130.002C927.017 127.835 924.633 123.338 921.809 117.955C918.914 112.437 915.399 105.698 911.996 98.7305C908.586 91.7494 905.329 84.6229 902.936 78.3314C900.467 71.8434 899.178 66.8939 899.178 64H889.178ZM928.147 133.503C930.315 126.623 936.72 113.51 943.13 99.8487C946.27 93.1551 949.36 86.4264 951.771 80.5423C954.115 74.8197 956.047 69.3631 956.54 65.4202L946.617 64.1798C946.31 66.6369 944.891 70.9553 942.517 76.7515C940.209 82.3861 937.211 88.9199 934.077 95.6013C927.936 108.69 921.042 122.777 918.609 130.497L928.147 133.503ZM956.541 65.4053C956.936 62.1678 956.182 59.2662 954.407 56.9031C952.748 54.6953 950.48 53.3327 948.465 52.4338C946.431 51.5262 944.249 50.9171 942.404 50.448C940.379 49.9329 938.948 49.6243 937.66 49.2247L934.696 58.7753C936.308 59.2757 938.377 59.7421 939.939 60.1394C941.683 60.5829 943.175 61.0238 944.391 61.5662C945.626 62.1173 946.183 62.6047 946.412 62.9094C946.524 63.0588 946.72 63.3322 946.615 64.1947L956.541 65.4053ZM936.147 58.9999L968.547 59.1999L968.609 49.2001L936.209 49.0001L936.147 58.9999ZM966.877 49.4981C960.24 51.8989 956.041 58 952.518 64.7661C948.992 71.5392 945.248 80.9167 940.638 90.9047L949.718 95.0953C954.708 84.2833 957.964 75.9608 961.388 69.3839C964.816 62.8 967.516 59.901 970.279 58.9019L966.877 49.4981ZM940.632 90.9182L911.232 155.118L920.324 159.282L949.724 95.0818L940.632 90.9182ZM911.221 155.142C902.939 173.482 893.897 188.592 888.109 196.694L896.247 202.506C902.46 193.808 911.818 178.118 920.335 159.258L911.221 155.142ZM888.146 196.643C886.73 198.574 885.536 198.8 884.978 198.8V208.8C889.221 208.8 893.226 206.626 896.21 202.557L888.146 196.643ZM884.978 198.8C884.194 198.8 883.136 198.343 882.282 197.277L874.474 203.523C876.821 206.457 880.563 208.8 884.978 208.8V198.8ZM881.914 196.864C881.72 196.671 881.355 196.157 881.009 195.256C880.678 194.393 880.474 193.456 880.413 192.68C880.337 191.732 880.518 191.673 880.297 192.132C880.149 192.439 879.678 193.233 878.603 193.732C877.448 194.268 876.413 194.091 875.914 193.915L879.242 184.485C877.894 184.009 876.139 183.85 874.391 184.663C872.722 185.438 871.782 186.764 871.284 187.799C870.364 189.715 870.319 191.893 870.444 193.47C870.697 196.673 872 201.093 874.843 203.936L881.914 196.864ZM875.823 193.882C877.681 194.579 879.923 195.2 882.178 195.2V185.2C881.633 185.2 880.675 185.021 879.334 184.518L875.823 193.882ZM882.178 195.2C889.918 195.2 896.504 190.018 902.018 183.192C907.661 176.204 913.067 166.407 918.327 154.875L909.229 150.725C904.089 161.993 899.095 170.896 894.238 176.908C889.252 183.082 885.239 185.2 882.178 185.2V195.2ZM918.302 150.67L884.502 78.8704L875.454 83.1296L909.254 154.93L918.302 150.67ZM884.468 78.7992C883.305 76.4278 882.285 73.8772 881.104 71.0369C879.96 68.2836 878.684 65.31 877.117 62.509C873.938 56.8259 869.284 51.367 861.3 49.178L858.656 58.822C863.073 60.033 865.919 62.9741 868.389 67.391C869.648 69.64 870.734 72.1414 871.871 74.8756C872.971 77.5228 874.151 80.4722 875.489 83.2008L884.468 78.7992ZM1019.67 48.4L1019.94 43.4073L1019.92 43.4059L1019.89 43.4047L1019.67 48.4ZM1047.47 54.6L1052.47 54.3828L1052.33 51.2425L1049.44 50.0043L1047.47 54.6ZM1047.67 59.2H1052.67V59.0914L1052.67 58.9828L1047.67 59.2ZM1046.87 75L1047.69 79.932L1051.56 79.2882L1051.86 75.3835L1046.87 75ZM1045.67 75.2L1040.72 75.9071L1041.45 80.9733L1046.49 80.132L1045.67 75.2ZM1011.27 152L1011.43 147.002L1011.43 147.002L1011.27 152ZM982.272 143L977.283 143.333L977.452 145.87L979.602 147.227L982.272 143ZM982.272 124.6L981.565 119.65L977.536 120.226L977.282 124.288L982.272 124.6ZM983.672 124.4L988.583 123.461L987.687 118.776L982.965 119.45L983.672 124.4ZM1014.67 149.2L1014.89 154.195L1014.9 154.195L1014.67 149.2ZM1037.47 128L1042.47 127.923L1042.47 127.922L1037.47 128ZM985.072 75.6C985.072 68.4036 989.022 62.842 995.54 58.9399C1002.16 54.9739 1011.06 53.0303 1019.45 53.3953L1019.89 43.4047C1009.88 42.9697 998.979 45.2261 990.404 50.36C981.721 55.5579 975.072 63.9964 975.072 75.6H985.072ZM1019.4 53.3927C1026.32 53.7665 1039.13 56.4635 1045.5 59.1957L1049.44 50.0043C1041.82 46.7365 1027.83 43.8335 1019.94 43.4073L1019.4 53.3927ZM1042.48 54.8172L1042.68 59.4172L1052.67 58.9828L1052.47 54.3828L1042.48 54.8172ZM1042.67 59.2C1042.67 64.3777 1042.29 69.3895 1041.89 74.6165L1051.86 75.3835C1052.26 70.2105 1052.67 64.8223 1052.67 59.2H1042.67ZM1046.05 70.068L1044.85 70.268L1046.49 80.132L1047.69 79.932L1046.05 70.068ZM1050.62 74.4929C1048.48 59.4861 1035.22 45.8 1015.67 45.8V55.8C1030.13 55.8 1039.27 65.7139 1040.72 75.9071L1050.62 74.4929ZM1015.67 45.8C1001.88 45.8 991.272 57.0713 991.272 71.4H1001.27C1001.27 62.1287 1007.86 55.8 1015.67 55.8V45.8ZM991.272 71.4C991.272 80.0836 996.472 85.6351 1002.62 89.4245C1008.52 93.0667 1016.35 95.724 1023.2 98.3242C1030.4 101.061 1036.84 103.828 1041.51 107.703C1045.91 111.361 1048.67 115.942 1048.67 122.8H1058.67C1058.67 112.558 1054.26 105.289 1047.9 100.01C1041.8 94.9468 1033.89 91.6888 1026.75 88.9758C1019.24 86.126 1012.72 83.9083 1007.87 80.913C1003.25 78.0649 1001.27 75.2164 1001.27 71.4H991.272ZM1048.67 122.8C1048.67 130.74 1044.23 136.758 1037.07 140.962C1029.79 145.229 1020.16 147.278 1011.43 147.002L1011.11 156.998C1021.38 157.322 1032.95 154.971 1042.13 149.588C1051.41 144.142 1058.67 135.26 1058.67 122.8H1048.67ZM1011.43 147.002C999.721 146.637 991.978 143.216 984.942 138.773L979.602 147.227C987.766 152.384 997.223 156.563 1011.12 156.998L1011.43 147.002ZM987.261 142.667C987.074 139.861 987.072 137.028 987.072 134H977.072C977.072 136.972 977.07 140.139 977.283 143.333L987.261 142.667ZM987.072 134C987.072 130.779 987.073 127.932 987.262 124.912L977.282 124.288C977.07 127.668 977.072 130.821 977.072 134H987.072ZM982.979 129.55L984.379 129.35L982.965 119.45L981.565 119.65L982.979 129.55ZM978.761 125.339C980.234 133.047 983.953 140.495 990.075 145.937C996.268 151.442 1004.66 154.65 1014.89 154.195L1014.45 144.205C1006.69 144.55 1000.88 142.158 996.719 138.463C992.491 134.705 989.709 129.353 988.583 123.461L978.761 125.339ZM1014.9 154.195C1022.44 153.857 1029.38 151.529 1034.49 146.987C1039.7 142.356 1042.59 135.779 1042.47 127.923L1032.47 128.077C1032.55 133.221 1030.74 136.944 1027.85 139.513C1024.86 142.171 1020.3 143.943 1014.45 144.205L1014.9 154.195ZM1042.47 127.922C1042.33 119.157 1037.14 113.589 1030.95 109.786C1025.03 106.149 1017.19 103.529 1010.4 100.95C1003.23 98.2318 996.855 95.4555 992.24 91.4961C987.89 87.763 985.072 82.9552 985.072 75.6H975.072C975.072 86.1448 979.379 93.637 985.728 99.0852C991.814 104.307 999.714 107.593 1006.85 110.3C1014.35 113.146 1020.84 115.314 1025.72 118.308C1030.32 121.136 1032.41 124.043 1032.47 128.078L1042.47 127.922ZM1069.81 53.2L1069.65 48.2024L1064.81 48.3538V53.2H1069.81ZM1099.81 21V16H1095.18L1094.82 20.6116L1099.81 21ZM1109.21 21H1114.21V16H1109.21V21ZM1109.21 52.2H1104.21V57.2H1109.21V52.2ZM1136.01 52.2H1141.01V47.2H1136.01V52.2ZM1136.01 55.2V60.2H1141.01V55.2H1136.01ZM1109.21 55.2V50.2H1104.21V55.2H1109.21ZM1134.41 130L1137.7 126.237L1131.45 120.763L1129.54 128.855L1134.41 130ZM1136.01 131.4L1140.43 133.735L1142.28 130.24L1139.3 127.637L1136.01 131.4ZM1090.41 55.2H1095.41V50.2H1090.41V55.2ZM1069.81 55.2H1064.81V60.2H1069.81V55.2ZM1069.97 58.1976C1083.9 57.7621 1092.79 53.0801 1098.08 45.4113C1103.07 38.1695 1104.2 29.0705 1104.79 21.3884L1094.82 20.6116C1094.22 28.3295 1093.15 34.9305 1089.84 39.7387C1086.82 44.1198 1081.32 47.8379 1069.65 48.2024L1069.97 58.1976ZM1099.81 26H1109.21V16H1099.81V26ZM1104.21 21V52.2H1114.21V21H1104.21ZM1109.21 57.2H1136.01V47.2H1109.21V57.2ZM1131.01 52.2V55.2H1141.01V52.2H1131.01ZM1136.01 50.2H1109.21V60.2H1136.01V50.2ZM1104.21 55.2V132.2H1114.21V55.2H1104.21ZM1104.21 132.2C1104.21 137.015 1105.23 141.198 1107.67 144.267C1110.26 147.507 1113.86 148.8 1117.41 148.8V138.8C1116.36 138.8 1115.86 138.493 1115.49 138.033C1114.99 137.402 1114.21 135.785 1114.21 132.2H1104.21ZM1117.41 148.8C1122.27 148.8 1127.2 146.34 1130.92 143.343C1134.66 140.328 1138.13 135.998 1139.28 131.145L1129.54 128.855C1129.08 130.802 1127.36 133.372 1124.65 135.557C1121.91 137.76 1119.15 138.8 1117.41 138.8V148.8ZM1131.12 133.763L1132.72 135.163L1139.3 127.637L1137.7 126.237L1131.12 133.763ZM1131.59 129.065C1127.24 137.305 1123.07 140.781 1119.77 142.369C1116.39 143.992 1113.27 144 1109.81 144V154C1113.15 154 1118.43 154.108 1124.1 151.381C1129.85 148.619 1135.38 143.295 1140.43 133.735L1131.59 129.065ZM1109.81 144C1106.18 144 1102.5 142.456 1099.72 139.926C1096.94 137.39 1095.41 134.208 1095.41 131.2H1085.41C1085.41 137.592 1088.58 143.31 1092.99 147.324C1097.41 151.344 1103.43 154 1109.81 154V144ZM1095.41 131.2V55.2H1085.41V131.2H1095.41ZM1090.41 50.2H1069.81V60.2H1090.41V50.2ZM1074.81 55.2V53.2H1064.81V55.2H1074.81ZM1250.69 99.4V104.4H1255.8L1255.69 99.2929L1250.69 99.4ZM1176.49 99.4V94.4H1171.49V99.4H1176.49ZM1247.29 124.2V119.2H1244.48L1243.02 121.608L1247.29 124.2ZM1248.69 124.2L1253.29 126.177L1256.29 119.2H1248.69V124.2ZM1176.69 97.4L1171.72 96.8833L1171.15 102.4H1176.69V97.4ZM1231.09 97.4V102.4H1236.3L1236.09 97.2002L1231.09 97.4ZM1160.89 101.6C1160.89 87.9277 1165.11 76.7938 1172.4 69.1163C1179.65 61.4726 1190.37 56.8 1204.29 56.8V46.8C1188.02 46.8 1174.54 52.3274 1165.14 62.2337C1155.78 72.1062 1150.89 85.8723 1150.89 101.6H1160.89ZM1204.29 56.8C1217.18 56.8 1227.27 61.2446 1234.22 68.5483C1241.22 75.8912 1245.42 86.5231 1245.69 99.5071L1255.69 99.2929C1255.37 84.2769 1250.47 71.1088 1241.46 61.6517C1232.42 52.1554 1219.61 46.8 1204.29 46.8V56.8ZM1250.69 94.4H1176.49V104.4H1250.69V94.4ZM1171.49 99.4C1171.49 111.062 1172.45 123.915 1177.78 133.945C1180.5 139.08 1184.4 143.531 1189.87 146.66C1195.32 149.774 1202.02 151.4 1210.09 151.4V141.4C1203.37 141.4 1198.46 140.051 1194.84 137.978C1191.24 135.919 1188.58 132.97 1186.61 129.255C1182.54 121.585 1181.49 110.938 1181.49 99.4H1171.49ZM1210.09 151.4C1225.39 151.4 1242.74 141.36 1251.57 126.792L1243.02 121.608C1235.85 133.44 1221.6 141.4 1210.09 141.4V151.4ZM1247.29 129.2H1248.69V119.2H1247.29V129.2ZM1244.1 122.223C1238.31 135.672 1221.53 144 1206.89 144V154C1224.26 154 1245.47 144.328 1253.29 126.177L1244.1 122.223ZM1206.89 144C1193.2 144 1181.71 139.815 1173.72 132.61C1165.78 125.457 1160.89 114.998 1160.89 101.6H1150.89C1150.89 117.602 1156.81 130.843 1167.02 140.04C1177.17 149.185 1191.19 154 1206.89 154V144ZM1205.29 48.8C1191.65 48.8 1183.53 57.846 1178.89 67.6954C1174.3 77.4657 1172.53 89.0644 1171.72 96.8833L1181.67 97.9167C1182.45 90.3356 1184.09 80.1343 1187.94 71.9546C1191.76 63.854 1197.14 58.8 1205.29 58.8V48.8ZM1176.69 102.4H1231.09V92.4H1176.69V102.4ZM1236.09 97.2002C1235.79 89.7221 1235.09 78.0545 1231.26 68.1671C1229.32 63.1702 1226.46 58.3126 1222.17 54.6842C1217.78 50.9764 1212.18 48.8 1205.29 48.8V58.8C1209.91 58.8 1213.2 60.1986 1215.72 62.322C1218.32 64.5248 1220.37 67.7548 1221.93 71.7829C1225.1 79.9455 1225.8 90.0779 1226.1 97.5998L1236.09 97.2002ZM1276.39 60.6L1281 58.6693L1280.8 58.1732L1280.49 57.7327L1276.39 60.6ZM1264.99 53.4L1264.53 48.4215L1263.97 58.2949L1264.99 53.4ZM1297.79 51.8H1302.79V46.8H1297.79V51.8ZM1297.79 66.6H1292.79V80.0247L1301.57 69.8708L1297.79 66.6ZM1357.99 67.2L1353.54 69.4696L1357.02 76.3035L1361.86 70.3606L1357.99 67.2ZM1427.79 142.2L1423.36 144.513L1423.44 144.67L1423.53 144.82L1427.79 142.2ZM1434.39 147V152L1435.86 142.221L1434.39 147ZM1397.19 147L1395.82 142.192L1397.19 152V147ZM1403.99 142L1408.46 144.236L1408.5 144.16L1408.54 144.083L1403.99 142ZM1406.39 113.2H1411.39V113.179L1411.39 113.158L1406.39 113.2ZM1406.19 89.6H1401.19V89.6212L1401.19 89.6424L1406.19 89.6ZM1358.99 69.4L1355 66.3828L1353.28 68.666L1354.37 71.3118L1358.99 69.4ZM1365.39 142.2L1369.93 140.105L1369.88 139.995L1369.82 139.887L1365.39 142.2ZM1371.79 147V152L1373.26 142.221L1371.79 147ZM1334.79 147L1333.32 142.221L1334.79 152V147ZM1341.39 142L1345.73 144.481L1345.8 144.36L1345.86 144.236L1341.39 142ZM1344.39 113.2H1349.39V113.167L1349.39 113.133L1344.39 113.2ZM1297.79 70.2L1293.66 67.3766L1292.79 68.6532V70.2H1297.79ZM1299.99 142.2L1295.48 144.357L1295.62 144.64L1295.78 144.904L1299.99 142.2ZM1307.59 147V152L1308.57 142.097L1307.59 147ZM1268.99 147L1268.01 142.097L1268.99 152V147ZM1276.59 142L1280.88 144.572L1281.01 144.346L1281.13 144.106L1276.59 142ZM1280.49 57.7327C1276.84 52.5264 1271.85 49.7209 1266.01 48.5051L1263.97 58.2949C1267.73 59.079 1270.34 60.6736 1272.29 63.4673L1280.49 57.7327ZM1265.45 58.3785C1273.93 57.5901 1288.37 56.8 1297.79 56.8V46.8C1288.01 46.8 1273.25 47.6099 1264.53 48.4215L1265.45 58.3785ZM1292.79 51.8V66.6H1302.79V51.8H1292.79ZM1301.57 69.8708C1304.39 66.6187 1308.53 63.1378 1313.27 60.4928C1318.04 57.8376 1323.1 56.2 1327.79 56.2V46.2C1320.88 46.2 1314.14 48.5624 1308.41 51.7572C1302.65 54.9622 1297.6 59.1813 1294.01 63.3292L1301.57 69.8708ZM1327.79 56.2C1341.21 56.2 1349.19 60.9463 1353.54 69.4696L1362.45 64.9304C1355.99 52.2536 1343.97 46.2 1327.79 46.2V56.2ZM1361.86 70.3606C1364.55 67.0669 1368.72 63.458 1373.57 60.6937C1378.43 57.9191 1383.63 56.2 1388.39 56.2V46.2C1381.36 46.2 1374.45 48.6809 1368.61 52.0063C1362.76 55.342 1357.63 59.7331 1354.12 64.0394L1361.86 70.3606ZM1388.39 56.2C1398.66 56.2 1406.5 60.0104 1411.8 65.803C1417.17 71.6538 1420.19 79.8049 1420.19 88.8H1430.19C1430.19 77.5951 1426.42 66.9462 1419.18 59.047C1411.89 51.0896 1401.32 46.2 1388.39 46.2V56.2ZM1420.19 88.8V115H1430.19V88.8H1420.19ZM1420.19 115C1420.19 118.036 1420.24 123.811 1420.6 129.444C1420.78 132.255 1421.04 135.114 1421.43 137.619C1421.79 139.952 1422.35 142.572 1423.36 144.513L1432.22 139.887C1432.04 139.528 1431.66 138.348 1431.31 136.087C1430.99 133.998 1430.75 131.47 1430.58 128.806C1430.24 123.489 1430.19 117.964 1430.19 115H1420.19ZM1423.53 144.82C1425.96 148.767 1429.57 150.747 1432.92 151.779L1435.86 142.221C1434.02 141.653 1432.82 140.833 1432.05 139.58L1423.53 144.82ZM1434.39 142H1397.19V152H1434.39V142ZM1398.56 151.808C1401.98 150.833 1406.16 148.841 1408.46 144.236L1399.52 139.764C1399.02 140.759 1398.01 141.567 1395.82 142.192L1398.56 151.808ZM1408.54 144.083C1409.43 142.14 1409.92 139.463 1410.25 137.013C1410.6 134.391 1410.84 131.379 1411.01 128.404C1411.34 122.442 1411.39 116.336 1411.39 113.2H1401.39C1401.39 116.264 1401.34 122.158 1401.02 127.846C1400.86 130.696 1400.64 133.421 1400.34 135.681C1400.01 138.112 1399.65 139.46 1399.45 139.917L1408.54 144.083ZM1411.39 113.158L1411.19 89.5576L1401.19 89.6424L1401.39 113.242L1411.39 113.158ZM1411.19 89.6C1411.19 83.7601 1411.39 74.1322 1408.81 66.0083C1407.48 61.8531 1405.32 57.694 1401.69 54.5664C1397.98 51.3617 1393.14 49.6 1387.19 49.6V59.6C1391.04 59.6 1393.48 60.6883 1395.16 62.1398C1396.94 63.6685 1398.3 65.9719 1399.28 69.0417C1401.29 75.3678 1401.19 83.2399 1401.19 89.6H1411.19ZM1387.19 49.6C1380.62 49.6 1374.13 51.7919 1368.63 54.8584C1363.13 57.9265 1358.27 62.0622 1355 66.3828L1362.98 72.4172C1365.31 69.3378 1369.05 66.0735 1373.5 63.5916C1377.95 61.1081 1382.77 59.6 1387.19 59.6V49.6ZM1354.37 71.3118C1356.45 76.3382 1357.59 82.6466 1357.59 90.8H1367.59C1367.59 81.7534 1366.33 74.0618 1363.61 67.4882L1354.37 71.3118ZM1357.59 90.8V115H1367.59V90.8H1357.59ZM1357.59 115C1357.59 118.077 1357.69 123.856 1358.1 129.489C1358.31 132.302 1358.6 135.158 1359.01 137.659C1359.39 139.992 1359.96 142.592 1360.96 144.513L1369.82 139.887C1369.63 139.508 1369.24 138.308 1368.88 136.047C1368.53 133.955 1368.27 131.423 1368.08 128.761C1367.69 123.444 1367.59 117.923 1367.59 115H1357.59ZM1360.85 144.295C1362.95 148.849 1367.27 150.84 1370.32 151.779L1373.26 142.221C1371.11 141.56 1370.23 140.751 1369.93 140.105L1360.85 144.295ZM1371.79 142H1334.79V152H1371.79V142ZM1336.26 151.779C1339.66 150.734 1343.31 148.712 1345.73 144.481L1337.05 139.519C1336.27 140.888 1335.12 141.666 1333.32 142.221L1336.26 151.779ZM1345.86 144.236C1346.84 142.29 1347.41 139.603 1347.81 137.143C1348.23 134.513 1348.55 131.493 1348.78 128.51C1349.24 122.54 1349.39 116.41 1349.39 113.2H1339.39C1339.39 116.19 1339.24 122.06 1338.81 127.74C1338.59 130.582 1338.3 133.299 1337.94 135.551C1337.55 137.972 1337.15 139.31 1336.92 139.764L1345.86 144.236ZM1349.39 113.133C1349.3 106.217 1350.2 90.7717 1348.42 77.6059C1347.53 70.9848 1345.89 64.2523 1342.73 59.049C1339.41 53.5988 1334.22 49.6 1326.79 49.6V59.6C1329.96 59.6 1332.24 61.0512 1334.18 64.2447C1336.28 67.6852 1337.68 72.7902 1338.51 78.9441C1340.18 91.3283 1339.28 105.183 1339.39 113.267L1349.39 113.133ZM1326.79 49.6C1319.89 49.6 1313.09 51.9565 1307.41 55.2114C1301.73 58.4605 1296.77 62.8396 1293.66 67.3766L1301.92 73.0234C1304.01 69.9603 1307.75 66.5395 1312.38 63.8886C1316.99 61.2435 1322.09 59.6 1326.79 59.6V49.6ZM1292.79 70.2V117.2H1302.79V70.2H1292.79ZM1292.79 117.2C1292.79 120.09 1292.79 125.32 1293.07 130.427C1293.22 132.978 1293.43 135.581 1293.77 137.895C1294.09 140.079 1294.59 142.488 1295.48 144.357L1304.5 140.043C1304.3 139.612 1303.96 138.471 1303.67 136.442C1303.39 134.544 1303.19 132.272 1303.06 129.873C1302.79 125.08 1302.79 120.11 1302.79 117.2H1292.79ZM1295.78 144.904C1298.54 149.187 1302.74 151.13 1306.61 151.903L1308.57 142.097C1306.44 141.67 1305.04 140.813 1304.2 139.496L1295.78 144.904ZM1307.59 142H1268.99V152H1307.59V142ZM1269.97 151.903C1273.88 151.122 1278.14 149.142 1280.88 144.572L1272.3 139.428C1271.44 140.858 1270.1 141.678 1268.01 142.097L1269.97 151.903ZM1281.13 144.106C1282.07 142.062 1282.65 139.507 1283.03 137.064C1283.43 134.532 1283.69 131.728 1283.86 128.98C1284.19 123.482 1284.19 117.888 1284.19 114.6H1274.19C1274.19 117.912 1274.19 123.218 1273.87 128.37C1273.72 130.947 1273.49 133.405 1273.15 135.505C1272.81 137.693 1272.41 139.138 1272.06 139.894L1281.13 144.106ZM1284.19 114.6C1284.19 101.538 1284.39 90.0016 1284.14 80.7881C1283.89 71.7617 1283.21 63.9513 1281 58.6693L1271.78 62.5307C1273.17 65.8487 1273.89 71.8383 1274.14 81.0619C1274.39 90.0984 1274.19 101.262 1274.19 114.6H1284.19Z" fill="black"/>
</svg>
