<svg width="1012" height="397" viewBox="0 0 1012 397" fill="none" xmlns="http://www.w3.org/2000/svg">
<path d="M118.923 149C72.5234 149 43.5234 119 43.5234 77.4C43.5234 35.6 72.9234 6.4 118.723 5.79999H120.123C151.923 5.79999 169.323 17.8 181.723 27V58.6L178.523 58.8C177.923 24.6 141.723 7.79999 118.723 7.79999C80.5234 7.79999 67.3234 42.6 67.3234 77C67.3234 111.4 80.3234 146.6 116.723 146.6C146.323 146.6 176.123 122.4 181.323 95.4L184.923 96.8C180.523 122 153.123 148.6 120.123 149H118.923ZM242.472 149C214.272 149 195.272 129.2 195.272 100.4C195.272 72.2 213.872 51.8 241.472 51.8C269.472 51.8 288.872 71.4 288.872 100.6C288.872 129.4 270.472 149 242.472 149ZM241.672 53.4C216.272 53.4 214.672 85.4 214.672 100.4C214.672 115.8 217.072 147.4 242.472 147.4C267.672 147.4 269.472 115.8 269.472 100.6C269.472 85.2 266.872 53.4 241.672 53.4ZM293.653 1.8H293.853C302.053 0.999996 316.053 0.399992 324.453 0.399992V113.2C324.453 119.8 324.453 136.4 327.053 141.8C328.853 144.8 331.653 146.2 334.453 147H296.053C298.653 146.2 301.653 144.8 303.253 142C306.053 136.8 306.253 119.8 306.253 113.2V35.4C306.253 29.8 306.253 11 303.453 7.19999C302.653 5.4 301.653 4.79999 300.053 3.99999L299.853 3.8C297.853 2.59999 296.253 2 293.653 1.8ZM349.317 1.8H349.517C357.717 0.999996 371.717 0.399992 380.117 0.399992V113.2C380.117 119.8 380.117 136.4 382.717 141.8C384.517 144.8 387.317 146.2 390.117 147H351.717C354.317 146.2 357.317 144.8 358.917 142C361.717 136.8 361.917 119.8 361.917 113.2V35.4C361.917 29.8 361.917 11 359.117 7.19999C358.317 5.4 357.317 4.79999 355.717 3.99999L355.517 3.8C353.517 2.59999 351.917 2 349.317 1.8ZM404.698 101.6C404.698 72.2 422.898 51.8 453.098 51.8C481.298 51.8 498.898 71.4 499.498 99.4H425.298C425.298 122.6 429.298 146.4 458.898 146.4C472.298 146.4 488.098 137.4 496.098 124.2H497.498C490.698 140 471.698 149 455.698 149C426.298 149 404.698 131 404.698 101.6ZM454.098 53.8C432.298 53.8 427.098 82 425.498 97.4H479.898C479.298 82.4 477.098 53.8 454.098 53.8ZM508.995 101.4C508.995 73 527.595 51.8 556.795 51.8C565.795 51.8 589.195 54.8 589.195 66.8C589.195 71 586.195 72 582.795 72C572.195 72 574.995 52.8 556.995 52.8C532.595 52.8 530.395 82 530.395 100C530.395 117.6 535.595 146.4 558.395 146.4C570.195 146.4 582.395 141 588.595 130.8H590.595C583.595 143.8 569.795 149 555.595 149C528.995 149 508.995 127.2 508.995 101.4ZM598.731 53.2C624.331 52.4 627.531 36.4 628.731 21H638.131V52.2H664.931V55.2H638.131V132.2C638.131 140.6 641.731 143.8 646.331 143.8C652.931 143.8 661.731 136.8 663.331 130L664.931 131.4C655.531 149.2 645.531 149 638.731 149C628.731 149 619.331 140.6 619.331 131.2V55.2H598.731V53.2ZM683.216 60.6C680.616 56.6 676.816 54.4 672.216 53.4C680.616 52.6 695.216 51.8 704.616 51.8L704.816 89.4L704.616 117.2C704.616 123 704.616 137.6 707.216 142.2C708.816 145 711.616 146.4 714.416 147H676.016C679.216 146.4 681.816 145 683.416 142C686.416 136.4 686.416 121.2 686.416 114.6C686.416 88.2 687.216 69.2 683.216 60.6ZM694.016 33C687.416 33 682.216 27.6 682.216 21.2C682.216 15.2 687.416 9.99999 694.016 9.99999C701.016 9.99999 706.216 15.2 706.216 21.2C706.216 27.6 701.016 33 694.016 33ZM717.494 54H758.494C753.694 55.4 751.694 59 751.694 64C751.694 79.6 777.494 132.2 780.894 140C785.494 125.4 807.494 77.6 809.094 64.8C810.094 56.6 799.494 55.8 793.894 54L826.094 54.2C816.694 57.6 811.094 71.6 802.694 93L780.894 147.6H765.494L737.494 81C733.294 70.8 729.894 57.4 717.494 54ZM822.277 101.6C822.277 72.2 840.477 51.8 870.677 51.8C898.877 51.8 916.477 71.4 917.077 99.4H842.877C842.877 122.6 846.877 146.4 876.477 146.4C889.877 146.4 905.677 137.4 913.677 124.2H915.077C908.277 140 889.277 149 873.277 149C843.877 149 822.277 131 822.277 101.6ZM871.677 53.8C849.877 53.8 844.677 82 843.077 97.4H897.477C896.877 82.4 894.677 53.8 871.677 53.8ZM48.643 395H0.042969C2.84297 394.4 5.44297 393.4 7.44297 391.6C10.643 389 12.243 379.6 12.643 371.4C13.243 362.6 13.243 353.6 13.243 350.6V293.6C13.243 285.8 13.043 263.8 7.44297 259C5.84297 257.4 3.24297 256.4 0.842969 255.8H101.243V276H99.843C97.843 269.6 92.443 265.2 85.443 262.6C73.043 258 46.443 257.8 33.443 257.8V330.6H38.643C67.843 330.2 76.243 334.4 78.243 311.2H79.243V351.6H78.243C77.243 331 67.443 332.8 38.643 332.6H33.443V350.6C33.443 353.8 33.443 361 33.643 368C34.043 376.2 35.043 391 44.643 394.2H44.443C45.043 394.2 45.843 394.4 46.243 394.6C46.843 394.8 47.643 394.8 48.643 395ZM113.315 301.4C124.315 300.4 135.115 299.8 145.915 299.8C145.915 307.8 145.915 315.8 146.115 323.6C149.715 311.4 161.515 300.6 174.915 300.6C179.715 300.6 188.315 302.2 188.315 308.2C188.315 312.4 185.715 315 182.515 315C174.515 315.2 173.515 307.4 164.115 308.2C149.915 309.4 146.315 338.4 145.915 348.2C145.715 362.2 145.715 385.4 148.515 390.2C150.115 392.8 152.715 394.4 155.715 395H117.315C120.515 394.4 123.315 392.8 124.715 390C128.715 383.6 127.715 350.4 127.715 341.2C127.715 334.8 127.915 313.8 124.515 308.6C122.315 304.8 117.715 302.4 113.315 301.4ZM240.645 395C210.245 395.2 194.045 386.6 194.045 366.8C194.045 346.8 214.045 336.6 242.045 337.4C247.445 337.6 253.045 339 257.245 340.2V332.8C257.245 318.6 255.445 301.2 236.045 301.2C225.845 301.2 222.045 307 219.445 312.6C219.045 313.2 218.845 313.8 218.445 314.4C218.245 315.2 217.845 315.8 217.245 316.4C216.645 317.4 216.245 318.4 215.445 319.4C214.445 321 212.845 322 209.845 322C205.645 322 203.645 320 203.645 316C203.645 303.6 228.645 299.8 238.045 299.8C246.445 299.8 260.445 302.2 266.845 307.6C273.245 313.8 275.445 322.2 275.445 330.8L275.245 366.8C275.245 373.2 275.445 385.8 277.645 390.2C279.445 393 282.045 394.4 284.845 395H240.645ZM241.645 339C216.045 339 211.645 353.4 211.645 366.8C211.645 380.2 215.245 393.8 240.645 393.8C244.845 393.8 250.845 393.8 253.645 390.8C253.645 390.6 253.845 390.4 254.045 390C256.445 385.2 256.845 373 256.845 365.4L257.045 341.4C253.245 340.4 248.045 339 241.645 339ZM300.84 308.6C298.04 304.6 294.24 302.4 289.44 301.4C298.04 300.6 312.64 299.8 322.24 299.8V314.6C328.64 307.2 340.64 299.2 352.24 299.2C367.04 299.2 377.04 304.6 382.44 315.2C388.64 307.6 401.04 299.2 412.84 299.2C436.04 299.2 449.64 316.6 449.64 336.8V363C449.64 369 449.84 385.6 452.24 390.2C453.84 392.8 456.24 394.2 458.84 395H421.64C424.44 394.2 427.04 392.8 428.44 390C430.64 385.2 430.84 367.4 430.84 361.2L430.64 337.6C430.64 325.4 431.24 302.6 411.64 302.6C400.64 302.6 389.04 310 383.44 317.4C385.84 323.2 387.04 330.2 387.04 338.8V363C387.04 369 387.44 385.6 389.84 390.2C391.04 392.8 393.64 394.2 396.24 395H359.24C361.84 394.2 364.24 392.8 365.84 390C368.24 385.2 368.84 367.4 368.84 361.2C368.64 346.2 372.44 302.6 351.24 302.6C339.64 302.6 327.44 310.6 322.24 318.2V365.2C322.24 371 322.24 385.6 324.44 390.2C326.24 393 329.04 394.4 332.04 395H293.44C296.44 394.4 299.24 393 301.04 390C303.64 384.4 303.64 369.2 303.64 362.6C303.64 336.2 304.44 317.2 300.84 308.6ZM466.905 349.6C466.905 320.2 485.105 299.8 515.305 299.8C543.505 299.8 561.105 319.4 561.705 347.4H487.505C487.505 370.6 491.505 394.4 521.105 394.4C534.505 394.4 550.305 385.4 558.305 372.2H559.705C552.905 388 533.905 397 517.905 397C488.505 397 466.905 379 466.905 349.6ZM516.305 301.8C494.505 301.8 489.305 330 487.705 345.4H542.105C541.505 330.4 539.305 301.8 516.305 301.8ZM558.802 302H598.602C593.802 303.4 591.802 307 591.802 312C591.802 327.6 616.802 380.2 619.602 388C623.202 376.8 636.402 346.2 643.002 326.8C639.402 316.8 636.202 305.2 624.802 302H664.802C659.802 303.4 658.002 307 658.002 312C658.002 327.6 683.002 380.2 686.002 388C690.402 373.4 711.602 325.6 713.202 312.8C714.202 304.6 704.202 303.8 698.402 302L729.602 302.2C720.402 305.6 715.202 319.6 706.802 341L686.002 395.6H671.002L644.602 330.6C643.402 333.8 642.002 337.4 640.602 341L619.602 395.6H605.002L578.002 329C574.002 318.8 570.802 305.4 558.802 302ZM773.624 397C745.424 397 726.424 377.2 726.424 348.4C726.424 320.2 745.024 299.8 772.624 299.8C800.624 299.8 820.024 319.4 820.024 348.6C820.024 377.4 801.624 397 773.624 397ZM772.824 301.4C747.424 301.4 745.824 333.4 745.824 348.4C745.824 363.8 748.224 395.4 773.624 395.4C798.824 395.4 800.624 363.8 800.624 348.6C800.624 333.2 798.024 301.4 772.824 301.4ZM824.643 301.4C835.643 300.4 846.443 299.8 857.243 299.8C857.243 307.8 857.243 315.8 857.443 323.6C861.043 311.4 872.843 300.6 886.243 300.6C891.043 300.6 899.643 302.2 899.643 308.2C899.643 312.4 897.043 315 893.843 315C885.843 315.2 884.843 307.4 875.443 308.2C861.243 309.4 857.643 338.4 857.243 348.2C857.043 362.2 857.043 385.4 859.843 390.2C861.443 392.8 864.043 394.4 867.043 395H828.643C831.843 394.4 834.643 392.8 836.043 390C840.043 383.6 839.043 350.4 839.043 341.2C839.043 334.8 839.243 313.8 835.843 308.6C833.643 304.8 829.043 302.4 824.643 301.4ZM918.684 272.8C918.684 262 917.684 251 904.284 250.2C913.084 249.2 927.884 248.6 936.884 248.6V349.4C950.284 344.2 978.084 320.6 978.084 308.8C978.084 306.2 977.084 303.4 974.884 302H1006.08C992.484 305.6 976.084 327 962.684 336.8C958.684 339.8 953.884 343 949.484 345.6C998.284 342.6 981.684 388.4 1011.08 395H998.684C977.084 395 974.884 376.6 969.884 368.2C964.884 359.4 957.284 349 947.684 346.6C947.884 346.6 948.084 346.4 948.284 346.2C943.684 348.8 939.684 351 936.884 352V363C936.884 369.4 936.884 384.8 939.484 390C941.084 392.8 943.884 394.2 946.884 395H907.884C921.084 391.8 918.684 371.8 918.684 361.2V272.8Z" fill="black"/>
<path d="M118.723 5.79999V0.799994H118.691L118.658 0.800423L118.723 5.79999ZM181.723 27H186.723V24.4838L184.703 22.9845L181.723 27ZM181.723 58.6L182.035 63.5903L186.723 63.2972V58.6H181.723ZM178.523 58.8L173.524 58.8877L173.616 64.1165L178.835 63.7903L178.523 58.8ZM181.323 95.4L183.136 90.74L177.548 88.5668L176.414 94.4544L181.323 95.4ZM184.923 96.8L189.849 97.66L190.554 93.6247L186.736 92.14L184.923 96.8ZM120.123 149V154H120.154L120.184 154L120.123 149ZM118.923 144C96.8214 144 79.2901 136.875 67.3106 125.217C55.3345 113.562 48.5234 97.0069 48.5234 77.4H38.5234C38.5234 99.3931 46.2123 118.638 60.3363 132.383C74.4568 146.125 94.6255 154 118.923 154V144ZM48.5234 77.4C48.5234 57.7155 55.4191 41.3133 67.418 29.7503C79.4345 18.1703 96.9468 11.0857 118.789 10.7996L118.658 0.800423C94.7001 1.11428 74.6124 8.92966 60.4789 22.5497C46.3278 36.1867 38.5234 55.2845 38.5234 77.4H48.5234ZM118.723 10.8H120.123V0.799994H118.723V10.8ZM120.123 10.8C150.364 10.8 166.71 22.0868 178.744 31.0155L184.703 22.9845C171.937 13.5132 153.483 0.799994 120.123 0.799994V10.8ZM176.723 27V58.6H186.723V27H176.723ZM181.412 53.6097L178.212 53.8097L178.835 63.7903L182.035 63.5903L181.412 53.6097ZM183.523 58.7123C183.188 39.6341 172.859 25.5375 159.908 16.3909C147.066 7.32094 131.258 2.79999 118.723 2.79999V12.8C129.189 12.8 142.981 16.679 154.139 24.5591C165.188 32.3625 173.259 43.7659 173.524 58.8877L183.523 58.7123ZM118.723 2.79999C97.7868 2.79999 83.38 12.487 74.4511 26.8618C65.7018 40.9473 62.3234 59.2871 62.3234 77H72.3234C72.3234 60.3128 75.545 44.0527 82.9458 32.1382C90.1668 20.513 101.46 12.8 118.723 12.8V2.79999ZM62.3234 77C62.3234 94.7047 65.6493 113.103 74.0773 127.258C82.6681 141.686 96.5547 151.6 116.723 151.6V141.6C100.492 141.6 89.6788 133.914 82.6696 122.142C75.4976 110.097 72.3234 93.6953 72.3234 77H62.3234ZM116.723 151.6C132.849 151.6 148.77 145.035 161.294 135.032C173.802 125.041 183.36 111.266 186.233 96.3456L176.414 94.4544C174.087 106.534 166.145 118.359 155.053 127.218C143.977 136.065 130.198 141.6 116.723 141.6V151.6ZM179.511 100.06L183.111 101.46L186.736 92.14L183.136 90.74L179.511 100.06ZM179.998 95.94C178.035 107.184 170.818 119.153 160 128.399C149.227 137.606 135.224 143.817 120.063 144L120.184 154C138.023 153.783 154.22 146.494 166.497 136.001C178.729 125.547 187.412 111.616 189.849 97.66L179.998 95.94ZM120.123 144H118.923V154H120.123V144ZM242.472 144C229.584 144 219.128 139.502 211.89 132.023C204.637 124.529 200.272 113.685 200.272 100.4H190.272C190.272 115.915 195.407 129.371 204.704 138.977C214.016 148.598 227.16 154 242.472 154V144ZM200.272 100.4C200.272 87.405 204.545 76.531 211.667 68.9479C218.762 61.3928 228.963 56.8 241.472 56.8V46.8C226.381 46.8 213.482 52.4072 204.377 62.1021C195.299 71.769 190.272 85.195 190.272 100.4H200.272ZM241.472 56.8C254.269 56.8 264.781 61.255 272.095 68.7434C279.415 76.2395 283.872 87.1279 283.872 100.6H293.872C293.872 84.8721 288.628 71.3605 279.249 61.7565C269.862 52.145 256.675 46.8 241.472 46.8V56.8ZM283.872 100.6C283.872 113.929 279.629 124.724 272.552 132.151C265.497 139.554 255.259 144 242.472 144V154C257.685 154 270.646 148.646 279.792 139.049C288.914 129.476 293.872 116.071 293.872 100.6H283.872ZM241.672 48.4C234.17 48.4 228.129 50.8013 223.458 54.8603C218.886 58.8337 215.912 64.1415 213.945 69.573C210.048 80.3386 209.672 92.8598 209.672 100.4H219.672C219.672 92.9402 220.096 81.9614 223.348 72.977C224.957 68.5335 227.146 64.9038 230.017 62.4084C232.79 59.9987 236.474 58.4 241.672 58.4V48.4ZM209.672 100.4C209.672 108.216 210.258 120.741 214.38 131.468C216.458 136.879 219.546 142.127 224.188 146.044C228.922 150.037 234.988 152.4 242.472 152.4V142.4C237.256 142.4 233.497 140.813 230.637 138.4C227.685 135.91 225.41 132.296 223.714 127.882C220.286 118.959 219.672 107.984 219.672 100.4H209.672ZM242.472 152.4C249.918 152.4 255.927 150.028 260.586 146.012C265.149 142.079 268.133 136.82 270.115 131.424C274.044 120.73 274.472 108.257 274.472 100.6H264.472C264.472 108.143 264 119.07 260.729 127.976C259.111 132.38 256.92 135.971 254.057 138.438C251.292 140.822 247.626 142.4 242.472 142.4V152.4ZM274.472 100.6C274.472 92.7622 273.832 80.1974 269.688 69.4293C267.6 64.0016 264.511 58.7345 259.887 54.8009C255.169 50.7878 249.125 48.4 241.672 48.4V58.4C246.819 58.4 250.55 59.9872 253.407 62.4178C256.358 64.928 258.644 68.5734 260.355 73.0207C263.812 82.0026 264.472 93.0378 264.472 100.6H274.472ZM293.653 1.8V-3.2L293.27 6.78527L293.653 1.8ZM293.853 1.8V6.8H294.096L294.339 6.77637L293.853 1.8ZM324.453 0.399992H329.453V-4.60001H324.453V0.399992ZM327.053 141.8L322.548 143.969L322.648 144.176L322.766 144.372L327.053 141.8ZM334.453 147V152L335.827 142.192L334.453 147ZM296.053 147L294.583 142.221L296.053 152V147ZM303.253 142L307.594 144.481L307.626 144.426L307.655 144.37L303.253 142ZM303.453 7.19999L298.884 9.23069L299.105 9.72792L299.428 10.166L303.453 7.19999ZM300.053 3.99999L296.518 7.53555L297.091 8.10927L297.817 8.47213L300.053 3.99999ZM299.853 3.8L303.389 0.264442L302.953 -0.170784L302.426 -0.487461L299.853 3.8ZM293.653 6.8H293.853V-3.2H293.653V6.8ZM294.339 6.77637C302.353 5.99449 316.189 5.39999 324.453 5.39999V-4.60001C315.917 -4.60001 301.753 -3.99449 293.368 -3.17638L294.339 6.77637ZM319.453 0.399992V113.2H329.453V0.399992H319.453ZM319.453 113.2C319.453 116.49 319.452 122.425 319.786 128.237C319.953 131.141 320.208 134.098 320.606 136.729C320.985 139.238 321.557 141.91 322.548 143.969L331.558 139.631C331.249 138.99 330.846 137.562 330.494 135.234C330.16 133.027 329.928 130.409 329.77 127.663C329.454 122.175 329.453 116.51 329.453 113.2H319.453ZM322.766 144.372C325.483 148.902 329.667 150.833 333.08 151.808L335.827 142.192C333.64 141.567 332.223 140.698 331.341 139.228L322.766 144.372ZM334.453 142H296.053V152H334.453V142ZM297.524 151.779C300.439 150.882 305.016 148.993 307.594 144.481L298.912 139.519C298.29 140.607 296.867 141.518 294.583 142.221L297.524 151.779ZM307.655 144.37C308.766 142.308 309.406 139.584 309.832 137.072C310.283 134.419 310.585 131.42 310.791 128.473C311.203 122.571 311.253 116.532 311.253 113.2H301.253C301.253 116.468 301.203 122.229 300.815 127.777C300.621 130.555 300.348 133.194 299.974 135.397C299.576 137.741 299.14 139.092 298.851 139.63L307.655 144.37ZM311.253 113.2V35.4H301.253V113.2H311.253ZM311.253 35.4C311.253 32.6063 311.254 26.3693 310.894 20.3277C310.715 17.3161 310.44 14.239 310.005 11.6072C309.788 10.2928 309.516 8.99669 309.164 7.82954C308.837 6.74401 308.332 5.39256 307.478 4.234L299.428 10.166C299.274 9.95741 299.382 10.0247 299.59 10.7165C299.774 11.3267 299.962 12.1665 300.139 13.2365C300.492 15.3735 300.741 18.0589 300.912 20.9223C301.252 26.6307 301.253 32.5937 301.253 35.4H311.253ZM308.022 5.16928C307.367 3.69511 306.505 2.46349 305.321 1.44088C304.249 0.514461 303.085 -0.074144 302.289 -0.472141L297.817 8.47213C298.197 8.66194 298.425 8.78287 298.592 8.88253C298.746 8.97389 298.79 9.01321 298.785 9.00911C298.782 9.00683 298.774 8.99904 298.763 8.98747C298.753 8.97589 298.748 8.96882 298.749 8.97049C298.75 8.97248 298.8 9.04112 298.884 9.23069L308.022 5.16928ZM303.589 0.46444L303.389 0.264442L296.318 7.33555L296.518 7.53555L303.589 0.46444ZM302.426 -0.487461C299.839 -2.0392 297.498 -2.91903 294.037 -3.18527L293.27 6.78527C295.008 6.91902 295.867 7.23917 297.281 8.08745L302.426 -0.487461ZM349.317 1.8V-3.2L348.934 6.78527L349.317 1.8ZM349.517 1.8V6.8H349.761L350.003 6.77637L349.517 1.8ZM380.117 0.399992H385.117V-4.60001H380.117V0.399992ZM382.717 141.8L378.212 143.969L378.312 144.176L378.43 144.372L382.717 141.8ZM390.117 147V152L391.491 142.192L390.117 147ZM351.717 147L350.247 142.221L351.717 152V147ZM358.917 142L363.258 144.481L363.29 144.426L363.32 144.37L358.917 142ZM359.117 7.19999L354.548 9.23069L354.769 9.72792L355.092 10.166L359.117 7.19999ZM355.717 3.99999L352.182 7.53555L352.755 8.10927L353.481 8.47213L355.717 3.99999ZM355.517 3.8L359.053 0.264442L358.617 -0.170784L358.09 -0.487461L355.517 3.8ZM349.317 6.8H349.517V-3.2H349.317V6.8ZM350.003 6.77637C358.017 5.99449 371.853 5.39999 380.117 5.39999V-4.60001C371.582 -4.60001 357.417 -3.99449 349.032 -3.17638L350.003 6.77637ZM375.117 0.399992V113.2H385.117V0.399992H375.117ZM375.117 113.2C375.117 116.49 375.116 122.425 375.45 128.237C375.617 131.141 375.873 134.098 376.27 136.729C376.65 139.238 377.221 141.91 378.212 143.969L387.222 139.631C386.914 138.99 386.51 137.562 386.158 135.234C385.824 133.027 385.592 130.409 385.434 127.663C385.118 122.175 385.117 116.51 385.117 113.2H375.117ZM378.43 144.372C381.147 148.902 385.331 150.833 388.744 151.808L391.491 142.192C389.304 141.567 387.887 140.698 387.005 139.228L378.43 144.372ZM390.117 142H351.717V152H390.117V142ZM353.188 151.779C356.104 150.882 360.68 148.993 363.258 144.481L354.576 139.519C353.954 140.607 352.531 141.518 350.247 142.221L353.188 151.779ZM363.32 144.37C364.43 142.308 365.07 139.584 365.497 137.072C365.947 134.419 366.249 131.42 366.455 128.473C366.867 122.571 366.917 116.532 366.917 113.2H356.917C356.917 116.468 356.867 122.229 356.479 127.777C356.285 130.555 356.012 133.194 355.638 135.397C355.24 137.741 354.804 139.092 354.515 139.63L363.32 144.37ZM366.917 113.2V35.4H356.917V113.2H366.917ZM366.917 35.4C366.917 32.6063 366.918 26.3693 366.558 20.3277C366.379 17.3161 366.104 14.239 365.669 11.6072C365.452 10.2928 365.18 8.99669 364.829 7.82954C364.501 6.74401 363.996 5.39256 363.142 4.234L355.092 10.166C354.938 9.95741 355.046 10.0247 355.254 10.7165C355.438 11.3267 355.626 12.1665 355.803 13.2365C356.156 15.3735 356.405 18.0589 356.576 20.9223C356.916 26.6307 356.917 32.5937 356.917 35.4H366.917ZM363.686 5.16928C363.031 3.69511 362.169 2.46349 360.985 1.44088C359.913 0.514461 358.749 -0.074144 357.953 -0.472141L353.481 8.47213C353.861 8.66194 354.089 8.78287 354.256 8.88253C354.41 8.97389 354.454 9.01321 354.449 9.00911C354.446 9.00683 354.438 8.99904 354.427 8.98747C354.417 8.97589 354.412 8.96882 354.413 8.97049C354.414 8.97248 354.464 9.04112 354.548 9.23069L363.686 5.16928ZM359.253 0.46444L359.053 0.264442L351.982 7.33555L352.182 7.53555L359.253 0.46444ZM358.09 -0.487461C355.503 -2.0392 353.162 -2.91903 349.701 -3.18527L348.934 6.78527C350.672 6.91902 351.531 7.23917 352.945 8.08745L358.09 -0.487461ZM499.498 99.4V104.4H504.607L504.497 99.2929L499.498 99.4ZM425.298 99.4V94.4H420.298V99.4H425.298ZM496.098 124.2V119.2H493.282L491.822 121.608L496.098 124.2ZM497.498 124.2L502.091 126.177L505.094 119.2H497.498V124.2ZM425.498 97.4L420.525 96.8833L419.952 102.4H425.498V97.4ZM479.898 97.4V102.4H485.102L484.894 97.2002L479.898 97.4ZM409.698 101.6C409.698 87.9277 413.917 76.7938 421.201 69.1163C428.452 61.4726 439.17 56.8 453.098 56.8V46.8C436.826 46.8 423.344 52.3274 413.946 62.2337C404.58 72.1062 399.698 85.8723 399.698 101.6H409.698ZM453.098 56.8C465.983 56.8 476.072 61.2446 483.028 68.5483C490.021 75.8912 494.221 86.5231 494.5 99.5071L504.497 99.2929C504.176 84.2769 499.276 71.1088 490.269 61.6517C481.225 52.1554 468.414 46.8 453.098 46.8V56.8ZM499.498 94.4H425.298V104.4H499.498V94.4ZM420.298 99.4C420.298 111.062 421.256 123.915 426.583 133.945C429.31 139.08 433.207 143.531 438.68 146.66C444.128 149.774 450.826 151.4 458.898 151.4V141.4C452.171 141.4 447.269 140.051 443.642 137.978C440.04 135.919 437.387 132.97 435.414 129.255C431.341 121.585 430.298 110.938 430.298 99.4H420.298ZM458.898 151.4C474.19 151.4 491.545 141.36 500.374 126.792L491.822 121.608C484.652 133.44 470.406 141.4 458.898 141.4V151.4ZM496.098 129.2H497.498V119.2H496.098V129.2ZM492.906 122.223C487.118 135.672 470.332 144 455.698 144V154C473.065 154 494.279 144.328 502.091 126.177L492.906 122.223ZM455.698 144C442.002 144 430.518 139.815 422.52 132.61C414.58 125.457 409.698 114.998 409.698 101.6H399.698C399.698 117.602 405.617 130.843 415.827 140.04C425.979 149.185 439.995 154 455.698 154V144ZM454.098 48.8C440.451 48.8 432.336 57.846 427.7 67.6954C423.1 77.4657 421.338 89.0644 420.525 96.8833L430.472 97.9167C431.259 90.3356 432.897 80.1343 436.747 71.9546C440.561 63.854 445.946 58.8 454.098 58.8V48.8ZM425.498 102.4H479.898V92.4H425.498V102.4ZM484.894 97.2002C484.595 89.7221 483.895 78.0545 480.06 68.1671C478.122 63.1702 475.269 58.3126 470.976 54.6842C466.588 50.9764 460.983 48.8 454.098 48.8V58.8C458.714 58.8 462.008 60.1986 464.521 62.322C467.128 64.5248 469.175 67.7548 470.737 71.7829C473.902 79.9455 474.602 90.0779 474.902 97.5998L484.894 97.2002ZM588.595 130.8V125.8H585.783L584.323 128.203L588.595 130.8ZM590.595 130.8L594.998 133.171L598.966 125.8H590.595V130.8ZM513.995 101.4C513.995 88.2917 518.277 77.1709 525.592 69.3704C532.875 61.6056 543.467 56.8 556.795 56.8V46.8C540.923 46.8 527.616 52.5944 518.298 62.5296C509.014 72.4291 503.995 86.1083 503.995 101.4H513.995ZM556.795 56.8C560.928 56.8 568.484 57.5097 574.835 59.5585C578.022 60.5867 580.541 61.8379 582.175 63.2159C583.714 64.5139 584.195 65.6578 584.195 66.8H594.195C594.195 61.9422 591.752 58.2111 588.622 55.5716C585.587 53.0121 581.693 51.2633 577.905 50.0415C570.307 47.5903 561.663 46.8 556.795 46.8V56.8ZM584.195 66.8C584.195 67.2586 584.114 67.326 584.181 67.1894C584.263 67.0214 584.405 66.8749 584.517 66.8011C584.589 66.754 584.526 66.8168 584.203 66.8847C583.88 66.9524 583.419 67 582.795 67V77C584.802 77 587.609 76.7411 590.023 75.1489C592.841 73.2904 594.195 70.2715 594.195 66.8H584.195ZM582.795 67C582.026 67 581.507 66.8032 580.655 65.7873C579.485 64.3919 578.686 62.7135 576.96 59.8308C575.431 57.2786 573.351 54.182 570.102 51.7797C566.734 49.2894 562.471 47.8 556.995 47.8V57.8C560.52 57.8 562.656 58.7106 564.157 59.8203C565.777 61.018 567.035 62.7213 568.381 64.9692C569.529 66.8865 571.144 70.0081 572.992 72.2127C575.159 74.7967 578.265 77 582.795 77V67ZM556.995 47.8C549.812 47.8 543.949 49.9816 539.352 53.7961C534.842 57.5393 531.862 62.5923 529.867 67.8863C525.92 78.3552 525.395 90.9551 525.395 100H535.395C535.395 91.0449 535.97 80.0448 539.224 71.4137C540.828 67.1577 542.974 63.7857 545.738 61.4913C548.417 59.2684 551.979 57.8 556.995 57.8V47.8ZM525.395 100C525.395 109.146 526.727 121.527 531.271 131.819C535.874 142.244 544.278 151.4 558.395 151.4V141.4C549.713 141.4 544.117 136.156 540.419 127.781C536.664 119.273 535.395 108.454 535.395 100H525.395ZM558.395 151.4C571.522 151.4 585.562 145.416 592.868 133.397L584.323 128.203C579.228 136.584 568.869 141.4 558.395 141.4V151.4ZM588.595 135.8H590.595V125.8H588.595V135.8ZM586.193 128.429C580.375 139.234 568.718 144 555.595 144V154C570.873 154 586.816 148.366 594.998 133.171L586.193 128.429ZM555.595 144C531.949 144 513.995 124.635 513.995 101.4H503.995C503.995 129.765 526.042 154 555.595 154V144ZM598.731 53.2L598.575 48.2024L593.731 48.3538V53.2H598.731ZM628.731 21V16H624.106L623.746 20.6116L628.731 21ZM638.131 21H643.131V16H638.131V21ZM638.131 52.2H633.131V57.2H638.131V52.2ZM664.931 52.2H669.931V47.2H664.931V52.2ZM664.931 55.2V60.2H669.931V55.2H664.931ZM638.131 55.2V50.2H633.131V55.2H638.131ZM663.331 130L666.624 126.237L660.368 120.763L658.464 128.855L663.331 130ZM664.931 131.4L669.353 133.735L671.198 130.24L668.224 127.637L664.931 131.4ZM619.331 55.2H624.331V50.2H619.331V55.2ZM598.731 55.2H593.731V60.2H598.731V55.2ZM598.887 58.1976C612.821 57.7621 621.717 53.0801 626.999 45.4113C631.987 38.1695 633.118 29.0705 633.716 21.3884L623.746 20.6116C623.145 28.3295 622.075 34.9305 618.764 39.7387C615.746 44.1198 610.241 47.8379 598.575 48.2024L598.887 58.1976ZM628.731 26H638.131V16H628.731V26ZM633.131 21V52.2H643.131V21H633.131ZM638.131 57.2H664.931V47.2H638.131V57.2ZM659.931 52.2V55.2H669.931V52.2H659.931ZM664.931 50.2H638.131V60.2H664.931V50.2ZM633.131 55.2V132.2H643.131V55.2H633.131ZM633.131 132.2C633.131 137.015 634.15 141.198 636.597 144.267C639.18 147.507 642.785 148.8 646.331 148.8V138.8C645.277 138.8 644.782 138.493 644.416 138.033C643.913 137.402 643.131 135.785 643.131 132.2H633.131ZM646.331 148.8C651.195 148.8 656.126 146.34 659.844 143.343C663.583 140.328 667.056 135.998 668.198 131.145L658.464 128.855C658.006 130.802 656.279 133.372 653.568 135.557C650.836 137.76 648.068 138.8 646.331 138.8V148.8ZM660.039 133.763L661.639 135.163L668.224 127.637L666.624 126.237L660.039 133.763ZM660.51 129.065C656.158 137.305 651.994 140.781 648.69 142.369C645.313 143.992 642.19 144 638.731 144V154C642.072 154 647.35 154.108 653.022 151.381C658.769 148.619 664.304 143.295 669.353 133.735L660.51 129.065ZM638.731 144C635.106 144 631.427 142.456 628.646 139.926C625.857 137.39 624.331 134.208 624.331 131.2H614.331C614.331 137.592 617.505 143.31 621.917 147.324C626.336 151.344 632.356 154 638.731 154V144ZM624.331 131.2V55.2H614.331V131.2H624.331ZM619.331 50.2H598.731V60.2H619.331V50.2ZM603.731 55.2V53.2H593.731V55.2H603.731ZM683.216 60.6L687.749 58.4913L687.6 58.1711L687.408 57.8751L683.216 60.6ZM672.216 53.4L671.742 48.4225L671.153 58.2859L672.216 53.4ZM704.616 51.8L709.616 51.7734L709.589 46.8H704.616V51.8ZM704.816 89.4L709.815 89.436L709.816 89.4047L709.816 89.3734L704.816 89.4ZM704.616 117.2L699.616 117.164L699.616 117.182V117.2H704.616ZM707.216 142.2L702.863 144.66L702.869 144.671L702.874 144.681L707.216 142.2ZM714.416 147V152L715.463 142.111L714.416 147ZM676.016 147L675.094 142.086L676.016 152V147ZM683.416 142L679.008 139.639L679.004 139.647L683.416 142ZM687.408 57.8751C683.946 52.5494 678.882 49.7324 673.278 48.5141L671.153 58.2859C674.749 59.0675 677.285 60.6506 679.023 63.3249L687.408 57.8751ZM672.69 58.3775C680.957 57.5902 695.397 56.8 704.616 56.8V46.8C695.035 46.8 680.275 47.6098 671.742 48.4225L672.69 58.3775ZM699.616 51.8266L699.816 89.4266L709.816 89.3734L709.616 51.7734L699.616 51.8266ZM699.816 89.364L699.616 117.164L709.615 117.236L709.815 89.436L699.816 89.364ZM699.616 117.2C699.616 120.089 699.614 125.342 699.951 130.478C700.12 133.043 700.378 135.674 700.786 138.024C701.17 140.237 701.769 142.725 702.863 144.66L711.568 139.74C711.362 139.375 710.986 138.313 710.639 136.314C710.315 134.451 710.086 132.207 709.93 129.822C709.617 125.058 709.616 120.111 709.616 117.2H699.616ZM702.874 144.681C705.433 149.158 709.769 151.118 713.368 151.889L715.463 142.111C713.462 141.682 712.199 140.842 711.557 139.719L702.874 144.681ZM714.416 142H676.016V152H714.416V142ZM676.937 151.914C681.135 151.127 685.306 149.081 687.827 144.353L679.004 139.647C678.325 140.919 677.296 141.673 675.094 142.086L676.937 151.914ZM687.823 144.361C688.945 142.266 689.619 139.652 690.069 137.181C690.536 134.618 690.834 131.788 691.028 129.026C691.417 123.502 691.416 117.887 691.416 114.6H681.416C681.416 117.913 681.414 123.198 681.053 128.324C680.872 130.887 680.608 133.32 680.231 135.388C679.838 137.548 679.386 138.934 679.008 139.639L687.823 144.361ZM691.416 114.6C691.416 101.54 691.616 89.9942 691.313 80.7607C691.016 71.727 690.237 63.8399 687.749 58.4913L678.682 62.7087C680.194 65.96 681.015 71.873 681.318 81.0893C681.615 90.1058 681.416 101.26 681.416 114.6H691.416ZM694.016 28C690.232 28 687.216 24.8939 687.216 21.2H677.216C677.216 30.3061 684.599 38 694.016 38V28ZM687.216 21.2C687.216 18.1292 690.006 15 694.016 15V4.99999C684.825 4.99999 677.216 12.2708 677.216 21.2H687.216ZM694.016 15C698.537 15 701.216 18.2361 701.216 21.2H711.216C711.216 12.1639 703.494 4.99999 694.016 4.99999V15ZM701.216 21.2C701.216 24.7842 698.309 28 694.016 28V38C703.722 38 711.216 30.4158 711.216 21.2H701.216ZM717.494 54V49L716.172 58.822L717.494 54ZM758.494 54L759.894 58.8L758.494 49V54ZM780.894 140L776.31 141.998L781.648 154.244L785.663 141.503L780.894 140ZM809.094 64.8L814.055 65.4202L814.056 65.4127L814.057 65.4053L809.094 64.8ZM793.894 54L793.925 49.0001L792.364 58.7601L793.894 54ZM826.094 54.2L827.794 58.9019L826.125 49.2001L826.094 54.2ZM802.694 93L807.337 94.854L807.343 94.8405L807.348 94.8269L802.694 93ZM780.894 147.6V152.6H784.281L785.537 149.454L780.894 147.6ZM765.494 147.6L760.885 149.538L762.172 152.6H765.494V147.6ZM737.494 81L732.87 82.9037L732.877 82.9208L732.885 82.9378L737.494 81ZM717.494 59H758.494V49H717.494V59ZM757.094 49.2C753.701 50.1897 750.933 52.0947 749.096 54.9337C747.316 57.6852 746.694 60.8723 746.694 64H756.694C756.694 62.1277 757.072 61.0148 757.492 60.3662C757.855 59.8053 758.487 59.2103 759.894 58.8L757.094 49.2ZM746.694 64C746.694 68.8326 748.59 75.7741 751.046 82.9735C753.576 90.3921 756.963 98.8041 760.422 106.891C763.886 114.991 767.452 122.834 770.358 129.125C773.302 135.499 775.488 140.112 776.31 141.998L785.477 138.002C784.599 135.988 782.286 131.101 779.436 124.932C776.548 118.679 773.027 110.934 769.616 102.959C766.2 94.9709 762.924 86.8204 760.51 79.7452C758.022 72.4509 756.694 66.9674 756.694 64H746.694ZM785.663 141.503C787.88 134.464 794.378 119.221 800.748 103.614C803.89 95.9167 806.965 88.2087 809.36 81.6007C811.694 75.1615 813.575 69.2621 814.055 65.4202L804.132 64.1798C803.813 66.7379 802.343 71.6135 799.959 78.1931C797.635 84.6038 794.623 92.1583 791.489 99.8356C785.309 114.979 778.507 130.936 776.125 138.497L785.663 141.503ZM814.057 65.4053C814.452 62.168 813.698 59.2698 811.931 56.9094C810.279 54.7034 808.021 53.3396 806.019 52.4397C803.999 51.5313 801.836 50.9212 800.023 50.4528C798.028 49.9374 796.64 49.6309 795.424 49.2399L792.364 58.7601C793.947 59.2691 795.984 59.7376 797.521 60.1347C799.239 60.5788 800.714 61.0187 801.918 61.5603C803.142 62.1104 803.696 62.5966 803.926 62.9031C804.04 63.0552 804.236 63.332 804.131 64.1947L814.057 65.4053ZM793.863 58.9999L826.063 59.1999L826.125 49.2001L793.925 49.0001L793.863 58.9999ZM824.393 49.4981C817.906 51.8446 813.4 57.5903 809.636 64.443C805.823 71.3857 802.199 80.5753 798.039 91.1731L807.348 94.8269C811.588 84.0247 814.964 75.5143 818.401 69.257C821.887 62.9097 824.882 59.9554 827.794 58.9019L824.393 49.4981ZM798.05 91.146L776.25 145.746L785.537 149.454L807.337 94.854L798.05 91.146ZM780.894 142.6H765.494V152.6H780.894V142.6ZM770.103 145.662L742.103 79.0622L732.885 82.9378L760.885 149.538L770.103 145.662ZM742.117 79.0962C740.232 74.517 738.044 67.8792 734.895 62.444C731.588 56.7341 726.73 51.348 718.816 49.178L716.172 58.822C720.657 60.052 723.699 63.0659 726.242 67.456C728.944 72.1208 730.556 77.283 732.87 82.9037L742.117 79.0962ZM917.077 99.4V104.4H922.185L922.075 99.2929L917.077 99.4ZM842.877 99.4V94.4H837.877V99.4H842.877ZM913.677 124.2V119.2H910.86L909.401 121.608L913.677 124.2ZM915.077 124.2L919.669 126.177L922.672 119.2H915.077V124.2ZM843.077 97.4L838.103 96.8833L837.53 102.4H843.077V97.4ZM897.477 97.4V102.4H902.681L902.473 97.2002L897.477 97.4ZM827.277 101.6C827.277 87.9277 831.495 76.7938 838.779 69.1163C846.031 61.4726 856.749 56.8 870.677 56.8V46.8C854.405 46.8 840.923 52.3274 831.524 62.2337C822.158 72.1062 817.277 85.8723 817.277 101.6H827.277ZM870.677 56.8C883.561 56.8 893.65 61.2446 900.606 68.5483C907.599 75.8912 911.799 86.5231 912.078 99.5071L922.075 99.2929C921.754 84.2769 916.854 71.1088 907.847 61.6517C898.803 52.1554 885.992 46.8 870.677 46.8V56.8ZM917.077 94.4H842.877V104.4H917.077V94.4ZM837.877 99.4C837.877 111.062 838.834 123.915 844.161 133.945C846.888 139.08 850.785 143.531 856.258 146.66C861.706 149.774 868.404 151.4 876.477 151.4V141.4C869.749 141.4 864.847 140.051 861.22 137.978C857.618 135.919 854.965 132.97 852.992 129.255C848.919 121.585 847.877 110.938 847.877 99.4H837.877ZM876.477 151.4C891.769 151.4 909.123 141.36 917.953 126.792L909.401 121.608C902.23 133.44 887.985 141.4 876.477 141.4V151.4ZM913.677 129.2H915.077V119.2H913.677V129.2ZM910.484 122.223C904.696 135.672 887.91 144 873.277 144V154C890.643 154 911.857 144.328 919.669 126.177L910.484 122.223ZM873.277 144C859.58 144 848.096 139.815 840.098 132.61C832.158 125.457 827.277 114.998 827.277 101.6H817.277C817.277 117.602 823.195 130.843 833.405 140.04C843.557 149.185 857.573 154 873.277 154V144ZM871.677 48.8C858.029 48.8 849.914 57.846 845.278 67.6954C840.678 77.4657 838.916 89.0644 838.103 96.8833L848.05 97.9167C848.837 90.3356 850.475 80.1343 854.325 71.9546C858.139 63.854 863.524 58.8 871.677 58.8V48.8ZM843.077 102.4H897.477V92.4H843.077V102.4ZM902.473 97.2002C902.173 89.7221 901.473 78.0545 897.638 68.1671C895.7 63.1702 892.847 58.3126 888.554 54.6842C884.167 50.9764 878.561 48.8 871.677 48.8V58.8C876.292 58.8 879.587 60.1986 882.099 62.322C884.706 64.5248 886.753 67.7548 888.315 71.7829C891.48 79.9455 892.18 90.0779 892.481 97.5998L902.473 97.2002ZM48.643 395V400L49.6236 390.097L48.643 395ZM0.042969 395L-1.00468 390.111L0.042969 400V395ZM7.44297 391.6L4.29001 387.719L4.192 387.799L4.09815 387.884L7.44297 391.6ZM12.643 371.4L7.65455 371.06L7.65126 371.108L7.64891 371.156L12.643 371.4ZM7.44297 259L3.90743 262.536L4.04322 262.671L4.18901 262.796L7.44297 259ZM0.842969 255.8V250.8L-0.369717 260.651L0.842969 255.8ZM101.243 255.8H106.243V250.8H101.243V255.8ZM101.243 276V281H106.243V276H101.243ZM99.843 276L95.0706 277.491L96.167 281H99.843V276ZM85.443 262.6L87.1839 257.913L87.182 257.912L85.443 262.6ZM33.443 257.8V252.8H28.443V257.8H33.443ZM33.443 330.6H28.443V335.6H33.443V330.6ZM38.643 330.6V335.6H38.6772L38.7115 335.6L38.643 330.6ZM78.243 311.2V306.2H73.6555L73.2614 310.771L78.243 311.2ZM79.243 311.2H84.243V306.2H79.243V311.2ZM79.243 351.6V356.6H84.243V351.6H79.243ZM78.243 351.6L73.2489 351.842L73.4798 356.6H78.243V351.6ZM38.643 332.6L38.6777 327.6L38.6603 327.6H38.643V332.6ZM33.443 332.6V327.6H28.443V332.6H33.443ZM33.643 368L28.645 368.143L28.6465 368.193L28.6489 368.244L33.643 368ZM44.643 394.2V399.2L46.2241 389.457L44.643 394.2ZM46.243 394.6L44.0069 399.072L44.3247 399.231L44.6618 399.343L46.243 394.6ZM48.643 390H0.042969V400H48.643V390ZM1.09061 399.889C4.31663 399.198 7.875 397.938 10.7878 395.316L4.09815 387.884C3.01094 388.862 1.36931 389.602 -1.00468 390.111L1.09061 399.889ZM10.5959 395.481C12.2907 394.104 13.3852 392.193 14.1243 390.517C14.9008 388.756 15.4988 386.753 15.966 384.719C16.902 380.645 17.4277 375.934 17.637 371.644L7.64891 371.156C7.45822 375.066 6.98395 379.155 6.21991 382.481C5.83711 384.147 5.41016 385.494 4.97418 386.483C4.50078 387.557 4.19527 387.796 4.29001 387.719L10.5959 395.481ZM17.6314 371.74C18.2441 362.753 18.243 353.602 18.243 350.6H8.24297C8.24297 353.598 8.24181 362.447 7.65455 371.06L17.6314 371.74ZM18.243 350.6V293.6H8.24297V350.6H18.243ZM18.243 293.6C18.243 289.682 18.1951 282.006 17.4151 274.648C17.0263 270.98 16.4392 267.223 15.5241 263.977C14.6762 260.97 13.2945 257.43 10.6969 255.204L4.18901 262.796C4.18755 262.795 4.25761 262.856 4.38163 263.027C4.50499 263.197 4.6592 263.446 4.83339 263.792C5.18786 264.497 5.55181 265.459 5.89937 266.691C6.59678 269.165 7.10967 272.295 7.47083 275.702C8.19087 282.494 8.24297 289.718 8.24297 293.6H18.243ZM10.9785 255.464C8.37973 252.866 4.6607 251.601 2.05565 250.949L-0.369717 260.651C1.82523 261.199 3.30621 261.934 3.90743 262.536L10.9785 255.464ZM0.842969 260.8H101.243V250.8H0.842969V260.8ZM96.243 255.8V276H106.243V255.8H96.243ZM101.243 271H99.843V281H101.243V271ZM104.615 274.509C101.992 266.114 95.0367 260.83 87.1839 257.913L83.702 267.287C89.8493 269.57 93.6938 273.086 95.0706 277.491L104.615 274.509ZM87.182 257.912C80.2217 255.33 69.8052 254.11 59.9854 253.485C49.9912 252.849 39.9565 252.8 33.443 252.8V262.8C39.9295 262.8 49.6948 262.851 59.3505 263.465C69.1807 264.09 78.2642 265.27 83.7039 267.288L87.182 257.912ZM28.443 257.8V330.6H38.443V257.8H28.443ZM33.443 335.6H38.643V325.6H33.443V335.6ZM38.7115 335.6C46.166 335.497 51.5511 335.69 56.8934 335.662C61.8061 335.637 66.3502 335.421 70.1524 334.217C74.3043 332.902 77.5496 330.426 79.735 326.305C81.7458 322.515 82.7098 317.6 83.2245 311.629L73.2614 310.771C72.7762 316.4 71.9401 319.66 70.9009 321.62C70.0363 323.249 68.9816 324.098 67.1335 324.683C64.9357 325.379 61.7798 325.638 56.8426 325.663C52.3349 325.685 45.72 325.503 38.5745 325.6L38.7115 335.6ZM78.243 316.2H79.243V306.2H78.243V316.2ZM74.243 311.2V351.6H84.243V311.2H74.243ZM79.243 346.6H78.243V356.6H79.243V346.6ZM83.2371 351.358C82.9732 345.922 82.1156 341.27 80.0598 337.55C77.8695 333.587 74.5853 331.146 70.5121 329.728C66.675 328.392 62.0832 327.944 57.0215 327.76C51.9421 327.575 45.7289 327.649 38.6777 327.6L38.6083 337.6C45.957 337.651 51.7688 337.575 56.6581 337.753C61.5652 337.931 64.8859 338.358 67.2239 339.172C69.3256 339.904 70.479 340.888 71.3074 342.387C72.2704 344.13 73.0127 346.978 73.2489 351.842L83.2371 351.358ZM38.643 327.6H33.443V337.6H38.643V327.6ZM28.443 332.6V350.6H38.443V332.6H28.443ZM28.443 350.6C28.443 353.798 28.4427 361.063 28.645 368.143L38.6409 367.857C38.4432 360.937 38.443 353.802 38.443 350.6H28.443ZM28.6489 368.244C28.8476 372.317 29.2077 378.617 30.8943 384.379C32.5432 390.013 35.8896 396.553 43.0618 398.943L46.2241 389.457C43.7963 388.647 41.8428 386.187 40.4917 381.571C39.1782 377.083 38.8383 371.883 38.637 367.756L28.6489 368.244ZM44.643 389.2H44.443V399.2H44.643V389.2ZM44.443 399.2C44.381 399.2 44.3365 399.197 44.3113 399.196C44.2855 399.194 44.2705 399.192 44.2664 399.191C44.261 399.191 44.2727 399.192 44.2937 399.197C44.3154 399.202 44.3183 399.204 44.2962 399.197C44.2839 399.192 44.2556 399.183 44.2133 399.166C44.1732 399.15 44.1015 399.119 44.0069 399.072L48.479 390.128C47.3543 389.565 45.7844 389.2 44.443 389.2V399.2ZM44.6618 399.343C45.4997 399.623 46.3261 399.718 46.6728 399.761C47.1507 399.821 47.3845 399.847 47.6624 399.903L49.6236 390.097C48.9014 389.953 48.2352 389.879 47.9131 389.839C47.7227 389.815 47.6462 389.803 47.6094 389.797C47.5768 389.791 47.668 389.805 47.8241 389.857L44.6618 399.343ZM113.315 301.4L112.862 296.421L112.207 306.276L113.315 301.4ZM145.915 299.8H150.915V294.8H145.915V299.8ZM146.115 323.6L141.116 323.728L150.91 325.015L146.115 323.6ZM182.515 315V310H182.452L182.39 310.002L182.515 315ZM164.115 308.2L164.536 313.182L164.539 313.182L164.115 308.2ZM145.915 348.2L140.919 347.996L140.916 348.062L140.915 348.129L145.915 348.2ZM148.515 390.2L144.196 392.719L144.226 392.77L144.257 392.82L148.515 390.2ZM155.715 395V400L156.695 390.097L155.715 395ZM117.315 395L116.393 390.086L117.315 400V395ZM124.715 390L120.475 387.35L120.349 387.551L120.243 387.764L124.715 390ZM124.515 308.6L120.188 311.105L120.256 311.223L120.33 311.336L124.515 308.6ZM113.768 306.379C124.654 305.39 135.299 304.8 145.915 304.8V294.8C134.93 294.8 123.975 295.41 112.862 296.421L113.768 306.379ZM140.915 299.8C140.915 307.788 140.915 315.853 141.116 323.728L151.113 323.472C150.915 315.747 150.915 307.812 150.915 299.8H140.915ZM150.91 325.015C154.011 314.509 164.151 305.6 174.915 305.6V295.6C158.878 295.6 145.419 308.291 141.319 322.185L150.91 325.015ZM174.915 305.6C176.911 305.6 179.547 305.952 181.486 306.763C182.435 307.16 182.935 307.551 183.155 307.799C183.293 307.954 183.315 308.021 183.315 308.2H193.315C193.315 302.196 188.831 298.995 185.344 297.537C181.783 296.048 177.719 295.6 174.915 295.6V305.6ZM183.315 308.2C183.315 309.264 182.998 309.719 182.887 309.843C182.791 309.95 182.701 310 182.515 310V320C188.99 320 193.315 314.618 193.315 308.2H183.315ZM182.39 310.002C180.375 310.052 179.461 309.348 176.846 307.38C175.594 306.438 173.888 305.19 171.686 304.31C169.397 303.395 166.789 302.954 163.691 303.218L164.539 313.182C166.141 313.046 167.183 313.28 167.975 313.596C168.854 313.947 169.66 314.487 170.833 315.37C173.069 317.052 176.654 320.148 182.64 319.998L182.39 310.002ZM163.694 303.218C158.297 303.674 154.253 306.789 151.375 310.528C148.531 314.222 146.52 318.885 145.072 323.469C142.168 332.661 141.13 342.837 140.919 347.996L150.911 348.404C151.1 343.763 152.062 334.539 154.608 326.481C155.884 322.44 157.461 319.015 159.299 316.628C161.101 314.286 162.833 313.326 164.536 313.182L163.694 303.218ZM140.915 348.129C140.815 355.148 140.763 364.559 141.094 372.849C141.259 376.986 141.522 380.937 141.939 384.213C142.148 385.849 142.404 387.395 142.728 388.752C143.032 390.029 143.474 391.482 144.196 392.719L152.834 387.681C152.855 387.718 152.685 387.396 152.454 386.431C152.243 385.546 152.042 384.382 151.859 382.95C151.495 380.088 151.246 376.464 151.086 372.451C150.766 364.441 150.815 355.252 150.914 348.271L140.915 348.129ZM144.257 392.82C146.694 396.781 150.591 399.074 154.734 399.903L156.695 390.097C154.838 389.726 153.536 388.819 152.773 387.58L144.257 392.82ZM155.715 390H117.315V400H155.715V390ZM118.236 399.914C122.41 399.132 126.866 396.879 129.187 392.236L120.243 387.764C119.764 388.721 118.62 389.668 116.393 390.086L118.236 399.914ZM128.955 392.65C129.903 391.133 130.473 389.259 130.864 387.569C131.278 385.775 131.593 383.712 131.84 381.529C132.332 377.159 132.587 371.953 132.713 366.772C132.965 356.454 132.715 345.613 132.715 341.2H122.715C122.715 345.987 122.965 356.346 122.716 366.528C122.593 371.597 122.347 376.466 121.903 380.408C121.68 382.382 121.417 384.034 121.121 385.317C120.973 385.955 120.829 386.452 120.697 386.822C120.56 387.208 120.472 387.355 120.475 387.35L128.955 392.65ZM132.715 341.2C132.715 338.047 132.767 331.041 132.382 324.171C132.19 320.74 131.884 317.228 131.383 314.178C130.922 311.367 130.181 308.13 128.7 305.864L120.33 311.336C120.33 311.336 120.334 311.343 120.343 311.358C120.352 311.374 120.365 311.396 120.38 311.426C120.412 311.488 120.453 311.574 120.501 311.69C120.6 311.924 120.713 312.239 120.833 312.646C121.075 313.468 121.306 314.523 121.515 315.797C121.933 318.347 122.215 321.46 122.398 324.729C122.763 331.259 122.715 337.953 122.715 341.2H132.715ZM128.842 306.095C125.655 300.59 119.486 297.675 114.423 296.524L112.207 306.276C115.943 307.125 118.975 309.01 120.188 311.105L128.842 306.095ZM240.645 395V390H240.628L240.612 390L240.645 395ZM242.045 337.4L242.23 332.403L242.208 332.403L242.187 332.402L242.045 337.4ZM257.245 340.2L255.871 345.008L262.245 346.829V340.2H257.245ZM219.445 312.6L223.605 315.373L223.818 315.054L223.98 314.706L219.445 312.6ZM218.445 314.4L214.284 311.626L213.804 312.347L213.594 313.187L218.445 314.4ZM217.245 316.4L213.709 312.864L213.274 313.3L212.957 313.828L217.245 316.4ZM215.445 319.4L211.54 316.277L211.359 316.504L211.205 316.75L215.445 319.4ZM266.845 307.6L270.324 304.009L270.2 303.889L270.069 303.779L266.845 307.6ZM275.445 330.8L280.444 330.828L280.445 330.814V330.8H275.445ZM275.245 366.8L270.245 366.772L270.245 366.786V366.8H275.245ZM277.645 390.2L273.172 392.436L273.293 392.677L273.439 392.904L277.645 390.2ZM284.845 395V400L285.892 390.111L284.845 395ZM253.645 390.8L257.3 394.212L258.645 392.771V390.8H253.645ZM254.045 390L249.572 387.764L249.572 387.764L254.045 390ZM256.845 365.4L251.845 365.358L251.845 365.379V365.4H256.845ZM257.045 341.4L262.044 341.442L262.077 337.554L258.317 336.565L257.045 341.4ZM240.612 390C225.712 390.098 215.155 388.002 208.472 384.086C202.24 380.434 199.045 375.027 199.045 366.8H189.045C189.045 378.373 193.949 387.166 203.417 392.714C212.434 397.998 225.177 400.102 240.677 400L240.612 390ZM199.045 366.8C199.045 358.805 202.893 352.795 210.061 348.621C217.467 344.308 228.432 342.013 241.902 342.398L242.187 332.402C227.657 331.987 214.622 334.392 205.028 339.979C195.196 345.705 189.045 354.795 189.045 366.8H199.045ZM241.859 342.397C246.626 342.573 251.744 343.828 255.871 345.008L258.618 335.392C254.345 334.172 248.263 332.627 242.23 332.403L241.859 342.397ZM262.245 340.2V332.8H252.245V340.2H262.245ZM262.245 332.8C262.245 325.704 261.841 316.784 258.446 309.55C256.693 305.816 254.083 302.39 250.236 299.929C246.388 297.467 241.659 296.2 236.045 296.2V306.2C240.13 306.2 242.901 307.108 244.847 308.353C246.794 309.598 248.271 311.409 249.393 313.8C251.748 318.816 252.245 325.696 252.245 332.8H262.245ZM236.045 296.2C229.898 296.2 225.22 297.985 221.672 300.977C218.265 303.85 216.292 307.517 214.909 310.494L223.98 314.706C225.197 312.083 226.424 310.05 228.118 308.623C229.669 307.315 231.991 306.2 236.045 306.2V296.2ZM215.284 309.827C214.886 310.424 214.607 310.996 214.472 311.264C214.392 311.425 214.353 311.502 214.317 311.569C214.287 311.625 214.278 311.637 214.284 311.626L222.605 317.173C223.003 316.576 223.283 316.004 223.417 315.736C223.497 315.575 223.536 315.498 223.572 315.431C223.603 315.375 223.612 315.363 223.605 315.373L215.284 309.827ZM213.594 313.187C213.604 313.147 213.621 313.091 213.649 313.025C213.676 312.96 213.707 312.902 213.736 312.855C213.793 312.762 213.815 312.759 213.709 312.864L220.78 319.936C221.831 318.885 222.818 317.52 223.295 315.613L213.594 313.187ZM212.957 313.828C212.601 314.421 212.183 315.227 212.038 315.49C211.825 315.879 211.683 316.098 211.54 316.277L219.349 322.523C220.006 321.702 220.464 320.921 220.801 320.31C221.206 319.573 221.288 319.379 221.532 318.972L212.957 313.828ZM211.205 316.75C211.15 316.838 211.124 316.857 211.136 316.846C211.152 316.831 211.168 316.823 211.158 316.828C211.138 316.838 210.805 317 209.845 317V327C211.884 327 213.852 326.662 215.631 325.772C217.467 324.854 218.769 323.515 219.685 322.05L211.205 316.75ZM209.845 317C208.455 317 208.399 316.665 208.661 316.921C208.777 317.034 208.79 317.113 208.76 317.026C208.721 316.911 208.645 316.599 208.645 316H198.645C198.645 318.771 199.342 321.8 201.678 324.079C203.99 326.335 207.034 327 209.845 327V317ZM208.645 316C208.645 314.805 209.179 313.529 210.921 312.06C212.735 310.53 215.493 309.141 218.915 307.989C225.743 305.69 233.792 304.8 238.045 304.8V294.8C232.897 294.8 223.746 295.81 215.724 298.511C211.721 299.859 207.642 301.745 204.475 304.415C201.235 307.146 198.645 310.995 198.645 316H208.645ZM238.045 304.8C241.843 304.8 247.054 305.352 252.035 306.539C257.158 307.76 261.329 309.488 263.62 311.421L270.069 303.779C265.96 300.312 259.931 298.14 254.354 296.811C248.635 295.448 242.646 294.8 238.045 294.8V304.8ZM263.366 311.191C268.454 316.121 270.445 322.994 270.445 330.8H280.445C280.445 321.406 278.035 311.479 270.324 304.009L263.366 311.191ZM270.445 330.772L270.245 366.772L280.244 366.828L280.444 330.828L270.445 330.772ZM270.245 366.8C270.245 370.033 270.294 374.927 270.633 379.61C270.801 381.95 271.048 384.316 271.414 386.438C271.764 388.462 272.286 390.663 273.172 392.436L282.117 387.964C281.903 387.537 281.575 386.513 281.268 384.737C280.979 383.059 280.763 381.05 280.607 378.89C280.295 374.573 280.245 369.967 280.245 366.8H270.245ZM273.439 392.904C276.111 397.061 280 399.075 283.797 399.889L285.892 390.111C284.089 389.725 282.778 388.939 281.85 387.496L273.439 392.904ZM284.845 390H240.645V400H284.845V390ZM241.645 334C227.919 334 218.732 337.892 213.169 344.716C207.771 351.337 206.645 359.717 206.645 366.8H216.645C216.645 360.483 217.718 354.963 220.92 351.034C223.957 347.308 229.77 344 241.645 344V334ZM206.645 366.8C206.645 373.742 207.524 381.983 212.721 388.455C218.1 395.155 227.106 398.8 240.645 398.8V388.8C228.783 388.8 223.289 385.645 220.518 382.195C217.565 378.517 216.645 373.258 216.645 366.8H206.645ZM240.645 398.8C242.679 398.8 245.622 398.81 248.449 398.364C251.159 397.936 254.739 396.955 257.3 394.212L249.989 387.388C249.75 387.645 248.93 388.164 246.89 388.486C244.967 388.79 242.811 388.8 240.645 388.8V398.8ZM258.645 390.8C258.645 391.6 258.441 392.214 258.302 392.551C258.233 392.72 258.167 392.848 258.128 392.921C258.09 392.993 258.061 393.042 258.057 393.047C258.055 393.051 258.056 393.049 258.083 393.005C258.105 392.97 258.143 392.908 258.185 392.838C258.273 392.691 258.392 392.486 258.517 392.236L249.572 387.764C249.587 387.735 249.689 387.558 249.482 387.903C249.417 388.011 249.226 388.33 249.056 388.743C248.873 389.186 248.645 389.9 248.645 390.8H258.645ZM258.517 392.236C260.197 388.875 260.931 383.718 261.326 379.183C261.744 374.377 261.845 369.265 261.845 365.4H251.845C251.845 369.135 251.745 373.923 251.363 378.317C250.958 382.982 250.292 386.325 249.572 387.764L258.517 392.236ZM261.844 365.442L262.044 341.442L252.045 341.358L251.845 365.358L261.844 365.442ZM258.317 336.565C254.524 335.566 248.76 334 241.645 334V344C247.329 344 251.966 345.234 255.772 346.235L258.317 336.565ZM300.84 308.6L305.452 306.669L305.244 306.173L304.936 305.733L300.84 308.6ZM289.44 301.4L288.977 296.421L288.42 306.295L289.44 301.4ZM322.24 299.8H327.24V294.8H322.24V299.8ZM322.24 314.6H317.24V328.025L326.022 317.871L322.24 314.6ZM382.44 315.2L377.985 317.47L381.466 324.303L386.314 318.361L382.44 315.2ZM452.24 390.2L447.807 392.513L447.889 392.67L447.982 392.82L452.24 390.2ZM458.84 395V400L460.31 390.221L458.84 395ZM421.64 395L420.266 390.192L421.64 400V395ZM428.44 390L432.912 392.236L432.95 392.16L432.985 392.083L428.44 390ZM430.84 361.2H435.84V361.179L435.84 361.158L430.84 361.2ZM430.64 337.6H425.64V337.621L425.64 337.642L430.64 337.6ZM383.44 317.4L379.453 314.383L377.725 316.666L378.82 319.312L383.44 317.4ZM389.84 390.2L394.38 388.105L394.329 387.995L394.273 387.887L389.84 390.2ZM396.24 395V400L397.71 390.221L396.24 395ZM359.24 395L357.769 390.221L359.24 400V395ZM365.84 390L370.181 392.481L370.25 392.36L370.312 392.236L365.84 390ZM368.84 361.2H373.84V361.167L373.839 361.133L368.84 361.2ZM322.24 318.2L318.113 315.377L317.24 316.653V318.2H322.24ZM324.44 390.2L319.929 392.357L320.064 392.64L320.234 392.904L324.44 390.2ZM332.04 395V400L333.02 390.097L332.04 395ZM293.44 395L292.459 390.097L293.44 400V395ZM301.04 390L305.327 392.572L305.463 392.346L305.575 392.106L301.04 390ZM304.936 305.733C301.292 300.526 296.296 297.721 290.46 296.505L288.42 306.295C292.184 307.079 294.788 308.674 296.744 311.467L304.936 305.733ZM289.903 306.379C298.378 305.59 312.821 304.8 322.24 304.8V294.8C312.458 294.8 297.701 295.61 288.977 296.421L289.903 306.379ZM317.24 299.8V314.6H327.24V299.8H317.24ZM326.022 317.871C328.834 314.619 332.976 311.138 337.723 308.493C342.489 305.838 347.546 304.2 352.24 304.2V294.2C345.333 294.2 338.591 296.562 332.856 299.757C327.104 302.962 322.045 307.181 318.458 311.329L326.022 317.871ZM352.24 304.2C365.657 304.2 373.643 308.946 377.985 317.47L386.895 312.93C380.437 300.254 368.423 294.2 352.24 294.2V304.2ZM386.314 318.361C389.001 315.067 393.167 311.458 398.016 308.694C402.883 305.919 408.075 304.2 412.84 304.2V294.2C405.805 294.2 398.897 296.681 393.064 300.006C387.212 303.342 382.079 307.733 378.566 312.039L386.314 318.361ZM412.84 304.2C423.106 304.2 430.945 308.01 436.254 313.803C441.615 319.654 444.64 327.805 444.64 336.8H454.64C454.64 325.595 450.865 314.946 443.626 307.047C436.334 299.09 425.774 294.2 412.84 294.2V304.2ZM444.64 336.8V363H454.64V336.8H444.64ZM444.64 363C444.64 366.036 444.69 371.811 445.05 377.444C445.23 380.255 445.492 383.114 445.88 385.619C446.242 387.952 446.794 390.572 447.807 392.513L456.673 387.887C456.485 387.528 456.113 386.348 455.762 384.087C455.438 381.998 455.2 379.47 455.03 376.806C454.69 371.489 454.64 365.964 454.64 363H444.64ZM447.982 392.82C450.41 396.767 454.015 398.747 457.369 399.779L460.31 390.221C458.465 389.653 457.27 388.833 456.498 387.58L447.982 392.82ZM458.84 390H421.64V400H458.84V390ZM423.013 399.808C426.425 398.833 430.61 396.841 432.912 392.236L423.968 387.764C423.47 388.759 422.454 389.567 420.266 390.192L423.013 399.808ZM432.985 392.083C433.876 390.14 434.369 387.463 434.698 385.013C435.051 382.391 435.291 379.379 435.457 376.404C435.79 370.442 435.84 364.336 435.84 361.2H425.84C425.84 364.264 425.79 370.158 425.473 375.846C425.314 378.696 425.091 381.421 424.788 383.681C424.461 386.112 424.104 387.46 423.895 387.917L432.985 392.083ZM435.84 361.158L435.64 337.558L425.64 337.642L425.84 361.242L435.84 361.158ZM435.64 337.6C435.64 331.76 435.84 322.132 433.254 314.008C431.931 309.853 429.77 305.694 426.142 302.566C422.426 299.362 417.586 297.6 411.64 297.6V307.6C415.493 307.6 417.929 308.688 419.612 310.14C421.385 311.668 422.748 313.972 423.725 317.042C425.739 323.368 425.64 331.24 425.64 337.6H435.64ZM411.64 297.6C405.065 297.6 398.577 299.792 393.079 302.858C387.579 305.927 382.722 310.062 379.453 314.383L387.427 320.417C389.757 317.338 393.501 314.073 397.951 311.592C402.403 309.108 407.215 307.6 411.64 307.6V297.6ZM378.82 319.312C380.9 324.338 382.04 330.647 382.04 338.8H392.04C392.04 329.753 390.78 322.062 388.06 315.488L378.82 319.312ZM382.04 338.8V363H392.04V338.8H382.04ZM382.04 363C382.04 366.077 382.142 371.856 382.553 377.489C382.759 380.302 383.047 383.158 383.455 385.659C383.836 387.992 384.405 390.592 385.407 392.513L394.273 387.887C394.075 387.508 393.694 386.308 393.325 384.047C392.983 381.955 392.721 379.423 392.527 376.761C392.138 371.444 392.04 365.923 392.04 363H382.04ZM385.3 392.295C387.402 396.849 391.717 398.84 394.769 399.779L397.71 390.221C395.562 389.56 394.678 388.751 394.38 388.105L385.3 392.295ZM396.24 390H359.24V400H396.24V390ZM360.71 399.779C364.106 398.734 367.763 396.712 370.181 392.481L361.499 387.519C360.717 388.888 359.573 389.666 357.769 390.221L360.71 399.779ZM370.312 392.236C371.285 390.29 371.86 387.603 372.257 385.143C372.682 382.513 372.995 379.493 373.225 376.51C373.686 370.54 373.84 364.41 373.84 361.2H363.84C363.84 364.19 363.693 370.06 363.255 375.74C363.035 378.582 362.748 381.299 362.385 383.551C361.994 385.972 361.595 387.31 361.368 387.764L370.312 392.236ZM373.839 361.133C373.747 354.217 374.648 338.772 372.87 325.606C371.976 318.985 370.342 312.252 367.178 307.049C363.863 301.599 358.672 297.6 351.24 297.6V307.6C354.407 307.6 356.691 309.051 358.633 312.245C360.725 315.685 362.129 320.79 362.96 326.944C364.632 339.328 363.733 353.183 363.84 361.267L373.839 361.133ZM351.24 297.6C344.341 297.6 337.537 299.957 331.855 303.211C326.182 306.46 321.218 310.84 318.113 315.377L326.366 321.023C328.462 317.96 332.197 314.539 336.825 311.889C341.443 309.243 346.538 307.6 351.24 307.6V297.6ZM317.24 318.2V365.2H327.24V318.2H317.24ZM317.24 365.2C317.24 368.09 317.239 373.32 317.523 378.427C317.664 380.978 317.881 383.581 318.221 385.895C318.542 388.079 319.035 390.488 319.929 392.357L328.951 388.043C328.745 387.612 328.413 386.471 328.115 384.442C327.836 382.544 327.64 380.272 327.507 377.873C327.241 373.08 327.24 368.11 327.24 365.2H317.24ZM320.234 392.904C322.988 397.187 327.193 399.13 331.059 399.903L333.02 390.097C330.886 389.67 329.492 388.813 328.646 387.496L320.234 392.904ZM332.04 390H293.44V400H332.04V390ZM294.42 399.903C298.326 399.122 302.586 397.142 305.327 392.572L296.752 387.428C295.894 388.858 294.554 389.678 292.459 390.097L294.42 399.903ZM305.575 392.106C306.524 390.062 307.096 387.507 307.482 385.064C307.882 382.532 308.138 379.728 308.306 376.98C308.641 371.482 308.64 365.888 308.64 362.6H298.64C298.64 365.912 298.639 371.218 298.324 376.37C298.167 378.947 297.936 381.405 297.604 383.505C297.259 385.693 296.856 387.138 296.505 387.894L305.575 392.106ZM308.64 362.6C308.64 349.538 308.84 338.002 308.588 328.788C308.341 319.762 307.663 311.951 305.452 306.669L296.228 310.531C297.617 313.849 298.339 319.838 298.592 329.062C298.839 338.098 298.64 349.262 298.64 362.6H308.64ZM561.705 347.4V352.4H566.814L566.704 347.293L561.705 347.4ZM487.505 347.4V342.4H482.505V347.4H487.505ZM558.305 372.2V367.2H555.489L554.029 369.608L558.305 372.2ZM559.705 372.2L564.298 374.177L567.301 367.2H559.705V372.2ZM487.705 345.4L482.732 344.883L482.159 350.4H487.705V345.4ZM542.105 345.4V350.4H547.309L547.101 345.2L542.105 345.4ZM471.905 349.6C471.905 335.928 476.124 324.794 483.408 317.116C490.659 309.473 501.377 304.8 515.305 304.8V294.8C499.034 294.8 485.551 300.327 476.153 310.234C466.787 320.106 461.905 333.872 461.905 349.6H471.905ZM515.305 304.8C528.19 304.8 538.279 309.245 545.235 316.548C552.228 323.891 556.428 334.523 556.707 347.507L566.704 347.293C566.383 332.277 561.483 319.109 552.476 309.652C543.432 300.155 530.621 294.8 515.305 294.8V304.8ZM561.705 342.4H487.505V352.4H561.705V342.4ZM482.505 347.4C482.505 359.062 483.463 371.915 488.79 381.945C491.517 387.08 495.414 391.531 500.887 394.66C506.335 397.774 513.033 399.4 521.105 399.4V389.4C514.378 389.4 509.476 388.051 505.849 385.978C502.247 383.919 499.594 380.97 497.621 377.255C493.548 369.585 492.505 358.938 492.505 347.4H482.505ZM521.105 399.4C536.397 399.4 553.752 389.36 562.581 374.792L554.029 369.608C546.859 381.44 532.614 389.4 521.105 389.4V399.4ZM558.305 377.2H559.705V367.2H558.305V377.2ZM555.113 370.223C549.325 383.672 532.539 392 517.905 392V402C535.272 402 556.486 392.328 564.298 374.177L555.113 370.223ZM517.905 392C504.209 392 492.725 387.815 484.727 380.61C476.787 373.457 471.905 362.998 471.905 349.6H461.905C461.905 365.602 467.824 378.843 478.034 388.04C488.186 397.185 502.202 402 517.905 402V392ZM516.305 296.8C502.658 296.8 494.543 305.846 489.907 315.695C485.307 325.466 483.545 337.064 482.732 344.883L492.679 345.917C493.466 338.336 495.104 328.134 498.954 319.955C502.768 311.854 508.153 306.8 516.305 306.8V296.8ZM487.705 350.4H542.105V340.4H487.705V350.4ZM547.101 345.2C546.802 337.722 546.102 326.054 542.267 316.167C540.329 311.17 537.476 306.313 533.183 302.684C528.795 298.976 523.19 296.8 516.305 296.8V306.8C520.921 306.8 524.216 308.199 526.728 310.322C529.335 312.525 531.382 315.755 532.944 319.783C536.109 327.946 536.809 338.078 537.109 345.6L547.101 345.2ZM558.802 302V297L557.439 306.811L558.802 302ZM598.602 302L600.002 306.8L598.602 297V302ZM619.602 388L614.896 389.689L619.864 403.527L624.362 389.53L619.602 388ZM643.002 326.8L647.736 328.41L648.3 326.753L647.707 325.106L643.002 326.8ZM624.802 302V297L623.451 306.814L624.802 302ZM664.802 302L666.15 306.815L664.802 297V302ZM686.002 388L681.336 389.795L686.577 403.422L690.79 389.443L686.002 388ZM713.202 312.8L718.164 313.42L718.165 313.413L718.166 313.405L713.202 312.8ZM698.402 302L698.434 297L696.92 306.775L698.402 302ZM729.602 302.2L731.336 306.89L729.634 297.2L729.602 302.2ZM706.802 341L702.148 339.173L702.139 339.197L702.13 339.22L706.802 341ZM686.002 395.6V400.6H689.448L690.675 397.38L686.002 395.6ZM671.002 395.6L666.37 397.482L667.636 400.6H671.002V395.6ZM644.602 330.6L649.235 328.718L644.417 316.855L639.921 328.844L644.602 330.6ZM640.602 341L635.942 339.188L635.939 339.196L635.936 339.205L640.602 341ZM619.602 395.6V400.6H623.036L624.269 397.395L619.602 395.6ZM605.002 395.6L600.369 397.479L601.634 400.6H605.002V395.6ZM578.002 329L573.347 330.825L573.358 330.852L573.369 330.879L578.002 329ZM558.802 307H598.602V297H558.802V307ZM597.202 297.2C593.809 298.19 591.042 300.095 589.204 302.934C587.424 305.685 586.802 308.872 586.802 312H596.802C596.802 310.128 597.181 309.015 597.6 308.366C597.963 307.805 598.596 307.21 600.002 306.8L597.202 297.2ZM586.802 312C586.802 316.803 588.631 323.724 591.003 330.924C593.445 338.336 596.709 346.743 600.027 354.824C603.35 362.917 606.756 370.754 609.495 377.028C612.292 383.436 614.271 387.946 614.896 389.689L624.308 386.311C623.534 384.154 621.338 379.164 618.66 373.028C615.923 366.758 612.555 359.008 609.278 351.026C605.996 343.032 602.834 334.877 600.501 327.795C598.098 320.501 596.802 314.997 596.802 312H586.802ZM624.362 389.53C626.095 384.141 630.201 373.917 634.822 362.327C639.385 350.881 644.387 338.255 647.736 328.41L638.269 325.19C635.018 334.745 630.119 347.119 625.533 358.623C621.004 369.983 616.71 380.659 614.842 386.47L624.362 389.53ZM647.707 325.106C646.017 320.413 644.117 314.384 641.138 309.316C638.027 304.025 633.46 299.237 626.154 297.186L623.451 306.814C627.545 307.963 630.277 310.575 632.517 314.384C634.887 318.416 636.388 323.187 638.298 328.494L647.707 325.106ZM624.802 307H664.802V297H624.802V307ZM663.454 297.185C659.959 298.164 657.139 300.072 655.301 302.978C653.54 305.763 653.002 308.96 653.002 312H663.002C663.002 310.04 663.364 308.937 663.753 308.322C664.066 307.828 664.645 307.236 666.15 306.815L663.454 297.185ZM653.002 312C653.002 316.804 654.832 323.725 657.207 330.926C659.653 338.339 662.923 346.747 666.255 354.83C669.591 362.926 673.017 370.765 675.787 377.045C678.605 383.437 680.643 387.994 681.336 389.795L690.669 386.205C689.862 384.106 687.65 379.163 684.937 373.011C682.175 366.748 678.789 358.999 675.5 351.02C672.206 343.028 669.04 334.873 666.704 327.793C664.298 320.5 663.002 314.996 663.002 312H653.002ZM690.79 389.443C692.911 382.405 699.166 367.156 705.305 351.556C708.334 343.859 711.3 336.154 713.615 329.551C715.873 323.107 717.687 317.231 718.164 313.42L708.241 312.18C707.917 314.769 706.482 319.668 704.177 326.243C701.929 332.658 699.021 340.216 696 347.894C690.038 363.044 683.494 378.995 681.215 386.557L690.79 389.443ZM718.166 313.405C718.55 310.251 717.886 307.392 716.211 305.021C714.631 302.785 712.44 301.392 710.471 300.471C708.493 299.546 706.369 298.93 704.572 298.458C702.583 297.935 701.203 297.634 699.884 297.225L696.92 306.775C698.502 307.266 700.547 307.74 702.032 308.13C703.71 308.57 705.111 309.004 706.234 309.529C707.365 310.058 707.849 310.515 708.044 310.791C708.144 310.933 708.354 311.249 708.239 312.195L718.166 313.405ZM698.37 307L729.57 307.2L729.634 297.2L698.434 297L698.37 307ZM727.869 297.51C721.444 299.885 717.1 305.69 713.485 312.507C709.817 319.424 706.293 328.613 702.148 339.173L711.457 342.827C715.711 331.987 718.988 323.476 722.32 317.193C725.704 310.81 728.561 307.915 731.336 306.89L727.869 297.51ZM702.13 339.22L681.33 393.82L690.675 397.38L711.475 342.78L702.13 339.22ZM686.002 390.6H671.002V400.6H686.002V390.6ZM675.635 393.718L649.235 328.718L639.97 332.481L666.37 397.482L675.635 393.718ZM639.921 328.844C638.733 332.01 637.345 335.581 635.942 339.188L645.262 342.812C646.66 339.219 648.071 335.59 649.284 332.356L639.921 328.844ZM635.936 339.205L614.936 393.805L624.269 397.395L645.269 342.795L635.936 339.205ZM619.602 390.6H605.002V400.6H619.602V390.6ZM609.636 393.721L582.636 327.121L573.369 330.879L600.369 397.479L609.636 393.721ZM582.657 327.175C580.86 322.592 578.788 315.959 575.775 310.525C572.618 304.831 567.923 299.387 560.165 297.189L557.439 306.811C561.682 308.013 564.587 310.969 567.03 315.375C569.617 320.041 571.145 325.208 573.347 330.825L582.657 327.175ZM773.624 392C760.736 392 750.28 387.502 743.042 380.023C735.789 372.529 731.424 361.685 731.424 348.4H721.424C721.424 363.915 726.559 377.371 735.856 386.977C745.168 396.598 758.312 402 773.624 402V392ZM731.424 348.4C731.424 335.405 735.697 324.531 742.819 316.948C749.914 309.393 760.115 304.8 772.624 304.8V294.8C757.533 294.8 744.634 300.407 735.529 310.102C726.451 319.769 721.424 333.195 721.424 348.4H731.424ZM772.624 304.8C785.421 304.8 795.934 309.255 803.247 316.743C810.568 324.24 815.024 335.128 815.024 348.6H825.024C825.024 332.872 819.781 319.36 810.401 309.757C801.015 300.145 787.827 294.8 772.624 294.8V304.8ZM815.024 348.6C815.024 361.929 810.782 372.724 803.705 380.151C796.65 387.554 786.411 392 773.624 392V402C788.837 402 801.799 396.646 810.944 387.049C820.067 377.476 825.024 364.071 825.024 348.6H815.024ZM772.824 296.4C765.322 296.4 759.281 298.801 754.61 302.86C750.038 306.834 747.064 312.141 745.098 317.573C741.2 328.339 740.824 340.86 740.824 348.4H750.824C750.824 340.94 751.248 329.961 754.501 320.977C756.109 316.534 758.298 312.904 761.17 310.408C763.943 307.999 767.627 306.4 772.824 306.4V296.4ZM740.824 348.4C740.824 356.216 741.41 368.741 745.532 379.468C747.611 384.879 750.698 390.127 755.341 394.044C760.074 398.037 766.14 400.4 773.624 400.4V390.4C768.408 390.4 764.649 388.813 761.789 386.4C758.837 383.91 756.563 380.296 754.867 375.882C751.438 366.959 750.824 355.984 750.824 348.4H740.824ZM773.624 400.4C781.07 400.4 787.079 398.028 791.739 394.012C796.301 390.079 799.285 384.82 801.268 379.424C805.196 368.73 805.624 356.257 805.624 348.6H795.624C795.624 356.143 795.152 367.07 791.881 375.976C790.263 380.38 788.072 383.971 785.21 386.438C782.444 388.822 778.779 390.4 773.624 390.4V400.4ZM805.624 348.6C805.624 340.762 804.984 328.197 800.841 317.429C798.752 312.002 795.663 306.734 791.039 302.801C786.321 298.788 780.277 296.4 772.824 296.4V306.4C777.972 306.4 781.702 307.987 784.56 310.418C787.51 312.928 789.796 316.573 791.508 321.021C794.964 330.003 795.624 341.038 795.624 348.6H805.624ZM824.643 301.4L824.19 296.421L823.535 306.276L824.643 301.4ZM857.243 299.8H862.243V294.8H857.243V299.8ZM857.443 323.6L852.445 323.728L862.239 325.015L857.443 323.6ZM893.843 315V310H893.78L893.718 310.002L893.843 315ZM875.443 308.2L875.864 313.182L875.867 313.182L875.443 308.2ZM857.243 348.2L852.247 347.996L852.244 348.062L852.243 348.129L857.243 348.2ZM859.843 390.2L855.524 392.719L855.554 392.77L855.585 392.82L859.843 390.2ZM867.043 395V400L868.024 390.097L867.043 395ZM828.643 395L827.722 390.086L828.643 400V395ZM836.043 390L831.803 387.35L831.677 387.551L831.571 387.764L836.043 390ZM835.843 308.6L831.516 311.105L831.584 311.223L831.658 311.336L835.843 308.6ZM825.096 306.379C835.983 305.39 846.628 304.8 857.243 304.8V294.8C846.258 294.8 835.303 295.41 824.19 296.421L825.096 306.379ZM852.243 299.8C852.243 307.788 852.243 315.853 852.445 323.728L862.441 323.472C862.243 315.747 862.243 307.812 862.243 299.8H852.243ZM862.239 325.015C865.339 314.509 875.479 305.6 886.243 305.6V295.6C870.206 295.6 856.747 308.291 852.647 322.185L862.239 325.015ZM886.243 305.6C888.239 305.6 890.875 305.952 892.814 306.763C893.763 307.16 894.263 307.551 894.483 307.799C894.621 307.954 894.643 308.021 894.643 308.2H904.643C904.643 302.196 900.159 298.995 896.672 297.537C893.111 296.048 889.047 295.6 886.243 295.6V305.6ZM894.643 308.2C894.643 309.264 894.326 309.719 894.215 309.843C894.12 309.95 894.029 310 893.843 310V320C900.318 320 904.643 314.618 904.643 308.2H894.643ZM893.718 310.002C891.704 310.052 890.789 309.348 888.175 307.38C886.922 306.438 885.216 305.19 883.014 304.31C880.725 303.395 878.117 302.954 875.019 303.218L875.867 313.182C877.469 313.046 878.511 313.28 879.303 313.596C880.182 313.947 880.988 314.487 882.161 315.37C884.397 317.052 887.982 320.148 893.968 319.998L893.718 310.002ZM875.022 303.218C869.625 303.674 865.581 306.789 862.703 310.528C859.859 314.222 857.848 318.885 856.4 323.469C853.496 332.661 852.458 342.837 852.247 347.996L862.239 348.404C862.428 343.763 863.39 334.539 865.936 326.481C867.212 322.44 868.789 319.015 870.627 316.628C872.43 314.286 874.161 313.326 875.864 313.182L875.022 303.218ZM852.243 348.129C852.143 355.148 852.091 364.559 852.422 372.849C852.587 376.986 852.85 380.937 853.267 384.213C853.476 385.849 853.732 387.395 854.056 388.752C854.36 390.029 854.802 391.482 855.524 392.719L864.162 387.681C864.183 387.718 864.013 387.396 863.783 386.431C863.571 385.546 863.37 384.382 863.187 382.95C862.823 380.088 862.574 376.464 862.414 372.451C862.095 364.441 862.143 355.252 862.242 348.271L852.243 348.129ZM855.585 392.82C858.022 396.781 861.919 399.074 866.062 399.903L868.024 390.097C866.166 389.726 864.864 388.819 864.101 387.58L855.585 392.82ZM867.043 390H828.643V400H867.043V390ZM829.564 399.914C833.738 399.132 838.194 396.879 840.515 392.236L831.571 387.764C831.092 388.721 829.948 389.668 827.722 390.086L829.564 399.914ZM840.283 392.65C841.231 391.133 841.801 389.259 842.192 387.569C842.606 385.775 842.922 383.712 843.168 381.529C843.661 377.159 843.915 371.953 844.041 366.772C844.293 356.454 844.043 345.613 844.043 341.2H834.043C834.043 345.987 834.293 356.346 834.044 366.528C833.921 371.597 833.675 376.466 833.231 380.408C833.008 382.382 832.745 384.034 832.449 385.317C832.301 385.955 832.157 386.452 832.025 386.822C831.888 387.208 831.8 387.355 831.803 387.35L840.283 392.65ZM844.043 341.2C844.043 338.047 844.095 331.041 843.71 324.171C843.518 320.74 843.212 317.228 842.711 314.178C842.25 311.367 841.51 308.13 840.028 305.864L831.658 311.336C831.658 311.336 831.662 311.343 831.671 311.358C831.68 311.374 831.693 311.396 831.708 311.426C831.74 311.488 831.781 311.574 831.83 311.69C831.928 311.924 832.041 312.239 832.161 312.646C832.403 313.468 832.634 314.523 832.843 315.797C833.262 318.347 833.543 321.46 833.726 324.729C834.091 331.259 834.043 337.953 834.043 341.2H844.043ZM840.17 306.095C836.983 300.59 830.814 297.675 825.751 296.524L823.535 306.276C827.272 307.125 830.303 309.01 831.516 311.105L840.17 306.095ZM904.284 250.2L903.719 245.232L903.986 255.191L904.284 250.2ZM936.884 248.6H941.884V243.6H936.884V248.6ZM936.884 349.4H931.884V356.704L938.692 354.061L936.884 349.4ZM974.884 302V297H957.713L972.199 306.218L974.884 302ZM1006.08 302L1007.36 306.834L1006.08 297V302ZM962.684 336.8L959.732 332.764L959.708 332.782L959.684 332.8L962.684 336.8ZM949.484 345.6L946.94 341.295L949.79 350.591L949.484 345.6ZM1011.08 395V400L1012.18 390.121L1011.08 395ZM969.884 368.2L965.536 370.67L965.561 370.714L965.587 370.757L969.884 368.2ZM947.684 346.6V341.6L946.471 351.451L947.684 346.6ZM948.284 346.2L951.819 349.736L945.823 341.847L948.284 346.2ZM936.884 352L935.202 347.291L931.884 348.476V352H936.884ZM939.484 390L935.011 392.236L935.074 392.36L935.142 392.481L939.484 390ZM946.884 395V400L948.172 390.169L946.884 395ZM907.884 395L906.706 390.141L907.884 400V395ZM923.684 272.8C923.684 267.49 923.493 260.988 921.054 255.667C919.772 252.87 917.832 250.295 914.951 248.384C912.088 246.484 908.614 245.45 904.582 245.209L903.986 255.191C906.654 255.35 908.329 255.991 909.422 256.716C910.498 257.43 911.32 258.43 911.963 259.833C913.374 262.912 913.684 267.31 913.684 272.8H923.684ZM904.848 255.168C913.399 254.196 927.998 253.6 936.884 253.6V243.6C927.769 243.6 912.768 244.204 903.719 245.232L904.848 255.168ZM931.884 248.6V349.4H941.884V248.6H931.884ZM938.692 354.061C946.252 351.128 957.098 343.439 965.915 335.236C970.379 331.081 974.528 326.608 977.603 322.291C980.524 318.191 983.084 313.405 983.084 308.8H973.084C973.084 310.095 972.169 312.684 969.458 316.49C966.901 320.079 963.263 324.044 959.103 327.914C950.669 335.761 940.915 342.472 935.075 344.739L938.692 354.061ZM983.084 308.8C983.084 305.227 981.738 300.435 977.568 297.782L972.199 306.218C972.295 306.279 972.514 306.465 972.728 306.954C972.946 307.452 973.084 308.109 973.084 308.8H983.084ZM974.884 307H1006.08V297H974.884V307ZM1004.8 297.166C1000.54 298.296 996.379 300.715 992.505 303.537C988.591 306.388 984.668 309.876 980.884 313.431C973.075 320.771 966.101 328.106 959.732 332.764L965.635 340.836C972.666 335.694 980.593 327.429 987.733 320.718C991.424 317.249 994.989 314.1 998.393 311.62C1001.84 309.11 1004.83 307.504 1007.36 306.834L1004.8 297.166ZM959.684 332.8C955.833 335.688 951.186 338.786 946.94 341.295L952.027 349.905C956.581 347.214 961.534 343.912 965.684 340.8L959.684 332.8ZM949.79 350.591C961.22 349.888 968.129 352.074 972.724 355.241C977.392 358.46 980.346 363.141 983.038 368.837C984.428 371.777 985.56 374.553 986.976 377.719C988.327 380.74 989.837 383.874 991.717 386.787C995.589 392.784 1001.07 397.876 1009.99 399.879L1012.18 390.121C1006.4 388.824 1002.93 385.716 1000.12 381.363C998.659 379.101 997.395 376.523 996.105 373.637C994.879 370.897 993.502 367.573 992.079 364.563C989.146 358.359 985.262 351.74 978.4 347.009C971.463 342.226 962.147 339.812 949.177 340.609L949.79 350.591ZM1011.08 390H998.684V400H1011.08V390ZM998.684 390C994.022 390 990.695 389.016 988.213 387.629C985.718 386.235 983.797 384.276 982.182 381.922C980.538 379.525 979.277 376.819 978.05 373.96C976.912 371.307 975.65 368.113 974.18 365.643L965.587 370.757C966.617 372.487 967.505 374.743 968.861 377.903C970.127 380.856 971.704 384.325 973.935 387.578C976.196 390.874 979.186 394.04 983.335 396.359C987.498 398.684 992.546 400 998.684 400V390ZM974.231 365.73C971.632 361.156 968.261 355.988 964.168 351.592C960.11 347.236 955.01 343.278 948.896 341.749L946.471 351.451C949.957 352.322 953.457 354.764 956.85 358.408C960.206 362.012 963.135 366.444 965.536 370.67L974.231 365.73ZM947.684 351.6C949.415 351.6 950.596 350.765 950.984 350.475C951.423 350.145 951.784 349.77 951.819 349.736L944.748 342.664C944.583 342.83 944.744 342.655 944.984 342.475C945.13 342.365 945.417 342.165 945.83 341.985C946.253 341.8 946.89 341.6 947.684 341.6V351.6ZM945.823 341.847C941.093 344.521 937.508 346.468 935.202 347.291L938.565 356.709C941.859 355.532 946.274 353.079 950.744 350.553L945.823 341.847ZM931.884 352V363H941.884V352H931.884ZM931.884 363C931.884 366.189 931.882 371.783 932.218 377.256C932.386 379.991 932.642 382.782 933.044 385.281C933.427 387.667 934.007 390.228 935.011 392.236L943.956 387.764C943.66 387.172 943.265 385.858 942.917 383.694C942.587 381.643 942.356 379.209 942.199 376.644C941.885 371.517 941.884 366.211 941.884 363H931.884ZM935.142 392.481C937.709 396.972 942.049 398.885 945.595 399.831L948.172 390.169C945.719 389.515 944.459 388.628 943.825 387.519L935.142 392.481ZM946.884 390H907.884V400H946.884V390ZM909.062 399.859C918.743 397.512 922.039 388.916 923.174 381.646C924.303 374.411 923.684 365.908 923.684 361.2H913.684C913.684 367.092 914.264 373.889 913.293 380.104C912.329 386.284 910.224 389.288 906.706 390.141L909.062 399.859ZM923.684 361.2V272.8H913.684V361.2H923.684Z" fill="black"/>
</svg>
