<svg width="312" height="149" viewBox="0 0 312 149" fill="none" xmlns="http://www.w3.org/2000/svg">
<path d="M77.24 25.8C77.5333 25.8 77.68 25.9067 77.68 26.12V26.2C77.68 26.3467 77.6133 26.48 77.48 26.6C77.36 26.7067 77.2 26.8533 77 27.04C76.8133 27.2133 76.6667 27.44 76.56 27.72L72.08 39.16C71.8533 39.72 71.5 40 71.02 40C70.5 40 70.1333 39.74 69.92 39.22L68.22 34.88L66.38 39.16C66.1533 39.72 65.76 40 65.2 40C64.6667 40 64.2667 39.74 64 39.22L59.02 27.74C58.8733 27.42 58.6333 27.1267 58.3 26.86C57.98 26.5933 57.82 26.3733 57.82 26.2V26.12C57.82 25.9067 57.9667 25.8 58.26 25.8H62.34C62.6333 25.8 62.78 25.9067 62.78 26.12V26.2C62.78 26.3333 62.6933 26.4733 62.52 26.62C62.36 26.7533 62.22 26.9067 62.1 27.08C61.9933 27.2533 61.9933 27.4733 62.1 27.74L65.82 36.8L67.46 32.94L65.42 27.72C65.2867 27.3733 65.0867 27.0733 64.82 26.82C64.5533 26.5667 64.42 26.36 64.42 26.2V26.12C64.42 25.9067 64.56 25.8 64.84 25.8H67.36C67.6533 25.8 67.8467 25.94 67.94 26.22L69.02 29.26L70.3 26.2C70.4067 25.9333 70.6 25.8 70.88 25.8H72.34C72.62 25.8 72.76 25.9067 72.76 26.12V26.2C72.76 26.3467 72.6733 26.4667 72.5 26.56C72.34 26.64 72.14 26.76 71.9 26.92C71.66 27.08 71.4867 27.2933 71.38 27.56L69.74 31.34L71.52 36.38L74.9 27.72C74.98 27.48 74.9533 27.2733 74.82 27.1C74.7 26.9267 74.5533 26.7667 74.38 26.62C74.2067 26.4733 74.12 26.3333 74.12 26.2V26.14C74.12 25.9133 74.2733 25.8 74.58 25.8H77.24ZM84.9259 36.96C85.0459 36.8 85.1926 36.7467 85.3659 36.8C85.5393 36.8533 85.6193 36.98 85.6059 37.18C85.5393 37.8867 85.1593 38.5667 84.4659 39.22C83.7859 39.8733 82.8393 40.2 81.6259 40.2C80.1459 40.2 78.9393 39.7333 78.0059 38.8C77.0726 37.8533 76.6059 36.6267 76.6059 35.12C76.6059 33.68 77.0793 32.5067 78.0259 31.6C78.9726 30.68 80.1326 30.2133 81.5059 30.2C82.6393 30.1867 83.5593 30.4333 84.2659 30.94C84.9726 31.4467 85.3259 32.1333 85.3259 33C85.3259 33.7067 85.0259 34.3267 84.4259 34.86C83.8393 35.38 83.0726 35.7267 82.1259 35.9C81.3793 36.06 80.5593 36.1 79.6659 36.02C79.9326 36.6733 80.3126 37.1867 80.8059 37.56C81.3126 37.9333 81.8926 38.12 82.5459 38.12C83.6526 38.12 84.4459 37.7333 84.9259 36.96ZM81.1259 31.12C80.5659 31.12 80.1126 31.3733 79.7659 31.88C79.4326 32.3867 79.2659 33.0267 79.2659 33.8C79.2659 34.24 79.3059 34.66 79.3859 35.06C80.1193 35.1133 80.7326 35.08 81.2259 34.96C82.1459 34.7867 82.6059 34.0933 82.6059 32.88C82.5926 32.3867 82.4459 31.9733 82.1659 31.64C81.8993 31.2933 81.5526 31.12 81.1259 31.12ZM100.568 38.08C100.568 38.3867 100.701 38.6867 100.968 38.98C101.235 39.26 101.368 39.4667 101.368 39.6V39.66C101.368 39.8867 101.235 40 100.968 40H98.488C98.1813 40 98.028 39.8533 98.028 39.56L97.988 39.12C97.3746 39.84 96.508 40.2 95.388 40.2C94.0946 40.2 92.988 39.7533 92.068 38.86C91.148 37.9533 90.688 36.7267 90.688 35.18C90.688 33.7267 91.148 32.5333 92.068 31.6C92.988 30.6667 94.1013 30.2 95.408 30.2C96.3413 30.2 97.1213 30.46 97.748 30.98V27.78C97.748 27.5133 97.6613 27.2933 97.488 27.12C97.328 26.9467 97.1613 26.8 96.988 26.68C96.828 26.56 96.748 26.4333 96.748 26.3V26.24C96.748 26.0133 96.888 25.86 97.168 25.78L99.788 24.98C100.308 24.8067 100.568 24.94 100.568 25.38V38.08ZM96.048 39.34C96.5013 39.34 96.8946 39.1533 97.228 38.78C97.5746 38.3933 97.748 37.8667 97.748 37.2V33.68C97.748 33.0267 97.528 32.4267 97.088 31.88C96.648 31.3333 96.1413 31.06 95.568 31.06C94.9546 31.06 94.468 31.32 94.108 31.84C93.748 32.3467 93.5613 33.0667 93.548 34C93.5213 34.76 93.5946 35.54 93.768 36.34C93.9546 37.14 94.248 37.84 94.648 38.44C95.0613 39.0267 95.528 39.3267 96.048 39.34ZM106.148 28.5C105.801 28.82 105.335 28.98 104.748 28.98C104.161 28.98 103.681 28.82 103.308 28.5C102.948 28.1667 102.768 27.74 102.768 27.22C102.768 26.7133 102.948 26.3 103.308 25.98C103.681 25.6467 104.161 25.48 104.748 25.48C105.335 25.48 105.801 25.6467 106.148 25.98C106.508 26.3 106.688 26.7133 106.688 27.22C106.688 27.74 106.508 28.1667 106.148 28.5ZM102.928 40C102.635 40 102.488 39.8867 102.488 39.66V39.58C102.488 39.4467 102.615 39.24 102.868 38.96C103.121 38.68 103.248 38.38 103.248 38.06V33.54C103.248 33.2067 103.121 32.8933 102.868 32.6C102.615 32.3067 102.488 32.1067 102.488 32V31.94C102.488 31.8067 102.628 31.6667 102.908 31.52L105.408 30.28C105.661 30.1733 105.861 30.1667 106.008 30.26C106.155 30.34 106.228 30.48 106.228 30.68V38.06C106.228 38.38 106.368 38.68 106.648 38.96C106.928 39.24 107.068 39.4467 107.068 39.58V39.66C107.068 39.8867 106.915 40 106.608 40H102.928ZM117.99 38.08C117.99 38.3867 118.123 38.6867 118.39 38.98C118.657 39.26 118.79 39.4667 118.79 39.6V39.66C118.79 39.8867 118.657 40 118.39 40H115.91C115.603 40 115.45 39.8533 115.45 39.56L115.41 39.12C114.797 39.84 113.93 40.2 112.81 40.2C111.517 40.2 110.41 39.7533 109.49 38.86C108.57 37.9533 108.11 36.7267 108.11 35.18C108.11 33.7267 108.57 32.5333 109.49 31.6C110.41 30.6667 111.523 30.2 112.83 30.2C113.763 30.2 114.543 30.46 115.17 30.98V27.78C115.17 27.5133 115.083 27.2933 114.91 27.12C114.75 26.9467 114.583 26.8 114.41 26.68C114.25 26.56 114.17 26.4333 114.17 26.3V26.24C114.17 26.0133 114.31 25.86 114.59 25.78L117.21 24.98C117.73 24.8067 117.99 24.94 117.99 25.38V38.08ZM113.47 39.34C113.923 39.34 114.317 39.1533 114.65 38.78C114.997 38.3933 115.17 37.8667 115.17 37.2V33.68C115.17 33.0267 114.95 32.4267 114.51 31.88C114.07 31.3333 113.563 31.06 112.99 31.06C112.377 31.06 111.89 31.32 111.53 31.84C111.17 32.3467 110.983 33.0667 110.97 34C110.943 34.76 111.017 35.54 111.19 36.34C111.377 37.14 111.67 37.84 112.07 38.44C112.483 39.0267 112.95 39.3267 113.47 39.34ZM134.352 38.06C134.378 38.38 134.505 38.68 134.732 38.96C134.958 39.24 135.072 39.4533 135.072 39.6V39.68C135.072 39.9067 134.918 40.02 134.612 40.02H131.152C130.845 40.02 130.692 39.9067 130.692 39.68V39.6C130.692 39.4667 130.812 39.26 131.052 38.98C131.305 38.7 131.425 38.3933 131.412 38.06L131.212 34.36C131.118 32.3467 130.538 31.34 129.472 31.34C128.938 31.34 128.518 31.54 128.212 31.94C127.918 32.34 127.772 32.8733 127.772 33.54V38.08C127.772 38.4 127.912 38.7 128.192 38.98C128.485 39.26 128.632 39.4667 128.632 39.6V39.68C128.632 39.9067 128.478 40.02 128.172 40.02H124.452C124.145 40.02 123.992 39.9067 123.992 39.68V39.6C123.992 39.4667 124.132 39.26 124.412 38.98C124.705 38.7 124.852 38.4 124.852 38.08V33.42C124.852 33.22 124.798 33.04 124.692 32.88C124.598 32.72 124.485 32.6067 124.352 32.54C124.232 32.46 124.118 32.3667 124.012 32.26C123.918 32.1533 123.872 32.0467 123.872 31.94V31.86C123.872 31.7133 124.005 31.5733 124.272 31.44L126.652 30.28C126.878 30.1733 127.045 30.1667 127.152 30.26C127.272 30.34 127.332 30.4867 127.332 30.7V31.82C127.905 30.74 128.892 30.2 130.292 30.2C131.305 30.2 132.165 30.54 132.872 31.22C133.592 31.9 134.005 32.98 134.112 34.46L134.352 38.06ZM141.363 40.2C139.776 40.2 138.463 39.7133 137.423 38.74C136.396 37.7533 135.883 36.5533 135.883 35.14C135.883 33.7133 136.389 32.5333 137.403 31.6C138.416 30.6667 139.636 30.2 141.063 30.2C142.596 30.2 143.876 30.6867 144.903 31.66C145.929 32.62 146.443 33.8133 146.443 35.24C146.443 36.6667 145.956 37.8533 144.983 38.8C144.023 39.7333 142.816 40.2 141.363 40.2ZM141.723 39.32C142.269 39.32 142.689 39.0667 142.983 38.56C143.289 38.0533 143.443 37.34 143.443 36.42C143.443 35.66 143.329 34.88 143.103 34.08C142.889 33.2667 142.563 32.5667 142.123 31.98C141.683 31.38 141.196 31.08 140.663 31.08C139.436 31.08 138.823 32.0533 138.823 34C138.823 34.72 138.929 35.48 139.143 36.28C139.369 37.08 139.709 37.7867 140.163 38.4C140.629 39.0133 141.149 39.32 141.723 39.32ZM151.427 40.2C150.493 40.2 149.753 39.9067 149.207 39.32C148.673 38.72 148.407 37.86 148.407 36.74V31.56H147.467C147.2 31.56 147.067 31.4267 147.067 31.16V30.82C147.067 30.54 147.2 30.4 147.467 30.4H147.967C148.513 30.4 148.973 30.22 149.347 29.86C149.733 29.5 149.98 29.02 150.087 28.42C150.153 28.1 150.307 27.94 150.547 27.94H150.947C151.24 27.94 151.387 28.1 151.387 28.42L151.407 30.4H153.707C153.813 30.4 153.907 30.44 153.987 30.52C154.067 30.6 154.107 30.7 154.107 30.82V31.16C154.107 31.28 154.067 31.38 153.987 31.46C153.907 31.5267 153.813 31.56 153.707 31.56H151.407V36.78C151.407 37.1667 151.5 37.48 151.687 37.72C151.887 37.9467 152.133 38.06 152.427 38.06C153.12 38.06 153.573 37.76 153.787 37.16C153.907 36.9867 154.053 36.92 154.227 36.96C154.413 36.9867 154.507 37.0933 154.507 37.28C154.507 38.0533 154.227 38.7333 153.667 39.32C153.12 39.9067 152.373 40.2 151.427 40.2ZM163.062 28.5C162.716 28.82 162.249 28.98 161.662 28.98C161.076 28.98 160.596 28.82 160.222 28.5C159.862 28.1667 159.682 27.74 159.682 27.22C159.682 26.7133 159.862 26.3 160.222 25.98C160.596 25.6467 161.076 25.48 161.662 25.48C162.249 25.48 162.716 25.6467 163.062 25.98C163.422 26.3 163.602 26.7133 163.602 27.22C163.602 27.74 163.422 28.1667 163.062 28.5ZM159.842 40C159.549 40 159.402 39.8867 159.402 39.66V39.58C159.402 39.4467 159.529 39.24 159.782 38.96C160.036 38.68 160.162 38.38 160.162 38.06V33.54C160.162 33.2067 160.036 32.8933 159.782 32.6C159.529 32.3067 159.402 32.1067 159.402 32V31.94C159.402 31.8067 159.542 31.6667 159.822 31.52L162.322 30.28C162.576 30.1733 162.776 30.1667 162.922 30.26C163.069 30.34 163.142 30.48 163.142 30.68V38.06C163.142 38.38 163.282 38.68 163.562 38.96C163.842 39.24 163.982 39.4467 163.982 39.58V39.66C163.982 39.8867 163.829 40 163.522 40H159.842ZM175.504 38.06C175.531 38.38 175.657 38.68 175.884 38.96C176.111 39.24 176.224 39.4533 176.224 39.6V39.68C176.224 39.9067 176.071 40.02 175.764 40.02H172.304C171.997 40.02 171.844 39.9067 171.844 39.68V39.6C171.844 39.4667 171.964 39.26 172.204 38.98C172.457 38.7 172.577 38.3933 172.564 38.06L172.364 34.36C172.271 32.3467 171.691 31.34 170.624 31.34C170.091 31.34 169.671 31.54 169.364 31.94C169.071 32.34 168.924 32.8733 168.924 33.54V38.08C168.924 38.4 169.064 38.7 169.344 38.98C169.637 39.26 169.784 39.4667 169.784 39.6V39.68C169.784 39.9067 169.631 40.02 169.324 40.02H165.604C165.297 40.02 165.144 39.9067 165.144 39.68V39.6C165.144 39.4667 165.284 39.26 165.564 38.98C165.857 38.7 166.004 38.4 166.004 38.08V33.42C166.004 33.22 165.951 33.04 165.844 32.88C165.751 32.72 165.637 32.6067 165.504 32.54C165.384 32.46 165.271 32.3667 165.164 32.26C165.071 32.1533 165.024 32.0467 165.024 31.94V31.86C165.024 31.7133 165.157 31.5733 165.424 31.44L167.804 30.28C168.031 30.1733 168.197 30.1667 168.304 30.26C168.424 30.34 168.484 30.4867 168.484 30.7V31.82C169.057 30.74 170.044 30.2 171.444 30.2C172.457 30.2 173.317 30.54 174.024 31.22C174.744 31.9 175.157 32.98 175.264 34.46L175.504 38.06ZM187.355 38.04C187.382 38.36 187.508 38.66 187.735 38.94C187.962 39.22 188.075 39.4333 188.075 39.58V39.66C188.075 39.8867 187.928 40 187.635 40H184.155C183.862 40 183.715 39.8867 183.715 39.66V39.58C183.715 39.4467 183.835 39.24 184.075 38.96C184.328 38.68 184.448 38.38 184.435 38.06L184.235 34.22C184.142 32.3 183.562 31.34 182.495 31.34C181.962 31.34 181.542 31.54 181.235 31.94C180.942 32.34 180.795 32.8733 180.795 33.54V38.08C180.795 38.3867 180.935 38.68 181.215 38.96C181.508 39.24 181.655 39.4467 181.655 39.58V39.66C181.655 39.8867 181.495 40 181.175 40H177.475C177.168 40 177.015 39.8867 177.015 39.66V39.58C177.015 39.4467 177.155 39.24 177.435 38.96C177.715 38.68 177.855 38.3867 177.855 38.08V28.12C177.855 27.8 177.702 27.5133 177.395 27.26C177.102 27.0067 176.955 26.8133 176.955 26.68V26.62C176.955 26.42 177.088 26.2533 177.355 26.12L179.995 24.96C180.222 24.8667 180.395 24.8533 180.515 24.92C180.648 24.9867 180.715 25.12 180.715 25.32L180.695 31.32C181.322 30.5733 182.195 30.2 183.315 30.2C184.328 30.2 185.188 30.5333 185.895 31.2C186.602 31.8533 187.002 32.8867 187.095 34.3L187.355 38.04ZM197.25 36.96C197.37 36.8 197.517 36.7467 197.69 36.8C197.863 36.8533 197.943 36.98 197.93 37.18C197.863 37.8867 197.483 38.5667 196.79 39.22C196.11 39.8733 195.163 40.2 193.95 40.2C192.47 40.2 191.263 39.7333 190.33 38.8C189.397 37.8533 188.93 36.6267 188.93 35.12C188.93 33.68 189.403 32.5067 190.35 31.6C191.297 30.68 192.457 30.2133 193.83 30.2C194.963 30.1867 195.883 30.4333 196.59 30.94C197.297 31.4467 197.65 32.1333 197.65 33C197.65 33.7067 197.35 34.3267 196.75 34.86C196.163 35.38 195.397 35.7267 194.45 35.9C193.703 36.06 192.883 36.1 191.99 36.02C192.257 36.6733 192.637 37.1867 193.13 37.56C193.637 37.9333 194.217 38.12 194.87 38.12C195.977 38.12 196.77 37.7333 197.25 36.96ZM193.45 31.12C192.89 31.12 192.437 31.3733 192.09 31.88C191.757 32.3867 191.59 33.0267 191.59 33.8C191.59 34.24 191.63 34.66 191.71 35.06C192.443 35.1133 193.057 35.08 193.55 34.96C194.47 34.7867 194.93 34.0933 194.93 32.88C194.917 32.3867 194.77 31.9733 194.49 31.64C194.223 31.2933 193.877 31.12 193.45 31.12ZM205.111 30.2C205.684 30.2 206.131 30.3733 206.451 30.72C206.784 31.0533 206.951 31.4867 206.951 32.02C206.951 33.0733 206.524 33.6 205.671 33.6C205.324 33.6 205.051 33.5133 204.851 33.34C204.664 33.1533 204.551 32.9533 204.511 32.74C204.471 32.5267 204.391 32.3333 204.271 32.16C204.151 31.9733 203.971 31.88 203.731 31.88C203.371 31.88 203.104 32.0933 202.931 32.52C202.757 32.9467 202.671 33.4667 202.671 34.08V38.08C202.671 38.32 202.751 38.5333 202.911 38.72C203.084 38.8933 203.251 39.0467 203.411 39.18C203.584 39.3133 203.671 39.4467 203.671 39.58V39.66C203.671 39.8867 203.524 40 203.231 40H199.531C199.224 40 199.071 39.8867 199.071 39.66V39.58C199.071 39.4467 199.197 39.24 199.451 38.96C199.717 38.68 199.851 38.3867 199.851 38.08V33.4C199.851 33.08 199.697 32.7933 199.391 32.54C199.084 32.2867 198.931 32.0933 198.931 31.96V31.88C198.931 31.6933 199.071 31.5333 199.351 31.4L201.751 30.28C202.177 30.08 202.391 30.2133 202.391 30.68V32.18C202.844 30.86 203.751 30.2 205.111 30.2ZM211.285 28.5C210.938 28.82 210.472 28.98 209.885 28.98C209.298 28.98 208.818 28.82 208.445 28.5C208.085 28.1667 207.905 27.74 207.905 27.22C207.905 26.7133 208.085 26.3 208.445 25.98C208.818 25.6467 209.298 25.48 209.885 25.48C210.472 25.48 210.938 25.6467 211.285 25.98C211.645 26.3 211.825 26.7133 211.825 27.22C211.825 27.74 211.645 28.1667 211.285 28.5ZM208.065 40C207.772 40 207.625 39.8867 207.625 39.66V39.58C207.625 39.4467 207.752 39.24 208.005 38.96C208.258 38.68 208.385 38.38 208.385 38.06V33.54C208.385 33.2067 208.258 32.8933 208.005 32.6C207.752 32.3067 207.625 32.1067 207.625 32V31.94C207.625 31.8067 207.765 31.6667 208.045 31.52L210.545 30.28C210.798 30.1733 210.998 30.1667 211.145 30.26C211.292 30.34 211.365 30.48 211.365 30.68V38.06C211.365 38.38 211.505 38.68 211.785 38.96C212.065 39.24 212.205 39.4467 212.205 39.58V39.66C212.205 39.8867 212.052 40 211.745 40H208.065ZM217.267 40.2C216.333 40.2 215.593 39.9067 215.047 39.32C214.513 38.72 214.247 37.86 214.247 36.74V31.56H213.307C213.04 31.56 212.907 31.4267 212.907 31.16V30.82C212.907 30.54 213.04 30.4 213.307 30.4H213.807C214.353 30.4 214.813 30.22 215.187 29.86C215.573 29.5 215.82 29.02 215.927 28.42C215.993 28.1 216.147 27.94 216.387 27.94H216.787C217.08 27.94 217.227 28.1 217.227 28.42L217.247 30.4H219.547C219.653 30.4 219.747 30.44 219.827 30.52C219.907 30.6 219.947 30.7 219.947 30.82V31.16C219.947 31.28 219.907 31.38 219.827 31.46C219.747 31.5267 219.653 31.56 219.547 31.56H217.247V36.78C217.247 37.1667 217.34 37.48 217.527 37.72C217.727 37.9467 217.973 38.06 218.267 38.06C218.96 38.06 219.413 37.76 219.627 37.16C219.747 36.9867 219.893 36.92 220.067 36.96C220.253 36.9867 220.347 37.0933 220.347 37.28C220.347 38.0533 220.067 38.7333 219.507 39.32C218.96 39.9067 218.213 40.2 217.267 40.2ZM229.024 40.2C228.091 40.2 227.351 39.9067 226.804 39.32C226.271 38.72 226.004 37.86 226.004 36.74V31.56H225.064C224.798 31.56 224.664 31.4267 224.664 31.16V30.82C224.664 30.54 224.798 30.4 225.064 30.4H225.564C226.111 30.4 226.571 30.22 226.944 29.86C227.331 29.5 227.578 29.02 227.684 28.42C227.751 28.1 227.904 27.94 228.144 27.94H228.544C228.838 27.94 228.984 28.1 228.984 28.42L229.004 30.4H231.304C231.411 30.4 231.504 30.44 231.584 30.52C231.664 30.6 231.704 30.7 231.704 30.82V31.16C231.704 31.28 231.664 31.38 231.584 31.46C231.504 31.5267 231.411 31.56 231.304 31.56H229.004V36.78C229.004 37.1667 229.098 37.48 229.284 37.72C229.484 37.9467 229.731 38.06 230.024 38.06C230.718 38.06 231.171 37.76 231.384 37.16C231.504 36.9867 231.651 36.92 231.824 36.96C232.011 36.9867 232.104 37.0933 232.104 37.28C232.104 38.0533 231.824 38.7333 231.264 39.32C230.718 39.9067 229.971 40.2 229.024 40.2ZM243.058 38.04C243.085 38.36 243.212 38.66 243.438 38.94C243.665 39.22 243.778 39.4333 243.778 39.58V39.66C243.778 39.8867 243.632 40 243.338 40H239.858C239.565 40 239.418 39.8867 239.418 39.66V39.58C239.418 39.4467 239.538 39.24 239.778 38.96C240.032 38.68 240.152 38.38 240.138 38.06L239.938 34.22C239.845 32.3 239.265 31.34 238.198 31.34C237.665 31.34 237.245 31.54 236.938 31.94C236.645 32.34 236.498 32.8733 236.498 33.54V38.08C236.498 38.3867 236.638 38.68 236.918 38.96C237.212 39.24 237.358 39.4467 237.358 39.58V39.66C237.358 39.8867 237.198 40 236.878 40H233.178C232.872 40 232.718 39.8867 232.718 39.66V39.58C232.718 39.4467 232.858 39.24 233.138 38.96C233.418 38.68 233.558 38.3867 233.558 38.08V28.12C233.558 27.8 233.405 27.5133 233.098 27.26C232.805 27.0067 232.658 26.8133 232.658 26.68V26.62C232.658 26.42 232.792 26.2533 233.058 26.12L235.698 24.96C235.925 24.8667 236.098 24.8533 236.218 24.92C236.352 24.9867 236.418 25.12 236.418 25.32L236.398 31.32C237.025 30.5733 237.898 30.2 239.018 30.2C240.032 30.2 240.892 30.5333 241.598 31.2C242.305 31.8533 242.705 32.8867 242.798 34.3L243.058 38.04ZM248.433 28.5C248.087 28.82 247.62 28.98 247.033 28.98C246.447 28.98 245.967 28.82 245.593 28.5C245.233 28.1667 245.053 27.74 245.053 27.22C245.053 26.7133 245.233 26.3 245.593 25.98C245.967 25.6467 246.447 25.48 247.033 25.48C247.62 25.48 248.087 25.6467 248.433 25.98C248.793 26.3 248.973 26.7133 248.973 27.22C248.973 27.74 248.793 28.1667 248.433 28.5ZM245.213 40C244.92 40 244.773 39.8867 244.773 39.66V39.58C244.773 39.4467 244.9 39.24 245.153 38.96C245.407 38.68 245.533 38.38 245.533 38.06V33.54C245.533 33.2067 245.407 32.8933 245.153 32.6C244.9 32.3067 244.773 32.1067 244.773 32V31.94C244.773 31.8067 244.913 31.6667 245.193 31.52L247.693 30.28C247.947 30.1733 248.147 30.1667 248.293 30.26C248.44 30.34 248.513 30.48 248.513 30.68V38.06C248.513 38.38 248.653 38.68 248.933 38.96C249.213 39.24 249.353 39.4467 249.353 39.58V39.66C249.353 39.8867 249.2 40 248.893 40H245.213ZM254.675 40.18C253.422 40.18 252.395 39.9533 251.595 39.5C250.795 39.0467 250.395 38.5 250.395 37.86C250.395 37.5 250.502 37.2267 250.715 37.04C250.942 36.8533 251.235 36.76 251.595 36.76C251.982 36.76 252.295 36.9 252.535 37.18C252.775 37.4467 252.942 37.7467 253.035 38.08C253.142 38.4133 253.328 38.72 253.595 39C253.875 39.2667 254.235 39.4 254.675 39.4C255.102 39.4 255.448 39.2867 255.715 39.06C255.995 38.8333 256.135 38.5067 256.135 38.08C256.135 37.6 255.942 37.22 255.555 36.94C255.182 36.66 254.722 36.4533 254.175 36.32C253.628 36.1733 253.082 36.0133 252.535 35.84C251.988 35.6533 251.522 35.34 251.135 34.9C250.762 34.4467 250.575 33.86 250.575 33.14C250.575 32.2867 250.948 31.5867 251.695 31.04C252.455 30.48 253.435 30.2 254.635 30.2C255.848 30.2 256.835 30.44 257.595 30.92C258.368 31.3867 258.755 31.9467 258.755 32.6C258.755 32.8933 258.642 33.14 258.415 33.34C258.202 33.54 257.935 33.64 257.615 33.64C257.242 33.64 256.942 33.5067 256.715 33.24C256.488 32.96 256.328 32.66 256.235 32.34C256.142 32.0067 255.975 31.7067 255.735 31.44C255.495 31.16 255.182 31.02 254.795 31.02C254.408 31.02 254.095 31.1533 253.855 31.42C253.615 31.6733 253.495 31.9867 253.495 32.36C253.495 32.7333 253.595 33.0467 253.795 33.3C253.995 33.5533 254.255 33.7467 254.575 33.88C254.895 34.0133 255.248 34.14 255.635 34.26C256.022 34.3667 256.408 34.4933 256.795 34.64C257.195 34.7733 257.555 34.94 257.875 35.14C258.195 35.34 258.455 35.6267 258.655 36C258.855 36.36 258.955 36.8 258.955 37.32C258.955 38.1467 258.568 38.8333 257.795 39.38C257.022 39.9133 255.982 40.18 254.675 40.18ZM64.52 57.2C65.7733 57.2 66.8667 57.6333 67.8 58.5C68.7333 59.3667 69.2 60.5467 69.2 62.04C69.2 63.5467 68.74 64.7867 67.82 65.76C66.9133 66.72 65.82 67.2 64.54 67.2C63.6067 67.2 62.8267 66.94 62.2 66.42V69.4C62.2 69.72 62.34 70.02 62.62 70.3C62.9 70.58 63.04 70.7867 63.04 70.92V71C63.04 71.2267 62.8867 71.34 62.58 71.34H58.96C58.6533 71.34 58.5 71.2267 58.5 71V70.92C58.5 70.7867 58.6267 70.58 58.88 70.3C59.1467 70.02 59.28 69.72 59.28 69.4V60.4C59.28 60.1067 59.1267 59.84 58.82 59.6C58.5133 59.3467 58.36 59.1467 58.36 59V58.9C58.36 58.7133 58.4933 58.5533 58.76 58.42L61 57.32C61.5067 57.0667 61.76 57.1867 61.76 57.68L61.74 58.52C62.3 57.64 63.2267 57.2 64.52 57.2ZM64.24 66.34C64.88 66.34 65.3733 66.0733 65.72 65.54C66.08 65.0067 66.26 64.24 66.26 63.24C66.26 61.88 66.04 60.68 65.6 59.64C65.16 58.5867 64.5667 58.06 63.82 58.06C63.4067 58.06 63.0467 58.2133 62.74 58.52C62.4333 58.8133 62.2533 59.2 62.2 59.68V63.5C62.2 64.2733 62.4067 64.94 62.82 65.5C63.2333 66.06 63.7067 66.34 64.24 66.34ZM70.7378 67C70.4311 67 70.2778 66.8867 70.2778 66.66V66.58C70.2778 66.4467 70.4045 66.24 70.6578 65.96C70.9245 65.68 71.0578 65.3867 71.0578 65.08V55.24C71.0578 54.8933 70.9245 54.58 70.6578 54.3C70.4045 54.02 70.2778 53.8267 70.2778 53.72V53.64C70.2778 53.48 70.4111 53.3467 70.6778 53.24L73.1978 52C73.4645 51.8933 73.6645 51.88 73.7978 51.96C73.9445 52.04 74.0178 52.1733 74.0178 52.36V65.08C74.0178 65.3867 74.1578 65.68 74.4378 65.96C74.7311 66.24 74.8778 66.4467 74.8778 66.58V66.66C74.8778 66.8867 74.7245 67 74.4178 67H70.7378ZM86.6033 58.24C86.6033 58.32 86.4633 58.5133 86.1833 58.82C85.9033 59.1267 85.7633 59.4667 85.7633 59.84V65.08C85.7633 65.3867 85.8899 65.6867 86.1433 65.98C86.4099 66.26 86.5433 66.4667 86.5433 66.6V66.66C86.5433 66.8867 86.4099 67 86.1433 67H83.6833C83.5499 67 83.4366 66.96 83.3433 66.88C83.2633 66.8 83.2233 66.6933 83.2233 66.56V66.08C82.5966 66.8267 81.7166 67.2 80.5833 67.2C79.2899 67.2 78.1833 66.7533 77.2633 65.86C76.3433 64.9533 75.8833 63.7267 75.8833 62.18C75.8833 60.7267 76.3433 59.5333 77.2633 58.6C78.1833 57.6667 79.2966 57.2 80.6033 57.2C81.6699 57.2 82.5433 57.54 83.2233 58.22V57.82C83.2233 57.6333 83.3033 57.4933 83.4633 57.4C83.6233 57.2933 83.8299 57.2667 84.0833 57.32L86.1833 57.68C86.4633 57.7333 86.6033 57.9 86.6033 58.18V58.24ZM81.2433 66.34C81.6966 66.34 82.0899 66.1533 82.4233 65.78C82.7699 65.3933 82.9433 64.8667 82.9433 64.2V60.68C82.9433 59.9733 82.7233 59.36 82.2833 58.84C81.8566 58.32 81.3499 58.06 80.7633 58.06C80.1499 58.06 79.6633 58.32 79.3033 58.84C78.9433 59.3467 78.7566 60.0667 78.7433 61C78.7166 61.76 78.7899 62.54 78.9633 63.34C79.1499 64.14 79.4433 64.84 79.8433 65.44C80.2566 66.0267 80.7233 66.3267 81.2433 66.34ZM98.2383 65.06C98.2649 65.38 98.3916 65.68 98.6183 65.96C98.8449 66.24 98.9583 66.4533 98.9583 66.6V66.68C98.9583 66.9067 98.8049 67.02 98.4983 67.02H95.0383C94.7316 67.02 94.5783 66.9067 94.5783 66.68V66.6C94.5783 66.4667 94.6983 66.26 94.9383 65.98C95.1916 65.7 95.3116 65.3933 95.2983 65.06L95.0983 61.36C95.0049 59.3467 94.4249 58.34 93.3583 58.34C92.8249 58.34 92.4049 58.54 92.0983 58.94C91.8049 59.34 91.6583 59.8733 91.6583 60.54V65.08C91.6583 65.4 91.7983 65.7 92.0783 65.98C92.3716 66.26 92.5183 66.4667 92.5183 66.6V66.68C92.5183 66.9067 92.3649 67.02 92.0583 67.02H88.3383C88.0316 67.02 87.8783 66.9067 87.8783 66.68V66.6C87.8783 66.4667 88.0183 66.26 88.2983 65.98C88.5916 65.7 88.7383 65.4 88.7383 65.08V60.42C88.7383 60.22 88.6849 60.04 88.5783 59.88C88.4849 59.72 88.3716 59.6067 88.2383 59.54C88.1183 59.46 88.0049 59.3667 87.8983 59.26C87.8049 59.1533 87.7583 59.0467 87.7583 58.94V58.86C87.7583 58.7133 87.8916 58.5733 88.1583 58.44L90.5383 57.28C90.7649 57.1733 90.9316 57.1667 91.0383 57.26C91.1583 57.34 91.2183 57.4867 91.2183 57.7V58.82C91.7916 57.74 92.7783 57.2 94.1783 57.2C95.1916 57.2 96.0516 57.54 96.7583 58.22C97.4783 58.9 97.8916 59.98 97.9983 61.46L98.2383 65.06ZM108.11 63.96C108.23 63.8 108.376 63.7467 108.55 63.8C108.723 63.8533 108.803 63.98 108.79 64.18C108.723 64.8867 108.343 65.5667 107.65 66.22C106.97 66.8733 106.023 67.2 104.81 67.2C103.33 67.2 102.123 66.7333 101.19 65.8C100.256 64.8533 99.7895 63.6267 99.7895 62.12C99.7895 60.68 100.263 59.5067 101.21 58.6C102.156 57.68 103.316 57.2133 104.69 57.2C105.823 57.1867 106.743 57.4333 107.45 57.94C108.156 58.4467 108.51 59.1333 108.51 60C108.51 60.7067 108.21 61.3267 107.61 61.86C107.023 62.38 106.256 62.7267 105.31 62.9C104.563 63.06 103.743 63.1 102.85 63.02C103.116 63.6733 103.496 64.1867 103.99 64.56C104.496 64.9333 105.076 65.12 105.73 65.12C106.836 65.12 107.63 64.7333 108.11 63.96ZM104.31 58.12C103.75 58.12 103.296 58.3733 102.95 58.88C102.616 59.3867 102.45 60.0267 102.45 60.8C102.45 61.24 102.49 61.66 102.57 62.06C103.303 62.1133 103.916 62.08 104.41 61.96C105.33 61.7867 105.79 61.0933 105.79 59.88C105.776 59.3867 105.63 58.9733 105.35 58.64C105.083 58.2933 104.736 58.12 104.31 58.12ZM113.77 67.2C112.837 67.2 112.097 66.9067 111.55 66.32C111.017 65.72 110.75 64.86 110.75 63.74V58.56H109.81C109.544 58.56 109.41 58.4267 109.41 58.16V57.82C109.41 57.54 109.544 57.4 109.81 57.4H110.31C110.857 57.4 111.317 57.22 111.69 56.86C112.077 56.5 112.324 56.02 112.43 55.42C112.497 55.1 112.65 54.94 112.89 54.94H113.29C113.584 54.94 113.73 55.1 113.73 55.42L113.75 57.4H116.05C116.157 57.4 116.25 57.44 116.33 57.52C116.41 57.6 116.45 57.7 116.45 57.82V58.16C116.45 58.28 116.41 58.38 116.33 58.46C116.25 58.5267 116.157 58.56 116.05 58.56H113.75V63.78C113.75 64.1667 113.844 64.48 114.03 64.72C114.23 64.9467 114.477 65.06 114.77 65.06C115.464 65.06 115.917 64.76 116.13 64.16C116.25 63.9867 116.397 63.92 116.57 63.96C116.757 63.9867 116.85 64.0933 116.85 64.28C116.85 65.0533 116.57 65.7333 116.01 66.32C115.464 66.9067 114.717 67.2 113.77 67.2ZM126.826 52.34C127.653 52.34 128.359 52.5733 128.946 53.04C129.546 53.5067 129.846 54.0533 129.846 54.68C129.846 54.9467 129.746 55.1867 129.546 55.4C129.359 55.6133 129.086 55.72 128.726 55.72C128.326 55.72 128.013 55.6333 127.786 55.46C127.559 55.2867 127.413 55.08 127.346 54.84C127.279 54.5867 127.219 54.34 127.166 54.1C127.126 53.8467 127.033 53.6333 126.886 53.46C126.739 53.2733 126.526 53.18 126.246 53.18C125.913 53.18 125.666 53.3267 125.506 53.62C125.346 53.9 125.273 54.2667 125.286 54.72C125.313 55.1733 125.366 55.6267 125.446 56.08C125.539 56.5333 125.659 56.9733 125.806 57.4H128.246C128.353 57.4 128.446 57.44 128.526 57.52C128.606 57.6 128.646 57.6933 128.646 57.8V58.18C128.646 58.2867 128.606 58.38 128.526 58.46C128.446 58.5267 128.353 58.56 128.246 58.56H125.886V65.06C125.886 65.3 125.966 65.5133 126.126 65.7C126.299 65.8867 126.466 66.0467 126.626 66.18C126.799 66.3133 126.886 66.4467 126.886 66.58V66.66C126.886 66.8867 126.759 67 126.506 67H122.606C122.326 67 122.186 66.8867 122.186 66.66V66.58C122.186 66.4467 122.319 66.24 122.586 65.96C122.853 65.68 122.986 65.38 122.986 65.06V58.56H121.566C121.286 58.56 121.146 58.4333 121.146 58.18V57.8C121.146 57.6933 121.186 57.6 121.266 57.52C121.346 57.44 121.446 57.4 121.566 57.4H122.986V56.14C122.986 55.02 123.313 54.1067 123.966 53.4C124.619 52.6933 125.573 52.34 126.826 52.34ZM135.267 57.2C135.84 57.2 136.287 57.3733 136.607 57.72C136.94 58.0533 137.107 58.4867 137.107 59.02C137.107 60.0733 136.68 60.6 135.827 60.6C135.48 60.6 135.207 60.5133 135.007 60.34C134.82 60.1533 134.707 59.9533 134.667 59.74C134.627 59.5267 134.547 59.3333 134.427 59.16C134.307 58.9733 134.127 58.88 133.887 58.88C133.527 58.88 133.26 59.0933 133.087 59.52C132.914 59.9467 132.827 60.4667 132.827 61.08V65.08C132.827 65.32 132.907 65.5333 133.067 65.72C133.24 65.8933 133.407 66.0467 133.567 66.18C133.74 66.3133 133.827 66.4467 133.827 66.58V66.66C133.827 66.8867 133.68 67 133.387 67H129.687C129.38 67 129.227 66.8867 129.227 66.66V66.58C129.227 66.4467 129.354 66.24 129.607 65.96C129.874 65.68 130.007 65.3867 130.007 65.08V60.4C130.007 60.08 129.854 59.7933 129.547 59.54C129.24 59.2867 129.087 59.0933 129.087 58.96V58.88C129.087 58.6933 129.227 58.5333 129.507 58.4L131.907 57.28C132.334 57.08 132.547 57.2133 132.547 57.68V59.18C133 57.86 133.907 57.2 135.267 57.2ZM142.964 67.2C141.378 67.2 140.064 66.7133 139.024 65.74C137.998 64.7533 137.484 63.5533 137.484 62.14C137.484 60.7133 137.991 59.5333 139.004 58.6C140.018 57.6667 141.238 57.2 142.664 57.2C144.198 57.2 145.478 57.6867 146.504 58.66C147.531 59.62 148.044 60.8133 148.044 62.24C148.044 63.6667 147.558 64.8533 146.584 65.8C145.624 66.7333 144.418 67.2 142.964 67.2ZM143.324 66.32C143.871 66.32 144.291 66.0667 144.584 65.56C144.891 65.0533 145.044 64.34 145.044 63.42C145.044 62.66 144.931 61.88 144.704 61.08C144.491 60.2667 144.164 59.5667 143.724 58.98C143.284 58.38 142.798 58.08 142.264 58.08C141.038 58.08 140.424 59.0533 140.424 61C140.424 61.72 140.531 62.48 140.744 63.28C140.971 64.08 141.311 64.7867 141.764 65.4C142.231 66.0133 142.751 66.32 143.324 66.32ZM165.806 65.06C165.833 65.38 165.959 65.68 166.186 65.96C166.413 66.24 166.526 66.4533 166.526 66.6V66.68C166.526 66.9067 166.379 67.02 166.086 67.02H162.626C162.319 67.02 162.166 66.9067 162.166 66.68V66.6C162.166 66.4667 162.286 66.26 162.526 65.98C162.779 65.7 162.893 65.4 162.866 65.08L162.666 61.42C162.613 60.3133 162.446 59.5267 162.166 59.06C161.886 58.58 161.473 58.34 160.926 58.34C160.459 58.34 160.079 58.5333 159.786 58.92C159.493 59.3067 159.333 59.8067 159.306 60.42C159.359 60.6867 159.386 61.0067 159.386 61.38V65.08C159.386 65.4 159.499 65.7 159.726 65.98C159.966 66.26 160.086 66.4667 160.086 66.6V66.68C160.086 66.9067 159.939 67.02 159.646 67.02H156.186C155.879 67.02 155.726 66.9067 155.726 66.68V66.6C155.726 66.4667 155.846 66.26 156.086 65.98C156.326 65.7 156.446 65.4 156.446 65.08V61.18C156.446 60.2733 156.286 59.5733 155.966 59.08C155.646 58.5867 155.226 58.34 154.706 58.34C154.173 58.34 153.753 58.5467 153.446 58.96C153.139 59.3733 152.986 59.9067 152.986 60.56V65.08C152.986 65.4 153.126 65.7 153.406 65.98C153.699 66.26 153.846 66.4667 153.846 66.6V66.68C153.846 66.9067 153.693 67.02 153.386 67.02H149.666C149.359 67.02 149.206 66.9067 149.206 66.68V66.6C149.206 66.4667 149.346 66.26 149.626 65.98C149.919 65.7 150.066 65.4 150.066 65.08V60.42C150.066 60.1667 149.986 59.9533 149.826 59.78C149.666 59.6067 149.499 59.46 149.326 59.34C149.166 59.2067 149.086 59.0733 149.086 58.94V58.86C149.086 58.7133 149.226 58.5733 149.506 58.44L152.026 57.28C152.253 57.1733 152.426 57.1667 152.546 57.26C152.666 57.34 152.726 57.4867 152.726 57.7V58.64C153.353 57.68 154.273 57.2 155.486 57.2C157.006 57.2 158.113 57.8 158.806 59C159.073 58.44 159.473 58 160.006 57.68C160.553 57.36 161.166 57.2 161.846 57.2C162.859 57.2 163.706 57.54 164.386 58.22C165.066 58.8867 165.459 59.98 165.566 61.5L165.806 65.06ZM176.929 67.2C175.343 67.2 174.029 66.7133 172.989 65.74C171.963 64.7533 171.449 63.5533 171.449 62.14C171.449 60.7133 171.956 59.5333 172.969 58.6C173.983 57.6667 175.203 57.2 176.629 57.2C178.163 57.2 179.443 57.6867 180.469 58.66C181.496 59.62 182.009 60.8133 182.009 62.24C182.009 63.6667 181.523 64.8533 180.549 65.8C179.589 66.7333 178.383 67.2 176.929 67.2ZM177.289 66.32C177.836 66.32 178.256 66.0667 178.549 65.56C178.856 65.0533 179.009 64.34 179.009 63.42C179.009 62.66 178.896 61.88 178.669 61.08C178.456 60.2667 178.129 59.5667 177.689 58.98C177.249 58.38 176.763 58.08 176.229 58.08C175.003 58.08 174.389 59.0533 174.389 61C174.389 61.72 174.496 62.48 174.709 63.28C174.936 64.08 175.276 64.7867 175.729 65.4C176.196 66.0133 176.716 66.32 177.289 66.32ZM192.931 64.96C192.931 65.32 192.977 65.5933 193.071 65.78C193.177 65.9533 193.291 66.0533 193.411 66.08C193.531 66.0933 193.637 66.1333 193.731 66.2C193.837 66.2667 193.891 66.38 193.891 66.54C193.891 66.9267 193.297 67.12 192.111 67.12C191.524 67.12 191.084 67.0267 190.791 66.84C190.511 66.64 190.357 66.3 190.331 65.82C189.771 66.74 188.804 67.2 187.431 67.2C186.351 67.2 185.457 66.84 184.751 66.12C184.057 65.3867 183.711 64.36 183.711 63.04V59.66C183.711 59.3267 183.577 59.02 183.311 58.74C183.057 58.4467 182.931 58.2467 182.931 58.14V58.08C182.931 57.84 183.071 57.7 183.351 57.66L185.871 57.28C186.417 57.2133 186.691 57.3333 186.691 57.64L186.631 63.34C186.631 65.1533 187.184 66.06 188.291 66.06C188.784 66.06 189.191 65.8467 189.511 65.42C189.844 64.98 190.011 64.4133 190.011 63.72V59.66C190.011 59.3267 189.877 59.02 189.611 58.74C189.344 58.4467 189.211 58.2467 189.211 58.14V58.08C189.211 57.84 189.344 57.7 189.611 57.66L192.171 57.28C192.677 57.2267 192.931 57.3467 192.931 57.64V64.96ZM200.97 57.2C201.543 57.2 201.99 57.3733 202.31 57.72C202.643 58.0533 202.81 58.4867 202.81 59.02C202.81 60.0733 202.383 60.6 201.53 60.6C201.183 60.6 200.91 60.5133 200.71 60.34C200.523 60.1533 200.41 59.9533 200.37 59.74C200.33 59.5267 200.25 59.3333 200.13 59.16C200.01 58.9733 199.83 58.88 199.59 58.88C199.23 58.88 198.963 59.0933 198.79 59.52C198.617 59.9467 198.53 60.4667 198.53 61.08V65.08C198.53 65.32 198.61 65.5333 198.77 65.72C198.943 65.8933 199.11 66.0467 199.27 66.18C199.443 66.3133 199.53 66.4467 199.53 66.58V66.66C199.53 66.8867 199.383 67 199.09 67H195.39C195.083 67 194.93 66.8867 194.93 66.66V66.58C194.93 66.4467 195.057 66.24 195.31 65.96C195.577 65.68 195.71 65.3867 195.71 65.08V60.4C195.71 60.08 195.557 59.7933 195.25 59.54C194.943 59.2867 194.79 59.0933 194.79 58.96V58.88C194.79 58.6933 194.93 58.5333 195.21 58.4L197.61 57.28C198.037 57.08 198.25 57.2133 198.25 57.68V59.18C198.703 57.86 199.61 57.2 200.97 57.2ZM217.697 58.24C217.697 58.32 217.557 58.5133 217.277 58.82C216.997 59.1267 216.857 59.4667 216.857 59.84V65.08C216.857 65.3867 216.984 65.6867 217.237 65.98C217.504 66.26 217.637 66.4667 217.637 66.6V66.66C217.637 66.8867 217.504 67 217.237 67H214.777C214.644 67 214.53 66.96 214.437 66.88C214.357 66.8 214.317 66.6933 214.317 66.56V66.08C213.69 66.8267 212.81 67.2 211.677 67.2C210.384 67.2 209.277 66.7533 208.357 65.86C207.437 64.9533 206.977 63.7267 206.977 62.18C206.977 60.7267 207.437 59.5333 208.357 58.6C209.277 57.6667 210.39 57.2 211.697 57.2C212.764 57.2 213.637 57.54 214.317 58.22V57.82C214.317 57.6333 214.397 57.4933 214.557 57.4C214.717 57.2933 214.924 57.2667 215.177 57.32L217.277 57.68C217.557 57.7333 217.697 57.9 217.697 58.18V58.24ZM212.337 66.34C212.79 66.34 213.184 66.1533 213.517 65.78C213.864 65.3933 214.037 64.8667 214.037 64.2V60.68C214.037 59.9733 213.817 59.36 213.377 58.84C212.95 58.32 212.444 58.06 211.857 58.06C211.244 58.06 210.757 58.32 210.397 58.84C210.037 59.3467 209.85 60.0667 209.837 61C209.81 61.76 209.884 62.54 210.057 63.34C210.244 64.14 210.537 64.84 210.937 65.44C211.35 66.0267 211.817 66.3267 212.337 66.34ZM229.332 65.06C229.359 65.38 229.485 65.68 229.712 65.96C229.939 66.24 230.052 66.4533 230.052 66.6V66.68C230.052 66.9067 229.899 67.02 229.592 67.02H226.132C225.825 67.02 225.672 66.9067 225.672 66.68V66.6C225.672 66.4667 225.792 66.26 226.032 65.98C226.285 65.7 226.405 65.3933 226.392 65.06L226.192 61.36C226.099 59.3467 225.519 58.34 224.452 58.34C223.919 58.34 223.499 58.54 223.192 58.94C222.899 59.34 222.752 59.8733 222.752 60.54V65.08C222.752 65.4 222.892 65.7 223.172 65.98C223.465 66.26 223.612 66.4667 223.612 66.6V66.68C223.612 66.9067 223.459 67.02 223.152 67.02H219.432C219.125 67.02 218.972 66.9067 218.972 66.68V66.6C218.972 66.4667 219.112 66.26 219.392 65.98C219.685 65.7 219.832 65.4 219.832 65.08V60.42C219.832 60.22 219.779 60.04 219.672 59.88C219.579 59.72 219.465 59.6067 219.332 59.54C219.212 59.46 219.099 59.3667 218.992 59.26C218.899 59.1533 218.852 59.0467 218.852 58.94V58.86C218.852 58.7133 218.985 58.5733 219.252 58.44L221.632 57.28C221.859 57.1733 222.025 57.1667 222.132 57.26C222.252 57.34 222.312 57.4867 222.312 57.7V58.82C222.885 57.74 223.872 57.2 225.272 57.2C226.285 57.2 227.145 57.54 227.852 58.22C228.572 58.9 228.985 59.98 229.092 61.46L229.332 65.06ZM235.943 67.2C234.463 67.2 233.23 66.7067 232.243 65.72C231.27 64.7333 230.783 63.5533 230.783 62.18C230.783 60.6867 231.27 59.4867 232.243 58.58C233.23 57.6733 234.423 57.2133 235.823 57.2C236.97 57.1867 237.943 57.4533 238.743 58C239.557 58.5467 239.963 59.2133 239.963 60C239.963 60.2933 239.863 60.54 239.663 60.74C239.463 60.9267 239.15 61.0133 238.723 61C238.403 60.9867 238.123 60.8733 237.883 60.66C237.643 60.4467 237.443 60.2 237.283 59.92C237.137 59.64 236.983 59.36 236.823 59.08C236.663 58.8 236.463 58.5667 236.223 58.38C235.983 58.18 235.703 58.08 235.383 58.08C234.823 58.08 234.37 58.3333 234.023 58.84C233.69 59.3467 233.523 59.98 233.523 60.74C233.523 62.0733 233.83 63.14 234.443 63.94C235.07 64.74 235.897 65.14 236.923 65.14C237.977 65.14 238.777 64.6733 239.323 63.74C239.403 63.6333 239.497 63.5733 239.603 63.56C239.723 63.5333 239.823 63.56 239.903 63.64C239.997 63.7067 240.037 63.8067 240.023 63.94C239.957 64.8333 239.563 65.6 238.843 66.24C238.137 66.88 237.17 67.2 235.943 67.2ZM249.32 63.96C249.44 63.8 249.587 63.7467 249.76 63.8C249.934 63.8533 250.014 63.98 250 64.18C249.934 64.8867 249.554 65.5667 248.86 66.22C248.18 66.8733 247.234 67.2 246.02 67.2C244.54 67.2 243.334 66.7333 242.4 65.8C241.467 64.8533 241 63.6267 241 62.12C241 60.68 241.474 59.5067 242.42 58.6C243.367 57.68 244.527 57.2133 245.9 57.2C247.034 57.1867 247.954 57.4333 248.66 57.94C249.367 58.4467 249.72 59.1333 249.72 60C249.72 60.7067 249.42 61.3267 248.82 61.86C248.234 62.38 247.467 62.7267 246.52 62.9C245.774 63.06 244.954 63.1 244.06 63.02C244.327 63.6733 244.707 64.1867 245.2 64.56C245.707 64.9333 246.287 65.12 246.94 65.12C248.047 65.12 248.84 64.7333 249.32 63.96ZM245.52 58.12C244.96 58.12 244.507 58.3733 244.16 58.88C243.827 59.3867 243.66 60.0267 243.66 60.8C243.66 61.24 243.7 61.66 243.78 62.06C244.514 62.1133 245.127 62.08 245.62 61.96C246.54 61.7867 247 61.0933 247 59.88C246.987 59.3867 246.84 58.9733 246.56 58.64C246.294 58.2933 245.947 58.12 245.52 58.12ZM255.261 67.18C254.008 67.18 252.981 66.9533 252.181 66.5C251.381 66.0467 250.981 65.5 250.981 64.86C250.981 64.5 251.088 64.2267 251.301 64.04C251.528 63.8533 251.821 63.76 252.181 63.76C252.568 63.76 252.881 63.9 253.121 64.18C253.361 64.4467 253.528 64.7467 253.621 65.08C253.728 65.4133 253.914 65.72 254.181 66C254.461 66.2667 254.821 66.4 255.261 66.4C255.688 66.4 256.034 66.2867 256.301 66.06C256.581 65.8333 256.721 65.5067 256.721 65.08C256.721 64.6 256.528 64.22 256.141 63.94C255.768 63.66 255.308 63.4533 254.761 63.32C254.214 63.1733 253.668 63.0133 253.121 62.84C252.574 62.6533 252.108 62.34 251.721 61.9C251.348 61.4467 251.161 60.86 251.161 60.14C251.161 59.2867 251.534 58.5867 252.281 58.04C253.041 57.48 254.021 57.2 255.221 57.2C256.434 57.2 257.421 57.44 258.181 57.92C258.954 58.3867 259.341 58.9467 259.341 59.6C259.341 59.8933 259.228 60.14 259.001 60.34C258.788 60.54 258.521 60.64 258.201 60.64C257.828 60.64 257.528 60.5067 257.301 60.24C257.074 59.96 256.914 59.66 256.821 59.34C256.728 59.0067 256.561 58.7067 256.321 58.44C256.081 58.16 255.768 58.02 255.381 58.02C254.994 58.02 254.681 58.1533 254.441 58.42C254.201 58.6733 254.081 58.9867 254.081 59.36C254.081 59.7333 254.181 60.0467 254.381 60.3C254.581 60.5533 254.841 60.7467 255.161 60.88C255.481 61.0133 255.834 61.14 256.221 61.26C256.608 61.3667 256.994 61.4933 257.381 61.64C257.781 61.7733 258.141 61.94 258.461 62.14C258.781 62.34 259.041 62.6267 259.241 63C259.441 63.36 259.541 63.8 259.541 64.32C259.541 65.1467 259.154 65.8333 258.381 66.38C257.608 66.9133 256.568 67.18 255.261 67.18ZM264.532 67.2C263.599 67.2 262.859 66.9067 262.312 66.32C261.779 65.72 261.512 64.86 261.512 63.74V58.56H260.572C260.306 58.56 260.172 58.4267 260.172 58.16V57.82C260.172 57.54 260.306 57.4 260.572 57.4H261.072C261.619 57.4 262.079 57.22 262.452 56.86C262.839 56.5 263.086 56.02 263.192 55.42C263.259 55.1 263.412 54.94 263.652 54.94H264.052C264.346 54.94 264.492 55.1 264.492 55.42L264.512 57.4H266.812C266.919 57.4 267.012 57.44 267.092 57.52C267.172 57.6 267.212 57.7 267.212 57.82V58.16C267.212 58.28 267.172 58.38 267.092 58.46C267.012 58.5267 266.919 58.56 266.812 58.56H264.512V63.78C264.512 64.1667 264.606 64.48 264.792 64.72C264.992 64.9467 265.239 65.06 265.532 65.06C266.226 65.06 266.679 64.76 266.892 64.16C267.012 63.9867 267.159 63.92 267.332 63.96C267.519 63.9867 267.612 64.0933 267.612 64.28C267.612 65.0533 267.332 65.7333 266.772 66.32C266.226 66.9067 265.479 67.2 264.532 67.2ZM273.648 67.2C272.061 67.2 270.748 66.7133 269.708 65.74C268.681 64.7533 268.168 63.5533 268.168 62.14C268.168 60.7133 268.675 59.5333 269.688 58.6C270.701 57.6667 271.921 57.2 273.348 57.2C274.881 57.2 276.161 57.6867 277.188 58.66C278.215 59.62 278.728 60.8133 278.728 62.24C278.728 63.6667 278.241 64.8533 277.268 65.8C276.308 66.7333 275.101 67.2 273.648 67.2ZM274.008 66.32C274.555 66.32 274.975 66.0667 275.268 65.56C275.575 65.0533 275.728 64.34 275.728 63.42C275.728 62.66 275.615 61.88 275.388 61.08C275.175 60.2667 274.848 59.5667 274.408 58.98C273.968 58.38 273.481 58.08 272.948 58.08C271.721 58.08 271.108 59.0533 271.108 61C271.108 61.72 271.215 62.48 271.428 63.28C271.655 64.08 271.995 64.7867 272.448 65.4C272.915 66.0133 273.435 66.32 274.008 66.32ZM285.99 57.2C286.563 57.2 287.01 57.3733 287.33 57.72C287.663 58.0533 287.83 58.4867 287.83 59.02C287.83 60.0733 287.403 60.6 286.55 60.6C286.203 60.6 285.93 60.5133 285.73 60.34C285.543 60.1533 285.43 59.9533 285.39 59.74C285.35 59.5267 285.27 59.3333 285.15 59.16C285.03 58.9733 284.85 58.88 284.61 58.88C284.25 58.88 283.983 59.0933 283.81 59.52C283.636 59.9467 283.55 60.4667 283.55 61.08V65.08C283.55 65.32 283.63 65.5333 283.79 65.72C283.963 65.8933 284.13 66.0467 284.29 66.18C284.463 66.3133 284.55 66.4467 284.55 66.58V66.66C284.55 66.8867 284.403 67 284.11 67H280.41C280.103 67 279.95 66.8867 279.95 66.66V66.58C279.95 66.4467 280.076 66.24 280.33 65.96C280.596 65.68 280.73 65.3867 280.73 65.08V60.4C280.73 60.08 280.576 59.7933 280.27 59.54C279.963 59.2867 279.81 59.0933 279.81 58.96V58.88C279.81 58.6933 279.95 58.5333 280.23 58.4L282.63 57.28C283.056 57.08 283.27 57.2133 283.27 57.68V59.18C283.723 57.86 284.63 57.2 285.99 57.2ZM292.566 67.18C291.312 67.18 290.286 66.9533 289.486 66.5C288.686 66.0467 288.286 65.5 288.286 64.86C288.286 64.5 288.392 64.2267 288.606 64.04C288.832 63.8533 289.126 63.76 289.486 63.76C289.872 63.76 290.186 63.9 290.426 64.18C290.666 64.4467 290.832 64.7467 290.926 65.08C291.032 65.4133 291.219 65.72 291.486 66C291.766 66.2667 292.126 66.4 292.566 66.4C292.992 66.4 293.339 66.2867 293.606 66.06C293.886 65.8333 294.026 65.5067 294.026 65.08C294.026 64.6 293.832 64.22 293.446 63.94C293.072 63.66 292.612 63.4533 292.066 63.32C291.519 63.1733 290.972 63.0133 290.426 62.84C289.879 62.6533 289.412 62.34 289.026 61.9C288.652 61.4467 288.466 60.86 288.466 60.14C288.466 59.2867 288.839 58.5867 289.586 58.04C290.346 57.48 291.326 57.2 292.526 57.2C293.739 57.2 294.726 57.44 295.486 57.92C296.259 58.3867 296.646 58.9467 296.646 59.6C296.646 59.8933 296.532 60.14 296.306 60.34C296.092 60.54 295.826 60.64 295.506 60.64C295.132 60.64 294.832 60.5067 294.606 60.24C294.379 59.96 294.219 59.66 294.126 59.34C294.032 59.0067 293.866 58.7067 293.626 58.44C293.386 58.16 293.072 58.02 292.686 58.02C292.299 58.02 291.986 58.1533 291.746 58.42C291.506 58.6733 291.386 58.9867 291.386 59.36C291.386 59.7333 291.486 60.0467 291.686 60.3C291.886 60.5533 292.146 60.7467 292.466 60.88C292.786 61.0133 293.139 61.14 293.526 61.26C293.912 61.3667 294.299 61.4933 294.686 61.64C295.086 61.7733 295.446 61.94 295.766 62.14C296.086 62.34 296.346 62.6267 296.546 63C296.746 63.36 296.846 63.8 296.846 64.32C296.846 65.1467 296.459 65.8333 295.686 66.38C294.912 66.9133 293.872 67.18 292.566 67.18ZM298.976 69.92C298.776 70.04 298.589 70.0133 298.416 69.84C298.256 69.6667 298.256 69.4933 298.416 69.32C298.803 68.9467 299.076 68.6333 299.236 68.38C299.409 68.14 299.516 67.8733 299.556 67.58C299.596 67.3267 299.523 67.2 299.336 67.2C298.976 67.2 298.669 67.0467 298.416 66.74C298.163 66.4333 298.036 66.04 298.036 65.56C298.036 65 298.196 64.5533 298.516 64.22C298.836 63.8733 299.263 63.7 299.796 63.7C300.303 63.7 300.736 63.8933 301.096 64.28C301.456 64.6533 301.636 65.1667 301.636 65.82C301.636 67.4467 300.749 68.8133 298.976 69.92ZM71.54 84.2C72.18 84.2 72.68 84.4733 73.04 85.02C73.4133 85.5667 73.6 86.3333 73.6 87.32C73.6 89.4267 73.12 91.1 72.16 92.34C71.2133 93.58 70.0267 94.2 68.6 94.2C67.28 94.2 66.36 93.6333 65.84 92.5C65.08 93.6333 63.9867 94.2 62.56 94.2C61.6267 94.2 60.8267 93.8867 60.16 93.26C59.5067 92.6333 59.18 91.5933 59.18 90.14V86.66C59.18 86.3267 59.0467 86.02 58.78 85.74C58.5267 85.4467 58.4 85.2467 58.4 85.14V85.08C58.4 84.84 58.5333 84.7 58.8 84.66L61.36 84.28C61.8933 84.2133 62.16 84.38 62.16 84.78L62.12 91.32C62.1067 91.8533 62.1933 92.28 62.38 92.6C62.5667 92.9067 62.84 93.06 63.2 93.06C63.88 93.06 64.4133 92.6467 64.8 91.82C65.2 90.9933 65.4 90.0733 65.4 89.06V86.66C65.4 86.3267 65.2667 86.02 65 85.74C64.7467 85.4467 64.62 85.2467 64.62 85.14V85.08C64.62 84.84 64.76 84.7 65.04 84.66L67.38 84.24C67.9267 84.1467 68.2 84.3267 68.2 84.78L68.14 91.26C68.1133 92.46 68.48 93.06 69.24 93.06C69.9333 93.06 70.5733 92.6133 71.16 91.72C71.76 90.8133 72.06 89.84 72.06 88.8C72.06 88.48 71.9933 88.1933 71.86 87.94C71.74 87.6867 71.5933 87.48 71.42 87.32C71.2467 87.1467 71.0667 86.98 70.88 86.82C70.7067 86.6467 70.5533 86.4467 70.42 86.22C70.3 85.98 70.24 85.72 70.24 85.44C70.24 85.0667 70.3533 84.7667 70.58 84.54C70.82 84.3133 71.14 84.2 71.54 84.2ZM83.0509 90.96C83.1709 90.8 83.3176 90.7467 83.4909 90.8C83.6643 90.8533 83.7443 90.98 83.7309 91.18C83.6643 91.8867 83.2843 92.5667 82.5909 93.22C81.9109 93.8733 80.9643 94.2 79.7509 94.2C78.2709 94.2 77.0643 93.7333 76.1309 92.8C75.1976 91.8533 74.7309 90.6267 74.7309 89.12C74.7309 87.68 75.2043 86.5067 76.1509 85.6C77.0976 84.68 78.2576 84.2133 79.6309 84.2C80.7643 84.1867 81.6843 84.4333 82.3909 84.94C83.0976 85.4467 83.4509 86.1333 83.4509 87C83.4509 87.7067 83.1509 88.3267 82.5509 88.86C81.9643 89.38 81.1976 89.7267 80.2509 89.9C79.5043 90.06 78.6843 90.1 77.7909 90.02C78.0576 90.6733 78.4376 91.1867 78.9309 91.56C79.4376 91.9333 80.0176 92.12 80.6709 92.12C81.7776 92.12 82.5709 91.7333 83.0509 90.96ZM79.2509 85.12C78.6909 85.12 78.2376 85.3733 77.8909 85.88C77.5576 86.3867 77.3909 87.0267 77.3909 87.8C77.3909 88.24 77.4309 88.66 77.5109 89.06C78.2443 89.1133 78.8576 89.08 79.3509 88.96C80.2709 88.7867 80.7309 88.0933 80.7309 86.88C80.7176 86.3867 80.5709 85.9733 80.2909 85.64C80.0243 85.2933 79.6776 85.12 79.2509 85.12ZM99.113 92.04C99.1396 92.36 99.2663 92.66 99.493 92.94C99.7196 93.22 99.833 93.4333 99.833 93.58V93.66C99.833 93.8867 99.6863 94 99.393 94H95.913C95.6196 94 95.473 93.8867 95.473 93.66V93.58C95.473 93.4467 95.593 93.24 95.833 92.96C96.0863 92.68 96.2063 92.38 96.193 92.06L95.993 88.22C95.8996 86.3 95.3196 85.34 94.253 85.34C93.7196 85.34 93.2996 85.54 92.993 85.94C92.6996 86.34 92.553 86.8733 92.553 87.54V92.08C92.553 92.3867 92.693 92.68 92.973 92.96C93.2663 93.24 93.413 93.4467 93.413 93.58V93.66C93.413 93.8867 93.253 94 92.933 94H89.233C88.9263 94 88.773 93.8867 88.773 93.66V93.58C88.773 93.4467 88.913 93.24 89.193 92.96C89.473 92.68 89.613 92.3867 89.613 92.08V82.12C89.613 81.8 89.4596 81.5133 89.153 81.26C88.8596 81.0067 88.713 80.8133 88.713 80.68V80.62C88.713 80.42 88.8463 80.2533 89.113 80.12L91.753 78.96C91.9796 78.8667 92.153 78.8533 92.273 78.92C92.4063 78.9867 92.473 79.12 92.473 79.32L92.453 85.32C93.0796 84.5733 93.953 84.2 95.073 84.2C96.0863 84.2 96.9463 84.5333 97.653 85.2C98.3596 85.8533 98.7596 86.8867 98.853 88.3L99.113 92.04ZM111.408 85.24C111.408 85.32 111.268 85.5133 110.988 85.82C110.708 86.1267 110.568 86.4667 110.568 86.84V92.08C110.568 92.3867 110.695 92.6867 110.948 92.98C111.215 93.26 111.348 93.4667 111.348 93.6V93.66C111.348 93.8867 111.215 94 110.948 94H108.488C108.355 94 108.241 93.96 108.148 93.88C108.068 93.8 108.028 93.6933 108.028 93.56V93.08C107.401 93.8267 106.521 94.2 105.388 94.2C104.095 94.2 102.988 93.7533 102.068 92.86C101.148 91.9533 100.688 90.7267 100.688 89.18C100.688 87.7267 101.148 86.5333 102.068 85.6C102.988 84.6667 104.101 84.2 105.408 84.2C106.475 84.2 107.348 84.54 108.028 85.22V84.82C108.028 84.6333 108.108 84.4933 108.268 84.4C108.428 84.2933 108.635 84.2667 108.888 84.32L110.988 84.68C111.268 84.7333 111.408 84.9 111.408 85.18V85.24ZM106.048 93.34C106.501 93.34 106.895 93.1533 107.228 92.78C107.575 92.3933 107.748 91.8667 107.748 91.2V87.68C107.748 86.9733 107.528 86.36 107.088 85.84C106.661 85.32 106.155 85.06 105.568 85.06C104.955 85.06 104.468 85.32 104.108 85.84C103.748 86.3467 103.561 87.0667 103.548 88C103.521 88.76 103.595 89.54 103.768 90.34C103.955 91.14 104.248 91.84 104.648 92.44C105.061 93.0267 105.528 93.3267 106.048 93.34ZM116.723 94.2C116.27 94.2 115.843 94.1333 115.443 94C115.056 93.88 114.69 93.6733 114.343 93.38C113.996 93.0867 113.723 92.6667 113.523 92.12C113.323 91.56 113.223 90.9 113.223 90.14V86.66C113.223 86.3267 113.09 86.02 112.823 85.74C112.57 85.4467 112.443 85.2467 112.443 85.14V85.08C112.443 84.84 112.576 84.7 112.843 84.66L115.403 84.28C115.936 84.2133 116.203 84.3333 116.203 84.64L116.163 91C116.15 91.72 116.236 92.24 116.423 92.56C116.623 92.88 116.943 93.0467 117.383 93.06C118.236 93.0733 118.996 92.6267 119.663 91.72C120.33 90.8133 120.663 89.7933 120.663 88.66C120.663 88.2467 120.57 87.8933 120.383 87.6C120.196 87.2933 119.99 87.0667 119.763 86.92C119.55 86.76 119.35 86.5533 119.163 86.3C118.976 86.0333 118.883 85.7333 118.883 85.4C118.883 85.04 118.996 84.7533 119.223 84.54C119.45 84.3133 119.776 84.2 120.203 84.2C120.803 84.2 121.29 84.46 121.663 84.98C122.036 85.4867 122.223 86.2667 122.223 87.32C122.223 89.3733 121.703 91.0333 120.663 92.3C119.623 93.5667 118.31 94.2 116.723 94.2ZM131.664 90.96C131.784 90.8 131.931 90.7467 132.104 90.8C132.278 90.8533 132.358 90.98 132.344 91.18C132.278 91.8867 131.898 92.5667 131.204 93.22C130.524 93.8733 129.578 94.2 128.364 94.2C126.884 94.2 125.678 93.7333 124.744 92.8C123.811 91.8533 123.344 90.6267 123.344 89.12C123.344 87.68 123.818 86.5067 124.764 85.6C125.711 84.68 126.871 84.2133 128.244 84.2C129.378 84.1867 130.298 84.4333 131.004 84.94C131.711 85.4467 132.064 86.1333 132.064 87C132.064 87.7067 131.764 88.3267 131.164 88.86C130.578 89.38 129.811 89.7267 128.864 89.9C128.118 90.06 127.298 90.1 126.404 90.02C126.671 90.6733 127.051 91.1867 127.544 91.56C128.051 91.9333 128.631 92.12 129.284 92.12C130.391 92.12 131.184 91.7333 131.664 90.96ZM127.864 85.12C127.304 85.12 126.851 85.3733 126.504 85.88C126.171 86.3867 126.004 87.0267 126.004 87.8C126.004 88.24 126.044 88.66 126.124 89.06C126.858 89.1133 127.471 89.08 127.964 88.96C128.884 88.7867 129.344 88.0933 129.344 86.88C129.331 86.3867 129.184 85.9733 128.904 85.64C128.638 85.2933 128.291 85.12 127.864 85.12ZM143.486 84.2C144.74 84.2 145.826 84.6333 146.746 85.5C147.68 86.3667 148.146 87.5467 148.146 89.04C148.146 90.5467 147.686 91.7867 146.766 92.76C145.86 93.72 144.766 94.2 143.486 94.2C142.406 94.2 141.533 93.8467 140.866 93.14V93.58C140.866 93.8733 140.713 94.02 140.406 94.02L137.826 94C137.546 94 137.406 93.8867 137.406 93.66V93.6C137.406 93.4667 137.533 93.26 137.786 92.98C138.053 92.6867 138.186 92.38 138.186 92.06V82.26C138.186 81.9267 138.033 81.6267 137.726 81.36C137.42 81.08 137.266 80.8733 137.266 80.74V80.68C137.266 80.4933 137.42 80.3333 137.726 80.2L140.306 79C140.533 78.88 140.726 78.86 140.886 78.94C141.06 79.0067 141.146 79.16 141.146 79.4V85C141.72 84.4667 142.5 84.2 143.486 84.2ZM143.186 93.34C143.84 93.34 144.34 93.0733 144.686 92.54C145.046 92.0067 145.226 91.24 145.226 90.24C145.226 89.3733 145.133 88.5533 144.946 87.78C144.773 87.0067 144.493 86.36 144.106 85.84C143.72 85.32 143.273 85.06 142.766 85.06C142.3 85.06 141.913 85.2467 141.606 85.62C141.3 85.9933 141.146 86.48 141.146 87.08V90.7C141.146 91.38 141.353 91.9933 141.766 92.54C142.193 93.0733 142.666 93.34 143.186 93.34ZM154.644 94.2C153.057 94.2 151.744 93.7133 150.704 92.74C149.677 91.7533 149.164 90.5533 149.164 89.14C149.164 87.7133 149.671 86.5333 150.684 85.6C151.697 84.6667 152.917 84.2 154.344 84.2C155.877 84.2 157.157 84.6867 158.184 85.66C159.211 86.62 159.724 87.8133 159.724 89.24C159.724 90.6667 159.237 91.8533 158.264 92.8C157.304 93.7333 156.097 94.2 154.644 94.2ZM155.004 93.32C155.551 93.32 155.971 93.0667 156.264 92.56C156.571 92.0533 156.724 91.34 156.724 90.42C156.724 89.66 156.611 88.88 156.384 88.08C156.171 87.2667 155.844 86.5667 155.404 85.98C154.964 85.38 154.477 85.08 153.944 85.08C152.717 85.08 152.104 86.0533 152.104 88C152.104 88.72 152.211 89.48 152.424 90.28C152.651 91.08 152.991 91.7867 153.444 92.4C153.911 93.0133 154.431 93.32 155.004 93.32ZM166.986 84.2C167.559 84.2 168.006 84.3733 168.326 84.72C168.659 85.0533 168.826 85.4867 168.826 86.02C168.826 87.0733 168.399 87.6 167.546 87.6C167.199 87.6 166.926 87.5133 166.726 87.34C166.539 87.1533 166.426 86.9533 166.386 86.74C166.346 86.5267 166.266 86.3333 166.146 86.16C166.026 85.9733 165.846 85.88 165.606 85.88C165.246 85.88 164.979 86.0933 164.806 86.52C164.632 86.9467 164.546 87.4667 164.546 88.08V92.08C164.546 92.32 164.626 92.5333 164.786 92.72C164.959 92.8933 165.126 93.0467 165.286 93.18C165.459 93.3133 165.546 93.4467 165.546 93.58V93.66C165.546 93.8867 165.399 94 165.106 94H161.406C161.099 94 160.946 93.8867 160.946 93.66V93.58C160.946 93.4467 161.072 93.24 161.326 92.96C161.592 92.68 161.726 92.3867 161.726 92.08V87.4C161.726 87.08 161.572 86.7933 161.266 86.54C160.959 86.2867 160.806 86.0933 160.806 85.96V85.88C160.806 85.6933 160.946 85.5333 161.226 85.4L163.626 84.28C164.052 84.08 164.266 84.2133 164.266 84.68V86.18C164.719 84.86 165.626 84.2 166.986 84.2ZM175.56 84.2C176.133 84.2 176.58 84.3733 176.9 84.72C177.233 85.0533 177.4 85.4867 177.4 86.02C177.4 87.0733 176.973 87.6 176.12 87.6C175.773 87.6 175.5 87.5133 175.3 87.34C175.113 87.1533 175 86.9533 174.96 86.74C174.92 86.5267 174.84 86.3333 174.72 86.16C174.6 85.9733 174.42 85.88 174.18 85.88C173.82 85.88 173.553 86.0933 173.38 86.52C173.207 86.9467 173.12 87.4667 173.12 88.08V92.08C173.12 92.32 173.2 92.5333 173.36 92.72C173.533 92.8933 173.7 93.0467 173.86 93.18C174.033 93.3133 174.12 93.4467 174.12 93.58V93.66C174.12 93.8867 173.973 94 173.68 94H169.98C169.673 94 169.52 93.8867 169.52 93.66V93.58C169.52 93.4467 169.647 93.24 169.9 92.96C170.167 92.68 170.3 92.3867 170.3 92.08V87.4C170.3 87.08 170.147 86.7933 169.84 86.54C169.533 86.2867 169.38 86.0933 169.38 85.96V85.88C169.38 85.6933 169.52 85.5333 169.8 85.4L172.2 84.28C172.627 84.08 172.84 84.2133 172.84 84.68V86.18C173.293 84.86 174.2 84.2 175.56 84.2ZM183.257 94.2C181.671 94.2 180.357 93.7133 179.317 92.74C178.291 91.7533 177.777 90.5533 177.777 89.14C177.777 87.7133 178.284 86.5333 179.297 85.6C180.311 84.6667 181.531 84.2 182.957 84.2C184.491 84.2 185.771 84.6867 186.797 85.66C187.824 86.62 188.337 87.8133 188.337 89.24C188.337 90.6667 187.851 91.8533 186.877 92.8C185.917 93.7333 184.711 94.2 183.257 94.2ZM183.617 93.32C184.164 93.32 184.584 93.0667 184.877 92.56C185.184 92.0533 185.337 91.34 185.337 90.42C185.337 89.66 185.224 88.88 184.997 88.08C184.784 87.2667 184.457 86.5667 184.017 85.98C183.577 85.38 183.091 85.08 182.557 85.08C181.331 85.08 180.717 86.0533 180.717 88C180.717 88.72 180.824 89.48 181.037 90.28C181.264 91.08 181.604 91.7867 182.057 92.4C182.524 93.0133 183.044 93.32 183.617 93.32ZM202.419 84.2C203.059 84.2 203.559 84.4733 203.919 85.02C204.292 85.5667 204.479 86.3333 204.479 87.32C204.479 89.4267 203.999 91.1 203.039 92.34C202.092 93.58 200.906 94.2 199.479 94.2C198.159 94.2 197.239 93.6333 196.719 92.5C195.959 93.6333 194.866 94.2 193.439 94.2C192.506 94.2 191.706 93.8867 191.039 93.26C190.386 92.6333 190.059 91.5933 190.059 90.14V86.66C190.059 86.3267 189.926 86.02 189.659 85.74C189.406 85.4467 189.279 85.2467 189.279 85.14V85.08C189.279 84.84 189.412 84.7 189.679 84.66L192.239 84.28C192.772 84.2133 193.039 84.38 193.039 84.78L192.999 91.32C192.986 91.8533 193.072 92.28 193.259 92.6C193.446 92.9067 193.719 93.06 194.079 93.06C194.759 93.06 195.292 92.6467 195.679 91.82C196.079 90.9933 196.279 90.0733 196.279 89.06V86.66C196.279 86.3267 196.146 86.02 195.879 85.74C195.626 85.4467 195.499 85.2467 195.499 85.14V85.08C195.499 84.84 195.639 84.7 195.919 84.66L198.259 84.24C198.806 84.1467 199.079 84.3267 199.079 84.78L199.019 91.26C198.992 92.46 199.359 93.06 200.119 93.06C200.812 93.06 201.452 92.6133 202.039 91.72C202.639 90.8133 202.939 89.84 202.939 88.8C202.939 88.48 202.872 88.1933 202.739 87.94C202.619 87.6867 202.472 87.48 202.299 87.32C202.126 87.1467 201.946 86.98 201.759 86.82C201.586 86.6467 201.432 86.4467 201.299 86.22C201.179 85.98 201.119 85.72 201.119 85.44C201.119 85.0667 201.232 84.7667 201.459 84.54C201.699 84.3133 202.019 84.2 202.419 84.2ZM213.93 90.96C214.05 90.8 214.197 90.7467 214.37 90.8C214.543 90.8533 214.623 90.98 214.61 91.18C214.543 91.8867 214.163 92.5667 213.47 93.22C212.79 93.8733 211.843 94.2 210.63 94.2C209.15 94.2 207.943 93.7333 207.01 92.8C206.077 91.8533 205.61 90.6267 205.61 89.12C205.61 87.68 206.083 86.5067 207.03 85.6C207.977 84.68 209.137 84.2133 210.51 84.2C211.643 84.1867 212.563 84.4333 213.27 84.94C213.977 85.4467 214.33 86.1333 214.33 87C214.33 87.7067 214.03 88.3267 213.43 88.86C212.843 89.38 212.077 89.7267 211.13 89.9C210.383 90.06 209.563 90.1 208.67 90.02C208.937 90.6733 209.317 91.1867 209.81 91.56C210.317 91.9333 210.897 92.12 211.55 92.12C212.657 92.12 213.45 91.7333 213.93 90.96ZM210.13 85.12C209.57 85.12 209.117 85.3733 208.77 85.88C208.437 86.3867 208.27 87.0267 208.27 87.8C208.27 88.24 208.31 88.66 208.39 89.06C209.123 89.1133 209.737 89.08 210.23 88.96C211.15 88.7867 211.61 88.0933 211.61 86.88C211.597 86.3867 211.45 85.9733 211.17 85.64C210.903 85.2933 210.557 85.12 210.13 85.12ZM225.47 92.08C225.47 92.3867 225.604 92.6867 225.87 92.98C226.137 93.26 226.27 93.4667 226.27 93.6V93.66C226.27 93.8867 226.137 94 225.87 94H223.39C223.084 94 222.93 93.8533 222.93 93.56L222.89 93.12C222.277 93.84 221.41 94.2 220.29 94.2C218.997 94.2 217.89 93.7533 216.97 92.86C216.05 91.9533 215.59 90.7267 215.59 89.18C215.59 87.7267 216.05 86.5333 216.97 85.6C217.89 84.6667 219.004 84.2 220.31 84.2C221.244 84.2 222.024 84.46 222.65 84.98V81.78C222.65 81.5133 222.564 81.2933 222.39 81.12C222.23 80.9467 222.064 80.8 221.89 80.68C221.73 80.56 221.65 80.4333 221.65 80.3V80.24C221.65 80.0133 221.79 79.86 222.07 79.78L224.69 78.98C225.21 78.8067 225.47 78.94 225.47 79.38V92.08ZM220.95 93.34C221.404 93.34 221.797 93.1533 222.13 92.78C222.477 92.3933 222.65 91.8667 222.65 91.2V87.68C222.65 87.0267 222.43 86.4267 221.99 85.88C221.55 85.3333 221.044 85.06 220.47 85.06C219.857 85.06 219.37 85.32 219.01 85.84C218.65 86.3467 218.464 87.0667 218.45 88C218.424 88.76 218.497 89.54 218.67 90.34C218.857 91.14 219.15 91.84 219.55 92.44C219.964 93.0267 220.43 93.3267 220.95 93.34ZM235.152 82.5C234.805 82.82 234.339 82.98 233.752 82.98C233.165 82.98 232.685 82.82 232.312 82.5C231.952 82.1667 231.772 81.74 231.772 81.22C231.772 80.7133 231.952 80.3 232.312 79.98C232.685 79.6467 233.165 79.48 233.752 79.48C234.339 79.48 234.805 79.6467 235.152 79.98C235.512 80.3 235.692 80.7133 235.692 81.22C235.692 81.74 235.512 82.1667 235.152 82.5ZM231.932 94C231.639 94 231.492 93.8867 231.492 93.66V93.58C231.492 93.4467 231.619 93.24 231.872 92.96C232.125 92.68 232.252 92.38 232.252 92.06V87.54C232.252 87.2067 232.125 86.8933 231.872 86.6C231.619 86.3067 231.492 86.1067 231.492 86V85.94C231.492 85.8067 231.632 85.6667 231.912 85.52L234.412 84.28C234.665 84.1733 234.865 84.1667 235.012 84.26C235.159 84.34 235.232 84.48 235.232 84.68V92.06C235.232 92.38 235.372 92.68 235.652 92.96C235.932 93.24 236.072 93.4467 236.072 93.58V93.66C236.072 93.8867 235.919 94 235.612 94H231.932ZM241.134 94.2C240.2 94.2 239.46 93.9067 238.914 93.32C238.38 92.72 238.114 91.86 238.114 90.74V85.56H237.174C236.907 85.56 236.774 85.4267 236.774 85.16V84.82C236.774 84.54 236.907 84.4 237.174 84.4H237.674C238.22 84.4 238.68 84.22 239.054 83.86C239.44 83.5 239.687 83.02 239.794 82.42C239.86 82.1 240.014 81.94 240.254 81.94H240.654C240.947 81.94 241.094 82.1 241.094 82.42L241.114 84.4H243.414C243.52 84.4 243.614 84.44 243.694 84.52C243.774 84.6 243.814 84.7 243.814 84.82V85.16C243.814 85.28 243.774 85.38 243.694 85.46C243.614 85.5267 243.52 85.56 243.414 85.56H241.114V90.78C241.114 91.1667 241.207 91.48 241.394 91.72C241.594 91.9467 241.84 92.06 242.134 92.06C242.827 92.06 243.28 91.76 243.494 91.16C243.614 90.9867 243.76 90.92 243.934 90.96C244.12 90.9867 244.214 91.0933 244.214 91.28C244.214 92.0533 243.934 92.7333 243.374 93.32C242.827 93.9067 242.08 94.2 241.134 94.2ZM254.189 79.34C255.016 79.34 255.723 79.5733 256.309 80.04C256.909 80.5067 257.209 81.0533 257.209 81.68C257.209 81.9467 257.109 82.1867 256.909 82.4C256.723 82.6133 256.449 82.72 256.089 82.72C255.689 82.72 255.376 82.6333 255.149 82.46C254.923 82.2867 254.776 82.08 254.709 81.84C254.643 81.5867 254.583 81.34 254.529 81.1C254.489 80.8467 254.396 80.6333 254.249 80.46C254.103 80.2733 253.889 80.18 253.609 80.18C253.276 80.18 253.029 80.3267 252.869 80.62C252.709 80.9 252.636 81.2667 252.649 81.72C252.676 82.1733 252.729 82.6267 252.809 83.08C252.903 83.5333 253.023 83.9733 253.169 84.4H255.609C255.716 84.4 255.809 84.44 255.889 84.52C255.969 84.6 256.009 84.6933 256.009 84.8V85.18C256.009 85.2867 255.969 85.38 255.889 85.46C255.809 85.5267 255.716 85.56 255.609 85.56H253.249V92.06C253.249 92.3 253.329 92.5133 253.489 92.7C253.663 92.8867 253.829 93.0467 253.989 93.18C254.163 93.3133 254.249 93.4467 254.249 93.58V93.66C254.249 93.8867 254.123 94 253.869 94H249.969C249.689 94 249.549 93.8867 249.549 93.66V93.58C249.549 93.4467 249.683 93.24 249.949 92.96C250.216 92.68 250.349 92.38 250.349 92.06V85.56H248.929C248.649 85.56 248.509 85.4333 248.509 85.18V84.8C248.509 84.6933 248.549 84.6 248.629 84.52C248.709 84.44 248.809 84.4 248.929 84.4H250.349V83.14C250.349 82.02 250.676 81.1067 251.329 80.4C251.983 79.6933 252.936 79.34 254.189 79.34ZM262.63 84.2C263.203 84.2 263.65 84.3733 263.97 84.72C264.303 85.0533 264.47 85.4867 264.47 86.02C264.47 87.0733 264.043 87.6 263.19 87.6C262.843 87.6 262.57 87.5133 262.37 87.34C262.183 87.1533 262.07 86.9533 262.03 86.74C261.99 86.5267 261.91 86.3333 261.79 86.16C261.67 85.9733 261.49 85.88 261.25 85.88C260.89 85.88 260.623 86.0933 260.45 86.52C260.277 86.9467 260.19 87.4667 260.19 88.08V92.08C260.19 92.32 260.27 92.5333 260.43 92.72C260.603 92.8933 260.77 93.0467 260.93 93.18C261.103 93.3133 261.19 93.4467 261.19 93.58V93.66C261.19 93.8867 261.043 94 260.75 94H257.05C256.743 94 256.59 93.8867 256.59 93.66V93.58C256.59 93.4467 256.717 93.24 256.97 92.96C257.237 92.68 257.37 92.3867 257.37 92.08V87.4C257.37 87.08 257.217 86.7933 256.91 86.54C256.603 86.2867 256.45 86.0933 256.45 85.96V85.88C256.45 85.6933 256.59 85.5333 256.87 85.4L259.27 84.28C259.697 84.08 259.91 84.2133 259.91 84.68V86.18C260.363 84.86 261.27 84.2 262.63 84.2ZM270.328 94.2C268.741 94.2 267.428 93.7133 266.388 92.74C265.361 91.7533 264.848 90.5533 264.848 89.14C264.848 87.7133 265.354 86.5333 266.368 85.6C267.381 84.6667 268.601 84.2 270.028 84.2C271.561 84.2 272.841 84.6867 273.868 85.66C274.894 86.62 275.408 87.8133 275.408 89.24C275.408 90.6667 274.921 91.8533 273.948 92.8C272.988 93.7333 271.781 94.2 270.328 94.2ZM270.688 93.32C271.234 93.32 271.654 93.0667 271.948 92.56C272.254 92.0533 272.408 91.34 272.408 90.42C272.408 89.66 272.294 88.88 272.068 88.08C271.854 87.2667 271.528 86.5667 271.088 85.98C270.648 85.38 270.161 85.08 269.628 85.08C268.401 85.08 267.788 86.0533 267.788 88C267.788 88.72 267.894 89.48 268.108 90.28C268.334 91.08 268.674 91.7867 269.128 92.4C269.594 93.0133 270.114 93.32 270.688 93.32ZM293.169 92.06C293.196 92.38 293.323 92.68 293.549 92.96C293.776 93.24 293.889 93.4533 293.889 93.6V93.68C293.889 93.9067 293.743 94.02 293.449 94.02H289.989C289.683 94.02 289.529 93.9067 289.529 93.68V93.6C289.529 93.4667 289.649 93.26 289.889 92.98C290.143 92.7 290.256 92.4 290.229 92.08L290.029 88.42C289.976 87.3133 289.809 86.5267 289.529 86.06C289.249 85.58 288.836 85.34 288.289 85.34C287.823 85.34 287.443 85.5333 287.149 85.92C286.856 86.3067 286.696 86.8067 286.669 87.42C286.723 87.6867 286.749 88.0067 286.749 88.38V92.08C286.749 92.4 286.863 92.7 287.089 92.98C287.329 93.26 287.449 93.4667 287.449 93.6V93.68C287.449 93.9067 287.303 94.02 287.009 94.02H283.549C283.243 94.02 283.089 93.9067 283.089 93.68V93.6C283.089 93.4667 283.209 93.26 283.449 92.98C283.689 92.7 283.809 92.4 283.809 92.08V88.18C283.809 87.2733 283.649 86.5733 283.329 86.08C283.009 85.5867 282.589 85.34 282.069 85.34C281.536 85.34 281.116 85.5467 280.809 85.96C280.503 86.3733 280.349 86.9067 280.349 87.56V92.08C280.349 92.4 280.489 92.7 280.769 92.98C281.063 93.26 281.209 93.4667 281.209 93.6V93.68C281.209 93.9067 281.056 94.02 280.749 94.02H277.029C276.723 94.02 276.569 93.9067 276.569 93.68V93.6C276.569 93.4667 276.709 93.26 276.989 92.98C277.283 92.7 277.429 92.4 277.429 92.08V87.42C277.429 87.1667 277.349 86.9533 277.189 86.78C277.029 86.6067 276.863 86.46 276.689 86.34C276.529 86.2067 276.449 86.0733 276.449 85.94V85.86C276.449 85.7133 276.589 85.5733 276.869 85.44L279.389 84.28C279.616 84.1733 279.789 84.1667 279.909 84.26C280.029 84.34 280.089 84.4867 280.089 84.7V85.64C280.716 84.68 281.636 84.2 282.849 84.2C284.369 84.2 285.476 84.8 286.169 86C286.436 85.44 286.836 85 287.369 84.68C287.916 84.36 288.529 84.2 289.209 84.2C290.223 84.2 291.069 84.54 291.749 85.22C292.429 85.8867 292.823 86.98 292.929 88.5L293.169 92.06ZM63.98 121.2C62.3933 121.2 61.08 120.713 60.04 119.74C59.0133 118.753 58.5 117.553 58.5 116.14C58.5 114.713 59.0067 113.533 60.02 112.6C61.0333 111.667 62.2533 111.2 63.68 111.2C65.2133 111.2 66.4933 111.687 67.52 112.66C68.5467 113.62 69.06 114.813 69.06 116.24C69.06 117.667 68.5733 118.853 67.6 119.8C66.64 120.733 65.4333 121.2 63.98 121.2ZM64.34 120.32C64.8867 120.32 65.3067 120.067 65.6 119.56C65.9067 119.053 66.06 118.34 66.06 117.42C66.06 116.66 65.9467 115.88 65.72 115.08C65.5067 114.267 65.18 113.567 64.74 112.98C64.3 112.38 63.8133 112.08 63.28 112.08C62.0533 112.08 61.44 113.053 61.44 115C61.44 115.72 61.5467 116.48 61.76 117.28C61.9867 118.08 62.3267 118.787 62.78 119.4C63.2467 120.013 63.7667 120.32 64.34 120.32ZM79.9816 118.96C79.9816 119.32 80.0282 119.593 80.1216 119.78C80.2282 119.953 80.3416 120.053 80.4616 120.08C80.5816 120.093 80.6882 120.133 80.7816 120.2C80.8882 120.267 80.9416 120.38 80.9416 120.54C80.9416 120.927 80.3482 121.12 79.1616 121.12C78.5749 121.12 78.1349 121.027 77.8416 120.84C77.5616 120.64 77.4082 120.3 77.3816 119.82C76.8216 120.74 75.8549 121.2 74.4816 121.2C73.4016 121.2 72.5082 120.84 71.8016 120.12C71.1082 119.387 70.7616 118.36 70.7616 117.04V113.66C70.7616 113.327 70.6282 113.02 70.3616 112.74C70.1082 112.447 69.9816 112.247 69.9816 112.14V112.08C69.9816 111.84 70.1216 111.7 70.4016 111.66L72.9216 111.28C73.4682 111.213 73.7416 111.333 73.7416 111.64L73.6816 117.34C73.6816 119.153 74.2349 120.06 75.3416 120.06C75.8349 120.06 76.2416 119.847 76.5616 119.42C76.8949 118.98 77.0616 118.413 77.0616 117.72V113.66C77.0616 113.327 76.9282 113.02 76.6616 112.74C76.3949 112.447 76.2616 112.247 76.2616 112.14V112.08C76.2616 111.84 76.3949 111.7 76.6616 111.66L79.2216 111.28C79.7282 111.227 79.9816 111.347 79.9816 111.64V118.96ZM88.0208 111.2C88.5941 111.2 89.0408 111.373 89.3608 111.72C89.6941 112.053 89.8608 112.487 89.8608 113.02C89.8608 114.073 89.4341 114.6 88.5808 114.6C88.2341 114.6 87.9608 114.513 87.7608 114.34C87.5741 114.153 87.4608 113.953 87.4208 113.74C87.3808 113.527 87.3008 113.333 87.1808 113.16C87.0608 112.973 86.8808 112.88 86.6408 112.88C86.2808 112.88 86.0141 113.093 85.8408 113.52C85.6674 113.947 85.5808 114.467 85.5808 115.08V119.08C85.5808 119.32 85.6608 119.533 85.8208 119.72C85.9941 119.893 86.1608 120.047 86.3208 120.18C86.4941 120.313 86.5808 120.447 86.5808 120.58V120.66C86.5808 120.887 86.4341 121 86.1408 121H82.4408C82.1341 121 81.9808 120.887 81.9808 120.66V120.58C81.9808 120.447 82.1074 120.24 82.3608 119.96C82.6274 119.68 82.7608 119.387 82.7608 119.08V114.4C82.7608 114.08 82.6074 113.793 82.3008 113.54C81.9941 113.287 81.8408 113.093 81.8408 112.96V112.88C81.8408 112.693 81.9808 112.533 82.2608 112.4L84.6608 111.28C85.0874 111.08 85.3008 111.213 85.3008 111.68V113.18C85.7541 111.86 86.6608 111.2 88.0208 111.2ZM104.228 119.48C104.294 119.587 104.474 119.747 104.768 119.96C105.074 120.173 105.228 120.38 105.228 120.58V120.66C105.228 120.887 105.101 121 104.848 121H101.188C100.921 121 100.788 120.88 100.788 120.64V120.56C100.788 120.413 100.881 120.24 101.068 120.04C101.254 119.84 101.294 119.653 101.188 119.48L99.2078 116.5C98.7411 116.607 98.2611 116.667 97.7678 116.68V119.04C97.7678 119.347 97.9145 119.64 98.2078 119.92C98.5011 120.2 98.6478 120.42 98.6478 120.58V120.66C98.6478 120.887 98.4945 121 98.1878 121H94.4678C94.1611 121 94.0078 120.887 94.0078 120.66V120.58C94.0078 120.42 94.1345 120.2 94.3878 119.92C94.6545 119.64 94.7878 119.347 94.7878 119.04V109.26C94.7878 108.927 94.6345 108.613 94.3278 108.32C94.0345 108.013 93.8878 107.807 93.8878 107.7V107.64C93.8878 107.48 94.0211 107.347 94.2878 107.24L96.9878 105.98C97.2278 105.873 97.4145 105.867 97.5478 105.96C97.6945 106.04 97.7678 106.173 97.7678 106.36V115.42C98.5011 115.38 99.0945 115.207 99.5478 114.9C100.014 114.593 100.334 114.24 100.508 113.84C100.694 113.44 100.854 113.04 100.988 112.64C101.121 112.24 101.301 111.907 101.528 111.64C101.754 111.36 102.068 111.22 102.468 111.22C102.894 111.22 103.214 111.333 103.428 111.56C103.654 111.787 103.768 112.087 103.768 112.46C103.768 112.94 103.574 113.473 103.188 114.06C102.814 114.647 102.268 115.16 101.548 115.6L104.228 119.48ZM109.312 109.5C108.966 109.82 108.499 109.98 107.912 109.98C107.326 109.98 106.846 109.82 106.472 109.5C106.112 109.167 105.932 108.74 105.932 108.22C105.932 107.713 106.112 107.3 106.472 106.98C106.846 106.647 107.326 106.48 107.912 106.48C108.499 106.48 108.966 106.647 109.312 106.98C109.672 107.3 109.852 107.713 109.852 108.22C109.852 108.74 109.672 109.167 109.312 109.5ZM106.092 121C105.799 121 105.652 120.887 105.652 120.66V120.58C105.652 120.447 105.779 120.24 106.032 119.96C106.286 119.68 106.412 119.38 106.412 119.06V114.54C106.412 114.207 106.286 113.893 106.032 113.6C105.779 113.307 105.652 113.107 105.652 113V112.94C105.652 112.807 105.792 112.667 106.072 112.52L108.572 111.28C108.826 111.173 109.026 111.167 109.172 111.26C109.319 111.34 109.392 111.48 109.392 111.68V119.06C109.392 119.38 109.532 119.68 109.812 119.96C110.092 120.24 110.232 120.447 110.232 120.58V120.66C110.232 120.887 110.079 121 109.772 121H106.092ZM121.154 119.08C121.154 119.387 121.287 119.687 121.554 119.98C121.821 120.26 121.954 120.467 121.954 120.6V120.66C121.954 120.887 121.821 121 121.554 121H119.074C118.767 121 118.614 120.853 118.614 120.56L118.574 120.12C117.961 120.84 117.094 121.2 115.974 121.2C114.681 121.2 113.574 120.753 112.654 119.86C111.734 118.953 111.274 117.727 111.274 116.18C111.274 114.727 111.734 113.533 112.654 112.6C113.574 111.667 114.687 111.2 115.994 111.2C116.927 111.2 117.707 111.46 118.334 111.98V108.78C118.334 108.513 118.247 108.293 118.074 108.12C117.914 107.947 117.747 107.8 117.574 107.68C117.414 107.56 117.334 107.433 117.334 107.3V107.24C117.334 107.013 117.474 106.86 117.754 106.78L120.374 105.98C120.894 105.807 121.154 105.94 121.154 106.38V119.08ZM116.634 120.34C117.087 120.34 117.481 120.153 117.814 119.78C118.161 119.393 118.334 118.867 118.334 118.2V114.68C118.334 114.027 118.114 113.427 117.674 112.88C117.234 112.333 116.727 112.06 116.154 112.06C115.541 112.06 115.054 112.32 114.694 112.84C114.334 113.347 114.147 114.067 114.134 115C114.107 115.76 114.181 116.54 114.354 117.34C114.541 118.14 114.834 118.84 115.234 119.44C115.647 120.027 116.114 120.327 116.634 120.34ZM127.214 121.18C125.961 121.18 124.934 120.953 124.134 120.5C123.334 120.047 122.934 119.5 122.934 118.86C122.934 118.5 123.041 118.227 123.254 118.04C123.481 117.853 123.774 117.76 124.134 117.76C124.521 117.76 124.834 117.9 125.074 118.18C125.314 118.447 125.481 118.747 125.574 119.08C125.681 119.413 125.867 119.72 126.134 120C126.414 120.267 126.774 120.4 127.214 120.4C127.641 120.4 127.987 120.287 128.254 120.06C128.534 119.833 128.674 119.507 128.674 119.08C128.674 118.6 128.481 118.22 128.094 117.94C127.721 117.66 127.261 117.453 126.714 117.32C126.167 117.173 125.621 117.013 125.074 116.84C124.527 116.653 124.061 116.34 123.674 115.9C123.301 115.447 123.114 114.86 123.114 114.14C123.114 113.287 123.487 112.587 124.234 112.04C124.994 111.48 125.974 111.2 127.174 111.2C128.387 111.2 129.374 111.44 130.134 111.92C130.907 112.387 131.294 112.947 131.294 113.6C131.294 113.893 131.181 114.14 130.954 114.34C130.741 114.54 130.474 114.64 130.154 114.64C129.781 114.64 129.481 114.507 129.254 114.24C129.027 113.96 128.867 113.66 128.774 113.34C128.681 113.007 128.514 112.707 128.274 112.44C128.034 112.16 127.721 112.02 127.334 112.02C126.947 112.02 126.634 112.153 126.394 112.42C126.154 112.673 126.034 112.987 126.034 113.36C126.034 113.733 126.134 114.047 126.334 114.3C126.534 114.553 126.794 114.747 127.114 114.88C127.434 115.013 127.787 115.14 128.174 115.26C128.561 115.367 128.947 115.493 129.334 115.64C129.734 115.773 130.094 115.94 130.414 116.14C130.734 116.34 130.994 116.627 131.194 117C131.394 117.36 131.494 117.8 131.494 118.32C131.494 119.147 131.107 119.833 130.334 120.38C129.561 120.913 128.521 121.18 127.214 121.18ZM134.544 121.2C134.011 121.2 133.571 121.06 133.224 120.78C132.878 120.487 132.704 120.073 132.704 119.54C132.704 119.007 132.878 118.6 133.224 118.32C133.571 118.027 134.011 117.88 134.544 117.88C135.064 117.88 135.498 118.027 135.844 118.32C136.191 118.6 136.364 119.007 136.364 119.54C136.364 120.073 136.191 120.487 135.844 120.78C135.498 121.06 135.064 121.2 134.544 121.2Z" fill="black"/>
<path d="M44.6585 31.6763C44.6585 25.3643 46.8677 18.4512 51.2861 10.9369C52.7288 8.29185 54.2768 6.96934 55.9299 6.96934C56.6513 6.96934 57.012 7.36008 57.012 8.14157C57.012 8.89299 56.516 10.5912 55.5242 13.2362C54.5623 15.8813 54.0063 17.9101 53.856 19.3228C53.7057 20.7054 53.4352 22.6141 53.0444 25.0487C52.6838 27.4833 52.5034 29.1966 52.5034 30.1885C52.5034 31.1503 52.3381 31.7815 52.0075 32.0821C51.7069 32.3526 51.226 32.563 50.5647 32.7133L46.8677 33.5248C45.3949 33.7953 44.6585 33.1791 44.6585 31.6763ZM30.8172 31.6763C30.8172 25.3643 33.0264 18.4512 37.4448 10.9369C38.8875 8.29185 40.4355 6.96934 42.0886 6.96934C42.81 6.96934 43.1707 7.36008 43.1707 8.14157C43.1707 8.89299 42.6747 10.5912 41.6829 13.2362C40.721 15.8813 40.165 17.9101 40.0147 19.3228C39.8644 20.7054 39.5939 22.6141 39.2031 25.0487C38.8425 27.4833 38.6621 29.1966 38.6621 30.1885C38.6621 31.1503 38.4968 31.7815 38.1662 32.0821C37.8656 32.3526 37.3847 32.563 36.7234 32.7133L33.0264 33.5248C31.5536 33.7953 30.8172 33.1791 30.8172 31.6763Z" fill="black"/>
</svg>
