<svg width="258" height="39" viewBox="0 0 258 39" fill="none" xmlns="http://www.w3.org/2000/svg">
<g filter="url(#filter0_d_189_213)">
<path d="M18 0H244L258 17L244 34H18L4 17L18 0Z" fill="#FF5555" fill-opacity="0.75" shape-rendering="crispEdges"/>
</g>
<path d="M29.1819 11.25C29.1819 10.8 29.0069 10.35 28.6569 9.9C28.3236 9.43333 28.1569 9.09167 28.1569 8.875V8.775C28.1569 8.425 28.3653 8.25 28.7819 8.25H34.9069C35.3236 8.25 35.5319 8.425 35.5319 8.775V8.875C35.5319 9.09167 35.3403 9.43333 34.9569 9.9C34.5736 10.35 34.3819 10.8 34.3819 11.25V17.625C34.3819 20.6583 33.8319 22.85 32.7319 24.2C31.6486 25.5333 30.0236 26.2167 27.8569 26.25C26.6403 26.2667 25.5903 26.125 24.7069 25.825C23.8403 25.525 23.1903 25.125 22.7569 24.625C22.3236 24.125 22.0069 23.625 21.8069 23.125C21.6236 22.6083 21.5319 22.0833 21.5319 21.55C21.5319 20.8167 21.7403 20.225 22.1569 19.775C22.5736 19.3083 23.1236 19.075 23.8069 19.075C24.5069 19.075 25.0569 19.2583 25.4569 19.625C25.8736 19.975 26.1486 20.4083 26.2819 20.925C26.4319 21.425 26.5569 21.9333 26.6569 22.45C26.7569 22.95 26.9069 23.3833 27.1069 23.75C27.3236 24.1 27.6319 24.275 28.0319 24.275C28.7986 24.275 29.1819 23.1417 29.1819 20.875V11.25ZM42.8444 26.25C40.9611 26.25 39.3278 25.6667 37.9444 24.5C36.5611 23.3167 35.8694 21.8167 35.8694 20C35.8694 18.1833 36.5611 16.6917 37.9444 15.525C39.3278 14.3417 40.9611 13.75 42.8444 13.75C44.7444 13.75 46.3778 14.3417 47.7444 15.525C49.1111 16.6917 49.7944 18.1833 49.7944 20C49.7944 21.8167 49.1111 23.3167 47.7444 24.5C46.3778 25.6667 44.7444 26.25 42.8444 26.25ZM43.4444 24.9C43.9111 24.9 44.2194 24.6917 44.3694 24.275C44.5194 23.8417 44.5944 23.175 44.5944 22.275C44.5944 21.675 44.5111 20.8583 44.3444 19.825C44.1944 18.775 43.9028 17.725 43.4694 16.675C43.0528 15.625 42.5611 15.1 41.9944 15.1C41.5444 15.1 41.2444 15.3083 41.0944 15.725C40.9444 16.1417 40.8694 16.825 40.8694 17.775C40.8694 18.4417 40.9444 19.3 41.0944 20.35C41.2611 21.3833 41.5528 22.4 41.9694 23.4C42.4028 24.4 42.8944 24.9 43.4444 24.9ZM56.7388 11.975C56.1554 12.5083 55.3971 12.775 54.4638 12.775C53.5304 12.775 52.7638 12.5083 52.1638 11.975C51.5804 11.4417 51.2888 10.7833 51.2888 10C51.2888 9.21667 51.5804 8.56667 52.1638 8.05C52.7638 7.51667 53.5304 7.25 54.4638 7.25C55.3971 7.25 56.1554 7.51667 56.7388 8.05C57.3388 8.56667 57.6388 9.21667 57.6388 10C57.6388 10.7833 57.3388 11.4417 56.7388 11.975ZM51.4638 26C51.0471 26 50.8388 25.825 50.8388 25.475V25.375C50.8388 25.1583 51.0054 24.825 51.3388 24.375C51.6888 23.9083 51.8638 23.45 51.8638 23V18.975C51.8638 18.525 51.6888 18.0833 51.3388 17.65C51.0054 17.2 50.8388 16.8833 50.8388 16.7V16.6C50.8388 16.3833 51.0471 16.175 51.4638 15.975L55.7388 13.875C56.1054 13.7083 56.3971 13.6917 56.6138 13.825C56.8471 13.9583 56.9638 14.1667 56.9638 14.45V23C56.9638 23.45 57.1554 23.9083 57.5388 24.375C57.9221 24.825 58.1138 25.1583 58.1138 25.375V25.475C58.1138 25.825 57.9054 26 57.4888 26H51.4638ZM72.9919 23.025C73.0252 23.4583 73.1836 23.9083 73.4669 24.375C73.7502 24.825 73.8919 25.1667 73.8919 25.4V25.5C73.8919 25.85 73.6836 26.025 73.2669 26.025H67.7419C67.3252 26.025 67.1169 25.85 67.1169 25.5V25.4C67.1169 25.1833 67.2752 24.85 67.5919 24.4C67.9086 23.9333 68.0502 23.475 68.0169 23.025L67.7669 18.7C67.7002 17.5167 67.5752 16.7 67.3919 16.25C67.2086 15.8 66.8752 15.575 66.3919 15.575C65.5752 15.575 65.1669 16.2917 65.1669 17.725V23.025C65.1669 23.475 65.3586 23.9333 65.7419 24.4C66.1252 24.85 66.3169 25.1833 66.3169 25.4V25.5C66.3169 25.85 66.1086 26.025 65.6919 26.025H59.6669C59.2502 26.025 59.0419 25.85 59.0419 25.5V25.4C59.0419 25.1833 59.2336 24.85 59.6169 24.4C60.0002 23.9333 60.1919 23.475 60.1919 23.025V18.8C60.1919 18.45 60.0752 18.15 59.8419 17.9C59.6086 17.6333 59.3752 17.4 59.1419 17.2C58.9086 16.9833 58.7919 16.775 58.7919 16.575V16.475C58.7919 16.2583 59.0086 16.0333 59.4419 15.8L63.3669 13.85C63.7002 13.7 63.9502 13.7 64.1169 13.85C64.3002 13.9833 64.3919 14.2 64.3919 14.5V15.525C65.0586 14.3417 66.2252 13.75 67.8919 13.75C69.1252 13.75 70.1919 14.15 71.0919 14.95C71.9919 15.7333 72.5169 17.0417 72.6669 18.875L72.9919 23.025ZM84.7526 26.25C83.436 26.25 82.386 25.8333 81.6026 25C80.836 24.15 80.4526 22.95 80.4526 21.4V15.875H79.7026C79.5193 15.875 79.3693 15.8167 79.2526 15.7C79.136 15.5667 79.0776 15.4167 79.0776 15.25V14.625C79.0776 14.2083 79.286 14 79.7026 14H80.0526C80.8693 14 81.586 13.7667 82.2026 13.3C82.8193 12.8333 83.2193 12.2167 83.4026 11.45C83.5193 10.9833 83.7693 10.75 84.1526 10.75H84.8276C85.0443 10.75 85.2193 10.8167 85.3526 10.95C85.486 11.0667 85.5526 11.2333 85.5526 11.45V14H87.9026C88.086 14 88.236 14.0583 88.3526 14.175C88.4693 14.2917 88.5276 14.4417 88.5276 14.625V15.25C88.5276 15.4167 88.4693 15.5667 88.3526 15.7C88.236 15.8167 88.086 15.875 87.9026 15.875H85.5526V21.5C85.5526 21.85 85.6443 22.1333 85.8276 22.35C86.0276 22.55 86.2776 22.65 86.5776 22.65C87.1776 22.65 87.7026 22.3833 88.1526 21.85C88.3526 21.6333 88.5693 21.5583 88.8026 21.625C89.036 21.675 89.1526 21.825 89.1526 22.075C89.1526 23.175 88.761 24.15 87.9776 25C87.1943 25.8333 86.1193 26.25 84.7526 26.25ZM103.528 23C103.561 23.4333 103.72 23.8833 104.003 24.35C104.286 24.8 104.428 25.1417 104.428 25.375V25.475C104.428 25.825 104.22 26 103.803 26H98.278C97.8614 26 97.653 25.825 97.653 25.475V25.375C97.653 25.1583 97.8114 24.825 98.128 24.375C98.4447 23.9083 98.5864 23.45 98.553 23L98.303 18.45C98.2364 17.3833 98.103 16.6417 97.903 16.225C97.7197 15.7917 97.3947 15.575 96.928 15.575C96.1114 15.575 95.703 16.2917 95.703 17.725V23C95.703 23.45 95.8947 23.9083 96.278 24.375C96.6614 24.825 96.853 25.1583 96.853 25.375V25.475C96.853 25.825 96.6447 26 96.228 26H90.203C89.7864 26 89.578 25.825 89.578 25.475V25.375C89.578 25.1583 89.7697 24.825 90.153 24.375C90.5364 23.9083 90.728 23.45 90.728 23V12.075C90.728 11.725 90.6197 11.4333 90.403 11.2C90.203 10.95 89.9947 10.7333 89.778 10.55C89.5614 10.35 89.453 10.15 89.453 9.95V9.85C89.453 9.53333 89.6614 9.275 90.078 9.075L94.528 7.125C94.8447 6.99167 95.0947 6.975 95.278 7.075C95.4614 7.15833 95.553 7.35833 95.553 7.675V14.725C96.2864 14.075 97.2447 13.75 98.428 13.75C99.6447 13.75 100.703 14.1333 101.603 14.9C102.52 15.65 103.045 16.8917 103.178 18.625L103.528 23ZM115.708 21.95C115.891 21.75 116.099 21.6917 116.333 21.775C116.566 21.8583 116.683 22.0417 116.683 22.325C116.683 23.1917 116.241 24.0667 115.358 24.95C114.474 25.8167 113.191 26.25 111.508 26.25C109.641 26.25 108.108 25.6667 106.908 24.5C105.724 23.3333 105.133 21.8083 105.133 19.925C105.133 18.1083 105.741 16.6333 106.958 15.5C108.191 14.35 109.666 13.7667 111.383 13.75C112.933 13.7333 114.174 14.075 115.108 14.775C116.041 15.4583 116.508 16.35 116.508 17.45C116.508 18.3167 116.133 19.0917 115.383 19.775C114.649 20.4417 113.691 20.8583 112.508 21.025C111.841 21.125 111.183 21.175 110.533 21.175C111.199 22.225 112.116 22.75 113.283 22.75C114.366 22.75 115.174 22.4833 115.708 21.95ZM110.833 15.2C110.466 15.2 110.166 15.4167 109.933 15.85C109.716 16.2833 109.608 16.8583 109.608 17.575C109.608 18.3917 109.708 19.1333 109.908 19.8C110.124 19.8 110.266 19.7917 110.333 19.775C111.433 19.6083 111.983 18.6917 111.983 17.025C111.983 16.5083 111.866 16.075 111.633 15.725C111.416 15.375 111.149 15.2 110.833 15.2ZM131.045 26.25C129.378 26.25 127.878 25.8083 126.545 24.925C125.211 24.0417 124.195 22.8917 123.495 21.475C122.795 20.0583 122.445 18.525 122.445 16.875C122.445 14.325 123.203 12.2167 124.72 10.55C126.253 8.86667 128.27 8.025 130.77 8.025C132.77 8.025 134.495 8.48333 135.945 9.4C137.411 10.3 138.145 11.4417 138.145 12.825C138.145 13.4917 137.936 14.0333 137.52 14.45C137.103 14.85 136.528 15.05 135.795 15.05C135.161 15.05 134.595 14.875 134.095 14.525C133.611 14.175 133.211 13.7583 132.895 13.275C132.595 12.775 132.303 12.2833 132.02 11.8C131.753 11.3 131.428 10.875 131.045 10.525C130.661 10.175 130.236 10 129.77 10C129.12 10 128.561 10.3333 128.095 11C127.628 11.65 127.395 12.5583 127.395 13.725C127.395 16.0583 127.928 17.9667 128.995 19.45C130.078 20.9167 131.336 21.65 132.77 21.65C133.07 21.65 133.345 21.6333 133.595 21.6C133.861 21.55 134.111 21.4667 134.345 21.35C134.595 21.2167 134.795 21.1167 134.945 21.05C135.095 20.9667 135.27 20.825 135.47 20.625C135.686 20.425 135.828 20.2917 135.895 20.225C135.978 20.1583 136.111 20.0083 136.295 19.775C136.495 19.5417 136.603 19.4167 136.62 19.4C136.87 19.1 137.178 19 137.545 19.1C137.911 19.2 138.095 19.4583 138.095 19.875C138.095 21.625 137.495 23.125 136.295 24.375C135.095 25.625 133.345 26.25 131.045 26.25ZM146.067 26.25C144.184 26.25 142.55 25.6667 141.167 24.5C139.784 23.3167 139.092 21.8167 139.092 20C139.092 18.1833 139.784 16.6917 141.167 15.525C142.55 14.3417 144.184 13.75 146.067 13.75C147.967 13.75 149.6 14.3417 150.967 15.525C152.334 16.6917 153.017 18.1833 153.017 20C153.017 21.8167 152.334 23.3167 150.967 24.5C149.6 25.6667 147.967 26.25 146.067 26.25ZM146.667 24.9C147.134 24.9 147.442 24.6917 147.592 24.275C147.742 23.8417 147.817 23.175 147.817 22.275C147.817 21.675 147.734 20.8583 147.567 19.825C147.417 18.775 147.125 17.725 146.692 16.675C146.275 15.625 145.784 15.1 145.217 15.1C144.767 15.1 144.467 15.3083 144.317 15.725C144.167 16.1417 144.092 16.825 144.092 17.775C144.092 18.4417 144.167 19.3 144.317 20.35C144.484 21.3833 144.775 22.4 145.192 23.4C145.625 24.4 146.117 24.9 146.667 24.9ZM154.486 26C154.07 26 153.861 25.825 153.861 25.475V25.375C153.861 25.1583 154.028 24.825 154.361 24.375C154.711 23.9083 154.886 23.45 154.886 23V12.275C154.886 11.825 154.711 11.3833 154.361 10.95C154.028 10.5 153.861 10.1833 153.861 10V9.9C153.861 9.68333 154.07 9.475 154.486 9.275L158.761 7.175C159.128 7.00833 159.42 6.99167 159.636 7.125C159.87 7.25833 159.986 7.46667 159.986 7.75V23C159.986 23.45 160.178 23.9083 160.561 24.375C160.945 24.825 161.136 25.1583 161.136 25.375V25.475C161.136 25.825 160.928 26 160.511 26H154.486ZM162.519 26C162.102 26 161.894 25.825 161.894 25.475V25.375C161.894 25.1583 162.06 24.825 162.394 24.375C162.744 23.9083 162.919 23.45 162.919 23V12.275C162.919 11.825 162.744 11.3833 162.394 10.95C162.06 10.5 161.894 10.1833 161.894 10V9.9C161.894 9.68333 162.102 9.475 162.519 9.275L166.794 7.175C167.16 7.00833 167.452 6.99167 167.669 7.125C167.902 7.25833 168.019 7.46667 168.019 7.75V23C168.019 23.45 168.21 23.9083 168.594 24.375C168.977 24.825 169.169 25.1583 169.169 25.375V25.475C169.169 25.825 168.96 26 168.544 26H162.519ZM180.576 21.95C180.759 21.75 180.968 21.6917 181.201 21.775C181.434 21.8583 181.551 22.0417 181.551 22.325C181.551 23.1917 181.109 24.0667 180.226 24.95C179.343 25.8167 178.059 26.25 176.376 26.25C174.509 26.25 172.976 25.6667 171.776 24.5C170.593 23.3333 170.001 21.8083 170.001 19.925C170.001 18.1083 170.609 16.6333 171.826 15.5C173.059 14.35 174.534 13.7667 176.251 13.75C177.801 13.7333 179.043 14.075 179.976 14.775C180.909 15.4583 181.376 16.35 181.376 17.45C181.376 18.3167 181.001 19.0917 180.251 19.775C179.518 20.4417 178.559 20.8583 177.376 21.025C176.709 21.125 176.051 21.175 175.401 21.175C176.068 22.225 176.984 22.75 178.151 22.75C179.234 22.75 180.043 22.4833 180.576 21.95ZM175.701 15.2C175.334 15.2 175.034 15.4167 174.801 15.85C174.584 16.2833 174.476 16.8583 174.476 17.575C174.476 18.3917 174.576 19.1333 174.776 19.8C174.993 19.8 175.134 19.7917 175.201 19.775C176.301 19.6083 176.851 18.6917 176.851 17.025C176.851 16.5083 176.734 16.075 176.501 15.725C176.284 15.375 176.018 15.2 175.701 15.2ZM189.001 26.25C187.051 26.25 185.476 25.625 184.276 24.375C183.076 23.125 182.476 21.6667 182.476 20C182.476 18.1 183.093 16.5917 184.326 15.475C185.559 14.3417 187.059 13.7667 188.826 13.75C190.376 13.7333 191.668 14.075 192.701 14.775C193.751 15.475 194.276 16.425 194.276 17.625C194.276 18.0917 194.109 18.4833 193.776 18.8C193.443 19.1 192.926 19.2333 192.226 19.2C191.709 19.1667 191.259 19 190.876 18.7C190.493 18.4 190.193 18.0583 189.976 17.675C189.776 17.275 189.593 16.875 189.426 16.475C189.259 16.075 189.068 15.7417 188.851 15.475C188.634 15.2083 188.384 15.0833 188.101 15.1C187.718 15.1167 187.401 15.35 187.151 15.8C186.918 16.25 186.801 16.8083 186.801 17.475C186.801 19.075 187.151 20.3583 187.851 21.325C188.568 22.2917 189.518 22.775 190.701 22.775C191.718 22.775 192.584 22.3667 193.301 21.55C193.484 21.35 193.693 21.2833 193.926 21.35C194.176 21.4167 194.301 21.5917 194.301 21.875C194.301 23.0917 193.843 24.125 192.926 24.975C192.009 25.825 190.701 26.25 189.001 26.25ZM200.671 26.25C199.354 26.25 198.304 25.8333 197.521 25C196.754 24.15 196.371 22.95 196.371 21.4V15.875H195.621C195.437 15.875 195.287 15.8167 195.171 15.7C195.054 15.5667 194.996 15.4167 194.996 15.25V14.625C194.996 14.2083 195.204 14 195.621 14H195.971C196.787 14 197.504 13.7667 198.121 13.3C198.737 12.8333 199.137 12.2167 199.321 11.45C199.437 10.9833 199.687 10.75 200.071 10.75H200.746C200.962 10.75 201.137 10.8167 201.271 10.95C201.404 11.0667 201.471 11.2333 201.471 11.45V14H203.821C204.004 14 204.154 14.0583 204.271 14.175C204.387 14.2917 204.446 14.4417 204.446 14.625V15.25C204.446 15.4167 204.387 15.5667 204.271 15.7C204.154 15.8167 204.004 15.875 203.821 15.875H201.471V21.5C201.471 21.85 201.562 22.1333 201.746 22.35C201.946 22.55 202.196 22.65 202.496 22.65C203.096 22.65 203.621 22.3833 204.071 21.85C204.271 21.6333 204.487 21.5583 204.721 21.625C204.954 21.675 205.071 21.825 205.071 22.075C205.071 23.175 204.679 24.15 203.896 25C203.112 25.8333 202.037 26.25 200.671 26.25ZM211.646 11.975C211.063 12.5083 210.304 12.775 209.371 12.775C208.438 12.775 207.671 12.5083 207.071 11.975C206.488 11.4417 206.196 10.7833 206.196 10C206.196 9.21667 206.488 8.56667 207.071 8.05C207.671 7.51667 208.438 7.25 209.371 7.25C210.304 7.25 211.063 7.51667 211.646 8.05C212.246 8.56667 212.546 9.21667 212.546 10C212.546 10.7833 212.246 11.4417 211.646 11.975ZM206.371 26C205.954 26 205.746 25.825 205.746 25.475V25.375C205.746 25.1583 205.913 24.825 206.246 24.375C206.596 23.9083 206.771 23.45 206.771 23V18.975C206.771 18.525 206.596 18.0833 206.246 17.65C205.913 17.2 205.746 16.8833 205.746 16.7V16.6C205.746 16.3833 205.954 16.175 206.371 15.975L210.646 13.875C211.013 13.7083 211.304 13.6917 211.521 13.825C211.754 13.9583 211.871 14.1667 211.871 14.45V23C211.871 23.45 212.063 23.9083 212.446 24.375C212.829 24.825 213.021 25.1583 213.021 25.375V25.475C213.021 25.825 212.813 26 212.396 26H206.371ZM219.624 26.25C219.007 26.25 218.432 26.1667 217.899 26C217.382 25.85 216.857 25.5833 216.324 25.2C215.807 24.8167 215.391 24.225 215.074 23.425C214.774 22.625 214.624 21.6583 214.624 20.525V17.425C214.624 16.975 214.449 16.5333 214.099 16.1C213.766 15.65 213.599 15.3333 213.599 15.15V15.05C213.599 14.9 213.657 14.7667 213.774 14.65C213.891 14.5167 214.041 14.4417 214.224 14.425L218.374 13.875C219.257 13.775 219.699 13.9667 219.699 14.45L219.599 22.05C219.582 22.9333 219.674 23.55 219.874 23.9C220.074 24.2333 220.399 24.4083 220.849 24.425C221.732 24.4583 222.507 23.95 223.174 22.9C223.857 21.85 224.199 20.8583 224.199 19.925C224.199 19.475 224.066 19.0833 223.799 18.75C223.532 18.4 223.241 18.1333 222.924 17.95C222.607 17.75 222.316 17.4583 222.049 17.075C221.782 16.675 221.649 16.2167 221.649 15.7C221.649 15.1333 221.841 14.675 222.224 14.325C222.607 13.9583 223.124 13.775 223.774 13.775C224.641 13.775 225.324 14.1083 225.824 14.775C226.341 15.425 226.599 16.35 226.599 17.55C226.599 20.1167 225.957 22.2083 224.674 23.825C223.407 25.4417 221.724 26.25 219.624 26.25ZM238.193 21.95C238.376 21.75 238.585 21.6917 238.818 21.775C239.051 21.8583 239.168 22.0417 239.168 22.325C239.168 23.1917 238.726 24.0667 237.843 24.95C236.96 25.8167 235.676 26.25 233.993 26.25C232.126 26.25 230.593 25.6667 229.393 24.5C228.21 23.3333 227.618 21.8083 227.618 19.925C227.618 18.1083 228.226 16.6333 229.443 15.5C230.676 14.35 232.151 13.7667 233.868 13.75C235.418 13.7333 236.66 14.075 237.593 14.775C238.526 15.4583 238.993 16.35 238.993 17.45C238.993 18.3167 238.618 19.0917 237.868 19.775C237.135 20.4417 236.176 20.8583 234.993 21.025C234.326 21.125 233.668 21.175 233.018 21.175C233.685 22.225 234.601 22.75 235.768 22.75C236.851 22.75 237.66 22.4833 238.193 21.95ZM233.318 15.2C232.951 15.2 232.651 15.4167 232.418 15.85C232.201 16.2833 232.093 16.8583 232.093 17.575C232.093 18.3917 232.193 19.1333 232.393 19.8C232.61 19.8 232.751 19.7917 232.818 19.775C233.918 19.6083 234.468 18.6917 234.468 17.025C234.468 16.5083 234.351 16.075 234.118 15.725C233.901 15.375 233.635 15.2 233.318 15.2Z" fill="black"/>
<defs>
<filter id="filter0_d_189_213" x="0" y="0" width="258" height="39" filterUnits="userSpaceOnUse" color-interpolation-filters="sRGB">
<feFlood flood-opacity="0" result="BackgroundImageFix"/>
<feColorMatrix in="SourceAlpha" type="matrix" values="0 0 0 0 0 0 0 0 0 0 0 0 0 0 0 0 0 0 127 0" result="hardAlpha"/>
<feOffset dx="-4" dy="5"/>
<feComposite in2="hardAlpha" operator="out"/>
<feColorMatrix type="matrix" values="0 0 0 0 0 0 0 0 0 0 0 0 0 0 0 0 0 0 0.25 0"/>
<feBlend mode="normal" in2="BackgroundImageFix" result="effect1_dropShadow_189_213"/>
<feBlend mode="normal" in="SourceGraphic" in2="effect1_dropShadow_189_213" result="shape"/>
</filter>
</defs>
</svg>
