<svg width="1938" height="150" viewBox="0 0 1938 150" fill="none" xmlns="http://www.w3.org/2000/svg">
<path d="M75.4664 149C29.0664 149 0.0664063 119 0.0664063 77.4C0.0664063 35.6 29.4664 6.4 75.2664 5.79999H76.6664C108.466 5.79999 125.866 17.8 138.266 27V58.6L135.066 58.8C134.466 24.6 98.2664 7.79999 75.2664 7.79999C37.0664 7.79999 23.8664 42.6 23.8664 77C23.8664 111.4 36.8664 146.6 73.2664 146.6C102.866 146.6 132.666 122.4 137.866 95.4L141.466 96.8C137.066 122 109.666 148.6 76.6664 149H75.4664ZM199.015 149C170.815 149 151.815 129.2 151.815 100.4C151.815 72.2 170.415 51.8 198.015 51.8C226.015 51.8 245.415 71.4 245.415 100.6C245.415 129.4 227.015 149 199.015 149ZM198.215 53.4C172.815 53.4 171.215 85.4 171.215 100.4C171.215 115.8 173.615 147.4 199.015 147.4C224.215 147.4 226.015 115.8 226.015 100.6C226.015 85.2 223.415 53.4 198.215 53.4ZM250.196 1.8H250.396C258.596 0.999996 272.596 0.399992 280.996 0.399992V113.2C280.996 119.8 280.996 136.4 283.596 141.8C285.396 144.8 288.196 146.2 290.996 147H252.596C255.196 146.2 258.196 144.8 259.796 142C262.596 136.8 262.796 119.8 262.796 113.2V35.4C262.796 29.8 262.796 11 259.996 7.19999C259.196 5.4 258.196 4.79999 256.596 3.99999L256.396 3.8C254.396 2.59999 252.796 2 250.196 1.8ZM305.86 1.8H306.06C314.26 0.999996 328.26 0.399992 336.66 0.399992V113.2C336.66 119.8 336.66 136.4 339.26 141.8C341.06 144.8 343.86 146.2 346.66 147H308.26C310.86 146.2 313.86 144.8 315.46 142C318.26 136.8 318.46 119.8 318.46 113.2V35.4C318.46 29.8 318.46 11 315.66 7.19999C314.86 5.4 313.86 4.79999 312.26 3.99999L312.06 3.8C310.06 2.59999 308.46 2 305.86 1.8ZM361.241 101.6C361.241 72.2 379.441 51.8 409.641 51.8C437.841 51.8 455.441 71.4 456.041 99.4H381.841C381.841 122.6 385.841 146.4 415.441 146.4C428.841 146.4 444.641 137.4 452.641 124.2H454.041C447.241 140 428.241 149 412.241 149C382.841 149 361.241 131 361.241 101.6ZM410.641 53.8C388.841 53.8 383.641 82 382.041 97.4H436.441C435.841 82.4 433.641 53.8 410.641 53.8ZM465.538 101.4C465.538 73 484.138 51.8 513.338 51.8C522.338 51.8 545.738 54.8 545.738 66.8C545.738 71 542.738 72 539.338 72C528.738 72 531.538 52.8 513.538 52.8C489.138 52.8 486.938 82 486.938 100C486.938 117.6 492.138 146.4 514.938 146.4C526.738 146.4 538.938 141 545.138 130.8H547.138C540.138 143.8 526.338 149 512.138 149C485.538 149 465.538 127.2 465.538 101.4ZM555.274 53.2C580.874 52.4 584.074 36.4 585.274 21H594.674V52.2H621.474V55.2H594.674V132.2C594.674 140.6 598.274 143.8 602.874 143.8C609.474 143.8 618.274 136.8 619.874 130L621.474 131.4C612.074 149.2 602.074 149 595.274 149C585.274 149 575.874 140.6 575.874 131.2V55.2H555.274V53.2ZM639.759 60.6C637.159 56.6 633.359 54.4 628.759 53.4C637.159 52.6 651.759 51.8 661.159 51.8L661.359 89.4L661.159 117.2C661.159 123 661.159 137.6 663.759 142.2C665.359 145 668.159 146.4 670.959 147H632.559C635.759 146.4 638.359 145 639.959 142C642.959 136.4 642.959 121.2 642.959 114.6C642.959 88.2 643.759 69.2 639.759 60.6ZM650.559 33C643.959 33 638.759 27.6 638.759 21.2C638.759 15.2 643.959 9.99999 650.559 9.99999C657.559 9.99999 662.759 15.2 662.759 21.2C662.759 27.6 657.559 33 650.559 33ZM674.037 54H715.037C710.237 55.4 708.237 59 708.237 64C708.237 79.6 734.037 132.2 737.437 140C742.037 125.4 764.037 77.6 765.637 64.8C766.637 56.6 756.037 55.8 750.437 54L782.637 54.2C773.237 57.6 767.637 71.6 759.237 93L737.437 147.6H722.037L694.037 81C689.837 70.8 686.437 57.4 674.037 54ZM778.82 101.6C778.82 72.2 797.02 51.8 827.22 51.8C855.42 51.8 873.02 71.4 873.62 99.4H799.42C799.42 122.6 803.42 146.4 833.02 146.4C846.42 146.4 862.22 137.4 870.22 124.2H871.62C864.82 140 845.82 149 829.82 149C800.42 149 778.82 131 778.82 101.6ZM828.22 53.8C806.42 53.8 801.22 82 799.62 97.4H854.02C853.42 82.4 851.22 53.8 828.22 53.8ZM974.62 147H926.02C928.82 146.4 931.42 145.4 933.42 143.6C936.62 141 938.22 131.6 938.62 123.4C939.22 114.6 939.22 105.6 939.22 102.6V45.6C939.22 37.8 939.02 15.8 933.42 11C931.82 9.4 929.22 8.4 926.82 7.79999H1027.22V28H1025.82C1023.82 21.6 1018.42 17.2 1011.42 14.6C999.02 9.99999 972.42 9.79999 959.42 9.79999V82.6H964.62C993.82 82.2 1002.22 86.4 1004.22 63.2H1005.22V103.6H1004.22C1003.22 83 993.42 84.8 964.62 84.6H959.42V102.6C959.42 105.8 959.42 113 959.62 120C960.02 128.2 961.02 143 970.62 146.2H970.42C971.02 146.2 971.82 146.4 972.22 146.6C972.82 146.8 973.62 146.8 974.62 147ZM1039.29 53.4C1050.29 52.4 1061.09 51.8 1071.89 51.8C1071.89 59.8 1071.89 67.8 1072.09 75.6C1075.69 63.4 1087.49 52.6 1100.89 52.6C1105.69 52.6 1114.29 54.2 1114.29 60.2C1114.29 64.4 1111.69 67 1108.49 67C1100.49 67.2 1099.49 59.4 1090.09 60.2C1075.89 61.4 1072.29 90.4 1071.89 100.2C1071.69 114.2 1071.69 137.4 1074.49 142.2C1076.09 144.8 1078.69 146.4 1081.69 147H1043.29C1046.49 146.4 1049.29 144.8 1050.69 142C1054.69 135.6 1053.69 102.4 1053.69 93.2C1053.69 86.8 1053.89 65.8 1050.49 60.6C1048.29 56.8 1043.69 54.4 1039.29 53.4ZM1166.62 147C1136.22 147.2 1120.02 138.6 1120.02 118.8C1120.02 98.8 1140.02 88.6 1168.02 89.4C1173.42 89.6 1179.02 91 1183.22 92.2V84.8C1183.22 70.6 1181.42 53.2 1162.02 53.2C1151.82 53.2 1148.02 59 1145.42 64.6C1145.02 65.2 1144.82 65.8 1144.42 66.4C1144.22 67.2 1143.82 67.8 1143.22 68.4C1142.62 69.4 1142.22 70.4 1141.42 71.4C1140.42 73 1138.82 74 1135.82 74C1131.62 74 1129.62 72 1129.62 68C1129.62 55.6 1154.62 51.8 1164.02 51.8C1172.42 51.8 1186.42 54.2 1192.82 59.6C1199.22 65.8 1201.42 74.2 1201.42 82.8L1201.22 118.8C1201.22 125.2 1201.42 137.8 1203.62 142.2C1205.42 145 1208.02 146.4 1210.82 147H1166.62ZM1167.62 91C1142.02 91 1137.62 105.4 1137.62 118.8C1137.62 132.2 1141.22 145.8 1166.62 145.8C1170.82 145.8 1176.82 145.8 1179.62 142.8C1179.62 142.6 1179.82 142.4 1180.02 142C1182.42 137.2 1182.82 125 1182.82 117.4L1183.02 93.4C1179.22 92.4 1174.02 91 1167.62 91ZM1226.82 60.6C1224.02 56.6 1220.22 54.4 1215.42 53.4C1224.02 52.6 1238.62 51.8 1248.22 51.8V66.6C1254.62 59.2 1266.62 51.2 1278.22 51.2C1293.02 51.2 1303.02 56.6 1308.42 67.2C1314.62 59.6 1327.02 51.2 1338.82 51.2C1362.02 51.2 1375.62 68.6 1375.62 88.8V115C1375.62 121 1375.82 137.6 1378.22 142.2C1379.82 144.8 1382.22 146.2 1384.82 147H1347.62C1350.42 146.2 1353.02 144.8 1354.42 142C1356.62 137.2 1356.82 119.4 1356.82 113.2L1356.62 89.6C1356.62 77.4 1357.22 54.6 1337.62 54.6C1326.62 54.6 1315.02 62 1309.42 69.4C1311.82 75.2 1313.02 82.2 1313.02 90.8V115C1313.02 121 1313.42 137.6 1315.82 142.2C1317.02 144.8 1319.62 146.2 1322.22 147H1285.22C1287.82 146.2 1290.22 144.8 1291.82 142C1294.22 137.2 1294.82 119.4 1294.82 113.2C1294.62 98.2 1298.42 54.6 1277.22 54.6C1265.62 54.6 1253.42 62.6 1248.22 70.2V117.2C1248.22 123 1248.22 137.6 1250.42 142.2C1252.22 145 1255.02 146.4 1258.02 147H1219.42C1222.42 146.4 1225.22 145 1227.02 142C1229.62 136.4 1229.62 121.2 1229.62 114.6C1229.62 88.2 1230.42 69.2 1226.82 60.6ZM1392.88 101.6C1392.88 72.2 1411.08 51.8 1441.28 51.8C1469.48 51.8 1487.08 71.4 1487.68 99.4H1413.48C1413.48 122.6 1417.48 146.4 1447.08 146.4C1460.48 146.4 1476.28 137.4 1484.28 124.2H1485.68C1478.88 140 1459.88 149 1443.88 149C1414.48 149 1392.88 131 1392.88 101.6ZM1442.28 53.8C1420.48 53.8 1415.28 82 1413.68 97.4H1468.08C1467.48 82.4 1465.28 53.8 1442.28 53.8ZM1484.78 54H1524.58C1519.78 55.4 1517.78 59 1517.78 64C1517.78 79.6 1542.78 132.2 1545.58 140C1549.18 128.8 1562.38 98.2 1568.98 78.8C1565.38 68.8 1562.18 57.2 1550.78 54H1590.78C1585.78 55.4 1583.98 59 1583.98 64C1583.98 79.6 1608.98 132.2 1611.98 140C1616.38 125.4 1637.58 77.6 1639.18 64.8C1640.18 56.6 1630.18 55.8 1624.38 54L1655.58 54.2C1646.38 57.6 1641.18 71.6 1632.78 93L1611.98 147.6H1596.98L1570.58 82.6C1569.38 85.8 1567.98 89.4 1566.58 93L1545.58 147.6H1530.98L1503.98 81C1499.98 70.8 1496.78 57.4 1484.78 54ZM1699.6 149C1671.4 149 1652.4 129.2 1652.4 100.4C1652.4 72.2 1671 51.8 1698.6 51.8C1726.6 51.8 1746 71.4 1746 100.6C1746 129.4 1727.6 149 1699.6 149ZM1698.8 53.4C1673.4 53.4 1671.8 85.4 1671.8 100.4C1671.8 115.8 1674.2 147.4 1699.6 147.4C1724.8 147.4 1726.6 115.8 1726.6 100.6C1726.6 85.2 1724 53.4 1698.8 53.4ZM1750.62 53.4C1761.62 52.4 1772.42 51.8 1783.22 51.8C1783.22 59.8 1783.22 67.8 1783.42 75.6C1787.02 63.4 1798.82 52.6 1812.22 52.6C1817.02 52.6 1825.62 54.2 1825.62 60.2C1825.62 64.4 1823.02 67 1819.82 67C1811.82 67.2 1810.82 59.4 1801.42 60.2C1787.22 61.4 1783.62 90.4 1783.22 100.2C1783.02 114.2 1783.02 137.4 1785.82 142.2C1787.42 144.8 1790.02 146.4 1793.02 147H1754.62C1757.82 146.4 1760.62 144.8 1762.02 142C1766.02 135.6 1765.02 102.4 1765.02 93.2C1765.02 86.8 1765.22 65.8 1761.82 60.6C1759.62 56.8 1755.02 54.4 1750.62 53.4ZM1844.66 24.8C1844.66 14 1843.66 2.99999 1830.26 2.19999C1839.06 1.19999 1853.86 0.599989 1862.86 0.599989V101.4C1876.26 96.2 1904.06 72.6 1904.06 60.8C1904.06 58.2 1903.06 55.4 1900.86 54H1932.06C1918.46 57.6 1902.06 79 1888.66 88.8C1884.66 91.8 1879.86 95 1875.46 97.6C1924.26 94.6 1907.66 140.4 1937.06 147H1924.66C1903.06 147 1900.86 128.6 1895.86 120.2C1890.86 111.4 1883.26 101 1873.66 98.6C1873.86 98.6 1874.06 98.4 1874.26 98.2C1869.66 100.8 1865.66 103 1862.86 104V115C1862.86 121.4 1862.86 136.8 1865.46 142C1867.06 144.8 1869.86 146.2 1872.86 147H1833.86C1847.06 143.8 1844.66 123.8 1844.66 113.2V24.8Z" fill="black"/>
<path d="M75.2664 5.79999V0.799994H75.2337L75.2009 0.800423L75.2664 5.79999ZM138.266 27H143.266V24.4838L141.246 22.9845L138.266 27ZM138.266 58.6L138.578 63.5903L143.266 63.2972V58.6H138.266ZM135.066 58.8L130.067 58.8877L130.159 64.1165L135.378 63.7903L135.066 58.8ZM137.866 95.4L139.679 90.74L134.091 88.5668L132.957 94.4544L137.866 95.4ZM141.466 96.8L146.392 97.66L147.096 93.6247L143.279 92.14L141.466 96.8ZM76.6664 149V154H76.6967L76.727 154L76.6664 149ZM75.4664 144C53.3644 144 35.8331 136.875 23.8536 125.217C11.8775 113.562 5.06641 97.0069 5.06641 77.4H-4.93359C-4.93359 99.3931 2.75532 118.638 16.8793 132.383C30.9997 146.125 51.1684 154 75.4664 154V144ZM5.06641 77.4C5.06641 57.7155 11.9621 41.3133 23.9609 29.7503C35.9775 18.1703 53.4897 11.0857 75.3319 10.7996L75.2009 0.800423C51.2431 1.11428 31.1553 8.92966 17.0219 22.5497C2.87074 36.1867 -4.93359 55.2845 -4.93359 77.4H5.06641ZM75.2664 10.8H76.6664V0.799994H75.2664V10.8ZM76.6664 10.8C106.907 10.8 123.253 22.0868 135.287 31.0155L141.246 22.9845C128.48 13.5132 110.026 0.799994 76.6664 0.799994V10.8ZM133.266 27V58.6H143.266V27H133.266ZM137.955 53.6097L134.755 53.8097L135.378 63.7903L138.578 63.5903L137.955 53.6097ZM140.066 58.7123C139.731 39.6341 129.402 25.5375 116.451 16.3909C103.608 7.32094 87.8011 2.79999 75.2664 2.79999V12.8C85.7317 12.8 99.5244 16.679 110.682 24.5591C121.731 32.3625 129.802 43.7659 130.067 58.8877L140.066 58.7123ZM75.2664 2.79999C54.3298 2.79999 39.923 12.487 30.9941 26.8618C22.2448 40.9473 18.8664 59.2871 18.8664 77H28.8664C28.8664 60.3128 32.088 44.0527 39.4887 32.1382C46.7098 20.513 58.003 12.8 75.2664 12.8V2.79999ZM18.8664 77C18.8664 94.7047 22.1923 113.103 30.6203 127.258C39.211 141.686 53.0976 151.6 73.2664 151.6V141.6C57.0352 141.6 46.2218 133.914 39.2125 122.142C32.0405 110.097 28.8664 93.6953 28.8664 77H18.8664ZM73.2664 151.6C89.3916 151.6 105.313 145.035 117.837 135.032C130.345 125.041 139.903 111.266 142.776 96.3456L132.957 94.4544C130.63 106.534 122.688 118.359 111.596 127.218C100.52 136.065 86.7413 141.6 73.2664 141.6V151.6ZM136.054 100.06L139.654 101.46L143.279 92.14L139.679 90.74L136.054 100.06ZM136.541 95.94C134.578 107.184 127.361 119.153 116.543 128.399C105.77 137.606 91.7666 143.817 76.6058 144L76.727 154C94.5663 153.783 110.763 146.494 123.04 136.001C135.272 125.547 143.955 111.616 146.392 97.66L136.541 95.94ZM76.6664 144H75.4664V154H76.6664V144ZM199.015 144C186.127 144 175.671 139.502 168.433 132.023C161.18 124.529 156.815 113.685 156.815 100.4H146.815C146.815 115.915 151.95 129.371 161.247 138.977C170.559 148.598 183.703 154 199.015 154V144ZM156.815 100.4C156.815 87.405 161.088 76.531 168.21 68.9479C175.305 61.3928 185.506 56.8 198.015 56.8V46.8C182.924 46.8 170.025 52.4072 160.92 62.1021C151.842 71.769 146.815 85.195 146.815 100.4H156.815ZM198.015 56.8C210.812 56.8 221.324 61.255 228.638 68.7434C235.958 76.2395 240.415 87.1279 240.415 100.6H250.415C250.415 84.8721 245.171 71.3605 235.792 61.7565C226.405 52.145 213.218 46.8 198.015 46.8V56.8ZM240.415 100.6C240.415 113.929 236.172 124.724 229.095 132.151C222.04 139.554 211.802 144 199.015 144V154C214.228 154 227.189 148.646 236.335 139.049C245.457 129.476 250.415 116.071 250.415 100.6H240.415ZM198.215 48.4C190.712 48.4 184.672 50.8013 180.001 54.8603C175.428 58.8337 172.455 64.1415 170.488 69.573C166.591 80.3386 166.215 92.8598 166.215 100.4H176.215C176.215 92.9402 176.639 81.9614 179.891 72.977C181.5 68.5335 183.689 64.9038 186.56 62.4084C189.333 59.9987 193.017 58.4 198.215 58.4V48.4ZM166.215 100.4C166.215 108.216 166.801 120.741 170.923 131.468C173.001 136.879 176.089 142.127 180.731 146.044C185.465 150.037 191.531 152.4 199.015 152.4V142.4C193.799 142.4 190.04 140.813 187.18 138.4C184.228 135.91 181.953 132.296 180.257 127.882C176.829 118.959 176.215 107.984 176.215 100.4H166.215ZM199.015 152.4C206.46 152.4 212.47 150.028 217.129 146.012C221.692 142.079 224.676 136.82 226.658 131.424C230.587 120.73 231.015 108.257 231.015 100.6H221.015C221.015 108.143 220.543 119.07 217.271 127.976C215.654 132.38 213.463 135.971 210.6 138.438C207.835 140.822 204.169 142.4 199.015 142.4V152.4ZM231.015 100.6C231.015 92.7622 230.375 80.1974 226.231 69.4293C224.143 64.0016 221.054 58.7345 216.43 54.8009C211.712 50.7878 205.668 48.4 198.215 48.4V58.4C203.362 58.4 207.093 59.9872 209.95 62.4178C212.901 64.928 215.187 68.5734 216.898 73.0207C220.355 82.0026 221.015 93.0378 221.015 100.6H231.015ZM250.196 1.8V-3.2L249.813 6.78527L250.196 1.8ZM250.396 1.8V6.8H250.639L250.882 6.77637L250.396 1.8ZM280.996 0.399992H285.996V-4.60001H280.996V0.399992ZM283.596 141.8L279.091 143.969L279.191 144.176L279.309 144.372L283.596 141.8ZM290.996 147V152L292.37 142.192L290.996 147ZM252.596 147L251.126 142.221L252.596 152V147ZM259.796 142L264.137 144.481L264.169 144.426L264.198 144.37L259.796 142ZM259.996 7.19999L255.427 9.23069L255.648 9.72792L255.971 10.166L259.996 7.19999ZM256.596 3.99999L253.061 7.53555L253.634 8.10927L254.36 8.47213L256.596 3.99999ZM256.396 3.8L259.932 0.264442L259.496 -0.170784L258.969 -0.487461L256.396 3.8ZM250.196 6.8H250.396V-3.2H250.196V6.8ZM250.882 6.77637C258.896 5.99449 272.732 5.39999 280.996 5.39999V-4.60001C272.46 -4.60001 258.296 -3.99449 249.911 -3.17638L250.882 6.77637ZM275.996 0.399992V113.2H285.996V0.399992H275.996ZM275.996 113.2C275.996 116.49 275.995 122.425 276.329 128.237C276.496 131.141 276.751 134.098 277.149 136.729C277.528 139.238 278.1 141.91 279.091 143.969L288.101 139.631C287.792 138.99 287.389 137.562 287.037 135.234C286.703 133.027 286.471 130.409 286.313 127.663C285.997 122.175 285.996 116.51 285.996 113.2H275.996ZM279.309 144.372C282.026 148.902 286.21 150.833 289.622 151.808L292.37 142.192C290.182 141.567 288.766 140.698 287.884 139.228L279.309 144.372ZM290.996 142H252.596V152H290.996V142ZM254.067 151.779C256.982 150.882 261.559 148.993 264.137 144.481L255.455 139.519C254.833 140.607 253.41 141.518 251.126 142.221L254.067 151.779ZM264.198 144.37C265.309 142.308 265.949 139.584 266.375 137.072C266.826 134.419 267.128 131.42 267.334 128.473C267.746 122.571 267.796 116.532 267.796 113.2H257.796C257.796 116.468 257.746 122.229 257.358 127.777C257.164 130.555 256.891 133.194 256.517 135.397C256.118 137.741 255.683 139.092 255.394 139.63L264.198 144.37ZM267.796 113.2V35.4H257.796V113.2H267.796ZM267.796 35.4C267.796 32.6063 267.797 26.3693 267.437 20.3277C267.258 17.3161 266.983 14.239 266.548 11.6072C266.331 10.2928 266.059 8.99669 265.707 7.82954C265.38 6.74401 264.875 5.39256 264.021 4.234L255.971 10.166C255.817 9.95741 255.925 10.0247 256.133 10.7165C256.317 11.3267 256.505 12.1665 256.682 13.2365C257.035 15.3735 257.284 18.0589 257.455 20.9223C257.795 26.6307 257.796 32.5937 257.796 35.4H267.796ZM264.565 5.16928C263.91 3.69511 263.048 2.46349 261.864 1.44088C260.791 0.514461 259.628 -0.074144 258.832 -0.472141L254.36 8.47213C254.74 8.66194 254.968 8.78287 255.135 8.88253C255.289 8.97389 255.333 9.01321 255.328 9.00911C255.325 9.00683 255.317 8.99904 255.306 8.98747C255.296 8.97589 255.29 8.96882 255.292 8.97049C255.293 8.97248 255.343 9.04112 255.427 9.23069L264.565 5.16928ZM260.132 0.46444L259.932 0.264442L252.861 7.33555L253.061 7.53555L260.132 0.46444ZM258.969 -0.487461C256.382 -2.0392 254.041 -2.91903 250.58 -3.18527L249.813 6.78527C251.551 6.91902 252.41 7.23917 253.824 8.08745L258.969 -0.487461ZM305.86 1.8V-3.2L305.477 6.78527L305.86 1.8ZM306.06 1.8V6.8H306.303L306.546 6.77637L306.06 1.8ZM336.66 0.399992H341.66V-4.60001H336.66V0.399992ZM339.26 141.8L334.755 143.969L334.855 144.176L334.973 144.372L339.26 141.8ZM346.66 147V152L348.034 142.192L346.66 147ZM308.26 147L306.79 142.221L308.26 152V147ZM315.46 142L319.801 144.481L319.833 144.426L319.863 144.37L315.46 142ZM315.66 7.19999L311.091 9.23069L311.312 9.72792L311.635 10.166L315.66 7.19999ZM312.26 3.99999L308.725 7.53555L309.298 8.10927L310.024 8.47213L312.26 3.99999ZM312.06 3.8L315.596 0.264442L315.16 -0.170784L314.633 -0.487461L312.06 3.8ZM305.86 6.8H306.06V-3.2H305.86V6.8ZM306.546 6.77637C314.56 5.99449 328.396 5.39999 336.66 5.39999V-4.60001C328.124 -4.60001 313.96 -3.99449 305.575 -3.17638L306.546 6.77637ZM331.66 0.399992V113.2H341.66V0.399992H331.66ZM331.66 113.2C331.66 116.49 331.659 122.425 331.993 128.237C332.16 131.141 332.416 134.098 332.813 136.729C333.192 139.238 333.764 141.91 334.755 143.969L343.765 139.631C343.456 138.99 343.053 137.562 342.701 135.234C342.367 133.027 342.135 130.409 341.977 127.663C341.661 122.175 341.66 116.51 341.66 113.2H331.66ZM334.973 144.372C337.69 148.902 341.874 150.833 345.287 151.808L348.034 142.192C345.847 141.567 344.43 140.698 343.548 139.228L334.973 144.372ZM346.66 142H308.26V152H346.66V142ZM309.731 151.779C312.647 150.882 317.223 148.993 319.801 144.481L311.119 139.519C310.497 140.607 309.074 141.518 306.79 142.221L309.731 151.779ZM319.863 144.37C320.973 142.308 321.613 139.584 322.04 137.072C322.49 134.419 322.792 131.42 322.998 128.473C323.41 122.571 323.46 116.532 323.46 113.2H313.46C313.46 116.468 313.41 122.229 313.022 127.777C312.828 130.555 312.555 133.194 312.181 135.397C311.783 137.741 311.347 139.092 311.058 139.63L319.863 144.37ZM323.46 113.2V35.4H313.46V113.2H323.46ZM323.46 35.4C323.46 32.6063 323.461 26.3693 323.101 20.3277C322.922 17.3161 322.647 14.239 322.212 11.6072C321.995 10.2928 321.723 8.99669 321.371 7.82954C321.044 6.74401 320.539 5.39256 319.685 4.234L311.635 10.166C311.481 9.95741 311.589 10.0247 311.797 10.7165C311.981 11.3267 312.169 12.1665 312.346 13.2365C312.699 15.3735 312.948 18.0589 313.119 20.9223C313.459 26.6307 313.46 32.5937 313.46 35.4H323.46ZM320.229 5.16928C319.574 3.69511 318.712 2.46349 317.528 1.44088C316.456 0.514461 315.292 -0.074144 314.496 -0.472141L310.024 8.47213C310.404 8.66194 310.632 8.78287 310.799 8.88253C310.953 8.97389 310.997 9.01321 310.992 9.00911C310.989 9.00683 310.981 8.99904 310.97 8.98747C310.96 8.97589 310.955 8.96882 310.956 8.97049C310.957 8.97248 311.007 9.04112 311.091 9.23069L320.229 5.16928ZM315.796 0.46444L315.596 0.264442L308.525 7.33555L308.725 7.53555L315.796 0.46444ZM314.633 -0.487461C312.046 -2.0392 309.705 -2.91903 306.244 -3.18527L305.477 6.78527C307.215 6.91902 308.074 7.23917 309.488 8.08745L314.633 -0.487461ZM456.041 99.4V104.4H461.15L461.04 99.2929L456.041 99.4ZM381.841 99.4V94.4H376.841V99.4H381.841ZM452.641 124.2V119.2H449.825L448.365 121.608L452.641 124.2ZM454.041 124.2L458.634 126.177L461.637 119.2H454.041V124.2ZM382.041 97.4L377.068 96.8833L376.495 102.4H382.041V97.4ZM436.441 97.4V102.4H441.645L441.437 97.2002L436.441 97.4ZM366.241 101.6C366.241 87.9277 370.46 76.7938 377.744 69.1163C384.995 61.4726 395.713 56.8 409.641 56.8V46.8C393.369 46.8 379.887 52.3274 370.489 62.2337C361.123 72.1062 356.241 85.8723 356.241 101.6H366.241ZM409.641 56.8C422.526 56.8 432.615 61.2446 439.571 68.5483C446.564 75.8912 450.764 86.5231 451.043 99.5071L461.04 99.2929C460.718 84.2769 455.819 71.1088 446.812 61.6517C437.768 52.1554 424.957 46.8 409.641 46.8V56.8ZM456.041 94.4H381.841V104.4H456.041V94.4ZM376.841 99.4C376.841 111.062 377.799 123.915 383.126 133.945C385.853 139.08 389.75 143.531 395.223 146.66C400.671 149.774 407.369 151.4 415.441 151.4V141.4C408.714 141.4 403.812 140.051 400.185 137.978C396.583 135.919 393.93 132.97 391.957 129.255C387.884 121.585 386.841 110.938 386.841 99.4H376.841ZM415.441 151.4C430.733 151.4 448.088 141.36 456.917 126.792L448.365 121.608C441.195 133.44 426.949 141.4 415.441 141.4V151.4ZM452.641 129.2H454.041V119.2H452.641V129.2ZM449.449 122.223C443.661 135.672 426.875 144 412.241 144V154C429.608 154 450.822 144.328 458.634 126.177L449.449 122.223ZM412.241 144C398.545 144 387.061 139.815 379.063 132.61C371.123 125.457 366.241 114.998 366.241 101.6H356.241C356.241 117.602 362.16 130.843 372.37 140.04C382.522 149.185 396.538 154 412.241 154V144ZM410.641 48.8C396.994 48.8 388.879 57.846 384.243 67.6954C379.643 77.4657 377.881 89.0644 377.068 96.8833L387.015 97.9167C387.802 90.3356 389.44 80.1343 393.29 71.9546C397.104 63.854 402.489 58.8 410.641 58.8V48.8ZM382.041 102.4H436.441V92.4H382.041V102.4ZM441.437 97.2002C441.138 89.7221 440.438 78.0545 436.603 68.1671C434.665 63.1702 431.812 58.3126 427.519 54.6842C423.131 50.9764 417.526 48.8 410.641 48.8V58.8C415.256 58.8 418.551 60.1986 421.064 62.322C423.671 64.5248 425.718 67.7548 427.28 71.7829C430.445 79.9455 431.145 90.0779 431.445 97.5998L441.437 97.2002ZM545.138 130.8V125.8H542.326L540.866 128.203L545.138 130.8ZM547.138 130.8L551.541 133.171L555.509 125.8H547.138V130.8ZM470.538 101.4C470.538 88.2917 474.82 77.1709 482.135 69.3704C489.418 61.6056 500.01 56.8 513.338 56.8V46.8C497.466 46.8 484.159 52.5944 474.841 62.5296C465.557 72.4291 460.538 86.1083 460.538 101.4H470.538ZM513.338 56.8C517.471 56.8 525.027 57.5097 531.378 59.5585C534.565 60.5867 537.084 61.8379 538.718 63.2159C540.257 64.5139 540.738 65.6578 540.738 66.8H550.738C550.738 61.9422 548.295 58.2111 545.165 55.5716C542.13 53.0121 538.236 51.2633 534.448 50.0415C526.85 47.5903 518.206 46.8 513.338 46.8V56.8ZM540.738 66.8C540.738 67.2586 540.657 67.326 540.724 67.1894C540.806 67.0214 540.948 66.8749 541.06 66.8011C541.132 66.754 541.069 66.8168 540.746 66.8847C540.423 66.9524 539.962 67 539.338 67V77C541.345 77 544.152 76.7411 546.566 75.1489C549.384 73.2904 550.738 70.2715 550.738 66.8H540.738ZM539.338 67C538.569 67 538.05 66.8032 537.198 65.7873C536.028 64.3919 535.229 62.7135 533.503 59.8308C531.974 57.2786 529.894 54.182 526.645 51.7797C523.277 49.2894 519.014 47.8 513.538 47.8V57.8C517.063 57.8 519.199 58.7106 520.7 59.8203C522.32 61.018 523.577 62.7213 524.924 64.9692C526.072 66.8865 527.687 70.0081 529.535 72.2127C531.702 74.7967 534.808 77 539.338 77V67ZM513.538 47.8C506.355 47.8 500.492 49.9816 495.895 53.7961C491.385 57.5393 488.405 62.5923 486.41 67.8863C482.463 78.3552 481.938 90.9551 481.938 100H491.938C491.938 91.0449 492.513 80.0448 495.767 71.4137C497.371 67.1577 499.517 63.7857 502.281 61.4913C504.96 59.2684 508.522 57.8 513.538 57.8V47.8ZM481.938 100C481.938 109.146 483.27 121.527 487.814 131.819C492.417 142.244 500.821 151.4 514.938 151.4V141.4C506.256 141.4 500.66 136.156 496.962 127.781C493.206 119.273 491.938 108.454 491.938 100H481.938ZM514.938 151.4C528.065 151.4 542.105 145.416 549.411 133.397L540.866 128.203C535.771 136.584 525.412 141.4 514.938 141.4V151.4ZM545.138 135.8H547.138V125.8H545.138V135.8ZM542.736 128.429C536.918 139.234 525.261 144 512.138 144V154C527.415 154 543.359 148.366 551.541 133.171L542.736 128.429ZM512.138 144C488.492 144 470.538 124.635 470.538 101.4H460.538C460.538 129.765 482.585 154 512.138 154V144ZM555.274 53.2L555.118 48.2024L550.274 48.3538V53.2H555.274ZM585.274 21V16H580.649L580.289 20.6116L585.274 21ZM594.674 21H599.674V16H594.674V21ZM594.674 52.2H589.674V57.2H594.674V52.2ZM621.474 52.2H626.474V47.2H621.474V52.2ZM621.474 55.2V60.2H626.474V55.2H621.474ZM594.674 55.2V50.2H589.674V55.2H594.674ZM619.874 130L623.167 126.237L616.911 120.763L615.007 128.855L619.874 130ZM621.474 131.4L625.896 133.735L627.741 130.24L624.767 127.637L621.474 131.4ZM575.874 55.2H580.874V50.2H575.874V55.2ZM555.274 55.2H550.274V60.2H555.274V55.2ZM555.43 58.1976C569.364 57.7621 578.26 53.0801 583.542 45.4113C588.53 38.1695 589.661 29.0705 590.259 21.3884L580.289 20.6116C579.688 28.3295 578.618 34.9305 575.307 39.7387C572.289 44.1198 566.784 47.8379 555.118 48.2024L555.43 58.1976ZM585.274 26H594.674V16H585.274V26ZM589.674 21V52.2H599.674V21H589.674ZM594.674 57.2H621.474V47.2H594.674V57.2ZM616.474 52.2V55.2H626.474V52.2H616.474ZM621.474 50.2H594.674V60.2H621.474V50.2ZM589.674 55.2V132.2H599.674V55.2H589.674ZM589.674 132.2C589.674 137.015 590.692 141.198 593.14 144.267C595.723 147.507 599.328 148.8 602.874 148.8V138.8C601.82 138.8 601.325 138.493 600.959 138.033C600.456 137.402 599.674 135.785 599.674 132.2H589.674ZM602.874 148.8C607.738 148.8 612.669 146.34 616.387 143.343C620.126 140.328 623.599 135.998 624.741 131.145L615.007 128.855C614.549 130.802 612.822 133.372 610.111 135.557C607.379 137.76 604.611 138.8 602.874 138.8V148.8ZM616.582 133.763L618.182 135.163L624.767 127.637L623.167 126.237L616.582 133.763ZM617.053 129.065C612.701 137.305 608.537 140.781 605.233 142.369C601.856 143.992 598.733 144 595.274 144V154C598.615 154 603.893 154.108 609.565 151.381C615.311 148.619 620.847 143.295 625.896 133.735L617.053 129.065ZM595.274 144C591.649 144 587.97 142.456 585.189 139.926C582.4 137.39 580.874 134.208 580.874 131.2H570.874C570.874 137.592 574.048 143.31 578.46 147.324C582.879 151.344 588.899 154 595.274 154V144ZM580.874 131.2V55.2H570.874V131.2H580.874ZM575.874 50.2H555.274V60.2H575.874V50.2ZM560.274 55.2V53.2H550.274V55.2H560.274ZM639.759 60.6L644.292 58.4913L644.143 58.1711L643.951 57.8751L639.759 60.6ZM628.759 53.4L628.285 48.4225L627.696 58.2859L628.759 53.4ZM661.159 51.8L666.159 51.7734L666.132 46.8H661.159V51.8ZM661.359 89.4L666.358 89.436L666.359 89.4047L666.359 89.3734L661.359 89.4ZM661.159 117.2L656.159 117.164L656.159 117.182V117.2H661.159ZM663.759 142.2L659.406 144.66L659.412 144.671L659.417 144.681L663.759 142.2ZM670.959 147V152L672.006 142.111L670.959 147ZM632.559 147L631.637 142.086L632.559 152V147ZM639.959 142L635.551 139.639L635.547 139.647L639.959 142ZM643.951 57.8751C640.489 52.5494 635.425 49.7324 629.821 48.5141L627.696 58.2859C631.292 59.0675 633.828 60.6506 635.566 63.3249L643.951 57.8751ZM629.233 58.3775C637.499 57.5902 651.94 56.8 661.159 56.8V46.8C651.578 46.8 636.818 47.6098 628.285 48.4225L629.233 58.3775ZM656.159 51.8266L656.359 89.4266L666.359 89.3734L666.159 51.7734L656.159 51.8266ZM656.359 89.364L656.159 117.164L666.158 117.236L666.358 89.436L656.359 89.364ZM656.159 117.2C656.159 120.089 656.157 125.342 656.494 130.478C656.663 133.043 656.921 135.674 657.329 138.024C657.713 140.237 658.312 142.725 659.406 144.66L668.111 139.74C667.905 139.375 667.529 138.313 667.182 136.314C666.858 134.451 666.629 132.207 666.473 129.822C666.16 125.058 666.159 120.111 666.159 117.2H656.159ZM659.417 144.681C661.976 149.158 666.312 151.118 669.911 151.889L672.006 142.111C670.005 141.682 668.742 140.842 668.1 139.719L659.417 144.681ZM670.959 142H632.559V152H670.959V142ZM633.48 151.914C637.678 151.127 641.849 149.081 644.37 144.353L635.547 139.647C634.868 140.919 633.839 141.673 631.637 142.086L633.48 151.914ZM644.366 144.361C645.488 142.266 646.162 139.652 646.612 137.181C647.079 134.618 647.377 131.788 647.571 129.026C647.96 123.502 647.959 117.887 647.959 114.6H637.959C637.959 117.913 637.957 123.198 637.596 128.324C637.415 130.887 637.151 133.32 636.774 135.388C636.381 137.548 635.929 138.934 635.551 139.639L644.366 144.361ZM647.959 114.6C647.959 101.54 648.159 89.9942 647.856 80.7607C647.559 71.727 646.78 63.8399 644.292 58.4913L635.225 62.7087C636.737 65.96 637.558 71.873 637.861 81.0893C638.158 90.1058 637.959 101.26 637.959 114.6H647.959ZM650.559 28C646.775 28 643.759 24.8939 643.759 21.2H633.759C633.759 30.3061 641.142 38 650.559 38V28ZM643.759 21.2C643.759 18.1292 646.549 15 650.559 15V4.99999C641.368 4.99999 633.759 12.2708 633.759 21.2H643.759ZM650.559 15C655.08 15 657.759 18.2361 657.759 21.2H667.759C667.759 12.1639 660.037 4.99999 650.559 4.99999V15ZM657.759 21.2C657.759 24.7842 654.852 28 650.559 28V38C660.265 38 667.759 30.4158 667.759 21.2H657.759ZM674.037 54V49L672.715 58.822L674.037 54ZM715.037 54L716.437 58.8L715.037 49V54ZM737.437 140L732.853 141.998L738.191 154.244L742.206 141.503L737.437 140ZM765.637 64.8L770.598 65.4202L770.599 65.4127L770.6 65.4053L765.637 64.8ZM750.437 54L750.468 49.0001L748.907 58.7601L750.437 54ZM782.637 54.2L784.337 58.9019L782.668 49.2001L782.637 54.2ZM759.237 93L763.88 94.854L763.886 94.8405L763.891 94.8269L759.237 93ZM737.437 147.6V152.6H740.824L742.08 149.454L737.437 147.6ZM722.037 147.6L717.428 149.538L718.715 152.6H722.037V147.6ZM694.037 81L689.413 82.9037L689.42 82.9208L689.428 82.9378L694.037 81ZM674.037 59H715.037V49H674.037V59ZM713.637 49.2C710.243 50.1897 707.476 52.0947 705.639 54.9337C703.859 57.6852 703.237 60.8723 703.237 64H713.237C713.237 62.1277 713.615 61.0148 714.035 60.3662C714.398 59.8053 715.03 59.2103 716.437 58.8L713.637 49.2ZM703.237 64C703.237 68.8326 705.133 75.7741 707.589 82.9735C710.119 90.3921 713.506 98.8041 716.965 106.891C720.429 114.991 723.995 122.834 726.901 129.125C729.845 135.499 732.031 140.112 732.853 141.998L742.02 138.002C741.142 135.988 738.829 131.101 735.979 124.932C733.091 118.679 729.57 110.934 726.159 102.959C722.743 94.9709 719.467 86.8204 717.053 79.7452C714.565 72.4509 713.237 66.9674 713.237 64H703.237ZM742.206 141.503C744.423 134.464 750.921 119.221 757.291 103.614C760.433 95.9167 763.508 88.2087 765.903 81.6007C768.237 75.1615 770.118 69.2621 770.598 65.4202L760.675 64.1798C760.356 66.7379 758.886 71.6135 756.502 78.1931C754.178 84.6038 751.166 92.1583 748.032 99.8356C741.852 114.979 735.05 130.936 732.668 138.497L742.206 141.503ZM770.6 65.4053C770.995 62.168 770.241 59.2698 768.473 56.9094C766.822 54.7034 764.563 53.3396 762.562 52.4397C760.542 51.5313 758.379 50.9212 756.566 50.4528C754.571 49.9374 753.183 49.6309 751.967 49.2399L748.907 58.7601C750.49 59.2691 752.527 59.7376 754.064 60.1347C755.782 60.5788 757.257 61.0187 758.461 61.5603C759.685 62.1104 760.239 62.5966 760.469 62.9031C760.583 63.0552 760.779 63.332 760.673 64.1947L770.6 65.4053ZM750.406 58.9999L782.606 59.1999L782.668 49.2001L750.468 49.0001L750.406 58.9999ZM780.936 49.4981C774.449 51.8446 769.943 57.5903 766.179 64.443C762.366 71.3857 758.742 80.5753 754.582 91.1731L763.891 94.8269C768.131 84.0247 771.507 75.5143 774.944 69.257C778.43 62.9097 781.425 59.9554 784.337 58.9019L780.936 49.4981ZM754.593 91.146L732.793 145.746L742.08 149.454L763.88 94.854L754.593 91.146ZM737.437 142.6H722.037V152.6H737.437V142.6ZM726.646 145.662L698.646 79.0622L689.428 82.9378L717.428 149.538L726.646 145.662ZM698.66 79.0962C696.775 74.517 694.586 67.8792 691.438 62.444C688.131 56.7341 683.273 51.348 675.359 49.178L672.715 58.822C677.2 60.052 680.242 63.0659 682.785 67.456C685.487 72.1208 687.099 77.283 689.413 82.9037L698.66 79.0962ZM873.62 99.4V104.4H878.728L878.618 99.2929L873.62 99.4ZM799.42 99.4V94.4H794.42V99.4H799.42ZM870.22 124.2V119.2H867.403L865.944 121.608L870.22 124.2ZM871.62 124.2L876.212 126.177L879.215 119.2H871.62V124.2ZM799.62 97.4L794.646 96.8833L794.073 102.4H799.62V97.4ZM854.02 97.4V102.4H859.224L859.016 97.2002L854.02 97.4ZM783.82 101.6C783.82 87.9277 788.038 76.7938 795.322 69.1163C802.574 61.4726 813.291 56.8 827.22 56.8V46.8C810.948 46.8 797.466 52.3274 788.067 62.2337C778.701 72.1062 773.82 85.8723 773.82 101.6H783.82ZM827.22 56.8C840.104 56.8 850.193 61.2446 857.149 68.5483C864.142 75.8912 868.342 86.5231 868.621 99.5071L878.618 99.2929C878.297 84.2769 873.397 71.1088 864.39 61.6517C855.346 52.1554 842.535 46.8 827.22 46.8V56.8ZM873.62 94.4H799.42V104.4H873.62V94.4ZM794.42 99.4C794.42 111.062 795.377 123.915 800.704 133.945C803.431 139.08 807.328 143.531 812.801 146.66C818.249 149.774 824.947 151.4 833.02 151.4V141.4C826.292 141.4 821.39 140.051 817.763 137.978C814.161 135.919 811.508 132.97 809.535 129.255C805.462 121.585 804.42 110.938 804.42 99.4H794.42ZM833.02 151.4C848.311 151.4 865.666 141.36 874.496 126.792L865.944 121.608C858.773 133.44 844.528 141.4 833.02 141.4V151.4ZM870.22 129.2H871.62V119.2H870.22V129.2ZM867.027 122.223C861.239 135.672 844.453 144 829.82 144V154C847.186 154 868.4 144.328 876.212 126.177L867.027 122.223ZM829.82 144C816.123 144 804.639 139.815 796.641 132.61C788.701 125.457 783.82 114.998 783.82 101.6H773.82C773.82 117.602 779.738 130.843 789.948 140.04C800.1 149.185 814.116 154 829.82 154V144ZM828.22 48.8C814.572 48.8 806.457 57.846 801.821 67.6954C797.221 77.4657 795.459 89.0644 794.646 96.8833L804.593 97.9167C805.38 90.3356 807.018 80.1343 810.868 71.9546C814.682 63.854 820.067 58.8 828.22 58.8V48.8ZM799.62 102.4H854.02V92.4H799.62V102.4ZM859.016 97.2002C858.716 89.7221 858.016 78.0545 854.181 68.1671C852.243 63.1702 849.39 58.3126 845.097 54.6842C840.709 50.9764 835.104 48.8 828.22 48.8V58.8C832.835 58.8 836.13 60.1986 838.642 62.322C841.249 64.5248 843.296 67.7548 844.858 71.7829C848.023 79.9455 848.723 90.0779 849.024 97.5998L859.016 97.2002ZM974.62 147V152L975.6 142.097L974.62 147ZM926.02 147L924.972 142.111L926.02 152V147ZM933.42 143.6L930.267 139.719L930.169 139.799L930.075 139.884L933.42 143.6ZM938.62 123.4L933.631 123.06L933.628 123.108L933.625 123.156L938.62 123.4ZM933.42 11L929.884 14.5355L930.02 14.6713L930.166 14.7963L933.42 11ZM926.82 7.79999V2.79999L925.607 12.6507L926.82 7.79999ZM1027.22 7.79999H1032.22V2.79999H1027.22V7.79999ZM1027.22 28V33H1032.22V28H1027.22ZM1025.82 28L1021.05 29.4914L1022.14 33H1025.82V28ZM1011.42 14.6L1013.16 9.91286L1013.16 9.91216L1011.42 14.6ZM959.42 9.79999V4.79999H954.42V9.79999H959.42ZM959.42 82.6H954.42V87.6H959.42V82.6ZM964.62 82.6V87.6H964.654L964.688 87.5995L964.62 82.6ZM1004.22 63.2V58.2H999.632L999.238 62.7706L1004.22 63.2ZM1005.22 63.2H1010.22V58.2H1005.22V63.2ZM1005.22 103.6V108.6H1010.22V103.6H1005.22ZM1004.22 103.6L999.225 103.842L999.456 108.6H1004.22V103.6ZM964.62 84.6L964.654 79.6001L964.637 79.6H964.62V84.6ZM959.42 84.6V79.6H954.42V84.6H959.42ZM959.62 120L954.622 120.143L954.623 120.193L954.625 120.244L959.62 120ZM970.62 146.2V151.2L972.201 141.457L970.62 146.2ZM972.22 146.6L969.983 151.072L970.301 151.231L970.638 151.343L972.22 146.6ZM974.62 142H926.02V152H974.62V142ZM927.067 151.889C930.293 151.198 933.852 149.938 936.764 147.316L930.075 139.884C928.987 140.862 927.346 141.602 924.972 142.111L927.067 151.889ZM936.572 147.481C938.267 146.104 939.362 144.193 940.101 142.517C940.877 140.756 941.475 138.753 941.943 136.719C942.879 132.645 943.404 127.934 943.614 123.644L933.625 123.156C933.435 127.066 932.961 131.155 932.196 134.481C931.814 136.147 931.387 137.494 930.951 138.483C930.477 139.557 930.172 139.796 930.267 139.719L936.572 147.481ZM943.608 123.74C944.221 114.753 944.22 105.602 944.22 102.6H934.22C934.22 105.598 934.218 114.447 933.631 123.06L943.608 123.74ZM944.22 102.6V45.6H934.22V102.6H944.22ZM944.22 45.6C944.22 41.6824 944.172 34.0055 943.392 26.6479C943.003 22.9798 942.416 19.2228 941.501 15.9774C940.653 12.9703 939.271 9.43018 936.673 7.20371L930.166 14.7963C930.164 14.795 930.234 14.8558 930.358 15.027C930.482 15.1973 930.636 15.4458 930.81 15.792C931.164 16.4966 931.528 17.4587 931.876 18.6913C932.573 21.1647 933.086 24.2952 933.447 27.7021C934.167 34.4945 934.22 41.7176 934.22 45.6H944.22ZM936.955 7.46447C934.356 4.86569 930.637 3.60055 928.032 2.94928L925.607 12.6507C927.802 13.1994 929.283 13.9343 929.884 14.5355L936.955 7.46447ZM926.82 12.8H1027.22V2.79999H926.82V12.8ZM1022.22 7.79999V28H1032.22V7.79999H1022.22ZM1027.22 23H1025.82V33H1027.22V23ZM1030.59 26.5086C1027.97 18.1143 1021.01 12.8296 1013.16 9.91286L1009.68 19.2871C1015.83 21.5704 1019.67 25.0857 1021.05 29.4914L1030.59 26.5086ZM1013.16 9.91216C1006.2 7.33012 995.782 6.10975 985.962 5.48507C975.968 4.84931 965.933 4.79999 959.42 4.79999V14.8C965.906 14.8 975.671 14.8507 985.327 15.4649C995.157 16.0902 1004.24 17.2699 1009.68 19.2878L1013.16 9.91216ZM954.42 9.79999V82.6H964.42V9.79999H954.42ZM959.42 87.6H964.62V77.6H959.42V87.6ZM964.688 87.5995C972.143 87.4974 977.528 87.6896 982.87 87.6624C987.783 87.6375 992.327 87.4207 996.129 86.2167C1000.28 84.9019 1003.53 82.4255 1005.71 78.3055C1007.72 74.5146 1008.69 69.6004 1009.2 63.6294L999.238 62.7706C998.753 68.3996 997.917 71.6604 996.877 73.6195C996.013 75.2495 994.958 76.0981 993.11 76.6833C990.912 77.3793 987.756 77.6375 982.819 77.6626C978.311 77.6854 971.697 77.5026 964.551 77.6005L964.688 87.5995ZM1004.22 68.2H1005.22V58.2H1004.22V68.2ZM1000.22 63.2V103.6H1010.22V63.2H1000.22ZM1005.22 98.6H1004.22V108.6H1005.22V98.6ZM1009.21 103.358C1008.95 97.9217 1008.09 93.2702 1006.04 89.5503C1003.85 85.5869 1000.56 83.1463 996.489 81.728C992.652 80.3921 988.06 79.9436 982.998 79.7595C977.919 79.5748 971.705 79.6491 964.654 79.6001L964.585 89.5999C971.934 89.6509 977.745 89.5752 982.635 89.7529C987.542 89.9314 990.862 90.3579 993.2 91.172C995.302 91.9037 996.456 92.8881 997.284 94.3872C998.247 96.1298 998.989 98.9783 999.225 103.842L1009.21 103.358ZM964.62 79.6H959.42V89.6H964.62V79.6ZM954.42 84.6V102.6H964.42V84.6H954.42ZM954.42 102.6C954.42 105.798 954.419 113.063 954.622 120.143L964.617 119.857C964.42 112.937 964.42 105.802 964.42 102.6H954.42ZM954.625 120.244C954.824 124.317 955.184 130.617 956.871 136.379C958.52 142.013 961.866 148.553 969.038 150.943L972.201 141.457C969.773 140.647 967.819 138.187 966.468 133.571C965.155 129.083 964.815 123.883 964.614 119.756L954.625 120.244ZM970.62 141.2H970.42V151.2H970.62V141.2ZM970.42 151.2C970.358 151.2 970.313 151.197 970.288 151.196C970.262 151.194 970.247 151.192 970.243 151.191C970.238 151.191 970.249 151.192 970.27 151.197C970.292 151.202 970.295 151.204 970.273 151.197C970.26 151.192 970.232 151.183 970.19 151.166C970.15 151.15 970.078 151.119 969.983 151.072L974.456 142.128C973.331 141.565 971.761 141.2 970.42 141.2V151.2ZM970.638 151.343C971.476 151.623 972.303 151.718 972.649 151.761C973.127 151.821 973.361 151.847 973.639 151.903L975.6 142.097C974.878 141.953 974.212 141.879 973.89 141.839C973.699 141.815 973.623 141.803 973.586 141.797C973.553 141.791 973.645 141.805 973.801 141.857L970.638 151.343ZM1039.29 53.4L1038.84 48.4205L1038.18 58.2757L1039.29 53.4ZM1071.89 51.8H1076.89V46.8H1071.89V51.8ZM1072.09 75.6L1067.09 75.7282L1076.89 77.0151L1072.09 75.6ZM1108.49 67V62H1108.43L1108.37 62.0016L1108.49 67ZM1090.09 60.2L1090.51 65.1822L1090.52 65.182L1090.09 60.2ZM1071.89 100.2L1066.9 99.9961L1066.89 100.062L1066.89 100.129L1071.89 100.2ZM1074.49 142.2L1070.17 144.719L1070.2 144.77L1070.23 144.82L1074.49 142.2ZM1081.69 147V152L1082.67 142.097L1081.69 147ZM1043.29 147L1042.37 142.086L1043.29 152V147ZM1050.69 142L1046.45 139.35L1046.33 139.551L1046.22 139.764L1050.69 142ZM1050.49 60.6L1046.16 63.1052L1046.23 63.2226L1046.31 63.3362L1050.49 60.6ZM1039.74 58.3795C1050.63 57.3897 1061.28 56.8 1071.89 56.8V46.8C1060.91 46.8 1049.95 47.4102 1038.84 48.4205L1039.74 58.3795ZM1066.89 51.8C1066.89 59.7881 1066.89 67.853 1067.09 75.7282L1077.09 75.4718C1076.89 67.747 1076.89 59.8119 1076.89 51.8H1066.89ZM1076.89 77.0151C1079.99 66.5087 1090.13 57.6 1100.89 57.6V47.6C1084.85 47.6 1071.4 60.2913 1067.3 74.1849L1076.89 77.0151ZM1100.89 57.6C1102.89 57.6 1105.52 57.9521 1107.46 58.7629C1108.41 59.16 1108.91 59.5507 1109.13 59.7987C1109.27 59.9541 1109.29 60.0209 1109.29 60.2H1119.29C1119.29 54.1958 1114.81 50.9954 1111.32 49.5371C1107.76 48.0479 1103.7 47.6 1100.89 47.6V57.6ZM1109.29 60.2C1109.29 61.2637 1108.97 61.7191 1108.86 61.8433C1108.77 61.9499 1108.68 62 1108.49 62V72C1114.97 72 1119.29 66.6177 1119.29 60.2H1109.29ZM1108.37 62.0016C1106.35 62.0519 1105.44 61.3476 1102.82 59.3799C1101.57 58.4377 1099.86 57.1901 1097.66 56.3101C1095.37 55.3955 1092.77 54.9543 1089.67 55.218L1090.52 65.182C1092.12 65.0457 1093.16 65.2795 1093.95 65.5962C1094.83 65.9474 1095.64 66.4873 1096.81 67.37C1099.05 69.0524 1102.63 72.1481 1108.62 71.9984L1108.37 62.0016ZM1089.67 55.2178C1084.27 55.6738 1080.23 58.7888 1077.35 62.5282C1074.51 66.2221 1072.5 70.885 1071.05 75.4687C1068.14 84.6607 1067.11 94.8369 1066.9 99.9961L1076.89 100.404C1077.08 95.7631 1078.04 86.5393 1080.58 78.4813C1081.86 74.44 1083.44 71.0154 1085.28 68.6281C1087.08 66.2862 1088.81 65.3262 1090.51 65.1822L1089.67 55.2178ZM1066.89 100.129C1066.79 107.148 1066.74 116.559 1067.07 124.849C1067.24 128.986 1067.5 132.937 1067.92 136.213C1068.12 137.849 1068.38 139.395 1068.7 140.752C1069.01 142.029 1069.45 143.482 1070.17 144.719L1078.81 139.681C1078.83 139.718 1078.66 139.396 1078.43 138.431C1078.22 137.546 1078.02 136.382 1077.84 134.95C1077.47 132.088 1077.22 128.464 1077.06 124.451C1076.74 116.441 1076.79 107.252 1076.89 100.271L1066.89 100.129ZM1070.23 144.82C1072.67 148.781 1076.57 151.074 1080.71 151.903L1082.67 142.097C1080.81 141.726 1079.51 140.819 1078.75 139.58L1070.23 144.82ZM1081.69 142H1043.29V152H1081.69V142ZM1044.21 151.914C1048.39 151.132 1052.84 148.879 1055.16 144.236L1046.22 139.764C1045.74 140.721 1044.6 141.668 1042.37 142.086L1044.21 151.914ZM1054.93 144.65C1055.88 143.133 1056.45 141.259 1056.84 139.569C1057.25 137.775 1057.57 135.712 1057.82 133.529C1058.31 129.159 1058.56 123.953 1058.69 118.772C1058.94 108.454 1058.69 97.6131 1058.69 93.2H1048.69C1048.69 97.9869 1048.94 108.346 1048.69 118.528C1048.57 123.597 1048.32 128.466 1047.88 132.408C1047.66 134.382 1047.39 136.034 1047.1 137.317C1046.95 137.955 1046.81 138.452 1046.67 138.822C1046.54 139.208 1046.45 139.355 1046.45 139.35L1054.93 144.65ZM1058.69 93.2C1058.69 90.0472 1058.74 83.0405 1058.36 76.1706C1058.17 72.7397 1057.86 69.2284 1057.36 66.178C1056.9 63.3665 1056.16 60.13 1054.68 57.8637L1046.31 63.3362C1046.31 63.3359 1046.31 63.3429 1046.32 63.3583C1046.33 63.3737 1046.34 63.3961 1046.36 63.4264C1046.39 63.4878 1046.43 63.5742 1046.48 63.6896C1046.58 63.924 1046.69 64.2392 1046.81 64.6461C1047.05 65.4679 1047.28 66.5231 1047.49 67.797C1047.91 70.3465 1048.19 73.4603 1048.37 76.7294C1048.74 83.2594 1048.69 89.9528 1048.69 93.2H1058.69ZM1054.82 58.0948C1051.63 52.5903 1045.46 49.6751 1040.4 48.5243L1038.18 58.2757C1041.92 59.1249 1044.95 61.0097 1046.16 63.1052L1054.82 58.0948ZM1166.62 147V142H1166.6L1166.59 142L1166.62 147ZM1168.02 89.4L1168.21 84.4034L1168.19 84.4026L1168.16 84.402L1168.02 89.4ZM1183.22 92.2L1181.85 97.0076L1188.22 98.8286V92.2H1183.22ZM1145.42 64.6L1149.58 67.3735L1149.79 67.0539L1149.96 66.7056L1145.42 64.6ZM1144.42 66.4L1140.26 63.6265L1139.78 64.3471L1139.57 65.1873L1144.42 66.4ZM1143.22 68.4L1139.69 64.8645L1139.25 65.2997L1138.93 65.8275L1143.22 68.4ZM1141.42 71.4L1137.52 68.2765L1137.34 68.5035L1137.18 68.75L1141.42 71.4ZM1192.82 59.6L1196.3 56.0088L1196.18 55.8893L1196.05 55.7785L1192.82 59.6ZM1201.42 82.8L1206.42 82.8278L1206.42 82.8139V82.8H1201.42ZM1201.22 118.8L1196.22 118.772L1196.22 118.786V118.8H1201.22ZM1203.62 142.2L1199.15 144.436L1199.27 144.677L1199.42 144.904L1203.62 142.2ZM1210.82 147V152L1211.87 142.111L1210.82 147ZM1179.62 142.8L1183.28 146.212L1184.62 144.771V142.8H1179.62ZM1180.02 142L1175.55 139.764L1175.55 139.764L1180.02 142ZM1182.82 117.4L1177.82 117.358L1177.82 117.379V117.4H1182.82ZM1183.02 93.4L1188.02 93.4417L1188.05 89.554L1184.29 88.5646L1183.02 93.4ZM1166.59 142C1151.69 142.098 1141.13 140.002 1134.45 136.086C1128.22 132.434 1125.02 127.027 1125.02 118.8H1115.02C1115.02 130.373 1119.93 139.166 1129.39 144.714C1138.41 149.998 1151.15 152.102 1166.65 152L1166.59 142ZM1125.02 118.8C1125.02 110.805 1128.87 104.795 1136.04 100.621C1143.44 96.3077 1154.41 94.0131 1167.88 94.398L1168.16 84.402C1153.63 83.9869 1140.6 86.3922 1131 91.9793C1121.17 97.7053 1115.02 106.795 1115.02 118.8H1125.02ZM1167.84 94.3966C1172.6 94.5731 1177.72 95.8284 1181.85 97.0076L1184.59 87.3924C1180.32 86.1716 1174.24 84.6269 1168.21 84.4034L1167.84 94.3966ZM1188.22 92.2V84.8H1178.22V92.2H1188.22ZM1188.22 84.8C1188.22 77.7044 1187.82 68.7841 1184.42 61.5505C1182.67 57.8163 1180.06 54.3897 1176.21 51.9287C1172.36 49.4671 1167.64 48.2 1162.02 48.2V58.2C1166.11 58.2 1168.88 59.1079 1170.82 60.3526C1172.77 61.5978 1174.25 63.4087 1175.37 65.7995C1177.72 70.8159 1178.22 77.6956 1178.22 84.8H1188.22ZM1162.02 48.2C1155.87 48.2 1151.2 49.9854 1147.65 52.9774C1144.24 55.8496 1142.27 59.5167 1140.89 62.4944L1149.96 66.7056C1151.17 64.0833 1152.4 62.0504 1154.09 60.6226C1155.65 59.3146 1157.97 58.2 1162.02 58.2V48.2ZM1141.26 61.8265C1140.86 62.4238 1140.58 62.9956 1140.45 63.2639C1140.37 63.4252 1140.33 63.5023 1140.29 63.5686C1140.26 63.6245 1140.25 63.6366 1140.26 63.6265L1148.58 69.1735C1148.98 68.5762 1149.26 68.0044 1149.39 67.7361C1149.47 67.5748 1149.51 67.4977 1149.55 67.4314C1149.58 67.3755 1149.59 67.3634 1149.58 67.3735L1141.26 61.8265ZM1139.57 65.1873C1139.58 65.1471 1139.6 65.0908 1139.63 65.0253C1139.65 64.9597 1139.68 64.9016 1139.71 64.8545C1139.77 64.7617 1139.79 64.7586 1139.69 64.8645L1146.76 71.9355C1147.81 70.8848 1148.79 69.5204 1149.27 67.6127L1139.57 65.1873ZM1138.93 65.8275C1138.58 66.4208 1138.16 67.2273 1138.02 67.4904C1137.8 67.8792 1137.66 68.0977 1137.52 68.2765L1145.33 74.5235C1145.98 73.7023 1146.44 72.9208 1146.78 72.3096C1147.18 71.5727 1147.26 71.3792 1147.51 70.9725L1138.93 65.8275ZM1137.18 68.75C1137.13 68.8379 1137.1 68.8575 1137.11 68.8462C1137.13 68.8311 1137.14 68.8232 1137.14 68.8279C1137.11 68.8383 1136.78 69 1135.82 69V79C1137.86 79 1139.83 78.6617 1141.61 77.7721C1143.44 76.8541 1144.75 75.5154 1145.66 74.05L1137.18 68.75ZM1135.82 69C1134.43 69 1134.38 68.6654 1134.64 68.9211C1134.75 69.0337 1134.77 69.1134 1134.74 69.0261C1134.7 68.9113 1134.62 68.5995 1134.62 68H1124.62C1124.62 70.7709 1125.32 73.7998 1127.65 76.0789C1129.97 78.3346 1133.01 79 1135.82 79V69ZM1134.62 68C1134.62 66.8052 1135.16 65.5286 1136.9 64.0601C1138.71 62.5303 1141.47 61.1407 1144.89 59.9886C1151.72 57.6895 1159.77 56.8 1164.02 56.8V46.8C1158.87 46.8 1149.72 47.8105 1141.7 50.5114C1137.7 51.8593 1133.62 53.7447 1130.45 56.4149C1127.21 59.1464 1124.62 62.9947 1124.62 68H1134.62ZM1164.02 56.8C1167.82 56.8 1173.03 57.3516 1178.01 58.5388C1183.13 59.7596 1187.31 61.4884 1189.6 63.4215L1196.05 55.7785C1191.94 52.3116 1185.91 50.1404 1180.33 48.8112C1174.61 47.4484 1168.62 46.8 1164.02 46.8V56.8ZM1189.34 63.1912C1194.43 68.1207 1196.42 74.9943 1196.42 82.8H1206.42C1206.42 73.4057 1204.01 63.4793 1196.3 56.0088L1189.34 63.1912ZM1196.42 82.7722L1196.22 118.772L1206.22 118.828L1206.42 82.8278L1196.42 82.7722ZM1196.22 118.8C1196.22 122.033 1196.27 126.927 1196.61 131.61C1196.78 133.95 1197.02 136.316 1197.39 138.438C1197.74 140.462 1198.26 142.663 1199.15 144.436L1208.09 139.964C1207.88 139.537 1207.55 138.513 1207.25 136.737C1206.96 135.059 1206.74 133.05 1206.58 130.89C1206.27 126.573 1206.22 121.967 1206.22 118.8H1196.22ZM1199.42 144.904C1202.09 149.061 1205.98 151.075 1209.77 151.889L1211.87 142.111C1210.07 141.725 1208.75 140.939 1207.83 139.496L1199.42 144.904ZM1210.82 142H1166.62V152H1210.82V142ZM1167.62 86C1153.9 86 1144.71 89.8919 1139.15 96.7158C1133.75 103.337 1132.62 111.717 1132.62 118.8H1142.62C1142.62 112.483 1143.69 106.963 1146.9 103.034C1149.93 99.3081 1155.75 96 1167.62 96V86ZM1132.62 118.8C1132.62 125.742 1133.5 133.983 1138.7 140.455C1144.08 147.155 1153.08 150.8 1166.62 150.8V140.8C1154.76 140.8 1149.27 137.645 1146.49 134.195C1143.54 130.517 1142.62 125.258 1142.62 118.8H1132.62ZM1166.62 150.8C1168.66 150.8 1171.6 150.81 1174.43 150.364C1177.14 149.936 1180.72 148.955 1183.28 146.212L1175.97 139.388C1175.73 139.645 1174.91 140.164 1172.87 140.486C1170.94 140.79 1168.79 140.8 1166.62 140.8V150.8ZM1184.62 142.8C1184.62 143.6 1184.42 144.214 1184.28 144.551C1184.21 144.72 1184.14 144.848 1184.11 144.921C1184.07 144.993 1184.04 145.042 1184.03 145.047C1184.03 145.051 1184.03 145.049 1184.06 145.005C1184.08 144.97 1184.12 144.908 1184.16 144.838C1184.25 144.691 1184.37 144.486 1184.49 144.236L1175.55 139.764C1175.56 139.735 1175.67 139.558 1175.46 139.903C1175.39 140.011 1175.2 140.33 1175.03 140.743C1174.85 141.186 1174.62 141.9 1174.62 142.8H1184.62ZM1184.49 144.236C1186.17 140.875 1186.91 135.718 1187.3 131.183C1187.72 126.377 1187.82 121.265 1187.82 117.4H1177.82C1177.82 121.135 1177.72 125.923 1177.34 130.317C1176.93 134.982 1176.27 138.325 1175.55 139.764L1184.49 144.236ZM1187.82 117.442L1188.02 93.4417L1178.02 93.3583L1177.82 117.358L1187.82 117.442ZM1184.29 88.5646C1180.5 87.5663 1174.74 86 1167.62 86V96C1173.31 96 1177.94 97.2337 1181.75 98.2354L1184.29 88.5646ZM1226.82 60.6L1231.43 58.6693L1231.22 58.1732L1230.91 57.7327L1226.82 60.6ZM1215.42 53.4L1214.95 48.4215L1214.4 58.2949L1215.42 53.4ZM1248.22 51.8H1253.22V46.8H1248.22V51.8ZM1248.22 66.6H1243.22V80.0247L1252 69.8708L1248.22 66.6ZM1308.42 67.2L1303.96 69.4696L1307.44 76.3035L1312.29 70.3606L1308.42 67.2ZM1378.22 142.2L1373.78 144.513L1373.87 144.67L1373.96 144.82L1378.22 142.2ZM1384.82 147V152L1386.29 142.221L1384.82 147ZM1347.62 147L1346.24 142.192L1347.62 152V147ZM1354.42 142L1358.89 144.236L1358.93 144.16L1358.96 144.083L1354.42 142ZM1356.82 113.2H1361.82V113.179L1361.82 113.158L1356.82 113.2ZM1356.62 89.6H1351.62V89.6212L1351.62 89.6424L1356.62 89.6ZM1309.42 69.4L1305.43 66.3828L1303.7 68.666L1304.8 71.3118L1309.42 69.4ZM1315.82 142.2L1320.36 140.105L1320.31 139.995L1320.25 139.887L1315.82 142.2ZM1322.22 147V152L1323.69 142.221L1322.22 147ZM1285.22 147L1283.75 142.221L1285.22 152V147ZM1291.82 142L1296.16 144.481L1296.23 144.36L1296.29 144.236L1291.82 142ZM1294.82 113.2H1299.82V113.167L1299.82 113.133L1294.82 113.2ZM1248.22 70.2L1244.09 67.3766L1243.22 68.6532V70.2H1248.22ZM1250.42 142.2L1245.91 144.357L1246.04 144.64L1246.21 144.904L1250.42 142.2ZM1258.02 147V152L1259 142.097L1258.02 147ZM1219.42 147L1218.44 142.097L1219.42 152V147ZM1227.02 142L1231.3 144.572L1231.44 144.346L1231.55 144.106L1227.02 142ZM1230.91 57.7327C1227.27 52.5264 1222.27 49.7209 1216.44 48.5051L1214.4 58.2949C1218.16 59.079 1220.76 60.6736 1222.72 63.4673L1230.91 57.7327ZM1215.88 58.3785C1224.35 57.5901 1238.8 56.8 1248.22 56.8V46.8C1238.43 46.8 1223.68 47.6099 1214.95 48.4215L1215.88 58.3785ZM1243.22 51.8V66.6H1253.22V51.8H1243.22ZM1252 69.8708C1254.81 66.6187 1258.95 63.1378 1263.7 60.4928C1268.47 57.8376 1273.52 56.2 1278.22 56.2V46.2C1271.31 46.2 1264.57 48.5624 1258.83 51.7572C1253.08 54.9622 1248.02 59.1813 1244.43 63.3292L1252 69.8708ZM1278.22 56.2C1291.63 56.2 1299.62 60.9463 1303.96 69.4696L1312.87 64.9304C1306.41 52.2536 1294.4 46.2 1278.22 46.2V56.2ZM1312.29 70.3606C1314.98 67.0669 1319.14 63.458 1323.99 60.6937C1328.86 57.9191 1334.05 56.2 1338.82 56.2V46.2C1331.78 46.2 1324.87 48.6809 1319.04 52.0063C1313.19 55.342 1308.06 59.7331 1304.54 64.0394L1312.29 70.3606ZM1338.82 56.2C1349.08 56.2 1356.92 60.0104 1362.23 65.803C1367.59 71.6538 1370.62 79.8049 1370.62 88.8H1380.62C1380.62 77.5951 1376.84 66.9462 1369.6 59.047C1362.31 51.0896 1351.75 46.2 1338.82 46.2V56.2ZM1370.62 88.8V115H1380.62V88.8H1370.62ZM1370.62 115C1370.62 118.036 1370.67 123.811 1371.03 129.444C1371.21 132.255 1371.47 135.114 1371.86 137.619C1372.22 139.952 1372.77 142.572 1373.78 144.513L1382.65 139.887C1382.46 139.528 1382.09 138.348 1381.74 136.087C1381.41 133.998 1381.18 131.47 1381.01 128.806C1380.67 123.489 1380.62 117.964 1380.62 115H1370.62ZM1373.96 144.82C1376.39 148.767 1379.99 150.747 1383.35 151.779L1386.29 142.221C1384.44 141.653 1383.25 140.833 1382.47 139.58L1373.96 144.82ZM1384.82 142H1347.62V152H1384.82V142ZM1348.99 151.808C1352.4 150.833 1356.59 148.841 1358.89 144.236L1349.94 139.764C1349.45 140.759 1348.43 141.567 1346.24 142.192L1348.99 151.808ZM1358.96 144.083C1359.85 142.14 1360.35 139.463 1360.67 137.013C1361.03 134.391 1361.27 131.379 1361.43 128.404C1361.77 122.442 1361.82 116.336 1361.82 113.2H1351.82C1351.82 116.264 1351.77 122.158 1351.45 127.846C1351.29 130.696 1351.07 133.421 1350.76 135.681C1350.44 138.112 1350.08 139.46 1349.87 139.917L1358.96 144.083ZM1361.82 113.158L1361.62 89.5576L1351.62 89.6424L1351.82 113.242L1361.82 113.158ZM1361.62 89.6C1361.62 83.7601 1361.82 74.1322 1359.23 66.0083C1357.91 61.8531 1355.75 57.694 1352.12 54.5664C1348.4 51.3617 1343.56 49.6 1337.62 49.6V59.6C1341.47 59.6 1343.91 60.6883 1345.59 62.1398C1347.36 63.6685 1348.72 65.9719 1349.7 69.0417C1351.72 75.3678 1351.62 83.2399 1351.62 89.6H1361.62ZM1337.62 49.6C1331.04 49.6 1324.55 51.7919 1319.06 54.8584C1313.56 57.9265 1308.7 62.0622 1305.43 66.3828L1313.4 72.4172C1315.73 69.3378 1319.48 66.0735 1323.93 63.5916C1328.38 61.1081 1333.19 59.6 1337.62 59.6V49.6ZM1304.8 71.3118C1306.88 76.3382 1308.02 82.6466 1308.02 90.8H1318.02C1318.02 81.7534 1316.76 74.0618 1314.04 67.4882L1304.8 71.3118ZM1308.02 90.8V115H1318.02V90.8H1308.02ZM1308.02 115C1308.02 118.077 1308.12 123.856 1308.53 129.489C1308.74 132.302 1309.02 135.158 1309.43 137.659C1309.81 139.992 1310.38 142.592 1311.38 144.513L1320.25 139.887C1320.05 139.508 1319.67 138.308 1319.3 136.047C1318.96 133.955 1318.7 131.423 1318.5 128.761C1318.11 123.444 1318.02 117.923 1318.02 115H1308.02ZM1311.28 144.295C1313.38 148.849 1317.69 150.84 1320.75 151.779L1323.69 142.221C1321.54 141.56 1320.65 140.751 1320.36 140.105L1311.28 144.295ZM1322.22 142H1285.22V152H1322.22V142ZM1286.69 151.779C1290.08 150.734 1293.74 148.712 1296.16 144.481L1287.48 139.519C1286.69 140.888 1285.55 141.666 1283.75 142.221L1286.69 151.779ZM1296.29 144.236C1297.26 142.29 1297.84 139.603 1298.23 137.143C1298.66 134.513 1298.97 131.493 1299.2 128.51C1299.66 122.54 1299.82 116.41 1299.82 113.2H1289.82C1289.82 116.19 1289.67 122.06 1289.23 127.74C1289.01 130.582 1288.72 133.299 1288.36 135.551C1287.97 137.972 1287.57 139.31 1287.34 139.764L1296.29 144.236ZM1299.82 113.133C1299.72 106.217 1300.62 90.7717 1298.85 77.6059C1297.95 70.9848 1296.32 64.2523 1293.15 59.049C1289.84 53.5988 1284.65 49.6 1277.22 49.6V59.6C1280.38 59.6 1282.67 61.0512 1284.61 64.2447C1286.7 67.6852 1288.11 72.7902 1288.94 78.9441C1290.61 91.3283 1289.71 105.183 1289.82 113.267L1299.82 113.133ZM1277.22 49.6C1270.32 49.6 1263.51 51.9565 1257.83 55.2114C1252.16 58.4605 1247.19 62.8396 1244.09 67.3766L1252.34 73.0234C1254.44 69.9603 1258.17 66.5395 1262.8 63.8886C1267.42 61.2435 1272.51 59.6 1277.22 59.6V49.6ZM1243.22 70.2V117.2H1253.22V70.2H1243.22ZM1243.22 117.2C1243.22 120.09 1243.22 125.32 1243.5 130.427C1243.64 132.978 1243.86 135.581 1244.2 137.895C1244.52 140.079 1245.01 142.488 1245.91 144.357L1254.93 140.043C1254.72 139.612 1254.39 138.471 1254.09 136.442C1253.81 134.544 1253.62 132.272 1253.48 129.873C1253.22 125.08 1253.22 120.11 1253.22 117.2H1243.22ZM1246.21 144.904C1248.96 149.187 1253.17 151.13 1257.04 151.903L1259 142.097C1256.86 141.67 1255.47 140.813 1254.62 139.496L1246.21 144.904ZM1258.02 142H1219.42V152H1258.02V142ZM1220.4 151.903C1224.3 151.122 1228.56 149.142 1231.3 144.572L1222.73 139.428C1221.87 140.858 1220.53 141.678 1218.44 142.097L1220.4 151.903ZM1231.55 144.106C1232.5 142.062 1233.07 139.507 1233.46 137.064C1233.86 134.532 1234.11 131.728 1234.28 128.98C1234.62 123.482 1234.62 117.888 1234.62 114.6H1224.62C1224.62 117.912 1224.62 123.218 1224.3 128.37C1224.14 130.947 1223.91 133.405 1223.58 135.505C1223.24 137.693 1222.83 139.138 1222.48 139.894L1231.55 144.106ZM1234.62 114.6C1234.62 101.538 1234.82 90.0016 1234.56 80.7881C1234.32 71.7617 1233.64 63.9513 1231.43 58.6693L1222.2 62.5307C1223.59 65.8487 1224.32 71.8383 1224.57 81.0619C1224.82 90.0984 1224.62 101.262 1224.62 114.6H1234.62ZM1487.68 99.4V104.4H1492.79L1492.68 99.2929L1487.68 99.4ZM1413.48 99.4V94.4H1408.48V99.4H1413.48ZM1484.28 124.2V119.2H1481.47L1480.01 121.608L1484.28 124.2ZM1485.68 124.2L1490.27 126.177L1493.28 119.2H1485.68V124.2ZM1413.68 97.4L1408.71 96.8833L1408.14 102.4H1413.68V97.4ZM1468.08 97.4V102.4H1473.29L1473.08 97.2002L1468.08 97.4ZM1397.88 101.6C1397.88 87.9277 1402.1 76.7938 1409.38 69.1163C1416.64 61.4726 1427.35 56.8 1441.28 56.8V46.8C1425.01 46.8 1411.53 52.3274 1402.13 62.2337C1392.76 72.1062 1387.88 85.8723 1387.88 101.6H1397.88ZM1441.28 56.8C1454.17 56.8 1464.26 61.2446 1471.21 68.5483C1478.2 75.8912 1482.4 86.5231 1482.68 99.5071L1492.68 99.2929C1492.36 84.2769 1487.46 71.1088 1478.45 61.6517C1469.41 52.1554 1456.6 46.8 1441.28 46.8V56.8ZM1487.68 94.4H1413.48V104.4H1487.68V94.4ZM1408.48 99.4C1408.48 111.062 1409.44 123.915 1414.77 133.945C1417.49 139.08 1421.39 143.531 1426.86 146.66C1432.31 149.774 1439.01 151.4 1447.08 151.4V141.4C1440.35 141.4 1435.45 140.051 1431.83 137.978C1428.22 135.919 1425.57 132.97 1423.6 129.255C1419.52 121.585 1418.48 110.938 1418.48 99.4H1408.48ZM1447.08 151.4C1462.37 151.4 1479.73 141.36 1488.56 126.792L1480.01 121.608C1472.84 133.44 1458.59 141.4 1447.08 141.4V151.4ZM1484.28 129.2H1485.68V119.2H1484.28V129.2ZM1481.09 122.223C1475.3 135.672 1458.52 144 1443.88 144V154C1461.25 154 1482.46 144.328 1490.27 126.177L1481.09 122.223ZM1443.88 144C1430.19 144 1418.7 139.815 1410.7 132.61C1402.76 125.457 1397.88 114.998 1397.88 101.6H1387.88C1387.88 117.602 1393.8 130.843 1404.01 140.04C1414.16 149.185 1428.18 154 1443.88 154V144ZM1442.28 48.8C1428.63 48.8 1420.52 57.846 1415.88 67.6954C1411.28 77.4657 1409.52 89.0644 1408.71 96.8833L1418.66 97.9167C1419.44 90.3356 1421.08 80.1343 1424.93 71.9546C1428.74 63.854 1434.13 58.8 1442.28 58.8V48.8ZM1413.68 102.4H1468.08V92.4H1413.68V102.4ZM1473.08 97.2002C1472.78 89.7221 1472.08 78.0545 1468.24 68.1671C1466.31 63.1702 1463.45 58.3126 1459.16 54.6842C1454.77 50.9764 1449.17 48.8 1442.28 48.8V58.8C1446.9 58.8 1450.19 60.1986 1452.7 62.322C1455.31 64.5248 1457.36 67.7548 1458.92 71.7829C1462.09 79.9455 1462.79 90.0779 1463.09 97.5998L1473.08 97.2002ZM1484.78 54V49L1483.42 58.8106L1484.78 54ZM1524.58 54L1525.98 58.8L1524.58 49V54ZM1545.58 140L1540.87 141.689L1545.84 155.527L1550.34 141.53L1545.58 140ZM1568.98 78.8L1573.71 80.4104L1574.28 78.7533L1573.68 77.1064L1568.98 78.8ZM1550.78 54V49L1549.43 58.8139L1550.78 54ZM1590.78 54L1592.13 58.8148L1590.78 49V54ZM1611.98 140L1607.31 141.795L1612.55 155.422L1616.77 141.443L1611.98 140ZM1639.18 64.8L1644.14 65.4202L1644.14 65.4127L1644.14 65.4053L1639.18 64.8ZM1624.38 54L1624.41 49.0001L1622.9 58.7753L1624.38 54ZM1655.58 54.2L1657.31 58.89L1655.61 49.2001L1655.58 54.2ZM1632.78 93L1628.12 91.1731L1628.12 91.1965L1628.11 91.22L1632.78 93ZM1611.98 147.6V152.6H1615.42L1616.65 149.38L1611.98 147.6ZM1596.98 147.6L1592.35 149.482L1593.61 152.6H1596.98V147.6ZM1570.58 82.6L1575.21 80.7185L1570.39 68.8554L1565.9 80.8444L1570.58 82.6ZM1566.58 93L1561.92 91.1878L1561.92 91.1964L1561.91 91.2051L1566.58 93ZM1545.58 147.6V152.6H1549.01L1550.25 149.395L1545.58 147.6ZM1530.98 147.6L1526.35 149.479L1527.61 152.6H1530.98V147.6ZM1503.98 81L1499.32 82.8254L1499.33 82.852L1499.35 82.8785L1503.98 81ZM1484.78 59H1524.58V49H1484.78V59ZM1523.18 49.2C1519.79 50.1897 1517.02 52.0947 1515.18 54.9337C1513.4 57.6852 1512.78 60.8723 1512.78 64H1522.78C1522.78 62.1277 1523.16 61.0148 1523.58 60.3662C1523.94 59.8053 1524.57 59.2103 1525.98 58.8L1523.18 49.2ZM1512.78 64C1512.78 68.803 1514.61 75.7241 1516.98 82.9239C1519.42 90.336 1522.69 98.7431 1526 106.824C1529.33 114.917 1532.73 122.754 1535.47 129.028C1538.27 135.436 1540.25 139.946 1540.87 141.689L1550.28 138.311C1549.51 136.154 1547.31 131.164 1544.64 125.028C1541.9 118.758 1538.53 111.008 1535.25 103.026C1531.97 95.0319 1528.81 86.8765 1526.48 79.7948C1524.07 72.5009 1522.78 66.997 1522.78 64H1512.78ZM1550.34 141.53C1552.07 136.141 1556.18 125.917 1560.8 114.327C1565.36 102.881 1570.36 90.2554 1573.71 80.4104L1564.25 77.1896C1560.99 86.7446 1556.1 99.1194 1551.51 110.623C1546.98 121.983 1542.69 132.659 1540.82 138.47L1550.34 141.53ZM1573.68 77.1064C1571.99 72.4129 1570.09 66.3843 1567.11 61.3159C1564 56.0254 1559.44 51.2369 1552.13 49.1861L1549.43 58.8139C1553.52 59.9631 1556.25 62.5746 1558.49 66.3841C1560.86 70.4157 1562.36 75.1871 1564.27 80.4936L1573.68 77.1064ZM1550.78 59H1590.78V49H1550.78V59ZM1589.43 49.1852C1585.94 50.1638 1583.12 52.0717 1581.28 54.9777C1579.52 57.7626 1578.98 60.9605 1578.98 64H1588.98C1588.98 62.0395 1589.34 60.9373 1589.73 60.3223C1590.04 59.8283 1590.62 59.2362 1592.13 58.8148L1589.43 49.1852ZM1578.98 64C1578.98 68.8036 1580.81 75.7246 1583.18 82.9258C1585.63 90.339 1588.9 98.7471 1592.23 106.83C1595.57 114.926 1598.99 122.765 1601.76 129.045C1604.58 135.437 1606.62 139.994 1607.31 141.795L1616.65 138.205C1615.84 136.106 1613.63 131.163 1610.91 125.011C1608.15 118.748 1604.77 110.999 1601.48 103.02C1598.18 95.0279 1595.02 86.8735 1592.68 79.793C1590.27 72.5004 1588.98 66.9964 1588.98 64H1578.98ZM1616.77 141.443C1618.89 134.405 1625.14 119.156 1631.28 103.556C1634.31 95.8592 1637.28 88.1543 1639.59 81.5505C1641.85 75.107 1643.66 69.2309 1644.14 65.4202L1634.22 64.1798C1633.89 66.7691 1632.46 71.668 1630.15 78.2432C1627.91 84.6581 1625 92.2158 1621.98 99.8942C1616.01 115.044 1609.47 130.995 1607.19 138.557L1616.77 141.443ZM1644.14 65.4053C1644.53 62.2506 1643.86 59.3917 1642.19 57.0212C1640.61 54.7847 1638.42 53.3919 1636.45 52.4709C1634.47 51.5461 1632.35 50.9296 1630.55 50.4577C1628.56 49.9353 1627.18 49.6338 1625.86 49.2247L1622.9 58.7753C1624.48 59.2662 1626.52 59.7397 1628.01 60.1298C1629.69 60.5704 1631.09 61.0039 1632.21 61.529C1633.34 62.0581 1633.83 62.5153 1634.02 62.7913C1634.12 62.9333 1634.33 63.2494 1634.22 64.1947L1644.14 65.4053ZM1624.35 58.9999L1655.55 59.1999L1655.61 49.2001L1624.41 49.0001L1624.35 58.9999ZM1653.85 49.51C1647.42 51.8845 1643.08 57.6901 1639.46 64.5075C1635.79 71.424 1632.27 80.6126 1628.12 91.1731L1637.43 94.8269C1641.69 83.9874 1644.96 75.476 1648.3 69.1925C1651.68 62.8099 1654.54 59.9155 1657.31 58.89L1653.85 49.51ZM1628.11 91.22L1607.31 145.82L1616.65 149.38L1637.45 94.78L1628.11 91.22ZM1611.98 142.6H1596.98V152.6H1611.98V142.6ZM1601.61 145.718L1575.21 80.7185L1565.95 84.4815L1592.35 149.482L1601.61 145.718ZM1565.9 80.8444C1564.71 84.0105 1563.32 87.5805 1561.92 91.1878L1571.24 94.8122C1572.64 91.2195 1574.05 87.5895 1575.26 84.3556L1565.9 80.8444ZM1561.91 91.2051L1540.91 145.805L1550.25 149.395L1571.25 94.7949L1561.91 91.2051ZM1545.58 142.6H1530.98V152.6H1545.58V142.6ZM1535.61 145.721L1508.61 79.1215L1499.35 82.8785L1526.35 149.479L1535.61 145.721ZM1508.63 79.1746C1506.84 74.5918 1504.76 67.9594 1501.75 62.5255C1498.59 56.8305 1493.9 51.3873 1486.14 49.1894L1483.42 58.8106C1487.66 60.0127 1490.56 62.9695 1493.01 67.3745C1495.59 72.0406 1497.12 77.2082 1499.32 82.8254L1508.63 79.1746ZM1699.6 144C1686.71 144 1676.26 139.502 1669.02 132.023C1661.77 124.529 1657.4 113.685 1657.4 100.4H1647.4C1647.4 115.915 1652.54 129.371 1661.83 138.977C1671.14 148.598 1684.29 154 1699.6 154V144ZM1657.4 100.4C1657.4 87.405 1661.67 76.531 1668.8 68.9479C1675.89 61.3928 1686.09 56.8 1698.6 56.8V46.8C1683.51 46.8 1670.61 52.4072 1661.51 62.1021C1652.43 71.769 1647.4 85.195 1647.4 100.4H1657.4ZM1698.6 56.8C1711.4 56.8 1721.91 61.255 1729.22 68.7434C1736.54 76.2395 1741 87.1279 1741 100.6H1751C1751 84.8721 1745.76 71.3605 1736.38 61.7565C1726.99 52.145 1713.8 46.8 1698.6 46.8V56.8ZM1741 100.6C1741 113.929 1736.76 124.724 1729.68 132.151C1722.63 139.554 1712.39 144 1699.6 144V154C1714.81 154 1727.78 148.646 1736.92 139.049C1746.04 129.476 1751 116.071 1751 100.6H1741ZM1698.8 48.4C1691.3 48.4 1685.26 50.8013 1680.59 54.8603C1676.01 58.8337 1673.04 64.1415 1671.07 69.573C1667.18 80.3386 1666.8 92.8598 1666.8 100.4H1676.8C1676.8 92.9402 1677.22 81.9614 1680.48 72.977C1682.09 68.5335 1684.27 64.9038 1687.15 62.4084C1689.92 59.9987 1693.6 58.4 1698.8 58.4V48.4ZM1666.8 100.4C1666.8 108.216 1667.39 120.741 1671.51 131.468C1673.59 136.879 1676.68 142.127 1681.32 146.044C1686.05 150.037 1692.12 152.4 1699.6 152.4V142.4C1694.38 142.4 1690.63 140.813 1687.77 138.4C1684.81 135.91 1682.54 132.296 1680.84 127.882C1677.41 118.959 1676.8 107.984 1676.8 100.4H1666.8ZM1699.6 152.4C1707.05 152.4 1713.06 150.028 1717.72 146.012C1722.28 142.079 1725.26 136.82 1727.24 131.424C1731.17 120.73 1731.6 108.257 1731.6 100.6H1721.6C1721.6 108.143 1721.13 119.07 1717.86 127.976C1716.24 132.38 1714.05 135.971 1711.19 138.438C1708.42 140.822 1704.76 142.4 1699.6 142.4V152.4ZM1731.6 100.6C1731.6 92.7622 1730.96 80.1974 1726.82 69.4293C1724.73 64.0016 1721.64 58.7345 1717.02 54.8009C1712.3 50.7878 1706.25 48.4 1698.8 48.4V58.4C1703.95 58.4 1707.68 59.9872 1710.54 62.4178C1713.49 64.928 1715.77 68.5734 1717.48 73.0207C1720.94 82.0026 1721.6 93.0378 1721.6 100.6H1731.6ZM1750.62 53.4L1750.17 48.4205L1749.51 58.2757L1750.62 53.4ZM1783.22 51.8H1788.22V46.8H1783.22V51.8ZM1783.42 75.6L1778.42 75.7282L1788.22 77.0151L1783.42 75.6ZM1819.82 67V62H1819.76L1819.69 62.0016L1819.82 67ZM1801.42 60.2L1801.84 65.1822L1801.84 65.182L1801.42 60.2ZM1783.22 100.2L1778.22 99.9961L1778.22 100.062L1778.22 100.129L1783.22 100.2ZM1785.82 142.2L1781.5 144.719L1781.53 144.77L1781.56 144.82L1785.82 142.2ZM1793.02 147V152L1794 142.097L1793.02 147ZM1754.62 147L1753.7 142.086L1754.62 152V147ZM1762.02 142L1757.78 139.35L1757.65 139.551L1757.55 139.764L1762.02 142ZM1761.82 60.6L1757.49 63.1052L1757.56 63.2226L1757.63 63.3362L1761.82 60.6ZM1751.07 58.3795C1761.96 57.3897 1772.6 56.8 1783.22 56.8V46.8C1772.23 46.8 1761.28 47.4102 1750.17 48.4205L1751.07 58.3795ZM1778.22 51.8C1778.22 59.7881 1778.22 67.853 1778.42 75.7282L1788.42 75.4718C1788.22 67.747 1788.22 59.8119 1788.22 51.8H1778.22ZM1788.22 77.0151C1791.32 66.5087 1801.46 57.6 1812.22 57.6V47.6C1796.18 47.6 1782.72 60.2913 1778.62 74.1849L1788.22 77.0151ZM1812.22 57.6C1814.22 57.6 1816.85 57.9521 1818.79 58.7629C1819.74 59.16 1820.24 59.5507 1820.46 59.7987C1820.6 59.9541 1820.62 60.0209 1820.62 60.2H1830.62C1830.62 54.1958 1826.14 50.9954 1822.65 49.5371C1819.09 48.0479 1815.02 47.6 1812.22 47.6V57.6ZM1820.62 60.2C1820.62 61.2637 1820.3 61.7191 1820.19 61.8433C1820.1 61.9499 1820.01 62 1819.82 62V72C1826.29 72 1830.62 66.6177 1830.62 60.2H1820.62ZM1819.69 62.0016C1817.68 62.0519 1816.77 61.3476 1814.15 59.3799C1812.9 58.4377 1811.19 57.1901 1808.99 56.3101C1806.7 55.3955 1804.09 54.9543 1801 55.218L1801.84 65.182C1803.45 65.0457 1804.49 65.2795 1805.28 65.5962C1806.16 65.9474 1806.97 66.4873 1808.14 67.37C1810.37 69.0524 1813.96 72.1481 1819.94 71.9984L1819.69 62.0016ZM1801 55.2178C1795.6 55.6738 1791.56 58.7888 1788.68 62.5282C1785.84 66.2221 1783.83 70.885 1782.38 75.4687C1779.47 84.6607 1778.43 94.8369 1778.22 99.9961L1788.22 100.404C1788.4 95.7631 1789.37 86.5393 1791.91 78.4813C1793.19 74.44 1794.77 71.0154 1796.6 68.6281C1798.41 66.2862 1800.14 65.3262 1801.84 65.1822L1801 55.2178ZM1778.22 100.129C1778.12 107.148 1778.07 116.559 1778.4 124.849C1778.56 128.986 1778.83 132.937 1779.24 136.213C1779.45 137.849 1779.71 139.395 1780.03 140.752C1780.34 142.029 1780.78 143.482 1781.5 144.719L1790.14 139.681C1790.16 139.718 1789.99 139.396 1789.76 138.431C1789.55 137.546 1789.35 136.382 1789.16 134.95C1788.8 132.088 1788.55 128.464 1788.39 124.451C1788.07 116.441 1788.12 107.252 1788.22 100.271L1778.22 100.129ZM1781.56 144.82C1784 148.781 1787.9 151.074 1792.04 151.903L1794 142.097C1792.14 141.726 1790.84 140.819 1790.08 139.58L1781.56 144.82ZM1793.02 142H1754.62V152H1793.02V142ZM1755.54 151.914C1759.71 151.132 1764.17 148.879 1766.49 144.236L1757.55 139.764C1757.07 140.721 1755.92 141.668 1753.7 142.086L1755.54 151.914ZM1766.26 144.65C1767.21 143.133 1767.78 141.259 1768.17 139.569C1768.58 137.775 1768.9 135.712 1769.14 133.529C1769.64 129.159 1769.89 123.953 1770.02 118.772C1770.27 108.454 1770.02 97.6131 1770.02 93.2H1760.02C1760.02 97.9869 1760.27 108.346 1760.02 118.528C1759.9 123.597 1759.65 128.466 1759.21 132.408C1758.98 134.382 1758.72 136.034 1758.43 137.317C1758.28 137.955 1758.13 138.452 1758 138.822C1757.86 139.208 1757.78 139.355 1757.78 139.35L1766.26 144.65ZM1770.02 93.2C1770.02 90.0472 1770.07 83.0405 1769.69 76.1706C1769.49 72.7397 1769.19 69.2284 1768.69 66.178C1768.23 63.3665 1767.49 60.13 1766 57.8637L1757.63 63.3362C1757.63 63.3359 1757.64 63.3429 1757.65 63.3583C1757.66 63.3737 1757.67 63.3961 1757.68 63.4264C1757.72 63.4878 1757.76 63.5742 1757.81 63.6896C1757.9 63.924 1758.02 64.2392 1758.14 64.6461C1758.38 65.4679 1758.61 66.5231 1758.82 67.797C1759.24 70.3465 1759.52 73.4603 1759.7 76.7294C1760.07 83.2594 1760.02 89.9528 1760.02 93.2H1770.02ZM1766.15 58.0948C1762.96 52.5903 1756.79 49.6751 1751.73 48.5243L1749.51 58.2757C1753.25 59.1249 1756.28 61.0097 1757.49 63.1052L1766.15 58.0948ZM1830.26 2.19999L1829.7 -2.76803L1829.96 7.19111L1830.26 2.19999ZM1862.86 0.599989H1867.86V-4.40001H1862.86V0.599989ZM1862.86 101.4H1857.86V108.704L1864.67 106.061L1862.86 101.4ZM1900.86 54V49H1883.69L1898.18 58.2183L1900.86 54ZM1932.06 54L1933.34 58.8335L1932.06 49V54ZM1888.66 88.8L1885.71 84.7641L1885.68 84.7819L1885.66 84.8L1888.66 88.8ZM1875.46 97.6L1872.92 93.2954L1875.77 102.591L1875.46 97.6ZM1937.06 147V152L1938.16 142.121L1937.06 147ZM1895.86 120.2L1891.51 122.67L1891.54 122.714L1891.56 122.757L1895.86 120.2ZM1873.66 98.6V93.6L1872.45 103.451L1873.66 98.6ZM1874.26 98.2L1877.8 101.736L1871.8 93.8472L1874.26 98.2ZM1862.86 104L1861.18 99.2913L1857.86 100.476V104H1862.86ZM1865.46 142L1860.99 144.236L1861.05 144.36L1861.12 144.481L1865.46 142ZM1872.86 147V152L1874.15 142.169L1872.86 147ZM1833.86 147L1832.68 142.141L1833.86 152V147ZM1849.66 24.8C1849.66 19.4901 1849.47 12.988 1847.03 7.66672C1845.75 4.86973 1843.81 2.29512 1840.93 0.383677C1838.06 -1.51579 1834.59 -2.5504 1830.56 -2.79112L1829.96 7.19111C1832.63 7.35039 1834.31 7.99078 1835.4 8.71631C1836.47 9.42987 1837.3 10.4303 1837.94 11.8333C1839.35 14.912 1839.66 19.3099 1839.66 24.8H1849.66ZM1830.82 7.16802C1839.38 6.19631 1853.97 5.59999 1862.86 5.59999V-4.40001C1853.75 -4.40001 1838.74 -3.79633 1829.7 -2.76803L1830.82 7.16802ZM1857.86 0.599989V101.4H1867.86V0.599989H1857.86ZM1864.67 106.061C1872.23 103.128 1883.07 95.4389 1891.89 87.2356C1896.36 83.0812 1900.5 78.6081 1903.58 74.2913C1906.5 70.191 1909.06 65.4053 1909.06 60.8H1899.06C1899.06 62.0947 1898.15 64.684 1895.43 68.4899C1892.88 72.0793 1889.24 76.0438 1885.08 79.9144C1876.65 87.7611 1866.89 94.4723 1861.05 96.7387L1864.67 106.061ZM1909.06 60.8C1909.06 57.2268 1907.71 52.4351 1903.54 49.7817L1898.18 58.2183C1898.27 58.2793 1898.49 58.4653 1898.7 58.9541C1898.92 59.4518 1899.06 60.1087 1899.06 60.8H1909.06ZM1900.86 59H1932.06V49H1900.86V59ZM1930.78 49.1665C1926.51 50.2957 1922.36 52.7146 1918.48 55.5367C1914.57 58.3879 1910.64 61.8759 1906.86 65.4315C1899.05 72.7712 1892.08 80.1059 1885.71 84.7641L1891.61 92.8359C1898.64 87.6941 1906.57 79.4288 1913.71 72.7185C1917.4 69.2491 1920.97 66.0996 1924.37 63.6196C1927.81 61.1103 1930.81 59.5043 1933.34 58.8335L1930.78 49.1665ZM1885.66 84.8C1881.81 87.6878 1877.16 90.7864 1872.92 93.2954L1878 101.905C1882.56 99.2136 1887.51 95.9122 1891.66 92.8L1885.66 84.8ZM1875.77 102.591C1887.2 101.888 1894.11 104.074 1898.7 107.241C1903.37 110.46 1906.32 115.141 1909.01 120.837C1910.4 123.777 1911.54 126.553 1912.95 129.719C1914.3 132.74 1915.81 135.874 1917.69 138.787C1921.57 144.784 1927.04 149.876 1935.96 151.879L1938.16 142.121C1932.38 140.824 1928.91 137.716 1926.1 133.363C1924.64 131.101 1923.37 128.523 1922.08 125.637C1920.86 122.897 1919.48 119.573 1918.06 116.563C1915.12 110.359 1911.24 103.74 1904.38 99.0085C1897.44 94.2263 1888.12 91.8121 1875.15 92.6094L1875.77 102.591ZM1937.06 142H1924.66V152H1937.06V142ZM1924.66 142C1920 142 1916.67 141.016 1914.19 139.629C1911.69 138.235 1909.77 136.276 1908.16 133.922C1906.51 131.525 1905.25 128.819 1904.03 125.96C1902.89 123.307 1901.63 120.113 1900.16 117.643L1891.56 122.757C1892.59 124.487 1893.48 126.743 1894.84 129.903C1896.1 132.856 1897.68 136.325 1899.91 139.578C1902.17 142.874 1905.16 146.04 1909.31 148.359C1913.47 150.684 1918.52 152 1924.66 152V142ZM1900.21 117.73C1897.61 113.156 1894.24 107.988 1890.14 103.592C1886.09 99.2358 1880.99 95.2778 1874.87 93.7493L1872.45 103.451C1875.93 104.322 1879.43 106.764 1882.83 110.408C1886.18 114.012 1889.11 118.444 1891.51 122.67L1900.21 117.73ZM1873.66 103.6C1875.39 103.6 1876.57 102.765 1876.96 102.475C1877.4 102.145 1877.76 101.77 1877.8 101.736L1870.72 94.6645C1870.56 94.8298 1870.72 94.6549 1870.96 94.475C1871.11 94.3655 1871.39 94.1652 1871.81 93.9848C1872.23 93.7995 1872.87 93.6 1873.66 93.6V103.6ZM1871.8 93.8472C1867.07 96.5209 1863.48 98.4675 1861.18 99.2913L1864.54 108.709C1867.84 107.532 1872.25 105.079 1876.72 102.553L1871.8 93.8472ZM1857.86 104V115H1867.86V104H1857.86ZM1857.86 115C1857.86 118.189 1857.86 123.783 1858.19 129.256C1858.36 131.991 1858.62 134.782 1859.02 137.281C1859.4 139.667 1859.98 142.228 1860.99 144.236L1869.93 139.764C1869.64 139.172 1869.24 137.858 1868.89 135.694C1868.56 133.643 1868.33 131.209 1868.18 128.644C1867.86 123.517 1867.86 118.211 1867.86 115H1857.86ZM1861.12 144.481C1863.69 148.972 1868.03 150.885 1871.57 151.831L1874.15 142.169C1871.7 141.515 1870.44 140.628 1869.8 139.519L1861.12 144.481ZM1872.86 142H1833.86V152H1872.86V142ZM1835.04 151.859C1844.72 149.512 1848.02 140.916 1849.15 133.646C1850.28 126.411 1849.66 117.908 1849.66 113.2H1839.66C1839.66 119.092 1840.24 125.889 1839.27 132.104C1838.31 138.284 1836.2 141.288 1832.68 142.141L1835.04 151.859ZM1849.66 113.2V24.8H1839.66V113.2H1849.66Z" fill="black"/>
</svg>
