<svg width="1210" height="182" viewBox="0 0 1210 182" fill="none" xmlns="http://www.w3.org/2000/svg">
<path d="M62.6848 34.62C61.8048 34.62 61.0648 34.34 60.4648 33.78C59.9048 33.22 59.6248 32.5 59.6248 31.62C59.6248 30.7 59.9048 29.96 60.4648 29.4C61.0648 28.84 61.8048 28.56 62.6848 28.56H76.0648C76.9448 28.56 77.6648 28.84 78.2248 29.4C78.7848 29.96 79.0648 30.7 79.0648 31.62C79.0648 32.5 78.7848 33.22 78.2248 33.78C77.6648 34.34 76.9448 34.62 76.0648 34.62H62.6848ZM131.48 48.6C128.24 48.6 125.2 48 122.36 46.8C119.56 45.56 117.1 43.86 114.98 41.7C112.9 39.5 111.26 36.94 110.06 34.02C108.9 31.1 108.32 27.94 108.32 24.54C108.32 21.18 108.9 18.06 110.06 15.18C111.26 12.26 112.9 9.72 114.98 7.56C117.1 5.36 119.56 3.64 122.36 2.4C125.16 1.16 128.2 0.539999 131.48 0.539999C134.56 0.539999 137.2 0.939999 139.4 1.74C141.64 2.54 143.88 3.86 146.12 5.7C146.44 5.94 146.68 6.2 146.84 6.48C147.04 6.72 147.16 6.98 147.2 7.26C147.28 7.5 147.32 7.8 147.32 8.16C147.32 8.92 147.04 9.56 146.48 10.08C145.96 10.56 145.32 10.84 144.56 10.92C143.8 10.96 143.06 10.7 142.34 10.14C140.86 8.86 139.32 7.88 137.72 7.2C136.16 6.52 134.08 6.18 131.48 6.18C129.12 6.18 126.9 6.66 124.82 7.62C122.74 8.58 120.9 9.9 119.3 11.58C117.74 13.26 116.52 15.22 115.64 17.46C114.76 19.66 114.32 22.02 114.32 24.54C114.32 27.1 114.76 29.5 115.64 31.74C116.52 33.94 117.74 35.88 119.3 37.56C120.9 39.24 122.74 40.56 124.82 41.52C126.9 42.44 129.12 42.9 131.48 42.9C133.52 42.9 135.44 42.56 137.24 41.88C139.08 41.16 140.84 40.18 142.52 38.94C143.24 38.42 143.94 38.2 144.62 38.28C145.34 38.32 145.94 38.6 146.42 39.12C146.9 39.6 147.14 40.28 147.14 41.16C147.14 41.56 147.06 41.96 146.9 42.36C146.74 42.72 146.5 43.06 146.18 43.38C144.02 45.1 141.7 46.4 139.22 47.28C136.78 48.16 134.2 48.6 131.48 48.6ZM171.999 48.24C168.759 48.24 165.899 47.54 163.419 46.14C160.939 44.7 158.979 42.74 157.539 40.26C156.139 37.74 155.439 34.86 155.439 31.62C155.439 28.34 156.139 25.46 157.539 22.98C158.979 20.46 160.939 18.5 163.419 17.1C165.899 15.66 168.759 14.94 171.999 14.94C175.199 14.94 178.039 15.66 180.519 17.1C182.999 18.5 184.939 20.46 186.339 22.98C187.779 25.46 188.499 28.34 188.499 31.62C188.499 34.86 187.799 37.74 186.399 40.26C184.999 42.74 183.059 44.7 180.579 46.14C178.099 47.54 175.239 48.24 171.999 48.24ZM171.999 42.84C174.079 42.84 175.919 42.36 177.519 41.4C179.119 40.44 180.359 39.12 181.239 37.44C182.159 35.76 182.619 33.82 182.619 31.62C182.619 29.42 182.159 27.48 181.239 25.8C180.359 24.08 179.119 22.74 177.519 21.78C175.919 20.82 174.079 20.34 171.999 20.34C169.919 20.34 168.079 20.82 166.479 21.78C164.879 22.74 163.619 24.08 162.699 25.8C161.779 27.48 161.319 29.42 161.319 31.62C161.319 33.82 161.779 35.76 162.699 37.44C163.619 39.12 164.879 40.44 166.479 41.4C168.079 42.36 169.919 42.84 171.999 42.84ZM243.687 48.06C242.807 48.06 242.067 47.78 241.467 47.22C240.907 46.62 240.627 45.88 240.627 45V27.84C240.627 25.32 240.007 23.46 238.767 22.26C237.527 21.02 235.907 20.4 233.907 20.4C231.827 20.4 230.107 21.12 228.747 22.56C227.427 24 226.767 25.84 226.767 28.08H221.787C221.787 25.48 222.347 23.2 223.467 21.24C224.587 19.24 226.147 17.68 228.147 16.56C230.187 15.44 232.507 14.88 235.107 14.88C237.387 14.88 239.407 15.38 241.167 16.38C242.927 17.38 244.287 18.86 245.247 20.82C246.247 22.74 246.747 25.08 246.747 27.84V45C246.747 45.88 246.467 46.62 245.907 47.22C245.347 47.78 244.607 48.06 243.687 48.06ZM203.667 48.06C202.787 48.06 202.047 47.78 201.447 47.22C200.887 46.62 200.607 45.88 200.607 45V18.3C200.607 17.38 200.887 16.64 201.447 16.08C202.047 15.52 202.787 15.24 203.667 15.24C204.587 15.24 205.327 15.52 205.887 16.08C206.447 16.64 206.727 17.38 206.727 18.3V45C206.727 45.88 206.447 46.62 205.887 47.22C205.327 47.78 204.587 48.06 203.667 48.06ZM223.707 48.06C222.827 48.06 222.087 47.78 221.487 47.22C220.927 46.62 220.647 45.88 220.647 45V27.84C220.647 25.32 220.027 23.46 218.787 22.26C217.547 21.02 215.927 20.4 213.927 20.4C211.847 20.4 210.127 21.12 208.767 22.56C207.407 24 206.727 25.84 206.727 28.08H202.947C202.947 25.48 203.467 23.2 204.507 21.24C205.547 19.24 206.987 17.68 208.827 16.56C210.667 15.44 212.767 14.88 215.127 14.88C217.407 14.88 219.427 15.38 221.187 16.38C222.947 17.38 224.307 18.86 225.267 20.82C226.267 22.74 226.767 25.08 226.767 27.84V45C226.767 45.88 226.487 46.62 225.927 47.22C225.367 47.78 224.627 48.06 223.707 48.06ZM262.976 62.04C262.096 62.04 261.356 61.74 260.756 61.14C260.196 60.58 259.916 59.86 259.916 58.98V31.62C259.956 28.46 260.696 25.62 262.136 23.1C263.576 20.58 265.536 18.6 268.016 17.16C270.496 15.68 273.296 14.94 276.416 14.94C279.576 14.94 282.396 15.68 284.876 17.16C287.356 18.6 289.316 20.58 290.756 23.1C292.236 25.62 292.976 28.46 292.976 31.62C292.976 34.78 292.296 37.62 290.936 40.14C289.616 42.62 287.796 44.6 285.476 46.08C283.156 47.52 280.536 48.24 277.616 48.24C275.256 48.24 273.076 47.76 271.076 46.8C269.116 45.8 267.436 44.46 266.036 42.78V58.98C266.036 59.86 265.756 60.58 265.196 61.14C264.636 61.74 263.896 62.04 262.976 62.04ZM276.416 42.84C278.456 42.84 280.276 42.36 281.876 41.4C283.476 40.4 284.736 39.06 285.656 37.38C286.616 35.66 287.096 33.74 287.096 31.62C287.096 29.46 286.616 27.54 285.656 25.86C284.736 24.14 283.476 22.8 281.876 21.84C280.276 20.84 278.456 20.34 276.416 20.34C274.416 20.34 272.596 20.84 270.956 21.84C269.356 22.8 268.096 24.14 267.176 25.86C266.256 27.54 265.796 29.46 265.796 31.62C265.796 33.74 266.256 35.66 267.176 37.38C268.096 39.06 269.356 40.4 270.956 41.4C272.596 42.36 274.416 42.84 276.416 42.84ZM312.903 48C311.143 48 309.583 47.52 308.223 46.56C306.863 45.6 305.803 44.3 305.043 42.66C304.283 40.98 303.903 39.06 303.903 36.9V4.14C303.903 3.26 304.183 2.54 304.743 1.98C305.303 1.42 306.023 1.14 306.903 1.14C307.783 1.14 308.503 1.42 309.063 1.98C309.623 2.54 309.903 3.26 309.903 4.14V36.9C309.903 38.38 310.183 39.6 310.743 40.56C311.303 41.52 312.023 42 312.903 42H314.403C315.203 42 315.843 42.28 316.323 42.84C316.843 43.4 317.103 44.12 317.103 45C317.103 45.88 316.723 46.6 315.963 47.16C315.203 47.72 314.223 48 313.023 48H312.903ZM339.695 48.24C336.375 48.24 333.415 47.54 330.815 46.14C328.255 44.7 326.235 42.74 324.755 40.26C323.315 37.74 322.595 34.86 322.595 31.62C322.595 28.34 323.275 25.46 324.635 22.98C326.035 20.46 327.955 18.5 330.395 17.1C332.835 15.66 335.635 14.94 338.795 14.94C341.915 14.94 344.595 15.64 346.835 17.04C349.075 18.4 350.775 20.3 351.935 22.74C353.135 25.14 353.735 27.92 353.735 31.08C353.735 31.84 353.475 32.48 352.955 33C352.435 33.48 351.775 33.72 350.975 33.72H326.795V28.92H350.795L348.335 30.6C348.295 28.6 347.895 26.82 347.135 25.26C346.375 23.66 345.295 22.4 343.895 21.48C342.495 20.56 340.795 20.1 338.795 20.1C336.515 20.1 334.555 20.6 332.915 21.6C331.315 22.6 330.095 23.98 329.255 25.74C328.415 27.46 327.995 29.42 327.995 31.62C327.995 33.82 328.495 35.78 329.495 37.5C330.495 39.22 331.875 40.58 333.635 41.58C335.395 42.58 337.415 43.08 339.695 43.08C340.935 43.08 342.195 42.86 343.475 42.42C344.795 41.94 345.855 41.4 346.655 40.8C347.255 40.36 347.895 40.14 348.575 40.14C349.295 40.1 349.915 40.3 350.435 40.74C351.115 41.34 351.475 42 351.515 42.72C351.555 43.44 351.235 44.06 350.555 44.58C349.195 45.66 347.495 46.54 345.455 47.22C343.455 47.9 341.535 48.24 339.695 48.24ZM376.481 48C374.481 48 372.681 47.5 371.081 46.5C369.481 45.46 368.221 44.06 367.301 42.3C366.381 40.54 365.921 38.56 365.921 36.36V7.74C365.921 6.86 366.201 6.14 366.761 5.58C367.321 5.02 368.041 4.74 368.921 4.74C369.801 4.74 370.521 5.02 371.081 5.58C371.641 6.14 371.921 6.86 371.921 7.74V36.36C371.921 37.96 372.361 39.3 373.241 40.38C374.121 41.46 375.201 42 376.481 42H378.521C379.241 42 379.841 42.28 380.321 42.84C380.841 43.4 381.101 44.12 381.101 45C381.101 45.88 380.761 46.6 380.081 47.16C379.441 47.72 378.601 48 377.561 48H376.481ZM363.161 21.54C362.321 21.54 361.641 21.3 361.121 20.82C360.601 20.34 360.341 19.74 360.341 19.02C360.341 18.22 360.601 17.58 361.121 17.1C361.641 16.62 362.321 16.38 363.161 16.38H377.021C377.861 16.38 378.541 16.62 379.061 17.1C379.581 17.58 379.841 18.22 379.841 19.02C379.841 19.74 379.581 20.34 379.061 20.82C378.541 21.3 377.861 21.54 377.021 21.54H363.161ZM395.283 48C394.403 48 393.663 47.72 393.063 47.16C392.503 46.56 392.223 45.82 392.223 44.94V18.24C392.223 17.32 392.503 16.58 393.063 16.02C393.663 15.46 394.403 15.18 395.283 15.18C396.203 15.18 396.943 15.46 397.503 16.02C398.063 16.58 398.343 17.32 398.343 18.24V44.94C398.343 45.82 398.063 46.56 397.503 47.16C396.943 47.72 396.203 48 395.283 48ZM395.283 9.84C394.203 9.84 393.263 9.46 392.463 8.7C391.703 7.9 391.323 6.96 391.323 5.88C391.323 4.8 391.703 3.88 392.463 3.12C393.263 2.32 394.203 1.92 395.283 1.92C396.363 1.92 397.283 2.32 398.043 3.12C398.843 3.88 399.243 4.8 399.243 5.88C399.243 6.96 398.843 7.9 398.043 8.7C397.283 9.46 396.363 9.84 395.283 9.84ZM440.448 48.06C439.568 48.06 438.828 47.78 438.228 47.22C437.668 46.62 437.388 45.88 437.388 45V30.24C437.388 27.96 436.968 26.1 436.128 24.66C435.288 23.22 434.148 22.16 432.708 21.48C431.308 20.76 429.688 20.4 427.848 20.4C426.168 20.4 424.648 20.74 423.288 21.42C421.928 22.1 420.848 23.02 420.048 24.18C419.248 25.3 418.848 26.6 418.848 28.08H415.068C415.068 25.56 415.668 23.32 416.868 21.36C418.108 19.36 419.788 17.78 421.908 16.62C424.028 15.46 426.408 14.88 429.048 14.88C431.808 14.88 434.268 15.48 436.428 16.68C438.628 17.84 440.348 19.56 441.588 21.84C442.868 24.12 443.508 26.92 443.508 30.24V45C443.508 45.88 443.208 46.62 442.608 47.22C442.048 47.78 441.328 48.06 440.448 48.06ZM415.788 48.06C414.908 48.06 414.168 47.78 413.568 47.22C413.008 46.62 412.728 45.88 412.728 45V18.24C412.728 17.32 413.008 16.58 413.568 16.02C414.168 15.46 414.908 15.18 415.788 15.18C416.708 15.18 417.448 15.46 418.008 16.02C418.568 16.58 418.848 17.32 418.848 18.24V45C418.848 45.88 418.568 46.62 418.008 47.22C417.448 47.78 416.708 48.06 415.788 48.06ZM470.307 48.24C467.307 48.24 464.647 47.54 462.327 46.14C460.047 44.7 458.247 42.74 456.927 40.26C455.607 37.74 454.947 34.86 454.947 31.62C454.947 28.34 455.647 25.46 457.047 22.98C458.487 20.46 460.447 18.5 462.927 17.1C465.407 15.66 468.267 14.94 471.507 14.94C474.707 14.94 477.547 15.66 480.027 17.1C482.507 18.5 484.447 20.46 485.847 22.98C487.287 25.46 488.007 28.34 488.007 31.62H484.467C484.467 34.86 483.847 37.74 482.607 40.26C481.407 42.74 479.747 44.7 477.627 46.14C475.507 47.54 473.067 48.24 470.307 48.24ZM471.387 61.62C468.547 61.62 465.887 61.06 463.407 59.94C460.927 58.82 458.827 57.18 457.107 55.02C456.587 54.34 456.387 53.64 456.507 52.92C456.667 52.2 457.067 51.62 457.707 51.18C458.427 50.7 459.167 50.54 459.927 50.7C460.727 50.86 461.367 51.26 461.847 51.9C462.927 53.26 464.287 54.32 465.927 55.08C467.567 55.84 469.427 56.22 471.507 56.22C473.427 56.22 475.187 55.76 476.787 54.84C478.427 53.92 479.727 52.56 480.687 50.76C481.647 48.96 482.127 46.76 482.127 44.16V35.64L484.107 30.36L488.007 31.62V44.58C488.007 47.74 487.307 50.6 485.907 53.16C484.507 55.76 482.547 57.82 480.027 59.34C477.547 60.86 474.667 61.62 471.387 61.62ZM471.507 42.84C473.587 42.84 475.427 42.36 477.027 41.4C478.627 40.44 479.867 39.12 480.747 37.44C481.667 35.76 482.127 33.82 482.127 31.62C482.127 29.42 481.667 27.48 480.747 25.8C479.867 24.08 478.627 22.74 477.027 21.78C475.427 20.82 473.587 20.34 471.507 20.34C469.427 20.34 467.587 20.82 465.987 21.78C464.387 22.74 463.127 24.08 462.207 25.8C461.287 27.48 460.827 29.42 460.827 31.62C460.827 33.82 461.287 35.76 462.207 37.44C463.127 39.12 464.387 40.44 465.987 41.4C467.587 42.36 469.427 42.84 471.507 42.84ZM533.353 48C530.593 48 528.133 47.4 525.973 46.2C523.853 44.96 522.193 43.28 520.993 41.16C519.793 39 519.193 36.54 519.193 33.78C519.193 30.98 519.793 28.52 520.993 26.4C522.193 24.24 523.853 22.56 525.973 21.36C528.133 20.12 530.593 19.5 533.353 19.5C536.113 19.5 538.553 20.12 540.673 21.36C542.793 22.56 544.453 24.24 545.653 26.4C546.853 28.52 547.453 30.98 547.453 33.78C547.453 36.54 546.853 39 545.653 41.16C544.453 43.28 542.793 44.96 540.673 46.2C538.553 47.4 536.113 48 533.353 48ZM533.293 42.6C534.933 42.6 536.373 42.24 537.613 41.52C538.893 40.76 539.893 39.72 540.613 38.4C541.333 37.04 541.693 35.5 541.693 33.78C541.693 32.02 541.333 30.48 540.613 29.16C539.893 27.84 538.893 26.8 537.613 26.04C536.373 25.28 534.933 24.9 533.293 24.9C531.653 24.9 530.193 25.28 528.913 26.04C527.673 26.8 526.693 27.84 525.973 29.16C525.293 30.48 524.953 32.02 524.953 33.78C524.953 35.5 525.293 37.04 525.973 38.4C526.693 39.72 527.673 40.76 528.913 41.52C530.193 42.24 531.653 42.6 533.293 42.6ZM521.173 26.1L535.093 2.88C535.813 1.76 536.733 1.2 537.853 1.2C538.693 1.2 539.393 1.44 539.953 1.92C540.513 2.4 540.853 3 540.973 3.72C541.133 4.44 540.993 5.16 540.553 5.88L532.033 20.04L521.173 26.1ZM582.854 48C581.974 48 581.234 47.7 580.634 47.1C580.034 46.5 579.734 45.76 579.734 44.88V4.26C579.734 3.34 580.034 2.6 580.634 2.04C581.234 1.44 581.974 1.14 582.854 1.14H593.654C596.654 1.14 599.314 1.78 601.634 3.06C603.954 4.3 605.754 6.02 607.034 8.22C608.354 10.42 609.014 12.98 609.014 15.9C609.014 18.62 608.354 21.04 607.034 23.16C605.754 25.28 603.954 26.94 601.634 28.14C599.314 29.34 596.654 29.94 593.654 29.94H585.974V44.88C585.974 45.76 585.674 46.5 585.074 47.1C584.514 47.7 583.774 48 582.854 48ZM607.754 48C607.194 48 606.674 47.88 606.194 47.64C605.754 47.4 605.374 47.02 605.054 46.5L594.254 29.1L600.314 27.36L610.154 43.2C610.874 44.36 610.974 45.46 610.454 46.5C609.934 47.5 609.034 48 607.754 48ZM585.974 24.18H593.654C595.494 24.18 597.114 23.84 598.514 23.16C599.914 22.44 601.014 21.46 601.814 20.22C602.614 18.94 603.014 17.5 603.014 15.9C603.014 14.14 602.614 12.58 601.814 11.22C601.014 9.86 599.914 8.8 598.514 8.04C597.114 7.28 595.494 6.9 593.654 6.9H585.974V24.18ZM635.465 48.24C632.145 48.24 629.185 47.54 626.585 46.14C624.025 44.7 622.005 42.74 620.525 40.26C619.085 37.74 618.365 34.86 618.365 31.62C618.365 28.34 619.045 25.46 620.405 22.98C621.805 20.46 623.725 18.5 626.165 17.1C628.605 15.66 631.405 14.94 634.565 14.94C637.685 14.94 640.365 15.64 642.605 17.04C644.845 18.4 646.545 20.3 647.705 22.74C648.905 25.14 649.505 27.92 649.505 31.08C649.505 31.84 649.245 32.48 648.725 33C648.205 33.48 647.545 33.72 646.745 33.72H622.565V28.92H646.565L644.105 30.6C644.065 28.6 643.665 26.82 642.905 25.26C642.145 23.66 641.065 22.4 639.665 21.48C638.265 20.56 636.565 20.1 634.565 20.1C632.285 20.1 630.325 20.6 628.685 21.6C627.085 22.6 625.865 23.98 625.025 25.74C624.185 27.46 623.765 29.42 623.765 31.62C623.765 33.82 624.265 35.78 625.265 37.5C626.265 39.22 627.645 40.58 629.405 41.58C631.165 42.58 633.185 43.08 635.465 43.08C636.705 43.08 637.965 42.86 639.245 42.42C640.565 41.94 641.625 41.4 642.425 40.8C643.025 40.36 643.665 40.14 644.345 40.14C645.065 40.1 645.685 40.3 646.205 40.74C646.885 41.34 647.245 42 647.285 42.72C647.325 43.44 647.005 44.06 646.325 44.58C644.965 45.66 643.265 46.54 641.225 47.22C639.225 47.9 637.305 48.24 635.465 48.24ZM672.25 48.24C669.45 48.24 666.85 47.82 664.45 46.98C662.09 46.1 660.25 45 658.93 43.68C658.33 43.04 658.07 42.32 658.15 41.52C658.27 40.68 658.67 40 659.35 39.48C660.15 38.84 660.93 38.58 661.69 38.7C662.49 38.78 663.17 39.12 663.73 39.72C664.41 40.48 665.49 41.2 666.97 41.88C668.49 42.52 670.17 42.84 672.01 42.84C674.33 42.84 676.09 42.46 677.29 41.7C678.53 40.94 679.17 39.96 679.21 38.76C679.25 37.56 678.67 36.52 677.47 35.64C676.31 34.76 674.17 34.04 671.05 33.48C667.01 32.68 664.07 31.48 662.23 29.88C660.43 28.28 659.53 26.32 659.53 24C659.53 21.96 660.13 20.28 661.33 18.96C662.53 17.6 664.07 16.6 665.95 15.96C667.83 15.28 669.79 14.94 671.83 14.94C674.47 14.94 676.81 15.36 678.85 16.2C680.89 17.04 682.51 18.2 683.71 19.68C684.27 20.32 684.53 21 684.49 21.72C684.45 22.4 684.11 22.98 683.47 23.46C682.83 23.9 682.07 24.04 681.19 23.88C680.31 23.72 679.57 23.36 678.97 22.8C677.97 21.84 676.89 21.18 675.73 20.82C674.57 20.46 673.23 20.28 671.71 20.28C669.95 20.28 668.45 20.58 667.21 21.18C666.01 21.78 665.41 22.66 665.41 23.82C665.41 24.54 665.59 25.2 665.95 25.8C666.35 26.36 667.11 26.88 668.23 27.36C669.35 27.8 670.99 28.24 673.15 28.68C676.15 29.28 678.51 30.04 680.23 30.96C681.99 31.88 683.25 32.96 684.01 34.2C684.77 35.4 685.15 36.8 685.15 38.4C685.15 40.24 684.65 41.9 683.65 43.38C682.69 44.86 681.25 46.04 679.33 46.92C677.45 47.8 675.09 48.24 672.25 48.24ZM699.548 48C698.668 48 697.928 47.72 697.328 47.16C696.768 46.56 696.488 45.82 696.488 44.94V18.24C696.488 17.32 696.768 16.58 697.328 16.02C697.928 15.46 698.668 15.18 699.548 15.18C700.468 15.18 701.208 15.46 701.768 16.02C702.328 16.58 702.608 17.32 702.608 18.24V44.94C702.608 45.82 702.328 46.56 701.768 47.16C701.208 47.72 700.468 48 699.548 48ZM699.548 9.84C698.468 9.84 697.528 9.46 696.728 8.7C695.968 7.9 695.588 6.96 695.588 5.88C695.588 4.8 695.968 3.88 696.728 3.12C697.528 2.32 698.468 1.92 699.548 1.92C700.628 1.92 701.548 2.32 702.308 3.12C703.108 3.88 703.508 4.8 703.508 5.88C703.508 6.96 703.108 7.9 702.308 8.7C701.548 9.46 700.628 9.84 699.548 9.84ZM731.874 48.24C728.754 48.24 725.934 47.52 723.414 46.08C720.934 44.6 718.954 42.6 717.474 40.08C716.034 37.56 715.314 34.72 715.314 31.56C715.314 28.4 715.974 25.58 717.294 23.1C718.654 20.58 720.494 18.6 722.814 17.16C725.134 15.68 727.754 14.94 730.674 14.94C733.034 14.94 735.214 15.44 737.214 16.44C739.214 17.4 740.894 18.72 742.254 20.4V4.2C742.254 3.28 742.534 2.54 743.094 1.98C743.694 1.42 744.434 1.14 745.314 1.14C746.234 1.14 746.974 1.42 747.534 1.98C748.094 2.54 748.374 3.28 748.374 4.2V31.56C748.374 34.72 747.634 37.56 746.154 40.08C744.714 42.6 742.754 44.6 740.274 46.08C737.794 47.52 734.994 48.24 731.874 48.24ZM731.874 42.84C733.914 42.84 735.734 42.36 737.334 41.4C738.934 40.4 740.194 39.04 741.114 37.32C742.034 35.6 742.494 33.68 742.494 31.56C742.494 29.4 742.034 27.48 741.114 25.8C740.194 24.12 738.934 22.8 737.334 21.84C735.734 20.84 733.914 20.34 731.874 20.34C729.874 20.34 728.054 20.84 726.414 21.84C724.814 22.8 723.534 24.12 722.574 25.8C721.654 27.48 721.194 29.4 721.194 31.56C721.194 33.68 721.654 35.6 722.574 37.32C723.534 39.04 724.814 40.4 726.414 41.4C728.054 42.36 729.874 42.84 731.874 42.84ZM777.601 48.24C774.281 48.24 771.321 47.54 768.721 46.14C766.161 44.7 764.141 42.74 762.661 40.26C761.221 37.74 760.501 34.86 760.501 31.62C760.501 28.34 761.181 25.46 762.541 22.98C763.941 20.46 765.861 18.5 768.301 17.1C770.741 15.66 773.541 14.94 776.701 14.94C779.821 14.94 782.501 15.64 784.741 17.04C786.981 18.4 788.681 20.3 789.841 22.74C791.041 25.14 791.641 27.92 791.641 31.08C791.641 31.84 791.381 32.48 790.861 33C790.341 33.48 789.681 33.72 788.881 33.72H764.701V28.92H788.701L786.241 30.6C786.201 28.6 785.801 26.82 785.041 25.26C784.281 23.66 783.201 22.4 781.801 21.48C780.401 20.56 778.701 20.1 776.701 20.1C774.421 20.1 772.461 20.6 770.821 21.6C769.221 22.6 768.001 23.98 767.161 25.74C766.321 27.46 765.901 29.42 765.901 31.62C765.901 33.82 766.401 35.78 767.401 37.5C768.401 39.22 769.781 40.58 771.541 41.58C773.301 42.58 775.321 43.08 777.601 43.08C778.841 43.08 780.101 42.86 781.381 42.42C782.701 41.94 783.761 41.4 784.561 40.8C785.161 40.36 785.801 40.14 786.481 40.14C787.201 40.1 787.821 40.3 788.341 40.74C789.021 41.34 789.381 42 789.421 42.72C789.461 43.44 789.141 44.06 788.461 44.58C787.101 45.66 785.401 46.54 783.361 47.22C781.361 47.9 779.441 48.24 777.601 48.24ZM830.167 48.06C829.287 48.06 828.547 47.78 827.947 47.22C827.387 46.62 827.107 45.88 827.107 45V30.24C827.107 27.96 826.687 26.1 825.847 24.66C825.007 23.22 823.867 22.16 822.427 21.48C821.027 20.76 819.407 20.4 817.567 20.4C815.887 20.4 814.367 20.74 813.007 21.42C811.647 22.1 810.567 23.02 809.767 24.18C808.967 25.3 808.567 26.6 808.567 28.08H804.787C804.787 25.56 805.387 23.32 806.587 21.36C807.827 19.36 809.507 17.78 811.627 16.62C813.747 15.46 816.127 14.88 818.767 14.88C821.527 14.88 823.987 15.48 826.147 16.68C828.347 17.84 830.067 19.56 831.307 21.84C832.587 24.12 833.227 26.92 833.227 30.24V45C833.227 45.88 832.927 46.62 832.327 47.22C831.767 47.78 831.047 48.06 830.167 48.06ZM805.507 48.06C804.627 48.06 803.887 47.78 803.287 47.22C802.727 46.62 802.447 45.88 802.447 45V18.24C802.447 17.32 802.727 16.58 803.287 16.02C803.887 15.46 804.627 15.18 805.507 15.18C806.427 15.18 807.167 15.46 807.727 16.02C808.287 16.58 808.567 17.32 808.567 18.24V45C808.567 45.88 808.287 46.62 807.727 47.22C807.167 47.78 806.427 48.06 805.507 48.06ZM858.285 48C856.285 48 854.485 47.5 852.885 46.5C851.285 45.46 850.025 44.06 849.105 42.3C848.185 40.54 847.725 38.56 847.725 36.36V7.74C847.725 6.86 848.005 6.14 848.565 5.58C849.125 5.02 849.845 4.74 850.725 4.74C851.605 4.74 852.325 5.02 852.885 5.58C853.445 6.14 853.725 6.86 853.725 7.74V36.36C853.725 37.96 854.165 39.3 855.045 40.38C855.925 41.46 857.005 42 858.285 42H860.325C861.045 42 861.645 42.28 862.125 42.84C862.645 43.4 862.905 44.12 862.905 45C862.905 45.88 862.565 46.6 861.885 47.16C861.245 47.72 860.405 48 859.365 48H858.285ZM844.965 21.54C844.125 21.54 843.445 21.3 842.925 20.82C842.405 20.34 842.145 19.74 842.145 19.02C842.145 18.22 842.405 17.58 842.925 17.1C843.445 16.62 844.125 16.38 844.965 16.38H858.825C859.665 16.38 860.345 16.62 860.865 17.1C861.385 17.58 861.645 18.22 861.645 19.02C861.645 19.74 861.385 20.34 860.865 20.82C860.345 21.3 859.665 21.54 858.825 21.54H844.965ZM877.087 48C876.207 48 875.467 47.72 874.867 47.16C874.307 46.56 874.027 45.82 874.027 44.94V18.24C874.027 17.32 874.307 16.58 874.867 16.02C875.467 15.46 876.207 15.18 877.087 15.18C878.007 15.18 878.747 15.46 879.307 16.02C879.867 16.58 880.147 17.32 880.147 18.24V44.94C880.147 45.82 879.867 46.56 879.307 47.16C878.747 47.72 878.007 48 877.087 48ZM877.087 9.84C876.007 9.84 875.067 9.46 874.267 8.7C873.507 7.9 873.127 6.96 873.127 5.88C873.127 4.8 873.507 3.88 874.267 3.12C875.067 2.32 876.007 1.92 877.087 1.92C878.167 1.92 879.087 2.32 879.847 3.12C880.647 3.88 881.047 4.8 881.047 5.88C881.047 6.96 880.647 7.9 879.847 8.7C879.087 9.46 878.167 9.84 877.087 9.84ZM908.213 48.24C905.293 48.24 902.673 47.52 900.353 46.08C898.033 44.6 896.193 42.62 894.833 40.14C893.513 37.62 892.853 34.78 892.853 31.62C892.853 28.46 893.573 25.62 895.013 23.1C896.493 20.58 898.473 18.6 900.953 17.16C903.473 15.68 906.293 14.94 909.413 14.94C912.533 14.94 915.333 15.68 917.813 17.16C920.293 18.6 922.253 20.58 923.693 23.1C925.173 25.62 925.913 28.46 925.913 31.62H923.573C923.573 34.78 922.893 37.62 921.533 40.14C920.213 42.62 918.393 44.6 916.073 46.08C913.753 47.52 911.133 48.24 908.213 48.24ZM909.413 42.84C911.453 42.84 913.273 42.36 914.873 41.4C916.473 40.4 917.733 39.06 918.653 37.38C919.573 35.66 920.033 33.74 920.033 31.62C920.033 29.46 919.573 27.54 918.653 25.86C917.733 24.14 916.473 22.8 914.873 21.84C913.273 20.84 911.453 20.34 909.413 20.34C907.413 20.34 905.593 20.84 903.953 21.84C902.353 22.8 901.073 24.14 900.113 25.86C899.193 27.54 898.733 29.46 898.733 31.62C898.733 33.74 899.193 35.66 900.113 37.38C901.073 39.06 902.353 40.4 903.953 41.4C905.593 42.36 907.413 42.84 909.413 42.84ZM922.853 48.06C921.973 48.06 921.233 47.78 920.633 47.22C920.073 46.62 919.793 45.88 919.793 45V35.82L920.933 29.46L925.913 31.62V45C925.913 45.88 925.613 46.62 925.013 47.22C924.453 47.78 923.733 48.06 922.853 48.06ZM945.821 48C944.061 48 942.501 47.52 941.141 46.56C939.781 45.6 938.721 44.3 937.961 42.66C937.201 40.98 936.821 39.06 936.821 36.9V4.14C936.821 3.26 937.101 2.54 937.661 1.98C938.221 1.42 938.941 1.14 939.821 1.14C940.701 1.14 941.421 1.42 941.981 1.98C942.541 2.54 942.821 3.26 942.821 4.14V36.9C942.821 38.38 943.101 39.6 943.661 40.56C944.221 41.52 944.941 42 945.821 42H947.321C948.121 42 948.761 42.28 949.241 42.84C949.761 43.4 950.021 44.12 950.021 45C950.021 45.88 949.641 46.6 948.881 47.16C948.121 47.72 947.141 48 945.941 48H945.821ZM999.808 48.96C995.968 48.96 992.568 48.26 989.607 46.86C986.648 45.42 984.328 43.44 982.648 40.92C981.008 38.4 980.188 35.52 980.188 32.28V4.26C980.188 3.34 980.488 2.6 981.088 2.04C981.688 1.44 982.428 1.14 983.308 1.14C984.228 1.14 984.968 1.44 985.528 2.04C986.128 2.6 986.428 3.34 986.428 4.26V32.28C986.428 34.44 986.988 36.36 988.108 38.04C989.268 39.68 990.848 40.98 992.848 41.94C994.888 42.86 997.208 43.32 999.808 43.32C1002.33 43.32 1004.55 42.86 1006.47 41.94C1008.43 40.98 1009.95 39.68 1011.03 38.04C1012.15 36.36 1012.71 34.44 1012.71 32.28V4.26C1012.71 3.34 1013.01 2.6 1013.61 2.04C1014.21 1.44 1014.95 1.14 1015.83 1.14C1016.75 1.14 1017.49 1.44 1018.05 2.04C1018.61 2.6 1018.89 3.34 1018.89 4.26V32.28C1018.89 35.52 1018.07 38.4 1016.43 40.92C1014.83 43.44 1012.59 45.42 1009.71 46.86C1006.83 48.26 1003.53 48.96 999.808 48.96ZM1060.99 48.06C1060.11 48.06 1059.37 47.78 1058.77 47.22C1058.21 46.62 1057.93 45.88 1057.93 45V30.24C1057.93 27.96 1057.51 26.1 1056.67 24.66C1055.83 23.22 1054.69 22.16 1053.25 21.48C1051.85 20.76 1050.23 20.4 1048.39 20.4C1046.71 20.4 1045.19 20.74 1043.83 21.42C1042.47 22.1 1041.39 23.02 1040.59 24.18C1039.79 25.3 1039.39 26.6 1039.39 28.08H1035.61C1035.61 25.56 1036.21 23.32 1037.41 21.36C1038.65 19.36 1040.33 17.78 1042.45 16.62C1044.57 15.46 1046.95 14.88 1049.59 14.88C1052.35 14.88 1054.81 15.48 1056.97 16.68C1059.17 17.84 1060.89 19.56 1062.13 21.84C1063.41 24.12 1064.05 26.92 1064.05 30.24V45C1064.05 45.88 1063.75 46.62 1063.15 47.22C1062.59 47.78 1061.87 48.06 1060.99 48.06ZM1036.33 48.06C1035.45 48.06 1034.71 47.78 1034.11 47.22C1033.55 46.62 1033.27 45.88 1033.27 45V18.24C1033.27 17.32 1033.55 16.58 1034.11 16.02C1034.71 15.46 1035.45 15.18 1036.33 15.18C1037.25 15.18 1037.99 15.46 1038.55 16.02C1039.11 16.58 1039.39 17.32 1039.39 18.24V45C1039.39 45.88 1039.11 46.62 1038.55 47.22C1037.99 47.78 1037.25 48.06 1036.33 48.06ZM1080.83 48C1079.95 48 1079.21 47.72 1078.61 47.16C1078.05 46.56 1077.77 45.82 1077.77 44.94V18.24C1077.77 17.32 1078.05 16.58 1078.61 16.02C1079.21 15.46 1079.95 15.18 1080.83 15.18C1081.75 15.18 1082.49 15.46 1083.05 16.02C1083.61 16.58 1083.89 17.32 1083.89 18.24V44.94C1083.89 45.82 1083.61 46.56 1083.05 47.16C1082.49 47.72 1081.75 48 1080.83 48ZM1080.83 9.84C1079.75 9.84 1078.81 9.46 1078.01 8.7C1077.25 7.9 1076.87 6.96 1076.87 5.88C1076.87 4.8 1077.25 3.88 1078.01 3.12C1078.81 2.32 1079.75 1.92 1080.83 1.92C1081.91 1.92 1082.83 2.32 1083.59 3.12C1084.39 3.88 1084.79 4.8 1084.79 5.88C1084.79 6.96 1084.39 7.9 1083.59 8.7C1082.83 9.46 1081.91 9.84 1080.83 9.84ZM1110.22 48C1108.22 48 1106.42 47.5 1104.82 46.5C1103.22 45.46 1101.96 44.06 1101.04 42.3C1100.12 40.54 1099.66 38.56 1099.66 36.36V7.74C1099.66 6.86 1099.94 6.14 1100.5 5.58C1101.06 5.02 1101.78 4.74 1102.66 4.74C1103.54 4.74 1104.26 5.02 1104.82 5.58C1105.38 6.14 1105.66 6.86 1105.66 7.74V36.36C1105.66 37.96 1106.1 39.3 1106.98 40.38C1107.86 41.46 1108.94 42 1110.22 42H1112.26C1112.98 42 1113.58 42.28 1114.06 42.84C1114.58 43.4 1114.84 44.12 1114.84 45C1114.84 45.88 1114.5 46.6 1113.82 47.16C1113.18 47.72 1112.34 48 1111.3 48H1110.22ZM1096.9 21.54C1096.06 21.54 1095.38 21.3 1094.85 20.82C1094.34 20.34 1094.08 19.74 1094.08 19.02C1094.08 18.22 1094.34 17.58 1094.85 17.1C1095.38 16.62 1096.06 16.38 1096.9 16.38H1110.76C1111.6 16.38 1112.28 16.62 1112.8 17.1C1113.32 17.58 1113.58 18.22 1113.58 19.02C1113.58 19.74 1113.32 20.34 1112.8 20.82C1112.28 21.3 1111.6 21.54 1110.76 21.54H1096.9ZM1137.3 48.24C1134.5 48.24 1131.9 47.82 1129.5 46.98C1127.14 46.1 1125.3 45 1123.98 43.68C1123.38 43.04 1123.12 42.32 1123.2 41.52C1123.32 40.68 1123.72 40 1124.4 39.48C1125.2 38.84 1125.98 38.58 1126.74 38.7C1127.54 38.78 1128.22 39.12 1128.78 39.72C1129.46 40.48 1130.54 41.2 1132.02 41.88C1133.54 42.52 1135.22 42.84 1137.06 42.84C1139.38 42.84 1141.14 42.46 1142.34 41.7C1143.58 40.94 1144.22 39.96 1144.26 38.76C1144.3 37.56 1143.72 36.52 1142.52 35.64C1141.36 34.76 1139.22 34.04 1136.1 33.48C1132.06 32.68 1129.12 31.48 1127.28 29.88C1125.48 28.28 1124.58 26.32 1124.58 24C1124.58 21.96 1125.18 20.28 1126.38 18.96C1127.58 17.6 1129.12 16.6 1131 15.96C1132.88 15.28 1134.84 14.94 1136.88 14.94C1139.52 14.94 1141.86 15.36 1143.9 16.2C1145.94 17.04 1147.56 18.2 1148.76 19.68C1149.32 20.32 1149.58 21 1149.54 21.72C1149.5 22.4 1149.16 22.98 1148.52 23.46C1147.88 23.9 1147.12 24.04 1146.24 23.88C1145.36 23.72 1144.62 23.36 1144.02 22.8C1143.02 21.84 1141.94 21.18 1140.78 20.82C1139.62 20.46 1138.28 20.28 1136.76 20.28C1135 20.28 1133.5 20.58 1132.26 21.18C1131.06 21.78 1130.46 22.66 1130.46 23.82C1130.46 24.54 1130.64 25.2 1131 25.8C1131.4 26.36 1132.16 26.88 1133.28 27.36C1134.4 27.8 1136.04 28.24 1138.2 28.68C1141.2 29.28 1143.56 30.04 1145.28 30.96C1147.04 31.88 1148.3 32.96 1149.06 34.2C1149.82 35.4 1150.2 36.8 1150.2 38.4C1150.2 40.24 1149.7 41.9 1148.7 43.38C1147.74 44.86 1146.3 46.04 1144.38 46.92C1142.5 47.8 1140.14 48.24 1137.3 48.24ZM15.605 121.12C14.725 121.12 14.005 120.82 13.445 120.22C12.845 119.62 12.545 118.9 12.545 118.06C12.545 117.18 12.845 116.44 13.445 115.84C14.005 115.28 14.725 115 15.605 115H43.745C44.545 115 45.245 115.28 45.845 115.84C46.445 116.44 46.745 117.18 46.745 118.06C46.745 118.9 46.445 119.62 45.845 120.22C45.245 120.82 44.545 121.12 43.745 121.12H15.605ZM46.73 121.12C45.85 121.12 45.13 120.82 44.57 120.22C43.97 119.62 43.67 118.9 43.67 118.06C43.67 117.18 43.97 116.44 44.57 115.84C45.13 115.28 45.85 115 46.73 115H74.87C75.67 115 76.37 115.28 76.97 115.84C77.57 116.44 77.87 117.18 77.87 118.06C77.87 118.9 77.57 119.62 76.97 120.22C76.37 120.82 75.67 121.12 74.87 121.12H46.73ZM77.855 121.12C76.975 121.12 76.255 120.82 75.695 120.22C75.095 119.62 74.795 118.9 74.795 118.06C74.795 117.18 75.095 116.44 75.695 115.84C76.255 115.28 76.975 115 77.855 115H105.995C106.795 115 107.495 115.28 108.095 115.84C108.695 116.44 108.995 117.18 108.995 118.06C108.995 118.9 108.695 119.62 108.095 120.22C107.495 120.82 106.795 121.12 105.995 121.12H77.855ZM108.98 121.12C108.1 121.12 107.38 120.82 106.82 120.22C106.22 119.62 105.92 118.9 105.92 118.06C105.92 117.18 106.22 116.44 106.82 115.84C107.38 115.28 108.1 115 108.98 115H137.12C137.92 115 138.62 115.28 139.22 115.84C139.82 116.44 140.12 117.18 140.12 118.06C140.12 118.9 139.82 119.62 139.22 120.22C138.62 120.82 137.92 121.12 137.12 121.12H108.98ZM140.105 121.12C139.225 121.12 138.505 120.82 137.945 120.22C137.345 119.62 137.045 118.9 137.045 118.06C137.045 117.18 137.345 116.44 137.945 115.84C138.505 115.28 139.225 115 140.105 115H168.245C169.045 115 169.745 115.28 170.345 115.84C170.945 116.44 171.245 117.18 171.245 118.06C171.245 118.9 170.945 119.62 170.345 120.22C169.745 120.82 169.045 121.12 168.245 121.12H140.105ZM171.23 121.12C170.35 121.12 169.63 120.82 169.07 120.22C168.47 119.62 168.17 118.9 168.17 118.06C168.17 117.18 168.47 116.44 169.07 115.84C169.63 115.28 170.35 115 171.23 115H199.37C200.17 115 200.87 115.28 201.47 115.84C202.07 116.44 202.37 117.18 202.37 118.06C202.37 118.9 202.07 119.62 201.47 120.22C200.87 120.82 200.17 121.12 199.37 121.12H171.23ZM202.355 121.12C201.475 121.12 200.755 120.82 200.195 120.22C199.595 119.62 199.295 118.9 199.295 118.06C199.295 117.18 199.595 116.44 200.195 115.84C200.755 115.28 201.475 115 202.355 115H230.495C231.295 115 231.995 115.28 232.595 115.84C233.195 116.44 233.495 117.18 233.495 118.06C233.495 118.9 233.195 119.62 232.595 120.22C231.995 120.82 231.295 121.12 230.495 121.12H202.355ZM233.48 121.12C232.6 121.12 231.88 120.82 231.32 120.22C230.72 119.62 230.42 118.9 230.42 118.06C230.42 117.18 230.72 116.44 231.32 115.84C231.88 115.28 232.6 115 233.48 115H261.62C262.42 115 263.12 115.28 263.72 115.84C264.32 116.44 264.62 117.18 264.62 118.06C264.62 118.9 264.32 119.62 263.72 120.22C263.12 120.82 262.42 121.12 261.62 121.12H233.48ZM264.605 121.12C263.725 121.12 263.005 120.82 262.445 120.22C261.845 119.62 261.545 118.9 261.545 118.06C261.545 117.18 261.845 116.44 262.445 115.84C263.005 115.28 263.725 115 264.605 115H292.745C293.545 115 294.245 115.28 294.845 115.84C295.445 116.44 295.745 117.18 295.745 118.06C295.745 118.9 295.445 119.62 294.845 120.22C294.245 120.82 293.545 121.12 292.745 121.12H264.605ZM295.73 121.12C294.85 121.12 294.13 120.82 293.57 120.22C292.97 119.62 292.67 118.9 292.67 118.06C292.67 117.18 292.97 116.44 293.57 115.84C294.13 115.28 294.85 115 295.73 115H323.87C324.67 115 325.37 115.28 325.97 115.84C326.57 116.44 326.87 117.18 326.87 118.06C326.87 118.9 326.57 119.62 325.97 120.22C325.37 120.82 324.67 121.12 323.87 121.12H295.73ZM326.855 121.12C325.975 121.12 325.255 120.82 324.695 120.22C324.095 119.62 323.795 118.9 323.795 118.06C323.795 117.18 324.095 116.44 324.695 115.84C325.255 115.28 325.975 115 326.855 115H354.995C355.795 115 356.495 115.28 357.095 115.84C357.695 116.44 357.995 117.18 357.995 118.06C357.995 118.9 357.695 119.62 357.095 120.22C356.495 120.82 355.795 121.12 354.995 121.12H326.855ZM357.98 121.12C357.1 121.12 356.38 120.82 355.82 120.22C355.22 119.62 354.92 118.9 354.92 118.06C354.92 117.18 355.22 116.44 355.82 115.84C356.38 115.28 357.1 115 357.98 115H386.12C386.92 115 387.62 115.28 388.22 115.84C388.82 116.44 389.12 117.18 389.12 118.06C389.12 118.9 388.82 119.62 388.22 120.22C387.62 120.82 386.92 121.12 386.12 121.12H357.98ZM389.105 121.12C388.225 121.12 387.505 120.82 386.945 120.22C386.345 119.62 386.045 118.9 386.045 118.06C386.045 117.18 386.345 116.44 386.945 115.84C387.505 115.28 388.225 115 389.105 115H417.245C418.045 115 418.745 115.28 419.345 115.84C419.945 116.44 420.245 117.18 420.245 118.06C420.245 118.9 419.945 119.62 419.345 120.22C418.745 120.82 418.045 121.12 417.245 121.12H389.105ZM420.23 121.12C419.35 121.12 418.63 120.82 418.07 120.22C417.47 119.62 417.17 118.9 417.17 118.06C417.17 117.18 417.47 116.44 418.07 115.84C418.63 115.28 419.35 115 420.23 115H448.37C449.17 115 449.87 115.28 450.47 115.84C451.07 116.44 451.37 117.18 451.37 118.06C451.37 118.9 451.07 119.62 450.47 120.22C449.87 120.82 449.17 121.12 448.37 121.12H420.23ZM451.355 121.12C450.475 121.12 449.755 120.82 449.195 120.22C448.595 119.62 448.295 118.9 448.295 118.06C448.295 117.18 448.595 116.44 449.195 115.84C449.755 115.28 450.475 115 451.355 115H479.495C480.295 115 480.995 115.28 481.595 115.84C482.195 116.44 482.495 117.18 482.495 118.06C482.495 118.9 482.195 119.62 481.595 120.22C480.995 120.82 480.295 121.12 479.495 121.12H451.355ZM482.48 121.12C481.6 121.12 480.88 120.82 480.32 120.22C479.72 119.62 479.42 118.9 479.42 118.06C479.42 117.18 479.72 116.44 480.32 115.84C480.88 115.28 481.6 115 482.48 115H510.62C511.42 115 512.12 115.28 512.72 115.84C513.32 116.44 513.62 117.18 513.62 118.06C513.62 118.9 513.32 119.62 512.72 120.22C512.12 120.82 511.42 121.12 510.62 121.12H482.48ZM513.605 121.12C512.725 121.12 512.005 120.82 511.445 120.22C510.845 119.62 510.545 118.9 510.545 118.06C510.545 117.18 510.845 116.44 511.445 115.84C512.005 115.28 512.725 115 513.605 115H541.745C542.545 115 543.245 115.28 543.845 115.84C544.445 116.44 544.745 117.18 544.745 118.06C544.745 118.9 544.445 119.62 543.845 120.22C543.245 120.82 542.545 121.12 541.745 121.12H513.605ZM544.73 121.12C543.85 121.12 543.13 120.82 542.57 120.22C541.97 119.62 541.67 118.9 541.67 118.06C541.67 117.18 541.97 116.44 542.57 115.84C543.13 115.28 543.85 115 544.73 115H572.87C573.67 115 574.37 115.28 574.97 115.84C575.57 116.44 575.87 117.18 575.87 118.06C575.87 118.9 575.57 119.62 574.97 120.22C574.37 120.82 573.67 121.12 572.87 121.12H544.73ZM575.855 121.12C574.975 121.12 574.255 120.82 573.695 120.22C573.095 119.62 572.795 118.9 572.795 118.06C572.795 117.18 573.095 116.44 573.695 115.84C574.255 115.28 574.975 115 575.855 115H603.995C604.795 115 605.495 115.28 606.095 115.84C606.695 116.44 606.995 117.18 606.995 118.06C606.995 118.9 606.695 119.62 606.095 120.22C605.495 120.82 604.795 121.12 603.995 121.12H575.855ZM606.98 121.12C606.1 121.12 605.38 120.82 604.82 120.22C604.22 119.62 603.92 118.9 603.92 118.06C603.92 117.18 604.22 116.44 604.82 115.84C605.38 115.28 606.1 115 606.98 115H635.12C635.92 115 636.62 115.28 637.22 115.84C637.82 116.44 638.12 117.18 638.12 118.06C638.12 118.9 637.82 119.62 637.22 120.22C636.62 120.82 635.92 121.12 635.12 121.12H606.98ZM638.105 121.12C637.225 121.12 636.505 120.82 635.945 120.22C635.345 119.62 635.045 118.9 635.045 118.06C635.045 117.18 635.345 116.44 635.945 115.84C636.505 115.28 637.225 115 638.105 115H666.245C667.045 115 667.745 115.28 668.345 115.84C668.945 116.44 669.245 117.18 669.245 118.06C669.245 118.9 668.945 119.62 668.345 120.22C667.745 120.82 667.045 121.12 666.245 121.12H638.105ZM669.23 121.12C668.35 121.12 667.63 120.82 667.07 120.22C666.47 119.62 666.17 118.9 666.17 118.06C666.17 117.18 666.47 116.44 667.07 115.84C667.63 115.28 668.35 115 669.23 115H697.37C698.17 115 698.87 115.28 699.47 115.84C700.07 116.44 700.37 117.18 700.37 118.06C700.37 118.9 700.07 119.62 699.47 120.22C698.87 120.82 698.17 121.12 697.37 121.12H669.23ZM700.355 121.12C699.475 121.12 698.755 120.82 698.195 120.22C697.595 119.62 697.295 118.9 697.295 118.06C697.295 117.18 697.595 116.44 698.195 115.84C698.755 115.28 699.475 115 700.355 115H728.495C729.295 115 729.995 115.28 730.595 115.84C731.195 116.44 731.495 117.18 731.495 118.06C731.495 118.9 731.195 119.62 730.595 120.22C729.995 120.82 729.295 121.12 728.495 121.12H700.355ZM731.48 121.12C730.6 121.12 729.88 120.82 729.32 120.22C728.72 119.62 728.42 118.9 728.42 118.06C728.42 117.18 728.72 116.44 729.32 115.84C729.88 115.28 730.6 115 731.48 115H759.62C760.42 115 761.12 115.28 761.72 115.84C762.32 116.44 762.62 117.18 762.62 118.06C762.62 118.9 762.32 119.62 761.72 120.22C761.12 120.82 760.42 121.12 759.62 121.12H731.48ZM762.605 121.12C761.725 121.12 761.005 120.82 760.445 120.22C759.845 119.62 759.545 118.9 759.545 118.06C759.545 117.18 759.845 116.44 760.445 115.84C761.005 115.28 761.725 115 762.605 115H790.745C791.545 115 792.245 115.28 792.845 115.84C793.445 116.44 793.745 117.18 793.745 118.06C793.745 118.9 793.445 119.62 792.845 120.22C792.245 120.82 791.545 121.12 790.745 121.12H762.605ZM793.73 121.12C792.85 121.12 792.13 120.82 791.57 120.22C790.97 119.62 790.67 118.9 790.67 118.06C790.67 117.18 790.97 116.44 791.57 115.84C792.13 115.28 792.85 115 793.73 115H821.87C822.67 115 823.37 115.28 823.97 115.84C824.57 116.44 824.87 117.18 824.87 118.06C824.87 118.9 824.57 119.62 823.97 120.22C823.37 120.82 822.67 121.12 821.87 121.12H793.73ZM824.855 121.12C823.975 121.12 823.255 120.82 822.695 120.22C822.095 119.62 821.795 118.9 821.795 118.06C821.795 117.18 822.095 116.44 822.695 115.84C823.255 115.28 823.975 115 824.855 115H852.995C853.795 115 854.495 115.28 855.095 115.84C855.695 116.44 855.995 117.18 855.995 118.06C855.995 118.9 855.695 119.62 855.095 120.22C854.495 120.82 853.795 121.12 852.995 121.12H824.855ZM855.98 121.12C855.1 121.12 854.38 120.82 853.82 120.22C853.22 119.62 852.92 118.9 852.92 118.06C852.92 117.18 853.22 116.44 853.82 115.84C854.38 115.28 855.1 115 855.98 115H884.12C884.92 115 885.62 115.28 886.22 115.84C886.82 116.44 887.12 117.18 887.12 118.06C887.12 118.9 886.82 119.62 886.22 120.22C885.62 120.82 884.92 121.12 884.12 121.12H855.98ZM887.105 121.12C886.225 121.12 885.505 120.82 884.945 120.22C884.345 119.62 884.045 118.9 884.045 118.06C884.045 117.18 884.345 116.44 884.945 115.84C885.505 115.28 886.225 115 887.105 115H915.245C916.045 115 916.745 115.28 917.345 115.84C917.945 116.44 918.245 117.18 918.245 118.06C918.245 118.9 917.945 119.62 917.345 120.22C916.745 120.82 916.045 121.12 915.245 121.12H887.105ZM918.23 121.12C917.35 121.12 916.63 120.82 916.07 120.22C915.47 119.62 915.17 118.9 915.17 118.06C915.17 117.18 915.47 116.44 916.07 115.84C916.63 115.28 917.35 115 918.23 115H946.37C947.17 115 947.87 115.28 948.47 115.84C949.07 116.44 949.37 117.18 949.37 118.06C949.37 118.9 949.07 119.62 948.47 120.22C947.87 120.82 947.17 121.12 946.37 121.12H918.23ZM949.355 121.12C948.475 121.12 947.755 120.82 947.195 120.22C946.595 119.62 946.295 118.9 946.295 118.06C946.295 117.18 946.595 116.44 947.195 115.84C947.755 115.28 948.475 115 949.355 115H977.495C978.295 115 978.995 115.28 979.595 115.84C980.195 116.44 980.495 117.18 980.495 118.06C980.495 118.9 980.195 119.62 979.595 120.22C978.995 120.82 978.295 121.12 977.495 121.12H949.355ZM980.48 121.12C979.6 121.12 978.88 120.82 978.32 120.22C977.72 119.62 977.42 118.9 977.42 118.06C977.42 117.18 977.72 116.44 978.32 115.84C978.88 115.28 979.6 115 980.48 115H1008.62C1009.42 115 1010.12 115.28 1010.72 115.84C1011.32 116.44 1011.62 117.18 1011.62 118.06C1011.62 118.9 1011.32 119.62 1010.72 120.22C1010.12 120.82 1009.42 121.12 1008.62 121.12H980.48ZM1011.61 121.12C1010.72 121.12 1010 120.82 1009.44 120.22C1008.84 119.62 1008.54 118.9 1008.54 118.06C1008.54 117.18 1008.84 116.44 1009.44 115.84C1010 115.28 1010.72 115 1011.61 115H1039.75C1040.55 115 1041.25 115.28 1041.85 115.84C1042.45 116.44 1042.75 117.18 1042.75 118.06C1042.75 118.9 1042.45 119.62 1041.85 120.22C1041.25 120.82 1040.55 121.12 1039.75 121.12H1011.61ZM1042.73 121.12C1041.85 121.12 1041.13 120.82 1040.57 120.22C1039.97 119.62 1039.67 118.9 1039.67 118.06C1039.67 117.18 1039.97 116.44 1040.57 115.84C1041.13 115.28 1041.85 115 1042.73 115H1070.87C1071.67 115 1072.37 115.28 1072.97 115.84C1073.57 116.44 1073.87 117.18 1073.87 118.06C1073.87 118.9 1073.57 119.62 1072.97 120.22C1072.37 120.82 1071.67 121.12 1070.87 121.12H1042.73ZM1073.86 121.12C1072.97 121.12 1072.25 120.82 1071.69 120.22C1071.09 119.62 1070.79 118.9 1070.79 118.06C1070.79 117.18 1071.09 116.44 1071.69 115.84C1072.25 115.28 1072.97 115 1073.86 115H1102C1102.8 115 1103.5 115.28 1104.1 115.84C1104.7 116.44 1105 117.18 1105 118.06C1105 118.9 1104.7 119.62 1104.1 120.22C1103.5 120.82 1102.8 121.12 1102 121.12H1073.86ZM1104.98 121.12C1104.1 121.12 1103.38 120.82 1102.82 120.22C1102.22 119.62 1101.92 118.9 1101.92 118.06C1101.92 117.18 1102.22 116.44 1102.82 115.84C1103.38 115.28 1104.1 115 1104.98 115H1133.12C1133.92 115 1134.62 115.28 1135.22 115.84C1135.82 116.44 1136.12 117.18 1136.12 118.06C1136.12 118.9 1135.82 119.62 1135.22 120.22C1134.62 120.82 1133.92 121.12 1133.12 121.12H1104.98ZM1136.11 121.12C1135.22 121.12 1134.5 120.82 1133.94 120.22C1133.34 119.62 1133.04 118.9 1133.04 118.06C1133.04 117.18 1133.34 116.44 1133.94 115.84C1134.5 115.28 1135.22 115 1136.11 115H1164.25C1165.05 115 1165.75 115.28 1166.35 115.84C1166.95 116.44 1167.25 117.18 1167.25 118.06C1167.25 118.9 1166.95 119.62 1166.35 120.22C1165.75 120.82 1165.05 121.12 1164.25 121.12H1136.11ZM1167.23 121.12C1166.35 121.12 1165.63 120.82 1165.07 120.22C1164.47 119.62 1164.17 118.9 1164.17 118.06C1164.17 117.18 1164.47 116.44 1165.07 115.84C1165.63 115.28 1166.35 115 1167.23 115H1195.37C1196.17 115 1196.87 115.28 1197.47 115.84C1198.07 116.44 1198.37 117.18 1198.37 118.06C1198.37 118.9 1198.07 119.62 1197.47 120.22C1196.87 120.82 1196.17 121.12 1195.37 121.12H1167.23ZM537.411 182C536.531 182 535.791 181.7 535.191 181.1C534.631 180.5 534.351 179.78 534.351 178.94C534.351 178.06 534.631 177.34 535.191 176.78L552.231 156.86C553.431 155.46 554.351 154.14 554.991 152.9C555.671 151.66 556.011 150.48 556.011 149.36C556.011 147.6 555.711 146.08 555.111 144.8C554.511 143.52 553.651 142.54 552.531 141.86C551.411 141.14 550.071 140.78 548.511 140.78C546.991 140.78 545.611 141.18 544.371 141.98C543.171 142.74 542.211 143.78 541.491 145.1C540.811 146.38 540.471 147.8 540.471 149.36C540.471 150.16 540.171 150.86 539.571 151.46C539.011 152.06 538.291 152.36 537.411 152.36C536.571 152.36 535.851 152.06 535.251 151.46C534.651 150.86 534.351 150.16 534.351 149.36C534.351 146.64 534.971 144.22 536.211 142.1C537.451 139.94 539.131 138.24 541.251 137C543.411 135.76 545.831 135.14 548.511 135.14C551.231 135.14 553.591 135.72 555.591 136.88C557.591 138.04 559.131 139.68 560.211 141.8C561.331 143.92 561.891 146.44 561.891 149.36C561.891 150.64 561.611 151.94 561.051 153.26C560.531 154.58 559.851 155.84 559.011 157.04C558.211 158.24 557.391 159.32 556.551 160.28L542.811 175.88H559.611C560.491 175.88 561.231 176.2 561.831 176.84C562.431 177.44 562.731 178.14 562.731 178.94C562.731 179.78 562.431 180.5 561.831 181.1C561.231 181.7 560.491 182 559.611 182H537.411ZM586.065 182C583.025 182 580.425 181.08 578.265 179.24C576.145 177.36 574.525 174.68 573.405 171.2C572.285 167.68 571.725 163.46 571.725 158.54C571.725 153.62 572.285 149.42 573.405 145.94C574.525 142.42 576.145 139.74 578.265 137.9C580.425 136.02 583.025 135.08 586.065 135.08C589.105 135.08 591.685 136.04 593.805 137.96C595.965 139.84 597.605 142.54 598.725 146.06C599.845 149.54 600.405 153.7 600.405 158.54C600.405 163.38 599.845 167.56 598.725 171.08C597.605 174.56 595.965 177.26 593.805 179.18C591.685 181.06 589.105 182 586.065 182ZM586.065 175.76C587.905 175.76 589.425 175.02 590.625 173.54C591.825 172.02 592.725 169.96 593.325 167.36C593.925 164.76 594.225 161.82 594.225 158.54C594.225 155.26 593.925 152.32 593.325 149.72C592.725 147.12 591.825 145.06 590.625 143.54C589.425 142.02 587.905 141.26 586.065 141.26C584.225 141.26 582.705 142.02 581.505 143.54C580.305 145.02 579.405 147.06 578.805 149.66C578.205 152.26 577.905 155.22 577.905 158.54C577.905 161.86 578.205 164.82 578.805 167.42C579.405 170.02 580.305 172.06 581.505 173.54C582.745 175.02 584.265 175.76 586.065 175.76ZM613.372 182C612.492 182 611.752 181.7 611.152 181.1C610.592 180.5 610.312 179.78 610.312 178.94C610.312 178.06 610.592 177.34 611.152 176.78L628.192 156.86C629.392 155.46 630.312 154.14 630.952 152.9C631.632 151.66 631.972 150.48 631.972 149.36C631.972 147.6 631.672 146.08 631.072 144.8C630.472 143.52 629.612 142.54 628.492 141.86C627.372 141.14 626.032 140.78 624.472 140.78C622.952 140.78 621.572 141.18 620.332 141.98C619.132 142.74 618.172 143.78 617.452 145.1C616.772 146.38 616.432 147.8 616.432 149.36C616.432 150.16 616.132 150.86 615.532 151.46C614.972 152.06 614.252 152.36 613.372 152.36C612.532 152.36 611.812 152.06 611.212 151.46C610.612 150.86 610.312 150.16 610.312 149.36C610.312 146.64 610.932 144.22 612.172 142.1C613.412 139.94 615.092 138.24 617.212 137C619.372 135.76 621.792 135.14 624.472 135.14C627.192 135.14 629.552 135.72 631.552 136.88C633.552 138.04 635.092 139.68 636.172 141.8C637.292 143.92 637.852 146.44 637.852 149.36C637.852 150.64 637.572 151.94 637.012 153.26C636.492 154.58 635.812 155.84 634.972 157.04C634.172 158.24 633.352 159.32 632.512 160.28L618.772 175.88H635.572C636.452 175.88 637.192 176.2 637.792 176.84C638.392 177.44 638.692 178.14 638.692 178.94C638.692 179.78 638.392 180.5 637.792 181.1C637.192 181.7 636.452 182 635.572 182H613.372ZM662.746 182C659.986 182 657.526 181.4 655.366 180.2C653.246 178.96 651.586 177.28 650.386 175.16C649.186 173 648.586 170.54 648.586 167.78C648.586 164.98 649.186 162.52 650.386 160.4C651.586 158.24 653.246 156.56 655.366 155.36C657.526 154.12 659.986 153.5 662.746 153.5C665.506 153.5 667.946 154.12 670.066 155.36C672.186 156.56 673.846 158.24 675.046 160.4C676.246 162.52 676.846 164.98 676.846 167.78C676.846 170.54 676.246 173 675.046 175.16C673.846 177.28 672.186 178.96 670.066 180.2C667.946 181.4 665.506 182 662.746 182ZM662.686 176.6C664.326 176.6 665.766 176.24 667.006 175.52C668.286 174.76 669.286 173.72 670.006 172.4C670.726 171.04 671.086 169.5 671.086 167.78C671.086 166.02 670.726 164.48 670.006 163.16C669.286 161.84 668.286 160.8 667.006 160.04C665.766 159.28 664.326 158.9 662.686 158.9C661.046 158.9 659.586 159.28 658.306 160.04C657.066 160.8 656.086 161.84 655.366 163.16C654.686 164.48 654.346 166.02 654.346 167.78C654.346 169.5 654.686 171.04 655.366 172.4C656.086 173.72 657.066 174.76 658.306 175.52C659.586 176.24 661.046 176.6 662.686 176.6ZM650.566 160.1L664.486 136.88C665.206 135.76 666.126 135.2 667.246 135.2C668.086 135.2 668.786 135.44 669.346 135.92C669.906 136.4 670.246 137 670.366 137.72C670.526 138.44 670.386 139.16 669.946 139.88L661.426 154.04L650.566 160.1Z" fill="black"/>
</svg>
