<svg width="124" height="16" viewBox="0 0 124 16" fill="none" xmlns="http://www.w3.org/2000/svg">
<path d="M7.52 15.2C5.62667 15.2 3.97333 14.5333 2.56 13.2C1.16 11.8667 0.46 10.1333 0.46 8C0.46 5.78667 1.10667 4 2.4 2.64C3.69333 1.28 5.4 0.599999 7.52 0.599999C9.44 0.599999 11.1 1.29333 12.5 2.68C13.9133 4.06667 14.62 5.84 14.62 8C14.62 10.16 13.94 11.9 12.58 13.22C11.22 14.54 9.53333 15.2 7.52 15.2ZM8.72 13.52C9.82667 13.52 10.38 12.7733 10.38 11.28C10.38 10.2667 10.1667 9.06 9.74 7.66C9.31333 6.24667 8.75333 5 8.06 3.92C7.36667 2.82667 6.69333 2.28 6.04 2.28C4.96 2.28 4.42 3.04667 4.42 4.58C4.42 5.75333 4.62667 7.04 5.04 8.44C5.46667 9.84 6.02 11.04 6.7 12.04C7.39333 13.0267 8.06667 13.52 8.72 13.52ZM26.0581 12.66C26.0581 13.0333 26.0981 13.32 26.1781 13.52C26.2715 13.7067 26.3648 13.8133 26.4581 13.84C26.5515 13.8533 26.6381 13.9067 26.7181 14C26.8115 14.08 26.8581 14.2133 26.8581 14.4C26.8581 14.88 26.0981 15.12 24.5781 15.12C23.9248 15.12 23.4448 15.04 23.1381 14.88C22.8315 14.72 22.6448 14.4533 22.5781 14.08C22.0581 14.8267 21.1448 15.2 19.8381 15.2C18.8115 15.2 17.9315 14.86 17.1981 14.18C16.4648 13.5 16.0981 12.58 16.0981 11.42V8.14C16.0981 7.78 15.9581 7.42667 15.6781 7.08C15.4115 6.72 15.2781 6.46667 15.2781 6.32V6.24C15.2781 6.12 15.3248 6.01333 15.4181 5.92C15.5115 5.81333 15.6315 5.75333 15.7781 5.74L19.0981 5.3C19.8048 5.22 20.1581 5.37333 20.1581 5.76L20.0781 11.84C20.0648 12.5467 20.1381 13.04 20.2981 13.32C20.4581 13.6 20.7181 13.74 21.0781 13.74C21.3581 13.74 21.5915 13.58 21.7781 13.26C21.9781 12.94 22.0781 12.5267 22.0781 12.02V8.14C22.0781 7.78 21.9381 7.42667 21.6581 7.08C21.3915 6.72 21.2581 6.46667 21.2581 6.32V6.24C21.2581 6.12 21.3048 6.01333 21.3981 5.92C21.4915 5.81333 21.6115 5.75333 21.7581 5.74L25.0781 5.3C25.7315 5.22 26.0581 5.37333 26.0581 5.76V12.66ZM34.7484 5.2C35.3218 5.2 35.7751 5.4 36.1084 5.8C36.4551 6.18667 36.6284 6.68667 36.6284 7.3C36.6284 8.71333 36.0551 9.42 34.9084 9.42C34.4418 9.42 34.0884 9.32 33.8484 9.12C33.6218 8.90667 33.4884 8.67333 33.4484 8.42C33.4218 8.16667 33.3618 7.94 33.2684 7.74C33.1751 7.52667 33.0284 7.42 32.8284 7.42C32.5084 7.42 32.3484 7.83333 32.3484 8.66V12.6C32.3484 12.88 32.4418 13.1333 32.6284 13.36C32.8151 13.5867 33.0018 13.7933 33.1884 13.98C33.3751 14.1667 33.4684 14.34 33.4684 14.5V14.58C33.4684 14.86 33.3018 15 32.9684 15H28.1884C27.8551 15 27.6884 14.86 27.6884 14.58V14.5C27.6884 14.3267 27.8218 14.06 28.0884 13.7C28.3684 13.3267 28.5084 12.96 28.5084 12.6V9.18C28.5084 8.9 28.4218 8.66667 28.2484 8.48C28.0884 8.28 27.9218 8.10667 27.7484 7.96C27.5751 7.8 27.4884 7.64 27.4884 7.48V7.4C27.4884 7.16 27.6551 6.95333 27.9884 6.78L31.1684 5.28C31.4484 5.17333 31.6418 5.16667 31.7484 5.26C31.8684 5.35333 31.9284 5.52 31.9284 5.76V7.22C32.3684 5.87333 33.3084 5.2 34.7484 5.2ZM41.1419 15C40.8085 15 40.6419 14.86 40.6419 14.58V14.5C40.6419 14.3267 40.7752 14.06 41.0419 13.7C41.3219 13.3267 41.4619 12.96 41.4619 12.6V3.2C41.4619 2.84 41.3219 2.48 41.0419 2.12C40.7752 1.74667 40.6419 1.47333 40.6419 1.3V1.22C40.6419 0.939999 40.8085 0.799999 41.1419 0.799999H46.4619C48.4219 0.799999 49.9752 1.19333 51.1219 1.98C52.2819 2.76667 52.8619 3.96667 52.8619 5.58C52.8619 7.07333 52.3352 8.28 51.2819 9.2C50.2419 10.12 48.8685 10.58 47.1619 10.58H45.6219V12.6C45.6219 12.96 45.7752 13.3267 46.0819 13.7C46.3885 14.06 46.5419 14.3267 46.5419 14.5V14.58C46.5419 14.86 46.3752 15 46.0419 15H41.1419ZM46.6019 9.04H47.1619C47.6419 9.04 47.9952 8.8 48.2219 8.32C48.4619 7.82667 48.5819 7.23333 48.5819 6.54C48.5819 5.34 48.3552 4.34 47.9019 3.54C47.4619 2.74 46.9819 2.34 46.4619 2.34H46.4019C45.8819 2.34 45.6219 2.68667 45.6219 3.38V8C45.6219 8.69333 45.9485 9.04 46.6019 9.04ZM64.3372 6.42C64.3372 6.52667 64.2572 6.66667 64.0972 6.84C63.9505 7 63.7972 7.21333 63.6372 7.48C63.4905 7.73333 63.4172 8.03333 63.4172 8.38V12.6C63.4172 12.96 63.5505 13.3267 63.8172 13.7C64.0972 14.06 64.2372 14.3267 64.2372 14.5V14.58C64.2372 14.86 64.0705 15 63.7372 15H60.5772C60.2172 15 60.0239 14.8267 59.9972 14.48C59.4105 14.96 58.6572 15.2 57.7372 15.2C56.4439 15.2 55.3305 14.7667 54.3972 13.9C53.4639 13.02 52.9972 11.7867 52.9972 10.2C52.9972 8.74667 53.4639 7.55333 54.3972 6.62C55.3439 5.67333 56.4572 5.2 57.7372 5.2C58.6705 5.2 59.4239 5.43333 59.9972 5.9C60.0639 5.44667 60.4105 5.26667 61.0372 5.36L63.7972 5.72C64.1572 5.76 64.3372 5.96667 64.3372 6.34V6.42ZM58.6372 14.14C58.9172 14.1533 59.1439 14.04 59.3172 13.8C59.4905 13.56 59.5772 13.2333 59.5772 12.82V8.7C59.5772 7.94 59.4239 7.34667 59.1172 6.92C58.8239 6.48 58.4772 6.26 58.0772 6.26C57.3439 6.26 56.9439 6.95333 56.8772 8.34C56.8505 8.84667 56.8839 9.53333 56.9772 10.4C57.0839 11.2533 57.2839 12.0867 57.5772 12.9C57.8705 13.7 58.2239 14.1133 58.6372 14.14ZM72.4047 5.2C72.978 5.2 73.4314 5.4 73.7647 5.8C74.1114 6.18667 74.2847 6.68667 74.2847 7.3C74.2847 8.71333 73.7114 9.42 72.5647 9.42C72.098 9.42 71.7447 9.32 71.5047 9.12C71.278 8.90667 71.1447 8.67333 71.1047 8.42C71.078 8.16667 71.018 7.94 70.9247 7.74C70.8314 7.52667 70.6847 7.42 70.4847 7.42C70.1647 7.42 70.0047 7.83333 70.0047 8.66V12.6C70.0047 12.88 70.098 13.1333 70.2847 13.36C70.4714 13.5867 70.658 13.7933 70.8447 13.98C71.0314 14.1667 71.1247 14.34 71.1247 14.5V14.58C71.1247 14.86 70.958 15 70.6247 15H65.8447C65.5114 15 65.3447 14.86 65.3447 14.58V14.5C65.3447 14.3267 65.478 14.06 65.7447 13.7C66.0247 13.3267 66.1647 12.96 66.1647 12.6V9.18C66.1647 8.9 66.078 8.66667 65.9047 8.48C65.7447 8.28 65.578 8.10667 65.4047 7.96C65.2314 7.8 65.1447 7.64 65.1447 7.48V7.4C65.1447 7.16 65.3114 6.95333 65.6447 6.78L68.8247 5.28C69.1047 5.17333 69.298 5.16667 69.4047 5.26C69.5247 5.35333 69.5847 5.52 69.5847 5.76V7.22C70.0247 5.87333 70.9647 5.2 72.4047 5.2ZM78.9978 15.2C77.9445 15.2 77.1045 14.8667 76.4778 14.2C75.8645 13.52 75.5578 12.56 75.5578 11.32V6.9H74.9578C74.8111 6.9 74.6911 6.85333 74.5978 6.76C74.5045 6.65333 74.4578 6.53333 74.4578 6.4V5.9C74.4578 5.56667 74.6245 5.4 74.9578 5.4H75.2378C75.8911 5.4 76.4645 5.21333 76.9578 4.84C77.4511 4.46667 77.7711 3.97333 77.9178 3.36C78.0111 2.98667 78.2111 2.8 78.5178 2.8H79.0578C79.2311 2.8 79.3711 2.85333 79.4778 2.96C79.5845 3.05333 79.6378 3.18667 79.6378 3.36V5.4H81.5178C81.6645 5.4 81.7845 5.44667 81.8778 5.54C81.9711 5.63333 82.0178 5.75333 82.0178 5.9V6.4C82.0178 6.53333 81.9711 6.65333 81.8778 6.76C81.7845 6.85333 81.6645 6.9 81.5178 6.9H79.6378V11.4C79.6378 11.68 79.7111 11.9067 79.8578 12.08C80.0178 12.24 80.2178 12.32 80.4578 12.32C80.9378 12.32 81.3578 12.1067 81.7178 11.68C81.8778 11.5067 82.0511 11.4467 82.2378 11.5C82.4245 11.54 82.5178 11.66 82.5178 11.86C82.5178 12.74 82.2045 13.52 81.5778 14.2C80.9511 14.8667 80.0911 15.2 78.9978 15.2ZM94.2181 12.62C94.2448 12.9667 94.3715 13.3267 94.5981 13.7C94.8248 14.06 94.9381 14.3333 94.9381 14.52V14.6C94.9381 14.88 94.7715 15.02 94.4381 15.02H90.0181C89.6848 15.02 89.5181 14.88 89.5181 14.6V14.52C89.5181 14.3467 89.6448 14.08 89.8981 13.72C90.1515 13.3467 90.2648 12.98 90.2381 12.62L90.0381 9.16C89.9848 8.21333 89.8848 7.56 89.7381 7.2C89.5915 6.84 89.3248 6.66 88.9381 6.66C88.2848 6.66 87.9581 7.23333 87.9581 8.38V12.62C87.9581 12.98 88.1115 13.3467 88.4181 13.72C88.7248 14.08 88.8781 14.3467 88.8781 14.52V14.6C88.8781 14.88 88.7115 15.02 88.3781 15.02H83.5581C83.2248 15.02 83.0581 14.88 83.0581 14.6V14.52C83.0581 14.3467 83.2115 14.08 83.5181 13.72C83.8248 13.3467 83.9781 12.98 83.9781 12.62V9.24C83.9781 8.96 83.8848 8.72 83.6981 8.52C83.5115 8.30667 83.3248 8.12 83.1381 7.96C82.9515 7.78667 82.8581 7.62 82.8581 7.46V7.38C82.8581 7.20667 83.0315 7.02667 83.3781 6.84L86.5181 5.28C86.7848 5.16 86.9848 5.16 87.1181 5.28C87.2648 5.38667 87.3381 5.56 87.3381 5.8V6.62C87.8715 5.67333 88.8048 5.2 90.1381 5.2C91.1248 5.2 91.9781 5.52 92.6981 6.16C93.4181 6.78667 93.8381 7.83333 93.9581 9.3L94.2181 12.62ZM103.957 11.76C104.104 11.6 104.271 11.5533 104.457 11.62C104.644 11.6867 104.737 11.8333 104.737 12.06C104.737 12.7533 104.384 13.4533 103.677 14.16C102.971 14.8533 101.944 15.2 100.597 15.2C99.1039 15.2 97.8772 14.7333 96.9172 13.8C95.9705 12.8667 95.4972 11.6467 95.4972 10.14C95.4972 8.68667 95.9839 7.50667 96.9572 6.6C97.9439 5.68 99.1239 5.21333 100.497 5.2C101.737 5.18667 102.731 5.46 103.477 6.02C104.224 6.56667 104.597 7.28 104.597 8.16C104.597 8.85333 104.297 9.47333 103.697 10.02C103.111 10.5533 102.344 10.8867 101.397 11.02C100.864 11.1 100.337 11.14 99.8172 11.14C100.351 11.98 101.084 12.4 102.017 12.4C102.884 12.4 103.531 12.1867 103.957 11.76ZM100.057 6.36C99.7639 6.36 99.5239 6.53333 99.3372 6.88C99.1639 7.22667 99.0772 7.68667 99.0772 8.26C99.0772 8.91333 99.1572 9.50667 99.3172 10.04C99.4905 10.04 99.6039 10.0333 99.6572 10.02C100.537 9.88667 100.977 9.15333 100.977 7.82C100.977 7.40667 100.884 7.06 100.697 6.78C100.524 6.5 100.311 6.36 100.057 6.36ZM112.717 5.2C113.291 5.2 113.744 5.4 114.077 5.8C114.424 6.18667 114.597 6.68667 114.597 7.3C114.597 8.71333 114.024 9.42 112.877 9.42C112.411 9.42 112.057 9.32 111.817 9.12C111.591 8.90667 111.457 8.67333 111.417 8.42C111.391 8.16667 111.331 7.94 111.237 7.74C111.144 7.52667 110.997 7.42 110.797 7.42C110.477 7.42 110.317 7.83333 110.317 8.66V12.6C110.317 12.88 110.411 13.1333 110.597 13.36C110.784 13.5867 110.971 13.7933 111.157 13.98C111.344 14.1667 111.437 14.34 111.437 14.5V14.58C111.437 14.86 111.271 15 110.937 15H106.157C105.824 15 105.657 14.86 105.657 14.58V14.5C105.657 14.3267 105.791 14.06 106.057 13.7C106.337 13.3267 106.477 12.96 106.477 12.6V9.18C106.477 8.9 106.391 8.66667 106.217 8.48C106.057 8.28 105.891 8.10667 105.717 7.96C105.544 7.8 105.457 7.64 105.457 7.48V7.4C105.457 7.16 105.624 6.95333 105.957 6.78L109.137 5.28C109.417 5.17333 109.611 5.16667 109.717 5.26C109.837 5.35333 109.897 5.52 109.897 5.76V7.22C110.337 5.87333 111.277 5.2 112.717 5.2ZM119.392 15.18C118.099 15.18 117.026 14.9733 116.172 14.56C115.332 14.1333 114.912 13.5533 114.912 12.82C114.912 12.34 115.059 11.9867 115.352 11.76C115.646 11.52 116.026 11.4 116.492 11.4C116.986 11.4 117.379 11.5467 117.672 11.84C117.979 12.1333 118.172 12.46 118.252 12.82C118.346 13.1667 118.479 13.4867 118.652 13.78C118.839 14.0733 119.086 14.22 119.392 14.22C119.912 14.22 120.172 13.9133 120.172 13.3C120.172 12.8333 119.992 12.46 119.632 12.18C119.286 11.8867 118.866 11.6667 118.372 11.52C117.879 11.36 117.379 11.1867 116.872 11C116.379 10.8 115.952 10.48 115.592 10.04C115.246 9.6 115.072 9.02667 115.072 8.32C115.072 7.4 115.472 6.65333 116.272 6.08C117.072 5.49333 118.119 5.2 119.412 5.2C120.679 5.2 121.712 5.43333 122.512 5.9C123.312 6.35333 123.712 6.92667 123.712 7.62C123.712 7.99333 123.566 8.31333 123.272 8.58C122.979 8.84667 122.619 8.98 122.192 8.98C121.792 8.98 121.466 8.88667 121.212 8.7C120.959 8.5 120.779 8.26667 120.672 8C120.566 7.73333 120.472 7.46667 120.392 7.2C120.312 6.92 120.212 6.68667 120.092 6.5C119.986 6.3 119.832 6.2 119.632 6.2C119.206 6.2 118.992 6.52667 118.992 7.18C118.992 7.68667 119.159 8.1 119.492 8.42C119.826 8.72667 120.226 8.96667 120.692 9.14C121.172 9.3 121.646 9.47333 122.112 9.66C122.592 9.84667 122.999 10.1533 123.332 10.58C123.666 10.9933 123.832 11.5267 123.832 12.18C123.832 13.06 123.439 13.78 122.652 14.34C121.866 14.9 120.779 15.18 119.392 15.18Z" fill="black"/>
</svg>
