<svg width="139" height="16" viewBox="0 0 139 16" fill="none" xmlns="http://www.w3.org/2000/svg">
<path d="M8.18 15.2C3.6 15.2 0.56 12.1 0.56 7.9C0.56 3.68 3.44 0.879999 8.06 0.879999C12.6 0.879999 15.66 3.68 15.66 7.92C15.66 12.1 12.82 15.2 8.18 15.2ZM8.06 1.08C4.16 1.08 2.9 4.58 2.9 8.02C2.9 11.52 4.32 15 8.18 15C12.04 15 13.32 11.48 13.32 8.06C13.32 4.58 11.88 1.08 8.06 1.08ZM19.4509 6.5C19.1509 6.1 18.8709 5.72 18.3909 5.62H21.4709L21.3509 9.46L21.3309 11.34C21.3309 12.56 21.4709 14.94 23.6109 14.92C25.0109 14.9 25.9509 13.94 26.4909 13.1V11.34L26.5309 9.72C26.5509 7.58 26.6709 7.26 26.3309 6.52C26.0509 6.12 25.7509 5.74 25.2909 5.64H28.2909L28.1709 9.7C28.1509 11.84 28.1109 13.48 28.4509 14.22C28.7309 14.62 29.0909 14.84 29.5709 14.94C28.7309 15.02 27.4309 15.1 26.4709 15.1V13.54C25.8909 14.38 24.8909 15.2 23.4909 15.18C20.9309 15.16 19.6709 13.64 19.6909 11.62V9.48C19.7109 7.34 19.7709 7.24 19.4509 6.5ZM32.1139 5.64C33.2139 5.54 34.2939 5.48 35.3739 5.48C35.3739 6.28 35.3739 7.08 35.3939 7.86C35.7539 6.64 36.9339 5.56 38.2739 5.56C38.7539 5.56 39.6139 5.72 39.6139 6.32C39.6139 6.74 39.3539 7 39.0339 7C38.2339 7.02 38.1339 6.24 37.1939 6.32C35.7739 6.44 35.4139 9.34 35.3739 10.32C35.3539 11.72 35.3539 14.04 35.6339 14.52C35.7939 14.78 36.0539 14.94 36.3539 15H32.5139C32.8339 14.94 33.1139 14.78 33.2539 14.5C33.6539 13.86 33.5539 10.54 33.5539 9.62C33.5539 8.98 33.5739 6.88 33.2339 6.36C33.0139 5.98 32.5539 5.74 32.1139 5.64ZM53.0683 15H48.8883C49.0883 14.96 49.3283 14.86 49.5483 14.66C49.9883 14.3 50.0083 11.36 50.0083 10.56V4.86C50.0083 4.08 49.9883 1.78 49.5483 1.42C49.3283 1.22 49.1083 1.12 48.8883 1.08H53.5883C56.3683 1.08 59.9483 2.34 59.9483 5.62C59.9483 9.38 56.2283 10.8 52.7683 10.8C52.5283 10.8 52.2483 10.78 51.9683 10.76V11.2C51.9683 11.96 51.9883 14.28 52.3883 14.66C52.6283 14.86 52.8483 14.96 53.0683 15ZM51.9883 1.28L51.9683 10.48C52.2883 10.54 52.5883 10.56 52.8683 10.56C55.3283 10.56 57.8483 9.1 57.8483 5.96V5.94C57.8283 2.12 55.3883 1.28 51.9883 1.28ZM67.7414 15C64.7014 15.02 63.0814 14.16 63.0814 12.18C63.0814 10.18 65.0814 9.16 67.8814 9.24C68.4214 9.26 68.9814 9.4 69.4014 9.52V8.78C69.4014 7.36 69.2214 5.62 67.2814 5.62C66.2614 5.62 65.8814 6.2 65.6214 6.76C65.5814 6.82 65.5614 6.88 65.5214 6.94C65.5014 7.02 65.4614 7.08 65.4014 7.14C65.3414 7.24 65.3014 7.34 65.2214 7.44C65.1214 7.6 64.9614 7.7 64.6614 7.7C64.2414 7.7 64.0414 7.5 64.0414 7.1C64.0414 5.86 66.5414 5.48 67.4814 5.48C68.3214 5.48 69.7214 5.72 70.3614 6.26C71.0014 6.88 71.2214 7.72 71.2214 8.58L71.2014 12.18C71.2014 12.82 71.2214 14.08 71.4414 14.52C71.6214 14.8 71.8814 14.94 72.1614 15H67.7414ZM67.8414 9.4C65.2814 9.4 64.8414 10.84 64.8414 12.18C64.8414 13.52 65.2014 14.88 67.7414 14.88C68.1614 14.88 68.7614 14.88 69.0414 14.58C69.0414 14.56 69.0614 14.54 69.0814 14.5C69.3214 14.02 69.3614 12.8 69.3614 12.04L69.3814 9.64C69.0014 9.54 68.4814 9.4 67.8414 9.4ZM74.8209 5.64C75.9209 5.54 77.0009 5.48 78.0809 5.48C78.0809 6.28 78.0809 7.08 78.1009 7.86C78.4609 6.64 79.6409 5.56 80.9809 5.56C81.4609 5.56 82.3209 5.72 82.3209 6.32C82.3209 6.74 82.0609 7 81.7409 7C80.9409 7.02 80.8409 6.24 79.9009 6.32C78.4809 6.44 78.1209 9.34 78.0809 10.32C78.0609 11.72 78.0609 14.04 78.3409 14.52C78.5009 14.78 78.7609 14.94 79.0609 15H75.2209C75.5409 14.94 75.8209 14.78 75.9609 14.5C76.3609 13.86 76.2609 10.54 76.2609 9.62C76.2609 8.98 76.2809 6.88 75.9409 6.36C75.7209 5.98 75.2609 5.74 74.8209 5.64ZM84.845 5.62C87.405 5.54 87.725 3.94 87.845 2.4H88.785V5.52H91.465V5.82H88.785V13.52C88.785 14.36 89.145 14.68 89.605 14.68C90.265 14.68 91.145 13.98 91.305 13.3L91.465 13.44C90.525 15.22 89.525 15.2 88.845 15.2C87.845 15.2 86.905 14.36 86.905 13.42V5.82H84.845V5.62ZM95.2134 6.36C94.9334 5.96 94.5534 5.74 94.0734 5.64C94.9334 5.56 96.3934 5.48 97.3334 5.48V7C98.0134 6.26 99.3534 5.42 100.673 5.42C103.213 5.42 104.473 7.16 104.473 9.18V11.8C104.473 12.4 104.513 14.06 104.773 14.52C104.953 14.78 105.193 14.92 105.493 15H101.653C101.953 14.92 102.213 14.78 102.373 14.5C102.633 14.02 102.653 12.24 102.653 11.62L102.633 9.46C102.633 8.24 102.693 5.72 100.553 5.72C99.2734 5.72 97.9134 6.58 97.3334 7.36L97.3534 9.24L97.3334 12.02C97.3334 12.6 97.3334 14.06 97.5934 14.52C97.7534 14.8 98.0334 14.94 98.3134 15H94.4734C94.7934 14.94 95.0534 14.8 95.2334 14.5C95.5134 13.94 95.5134 12.42 95.5134 11.76C95.5134 9.12 95.5934 7.22 95.2134 6.36ZM108.289 10.46C108.289 7.52 110.109 5.48 113.129 5.48C115.949 5.48 117.709 7.44 117.769 10.24H110.349C110.349 12.56 110.749 14.94 113.709 14.94C115.049 14.94 116.629 14.04 117.429 12.72H117.569C116.889 14.3 114.989 15.2 113.389 15.2C110.449 15.2 108.289 13.4 108.289 10.46ZM113.229 5.68C111.049 5.68 110.529 8.5 110.369 10.04H115.809C115.749 8.54 115.529 5.68 113.229 5.68ZM120.399 5.64C121.499 5.54 122.579 5.48 123.659 5.48C123.659 6.28 123.659 7.08 123.679 7.86C124.039 6.64 125.219 5.56 126.559 5.56C127.039 5.56 127.899 5.72 127.899 6.32C127.899 6.74 127.639 7 127.319 7C126.519 7.02 126.419 6.24 125.479 6.32C124.059 6.44 123.699 9.34 123.659 10.32C123.639 11.72 123.639 14.04 123.919 14.52C124.079 14.78 124.339 14.94 124.639 15H120.799C121.119 14.94 121.399 14.78 121.539 14.5C121.939 13.86 121.839 10.54 121.839 9.62C121.839 8.98 121.859 6.88 121.519 6.36C121.299 5.98 120.839 5.74 120.399 5.64ZM131.043 7.86C131.043 5.98 133.163 5.06 135.003 5.14C135.743 5.18 137.083 5.46 137.783 5.76L137.803 6.22C137.803 6.76 137.763 7.28 137.723 7.8L137.603 7.82C137.423 6.56 136.303 5.38 134.603 5.38C133.523 5.38 132.663 6.26 132.663 7.44C132.663 9.94 138.403 9.16 138.403 12.58C138.403 14.62 136.063 15.56 134.163 15.5C132.883 15.46 132.023 15.08 131.263 14.6C131.243 14.3 131.243 14 131.243 13.7C131.243 13.38 131.243 13.08 131.263 12.76L131.403 12.74C131.663 14.1 132.703 15.3 134.503 15.22C135.843 15.16 136.803 14.4 136.783 13.1C136.743 10.54 131.043 11.44 131.043 7.86Z" fill="black"/>
<path d="M8.18 14.5C6.05162 14.5 4.32876 13.7824 3.14133 12.624C1.95412 11.4657 1.26 9.82618 1.26 7.9H-0.14C-0.14 10.1738 0.685883 12.1843 2.16367 13.626C3.64124 15.0676 5.72838 15.9 8.18 15.9V14.5ZM1.26 7.9C1.26 5.95491 1.9196 4.39352 3.05857 3.316C4.20111 2.2351 5.89132 1.58 8.06 1.58V0.179999C5.60868 0.179999 3.54889 0.924901 2.09643 2.299C0.640402 3.67648 -0.14 5.62509 -0.14 7.9H1.26ZM8.06 1.58C10.1867 1.58 11.9067 2.23416 13.0877 3.32436C14.2635 4.40973 14.96 5.97676 14.96 7.92H16.36C16.36 5.62324 15.5265 3.67027 14.0373 2.29564C12.5533 0.925836 10.4733 0.179999 8.06 0.179999V1.58ZM14.96 7.92C14.96 9.84913 14.3071 11.4838 13.1636 12.634C12.022 13.7822 10.3392 14.5 8.18 14.5V15.9C10.6608 15.9 12.718 15.0678 14.1564 13.621C15.5929 12.1762 16.36 10.1709 16.36 7.92H14.96ZM8.06 0.379999C5.85569 0.379999 4.34515 1.39087 3.42122 2.89332C2.52424 4.35197 2.2 6.23321 2.2 8.02H3.6C3.6 6.36679 3.90576 4.77803 4.61378 3.62668C5.29485 2.51913 6.36431 1.78 8.06 1.78V0.379999ZM2.2 8.02C2.2 9.84793 2.5682 11.7406 3.50305 13.2001C4.4619 14.697 5.99811 15.7 8.18 15.7V14.3C6.50189 14.3 5.3981 13.563 4.68195 12.4449C3.9418 11.2894 3.6 9.69207 3.6 8.02H2.2ZM8.18 15.7C10.3685 15.7 11.8724 14.6804 12.7941 13.1787C13.69 11.719 14.02 9.83908 14.02 8.06H12.62C12.62 9.70092 12.31 11.291 11.6009 12.4463C10.9176 13.5596 9.85152 14.3 8.18 14.3V15.7ZM14.02 8.06C14.02 6.23983 13.646 4.3484 12.7123 2.88795C11.7557 1.39163 10.226 0.379999 8.06 0.379999V1.78C9.71405 1.78 10.8143 2.51837 11.5327 3.64205C12.274 4.8016 12.62 6.40017 12.62 8.06H14.02ZM19.4509 6.5L20.0934 6.22216L20.0606 6.1462L20.0109 6.08L19.4509 6.5ZM18.3909 5.62V4.92L18.2482 6.30529L18.3909 5.62ZM21.4709 5.62L22.1706 5.64186L22.1932 4.92H21.4709V5.62ZM21.3509 9.46L20.6513 9.43814L20.6511 9.44534L20.651 9.45255L21.3509 9.46ZM21.3309 11.34L20.6309 11.3326V11.34H21.3309ZM23.6109 14.92L23.6175 15.62L23.6209 15.6199L23.6109 14.92ZM26.4909 13.1L27.0798 13.4785L27.1909 13.3056V13.1H26.4909ZM26.4909 11.34L25.7912 11.3227L25.7909 11.3314V11.34H26.4909ZM26.5309 9.72L27.2308 9.73728L27.2309 9.72654L26.5309 9.72ZM26.3309 6.52L26.967 6.22775L26.9406 6.17034L26.9044 6.11858L26.3309 6.52ZM25.2909 5.64V4.94L25.1422 6.32402L25.2909 5.64ZM28.2909 5.64L28.9906 5.66068L29.0119 4.94H28.2909V5.64ZM28.1709 9.7L27.4711 9.67931L27.471 9.69346L28.1709 9.7ZM28.4509 14.22L27.8149 14.5122L27.8412 14.5697L27.8775 14.6214L28.4509 14.22ZM29.5709 14.94L29.6373 15.6368L29.7137 14.2547L29.5709 14.94ZM26.4709 15.1H25.7709V15.8H26.4709V15.1ZM26.4709 13.54H27.1709V11.2942L25.8949 13.1423L26.4709 13.54ZM23.4909 15.18L23.5009 14.4801L23.4964 14.48L23.4909 15.18ZM19.6909 11.62L20.3909 11.6269V11.62H19.6909ZM19.6909 9.48L18.9909 9.47346V9.48H19.6909ZM20.0109 6.08C19.7488 5.73052 19.3175 5.098 18.5337 4.93471L18.2482 6.30529C18.3293 6.32219 18.4077 6.36233 18.5089 6.45746C18.6236 6.56527 18.7312 6.70703 18.8909 6.92L20.0109 6.08ZM18.3909 6.32H21.4709V4.92H18.3909V6.32ZM20.7713 5.59814L20.6513 9.43814L22.0506 9.48186L22.1706 5.64186L20.7713 5.59814ZM20.651 9.45255L20.631 11.3326L22.0309 11.3474L22.0509 9.46745L20.651 9.45255ZM20.6309 11.34C20.6309 11.9549 20.6617 12.9762 21.0199 13.8583C21.2032 14.3098 21.4861 14.7609 21.9275 15.0974C22.378 15.4407 22.9436 15.6263 23.6175 15.62L23.6044 14.22C23.2082 14.2237 22.9539 14.1193 22.7762 13.9839C22.5895 13.8416 22.4362 13.6252 22.317 13.3317C22.0702 12.7238 22.0309 11.9451 22.0309 11.34H20.6309ZM23.6209 15.6199C25.37 15.5949 26.4907 14.3949 27.0798 13.4785L25.9021 12.7215C25.4112 13.4851 24.6519 14.2051 23.6009 14.2201L23.6209 15.6199ZM27.1909 13.1V11.34H25.7909V13.1H27.1909ZM27.1907 11.3573L27.2307 9.73728L25.8312 9.70272L25.7912 11.3227L27.1907 11.3573ZM27.2309 9.72654C27.2404 8.70937 27.2759 8.02642 27.2658 7.57909C27.2539 7.05696 27.1821 6.69592 26.967 6.22775L25.6949 6.81225C25.8198 7.08408 25.858 7.25304 25.8661 7.6109C25.876 8.04358 25.8415 8.59063 25.831 9.71346L27.2309 9.72654ZM26.9044 6.11858C26.6398 5.74063 26.2 5.12128 25.4396 4.95598L25.1422 6.32402C25.3018 6.35872 25.462 6.49936 25.7575 6.92142L26.9044 6.11858ZM25.2909 6.34H28.2909V4.94H25.2909V6.34ZM27.5912 5.61932L27.4712 9.67932L28.8706 9.72068L28.9906 5.66068L27.5912 5.61932ZM27.471 9.69346C27.4611 10.7525 27.4456 11.7206 27.4765 12.5123C27.5062 13.2749 27.5799 14.0009 27.8149 14.5122L29.087 13.9278C28.982 13.6991 28.9057 13.2351 28.8754 12.4577C28.8463 11.7094 28.8608 10.7875 28.8709 9.70654L27.471 9.69346ZM27.8775 14.6214C28.2692 15.181 28.7906 15.4925 29.4282 15.6253L29.7137 14.2547C29.3912 14.1875 29.1927 14.059 29.0244 13.8186L27.8775 14.6214ZM29.5046 14.2432C28.6796 14.3217 27.4027 14.4 26.4709 14.4V15.8C27.4592 15.8 28.7823 15.7183 29.6373 15.6368L29.5046 14.2432ZM27.1709 15.1V13.54H25.7709V15.1H27.1709ZM25.8949 13.1423C25.3977 13.8624 24.5914 14.4957 23.5009 14.4801L23.4809 15.8799C25.1904 15.9043 26.3842 14.8976 27.047 13.9377L25.8949 13.1423ZM23.4964 14.48C22.3549 14.4711 21.5928 14.1313 21.1194 13.656C20.645 13.1798 20.3824 12.4893 20.3909 11.6269L18.991 11.6131C18.9795 12.7707 19.3368 13.8502 20.1275 14.644C20.919 15.4387 22.0669 15.8689 23.4855 15.88L23.4964 14.48ZM20.3909 11.62V9.48H18.9909V11.62H20.3909ZM20.3909 9.48654C20.4006 8.45067 20.4216 7.8407 20.3972 7.42416C20.3686 6.93414 20.2751 6.64231 20.0934 6.22216L18.8084 6.77784C18.9468 7.09769 18.9833 7.22586 18.9996 7.50584C19.0203 7.8593 19.0013 8.36933 18.991 9.47346L20.3909 9.48654ZM32.1139 5.64L32.0505 4.94287L31.9588 6.32259L32.1139 5.64ZM35.3739 5.48H36.0739V4.78H35.3739V5.48ZM35.3939 7.86L34.6941 7.87794L36.0653 8.05811L35.3939 7.86ZM39.0339 7V6.3H39.0252L39.0164 6.30022L39.0339 7ZM37.1939 6.32L37.2529 7.01751L37.2533 7.01748L37.1939 6.32ZM35.3739 10.32L34.6745 10.2915L34.6741 10.3007L34.674 10.31L35.3739 10.32ZM35.6339 14.52L35.0293 14.8727L35.0334 14.8798L35.0377 14.8869L35.6339 14.52ZM36.3539 15V15.7L36.4912 14.3136L36.3539 15ZM32.5139 15L32.3849 14.312L32.5139 15.7V15ZM33.2539 14.5L32.6603 14.129L32.6427 14.1572L32.6278 14.187L33.2539 14.5ZM33.2339 6.36L32.6281 6.71072L32.6376 6.72717L32.648 6.74307L33.2339 6.36ZM32.1773 6.33712C33.2614 6.23856 34.3197 6.18 35.3739 6.18V4.78C34.2681 4.78 33.1664 4.84144 32.0505 4.94287L32.1773 6.33712ZM34.6739 5.48C34.6739 6.27834 34.6739 7.08742 34.6941 7.87794L36.0937 7.84206C36.0739 7.07258 36.0739 6.28166 36.0739 5.48H34.6739ZM36.0653 8.05811C36.3553 7.07522 37.303 6.26 38.2739 6.26V4.86C36.5648 4.86 35.1525 6.20478 34.7225 7.66189L36.0653 8.05811ZM38.2739 6.26C38.4573 6.26 38.6924 6.29329 38.8538 6.36081C38.9318 6.39339 38.9528 6.41759 38.9483 6.41257C38.9323 6.39458 38.9139 6.35493 38.9139 6.32H40.3139C40.3139 5.59941 39.7722 5.22735 39.394 5.06919C39.0054 4.90671 38.5705 4.86 38.2739 4.86V6.26ZM38.9139 6.32C38.9139 6.38492 38.8955 6.38067 38.9219 6.35107C38.934 6.33753 38.9518 6.32359 38.9744 6.3135C38.997 6.30342 39.0182 6.3 39.0339 6.3V7.7C39.8125 7.7 40.3139 7.05048 40.3139 6.32H38.9139ZM39.0164 6.30022C38.8944 6.30327 38.8564 6.28066 38.5873 6.07819C38.4605 5.98277 38.2719 5.84386 38.0252 5.74529C37.7664 5.64187 37.4743 5.5936 37.1345 5.62252L37.2533 7.01748C37.3835 7.00639 37.4564 7.02563 37.5057 7.04534C37.5672 7.06989 37.6298 7.10973 37.7455 7.19681C37.9615 7.35934 38.3734 7.71673 39.0514 7.69978L39.0164 6.30022ZM37.135 5.62249C36.5214 5.67433 36.0708 6.02893 35.7614 6.43082C35.4569 6.82634 35.2472 7.3174 35.0989 7.78661C34.8013 8.7285 34.696 9.76516 34.6745 10.2915L36.0733 10.3485C36.0918 9.89483 36.1865 8.9915 36.4339 8.20838C36.5581 7.8151 36.7071 7.49741 36.8708 7.2848C37.0295 7.07857 37.1564 7.02567 37.2529 7.01751L37.135 5.62249ZM34.674 10.31C34.6639 11.0127 34.6587 11.9582 34.692 12.7929C34.7086 13.2091 34.7352 13.6107 34.7779 13.9465C34.7993 14.1142 34.826 14.2765 34.8606 14.4216C34.8926 14.5555 34.9422 14.7235 35.0293 14.8727L36.2386 14.1673C36.2556 14.1965 36.244 14.187 36.2224 14.0966C36.2035 14.0176 36.1845 13.9089 36.1667 13.7697C36.1314 13.4918 36.1068 13.1359 36.0909 12.7371C36.0591 11.9418 36.0639 11.0273 36.0738 10.33L34.674 10.31ZM35.0377 14.8869C35.315 15.3374 35.7566 15.5944 36.2166 15.6864L36.4912 14.3136C36.3512 14.2856 36.2728 14.2226 36.2301 14.1531L35.0377 14.8869ZM36.3539 14.3H32.5139V15.7H36.3539V14.3ZM32.6429 15.688C33.0992 15.6025 33.611 15.3511 33.88 14.813L32.6278 14.187C32.6168 14.2089 32.5686 14.2775 32.3849 14.312L32.6429 15.688ZM33.8475 14.871C33.9603 14.6906 34.0232 14.4771 34.0637 14.3019C34.1075 14.1124 34.14 13.8977 34.1651 13.6753C34.2154 13.2298 34.241 12.7025 34.2537 12.1821C34.2789 11.1475 34.2539 10.0538 34.2539 9.62H32.8539C32.8539 10.1062 32.8789 11.1325 32.8541 12.1479C32.8418 12.6525 32.8174 13.1327 32.7739 13.5184C32.7522 13.7116 32.7269 13.8686 32.6996 13.9867C32.669 14.1192 32.6475 14.1494 32.6603 14.129L33.8475 14.871ZM34.2539 9.62C34.2539 9.30661 34.2591 8.59968 34.2203 7.90588C34.2009 7.55955 34.1698 7.20048 34.1181 6.88542C34.0719 6.60381 33.9932 6.24219 33.8198 5.97693L32.648 6.74307C32.6446 6.7378 32.6909 6.83369 32.7366 7.11208C32.7768 7.35702 32.8044 7.66045 32.8225 7.98412C32.8587 8.63032 32.8539 9.29339 32.8539 9.62H34.2539ZM33.8397 6.00927C33.4816 5.39064 32.8019 5.07851 32.269 4.95741L31.9588 6.32259C32.3059 6.40149 32.5463 6.56936 32.6281 6.71072L33.8397 6.00927ZM53.0683 15V15.7L53.1935 14.3113L53.0683 15ZM48.8883 15L48.751 14.3136L48.8883 15.7V15ZM49.5483 14.66L49.105 14.1182L49.0909 14.1298L49.0774 14.142L49.5483 14.66ZM49.5483 1.42L49.0774 1.93796L49.0909 1.95022L49.105 1.96177L49.5483 1.42ZM48.8883 1.08V0.379999L48.7631 1.76871L48.8883 1.08ZM51.9683 10.76L52.0182 10.0618L51.2683 10.0082V10.76H51.9683ZM52.3883 14.66L51.9062 15.1675L51.9227 15.1832L51.9402 15.1978L52.3883 14.66ZM51.9883 1.28V0.579999H51.2898L51.2883 1.27848L51.9883 1.28ZM51.9683 10.48L51.2683 10.4785L51.267 11.0607L51.8393 11.168L51.9683 10.48ZM57.8483 5.94L58.5483 5.94L58.5483 5.93633L57.8483 5.94ZM53.0683 14.3H48.8883V15.7H53.0683V14.3ZM49.0256 15.6864C49.3374 15.624 49.6963 15.4715 50.0192 15.178L49.0774 14.142C48.9603 14.2485 48.8391 14.296 48.751 14.3136L49.0256 15.6864ZM49.9915 15.2018C50.1988 15.0322 50.2999 14.7953 50.3516 14.6541C50.4129 14.4869 50.4583 14.2976 50.4937 14.1095C50.565 13.7307 50.611 13.2727 50.6417 12.8226C50.7034 11.9177 50.7083 10.9629 50.7083 10.56H49.3083C49.3083 10.9571 49.3032 11.8723 49.2449 12.7274C49.2156 13.1573 49.1741 13.5518 49.1179 13.8505C49.0895 14.0011 49.0612 14.1068 49.0371 14.1724C49.0035 14.2641 49.0077 14.1978 49.105 14.1182L49.9915 15.2018ZM50.7083 10.56V4.86H49.3083V10.56H50.7083ZM50.7083 4.86C50.7083 4.46742 50.7034 3.67269 50.6408 2.92417C50.6097 2.55214 50.5626 2.1689 50.4881 1.84346C50.451 1.68114 50.4027 1.51398 50.3371 1.36187C50.2769 1.22224 50.1737 1.02724 49.9915 0.87823L49.105 1.96177C49.0329 1.90276 49.0266 1.85838 49.0516 1.91649C49.0713 1.96212 49.0969 2.03979 49.1234 2.15591C49.1764 2.38735 49.2168 2.69536 49.2457 3.04083C49.3031 3.72731 49.3083 4.47258 49.3083 4.86H50.7083ZM50.0192 0.902041C49.7057 0.617063 49.367 0.455562 49.0135 0.391291L48.7631 1.76871C48.8496 1.78444 48.9509 1.82294 49.0774 1.93796L50.0192 0.902041ZM48.8883 1.78H53.5883V0.379999H48.8883V1.78ZM53.5883 1.78C54.8904 1.78 56.35 2.07806 57.458 2.7246C58.5422 3.35721 59.2483 4.28824 59.2483 5.62H60.6483C60.6483 3.67176 59.5644 2.33279 58.1636 1.5154C56.7866 0.711943 55.0661 0.379999 53.5883 0.379999V1.78ZM59.2483 5.62C59.2483 7.22026 58.4779 8.30388 57.2932 9.02121C56.0753 9.75864 54.4192 10.1 52.7683 10.1V11.5C54.5774 11.5 56.5112 11.1314 58.0183 10.2188C59.5587 9.28612 60.6483 7.77974 60.6483 5.62H59.2483ZM52.7683 10.1C52.5583 10.1 52.3052 10.0823 52.0182 10.0618L51.9184 11.4582C52.1914 11.4777 52.4983 11.5 52.7683 11.5V10.1ZM51.2683 10.76V11.2H52.6683V10.76H51.2683ZM51.2683 11.2C51.2683 11.583 51.2732 12.3752 51.3303 13.1256C51.3587 13.4989 51.4014 13.8818 51.4682 14.2069C51.5015 14.3689 51.5443 14.534 51.6018 14.684C51.6538 14.8196 51.7435 15.013 51.9062 15.1675L52.8704 14.1525C52.9331 14.212 52.9347 14.2497 52.909 14.1828C52.8888 14.1302 52.8644 14.0458 52.8396 13.925C52.7901 13.6844 52.7529 13.3686 52.7263 13.0194C52.6734 12.3248 52.6683 11.577 52.6683 11.2H51.2683ZM51.9402 15.1978C52.2596 15.464 52.5882 15.6242 52.9431 15.6887L53.1935 14.3113C53.1084 14.2958 52.9969 14.256 52.8364 14.1222L51.9402 15.1978ZM51.2883 1.27848L51.2683 10.4785L52.6683 10.4815L52.6883 1.28152L51.2883 1.27848ZM51.8393 11.168C52.2101 11.2375 52.5544 11.26 52.8683 11.26V9.86C52.6222 9.86 52.3664 9.84245 52.0973 9.79199L51.8393 11.168ZM52.8683 11.26C54.2267 11.26 55.6361 10.8584 56.7207 9.98198C57.8245 9.09012 58.5483 7.73912 58.5483 5.96H57.1483C57.1483 7.32087 56.6121 8.26988 55.8408 8.89302C55.0505 9.53165 53.9698 9.86 52.8683 9.86V11.26ZM58.5483 5.96V5.94H57.1483V5.96H58.5483ZM58.5483 5.93633C58.5374 3.86279 57.8564 2.44477 56.5724 1.59398C55.353 0.785941 53.7132 0.579999 51.9883 0.579999V1.98C53.6633 1.98 54.9435 2.19406 55.7991 2.76101C56.5902 3.28523 57.1391 4.19721 57.1483 5.94366L58.5483 5.93633ZM67.7414 15V14.3L67.7368 14.3L67.7414 15ZM67.8814 9.24L67.9073 8.54045L67.9014 8.54029L67.8814 9.24ZM69.4014 9.52L69.2091 10.1931L70.1014 10.448V9.52H69.4014ZM65.6214 6.76L66.2038 7.14829L66.2337 7.10355L66.2563 7.05478L65.6214 6.76ZM65.5214 6.94L64.939 6.55171L64.8717 6.6526L64.8423 6.77022L65.5214 6.94ZM65.4014 7.14L64.9064 6.64503L64.8455 6.70596L64.8012 6.77985L65.4014 7.14ZM65.2214 7.44L64.6748 7.00271L64.6494 7.03449L64.6278 7.069L65.2214 7.44ZM70.3614 6.26L70.8485 5.75723L70.8312 5.7405L70.8128 5.725L70.3614 6.26ZM71.2214 8.58L71.9214 8.58389V8.58H71.2214ZM71.2014 12.18L70.5014 12.1761V12.18H71.2014ZM71.4414 14.52L70.8153 14.833L70.8322 14.8668L70.8526 14.8985L71.4414 14.52ZM72.1614 15V15.7L72.3081 14.3155L72.1614 15ZM69.0414 14.58L69.5531 15.0576L69.7414 14.8559V14.58H69.0414ZM69.0814 14.5L68.4553 14.187L68.4553 14.187L69.0814 14.5ZM69.3614 12.04L68.6614 12.0342V12.04H69.3614ZM69.3814 9.64L70.0814 9.64583L70.0859 9.10156L69.5596 8.96305L69.3814 9.64ZM67.7368 14.3C66.2589 14.3097 65.2469 14.1003 64.6253 13.7361C64.0667 13.4087 63.7814 12.9358 63.7814 12.18H62.3814C62.3814 13.4042 62.9061 14.3513 63.9175 14.9439C64.8659 15.4997 66.1839 15.7103 67.746 15.7L67.7368 14.3ZM63.7814 12.18C63.7814 11.4607 64.1202 10.9213 64.7837 10.5349C65.4805 10.1291 66.5357 9.90184 67.8614 9.93971L67.9014 8.54029C66.4271 8.49816 65.0823 8.74091 64.0791 9.3251C63.0426 9.92874 62.3814 10.8993 62.3814 12.18H63.7814ZM67.8555 9.93952C68.3068 9.95624 68.7993 10.076 69.2091 10.1931L69.5937 8.84693C69.1635 8.72403 68.536 8.56376 67.9073 8.54048L67.8555 9.93952ZM70.1014 9.52V8.78H68.7014V9.52H70.1014ZM70.1014 8.78C70.1014 8.07062 70.0629 7.13778 69.7026 6.37006C69.5147 5.96978 69.231 5.5948 68.8083 5.32439C68.3855 5.0539 67.8734 4.92 67.2814 4.92V6.32C67.6594 6.32 67.8974 6.4036 68.0539 6.50373C68.2105 6.60395 68.3356 6.75272 68.4352 6.96493C68.6499 7.42222 68.7014 8.06938 68.7014 8.78H70.1014ZM67.2814 4.92C66.6249 4.92 66.11 5.11196 65.7152 5.44483C65.3403 5.76094 65.1281 6.16033 64.9865 6.46522L66.2563 7.05478C66.3748 6.79967 66.4825 6.62906 66.6176 6.51517C66.7328 6.41804 66.9179 6.32 67.2814 6.32V4.92ZM65.039 6.37171C64.9912 6.44333 64.9581 6.51138 64.9453 6.53695C64.9281 6.57138 64.9312 6.56333 64.939 6.55171L66.1038 7.32829C66.1516 7.25667 66.1847 7.18861 66.1975 7.16305C66.2147 7.12861 66.2116 7.13667 66.2038 7.14829L65.039 6.37171ZM64.8423 6.77022C64.8497 6.74048 64.8628 6.70903 64.8802 6.68063C64.8962 6.65463 64.9092 6.64221 64.9064 6.64503L65.8964 7.63497C66.0195 7.51187 66.1417 7.34486 66.2005 7.10977L64.8423 6.77022ZM64.8012 6.77985C64.7777 6.81896 64.7579 6.85528 64.7426 6.88359C64.7247 6.91705 64.7174 6.9311 64.7056 6.95266C64.6866 6.98709 64.6788 6.99768 64.6748 7.00271L65.768 7.87729C65.844 7.78232 65.8962 7.69291 65.9323 7.62734C65.978 7.54417 65.9795 7.53709 66.0017 7.50015L64.8012 6.77985ZM64.6278 7.069C64.6301 7.06531 64.6381 7.05355 64.6533 7.03922C64.669 7.02435 64.6867 7.01225 64.7034 7.0039C64.7364 6.98737 64.7359 7 64.6614 7V8.4C64.8869 8.4 65.1164 8.36263 65.3295 8.2561C65.5505 8.14557 65.7068 7.98415 65.815 7.811L64.6278 7.069ZM64.6614 7C64.6096 7 64.5937 6.99356 64.6015 6.99605C64.6126 6.99964 64.6465 7.01357 64.6827 7.04895C64.7194 7.08472 64.7365 7.12088 64.7425 7.13865C64.7472 7.15259 64.7414 7.14392 64.7414 7.1H63.3414C63.3414 7.40793 63.419 7.77197 63.7051 8.05105C63.9878 8.32684 64.352 8.4 64.6614 8.4V7ZM64.7414 7.1C64.7414 7.05673 64.7537 6.9805 64.8979 6.85891C65.0523 6.72874 65.3017 6.5997 65.6323 6.4884C66.2912 6.26653 67.0741 6.18 67.4814 6.18V4.78C66.9487 4.78 66.0116 4.88347 65.1855 5.16159C64.7736 5.3003 64.3392 5.49875 63.9955 5.78859C63.6416 6.087 63.3414 6.52326 63.3414 7.1H64.7414ZM67.4814 6.18C67.8451 6.18 68.3507 6.23322 68.8341 6.34843C69.3373 6.46834 69.7173 6.63238 69.91 6.795L70.8128 5.725C70.3656 5.34762 69.7255 5.12166 69.1587 4.98657C68.5721 4.84678 67.9577 4.78 67.4814 4.78V6.18ZM69.8744 6.76277C70.3307 7.20489 70.5214 7.8312 70.5214 8.58H71.9214C71.9214 7.60879 71.6721 6.5551 70.8485 5.75723L69.8744 6.76277ZM70.5214 8.57611L70.5014 12.1761L71.9014 12.1839L71.9214 8.58389L70.5214 8.57611ZM70.5014 12.18C70.5014 12.5046 70.5064 12.9997 70.5407 13.4754C70.5579 13.7129 70.5831 13.9567 70.6213 14.1779C70.6571 14.3852 70.7132 14.6288 70.8153 14.833L72.0675 14.207C72.0679 14.2077 72.0651 14.2022 72.0601 14.1885C72.0552 14.1751 72.0492 14.1565 72.0424 14.1321C72.0287 14.0827 72.0145 14.0186 72.0009 13.9396C71.9735 13.7808 71.9524 13.5871 71.9371 13.3746C71.9064 12.9503 71.9014 12.4954 71.9014 12.18H70.5014ZM70.8526 14.8985C71.1548 15.3686 71.5952 15.5946 72.0147 15.6845L72.3081 14.3155C72.1676 14.2854 72.0881 14.2314 72.0302 14.1415L70.8526 14.8985ZM72.1614 14.3H67.7414V15.7H72.1614V14.3ZM67.8414 8.7C66.4319 8.7 65.4456 9.10087 64.8388 9.84521C64.2552 10.5612 64.1414 11.4564 64.1414 12.18H65.5414C65.5414 11.5636 65.6476 11.0688 65.924 10.7298C66.1772 10.4191 66.6909 10.1 67.8414 10.1V8.7ZM64.1414 12.18C64.1414 12.8839 64.2285 13.7676 64.7931 14.4708C65.3832 15.2057 66.354 15.58 67.7414 15.58V14.18C66.5889 14.18 66.1096 13.8743 65.8847 13.5942C65.6343 13.2824 65.5414 12.8161 65.5414 12.18H64.1414ZM67.7414 15.58C67.9422 15.58 68.2523 15.5814 68.5531 15.5339C68.8375 15.489 69.2507 15.3817 69.5531 15.0576L68.5297 14.1024C68.5521 14.0783 68.5253 14.121 68.3347 14.1511C68.1605 14.1786 67.9606 14.18 67.7414 14.18V15.58ZM69.7414 14.58C69.7414 14.694 69.7124 14.7819 69.6921 14.8312C69.6735 14.8764 69.6543 14.9075 69.6542 14.9076C69.6531 14.9093 69.6524 14.9104 69.6554 14.9056C69.6576 14.9022 69.662 14.895 69.667 14.8867C69.6774 14.8692 69.692 14.8441 69.7075 14.813L68.4553 14.187C68.4613 14.1749 68.4796 14.1441 68.4537 14.1874C68.4461 14.2 68.4205 14.2424 68.3976 14.2982C68.3729 14.3581 68.3414 14.456 68.3414 14.58H69.7414ZM69.7075 14.813C69.8948 14.4386 69.9696 13.8866 70.0088 13.4356C70.0513 12.9468 70.0614 12.4291 70.0614 12.04H68.6614C68.6614 12.4109 68.6515 12.8832 68.614 13.3144C68.5733 13.7834 68.5081 14.0814 68.4553 14.187L69.7075 14.813ZM70.0614 12.0458L70.0814 9.64583L68.6814 9.63417L68.6614 12.0342L70.0614 12.0458ZM69.5596 8.96305C69.1805 8.86329 68.5816 8.7 67.8414 8.7V10.1C68.3812 10.1 68.8223 10.2167 69.2033 10.317L69.5596 8.96305ZM74.8209 5.64L74.7576 4.94287L74.6658 6.32259L74.8209 5.64ZM78.0809 5.48H78.7809V4.78H78.0809V5.48ZM78.1009 7.86L77.4012 7.87794L78.7723 8.05811L78.1009 7.86ZM81.7409 7V6.3H81.7322L81.7234 6.30022L81.7409 7ZM79.9009 6.32L79.9599 7.01751L79.9603 7.01748L79.9009 6.32ZM78.0809 10.32L77.3815 10.2915L77.3811 10.3007L77.381 10.31L78.0809 10.32ZM78.3409 14.52L77.7363 14.8727L77.7405 14.8798L77.7448 14.8869L78.3409 14.52ZM79.0609 15V15.7L79.1982 14.3136L79.0609 15ZM75.2209 15L75.0919 14.312L75.2209 15.7V15ZM75.9609 14.5L75.3673 14.129L75.3497 14.1572L75.3348 14.187L75.9609 14.5ZM75.9409 6.36L75.3351 6.71072L75.3447 6.72717L75.3551 6.74307L75.9409 6.36ZM74.8843 6.33712C75.9685 6.23856 77.0268 6.18 78.0809 6.18V4.78C76.9751 4.78 75.8734 4.84144 74.7576 4.94287L74.8843 6.33712ZM77.3809 5.48C77.3809 6.27834 77.3809 7.08742 77.4012 7.87794L78.8007 7.84206C78.781 7.07258 78.7809 6.28166 78.7809 5.48H77.3809ZM78.7723 8.05811C79.0624 7.07522 80.01 6.26 80.9809 6.26V4.86C79.2718 4.86 77.8595 6.20478 77.4296 7.66189L78.7723 8.05811ZM80.9809 6.26C81.1644 6.26 81.3994 6.29329 81.5609 6.36081C81.6388 6.39339 81.6598 6.41759 81.6553 6.41257C81.6394 6.39458 81.6209 6.35493 81.6209 6.32H83.0209C83.0209 5.59941 82.4792 5.22735 82.101 5.06919C81.7124 4.90671 81.2775 4.86 80.9809 4.86V6.26ZM81.6209 6.32C81.6209 6.38492 81.6025 6.38067 81.629 6.35107C81.6411 6.33753 81.6589 6.32359 81.6815 6.3135C81.7041 6.30342 81.7252 6.3 81.7409 6.3V7.7C82.5195 7.7 83.0209 7.05048 83.0209 6.32H81.6209ZM81.7234 6.30022C81.6014 6.30327 81.5634 6.28066 81.2944 6.07819C81.1676 5.98277 80.9789 5.84386 80.7322 5.74529C80.4734 5.64187 80.1813 5.5936 79.8416 5.62252L79.9603 7.01748C80.0905 7.00639 80.1634 7.02563 80.2128 7.04534C80.2742 7.06989 80.3368 7.10973 80.4525 7.19681C80.6685 7.35934 81.0805 7.71673 81.7584 7.69978L81.7234 6.30022ZM79.842 5.62249C79.2285 5.67433 78.7778 6.02893 78.4684 6.43082C78.164 6.82634 77.9542 7.3174 77.806 7.78661C77.5084 8.7285 77.403 9.76516 77.3815 10.2915L78.7804 10.3485C78.7989 9.89483 78.8935 8.9915 79.1409 8.20838C79.2652 7.8151 79.4142 7.49741 79.5778 7.2848C79.7366 7.07857 79.8634 7.02567 79.9599 7.01751L79.842 5.62249ZM77.381 10.31C77.371 11.0127 77.3657 11.9582 77.399 12.7929C77.4156 13.2091 77.4422 13.6107 77.485 13.9465C77.5063 14.1142 77.533 14.2765 77.5677 14.4216C77.5996 14.5555 77.6493 14.7235 77.7363 14.8727L78.9456 14.1673C78.9626 14.1965 78.951 14.187 78.9294 14.0966C78.9106 14.0176 78.8915 13.9089 78.8738 13.7697C78.8384 13.4918 78.8138 13.1359 78.7979 12.7371C78.7662 11.9418 78.7709 11.0273 78.7809 10.33L77.381 10.31ZM77.7448 14.8869C78.022 15.3374 78.4637 15.5944 78.9237 15.6864L79.1982 14.3136C79.0582 14.2856 78.9798 14.2226 78.9371 14.1531L77.7448 14.8869ZM79.0609 14.3H75.2209V15.7H79.0609V14.3ZM75.3499 15.688C75.8062 15.6025 76.318 15.3511 76.587 14.813L75.3348 14.187C75.3238 14.2089 75.2757 14.2775 75.0919 14.312L75.3499 15.688ZM76.5545 14.871C76.6673 14.6906 76.7302 14.4771 76.7707 14.3019C76.8145 14.1124 76.8471 13.8977 76.8722 13.6753C76.9224 13.2298 76.948 12.7025 76.9607 12.1821C76.986 11.1475 76.9609 10.0538 76.9609 9.62H75.5609C75.5609 10.1062 75.5859 11.1325 75.5611 12.1479C75.5488 12.6525 75.5245 13.1327 75.481 13.5184C75.4592 13.7116 75.4339 13.8686 75.4066 13.9867C75.376 14.1192 75.3546 14.1494 75.3673 14.129L76.5545 14.871ZM76.9609 9.62C76.9609 9.30661 76.9662 8.59968 76.9273 7.90588C76.908 7.55955 76.8768 7.20048 76.8251 6.88542C76.7789 6.60381 76.7003 6.24219 76.5268 5.97693L75.3551 6.74307C75.3516 6.7378 75.3979 6.83369 75.4436 7.11208C75.4838 7.35702 75.5114 7.66045 75.5295 7.98412C75.5657 8.63032 75.5609 9.29339 75.5609 9.62H76.9609ZM76.5467 6.00927C76.1886 5.39064 75.5089 5.07851 74.9761 4.95741L74.6658 6.32259C75.0129 6.40149 75.2533 6.56936 75.3351 6.71072L76.5467 6.00927ZM84.845 5.62L84.8231 4.92034L84.145 4.94153V5.62H84.845ZM87.845 2.4V1.7H87.1974L87.1471 2.34562L87.845 2.4ZM88.785 2.4H89.485V1.7H88.785V2.4ZM88.785 5.52H88.085V6.22H88.785V5.52ZM91.465 5.52H92.165V4.82H91.465V5.52ZM91.465 5.82V6.52H92.165V5.82H91.465ZM88.785 5.82V5.12H88.085V5.82H88.785ZM91.305 13.3L91.766 12.7732L90.8902 12.0069L90.6236 13.1397L91.305 13.3ZM91.465 13.44L92.084 13.7669L92.3424 13.2776L91.926 12.9132L91.465 13.44ZM86.905 5.82H87.605V5.12H86.905V5.82ZM84.845 5.82H84.145V6.52H84.845V5.82ZM84.8669 6.31966C86.3056 6.2747 87.263 5.78722 87.8365 4.95458C88.3688 4.18173 88.4831 3.22187 88.5429 2.45438L87.1471 2.34562C87.0869 3.11813 86.9812 3.72826 86.6835 4.16042C86.427 4.53278 85.9444 4.8853 84.8231 4.92034L84.8669 6.31966ZM87.845 3.1H88.785V1.7H87.845V3.1ZM88.085 2.4V5.52H89.485V2.4H88.085ZM88.785 6.22H91.465V4.82H88.785V6.22ZM90.765 5.52V5.82H92.165V5.52H90.765ZM91.465 5.12H88.785V6.52H91.465V5.12ZM88.085 5.82V13.52H89.485V5.82H88.085ZM88.085 13.52C88.085 14.0261 88.1916 14.4957 88.4752 14.8514C88.7778 15.231 89.2006 15.38 89.605 15.38V13.98C89.571 13.98 89.5602 13.9742 89.5637 13.9757C89.5699 13.9784 89.573 13.9827 89.5698 13.9786C89.5584 13.9643 89.485 13.8539 89.485 13.52H88.085ZM89.605 15.38C90.1539 15.38 90.6903 15.1056 91.0818 14.79C91.4763 14.472 91.8585 14.0037 91.9864 13.4603L90.6236 13.1397C90.5915 13.2763 90.4537 13.498 90.2032 13.7C89.9497 13.9044 89.7161 13.98 89.605 13.98V15.38ZM90.844 13.8268L91.004 13.9668L91.926 12.9132L91.766 12.7732L90.844 13.8268ZM90.846 13.1131C90.4248 13.9108 90.0358 14.2213 89.7542 14.3566C89.4624 14.4969 89.1933 14.5 88.845 14.5V15.9C89.1767 15.9 89.7476 15.9131 90.3608 15.6184C90.9842 15.3187 91.5652 14.7492 92.084 13.7669L90.846 13.1131ZM88.845 14.5C88.5375 14.5 88.2164 14.3679 87.9711 14.1447C87.7247 13.9206 87.605 13.6532 87.605 13.42H86.205C86.205 14.1268 86.5553 14.7494 87.029 15.1803C87.5036 15.6121 88.1525 15.9 88.845 15.9V14.5ZM87.605 13.42V5.82H86.205V13.42H87.605ZM86.905 5.12H84.845V6.52H86.905V5.12ZM85.545 5.82V5.62H84.145V5.82H85.545ZM95.2134 6.36L95.8537 6.07708L95.8261 6.01457L95.7869 5.95858L95.2134 6.36ZM94.0734 5.64L94.0086 4.94301L93.9307 6.32529L94.0734 5.64ZM97.3334 5.48H98.0334V4.78H97.3334V5.48ZM97.3334 7H96.6334V8.79631L97.8489 7.47364L97.3334 7ZM104.773 14.52L104.164 14.8644L104.18 14.8922L104.198 14.9184L104.773 14.52ZM105.493 15V15.7L105.674 14.3236L105.493 15ZM101.653 15L101.473 14.3236L101.653 15.7V15ZM102.373 14.5L102.981 14.8473L102.985 14.8404L102.989 14.8334L102.373 14.5ZM102.653 11.62L103.353 11.62L103.353 11.6135L102.653 11.62ZM102.633 9.46L101.933 9.46L101.933 9.46648L102.633 9.46ZM97.3334 7.36L96.7717 6.94231L96.631 7.13159L96.6335 7.36745L97.3334 7.36ZM97.3534 9.24L98.0535 9.24504L98.0534 9.23255L97.3534 9.24ZM97.3334 12.02L96.6334 12.015V12.02H97.3334ZM97.5934 14.52L96.984 14.8644L96.9857 14.8673L97.5934 14.52ZM98.3134 15V15.7L98.4601 14.3155L98.3134 15ZM94.4734 15L94.3444 14.312L94.4734 15.7V15ZM95.2334 14.5L95.8337 14.8601L95.8475 14.8371L95.8595 14.813L95.2334 14.5ZM95.7869 5.95858C95.3887 5.3897 94.8413 5.08493 94.2162 4.95471L93.9307 6.32529C94.2656 6.39507 94.4782 6.5303 94.64 6.76142L95.7869 5.95858ZM94.1383 6.33699C94.981 6.25859 96.419 6.18 97.3334 6.18V4.78C96.3679 4.78 94.8858 4.8614 94.0086 4.94301L94.1383 6.33699ZM96.6334 5.48V7H98.0334V5.48H96.6334ZM97.8489 7.47364C98.4432 6.82689 99.6093 6.12 100.673 6.12V4.72C99.0976 4.72 97.5837 5.69311 96.818 6.52636L97.8489 7.47364ZM100.673 6.12C101.774 6.12 102.527 6.49107 103.011 7.01644C103.503 7.55169 103.773 8.31153 103.773 9.18H105.173C105.173 8.02847 104.814 6.90831 104.041 6.06856C103.259 5.21893 102.113 4.72 100.673 4.72V6.12ZM103.773 9.18V11.8H105.173V9.18H103.773ZM103.773 11.8C103.773 12.1108 103.784 12.6951 103.828 13.2667C103.85 13.5518 103.882 13.8458 103.927 14.1063C103.969 14.3427 104.035 14.6367 104.164 14.8644L105.383 14.1756C105.388 14.1853 105.377 14.1675 105.359 14.1027C105.342 14.043 105.324 13.9635 105.306 13.8643C105.271 13.6655 105.244 13.4207 105.224 13.1583C105.183 12.6349 105.173 12.0892 105.173 11.8H103.773ZM104.198 14.9184C104.494 15.3456 104.893 15.5642 105.313 15.6764L105.674 14.3236C105.494 14.2758 105.413 14.2144 105.349 14.1216L104.198 14.9184ZM105.493 14.3H101.653V15.7H105.493V14.3ZM101.834 15.6764C102.232 15.5703 102.693 15.3514 102.981 14.8473L101.766 14.1527C101.745 14.1891 101.72 14.2148 101.683 14.2389C101.641 14.2663 101.576 14.2962 101.473 14.3236L101.834 15.6764ZM102.989 14.8334C103.116 14.5986 103.179 14.2915 103.218 14.0436C103.261 13.7697 103.29 13.4592 103.309 13.1575C103.348 12.5525 103.353 11.9349 103.353 11.62H101.953C101.953 11.9251 101.948 12.5075 101.912 13.0675C101.894 13.3483 101.869 13.6115 101.835 13.8258C101.819 13.9328 101.801 14.019 101.784 14.0843C101.765 14.1552 101.753 14.1758 101.758 14.1666L102.989 14.8334ZM103.353 11.6135L103.333 9.45352L101.933 9.46648L101.953 11.6265L103.353 11.6135ZM103.333 9.46C103.333 8.88325 103.355 7.82639 103.062 6.91754C102.912 6.451 102.663 5.96953 102.239 5.60328C101.803 5.22597 101.237 5.02 100.553 5.02V6.42C100.94 6.42 101.169 6.52903 101.323 6.66235C101.49 6.80672 101.628 7.0315 101.73 7.34746C101.941 8.00361 101.933 8.81675 101.933 9.46H103.333ZM100.553 5.02C99.7645 5.02 98.989 5.28188 98.3456 5.63308C97.7039 5.98332 97.1341 6.45494 96.7717 6.94231L97.8952 7.77769C98.1128 7.48506 98.513 7.13668 99.0163 6.86192C99.5179 6.58812 100.062 6.42 100.553 6.42V5.02ZM96.6335 7.36745L96.6535 9.24745L98.0534 9.23255L98.0334 7.35255L96.6335 7.36745ZM96.6535 9.23496L96.6335 12.015L98.0334 12.025L98.0534 9.24504L96.6535 9.23496ZM96.6334 12.02C96.6334 12.3084 96.6332 12.8399 96.6674 13.3609C96.6845 13.621 96.711 13.8919 96.7534 14.1366C96.7926 14.3622 96.8569 14.6396 96.984 14.8644L98.2028 14.1756C98.2063 14.1816 98.1959 14.1639 98.1795 14.1078C98.1641 14.0551 98.1481 13.9851 98.1328 13.8972C98.1022 13.7206 98.0799 13.504 98.0644 13.2691C98.0336 12.8001 98.0334 12.3116 98.0334 12.02H96.6334ZM96.9857 14.8673C97.2798 15.3821 97.7749 15.6005 98.1668 15.6845L98.4601 14.3155C98.292 14.2795 98.2271 14.2179 98.2012 14.1727L96.9857 14.8673ZM98.3134 14.3H94.4734V15.7H98.3134V14.3ZM94.6024 15.688C95.0689 15.6006 95.527 15.3712 95.8337 14.8601L94.6332 14.1399C94.5978 14.1988 94.5648 14.2277 94.5339 14.2471C94.4989 14.269 94.4421 14.2937 94.3444 14.312L94.6024 15.688ZM95.8595 14.813C95.9765 14.5791 96.0427 14.2972 96.0854 14.0458C96.1303 13.7818 96.1586 13.4927 96.1769 13.2134C96.2136 12.6549 96.2134 12.0883 96.2134 11.76H94.8134C94.8134 12.0917 94.8132 12.6151 94.7799 13.1216C94.7633 13.3748 94.7391 13.612 94.7052 13.8111C94.6692 14.0228 94.6304 14.1409 94.6073 14.187L95.8595 14.813ZM96.2134 11.76C96.2134 10.4595 96.2335 9.29773 96.2056 8.37141C96.1785 7.47225 96.1066 6.64937 95.8537 6.07708L94.5732 6.64291C94.7003 6.93063 94.7784 7.48774 94.8063 8.41359C94.8333 9.31227 94.8134 10.4205 94.8134 11.76H96.2134ZM117.769 10.24V10.94H118.485L118.469 10.225L117.769 10.24ZM110.349 10.24V9.54H109.649V10.24H110.349ZM117.429 12.72V12.02H117.035L116.831 12.3572L117.429 12.72ZM117.569 12.72L118.212 12.9967L118.633 12.02H117.569V12.72ZM110.369 10.04L109.673 9.96766L109.593 10.74H110.369V10.04ZM115.809 10.04V10.74H116.538L116.509 10.012L115.809 10.04ZM108.989 10.46C108.989 9.13388 109.398 8.07313 110.085 7.34928C110.767 6.63017 111.783 6.18 113.129 6.18V4.78C111.455 4.78 110.052 5.34983 109.069 6.38572C108.091 7.41687 107.589 8.84612 107.589 10.46H108.989ZM113.129 6.18C114.369 6.18 115.324 6.60624 115.977 7.29276C116.637 7.98476 117.043 8.99723 117.07 10.255L118.469 10.225C118.436 8.68277 117.932 7.31524 116.991 6.32724C116.045 5.33376 114.71 4.78 113.129 4.78V6.18ZM117.769 9.54H110.349V10.94H117.769V9.54ZM109.649 10.24C109.649 11.4087 109.743 12.7382 110.301 13.7883C110.589 14.3302 111.004 14.8054 111.588 15.1396C112.17 15.4719 112.875 15.64 113.709 15.64V14.24C113.063 14.24 112.609 14.1106 112.283 13.9242C111.96 13.7396 111.72 13.4748 111.538 13.1317C111.155 12.4118 111.049 11.3913 111.049 10.24H109.649ZM113.709 15.64C115.314 15.64 117.112 14.5944 118.028 13.0828L116.831 12.3572C116.147 13.4856 114.785 14.24 113.709 14.24V15.64ZM117.429 13.42H117.569V12.02H117.429V13.42ZM116.926 12.4433C116.388 13.6941 114.798 14.5 113.389 14.5V15.9C115.181 15.9 117.391 14.9059 118.212 12.9967L116.926 12.4433ZM113.389 14.5C112.06 14.5 110.962 14.094 110.205 13.4124C109.457 12.738 108.989 11.7477 108.989 10.46H107.589C107.589 12.1123 108.202 13.492 109.268 14.4526C110.327 15.406 111.779 15.9 113.389 15.9V14.5ZM113.229 4.98C111.755 4.98 110.889 5.96444 110.409 6.98436C109.934 7.99319 109.755 9.18101 109.673 9.96766L111.066 10.1123C111.144 9.35899 111.305 8.36681 111.675 7.58064C112.04 6.80556 112.524 6.38 113.229 6.38V4.98ZM110.369 10.74H115.809V9.34H110.369V10.74ZM116.509 10.012C116.479 9.26509 116.409 8.06763 116.012 7.0444C115.811 6.52532 115.509 6.00702 115.046 5.61567C114.57 5.21319 113.963 4.98 113.229 4.98V6.38C113.645 6.38 113.929 6.50431 114.143 6.68496C114.369 6.87673 114.558 7.16718 114.707 7.5506C115.01 8.33237 115.08 9.31491 115.11 10.068L116.509 10.012ZM120.399 5.64L120.336 4.94287L120.244 6.32259L120.399 5.64ZM123.659 5.48H124.359V4.78H123.659V5.48ZM123.679 7.86L122.979 7.87794L124.35 8.05811L123.679 7.86ZM127.319 7V6.3H127.31L127.302 6.30022L127.319 7ZM125.479 6.32L125.538 7.01751L125.538 7.01748L125.479 6.32ZM123.659 10.32L122.96 10.2915L122.959 10.3007L122.959 10.31L123.659 10.32ZM123.919 14.52L123.314 14.8727L123.319 14.8798L123.323 14.8869L123.919 14.52ZM124.639 15V15.7L124.776 14.3136L124.639 15ZM120.799 15L120.67 14.312L120.799 15.7V15ZM121.539 14.5L120.945 14.129L120.928 14.1572L120.913 14.187L121.539 14.5ZM121.519 6.36L120.913 6.71072L120.923 6.72717L120.933 6.74307L121.519 6.36ZM120.462 6.33712C121.547 6.23856 122.605 6.18 123.659 6.18V4.78C122.553 4.78 121.452 4.84144 120.336 4.94287L120.462 6.33712ZM122.959 5.48C122.959 6.27834 122.959 7.08742 122.979 7.87794L124.379 7.84206C124.359 7.07258 124.359 6.28166 124.359 5.48H122.959ZM124.35 8.05811C124.64 7.07522 125.588 6.26 126.559 6.26V4.86C124.85 4.86 123.438 6.20478 123.008 7.66189L124.35 8.05811ZM126.559 6.26C126.742 6.26 126.978 6.29329 127.139 6.36081C127.217 6.39339 127.238 6.41759 127.233 6.41257C127.218 6.39458 127.199 6.35493 127.199 6.32H128.599C128.599 5.59941 128.057 5.22735 127.679 5.06919C127.291 4.90671 126.856 4.86 126.559 4.86V6.26ZM127.199 6.32C127.199 6.38492 127.181 6.38067 127.207 6.35107C127.219 6.33753 127.237 6.32359 127.26 6.3135C127.282 6.30342 127.303 6.3 127.319 6.3V7.7C128.098 7.7 128.599 7.05048 128.599 6.32H127.199ZM127.302 6.30022C127.18 6.30327 127.142 6.28066 126.872 6.07819C126.746 5.98277 126.557 5.84386 126.31 5.74529C126.052 5.64187 125.759 5.5936 125.42 5.62252L125.538 7.01748C125.669 7.00639 125.742 7.02563 125.791 7.04534C125.852 7.06989 125.915 7.10973 126.031 7.19681C126.247 7.35934 126.659 7.71673 127.337 7.69978L127.302 6.30022ZM125.42 5.62249C124.807 5.67433 124.356 6.02893 124.047 6.43082C123.742 6.82634 123.532 7.3174 123.384 7.78661C123.087 8.7285 122.981 9.76516 122.96 10.2915L124.358 10.3485C124.377 9.89483 124.472 8.9915 124.719 8.20838C124.843 7.8151 124.992 7.49741 125.156 7.2848C125.315 7.07857 125.442 7.02567 125.538 7.01751L125.42 5.62249ZM122.959 10.31C122.949 11.0127 122.944 11.9582 122.977 12.7929C122.994 13.2091 123.02 13.6107 123.063 13.9465C123.084 14.1142 123.111 14.2765 123.146 14.4216C123.178 14.5555 123.227 14.7235 123.314 14.8727L124.524 14.1673C124.541 14.1965 124.529 14.187 124.508 14.0966C124.489 14.0176 124.47 13.9089 124.452 13.7697C124.417 13.4918 124.392 13.1359 124.376 12.7371C124.344 11.9418 124.349 11.0273 124.359 10.33L122.959 10.31ZM123.323 14.8869C123.6 15.3374 124.042 15.5944 124.502 15.6864L124.776 14.3136C124.636 14.2856 124.558 14.2226 124.515 14.1531L123.323 14.8869ZM124.639 14.3H120.799V15.7H124.639V14.3ZM120.928 15.688C121.384 15.6025 121.896 15.3511 122.165 14.813L120.913 14.187C120.902 14.2089 120.854 14.2775 120.67 14.312L120.928 15.688ZM122.133 14.871C122.245 14.6906 122.308 14.4771 122.349 14.3019C122.393 14.1124 122.425 13.8977 122.45 13.6753C122.501 13.2298 122.526 12.7025 122.539 12.1821C122.564 11.1475 122.539 10.0538 122.539 9.62H121.139C121.139 10.1062 121.164 11.1325 121.139 12.1479C121.127 12.6525 121.103 13.1327 121.059 13.5184C121.037 13.7116 121.012 13.8686 120.985 13.9867C120.954 14.1192 120.933 14.1494 120.945 14.129L122.133 14.871ZM122.539 9.62C122.539 9.30661 122.544 8.59968 122.505 7.90588C122.486 7.55955 122.455 7.20048 122.403 6.88542C122.357 6.60381 122.278 6.24219 122.105 5.97693L120.933 6.74307C120.93 6.7378 120.976 6.83369 121.022 7.11208C121.062 7.35702 121.09 7.66045 121.108 7.98412C121.144 8.63032 121.139 9.29339 121.139 9.62H122.539ZM122.125 6.00927C121.767 5.39064 121.087 5.07851 120.554 4.95741L120.244 6.32259C120.591 6.40149 120.831 6.56936 120.913 6.71072L122.125 6.00927ZM135.003 5.14L135.041 4.44098L135.034 4.44066L135.003 5.14ZM137.783 5.76L138.482 5.72959L138.463 5.28995L138.059 5.1166L137.783 5.76ZM137.803 6.22H138.503V6.20479L138.502 6.18959L137.803 6.22ZM137.723 7.8L137.838 8.49048L138.379 8.40034L138.421 7.85369L137.723 7.8ZM137.603 7.82L136.91 7.91899L137.011 8.62826L137.718 8.51048L137.603 7.82ZM134.163 15.5L134.185 14.8003L134.185 14.8003L134.163 15.5ZM131.263 14.6L130.565 14.6466L130.588 15.0018L130.889 15.1918L131.263 14.6ZM131.263 12.76L131.164 12.067L130.6 12.1476L130.564 12.7163L131.263 12.76ZM131.403 12.74L132.091 12.6086L131.965 11.9526L131.304 12.047L131.403 12.74ZM134.503 15.22L134.534 15.9193L134.534 15.9193L134.503 15.22ZM136.783 13.1L137.483 13.0892L137.483 13.0891L136.783 13.1ZM131.743 7.86C131.743 7.2285 132.084 6.72989 132.693 6.36559C133.316 5.99235 134.166 5.80425 134.973 5.83934L135.034 4.44066C134.001 4.39575 132.87 4.62765 131.974 5.16441C131.062 5.71011 130.343 6.61149 130.343 7.86H131.743ZM134.965 5.83898C135.638 5.87531 136.895 6.14089 137.507 6.4034L138.059 5.1166C137.271 4.77911 135.849 4.48469 135.041 4.44102L134.965 5.83898ZM137.084 5.79041L137.104 6.25041L138.502 6.18959L138.482 5.72959L137.084 5.79041ZM137.103 6.22C137.103 6.72887 137.065 7.22253 137.025 7.74631L138.421 7.85369C138.461 7.33747 138.503 6.79113 138.503 6.22H137.103ZM137.608 7.10952L137.488 7.12952L137.718 8.51048L137.838 8.49048L137.608 7.10952ZM138.296 7.721C138.068 6.12405 136.659 4.68 134.603 4.68V6.08C135.947 6.08 136.778 6.99594 136.91 7.91899L138.296 7.721ZM134.603 4.68C133.105 4.68 131.963 5.90598 131.963 7.44H133.363C133.363 6.61402 133.942 6.08 134.603 6.08V4.68ZM131.963 7.44C131.963 8.4057 132.548 9.01491 133.193 9.41268C133.804 9.78983 134.613 10.0644 135.285 10.3194C136.006 10.5936 136.621 10.8604 137.059 11.2241C137.46 11.5575 137.703 11.9618 137.703 12.58H139.103C139.103 11.4882 138.628 10.7075 137.953 10.1471C137.315 9.61706 136.495 9.28144 135.782 9.01061C135.018 8.72065 134.392 8.50767 133.927 8.22107C133.496 7.95509 133.363 7.7243 133.363 7.44H131.963ZM137.703 12.58C137.703 13.2836 137.316 13.8281 136.641 14.2237C135.952 14.6281 135.028 14.827 134.185 14.8003L134.141 16.1997C135.199 16.233 136.394 15.9919 137.35 15.4313C138.32 14.8619 139.103 13.9164 139.103 12.58H137.703ZM134.185 14.8003C133.058 14.7651 132.318 14.4383 131.637 14.0082L130.889 15.1918C131.728 15.7217 132.708 16.1549 134.141 16.1997L134.185 14.8003ZM131.962 14.5534C131.943 14.2806 131.943 14.0039 131.943 13.7H130.543C130.543 13.9961 130.543 14.3194 130.565 14.6466L131.962 14.5534ZM131.943 13.7C131.943 13.3771 131.943 13.0985 131.962 12.8037L130.564 12.7163C130.543 13.0615 130.543 13.3829 130.543 13.7H131.943ZM131.362 13.453L131.502 13.433L131.304 12.047L131.164 12.067L131.362 13.453ZM130.716 12.8714C130.87 13.6785 131.26 14.4653 131.911 15.0432C132.571 15.6299 133.461 15.967 134.534 15.9193L134.472 14.5207C133.745 14.553 133.216 14.3301 132.841 13.9968C132.456 13.6547 132.196 13.1615 132.091 12.6086L130.716 12.8714ZM134.534 15.9193C135.323 15.884 136.065 15.6401 136.618 15.1482C137.186 14.6439 137.496 13.929 137.483 13.0892L136.083 13.1108C136.09 13.571 135.931 13.8861 135.688 14.1018C135.431 14.3299 135.024 14.496 134.472 14.5207L134.534 15.9193ZM137.483 13.0891C137.468 12.1179 136.887 11.508 136.236 11.1082C135.622 10.7316 134.812 10.4606 134.146 10.208C133.429 9.93595 132.822 9.66852 132.39 9.29782C131.995 8.95881 131.743 8.53172 131.743 7.86H130.343C130.343 8.97828 130.804 9.78119 131.479 10.3603C132.117 10.9077 132.937 11.2466 133.65 11.517C134.414 11.8069 135.036 12.0147 135.503 12.3012C135.932 12.5645 136.078 12.8021 136.083 13.1109L137.483 13.0891Z" fill="black"/>
</svg>
