<svg width="117" height="16" viewBox="0 0 117 16" fill="none" xmlns="http://www.w3.org/2000/svg">
<path d="M8.18 15.2C3.6 15.2 0.56 12.1 0.56 7.9C0.56 3.68 3.44 0.879999 8.06 0.879999C12.6 0.879999 15.66 3.68 15.66 7.92C15.66 12.1 12.82 15.2 8.18 15.2ZM8.06 1.08C4.16 1.08 2.9 4.58 2.9 8.02C2.9 11.52 4.32 15 8.18 15C12.04 15 13.32 11.48 13.32 8.06C13.32 4.58 11.88 1.08 8.06 1.08ZM17.4509 6.5C17.1509 6.1 16.8709 5.72 16.3909 5.62H19.4709L19.3509 9.46L19.3309 11.34C19.3309 12.56 19.4709 14.94 21.6109 14.92C23.0109 14.9 23.9509 13.94 24.4909 13.1V11.34L24.5309 9.72C24.5509 7.58 24.6709 7.26 24.3309 6.52C24.0509 6.12 23.7509 5.74 23.2909 5.64H26.2909L26.1709 9.7C26.1509 11.84 26.1109 13.48 26.4509 14.22C26.7309 14.62 27.0909 14.84 27.5709 14.94C26.7309 15.02 25.4309 15.1 24.4709 15.1V13.54C23.8909 14.38 22.8909 15.2 21.4909 15.18C18.9309 15.16 17.6709 13.64 17.6909 11.62V9.48C17.7109 7.34 17.7709 7.24 17.4509 6.5ZM28.1139 5.64C29.2139 5.54 30.2939 5.48 31.3739 5.48C31.3739 6.28 31.3739 7.08 31.3939 7.86C31.7539 6.64 32.9339 5.56 34.2739 5.56C34.7539 5.56 35.6139 5.72 35.6139 6.32C35.6139 6.74 35.3539 7 35.0339 7C34.2339 7.02 34.1339 6.24 33.1939 6.32C31.7739 6.44 31.4139 9.34 31.3739 10.32C31.3539 11.72 31.3539 14.04 31.6339 14.52C31.7939 14.78 32.0539 14.94 32.3539 15H28.5139C28.8339 14.94 29.1139 14.78 29.2539 14.5C29.6539 13.86 29.5539 10.54 29.5539 9.62C29.5539 8.98 29.5739 6.88 29.2339 6.36C29.0139 5.98 28.5539 5.74 28.1139 5.64ZM45.0683 15H40.8883C41.0883 14.96 41.3283 14.86 41.5483 14.66C41.9883 14.3 42.0083 11.36 42.0083 10.56V4.86C42.0083 4.08 41.9883 1.78 41.5483 1.42C41.3283 1.22 41.1083 1.12 40.8883 1.08H45.5883C48.3683 1.08 51.9483 2.34 51.9483 5.62C51.9483 9.38 48.2283 10.8 44.7683 10.8C44.5283 10.8 44.2483 10.78 43.9683 10.76V11.2C43.9683 11.96 43.9883 14.28 44.3883 14.66C44.6283 14.86 44.8483 14.96 45.0683 15ZM43.9883 1.28L43.9683 10.48C44.2883 10.54 44.5883 10.56 44.8683 10.56C47.3283 10.56 49.8483 9.1 49.8483 5.96V5.94C49.8283 2.12 47.3883 1.28 43.9883 1.28ZM57.7414 15C54.7014 15.02 53.0814 14.16 53.0814 12.18C53.0814 10.18 55.0814 9.16 57.8814 9.24C58.4214 9.26 58.9814 9.4 59.4014 9.52V8.78C59.4014 7.36 59.2214 5.62 57.2814 5.62C56.2614 5.62 55.8814 6.2 55.6214 6.76C55.5814 6.82 55.5614 6.88 55.5214 6.94C55.5014 7.02 55.4614 7.08 55.4014 7.14C55.3414 7.24 55.3014 7.34 55.2214 7.44C55.1214 7.6 54.9614 7.7 54.6614 7.7C54.2414 7.7 54.0414 7.5 54.0414 7.1C54.0414 5.86 56.5414 5.48 57.4814 5.48C58.3214 5.48 59.7214 5.72 60.3614 6.26C61.0014 6.88 61.2214 7.72 61.2214 8.58L61.2014 12.18C61.2014 12.82 61.2214 14.08 61.4414 14.52C61.6214 14.8 61.8814 14.94 62.1614 15H57.7414ZM57.8414 9.4C55.2814 9.4 54.8414 10.84 54.8414 12.18C54.8414 13.52 55.2014 14.88 57.7414 14.88C58.1614 14.88 58.7614 14.88 59.0414 14.58C59.0414 14.56 59.0614 14.54 59.0814 14.5C59.3214 14.02 59.3614 12.8 59.3614 12.04L59.3814 9.64C59.0014 9.54 58.4814 9.4 57.8414 9.4ZM62.8209 5.64C63.9209 5.54 65.0009 5.48 66.0809 5.48C66.0809 6.28 66.0809 7.08 66.1009 7.86C66.4609 6.64 67.6409 5.56 68.9809 5.56C69.4609 5.56 70.3209 5.72 70.3209 6.32C70.3209 6.74 70.0609 7 69.7409 7C68.9409 7.02 68.8409 6.24 67.9009 6.32C66.4809 6.44 66.1209 9.34 66.0809 10.32C66.0609 11.72 66.0609 14.04 66.3409 14.52C66.5009 14.78 66.7609 14.94 67.0609 15H63.2209C63.5409 14.94 63.8209 14.78 63.9609 14.5C64.3609 13.86 64.2609 10.54 64.2609 9.62C64.2609 8.98 64.2809 6.88 63.9409 6.36C63.7209 5.98 63.2609 5.74 62.8209 5.64ZM70.845 5.62C73.405 5.54 73.725 3.94 73.845 2.4H74.785V5.52H77.465V5.82H74.785V13.52C74.785 14.36 75.145 14.68 75.605 14.68C76.265 14.68 77.145 13.98 77.305 13.3L77.465 13.44C76.525 15.22 75.525 15.2 74.845 15.2C73.845 15.2 72.905 14.36 72.905 13.42V5.82H70.845V5.62ZM79.2134 6.36C78.9334 5.96 78.5534 5.74 78.0734 5.64C78.9334 5.56 80.3934 5.48 81.3334 5.48V7C82.0134 6.26 83.3534 5.42 84.6734 5.42C87.2134 5.42 88.4734 7.16 88.4734 9.18V11.8C88.4734 12.4 88.5134 14.06 88.7734 14.52C88.9534 14.78 89.1934 14.92 89.4934 15H85.6534C85.9534 14.92 86.2134 14.78 86.3734 14.5C86.6334 14.02 86.6534 12.24 86.6534 11.62L86.6334 9.46C86.6334 8.24 86.6934 5.72 84.5534 5.72C83.2734 5.72 81.9134 6.58 81.3334 7.36L81.3534 9.24L81.3334 12.02C81.3334 12.6 81.3334 14.06 81.5934 14.52C81.7534 14.8 82.0334 14.94 82.3134 15H78.4734C78.7934 14.94 79.0534 14.8 79.2334 14.5C79.5134 13.94 79.5134 12.42 79.5134 11.76C79.5134 9.12 79.5934 7.22 79.2134 6.36ZM90.2894 10.46C90.2894 7.52 92.1094 5.48 95.1294 5.48C97.9494 5.48 99.7094 7.44 99.7694 10.24H92.3494C92.3494 12.56 92.7494 14.94 95.7094 14.94C97.0494 14.94 98.6294 14.04 99.4294 12.72H99.5694C98.8894 14.3 96.9894 15.2 95.3894 15.2C92.4494 15.2 90.2894 13.4 90.2894 10.46ZM95.2294 5.68C93.0494 5.68 92.5294 8.5 92.3694 10.04H97.8094C97.7494 8.54 97.5294 5.68 95.2294 5.68ZM100.399 5.64C101.499 5.54 102.579 5.48 103.659 5.48C103.659 6.28 103.659 7.08 103.679 7.86C104.039 6.64 105.219 5.56 106.559 5.56C107.039 5.56 107.899 5.72 107.899 6.32C107.899 6.74 107.639 7 107.319 7C106.519 7.02 106.419 6.24 105.479 6.32C104.059 6.44 103.699 9.34 103.659 10.32C103.639 11.72 103.639 14.04 103.919 14.52C104.079 14.78 104.339 14.94 104.639 15H100.799C101.119 14.94 101.399 14.78 101.539 14.5C101.939 13.86 101.839 10.54 101.839 9.62C101.839 8.98 101.859 6.88 101.519 6.36C101.299 5.98 100.839 5.74 100.399 5.64ZM109.043 7.86C109.043 5.98 111.163 5.06 113.003 5.14C113.743 5.18 115.083 5.46 115.783 5.76L115.803 6.22C115.803 6.76 115.763 7.28 115.723 7.8L115.603 7.82C115.423 6.56 114.303 5.38 112.603 5.38C111.523 5.38 110.663 6.26 110.663 7.44C110.663 9.94 116.403 9.16 116.403 12.58C116.403 14.62 114.063 15.56 112.163 15.5C110.883 15.46 110.023 15.08 109.263 14.6C109.243 14.3 109.243 14 109.243 13.7C109.243 13.38 109.243 13.08 109.263 12.76L109.403 12.74C109.663 14.1 110.703 15.3 112.503 15.22C113.843 15.16 114.803 14.4 114.783 13.1C114.743 10.54 109.043 11.44 109.043 7.86Z" fill="black"/>
<path d="M8.18 14.5C6.05162 14.5 4.32876 13.7824 3.14133 12.624C1.95412 11.4657 1.26 9.82618 1.26 7.9H-0.14C-0.14 10.1738 0.685883 12.1843 2.16367 13.626C3.64124 15.0676 5.72838 15.9 8.18 15.9V14.5ZM1.26 7.9C1.26 5.95491 1.9196 4.39352 3.05857 3.316C4.20111 2.2351 5.89132 1.58 8.06 1.58V0.179999C5.60868 0.179999 3.54889 0.924901 2.09643 2.299C0.640402 3.67648 -0.14 5.62509 -0.14 7.9H1.26ZM8.06 1.58C10.1867 1.58 11.9067 2.23416 13.0877 3.32436C14.2635 4.40973 14.96 5.97676 14.96 7.92H16.36C16.36 5.62324 15.5265 3.67027 14.0373 2.29564C12.5533 0.925836 10.4733 0.179999 8.06 0.179999V1.58ZM14.96 7.92C14.96 9.84913 14.3071 11.4838 13.1636 12.634C12.022 13.7822 10.3392 14.5 8.18 14.5V15.9C10.6608 15.9 12.718 15.0678 14.1564 13.621C15.5929 12.1762 16.36 10.1709 16.36 7.92H14.96ZM8.06 0.379999C5.85569 0.379999 4.34515 1.39087 3.42122 2.89332C2.52424 4.35197 2.2 6.23321 2.2 8.02H3.6C3.6 6.36679 3.90576 4.77803 4.61378 3.62668C5.29485 2.51913 6.36431 1.78 8.06 1.78V0.379999ZM2.2 8.02C2.2 9.84793 2.5682 11.7406 3.50305 13.2001C4.4619 14.697 5.99811 15.7 8.18 15.7V14.3C6.50189 14.3 5.3981 13.563 4.68195 12.4449C3.9418 11.2894 3.6 9.69207 3.6 8.02H2.2ZM8.18 15.7C10.3685 15.7 11.8724 14.6804 12.7941 13.1787C13.69 11.719 14.02 9.83908 14.02 8.06H12.62C12.62 9.70092 12.31 11.291 11.6009 12.4463C10.9176 13.5596 9.85152 14.3 8.18 14.3V15.7ZM14.02 8.06C14.02 6.23983 13.646 4.3484 12.7123 2.88795C11.7557 1.39163 10.226 0.379999 8.06 0.379999V1.78C9.71405 1.78 10.8143 2.51837 11.5327 3.64205C12.274 4.8016 12.62 6.40017 12.62 8.06H14.02ZM17.4509 6.5L18.0934 6.22216L18.0606 6.1462L18.0109 6.08L17.4509 6.5ZM16.3909 5.62V4.92L16.2482 6.30529L16.3909 5.62ZM19.4709 5.62L20.1706 5.64186L20.1932 4.92H19.4709V5.62ZM19.3509 9.46L18.6513 9.43814L18.6511 9.44534L18.651 9.45255L19.3509 9.46ZM19.3309 11.34L18.6309 11.3326V11.34H19.3309ZM21.6109 14.92L21.6175 15.62L21.6209 15.6199L21.6109 14.92ZM24.4909 13.1L25.0798 13.4785L25.1909 13.3056V13.1H24.4909ZM24.4909 11.34L23.7912 11.3227L23.7909 11.3314V11.34H24.4909ZM24.5309 9.72L25.2308 9.73728L25.2309 9.72654L24.5309 9.72ZM24.3309 6.52L24.967 6.22775L24.9406 6.17034L24.9044 6.11858L24.3309 6.52ZM23.2909 5.64V4.94L23.1422 6.32402L23.2909 5.64ZM26.2909 5.64L26.9906 5.66068L27.0119 4.94H26.2909V5.64ZM26.1709 9.7L25.4711 9.67931L25.471 9.69346L26.1709 9.7ZM26.4509 14.22L25.8149 14.5122L25.8412 14.5697L25.8775 14.6214L26.4509 14.22ZM27.5709 14.94L27.6373 15.6368L27.7137 14.2547L27.5709 14.94ZM24.4709 15.1H23.7709V15.8H24.4709V15.1ZM24.4709 13.54H25.1709V11.2942L23.8949 13.1423L24.4709 13.54ZM21.4909 15.18L21.5009 14.4801L21.4964 14.48L21.4909 15.18ZM17.6909 11.62L18.3909 11.6269V11.62H17.6909ZM17.6909 9.48L16.9909 9.47346V9.48H17.6909ZM18.0109 6.08C17.7488 5.73052 17.3175 5.098 16.5337 4.93471L16.2482 6.30529C16.3293 6.32219 16.4077 6.36233 16.5089 6.45746C16.6236 6.56527 16.7312 6.70703 16.8909 6.92L18.0109 6.08ZM16.3909 6.32H19.4709V4.92H16.3909V6.32ZM18.7713 5.59814L18.6513 9.43814L20.0506 9.48186L20.1706 5.64186L18.7713 5.59814ZM18.651 9.45255L18.631 11.3326L20.0309 11.3474L20.0509 9.46745L18.651 9.45255ZM18.6309 11.34C18.6309 11.9549 18.6617 12.9762 19.0199 13.8583C19.2032 14.3098 19.4861 14.7609 19.9275 15.0974C20.378 15.4407 20.9436 15.6263 21.6175 15.62L21.6044 14.22C21.2082 14.2237 20.9539 14.1193 20.7762 13.9839C20.5895 13.8416 20.4362 13.6252 20.317 13.3317C20.0702 12.7238 20.0309 11.9451 20.0309 11.34H18.6309ZM21.6209 15.6199C23.37 15.5949 24.4907 14.3949 25.0798 13.4785L23.9021 12.7215C23.4112 13.4851 22.6519 14.2051 21.6009 14.2201L21.6209 15.6199ZM25.1909 13.1V11.34H23.7909V13.1H25.1909ZM25.1907 11.3573L25.2307 9.73728L23.8312 9.70272L23.7912 11.3227L25.1907 11.3573ZM25.2309 9.72654C25.2404 8.70937 25.2759 8.02642 25.2658 7.57909C25.2539 7.05696 25.1821 6.69592 24.967 6.22775L23.6949 6.81225C23.8198 7.08408 23.858 7.25304 23.8661 7.6109C23.876 8.04358 23.8415 8.59063 23.831 9.71346L25.2309 9.72654ZM24.9044 6.11858C24.6398 5.74063 24.2 5.12128 23.4396 4.95598L23.1422 6.32402C23.3018 6.35872 23.462 6.49936 23.7575 6.92142L24.9044 6.11858ZM23.2909 6.34H26.2909V4.94H23.2909V6.34ZM25.5912 5.61932L25.4712 9.67932L26.8706 9.72068L26.9906 5.66068L25.5912 5.61932ZM25.471 9.69346C25.4611 10.7525 25.4456 11.7206 25.4765 12.5123C25.5062 13.2749 25.5799 14.0009 25.8149 14.5122L27.087 13.9278C26.982 13.6991 26.9057 13.2351 26.8754 12.4577C26.8463 11.7094 26.8608 10.7875 26.8709 9.70654L25.471 9.69346ZM25.8775 14.6214C26.2692 15.181 26.7906 15.4925 27.4282 15.6253L27.7137 14.2547C27.3912 14.1875 27.1927 14.059 27.0244 13.8186L25.8775 14.6214ZM27.5046 14.2432C26.6796 14.3217 25.4027 14.4 24.4709 14.4V15.8C25.4592 15.8 26.7823 15.7183 27.6373 15.6368L27.5046 14.2432ZM25.1709 15.1V13.54H23.7709V15.1H25.1709ZM23.8949 13.1423C23.3977 13.8624 22.5914 14.4957 21.5009 14.4801L21.4809 15.8799C23.1904 15.9043 24.3842 14.8976 25.047 13.9377L23.8949 13.1423ZM21.4964 14.48C20.3549 14.4711 19.5928 14.1313 19.1194 13.656C18.645 13.1798 18.3824 12.4893 18.3909 11.6269L16.991 11.6131C16.9795 12.7707 17.3368 13.8502 18.1275 14.644C18.919 15.4387 20.0669 15.8689 21.4855 15.88L21.4964 14.48ZM18.3909 11.62V9.48H16.9909V11.62H18.3909ZM18.3909 9.48654C18.4006 8.45067 18.4216 7.8407 18.3972 7.42416C18.3686 6.93414 18.2751 6.64231 18.0934 6.22216L16.8084 6.77784C16.9468 7.09769 16.9833 7.22586 16.9996 7.50584C17.0203 7.8593 17.0013 8.36933 16.991 9.47346L18.3909 9.48654ZM28.1139 5.64L28.0505 4.94287L27.9588 6.32259L28.1139 5.64ZM31.3739 5.48H32.0739V4.78H31.3739V5.48ZM31.3939 7.86L30.6941 7.87794L32.0653 8.05811L31.3939 7.86ZM35.0339 7V6.3H35.0252L35.0164 6.30022L35.0339 7ZM33.1939 6.32L33.2529 7.01751L33.2533 7.01748L33.1939 6.32ZM31.3739 10.32L30.6745 10.2915L30.6741 10.3007L30.674 10.31L31.3739 10.32ZM31.6339 14.52L31.0293 14.8727L31.0334 14.8798L31.0377 14.8869L31.6339 14.52ZM32.3539 15V15.7L32.4912 14.3136L32.3539 15ZM28.5139 15L28.3849 14.312L28.5139 15.7V15ZM29.2539 14.5L28.6603 14.129L28.6427 14.1572L28.6278 14.187L29.2539 14.5ZM29.2339 6.36L28.6281 6.71072L28.6376 6.72717L28.648 6.74307L29.2339 6.36ZM28.1773 6.33712C29.2614 6.23856 30.3197 6.18 31.3739 6.18V4.78C30.2681 4.78 29.1664 4.84144 28.0505 4.94287L28.1773 6.33712ZM30.6739 5.48C30.6739 6.27834 30.6739 7.08742 30.6941 7.87794L32.0937 7.84206C32.0739 7.07258 32.0739 6.28166 32.0739 5.48H30.6739ZM32.0653 8.05811C32.3553 7.07522 33.303 6.26 34.2739 6.26V4.86C32.5648 4.86 31.1525 6.20478 30.7225 7.66189L32.0653 8.05811ZM34.2739 6.26C34.4573 6.26 34.6924 6.29329 34.8538 6.36081C34.9318 6.39339 34.9528 6.41759 34.9483 6.41257C34.9323 6.39458 34.9139 6.35493 34.9139 6.32H36.3139C36.3139 5.59941 35.7722 5.22735 35.394 5.06919C35.0054 4.90671 34.5705 4.86 34.2739 4.86V6.26ZM34.9139 6.32C34.9139 6.38492 34.8955 6.38067 34.9219 6.35107C34.934 6.33753 34.9518 6.32359 34.9744 6.3135C34.997 6.30342 35.0182 6.3 35.0339 6.3V7.7C35.8125 7.7 36.3139 7.05048 36.3139 6.32H34.9139ZM35.0164 6.30022C34.8944 6.30327 34.8564 6.28066 34.5873 6.07819C34.4605 5.98277 34.2719 5.84386 34.0252 5.74529C33.7664 5.64187 33.4743 5.5936 33.1345 5.62252L33.2533 7.01748C33.3835 7.00639 33.4564 7.02563 33.5057 7.04534C33.5672 7.06989 33.6298 7.10973 33.7455 7.19681C33.9615 7.35934 34.3734 7.71673 35.0514 7.69978L35.0164 6.30022ZM33.135 5.62249C32.5214 5.67433 32.0708 6.02893 31.7614 6.43082C31.4569 6.82634 31.2472 7.3174 31.0989 7.78661C30.8013 8.7285 30.696 9.76516 30.6745 10.2915L32.0733 10.3485C32.0918 9.89483 32.1865 8.9915 32.4339 8.20838C32.5581 7.8151 32.7071 7.49741 32.8708 7.2848C33.0295 7.07857 33.1564 7.02567 33.2529 7.01751L33.135 5.62249ZM30.674 10.31C30.6639 11.0127 30.6587 11.9582 30.692 12.7929C30.7086 13.2091 30.7352 13.6107 30.7779 13.9465C30.7993 14.1142 30.826 14.2765 30.8606 14.4216C30.8926 14.5555 30.9422 14.7235 31.0293 14.8727L32.2386 14.1673C32.2556 14.1965 32.244 14.187 32.2224 14.0966C32.2035 14.0176 32.1845 13.9089 32.1667 13.7697C32.1314 13.4918 32.1068 13.1359 32.0909 12.7371C32.0591 11.9418 32.0639 11.0273 32.0738 10.33L30.674 10.31ZM31.0377 14.8869C31.315 15.3374 31.7566 15.5944 32.2166 15.6864L32.4912 14.3136C32.3512 14.2856 32.2728 14.2226 32.2301 14.1531L31.0377 14.8869ZM32.3539 14.3H28.5139V15.7H32.3539V14.3ZM28.6429 15.688C29.0992 15.6025 29.611 15.3511 29.88 14.813L28.6278 14.187C28.6168 14.2089 28.5686 14.2775 28.3849 14.312L28.6429 15.688ZM29.8475 14.871C29.9603 14.6906 30.0232 14.4771 30.0637 14.3019C30.1075 14.1124 30.14 13.8977 30.1651 13.6753C30.2154 13.2298 30.241 12.7025 30.2537 12.1821C30.2789 11.1475 30.2539 10.0538 30.2539 9.62H28.8539C28.8539 10.1062 28.8789 11.1325 28.8541 12.1479C28.8418 12.6525 28.8174 13.1327 28.7739 13.5184C28.7522 13.7116 28.7269 13.8686 28.6996 13.9867C28.669 14.1192 28.6475 14.1494 28.6603 14.129L29.8475 14.871ZM30.2539 9.62C30.2539 9.30661 30.2591 8.59968 30.2203 7.90588C30.2009 7.55955 30.1698 7.20048 30.1181 6.88542C30.0719 6.60381 29.9932 6.24219 29.8198 5.97693L28.648 6.74307C28.6446 6.7378 28.6909 6.83369 28.7366 7.11208C28.7768 7.35702 28.8044 7.66045 28.8225 7.98412C28.8587 8.63032 28.8539 9.29339 28.8539 9.62H30.2539ZM29.8397 6.00927C29.4816 5.39064 28.8019 5.07851 28.269 4.95741L27.9588 6.32259C28.3059 6.40149 28.5463 6.56936 28.6281 6.71072L29.8397 6.00927ZM45.0683 15V15.7L45.1935 14.3113L45.0683 15ZM40.8883 15L40.751 14.3136L40.8883 15.7V15ZM41.5483 14.66L41.105 14.1182L41.0909 14.1298L41.0774 14.142L41.5483 14.66ZM41.5483 1.42L41.0774 1.93796L41.0909 1.95022L41.105 1.96177L41.5483 1.42ZM40.8883 1.08V0.379999L40.7631 1.76871L40.8883 1.08ZM43.9683 10.76L44.0182 10.0618L43.2683 10.0082V10.76H43.9683ZM44.3883 14.66L43.9062 15.1675L43.9227 15.1832L43.9402 15.1978L44.3883 14.66ZM43.9883 1.28V0.579999H43.2898L43.2883 1.27848L43.9883 1.28ZM43.9683 10.48L43.2683 10.4785L43.267 11.0607L43.8393 11.168L43.9683 10.48ZM49.8483 5.94L50.5483 5.94L50.5483 5.93633L49.8483 5.94ZM45.0683 14.3H40.8883V15.7H45.0683V14.3ZM41.0256 15.6864C41.3374 15.624 41.6963 15.4715 42.0192 15.178L41.0774 14.142C40.9603 14.2485 40.8391 14.296 40.751 14.3136L41.0256 15.6864ZM41.9915 15.2018C42.1988 15.0322 42.2999 14.7953 42.3516 14.6541C42.4129 14.4869 42.4583 14.2976 42.4937 14.1095C42.565 13.7307 42.611 13.2727 42.6417 12.8226C42.7034 11.9177 42.7083 10.9629 42.7083 10.56H41.3083C41.3083 10.9571 41.3032 11.8723 41.2449 12.7274C41.2156 13.1573 41.1741 13.5518 41.1179 13.8505C41.0895 14.0011 41.0612 14.1068 41.0371 14.1724C41.0035 14.2641 41.0077 14.1978 41.105 14.1182L41.9915 15.2018ZM42.7083 10.56V4.86H41.3083V10.56H42.7083ZM42.7083 4.86C42.7083 4.46742 42.7034 3.67269 42.6408 2.92417C42.6097 2.55214 42.5626 2.1689 42.4881 1.84346C42.451 1.68114 42.4027 1.51398 42.3371 1.36187C42.2769 1.22224 42.1737 1.02724 41.9915 0.87823L41.105 1.96177C41.0329 1.90276 41.0266 1.85838 41.0516 1.91649C41.0713 1.96212 41.0969 2.03979 41.1234 2.15591C41.1764 2.38735 41.2168 2.69536 41.2457 3.04083C41.3031 3.72731 41.3083 4.47258 41.3083 4.86H42.7083ZM42.0192 0.902041C41.7057 0.617063 41.367 0.455562 41.0135 0.391291L40.7631 1.76871C40.8496 1.78444 40.9509 1.82294 41.0774 1.93796L42.0192 0.902041ZM40.8883 1.78H45.5883V0.379999H40.8883V1.78ZM45.5883 1.78C46.8904 1.78 48.35 2.07806 49.458 2.7246C50.5422 3.35721 51.2483 4.28824 51.2483 5.62H52.6483C52.6483 3.67176 51.5644 2.33279 50.1636 1.5154C48.7866 0.711943 47.0661 0.379999 45.5883 0.379999V1.78ZM51.2483 5.62C51.2483 7.22026 50.4779 8.30388 49.2932 9.02121C48.0753 9.75864 46.4192 10.1 44.7683 10.1V11.5C46.5774 11.5 48.5112 11.1314 50.0183 10.2188C51.5587 9.28612 52.6483 7.77974 52.6483 5.62H51.2483ZM44.7683 10.1C44.5583 10.1 44.3052 10.0823 44.0182 10.0618L43.9184 11.4582C44.1914 11.4777 44.4983 11.5 44.7683 11.5V10.1ZM43.2683 10.76V11.2H44.6683V10.76H43.2683ZM43.2683 11.2C43.2683 11.583 43.2732 12.3752 43.3303 13.1256C43.3587 13.4989 43.4014 13.8818 43.4682 14.2069C43.5015 14.3689 43.5443 14.534 43.6018 14.684C43.6538 14.8196 43.7435 15.013 43.9062 15.1675L44.8704 14.1525C44.9331 14.212 44.9347 14.2497 44.909 14.1828C44.8888 14.1302 44.8644 14.0458 44.8396 13.925C44.7901 13.6844 44.7529 13.3686 44.7263 13.0194C44.6734 12.3248 44.6683 11.577 44.6683 11.2H43.2683ZM43.9402 15.1978C44.2596 15.464 44.5882 15.6242 44.9431 15.6887L45.1935 14.3113C45.1084 14.2958 44.9969 14.256 44.8364 14.1222L43.9402 15.1978ZM43.2883 1.27848L43.2683 10.4785L44.6683 10.4815L44.6883 1.28152L43.2883 1.27848ZM43.8393 11.168C44.2101 11.2375 44.5544 11.26 44.8683 11.26V9.86C44.6222 9.86 44.3664 9.84245 44.0973 9.79199L43.8393 11.168ZM44.8683 11.26C46.2267 11.26 47.6361 10.8584 48.7207 9.98198C49.8245 9.09012 50.5483 7.73912 50.5483 5.96H49.1483C49.1483 7.32087 48.6121 8.26988 47.8408 8.89302C47.0505 9.53165 45.9698 9.86 44.8683 9.86V11.26ZM50.5483 5.96V5.94H49.1483V5.96H50.5483ZM50.5483 5.93633C50.5374 3.86279 49.8564 2.44477 48.5724 1.59398C47.353 0.785941 45.7132 0.579999 43.9883 0.579999V1.98C45.6633 1.98 46.9435 2.19406 47.7991 2.76101C48.5902 3.28523 49.1391 4.19721 49.1483 5.94366L50.5483 5.93633ZM57.7414 15V14.3L57.7368 14.3L57.7414 15ZM57.8814 9.24L57.9073 8.54045L57.9014 8.54029L57.8814 9.24ZM59.4014 9.52L59.2091 10.1931L60.1014 10.448V9.52H59.4014ZM55.6214 6.76L56.2038 7.14829L56.2337 7.10355L56.2563 7.05478L55.6214 6.76ZM55.5214 6.94L54.939 6.55171L54.8717 6.6526L54.8423 6.77022L55.5214 6.94ZM55.4014 7.14L54.9064 6.64503L54.8455 6.70596L54.8012 6.77985L55.4014 7.14ZM55.2214 7.44L54.6748 7.00271L54.6494 7.03449L54.6278 7.069L55.2214 7.44ZM60.3614 6.26L60.8485 5.75723L60.8312 5.7405L60.8128 5.725L60.3614 6.26ZM61.2214 8.58L61.9214 8.58389V8.58H61.2214ZM61.2014 12.18L60.5014 12.1761V12.18H61.2014ZM61.4414 14.52L60.8153 14.833L60.8322 14.8668L60.8526 14.8985L61.4414 14.52ZM62.1614 15V15.7L62.3081 14.3155L62.1614 15ZM59.0414 14.58L59.5531 15.0576L59.7414 14.8559V14.58H59.0414ZM59.0814 14.5L58.4553 14.187L58.4553 14.187L59.0814 14.5ZM59.3614 12.04L58.6614 12.0342V12.04H59.3614ZM59.3814 9.64L60.0814 9.64583L60.0859 9.10156L59.5596 8.96305L59.3814 9.64ZM57.7368 14.3C56.2589 14.3097 55.2469 14.1003 54.6253 13.7361C54.0667 13.4087 53.7814 12.9358 53.7814 12.18H52.3814C52.3814 13.4042 52.9061 14.3513 53.9175 14.9439C54.8659 15.4997 56.1839 15.7103 57.746 15.7L57.7368 14.3ZM53.7814 12.18C53.7814 11.4607 54.1202 10.9213 54.7837 10.5349C55.4805 10.1291 56.5357 9.90184 57.8614 9.93971L57.9014 8.54029C56.4271 8.49816 55.0823 8.74091 54.0791 9.3251C53.0426 9.92874 52.3814 10.8993 52.3814 12.18H53.7814ZM57.8555 9.93952C58.3068 9.95624 58.7993 10.076 59.2091 10.1931L59.5937 8.84693C59.1635 8.72403 58.536 8.56376 57.9073 8.54048L57.8555 9.93952ZM60.1014 9.52V8.78H58.7014V9.52H60.1014ZM60.1014 8.78C60.1014 8.07062 60.0629 7.13778 59.7026 6.37006C59.5147 5.96978 59.231 5.5948 58.8083 5.32439C58.3855 5.0539 57.8734 4.92 57.2814 4.92V6.32C57.6594 6.32 57.8974 6.4036 58.0539 6.50373C58.2105 6.60395 58.3356 6.75272 58.4352 6.96493C58.6499 7.42222 58.7014 8.06938 58.7014 8.78H60.1014ZM57.2814 4.92C56.6249 4.92 56.11 5.11196 55.7152 5.44483C55.3403 5.76094 55.1281 6.16033 54.9865 6.46522L56.2563 7.05478C56.3748 6.79967 56.4825 6.62906 56.6176 6.51517C56.7328 6.41804 56.9179 6.32 57.2814 6.32V4.92ZM55.039 6.37171C54.9912 6.44333 54.9581 6.51138 54.9453 6.53695C54.9281 6.57138 54.9312 6.56333 54.939 6.55171L56.1038 7.32829C56.1516 7.25667 56.1847 7.18861 56.1975 7.16305C56.2147 7.12861 56.2116 7.13667 56.2038 7.14829L55.039 6.37171ZM54.8423 6.77022C54.8497 6.74048 54.8628 6.70903 54.8802 6.68063C54.8962 6.65463 54.9092 6.64221 54.9064 6.64503L55.8964 7.63497C56.0195 7.51187 56.1417 7.34486 56.2005 7.10977L54.8423 6.77022ZM54.8012 6.77985C54.7777 6.81896 54.7579 6.85528 54.7426 6.88359C54.7247 6.91705 54.7174 6.9311 54.7056 6.95266C54.6866 6.98709 54.6788 6.99768 54.6748 7.00271L55.768 7.87729C55.844 7.78232 55.8962 7.69291 55.9323 7.62734C55.978 7.54417 55.9795 7.53709 56.0017 7.50015L54.8012 6.77985ZM54.6278 7.069C54.6301 7.06531 54.6381 7.05355 54.6533 7.03922C54.669 7.02435 54.6867 7.01225 54.7034 7.0039C54.7364 6.98737 54.7359 7 54.6614 7V8.4C54.8869 8.4 55.1164 8.36263 55.3295 8.2561C55.5505 8.14557 55.7068 7.98415 55.815 7.811L54.6278 7.069ZM54.6614 7C54.6096 7 54.5937 6.99356 54.6015 6.99605C54.6126 6.99964 54.6465 7.01357 54.6827 7.04895C54.7194 7.08472 54.7365 7.12088 54.7425 7.13865C54.7472 7.15259 54.7414 7.14392 54.7414 7.1H53.3414C53.3414 7.40793 53.419 7.77197 53.7051 8.05105C53.9878 8.32684 54.352 8.4 54.6614 8.4V7ZM54.7414 7.1C54.7414 7.05673 54.7537 6.9805 54.8979 6.85891C55.0523 6.72874 55.3017 6.5997 55.6323 6.4884C56.2912 6.26653 57.0741 6.18 57.4814 6.18V4.78C56.9487 4.78 56.0116 4.88347 55.1855 5.16159C54.7736 5.3003 54.3392 5.49875 53.9955 5.78859C53.6416 6.087 53.3414 6.52326 53.3414 7.1H54.7414ZM57.4814 6.18C57.8451 6.18 58.3507 6.23322 58.8341 6.34843C59.3373 6.46834 59.7173 6.63238 59.91 6.795L60.8128 5.725C60.3656 5.34762 59.7255 5.12166 59.1587 4.98657C58.5721 4.84678 57.9577 4.78 57.4814 4.78V6.18ZM59.8744 6.76277C60.3307 7.20489 60.5214 7.8312 60.5214 8.58H61.9214C61.9214 7.60879 61.6721 6.5551 60.8485 5.75723L59.8744 6.76277ZM60.5214 8.57611L60.5014 12.1761L61.9014 12.1839L61.9214 8.58389L60.5214 8.57611ZM60.5014 12.18C60.5014 12.5046 60.5064 12.9997 60.5407 13.4754C60.5579 13.7129 60.5831 13.9567 60.6213 14.1779C60.6571 14.3852 60.7132 14.6288 60.8153 14.833L62.0675 14.207C62.0679 14.2077 62.0651 14.2022 62.0601 14.1885C62.0552 14.1751 62.0492 14.1565 62.0424 14.1321C62.0287 14.0827 62.0145 14.0186 62.0009 13.9396C61.9735 13.7808 61.9524 13.5871 61.9371 13.3746C61.9064 12.9503 61.9014 12.4954 61.9014 12.18H60.5014ZM60.8526 14.8985C61.1548 15.3686 61.5952 15.5946 62.0147 15.6845L62.3081 14.3155C62.1676 14.2854 62.0881 14.2314 62.0302 14.1415L60.8526 14.8985ZM62.1614 14.3H57.7414V15.7H62.1614V14.3ZM57.8414 8.7C56.4319 8.7 55.4456 9.10087 54.8388 9.84521C54.2552 10.5612 54.1414 11.4564 54.1414 12.18H55.5414C55.5414 11.5636 55.6476 11.0688 55.924 10.7298C56.1772 10.4191 56.6909 10.1 57.8414 10.1V8.7ZM54.1414 12.18C54.1414 12.8839 54.2285 13.7676 54.7931 14.4708C55.3832 15.2057 56.354 15.58 57.7414 15.58V14.18C56.5889 14.18 56.1096 13.8743 55.8847 13.5942C55.6343 13.2824 55.5414 12.8161 55.5414 12.18H54.1414ZM57.7414 15.58C57.9422 15.58 58.2523 15.5814 58.5531 15.5339C58.8375 15.489 59.2507 15.3817 59.5531 15.0576L58.5297 14.1024C58.5521 14.0783 58.5253 14.121 58.3347 14.1511C58.1605 14.1786 57.9606 14.18 57.7414 14.18V15.58ZM59.7414 14.58C59.7414 14.694 59.7124 14.7819 59.6921 14.8312C59.6735 14.8764 59.6543 14.9075 59.6542 14.9076C59.6531 14.9093 59.6524 14.9104 59.6554 14.9056C59.6576 14.9022 59.662 14.895 59.667 14.8867C59.6774 14.8692 59.692 14.8441 59.7075 14.813L58.4553 14.187C58.4613 14.1749 58.4796 14.1441 58.4537 14.1874C58.4461 14.2 58.4205 14.2424 58.3976 14.2982C58.3729 14.3581 58.3414 14.456 58.3414 14.58H59.7414ZM59.7075 14.813C59.8948 14.4386 59.9696 13.8866 60.0088 13.4356C60.0513 12.9468 60.0614 12.4291 60.0614 12.04H58.6614C58.6614 12.4109 58.6515 12.8832 58.614 13.3144C58.5733 13.7834 58.5081 14.0814 58.4553 14.187L59.7075 14.813ZM60.0614 12.0458L60.0814 9.64583L58.6814 9.63417L58.6614 12.0342L60.0614 12.0458ZM59.5596 8.96305C59.1805 8.86329 58.5816 8.7 57.8414 8.7V10.1C58.3812 10.1 58.8223 10.2167 59.2033 10.317L59.5596 8.96305ZM62.8209 5.64L62.7576 4.94287L62.6658 6.32259L62.8209 5.64ZM66.0809 5.48H66.7809V4.78H66.0809V5.48ZM66.1009 7.86L65.4012 7.87794L66.7723 8.05811L66.1009 7.86ZM69.7409 7V6.3H69.7322L69.7234 6.30022L69.7409 7ZM67.9009 6.32L67.9599 7.01751L67.9603 7.01748L67.9009 6.32ZM66.0809 10.32L65.3815 10.2915L65.3811 10.3007L65.381 10.31L66.0809 10.32ZM66.3409 14.52L65.7363 14.8727L65.7405 14.8798L65.7448 14.8869L66.3409 14.52ZM67.0609 15V15.7L67.1982 14.3136L67.0609 15ZM63.2209 15L63.0919 14.312L63.2209 15.7V15ZM63.9609 14.5L63.3673 14.129L63.3497 14.1572L63.3348 14.187L63.9609 14.5ZM63.9409 6.36L63.3351 6.71072L63.3447 6.72717L63.3551 6.74307L63.9409 6.36ZM62.8843 6.33712C63.9685 6.23856 65.0268 6.18 66.0809 6.18V4.78C64.9751 4.78 63.8734 4.84144 62.7576 4.94287L62.8843 6.33712ZM65.3809 5.48C65.3809 6.27834 65.3809 7.08742 65.4012 7.87794L66.8007 7.84206C66.781 7.07258 66.7809 6.28166 66.7809 5.48H65.3809ZM66.7723 8.05811C67.0624 7.07522 68.01 6.26 68.9809 6.26V4.86C67.2718 4.86 65.8595 6.20478 65.4296 7.66189L66.7723 8.05811ZM68.9809 6.26C69.1644 6.26 69.3994 6.29329 69.5609 6.36081C69.6388 6.39339 69.6598 6.41759 69.6553 6.41257C69.6394 6.39458 69.6209 6.35493 69.6209 6.32H71.0209C71.0209 5.59941 70.4792 5.22735 70.101 5.06919C69.7124 4.90671 69.2775 4.86 68.9809 4.86V6.26ZM69.6209 6.32C69.6209 6.38492 69.6025 6.38067 69.629 6.35107C69.6411 6.33753 69.6589 6.32359 69.6815 6.3135C69.7041 6.30342 69.7252 6.3 69.7409 6.3V7.7C70.5195 7.7 71.0209 7.05048 71.0209 6.32H69.6209ZM69.7234 6.30022C69.6014 6.30327 69.5634 6.28066 69.2944 6.07819C69.1676 5.98277 68.9789 5.84386 68.7322 5.74529C68.4734 5.64187 68.1813 5.5936 67.8416 5.62252L67.9603 7.01748C68.0905 7.00639 68.1634 7.02563 68.2128 7.04534C68.2742 7.06989 68.3368 7.10973 68.4525 7.19681C68.6685 7.35934 69.0805 7.71673 69.7584 7.69978L69.7234 6.30022ZM67.842 5.62249C67.2285 5.67433 66.7778 6.02893 66.4684 6.43082C66.164 6.82634 65.9542 7.3174 65.806 7.78661C65.5084 8.7285 65.403 9.76516 65.3815 10.2915L66.7804 10.3485C66.7989 9.89483 66.8935 8.9915 67.1409 8.20838C67.2652 7.8151 67.4142 7.49741 67.5778 7.2848C67.7366 7.07857 67.8634 7.02567 67.9599 7.01751L67.842 5.62249ZM65.381 10.31C65.371 11.0127 65.3657 11.9582 65.399 12.7929C65.4156 13.2091 65.4422 13.6107 65.485 13.9465C65.5063 14.1142 65.533 14.2765 65.5677 14.4216C65.5996 14.5555 65.6493 14.7235 65.7363 14.8727L66.9456 14.1673C66.9626 14.1965 66.951 14.187 66.9294 14.0966C66.9106 14.0176 66.8915 13.9089 66.8738 13.7697C66.8384 13.4918 66.8138 13.1359 66.7979 12.7371C66.7662 11.9418 66.7709 11.0273 66.7809 10.33L65.381 10.31ZM65.7448 14.8869C66.022 15.3374 66.4637 15.5944 66.9237 15.6864L67.1982 14.3136C67.0582 14.2856 66.9798 14.2226 66.9371 14.1531L65.7448 14.8869ZM67.0609 14.3H63.2209V15.7H67.0609V14.3ZM63.3499 15.688C63.8062 15.6025 64.318 15.3511 64.587 14.813L63.3348 14.187C63.3238 14.2089 63.2757 14.2775 63.0919 14.312L63.3499 15.688ZM64.5545 14.871C64.6673 14.6906 64.7302 14.4771 64.7707 14.3019C64.8145 14.1124 64.8471 13.8977 64.8722 13.6753C64.9224 13.2298 64.948 12.7025 64.9607 12.1821C64.986 11.1475 64.9609 10.0538 64.9609 9.62H63.5609C63.5609 10.1062 63.5859 11.1325 63.5611 12.1479C63.5488 12.6525 63.5245 13.1327 63.481 13.5184C63.4592 13.7116 63.4339 13.8686 63.4066 13.9867C63.376 14.1192 63.3546 14.1494 63.3673 14.129L64.5545 14.871ZM64.9609 9.62C64.9609 9.30661 64.9662 8.59968 64.9273 7.90588C64.908 7.55955 64.8768 7.20048 64.8251 6.88542C64.7789 6.60381 64.7003 6.24219 64.5268 5.97693L63.3551 6.74307C63.3516 6.7378 63.3979 6.83369 63.4436 7.11208C63.4838 7.35702 63.5114 7.66045 63.5295 7.98412C63.5657 8.63032 63.5609 9.29339 63.5609 9.62H64.9609ZM64.5467 6.00927C64.1886 5.39064 63.5089 5.07851 62.9761 4.95741L62.6658 6.32259C63.0129 6.40149 63.2533 6.56936 63.3351 6.71072L64.5467 6.00927ZM70.845 5.62L70.8231 4.92034L70.145 4.94153V5.62H70.845ZM73.845 2.4V1.7H73.1974L73.1471 2.34562L73.845 2.4ZM74.785 2.4H75.485V1.7H74.785V2.4ZM74.785 5.52H74.085V6.22H74.785V5.52ZM77.465 5.52H78.165V4.82H77.465V5.52ZM77.465 5.82V6.52H78.165V5.82H77.465ZM74.785 5.82V5.12H74.085V5.82H74.785ZM77.305 13.3L77.766 12.7732L76.8902 12.0069L76.6236 13.1397L77.305 13.3ZM77.465 13.44L78.084 13.7669L78.3424 13.2776L77.926 12.9132L77.465 13.44ZM72.905 5.82H73.605V5.12H72.905V5.82ZM70.845 5.82H70.145V6.52H70.845V5.82ZM70.8669 6.31966C72.3056 6.2747 73.263 5.78722 73.8365 4.95458C74.3688 4.18173 74.4831 3.22187 74.5429 2.45438L73.1471 2.34562C73.0869 3.11813 72.9812 3.72826 72.6835 4.16042C72.427 4.53278 71.9444 4.8853 70.8231 4.92034L70.8669 6.31966ZM73.845 3.1H74.785V1.7H73.845V3.1ZM74.085 2.4V5.52H75.485V2.4H74.085ZM74.785 6.22H77.465V4.82H74.785V6.22ZM76.765 5.52V5.82H78.165V5.52H76.765ZM77.465 5.12H74.785V6.52H77.465V5.12ZM74.085 5.82V13.52H75.485V5.82H74.085ZM74.085 13.52C74.085 14.0261 74.1916 14.4957 74.4752 14.8514C74.7778 15.231 75.2006 15.38 75.605 15.38V13.98C75.571 13.98 75.5602 13.9742 75.5637 13.9757C75.5699 13.9784 75.573 13.9827 75.5698 13.9786C75.5584 13.9643 75.485 13.8539 75.485 13.52H74.085ZM75.605 15.38C76.1539 15.38 76.6903 15.1056 77.0818 14.79C77.4763 14.472 77.8585 14.0037 77.9864 13.4603L76.6236 13.1397C76.5915 13.2763 76.4537 13.498 76.2032 13.7C75.9497 13.9044 75.7161 13.98 75.605 13.98V15.38ZM76.844 13.8268L77.004 13.9668L77.926 12.9132L77.766 12.7732L76.844 13.8268ZM76.846 13.1131C76.4248 13.9108 76.0358 14.2213 75.7542 14.3566C75.4624 14.4969 75.1933 14.5 74.845 14.5V15.9C75.1767 15.9 75.7476 15.9131 76.3608 15.6184C76.9842 15.3187 77.5652 14.7492 78.084 13.7669L76.846 13.1131ZM74.845 14.5C74.5375 14.5 74.2164 14.3679 73.9711 14.1447C73.7247 13.9206 73.605 13.6532 73.605 13.42H72.205C72.205 14.1268 72.5553 14.7494 73.029 15.1803C73.5036 15.6121 74.1525 15.9 74.845 15.9V14.5ZM73.605 13.42V5.82H72.205V13.42H73.605ZM72.905 5.12H70.845V6.52H72.905V5.12ZM71.545 5.82V5.62H70.145V5.82H71.545ZM79.2134 6.36L79.8537 6.07708L79.8261 6.01457L79.7869 5.95858L79.2134 6.36ZM78.0734 5.64L78.0086 4.94301L77.9307 6.32529L78.0734 5.64ZM81.3334 5.48H82.0334V4.78H81.3334V5.48ZM81.3334 7H80.6334V8.79631L81.8489 7.47364L81.3334 7ZM88.7734 14.52L88.164 14.8644L88.1797 14.8922L88.1979 14.9184L88.7734 14.52ZM89.4934 15V15.7L89.6738 14.3236L89.4934 15ZM85.6534 15L85.4731 14.3236L85.6534 15.7V15ZM86.3734 14.5L86.9812 14.8473L86.9852 14.8404L86.9889 14.8334L86.3734 14.5ZM86.6534 11.62L87.3535 11.62L87.3534 11.6135L86.6534 11.62ZM86.6334 9.46L85.9334 9.46L85.9335 9.46648L86.6334 9.46ZM81.3334 7.36L80.7717 6.94231L80.631 7.13159L80.6335 7.36745L81.3334 7.36ZM81.3534 9.24L82.0535 9.24504L82.0534 9.23255L81.3534 9.24ZM81.3334 12.02L80.6334 12.015V12.02H81.3334ZM81.5934 14.52L80.984 14.8644L80.9857 14.8673L81.5934 14.52ZM82.3134 15V15.7L82.4601 14.3155L82.3134 15ZM78.4734 15L78.3444 14.312L78.4734 15.7V15ZM79.2334 14.5L79.8337 14.8601L79.8475 14.8371L79.8595 14.813L79.2334 14.5ZM79.7869 5.95858C79.3887 5.3897 78.8413 5.08493 78.2162 4.95471L77.9307 6.32529C78.2656 6.39507 78.4782 6.5303 78.64 6.76142L79.7869 5.95858ZM78.1383 6.33699C78.981 6.25859 80.419 6.18 81.3334 6.18V4.78C80.3679 4.78 78.8858 4.8614 78.0086 4.94301L78.1383 6.33699ZM80.6334 5.48V7H82.0334V5.48H80.6334ZM81.8489 7.47364C82.4432 6.82689 83.6093 6.12 84.6734 6.12V4.72C83.0976 4.72 81.5837 5.69311 80.818 6.52636L81.8489 7.47364ZM84.6734 6.12C85.7736 6.12 86.5274 6.49107 87.0108 7.01644C87.5032 7.55169 87.7734 8.31153 87.7734 9.18H89.1734C89.1734 8.02847 88.8137 6.90831 88.0411 6.06856C87.2594 5.21893 86.1133 4.72 84.6734 4.72V6.12ZM87.7734 9.18V11.8H89.1734V9.18H87.7734ZM87.7734 11.8C87.7734 12.1108 87.7837 12.6951 87.828 13.2667C87.8502 13.5518 87.8817 13.8458 87.9274 14.1063C87.9689 14.3427 88.0353 14.6367 88.164 14.8644L89.3828 14.1756C89.3884 14.1853 89.3773 14.1675 89.3588 14.1027C89.3416 14.043 89.3238 13.9635 89.3063 13.8643C89.2714 13.6655 89.2442 13.4207 89.2238 13.1583C89.1832 12.6349 89.1734 12.0892 89.1734 11.8H87.7734ZM88.1979 14.9184C88.4936 15.3456 88.8925 15.5642 89.3131 15.6764L89.6738 14.3236C89.4944 14.2758 89.4133 14.2144 89.349 14.1216L88.1979 14.9184ZM89.4934 14.3H85.6534V15.7H89.4934V14.3ZM85.8338 15.6764C86.2317 15.5703 86.6931 15.3514 86.9812 14.8473L85.7657 14.1527C85.7449 14.1891 85.7201 14.2148 85.6832 14.2389C85.6412 14.2663 85.576 14.2962 85.4731 14.3236L85.8338 15.6764ZM86.9889 14.8334C87.1161 14.5986 87.1793 14.2915 87.2184 14.0436C87.2615 13.7697 87.2901 13.4592 87.3095 13.1575C87.3484 12.5525 87.3534 11.9349 87.3534 11.62H85.9534C85.9534 11.9251 85.9484 12.5075 85.9124 13.0675C85.8943 13.3483 85.8691 13.6115 85.8354 13.8258C85.8185 13.9328 85.8009 14.019 85.7835 14.0843C85.7647 14.1552 85.753 14.1758 85.7579 14.1666L86.9889 14.8334ZM87.3534 11.6135L87.3334 9.45352L85.9335 9.46648L85.9535 11.6265L87.3534 11.6135ZM87.3334 9.46C87.3334 8.88325 87.3554 7.82639 87.0621 6.91754C86.9116 6.451 86.6627 5.96953 86.2391 5.60328C85.8026 5.22597 85.2372 5.02 84.5534 5.02V6.42C84.9397 6.42 85.1692 6.52903 85.3234 6.66235C85.4904 6.80672 85.6278 7.0315 85.7298 7.34746C85.9415 8.00361 85.9334 8.81675 85.9334 9.46H87.3334ZM84.5534 5.02C83.7645 5.02 82.989 5.28188 82.3456 5.63308C81.7039 5.98332 81.1341 6.45494 80.7717 6.94231L81.8952 7.77769C82.1128 7.48506 82.513 7.13668 83.0163 6.86192C83.5179 6.58812 84.0623 6.42 84.5534 6.42V5.02ZM80.6335 7.36745L80.6535 9.24745L82.0534 9.23255L82.0334 7.35255L80.6335 7.36745ZM80.6535 9.23496L80.6335 12.015L82.0334 12.025L82.0534 9.24504L80.6535 9.23496ZM80.6334 12.02C80.6334 12.3084 80.6332 12.8399 80.6674 13.3609C80.6845 13.621 80.711 13.8919 80.7534 14.1366C80.7926 14.3622 80.8569 14.6396 80.984 14.8644L82.2028 14.1756C82.2063 14.1816 82.1959 14.1639 82.1795 14.1078C82.1641 14.0551 82.1481 13.9851 82.1328 13.8972C82.1022 13.7206 82.0799 13.504 82.0644 13.2691C82.0336 12.8001 82.0334 12.3116 82.0334 12.02H80.6334ZM80.9857 14.8673C81.2798 15.3821 81.7749 15.6005 82.1668 15.6845L82.4601 14.3155C82.292 14.2795 82.2271 14.2179 82.2012 14.1727L80.9857 14.8673ZM82.3134 14.3H78.4734V15.7H82.3134V14.3ZM78.6024 15.688C79.0689 15.6006 79.527 15.3712 79.8337 14.8601L78.6332 14.1399C78.5978 14.1988 78.5648 14.2277 78.5339 14.2471C78.4989 14.269 78.4421 14.2937 78.3444 14.312L78.6024 15.688ZM79.8595 14.813C79.9765 14.5791 80.0427 14.2972 80.0854 14.0458C80.1303 13.7818 80.1586 13.4927 80.1769 13.2134C80.2136 12.6549 80.2134 12.0883 80.2134 11.76H78.8134C78.8134 12.0917 78.8132 12.6151 78.7799 13.1216C78.7633 13.3748 78.7391 13.612 78.7052 13.8111C78.6692 14.0228 78.6304 14.1409 78.6073 14.187L79.8595 14.813ZM80.2134 11.76C80.2134 10.4595 80.2335 9.29773 80.2056 8.37141C80.1785 7.47225 80.1066 6.64937 79.8537 6.07708L78.5732 6.64291C78.7003 6.93063 78.7784 7.48774 78.8063 8.41359C78.8333 9.31227 78.8134 10.4205 78.8134 11.76H80.2134ZM99.7694 10.24V10.94H100.485L100.469 10.225L99.7694 10.24ZM92.3494 10.24V9.54H91.6494V10.24H92.3494ZM99.4294 12.72V12.02H99.0351L98.8307 12.3572L99.4294 12.72ZM99.5694 12.72L100.212 12.9967L100.633 12.02H99.5694V12.72ZM92.3694 10.04L91.6731 9.96766L91.5929 10.74H92.3694V10.04ZM97.8094 10.04V10.74H98.5379L98.5088 10.012L97.8094 10.04ZM90.9894 10.46C90.9894 9.13388 91.398 8.07313 92.0847 7.34928C92.7669 6.63017 93.7834 6.18 95.1294 6.18V4.78C93.4553 4.78 92.0518 5.34983 91.0691 6.38572C90.0908 7.41687 89.5894 8.84612 89.5894 10.46H90.9894ZM95.1294 6.18C96.3692 6.18 97.3237 6.60624 97.9775 7.29276C98.6365 7.98476 99.0426 8.99723 99.0695 10.255L100.469 10.225C100.436 8.68277 99.9322 7.31524 98.9913 6.32724C98.0451 5.33376 96.7096 4.78 95.1294 4.78V6.18ZM99.7694 9.54H92.3494V10.94H99.7694V9.54ZM91.6494 10.24C91.6494 11.4087 91.7434 12.7382 92.3011 13.7883C92.5889 14.3302 93.0036 14.8054 93.5882 15.1396C94.1695 15.4719 94.8753 15.64 95.7094 15.64V14.24C95.0635 14.24 94.6092 14.1106 94.283 13.9242C93.9602 13.7396 93.7198 13.4748 93.5376 13.1317C93.1553 12.4118 93.0494 11.3913 93.0494 10.24H91.6494ZM95.7094 15.64C97.3142 15.64 99.1119 14.5944 100.028 13.0828L98.8307 12.3572C98.1468 13.4856 96.7845 14.24 95.7094 14.24V15.64ZM99.4294 13.42H99.5694V12.02H99.4294V13.42ZM98.9264 12.4433C98.3881 13.6941 96.798 14.5 95.3894 14.5V15.9C97.1807 15.9 99.3907 14.9059 100.212 12.9967L98.9264 12.4433ZM95.3894 14.5C94.0599 14.5 92.9621 14.094 92.2054 13.4124C91.4568 12.738 90.9894 11.7477 90.9894 10.46H89.5894C89.5894 12.1123 90.202 13.492 91.2684 14.4526C92.3267 15.406 93.7788 15.9 95.3894 15.9V14.5ZM95.2294 4.98C93.7547 4.98 92.8887 5.96444 92.4085 6.98436C91.9336 7.99319 91.7549 9.18101 91.6731 9.96766L93.0656 10.1123C93.1439 9.35899 93.3051 8.36681 93.6752 7.58064C94.0401 6.80556 94.5241 6.38 95.2294 6.38V4.98ZM92.3694 10.74H97.8094V9.34H92.3694V10.74ZM98.5088 10.012C98.4789 9.26509 98.4088 8.06763 98.012 7.0444C97.8107 6.52532 97.5093 6.00702 97.0462 5.61567C96.57 5.21319 95.9633 4.98 95.2294 4.98V6.38C95.6455 6.38 95.9288 6.50431 96.1425 6.68496C96.3695 6.87673 96.558 7.16718 96.7067 7.5506C97.0099 8.33237 97.0798 9.31491 97.1099 10.068L98.5088 10.012ZM100.399 5.64L100.336 4.94287L100.244 6.32259L100.399 5.64ZM103.659 5.48H104.359V4.78H103.659V5.48ZM103.679 7.86L102.979 7.87794L104.35 8.05811L103.679 7.86ZM107.319 7V6.3H107.31L107.302 6.30022L107.319 7ZM105.479 6.32L105.538 7.01751L105.538 7.01748L105.479 6.32ZM103.659 10.32L102.96 10.2915L102.959 10.3007L102.959 10.31L103.659 10.32ZM103.919 14.52L103.314 14.8727L103.319 14.8798L103.323 14.8869L103.919 14.52ZM104.639 15V15.7L104.776 14.3136L104.639 15ZM100.799 15L100.67 14.312L100.799 15.7V15ZM101.539 14.5L100.945 14.129L100.928 14.1572L100.913 14.187L101.539 14.5ZM101.519 6.36L100.913 6.71072L100.923 6.72717L100.933 6.74307L101.519 6.36ZM100.462 6.33712C101.547 6.23856 102.605 6.18 103.659 6.18V4.78C102.553 4.78 101.452 4.84144 100.336 4.94287L100.462 6.33712ZM102.959 5.48C102.959 6.27834 102.959 7.08742 102.979 7.87794L104.379 7.84206C104.359 7.07258 104.359 6.28166 104.359 5.48H102.959ZM104.35 8.05811C104.64 7.07522 105.588 6.26 106.559 6.26V4.86C104.85 4.86 103.438 6.20478 103.008 7.66189L104.35 8.05811ZM106.559 6.26C106.742 6.26 106.978 6.29329 107.139 6.36081C107.217 6.39339 107.238 6.41759 107.233 6.41257C107.218 6.39458 107.199 6.35493 107.199 6.32H108.599C108.599 5.59941 108.057 5.22735 107.679 5.06919C107.291 4.90671 106.856 4.86 106.559 4.86V6.26ZM107.199 6.32C107.199 6.38492 107.181 6.38067 107.207 6.35107C107.219 6.33753 107.237 6.32359 107.26 6.3135C107.282 6.30342 107.303 6.3 107.319 6.3V7.7C108.098 7.7 108.599 7.05048 108.599 6.32H107.199ZM107.302 6.30022C107.18 6.30327 107.142 6.28066 106.872 6.07819C106.746 5.98277 106.557 5.84386 106.31 5.74529C106.052 5.64187 105.759 5.5936 105.42 5.62252L105.538 7.01748C105.669 7.00639 105.742 7.02563 105.791 7.04534C105.852 7.06989 105.915 7.10973 106.031 7.19681C106.247 7.35934 106.659 7.71673 107.337 7.69978L107.302 6.30022ZM105.42 5.62249C104.807 5.67433 104.356 6.02893 104.047 6.43082C103.742 6.82634 103.532 7.3174 103.384 7.78661C103.087 8.7285 102.981 9.76516 102.96 10.2915L104.358 10.3485C104.377 9.89483 104.472 8.9915 104.719 8.20838C104.843 7.8151 104.992 7.49741 105.156 7.2848C105.315 7.07857 105.442 7.02567 105.538 7.01751L105.42 5.62249ZM102.959 10.31C102.949 11.0127 102.944 11.9582 102.977 12.7929C102.994 13.2091 103.02 13.6107 103.063 13.9465C103.084 14.1142 103.111 14.2765 103.146 14.4216C103.178 14.5555 103.227 14.7235 103.314 14.8727L104.524 14.1673C104.541 14.1965 104.529 14.187 104.508 14.0966C104.489 14.0176 104.47 13.9089 104.452 13.7697C104.417 13.4918 104.392 13.1359 104.376 12.7371C104.344 11.9418 104.349 11.0273 104.359 10.33L102.959 10.31ZM103.323 14.8869C103.6 15.3374 104.042 15.5944 104.502 15.6864L104.776 14.3136C104.636 14.2856 104.558 14.2226 104.515 14.1531L103.323 14.8869ZM104.639 14.3H100.799V15.7H104.639V14.3ZM100.928 15.688C101.384 15.6025 101.896 15.3511 102.165 14.813L100.913 14.187C100.902 14.2089 100.854 14.2775 100.67 14.312L100.928 15.688ZM102.133 14.871C102.245 14.6906 102.308 14.4771 102.349 14.3019C102.393 14.1124 102.425 13.8977 102.45 13.6753C102.501 13.2298 102.526 12.7025 102.539 12.1821C102.564 11.1475 102.539 10.0538 102.539 9.62H101.139C101.139 10.1062 101.164 11.1325 101.139 12.1479C101.127 12.6525 101.103 13.1327 101.059 13.5184C101.037 13.7116 101.012 13.8686 100.985 13.9867C100.954 14.1192 100.933 14.1494 100.945 14.129L102.133 14.871ZM102.539 9.62C102.539 9.30661 102.544 8.59968 102.505 7.90588C102.486 7.55955 102.455 7.20048 102.403 6.88542C102.357 6.60381 102.278 6.24219 102.105 5.97693L100.933 6.74307C100.93 6.7378 100.976 6.83369 101.022 7.11208C101.062 7.35702 101.09 7.66045 101.108 7.98412C101.144 8.63032 101.139 9.29339 101.139 9.62H102.539ZM102.125 6.00927C101.767 5.39064 101.087 5.07851 100.554 4.95741L100.244 6.32259C100.591 6.40149 100.831 6.56936 100.913 6.71072L102.125 6.00927ZM113.003 5.14L113.041 4.44098L113.034 4.44066L113.003 5.14ZM115.783 5.76L116.482 5.72959L116.463 5.28995L116.059 5.1166L115.783 5.76ZM115.803 6.22H116.503V6.20479L116.502 6.18959L115.803 6.22ZM115.723 7.8L115.838 8.49048L116.379 8.40034L116.421 7.85369L115.723 7.8ZM115.603 7.82L114.91 7.91899L115.011 8.62826L115.718 8.51048L115.603 7.82ZM112.163 15.5L112.185 14.8003L112.185 14.8003L112.163 15.5ZM109.263 14.6L108.565 14.6466L108.588 15.0018L108.889 15.1918L109.263 14.6ZM109.263 12.76L109.164 12.067L108.6 12.1476L108.564 12.7163L109.263 12.76ZM109.403 12.74L110.091 12.6086L109.965 11.9526L109.304 12.047L109.403 12.74ZM112.503 15.22L112.534 15.9193L112.534 15.9193L112.503 15.22ZM114.783 13.1L115.483 13.0892L115.483 13.0891L114.783 13.1ZM109.743 7.86C109.743 7.2285 110.084 6.72989 110.693 6.36559C111.316 5.99235 112.166 5.80425 112.973 5.83934L113.034 4.44066C112.001 4.39575 110.87 4.62765 109.974 5.16441C109.062 5.71011 108.343 6.61149 108.343 7.86H109.743ZM112.965 5.83898C113.638 5.87531 114.895 6.14089 115.507 6.4034L116.059 5.1166C115.271 4.77911 113.849 4.48469 113.041 4.44102L112.965 5.83898ZM115.084 5.79041L115.104 6.25041L116.502 6.18959L116.482 5.72959L115.084 5.79041ZM115.103 6.22C115.103 6.72887 115.065 7.22253 115.025 7.74631L116.421 7.85369C116.461 7.33747 116.503 6.79113 116.503 6.22H115.103ZM115.608 7.10952L115.488 7.12952L115.718 8.51048L115.838 8.49048L115.608 7.10952ZM116.296 7.721C116.068 6.12405 114.659 4.68 112.603 4.68V6.08C113.947 6.08 114.778 6.99594 114.91 7.91899L116.296 7.721ZM112.603 4.68C111.105 4.68 109.963 5.90598 109.963 7.44H111.363C111.363 6.61402 111.942 6.08 112.603 6.08V4.68ZM109.963 7.44C109.963 8.4057 110.548 9.01491 111.193 9.41268C111.804 9.78983 112.613 10.0644 113.285 10.3194C114.006 10.5936 114.621 10.8604 115.059 11.2241C115.46 11.5575 115.703 11.9618 115.703 12.58H117.103C117.103 11.4882 116.628 10.7075 115.953 10.1471C115.315 9.61706 114.495 9.28144 113.782 9.01061C113.018 8.72065 112.392 8.50767 111.927 8.22107C111.496 7.95509 111.363 7.7243 111.363 7.44H109.963ZM115.703 12.58C115.703 13.2836 115.316 13.8281 114.641 14.2237C113.952 14.6281 113.028 14.827 112.185 14.8003L112.141 16.1997C113.199 16.233 114.394 15.9919 115.35 15.4313C116.32 14.8619 117.103 13.9164 117.103 12.58H115.703ZM112.185 14.8003C111.058 14.7651 110.318 14.4383 109.637 14.0082L108.889 15.1918C109.728 15.7217 110.708 16.1549 112.141 16.1997L112.185 14.8003ZM109.962 14.5534C109.943 14.2806 109.943 14.0039 109.943 13.7H108.543C108.543 13.9961 108.543 14.3194 108.565 14.6466L109.962 14.5534ZM109.943 13.7C109.943 13.3771 109.943 13.0985 109.962 12.8037L108.564 12.7163C108.543 13.0615 108.543 13.3829 108.543 13.7H109.943ZM109.362 13.453L109.502 13.433L109.304 12.047L109.164 12.067L109.362 13.453ZM108.716 12.8714C108.87 13.6785 109.26 14.4653 109.911 15.0432C110.571 15.6299 111.461 15.967 112.534 15.9193L112.472 14.5207C111.745 14.553 111.216 14.3301 110.841 13.9968C110.456 13.6547 110.196 13.1615 110.091 12.6086L108.716 12.8714ZM112.534 15.9193C113.323 15.884 114.065 15.6401 114.618 15.1482C115.186 14.6439 115.496 13.929 115.483 13.0892L114.083 13.1108C114.09 13.571 113.931 13.8861 113.688 14.1018C113.431 14.3299 113.024 14.496 112.472 14.5207L112.534 15.9193ZM115.483 13.0891C115.468 12.1179 114.887 11.508 114.236 11.1082C113.622 10.7316 112.812 10.4606 112.146 10.208C111.429 9.93595 110.822 9.66852 110.39 9.29782C109.995 8.95881 109.743 8.53172 109.743 7.86H108.343C108.343 8.97828 108.804 9.78119 109.479 10.3603C110.117 10.9077 110.937 11.2466 111.65 11.517C112.414 11.8069 113.036 12.0147 113.503 12.3012C113.932 12.5645 114.078 12.8021 114.083 13.1109L115.483 13.0891Z" fill="black"/>
</svg>
