<svg width="48" height="48" viewBox="0 0 48 48" fill="none" xmlns="http://www.w3.org/2000/svg">
<g clip-path="url(#clip0_369_918)">
<path d="M24 48C10.76 48 0 37.24 0 24C0 10.76 10.76 0 24 0C37.24 0 48 10.76 48 24C48 37.24 37.24 48 24 48ZM24 2C11.88 2 2 11.88 2 24C2 36.12 11.88 46 24 46C36.12 46 46 36.12 46 24C46 11.88 36.12 2 24 2Z" fill="#2E663F"/>
<path d="M24 48C16.28 48 10.24 37.44 10.24 24C10.24 10.56 16.28 0 24 0C31.72 0 37.76 10.56 37.76 24C37.76 37.44 31.72 48 24 48ZM24 2C17.52 2 12.2 11.88 12.2 24C12.2 36.12 17.48 46 24 46C30.52 46 35.8 36.12 35.8 24C35.8 11.88 30.48 2 24 2Z" fill="#2E663F"/>
<path d="M43.12 10.24H4.88V12.24H43.12V10.24Z" fill="#2E663F"/>
<path d="M43.12 35.8H4.88V37.8H43.12V35.8Z" fill="#2E663F"/>
<path d="M47 23H1V25H47V23Z" fill="#2E663F"/>
<path d="M25 1H23V47H25V1Z" fill="#2E663F"/>
</g>
<defs>
<clipPath id="clip0_369_918">
<rect width="48" height="48" fill="white"/>
</clipPath>
</defs>
</svg>
