<svg width="317" height="94" viewBox="0 0 317 94" fill="none" xmlns="http://www.w3.org/2000/svg">
<path d="M74.651 35C74.491 35 74.351 34.955 74.231 34.865C74.121 34.765 74.046 34.635 74.006 34.475L70.946 24.2C70.866 23.93 70.876 23.71 70.976 23.54C71.076 23.37 71.241 23.285 71.471 23.285C71.601 23.285 71.721 23.325 71.831 23.405C71.951 23.475 72.041 23.6 72.101 23.78L74.831 33.275H74.486L77.051 23.975C77.081 23.855 77.151 23.755 77.261 23.675C77.381 23.595 77.516 23.555 77.666 23.555C77.796 23.555 77.921 23.595 78.041 23.675C78.161 23.745 78.241 23.85 78.281 23.99L80.861 33.275H80.531L83.276 23.705C83.346 23.425 83.556 23.285 83.906 23.285C84.136 23.285 84.291 23.375 84.371 23.555C84.451 23.735 84.456 23.95 84.386 24.2L81.341 34.46C81.281 34.63 81.196 34.765 81.086 34.865C80.976 34.955 80.841 35 80.681 35C80.531 35 80.396 34.95 80.276 34.85C80.166 34.75 80.086 34.625 80.036 34.475L77.486 25.01H77.846L75.296 34.46C75.246 34.62 75.161 34.75 75.041 34.85C74.931 34.95 74.801 35 74.651 35ZM88.1829 35.075C87.3629 35.075 86.6379 34.9 86.0079 34.55C85.3779 34.19 84.8829 33.695 84.5229 33.065C84.1629 32.435 83.9829 31.715 83.9829 30.905C83.9829 30.085 84.1529 29.365 84.4929 28.745C84.8329 28.115 85.2979 27.62 85.8879 27.26C86.4879 26.9 87.1779 26.72 87.9579 26.72C88.7179 26.72 89.3779 26.895 89.9379 27.245C90.5079 27.585 90.9429 28.06 91.2429 28.67C91.5529 29.28 91.7079 29.975 91.7079 30.755C91.7079 30.925 91.6529 31.065 91.5429 31.175C91.4329 31.275 91.2929 31.325 91.1229 31.325H84.8529V30.29H91.1979L90.5529 30.74C90.5629 30.19 90.4629 29.695 90.2529 29.255C90.0429 28.815 89.7429 28.47 89.3529 28.22C88.9629 27.97 88.4979 27.845 87.9579 27.845C87.3879 27.845 86.8879 27.975 86.4579 28.235C86.0379 28.495 85.7129 28.86 85.4829 29.33C85.2629 29.79 85.1529 30.315 85.1529 30.905C85.1529 31.495 85.2829 32.02 85.5429 32.48C85.8029 32.94 86.1579 33.3 86.6079 33.56C87.0679 33.82 87.5929 33.95 88.1829 33.95C88.5229 33.95 88.8679 33.89 89.2179 33.77C89.5779 33.65 89.8629 33.5 90.0729 33.32C90.1929 33.23 90.3279 33.185 90.4779 33.185C90.6379 33.175 90.7679 33.215 90.8679 33.305C91.0179 33.435 91.0929 33.575 91.0929 33.725C91.1029 33.875 91.0379 34.005 90.8979 34.115C90.5679 34.395 90.1479 34.625 89.6379 34.805C89.1279 34.985 88.6429 35.075 88.1829 35.075ZM101.791 35.075C101.001 35.075 100.291 34.895 99.6606 34.535C99.0306 34.165 98.5306 33.665 98.1606 33.035C97.8006 32.405 97.6206 31.69 97.6206 30.89C97.6206 30.1 97.7956 29.39 98.1456 28.76C98.4956 28.13 98.9706 27.635 99.5706 27.275C100.171 26.905 100.851 26.72 101.611 26.72C102.261 26.72 102.846 26.86 103.366 27.14C103.896 27.41 104.326 27.77 104.656 28.22V23.93C104.656 23.73 104.716 23.575 104.836 23.465C104.966 23.345 105.121 23.285 105.301 23.285C105.491 23.285 105.646 23.345 105.766 23.465C105.886 23.575 105.946 23.73 105.946 23.93V30.935C105.926 31.715 105.731 32.42 105.361 33.05C105.001 33.67 104.511 34.165 103.891 34.535C103.271 34.895 102.571 35.075 101.791 35.075ZM101.791 33.935C102.351 33.935 102.846 33.8 103.276 33.53C103.716 33.26 104.061 32.9 104.311 32.45C104.571 31.99 104.701 31.47 104.701 30.89C104.701 30.32 104.571 29.805 104.311 29.345C104.061 28.885 103.716 28.525 103.276 28.265C102.846 27.995 102.351 27.86 101.791 27.86C101.241 27.86 100.741 27.995 100.291 28.265C99.8506 28.525 99.5006 28.885 99.2406 29.345C98.9806 29.805 98.8506 30.32 98.8506 30.89C98.8506 31.47 98.9806 31.99 99.2406 32.45C99.5006 32.9 99.8506 33.26 100.291 33.53C100.741 33.8 101.241 33.935 101.791 33.935ZM109.501 35C109.311 35 109.156 34.945 109.036 34.835C108.916 34.715 108.856 34.555 108.856 34.355V27.44C108.856 27.24 108.916 27.085 109.036 26.975C109.156 26.855 109.311 26.795 109.501 26.795C109.691 26.795 109.841 26.855 109.951 26.975C110.071 27.085 110.131 27.24 110.131 27.44V34.355C110.131 34.555 110.071 34.715 109.951 34.835C109.841 34.945 109.691 35 109.501 35ZM109.486 25.31C109.246 25.31 109.041 25.225 108.871 25.055C108.701 24.875 108.616 24.665 108.616 24.425C108.616 24.175 108.701 23.97 108.871 23.81C109.051 23.65 109.256 23.57 109.486 23.57C109.716 23.57 109.916 23.65 110.086 23.81C110.266 23.97 110.356 24.175 110.356 24.425C110.356 24.665 110.271 24.875 110.101 25.055C109.931 25.225 109.726 25.31 109.486 25.31ZM116.776 35.075C115.986 35.075 115.276 34.895 114.646 34.535C114.016 34.165 113.516 33.665 113.146 33.035C112.786 32.405 112.606 31.69 112.606 30.89C112.606 30.1 112.781 29.39 113.131 28.76C113.481 28.13 113.956 27.635 114.556 27.275C115.156 26.905 115.836 26.72 116.596 26.72C117.246 26.72 117.831 26.86 118.351 27.14C118.881 27.41 119.311 27.77 119.641 28.22V23.93C119.641 23.73 119.701 23.575 119.821 23.465C119.951 23.345 120.106 23.285 120.286 23.285C120.476 23.285 120.631 23.345 120.751 23.465C120.871 23.575 120.931 23.73 120.931 23.93V30.935C120.911 31.715 120.716 32.42 120.346 33.05C119.986 33.67 119.496 34.165 118.876 34.535C118.256 34.895 117.556 35.075 116.776 35.075ZM116.776 33.935C117.336 33.935 117.831 33.8 118.261 33.53C118.701 33.26 119.046 32.9 119.296 32.45C119.556 31.99 119.686 31.47 119.686 30.89C119.686 30.32 119.556 29.805 119.296 29.345C119.046 28.885 118.701 28.525 118.261 28.265C117.831 27.995 117.336 27.86 116.776 27.86C116.226 27.86 115.726 27.995 115.276 28.265C114.836 28.525 114.486 28.885 114.226 29.345C113.966 29.805 113.836 30.32 113.836 30.89C113.836 31.47 113.966 31.99 114.226 32.45C114.486 32.9 114.836 33.26 115.276 33.53C115.726 33.8 116.226 33.935 116.776 33.935ZM135.031 35C134.841 35 134.686 34.94 134.566 34.82C134.446 34.7 134.386 34.55 134.386 34.37V30.545C134.386 29.935 134.271 29.44 134.041 29.06C133.821 28.67 133.516 28.38 133.126 28.19C132.736 27.99 132.291 27.89 131.791 27.89C131.321 27.89 130.896 27.985 130.516 28.175C130.146 28.355 129.851 28.605 129.631 28.925C129.411 29.235 129.301 29.595 129.301 30.005H128.431C128.451 29.375 128.616 28.815 128.926 28.325C129.246 27.825 129.671 27.43 130.201 27.14C130.731 26.85 131.321 26.705 131.971 26.705C132.671 26.705 133.296 26.855 133.846 27.155C134.406 27.445 134.846 27.875 135.166 28.445C135.496 29.015 135.661 29.715 135.661 30.545V34.37C135.661 34.55 135.601 34.7 135.481 34.82C135.361 34.94 135.211 35 135.031 35ZM128.671 35C128.471 35 128.311 34.945 128.191 34.835C128.081 34.715 128.026 34.56 128.026 34.37V27.44C128.026 27.24 128.081 27.085 128.191 26.975C128.311 26.855 128.471 26.795 128.671 26.795C128.861 26.795 129.011 26.855 129.121 26.975C129.241 27.085 129.301 27.24 129.301 27.44V34.37C129.301 34.56 129.241 34.715 129.121 34.835C129.011 34.945 128.861 35 128.671 35ZM141.942 35.075C141.132 35.075 140.412 34.895 139.782 34.535C139.162 34.175 138.672 33.68 138.312 33.05C137.952 32.42 137.772 31.705 137.772 30.905C137.772 30.095 137.952 29.375 138.312 28.745C138.672 28.115 139.162 27.62 139.782 27.26C140.412 26.9 141.132 26.72 141.942 26.72C142.742 26.72 143.452 26.9 144.072 27.26C144.692 27.62 145.182 28.115 145.542 28.745C145.902 29.375 146.087 30.095 146.097 30.905C146.097 31.705 145.917 32.42 145.557 33.05C145.197 33.68 144.702 34.175 144.072 34.535C143.452 34.895 142.742 35.075 141.942 35.075ZM141.942 33.935C142.502 33.935 143.002 33.805 143.442 33.545C143.882 33.275 144.227 32.915 144.477 32.465C144.727 32.005 144.852 31.485 144.852 30.905C144.852 30.325 144.727 29.805 144.477 29.345C144.227 28.885 143.882 28.525 143.442 28.265C143.002 27.995 142.502 27.86 141.942 27.86C141.382 27.86 140.877 27.995 140.427 28.265C139.987 28.525 139.637 28.885 139.377 29.345C139.127 29.805 139.002 30.325 139.002 30.905C139.002 31.485 139.127 32.005 139.377 32.465C139.637 32.915 139.987 33.275 140.427 33.545C140.877 33.805 141.382 33.935 141.942 33.935ZM151.479 35C150.959 35 150.494 34.875 150.084 34.625C149.674 34.375 149.349 34.03 149.109 33.59C148.879 33.15 148.764 32.655 148.764 32.105V24.815C148.764 24.635 148.819 24.485 148.929 24.365C149.049 24.245 149.204 24.185 149.394 24.185C149.574 24.185 149.724 24.245 149.844 24.365C149.964 24.485 150.024 24.635 150.024 24.815V32.105C150.024 32.575 150.159 32.965 150.429 33.275C150.709 33.585 151.059 33.74 151.479 33.74H151.929C152.089 33.74 152.224 33.8 152.334 33.92C152.444 34.04 152.499 34.19 152.499 34.37C152.499 34.56 152.429 34.715 152.289 34.835C152.159 34.945 151.989 35 151.779 35H151.479ZM147.879 28.19C147.709 28.19 147.569 28.14 147.459 28.04C147.349 27.93 147.294 27.8 147.294 27.65C147.294 27.49 147.349 27.36 147.459 27.26C147.569 27.15 147.709 27.095 147.879 27.095H151.584C151.754 27.095 151.894 27.15 152.004 27.26C152.114 27.36 152.169 27.49 152.169 27.65C152.169 27.8 152.114 27.93 152.004 28.04C151.894 28.14 151.754 28.19 151.584 28.19H147.879ZM159.628 35C159.438 35 159.283 34.945 159.163 34.835C159.043 34.715 158.983 34.555 158.983 34.355V27.44C158.983 27.24 159.043 27.085 159.163 26.975C159.283 26.855 159.438 26.795 159.628 26.795C159.818 26.795 159.968 26.855 160.078 26.975C160.198 27.085 160.258 27.24 160.258 27.44V34.355C160.258 34.555 160.198 34.715 160.078 34.835C159.968 34.945 159.818 35 159.628 35ZM159.613 25.31C159.373 25.31 159.168 25.225 158.998 25.055C158.828 24.875 158.743 24.665 158.743 24.425C158.743 24.175 158.828 23.97 158.998 23.81C159.178 23.65 159.383 23.57 159.613 23.57C159.843 23.57 160.043 23.65 160.213 23.81C160.393 23.97 160.483 24.175 160.483 24.425C160.483 24.665 160.398 24.875 160.228 25.055C160.058 25.225 159.853 25.31 159.613 25.31ZM170.173 35C169.983 35 169.828 34.94 169.708 34.82C169.588 34.7 169.528 34.55 169.528 34.37V30.545C169.528 29.935 169.413 29.44 169.183 29.06C168.963 28.67 168.658 28.38 168.268 28.19C167.878 27.99 167.433 27.89 166.933 27.89C166.463 27.89 166.038 27.985 165.658 28.175C165.288 28.355 164.993 28.605 164.773 28.925C164.553 29.235 164.443 29.595 164.443 30.005H163.573C163.593 29.375 163.758 28.815 164.068 28.325C164.388 27.825 164.813 27.43 165.343 27.14C165.873 26.85 166.463 26.705 167.113 26.705C167.813 26.705 168.438 26.855 168.988 27.155C169.548 27.445 169.988 27.875 170.308 28.445C170.638 29.015 170.803 29.715 170.803 30.545V34.37C170.803 34.55 170.743 34.7 170.623 34.82C170.503 34.94 170.353 35 170.173 35ZM163.813 35C163.613 35 163.453 34.945 163.333 34.835C163.223 34.715 163.168 34.56 163.168 34.37V27.44C163.168 27.24 163.223 27.085 163.333 26.975C163.453 26.855 163.613 26.795 163.813 26.795C164.003 26.795 164.153 26.855 164.263 26.975C164.383 27.085 164.443 27.24 164.443 27.44V34.37C164.443 34.56 164.383 34.715 164.263 34.835C164.153 34.945 164.003 35 163.813 35ZM173.994 31.76C173.794 31.76 173.634 31.7 173.514 31.58C173.404 31.46 173.349 31.31 173.349 31.13V23.93C173.349 23.73 173.404 23.575 173.514 23.465C173.634 23.345 173.794 23.285 173.994 23.285C174.184 23.285 174.334 23.345 174.444 23.465C174.564 23.575 174.624 23.73 174.624 23.93V31.13C174.624 31.31 174.564 31.46 174.444 31.58C174.334 31.7 174.184 31.76 173.994 31.76ZM180.354 35C180.164 35 180.009 34.94 179.889 34.82C179.769 34.7 179.709 34.55 179.709 34.37V30.545C179.709 29.935 179.594 29.44 179.364 29.06C179.144 28.67 178.839 28.38 178.449 28.19C178.059 27.99 177.614 27.89 177.114 27.89C176.644 27.89 176.219 27.985 175.839 28.175C175.469 28.355 175.174 28.605 174.954 28.925C174.734 29.235 174.624 29.595 174.624 30.005H173.754C173.774 29.375 173.939 28.815 174.249 28.325C174.569 27.825 174.994 27.43 175.524 27.14C176.054 26.85 176.644 26.705 177.294 26.705C177.994 26.705 178.619 26.855 179.169 27.155C179.729 27.445 180.169 27.875 180.489 28.445C180.819 29.015 180.984 29.715 180.984 30.545V34.37C180.984 34.55 180.924 34.7 180.804 34.82C180.684 34.94 180.534 35 180.354 35ZM173.994 35C173.794 35 173.634 34.945 173.514 34.835C173.404 34.715 173.349 34.56 173.349 34.37V27.44C173.349 27.24 173.404 27.085 173.514 26.975C173.634 26.855 173.794 26.795 173.994 26.795C174.184 26.795 174.334 26.855 174.444 26.975C174.564 27.085 174.624 27.24 174.624 27.44V34.37C174.624 34.56 174.564 34.715 174.444 34.835C174.334 34.945 174.184 35 173.994 35ZM187.294 35.075C186.474 35.075 185.749 34.9 185.119 34.55C184.489 34.19 183.994 33.695 183.634 33.065C183.274 32.435 183.094 31.715 183.094 30.905C183.094 30.085 183.264 29.365 183.604 28.745C183.944 28.115 184.409 27.62 184.999 27.26C185.599 26.9 186.289 26.72 187.069 26.72C187.829 26.72 188.489 26.895 189.049 27.245C189.619 27.585 190.054 28.06 190.354 28.67C190.664 29.28 190.819 29.975 190.819 30.755C190.819 30.925 190.764 31.065 190.654 31.175C190.544 31.275 190.404 31.325 190.234 31.325H183.964V30.29H190.309L189.664 30.74C189.674 30.19 189.574 29.695 189.364 29.255C189.154 28.815 188.854 28.47 188.464 28.22C188.074 27.97 187.609 27.845 187.069 27.845C186.499 27.845 185.999 27.975 185.569 28.235C185.149 28.495 184.824 28.86 184.594 29.33C184.374 29.79 184.264 30.315 184.264 30.905C184.264 31.495 184.394 32.02 184.654 32.48C184.914 32.94 185.269 33.3 185.719 33.56C186.179 33.82 186.704 33.95 187.294 33.95C187.634 33.95 187.979 33.89 188.329 33.77C188.689 33.65 188.974 33.5 189.184 33.32C189.304 33.23 189.439 33.185 189.589 33.185C189.749 33.175 189.879 33.215 189.979 33.305C190.129 33.435 190.204 33.575 190.204 33.725C190.214 33.875 190.149 34.005 190.009 34.115C189.679 34.395 189.259 34.625 188.749 34.805C188.239 34.985 187.754 35.075 187.294 35.075ZM193.327 29.915C193.347 29.305 193.502 28.76 193.792 28.28C194.092 27.79 194.482 27.405 194.962 27.125C195.452 26.845 195.987 26.705 196.567 26.705C197.077 26.705 197.462 26.78 197.722 26.93C197.992 27.08 198.092 27.285 198.022 27.545C197.992 27.685 197.927 27.785 197.827 27.845C197.737 27.905 197.627 27.935 197.497 27.935C197.377 27.935 197.237 27.925 197.077 27.905C196.487 27.835 195.962 27.875 195.502 28.025C195.052 28.165 194.692 28.4 194.422 28.73C194.152 29.06 194.017 29.455 194.017 29.915H193.327ZM193.402 35C193.202 35 193.047 34.945 192.937 34.835C192.827 34.725 192.772 34.57 192.772 34.37V27.425C192.772 27.225 192.827 27.07 192.937 26.96C193.047 26.85 193.202 26.795 193.402 26.795C193.602 26.795 193.752 26.85 193.852 26.96C193.962 27.07 194.017 27.225 194.017 27.425V34.37C194.017 34.57 193.962 34.725 193.852 34.835C193.752 34.945 193.602 35 193.402 35ZM200.629 35C200.439 35 200.284 34.945 200.164 34.835C200.044 34.715 199.984 34.555 199.984 34.355V27.44C199.984 27.24 200.044 27.085 200.164 26.975C200.284 26.855 200.439 26.795 200.629 26.795C200.819 26.795 200.969 26.855 201.079 26.975C201.199 27.085 201.259 27.24 201.259 27.44V34.355C201.259 34.555 201.199 34.715 201.079 34.835C200.969 34.945 200.819 35 200.629 35ZM200.614 25.31C200.374 25.31 200.169 25.225 199.999 25.055C199.829 24.875 199.744 24.665 199.744 24.425C199.744 24.175 199.829 23.97 199.999 23.81C200.179 23.65 200.384 23.57 200.614 23.57C200.844 23.57 201.044 23.65 201.214 23.81C201.394 23.97 201.484 24.175 201.484 24.425C201.484 24.665 201.399 24.875 201.229 25.055C201.059 25.225 200.854 25.31 200.614 25.31ZM207.304 35C206.784 35 206.319 34.875 205.909 34.625C205.499 34.375 205.174 34.03 204.934 33.59C204.704 33.15 204.589 32.655 204.589 32.105V24.815C204.589 24.635 204.644 24.485 204.754 24.365C204.874 24.245 205.029 24.185 205.219 24.185C205.399 24.185 205.549 24.245 205.669 24.365C205.789 24.485 205.849 24.635 205.849 24.815V32.105C205.849 32.575 205.984 32.965 206.254 33.275C206.534 33.585 206.884 33.74 207.304 33.74H207.754C207.914 33.74 208.049 33.8 208.159 33.92C208.269 34.04 208.324 34.19 208.324 34.37C208.324 34.56 208.254 34.715 208.114 34.835C207.984 34.945 207.814 35 207.604 35H207.304ZM203.704 28.19C203.534 28.19 203.394 28.14 203.284 28.04C203.174 27.93 203.119 27.8 203.119 27.65C203.119 27.49 203.174 27.36 203.284 27.26C203.394 27.15 203.534 27.095 203.704 27.095H207.409C207.579 27.095 207.719 27.15 207.829 27.26C207.939 27.36 207.994 27.49 207.994 27.65C207.994 27.8 207.939 27.93 207.829 28.04C207.719 28.14 207.579 28.19 207.409 28.19H203.704ZM217.734 35C217.214 35 216.749 34.875 216.339 34.625C215.929 34.375 215.604 34.03 215.364 33.59C215.134 33.15 215.019 32.655 215.019 32.105V24.815C215.019 24.635 215.074 24.485 215.184 24.365C215.304 24.245 215.459 24.185 215.649 24.185C215.829 24.185 215.979 24.245 216.099 24.365C216.219 24.485 216.279 24.635 216.279 24.815V32.105C216.279 32.575 216.414 32.965 216.684 33.275C216.964 33.585 217.314 33.74 217.734 33.74H218.184C218.344 33.74 218.479 33.8 218.589 33.92C218.699 34.04 218.754 34.19 218.754 34.37C218.754 34.56 218.684 34.715 218.544 34.835C218.414 34.945 218.244 35 218.034 35H217.734ZM214.134 28.19C213.964 28.19 213.824 28.14 213.714 28.04C213.604 27.93 213.549 27.8 213.549 27.65C213.549 27.49 213.604 27.36 213.714 27.26C213.824 27.15 213.964 27.095 214.134 27.095H217.839C218.009 27.095 218.149 27.15 218.259 27.26C218.369 27.36 218.424 27.49 218.424 27.65C218.424 27.8 218.369 27.93 218.259 28.04C218.149 28.14 218.009 28.19 217.839 28.19H214.134ZM221.279 31.76C221.079 31.76 220.919 31.7 220.799 31.58C220.689 31.46 220.634 31.31 220.634 31.13V23.93C220.634 23.73 220.689 23.575 220.799 23.465C220.919 23.345 221.079 23.285 221.279 23.285C221.469 23.285 221.619 23.345 221.729 23.465C221.849 23.575 221.909 23.73 221.909 23.93V31.13C221.909 31.31 221.849 31.46 221.729 31.58C221.619 31.7 221.469 31.76 221.279 31.76ZM227.639 35C227.449 35 227.294 34.94 227.174 34.82C227.054 34.7 226.994 34.55 226.994 34.37V30.545C226.994 29.935 226.879 29.44 226.649 29.06C226.429 28.67 226.124 28.38 225.734 28.19C225.344 27.99 224.899 27.89 224.399 27.89C223.929 27.89 223.504 27.985 223.124 28.175C222.754 28.355 222.459 28.605 222.239 28.925C222.019 29.235 221.909 29.595 221.909 30.005H221.039C221.059 29.375 221.224 28.815 221.534 28.325C221.854 27.825 222.279 27.43 222.809 27.14C223.339 26.85 223.929 26.705 224.579 26.705C225.279 26.705 225.904 26.855 226.454 27.155C227.014 27.445 227.454 27.875 227.774 28.445C228.104 29.015 228.269 29.715 228.269 30.545V34.37C228.269 34.55 228.209 34.7 228.089 34.82C227.969 34.94 227.819 35 227.639 35ZM221.279 35C221.079 35 220.919 34.945 220.799 34.835C220.689 34.715 220.634 34.56 220.634 34.37V27.44C220.634 27.24 220.689 27.085 220.799 26.975C220.919 26.855 221.079 26.795 221.279 26.795C221.469 26.795 221.619 26.855 221.729 26.975C221.849 27.085 221.909 27.24 221.909 27.44V34.37C221.909 34.56 221.849 34.715 221.729 34.835C221.619 34.945 221.469 35 221.279 35ZM231.669 35C231.479 35 231.324 34.945 231.204 34.835C231.084 34.715 231.024 34.555 231.024 34.355V27.44C231.024 27.24 231.084 27.085 231.204 26.975C231.324 26.855 231.479 26.795 231.669 26.795C231.859 26.795 232.009 26.855 232.119 26.975C232.239 27.085 232.299 27.24 232.299 27.44V34.355C232.299 34.555 232.239 34.715 232.119 34.835C232.009 34.945 231.859 35 231.669 35ZM231.654 25.31C231.414 25.31 231.209 25.225 231.039 25.055C230.869 24.875 230.784 24.665 230.784 24.425C230.784 24.175 230.869 23.97 231.039 23.81C231.219 23.65 231.424 23.57 231.654 23.57C231.884 23.57 232.084 23.65 232.254 23.81C232.434 23.97 232.524 24.175 232.524 24.425C232.524 24.665 232.439 24.875 232.269 25.055C232.099 25.225 231.894 25.31 231.654 25.31ZM238.104 35.075C237.484 35.075 236.879 34.975 236.289 34.775C235.709 34.565 235.244 34.27 234.894 33.89C234.774 33.76 234.724 33.61 234.744 33.44C234.764 33.27 234.844 33.13 234.984 33.02C235.144 32.9 235.304 32.85 235.464 32.87C235.634 32.89 235.774 32.96 235.884 33.08C236.104 33.34 236.409 33.55 236.799 33.71C237.189 33.86 237.619 33.935 238.089 33.935C238.779 33.935 239.284 33.82 239.604 33.59C239.934 33.35 240.104 33.055 240.114 32.705C240.114 32.365 239.949 32.08 239.619 31.85C239.299 31.62 238.749 31.44 237.969 31.31C236.959 31.14 236.219 30.855 235.749 30.455C235.289 30.055 235.059 29.575 235.059 29.015C235.059 28.505 235.199 28.08 235.479 27.74C235.759 27.4 236.124 27.145 236.574 26.975C237.034 26.805 237.529 26.72 238.059 26.72C238.729 26.72 239.309 26.835 239.799 27.065C240.289 27.285 240.684 27.585 240.984 27.965C241.094 28.105 241.139 28.255 241.119 28.415C241.109 28.565 241.029 28.685 240.879 28.775C240.749 28.865 240.594 28.895 240.414 28.865C240.244 28.835 240.099 28.755 239.979 28.625C239.729 28.355 239.444 28.16 239.124 28.04C238.804 27.91 238.439 27.845 238.029 27.845C237.509 27.845 237.089 27.95 236.769 28.16C236.449 28.36 236.289 28.62 236.289 28.94C236.289 29.16 236.344 29.35 236.454 29.51C236.574 29.67 236.779 29.815 237.069 29.945C237.369 30.065 237.794 30.175 238.344 30.275C239.094 30.405 239.684 30.59 240.114 30.83C240.554 31.06 240.864 31.33 241.044 31.64C241.234 31.95 241.329 32.295 241.329 32.675C241.329 33.145 241.194 33.56 240.924 33.92C240.664 34.27 240.294 34.55 239.814 34.76C239.334 34.97 238.764 35.075 238.104 35.075ZM54.2352 55.51C54.0352 55.51 53.8752 55.45 53.7552 55.33C53.6452 55.22 53.5902 55.065 53.5902 54.865V47.86C53.6002 47.08 53.7852 46.38 54.1452 45.76C54.5152 45.13 55.0102 44.635 55.6302 44.275C56.2502 43.905 56.9502 43.72 57.7302 43.72C58.5302 43.72 59.2402 43.905 59.8602 44.275C60.4902 44.635 60.9852 45.13 61.3452 45.76C61.7152 46.39 61.9002 47.105 61.9002 47.905C61.9002 48.695 61.7252 49.405 61.3752 50.035C61.0352 50.665 60.5652 51.165 59.9652 51.535C59.3652 51.895 58.6852 52.075 57.9252 52.075C57.2752 52.075 56.6852 51.94 56.1552 51.67C55.6252 51.39 55.1952 51.025 54.8652 50.575V54.865C54.8652 55.065 54.8052 55.22 54.6852 55.33C54.5652 55.45 54.4152 55.51 54.2352 55.51ZM57.7302 50.935C58.2902 50.935 58.7902 50.805 59.2302 50.545C59.6802 50.275 60.0302 49.91 60.2802 49.45C60.5402 48.99 60.6702 48.475 60.6702 47.905C60.6702 47.325 60.5402 46.81 60.2802 46.36C60.0302 45.9 59.6802 45.535 59.2302 45.265C58.7902 44.995 58.2902 44.86 57.7302 44.86C57.1902 44.86 56.6952 44.995 56.2452 45.265C55.8052 45.535 55.4602 45.9 55.2102 46.36C54.9602 46.81 54.8352 47.325 54.8352 47.905C54.8352 48.475 54.9602 48.99 55.2102 49.45C55.4602 49.91 55.8052 50.275 56.2452 50.545C56.6852 50.805 57.1802 50.935 57.7302 50.935ZM66.0111 52C65.5911 52 65.2211 51.89 64.9011 51.67C64.5811 51.44 64.3311 51.125 64.1511 50.725C63.9711 50.325 63.8811 49.865 63.8811 49.345V40.915C63.8811 40.725 63.9361 40.575 64.0461 40.465C64.1661 40.345 64.3211 40.285 64.5111 40.285C64.6911 40.285 64.8361 40.345 64.9461 40.465C65.0661 40.575 65.1261 40.725 65.1261 40.915V49.345C65.1261 49.755 65.2061 50.095 65.3661 50.365C65.5361 50.625 65.7511 50.755 66.0111 50.755H66.3861C66.5461 50.755 66.6761 50.815 66.7761 50.935C66.8761 51.045 66.9261 51.19 66.9261 51.37C66.9261 51.56 66.8511 51.715 66.7011 51.835C66.5611 51.945 66.3761 52 66.1461 52H66.0111ZM71.6032 52.075C70.8432 52.075 70.1632 51.895 69.5632 51.535C68.9632 51.165 68.4882 50.665 68.1382 50.035C67.7882 49.405 67.6132 48.695 67.6132 47.905C67.6132 47.105 67.7932 46.39 68.1532 45.76C68.5232 45.13 69.0232 44.635 69.6532 44.275C70.2832 43.905 70.9932 43.72 71.7832 43.72C72.5632 43.72 73.2632 43.905 73.8832 44.275C74.5132 44.635 75.0082 45.13 75.3682 45.76C75.7382 46.39 75.9282 47.105 75.9382 47.905L75.4282 48.16C75.4282 48.9 75.2582 49.565 74.9182 50.155C74.5882 50.745 74.1332 51.215 73.5532 51.565C72.9832 51.905 72.3332 52.075 71.6032 52.075ZM71.7832 50.935C72.3432 50.935 72.8382 50.805 73.2682 50.545C73.7082 50.275 74.0532 49.91 74.3032 49.45C74.5632 48.99 74.6932 48.475 74.6932 47.905C74.6932 47.325 74.5632 46.81 74.3032 46.36C74.0532 45.9 73.7082 45.535 73.2682 45.265C72.8382 44.995 72.3432 44.86 71.7832 44.86C71.2332 44.86 70.7332 44.995 70.2832 45.265C69.8432 45.535 69.4932 45.9 69.2332 46.36C68.9732 46.81 68.8432 47.325 68.8432 47.905C68.8432 48.475 68.9732 48.99 69.2332 49.45C69.4932 49.91 69.8432 50.275 70.2832 50.545C70.7332 50.805 71.2332 50.935 71.7832 50.935ZM75.2932 52C75.1132 52 74.9582 51.945 74.8282 51.835C74.7082 51.715 74.6482 51.56 74.6482 51.37V48.895L74.9332 47.59L75.9382 47.905V51.37C75.9382 51.56 75.8782 51.715 75.7582 51.835C75.6382 51.945 75.4832 52 75.2932 52ZM85.19 52C85 52 84.845 51.94 84.725 51.82C84.605 51.7 84.545 51.55 84.545 51.37V47.545C84.545 46.935 84.43 46.44 84.2 46.06C83.98 45.67 83.675 45.38 83.285 45.19C82.895 44.99 82.45 44.89 81.95 44.89C81.48 44.89 81.055 44.985 80.675 45.175C80.305 45.355 80.01 45.605 79.79 45.925C79.57 46.235 79.46 46.595 79.46 47.005H78.59C78.61 46.375 78.775 45.815 79.085 45.325C79.405 44.825 79.83 44.43 80.36 44.14C80.89 43.85 81.48 43.705 82.13 43.705C82.83 43.705 83.455 43.855 84.005 44.155C84.565 44.445 85.005 44.875 85.325 45.445C85.655 46.015 85.82 46.715 85.82 47.545V51.37C85.82 51.55 85.76 51.7 85.64 51.82C85.52 51.94 85.37 52 85.19 52ZM78.83 52C78.63 52 78.47 51.945 78.35 51.835C78.24 51.715 78.185 51.56 78.185 51.37V44.44C78.185 44.24 78.24 44.085 78.35 43.975C78.47 43.855 78.63 43.795 78.83 43.795C79.02 43.795 79.17 43.855 79.28 43.975C79.4 44.085 79.46 44.24 79.46 44.44V51.37C79.46 51.56 79.4 51.715 79.28 51.835C79.17 51.945 79.02 52 78.83 52ZM92.1306 52.075C91.3106 52.075 90.5856 51.9 89.9556 51.55C89.3256 51.19 88.8306 50.695 88.4706 50.065C88.1106 49.435 87.9306 48.715 87.9306 47.905C87.9306 47.085 88.1006 46.365 88.4406 45.745C88.7806 45.115 89.2456 44.62 89.8356 44.26C90.4356 43.9 91.1256 43.72 91.9056 43.72C92.6656 43.72 93.3256 43.895 93.8856 44.245C94.4556 44.585 94.8906 45.06 95.1906 45.67C95.5006 46.28 95.6556 46.975 95.6556 47.755C95.6556 47.925 95.6006 48.065 95.4906 48.175C95.3806 48.275 95.2406 48.325 95.0706 48.325H88.8006V47.29H95.1456L94.5006 47.74C94.5106 47.19 94.4106 46.695 94.2006 46.255C93.9906 45.815 93.6906 45.47 93.3006 45.22C92.9106 44.97 92.4456 44.845 91.9056 44.845C91.3356 44.845 90.8356 44.975 90.4056 45.235C89.9856 45.495 89.6606 45.86 89.4306 46.33C89.2106 46.79 89.1006 47.315 89.1006 47.905C89.1006 48.495 89.2306 49.02 89.4906 49.48C89.7506 49.94 90.1056 50.3 90.5556 50.56C91.0156 50.82 91.5406 50.95 92.1306 50.95C92.4706 50.95 92.8156 50.89 93.1656 50.77C93.5256 50.65 93.8106 50.5 94.0206 50.32C94.1406 50.23 94.2756 50.185 94.4256 50.185C94.5856 50.175 94.7156 50.215 94.8156 50.305C94.9656 50.435 95.0406 50.575 95.0406 50.725C95.0506 50.875 94.9856 51.005 94.8456 51.115C94.5156 51.395 94.0956 51.625 93.5856 51.805C93.0756 51.985 92.5906 52.075 92.1306 52.075ZM100.744 52C100.224 52 99.7588 51.875 99.3488 51.625C98.9388 51.375 98.6138 51.03 98.3738 50.59C98.1438 50.15 98.0288 49.655 98.0288 49.105V41.815C98.0288 41.635 98.0838 41.485 98.1938 41.365C98.3138 41.245 98.4688 41.185 98.6588 41.185C98.8388 41.185 98.9888 41.245 99.1088 41.365C99.2288 41.485 99.2888 41.635 99.2888 41.815V49.105C99.2888 49.575 99.4238 49.965 99.6938 50.275C99.9738 50.585 100.324 50.74 100.744 50.74H101.194C101.354 50.74 101.489 50.8 101.599 50.92C101.709 51.04 101.764 51.19 101.764 51.37C101.764 51.56 101.694 51.715 101.554 51.835C101.424 51.945 101.254 52 101.044 52H100.744ZM97.1438 45.19C96.9738 45.19 96.8338 45.14 96.7238 45.04C96.6138 44.93 96.5588 44.8 96.5588 44.65C96.5588 44.49 96.6138 44.36 96.7238 44.26C96.8338 44.15 96.9738 44.095 97.1438 44.095H100.849C101.019 44.095 101.159 44.15 101.269 44.26C101.379 44.36 101.434 44.49 101.434 44.65C101.434 44.8 101.379 44.93 101.269 45.04C101.159 45.14 101.019 45.19 100.849 45.19H97.1438ZM109.013 52C108.853 52 108.713 51.945 108.593 51.835C108.473 51.715 108.413 51.555 108.413 51.355V43.825C108.413 43.115 108.538 42.495 108.788 41.965C109.038 41.435 109.403 41.025 109.883 40.735C110.373 40.435 110.953 40.285 111.623 40.285C111.813 40.285 111.968 40.34 112.088 40.45C112.208 40.56 112.268 40.695 112.268 40.855C112.268 41.025 112.208 41.165 112.088 41.275C111.968 41.385 111.813 41.44 111.623 41.44C111.203 41.44 110.848 41.54 110.558 41.74C110.268 41.93 110.048 42.2 109.898 42.55C109.748 42.89 109.673 43.285 109.673 43.735V51.355C109.673 51.555 109.613 51.715 109.493 51.835C109.383 51.945 109.223 52 109.013 52ZM107.543 45.19C107.363 45.19 107.218 45.14 107.108 45.04C107.008 44.93 106.958 44.8 106.958 44.65C106.958 44.49 107.008 44.36 107.108 44.26C107.218 44.15 107.363 44.095 107.543 44.095H111.398C111.568 44.095 111.703 44.15 111.803 44.26C111.913 44.36 111.968 44.49 111.968 44.65C111.968 44.8 111.913 44.93 111.803 45.04C111.703 45.14 111.568 45.19 111.398 45.19H107.543ZM114.087 46.915C114.107 46.305 114.262 45.76 114.552 45.28C114.852 44.79 115.242 44.405 115.722 44.125C116.212 43.845 116.747 43.705 117.327 43.705C117.837 43.705 118.222 43.78 118.482 43.93C118.752 44.08 118.852 44.285 118.782 44.545C118.752 44.685 118.687 44.785 118.587 44.845C118.497 44.905 118.387 44.935 118.257 44.935C118.137 44.935 117.997 44.925 117.837 44.905C117.247 44.835 116.722 44.875 116.262 45.025C115.812 45.165 115.452 45.4 115.182 45.73C114.912 46.06 114.777 46.455 114.777 46.915H114.087ZM114.162 52C113.962 52 113.807 51.945 113.697 51.835C113.587 51.725 113.532 51.57 113.532 51.37V44.425C113.532 44.225 113.587 44.07 113.697 43.96C113.807 43.85 113.962 43.795 114.162 43.795C114.362 43.795 114.512 43.85 114.612 43.96C114.722 44.07 114.777 44.225 114.777 44.425V51.37C114.777 51.57 114.722 51.725 114.612 51.835C114.512 51.945 114.362 52 114.162 52ZM123.668 52.075C122.858 52.075 122.138 51.895 121.508 51.535C120.888 51.175 120.398 50.68 120.038 50.05C119.678 49.42 119.498 48.705 119.498 47.905C119.498 47.095 119.678 46.375 120.038 45.745C120.398 45.115 120.888 44.62 121.508 44.26C122.138 43.9 122.858 43.72 123.668 43.72C124.468 43.72 125.178 43.9 125.798 44.26C126.418 44.62 126.908 45.115 127.268 45.745C127.628 46.375 127.813 47.095 127.823 47.905C127.823 48.705 127.643 49.42 127.283 50.05C126.923 50.68 126.428 51.175 125.798 51.535C125.178 51.895 124.468 52.075 123.668 52.075ZM123.668 50.935C124.228 50.935 124.728 50.805 125.168 50.545C125.608 50.275 125.953 49.915 126.203 49.465C126.453 49.005 126.578 48.485 126.578 47.905C126.578 47.325 126.453 46.805 126.203 46.345C125.953 45.885 125.608 45.525 125.168 45.265C124.728 44.995 124.228 44.86 123.668 44.86C123.108 44.86 122.603 44.995 122.153 45.265C121.713 45.525 121.363 45.885 121.103 46.345C120.853 46.805 120.728 47.325 120.728 47.905C120.728 48.485 120.853 49.005 121.103 49.465C121.363 49.915 121.713 50.275 122.153 50.545C122.603 50.805 123.108 50.935 123.668 50.935ZM141.065 52C140.875 52 140.72 51.945 140.6 51.835C140.48 51.715 140.42 51.56 140.42 51.37V47.065C140.42 46.375 140.245 45.84 139.895 45.46C139.545 45.08 139.09 44.89 138.53 44.89C137.94 44.89 137.455 45.09 137.075 45.49C136.705 45.89 136.52 46.415 136.52 47.065H135.425C135.435 46.395 135.58 45.81 135.86 45.31C136.14 44.8 136.525 44.405 137.015 44.125C137.515 43.845 138.08 43.705 138.71 43.705C139.29 43.705 139.805 43.84 140.255 44.11C140.705 44.38 141.055 44.77 141.305 45.28C141.565 45.78 141.695 46.375 141.695 47.065V51.37C141.695 51.56 141.635 51.715 141.515 51.835C141.395 51.945 141.245 52 141.065 52ZM130.715 52C130.515 52 130.355 51.945 130.235 51.835C130.125 51.715 130.07 51.56 130.07 51.37V44.44C130.07 44.25 130.125 44.095 130.235 43.975C130.355 43.855 130.515 43.795 130.715 43.795C130.905 43.795 131.055 43.855 131.165 43.975C131.285 44.095 131.345 44.25 131.345 44.44V51.37C131.345 51.56 131.285 51.715 131.165 51.835C131.055 51.945 130.905 52 130.715 52ZM135.89 52C135.71 52 135.56 51.945 135.44 51.835C135.32 51.715 135.26 51.56 135.26 51.37V47.065C135.26 46.375 135.08 45.84 134.72 45.46C134.37 45.08 133.92 44.89 133.37 44.89C132.78 44.89 132.295 45.085 131.915 45.475C131.535 45.865 131.345 46.375 131.345 47.005H130.475C130.495 46.355 130.635 45.785 130.895 45.295C131.155 44.795 131.515 44.405 131.975 44.125C132.435 43.845 132.96 43.705 133.55 43.705C134.13 43.705 134.645 43.84 135.095 44.11C135.545 44.38 135.895 44.77 136.145 45.28C136.395 45.78 136.52 46.375 136.52 47.065V51.37C136.52 51.56 136.46 51.715 136.34 51.835C136.23 51.945 136.08 52 135.89 52ZM152.364 52.075C151.554 52.075 150.834 51.895 150.204 51.535C149.584 51.175 149.094 50.68 148.734 50.05C148.374 49.42 148.194 48.705 148.194 47.905C148.194 47.095 148.374 46.375 148.734 45.745C149.094 45.115 149.584 44.62 150.204 44.26C150.834 43.9 151.554 43.72 152.364 43.72C153.164 43.72 153.874 43.9 154.494 44.26C155.114 44.62 155.604 45.115 155.964 45.745C156.324 46.375 156.509 47.095 156.519 47.905C156.519 48.705 156.339 49.42 155.979 50.05C155.619 50.68 155.124 51.175 154.494 51.535C153.874 51.895 153.164 52.075 152.364 52.075ZM152.364 50.935C152.924 50.935 153.424 50.805 153.864 50.545C154.304 50.275 154.649 49.915 154.899 49.465C155.149 49.005 155.274 48.485 155.274 47.905C155.274 47.325 155.149 46.805 154.899 46.345C154.649 45.885 154.304 45.525 153.864 45.265C153.424 44.995 152.924 44.86 152.364 44.86C151.804 44.86 151.299 44.995 150.849 45.265C150.409 45.525 150.059 45.885 149.799 46.345C149.549 46.805 149.424 47.325 149.424 47.905C149.424 48.485 149.549 49.005 149.799 49.465C150.059 49.915 150.409 50.275 150.849 50.545C151.299 50.805 151.804 50.935 152.364 50.935ZM162.306 52.09C161.596 52.09 160.961 51.945 160.401 51.655C159.851 51.355 159.416 50.92 159.096 50.35C158.776 49.78 158.616 49.08 158.616 48.25V44.425C158.616 44.245 158.676 44.095 158.796 43.975C158.916 43.855 159.066 43.795 159.246 43.795C159.426 43.795 159.576 43.855 159.696 43.975C159.816 44.095 159.876 44.245 159.876 44.425V48.25C159.876 48.86 159.991 49.36 160.221 49.75C160.451 50.13 160.761 50.42 161.151 50.62C161.541 50.81 161.981 50.905 162.471 50.905C162.941 50.905 163.366 50.815 163.746 50.635C164.126 50.445 164.426 50.195 164.646 49.885C164.866 49.565 164.976 49.2 164.976 48.79H165.831C165.811 49.42 165.646 49.985 165.336 50.485C165.026 50.975 164.606 51.365 164.076 51.655C163.546 51.945 162.956 52.09 162.306 52.09ZM165.606 52C165.416 52 165.261 51.945 165.141 51.835C165.031 51.715 164.976 51.555 164.976 51.355V44.425C164.976 44.235 165.031 44.085 165.141 43.975C165.261 43.855 165.416 43.795 165.606 43.795C165.796 43.795 165.951 43.855 166.071 43.975C166.191 44.085 166.251 44.235 166.251 44.425V51.355C166.251 51.555 166.191 51.715 166.071 51.835C165.951 51.945 165.796 52 165.606 52ZM169.502 46.915C169.522 46.305 169.677 45.76 169.967 45.28C170.267 44.79 170.657 44.405 171.137 44.125C171.627 43.845 172.162 43.705 172.742 43.705C173.252 43.705 173.637 43.78 173.897 43.93C174.167 44.08 174.267 44.285 174.197 44.545C174.167 44.685 174.102 44.785 174.002 44.845C173.912 44.905 173.802 44.935 173.672 44.935C173.552 44.935 173.412 44.925 173.252 44.905C172.662 44.835 172.137 44.875 171.677 45.025C171.227 45.165 170.867 45.4 170.597 45.73C170.327 46.06 170.192 46.455 170.192 46.915H169.502ZM169.577 52C169.377 52 169.222 51.945 169.112 51.835C169.002 51.725 168.947 51.57 168.947 51.37V44.425C168.947 44.225 169.002 44.07 169.112 43.96C169.222 43.85 169.377 43.795 169.577 43.795C169.777 43.795 169.927 43.85 170.027 43.96C170.137 44.07 170.192 44.225 170.192 44.425V51.37C170.192 51.57 170.137 51.725 170.027 51.835C169.927 51.945 169.777 52 169.577 52ZM183.898 52.075C183.138 52.075 182.458 51.895 181.858 51.535C181.258 51.165 180.783 50.665 180.433 50.035C180.083 49.405 179.908 48.695 179.908 47.905C179.908 47.105 180.088 46.39 180.448 45.76C180.818 45.13 181.318 44.635 181.948 44.275C182.578 43.905 183.288 43.72 184.078 43.72C184.858 43.72 185.558 43.905 186.178 44.275C186.808 44.635 187.303 45.13 187.663 45.76C188.033 46.39 188.223 47.105 188.233 47.905L187.723 48.16C187.723 48.9 187.553 49.565 187.213 50.155C186.883 50.745 186.428 51.215 185.848 51.565C185.278 51.905 184.628 52.075 183.898 52.075ZM184.078 50.935C184.638 50.935 185.133 50.805 185.563 50.545C186.003 50.275 186.348 49.91 186.598 49.45C186.858 48.99 186.988 48.475 186.988 47.905C186.988 47.325 186.858 46.81 186.598 46.36C186.348 45.9 186.003 45.535 185.563 45.265C185.133 44.995 184.638 44.86 184.078 44.86C183.528 44.86 183.028 44.995 182.578 45.265C182.138 45.535 181.788 45.9 181.528 46.36C181.268 46.81 181.138 47.325 181.138 47.905C181.138 48.475 181.268 48.99 181.528 49.45C181.788 49.91 182.138 50.275 182.578 50.545C183.028 50.805 183.528 50.935 184.078 50.935ZM187.588 52C187.408 52 187.253 51.945 187.123 51.835C187.003 51.715 186.943 51.56 186.943 51.37V48.895L187.228 47.59L188.233 47.905V51.37C188.233 51.56 188.173 51.715 188.053 51.835C187.933 51.945 187.778 52 187.588 52ZM197.485 52C197.295 52 197.14 51.94 197.02 51.82C196.9 51.7 196.84 51.55 196.84 51.37V47.545C196.84 46.935 196.725 46.44 196.495 46.06C196.275 45.67 195.97 45.38 195.58 45.19C195.19 44.99 194.745 44.89 194.245 44.89C193.775 44.89 193.35 44.985 192.97 45.175C192.6 45.355 192.305 45.605 192.085 45.925C191.865 46.235 191.755 46.595 191.755 47.005H190.885C190.905 46.375 191.07 45.815 191.38 45.325C191.7 44.825 192.125 44.43 192.655 44.14C193.185 43.85 193.775 43.705 194.425 43.705C195.125 43.705 195.75 43.855 196.3 44.155C196.86 44.445 197.3 44.875 197.62 45.445C197.95 46.015 198.115 46.715 198.115 47.545V51.37C198.115 51.55 198.055 51.7 197.935 51.82C197.815 51.94 197.665 52 197.485 52ZM191.125 52C190.925 52 190.765 51.945 190.645 51.835C190.535 51.715 190.48 51.56 190.48 51.37V44.44C190.48 44.24 190.535 44.085 190.645 43.975C190.765 43.855 190.925 43.795 191.125 43.795C191.315 43.795 191.465 43.855 191.575 43.975C191.695 44.085 191.755 44.24 191.755 44.44V51.37C191.755 51.56 191.695 51.715 191.575 51.835C191.465 51.945 191.315 52 191.125 52ZM204.336 52.075C203.546 52.075 202.841 51.895 202.221 51.535C201.601 51.165 201.111 50.665 200.751 50.035C200.401 49.405 200.226 48.695 200.226 47.905C200.226 47.105 200.396 46.39 200.736 45.76C201.086 45.13 201.556 44.635 202.146 44.275C202.746 43.905 203.436 43.72 204.216 43.72C204.816 43.72 205.371 43.84 205.881 44.08C206.391 44.31 206.841 44.66 207.231 45.13C207.351 45.27 207.391 45.415 207.351 45.565C207.321 45.705 207.231 45.83 207.081 45.94C206.961 46.02 206.826 46.05 206.676 46.03C206.536 46 206.406 45.92 206.286 45.79C205.736 45.17 205.046 44.86 204.216 44.86C203.666 44.86 203.181 44.99 202.761 45.25C202.351 45.51 202.031 45.87 201.801 46.33C201.571 46.78 201.456 47.305 201.456 47.905C201.456 48.485 201.576 49.005 201.816 49.465C202.066 49.915 202.406 50.275 202.836 50.545C203.276 50.805 203.776 50.935 204.336 50.935C204.716 50.935 205.056 50.885 205.356 50.785C205.666 50.685 205.941 50.53 206.181 50.32C206.321 50.21 206.461 50.15 206.601 50.14C206.741 50.13 206.871 50.17 206.991 50.26C207.121 50.38 207.196 50.515 207.216 50.665C207.236 50.815 207.186 50.95 207.066 51.07C206.336 51.74 205.426 52.075 204.336 52.075ZM213.376 52.075C212.556 52.075 211.831 51.9 211.201 51.55C210.571 51.19 210.076 50.695 209.716 50.065C209.356 49.435 209.176 48.715 209.176 47.905C209.176 47.085 209.346 46.365 209.686 45.745C210.026 45.115 210.491 44.62 211.081 44.26C211.681 43.9 212.371 43.72 213.151 43.72C213.911 43.72 214.571 43.895 215.131 44.245C215.701 44.585 216.136 45.06 216.436 45.67C216.746 46.28 216.901 46.975 216.901 47.755C216.901 47.925 216.846 48.065 216.736 48.175C216.626 48.275 216.486 48.325 216.316 48.325H210.046V47.29H216.391L215.746 47.74C215.756 47.19 215.656 46.695 215.446 46.255C215.236 45.815 214.936 45.47 214.546 45.22C214.156 44.97 213.691 44.845 213.151 44.845C212.581 44.845 212.081 44.975 211.651 45.235C211.231 45.495 210.906 45.86 210.676 46.33C210.456 46.79 210.346 47.315 210.346 47.905C210.346 48.495 210.476 49.02 210.736 49.48C210.996 49.94 211.351 50.3 211.801 50.56C212.261 50.82 212.786 50.95 213.376 50.95C213.716 50.95 214.061 50.89 214.411 50.77C214.771 50.65 215.056 50.5 215.266 50.32C215.386 50.23 215.521 50.185 215.671 50.185C215.831 50.175 215.961 50.215 216.061 50.305C216.211 50.435 216.286 50.575 216.286 50.725C216.296 50.875 216.231 51.005 216.091 51.115C215.761 51.395 215.341 51.625 214.831 51.805C214.321 51.985 213.836 52.075 213.376 52.075ZM221.749 52.075C221.129 52.075 220.524 51.975 219.934 51.775C219.354 51.565 218.889 51.27 218.539 50.89C218.419 50.76 218.369 50.61 218.389 50.44C218.409 50.27 218.489 50.13 218.629 50.02C218.789 49.9 218.949 49.85 219.109 49.87C219.279 49.89 219.419 49.96 219.529 50.08C219.749 50.34 220.054 50.55 220.444 50.71C220.834 50.86 221.264 50.935 221.734 50.935C222.424 50.935 222.929 50.82 223.249 50.59C223.579 50.35 223.749 50.055 223.759 49.705C223.759 49.365 223.594 49.08 223.264 48.85C222.944 48.62 222.394 48.44 221.614 48.31C220.604 48.14 219.864 47.855 219.394 47.455C218.934 47.055 218.704 46.575 218.704 46.015C218.704 45.505 218.844 45.08 219.124 44.74C219.404 44.4 219.769 44.145 220.219 43.975C220.679 43.805 221.174 43.72 221.704 43.72C222.374 43.72 222.954 43.835 223.444 44.065C223.934 44.285 224.329 44.585 224.629 44.965C224.739 45.105 224.784 45.255 224.764 45.415C224.754 45.565 224.674 45.685 224.524 45.775C224.394 45.865 224.239 45.895 224.059 45.865C223.889 45.835 223.744 45.755 223.624 45.625C223.374 45.355 223.089 45.16 222.769 45.04C222.449 44.91 222.084 44.845 221.674 44.845C221.154 44.845 220.734 44.95 220.414 45.16C220.094 45.36 219.934 45.62 219.934 45.94C219.934 46.16 219.989 46.35 220.099 46.51C220.219 46.67 220.424 46.815 220.714 46.945C221.014 47.065 221.439 47.175 221.989 47.275C222.739 47.405 223.329 47.59 223.759 47.83C224.199 48.06 224.509 48.33 224.689 48.64C224.879 48.95 224.974 49.295 224.974 49.675C224.974 50.145 224.839 50.56 224.569 50.92C224.309 51.27 223.939 51.55 223.459 51.76C222.979 51.97 222.409 52.075 221.749 52.075ZM230.089 52C229.569 52 229.104 51.875 228.694 51.625C228.284 51.375 227.959 51.03 227.719 50.59C227.489 50.15 227.374 49.655 227.374 49.105V41.815C227.374 41.635 227.429 41.485 227.539 41.365C227.659 41.245 227.814 41.185 228.004 41.185C228.184 41.185 228.334 41.245 228.454 41.365C228.574 41.485 228.634 41.635 228.634 41.815V49.105C228.634 49.575 228.769 49.965 229.039 50.275C229.319 50.585 229.669 50.74 230.089 50.74H230.539C230.699 50.74 230.834 50.8 230.944 50.92C231.054 51.04 231.109 51.19 231.109 51.37C231.109 51.56 231.039 51.715 230.899 51.835C230.769 51.945 230.599 52 230.389 52H230.089ZM226.489 45.19C226.319 45.19 226.179 45.14 226.069 45.04C225.959 44.93 225.904 44.8 225.904 44.65C225.904 44.49 225.959 44.36 226.069 44.26C226.179 44.15 226.319 44.095 226.489 44.095H230.194C230.364 44.095 230.504 44.15 230.614 44.26C230.724 44.36 230.779 44.49 230.779 44.65C230.779 44.8 230.724 44.93 230.614 45.04C230.504 45.14 230.364 45.19 230.194 45.19H226.489ZM236.725 52.075C235.915 52.075 235.195 51.895 234.565 51.535C233.945 51.175 233.455 50.68 233.095 50.05C232.735 49.42 232.555 48.705 232.555 47.905C232.555 47.095 232.735 46.375 233.095 45.745C233.455 45.115 233.945 44.62 234.565 44.26C235.195 43.9 235.915 43.72 236.725 43.72C237.525 43.72 238.235 43.9 238.855 44.26C239.475 44.62 239.965 45.115 240.325 45.745C240.685 46.375 240.87 47.095 240.88 47.905C240.88 48.705 240.7 49.42 240.34 50.05C239.98 50.68 239.485 51.175 238.855 51.535C238.235 51.895 237.525 52.075 236.725 52.075ZM236.725 50.935C237.285 50.935 237.785 50.805 238.225 50.545C238.665 50.275 239.01 49.915 239.26 49.465C239.51 49.005 239.635 48.485 239.635 47.905C239.635 47.325 239.51 46.805 239.26 46.345C239.01 45.885 238.665 45.525 238.225 45.265C237.785 44.995 237.285 44.86 236.725 44.86C236.165 44.86 235.66 44.995 235.21 45.265C234.77 45.525 234.42 45.885 234.16 46.345C233.91 46.805 233.785 47.325 233.785 47.905C233.785 48.485 233.91 49.005 234.16 49.465C234.42 49.915 234.77 50.275 235.21 50.545C235.66 50.805 236.165 50.935 236.725 50.935ZM243.681 46.915C243.701 46.305 243.856 45.76 244.146 45.28C244.446 44.79 244.836 44.405 245.316 44.125C245.806 43.845 246.341 43.705 246.921 43.705C247.431 43.705 247.816 43.78 248.076 43.93C248.346 44.08 248.446 44.285 248.376 44.545C248.346 44.685 248.281 44.785 248.181 44.845C248.091 44.905 247.981 44.935 247.851 44.935C247.731 44.935 247.591 44.925 247.431 44.905C246.841 44.835 246.316 44.875 245.856 45.025C245.406 45.165 245.046 45.4 244.776 45.73C244.506 46.06 244.371 46.455 244.371 46.915H243.681ZM243.756 52C243.556 52 243.401 51.945 243.291 51.835C243.181 51.725 243.126 51.57 243.126 51.37V44.425C243.126 44.225 243.181 44.07 243.291 43.96C243.401 43.85 243.556 43.795 243.756 43.795C243.956 43.795 244.106 43.85 244.206 43.96C244.316 44.07 244.371 44.225 244.371 44.425V51.37C244.371 51.57 244.316 51.725 244.206 51.835C244.106 51.945 243.956 52 243.756 52ZM253.023 52.075C252.403 52.075 251.798 51.975 251.208 51.775C250.628 51.565 250.163 51.27 249.813 50.89C249.693 50.76 249.643 50.61 249.663 50.44C249.683 50.27 249.763 50.13 249.903 50.02C250.063 49.9 250.223 49.85 250.383 49.87C250.553 49.89 250.693 49.96 250.803 50.08C251.023 50.34 251.328 50.55 251.718 50.71C252.108 50.86 252.538 50.935 253.008 50.935C253.698 50.935 254.203 50.82 254.523 50.59C254.853 50.35 255.023 50.055 255.033 49.705C255.033 49.365 254.868 49.08 254.538 48.85C254.218 48.62 253.668 48.44 252.888 48.31C251.878 48.14 251.138 47.855 250.668 47.455C250.208 47.055 249.978 46.575 249.978 46.015C249.978 45.505 250.118 45.08 250.398 44.74C250.678 44.4 251.043 44.145 251.493 43.975C251.953 43.805 252.448 43.72 252.978 43.72C253.648 43.72 254.228 43.835 254.718 44.065C255.208 44.285 255.603 44.585 255.903 44.965C256.013 45.105 256.058 45.255 256.038 45.415C256.028 45.565 255.948 45.685 255.798 45.775C255.668 45.865 255.513 45.895 255.333 45.865C255.163 45.835 255.018 45.755 254.898 45.625C254.648 45.355 254.363 45.16 254.043 45.04C253.723 44.91 253.358 44.845 252.948 44.845C252.428 44.845 252.008 44.95 251.688 45.16C251.368 45.36 251.208 45.62 251.208 45.94C251.208 46.16 251.263 46.35 251.373 46.51C251.493 46.67 251.698 46.815 251.988 46.945C252.288 47.065 252.713 47.175 253.263 47.275C254.013 47.405 254.603 47.59 255.033 47.83C255.473 48.06 255.783 48.33 255.963 48.64C256.153 48.95 256.248 49.295 256.248 49.675C256.248 50.145 256.113 50.56 255.843 50.92C255.583 51.27 255.213 51.55 254.733 51.76C254.253 51.97 253.683 52.075 253.023 52.075ZM258.094 54.475C257.984 54.475 257.899 54.445 257.839 54.385C257.789 54.325 257.764 54.25 257.764 54.16C257.764 53.99 257.809 53.84 257.899 53.71C257.999 53.58 258.099 53.44 258.199 53.29C258.309 53.14 258.364 52.96 258.364 52.75C258.364 52.57 258.324 52.42 258.244 52.3C258.174 52.19 258.089 52.09 257.989 52C257.899 51.9 257.814 51.79 257.734 51.67C257.664 51.55 257.629 51.405 257.629 51.235C257.629 50.975 257.714 50.77 257.884 50.62C258.054 50.46 258.274 50.38 258.544 50.38C258.864 50.38 259.119 50.5 259.309 50.74C259.509 50.98 259.609 51.315 259.609 51.745C259.609 52.035 259.564 52.34 259.474 52.66C259.384 52.98 259.264 53.28 259.114 53.56C258.964 53.84 258.799 54.06 258.619 54.22C258.439 54.39 258.264 54.475 258.094 54.475ZM28.4828 69C28.3428 69 28.2178 68.96 28.1078 68.88C27.9978 68.8 27.9178 68.705 27.8678 68.595L25.5728 61.68C25.5028 61.41 25.5028 61.195 25.5728 61.035C25.6528 60.875 25.8078 60.795 26.0378 60.795C26.1878 60.795 26.3178 60.835 26.4278 60.915C26.5378 60.995 26.6228 61.125 26.6828 61.305L28.7078 67.545H28.3178L30.2078 61.275C30.2478 61.135 30.3178 61.02 30.4178 60.93C30.5278 60.84 30.6628 60.795 30.8228 60.795C30.9928 60.795 31.1278 60.84 31.2278 60.93C31.3378 61.02 31.4128 61.135 31.4528 61.275L33.1778 67.32H32.9228L34.8878 61.305C34.9978 60.965 35.2028 60.795 35.5028 60.795C35.7428 60.795 35.9078 60.885 35.9978 61.065C36.0878 61.235 36.0878 61.44 35.9978 61.68L33.6878 68.595C33.6478 68.705 33.5728 68.8 33.4628 68.88C33.3628 68.96 33.2428 69 33.1028 69C32.9628 69 32.8328 68.96 32.7128 68.88C32.6028 68.8 32.5278 68.705 32.4878 68.595L30.7028 62.49H30.8828L29.0678 68.595C29.0278 68.715 28.9528 68.815 28.8428 68.895C28.7328 68.965 28.6128 69 28.4828 69ZM41.1248 69.075C40.3048 69.075 39.5798 68.9 38.9498 68.55C38.3198 68.19 37.8248 67.695 37.4648 67.065C37.1048 66.435 36.9248 65.715 36.9248 64.905C36.9248 64.085 37.0948 63.365 37.4348 62.745C37.7748 62.115 38.2398 61.62 38.8298 61.26C39.4298 60.9 40.1198 60.72 40.8998 60.72C41.6598 60.72 42.3198 60.895 42.8798 61.245C43.4498 61.585 43.8848 62.06 44.1848 62.67C44.4948 63.28 44.6498 63.975 44.6498 64.755C44.6498 64.925 44.5948 65.065 44.4848 65.175C44.3748 65.275 44.2348 65.325 44.0648 65.325H37.7948V64.29H44.1398L43.4948 64.74C43.5048 64.19 43.4048 63.695 43.1948 63.255C42.9848 62.815 42.6848 62.47 42.2948 62.22C41.9048 61.97 41.4398 61.845 40.8998 61.845C40.3298 61.845 39.8298 61.975 39.3998 62.235C38.9798 62.495 38.6548 62.86 38.4248 63.33C38.2048 63.79 38.0948 64.315 38.0948 64.905C38.0948 65.495 38.2248 66.02 38.4848 66.48C38.7448 66.94 39.0998 67.3 39.5498 67.56C40.0098 67.82 40.5348 67.95 41.1248 67.95C41.4648 67.95 41.8098 67.89 42.1598 67.77C42.5198 67.65 42.8048 67.5 43.0148 67.32C43.1348 67.23 43.2698 67.185 43.4198 67.185C43.5798 67.175 43.7098 67.215 43.8098 67.305C43.9598 67.435 44.0348 67.575 44.0348 67.725C44.0448 67.875 43.9798 68.005 43.8398 68.115C43.5098 68.395 43.0898 68.625 42.5798 68.805C42.0698 68.985 41.5848 69.075 41.1248 69.075ZM51.6425 65.76C51.4425 65.76 51.2825 65.7 51.1625 65.58C51.0525 65.46 50.9975 65.31 50.9975 65.13V57.93C50.9975 57.73 51.0525 57.575 51.1625 57.465C51.2825 57.345 51.4425 57.285 51.6425 57.285C51.8325 57.285 51.9825 57.345 52.0925 57.465C52.2125 57.575 52.2725 57.73 52.2725 57.93V65.13C52.2725 65.31 52.2125 65.46 52.0925 65.58C51.9825 65.7 51.8325 65.76 51.6425 65.76ZM58.0025 69C57.8125 69 57.6575 68.94 57.5375 68.82C57.4175 68.7 57.3575 68.55 57.3575 68.37V64.545C57.3575 63.935 57.2425 63.44 57.0125 63.06C56.7925 62.67 56.4875 62.38 56.0975 62.19C55.7075 61.99 55.2625 61.89 54.7625 61.89C54.2925 61.89 53.8675 61.985 53.4875 62.175C53.1175 62.355 52.8225 62.605 52.6025 62.925C52.3825 63.235 52.2725 63.595 52.2725 64.005H51.4025C51.4225 63.375 51.5875 62.815 51.8975 62.325C52.2175 61.825 52.6425 61.43 53.1725 61.14C53.7025 60.85 54.2925 60.705 54.9425 60.705C55.6425 60.705 56.2675 60.855 56.8175 61.155C57.3775 61.445 57.8175 61.875 58.1375 62.445C58.4675 63.015 58.6325 63.715 58.6325 64.545V68.37C58.6325 68.55 58.5725 68.7 58.4525 68.82C58.3325 68.94 58.1825 69 58.0025 69ZM51.6425 69C51.4425 69 51.2825 68.945 51.1625 68.835C51.0525 68.715 50.9975 68.56 50.9975 68.37V61.44C50.9975 61.24 51.0525 61.085 51.1625 60.975C51.2825 60.855 51.4425 60.795 51.6425 60.795C51.8325 60.795 51.9825 60.855 52.0925 60.975C52.2125 61.085 52.2725 61.24 52.2725 61.44V68.37C52.2725 68.56 52.2125 68.715 52.0925 68.835C51.9825 68.945 51.8325 69 51.6425 69ZM64.7331 69.075C63.9731 69.075 63.2931 68.895 62.6931 68.535C62.0931 68.165 61.6181 67.665 61.2681 67.035C60.9181 66.405 60.7431 65.695 60.7431 64.905C60.7431 64.105 60.9231 63.39 61.2831 62.76C61.6531 62.13 62.1531 61.635 62.7831 61.275C63.4131 60.905 64.1231 60.72 64.9131 60.72C65.6931 60.72 66.3931 60.905 67.0131 61.275C67.6431 61.635 68.1381 62.13 68.4981 62.76C68.8681 63.39 69.0581 64.105 69.0681 64.905L68.5581 65.16C68.5581 65.9 68.3881 66.565 68.0481 67.155C67.7181 67.745 67.2631 68.215 66.6831 68.565C66.1131 68.905 65.4631 69.075 64.7331 69.075ZM64.9131 67.935C65.4731 67.935 65.9681 67.805 66.3981 67.545C66.8381 67.275 67.1831 66.91 67.4331 66.45C67.6931 65.99 67.8231 65.475 67.8231 64.905C67.8231 64.325 67.6931 63.81 67.4331 63.36C67.1831 62.9 66.8381 62.535 66.3981 62.265C65.9681 61.995 65.4731 61.86 64.9131 61.86C64.3631 61.86 63.8631 61.995 63.4131 62.265C62.9731 62.535 62.6231 62.9 62.3631 63.36C62.1031 63.81 61.9731 64.325 61.9731 64.905C61.9731 65.475 62.1031 65.99 62.3631 66.45C62.6231 66.91 62.9731 67.275 63.4131 67.545C63.8631 67.805 64.3631 67.935 64.9131 67.935ZM68.4231 69C68.2431 69 68.0881 68.945 67.9581 68.835C67.8381 68.715 67.7781 68.56 67.7781 68.37V65.895L68.0631 64.59L69.0681 64.905V68.37C69.0681 68.56 69.0081 68.715 68.8881 68.835C68.7681 68.945 68.6131 69 68.4231 69ZM73.6507 69C73.3907 69 73.1957 68.86 73.0657 68.58L69.7807 61.62C69.7107 61.48 69.7007 61.34 69.7507 61.2C69.8107 61.06 69.9207 60.95 70.0807 60.87C70.2307 60.79 70.3757 60.78 70.5157 60.84C70.6657 60.89 70.7807 60.985 70.8607 61.125L73.9807 67.89H73.3357L76.4257 61.125C76.4857 60.975 76.5957 60.875 76.7557 60.825C76.9157 60.775 77.0707 60.785 77.2207 60.855C77.3807 60.935 77.4857 61.05 77.5357 61.2C77.5857 61.34 77.5807 61.475 77.5207 61.605L74.2657 68.58C74.1357 68.86 73.9307 69 73.6507 69ZM82.5945 69.075C81.7745 69.075 81.0495 68.9 80.4195 68.55C79.7895 68.19 79.2945 67.695 78.9345 67.065C78.5745 66.435 78.3945 65.715 78.3945 64.905C78.3945 64.085 78.5645 63.365 78.9045 62.745C79.2445 62.115 79.7095 61.62 80.2995 61.26C80.8995 60.9 81.5895 60.72 82.3695 60.72C83.1295 60.72 83.7895 60.895 84.3495 61.245C84.9195 61.585 85.3545 62.06 85.6545 62.67C85.9645 63.28 86.1195 63.975 86.1195 64.755C86.1195 64.925 86.0645 65.065 85.9545 65.175C85.8445 65.275 85.7045 65.325 85.5345 65.325H79.2645V64.29H85.6095L84.9645 64.74C84.9745 64.19 84.8745 63.695 84.6645 63.255C84.4545 62.815 84.1545 62.47 83.7645 62.22C83.3745 61.97 82.9095 61.845 82.3695 61.845C81.7995 61.845 81.2995 61.975 80.8695 62.235C80.4495 62.495 80.1245 62.86 79.8945 63.33C79.6745 63.79 79.5645 64.315 79.5645 64.905C79.5645 65.495 79.6945 66.02 79.9545 66.48C80.2145 66.94 80.5695 67.3 81.0195 67.56C81.4795 67.82 82.0045 67.95 82.5945 67.95C82.9345 67.95 83.2795 67.89 83.6295 67.77C83.9895 67.65 84.2745 67.5 84.4845 67.32C84.6045 67.23 84.7395 67.185 84.8895 67.185C85.0495 67.175 85.1795 67.215 85.2795 67.305C85.4295 67.435 85.5045 67.575 85.5045 67.725C85.5145 67.875 85.4495 68.005 85.3095 68.115C84.9795 68.395 84.5595 68.625 84.0495 68.805C83.5395 68.985 83.0545 69.075 82.5945 69.075ZM96.6072 69.075C95.8272 69.075 95.1272 68.895 94.5072 68.535C93.8872 68.165 93.3922 67.67 93.0222 67.05C92.6622 66.42 92.4772 65.715 92.4672 64.935V57.93C92.4672 57.73 92.5222 57.575 92.6322 57.465C92.7522 57.345 92.9122 57.285 93.1122 57.285C93.3022 57.285 93.4522 57.345 93.5622 57.465C93.6822 57.575 93.7422 57.73 93.7422 57.93V62.22C94.0722 61.77 94.5022 61.41 95.0322 61.14C95.5622 60.86 96.1522 60.72 96.8022 60.72C97.5622 60.72 98.2422 60.905 98.8422 61.275C99.4422 61.635 99.9122 62.13 100.252 62.76C100.602 63.39 100.777 64.1 100.777 64.89C100.777 65.69 100.592 66.405 100.222 67.035C99.8622 67.665 99.3672 68.165 98.7372 68.535C98.1172 68.895 97.4072 69.075 96.6072 69.075ZM96.6072 67.935C97.1672 67.935 97.6672 67.8 98.1072 67.53C98.5572 67.26 98.9072 66.9 99.1572 66.45C99.4172 65.99 99.5472 65.47 99.5472 64.89C99.5472 64.32 99.4172 63.805 99.1572 63.345C98.9072 62.885 98.5572 62.525 98.1072 62.265C97.6672 61.995 97.1672 61.86 96.6072 61.86C96.0672 61.86 95.5722 61.995 95.1222 62.265C94.6822 62.525 94.3372 62.885 94.0872 63.345C93.8372 63.805 93.7122 64.32 93.7122 64.89C93.7122 65.47 93.8372 65.99 94.0872 66.45C94.3372 66.9 94.6822 67.26 95.1222 67.53C95.5722 67.8 96.0672 67.935 96.6072 67.935ZM106.793 69.075C105.983 69.075 105.263 68.895 104.633 68.535C104.013 68.175 103.523 67.68 103.163 67.05C102.803 66.42 102.623 65.705 102.623 64.905C102.623 64.095 102.803 63.375 103.163 62.745C103.523 62.115 104.013 61.62 104.633 61.26C105.263 60.9 105.983 60.72 106.793 60.72C107.593 60.72 108.303 60.9 108.923 61.26C109.543 61.62 110.033 62.115 110.393 62.745C110.753 63.375 110.938 64.095 110.948 64.905C110.948 65.705 110.768 66.42 110.408 67.05C110.048 67.68 109.553 68.175 108.923 68.535C108.303 68.895 107.593 69.075 106.793 69.075ZM106.793 67.935C107.353 67.935 107.853 67.805 108.293 67.545C108.733 67.275 109.078 66.915 109.328 66.465C109.578 66.005 109.703 65.485 109.703 64.905C109.703 64.325 109.578 63.805 109.328 63.345C109.078 62.885 108.733 62.525 108.293 62.265C107.853 61.995 107.353 61.86 106.793 61.86C106.233 61.86 105.728 61.995 105.278 62.265C104.838 62.525 104.488 62.885 104.228 63.345C103.978 63.805 103.853 64.325 103.853 64.905C103.853 65.485 103.978 66.005 104.228 66.465C104.488 66.915 104.838 67.275 105.278 67.545C105.728 67.805 106.233 67.935 106.793 67.935ZM113.75 63.915C113.77 63.305 113.925 62.76 114.215 62.28C114.515 61.79 114.905 61.405 115.385 61.125C115.875 60.845 116.41 60.705 116.99 60.705C117.5 60.705 117.885 60.78 118.145 60.93C118.415 61.08 118.515 61.285 118.445 61.545C118.415 61.685 118.35 61.785 118.25 61.845C118.16 61.905 118.05 61.935 117.92 61.935C117.8 61.935 117.66 61.925 117.5 61.905C116.91 61.835 116.385 61.875 115.925 62.025C115.475 62.165 115.115 62.4 114.845 62.73C114.575 63.06 114.44 63.455 114.44 63.915H113.75ZM113.825 69C113.625 69 113.47 68.945 113.36 68.835C113.25 68.725 113.195 68.57 113.195 68.37V61.425C113.195 61.225 113.25 61.07 113.36 60.96C113.47 60.85 113.625 60.795 113.825 60.795C114.025 60.795 114.175 60.85 114.275 60.96C114.385 61.07 114.44 61.225 114.44 61.425V68.37C114.44 68.57 114.385 68.725 114.275 68.835C114.175 68.945 114.025 69 113.825 69ZM120.752 63.915C120.772 63.305 120.927 62.76 121.217 62.28C121.517 61.79 121.907 61.405 122.387 61.125C122.877 60.845 123.412 60.705 123.992 60.705C124.502 60.705 124.887 60.78 125.147 60.93C125.417 61.08 125.517 61.285 125.447 61.545C125.417 61.685 125.352 61.785 125.252 61.845C125.162 61.905 125.052 61.935 124.922 61.935C124.802 61.935 124.662 61.925 124.502 61.905C123.912 61.835 123.387 61.875 122.927 62.025C122.477 62.165 122.117 62.4 121.847 62.73C121.577 63.06 121.442 63.455 121.442 63.915H120.752ZM120.827 69C120.627 69 120.472 68.945 120.362 68.835C120.252 68.725 120.197 68.57 120.197 68.37V61.425C120.197 61.225 120.252 61.07 120.362 60.96C120.472 60.85 120.627 60.795 120.827 60.795C121.027 60.795 121.177 60.85 121.277 60.96C121.387 61.07 121.442 61.225 121.442 61.425V68.37C121.442 68.57 121.387 68.725 121.277 68.835C121.177 68.945 121.027 69 120.827 69ZM130.333 69.075C129.523 69.075 128.803 68.895 128.173 68.535C127.553 68.175 127.063 67.68 126.703 67.05C126.343 66.42 126.163 65.705 126.163 64.905C126.163 64.095 126.343 63.375 126.703 62.745C127.063 62.115 127.553 61.62 128.173 61.26C128.803 60.9 129.523 60.72 130.333 60.72C131.133 60.72 131.843 60.9 132.463 61.26C133.083 61.62 133.573 62.115 133.933 62.745C134.293 63.375 134.478 64.095 134.488 64.905C134.488 65.705 134.308 66.42 133.948 67.05C133.588 67.68 133.093 68.175 132.463 68.535C131.843 68.895 131.133 69.075 130.333 69.075ZM130.333 67.935C130.893 67.935 131.393 67.805 131.833 67.545C132.273 67.275 132.618 66.915 132.868 66.465C133.118 66.005 133.243 65.485 133.243 64.905C133.243 64.325 133.118 63.805 132.868 63.345C132.618 62.885 132.273 62.525 131.833 62.265C131.393 61.995 130.893 61.86 130.333 61.86C129.773 61.86 129.268 61.995 128.818 62.265C128.378 62.525 128.028 62.885 127.768 63.345C127.518 63.805 127.393 64.325 127.393 64.905C127.393 65.485 127.518 66.005 127.768 66.465C128.028 66.915 128.378 67.275 128.818 67.545C129.268 67.805 129.773 67.935 130.333 67.935ZM138.156 69C138.016 69 137.891 68.96 137.781 68.88C137.671 68.8 137.591 68.705 137.541 68.595L135.246 61.68C135.176 61.41 135.176 61.195 135.246 61.035C135.326 60.875 135.481 60.795 135.711 60.795C135.861 60.795 135.991 60.835 136.101 60.915C136.211 60.995 136.296 61.125 136.356 61.305L138.381 67.545H137.991L139.881 61.275C139.921 61.135 139.991 61.02 140.091 60.93C140.201 60.84 140.336 60.795 140.496 60.795C140.666 60.795 140.801 60.84 140.901 60.93C141.011 61.02 141.086 61.135 141.126 61.275L142.851 67.32H142.596L144.561 61.305C144.671 60.965 144.876 60.795 145.176 60.795C145.416 60.795 145.581 60.885 145.671 61.065C145.761 61.235 145.761 61.44 145.671 61.68L143.361 68.595C143.321 68.705 143.246 68.8 143.136 68.88C143.036 68.96 142.916 69 142.776 69C142.636 69 142.506 68.96 142.386 68.88C142.276 68.8 142.201 68.705 142.161 68.595L140.376 62.49H140.556L138.741 68.595C138.701 68.715 138.626 68.815 138.516 68.895C138.406 68.965 138.286 69 138.156 69ZM150.798 69.075C149.978 69.075 149.253 68.9 148.623 68.55C147.993 68.19 147.498 67.695 147.138 67.065C146.778 66.435 146.598 65.715 146.598 64.905C146.598 64.085 146.768 63.365 147.108 62.745C147.448 62.115 147.913 61.62 148.503 61.26C149.103 60.9 149.793 60.72 150.573 60.72C151.333 60.72 151.993 60.895 152.553 61.245C153.123 61.585 153.558 62.06 153.858 62.67C154.168 63.28 154.323 63.975 154.323 64.755C154.323 64.925 154.268 65.065 154.158 65.175C154.048 65.275 153.908 65.325 153.738 65.325H147.468V64.29H153.813L153.168 64.74C153.178 64.19 153.078 63.695 152.868 63.255C152.658 62.815 152.358 62.47 151.968 62.22C151.578 61.97 151.113 61.845 150.573 61.845C150.003 61.845 149.503 61.975 149.073 62.235C148.653 62.495 148.328 62.86 148.098 63.33C147.878 63.79 147.768 64.315 147.768 64.905C147.768 65.495 147.898 66.02 148.158 66.48C148.418 66.94 148.773 67.3 149.223 67.56C149.683 67.82 150.208 67.95 150.798 67.95C151.138 67.95 151.483 67.89 151.833 67.77C152.193 67.65 152.478 67.5 152.688 67.32C152.808 67.23 152.943 67.185 153.093 67.185C153.253 67.175 153.383 67.215 153.483 67.305C153.633 67.435 153.708 67.575 153.708 67.725C153.718 67.875 153.653 68.005 153.513 68.115C153.183 68.395 152.763 68.625 152.253 68.805C151.743 68.985 151.258 69.075 150.798 69.075ZM159.718 69.075C158.928 69.075 158.218 68.895 157.588 68.535C156.958 68.165 156.458 67.665 156.088 67.035C155.728 66.405 155.548 65.69 155.548 64.89C155.548 64.1 155.723 63.39 156.073 62.76C156.423 62.13 156.898 61.635 157.498 61.275C158.098 60.905 158.778 60.72 159.538 60.72C160.188 60.72 160.773 60.86 161.293 61.14C161.823 61.41 162.253 61.77 162.583 62.22V57.93C162.583 57.73 162.643 57.575 162.763 57.465C162.893 57.345 163.048 57.285 163.228 57.285C163.418 57.285 163.573 57.345 163.693 57.465C163.813 57.575 163.873 57.73 163.873 57.93V64.935C163.853 65.715 163.658 66.42 163.288 67.05C162.928 67.67 162.438 68.165 161.818 68.535C161.198 68.895 160.498 69.075 159.718 69.075ZM159.718 67.935C160.278 67.935 160.773 67.8 161.203 67.53C161.643 67.26 161.988 66.9 162.238 66.45C162.498 65.99 162.628 65.47 162.628 64.89C162.628 64.32 162.498 63.805 162.238 63.345C161.988 62.885 161.643 62.525 161.203 62.265C160.773 61.995 160.278 61.86 159.718 61.86C159.168 61.86 158.668 61.995 158.218 62.265C157.778 62.525 157.428 62.885 157.168 63.345C156.908 63.805 156.778 64.32 156.778 64.89C156.778 65.47 156.908 65.99 157.168 66.45C157.428 66.9 157.778 67.26 158.218 67.53C158.668 67.8 159.168 67.935 159.718 67.935ZM171.823 69C171.633 69 171.478 68.945 171.358 68.835C171.238 68.715 171.178 68.555 171.178 68.355V61.44C171.178 61.24 171.238 61.085 171.358 60.975C171.478 60.855 171.633 60.795 171.823 60.795C172.013 60.795 172.163 60.855 172.273 60.975C172.393 61.085 172.453 61.24 172.453 61.44V68.355C172.453 68.555 172.393 68.715 172.273 68.835C172.163 68.945 172.013 69 171.823 69ZM171.808 59.31C171.568 59.31 171.363 59.225 171.193 59.055C171.023 58.875 170.938 58.665 170.938 58.425C170.938 58.175 171.023 57.97 171.193 57.81C171.373 57.65 171.578 57.57 171.808 57.57C172.038 57.57 172.238 57.65 172.408 57.81C172.588 57.97 172.678 58.175 172.678 58.425C172.678 58.665 172.593 58.875 172.423 59.055C172.253 59.225 172.048 59.31 171.808 59.31ZM178.498 69C177.978 69 177.513 68.875 177.103 68.625C176.693 68.375 176.368 68.03 176.128 67.59C175.898 67.15 175.783 66.655 175.783 66.105V58.815C175.783 58.635 175.838 58.485 175.948 58.365C176.068 58.245 176.223 58.185 176.413 58.185C176.593 58.185 176.743 58.245 176.863 58.365C176.983 58.485 177.043 58.635 177.043 58.815V66.105C177.043 66.575 177.178 66.965 177.448 67.275C177.728 67.585 178.078 67.74 178.498 67.74H178.948C179.108 67.74 179.243 67.8 179.353 67.92C179.463 68.04 179.518 68.19 179.518 68.37C179.518 68.56 179.448 68.715 179.308 68.835C179.178 68.945 179.008 69 178.798 69H178.498ZM174.898 62.19C174.728 62.19 174.588 62.14 174.478 62.04C174.368 61.93 174.313 61.8 174.313 61.65C174.313 61.49 174.368 61.36 174.478 61.26C174.588 61.15 174.728 61.095 174.898 61.095H178.603C178.773 61.095 178.913 61.15 179.023 61.26C179.133 61.36 179.188 61.49 179.188 61.65C179.188 61.8 179.133 61.93 179.023 62.04C178.913 62.14 178.773 62.19 178.603 62.19H174.898ZM186.767 69C186.607 69 186.467 68.945 186.347 68.835C186.227 68.715 186.167 68.555 186.167 68.355V60.825C186.167 60.115 186.292 59.495 186.542 58.965C186.792 58.435 187.157 58.025 187.637 57.735C188.127 57.435 188.707 57.285 189.377 57.285C189.567 57.285 189.722 57.34 189.842 57.45C189.962 57.56 190.022 57.695 190.022 57.855C190.022 58.025 189.962 58.165 189.842 58.275C189.722 58.385 189.567 58.44 189.377 58.44C188.957 58.44 188.602 58.54 188.312 58.74C188.022 58.93 187.802 59.2 187.652 59.55C187.502 59.89 187.427 60.285 187.427 60.735V68.355C187.427 68.555 187.367 68.715 187.247 68.835C187.137 68.945 186.977 69 186.767 69ZM185.297 62.19C185.117 62.19 184.972 62.14 184.862 62.04C184.762 61.93 184.712 61.8 184.712 61.65C184.712 61.49 184.762 61.36 184.862 61.26C184.972 61.15 185.117 61.095 185.297 61.095H189.152C189.322 61.095 189.457 61.15 189.557 61.26C189.667 61.36 189.722 61.49 189.722 61.65C189.722 61.8 189.667 61.93 189.557 62.04C189.457 62.14 189.322 62.19 189.152 62.19H185.297ZM191.841 63.915C191.861 63.305 192.016 62.76 192.306 62.28C192.606 61.79 192.996 61.405 193.476 61.125C193.966 60.845 194.501 60.705 195.081 60.705C195.591 60.705 195.976 60.78 196.236 60.93C196.506 61.08 196.606 61.285 196.536 61.545C196.506 61.685 196.441 61.785 196.341 61.845C196.251 61.905 196.141 61.935 196.011 61.935C195.891 61.935 195.751 61.925 195.591 61.905C195.001 61.835 194.476 61.875 194.016 62.025C193.566 62.165 193.206 62.4 192.936 62.73C192.666 63.06 192.531 63.455 192.531 63.915H191.841ZM191.916 69C191.716 69 191.561 68.945 191.451 68.835C191.341 68.725 191.286 68.57 191.286 68.37V61.425C191.286 61.225 191.341 61.07 191.451 60.96C191.561 60.85 191.716 60.795 191.916 60.795C192.116 60.795 192.266 60.85 192.366 60.96C192.476 61.07 192.531 61.225 192.531 61.425V68.37C192.531 68.57 192.476 68.725 192.366 68.835C192.266 68.945 192.116 69 191.916 69ZM201.422 69.075C200.612 69.075 199.892 68.895 199.262 68.535C198.642 68.175 198.152 67.68 197.792 67.05C197.432 66.42 197.252 65.705 197.252 64.905C197.252 64.095 197.432 63.375 197.792 62.745C198.152 62.115 198.642 61.62 199.262 61.26C199.892 60.9 200.612 60.72 201.422 60.72C202.222 60.72 202.932 60.9 203.552 61.26C204.172 61.62 204.662 62.115 205.022 62.745C205.382 63.375 205.567 64.095 205.577 64.905C205.577 65.705 205.397 66.42 205.037 67.05C204.677 67.68 204.182 68.175 203.552 68.535C202.932 68.895 202.222 69.075 201.422 69.075ZM201.422 67.935C201.982 67.935 202.482 67.805 202.922 67.545C203.362 67.275 203.707 66.915 203.957 66.465C204.207 66.005 204.332 65.485 204.332 64.905C204.332 64.325 204.207 63.805 203.957 63.345C203.707 62.885 203.362 62.525 202.922 62.265C202.482 61.995 201.982 61.86 201.422 61.86C200.862 61.86 200.357 61.995 199.907 62.265C199.467 62.525 199.117 62.885 198.857 63.345C198.607 63.805 198.482 64.325 198.482 64.905C198.482 65.485 198.607 66.005 198.857 66.465C199.117 66.915 199.467 67.275 199.907 67.545C200.357 67.805 200.862 67.935 201.422 67.935ZM218.819 69C218.629 69 218.474 68.945 218.354 68.835C218.234 68.715 218.174 68.56 218.174 68.37V64.065C218.174 63.375 217.999 62.84 217.649 62.46C217.299 62.08 216.844 61.89 216.284 61.89C215.694 61.89 215.209 62.09 214.829 62.49C214.459 62.89 214.274 63.415 214.274 64.065H213.179C213.189 63.395 213.334 62.81 213.614 62.31C213.894 61.8 214.279 61.405 214.769 61.125C215.269 60.845 215.834 60.705 216.464 60.705C217.044 60.705 217.559 60.84 218.009 61.11C218.459 61.38 218.809 61.77 219.059 62.28C219.319 62.78 219.449 63.375 219.449 64.065V68.37C219.449 68.56 219.389 68.715 219.269 68.835C219.149 68.945 218.999 69 218.819 69ZM208.469 69C208.269 69 208.109 68.945 207.989 68.835C207.879 68.715 207.824 68.56 207.824 68.37V61.44C207.824 61.25 207.879 61.095 207.989 60.975C208.109 60.855 208.269 60.795 208.469 60.795C208.659 60.795 208.809 60.855 208.919 60.975C209.039 61.095 209.099 61.25 209.099 61.44V68.37C209.099 68.56 209.039 68.715 208.919 68.835C208.809 68.945 208.659 69 208.469 69ZM213.644 69C213.464 69 213.314 68.945 213.194 68.835C213.074 68.715 213.014 68.56 213.014 68.37V64.065C213.014 63.375 212.834 62.84 212.474 62.46C212.124 62.08 211.674 61.89 211.124 61.89C210.534 61.89 210.049 62.085 209.669 62.475C209.289 62.865 209.099 63.375 209.099 64.005H208.229C208.249 63.355 208.389 62.785 208.649 62.295C208.909 61.795 209.269 61.405 209.729 61.125C210.189 60.845 210.714 60.705 211.304 60.705C211.884 60.705 212.399 60.84 212.849 61.11C213.299 61.38 213.649 61.77 213.899 62.28C214.149 62.78 214.274 63.375 214.274 64.065V68.37C214.274 68.56 214.214 68.715 214.094 68.835C213.984 68.945 213.834 69 213.644 69ZM230.118 69.075C229.308 69.075 228.588 68.895 227.958 68.535C227.338 68.175 226.848 67.68 226.488 67.05C226.128 66.42 225.948 65.705 225.948 64.905C225.948 64.095 226.128 63.375 226.488 62.745C226.848 62.115 227.338 61.62 227.958 61.26C228.588 60.9 229.308 60.72 230.118 60.72C230.918 60.72 231.628 60.9 232.248 61.26C232.868 61.62 233.358 62.115 233.718 62.745C234.078 63.375 234.263 64.095 234.273 64.905C234.273 65.705 234.093 66.42 233.733 67.05C233.373 67.68 232.878 68.175 232.248 68.535C231.628 68.895 230.918 69.075 230.118 69.075ZM230.118 67.935C230.678 67.935 231.178 67.805 231.618 67.545C232.058 67.275 232.403 66.915 232.653 66.465C232.903 66.005 233.028 65.485 233.028 64.905C233.028 64.325 232.903 63.805 232.653 63.345C232.403 62.885 232.058 62.525 231.618 62.265C231.178 61.995 230.678 61.86 230.118 61.86C229.558 61.86 229.053 61.995 228.603 62.265C228.163 62.525 227.813 62.885 227.553 63.345C227.303 63.805 227.178 64.325 227.178 64.905C227.178 65.485 227.303 66.005 227.553 66.465C227.813 66.915 228.163 67.275 228.603 67.545C229.053 67.805 229.558 67.935 230.118 67.935ZM240.06 69.09C239.35 69.09 238.715 68.945 238.155 68.655C237.605 68.355 237.17 67.92 236.85 67.35C236.53 66.78 236.37 66.08 236.37 65.25V61.425C236.37 61.245 236.43 61.095 236.55 60.975C236.67 60.855 236.82 60.795 237 60.795C237.18 60.795 237.33 60.855 237.45 60.975C237.57 61.095 237.63 61.245 237.63 61.425V65.25C237.63 65.86 237.745 66.36 237.975 66.75C238.205 67.13 238.515 67.42 238.905 67.62C239.295 67.81 239.735 67.905 240.225 67.905C240.695 67.905 241.12 67.815 241.5 67.635C241.88 67.445 242.18 67.195 242.4 66.885C242.62 66.565 242.73 66.2 242.73 65.79H243.585C243.565 66.42 243.4 66.985 243.09 67.485C242.78 67.975 242.36 68.365 241.83 68.655C241.3 68.945 240.71 69.09 240.06 69.09ZM243.36 69C243.17 69 243.015 68.945 242.895 68.835C242.785 68.715 242.73 68.555 242.73 68.355V61.425C242.73 61.235 242.785 61.085 242.895 60.975C243.015 60.855 243.17 60.795 243.36 60.795C243.55 60.795 243.705 60.855 243.825 60.975C243.945 61.085 244.005 61.235 244.005 61.425V68.355C244.005 68.555 243.945 68.715 243.825 68.835C243.705 68.945 243.55 69 243.36 69ZM247.256 63.915C247.276 63.305 247.431 62.76 247.721 62.28C248.021 61.79 248.411 61.405 248.891 61.125C249.381 60.845 249.916 60.705 250.496 60.705C251.006 60.705 251.391 60.78 251.651 60.93C251.921 61.08 252.021 61.285 251.951 61.545C251.921 61.685 251.856 61.785 251.756 61.845C251.666 61.905 251.556 61.935 251.426 61.935C251.306 61.935 251.166 61.925 251.006 61.905C250.416 61.835 249.891 61.875 249.431 62.025C248.981 62.165 248.621 62.4 248.351 62.73C248.081 63.06 247.946 63.455 247.946 63.915H247.256ZM247.331 69C247.131 69 246.976 68.945 246.866 68.835C246.756 68.725 246.701 68.57 246.701 68.37V61.425C246.701 61.225 246.756 61.07 246.866 60.96C246.976 60.85 247.131 60.795 247.331 60.795C247.531 60.795 247.681 60.85 247.781 60.96C247.891 61.07 247.946 61.225 247.946 61.425V68.37C247.946 68.57 247.891 68.725 247.781 68.835C247.681 68.945 247.531 69 247.331 69ZM259.192 66.18L258.427 65.34L263.392 60.855C263.522 60.735 263.657 60.68 263.797 60.69C263.947 60.7 264.082 60.77 264.202 60.9C264.322 61.03 264.377 61.17 264.367 61.32C264.357 61.46 264.287 61.59 264.157 61.71L259.192 66.18ZM258.712 69C258.532 69 258.382 68.945 258.262 68.835C258.152 68.715 258.097 68.565 258.097 68.385V57.9C258.097 57.72 258.152 57.575 258.262 57.465C258.382 57.345 258.532 57.285 258.712 57.285C258.902 57.285 259.052 57.345 259.162 57.465C259.282 57.575 259.342 57.72 259.342 57.9V68.385C259.342 68.565 259.282 68.715 259.162 68.835C259.052 68.945 258.902 69 258.712 69ZM264.202 68.925C264.062 69.045 263.912 69.095 263.752 69.075C263.602 69.065 263.472 68.99 263.362 68.85L260.107 64.845L260.992 64.035L264.292 68.1C264.402 68.23 264.452 68.37 264.442 68.52C264.432 68.67 264.352 68.805 264.202 68.925ZM267.521 69C267.331 69 267.176 68.945 267.056 68.835C266.936 68.715 266.876 68.555 266.876 68.355V61.44C266.876 61.24 266.936 61.085 267.056 60.975C267.176 60.855 267.331 60.795 267.521 60.795C267.711 60.795 267.861 60.855 267.971 60.975C268.091 61.085 268.151 61.24 268.151 61.44V68.355C268.151 68.555 268.091 68.715 267.971 68.835C267.861 68.945 267.711 69 267.521 69ZM267.506 59.31C267.266 59.31 267.061 59.225 266.891 59.055C266.721 58.875 266.636 58.665 266.636 58.425C266.636 58.175 266.721 57.97 266.891 57.81C267.071 57.65 267.276 57.57 267.506 57.57C267.736 57.57 267.936 57.65 268.106 57.81C268.286 57.97 268.376 58.175 268.376 58.425C268.376 58.665 268.291 58.875 268.121 59.055C267.951 59.225 267.746 59.31 267.506 59.31ZM274.796 69.075C274.006 69.075 273.296 68.895 272.666 68.535C272.036 68.165 271.536 67.665 271.166 67.035C270.806 66.405 270.626 65.69 270.626 64.89C270.626 64.1 270.801 63.39 271.151 62.76C271.501 62.13 271.976 61.635 272.576 61.275C273.176 60.905 273.856 60.72 274.616 60.72C275.266 60.72 275.851 60.86 276.371 61.14C276.901 61.41 277.331 61.77 277.661 62.22V57.93C277.661 57.73 277.721 57.575 277.841 57.465C277.971 57.345 278.126 57.285 278.306 57.285C278.496 57.285 278.651 57.345 278.771 57.465C278.891 57.575 278.951 57.73 278.951 57.93V64.935C278.931 65.715 278.736 66.42 278.366 67.05C278.006 67.67 277.516 68.165 276.896 68.535C276.276 68.895 275.576 69.075 274.796 69.075ZM274.796 67.935C275.356 67.935 275.851 67.8 276.281 67.53C276.721 67.26 277.066 66.9 277.316 66.45C277.576 65.99 277.706 65.47 277.706 64.89C277.706 64.32 277.576 63.805 277.316 63.345C277.066 62.885 276.721 62.525 276.281 62.265C275.851 61.995 275.356 61.86 274.796 61.86C274.246 61.86 273.746 61.995 273.296 62.265C272.856 62.525 272.506 62.885 272.246 63.345C271.986 63.805 271.856 64.32 271.856 64.89C271.856 65.47 271.986 65.99 272.246 66.45C272.506 66.9 272.856 67.26 273.296 67.53C273.746 67.8 274.246 67.935 274.796 67.935ZM284.547 69.075C283.927 69.075 283.322 68.975 282.732 68.775C282.152 68.565 281.687 68.27 281.337 67.89C281.217 67.76 281.167 67.61 281.187 67.44C281.207 67.27 281.287 67.13 281.427 67.02C281.587 66.9 281.747 66.85 281.907 66.87C282.077 66.89 282.217 66.96 282.327 67.08C282.547 67.34 282.852 67.55 283.242 67.71C283.632 67.86 284.062 67.935 284.532 67.935C285.222 67.935 285.727 67.82 286.047 67.59C286.377 67.35 286.547 67.055 286.557 66.705C286.557 66.365 286.392 66.08 286.062 65.85C285.742 65.62 285.192 65.44 284.412 65.31C283.402 65.14 282.662 64.855 282.192 64.455C281.732 64.055 281.502 63.575 281.502 63.015C281.502 62.505 281.642 62.08 281.922 61.74C282.202 61.4 282.567 61.145 283.017 60.975C283.477 60.805 283.972 60.72 284.502 60.72C285.172 60.72 285.752 60.835 286.242 61.065C286.732 61.285 287.127 61.585 287.427 61.965C287.537 62.105 287.582 62.255 287.562 62.415C287.552 62.565 287.472 62.685 287.322 62.775C287.192 62.865 287.037 62.895 286.857 62.865C286.687 62.835 286.542 62.755 286.422 62.625C286.172 62.355 285.887 62.16 285.567 62.04C285.247 61.91 284.882 61.845 284.472 61.845C283.952 61.845 283.532 61.95 283.212 62.16C282.892 62.36 282.732 62.62 282.732 62.94C282.732 63.16 282.787 63.35 282.897 63.51C283.017 63.67 283.222 63.815 283.512 63.945C283.812 64.065 284.237 64.175 284.787 64.275C285.537 64.405 286.127 64.59 286.557 64.83C286.997 65.06 287.307 65.33 287.487 65.64C287.677 65.95 287.772 66.295 287.772 66.675C287.772 67.145 287.637 67.56 287.367 67.92C287.107 68.27 286.737 68.55 286.257 68.76C285.777 68.97 285.207 69.075 284.547 69.075ZM290.067 69.24C289.817 69.24 289.602 69.15 289.422 68.97C289.242 68.79 289.152 68.575 289.152 68.325C289.152 68.055 289.242 67.83 289.422 67.65C289.612 67.47 289.827 67.38 290.067 67.38C290.327 67.38 290.547 67.475 290.727 67.665C290.907 67.845 290.997 68.065 290.997 68.325C290.997 68.565 290.907 68.78 290.727 68.97C290.557 69.15 290.337 69.24 290.067 69.24Z" fill="black"/>
<path d="M23.7159 16.9173C23.7159 17.5144 23.5801 18.0437 23.3087 18.5051C23.0645 18.9394 22.7388 19.3058 22.3316 19.6043C21.9245 19.9029 21.4767 20.1336 20.9881 20.2964C20.5267 20.4321 20.0924 20.5 19.6853 20.5C19.0611 20.5 18.4232 20.3643 17.7718 20.0929C17.1476 19.7943 16.5776 19.3736 16.0619 18.8308C15.5462 18.288 15.1255 17.6366 14.7998 16.8766C14.4741 16.1166 14.3113 15.2752 14.3113 14.3524C14.3113 12.7511 14.6098 11.3804 15.2069 10.2405C15.8312 9.10051 16.564 8.15055 17.4054 7.39059C18.274 6.60348 19.1561 5.99279 20.0517 5.55852C20.9745 5.09712 21.7345 4.77142 22.3316 4.58142V5.88422C21.7888 6.20992 21.2053 6.56277 20.581 6.94275C19.9839 7.32273 19.4275 7.77057 18.9118 8.28626C18.4232 8.80195 18.0161 9.3855 17.6904 10.0369C17.3647 10.6883 17.2019 11.4211 17.2019 12.2354C17.2019 12.6425 17.2426 12.9682 17.324 13.2125C17.4054 13.4567 17.5004 13.6467 17.609 13.7824C17.7447 13.9182 17.8668 14.0131 17.9754 14.0674C18.1111 14.1217 18.2197 14.1489 18.3011 14.1489C18.5997 14.1489 18.9661 14.0674 19.4003 13.9046C19.8346 13.7146 20.2417 13.6196 20.6217 13.6196C20.9745 13.6196 21.3274 13.701 21.6802 13.8639C22.0602 13.9996 22.3995 14.2167 22.698 14.5153C22.9966 14.7867 23.2409 15.126 23.4309 15.5331C23.6209 15.9402 23.7159 16.4016 23.7159 16.9173ZM11.0187 16.8359C11.0187 17.433 10.8829 17.9623 10.6115 18.4237C10.3673 18.8851 10.0416 19.2651 9.63443 19.5636C9.2273 19.835 8.77947 20.0522 8.29092 20.215C7.82951 20.3507 7.38167 20.4186 6.94741 20.4186C6.32315 20.4186 5.69889 20.2829 5.07463 20.0115C4.45037 19.7129 3.8804 19.3058 3.36471 18.7901C2.84902 18.2472 2.42832 17.5958 2.10262 16.8359C1.80406 16.0759 1.65479 15.2345 1.65479 14.3117C1.65479 12.7103 1.95334 11.3397 2.55046 10.1997C3.17472 9.03265 3.90754 8.06913 4.74893 7.30916C5.61747 6.52205 6.49957 5.91137 7.39524 5.4771C8.29092 5.01569 9.03731 4.68999 9.63443 4.5V5.84351C9.0916 6.16921 8.50805 6.52205 7.88379 6.90204C7.28668 7.28202 6.73027 7.72986 6.21458 8.24555C5.72603 8.76124 5.30534 9.34478 4.9525 9.99618C4.6268 10.6204 4.46395 11.3533 4.46395 12.1947C4.46395 12.9546 4.61322 13.4567 4.91178 13.701C5.23748 13.9453 5.48176 14.0674 5.64461 14.0674C5.91602 14.0674 6.26886 13.986 6.70313 13.8232C7.1374 13.6603 7.54452 13.5789 7.92451 13.5789C8.27735 13.5789 8.63019 13.6603 8.98303 13.8232C9.36301 13.9589 9.70228 14.176 10.0008 14.4746C10.2994 14.746 10.5437 15.0852 10.7337 15.4924C10.9237 15.8723 11.0187 16.3202 11.0187 16.8359Z" fill="black"/>
<path d="M293.284 77.0827C293.284 76.4856 293.42 75.9563 293.691 75.4949C293.936 75.0606 294.261 74.6942 294.668 74.3957C295.075 74.0971 295.523 73.8664 296.012 73.7036C296.473 73.5679 296.908 73.5 297.315 73.5C297.939 73.5 298.577 73.6357 299.228 73.9071C299.852 74.2057 300.422 74.6264 300.938 75.1692C301.454 75.712 301.874 76.3634 302.2 77.1234C302.526 77.8834 302.689 78.7248 302.689 79.6476C302.689 81.2489 302.39 82.6196 301.793 83.7595C301.169 84.8995 300.436 85.8494 299.595 86.6094C298.726 87.3965 297.844 88.0072 296.948 88.4415C296.025 88.9029 295.265 89.2286 294.668 89.4186V88.1158C295.211 87.7901 295.795 87.4372 296.419 87.0573C297.016 86.6773 297.573 86.2294 298.088 85.7137C298.577 85.198 298.984 84.6145 299.31 83.9631C299.635 83.3117 299.798 82.5789 299.798 81.7646C299.798 81.3575 299.757 81.0318 299.676 80.7875C299.595 80.5433 299.5 80.3533 299.391 80.2176C299.255 80.0818 299.133 79.9869 299.025 79.9326C298.889 79.8783 298.78 79.8511 298.699 79.8511C298.4 79.8511 298.034 79.9326 297.6 80.0954C297.165 80.2854 296.758 80.3804 296.378 80.3804C296.025 80.3804 295.673 80.299 295.32 80.1361C294.94 80.0004 294.601 79.7833 294.302 79.4847C294.003 79.2133 293.759 78.874 293.569 78.4669C293.379 78.0598 293.284 77.5984 293.284 77.0827ZM305.981 77.1641C305.981 76.567 306.117 76.0377 306.388 75.5763C306.633 75.1149 306.958 74.7349 307.366 74.4364C307.773 74.165 308.221 73.9478 308.709 73.785C309.17 73.6493 309.618 73.5814 310.053 73.5814C310.677 73.5814 311.301 73.7171 311.925 73.9885C312.55 74.2871 313.12 74.6942 313.635 75.2099C314.151 75.7528 314.572 76.4042 314.897 77.1641C315.196 77.9241 315.345 78.7655 315.345 79.6883C315.345 81.2897 315.047 82.6603 314.45 83.8003C313.825 84.9673 313.092 85.9309 312.251 86.6908C311.383 87.4779 310.5 88.0886 309.605 88.5229C308.709 88.9843 307.963 89.31 307.366 89.5V88.1565C307.908 87.8308 308.492 87.4779 309.116 87.098C309.713 86.718 310.27 86.2701 310.785 85.7545C311.274 85.2388 311.695 84.6552 312.048 84.0038C312.373 83.3796 312.536 82.6467 312.536 81.8053C312.536 81.0454 312.387 80.5433 312.088 80.299C311.763 80.0547 311.518 79.9326 311.355 79.9326C311.084 79.9326 310.731 80.014 310.297 80.1768C309.863 80.3397 309.455 80.4211 309.075 80.4211C308.723 80.4211 308.37 80.3397 308.017 80.1768C307.637 80.0411 307.298 79.824 306.999 79.5254C306.701 79.254 306.456 78.9148 306.266 78.5076C306.076 78.1276 305.981 77.6798 305.981 77.1641Z" fill="black"/>
</svg>
