<svg width="197" height="71" viewBox="0 0 197 71" fill="none" xmlns="http://www.w3.org/2000/svg">
<path d="M15.1043 2.675H22.5243C21.9993 2.815 21.4393 3.165 21.4393 3.9C21.4393 4.88 21.7893 6.035 22.1393 7.19L28.7893 25.95C30.6443 20.735 32.5343 15.52 34.3543 10.305C34.9143 9.185 35.9643 5.51 35.9643 4.53C35.9643 3.55 35.6843 3.025 35.0193 2.745C34.9843 2.745 34.8443 2.675 34.7393 2.64H39.7793C39.7443 2.675 39.7443 2.675 39.6743 2.675H39.7093C38.4493 3.025 37.4343 4.425 36.6643 5.895C36.1743 6.945 35.7543 8.1 35.3693 9.08C35.1943 9.465 35.0893 9.815 34.9843 10.095L28.8943 27.035H25.6743L19.7943 10.13C19.4093 8.905 17.6943 4.81 16.8193 3.76C16.2943 3.13 15.6993 2.815 15.1043 2.675ZM2.6443 3.725C2.1893 3.095 1.5243 2.78 0.964297 2.64H8.3493C7.8243 2.78 7.2993 3.13 7.2993 3.865C7.2993 4.845 7.6143 6 7.9643 7.155C8.1743 7.575 8.3143 7.96 8.4543 8.38C8.7343 9.08 9.0493 9.745 9.2593 10.305L15.1393 25.95C16.7843 21.47 18.3943 16.885 19.9693 12.37L20.2493 13.07L15.2793 27.035H12.0593L5.6543 10.095C5.1993 8.87 3.5543 4.775 2.6443 3.725ZM35.3296 19.055C35.3296 13.91 38.5146 10.34 43.7996 10.34C48.7346 10.34 51.8146 13.77 51.9196 18.67H38.9346C38.9346 22.73 39.6346 26.895 44.8146 26.895C47.1596 26.895 49.9246 25.32 51.3246 23.01H51.5696C50.3796 25.775 47.0546 27.35 44.2546 27.35C39.1096 27.35 35.3296 24.2 35.3296 19.055ZM43.9746 10.69C40.1596 10.69 39.2496 15.625 38.9696 18.32H48.4896C48.3846 15.695 47.9996 10.69 43.9746 10.69ZM61.8596 14.505C61.8596 11.215 65.5696 9.605 68.7896 9.745C70.0846 9.815 72.4296 10.305 73.6546 10.83L73.6896 11.635C73.6896 12.58 73.6196 13.49 73.5496 14.4L73.3396 14.435C73.0246 12.23 71.0646 10.165 68.0896 10.165C66.1996 10.165 64.6946 11.705 64.6946 13.77C64.6946 18.145 74.7396 16.78 74.7396 22.765C74.7396 26.335 70.6446 27.98 67.3196 27.875C65.0796 27.805 63.5746 27.14 62.2446 26.3C62.2096 25.775 62.2096 25.25 62.2096 24.725C62.2096 24.165 62.2096 23.64 62.2446 23.08L62.4896 23.045C62.9446 25.425 64.7646 27.525 67.9146 27.385C70.2596 27.28 71.9396 25.95 71.9046 23.675C71.8346 19.195 61.8596 20.77 61.8596 14.505ZM75.8137 10.585C80.2937 10.445 80.8537 7.645 81.0637 4.95H82.7087V10.41H87.3987V10.935H82.7087V24.41C82.7087 25.88 83.3387 26.44 84.1437 26.44C85.2987 26.44 86.8387 25.215 87.1187 24.025L87.3987 24.27C85.7537 27.385 84.0037 27.35 82.8137 27.35C81.0637 27.35 79.4187 25.88 79.4187 24.235V10.935H75.8137V10.585ZM97.2135 27C91.8935 27.035 89.0585 25.53 89.0585 22.065C89.0585 18.565 92.5585 16.78 97.4585 16.92C98.4035 16.955 99.3835 17.2 100.118 17.41V16.115C100.118 13.63 99.8035 10.585 96.4085 10.585C94.6235 10.585 93.9585 11.6 93.5035 12.58C93.4335 12.685 93.3985 12.79 93.3285 12.895C93.2935 13.035 93.2235 13.14 93.1185 13.245C93.0135 13.42 92.9435 13.595 92.8035 13.77C92.6285 14.05 92.3485 14.225 91.8235 14.225C91.0885 14.225 90.7385 13.875 90.7385 13.175C90.7385 11.005 95.1135 10.34 96.7585 10.34C98.2285 10.34 100.678 10.76 101.798 11.705C102.918 12.79 103.303 14.26 103.303 15.765L103.268 22.065C103.268 23.185 103.303 25.39 103.688 26.16C104.003 26.65 104.458 26.895 104.948 27H97.2135ZM97.3885 17.2C92.9085 17.2 92.1385 19.72 92.1385 22.065C92.1385 24.41 92.7685 26.79 97.2135 26.79C97.9485 26.79 98.9985 26.79 99.4885 26.265C99.4885 26.23 99.5235 26.195 99.5585 26.125C99.9785 25.285 100.048 23.15 100.048 21.82L100.083 17.62C99.4185 17.445 98.5085 17.2 97.3885 17.2ZM107.993 11.88C107.503 11.18 106.838 10.795 105.998 10.62C107.503 10.48 110.058 10.34 111.703 10.34V13C112.893 11.705 115.238 10.235 117.548 10.235C121.993 10.235 124.198 13.28 124.198 16.815V21.4C124.198 22.45 124.268 25.355 124.723 26.16C125.038 26.615 125.458 26.86 125.983 27H119.263C119.788 26.86 120.243 26.615 120.523 26.125C120.978 25.285 121.013 22.17 121.013 21.085L120.978 17.305C120.978 15.17 121.083 10.76 117.338 10.76C115.098 10.76 112.718 12.265 111.703 13.63L111.738 16.92L111.703 21.785C111.703 22.8 111.703 25.355 112.158 26.16C112.438 26.65 112.928 26.895 113.418 27H106.698C107.258 26.895 107.713 26.65 108.028 26.125C108.518 25.145 108.518 22.485 108.518 21.33C108.518 16.71 108.658 13.385 107.993 11.88ZM127.271 18.88C127.271 13.77 130.666 10.34 135.601 10.34C137.386 10.34 139.171 11.075 140.326 12.055C140.326 7.505 140.291 3.06 139.906 2.22C139.381 1.52 138.786 1.135 137.911 0.959999C139.381 0.819999 141.971 0.679999 143.651 0.679999L143.476 21.785C143.476 22.8 143.476 25.355 143.896 26.16C144.176 26.65 144.666 26.895 145.156 27H139.241C138.226 27.28 136.966 27.35 135.741 27.35C130.841 27.35 127.271 23.92 127.271 18.88ZM130.666 18.88C130.666 21.54 131.331 27.07 135.741 27.07C136.896 27.07 138.226 27 139.346 26.615C139.486 26.475 139.626 26.335 139.766 26.125C140.256 25.145 140.256 22.485 140.256 21.33C140.256 19.405 140.326 16.08 140.326 12.72C139.171 11.53 137.386 10.62 135.566 10.62C131.121 10.62 130.666 16.185 130.666 18.88ZM154.298 11.775H157.553C157.553 6.07 158.008 0.924998 164.238 1.03C167.003 1.065 169.103 3.025 168.998 5.405C168.963 6 168.263 6.595 167.493 6.595C167.318 6.595 167.108 6.525 166.933 6.455C165.183 5.615 168.158 1.31 163.853 1.38C160.283 1.45 160.738 7.33 160.738 9.71V11.775H165.463V12.265H160.738V20.35C160.738 21.68 160.703 25.53 161.683 26.405C162.068 26.72 162.523 26.895 162.978 27H155.593C158.008 26.3 157.553 21.19 157.553 19.23V12.265H154.298V11.775ZM174.01 27.35C169.075 27.35 165.75 23.885 165.75 18.845C165.75 13.91 169.005 10.34 173.835 10.34C178.735 10.34 182.13 13.77 182.13 18.88C182.13 23.92 178.91 27.35 174.01 27.35ZM173.87 10.62C169.425 10.62 169.145 16.22 169.145 18.845C169.145 21.54 169.565 27.07 174.01 27.07C178.42 27.07 178.735 21.54 178.735 18.88C178.735 16.185 178.28 10.62 173.87 10.62ZM182.939 10.62C184.864 10.445 186.754 10.34 188.644 10.34C188.644 11.74 188.644 13.14 188.679 14.505C189.309 12.37 191.374 10.48 193.719 10.48C194.559 10.48 196.064 10.76 196.064 11.81C196.064 12.545 195.609 13 195.049 13C193.649 13.035 193.474 11.67 191.829 11.81C189.344 12.02 188.714 17.095 188.644 18.81C188.609 21.26 188.609 25.32 189.099 26.16C189.379 26.615 189.834 26.895 190.359 27H183.639C184.199 26.895 184.689 26.615 184.934 26.125C185.634 25.005 185.459 19.195 185.459 17.585C185.459 16.465 185.494 12.79 184.899 11.88C184.514 11.215 183.709 10.795 182.939 10.62ZM9.54107 62.02C9.54107 57.05 12.7961 53.34 17.9061 53.34C19.4811 53.34 23.5761 53.865 23.5761 55.965C23.5761 56.7 23.0511 56.875 22.4561 56.875C20.6011 56.875 21.0911 53.515 17.9411 53.515C13.6711 53.515 13.2861 58.625 13.2861 61.775C13.2861 64.855 14.1961 69.895 18.1861 69.895C20.2511 69.895 22.3861 68.95 23.4711 67.165H23.8211C22.5961 69.44 20.1811 70.35 17.6961 70.35C13.0411 70.35 9.54107 66.535 9.54107 62.02ZM33.6172 70.35C28.6822 70.35 25.3572 66.885 25.3572 61.845C25.3572 56.91 28.6122 53.34 33.4422 53.34C38.3422 53.34 41.7372 56.77 41.7372 61.88C41.7372 66.92 38.5172 70.35 33.6172 70.35ZM33.4772 53.62C29.0322 53.62 28.7522 59.22 28.7522 61.845C28.7522 64.54 29.1722 70.07 33.6172 70.07C38.0272 70.07 38.3422 64.54 38.3422 61.88C38.3422 59.185 37.8872 53.62 33.4772 53.62ZM43.9258 62.055C43.9258 56.91 47.1108 53.34 52.3958 53.34C57.3308 53.34 60.4108 56.77 60.5158 61.67H47.5308C47.5308 65.73 48.2308 69.895 53.4108 69.895C55.7558 69.895 58.5208 68.32 59.9208 66.01H60.1658C58.9758 68.775 55.6508 70.35 52.8508 70.35C47.7058 70.35 43.9258 67.2 43.9258 62.055ZM52.5708 53.69C48.7558 53.69 47.8458 58.625 47.5658 61.32H57.0858C56.9808 58.695 56.5958 53.69 52.5708 53.69ZM61.2328 70C63.4028 69.825 66.7628 64.855 68.6178 62.825C67.0078 60.34 64.6978 54.74 61.6878 53.725H68.0228C67.6378 53.83 67.3928 54.145 67.3928 54.53C67.3928 55.265 70.1228 59.605 70.6828 60.655C71.4528 59.675 74.6378 56.035 74.8828 54.775C74.9878 54.285 74.4978 53.865 74.0078 53.725H78.0678C77.7528 53.795 77.4378 53.865 77.1578 53.97C76.3178 54.215 71.4878 60.13 70.8228 61.005C71.9778 62.79 74.9528 68.145 76.3528 69.23C76.8078 69.58 77.3678 69.825 77.9278 70H71.1728C71.6628 69.825 71.8378 69.405 71.8378 68.915C71.8378 68.215 69.3178 63.91 68.7578 63.175C67.5328 64.575 65.0128 67.515 64.4178 68.915C64.2428 69.37 64.6278 69.825 65.1178 70H61.2328ZM80.9769 54.88C80.5219 54.18 79.8569 53.795 79.0519 53.62C80.5219 53.48 83.0769 53.34 84.7219 53.34L84.7569 59.92L84.7219 64.785C84.7219 65.8 84.7219 68.355 85.1769 69.16C85.4569 69.65 85.9469 69.895 86.4369 70H79.7169C80.2769 69.895 80.7319 69.65 81.0119 69.125C81.5369 68.145 81.5369 65.485 81.5369 64.33C81.5369 59.71 81.6769 56.385 80.9769 54.88ZM82.8669 50.05C81.7119 50.05 80.8019 49.105 80.8019 47.985C80.8019 46.935 81.7119 46.025 82.8669 46.025C84.0919 46.025 85.0019 46.935 85.0019 47.985C85.0019 49.105 84.0919 50.05 82.8669 50.05ZM89.4256 57.505C89.4256 54.215 93.1356 52.605 96.3556 52.745C97.6506 52.815 99.9956 53.305 101.221 53.83L101.256 54.635C101.256 55.58 101.186 56.49 101.116 57.4L100.906 57.435C100.591 55.23 98.6306 53.165 95.6556 53.165C93.7656 53.165 92.2606 54.705 92.2606 56.77C92.2606 61.145 102.306 59.78 102.306 65.765C102.306 69.335 98.2106 70.98 94.8856 70.875C92.6456 70.805 91.1406 70.14 89.8106 69.3C89.7756 68.775 89.7756 68.25 89.7756 67.725C89.7756 67.165 89.7756 66.64 89.8106 66.08L90.0556 66.045C90.5106 68.425 92.3306 70.525 95.4806 70.385C97.8256 70.28 99.5056 68.95 99.4706 66.675C99.4006 62.195 89.4256 63.77 89.4256 57.505ZM103.38 53.585C107.86 53.445 108.42 50.645 108.63 47.95H110.275V53.41H114.965V53.935H110.275V67.41C110.275 68.88 110.905 69.44 111.71 69.44C112.865 69.44 114.405 68.215 114.685 67.025L114.965 67.27C113.32 70.385 111.57 70.35 110.38 70.35C108.63 70.35 106.985 68.88 106.985 67.235V53.935H103.38V53.585ZM116.694 62.055C116.694 56.91 119.879 53.34 125.164 53.34C130.099 53.34 133.179 56.77 133.284 61.67H120.299C120.299 65.73 120.999 69.895 126.179 69.895C128.524 69.895 131.289 68.32 132.689 66.01H132.934C131.744 68.775 128.419 70.35 125.619 70.35C120.474 70.35 116.694 67.2 116.694 62.055ZM125.339 53.69C121.524 53.69 120.614 58.625 120.334 61.32H129.854C129.749 58.695 129.364 53.69 125.339 53.69ZM136.276 54.88C135.786 54.18 135.121 53.795 134.281 53.62C135.786 53.48 138.341 53.34 139.986 53.34V56C141.176 54.705 143.521 53.235 145.831 53.235C150.276 53.235 152.481 56.28 152.481 59.815V64.4C152.481 65.45 152.551 68.355 153.006 69.16C153.321 69.615 153.741 69.86 154.266 70H147.546C148.071 69.86 148.526 69.615 148.806 69.125C149.261 68.285 149.296 65.17 149.296 64.085L149.261 60.305C149.261 58.17 149.366 53.76 145.621 53.76C143.381 53.76 141.001 55.265 139.986 56.63L140.021 59.92L139.986 64.785C139.986 65.8 139.986 68.355 140.441 69.16C140.721 69.65 141.211 69.895 141.701 70H134.981C135.541 69.895 135.996 69.65 136.311 69.125C136.801 68.145 136.801 65.485 136.801 64.33C136.801 59.71 136.941 56.385 136.276 54.88ZM155.659 62.02C155.659 57.05 158.914 53.34 164.024 53.34C165.599 53.34 169.694 53.865 169.694 55.965C169.694 56.7 169.169 56.875 168.574 56.875C166.719 56.875 167.209 53.515 164.059 53.515C159.789 53.515 159.404 58.625 159.404 61.775C159.404 64.855 160.314 69.895 164.304 69.895C166.369 69.895 168.504 68.95 169.589 67.165H169.939C168.714 69.44 166.299 70.35 163.814 70.35C159.159 70.35 155.659 66.535 155.659 62.02ZM171.587 62.055C171.587 56.91 174.772 53.34 180.057 53.34C184.992 53.34 188.072 56.77 188.177 61.67H175.192C175.192 65.73 175.892 69.895 181.072 69.895C183.417 69.895 186.182 68.32 187.582 66.01H187.827C186.637 68.775 183.312 70.35 180.512 70.35C175.367 70.35 171.587 67.2 171.587 62.055ZM180.232 53.69C176.417 53.69 175.507 58.625 175.227 61.32H184.747C184.642 58.695 184.257 53.69 180.232 53.69Z" fill="black"/>
</svg>
