<svg width="270" height="139" viewBox="0 0 270 139" fill="none" xmlns="http://www.w3.org/2000/svg">
<rect width="270" height="139" rx="20" fill="#A2E292" fill-opacity="0.6"/>
<path d="M68.071 32.7449C68.5376 32.7449 68.771 32.9083 68.771 33.2349V33.3399C68.771 33.5966 68.526 33.9116 68.036 34.2849C67.546 34.6583 67.196 35.1133 66.986 35.6499L59.041 56.4049C58.7143 57.1983 58.1893 57.5949 57.466 57.5949C56.7426 57.5949 56.2293 57.2216 55.926 56.4749L52.461 47.6899L48.716 56.4049C48.366 57.1983 47.771 57.5949 46.931 57.5949C46.161 57.5949 45.601 57.2216 45.251 56.4749L36.431 35.6849C36.1976 35.1483 35.8243 34.6933 35.311 34.3199C34.7976 33.9466 34.541 33.6316 34.541 33.3749V33.2349C34.541 32.9083 34.7743 32.7449 35.241 32.7449H41.296C41.7626 32.7449 41.996 32.9083 41.996 33.2349V33.3749C41.996 33.5849 41.856 33.7833 41.576 33.9699C41.296 34.1566 41.0626 34.3899 40.876 34.6699C40.6893 34.9266 40.6776 35.2649 40.841 35.6849L47.876 52.9399L51.341 44.7849L47.736 35.6499C47.5026 35.0666 47.1643 34.5999 46.721 34.2499C46.2776 33.8766 46.056 33.5733 46.056 33.3399V33.2349C46.056 32.9083 46.2776 32.7449 46.721 32.7449H50.431C50.8743 32.7449 51.1776 32.9666 51.341 33.4099L53.546 39.5349L56.171 33.3749C56.3576 32.9549 56.6726 32.7449 57.116 32.7449H59.216C59.6826 32.7449 59.916 32.9083 59.916 33.2349V33.3399C59.916 33.5266 59.8226 33.6899 59.636 33.8299C59.4726 33.9466 59.2743 34.0516 59.041 34.1449C58.831 34.2149 58.5976 34.3666 58.341 34.5999C58.0843 34.8333 57.886 35.1133 57.746 35.4399L54.666 42.5799L58.201 52.3799L64.571 35.6499C64.6876 35.3466 64.6876 35.0783 64.571 34.8449C64.4543 34.6116 64.291 34.4366 64.081 34.3199C63.8943 34.2033 63.7076 34.0633 63.521 33.8999C63.3576 33.7133 63.276 33.5383 63.276 33.3749V33.2699C63.276 32.9199 63.521 32.7449 64.011 32.7449H68.071ZM81.803 52.4499C81.9897 52.1933 82.223 52.0999 82.503 52.1699C82.8063 52.2399 82.9463 52.4499 82.923 52.7999C82.7363 54.0599 82.048 55.2383 80.858 56.3349C79.668 57.4083 78.0813 57.9449 76.098 57.9449C73.508 57.9449 71.408 57.1283 69.798 55.4949C68.188 53.8616 67.383 51.7149 67.383 49.0549C67.383 46.5349 68.188 44.4816 69.798 42.8949C71.408 41.2849 73.4263 40.4683 75.853 40.4449C77.743 40.4216 79.283 40.8299 80.473 41.6699C81.6863 42.5099 82.293 43.6883 82.293 45.2049C82.293 46.4649 81.768 47.5383 80.718 48.4249C79.6913 49.3116 78.338 49.9416 76.658 50.3149C75.2813 50.6183 73.5897 50.6766 71.583 50.4899C72.0263 51.8899 72.738 52.9983 73.718 53.8149C74.698 54.6083 75.853 55.0049 77.183 55.0049C78.303 55.0049 79.2597 54.7716 80.053 54.3049C80.8463 53.8149 81.4297 53.1966 81.803 52.4499ZM75.258 41.8449C74.0447 41.8449 73.053 42.3699 72.283 43.4199C71.513 44.4466 71.128 45.7299 71.128 47.2699C71.128 47.8533 71.163 48.4133 71.233 48.9499C72.983 49.0899 74.5347 49.0199 75.888 48.7399C76.6813 48.5533 77.2997 48.2033 77.743 47.6899C78.1863 47.1533 78.3963 46.3249 78.373 45.2049C78.3497 44.2716 78.0463 43.4783 77.463 42.8249C76.903 42.1716 76.168 41.8449 75.258 41.8449ZM99.5792 57.9099C97.4092 57.9099 95.6475 57.5016 94.2942 56.6849C92.9408 55.8449 92.2642 54.9116 92.2642 53.8849C92.2642 53.3716 92.4158 52.9749 92.7192 52.6949C93.0458 52.4149 93.4775 52.2749 94.0142 52.2749C94.4808 52.2749 94.8658 52.4266 95.1692 52.7299C95.4958 53.0333 95.7525 53.4066 95.9392 53.8499C96.1258 54.2933 96.3358 54.7366 96.5692 55.1799C96.8258 55.5999 97.1992 55.9616 97.6892 56.2649C98.2025 56.5683 98.8325 56.7199 99.5792 56.7199C100.536 56.7199 101.306 56.4866 101.889 56.0199C102.496 55.5533 102.799 54.8883 102.799 54.0249C102.799 53.1616 102.449 52.4966 101.749 52.0299C101.049 51.5399 100.198 51.1783 99.1942 50.9449C98.2142 50.7116 97.2225 50.4433 96.2192 50.1399C95.2158 49.8366 94.3642 49.2999 93.6642 48.5299C92.9642 47.7366 92.6142 46.6983 92.6142 45.4149C92.6142 43.9916 93.2558 42.8133 94.5392 41.8799C95.8225 40.9233 97.4675 40.4449 99.4742 40.4449C101.551 40.4449 103.231 40.8766 104.514 41.7399C105.821 42.5799 106.474 43.5366 106.474 44.6099C106.474 45.0533 106.323 45.4149 106.019 45.6949C105.716 45.9749 105.331 46.1149 104.864 46.1149C104.421 46.1149 104.048 45.9633 103.744 45.6599C103.464 45.3566 103.219 44.9949 103.009 44.5749C102.823 44.1316 102.613 43.6999 102.379 43.2799C102.169 42.8366 101.831 42.4633 101.364 42.1599C100.921 41.8566 100.361 41.7049 99.6842 41.7049C98.8442 41.7049 98.1442 41.9616 97.5842 42.4749C97.0242 42.9883 96.7442 43.6299 96.7442 44.3999C96.7442 45.2633 97.0942 45.9399 97.7942 46.4299C98.4942 46.9199 99.3342 47.2933 100.314 47.5499C101.318 47.7833 102.321 48.0516 103.324 48.3549C104.328 48.6583 105.179 49.1949 105.879 49.9649C106.579 50.7349 106.929 51.7616 106.929 53.0449C106.929 54.4449 106.253 55.6116 104.899 56.5449C103.569 57.4549 101.796 57.9099 99.5792 57.9099ZM115.495 57.9449C113.978 57.9449 112.776 57.4666 111.89 56.5099C111.026 55.5299 110.595 54.1183 110.595 52.2749V42.5099H108.6C108.203 42.5099 108.005 42.3116 108.005 41.9149V41.4249C108.005 41.0049 108.203 40.7949 108.6 40.7949H109.685C110.571 40.7949 111.283 40.4916 111.82 39.8849C112.38 39.2783 112.73 38.4499 112.87 37.3999C112.94 36.8866 113.173 36.6299 113.57 36.6299H114.095C114.538 36.6299 114.76 36.8866 114.76 37.3999L114.795 40.7949H119.205C119.391 40.7949 119.543 40.8533 119.66 40.9699C119.776 41.0866 119.835 41.2383 119.835 41.4249V41.9149C119.835 42.3116 119.625 42.5099 119.205 42.5099H114.795V52.3099C114.795 53.1266 114.981 53.7683 115.355 54.2349C115.728 54.6783 116.206 54.8999 116.79 54.8999C118.19 54.8999 119.018 54.2933 119.275 53.0799C119.368 52.8933 119.508 52.7766 119.695 52.7299C119.881 52.6833 120.045 52.7066 120.185 52.7999C120.348 52.8933 120.43 53.0449 120.43 53.2549C120.43 54.5149 119.975 55.6116 119.065 56.5449C118.178 57.4783 116.988 57.9449 115.495 57.9449ZM139.825 42.0899C139.825 42.2299 139.709 42.4049 139.475 42.6149C139.242 42.8016 139.009 43.0583 138.775 43.3849C138.542 43.7116 138.425 44.0966 138.425 44.5399V54.6899C138.425 55.2033 138.647 55.6699 139.09 56.0899C139.534 56.5099 139.755 56.8133 139.755 56.9999V57.1049C139.755 57.4316 139.557 57.5949 139.16 57.5949H135.52C135.077 57.5949 134.855 57.3733 134.855 56.9299V55.5299C133.712 57.1399 132.032 57.9449 129.815 57.9449C127.575 57.9449 125.65 57.1399 124.04 55.5299C122.454 53.9199 121.66 51.7966 121.66 49.1599C121.66 46.6166 122.442 44.5283 124.005 42.8949C125.592 41.2616 127.552 40.4449 129.885 40.4449C131.915 40.4449 133.572 41.1799 134.855 42.6499V41.3549C134.855 41.0516 134.972 40.8299 135.205 40.6899C135.439 40.5499 135.754 40.5266 136.15 40.6199L139.195 41.2499C139.615 41.3666 139.825 41.6116 139.825 41.9849V42.0899ZM130.76 56.6149C131.717 56.6149 132.569 56.2183 133.315 55.4249C134.085 54.6316 134.47 53.5233 134.47 52.0999V46.4999C134.47 45.3333 134.027 44.2599 133.14 43.2799C132.254 42.2766 131.215 41.7749 130.025 41.7749C128.719 41.7749 127.669 42.3116 126.875 43.3849C126.082 44.4349 125.674 45.8816 125.65 47.7249C125.604 50.1749 126.047 52.2633 126.98 53.9899C127.937 55.7166 129.197 56.5916 130.76 56.6149ZM159.738 54.6549C159.761 55.1683 159.971 55.6349 160.368 56.0549C160.788 56.4516 160.998 56.7549 160.998 56.9649V57.1049C160.998 57.4549 160.741 57.6299 160.228 57.6299H155.118C154.605 57.6299 154.348 57.4549 154.348 57.1049V56.9649C154.348 56.7549 154.558 56.4516 154.978 56.0549C155.421 55.6349 155.631 55.1683 155.608 54.6549L155.258 47.8999C155.095 44.0499 153.87 42.1249 151.583 42.1249C150.486 42.1249 149.6 42.5333 148.923 43.3499C148.246 44.1433 147.908 45.1816 147.908 46.4649V54.6899C147.908 55.2033 148.141 55.6583 148.608 56.0549C149.098 56.4516 149.343 56.7549 149.343 56.9649V57.1049C149.343 57.4549 149.086 57.6299 148.573 57.6299H143.148C142.658 57.6299 142.413 57.4549 142.413 57.1049V56.9649C142.413 56.7549 142.646 56.4516 143.113 56.0549C143.58 55.6583 143.813 55.2033 143.813 54.6899V45.3099C143.813 44.8666 143.673 44.5049 143.393 44.2249C143.136 43.9449 142.88 43.7233 142.623 43.5599C142.366 43.3733 142.238 43.1749 142.238 42.9649V42.8599C142.238 42.6266 142.448 42.4166 142.868 42.2299L146.263 40.5849C146.636 40.4216 146.905 40.4099 147.068 40.5499C147.255 40.6666 147.348 40.8883 147.348 41.2149V43.4899C147.838 42.5333 148.55 41.7866 149.483 41.2499C150.416 40.7133 151.478 40.4449 152.668 40.4449C154.465 40.4449 155.981 41.0633 157.218 42.2999C158.455 43.5366 159.155 45.4499 159.318 48.0399L159.738 54.6549ZM179.509 54.6899C179.509 55.2033 179.731 55.6699 180.174 56.0899C180.618 56.5099 180.839 56.8133 180.839 56.9999V57.1049C180.839 57.4316 180.641 57.5949 180.244 57.5949H176.604C176.184 57.5949 175.951 57.3733 175.904 56.9299L175.799 55.7049C174.633 57.1983 172.999 57.9449 170.899 57.9449C168.659 57.9449 166.734 57.1399 165.124 55.5299C163.538 53.9199 162.744 51.7966 162.744 49.1599C162.744 46.6166 163.526 44.5283 165.089 42.8949C166.676 41.2616 168.636 40.4449 170.969 40.4449C172.789 40.4449 174.318 41.0399 175.554 42.2299V35.6499C175.554 35.2066 175.414 34.8449 175.134 34.5649C174.878 34.2849 174.609 34.0633 174.329 33.8999C174.073 33.7133 173.944 33.5149 173.944 33.3049V33.2349C173.944 32.9316 174.154 32.6983 174.574 32.5349L178.284 31.3449C179.101 31.0649 179.509 31.2749 179.509 31.9749V54.6899ZM171.844 56.6149C172.801 56.6149 173.653 56.2183 174.399 55.4249C175.169 54.6316 175.554 53.5233 175.554 52.0999V46.4999C175.554 45.3333 175.111 44.2599 174.224 43.2799C173.338 42.2766 172.299 41.7749 171.109 41.7749C169.803 41.7749 168.753 42.3116 167.959 43.3849C167.166 44.4349 166.758 45.8816 166.734 47.7249C166.688 50.1749 167.131 52.2633 168.064 53.9899C169.021 55.7166 170.281 56.5916 171.844 56.6149ZM199.041 31.8699C200.371 31.8699 201.526 32.2433 202.506 32.9899C203.486 33.7366 203.976 34.6233 203.976 35.6499C203.976 36.0233 203.824 36.3733 203.521 36.6999C203.241 37.0033 202.856 37.1549 202.366 37.1549C201.596 37.1549 201.036 36.9566 200.686 36.5599C200.336 36.1399 200.149 35.6849 200.126 35.1949C200.102 34.6816 199.951 34.2149 199.671 33.7949C199.391 33.3749 198.924 33.1649 198.271 33.1649C197.151 33.1416 196.486 33.9233 196.276 35.5099C196.066 37.0966 196.229 38.8583 196.766 40.7949H201.386C201.549 40.7949 201.689 40.8533 201.806 40.9699C201.922 41.0866 201.981 41.2266 201.981 41.3899V41.9499C201.981 42.3233 201.782 42.5099 201.386 42.5099H196.906V54.6549C196.906 55.1683 197.186 55.6349 197.746 56.0549C198.306 56.4516 198.586 56.7549 198.586 56.9649V57.1049C198.586 57.4316 198.387 57.5949 197.991 57.5949H192.076C191.656 57.5949 191.446 57.4316 191.446 57.1049V56.9649C191.446 56.7549 191.667 56.4516 192.111 56.0549C192.577 55.6349 192.811 55.1683 192.811 54.6549V42.5099H190.116C189.696 42.5099 189.486 42.3233 189.486 41.9499V41.3899C189.486 41.2266 189.544 41.0866 189.661 40.9699C189.801 40.8533 189.952 40.7949 190.116 40.7949H192.811V38.1699C192.811 36.3033 193.347 34.7866 194.421 33.6199C195.494 32.4533 197.034 31.8699 199.041 31.8699ZM211.535 57.9449C208.665 57.9449 206.367 57.0699 204.64 55.3199C202.913 53.5699 202.05 51.4699 202.05 49.0199C202.05 46.5699 202.89 44.5283 204.57 42.8949C206.25 41.2616 208.303 40.4449 210.73 40.4449C213.437 40.4449 215.653 41.3083 217.38 43.0349C219.107 44.7383 219.97 46.8266 219.97 49.2999C219.97 51.7499 219.188 53.8033 217.625 55.4599C216.062 57.1166 214.032 57.9449 211.535 57.9449ZM212.06 56.6149C213.18 56.6149 214.09 56.1016 214.79 55.0749C215.49 54.0249 215.84 52.5783 215.84 50.7349C215.84 48.2616 215.303 46.1499 214.23 44.3999C213.18 42.6499 211.862 41.7749 210.275 41.7749C209.015 41.7749 208.012 42.2883 207.265 43.3149C206.542 44.3183 206.18 45.7649 206.18 47.6549C206.18 49.9416 206.728 52.0066 207.825 53.8499C208.945 55.6933 210.357 56.6149 212.06 56.6149ZM231.949 40.4449C232.953 40.4449 233.734 40.7249 234.294 41.2849C234.878 41.8449 235.169 42.5449 235.169 43.3849C235.169 44.8549 234.563 45.5899 233.349 45.5899C232.836 45.5899 232.439 45.4499 232.159 45.1699C231.879 44.8899 231.704 44.5749 231.634 44.2249C231.564 43.8749 231.401 43.5599 231.144 43.2799C230.888 42.9999 230.538 42.8599 230.094 42.8599C229.324 42.8599 228.729 43.2799 228.309 44.1199C227.889 44.9599 227.679 45.9866 227.679 47.1999V54.6899C227.679 55.2033 227.948 55.6583 228.484 56.0549C229.021 56.4516 229.289 56.7549 229.289 56.9649V57.1049C229.289 57.4316 229.044 57.5949 228.554 57.5949H223.129C222.639 57.5949 222.394 57.4316 222.394 57.1049V56.9649C222.394 56.7549 222.616 56.4516 223.059 56.0549C223.503 55.6583 223.724 55.2033 223.724 54.6899V45.2749C223.724 44.7383 223.468 44.2833 222.954 43.9099C222.464 43.5133 222.219 43.2099 222.219 42.9999V42.8949C222.219 42.6383 222.429 42.3933 222.849 42.1599L226.279 40.5849C226.956 40.2583 227.294 40.4566 227.294 41.1799V43.9099C228.088 41.5999 229.639 40.4449 231.949 40.4449ZM52.4798 105.945C49.9598 105.945 47.8248 105.093 46.0748 103.39C44.3482 101.663 43.4848 99.5749 43.4848 97.1249C43.4848 94.5349 44.3365 92.4466 46.0398 90.8599C47.7432 89.2733 49.8315 88.4683 52.3048 88.4449C54.2182 88.4216 55.8632 88.8883 57.2398 89.8449C58.6398 90.7783 59.3398 91.8516 59.3398 93.0649C59.3398 93.5083 59.1882 93.8816 58.8848 94.1849C58.6048 94.4649 58.1615 94.5933 57.5548 94.5699C56.9948 94.5466 56.4932 94.2783 56.0498 93.7649C55.6065 93.2516 55.2448 92.7033 54.9648 92.1199C54.6848 91.5366 54.2532 90.9999 53.6698 90.5099C53.1098 90.0199 52.4332 89.7749 51.6398 89.7749C50.4498 89.7749 49.4815 90.2883 48.7348 91.3149C47.9882 92.3416 47.6148 93.6249 47.6148 95.1649C47.6148 97.5449 48.1865 99.4583 49.3298 100.905C50.4732 102.328 51.9782 103.04 53.8448 103.04C55.8748 103.04 57.3798 102.083 58.3598 100.17C58.5465 99.8899 58.7915 99.7849 59.0948 99.8549C59.3982 99.9249 59.5265 100.135 59.4798 100.485C59.2932 101.978 58.5815 103.262 57.3448 104.335C56.1315 105.408 54.5098 105.945 52.4798 105.945ZM70.8516 105.945C67.9816 105.945 65.6832 105.07 63.9566 103.32C62.2299 101.57 61.3666 99.4699 61.3666 97.0199C61.3666 94.5699 62.2066 92.5283 63.8866 90.8949C65.5666 89.2616 67.6199 88.4449 70.0466 88.4449C72.7532 88.4449 74.9699 89.3083 76.6966 91.0349C78.4232 92.7383 79.2866 94.8266 79.2866 97.2999C79.2866 99.7499 78.5049 101.803 76.9416 103.46C75.3782 105.117 73.3482 105.945 70.8516 105.945ZM71.3766 104.615C72.4966 104.615 73.4066 104.102 74.1066 103.075C74.8066 102.025 75.1566 100.578 75.1566 98.7349C75.1566 96.2616 74.6199 94.1499 73.5466 92.3999C72.4966 90.6499 71.1782 89.7749 69.5916 89.7749C68.3316 89.7749 67.3282 90.2883 66.5816 91.3149C65.8582 92.3183 65.4966 93.7649 65.4966 95.6549C65.4966 97.9416 66.0449 100.007 67.1416 101.85C68.2616 103.693 69.6732 104.615 71.3766 104.615ZM95.8509 100.45C96.0375 100.193 96.2709 100.1 96.5509 100.17C96.8542 100.24 96.9942 100.45 96.9709 100.8C96.7842 102.06 96.0959 103.238 94.9059 104.335C93.7159 105.408 92.1292 105.945 90.1459 105.945C87.5559 105.945 85.4559 105.128 83.8459 103.495C82.2359 101.862 81.4309 99.7149 81.4309 97.0549C81.4309 94.5349 82.2359 92.4816 83.8459 90.8949C85.4559 89.2849 87.4742 88.4683 89.9009 88.4449C91.7909 88.4216 93.3309 88.8299 94.5209 89.6699C95.7342 90.5099 96.3409 91.6883 96.3409 93.2049C96.3409 94.4649 95.8159 95.5383 94.7659 96.4249C93.7392 97.3116 92.3859 97.9416 90.7059 98.3149C89.3292 98.6183 87.6375 98.6766 85.6309 98.4899C86.0742 99.8899 86.7859 100.998 87.7659 101.815C88.7459 102.608 89.9009 103.005 91.2309 103.005C92.3509 103.005 93.3075 102.772 94.1009 102.305C94.8942 101.815 95.4775 101.197 95.8509 100.45ZM89.3059 89.8449C88.0925 89.8449 87.1009 90.3699 86.3309 91.4199C85.5609 92.4466 85.1759 93.7299 85.1759 95.2699C85.1759 95.8533 85.2109 96.4133 85.2809 96.9499C87.0309 97.0899 88.5825 97.0199 89.9359 96.7399C90.7292 96.5533 91.3475 96.2033 91.7909 95.6899C92.2342 95.1533 92.4442 94.3249 92.4209 93.2049C92.3975 92.2716 92.0942 91.4783 91.5109 90.8249C90.9509 90.1716 90.2159 89.8449 89.3059 89.8449ZM113.292 102.585C113.525 102.888 113.828 103.203 114.202 103.53C114.598 103.833 114.902 104.102 115.112 104.335C115.322 104.545 115.427 104.755 115.427 104.965V105.105C115.427 105.432 115.217 105.595 114.797 105.595H108.742C108.345 105.595 108.147 105.42 108.147 105.07V104.965C108.147 104.802 108.287 104.603 108.567 104.37C108.847 104.137 109.022 103.927 109.092 103.74C109.185 103.53 109.045 103.122 108.672 102.515L105.697 98.8049L102.407 102.655C102.033 103.215 101.882 103.6 101.952 103.81C102.022 103.997 102.197 104.207 102.477 104.44C102.757 104.65 102.897 104.825 102.897 104.965V105.07C102.897 105.42 102.687 105.595 102.267 105.595H97.9615C97.5415 105.595 97.3315 105.432 97.3315 105.105V104.965C97.3315 104.755 97.4482 104.568 97.6815 104.405C97.9148 104.218 98.2648 103.962 98.7315 103.635C99.1982 103.308 99.6065 102.935 99.9565 102.515L104.542 97.2999L100.202 91.8749C99.8515 91.4083 99.4665 91.0233 99.0465 90.7199C98.6498 90.3933 98.3582 90.1599 98.1715 90.0199C98.0082 89.8566 97.9265 89.6583 97.9265 89.4249V89.2849C97.9265 88.9583 98.1248 88.7949 98.5215 88.7949H104.507C104.927 88.7949 105.137 88.9699 105.137 89.3199V89.4249C105.137 89.6116 105.032 89.8566 104.822 90.1599C104.612 90.4399 104.483 90.6849 104.437 90.8949C104.39 91.0816 104.507 91.4199 104.787 91.9099L107.692 95.5499L110.982 91.9099C111.308 91.4199 111.425 91.0699 111.332 90.8599C111.262 90.6499 111.087 90.4049 110.807 90.1249C110.55 89.8216 110.422 89.5883 110.422 89.4249V89.3199C110.422 88.9699 110.62 88.7949 111.017 88.7949H114.622C115.018 88.7949 115.217 88.9583 115.217 89.2849V89.4249C115.217 89.6349 115.135 89.8449 114.972 90.0549C114.832 90.2416 114.563 90.5099 114.167 90.8599C113.793 91.1866 113.467 91.5249 113.187 91.8749L108.812 96.9499L113.292 102.585ZM120.275 85.8899C119.412 85.8899 118.712 85.6449 118.175 85.1549C117.638 84.6649 117.37 84.0349 117.37 83.2649C117.37 82.4949 117.638 81.8649 118.175 81.3749C118.712 80.8849 119.412 80.6399 120.275 80.6399C121.115 80.6399 121.792 80.8849 122.305 81.3749C122.842 81.8649 123.11 82.4949 123.11 83.2649C123.11 84.0349 122.842 84.6649 122.305 85.1549C121.792 85.6449 121.115 85.8899 120.275 85.8899ZM117.685 105.595C117.195 105.595 116.95 105.42 116.95 105.07V104.93C116.95 104.72 117.16 104.417 117.58 104.02C118.023 103.623 118.245 103.168 118.245 102.655V93.4849C118.245 92.9483 118.023 92.4466 117.58 91.9799C117.16 91.5133 116.95 91.2099 116.95 91.0699V90.9649C116.95 90.7783 117.16 90.5683 117.58 90.3349L121.08 88.5849C121.477 88.4216 121.78 88.4099 121.99 88.5499C122.223 88.6666 122.34 88.8766 122.34 89.1799V102.655C122.34 103.168 122.573 103.623 123.04 104.02C123.53 104.417 123.775 104.72 123.775 104.93V105.07C123.775 105.42 123.518 105.595 123.005 105.595H117.685ZM133.178 105.91C131.008 105.91 129.246 105.502 127.893 104.685C126.539 103.845 125.863 102.912 125.863 101.885C125.863 101.372 126.014 100.975 126.318 100.695C126.644 100.415 127.076 100.275 127.613 100.275C128.079 100.275 128.464 100.427 128.768 100.73C129.094 101.033 129.351 101.407 129.538 101.85C129.724 102.293 129.934 102.737 130.168 103.18C130.424 103.6 130.798 103.962 131.288 104.265C131.801 104.568 132.431 104.72 133.178 104.72C134.134 104.72 134.904 104.487 135.488 104.02C136.094 103.553 136.398 102.888 136.398 102.025C136.398 101.162 136.048 100.497 135.348 100.03C134.648 99.5399 133.796 99.1783 132.793 98.9449C131.813 98.7116 130.821 98.4433 129.818 98.1399C128.814 97.8366 127.963 97.2999 127.263 96.5299C126.563 95.7366 126.213 94.6983 126.213 93.4149C126.213 91.9916 126.854 90.8133 128.138 89.8799C129.421 88.9233 131.066 88.4449 133.073 88.4449C135.149 88.4449 136.829 88.8766 138.113 89.7399C139.419 90.5799 140.073 91.5366 140.073 92.6099C140.073 93.0533 139.921 93.4149 139.618 93.6949C139.314 93.9749 138.929 94.1149 138.463 94.1149C138.019 94.1149 137.646 93.9633 137.343 93.6599C137.063 93.3566 136.818 92.9949 136.608 92.5749C136.421 92.1316 136.211 91.6999 135.978 91.2799C135.768 90.8366 135.429 90.4633 134.963 90.1599C134.519 89.8566 133.959 89.7049 133.283 89.7049C132.443 89.7049 131.743 89.9616 131.183 90.4749C130.623 90.9883 130.343 91.6299 130.343 92.3999C130.343 93.2633 130.693 93.9399 131.393 94.4299C132.093 94.9199 132.933 95.2933 133.913 95.5499C134.916 95.7833 135.919 96.0516 136.923 96.3549C137.926 96.6583 138.778 97.1949 139.478 97.9649C140.178 98.7349 140.528 99.7616 140.528 101.045C140.528 102.445 139.851 103.612 138.498 104.545C137.168 105.455 135.394 105.91 133.178 105.91ZM149.093 105.945C147.577 105.945 146.375 105.467 145.488 104.51C144.625 103.53 144.193 102.118 144.193 100.275V90.5099H142.198C141.802 90.5099 141.603 90.3116 141.603 89.9149V89.4249C141.603 89.0049 141.802 88.7949 142.198 88.7949H143.283C144.17 88.7949 144.882 88.4916 145.418 87.8849C145.978 87.2783 146.328 86.4499 146.468 85.3999C146.538 84.8866 146.772 84.6299 147.168 84.6299H147.693C148.137 84.6299 148.358 84.8866 148.358 85.3999L148.393 88.7949H152.803C152.99 88.7949 153.142 88.8533 153.258 88.9699C153.375 89.0866 153.433 89.2383 153.433 89.4249V89.9149C153.433 90.3116 153.223 90.5099 152.803 90.5099H148.393V100.31C148.393 101.127 148.58 101.768 148.953 102.235C149.327 102.678 149.805 102.9 150.388 102.9C151.788 102.9 152.617 102.293 152.873 101.08C152.967 100.893 153.107 100.777 153.293 100.73C153.48 100.683 153.643 100.707 153.783 100.8C153.947 100.893 154.028 101.045 154.028 101.255C154.028 102.515 153.573 103.612 152.663 104.545C151.777 105.478 150.587 105.945 149.093 105.945ZM169.679 100.45C169.866 100.193 170.099 100.1 170.379 100.17C170.682 100.24 170.822 100.45 170.799 100.8C170.612 102.06 169.924 103.238 168.734 104.335C167.544 105.408 165.957 105.945 163.974 105.945C161.384 105.945 159.284 105.128 157.674 103.495C156.064 101.862 155.259 99.7149 155.259 97.0549C155.259 94.5349 156.064 92.4816 157.674 90.8949C159.284 89.2849 161.302 88.4683 163.729 88.4449C165.619 88.4216 167.159 88.8299 168.349 89.6699C169.562 90.5099 170.169 91.6883 170.169 93.2049C170.169 94.4649 169.644 95.5383 168.594 96.4249C167.567 97.3116 166.214 97.9416 164.534 98.3149C163.157 98.6183 161.466 98.6766 159.459 98.4899C159.902 99.8899 160.614 100.998 161.594 101.815C162.574 102.608 163.729 103.005 165.059 103.005C166.179 103.005 167.136 102.772 167.929 102.305C168.722 101.815 169.306 101.197 169.679 100.45ZM163.134 89.8449C161.921 89.8449 160.929 90.3699 160.159 91.4199C159.389 92.4466 159.004 93.7299 159.004 95.2699C159.004 95.8533 159.039 96.4133 159.109 96.9499C160.859 97.0899 162.411 97.0199 163.764 96.7399C164.557 96.5533 165.176 96.2033 165.619 95.6899C166.062 95.1533 166.272 94.3249 166.249 93.2049C166.226 92.2716 165.922 91.4783 165.339 90.8249C164.779 90.1716 164.044 89.8449 163.134 89.8449ZM190.261 102.655C190.284 103.168 190.494 103.635 190.891 104.055C191.311 104.452 191.521 104.755 191.521 104.965V105.105C191.521 105.455 191.264 105.63 190.751 105.63H185.641C185.127 105.63 184.871 105.455 184.871 105.105V104.965C184.871 104.755 185.081 104.452 185.501 104.055C185.944 103.635 186.154 103.168 186.131 102.655L185.781 95.8999C185.617 92.0499 184.392 90.1249 182.106 90.1249C181.009 90.1249 180.122 90.5333 179.446 91.3499C178.769 92.1433 178.431 93.1816 178.431 94.4649V102.69C178.431 103.203 178.664 103.658 179.131 104.055C179.621 104.452 179.866 104.755 179.866 104.965V105.105C179.866 105.455 179.609 105.63 179.096 105.63H173.671C173.181 105.63 172.936 105.455 172.936 105.105V104.965C172.936 104.755 173.169 104.452 173.636 104.055C174.102 103.658 174.336 103.203 174.336 102.69V93.3099C174.336 92.8666 174.196 92.5049 173.916 92.2249C173.659 91.9449 173.402 91.7233 173.146 91.5599C172.889 91.3733 172.761 91.1749 172.761 90.9649V90.8599C172.761 90.6266 172.971 90.4166 173.391 90.2299L176.786 88.5849C177.159 88.4216 177.427 88.4099 177.591 88.5499C177.777 88.6666 177.871 88.8883 177.871 89.2149V91.4899C178.361 90.5333 179.072 89.7866 180.006 89.2499C180.939 88.7133 182.001 88.4449 183.191 88.4449C184.987 88.4449 186.504 89.0633 187.741 90.2999C188.977 91.5366 189.677 93.4499 189.841 96.0399L190.261 102.655ZM201.982 105.945C199.462 105.945 197.327 105.093 195.577 103.39C193.85 101.663 192.987 99.5749 192.987 97.1249C192.987 94.5349 193.838 92.4466 195.542 90.8599C197.245 89.2733 199.333 88.4683 201.807 88.4449C203.72 88.4216 205.365 88.8883 206.742 89.8449C208.142 90.7783 208.842 91.8516 208.842 93.0649C208.842 93.5083 208.69 93.8816 208.387 94.1849C208.107 94.4649 207.663 94.5933 207.057 94.5699C206.497 94.5466 205.995 94.2783 205.552 93.7649C205.108 93.2516 204.747 92.7033 204.467 92.1199C204.187 91.5366 203.755 90.9999 203.172 90.5099C202.612 90.0199 201.935 89.7749 201.142 89.7749C199.952 89.7749 198.983 90.2883 198.237 91.3149C197.49 92.3416 197.117 93.6249 197.117 95.1649C197.117 97.5449 197.688 99.4583 198.832 100.905C199.975 102.328 201.48 103.04 203.347 103.04C205.377 103.04 206.882 102.083 207.862 100.17C208.048 99.8899 208.293 99.7849 208.597 99.8549C208.9 99.9249 209.028 100.135 208.982 100.485C208.795 101.978 208.083 103.262 206.847 104.335C205.633 105.408 204.012 105.945 201.982 105.945ZM225.324 100.45C225.51 100.193 225.744 100.1 226.024 100.17C226.327 100.24 226.467 100.45 226.444 100.8C226.257 102.06 225.569 103.238 224.379 104.335C223.189 105.408 221.602 105.945 219.619 105.945C217.029 105.945 214.929 105.128 213.319 103.495C211.709 101.862 210.904 99.7149 210.904 97.0549C210.904 94.5349 211.709 92.4816 213.319 90.8949C214.929 89.2849 216.947 88.4683 219.374 88.4449C221.264 88.4216 222.804 88.8299 223.994 89.6699C225.207 90.5099 225.814 91.6883 225.814 93.2049C225.814 94.4649 225.289 95.5383 224.239 96.4249C223.212 97.3116 221.859 97.9416 220.179 98.3149C218.802 98.6183 217.11 98.6766 215.104 98.4899C215.547 99.8899 216.259 100.998 217.239 101.815C218.219 102.608 219.374 103.005 220.704 103.005C221.824 103.005 222.78 102.772 223.574 102.305C224.367 101.815 224.95 101.197 225.324 100.45ZM218.779 89.8449C217.565 89.8449 216.574 90.3699 215.804 91.4199C215.034 92.4466 214.649 93.7299 214.649 95.2699C214.649 95.8533 214.684 96.4133 214.754 96.9499C216.504 97.0899 218.055 97.0199 219.409 96.7399C220.202 96.5533 220.82 96.2033 221.264 95.6899C221.707 95.1533 221.917 94.3249 221.894 93.2049C221.87 92.2716 221.567 91.4783 220.984 90.8249C220.424 90.1716 219.689 89.8449 218.779 89.8449Z" fill="black"/>
</svg>
