<svg width="189" height="74" viewBox="0 0 189 74" fill="none" xmlns="http://www.w3.org/2000/svg">
<path d="M26.7494 1.632L31.2294 1.728L40.9894 18.272L50.6854 1.728H56.2214C55.8374 1.824 55.4534 1.984 55.1654 2.24C54.3014 2.944 54.2694 7.552 54.2694 8.8V18.24C54.2694 19.456 54.3334 22.688 55.1654 23.456C55.4854 23.744 55.9334 23.904 56.3494 24H48.9574C49.3734 23.904 49.7574 23.776 50.1094 23.488C50.9094 22.88 50.9734 19.104 50.9734 17.952V2.304L39.7414 21.44L29.8214 5.6V17.632C29.8214 19.552 29.6934 23.52 32.0934 24H27.1334C27.1334 24 27.2294 24 27.3574 23.968C27.3894 23.968 27.3894 23.968 27.4214 23.936C29.2454 23.424 29.2774 19.84 29.2774 18.272V7.392C29.2774 5.856 28.5734 2.176 26.7494 1.632ZM58.0724 16.736C58.0724 12.032 60.9844 8.768 65.8164 8.768C70.3284 8.768 73.1444 11.904 73.2404 16.384H61.3684C61.3684 20.096 62.0084 23.904 66.7444 23.904C68.8884 23.904 71.4164 22.464 72.6964 20.352H72.9204C71.8324 22.88 68.7924 24.32 66.2324 24.32C61.5284 24.32 58.0724 21.44 58.0724 16.736ZM65.9764 9.088C62.4884 9.088 61.6564 13.6 61.4004 16.064H70.1044C70.0084 13.664 69.6564 9.088 65.9764 9.088ZM74.7599 16.736C74.7599 12.032 77.6719 8.768 82.5039 8.768C87.0159 8.768 89.8319 11.904 89.9279 16.384H78.0559C78.0559 20.096 78.6959 23.904 83.4319 23.904C85.5759 23.904 88.1039 22.464 89.3839 20.352H89.6079C88.5199 22.88 85.4799 24.32 82.9199 24.32C78.2159 24.32 74.7599 21.44 74.7599 16.736ZM82.6639 9.088C79.1759 9.088 78.3439 13.6 78.0879 16.064H86.7919C86.6959 13.664 86.3439 9.088 82.6639 9.088ZM90.7114 8.992C94.8074 8.864 95.3194 6.304 95.5114 3.84H97.0154V8.832H101.303V9.312H97.0154V21.632C97.0154 22.976 97.5914 23.488 98.3274 23.488C99.3834 23.488 100.791 22.368 101.047 21.28L101.303 21.504C99.7994 24.352 98.1994 24.32 97.1114 24.32C95.5114 24.32 94.0074 22.976 94.0074 21.472V9.312H90.7114V8.992ZM109.909 1.728H128.629V5.184H128.405C128.053 2.112 123.285 2.048 120.917 2.048V16.896C120.917 17.44 120.917 18.688 120.981 19.904C121.045 21.088 121.205 22.368 121.493 22.88C121.813 23.488 122.389 23.84 123.029 24H115.605C115.861 23.936 116.117 23.84 116.373 23.68C116.597 23.52 116.853 23.264 117.077 22.88C117.717 21.92 117.653 18.624 117.653 17.344V2.048C115.029 2.048 110.933 2.08 110.101 5.088H109.909V1.728ZM128.899 0.799999C130.275 0.671999 132.611 0.543999 134.115 0.543999L134.147 11.2C135.235 9.984 137.411 8.672 139.459 8.672C143.523 8.672 145.539 11.136 145.539 14.368V18.88C145.539 19.84 145.603 22.496 146.019 23.232C146.307 23.648 146.691 23.872 147.171 24H141.027C141.507 23.872 141.891 23.648 142.179 23.2C142.595 22.432 142.627 19.584 142.627 18.592L142.595 14.816C142.595 12.864 142.691 9.152 139.267 9.152C137.187 9.152 135.043 10.528 134.147 11.808V14.784L134.115 19.232C134.115 20.16 134.115 22.496 134.531 23.232C134.787 23.68 135.235 23.904 135.683 24H129.539C130.019 23.904 130.467 23.68 130.755 23.2C131.203 22.304 131.203 19.872 131.203 18.816C131.203 14.592 131.331 3.328 130.723 1.952C130.275 1.312 129.667 0.959999 128.899 0.799999ZM148.291 16.736C148.291 12.032 151.203 8.768 156.035 8.768C160.547 8.768 163.363 11.904 163.459 16.384H151.587C151.587 20.096 152.227 23.904 156.963 23.904C159.107 23.904 161.635 22.464 162.915 20.352H163.139C162.051 22.88 159.011 24.32 156.451 24.32C151.747 24.32 148.291 21.44 148.291 16.736ZM156.195 9.088C152.707 9.088 151.875 13.6 151.619 16.064H160.323C160.227 13.664 159.875 9.088 156.195 9.088ZM0.749375 64C1.10138 63.936 1.45338 63.776 1.83738 63.456H1.80538C2.41338 62.944 2.54138 57.92 2.54138 56.896V47.776C2.54138 46.496 2.50938 42.816 1.80538 42.24C1.48538 41.952 1.16537 41.792 0.845375 41.728H6.28538C8.94138 41.728 12.6534 41.856 15.0214 42.688C20.1414 44.352 22.5734 48.192 22.5734 52.832C22.5734 60.512 16.4614 64 8.55737 64H0.749375ZM5.67738 59.648C5.67738 60.608 5.42138 63.104 7.18138 63.584C14.5734 64 18.8294 61.184 18.8294 52.864C18.8294 45.312 14.2214 42.048 7.75738 42.048C7.08538 42.048 6.34938 42.08 5.67738 42.176V59.648ZM31.8394 64C26.9754 64.032 24.3834 62.656 24.3834 59.488C24.3834 56.288 27.5834 54.656 32.0634 54.784C32.9274 54.816 33.8234 55.04 34.4954 55.232V54.048C34.4954 51.776 34.2074 48.992 31.1034 48.992C29.4714 48.992 28.8634 49.92 28.4474 50.816C28.3834 50.912 28.3514 51.008 28.2874 51.104C28.2554 51.232 28.1914 51.328 28.0954 51.424C27.9994 51.584 27.9354 51.744 27.8074 51.904C27.6474 52.16 27.3914 52.32 26.9114 52.32C26.2394 52.32 25.9194 52 25.9194 51.36C25.9194 49.376 29.9194 48.768 31.4234 48.768C32.7674 48.768 35.0074 49.152 36.0314 50.016C37.0554 51.008 37.4074 52.352 37.4074 53.728L37.3754 59.488C37.3754 60.512 37.4074 62.528 37.7594 63.232C38.0474 63.68 38.4634 63.904 38.9114 64H31.8394ZM31.9994 55.04C27.9034 55.04 27.1994 57.344 27.1994 59.488C27.1994 61.632 27.7754 63.808 31.8394 63.808C32.5114 63.808 33.4714 63.808 33.9194 63.328C33.9194 63.296 33.9514 63.264 33.9834 63.2C34.3674 62.432 34.4314 60.48 34.4314 59.264L34.4634 55.424C33.8554 55.264 33.0234 55.04 31.9994 55.04ZM41.6946 50.176C41.2466 49.536 40.6386 49.184 39.8706 49.024C41.2466 48.896 43.5826 48.768 45.0866 48.768V51.2C46.1746 50.016 48.3186 48.672 50.4306 48.672C54.4946 48.672 56.5106 51.456 56.5106 54.688V58.88C56.5106 59.84 56.5746 62.496 56.9906 63.232C57.2786 63.648 57.6626 63.872 58.1426 64H51.9986C52.4786 63.872 52.8946 63.648 53.1506 63.2C53.5666 62.432 53.5986 59.584 53.5986 58.592L53.5666 55.136C53.5666 53.184 53.6626 49.152 50.2386 49.152C48.1906 49.152 46.0146 50.528 45.0866 51.776L45.1186 54.784L45.0866 59.232C45.0866 60.16 45.0866 62.496 45.5026 63.232C45.7586 63.68 46.2066 63.904 46.6546 64H40.5106C41.0226 63.904 41.4386 63.68 41.7266 63.2C42.1746 62.304 42.1746 59.872 42.1746 58.816C42.1746 54.592 42.3026 51.552 41.6946 50.176ZM59.4161 56.704C59.4161 52.16 62.3921 48.768 67.0641 48.768C68.5041 48.768 72.2481 49.248 72.2481 51.168C72.2481 51.84 71.7681 52 71.2241 52C69.5281 52 69.9761 48.928 67.0961 48.928C63.1921 48.928 62.8401 53.6 62.8401 56.48C62.8401 59.296 63.6721 63.904 67.3201 63.904C69.2081 63.904 71.1601 63.04 72.1521 61.408H72.4721C71.3521 63.488 69.1441 64.32 66.8721 64.32C62.6161 64.32 59.4161 60.832 59.4161 56.704ZM75.8539 50.176C75.4379 49.536 74.8299 49.184 74.0939 49.024C75.4379 48.896 77.7739 48.768 79.2779 48.768L79.3099 54.784L79.2779 59.232C79.2779 60.16 79.2779 62.496 79.6939 63.232C79.9499 63.68 80.3979 63.904 80.8459 64H74.7019C75.2139 63.904 75.6299 63.68 75.8859 63.2C76.3659 62.304 76.3659 59.872 76.3659 58.816C76.3659 54.592 76.4939 51.552 75.8539 50.176ZM77.5819 45.76C76.5259 45.76 75.6939 44.896 75.6939 43.872C75.6939 42.912 76.5259 42.08 77.5819 42.08C78.7019 42.08 79.5339 42.912 79.5339 43.872C79.5339 44.896 78.7019 45.76 77.5819 45.76ZM84.5384 50.176C84.0904 49.536 83.4824 49.184 82.7144 49.024C84.0904 48.896 86.4264 48.768 87.9304 48.768V51.2C89.0184 50.016 91.1624 48.672 93.2744 48.672C97.3384 48.672 99.3544 51.456 99.3544 54.688V58.88C99.3544 59.84 99.4184 62.496 99.8344 63.232C100.122 63.648 100.506 63.872 100.986 64H94.8424C95.3224 63.872 95.7384 63.648 95.9944 63.2C96.4104 62.432 96.4424 59.584 96.4424 58.592L96.4104 55.136C96.4104 53.184 96.5064 49.152 93.0824 49.152C91.0344 49.152 88.8584 50.528 87.9304 51.776L87.9624 54.784L87.9304 59.232C87.9304 60.16 87.9304 62.496 88.3464 63.232C88.6024 63.68 89.0504 63.904 89.4984 64H83.3544C83.8664 63.904 84.2824 63.68 84.5704 63.2C85.0184 62.304 85.0184 59.872 85.0184 58.816C85.0184 54.592 85.1464 51.552 84.5384 50.176ZM101.876 54.144C101.876 50.272 105.108 48.768 108.948 48.768C109.556 48.768 110.132 48.8 110.676 48.864C111.22 48.256 113.012 46.272 115.764 46.656C116.308 46.752 116.756 47.2 116.66 47.744C116.5 48.32 116.02 48.896 115.38 48.8C114.9 48.736 114.644 47.808 113.204 47.84C112.244 47.84 111.7 48.32 111.06 48.928C113.94 49.408 116.084 51.008 116.084 54.144C116.084 58.016 112.852 59.52 108.948 59.52C108.5 59.52 108.116 59.488 107.7 59.456C106.676 59.616 105.492 60.064 105.492 61.28C105.492 64.032 117.108 60.256 116.916 67.328C116.82 70.464 114.132 73.248 109.204 73.248C106.292 73.248 101.94 72.32 101.94 68.736C101.94 66.944 103.956 65.728 105.62 65.728C105.972 65.728 106.324 65.792 106.644 65.92C105.876 66.112 104.66 67.424 104.66 68.736C104.66 71.136 105.972 72.864 109.268 72.928C112.532 72.992 114.26 71.008 114.26 68.256C114.228 62.528 103.476 66.72 103.54 62.24C103.54 60.48 105.396 59.872 106.74 59.328C103.924 58.816 101.876 57.248 101.876 54.144ZM104.916 54.176C104.916 57.248 106.324 59.232 108.948 59.232C111.572 59.232 112.98 57.248 112.98 54.176C112.98 51.136 111.572 49.088 108.948 49.088C106.324 49.088 104.916 51.136 104.916 54.176ZM110.676 48.864C110.612 48.992 110.548 49.056 110.548 49.056L110.9 49.088L111.06 48.928C110.932 48.928 110.804 48.896 110.676 48.864ZM133.9 64H126.124C126.572 63.904 126.988 63.744 127.308 63.456C127.82 63.04 128.076 61.536 128.14 60.224C128.236 58.816 128.236 57.376 128.236 56.896V47.776C128.236 46.528 128.204 43.008 127.308 42.24C127.052 41.984 126.636 41.824 126.252 41.728H142.316V44.96H142.092C141.772 43.936 140.908 43.232 139.788 42.816C137.804 42.08 133.548 42.048 131.468 42.048V53.696H132.3C136.972 53.632 138.316 54.304 138.636 50.592H138.796V57.056H138.636C138.476 53.76 136.908 54.048 132.3 54.016H131.468V56.896C131.468 57.408 131.468 58.56 131.5 59.68C131.564 60.992 131.724 63.36 133.26 63.872H133.228C133.324 63.872 133.452 63.904 133.516 63.936C133.612 63.968 133.74 63.968 133.9 64ZM144.248 49.024C146.008 48.864 147.736 48.768 149.464 48.768C149.464 50.048 149.464 51.328 149.496 52.576C150.072 50.624 151.96 48.896 154.104 48.896C154.872 48.896 156.248 49.152 156.248 50.112C156.248 50.784 155.832 51.2 155.32 51.2C154.04 51.232 153.88 49.984 152.376 50.112C150.104 50.304 149.528 54.944 149.464 56.512C149.432 58.752 149.432 62.464 149.88 63.232C150.136 63.648 150.552 63.904 151.032 64H144.888C145.4 63.904 145.848 63.648 146.072 63.2C146.712 62.176 146.552 56.864 146.552 55.392C146.552 54.368 146.584 51.008 146.04 50.176C145.688 49.568 144.952 49.184 144.248 49.024ZM164.554 64.32C160.042 64.32 157.002 61.152 157.002 56.544C157.002 52.032 159.978 48.768 164.394 48.768C168.874 48.768 171.978 51.904 171.978 56.576C171.978 61.184 169.034 64.32 164.554 64.32ZM164.426 49.024C160.362 49.024 160.106 54.144 160.106 56.544C160.106 59.008 160.49 64.064 164.554 64.064C168.586 64.064 168.874 59.008 168.874 56.576C168.874 54.112 168.458 49.024 164.426 49.024ZM173.595 54.144C173.595 50.272 176.827 48.768 180.667 48.768C181.275 48.768 181.851 48.8 182.395 48.864C182.939 48.256 184.731 46.272 187.483 46.656C188.027 46.752 188.475 47.2 188.379 47.744C188.219 48.32 187.739 48.896 187.099 48.8C186.619 48.736 186.363 47.808 184.923 47.84C183.963 47.84 183.419 48.32 182.779 48.928C185.659 49.408 187.803 51.008 187.803 54.144C187.803 58.016 184.571 59.52 180.667 59.52C180.219 59.52 179.835 59.488 179.419 59.456C178.395 59.616 177.211 60.064 177.211 61.28C177.211 64.032 188.827 60.256 188.635 67.328C188.539 70.464 185.851 73.248 180.923 73.248C178.011 73.248 173.659 72.32 173.659 68.736C173.659 66.944 175.675 65.728 177.339 65.728C177.691 65.728 178.043 65.792 178.363 65.92C177.595 66.112 176.379 67.424 176.379 68.736C176.379 71.136 177.691 72.864 180.987 72.928C184.251 72.992 185.979 71.008 185.979 68.256C185.947 62.528 175.195 66.72 175.259 62.24C175.259 60.48 177.115 59.872 178.459 59.328C175.643 58.816 173.595 57.248 173.595 54.144ZM176.635 54.176C176.635 57.248 178.043 59.232 180.667 59.232C183.291 59.232 184.699 57.248 184.699 54.176C184.699 51.136 183.291 49.088 180.667 49.088C178.043 49.088 176.635 51.136 176.635 54.176ZM182.395 48.864C182.331 48.992 182.267 49.056 182.267 49.056L182.619 49.088L182.779 48.928C182.651 48.928 182.523 48.896 182.395 48.864Z" fill="black"/>
</svg>
