<svg width="207" height="76" viewBox="0 0 207 76" fill="none" xmlns="http://www.w3.org/2000/svg">
<path d="M62.578 21.16C62.6847 21.6933 62.93 22.2587 63.314 22.856C63.698 23.432 63.89 23.88 63.89 24.2V24.328C63.89 24.776 63.6233 25 63.09 25H55.698C55.1647 25 54.898 24.776 54.898 24.328V24.2C54.898 23.944 55.1113 23.5173 55.538 22.92C55.9647 22.3227 56.1353 21.736 56.05 21.16L54.354 11.368L49.874 23.976C49.6607 24.6373 49.2447 24.968 48.626 24.968C47.9433 24.968 47.4633 24.648 47.186 24.008L41.81 10.696L40.338 21.16C40.2527 21.736 40.4233 22.3227 40.85 22.92C41.2767 23.5173 41.49 23.944 41.49 24.2V24.328C41.49 24.776 41.2233 25 40.69 25H36.434C35.9007 25 35.634 24.776 35.634 24.328V24.2C35.634 23.88 35.826 23.432 36.21 22.856C36.6153 22.28 36.8607 21.7147 36.946 21.16L39.218 6.12C39.3033 5.544 39.1007 4.95733 38.61 4.36C38.1407 3.76267 37.906 3.336 37.906 3.08V2.952C37.906 2.504 38.1727 2.28 38.706 2.28H46.386C46.9193 2.28 47.186 2.504 47.186 2.952V3.08C47.186 3.208 46.9833 3.624 46.578 4.328C46.1727 5.01067 46.066 5.64 46.258 6.216L49.554 15.848L52.786 5.896C52.9353 5.40533 52.7647 4.85067 52.274 4.232C51.8047 3.61333 51.57 3.22933 51.57 3.08V2.952C51.57 2.504 51.8367 2.28 52.37 2.28H60.242C60.7753 2.28 61.042 2.504 61.042 2.952V3.08C61.042 3.336 60.7967 3.76267 60.306 4.36C59.8153 4.95733 59.6233 5.544 59.73 6.12L62.578 21.16ZM77.8003 19.816C78.0349 19.56 78.3016 19.4853 78.6003 19.592C78.8989 19.6987 79.0483 19.9333 79.0483 20.296C79.0483 21.4053 78.4829 22.5253 77.3523 23.656C76.2216 24.7653 74.5789 25.32 72.4243 25.32C70.0349 25.32 68.0723 24.5733 66.5363 23.08C65.0216 21.5867 64.2643 19.6347 64.2643 17.224C64.2643 14.8987 65.0429 13.0107 66.6003 11.56C68.1789 10.088 70.0669 9.34133 72.2643 9.32C74.2483 9.29867 75.8376 9.736 77.0323 10.632C78.2269 11.5067 78.8243 12.648 78.8243 14.056C78.8243 15.1653 78.3443 16.1573 77.3843 17.032C76.4456 17.8853 75.2189 18.4187 73.7043 18.632C72.8509 18.76 72.0083 18.824 71.1763 18.824C72.0296 20.168 73.2029 20.84 74.6963 20.84C76.0829 20.84 77.1176 20.4987 77.8003 19.816ZM71.5603 11.176C71.0909 11.176 70.7069 11.4533 70.4083 12.008C70.1309 12.5627 69.9923 13.2987 69.9923 14.216C69.9923 15.2613 70.1203 16.2107 70.3763 17.064C70.6536 17.064 70.8349 17.0533 70.9203 17.032C72.3283 16.8187 73.0323 15.6453 73.0323 13.512C73.0323 12.8507 72.8829 12.296 72.5843 11.848C72.3069 11.4 71.9656 11.176 71.5603 11.176ZM93.8003 19.816C94.0349 19.56 94.3016 19.4853 94.6003 19.592C94.8989 19.6987 95.0483 19.9333 95.0483 20.296C95.0483 21.4053 94.4829 22.5253 93.3523 23.656C92.2216 24.7653 90.5789 25.32 88.4243 25.32C86.0349 25.32 84.0723 24.5733 82.5363 23.08C81.0216 21.5867 80.2643 19.6347 80.2643 17.224C80.2643 14.8987 81.0429 13.0107 82.6003 11.56C84.1789 10.088 86.0669 9.34133 88.2643 9.32C90.2483 9.29867 91.8376 9.736 93.0323 10.632C94.2269 11.5067 94.8243 12.648 94.8243 14.056C94.8243 15.1653 94.3443 16.1573 93.3843 17.032C92.4456 17.8853 91.2189 18.4187 89.7043 18.632C88.8509 18.76 88.0083 18.824 87.1763 18.824C88.0296 20.168 89.2029 20.84 90.6963 20.84C92.0829 20.84 93.1176 20.4987 93.8003 19.816ZM87.5603 11.176C87.0909 11.176 86.7069 11.4533 86.4083 12.008C86.1309 12.5627 85.9923 13.2987 85.9923 14.216C85.9923 15.2613 86.1203 16.2107 86.3763 17.064C86.6536 17.064 86.8349 17.0533 86.9203 17.032C88.3283 16.8187 89.0323 15.6453 89.0323 13.512C89.0323 12.8507 88.8829 12.296 88.5843 11.848C88.3069 11.4 87.9656 11.176 87.5603 11.176ZM103.24 25.32C101.555 25.32 100.211 24.7867 99.2083 23.72C98.2269 22.632 97.7363 21.096 97.7363 19.112V12.04H96.7763C96.5416 12.04 96.3496 11.9653 96.2003 11.816C96.0509 11.6453 95.9763 11.4533 95.9763 11.24V10.44C95.9763 9.90667 96.2429 9.64 96.7763 9.64H97.2243C98.2696 9.64 99.1869 9.34133 99.9763 8.744C100.766 8.14667 101.278 7.35733 101.512 6.376C101.662 5.77867 101.982 5.48 102.472 5.48H103.336C103.614 5.48 103.838 5.56533 104.008 5.736C104.179 5.88533 104.264 6.09867 104.264 6.376V9.64H107.272C107.507 9.64 107.699 9.71467 107.848 9.864C107.998 10.0133 108.072 10.2053 108.072 10.44V11.24C108.072 11.4533 107.998 11.6453 107.848 11.816C107.699 11.9653 107.507 12.04 107.272 12.04H104.264V19.24C104.264 19.688 104.382 20.0507 104.616 20.328C104.872 20.584 105.192 20.712 105.576 20.712C106.344 20.712 107.016 20.3707 107.592 19.688C107.848 19.4107 108.126 19.3147 108.424 19.4C108.723 19.464 108.872 19.656 108.872 19.976C108.872 21.384 108.371 22.632 107.368 23.72C106.366 24.7867 104.99 25.32 103.24 25.32ZM120.684 25C120.172 25 119.916 24.776 119.916 24.328V24.2C119.916 23.9227 120.15 23.496 120.62 22.92C121.089 22.3227 121.324 21.736 121.324 21.16V4.968H120.364C119.852 4.968 119.372 5.18133 118.924 5.608C118.497 6.01333 118.156 6.46133 117.9 6.952C117.665 7.44267 117.377 7.90133 117.036 8.328C116.694 8.73333 116.342 8.936 115.98 8.936H115.372C115.073 8.936 114.838 8.85067 114.668 8.68C114.497 8.488 114.433 8.24266 114.476 7.944L115.116 3.336C115.201 2.632 115.595 2.28 116.299 2.28H132.876C133.58 2.28 133.974 2.632 134.06 3.336L134.7 7.944C134.742 8.24266 134.678 8.488 134.508 8.68C134.337 8.85067 134.102 8.936 133.804 8.936H133.196C132.833 8.936 132.481 8.73333 132.14 8.328C131.798 7.90133 131.5 7.44267 131.244 6.952C131.009 6.46133 130.668 6.01333 130.22 5.608C129.793 5.18133 129.324 4.968 128.812 4.968H127.852V21.16C127.852 21.736 128.086 22.3227 128.556 22.92C129.046 23.496 129.292 23.9227 129.292 24.2V24.328C129.292 24.776 129.025 25 128.492 25H120.684ZM153.304 21.16C153.347 21.7147 153.549 22.2907 153.912 22.888C154.275 23.464 154.456 23.9013 154.456 24.2V24.328C154.456 24.776 154.189 25 153.656 25H146.584C146.051 25 145.784 24.776 145.784 24.328V24.2C145.784 23.9227 145.987 23.496 146.392 22.92C146.797 22.3227 146.979 21.736 146.936 21.16L146.616 15.336C146.531 13.9707 146.36 13.0213 146.104 12.488C145.869 11.9333 145.453 11.656 144.856 11.656C143.811 11.656 143.288 12.5733 143.288 14.408V21.16C143.288 21.736 143.533 22.3227 144.024 22.92C144.515 23.496 144.76 23.9227 144.76 24.2V24.328C144.76 24.776 144.493 25 143.96 25H136.248C135.715 25 135.448 24.776 135.448 24.328V24.2C135.448 23.9227 135.693 23.496 136.184 22.92C136.675 22.3227 136.92 21.736 136.92 21.16V7.176C136.92 6.728 136.781 6.35467 136.504 6.056C136.248 5.736 135.981 5.45867 135.704 5.224C135.427 4.968 135.288 4.712 135.288 4.456V4.328C135.288 3.92267 135.555 3.592 136.088 3.336L141.784 0.839998C142.189 0.669333 142.509 0.647999 142.744 0.775999C142.979 0.882666 143.096 1.13867 143.096 1.544V10.568C144.035 9.736 145.261 9.32 146.776 9.32C148.333 9.32 149.688 9.81067 150.84 10.792C152.013 11.752 152.685 13.3413 152.856 15.56L153.304 21.16ZM168.894 19.816C169.129 19.56 169.395 19.4853 169.694 19.592C169.993 19.6987 170.142 19.9333 170.142 20.296C170.142 21.4053 169.577 22.5253 168.446 23.656C167.315 24.7653 165.673 25.32 163.518 25.32C161.129 25.32 159.166 24.5733 157.63 23.08C156.115 21.5867 155.358 19.6347 155.358 17.224C155.358 14.8987 156.137 13.0107 157.694 11.56C159.273 10.088 161.161 9.34133 163.358 9.32C165.342 9.29867 166.931 9.736 168.126 10.632C169.321 11.5067 169.918 12.648 169.918 14.056C169.918 15.1653 169.438 16.1573 168.478 17.032C167.539 17.8853 166.313 18.4187 164.798 18.632C163.945 18.76 163.102 18.824 162.27 18.824C163.123 20.168 164.297 20.84 165.79 20.84C167.177 20.84 168.211 20.4987 168.894 19.816ZM162.654 11.176C162.185 11.176 161.801 11.4533 161.502 12.008C161.225 12.5627 161.086 13.2987 161.086 14.216C161.086 15.2613 161.214 16.2107 161.47 17.064C161.747 17.064 161.929 17.0533 162.014 17.032C163.422 16.8187 164.126 15.6453 164.126 13.512C164.126 12.8507 163.977 12.296 163.678 11.848C163.401 11.4 163.059 11.176 162.654 11.176ZM1.2645 69C0.731167 69 0.4645 68.776 0.4645 68.328V68.2C0.4645 67.9227 0.677833 67.496 1.1045 66.92C1.5525 66.3227 1.7765 65.736 1.7765 65.16V50.12C1.7765 49.544 1.5525 48.968 1.1045 48.392C0.677833 47.7947 0.4645 47.3573 0.4645 47.08V46.952C0.4645 46.504 0.731167 46.28 1.2645 46.28H9.0085C13.6805 46.28 17.2538 47.336 19.7285 49.448C22.2032 51.5387 23.4405 54.344 23.4405 57.864C23.4405 61.1493 22.2885 63.8267 19.9845 65.896C17.6805 67.9653 14.5765 69 10.6725 69H1.2645ZM11.4085 66.504H12.3685C13.6058 66.504 14.6085 66.0453 15.3765 65.128C16.1445 64.2107 16.5285 62.8453 16.5285 61.032C16.5285 57.832 15.8992 54.9947 14.6405 52.52C13.3818 50.024 11.8245 48.776 9.9685 48.776H9.8725C8.80583 48.776 8.2725 49.3307 8.2725 50.44V62.824C8.2725 63.9973 8.53917 64.904 9.0725 65.544C9.62717 66.184 10.4058 66.504 11.4085 66.504ZM42.9395 55.272C42.9395 55.4427 42.8115 55.6667 42.5555 55.944C42.3208 56.2 42.0755 56.5413 41.8195 56.968C41.5848 57.3733 41.4675 57.8533 41.4675 58.408V65.16C41.4675 65.736 41.6808 66.3227 42.1075 66.92C42.5555 67.496 42.7795 67.9227 42.7795 68.2V68.328C42.7795 68.776 42.5128 69 41.9795 69H36.9235C36.3475 69 36.0382 68.7227 35.9955 68.168C35.0568 68.936 33.8515 69.32 32.3795 69.32C30.3102 69.32 28.5288 68.6267 27.0355 67.24C25.5422 65.832 24.7955 63.8587 24.7955 61.32C24.7955 58.9947 25.5422 57.0853 27.0355 55.592C28.5502 54.0773 30.3315 53.32 32.3795 53.32C33.8728 53.32 35.0782 53.6933 35.9955 54.44C36.1022 53.7147 36.6568 53.4267 37.6595 53.576L42.0755 54.152C42.6515 54.216 42.9395 54.5467 42.9395 55.144V55.272ZM33.8195 67.624C34.2675 67.6453 34.6302 67.464 34.9075 67.08C35.1848 66.696 35.3235 66.1733 35.3235 65.512V58.92C35.3235 57.704 35.0782 56.7547 34.5875 56.072C34.1182 55.368 33.5635 55.016 32.9235 55.016C31.7502 55.016 31.1102 56.1253 31.0035 58.344C30.9608 59.1547 31.0142 60.2533 31.1635 61.64C31.3342 63.0053 31.6542 64.3387 32.1235 65.64C32.5928 66.92 33.1582 67.5813 33.8195 67.624ZM62.3115 65.192C62.3542 65.7467 62.5568 66.3227 62.9195 66.92C63.2822 67.496 63.4635 67.9333 63.4635 68.232V68.36C63.4635 68.808 63.1968 69.032 62.6635 69.032H55.5915C55.0582 69.032 54.7915 68.808 54.7915 68.36V68.232C54.7915 67.9547 54.9942 67.528 55.3995 66.952C55.8048 66.3547 55.9862 65.768 55.9435 65.192L55.6235 59.656C55.5382 58.1413 55.3782 57.096 55.1435 56.52C54.9088 55.944 54.4822 55.656 53.8635 55.656C52.8182 55.656 52.2955 56.5733 52.2955 58.408V65.192C52.2955 65.768 52.5408 66.3547 53.0315 66.952C53.5222 67.528 53.7675 67.9547 53.7675 68.232V68.36C53.7675 68.808 53.5008 69.032 52.9675 69.032H45.2555C44.7222 69.032 44.4555 68.808 44.4555 68.36V68.232C44.4555 67.9547 44.7008 67.528 45.1915 66.952C45.6822 66.3547 45.9275 65.768 45.9275 65.192V59.784C45.9275 59.336 45.7782 58.952 45.4795 58.632C45.1808 58.2907 44.8822 57.992 44.5835 57.736C44.2848 57.4587 44.1355 57.192 44.1355 56.936V56.808C44.1355 56.5307 44.4128 56.2427 44.9675 55.944L49.9915 53.448C50.4182 53.256 50.7382 53.256 50.9515 53.448C51.1862 53.6187 51.3035 53.896 51.3035 54.28V55.592C52.1568 54.0773 53.6502 53.32 55.7835 53.32C57.3622 53.32 58.7275 53.832 59.8795 54.856C61.0315 55.8587 61.7035 57.5333 61.8955 59.88L62.3115 65.192ZM72.678 69.32C70.182 69.32 68.166 68.52 66.63 66.92C65.094 65.32 64.326 63.4533 64.326 61.32C64.326 58.888 65.1153 56.9573 66.694 55.528C68.2727 54.0773 70.1927 53.3413 72.454 53.32C74.438 53.2987 76.0913 53.736 77.414 54.632C78.758 55.528 79.43 56.744 79.43 58.28C79.43 58.8773 79.2167 59.3787 78.79 59.784C78.3633 60.168 77.702 60.3387 76.806 60.296C76.1447 60.2533 75.5687 60.04 75.078 59.656C74.5873 59.272 74.2033 58.8347 73.926 58.344C73.67 57.832 73.4353 57.32 73.222 56.808C73.0087 56.296 72.7633 55.8693 72.486 55.528C72.2087 55.1867 71.8887 55.0267 71.526 55.048C71.0353 55.0693 70.63 55.368 70.31 55.944C70.0113 56.52 69.862 57.2347 69.862 58.088C69.862 60.136 70.31 61.7787 71.206 63.016C72.1233 64.2533 73.3393 64.872 74.854 64.872C76.1553 64.872 77.2647 64.3493 78.182 63.304C78.4167 63.048 78.6833 62.9627 78.982 63.048C79.302 63.1333 79.462 63.3573 79.462 63.72C79.462 65.2773 78.8753 66.6 77.702 67.688C76.5287 68.776 74.854 69.32 72.678 69.32ZM88.3513 51.048C87.6046 51.7307 86.6339 52.072 85.4393 52.072C84.2446 52.072 83.2633 51.7307 82.4953 51.048C81.7486 50.3653 81.3753 49.5227 81.3753 48.52C81.3753 47.5173 81.7486 46.6853 82.4953 46.024C83.2633 45.3413 84.2446 45 85.4393 45C86.6339 45 87.6046 45.3413 88.3513 46.024C89.1193 46.6853 89.5033 47.5173 89.5033 48.52C89.5033 49.5227 89.1193 50.3653 88.3513 51.048ZM81.5993 69C81.0659 69 80.7993 68.776 80.7993 68.328V68.2C80.7993 67.9227 81.0126 67.496 81.4393 66.92C81.8873 66.3227 82.1113 65.736 82.1113 65.16V60.008C82.1113 59.432 81.8873 58.8667 81.4393 58.312C81.0126 57.736 80.7993 57.3307 80.7993 57.096V56.968C80.7993 56.6907 81.0659 56.424 81.5993 56.168L87.0713 53.48C87.5406 53.2667 87.9139 53.2453 88.1913 53.416C88.4899 53.5867 88.6393 53.8533 88.6393 54.216V65.16C88.6393 65.736 88.8846 66.3227 89.3753 66.92C89.8659 67.496 90.1113 67.9227 90.1113 68.2V68.328C90.1113 68.776 89.8446 69 89.3113 69H81.5993ZM109.155 65.192C109.198 65.7467 109.401 66.3227 109.763 66.92C110.126 67.496 110.307 67.9333 110.307 68.232V68.36C110.307 68.808 110.041 69.032 109.507 69.032H102.435C101.902 69.032 101.635 68.808 101.635 68.36V68.232C101.635 67.9547 101.838 67.528 102.243 66.952C102.649 66.3547 102.83 65.768 102.787 65.192L102.467 59.656C102.382 58.1413 102.222 57.096 101.987 56.52C101.753 55.944 101.326 55.656 100.707 55.656C99.6619 55.656 99.1393 56.5733 99.1393 58.408V65.192C99.1393 65.768 99.3846 66.3547 99.8753 66.952C100.366 67.528 100.611 67.9547 100.611 68.232V68.36C100.611 68.808 100.345 69.032 99.8113 69.032H92.0993C91.5659 69.032 91.2993 68.808 91.2993 68.36V68.232C91.2993 67.9547 91.5446 67.528 92.0353 66.952C92.5259 66.3547 92.7713 65.768 92.7713 65.192V59.784C92.7713 59.336 92.6219 58.952 92.3233 58.632C92.0246 58.2907 91.7259 57.992 91.4273 57.736C91.1286 57.4587 90.9793 57.192 90.9793 56.936V56.808C90.9793 56.5307 91.2566 56.2427 91.8113 55.944L96.8353 53.448C97.2619 53.256 97.5819 53.256 97.7953 53.448C98.0299 53.6187 98.1473 53.896 98.1473 54.28V55.592C99.0006 54.0773 100.494 53.32 102.627 53.32C104.206 53.32 105.571 53.832 106.723 54.856C107.875 55.8587 108.547 57.5333 108.739 59.88L109.155 65.192ZM128.546 54.152C129.122 54.216 129.41 54.5467 129.41 55.144V55.272C129.41 55.4427 129.282 55.6667 129.026 55.944C128.791 56.2 128.546 56.5413 128.29 56.968C128.055 57.3733 127.938 57.8533 127.938 58.408V66.824C127.938 69.576 127.148 71.688 125.57 73.16C123.991 74.632 122.018 75.368 119.65 75.368C117.239 75.368 115.266 74.984 113.73 74.216C112.194 73.448 111.426 72.4347 111.426 71.176C111.426 70.5573 111.639 70.0027 112.066 69.512C112.492 69.0427 113.1 68.808 113.89 68.808C114.53 68.808 115.084 68.968 115.554 69.288C116.023 69.6293 116.396 70.0347 116.674 70.504C116.951 70.9947 117.218 71.4747 117.474 71.944C117.73 72.4133 118.039 72.8187 118.402 73.16C118.764 73.5013 119.18 73.6827 119.65 73.704C120.268 73.7253 120.78 73.3413 121.186 72.552C121.591 71.784 121.794 70.536 121.794 68.808V68.296C120.962 68.7653 119.98 69 118.85 69C116.78 69 114.999 68.3173 113.506 66.952C112.012 65.5867 111.266 63.7093 111.266 61.32C111.266 58.9947 112.012 57.0853 113.506 55.592C115.02 54.0773 116.802 53.32 118.85 53.32C120.343 53.32 121.548 53.6933 122.466 54.44C122.572 53.7147 123.127 53.4267 124.13 53.576L128.546 54.152ZM120.29 67.304C120.738 67.3253 121.1 67.144 121.378 66.76C121.655 66.376 121.794 65.8533 121.794 65.192V58.92C121.794 57.9173 121.538 57.0213 121.026 56.232C120.535 55.4213 119.991 55.016 119.394 55.016C118.22 55.016 117.58 56.1253 117.474 58.344C117.388 59.816 117.591 61.6613 118.082 63.88C118.594 66.0987 119.33 67.24 120.29 67.304ZM137.733 69C137.2 69 136.933 68.776 136.933 68.328V68.2C136.933 67.9227 137.147 67.496 137.573 66.92C138.021 66.3227 138.245 65.736 138.245 65.16V50.12C138.245 49.544 138.021 48.968 137.573 48.392C137.147 47.7947 136.933 47.3573 136.933 47.08V46.952C136.933 46.504 137.2 46.28 137.733 46.28H153.157C153.541 46.28 153.819 46.3653 153.989 46.536C154.16 46.7067 154.277 46.984 154.341 47.368L155.109 51.656C155.152 51.9547 155.088 52.2 154.917 52.392C154.747 52.5627 154.512 52.648 154.213 52.648H154.021C153.573 52.648 153.125 52.4453 152.677 52.04C152.229 51.6347 151.835 51.1973 151.493 50.728C151.173 50.2373 150.757 49.7893 150.245 49.384C149.733 48.9787 149.211 48.776 148.677 48.776H146.501C145.435 48.776 144.901 49.3307 144.901 50.44V57.096H147.909C148.357 57.096 148.763 56.8613 149.125 56.392C149.488 55.9227 149.819 55.464 150.117 55.016C150.416 54.5467 150.693 54.312 150.949 54.312H151.269C151.717 54.312 151.941 54.5787 151.941 55.112V61.352C151.941 61.8853 151.717 62.152 151.269 62.152H150.949C150.693 62.152 150.416 61.9387 150.117 61.512C149.819 61.0853 149.488 60.6587 149.125 60.232C148.763 59.784 148.357 59.56 147.909 59.56H144.901V65.16C144.901 65.736 145.147 66.3227 145.637 66.92C146.128 67.496 146.373 67.9227 146.373 68.2V68.328C146.373 68.776 146.107 69 145.573 69H137.733ZM165.754 53.32C166.671 53.32 167.396 53.64 167.93 54.28C168.484 54.8987 168.762 55.6987 168.762 56.68C168.762 58.9413 167.844 60.072 166.01 60.072C165.263 60.072 164.698 59.912 164.314 59.592C163.951 59.2507 163.738 58.8773 163.674 58.472C163.631 58.0667 163.535 57.704 163.386 57.384C163.236 57.0427 163.002 56.872 162.682 56.872C162.17 56.872 161.914 57.5333 161.914 58.856V65.16C161.914 65.608 162.063 66.0133 162.362 66.376C162.66 66.7387 162.959 67.0693 163.258 67.368C163.556 67.6667 163.706 67.944 163.706 68.2V68.328C163.706 68.776 163.439 69 162.906 69H155.258C154.724 69 154.458 68.776 154.458 68.328V68.2C154.458 67.9227 154.671 67.496 155.098 66.92C155.546 66.3227 155.77 65.736 155.77 65.16V59.688C155.77 59.24 155.631 58.8667 155.354 58.568C155.098 58.248 154.831 57.9707 154.554 57.736C154.276 57.48 154.138 57.224 154.138 56.968V56.84C154.138 56.456 154.404 56.1253 154.938 55.848L160.026 53.448C160.474 53.2773 160.783 53.2667 160.954 53.416C161.146 53.5653 161.242 53.832 161.242 54.216V56.552C161.946 54.3973 163.45 53.32 165.754 53.32ZM178.067 69.32C175.656 69.32 173.565 68.5733 171.795 67.08C170.024 65.5653 169.139 63.6453 169.139 61.32C169.139 58.9947 170.024 57.0853 171.795 55.592C173.565 54.0773 175.656 53.32 178.067 53.32C180.499 53.32 182.589 54.0773 184.339 55.592C186.088 57.0853 186.963 58.9947 186.963 61.32C186.963 63.6453 186.088 65.5653 184.339 67.08C182.589 68.5733 180.499 69.32 178.067 69.32ZM178.835 67.592C179.432 67.592 179.827 67.3253 180.019 66.792C180.211 66.2373 180.307 65.384 180.307 64.232C180.307 63.464 180.2 62.4187 179.987 61.096C179.795 59.752 179.421 58.408 178.867 57.064C178.333 55.72 177.704 55.048 176.979 55.048C176.403 55.048 176.019 55.3147 175.827 55.848C175.635 56.3813 175.539 57.256 175.539 58.472C175.539 59.3253 175.635 60.424 175.827 61.768C176.04 63.0907 176.413 64.392 176.947 65.672C177.501 66.952 178.131 67.592 178.835 67.592ZM205.483 54.152C206.059 54.216 206.347 54.5467 206.347 55.144V55.272C206.347 55.4427 206.219 55.6667 205.963 55.944C205.729 56.2 205.483 56.5413 205.227 56.968C204.993 57.3733 204.875 57.8533 204.875 58.408V66.824C204.875 69.576 204.086 71.688 202.507 73.16C200.929 74.632 198.955 75.368 196.587 75.368C194.177 75.368 192.203 74.984 190.667 74.216C189.131 73.448 188.363 72.4347 188.363 71.176C188.363 70.5573 188.577 70.0027 189.003 69.512C189.43 69.0427 190.038 68.808 190.827 68.808C191.467 68.808 192.022 68.968 192.491 69.288C192.961 69.6293 193.334 70.0347 193.611 70.504C193.889 70.9947 194.155 71.4747 194.411 71.944C194.667 72.4133 194.977 72.8187 195.339 73.16C195.702 73.5013 196.118 73.6827 196.587 73.704C197.206 73.7253 197.718 73.3413 198.123 72.552C198.529 71.784 198.731 70.536 198.731 68.808V68.296C197.899 68.7653 196.918 69 195.787 69C193.718 69 191.937 68.3173 190.443 66.952C188.95 65.5867 188.203 63.7093 188.203 61.32C188.203 58.9947 188.95 57.0853 190.443 55.592C191.958 54.0773 193.739 53.32 195.787 53.32C197.281 53.32 198.486 53.6933 199.403 54.44C199.51 53.7147 200.065 53.4267 201.067 53.576L205.483 54.152ZM197.227 67.304C197.675 67.3253 198.038 67.144 198.315 66.76C198.593 66.376 198.731 65.8533 198.731 65.192V58.92C198.731 57.9173 198.475 57.0213 197.963 56.232C197.473 55.4213 196.929 55.016 196.331 55.016C195.158 55.016 194.518 56.1253 194.411 58.344C194.326 59.816 194.529 61.6613 195.019 63.88C195.531 66.0987 196.267 67.24 197.227 67.304Z" fill="black"/>
</svg>
