<svg width="229" height="94" viewBox="0 0 229 94" fill="none" xmlns="http://www.w3.org/2000/svg">
<path d="M11.4338 1.235H17.1578C16.7528 1.343 16.3208 1.613 16.3208 2.18C16.3208 2.936 16.5908 3.827 16.8608 4.718L21.9908 19.19C23.4218 15.167 24.8798 11.144 26.2838 7.121C26.7158 6.257 27.5258 3.422 27.5258 2.666C27.5258 1.91 27.3098 1.505 26.7968 1.289C26.7698 1.289 26.6618 1.235 26.5808 1.208H30.4688C30.4418 1.235 30.4418 1.235 30.3878 1.235H30.4148C29.4428 1.505 28.6598 2.585 28.0658 3.719C27.6878 4.529 27.3637 5.42 27.0668 6.176C26.9318 6.473 26.8508 6.743 26.7698 6.959L22.0718 20.027H19.5878L15.0518 6.986C14.7548 6.041 13.4318 2.882 12.7568 2.072C12.3518 1.586 11.8928 1.343 11.4338 1.235ZM1.82175 2.045C1.47075 1.559 0.95775 1.316 0.52575 1.208H6.22275C5.81775 1.316 5.41275 1.586 5.41275 2.153C5.41275 2.909 5.65575 3.8 5.92575 4.691C6.08775 5.015 6.19575 5.312 6.30375 5.636C6.51975 6.176 6.76275 6.689 6.92475 7.121L11.4608 19.19C12.7298 15.734 13.9717 12.197 15.1868 8.714L15.4028 9.254L11.5688 20.027H9.08475L4.14375 6.959C3.79275 6.014 2.52375 2.855 1.82175 2.045ZM30.3702 0.424999C31.5312 0.316999 33.5022 0.208999 34.7712 0.208999L34.7982 9.2C35.7162 8.174 37.5522 7.067 39.2802 7.067C42.7092 7.067 44.4102 9.146 44.4102 11.873V15.68C44.4102 16.49 44.4642 18.731 44.8152 19.352C45.0582 19.703 45.3822 19.892 45.7872 20H40.6032C41.0082 19.892 41.3322 19.703 41.5752 19.325C41.9262 18.677 41.9532 16.274 41.9532 15.437L41.9262 12.251C41.9262 10.604 42.0072 7.472 39.1182 7.472C37.3632 7.472 35.5542 8.633 34.7982 9.713V12.224L34.7712 15.977C34.7712 16.76 34.7712 18.731 35.1222 19.352C35.3382 19.73 35.7162 19.919 36.0942 20H30.9102C31.3152 19.919 31.6932 19.73 31.9362 19.325C32.3142 18.569 32.3142 16.517 32.3142 15.626C32.3142 12.062 32.4222 2.558 31.9092 1.397C31.5312 0.856999 31.0182 0.559999 30.3702 0.424999ZM52.9695 20C48.8655 20.027 46.6785 18.866 46.6785 16.193C46.6785 13.493 49.3785 12.116 53.1585 12.224C53.8875 12.251 54.6435 12.44 55.2105 12.602V11.603C55.2105 9.686 54.9675 7.337 52.3485 7.337C50.9715 7.337 50.4585 8.12 50.1075 8.876C50.0535 8.957 50.0265 9.038 49.9725 9.119C49.9455 9.227 49.8915 9.308 49.8105 9.389C49.7295 9.524 49.6755 9.659 49.5675 9.794C49.4325 10.01 49.2165 10.145 48.8115 10.145C48.2445 10.145 47.9745 9.875 47.9745 9.335C47.9745 7.661 51.3495 7.148 52.6185 7.148C53.7525 7.148 55.6425 7.472 56.5065 8.201C57.3705 9.038 57.6675 10.172 57.6675 11.333L57.6405 16.193C57.6405 17.057 57.6675 18.758 57.9645 19.352C58.2075 19.73 58.5585 19.919 58.9365 20H52.9695ZM53.1045 12.44C49.6485 12.44 49.0545 14.384 49.0545 16.193C49.0545 18.002 49.5405 19.838 52.9695 19.838C53.5365 19.838 54.3465 19.838 54.7245 19.433C54.7245 19.406 54.7515 19.379 54.7785 19.325C55.1025 18.677 55.1565 17.03 55.1565 16.004L55.1835 12.764C54.6705 12.629 53.9685 12.44 53.1045 12.44ZM58.8995 7.337C62.3555 7.229 62.7875 5.069 62.9495 2.99H64.2185V7.202H67.8365V7.607H64.2185V18.002C64.2185 19.136 64.7045 19.568 65.3255 19.568C66.2165 19.568 67.4045 18.623 67.6205 17.705L67.8365 17.894C66.5675 20.297 65.2175 20.27 64.2995 20.27C62.9495 20.27 61.6805 19.136 61.6805 17.867V7.607H58.8995V7.337ZM69.8729 8.795C69.8729 8.687 70.3049 8.309 70.7369 7.769C71.2229 7.175 71.7359 6.419 71.7359 5.582C71.7359 5.042 71.3849 4.907 70.9259 4.907C70.3049 4.907 69.9809 4.529 69.9809 3.908V3.881C69.9809 3.233 70.4129 2.747 71.0879 2.747C72.1139 2.747 72.5729 3.827 72.5729 4.718C72.5729 6.932 70.5209 9.038 70.0889 9.038C69.9809 9.038 69.8729 8.93 69.8729 8.795ZM75.3195 10.361C75.3195 7.823 78.1815 6.581 80.6655 6.689C81.6645 6.743 83.4735 7.121 84.4185 7.526L84.4455 8.147C84.4455 8.876 84.3915 9.578 84.3375 10.28L84.1755 10.307C83.9325 8.606 82.4205 7.013 80.1255 7.013C78.6675 7.013 77.5065 8.201 77.5065 9.794C77.5065 13.169 85.2555 12.116 85.2555 16.733C85.2555 19.487 82.0965 20.756 79.5315 20.675C77.8035 20.621 76.6425 20.108 75.6165 19.46C75.5895 19.055 75.5895 18.65 75.5895 18.245C75.5895 17.813 75.5895 17.408 75.6165 16.976L75.8055 16.949C76.1565 18.785 77.5605 20.405 79.9905 20.297C81.7995 20.216 83.0955 19.19 83.0685 17.435C83.0145 13.979 75.3195 15.194 75.3195 10.361ZM93.199 1.208H98.599C98.41 1.262 98.14 1.37 98.005 1.478C97.249 2.072 97.249 6.095 97.249 7.175V14.87C97.249 16.004 97.276 19.001 97.843 19.541C98.14 19.811 98.437 19.946 98.734 20H93.226C93.361 19.946 93.523 19.919 93.577 19.865C93.82 19.73 93.982 19.541 94.117 19.244C94.387 18.731 94.495 17.57 94.549 16.544C94.576 15.545 94.576 14.519 94.576 14.006V6.311C94.576 5.258 94.549 2.072 94.036 1.64C93.739 1.397 93.442 1.289 93.199 1.208ZM101.811 8.336C101.433 7.796 100.92 7.499 100.272 7.364C101.433 7.256 103.404 7.148 104.673 7.148V9.2C105.591 8.201 107.4 7.067 109.182 7.067C112.611 7.067 114.312 9.416 114.312 12.143V15.68C114.312 16.49 114.366 18.731 114.717 19.352C114.96 19.703 115.284 19.892 115.689 20H110.505C110.91 19.892 111.261 19.703 111.477 19.325C111.828 18.677 111.855 16.274 111.855 15.437L111.828 12.521C111.828 10.874 111.909 7.472 109.02 7.472C107.292 7.472 105.456 8.633 104.673 9.686L104.7 12.224L104.673 15.977C104.673 16.76 104.673 18.731 105.024 19.352C105.24 19.73 105.618 19.919 105.996 20H100.812C101.244 19.919 101.595 19.73 101.838 19.325C102.216 18.569 102.216 16.517 102.216 15.626C102.216 12.062 102.324 9.497 101.811 8.336ZM125.202 19.973H121.908C123.663 19.406 124.581 15.923 125.229 14.222C126.741 9.875 128.28 5.555 129.819 1.208H132.546L137.406 14.222C138.027 15.518 138.999 18.731 140.052 19.622C140.268 19.811 140.619 19.919 140.943 20L134.463 20.054C137.352 19.973 135.327 16.598 134.733 14.789L134.679 14.573L134.139 13.142C132.843 14.249 131.088 14.114 129.36 14.114C127.902 14.114 126.471 14.222 125.391 15.248L124.635 17.678C124.203 18.974 124.635 19.784 125.202 19.973ZM130.008 2.018L125.58 14.654C126.768 13.763 128.28 13.79 129.792 13.79C131.304 13.79 132.816 13.763 134.004 12.764L130.008 2.018ZM148.079 1.208H152.588L163.631 16.031L163.712 6.878V6.5C163.712 5.204 163.685 2.207 162.497 1.451C162.335 1.343 162.092 1.262 161.876 1.208H165.926C165.737 1.262 165.494 1.343 165.332 1.451C164.144 2.18 164.117 5.204 164.117 6.5V20.135H163.442L150.914 3.557V14.627C150.914 15.923 150.941 18.92 152.075 19.703C152.291 19.838 152.588 19.946 152.831 20H148.565C148.781 19.946 149.051 19.838 149.294 19.703C150.455 18.92 150.482 15.977 150.482 14.627V6.5C150.482 3.746 150.806 1.802 148.079 1.208ZM173.626 20C169.522 20.027 167.335 18.866 167.335 16.193C167.335 13.493 170.035 12.116 173.815 12.224C174.544 12.251 175.3 12.44 175.867 12.602V11.603C175.867 9.686 175.624 7.337 173.005 7.337C171.628 7.337 171.115 8.12 170.764 8.876C170.71 8.957 170.683 9.038 170.629 9.119C170.602 9.227 170.548 9.308 170.467 9.389C170.386 9.524 170.332 9.659 170.224 9.794C170.089 10.01 169.873 10.145 169.468 10.145C168.901 10.145 168.631 9.875 168.631 9.335C168.631 7.661 172.006 7.148 173.275 7.148C174.409 7.148 176.299 7.472 177.163 8.201C178.027 9.038 178.324 10.172 178.324 11.333L178.297 16.193C178.297 17.057 178.324 18.758 178.621 19.352C178.864 19.73 179.215 19.919 179.593 20H173.626ZM173.761 12.44C170.305 12.44 169.711 14.384 169.711 16.193C169.711 18.002 170.197 19.838 173.626 19.838C174.193 19.838 175.003 19.838 175.381 19.433C175.381 19.406 175.408 19.379 175.435 19.325C175.759 18.677 175.813 17.03 175.813 16.004L175.84 12.764C175.327 12.629 174.625 12.44 173.761 12.44ZM181.752 8.336C181.374 7.796 180.861 7.499 180.213 7.364C181.374 7.256 183.345 7.148 184.641 7.148V9.146C185.505 8.147 187.125 7.067 188.691 7.067C190.689 7.067 192.039 7.796 192.768 9.227C193.605 8.201 195.279 7.067 196.872 7.067C200.004 7.067 201.84 9.416 201.84 12.143V15.68C201.84 16.49 201.867 18.731 202.191 19.352C202.407 19.703 202.731 19.892 203.082 20H198.06C198.438 19.892 198.789 19.703 198.978 19.325C199.275 18.677 199.302 16.274 199.302 15.437L199.275 12.251C199.275 10.604 199.356 7.526 196.71 7.526C195.225 7.526 193.659 8.525 192.903 9.524C193.227 10.307 193.389 11.252 193.389 12.413V15.68C193.389 16.49 193.443 18.731 193.767 19.352C193.929 19.703 194.28 19.892 194.631 20H189.636C189.987 19.892 190.311 19.703 190.527 19.325C190.851 18.677 190.932 16.274 190.932 15.437C190.905 13.412 191.418 7.526 188.556 7.526C186.99 7.526 185.343 8.606 184.641 9.632V15.977C184.641 16.76 184.641 18.731 184.938 19.352C185.181 19.73 185.559 19.919 185.964 20H180.753C181.158 19.919 181.536 19.73 181.779 19.325C182.13 18.569 182.13 16.517 182.13 15.626C182.13 12.062 182.238 9.497 181.752 8.336ZM204.171 13.871C204.171 9.902 206.628 7.148 210.705 7.148C214.512 7.148 216.888 9.794 216.969 13.574H206.952C206.952 16.706 207.492 19.919 211.488 19.919C213.297 19.919 215.43 18.704 216.51 16.922H216.699C215.781 19.055 213.216 20.27 211.056 20.27C207.087 20.27 204.171 17.84 204.171 13.871ZM210.84 7.418C207.897 7.418 207.195 11.225 206.979 13.304H214.323C214.242 11.279 213.945 7.418 210.84 7.418ZM218.035 3.557C218.035 1.181 220.492 0.343999 222.598 0.263C225.514 0.155 228.43 1.532 228.43 4.799C228.43 9.551 222.598 10.442 222.166 13.952C222.112 14.438 222.139 14.951 222.139 15.437H221.545V14.519C221.545 10.145 225.352 9.524 225.352 4.745C225.352 3.098 225.028 0.559999 222.409 0.613999C221.437 0.641 219.79 0.964999 219.79 2.18C219.79 2.909 220.6 3.206 220.6 4.043C220.6 4.826 220.141 5.231 219.331 5.231C218.386 5.231 218.035 4.34 218.035 3.557ZM220.654 18.623C220.654 18.002 221.167 17.543 221.842 17.543C222.463 17.543 222.949 18.056 222.949 18.623C222.949 19.217 222.517 19.784 221.842 19.784C221.14 19.784 220.654 19.271 220.654 18.623Z" fill="black"/>
<path d="M51.7334 34.127L55.5134 34.208L63.7484 48.167L71.9294 34.208H76.6004C76.2764 34.289 75.9524 34.424 75.7094 34.64C74.9804 35.234 74.9534 39.122 74.9534 40.175V48.14C74.9534 49.166 75.0074 51.893 75.7094 52.541C75.9794 52.784 76.3574 52.919 76.7084 53H70.4714C70.8224 52.919 71.1464 52.811 71.4434 52.568C72.1184 52.055 72.1724 48.869 72.1724 47.897V34.694L62.6954 50.84L54.3254 37.475V47.627C54.3254 49.247 54.2174 52.595 56.2424 53H52.0574C52.0574 53 52.1384 53 52.2464 52.973C52.2734 52.973 52.2734 52.973 52.3004 52.946C53.8394 52.514 53.8664 49.49 53.8664 48.167V38.987C53.8664 37.691 53.2724 34.586 51.7334 34.127ZM79.2961 41.336C78.9451 40.796 78.4321 40.499 77.8111 40.364C78.9451 40.256 80.9161 40.148 82.1851 40.148L82.2121 45.224L82.1851 48.977C82.1851 49.76 82.1851 51.731 82.5361 52.352C82.7521 52.73 83.1301 52.919 83.5081 53H78.3241C78.7561 52.919 79.1071 52.73 79.3231 52.325C79.7281 51.569 79.7281 49.517 79.7281 48.626C79.7281 45.062 79.8361 42.497 79.2961 41.336ZM80.7541 37.61C79.8631 37.61 79.1611 36.881 79.1611 36.017C79.1611 35.207 79.8631 34.505 80.7541 34.505C81.6991 34.505 82.4011 35.207 82.4011 36.017C82.4011 36.881 81.6991 37.61 80.7541 37.61ZM85.5977 46.844C85.5977 43.01 88.1087 40.148 92.0507 40.148C93.2657 40.148 96.4247 40.553 96.4247 42.173C96.4247 42.74 96.0197 42.875 95.5607 42.875C94.1297 42.875 94.5077 40.283 92.0777 40.283C88.7837 40.283 88.4867 44.225 88.4867 46.655C88.4867 49.031 89.1887 52.919 92.2667 52.919C93.8597 52.919 95.5067 52.19 96.3437 50.813H96.6137C95.6687 52.568 93.8057 53.27 91.8887 53.27C88.2977 53.27 85.5977 50.327 85.5977 46.844ZM97.901 40.364C99.386 40.229 100.844 40.148 102.302 40.148C102.302 41.228 102.302 42.308 102.329 43.361C102.815 41.714 104.408 40.256 106.217 40.256C106.865 40.256 108.026 40.472 108.026 41.282C108.026 41.849 107.675 42.2 107.243 42.2C106.163 42.227 106.028 41.174 104.759 41.282C102.842 41.444 102.356 45.359 102.302 46.682C102.275 48.572 102.275 51.704 102.653 52.352C102.869 52.703 103.22 52.919 103.625 53H98.441C98.873 52.919 99.251 52.703 99.44 52.325C99.98 51.461 99.845 46.979 99.845 45.737C99.845 44.873 99.872 42.038 99.413 41.336C99.116 40.823 98.495 40.499 97.901 40.364ZM110.489 41.336C110.138 40.796 109.625 40.499 109.004 40.364C110.138 40.256 112.109 40.148 113.378 40.148L113.405 45.224L113.378 48.977C113.378 49.76 113.378 51.731 113.729 52.352C113.945 52.73 114.323 52.919 114.701 53H109.517C109.949 52.919 110.3 52.73 110.516 52.325C110.921 51.569 110.921 49.517 110.921 48.626C110.921 45.062 111.029 42.497 110.489 41.336ZM111.947 37.61C111.056 37.61 110.354 36.881 110.354 36.017C110.354 35.207 111.056 34.505 111.947 34.505C112.892 34.505 113.594 35.207 113.594 36.017C113.594 36.881 112.892 37.61 111.947 37.61ZM116.061 53C117.735 52.865 120.327 49.031 121.758 47.465C120.516 45.548 118.734 41.228 116.412 40.445H121.299C121.002 40.526 120.813 40.769 120.813 41.066C120.813 41.633 122.919 44.981 123.351 45.791C123.945 45.035 126.402 42.227 126.591 41.255C126.672 40.877 126.294 40.553 125.916 40.445H129.048C128.805 40.499 128.562 40.553 128.346 40.634C127.698 40.823 123.972 45.386 123.459 46.061C124.35 47.438 126.645 51.569 127.725 52.406C128.076 52.676 128.508 52.865 128.94 53H123.729C124.107 52.865 124.242 52.541 124.242 52.163C124.242 51.623 122.298 48.302 121.866 47.735C120.921 48.815 118.977 51.083 118.518 52.163C118.383 52.514 118.68 52.865 119.058 53H116.061ZM136.395 53C132.291 53.027 130.104 51.866 130.104 49.193C130.104 46.493 132.804 45.116 136.584 45.224C137.313 45.251 138.069 45.44 138.636 45.602V44.603C138.636 42.686 138.393 40.337 135.774 40.337C134.397 40.337 133.884 41.12 133.533 41.876C133.479 41.957 133.452 42.038 133.398 42.119C133.371 42.227 133.317 42.308 133.236 42.389C133.155 42.524 133.101 42.659 132.993 42.794C132.858 43.01 132.642 43.145 132.237 43.145C131.67 43.145 131.4 42.875 131.4 42.335C131.4 40.661 134.775 40.148 136.044 40.148C137.178 40.148 139.068 40.472 139.932 41.201C140.796 42.038 141.093 43.172 141.093 44.333L141.066 49.193C141.066 50.057 141.093 51.758 141.39 52.352C141.633 52.73 141.984 52.919 142.362 53H136.395ZM136.53 45.44C133.074 45.44 132.48 47.384 132.48 49.193C132.48 51.002 132.966 52.838 136.395 52.838C136.962 52.838 137.772 52.838 138.15 52.433C138.15 52.406 138.177 52.379 138.204 52.325C138.528 51.677 138.582 50.03 138.582 49.004L138.609 45.764C138.096 45.629 137.394 45.44 136.53 45.44ZM143.064 33.398H143.091C144.198 33.29 146.088 33.209 147.222 33.209V48.437C147.222 49.328 147.222 51.569 147.573 52.298C147.816 52.703 148.194 52.892 148.572 53H143.388C143.739 52.892 144.144 52.703 144.36 52.325C144.738 51.623 144.765 49.328 144.765 48.437V37.934C144.765 37.178 144.765 34.64 144.387 34.127C144.279 33.884 144.144 33.803 143.928 33.695L143.901 33.668C143.631 33.506 143.415 33.425 143.064 33.398ZM151.296 41.525C150.891 40.985 150.513 40.472 149.865 40.337H154.023L153.861 45.521L153.834 48.059C153.834 49.706 154.023 52.919 156.912 52.892C158.802 52.865 160.071 51.569 160.8 50.435V48.059L160.854 45.872C160.881 42.983 161.043 42.551 160.584 41.552C160.206 41.012 159.801 40.499 159.18 40.364H163.23L163.068 45.845C163.041 48.734 162.987 50.948 163.446 51.947C163.824 52.487 164.31 52.784 164.958 52.919C163.824 53.027 162.069 53.135 160.773 53.135V51.029C159.99 52.163 158.64 53.27 156.75 53.243C153.294 53.216 151.593 51.164 151.62 48.437V45.548C151.647 42.659 151.728 42.524 151.296 41.525ZM166.339 43.361C166.339 40.823 169.201 39.581 171.685 39.689C172.684 39.743 174.493 40.121 175.438 40.526L175.465 41.147C175.465 41.876 175.411 42.578 175.357 43.28L175.195 43.307C174.952 41.606 173.44 40.013 171.145 40.013C169.687 40.013 168.526 41.201 168.526 42.794C168.526 46.169 176.275 45.116 176.275 49.733C176.275 52.487 173.116 53.756 170.551 53.675C168.823 53.621 167.662 53.108 166.636 52.46C166.609 52.055 166.609 51.65 166.609 51.245C166.609 50.813 166.609 50.408 166.636 49.976L166.825 49.949C167.176 51.785 168.58 53.405 171.01 53.297C172.819 53.216 174.115 52.19 174.088 50.435C174.034 46.979 166.339 48.194 166.339 43.361ZM20.7387 86C21.1167 85.919 21.4137 85.784 21.7377 85.541C22.4667 84.92 22.5207 81.059 22.5207 80.006V72.311C22.5207 71.285 22.4667 68.288 21.7377 67.64C21.4407 67.424 21.1707 67.289 20.8467 67.208H26.7867C26.2737 67.343 25.9227 67.667 25.7067 68.126C25.2477 68.936 25.2477 72.122 25.2477 73.175V78.359C28.7577 77.36 33.6987 71.177 33.6987 68.18C33.6987 67.775 33.5097 67.424 33.1587 67.235H33.1857L33.1047 67.208H37.5057C35.2647 67.64 34.2387 69.395 33.1317 71.231C31.6467 73.661 28.8657 77.765 25.2477 78.629C25.2477 79.817 25.1127 83.948 25.7067 85.055C25.9497 85.568 26.3277 85.865 26.8677 86H20.7387ZM28.2447 77.549C34.7517 77.549 33.1047 85.568 37.5597 85.352C38.6127 85.298 39.5037 84.164 39.5037 84.164C39.1527 85.163 37.2627 86 35.7507 86.027C30.8097 86.081 31.6197 78.386 28.2447 77.549ZM46.387 86.27C42.58 86.27 40.015 83.597 40.015 79.709C40.015 75.902 42.526 73.148 46.252 73.148C50.032 73.148 52.651 75.794 52.651 79.736C52.651 83.624 50.167 86.27 46.387 86.27ZM46.279 73.364C42.85 73.364 42.634 77.684 42.634 79.709C42.634 81.788 42.958 86.054 46.387 86.054C49.789 86.054 50.032 81.788 50.032 79.736C50.032 77.657 49.681 73.364 46.279 73.364ZM52.8219 73.337C56.2779 73.229 56.7099 71.069 56.8719 68.99H58.1409V73.202H61.7589V73.607H58.1409V84.002C58.1409 85.136 58.6269 85.568 59.2479 85.568C60.1389 85.568 61.3269 84.623 61.5429 83.705L61.7589 83.894C60.4899 86.297 59.1399 86.27 58.2219 86.27C56.8719 86.27 55.6029 85.136 55.6029 83.867V73.607H52.8219V73.337ZM62.4723 73.337C65.9283 73.229 66.3603 71.069 66.5223 68.99H67.7913V73.202H71.4093V73.607H67.7913V84.002C67.7913 85.136 68.2773 85.568 68.8983 85.568C69.7893 85.568 70.9773 84.623 71.1933 83.705L71.4093 83.894C70.1403 86.297 68.7903 86.27 67.8723 86.27C66.5223 86.27 65.2533 85.136 65.2533 83.867V73.607H62.4723V73.337ZM73.8777 74.336C73.5267 73.796 73.0137 73.499 72.3927 73.364C73.5267 73.256 75.4977 73.148 76.7667 73.148L76.7937 78.224L76.7667 81.977C76.7667 82.76 76.7667 84.731 77.1177 85.352C77.3337 85.73 77.7117 85.919 78.0897 86H72.9057C73.3377 85.919 73.6887 85.73 73.9047 85.325C74.3097 84.569 74.3097 82.517 74.3097 81.626C74.3097 78.062 74.4177 75.497 73.8777 74.336ZM75.3357 70.61C74.4447 70.61 73.7427 69.881 73.7427 69.017C73.7427 68.207 74.4447 67.505 75.3357 67.505C76.2807 67.505 76.9827 68.207 76.9827 69.017C76.9827 69.881 76.2807 70.61 75.3357 70.61ZM79.8552 77.684C79.8552 74.417 82.5822 73.148 85.8222 73.148C86.3352 73.148 86.8212 73.175 87.2802 73.229C87.7392 72.716 89.2512 71.042 91.5732 71.366C92.0322 71.447 92.4102 71.825 92.3292 72.284C92.1942 72.77 91.7892 73.256 91.2492 73.175C90.8442 73.121 90.6282 72.338 89.4132 72.365C88.6032 72.365 88.1442 72.77 87.6042 73.283C90.0342 73.688 91.8432 75.038 91.8432 77.684C91.8432 80.951 89.1162 82.22 85.8222 82.22C85.4442 82.22 85.1202 82.193 84.7692 82.166C83.9052 82.301 82.9062 82.679 82.9062 83.705C82.9062 86.027 92.7072 82.841 92.5452 88.808C92.4642 91.454 90.1962 93.803 86.0382 93.803C83.5812 93.803 79.9092 93.02 79.9092 89.996C79.9092 88.484 81.6102 87.458 83.0142 87.458C83.3112 87.458 83.6082 87.512 83.8782 87.62C83.2302 87.782 82.2042 88.889 82.2042 89.996C82.2042 92.021 83.3112 93.479 86.0922 93.533C88.8462 93.587 90.3042 91.913 90.3042 89.591C90.2772 84.758 81.2052 88.295 81.2592 84.515C81.2592 83.03 82.8252 82.517 83.9592 82.058C81.5832 81.626 79.8552 80.303 79.8552 77.684ZM82.4202 77.711C82.4202 80.303 83.6082 81.977 85.8222 81.977C88.0362 81.977 89.2242 80.303 89.2242 77.711C89.2242 75.146 88.0362 73.418 85.8222 73.418C83.6082 73.418 82.4202 75.146 82.4202 77.711ZM87.2802 73.229C87.2262 73.337 87.1722 73.391 87.1722 73.391L87.4692 73.418L87.6042 73.283C87.4962 73.283 87.3882 73.256 87.2802 73.229ZM94.523 79.871C94.523 75.902 96.98 73.148 101.057 73.148C104.864 73.148 107.24 75.794 107.321 79.574H97.304C97.304 82.706 97.844 85.919 101.84 85.919C103.649 85.919 105.782 84.704 106.862 82.922H107.051C106.133 85.055 103.568 86.27 101.408 86.27C97.439 86.27 94.523 83.84 94.523 79.871ZM101.192 73.418C98.249 73.418 97.547 77.225 97.331 79.304H104.675C104.594 77.279 104.297 73.418 101.192 73.418ZM107.982 66.425C109.143 66.317 111.114 66.209 112.383 66.209L112.41 75.2C113.328 74.174 115.164 73.067 116.892 73.067C120.321 73.067 122.022 75.146 122.022 77.873V81.68C122.022 82.49 122.076 84.731 122.427 85.352C122.67 85.703 122.994 85.892 123.399 86H118.215C118.62 85.892 118.944 85.703 119.187 85.325C119.538 84.677 119.565 82.274 119.565 81.437L119.538 78.251C119.538 76.604 119.619 73.472 116.73 73.472C114.975 73.472 113.166 74.633 112.41 75.713V78.224L112.383 81.977C112.383 82.76 112.383 84.731 112.734 85.352C112.95 85.73 113.328 85.919 113.706 86H108.522C108.927 85.919 109.305 85.73 109.548 85.325C109.926 84.569 109.926 82.517 109.926 81.626C109.926 78.062 110.034 68.558 109.521 67.397C109.143 66.857 108.63 66.56 107.982 66.425ZM130.581 86C126.477 86.027 124.29 84.866 124.29 82.193C124.29 79.493 126.99 78.116 130.77 78.224C131.499 78.251 132.255 78.44 132.822 78.602V77.603C132.822 75.686 132.579 73.337 129.96 73.337C128.583 73.337 128.07 74.12 127.719 74.876C127.665 74.957 127.638 75.038 127.584 75.119C127.557 75.227 127.503 75.308 127.422 75.389C127.341 75.524 127.287 75.659 127.179 75.794C127.044 76.01 126.828 76.145 126.423 76.145C125.856 76.145 125.586 75.875 125.586 75.335C125.586 73.661 128.961 73.148 130.23 73.148C131.364 73.148 133.254 73.472 134.118 74.201C134.982 75.038 135.279 76.172 135.279 77.333L135.252 82.193C135.252 83.057 135.279 84.758 135.576 85.352C135.819 85.73 136.17 85.919 136.548 86H130.581ZM130.716 78.44C127.26 78.44 126.666 80.384 126.666 82.193C126.666 84.002 127.152 85.838 130.581 85.838C131.148 85.838 131.958 85.838 132.336 85.433C132.336 85.406 132.363 85.379 132.39 85.325C132.714 84.677 132.768 83.03 132.768 82.004L132.795 78.764C132.282 78.629 131.58 78.44 130.716 78.44ZM137.439 73.364C138.924 73.229 140.382 73.148 141.84 73.148C141.84 74.228 141.84 75.308 141.867 76.361C142.353 74.714 143.946 73.256 145.755 73.256C146.403 73.256 147.564 73.472 147.564 74.282C147.564 74.849 147.213 75.2 146.781 75.2C145.701 75.227 145.566 74.174 144.297 74.282C142.38 74.444 141.894 78.359 141.84 79.682C141.813 81.572 141.813 84.704 142.191 85.352C142.407 85.703 142.758 85.919 143.163 86H137.979C138.411 85.919 138.789 85.703 138.978 85.325C139.518 84.461 139.383 79.979 139.383 78.737C139.383 77.873 139.41 75.038 138.951 74.336C138.654 73.823 138.033 73.499 137.439 73.364ZM148.022 79.871C148.022 75.902 150.479 73.148 154.556 73.148C158.363 73.148 160.739 75.794 160.82 79.574H150.803C150.803 82.706 151.343 85.919 155.339 85.919C157.148 85.919 159.281 84.704 160.361 82.922H160.55C159.632 85.055 157.067 86.27 154.907 86.27C150.938 86.27 148.022 83.84 148.022 79.871ZM154.691 73.418C151.748 73.418 151.046 77.225 150.83 79.304H158.174C158.093 77.279 157.796 73.418 154.691 73.418ZM163.128 74.336C162.75 73.796 162.237 73.499 161.589 73.364C162.75 73.256 164.721 73.148 165.99 73.148V75.2C166.908 74.201 168.717 73.067 170.499 73.067C173.928 73.067 175.629 75.416 175.629 78.143V81.68C175.629 82.49 175.683 84.731 176.034 85.352C176.277 85.703 176.601 85.892 177.006 86H171.822C172.227 85.892 172.578 85.703 172.794 85.325C173.145 84.677 173.172 82.274 173.172 81.437L173.145 78.521C173.145 76.874 173.226 73.472 170.337 73.472C168.609 73.472 166.773 74.633 165.99 75.686L166.017 78.224L165.99 81.977C165.99 82.76 165.99 84.731 166.341 85.352C166.557 85.73 166.935 85.919 167.313 86H162.129C162.561 85.919 162.912 85.73 163.155 85.325C163.533 84.569 163.533 82.517 163.533 81.626C163.533 78.062 163.641 75.497 163.128 74.336ZM178.297 76.361C178.297 73.823 181.159 72.581 183.643 72.689C184.642 72.743 186.451 73.121 187.396 73.526L187.423 74.147C187.423 74.876 187.369 75.578 187.315 76.28L187.153 76.307C186.91 74.606 185.398 73.013 183.103 73.013C181.645 73.013 180.484 74.201 180.484 75.794C180.484 79.169 188.233 78.116 188.233 82.733C188.233 85.487 185.074 86.756 182.509 86.675C180.781 86.621 179.62 86.108 178.594 85.46C178.567 85.055 178.567 84.65 178.567 84.245C178.567 83.813 178.567 83.408 178.594 82.976L178.783 82.949C179.134 84.785 180.538 86.405 182.968 86.297C184.777 86.216 186.073 85.19 186.046 83.435C185.992 79.979 178.297 81.194 178.297 76.361ZM190.816 74.336C190.465 73.796 189.952 73.499 189.331 73.364C190.465 73.256 192.436 73.148 193.705 73.148L193.732 78.224L193.705 81.977C193.705 82.76 193.705 84.731 194.056 85.352C194.272 85.73 194.65 85.919 195.028 86H189.844C190.276 85.919 190.627 85.73 190.843 85.325C191.248 84.569 191.248 82.517 191.248 81.626C191.248 78.062 191.356 75.497 190.816 74.336ZM192.274 70.61C191.383 70.61 190.681 69.881 190.681 69.017C190.681 68.207 191.383 67.505 192.274 67.505C193.219 67.505 193.921 68.207 193.921 69.017C193.921 69.881 193.219 70.61 192.274 70.61ZM197.334 76.361C197.334 73.823 200.196 72.581 202.68 72.689C203.679 72.743 205.488 73.121 206.433 73.526L206.46 74.147C206.46 74.876 206.406 75.578 206.352 76.28L206.19 76.307C205.947 74.606 204.435 73.013 202.14 73.013C200.682 73.013 199.521 74.201 199.521 75.794C199.521 79.169 207.27 78.116 207.27 82.733C207.27 85.487 204.111 86.756 201.546 86.675C199.818 86.621 198.657 86.108 197.631 85.46C197.604 85.055 197.604 84.65 197.604 84.245C197.604 83.813 197.604 83.408 197.631 82.976L197.82 82.949C198.171 84.785 199.575 86.405 202.005 86.297C203.814 86.216 205.11 85.19 205.083 83.435C205.029 79.979 197.334 81.194 197.334 76.361Z" fill="#3C6342"/>
</svg>
