<svg width="232" height="101" viewBox="0 0 232 101" fill="none" xmlns="http://www.w3.org/2000/svg">
<path d="M26.7948 1.83C27.1548 1.83 27.3348 1.956 27.3348 2.208V2.289C27.3348 2.487 27.1458 2.73 26.7678 3.018C26.3898 3.306 26.1198 3.657 25.9578 4.071L19.8288 20.082C19.5768 20.694 19.1718 21 18.6138 21C18.0558 21 17.6598 20.712 17.4258 20.136L14.7528 13.359L11.8638 20.082C11.5938 20.694 11.1348 21 10.4868 21C9.89282 21 9.46082 20.712 9.19082 20.136L2.38682 4.098C2.20682 3.684 1.91882 3.333 1.52282 3.045C1.12682 2.757 0.92882 2.514 0.92882 2.316V2.208C0.92882 1.956 1.10882 1.83 1.46882 1.83H6.13982C6.49982 1.83 6.67982 1.956 6.67982 2.208V2.316C6.67982 2.478 6.57182 2.631 6.35582 2.775C6.13982 2.919 5.95982 3.099 5.81582 3.315C5.67182 3.513 5.66282 3.774 5.78882 4.098L11.2158 17.409L13.8888 11.118L11.1078 4.071C10.9278 3.621 10.6668 3.261 10.3248 2.991C9.98282 2.703 9.81182 2.469 9.81182 2.289V2.208C9.81182 1.956 9.98282 1.83 10.3248 1.83H13.1868C13.5288 1.83 13.7628 2.001 13.8888 2.343L15.5898 7.068L17.6148 2.316C17.7588 1.992 18.0018 1.83 18.3438 1.83H19.9638C20.3238 1.83 20.5038 1.956 20.5038 2.208V2.289C20.5038 2.433 20.4318 2.559 20.2878 2.667C20.1618 2.757 20.0088 2.838 19.8288 2.91C19.6668 2.964 19.4868 3.081 19.2888 3.261C19.0908 3.441 18.9378 3.657 18.8298 3.909L16.4538 9.417L19.1808 16.977L24.0948 4.071C24.1848 3.837 24.1848 3.63 24.0948 3.45C24.0048 3.27 23.8788 3.135 23.7168 3.045C23.5728 2.955 23.4288 2.847 23.2848 2.721C23.1588 2.577 23.0958 2.442 23.0958 2.316V2.235C23.0958 1.965 23.2848 1.83 23.6628 1.83H26.7948ZM41.6324 18.705C41.6684 19.101 41.8394 19.461 42.1454 19.785C42.4514 20.091 42.6044 20.334 42.6044 20.514V20.622C42.6044 20.874 42.4154 21 42.0374 21H38.0684C37.6904 21 37.5014 20.874 37.5014 20.622V20.514C37.5014 20.352 37.6634 20.118 37.9874 19.812C38.3294 19.488 38.4914 19.128 38.4734 18.732L38.2034 13.386C38.0774 10.506 37.1324 9.066 35.3684 9.066C34.5224 9.066 33.8384 9.381 33.3164 10.011C32.7944 10.623 32.5334 11.424 32.5334 12.414V18.759C32.5334 19.137 32.7134 19.488 33.0734 19.812C33.4514 20.118 33.6404 20.352 33.6404 20.514V20.595C33.6404 20.865 33.4424 21 33.0464 21H28.8614C28.4834 21 28.2944 20.865 28.2944 20.595V20.514C28.2944 20.352 28.3844 20.199 28.5644 20.055C28.7444 19.893 28.9244 19.713 29.1044 19.515C29.2844 19.317 29.3744 19.065 29.3744 18.759V4.422C29.3744 4.098 29.2754 3.828 29.0774 3.612C28.8974 3.396 28.7084 3.225 28.5104 3.099C28.3304 2.955 28.2404 2.811 28.2404 2.667V2.586C28.2404 2.352 28.3934 2.163 28.6994 2.019L31.5884 0.749998C32.1644 0.497998 32.4524 0.641999 32.4524 1.182L32.4254 9.579C33.2894 8.373 34.5494 7.77 36.2054 7.77C37.5914 7.77 38.7614 8.238 39.7154 9.174C40.6694 10.11 41.2004 11.541 41.3084 13.467L41.6324 18.705ZM57.9959 9.039C57.9959 9.147 57.9059 9.282 57.7259 9.444C57.5459 9.588 57.3659 9.786 57.1859 10.038C57.0059 10.29 56.9159 10.587 56.9159 10.929V18.759C56.9159 19.155 57.0869 19.515 57.4289 19.839C57.7709 20.163 57.9419 20.397 57.9419 20.541V20.622C57.9419 20.874 57.7889 21 57.4829 21H54.6749C54.3329 21 54.1619 20.829 54.1619 20.487V19.407C53.2799 20.649 51.9839 21.27 50.2739 21.27C48.5459 21.27 47.0609 20.649 45.8189 19.407C44.5949 18.165 43.9829 16.527 43.9829 14.493C43.9829 12.531 44.5859 10.92 45.7919 9.66C47.0159 8.4 48.5279 7.77 50.3279 7.77C51.8939 7.77 53.1719 8.337 54.1619 9.471V8.472C54.1619 8.238 54.2519 8.067 54.4319 7.959C54.6119 7.851 54.8549 7.833 55.1609 7.905L57.5099 8.391C57.8339 8.481 57.9959 8.67 57.9959 8.958V9.039ZM51.0029 20.244C51.7409 20.244 52.3979 19.938 52.9739 19.326C53.5679 18.714 53.8649 17.859 53.8649 16.761V12.441C53.8649 11.541 53.5229 10.713 52.8389 9.957C52.1549 9.183 51.3539 8.796 50.4359 8.796C49.4279 8.796 48.6179 9.21 48.0059 10.038C47.3939 10.848 47.0789 11.964 47.0609 13.386C47.0249 15.276 47.3669 16.887 48.0869 18.219C48.8249 19.551 49.7969 20.226 51.0029 20.244ZM64.9872 21.27C63.8172 21.27 62.8902 20.901 62.2062 20.163C61.5402 19.407 61.2072 18.318 61.2072 16.896V9.363H59.6682C59.3622 9.363 59.2092 9.21 59.2092 8.904V8.526C59.2092 8.202 59.3622 8.04 59.6682 8.04H60.5052C61.1892 8.04 61.7382 7.806 62.1522 7.338C62.5842 6.87 62.8542 6.231 62.9622 5.421C63.0162 5.025 63.1962 4.827 63.5022 4.827H63.9072C64.2492 4.827 64.4202 5.025 64.4202 5.421L64.4472 8.04H67.8492C67.9932 8.04 68.1102 8.085 68.2002 8.175C68.2902 8.265 68.3352 8.382 68.3352 8.526V8.904C68.3352 9.21 68.1732 9.363 67.8492 9.363H64.4472V16.923C64.4472 17.553 64.5912 18.048 64.8792 18.408C65.1672 18.75 65.5362 18.921 65.9862 18.921C67.0662 18.921 67.7052 18.453 67.9032 17.517C67.9752 17.373 68.0832 17.283 68.2272 17.247C68.3712 17.211 68.4972 17.229 68.6052 17.301C68.7312 17.373 68.7942 17.49 68.7942 17.652C68.7942 18.624 68.4432 19.47 67.7412 20.19C67.0572 20.91 66.1392 21.27 64.9872 21.27ZM71.0415 8.607C70.8075 8.751 70.5915 8.724 70.3935 8.526C70.2135 8.31 70.2225 8.103 70.4205 7.905C71.3025 7.041 71.8065 6.249 71.9325 5.529C71.9865 5.223 71.8965 5.07 71.6625 5.07C71.2305 5.07 70.8615 4.89 70.5555 4.53C70.2675 4.17 70.1235 3.711 70.1235 3.153C70.1235 2.523 70.3035 2.01 70.6635 1.614C71.0415 1.218 71.5275 1.02 72.1215 1.02C72.7155 1.02 73.2105 1.245 73.6065 1.695C74.0205 2.127 74.2275 2.712 74.2275 3.45C74.2275 5.484 73.1655 7.203 71.0415 8.607ZM80.2105 21.243C78.5365 21.243 77.1775 20.928 76.1335 20.298C75.0895 19.65 74.5675 18.93 74.5675 18.138C74.5675 17.742 74.6845 17.436 74.9185 17.22C75.1705 17.004 75.5035 16.896 75.9175 16.896C76.2775 16.896 76.5745 17.013 76.8085 17.247C77.0605 17.481 77.2585 17.769 77.4025 18.111C77.5465 18.453 77.7085 18.795 77.8885 19.137C78.0865 19.461 78.3745 19.74 78.7525 19.974C79.1485 20.208 79.6345 20.325 80.2105 20.325C80.9485 20.325 81.5425 20.145 81.9925 19.785C82.4605 19.425 82.6945 18.912 82.6945 18.246C82.6945 17.58 82.4245 17.067 81.8845 16.707C81.3445 16.329 80.6875 16.05 79.9135 15.87C79.1575 15.69 78.3925 15.483 77.6185 15.249C76.8445 15.015 76.1875 14.601 75.6475 14.007C75.1075 13.395 74.8375 12.594 74.8375 11.604C74.8375 10.506 75.3325 9.597 76.3225 8.877C77.3125 8.139 78.5815 7.77 80.1295 7.77C81.7315 7.77 83.0275 8.103 84.0175 8.769C85.0255 9.417 85.5295 10.155 85.5295 10.983C85.5295 11.325 85.4125 11.604 85.1785 11.82C84.9445 12.036 84.6475 12.144 84.2875 12.144C83.9455 12.144 83.6575 12.027 83.4235 11.793C83.2075 11.559 83.0185 11.28 82.8565 10.956C82.7125 10.614 82.5505 10.281 82.3705 9.957C82.2085 9.615 81.9475 9.327 81.5875 9.093C81.2455 8.859 80.8135 8.742 80.2915 8.742C79.6435 8.742 79.1035 8.94 78.6715 9.336C78.2395 9.732 78.0235 10.227 78.0235 10.821C78.0235 11.487 78.2935 12.009 78.8335 12.387C79.3735 12.765 80.0215 13.053 80.7775 13.251C81.5515 13.431 82.3255 13.638 83.0995 13.872C83.8735 14.106 84.5305 14.52 85.0705 15.114C85.6105 15.708 85.8805 16.5 85.8805 17.49C85.8805 18.57 85.3585 19.47 84.3145 20.19C83.2885 20.892 81.9205 21.243 80.2105 21.243ZM93.832 20.622V20.541C93.832 20.397 93.994 20.172 94.318 19.866C94.66 19.542 94.831 19.182 94.831 18.786V4.071C94.831 3.675 94.66 3.324 94.318 3.018C93.994 2.694 93.832 2.451 93.832 2.289V2.208C93.832 1.956 94.021 1.83 94.399 1.83H98.611C98.989 1.83 99.178 1.956 99.178 2.208V2.289C99.178 2.451 98.998 2.694 98.638 3.018C98.278 3.324 98.098 3.675 98.098 4.071V18.786C98.098 19.182 98.278 19.542 98.638 19.866C98.998 20.172 99.178 20.397 99.178 20.541V20.622C99.178 20.874 98.989 21 98.611 21H94.399C94.021 21 93.832 20.874 93.832 20.622ZM114.833 18.732C114.851 19.128 115.013 19.488 115.319 19.812C115.643 20.118 115.805 20.352 115.805 20.514V20.622C115.805 20.892 115.607 21.027 115.211 21.027H111.269C110.873 21.027 110.675 20.892 110.675 20.622V20.514C110.675 20.352 110.837 20.118 111.161 19.812C111.503 19.488 111.665 19.128 111.647 18.732L111.377 13.521C111.251 10.551 110.306 9.066 108.542 9.066C107.696 9.066 107.012 9.381 106.49 10.011C105.968 10.623 105.707 11.424 105.707 12.414V18.759C105.707 19.155 105.887 19.506 106.247 19.812C106.625 20.118 106.814 20.352 106.814 20.514V20.622C106.814 20.892 106.616 21.027 106.22 21.027H102.035C101.657 21.027 101.468 20.892 101.468 20.622V20.514C101.468 20.352 101.648 20.118 102.008 19.812C102.368 19.506 102.548 19.155 102.548 18.759V11.523C102.548 11.181 102.44 10.902 102.224 10.686C102.026 10.47 101.828 10.299 101.63 10.173C101.432 10.029 101.333 9.876 101.333 9.714V9.633C101.333 9.453 101.495 9.291 101.819 9.147L104.438 7.878C104.726 7.752 104.933 7.743 105.059 7.851C105.203 7.941 105.275 8.112 105.275 8.364V10.119C105.653 9.381 106.202 8.805 106.922 8.391C107.642 7.977 108.461 7.77 109.379 7.77C110.765 7.77 111.935 8.247 112.889 9.201C113.843 10.155 114.383 11.631 114.509 13.629L114.833 18.732ZM121.948 21C121.57 21 121.381 20.874 121.381 20.622V20.541C121.381 20.361 121.57 20.127 121.948 19.839C122.326 19.533 122.596 19.173 122.758 18.759L128.428 4.206C128.554 3.882 128.428 3.513 128.05 3.099C127.672 2.685 127.483 2.415 127.483 2.289V2.208C127.483 1.956 127.654 1.83 127.996 1.83H132.208C132.55 1.83 132.721 1.956 132.721 2.208V2.289C132.721 2.433 132.613 2.595 132.397 2.775C132.181 2.955 131.992 3.162 131.83 3.396C131.686 3.612 131.668 3.855 131.776 4.125L138.175 18.759C138.337 19.155 138.607 19.506 138.985 19.812C139.363 20.118 139.552 20.361 139.552 20.541V20.622C139.552 20.874 139.363 21 138.985 21H134.395C134.017 21 133.828 20.874 133.828 20.622V20.541C133.828 20.415 133.9 20.289 134.044 20.163C134.188 20.037 134.332 19.92 134.476 19.812C134.62 19.704 134.737 19.56 134.827 19.38C134.935 19.2 134.935 18.993 134.827 18.759L133.747 16.086H125.593L124.594 18.759C124.468 19.065 124.486 19.326 124.648 19.542C124.828 19.74 125.026 19.92 125.242 20.082C125.476 20.244 125.593 20.397 125.593 20.541V20.622C125.593 20.874 125.395 21 124.999 21H121.948ZM126.133 14.628H133.234L129.535 5.529L126.133 14.628ZM162.997 1.83C163.393 1.83 163.591 1.956 163.591 2.208V2.289C163.591 2.433 163.402 2.667 163.024 2.991C162.646 3.315 162.457 3.675 162.457 4.071V20.082C162.457 20.694 162.169 21 161.593 21H160.621C160.261 21 159.901 20.748 159.541 20.244L148.687 5.556V18.705C148.687 19.083 148.885 19.443 149.281 19.785C149.677 20.127 149.875 20.379 149.875 20.541V20.622C149.875 20.874 149.677 21 149.281 21H146.5C146.104 21 145.906 20.874 145.906 20.622V20.541C145.906 20.379 146.077 20.127 146.419 19.785C146.779 19.443 146.959 19.083 146.959 18.705V4.098C146.959 3.702 146.779 3.342 146.419 3.018C146.077 2.694 145.906 2.451 145.906 2.289V2.208C145.906 1.956 146.104 1.83 146.5 1.83H151.279C151.621 1.83 151.792 1.956 151.792 2.208V2.289C151.792 2.397 151.684 2.55 151.468 2.748C151.27 2.928 151.126 3.108 151.036 3.288C150.964 3.45 151.036 3.72 151.252 4.098L160.729 17.031V4.071C160.729 3.675 160.54 3.315 160.162 2.991C159.784 2.667 159.595 2.433 159.595 2.289V2.208C159.595 1.956 159.793 1.83 160.189 1.83H162.997ZM179.232 9.039C179.232 9.147 179.142 9.282 178.962 9.444C178.782 9.588 178.602 9.786 178.422 10.038C178.242 10.29 178.152 10.587 178.152 10.929V18.759C178.152 19.155 178.323 19.515 178.665 19.839C179.007 20.163 179.178 20.397 179.178 20.541V20.622C179.178 20.874 179.025 21 178.719 21H175.911C175.569 21 175.398 20.829 175.398 20.487V19.407C174.516 20.649 173.22 21.27 171.51 21.27C169.782 21.27 168.297 20.649 167.055 19.407C165.831 18.165 165.219 16.527 165.219 14.493C165.219 12.531 165.822 10.92 167.028 9.66C168.252 8.4 169.764 7.77 171.564 7.77C173.13 7.77 174.408 8.337 175.398 9.471V8.472C175.398 8.238 175.488 8.067 175.668 7.959C175.848 7.851 176.091 7.833 176.397 7.905L178.746 8.391C179.07 8.481 179.232 8.67 179.232 8.958V9.039ZM172.239 20.244C172.977 20.244 173.634 19.938 174.21 19.326C174.804 18.714 175.101 17.859 175.101 16.761V12.441C175.101 11.541 174.759 10.713 174.075 9.957C173.391 9.183 172.59 8.796 171.672 8.796C170.664 8.796 169.854 9.21 169.242 10.038C168.63 10.848 168.315 11.964 168.297 13.386C168.261 15.276 168.603 16.887 169.323 18.219C170.061 19.551 171.033 20.226 172.239 20.244ZM203.206 18.732C203.224 19.128 203.386 19.488 203.692 19.812C204.016 20.136 204.178 20.379 204.178 20.541V20.649C204.178 20.901 203.989 21.027 203.611 21.027H199.642C199.264 21.027 199.075 20.901 199.075 20.649V20.541C199.075 20.379 199.237 20.145 199.561 19.839C199.885 19.515 200.038 19.155 200.02 18.759L199.75 13.656C199.678 12.036 199.399 10.866 198.913 10.146C198.445 9.426 197.77 9.066 196.888 9.066C196.15 9.066 195.52 9.372 194.998 9.984C194.494 10.578 194.224 11.334 194.188 12.252C194.26 12.612 194.296 13.044 194.296 13.548V18.759C194.296 19.155 194.449 19.515 194.755 19.839C195.079 20.145 195.241 20.379 195.241 20.541V20.649C195.241 20.901 195.052 21.027 194.674 21.027H190.759C190.363 21.027 190.165 20.901 190.165 20.649V20.541C190.165 20.379 190.318 20.145 190.624 19.839C190.948 19.515 191.11 19.155 191.11 18.759V13.359C191.11 12.009 190.84 10.956 190.3 10.2C189.778 9.444 189.103 9.066 188.275 9.066C187.465 9.066 186.799 9.372 186.277 9.984C185.755 10.578 185.476 11.343 185.44 12.279L185.467 18.759C185.467 19.155 185.647 19.515 186.007 19.839C186.367 20.145 186.547 20.379 186.547 20.541V20.649C186.547 20.901 186.358 21.027 185.98 21.027H181.795C181.399 21.027 181.201 20.901 181.201 20.649V20.541C181.201 20.379 181.381 20.145 181.741 19.839C182.101 19.515 182.281 19.155 182.281 18.759V11.523C182.281 11.199 182.182 10.929 181.984 10.713C181.786 10.497 181.588 10.317 181.39 10.173C181.192 10.029 181.093 9.876 181.093 9.714V9.633C181.093 9.453 181.255 9.291 181.579 9.147L184.333 7.878C184.621 7.752 184.837 7.743 184.981 7.851C185.125 7.941 185.197 8.112 185.197 8.364V9.957C185.593 9.291 186.124 8.76 186.79 8.364C187.474 7.968 188.23 7.77 189.058 7.77C190.048 7.77 190.939 8.004 191.731 8.472C192.541 8.94 193.171 9.597 193.621 10.443C193.963 9.597 194.512 8.94 195.268 8.472C196.024 8.004 196.879 7.77 197.833 7.77C199.237 7.77 200.389 8.247 201.289 9.201C202.207 10.137 202.738 11.649 202.882 13.737L203.206 18.732ZM216.659 17.031C216.803 16.833 216.983 16.761 217.199 16.815C217.433 16.869 217.541 17.031 217.523 17.301C217.379 18.273 216.848 19.182 215.93 20.028C215.012 20.856 213.788 21.27 212.258 21.27C210.26 21.27 208.64 20.64 207.398 19.38C206.156 18.12 205.535 16.464 205.535 14.412C205.535 12.468 206.156 10.884 207.398 9.66C208.64 8.418 210.197 7.788 212.069 7.77C213.527 7.752 214.715 8.067 215.633 8.715C216.569 9.363 217.037 10.272 217.037 11.442C217.037 12.414 216.632 13.242 215.822 13.926C215.03 14.61 213.986 15.096 212.69 15.384C211.628 15.618 210.323 15.663 208.775 15.519C209.117 16.599 209.666 17.454 210.422 18.084C211.178 18.696 212.069 19.002 213.095 19.002C213.959 19.002 214.697 18.822 215.309 18.462C215.921 18.084 216.371 17.607 216.659 17.031ZM211.61 8.85C210.674 8.85 209.909 9.255 209.315 10.065C208.721 10.857 208.424 11.847 208.424 13.035C208.424 13.485 208.451 13.917 208.505 14.331C209.855 14.439 211.052 14.385 212.096 14.169C212.708 14.025 213.185 13.755 213.527 13.359C213.869 12.945 214.031 12.306 214.013 11.442C213.995 10.722 213.761 10.11 213.311 9.606C212.879 9.102 212.312 8.85 211.61 8.85ZM222.911 15.411C222.785 14.637 222.866 13.917 223.154 13.251C223.46 12.585 223.865 12.009 224.369 11.523C224.891 11.037 225.413 10.551 225.935 10.065C226.457 9.579 226.907 9.012 227.285 8.364C227.681 7.698 227.879 6.987 227.879 6.231C227.879 5.205 227.582 4.395 226.988 3.801C226.394 3.207 225.701 2.91 224.909 2.91C224.279 2.91 223.748 3.072 223.316 3.396C222.884 3.72 222.551 4.116 222.317 4.584C222.083 5.052 221.867 5.529 221.669 6.015C221.489 6.483 221.255 6.879 220.967 7.203C220.679 7.527 220.328 7.689 219.914 7.689C219.428 7.689 219.032 7.554 218.726 7.284C218.42 6.996 218.267 6.609 218.267 6.123C218.267 5.061 218.897 4.035 220.157 3.045C221.435 2.055 222.974 1.56 224.774 1.56C226.628 1.56 228.14 1.983 229.31 2.829C230.498 3.675 231.092 4.926 231.092 6.582C231.092 7.446 230.885 8.229 230.471 8.931C230.075 9.633 229.589 10.218 229.013 10.686C228.455 11.154 227.888 11.613 227.312 12.063C226.736 12.495 226.241 12.999 225.827 13.575C225.431 14.133 225.233 14.745 225.233 15.411C225.233 15.663 225.053 15.843 224.693 15.951C224.351 16.059 223.982 16.068 223.586 15.978C223.208 15.87 222.983 15.681 222.911 15.411ZM225.53 20.838C225.152 21.162 224.675 21.324 224.099 21.324C223.523 21.324 223.037 21.162 222.641 20.838C222.263 20.514 222.074 20.064 222.074 19.488C222.074 18.876 222.263 18.408 222.641 18.084C223.019 17.76 223.505 17.598 224.099 17.598C224.693 17.598 225.179 17.76 225.557 18.084C225.935 18.408 226.124 18.876 226.124 19.488C226.124 20.064 225.926 20.514 225.53 20.838Z" fill="black"/>
<path d="M71.9236 55.03C72.0136 55.462 72.2206 55.903 72.5446 56.353C72.8686 56.803 73.0306 57.145 73.0306 57.379V57.487C73.0306 57.829 72.8146 58 72.3826 58H66.7666C66.3346 58 66.1186 57.829 66.1186 57.487V57.379C66.1186 57.181 66.2896 56.857 66.6316 56.407C66.9916 55.939 67.1356 55.48 67.0636 55.03L65.4436 45.553L61.3126 57.19C61.1326 57.712 60.8086 57.973 60.3406 57.973C59.8006 57.973 59.4316 57.721 59.2336 57.217L54.4546 45.067L53.0236 55.03C52.9516 55.498 53.0956 55.957 53.4556 56.407C53.8156 56.857 53.9956 57.181 53.9956 57.379V57.487C53.9956 57.829 53.7796 58 53.3476 58H49.9996C49.5676 58 49.3516 57.829 49.3516 57.487V57.379C49.3516 57.145 49.5136 56.803 49.8376 56.353C50.1796 55.903 50.3866 55.462 50.4586 55.03L52.5106 41.8C52.5826 41.332 52.4206 40.873 52.0246 40.423C51.6466 39.973 51.4576 39.649 51.4576 39.451V39.343C51.4576 39.001 51.6646 38.83 52.0786 38.83H57.9646C58.3786 38.83 58.5856 39.001 58.5856 39.343V39.451C58.5856 39.595 58.4866 39.793 58.2886 40.045C58.1086 40.297 57.9466 40.576 57.8026 40.882C57.6766 41.188 57.6766 41.512 57.8026 41.854L61.0156 51.196L64.2016 41.638C64.3096 41.332 64.2826 41.044 64.1206 40.774C63.9586 40.486 63.7696 40.234 63.5536 40.018C63.3556 39.784 63.2566 39.595 63.2566 39.451V39.343C63.2566 39.001 63.4636 38.83 63.8776 38.83H69.8716C70.2856 38.83 70.4926 39.001 70.4926 39.343V39.451C70.4926 39.631 70.2946 39.955 69.8986 40.423C69.5026 40.891 69.3496 41.368 69.4396 41.854L71.9236 55.03ZM77.6299 43.447C76.7119 43.447 75.9649 43.195 75.3889 42.691C74.8129 42.169 74.5249 41.521 74.5249 40.747C74.5249 39.973 74.8129 39.334 75.3889 38.83C75.9649 38.308 76.7119 38.047 77.6299 38.047C78.5299 38.047 79.2679 38.308 79.8439 38.83C80.4199 39.334 80.7079 39.973 80.7079 40.747C80.7079 41.521 80.4199 42.169 79.8439 42.691C79.2679 43.195 78.5299 43.447 77.6299 43.447ZM74.7409 58C74.3089 58 74.0929 57.829 74.0929 57.487V57.379C74.0929 57.163 74.2729 56.83 74.6329 56.38C74.9929 55.93 75.1729 55.48 75.1729 55.03V49.9C75.1729 49.432 74.9929 48.982 74.6329 48.55C74.2729 48.1 74.0929 47.794 74.0929 47.632V47.524C74.0929 47.308 74.2999 47.101 74.7139 46.903L78.7909 44.905C79.1689 44.743 79.4659 44.725 79.6819 44.851C79.8979 44.977 80.0059 45.184 80.0059 45.472V55.03C80.0059 55.48 80.2039 55.93 80.5999 56.38C81.0139 56.83 81.2209 57.163 81.2209 57.379V57.487C81.2209 57.829 80.9959 58 80.5459 58H74.7409ZM89.2283 58.27C87.1763 58.27 85.4933 57.604 84.1793 56.272C82.8653 54.922 82.2083 53.329 82.2083 51.493C82.2083 49.459 82.8743 47.839 84.2063 46.633C85.5383 45.409 87.1583 44.788 89.0663 44.77C90.6683 44.752 92.0273 45.121 93.1433 45.877C94.2593 46.615 94.8173 47.578 94.8173 48.766C94.8173 49.216 94.6553 49.594 94.3313 49.9C94.0253 50.206 93.5303 50.35 92.8463 50.332C92.2343 50.296 91.7033 50.053 91.2533 49.603C90.8213 49.153 90.5063 48.667 90.3083 48.145C90.1103 47.623 89.8403 47.155 89.4983 46.741C89.1563 46.309 88.7693 46.093 88.3373 46.093C87.7793 46.111 87.3203 46.408 86.9603 46.984C86.6183 47.56 86.4473 48.271 86.4473 49.117C86.4473 50.881 86.8433 52.294 87.6353 53.356C88.4453 54.418 89.5163 54.949 90.8483 54.949C92.0543 54.949 93.0533 54.427 93.8453 53.383C94.0253 53.167 94.2413 53.095 94.4933 53.167C94.7453 53.221 94.8713 53.392 94.8713 53.68C94.8353 54.94 94.3223 56.02 93.3323 56.92C92.3423 57.82 90.9743 58.27 89.2283 58.27ZM105.126 44.77C105.9 44.77 106.512 45.022 106.962 45.526C107.43 46.03 107.664 46.669 107.664 47.443C107.664 49.135 106.971 49.981 105.585 49.981C105.027 49.981 104.604 49.855 104.316 49.603C104.028 49.333 103.857 49.036 103.803 48.712C103.767 48.388 103.677 48.1 103.533 47.848C103.389 47.578 103.173 47.443 102.885 47.443C102.219 47.443 101.886 48.307 101.886 50.035V55.057C101.886 55.507 102.12 55.957 102.588 56.407C103.074 56.839 103.317 57.163 103.317 57.379V57.487C103.317 57.829 103.101 58 102.669 58H96.8643C96.4323 58 96.2163 57.829 96.2163 57.487V57.379C96.2163 57.163 96.3963 56.839 96.7563 56.407C97.1163 55.957 97.2963 55.507 97.2963 55.057V49.684C97.2963 49.324 97.1883 49.018 96.9723 48.766C96.7563 48.514 96.5403 48.298 96.3243 48.118C96.1083 47.938 96.0003 47.74 96.0003 47.524V47.443C96.0003 47.137 96.2073 46.876 96.6213 46.66L100.428 44.878C100.788 44.752 101.04 44.743 101.184 44.851C101.328 44.959 101.4 45.166 101.4 45.472V47.443C102.012 45.661 103.254 44.77 105.126 44.77ZM111.96 43.447C111.042 43.447 110.295 43.195 109.719 42.691C109.143 42.169 108.855 41.521 108.855 40.747C108.855 39.973 109.143 39.334 109.719 38.83C110.295 38.308 111.042 38.047 111.96 38.047C112.86 38.047 113.598 38.308 114.174 38.83C114.75 39.334 115.038 39.973 115.038 40.747C115.038 41.521 114.75 42.169 114.174 42.691C113.598 43.195 112.86 43.447 111.96 43.447ZM109.071 58C108.639 58 108.423 57.829 108.423 57.487V57.379C108.423 57.163 108.603 56.83 108.963 56.38C109.323 55.93 109.503 55.48 109.503 55.03V49.9C109.503 49.432 109.323 48.982 108.963 48.55C108.603 48.1 108.423 47.794 108.423 47.632V47.524C108.423 47.308 108.63 47.101 109.044 46.903L113.121 44.905C113.499 44.743 113.796 44.725 114.012 44.851C114.228 44.977 114.336 45.184 114.336 45.472V55.03C114.336 55.48 114.534 55.93 114.93 56.38C115.344 56.83 115.551 57.163 115.551 57.379V57.487C115.551 57.829 115.326 58 114.876 58H109.071ZM129.093 55.03C129.291 55.264 129.57 55.543 129.93 55.867C130.308 56.191 130.596 56.47 130.794 56.704C130.992 56.938 131.091 57.163 131.091 57.379V57.487C131.091 57.829 130.884 58 130.47 58H124.233C123.837 58 123.639 57.82 123.639 57.46V57.352C123.639 57.208 123.72 57.055 123.882 56.893C124.044 56.731 124.197 56.596 124.341 56.488C124.503 56.362 124.566 56.164 124.53 55.894C124.512 55.624 124.35 55.309 124.044 54.949L122.505 53.086L120.777 55.138C120.525 55.444 120.39 55.723 120.372 55.975C120.354 56.209 120.408 56.389 120.534 56.515C120.66 56.641 120.786 56.785 120.912 56.947C121.056 57.091 121.128 57.226 121.128 57.352V57.46C121.128 57.82 120.921 58 120.507 58H116.484C116.07 58 115.863 57.829 115.863 57.487V57.379C115.863 57.163 115.971 56.956 116.187 56.758C116.403 56.542 116.727 56.272 117.159 55.948C117.591 55.624 117.951 55.309 118.239 55.003L121.371 51.763L118.266 48.037C117.942 47.641 117.591 47.29 117.213 46.984C116.835 46.66 116.565 46.417 116.403 46.255C116.259 46.093 116.187 45.895 116.187 45.661V45.553C116.187 45.211 116.394 45.04 116.808 45.04H123.072C123.468 45.04 123.666 45.22 123.666 45.58V45.688C123.666 45.868 123.576 46.111 123.396 46.417C123.234 46.723 123.126 46.975 123.072 47.173C123.036 47.371 123.144 47.677 123.396 48.091L124.962 50.008L126.69 48.091C126.978 47.659 127.077 47.344 126.987 47.146C126.915 46.93 126.762 46.678 126.528 46.39C126.294 46.102 126.177 45.868 126.177 45.688V45.58C126.177 45.22 126.384 45.04 126.798 45.04H130.2C130.596 45.04 130.794 45.211 130.794 45.553V45.661C130.794 45.895 130.713 46.12 130.551 46.336C130.389 46.534 130.128 46.804 129.768 47.146C129.426 47.488 129.147 47.785 128.931 48.037L126.096 51.385L129.093 55.03ZM145.973 46.309C145.973 46.453 145.874 46.624 145.676 46.822C145.478 47.02 145.28 47.281 145.082 47.605C144.884 47.929 144.785 48.307 144.785 48.739V55.057C144.785 55.507 144.965 55.957 145.325 56.407C145.685 56.839 145.865 57.163 145.865 57.379V57.487C145.865 57.829 145.667 58 145.271 58H141.41C141.212 58 141.041 57.937 140.897 57.811C140.771 57.685 140.708 57.523 140.708 57.325V57.082C139.88 57.874 138.782 58.27 137.414 58.27C135.668 58.27 134.165 57.676 132.905 56.488C131.663 55.282 131.042 53.626 131.042 51.52C131.042 49.558 131.672 47.947 132.932 46.687C134.192 45.409 135.695 44.77 137.441 44.77C138.773 44.77 139.862 45.148 140.708 45.904V45.742C140.708 45.454 140.825 45.238 141.059 45.094C141.293 44.95 141.608 44.905 142.004 44.959L145.325 45.445C145.757 45.499 145.973 45.751 145.973 46.201V46.309ZM138.494 56.947C138.98 56.965 139.385 56.767 139.709 56.353C140.051 55.939 140.222 55.381 140.222 54.679V49.468C140.222 48.496 139.979 47.695 139.493 47.065C139.007 46.417 138.44 46.093 137.792 46.093C136.46 46.093 135.749 47.2 135.659 49.414C135.623 50.26 135.695 51.241 135.875 52.357C136.073 53.473 136.397 54.517 136.847 55.489C137.315 56.443 137.864 56.929 138.494 56.947ZM147.878 58C147.464 58 147.257 57.829 147.257 57.487V57.379C147.257 57.163 147.428 56.839 147.77 56.407C148.13 55.957 148.31 55.507 148.31 55.057V42.718C148.31 42.25 148.13 41.8 147.77 41.368C147.428 40.918 147.257 40.603 147.257 40.423V40.315C147.257 40.117 147.455 39.91 147.851 39.694L151.928 37.696C152.306 37.534 152.603 37.525 152.819 37.669C153.053 37.795 153.17 37.993 153.17 38.263V55.057C153.17 55.507 153.368 55.957 153.764 56.407C154.16 56.839 154.358 57.163 154.358 57.379V57.487C154.358 57.829 154.142 58 153.71 58H147.878ZM169.336 55.03C169.336 55.516 169.39 55.885 169.498 56.137C169.624 56.389 169.759 56.533 169.903 56.569C170.065 56.587 170.2 56.65 170.308 56.758C170.434 56.866 170.497 57.037 170.497 57.271C170.497 57.613 170.263 57.847 169.795 57.973C169.345 58.099 168.652 58.162 167.716 58.162C166.87 58.162 166.249 58.045 165.853 57.811C165.475 57.577 165.25 57.172 165.178 56.596C164.458 57.712 163.189 58.27 161.371 58.27C159.931 58.27 158.725 57.802 157.753 56.866C156.799 55.912 156.322 54.607 156.322 52.951V48.442C156.322 47.974 156.142 47.524 155.782 47.092C155.422 46.66 155.242 46.354 155.242 46.174V46.066C155.242 45.706 155.449 45.499 155.863 45.445L159.886 44.905C160.732 44.797 161.155 44.977 161.155 45.445L161.074 53.437C161.056 54.517 161.182 55.3 161.452 55.786C161.74 56.254 162.19 56.488 162.802 56.488C163.306 56.488 163.729 56.245 164.071 55.759C164.413 55.255 164.584 54.598 164.584 53.788V48.442C164.584 47.974 164.404 47.524 164.044 47.092C163.684 46.66 163.504 46.354 163.504 46.174V46.066C163.504 45.706 163.711 45.499 164.125 45.445L168.148 44.905C168.94 44.797 169.336 44.977 169.336 45.445V55.03ZM177.509 58.243C175.781 58.243 174.359 57.955 173.243 57.379C172.127 56.785 171.569 56.02 171.569 55.084C171.569 54.508 171.74 54.076 172.082 53.788C172.442 53.5 172.91 53.356 173.486 53.356C174.098 53.356 174.584 53.554 174.944 53.95C175.304 54.328 175.547 54.751 175.673 55.219C175.799 55.669 176.015 56.092 176.321 56.488C176.627 56.866 177.023 57.055 177.509 57.055C178.481 57.055 178.967 56.56 178.967 55.57C178.967 54.922 178.715 54.409 178.211 54.031C177.725 53.653 177.131 53.365 176.429 53.167C175.727 52.969 175.025 52.744 174.323 52.492C173.639 52.24 173.045 51.817 172.541 51.223C172.055 50.629 171.812 49.846 171.812 48.874C171.812 47.668 172.343 46.687 173.405 45.931C174.467 45.157 175.835 44.77 177.509 44.77C179.183 44.77 180.542 45.085 181.586 45.715C182.648 46.345 183.179 47.11 183.179 48.01C183.179 48.478 182.999 48.874 182.639 49.198C182.297 49.504 181.874 49.657 181.37 49.657C180.776 49.657 180.308 49.468 179.966 49.09C179.624 48.712 179.39 48.298 179.264 47.848C179.156 47.38 178.976 46.957 178.724 46.579C178.49 46.201 178.166 46.012 177.752 46.012C177.356 46.012 177.041 46.165 176.807 46.471C176.591 46.777 176.483 47.137 176.483 47.551C176.483 48.217 176.717 48.757 177.185 49.171C177.671 49.585 178.247 49.9 178.913 50.116C179.597 50.332 180.272 50.566 180.938 50.818C181.622 51.07 182.198 51.484 182.666 52.06C183.152 52.618 183.395 53.356 183.395 54.274C183.395 55.426 182.864 56.38 181.802 57.136C180.758 57.874 179.327 58.243 177.509 58.243ZM32.8736 91.247C32.9636 91.859 33.2516 92.489 33.7376 93.137C34.2416 93.767 34.4936 94.181 34.4936 94.379V94.487C34.4936 94.829 34.2776 95 33.8456 95H27.2036C26.7716 95 26.5556 94.829 26.5556 94.487V94.379C26.5556 94.181 26.7626 93.875 27.1766 93.461C27.5906 93.029 27.7886 92.552 27.7706 92.03C27.7706 90.986 27.3836 89.798 26.6096 88.466C25.8536 87.116 24.9446 86.108 23.8826 85.442L21.5336 87.845V92.03C21.5336 92.48 21.7316 92.93 22.1276 93.38C22.5236 93.83 22.7216 94.163 22.7216 94.379V94.487C22.7216 94.829 22.5056 95 22.0736 95H16.1876C15.7556 95 15.5396 94.829 15.5396 94.487V94.379C15.5396 94.163 15.7196 93.83 16.0796 93.38C16.4396 92.93 16.6196 92.48 16.6196 92.03V78.773C16.6196 78.323 16.4396 77.882 16.0796 77.45C15.7196 77 15.5396 76.667 15.5396 76.451V76.343C15.5396 76.001 15.7556 75.83 16.1876 75.83H22.0736C22.5056 75.83 22.7216 76.001 22.7216 76.343V76.451C22.7216 76.667 22.5236 77 22.1276 77.45C21.7316 77.882 21.5336 78.323 21.5336 78.773V84.929L27.5006 78.8C27.8066 78.386 27.9416 78.089 27.9056 77.909C27.8696 77.711 27.7526 77.468 27.5546 77.18C27.3746 76.874 27.2846 76.631 27.2846 76.451V76.343C27.2846 76.001 27.5006 75.83 27.9326 75.83H32.3336C32.7656 75.83 32.9816 76.001 32.9816 76.343V76.451C32.9816 76.667 32.8556 76.883 32.6036 77.099C32.3696 77.297 32.0276 77.549 31.5776 77.855C31.1276 78.161 30.7496 78.476 30.4436 78.8L27.1226 82.175C28.7606 83.183 30.0746 84.578 31.0646 86.36C32.0726 88.124 32.6756 89.753 32.8736 91.247ZM41.9112 95.27C39.8232 95.27 38.0502 94.631 36.5922 93.353C35.1522 92.057 34.4322 90.437 34.4322 88.493C34.4322 86.549 35.1522 84.947 36.5922 83.687C38.0322 82.409 39.7422 81.77 41.7222 81.77C43.7742 81.77 45.5202 82.409 46.9602 83.687C48.4002 84.965 49.1202 86.585 49.1202 88.547C49.1202 90.491 48.4182 92.102 47.0142 93.38C45.6102 94.64 43.9092 95.27 41.9112 95.27ZM42.4782 93.947C43.6302 93.947 44.2062 92.84 44.2062 90.626C44.2062 89.816 44.0892 88.853 43.8552 87.737C43.6392 86.621 43.2612 85.568 42.7212 84.578C42.1992 83.588 41.6142 83.093 40.9662 83.093C40.3362 83.093 39.8862 83.372 39.6162 83.93C39.3462 84.488 39.2112 85.334 39.2112 86.468C39.2112 87.062 39.2832 87.764 39.4272 88.574C39.5712 89.384 39.7692 90.203 40.0212 91.031C40.2732 91.841 40.6152 92.534 41.0472 93.11C41.4972 93.668 41.9742 93.947 42.4782 93.947ZM55.8711 95.27C54.5031 95.27 53.4231 94.838 52.6311 93.974C51.8571 93.11 51.4701 91.877 51.4701 90.275V83.876H50.4441C50.2641 83.876 50.1111 83.822 49.9851 83.714C49.8771 83.588 49.8231 83.435 49.8231 83.255V82.661C49.8231 82.247 50.0301 82.04 50.4441 82.04H50.9571C51.7851 82.04 52.4961 81.797 53.0901 81.311C53.6841 80.807 54.0711 80.141 54.2511 79.313C54.3411 78.845 54.5841 78.611 54.9801 78.611H55.6011C56.0871 78.611 56.3301 78.845 56.3301 79.313V82.04H59.1111C59.2911 82.04 59.4351 82.103 59.5431 82.229C59.6691 82.337 59.7321 82.481 59.7321 82.661V83.255C59.7321 83.435 59.6691 83.588 59.5431 83.714C59.4351 83.822 59.2911 83.876 59.1111 83.876H56.3301V90.356C56.3301 90.806 56.4471 91.166 56.6811 91.436C56.9151 91.688 57.2031 91.814 57.5451 91.814C58.3191 91.814 58.9131 91.481 59.3271 90.815C59.4531 90.653 59.5971 90.563 59.7591 90.545C59.9211 90.509 60.0561 90.536 60.1641 90.626C60.2901 90.716 60.3531 90.842 60.3531 91.004C60.3531 92.138 59.9481 93.137 59.1381 94.001C58.3461 94.847 57.2571 95.27 55.8711 95.27ZM66.7607 95.27C65.3927 95.27 64.3127 94.838 63.5207 93.974C62.7467 93.11 62.3597 91.877 62.3597 90.275V83.876H61.3337C61.1537 83.876 61.0007 83.822 60.8747 83.714C60.7667 83.588 60.7127 83.435 60.7127 83.255V82.661C60.7127 82.247 60.9197 82.04 61.3337 82.04H61.8467C62.6747 82.04 63.3857 81.797 63.9797 81.311C64.5737 80.807 64.9607 80.141 65.1407 79.313C65.2307 78.845 65.4737 78.611 65.8697 78.611H66.4907C66.9767 78.611 67.2197 78.845 67.2197 79.313V82.04H70.0007C70.1807 82.04 70.3247 82.103 70.4327 82.229C70.5587 82.337 70.6217 82.481 70.6217 82.661V83.255C70.6217 83.435 70.5587 83.588 70.4327 83.714C70.3247 83.822 70.1807 83.876 70.0007 83.876H67.2197V90.356C67.2197 90.806 67.3367 91.166 67.5707 91.436C67.8047 91.688 68.0927 91.814 68.4347 91.814C69.2087 91.814 69.8027 91.481 70.2167 90.815C70.3427 90.653 70.4867 90.563 70.6487 90.545C70.8107 90.509 70.9457 90.536 71.0537 90.626C71.1797 90.716 71.2427 90.842 71.2427 91.004C71.2427 92.138 70.8377 93.137 70.0277 94.001C69.2357 94.847 68.1467 95.27 66.7607 95.27ZM75.6524 80.447C74.7344 80.447 73.9874 80.195 73.4114 79.691C72.8354 79.169 72.5474 78.521 72.5474 77.747C72.5474 76.973 72.8354 76.334 73.4114 75.83C73.9874 75.308 74.7344 75.047 75.6524 75.047C76.5524 75.047 77.2904 75.308 77.8664 75.83C78.4424 76.334 78.7304 76.973 78.7304 77.747C78.7304 78.521 78.4424 79.169 77.8664 79.691C77.2904 80.195 76.5524 80.447 75.6524 80.447ZM72.7634 95C72.3314 95 72.1154 94.829 72.1154 94.487V94.379C72.1154 94.163 72.2954 93.83 72.6554 93.38C73.0154 92.93 73.1954 92.48 73.1954 92.03V86.9C73.1954 86.432 73.0154 85.982 72.6554 85.55C72.2954 85.1 72.1154 84.794 72.1154 84.632V84.524C72.1154 84.308 72.3224 84.101 72.7364 83.903L76.8134 81.905C77.1914 81.743 77.4884 81.725 77.7044 81.851C77.9204 81.977 78.0284 82.184 78.0284 82.472V92.03C78.0284 92.48 78.2264 92.93 78.6224 93.38C79.0364 93.83 79.2434 94.163 79.2434 94.379V94.487C79.2434 94.829 79.0184 95 78.5684 95H72.7634ZM94.6488 82.445C95.0808 82.499 95.2968 82.751 95.2968 83.201V83.309C95.2968 83.453 95.1978 83.624 94.9998 83.822C94.8018 84.02 94.6038 84.281 94.4058 84.605C94.2078 84.929 94.1088 85.307 94.1088 85.739V93.272C94.1088 95.558 93.4698 97.313 92.1918 98.537C90.9138 99.779 89.3028 100.4 87.3588 100.4C85.3968 100.4 83.7858 100.049 82.5258 99.347C81.2838 98.663 80.6628 97.808 80.6628 96.782C80.6628 96.314 80.8248 95.9 81.1488 95.54C81.4728 95.18 81.9318 95 82.5258 95C83.0118 95 83.4258 95.135 83.7678 95.405C84.1278 95.693 84.4158 96.035 84.6318 96.431C84.8658 96.827 85.0908 97.223 85.3068 97.619C85.5408 98.033 85.8288 98.375 86.1708 98.645C86.5128 98.933 86.9178 99.086 87.3858 99.104C88.0158 99.122 88.5288 98.771 88.9248 98.051C89.3388 97.349 89.5458 96.233 89.5458 94.703V94.19C88.7538 94.73 87.8088 95 86.7108 95C84.9828 95 83.4888 94.415 82.2288 93.245C80.9868 92.075 80.3658 90.5 80.3658 88.52C80.3658 86.558 80.9868 84.947 82.2288 83.687C83.4888 82.409 84.9918 81.77 86.7378 81.77C88.0698 81.77 89.1678 82.148 90.0318 82.904V82.742C90.0318 82.454 90.1488 82.238 90.3828 82.094C90.6168 81.95 90.9318 81.905 91.3278 81.959L94.6488 82.445ZM87.7908 93.677C88.2768 93.695 88.6908 93.497 89.0328 93.083C89.3748 92.669 89.5458 92.111 89.5458 91.409V86.468C89.5458 85.604 89.2938 84.83 88.7898 84.146C88.2858 83.444 87.7188 83.093 87.0888 83.093C85.7748 83.093 85.0728 84.2 84.9828 86.414C84.9468 87.224 85.0188 88.169 85.1988 89.249C85.3788 90.329 85.7028 91.337 86.1708 92.273C86.6388 93.191 87.1788 93.659 87.7908 93.677ZM107.657 90.734C107.855 90.536 108.071 90.482 108.305 90.572C108.557 90.644 108.674 90.824 108.656 91.112C108.638 91.526 108.512 91.958 108.278 92.408C108.062 92.858 107.747 93.308 107.333 93.758C106.919 94.19 106.343 94.55 105.605 94.838C104.885 95.126 104.066 95.27 103.148 95.27C101.132 95.27 99.4847 94.64 98.2067 93.38C96.9467 92.12 96.3167 90.473 96.3167 88.439C96.3167 86.477 96.9647 84.884 98.2607 83.66C99.5567 82.418 101.141 81.788 103.013 81.77C104.615 81.752 105.911 82.103 106.901 82.823C107.891 83.543 108.386 84.497 108.386 85.685C108.386 86.621 107.981 87.449 107.171 88.169C106.379 88.889 105.344 89.348 104.066 89.546C103.166 89.708 102.266 89.771 101.366 89.735C102.122 91.193 103.256 91.922 104.768 91.922C106.1 91.922 107.063 91.526 107.657 90.734ZM102.446 83.201C101.888 83.201 101.438 83.48 101.096 84.038C100.772 84.596 100.61 85.325 100.61 86.225C100.61 86.963 100.691 87.656 100.853 88.304C101.357 88.322 101.807 88.304 102.203 88.25C103.427 88.034 104.039 87.062 104.039 85.334C104.021 84.74 103.859 84.236 103.553 83.822C103.265 83.408 102.896 83.201 102.446 83.201ZM124.262 92.03C124.298 92.48 124.469 92.93 124.775 93.38C125.081 93.812 125.234 94.145 125.234 94.379V94.487C125.234 94.829 125.018 95 124.586 95H119.213C118.781 95 118.565 94.829 118.565 94.487V94.379C118.565 94.163 118.727 93.83 119.051 93.38C119.393 92.93 119.555 92.48 119.537 92.03L119.267 87.008C119.195 85.766 119.015 84.884 118.727 84.362C118.439 83.822 117.989 83.552 117.377 83.552C116.801 83.552 116.36 83.786 116.054 84.254C115.766 84.722 115.622 85.361 115.622 86.171V92.057C115.622 92.507 115.82 92.957 116.216 93.407C116.63 93.839 116.837 94.163 116.837 94.379V94.487C116.837 94.829 116.621 95 116.189 95H110.33C109.916 95 109.709 94.829 109.709 94.487V94.379C109.709 94.163 109.907 93.839 110.303 93.407C110.699 92.957 110.897 92.507 110.897 92.057V79.529C110.897 79.061 110.672 78.638 110.222 78.26C109.79 77.882 109.574 77.585 109.574 77.369V77.288C109.574 76.964 109.781 76.712 110.195 76.532L114.461 74.642C114.767 74.498 115.01 74.48 115.19 74.588C115.388 74.696 115.487 74.903 115.487 75.209V83.039C116.297 82.193 117.395 81.77 118.781 81.77C120.113 81.77 121.265 82.202 122.237 83.066C123.209 83.912 123.767 85.28 123.911 87.17L124.262 92.03ZM141.122 83.309C141.122 83.453 141.023 83.624 140.825 83.822C140.627 84.02 140.429 84.281 140.231 84.605C140.033 84.929 139.934 85.307 139.934 85.739V92.057C139.934 92.507 140.114 92.957 140.474 93.407C140.834 93.839 141.014 94.163 141.014 94.379V94.487C141.014 94.829 140.816 95 140.42 95H136.559C136.361 95 136.19 94.937 136.046 94.811C135.92 94.685 135.857 94.523 135.857 94.325V94.082C135.029 94.874 133.931 95.27 132.563 95.27C130.817 95.27 129.314 94.676 128.054 93.488C126.812 92.282 126.191 90.626 126.191 88.52C126.191 86.558 126.821 84.947 128.081 83.687C129.341 82.409 130.844 81.77 132.59 81.77C133.922 81.77 135.011 82.148 135.857 82.904V82.742C135.857 82.454 135.974 82.238 136.208 82.094C136.442 81.95 136.757 81.905 137.153 81.959L140.474 82.445C140.906 82.499 141.122 82.751 141.122 83.201V83.309ZM133.643 93.947C134.129 93.965 134.534 93.767 134.858 93.353C135.2 92.939 135.371 92.381 135.371 91.679V86.468C135.371 85.496 135.128 84.695 134.642 84.065C134.156 83.417 133.589 83.093 132.941 83.093C131.609 83.093 130.898 84.2 130.808 86.414C130.772 87.26 130.844 88.241 131.024 89.357C131.222 90.473 131.546 91.517 131.996 92.489C132.464 93.443 133.013 93.929 133.643 93.947ZM151.559 81.77C152.333 81.77 152.945 82.022 153.395 82.526C153.863 83.03 154.097 83.669 154.097 84.443C154.097 86.135 153.404 86.981 152.018 86.981C151.46 86.981 151.037 86.855 150.749 86.603C150.461 86.333 150.29 86.036 150.236 85.712C150.2 85.388 150.11 85.1 149.966 84.848C149.822 84.578 149.606 84.443 149.318 84.443C148.652 84.443 148.319 85.307 148.319 87.035V92.057C148.319 92.507 148.553 92.957 149.021 93.407C149.507 93.839 149.75 94.163 149.75 94.379V94.487C149.75 94.829 149.534 95 149.102 95H143.297C142.865 95 142.649 94.829 142.649 94.487V94.379C142.649 94.163 142.829 93.839 143.189 93.407C143.549 92.957 143.729 92.507 143.729 92.057V86.684C143.729 86.324 143.621 86.018 143.405 85.766C143.189 85.514 142.973 85.298 142.757 85.118C142.541 84.938 142.433 84.74 142.433 84.524V84.443C142.433 84.137 142.64 83.876 143.054 83.66L146.861 81.878C147.221 81.752 147.473 81.743 147.617 81.851C147.761 81.959 147.833 82.166 147.833 82.472V84.443C148.445 82.661 149.687 81.77 151.559 81.77ZM165.875 90.734C166.073 90.536 166.289 90.482 166.523 90.572C166.775 90.644 166.892 90.824 166.874 91.112C166.856 91.526 166.73 91.958 166.496 92.408C166.28 92.858 165.965 93.308 165.551 93.758C165.137 94.19 164.561 94.55 163.823 94.838C163.103 95.126 162.284 95.27 161.366 95.27C159.35 95.27 157.703 94.64 156.425 93.38C155.165 92.12 154.535 90.473 154.535 88.439C154.535 86.477 155.183 84.884 156.479 83.66C157.775 82.418 159.359 81.788 161.231 81.77C162.833 81.752 164.129 82.103 165.119 82.823C166.109 83.543 166.604 84.497 166.604 85.685C166.604 86.621 166.199 87.449 165.389 88.169C164.597 88.889 163.562 89.348 162.284 89.546C161.384 89.708 160.484 89.771 159.584 89.735C160.34 91.193 161.474 91.922 162.986 91.922C164.318 91.922 165.281 91.526 165.875 90.734ZM160.664 83.201C160.106 83.201 159.656 83.48 159.314 84.038C158.99 84.596 158.828 85.325 158.828 86.225C158.828 86.963 158.909 87.656 159.071 88.304C159.575 88.322 160.025 88.304 160.421 88.25C161.645 88.034 162.257 87.062 162.257 85.334C162.239 84.74 162.077 84.236 161.771 83.822C161.483 83.408 161.114 83.201 160.664 83.201ZM182.751 92.057C182.787 92.507 182.958 92.957 183.264 93.407C183.57 93.839 183.723 94.172 183.723 94.406V94.514C183.723 94.856 183.507 95.027 183.075 95.027H177.675C177.243 95.027 177.027 94.856 177.027 94.514V94.406C177.027 94.19 177.198 93.857 177.54 93.407C177.882 92.957 178.035 92.507 177.999 92.057L177.729 87.224C177.657 85.892 177.477 84.947 177.189 84.389C176.919 83.831 176.478 83.552 175.866 83.552C175.29 83.552 174.849 83.786 174.543 84.254C174.255 84.722 174.111 85.361 174.111 86.171V92.057C174.111 92.507 174.309 92.957 174.705 93.407C175.101 93.857 175.299 94.19 175.299 94.406V94.514C175.299 94.856 175.083 95.027 174.651 95.027H168.819C168.387 95.027 168.171 94.856 168.171 94.514V94.406C168.171 94.19 168.369 93.857 168.765 93.407C169.161 92.957 169.359 92.507 169.359 92.057V86.738C169.359 86.36 169.242 86.045 169.008 85.793C168.774 85.523 168.531 85.298 168.279 85.118C168.045 84.92 167.928 84.713 167.928 84.497V84.416C167.928 84.182 168.144 83.957 168.576 83.741L172.356 81.878C172.698 81.734 172.95 81.734 173.112 81.878C173.292 82.004 173.382 82.22 173.382 82.526V83.795C174.138 82.445 175.425 81.77 177.243 81.77C178.593 81.77 179.754 82.211 180.726 83.093C181.698 83.975 182.256 85.406 182.4 87.386L182.751 92.057ZM190.614 95.243C188.886 95.243 187.464 94.955 186.348 94.379C185.232 93.785 184.674 93.02 184.674 92.084C184.674 91.508 184.845 91.076 185.187 90.788C185.547 90.5 186.015 90.356 186.591 90.356C187.203 90.356 187.689 90.554 188.049 90.95C188.409 91.328 188.652 91.751 188.778 92.219C188.904 92.669 189.12 93.092 189.426 93.488C189.732 93.866 190.128 94.055 190.614 94.055C191.586 94.055 192.072 93.56 192.072 92.57C192.072 91.922 191.82 91.409 191.316 91.031C190.83 90.653 190.236 90.365 189.534 90.167C188.832 89.969 188.13 89.744 187.428 89.492C186.744 89.24 186.15 88.817 185.646 88.223C185.16 87.629 184.917 86.846 184.917 85.874C184.917 84.668 185.448 83.687 186.51 82.931C187.572 82.157 188.94 81.77 190.614 81.77C192.288 81.77 193.647 82.085 194.691 82.715C195.753 83.345 196.284 84.11 196.284 85.01C196.284 85.478 196.104 85.874 195.744 86.198C195.402 86.504 194.979 86.657 194.475 86.657C193.881 86.657 193.413 86.468 193.071 86.09C192.729 85.712 192.495 85.298 192.369 84.848C192.261 84.38 192.081 83.957 191.829 83.579C191.595 83.201 191.271 83.012 190.857 83.012C190.461 83.012 190.146 83.165 189.912 83.471C189.696 83.777 189.588 84.137 189.588 84.551C189.588 85.217 189.822 85.757 190.29 86.171C190.776 86.585 191.352 86.9 192.018 87.116C192.702 87.332 193.377 87.566 194.043 87.818C194.727 88.07 195.303 88.484 195.771 89.06C196.257 89.618 196.5 90.356 196.5 91.274C196.5 92.426 195.969 93.38 194.907 94.136C193.863 94.874 192.432 95.243 190.614 95.243ZM201.424 80.447C200.506 80.447 199.759 80.195 199.183 79.691C198.607 79.169 198.319 78.521 198.319 77.747C198.319 76.973 198.607 76.334 199.183 75.83C199.759 75.308 200.506 75.047 201.424 75.047C202.324 75.047 203.062 75.308 203.638 75.83C204.214 76.334 204.502 76.973 204.502 77.747C204.502 78.521 204.214 79.169 203.638 79.691C203.062 80.195 202.324 80.447 201.424 80.447ZM198.535 95C198.103 95 197.887 94.829 197.887 94.487V94.379C197.887 94.163 198.067 93.83 198.427 93.38C198.787 92.93 198.967 92.48 198.967 92.03V86.9C198.967 86.432 198.787 85.982 198.427 85.55C198.067 85.1 197.887 84.794 197.887 84.632V84.524C197.887 84.308 198.094 84.101 198.508 83.903L202.585 81.905C202.963 81.743 203.26 81.725 203.476 81.851C203.692 81.977 203.8 82.184 203.8 82.472V92.03C203.8 92.48 203.998 92.93 204.394 93.38C204.808 93.83 205.015 94.163 205.015 94.379V94.487C205.015 94.829 204.79 95 204.34 95H198.535ZM212.05 95.243C210.322 95.243 208.9 94.955 207.784 94.379C206.668 93.785 206.11 93.02 206.11 92.084C206.11 91.508 206.281 91.076 206.623 90.788C206.983 90.5 207.451 90.356 208.027 90.356C208.639 90.356 209.125 90.554 209.485 90.95C209.845 91.328 210.088 91.751 210.214 92.219C210.34 92.669 210.556 93.092 210.862 93.488C211.168 93.866 211.564 94.055 212.05 94.055C213.022 94.055 213.508 93.56 213.508 92.57C213.508 91.922 213.256 91.409 212.752 91.031C212.266 90.653 211.672 90.365 210.97 90.167C210.268 89.969 209.566 89.744 208.864 89.492C208.18 89.24 207.586 88.817 207.082 88.223C206.596 87.629 206.353 86.846 206.353 85.874C206.353 84.668 206.884 83.687 207.946 82.931C209.008 82.157 210.376 81.77 212.05 81.77C213.724 81.77 215.083 82.085 216.127 82.715C217.189 83.345 217.72 84.11 217.72 85.01C217.72 85.478 217.54 85.874 217.18 86.198C216.838 86.504 216.415 86.657 215.911 86.657C215.317 86.657 214.849 86.468 214.507 86.09C214.165 85.712 213.931 85.298 213.805 84.848C213.697 84.38 213.517 83.957 213.265 83.579C213.031 83.201 212.707 83.012 212.293 83.012C211.897 83.012 211.582 83.165 211.348 83.471C211.132 83.777 211.024 84.137 211.024 84.551C211.024 85.217 211.258 85.757 211.726 86.171C212.212 86.585 212.788 86.9 213.454 87.116C214.138 87.332 214.813 87.566 215.479 87.818C216.163 88.07 216.739 88.484 217.207 89.06C217.693 89.618 217.936 90.356 217.936 91.274C217.936 92.426 217.405 93.38 216.343 94.136C215.299 94.874 213.868 95.243 212.05 95.243Z" fill="#00B112"/>
</svg>
