<svg width="214" height="71" viewBox="0 0 214 71" fill="none" xmlns="http://www.w3.org/2000/svg">
<path d="M1.6 16C1.32 16 1.18 15.92 1.18 15.76V15.72C1.18 15.6267 1.3 15.4867 1.54 15.3C1.79333 15.1 1.92 14.86 1.92 14.58V3.22C1.92 3.00667 1.86 2.83333 1.74 2.7C1.62 2.55333 1.49333 2.44 1.36 2.36C1.24 2.26667 1.18 2.17333 1.18 2.08V2.02C1.18 1.87333 1.3 1.8 1.54 1.8H10.02C10.2867 1.8 10.4533 1.94667 10.52 2.24L11 4.22C11.0533 4.48667 10.9733 4.62 10.76 4.62H10.66C10.5267 4.62 10.3733 4.52 10.2 4.32C10.04 4.10667 9.88667 3.87333 9.74 3.62C9.60667 3.36667 9.42667 3.14 9.2 2.94C8.98667 2.72667 8.76 2.62 8.52 2.62H4.28C3.90667 2.62 3.72 2.84667 3.72 3.3V8.32H7.36C7.53333 8.32 7.68 8.26 7.8 8.14C7.92 8.02 8.00667 7.88667 8.06 7.74C8.12667 7.58 8.19333 7.44 8.26 7.32C8.34 7.2 8.42667 7.14 8.52 7.14H8.6C8.77333 7.14 8.86 7.25333 8.86 7.48V9.94C8.86 10.1667 8.77333 10.28 8.6 10.28H8.52C8.42667 10.28 8.34 10.22 8.26 10.1C8.19333 9.98 8.12667 9.85333 8.06 9.72C8.00667 9.57333 7.92 9.44 7.8 9.32C7.68 9.2 7.53333 9.14 7.36 9.14H3.72L3.7 14.32C3.7 14.56 3.76 14.7667 3.88 14.94C4.01333 15.1 4.2 15.18 4.44 15.18H9.14C9.38 15.18 9.60667 15.0733 9.82 14.86C10.0333 14.6467 10.2 14.4133 10.32 14.16C10.4533 13.8933 10.6 13.6533 10.76 13.44C10.9333 13.2267 11.0933 13.12 11.24 13.12H11.36C11.4533 13.12 11.52 13.16 11.56 13.24C11.6133 13.32 11.6267 13.4133 11.6 13.52L11.12 15.54C11.0533 15.8467 10.88 16 10.6 16H1.6ZM22.2331 14.56C22.2465 14.7733 22.3131 14.9467 22.4331 15.08C22.5531 15.2133 22.6665 15.3267 22.7731 15.42C22.8931 15.5 22.9531 15.5867 22.9531 15.68V15.76C22.9531 15.9333 22.8131 16.02 22.5331 16.02H20.1531C19.8731 16.02 19.7331 15.9333 19.7331 15.76V15.68C19.7331 15.5867 19.8531 15.4467 20.0931 15.26C20.3465 15.0733 20.4665 14.8467 20.4531 14.58L20.2531 10.58C20.1998 9.39333 19.9531 8.5 19.5131 7.9C19.0865 7.28667 18.5131 6.98 17.7931 6.98C17.0598 6.98 16.4598 7.24 15.9931 7.76C15.5265 8.28 15.2931 8.94 15.2931 9.74V14.6C15.2931 14.76 15.3331 14.9 15.4131 15.02C15.5065 15.1267 15.5998 15.2067 15.6931 15.26C15.7865 15.3133 15.8731 15.38 15.9531 15.46C16.0465 15.5267 16.0931 15.6 16.0931 15.68V15.76C16.0931 15.9333 15.9531 16.02 15.6731 16.02H13.1731C12.9065 16.02 12.7731 15.9333 12.7731 15.76V15.68C12.7731 15.5733 12.8998 15.4333 13.1531 15.26C13.4198 15.0867 13.5531 14.8667 13.5531 14.6V8.54C13.5531 8.28667 13.4798 8.09333 13.3331 7.96C13.1998 7.81333 13.0598 7.7 12.9131 7.62C12.7798 7.54 12.7131 7.45333 12.7131 7.36V7.3C12.7131 7.18 12.8198 7.08 13.0331 7L14.5331 6.28C14.7198 6.18667 14.8598 6.17333 14.9531 6.24C15.0465 6.30667 15.0931 6.42 15.0931 6.58V8.04C15.3865 7.48 15.8065 7.03333 16.3531 6.7C16.9131 6.36667 17.5331 6.2 18.2131 6.2C19.2531 6.2 20.1198 6.56667 20.8131 7.3C21.5198 8.03333 21.9198 9.14 22.0131 10.62L22.2331 14.56ZM33.3975 14.6C33.3975 14.8667 33.5175 15.1 33.7575 15.3C34.0108 15.5 34.1375 15.64 34.1375 15.72V15.78C34.1375 15.9267 34.0375 16 33.8375 16H32.1575C31.9575 16 31.8442 15.8933 31.8175 15.68L31.7775 14.68C31.4442 15.1733 31.0042 15.5533 30.4575 15.82C29.9242 16.0733 29.3508 16.2 28.7375 16.2C27.4708 16.2 26.3842 15.7333 25.4775 14.8C24.5708 13.8667 24.1175 12.66 24.1175 11.18C24.1175 9.72667 24.5642 8.53333 25.4575 7.6C26.3508 6.66667 27.4642 6.2 28.7975 6.2C29.9708 6.2 30.9375 6.63333 31.6975 7.5V3.14C31.6975 2.9 31.6242 2.70667 31.4775 2.56C31.3442 2.41333 31.2042 2.3 31.0575 2.22C30.9242 2.14 30.8575 2.05333 30.8575 1.96V1.92C30.8575 1.78667 30.9575 1.67333 31.1575 1.58L32.7775 1.04C33.1908 0.879999 33.3975 0.979999 33.3975 1.34V14.6ZM29.1575 15.54C29.7975 15.54 30.3775 15.2867 30.8975 14.78C31.4308 14.26 31.6975 13.5533 31.6975 12.66H31.7175L31.6975 11.64V9.64C31.6975 8.96 31.4042 8.32667 30.8175 7.74C30.2442 7.14 29.5642 6.84 28.7775 6.84C27.9108 6.84 27.2042 7.18667 26.6575 7.88C26.1242 8.56 25.8508 9.46 25.8375 10.58C25.8108 11.9667 26.1108 13.14 26.7375 14.1C27.3642 15.0467 28.1708 15.5267 29.1575 15.54ZM43.6447 13.18C43.738 13.0333 43.8647 12.98 44.0247 13.02C44.1847 13.0467 44.258 13.1533 44.2447 13.34C44.0847 14.06 43.6647 14.72 42.9847 15.32C42.3047 15.9067 41.4047 16.2 40.2847 16.2C38.8847 16.2 37.7314 15.7333 36.8247 14.8C35.9314 13.8533 35.4847 12.6267 35.4847 11.12C35.4847 9.68 35.9314 8.50667 36.8247 7.6C37.718 6.68 38.8647 6.21333 40.2647 6.2C41.2914 6.18667 42.1314 6.42 42.7847 6.9C43.4514 7.36667 43.7847 8.02 43.7847 8.86C43.7847 9.54 43.498 10.1467 42.9247 10.68C42.3514 11.2 41.5914 11.5533 40.6447 11.74C39.7114 11.9133 38.5847 11.9467 37.2647 11.84C37.4914 12.7867 37.9114 13.54 38.5247 14.1C39.138 14.6467 39.878 14.92 40.7447 14.92C41.4647 14.92 42.0714 14.76 42.5647 14.44C43.058 14.12 43.418 13.7 43.6447 13.18ZM39.9647 6.88C39.1247 6.88 38.438 7.22 37.9047 7.9C37.3714 8.58 37.1047 9.41333 37.1047 10.4C37.1047 10.56 37.118 10.8 37.1447 11.12C38.4514 11.2133 39.5047 11.1733 40.3047 11C41.5047 10.7467 42.098 10.0333 42.0847 8.86C42.0714 8.27333 41.8647 7.8 41.4647 7.44C41.078 7.06667 40.578 6.88 39.9647 6.88ZM61.5461 14.58C61.5594 14.8467 61.6861 15.08 61.9261 15.28C62.1661 15.4667 62.2861 15.6067 62.2861 15.7V15.78C62.2861 15.94 62.1528 16.02 61.8861 16.02H59.4861C59.2194 16.02 59.0861 15.94 59.0861 15.78V15.7C59.0861 15.6067 59.2061 15.4667 59.4461 15.28C59.6861 15.0933 59.7994 14.8667 59.7861 14.6L59.5861 10.7C59.5194 9.39333 59.2728 8.44667 58.8461 7.86C58.4328 7.27333 57.8461 6.98 57.0861 6.98C56.4461 6.98 55.8928 7.23333 55.4261 7.74C54.9728 8.24667 54.7328 8.87333 54.7061 9.62C54.7594 9.88667 54.7861 10.2133 54.7861 10.6V14.6C54.7861 14.8667 54.8994 15.0933 55.1261 15.28C55.3661 15.4667 55.4861 15.6067 55.4861 15.7V15.78C55.4861 15.94 55.3594 16.02 55.1061 16.02H52.7461C52.4661 16.02 52.3261 15.94 52.3261 15.78V15.7C52.3261 15.6067 52.4394 15.4667 52.6661 15.28C52.9061 15.0933 53.0261 14.8667 53.0261 14.6V10.5C53.0261 9.42 52.7861 8.56667 52.3061 7.94C51.8394 7.3 51.2528 6.98 50.5461 6.98C49.8528 6.98 49.2728 7.24 48.8061 7.76C48.3394 8.28 48.0928 8.92 48.0661 9.68L48.0861 14.6C48.0861 14.8667 48.2128 15.0933 48.4661 15.28C48.7328 15.4667 48.8661 15.6067 48.8661 15.7V15.78C48.8661 15.94 48.7328 16.02 48.4661 16.02H45.9661C45.6994 16.02 45.5661 15.94 45.5661 15.78V15.7C45.5661 15.6067 45.6928 15.4667 45.9461 15.28C46.1994 15.0933 46.3261 14.8667 46.3261 14.6V8.54C46.3261 8.31333 46.2594 8.12667 46.1261 7.98C45.9928 7.83333 45.8594 7.72 45.7261 7.64C45.5928 7.54667 45.5261 7.45333 45.5261 7.36V7.3C45.5261 7.18 45.6261 7.08 45.8261 7L47.3861 6.28C47.5728 6.18667 47.7128 6.17333 47.8061 6.24C47.9128 6.30667 47.9661 6.42 47.9661 6.58V8C48.2594 7.45333 48.6661 7.02 49.1861 6.7C49.7194 6.36667 50.2994 6.2 50.9261 6.2C51.6728 6.2 52.3461 6.39333 52.9461 6.78C53.5594 7.15333 54.0261 7.69333 54.3461 8.4C54.5994 7.72 55.0128 7.18667 55.5861 6.8C56.1594 6.4 56.8128 6.2 57.5461 6.2C58.6261 6.2 59.4994 6.56667 60.1661 7.3C60.8461 8.02 61.2328 9.16667 61.3261 10.74L61.5461 14.58ZM65.1539 4.5C64.7406 4.5 64.4139 4.38667 64.1739 4.16C63.9339 3.93333 63.8139 3.63333 63.8139 3.26C63.8139 2.88667 63.9339 2.58667 64.1739 2.36C64.4272 2.12 64.7539 2 65.1539 2C65.5406 2 65.8539 2.12 66.0939 2.36C66.3339 2.58667 66.4539 2.88667 66.4539 3.26C66.4539 3.63333 66.3339 3.93333 66.0939 4.16C65.8539 4.38667 65.5406 4.5 65.1539 4.5ZM63.9939 16C63.7406 16 63.6139 15.9133 63.6139 15.74V15.66C63.6139 15.5667 63.6739 15.48 63.7939 15.4C63.9139 15.3067 64.0339 15.2 64.1539 15.08C64.2739 14.9467 64.3339 14.78 64.3339 14.58V8.62C64.3339 8.31333 64.2139 8.04667 63.9739 7.82C63.7339 7.59333 63.6139 7.44667 63.6139 7.38V7.34C63.6139 7.24667 63.7139 7.14667 63.9139 7.04L65.4539 6.28C65.6672 6.2 65.8206 6.18667 65.9139 6.24C66.0206 6.29333 66.0739 6.4 66.0739 6.56V14.58C66.0739 14.74 66.1139 14.88 66.1939 15C66.2739 15.1067 66.3672 15.1867 66.4739 15.24C66.5806 15.2933 66.6739 15.36 66.7539 15.44C66.8339 15.5067 66.8739 15.58 66.8739 15.66V15.74C66.8739 15.9133 66.7339 16 66.4539 16H63.9939ZM73.1972 16.2C71.7972 16.2 70.6105 15.72 69.6372 14.76C68.6772 13.7867 68.1972 12.58 68.1972 11.14C68.1972 9.67333 68.6639 8.48667 69.5972 7.58C70.5439 6.67333 71.7172 6.21333 73.1172 6.2C74.1572 6.18667 75.0639 6.45333 75.8372 7C76.6239 7.53333 77.0172 8.09333 77.0172 8.68C77.0172 9.16 76.7505 9.39333 76.2172 9.38C75.9639 9.36667 75.7239 9.23333 75.4972 8.98C75.2839 8.71333 75.0905 8.42667 74.9172 8.12C74.7572 7.8 74.4905 7.50667 74.1172 7.24C73.7572 6.97333 73.3172 6.84 72.7972 6.84C71.9705 6.84 71.2905 7.18 70.7572 7.86C70.2239 8.52667 69.9572 9.36 69.9572 10.36C69.9572 11.7467 70.3105 12.86 71.0172 13.7C71.7239 14.5267 72.6372 14.94 73.7572 14.94C74.4105 14.94 74.9705 14.7667 75.4372 14.42C75.9172 14.06 76.2839 13.6067 76.5372 13.06C76.6172 12.9 76.7439 12.84 76.9172 12.88C77.0905 12.92 77.1572 13.0333 77.1172 13.22C76.9572 14.0333 76.5305 14.7333 75.8372 15.32C75.1572 15.9067 74.2772 16.2 73.1972 16.2ZM86.2736 16.2C85.4736 16.2 84.8403 15.9467 84.3736 15.44C83.9203 14.92 83.6936 14.1667 83.6936 13.18V7.2H82.3736C82.1736 7.2 82.0736 7.1 82.0736 6.9V6.7C82.0736 6.5 82.1736 6.4 82.3736 6.4H83.0936C84.0003 6.4 84.5069 5.76667 84.6136 4.5C84.6403 4.23333 84.7536 4.1 84.9536 4.1H85.1536C85.3669 4.1 85.4736 4.23333 85.4736 4.5L85.4936 6.4H88.2536C88.3336 6.4 88.4003 6.43333 88.4536 6.5C88.5203 6.55333 88.5536 6.62 88.5536 6.7V6.9C88.5536 7.1 88.4536 7.2 88.2536 7.2H85.4936V13.2C85.4936 13.7333 85.6069 14.1467 85.8336 14.44C86.0603 14.7333 86.3669 14.88 86.7536 14.88C87.1803 14.88 87.5203 14.7733 87.7736 14.56C88.0403 14.3333 88.1936 14.04 88.2336 13.68C88.3003 13.52 88.4136 13.4533 88.5736 13.48C88.7469 13.4933 88.8336 13.5867 88.8336 13.76C88.8336 14.4133 88.5936 14.9867 88.1136 15.48C87.6469 15.96 87.0336 16.2 86.2736 16.2ZM94.8644 16.2C93.3177 16.2 92.0577 15.7 91.0844 14.7C90.1244 13.6867 89.6444 12.4733 89.6444 11.06C89.6444 9.67333 90.111 8.52 91.0444 7.6C91.9777 6.66667 93.131 6.2 94.5044 6.2C95.9844 6.2 97.1977 6.69333 98.1444 7.68C99.1044 8.65333 99.5844 9.85333 99.5844 11.28C99.5844 12.68 99.1444 13.8533 98.2644 14.8C97.3844 15.7333 96.251 16.2 94.8644 16.2ZM95.1044 15.54C95.891 15.54 96.5377 15.2067 97.0444 14.54C97.5644 13.8733 97.8244 12.9867 97.8244 11.88C97.8244 10.4667 97.491 9.28 96.8244 8.32C96.1577 7.34667 95.3177 6.86 94.3044 6.86C93.451 6.86 92.7577 7.19333 92.2244 7.86C91.691 8.51333 91.4244 9.39333 91.4244 10.5C91.4244 11.8333 91.771 13.0067 92.4644 14.02C93.1577 15.0333 94.0377 15.54 95.1044 15.54ZM108.91 16.2C108.11 16.2 107.477 15.9467 107.01 15.44C106.557 14.92 106.33 14.1667 106.33 13.18V7.2H105.01C104.81 7.2 104.71 7.1 104.71 6.9V6.7C104.71 6.5 104.81 6.4 105.01 6.4H105.73C106.637 6.4 107.144 5.76667 107.25 4.5C107.277 4.23333 107.39 4.1 107.59 4.1H107.79C108.004 4.1 108.11 4.23333 108.11 4.5L108.13 6.4H110.89C110.97 6.4 111.037 6.43333 111.09 6.5C111.157 6.55333 111.19 6.62 111.19 6.7V6.9C111.19 7.1 111.09 7.2 110.89 7.2H108.13V13.2C108.13 13.7333 108.244 14.1467 108.47 14.44C108.697 14.7333 109.004 14.88 109.39 14.88C109.817 14.88 110.157 14.7733 110.41 14.56C110.677 14.3333 110.83 14.04 110.87 13.68C110.937 13.52 111.05 13.4533 111.21 13.48C111.384 13.4933 111.47 13.5867 111.47 13.76C111.47 14.4133 111.23 14.9867 110.75 15.48C110.284 15.96 109.67 16.2 108.91 16.2ZM121.839 14.56C121.866 14.8267 121.993 15.0533 122.219 15.24C122.446 15.4267 122.559 15.5733 122.559 15.68V15.76C122.559 15.92 122.426 16 122.159 16H119.759C119.493 16 119.359 15.92 119.359 15.76V15.68C119.359 15.5867 119.419 15.4933 119.539 15.4C119.673 15.3067 119.799 15.2 119.919 15.08C120.039 14.9467 120.093 14.78 120.079 14.58L119.879 10.5C119.826 9.35333 119.579 8.48 119.139 7.88C118.699 7.28 118.126 6.98 117.419 6.98C116.686 6.98 116.086 7.24 115.619 7.76C115.153 8.28 114.919 8.94 114.919 9.74V14.6C114.919 14.8533 115.053 15.0733 115.319 15.26C115.586 15.4333 115.719 15.5733 115.719 15.68V15.74C115.719 15.9133 115.579 16 115.299 16H112.799C112.546 16 112.419 15.9133 112.419 15.74V15.68C112.419 15.5733 112.539 15.4333 112.779 15.26C113.033 15.0733 113.159 14.8533 113.159 14.6V3.3C113.159 3.07333 113.093 2.89333 112.959 2.76C112.839 2.61333 112.713 2.5 112.579 2.42C112.459 2.32667 112.399 2.24 112.399 2.16V2.1C112.399 1.95333 112.493 1.84 112.679 1.76L114.319 1.04C114.493 0.96 114.633 0.946666 114.739 0.999999C114.846 1.04 114.899 1.14 114.899 1.3L114.859 7.78C115.539 6.72667 116.533 6.2 117.839 6.2C118.879 6.2 119.746 6.56667 120.439 7.3C121.146 8.02 121.539 9.1 121.619 10.54L121.839 14.56ZM131.906 13.18C132 13.0333 132.126 12.98 132.286 13.02C132.446 13.0467 132.52 13.1533 132.506 13.34C132.346 14.06 131.926 14.72 131.246 15.32C130.566 15.9067 129.666 16.2 128.546 16.2C127.146 16.2 125.993 15.7333 125.086 14.8C124.193 13.8533 123.746 12.6267 123.746 11.12C123.746 9.68 124.193 8.50667 125.086 7.6C125.98 6.68 127.126 6.21333 128.526 6.2C129.553 6.18667 130.393 6.42 131.046 6.9C131.713 7.36667 132.046 8.02 132.046 8.86C132.046 9.54 131.76 10.1467 131.186 10.68C130.613 11.2 129.853 11.5533 128.906 11.74C127.973 11.9133 126.846 11.9467 125.526 11.84C125.753 12.7867 126.173 13.54 126.786 14.1C127.4 14.6467 128.14 14.92 129.006 14.92C129.726 14.92 130.333 14.76 130.826 14.44C131.32 14.12 131.68 13.7 131.906 13.18ZM128.226 6.88C127.386 6.88 126.7 7.22 126.166 7.9C125.633 8.58 125.366 9.41333 125.366 10.4C125.366 10.56 125.38 10.8 125.406 11.12C126.713 11.2133 127.766 11.1733 128.566 11C129.766 10.7467 130.36 10.0333 130.346 8.86C130.333 8.27333 130.126 7.8 129.726 7.44C129.34 7.06667 128.84 6.88 128.226 6.88ZM56.7683 45.7C56.6216 45.7933 56.4883 45.78 56.3683 45.66C56.2616 45.54 56.2749 45.4133 56.4083 45.28C57.0216 44.68 57.3883 44.0867 57.5083 43.5C57.5483 43.3 57.4949 43.2 57.3483 43.2C57.0549 43.2 56.8149 43.0933 56.6283 42.88C56.4416 42.6533 56.3483 42.36 56.3483 42C56.3483 41.6133 56.4549 41.3 56.6683 41.06C56.8949 40.82 57.1949 40.7 57.5683 40.7C57.9149 40.7 58.2083 40.84 58.4483 41.12C58.7016 41.3867 58.8283 41.74 58.8283 42.18C58.8283 43.58 58.1416 44.7533 56.7683 45.7ZM68.2853 43.2C67.4853 43.2 66.852 42.9467 66.3853 42.44C65.932 41.92 65.7053 41.1667 65.7053 40.18V34.2H64.3853C64.1853 34.2 64.0853 34.1 64.0853 33.9V33.7C64.0853 33.5 64.1853 33.4 64.3853 33.4H65.1053C66.012 33.4 66.5186 32.7667 66.6253 31.5C66.652 31.2333 66.7653 31.1 66.9653 31.1H67.1653C67.3786 31.1 67.4853 31.2333 67.4853 31.5L67.5053 33.4H70.2653C70.3453 33.4 70.412 33.4333 70.4653 33.5C70.532 33.5533 70.5653 33.62 70.5653 33.7V33.9C70.5653 34.1 70.4653 34.2 70.2653 34.2H67.5053V40.2C67.5053 40.7333 67.6186 41.1467 67.8453 41.44C68.072 41.7333 68.3786 41.88 68.7653 41.88C69.192 41.88 69.532 41.7733 69.7853 41.56C70.052 41.3333 70.2053 41.04 70.2453 40.68C70.312 40.52 70.4253 40.4533 70.5853 40.48C70.7586 40.4933 70.8453 40.5867 70.8453 40.76C70.8453 41.4133 70.6053 41.9867 70.1253 42.48C69.6586 42.96 69.0453 43.2 68.2853 43.2ZM81.2142 41.56C81.2409 41.8267 81.3676 42.0533 81.5942 42.24C81.8209 42.4267 81.9342 42.5733 81.9342 42.68V42.76C81.9342 42.92 81.8009 43 81.5342 43H79.1342C78.8676 43 78.7342 42.92 78.7342 42.76V42.68C78.7342 42.5867 78.7942 42.4933 78.9142 42.4C79.0476 42.3067 79.1742 42.2 79.2942 42.08C79.4142 41.9467 79.4676 41.78 79.4542 41.58L79.2542 37.5C79.2009 36.3533 78.9542 35.48 78.5142 34.88C78.0742 34.28 77.5009 33.98 76.7942 33.98C76.0609 33.98 75.4609 34.24 74.9942 34.76C74.5276 35.28 74.2942 35.94 74.2942 36.74V41.6C74.2942 41.8533 74.4276 42.0733 74.6942 42.26C74.9609 42.4333 75.0942 42.5733 75.0942 42.68V42.74C75.0942 42.9133 74.9542 43 74.6742 43H72.1742C71.9209 43 71.7942 42.9133 71.7942 42.74V42.68C71.7942 42.5733 71.9142 42.4333 72.1542 42.26C72.4076 42.0733 72.5342 41.8533 72.5342 41.6V30.3C72.5342 30.0733 72.4676 29.8933 72.3342 29.76C72.2142 29.6133 72.0876 29.5 71.9542 29.42C71.8342 29.3267 71.7742 29.24 71.7742 29.16V29.1C71.7742 28.9533 71.8676 28.84 72.0542 28.76L73.6942 28.04C73.8676 27.96 74.0076 27.9467 74.1142 28C74.2209 28.04 74.2742 28.14 74.2742 28.3L74.2342 34.78C74.9142 33.7267 75.9076 33.2 77.2142 33.2C78.2542 33.2 79.1209 33.5667 79.8142 34.3C80.5209 35.02 80.9142 36.1 80.9942 37.54L81.2142 41.56ZM91.2814 40.18C91.3747 40.0333 91.5014 39.98 91.6614 40.02C91.8214 40.0467 91.8947 40.1533 91.8814 40.34C91.7214 41.06 91.3014 41.72 90.6214 42.32C89.9414 42.9067 89.0414 43.2 87.9214 43.2C86.5214 43.2 85.3681 42.7333 84.4614 41.8C83.5681 40.8533 83.1214 39.6267 83.1214 38.12C83.1214 36.68 83.5681 35.5067 84.4614 34.6C85.3547 33.68 86.5014 33.2133 87.9014 33.2C88.9281 33.1867 89.7681 33.42 90.4214 33.9C91.0881 34.3667 91.4214 35.02 91.4214 35.86C91.4214 36.54 91.1347 37.1467 90.5614 37.68C89.9881 38.2 89.2281 38.5533 88.2814 38.74C87.3481 38.9133 86.2214 38.9467 84.9014 38.84C85.1281 39.7867 85.5481 40.54 86.1614 41.1C86.7747 41.6467 87.5147 41.92 88.3814 41.92C89.1014 41.92 89.7081 41.76 90.2014 41.44C90.6947 41.12 91.0547 40.7 91.2814 40.18ZM87.6014 33.88C86.7614 33.88 86.0747 34.22 85.5414 34.9C85.0081 35.58 84.7414 36.4133 84.7414 37.4C84.7414 37.56 84.7547 37.8 84.7814 38.12C86.0881 38.2133 87.1414 38.1733 87.9414 38C89.1414 37.7467 89.7347 37.0333 89.7214 35.86C89.7081 35.2733 89.5014 34.8 89.1014 34.44C88.7147 34.0667 88.2147 33.88 87.6014 33.88ZM101.523 33.24C101.883 33.1867 102.063 33.28 102.063 33.52V42.14C102.063 43.7267 101.649 44.94 100.823 45.78C99.9961 46.62 98.8961 47.04 97.5228 47.04C96.3361 47.04 95.3628 46.7267 94.6028 46.1C93.8561 45.4867 93.4828 44.8267 93.4828 44.12C93.4828 43.9067 93.5561 43.7267 93.7028 43.58C93.8495 43.4467 94.0428 43.38 94.2828 43.38C94.4961 43.38 94.6761 43.48 94.8228 43.68C94.9695 43.8933 95.0961 44.1467 95.2028 44.44C95.3228 44.7333 95.4695 45.0267 95.6428 45.32C95.8161 45.6133 96.0828 45.8667 96.4428 46.08C96.8161 46.2933 97.2695 46.4 97.8028 46.4C99.4695 46.4 100.303 45.0467 100.303 42.34V41.52C99.6761 42.5067 98.6961 43 97.3628 43C96.2828 43 95.4028 42.6 94.7228 41.8C94.0428 41 93.7028 39.9467 93.7028 38.64V35.1C93.7028 34.8067 93.5761 34.56 93.3228 34.36C93.0828 34.16 92.9628 34.02 92.9628 33.94V33.88C92.9628 33.72 93.0628 33.62 93.2628 33.58L94.9428 33.28C95.3028 33.2133 95.4828 33.2933 95.4828 33.52L95.4628 38.78C95.4628 39.8467 95.6628 40.6867 96.0628 41.3C96.4761 41.9133 97.0428 42.22 97.7628 42.22C98.4828 42.22 99.0828 41.9467 99.5628 41.4C100.056 40.84 100.303 40.1267 100.303 39.26V35.1C100.303 34.82 100.176 34.58 99.9228 34.38C99.6695 34.18 99.5428 34.0333 99.5428 33.94V33.88C99.5428 33.72 99.6361 33.62 99.8228 33.58L101.523 33.24ZM124.573 41.58C124.587 41.8467 124.713 42.08 124.953 42.28C125.193 42.4667 125.313 42.6067 125.313 42.7V42.78C125.313 42.94 125.18 43.02 124.913 43.02H122.513C122.247 43.02 122.113 42.94 122.113 42.78V42.7C122.113 42.6067 122.233 42.4667 122.473 42.28C122.713 42.0933 122.827 41.8667 122.813 41.6L122.613 37.7C122.547 36.3933 122.3 35.4467 121.873 34.86C121.46 34.2733 120.873 33.98 120.113 33.98C119.473 33.98 118.92 34.2333 118.453 34.74C118 35.2467 117.76 35.8733 117.733 36.62C117.787 36.8867 117.813 37.2133 117.813 37.6V41.6C117.813 41.8667 117.927 42.0933 118.153 42.28C118.393 42.4667 118.513 42.6067 118.513 42.7V42.78C118.513 42.94 118.387 43.02 118.133 43.02H115.773C115.493 43.02 115.353 42.94 115.353 42.78V42.7C115.353 42.6067 115.467 42.4667 115.693 42.28C115.933 42.0933 116.053 41.8667 116.053 41.6V37.5C116.053 36.42 115.813 35.5667 115.333 34.94C114.867 34.3 114.28 33.98 113.573 33.98C112.88 33.98 112.3 34.24 111.833 34.76C111.367 35.28 111.12 35.92 111.093 36.68L111.113 41.6C111.113 41.8667 111.24 42.0933 111.493 42.28C111.76 42.4667 111.893 42.6067 111.893 42.7V42.78C111.893 42.94 111.76 43.02 111.493 43.02H108.993C108.727 43.02 108.593 42.94 108.593 42.78V42.7C108.593 42.6067 108.72 42.4667 108.973 42.28C109.227 42.0933 109.353 41.8667 109.353 41.6V35.54C109.353 35.3133 109.287 35.1267 109.153 34.98C109.02 34.8333 108.887 34.72 108.753 34.64C108.62 34.5467 108.553 34.4533 108.553 34.36V34.3C108.553 34.18 108.653 34.08 108.853 34L110.413 33.28C110.6 33.1867 110.74 33.1733 110.833 33.24C110.94 33.3067 110.993 33.42 110.993 33.58V35C111.287 34.4533 111.693 34.02 112.213 33.7C112.747 33.3667 113.327 33.2 113.953 33.2C114.7 33.2 115.373 33.3933 115.973 33.78C116.587 34.1533 117.053 34.6933 117.373 35.4C117.627 34.72 118.04 34.1867 118.613 33.8C119.187 33.4 119.84 33.2 120.573 33.2C121.653 33.2 122.527 33.5667 123.193 34.3C123.873 35.02 124.26 36.1667 124.353 37.74L124.573 41.58ZM134.621 40.18C134.715 40.0333 134.841 39.98 135.001 40.02C135.161 40.0467 135.235 40.1533 135.221 40.34C135.061 41.06 134.641 41.72 133.961 42.32C133.281 42.9067 132.381 43.2 131.261 43.2C129.861 43.2 128.708 42.7333 127.801 41.8C126.908 40.8533 126.461 39.6267 126.461 38.12C126.461 36.68 126.908 35.5067 127.801 34.6C128.695 33.68 129.841 33.2133 131.241 33.2C132.268 33.1867 133.108 33.42 133.761 33.9C134.428 34.3667 134.761 35.02 134.761 35.86C134.761 36.54 134.475 37.1467 133.901 37.68C133.328 38.2 132.568 38.5533 131.621 38.74C130.688 38.9133 129.561 38.9467 128.241 38.84C128.468 39.7867 128.888 40.54 129.501 41.1C130.115 41.6467 130.855 41.92 131.721 41.92C132.441 41.92 133.048 41.76 133.541 41.44C134.035 41.12 134.395 40.7 134.621 40.18ZM130.941 33.88C130.101 33.88 129.415 34.22 128.881 34.9C128.348 35.58 128.081 36.4133 128.081 37.4C128.081 37.56 128.095 37.8 128.121 38.12C129.428 38.2133 130.481 38.1733 131.281 38C132.481 37.7467 133.075 37.0333 133.061 35.86C133.048 35.2733 132.841 34.8 132.441 34.44C132.055 34.0667 131.555 33.88 130.941 33.88ZM146.443 34.04C146.443 34.12 146.376 34.2067 146.243 34.3C146.123 34.3933 145.996 34.52 145.863 34.68C145.743 34.8267 145.683 35.0133 145.683 35.24V41.6C145.683 41.8667 145.803 42.1 146.043 42.3C146.296 42.5 146.423 42.64 146.423 42.72V42.78C146.423 42.9267 146.329 43 146.143 43H144.443C144.229 43 144.123 42.8933 144.123 42.68V41.56C143.803 42.0933 143.363 42.5 142.803 42.78C142.256 43.06 141.663 43.2 141.023 43.2C139.756 43.2 138.669 42.7333 137.763 41.8C136.856 40.8667 136.403 39.66 136.403 38.18C136.403 36.7267 136.849 35.5333 137.743 34.6C138.636 33.6667 139.756 33.2 141.103 33.2C142.383 33.2 143.396 33.7 144.143 34.7V33.62C144.143 33.46 144.196 33.3467 144.303 33.28C144.423 33.2133 144.576 33.2133 144.763 33.28L146.143 33.64C146.343 33.6933 146.443 33.8067 146.443 33.98V34.04ZM141.443 42.54C142.083 42.54 142.663 42.2867 143.183 41.78C143.716 41.26 143.983 40.5533 143.983 39.66V36.64C143.983 35.9733 143.689 35.34 143.103 34.74C142.529 34.14 141.856 33.84 141.083 33.84C140.216 33.84 139.509 34.1867 138.963 34.88C138.416 35.56 138.136 36.46 138.123 37.58C138.096 38.9667 138.396 40.14 139.023 41.1C139.649 42.0467 140.456 42.5267 141.443 42.54ZM151.965 43.18C150.738 43.18 149.752 42.9333 149.005 42.44C148.272 41.9467 147.905 41.4333 147.905 40.9C147.905 40.4067 148.165 40.16 148.685 40.16C148.912 40.16 149.092 40.2467 149.225 40.42C149.372 40.58 149.498 40.78 149.605 41.02C149.712 41.26 149.838 41.5 149.985 41.74C150.145 41.98 150.392 42.1867 150.725 42.36C151.058 42.52 151.472 42.6 151.965 42.6C152.632 42.6 153.178 42.4467 153.605 42.14C154.032 41.82 154.245 41.3867 154.245 40.84C154.245 40.3067 154.032 39.8933 153.605 39.6C153.192 39.3067 152.685 39.1 152.085 38.98C151.485 38.8467 150.885 38.7 150.285 38.54C149.685 38.38 149.172 38.0867 148.745 37.66C148.332 37.2333 148.125 36.66 148.125 35.94C148.125 35.1667 148.478 34.52 149.185 34C149.892 33.4667 150.792 33.2 151.885 33.2C153.045 33.2 153.985 33.4467 154.705 33.94C155.425 34.4333 155.785 34.9733 155.785 35.56C155.785 35.76 155.712 35.9267 155.565 36.06C155.432 36.1933 155.265 36.26 155.065 36.26C154.825 36.26 154.618 36.1333 154.445 35.88C154.272 35.6267 154.125 35.3467 154.005 35.04C153.898 34.7333 153.672 34.4533 153.325 34.2C152.978 33.9467 152.525 33.82 151.965 33.82C151.378 33.82 150.885 33.9867 150.485 34.32C150.098 34.6533 149.905 35.0667 149.905 35.56C149.905 36.08 150.112 36.4867 150.525 36.78C150.952 37.06 151.465 37.2667 152.065 37.4C152.665 37.5333 153.258 37.68 153.845 37.84C154.445 38 154.952 38.3 155.365 38.74C155.792 39.1667 156.005 39.7467 156.005 40.48C156.005 41.2533 155.632 41.9 154.885 42.42C154.152 42.9267 153.178 43.18 151.965 43.18ZM166.341 41.28C166.341 41.6133 166.401 41.8667 166.521 42.04C166.641 42.2133 166.768 42.3133 166.901 42.34C167.034 42.3533 167.161 42.3867 167.281 42.44C167.401 42.4933 167.461 42.58 167.461 42.7C167.461 42.98 167.048 43.12 166.221 43.12C165.208 43.12 164.721 42.6267 164.761 41.64L164.721 41.52C164.108 42.64 163.081 43.2 161.641 43.2C160.521 43.2 159.621 42.8067 158.941 42.02C158.274 41.22 157.941 40.0933 157.941 38.64V35.1C157.941 34.8067 157.814 34.56 157.561 34.36C157.321 34.16 157.201 34.02 157.201 33.94V33.88C157.201 33.72 157.301 33.62 157.501 33.58L159.181 33.28C159.541 33.2133 159.721 33.2933 159.721 33.52L159.701 38.78C159.701 39.94 159.901 40.84 160.301 41.48C160.714 42.1067 161.301 42.42 162.061 42.42C162.781 42.42 163.381 42.14 163.861 41.58C164.354 41.02 164.601 40.2867 164.601 39.38V35.1C164.601 34.82 164.468 34.58 164.201 34.38C163.948 34.18 163.821 34.0333 163.821 33.94V33.88C163.821 33.72 163.921 33.62 164.121 33.58L165.821 33.28C166.168 33.2133 166.341 33.2933 166.341 33.52V41.28ZM173.65 33.2C174.223 33.2 174.67 33.3467 174.99 33.64C175.323 33.9333 175.49 34.3 175.49 34.74C175.49 35.3667 175.223 35.68 174.69 35.68C174.463 35.68 174.283 35.6067 174.15 35.46C174.016 35.3133 173.923 35.1533 173.87 34.98C173.83 34.8067 173.73 34.6467 173.57 34.5C173.41 34.3533 173.19 34.28 172.91 34.28C172.376 34.28 171.956 34.5467 171.65 35.08C171.356 35.6 171.21 36.2533 171.21 37.04V41.6C171.21 41.8667 171.35 42.0933 171.63 42.28C171.91 42.4533 172.05 42.5867 172.05 42.68V42.76C172.05 42.92 171.916 43 171.65 43H169.17C168.903 43 168.77 42.92 168.77 42.76V42.68C168.77 42.5867 168.89 42.4533 169.13 42.28C169.383 42.0933 169.51 41.8667 169.51 41.6V35.52C169.51 35.24 169.376 35 169.11 34.8C168.843 34.6 168.71 34.4533 168.71 34.36V34.32C168.71 34.1867 168.81 34.0667 169.01 33.96L170.53 33.28C170.876 33.12 171.05 33.2133 171.05 33.56V35.16C171.503 33.8533 172.37 33.2 173.65 33.2ZM184.211 40.18C184.304 40.0333 184.431 39.98 184.591 40.02C184.751 40.0467 184.824 40.1533 184.811 40.34C184.651 41.06 184.231 41.72 183.551 42.32C182.871 42.9067 181.971 43.2 180.851 43.2C179.451 43.2 178.298 42.7333 177.391 41.8C176.498 40.8533 176.051 39.6267 176.051 38.12C176.051 36.68 176.498 35.5067 177.391 34.6C178.284 33.68 179.431 33.2133 180.831 33.2C181.858 33.1867 182.698 33.42 183.351 33.9C184.018 34.3667 184.351 35.02 184.351 35.86C184.351 36.54 184.064 37.1467 183.491 37.68C182.918 38.2 182.158 38.5533 181.211 38.74C180.278 38.9133 179.151 38.9467 177.831 38.84C178.058 39.7867 178.478 40.54 179.091 41.1C179.704 41.6467 180.444 41.92 181.311 41.92C182.031 41.92 182.638 41.76 183.131 41.44C183.624 41.12 183.984 40.7 184.211 40.18ZM180.531 33.88C179.691 33.88 179.004 34.22 178.471 34.9C177.938 35.58 177.671 36.4133 177.671 37.4C177.671 37.56 177.684 37.8 177.711 38.12C179.018 38.2133 180.071 38.1733 180.871 38C182.071 37.7467 182.664 37.0333 182.651 35.86C182.638 35.2733 182.431 34.8 182.031 34.44C181.644 34.0667 181.144 33.88 180.531 33.88ZM10.72 61.04C10.72 61.12 10.6533 61.2067 10.52 61.3C10.4 61.3933 10.2733 61.52 10.14 61.68C10.02 61.8267 9.96 62.0133 9.96 62.24V68.6C9.96 68.8667 10.08 69.1 10.32 69.3C10.5733 69.5 10.7 69.64 10.7 69.72V69.78C10.7 69.9267 10.6067 70 10.42 70H8.72C8.50667 70 8.4 69.8933 8.4 69.68V68.56C8.08 69.0933 7.64 69.5 7.08 69.78C6.53333 70.06 5.94 70.2 5.3 70.2C4.03333 70.2 2.94667 69.7333 2.04 68.8C1.13333 67.8667 0.68 66.66 0.68 65.18C0.68 63.7267 1.12667 62.5333 2.02 61.6C2.91333 60.6667 4.03333 60.2 5.38 60.2C6.66 60.2 7.67333 60.7 8.42 61.7V60.62C8.42 60.46 8.47333 60.3467 8.58 60.28C8.7 60.2133 8.85333 60.2133 9.04 60.28L10.42 60.64C10.62 60.6933 10.72 60.8067 10.72 60.98V61.04ZM5.72 69.54C6.36 69.54 6.94 69.2867 7.46 68.78C7.99333 68.26 8.26 67.5533 8.26 66.66V63.64C8.26 62.9733 7.96667 62.34 7.38 61.74C6.80667 61.14 6.13333 60.84 5.36 60.84C4.49333 60.84 3.78667 61.1867 3.24 61.88C2.69333 62.56 2.41333 63.46 2.4 64.58C2.37333 65.9667 2.67333 67.14 3.3 68.1C3.92667 69.0467 4.73333 69.5267 5.72 69.54ZM14.7425 61.5C15.4358 60.6333 16.4158 60.2 17.6825 60.2C18.9492 60.2 20.0292 60.6533 20.9225 61.56C21.8292 62.4533 22.2825 63.62 22.2825 65.06C22.2825 66.5267 21.8358 67.7533 20.9425 68.74C20.0625 69.7133 18.9825 70.2 17.7025 70.2C16.3825 70.2 15.3558 69.6933 14.6225 68.68L14.6425 69.7C14.6425 69.9133 14.5292 70.02 14.3025 70.02L12.5625 70C12.3625 70 12.2625 69.9267 12.2625 69.78V69.72C12.2625 69.6267 12.3825 69.48 12.6225 69.28C12.8758 69.08 13.0025 68.8467 13.0025 68.58V57.38C13.0025 57.14 12.9358 56.9467 12.8025 56.8C12.6692 56.6533 12.5358 56.54 12.4025 56.46C12.2692 56.3667 12.2025 56.2733 12.2025 56.18V56.12C12.2025 56 12.3158 55.8933 12.5425 55.8L14.1225 55.04C14.3092 54.9467 14.4558 54.9267 14.5625 54.98C14.6825 55.0333 14.7425 55.1467 14.7425 55.32V61.5ZM17.4425 69.56C18.3758 69.56 19.1158 69.2 19.6625 68.48C20.2225 67.7467 20.5025 66.7667 20.5025 65.54C20.5025 64.1533 20.1958 63.0267 19.5825 62.16C18.9825 61.28 18.1958 60.84 17.2225 60.84C16.5558 60.84 15.9758 61.0933 15.4825 61.6C14.9892 62.0933 14.7425 62.68 14.7425 63.36V66.2L14.7225 66.48H14.7425C14.7425 67.28 15.0158 67.9933 15.5625 68.62C16.1225 69.2467 16.7492 69.56 17.4425 69.56ZM28.8292 70.2C27.2826 70.2 26.0226 69.7 25.0492 68.7C24.0892 67.6867 23.6092 66.4733 23.6092 65.06C23.6092 63.6733 24.0759 62.52 25.0092 61.6C25.9426 60.6667 27.0959 60.2 28.4692 60.2C29.9492 60.2 31.1626 60.6933 32.1092 61.68C33.0692 62.6533 33.5492 63.8533 33.5492 65.28C33.5492 66.68 33.1092 67.8533 32.2292 68.8C31.3492 69.7333 30.2159 70.2 28.8292 70.2ZM29.0692 69.54C29.8559 69.54 30.5026 69.2067 31.0092 68.54C31.5292 67.8733 31.7892 66.9867 31.7892 65.88C31.7892 64.4667 31.4559 63.28 30.7892 62.32C30.1226 61.3467 29.2826 60.86 28.2692 60.86C27.4159 60.86 26.7226 61.1933 26.1892 61.86C25.6559 62.5133 25.3892 63.3933 25.3892 64.5C25.3892 65.8333 25.7359 67.0067 26.4292 68.02C27.1226 69.0333 28.0026 69.54 29.0692 69.54ZM43.9778 68.28C43.9778 68.6133 44.0378 68.8667 44.1578 69.04C44.2778 69.2133 44.4045 69.3133 44.5378 69.34C44.6711 69.3533 44.7978 69.3867 44.9178 69.44C45.0378 69.4933 45.0978 69.58 45.0978 69.7C45.0978 69.98 44.6845 70.12 43.8578 70.12C42.8445 70.12 42.3578 69.6267 42.3978 68.64L42.3578 68.52C41.7445 69.64 40.7178 70.2 39.2778 70.2C38.1578 70.2 37.2578 69.8067 36.5778 69.02C35.9111 68.22 35.5778 67.0933 35.5778 65.64V62.1C35.5778 61.8067 35.4511 61.56 35.1978 61.36C34.9578 61.16 34.8378 61.02 34.8378 60.94V60.88C34.8378 60.72 34.9378 60.62 35.1378 60.58L36.8178 60.28C37.1778 60.2133 37.3578 60.2933 37.3578 60.52L37.3378 65.78C37.3378 66.94 37.5378 67.84 37.9378 68.48C38.3511 69.1067 38.9378 69.42 39.6978 69.42C40.4178 69.42 41.0178 69.14 41.4978 68.58C41.9911 68.02 42.2378 67.2867 42.2378 66.38V62.1C42.2378 61.82 42.1045 61.58 41.8378 61.38C41.5845 61.18 41.4578 61.0333 41.4578 60.94V60.88C41.4578 60.72 41.5578 60.62 41.7578 60.58L43.4578 60.28C43.8045 60.2133 43.9778 60.2933 43.9778 60.52V68.28ZM49.8478 70.2C49.0478 70.2 48.4145 69.9467 47.9478 69.44C47.4945 68.92 47.2678 68.1667 47.2678 67.18V61.2H45.9478C45.7478 61.2 45.6478 61.1 45.6478 60.9V60.7C45.6478 60.5 45.7478 60.4 45.9478 60.4H46.6678C47.5745 60.4 48.0811 59.7667 48.1878 58.5C48.2145 58.2333 48.3278 58.1 48.5278 58.1H48.7278C48.9411 58.1 49.0478 58.2333 49.0478 58.5L49.0678 60.4H51.8278C51.9078 60.4 51.9745 60.4333 52.0278 60.5C52.0945 60.5533 52.1278 60.62 52.1278 60.7V60.9C52.1278 61.1 52.0278 61.2 51.8278 61.2H49.0678V67.2C49.0678 67.7333 49.1811 68.1467 49.4078 68.44C49.6345 68.7333 49.9411 68.88 50.3278 68.88C50.7545 68.88 51.0945 68.7733 51.3478 68.56C51.6145 68.3333 51.7678 68.04 51.8078 67.68C51.8745 67.52 51.9878 67.4533 52.1478 67.48C52.3211 67.4933 52.4078 67.5867 52.4078 67.76C52.4078 68.4133 52.1678 68.9867 51.6878 69.48C51.2211 69.96 50.6078 70.2 49.8478 70.2ZM61.2541 70.2C60.4541 70.2 59.8207 69.9467 59.3541 69.44C58.9007 68.92 58.6741 68.1667 58.6741 67.18V61.2H57.3541C57.1541 61.2 57.0541 61.1 57.0541 60.9V60.7C57.0541 60.5 57.1541 60.4 57.3541 60.4H58.0741C58.9807 60.4 59.4874 59.7667 59.5941 58.5C59.6207 58.2333 59.7341 58.1 59.9341 58.1H60.1341C60.3474 58.1 60.4541 58.2333 60.4541 58.5L60.4741 60.4H63.2341C63.3141 60.4 63.3807 60.4333 63.4341 60.5C63.5007 60.5533 63.5341 60.62 63.5341 60.7V60.9C63.5341 61.1 63.4341 61.2 63.2341 61.2H60.4741V67.2C60.4741 67.7333 60.5874 68.1467 60.8141 68.44C61.0407 68.7333 61.3474 68.88 61.7341 68.88C62.1607 68.88 62.5007 68.7733 62.7541 68.56C63.0207 68.3333 63.1741 68.04 63.2141 67.68C63.2807 67.52 63.3941 67.4533 63.5541 67.48C63.7274 67.4933 63.8141 67.5867 63.8141 67.76C63.8141 68.4133 63.5741 68.9867 63.0941 69.48C62.6274 69.96 62.0141 70.2 61.2541 70.2ZM74.183 68.56C74.2096 68.8267 74.3363 69.0533 74.563 69.24C74.7896 69.4267 74.903 69.5733 74.903 69.68V69.76C74.903 69.92 74.7696 70 74.503 70H72.103C71.8363 70 71.703 69.92 71.703 69.76V69.68C71.703 69.5867 71.763 69.4933 71.883 69.4C72.0163 69.3067 72.143 69.2 72.263 69.08C72.383 68.9467 72.4363 68.78 72.423 68.58L72.223 64.5C72.1696 63.3533 71.923 62.48 71.483 61.88C71.043 61.28 70.4696 60.98 69.763 60.98C69.0296 60.98 68.4296 61.24 67.963 61.76C67.4963 62.28 67.263 62.94 67.263 63.74V68.6C67.263 68.8533 67.3963 69.0733 67.663 69.26C67.9296 69.4333 68.063 69.5733 68.063 69.68V69.74C68.063 69.9133 67.923 70 67.643 70H65.143C64.8896 70 64.763 69.9133 64.763 69.74V69.68C64.763 69.5733 64.883 69.4333 65.123 69.26C65.3763 69.0733 65.503 68.8533 65.503 68.6V57.3C65.503 57.0733 65.4363 56.8933 65.303 56.76C65.183 56.6133 65.0563 56.5 64.923 56.42C64.803 56.3267 64.743 56.24 64.743 56.16V56.1C64.743 55.9533 64.8363 55.84 65.023 55.76L66.663 55.04C66.8363 54.96 66.9763 54.9467 67.083 55C67.1896 55.04 67.243 55.14 67.243 55.3L67.203 61.78C67.883 60.7267 68.8763 60.2 70.183 60.2C71.223 60.2 72.0896 60.5667 72.783 61.3C73.4896 62.02 73.883 63.1 73.963 64.54L74.183 68.56ZM81.1302 60.2C81.7035 60.2 82.1502 60.3467 82.4702 60.64C82.8035 60.9333 82.9702 61.3 82.9702 61.74C82.9702 62.3667 82.7035 62.68 82.1702 62.68C81.9435 62.68 81.7635 62.6067 81.6302 62.46C81.4968 62.3133 81.4035 62.1533 81.3502 61.98C81.3102 61.8067 81.2102 61.6467 81.0502 61.5C80.8902 61.3533 80.6702 61.28 80.3902 61.28C79.8568 61.28 79.4368 61.5467 79.1302 62.08C78.8368 62.6 78.6902 63.2533 78.6902 64.04V68.6C78.6902 68.8667 78.8302 69.0933 79.1102 69.28C79.3902 69.4533 79.5302 69.5867 79.5302 69.68V69.76C79.5302 69.92 79.3968 70 79.1302 70H76.6502C76.3835 70 76.2502 69.92 76.2502 69.76V69.68C76.2502 69.5867 76.3702 69.4533 76.6102 69.28C76.8635 69.0933 76.9902 68.8667 76.9902 68.6V62.52C76.9902 62.24 76.8568 62 76.5902 61.8C76.3235 61.6 76.1902 61.4533 76.1902 61.36V61.32C76.1902 61.1867 76.2902 61.0667 76.4902 60.96L78.0102 60.28C78.3568 60.12 78.5302 60.2133 78.5302 60.56V62.16C78.9835 60.8533 79.8502 60.2 81.1302 60.2ZM91.6916 67.18C91.7849 67.0333 91.9116 66.98 92.0716 67.02C92.2316 67.0467 92.3049 67.1533 92.2916 67.34C92.1316 68.06 91.7116 68.72 91.0316 69.32C90.3516 69.9067 89.4516 70.2 88.3316 70.2C86.9316 70.2 85.7782 69.7333 84.8716 68.8C83.9782 67.8533 83.5316 66.6267 83.5316 65.12C83.5316 63.68 83.9782 62.5067 84.8716 61.6C85.7649 60.68 86.9116 60.2133 88.3116 60.2C89.3382 60.1867 90.1782 60.42 90.8316 60.9C91.4982 61.3667 91.8316 62.02 91.8316 62.86C91.8316 63.54 91.5449 64.1467 90.9716 64.68C90.3982 65.2 89.6382 65.5533 88.6916 65.74C87.7582 65.9133 86.6316 65.9467 85.3116 65.84C85.5382 66.7867 85.9582 67.54 86.5716 68.1C87.1849 68.6467 87.9249 68.92 88.7916 68.92C89.5116 68.92 90.1182 68.76 90.6116 68.44C91.1049 68.12 91.4649 67.7 91.6916 67.18ZM88.0116 60.88C87.1716 60.88 86.4849 61.22 85.9516 61.9C85.4182 62.58 85.1516 63.4133 85.1516 64.4C85.1516 64.56 85.1649 64.8 85.1916 65.12C86.4982 65.2133 87.5516 65.1733 88.3516 65C89.5516 64.7467 90.1449 64.0333 90.1316 62.86C90.1182 62.2733 89.9116 61.8 89.5116 61.44C89.1249 61.0667 88.6249 60.88 88.0116 60.88ZM101.633 67.18C101.726 67.0333 101.853 66.98 102.013 67.02C102.173 67.0467 102.246 67.1533 102.233 67.34C102.073 68.06 101.653 68.72 100.973 69.32C100.293 69.9067 99.393 70.2 98.273 70.2C96.873 70.2 95.7196 69.7333 94.813 68.8C93.9196 67.8533 93.473 66.6267 93.473 65.12C93.473 63.68 93.9196 62.5067 94.813 61.6C95.7063 60.68 96.853 60.2133 98.253 60.2C99.2796 60.1867 100.12 60.42 100.773 60.9C101.44 61.3667 101.773 62.02 101.773 62.86C101.773 63.54 101.486 64.1467 100.913 64.68C100.34 65.2 99.5796 65.5533 98.633 65.74C97.6996 65.9133 96.573 65.9467 95.253 65.84C95.4796 66.7867 95.8996 67.54 96.513 68.1C97.1263 68.6467 97.8663 68.92 98.733 68.92C99.453 68.92 100.06 68.76 100.553 68.44C101.046 68.12 101.406 67.7 101.633 67.18ZM97.953 60.88C97.113 60.88 96.4263 61.22 95.893 61.9C95.3596 62.58 95.093 63.4133 95.093 64.4C95.093 64.56 95.1063 64.8 95.133 65.12C96.4396 65.2133 97.493 65.1733 98.293 65C99.493 64.7467 100.086 64.0333 100.073 62.86C100.06 62.2733 99.853 61.8 99.453 61.44C99.0663 61.0667 98.5663 60.88 97.953 60.88ZM112.807 70.2C111.407 70.2 110.22 69.72 109.247 68.76C108.287 67.7867 107.807 66.58 107.807 65.14C107.807 63.6733 108.273 62.4867 109.207 61.58C110.153 60.6733 111.327 60.2133 112.727 60.2C113.767 60.1867 114.673 60.4533 115.447 61C116.233 61.5333 116.627 62.0933 116.627 62.68C116.627 63.16 116.36 63.3933 115.827 63.38C115.573 63.3667 115.333 63.2333 115.107 62.98C114.893 62.7133 114.7 62.4267 114.527 62.12C114.367 61.8 114.1 61.5067 113.727 61.24C113.367 60.9733 112.927 60.84 112.407 60.84C111.58 60.84 110.9 61.18 110.367 61.86C109.833 62.5267 109.567 63.36 109.567 64.36C109.567 65.7467 109.92 66.86 110.627 67.7C111.333 68.5267 112.247 68.94 113.367 68.94C114.02 68.94 114.58 68.7667 115.047 68.42C115.527 68.06 115.893 67.6067 116.147 67.06C116.227 66.9 116.353 66.84 116.527 66.88C116.7 66.92 116.767 67.0333 116.727 67.22C116.567 68.0333 116.14 68.7333 115.447 69.32C114.767 69.9067 113.887 70.2 112.807 70.2ZM126.106 67.18C126.199 67.0333 126.326 66.98 126.486 67.02C126.646 67.0467 126.719 67.1533 126.706 67.34C126.546 68.06 126.126 68.72 125.446 69.32C124.766 69.9067 123.866 70.2 122.746 70.2C121.346 70.2 120.192 69.7333 119.286 68.8C118.392 67.8533 117.946 66.6267 117.946 65.12C117.946 63.68 118.392 62.5067 119.286 61.6C120.179 60.68 121.326 60.2133 122.726 60.2C123.752 60.1867 124.592 60.42 125.246 60.9C125.912 61.3667 126.246 62.02 126.246 62.86C126.246 63.54 125.959 64.1467 125.386 64.68C124.812 65.2 124.052 65.5533 123.106 65.74C122.172 65.9133 121.046 65.9467 119.726 65.84C119.952 66.7867 120.372 67.54 120.986 68.1C121.599 68.6467 122.339 68.92 123.206 68.92C123.926 68.92 124.532 68.76 125.026 68.44C125.519 68.12 125.879 67.7 126.106 67.18ZM122.426 60.88C121.586 60.88 120.899 61.22 120.366 61.9C119.832 62.58 119.566 63.4133 119.566 64.4C119.566 64.56 119.579 64.8 119.606 65.12C120.912 65.2133 121.966 65.1733 122.766 65C123.966 64.7467 124.559 64.0333 124.546 62.86C124.532 62.2733 124.326 61.8 123.926 61.44C123.539 61.0667 123.039 60.88 122.426 60.88ZM137.487 68.56C137.5 68.7733 137.567 68.9467 137.687 69.08C137.807 69.2133 137.92 69.3267 138.027 69.42C138.147 69.5 138.207 69.5867 138.207 69.68V69.76C138.207 69.9333 138.067 70.02 137.787 70.02H135.407C135.127 70.02 134.987 69.9333 134.987 69.76V69.68C134.987 69.5867 135.107 69.4467 135.347 69.26C135.6 69.0733 135.72 68.8467 135.707 68.58L135.507 64.58C135.454 63.3933 135.207 62.5 134.767 61.9C134.34 61.2867 133.767 60.98 133.047 60.98C132.314 60.98 131.714 61.24 131.247 61.76C130.78 62.28 130.547 62.94 130.547 63.74V68.6C130.547 68.76 130.587 68.9 130.667 69.02C130.76 69.1267 130.854 69.2067 130.947 69.26C131.04 69.3133 131.127 69.38 131.207 69.46C131.3 69.5267 131.347 69.6 131.347 69.68V69.76C131.347 69.9333 131.207 70.02 130.927 70.02H128.427C128.16 70.02 128.027 69.9333 128.027 69.76V69.68C128.027 69.5733 128.154 69.4333 128.407 69.26C128.674 69.0867 128.807 68.8667 128.807 68.6V62.54C128.807 62.2867 128.734 62.0933 128.587 61.96C128.454 61.8133 128.314 61.7 128.167 61.62C128.034 61.54 127.967 61.4533 127.967 61.36V61.3C127.967 61.18 128.074 61.08 128.287 61L129.787 60.28C129.974 60.1867 130.114 60.1733 130.207 60.24C130.3 60.3067 130.347 60.42 130.347 60.58V62.04C130.64 61.48 131.06 61.0333 131.607 60.7C132.167 60.3667 132.787 60.2 133.467 60.2C134.507 60.2 135.374 60.5667 136.067 61.3C136.774 62.0333 137.174 63.14 137.267 64.62L137.487 68.56ZM142.875 70.2C142.075 70.2 141.442 69.9467 140.975 69.44C140.522 68.92 140.295 68.1667 140.295 67.18V61.2H138.975C138.775 61.2 138.675 61.1 138.675 60.9V60.7C138.675 60.5 138.775 60.4 138.975 60.4H139.695C140.602 60.4 141.108 59.7667 141.215 58.5C141.242 58.2333 141.355 58.1 141.555 58.1H141.755C141.968 58.1 142.075 58.2333 142.075 58.5L142.095 60.4H144.855C144.935 60.4 145.002 60.4333 145.055 60.5C145.122 60.5533 145.155 60.62 145.155 60.7V60.9C145.155 61.1 145.055 61.2 144.855 61.2H142.095V67.2C142.095 67.7333 142.208 68.1467 142.435 68.44C142.662 68.7333 142.968 68.88 143.355 68.88C143.782 68.88 144.122 68.7733 144.375 68.56C144.642 68.3333 144.795 68.04 144.835 67.68C144.902 67.52 145.015 67.4533 145.175 67.48C145.348 67.4933 145.435 67.5867 145.435 67.76C145.435 68.4133 145.195 68.9867 144.715 69.48C144.248 69.96 143.635 70.2 142.875 70.2ZM148.064 58.5C147.651 58.5 147.324 58.3867 147.084 58.16C146.844 57.9333 146.724 57.6333 146.724 57.26C146.724 56.8867 146.844 56.5867 147.084 56.36C147.337 56.12 147.664 56 148.064 56C148.451 56 148.764 56.12 149.004 56.36C149.244 56.5867 149.364 56.8867 149.364 57.26C149.364 57.6333 149.244 57.9333 149.004 58.16C148.764 58.3867 148.451 58.5 148.064 58.5ZM146.904 70C146.651 70 146.524 69.9133 146.524 69.74V69.66C146.524 69.5667 146.584 69.48 146.704 69.4C146.824 69.3067 146.944 69.2 147.064 69.08C147.184 68.9467 147.244 68.78 147.244 68.58V62.62C147.244 62.3133 147.124 62.0467 146.884 61.82C146.644 61.5933 146.524 61.4467 146.524 61.38V61.34C146.524 61.2467 146.624 61.1467 146.824 61.04L148.364 60.28C148.577 60.2 148.731 60.1867 148.824 60.24C148.931 60.2933 148.984 60.4 148.984 60.56V68.58C148.984 68.74 149.024 68.88 149.104 69C149.184 69.1067 149.277 69.1867 149.384 69.24C149.491 69.2933 149.584 69.36 149.664 69.44C149.744 69.5067 149.784 69.58 149.784 69.66V69.74C149.784 69.9133 149.644 70 149.364 70H146.904ZM167.327 68.58C167.341 68.8467 167.467 69.08 167.707 69.28C167.947 69.4667 168.067 69.6067 168.067 69.7V69.78C168.067 69.94 167.934 70.02 167.667 70.02H165.267C165.001 70.02 164.867 69.94 164.867 69.78V69.7C164.867 69.6067 164.987 69.4667 165.227 69.28C165.467 69.0933 165.581 68.8667 165.567 68.6L165.367 64.7C165.301 63.3933 165.054 62.4467 164.627 61.86C164.214 61.2733 163.627 60.98 162.867 60.98C162.227 60.98 161.674 61.2333 161.207 61.74C160.754 62.2467 160.514 62.8733 160.487 63.62C160.541 63.8867 160.567 64.2133 160.567 64.6V68.6C160.567 68.8667 160.681 69.0933 160.907 69.28C161.147 69.4667 161.267 69.6067 161.267 69.7V69.78C161.267 69.94 161.141 70.02 160.887 70.02H158.527C158.247 70.02 158.107 69.94 158.107 69.78V69.7C158.107 69.6067 158.221 69.4667 158.447 69.28C158.687 69.0933 158.807 68.8667 158.807 68.6V64.5C158.807 63.42 158.567 62.5667 158.087 61.94C157.621 61.3 157.034 60.98 156.327 60.98C155.634 60.98 155.054 61.24 154.587 61.76C154.121 62.28 153.874 62.92 153.847 63.68L153.867 68.6C153.867 68.8667 153.994 69.0933 154.247 69.28C154.514 69.4667 154.647 69.6067 154.647 69.7V69.78C154.647 69.94 154.514 70.02 154.247 70.02H151.747C151.481 70.02 151.347 69.94 151.347 69.78V69.7C151.347 69.6067 151.474 69.4667 151.727 69.28C151.981 69.0933 152.107 68.8667 152.107 68.6V62.54C152.107 62.3133 152.041 62.1267 151.907 61.98C151.774 61.8333 151.641 61.72 151.507 61.64C151.374 61.5467 151.307 61.4533 151.307 61.36V61.3C151.307 61.18 151.407 61.08 151.607 61L153.167 60.28C153.354 60.1867 153.494 60.1733 153.587 60.24C153.694 60.3067 153.747 60.42 153.747 60.58V62C154.041 61.4533 154.447 61.02 154.967 60.7C155.501 60.3667 156.081 60.2 156.707 60.2C157.454 60.2 158.127 60.3933 158.727 60.78C159.341 61.1533 159.807 61.6933 160.127 62.4C160.381 61.72 160.794 61.1867 161.367 60.8C161.941 60.4 162.594 60.2 163.327 60.2C164.407 60.2 165.281 60.5667 165.947 61.3C166.627 62.02 167.014 63.1667 167.107 64.74L167.327 68.58ZM177.375 67.18C177.468 67.0333 177.595 66.98 177.755 67.02C177.915 67.0467 177.988 67.1533 177.975 67.34C177.815 68.06 177.395 68.72 176.715 69.32C176.035 69.9067 175.135 70.2 174.015 70.2C172.615 70.2 171.462 69.7333 170.555 68.8C169.662 67.8533 169.215 66.6267 169.215 65.12C169.215 63.68 169.662 62.5067 170.555 61.6C171.448 60.68 172.595 60.2133 173.995 60.2C175.022 60.1867 175.862 60.42 176.515 60.9C177.182 61.3667 177.515 62.02 177.515 62.86C177.515 63.54 177.228 64.1467 176.655 64.68C176.082 65.2 175.322 65.5533 174.375 65.74C173.442 65.9133 172.315 65.9467 170.995 65.84C171.222 66.7867 171.642 67.54 172.255 68.1C172.868 68.6467 173.608 68.92 174.475 68.92C175.195 68.92 175.802 68.76 176.295 68.44C176.788 68.12 177.148 67.7 177.375 67.18ZM173.695 60.88C172.855 60.88 172.168 61.22 171.635 61.9C171.102 62.58 170.835 63.4133 170.835 64.4C170.835 64.56 170.848 64.8 170.875 65.12C172.182 65.2133 173.235 65.1733 174.035 65C175.235 64.7467 175.828 64.0333 175.815 62.86C175.802 62.2733 175.595 61.8 175.195 61.44C174.808 61.0667 174.308 60.88 173.695 60.88ZM182.758 70.2C181.958 70.2 181.325 69.9467 180.858 69.44C180.405 68.92 180.178 68.1667 180.178 67.18V61.2H178.858C178.658 61.2 178.558 61.1 178.558 60.9V60.7C178.558 60.5 178.658 60.4 178.858 60.4H179.578C180.485 60.4 180.991 59.7667 181.098 58.5C181.125 58.2333 181.238 58.1 181.438 58.1H181.638C181.851 58.1 181.958 58.2333 181.958 58.5L181.978 60.4H184.738C184.818 60.4 184.885 60.4333 184.938 60.5C185.005 60.5533 185.038 60.62 185.038 60.7V60.9C185.038 61.1 184.938 61.2 184.738 61.2H181.978V67.2C181.978 67.7333 182.091 68.1467 182.318 68.44C182.545 68.7333 182.851 68.88 183.238 68.88C183.665 68.88 184.005 68.7733 184.258 68.56C184.525 68.3333 184.678 68.04 184.718 67.68C184.785 67.52 184.898 67.4533 185.058 67.48C185.231 67.4933 185.318 67.5867 185.318 67.76C185.318 68.4133 185.078 68.9867 184.598 69.48C184.131 69.96 183.518 70.2 182.758 70.2ZM194.309 67.18C194.402 67.0333 194.529 66.98 194.689 67.02C194.849 67.0467 194.922 67.1533 194.909 67.34C194.749 68.06 194.329 68.72 193.649 69.32C192.969 69.9067 192.069 70.2 190.949 70.2C189.549 70.2 188.395 69.7333 187.489 68.8C186.595 67.8533 186.149 66.6267 186.149 65.12C186.149 63.68 186.595 62.5067 187.489 61.6C188.382 60.68 189.529 60.2133 190.929 60.2C191.955 60.1867 192.795 60.42 193.449 60.9C194.115 61.3667 194.449 62.02 194.449 62.86C194.449 63.54 194.162 64.1467 193.589 64.68C193.015 65.2 192.255 65.5533 191.309 65.74C190.375 65.9133 189.249 65.9467 187.929 65.84C188.155 66.7867 188.575 67.54 189.189 68.1C189.802 68.6467 190.542 68.92 191.409 68.92C192.129 68.92 192.735 68.76 193.229 68.44C193.722 68.12 194.082 67.7 194.309 67.18ZM190.629 60.88C189.789 60.88 189.102 61.22 188.569 61.9C188.035 62.58 187.769 63.4133 187.769 64.4C187.769 64.56 187.782 64.8 187.809 65.12C189.115 65.2133 190.169 65.1733 190.969 65C192.169 64.7467 192.762 64.0333 192.749 62.86C192.735 62.2733 192.529 61.8 192.129 61.44C191.742 61.0667 191.242 60.88 190.629 60.88ZM201.13 60.2C201.703 60.2 202.15 60.3467 202.47 60.64C202.803 60.9333 202.97 61.3 202.97 61.74C202.97 62.3667 202.703 62.68 202.17 62.68C201.943 62.68 201.763 62.6067 201.63 62.46C201.497 62.3133 201.403 62.1533 201.35 61.98C201.31 61.8067 201.21 61.6467 201.05 61.5C200.89 61.3533 200.67 61.28 200.39 61.28C199.857 61.28 199.437 61.5467 199.13 62.08C198.837 62.6 198.69 63.2533 198.69 64.04V68.6C198.69 68.8667 198.83 69.0933 199.11 69.28C199.39 69.4533 199.53 69.5867 199.53 69.68V69.76C199.53 69.92 199.397 70 199.13 70H196.65C196.383 70 196.25 69.92 196.25 69.76V69.68C196.25 69.5867 196.37 69.4533 196.61 69.28C196.863 69.0933 196.99 68.8667 196.99 68.6V62.52C196.99 62.24 196.857 62 196.59 61.8C196.323 61.6 196.19 61.4533 196.19 61.36V61.32C196.19 61.1867 196.29 61.0667 196.49 60.96L198.01 60.28C198.357 60.12 198.53 60.2133 198.53 60.56V62.16C198.983 60.8533 199.85 60.2 201.13 60.2ZM207.629 70.18C206.403 70.18 205.416 69.9333 204.669 69.44C203.936 68.9467 203.569 68.4333 203.569 67.9C203.569 67.4067 203.829 67.16 204.349 67.16C204.576 67.16 204.756 67.2467 204.889 67.42C205.036 67.58 205.163 67.78 205.269 68.02C205.376 68.26 205.503 68.5 205.649 68.74C205.809 68.98 206.056 69.1867 206.389 69.36C206.723 69.52 207.136 69.6 207.629 69.6C208.296 69.6 208.843 69.4467 209.269 69.14C209.696 68.82 209.909 68.3867 209.909 67.84C209.909 67.3067 209.696 66.8933 209.269 66.6C208.856 66.3067 208.349 66.1 207.749 65.98C207.149 65.8467 206.549 65.7 205.949 65.54C205.349 65.38 204.836 65.0867 204.409 64.66C203.996 64.2333 203.789 63.66 203.789 62.94C203.789 62.1667 204.143 61.52 204.849 61C205.556 60.4667 206.456 60.2 207.549 60.2C208.709 60.2 209.649 60.4467 210.369 60.94C211.089 61.4333 211.449 61.9733 211.449 62.56C211.449 62.76 211.376 62.9267 211.229 63.06C211.096 63.1933 210.929 63.26 210.729 63.26C210.489 63.26 210.283 63.1333 210.109 62.88C209.936 62.6267 209.789 62.3467 209.669 62.04C209.563 61.7333 209.336 61.4533 208.989 61.2C208.643 60.9467 208.189 60.82 207.629 60.82C207.043 60.82 206.549 60.9867 206.149 61.32C205.763 61.6533 205.569 62.0667 205.569 62.56C205.569 63.08 205.776 63.4867 206.189 63.78C206.616 64.06 207.129 64.2667 207.729 64.4C208.329 64.5333 208.923 64.68 209.509 64.84C210.109 65 210.616 65.3 211.029 65.74C211.456 66.1667 211.669 66.7467 211.669 67.48C211.669 68.2533 211.296 68.9 210.549 69.42C209.816 69.9267 208.843 70.18 207.629 70.18Z" fill="black"/>
<path d="M156.74 1.8C157.033 1.8 157.18 1.90667 157.18 2.12V2.2C157.18 2.34667 157.113 2.48 156.98 2.6C156.86 2.70667 156.7 2.85333 156.5 3.04C156.313 3.21333 156.167 3.44 156.06 3.72L151.58 15.16C151.353 15.72 151 16 150.52 16C150 16 149.633 15.74 149.42 15.22L147.72 10.88L145.88 15.16C145.653 15.72 145.26 16 144.7 16C144.167 16 143.767 15.74 143.5 15.22L138.52 3.74C138.373 3.42 138.133 3.12667 137.8 2.86C137.48 2.59333 137.32 2.37333 137.32 2.2V2.12C137.32 1.90667 137.467 1.8 137.76 1.8H141.84C142.133 1.8 142.28 1.90667 142.28 2.12V2.2C142.28 2.33333 142.193 2.47333 142.02 2.62C141.86 2.75333 141.72 2.90667 141.6 3.08C141.493 3.25333 141.493 3.47333 141.6 3.74L145.32 12.8L146.96 8.94L144.92 3.72C144.787 3.37333 144.587 3.07333 144.32 2.82C144.053 2.56667 143.92 2.36 143.92 2.2V2.12C143.92 1.90667 144.06 1.8 144.34 1.8H146.86C147.153 1.8 147.347 1.94 147.44 2.22L148.52 5.26L149.8 2.2C149.907 1.93333 150.1 1.8 150.38 1.8H151.84C152.12 1.8 152.26 1.90667 152.26 2.12V2.2C152.26 2.34667 152.173 2.46667 152 2.56C151.84 2.64 151.64 2.76 151.4 2.92C151.16 3.08 150.987 3.29333 150.88 3.56L149.24 7.34L151.02 12.38L154.4 3.72C154.48 3.48 154.453 3.27333 154.32 3.1C154.2 2.92667 154.053 2.76667 153.88 2.62C153.707 2.47333 153.62 2.33333 153.62 2.2V2.14C153.62 1.91333 153.773 1.8 154.08 1.8H156.74ZM164.426 12.96C164.546 12.8 164.693 12.7467 164.866 12.8C165.039 12.8533 165.119 12.98 165.106 13.18C165.039 13.8867 164.659 14.5667 163.966 15.22C163.286 15.8733 162.339 16.2 161.126 16.2C159.646 16.2 158.439 15.7333 157.506 14.8C156.573 13.8533 156.106 12.6267 156.106 11.12C156.106 9.68 156.579 8.50667 157.526 7.6C158.473 6.68 159.633 6.21333 161.006 6.2C162.139 6.18667 163.059 6.43333 163.766 6.94C164.473 7.44667 164.826 8.13333 164.826 9C164.826 9.70667 164.526 10.3267 163.926 10.86C163.339 11.38 162.573 11.7267 161.626 11.9C160.879 12.06 160.059 12.1 159.166 12.02C159.433 12.6733 159.813 13.1867 160.306 13.56C160.813 13.9333 161.393 14.12 162.046 14.12C163.153 14.12 163.946 13.7333 164.426 12.96ZM160.626 7.12C160.066 7.12 159.613 7.37333 159.266 7.88C158.933 8.38667 158.766 9.02667 158.766 9.8C158.766 10.24 158.806 10.66 158.886 11.06C159.619 11.1133 160.233 11.08 160.726 10.96C161.646 10.7867 162.106 10.0933 162.106 8.88C162.093 8.38667 161.946 7.97333 161.666 7.64C161.399 7.29333 161.053 7.12 160.626 7.12ZM170.366 16.18C169.113 16.18 168.086 15.9533 167.286 15.5C166.486 15.0467 166.086 14.5 166.086 13.86C166.086 13.5 166.193 13.2267 166.406 13.04C166.633 12.8533 166.926 12.76 167.286 12.76C167.673 12.76 167.986 12.9 168.226 13.18C168.466 13.4467 168.633 13.7467 168.726 14.08C168.833 14.4133 169.02 14.72 169.286 15C169.566 15.2667 169.926 15.4 170.366 15.4C170.793 15.4 171.14 15.2867 171.406 15.06C171.686 14.8333 171.826 14.5067 171.826 14.08C171.826 13.6 171.633 13.22 171.246 12.94C170.873 12.66 170.413 12.4533 169.866 12.32C169.32 12.1733 168.773 12.0133 168.226 11.84C167.68 11.6533 167.213 11.34 166.826 10.9C166.453 10.4467 166.266 9.86 166.266 9.14C166.266 8.28667 166.64 7.58667 167.386 7.04C168.146 6.48 169.126 6.2 170.326 6.2C171.54 6.2 172.526 6.44 173.286 6.92C174.06 7.38667 174.446 7.94667 174.446 8.6C174.446 8.89333 174.333 9.14 174.106 9.34C173.893 9.54 173.626 9.64 173.306 9.64C172.933 9.64 172.633 9.50667 172.406 9.24C172.18 8.96 172.02 8.66 171.926 8.34C171.833 8.00667 171.666 7.70667 171.426 7.44C171.186 7.16 170.873 7.02 170.486 7.02C170.1 7.02 169.786 7.15333 169.546 7.42C169.306 7.67333 169.186 7.98667 169.186 8.36C169.186 8.73333 169.286 9.04667 169.486 9.3C169.686 9.55333 169.946 9.74667 170.266 9.88C170.586 10.0133 170.94 10.14 171.326 10.26C171.713 10.3667 172.1 10.4933 172.486 10.64C172.886 10.7733 173.246 10.94 173.566 11.14C173.886 11.34 174.146 11.6267 174.346 12C174.546 12.36 174.646 12.8 174.646 13.32C174.646 14.1467 174.26 14.8333 173.486 15.38C172.713 15.9133 171.673 16.18 170.366 16.18ZM179.638 16.2C178.704 16.2 177.964 15.9067 177.418 15.32C176.884 14.72 176.618 13.86 176.618 12.74V7.56H175.678C175.411 7.56 175.278 7.42667 175.278 7.16V6.82C175.278 6.54 175.411 6.4 175.678 6.4H176.178C176.724 6.4 177.184 6.22 177.558 5.86C177.944 5.5 178.191 5.02 178.298 4.42C178.364 4.1 178.518 3.94 178.758 3.94H179.158C179.451 3.94 179.598 4.1 179.598 4.42L179.618 6.4H181.918C182.024 6.4 182.118 6.44 182.198 6.52C182.278 6.6 182.318 6.7 182.318 6.82V7.16C182.318 7.28 182.278 7.38 182.198 7.46C182.118 7.52667 182.024 7.56 181.918 7.56H179.618V12.78C179.618 13.1667 179.711 13.48 179.898 13.72C180.098 13.9467 180.344 14.06 180.638 14.06C181.331 14.06 181.784 13.76 181.998 13.16C182.118 12.9867 182.264 12.92 182.438 12.96C182.624 12.9867 182.718 13.0933 182.718 13.28C182.718 14.0533 182.438 14.7333 181.878 15.32C181.331 15.9067 180.584 16.2 179.638 16.2ZM191.613 12.96C191.733 12.8 191.88 12.7467 192.053 12.8C192.227 12.8533 192.307 12.98 192.293 13.18C192.227 13.8867 191.847 14.5667 191.153 15.22C190.473 15.8733 189.527 16.2 188.313 16.2C186.833 16.2 185.627 15.7333 184.693 14.8C183.76 13.8533 183.293 12.6267 183.293 11.12C183.293 9.68 183.767 8.50667 184.713 7.6C185.66 6.68 186.82 6.21333 188.193 6.2C189.327 6.18667 190.247 6.43333 190.953 6.94C191.66 7.44667 192.013 8.13333 192.013 9C192.013 9.70667 191.713 10.3267 191.113 10.86C190.527 11.38 189.76 11.7267 188.813 11.9C188.067 12.06 187.247 12.1 186.353 12.02C186.62 12.6733 187 13.1867 187.493 13.56C188 13.9333 188.58 14.12 189.233 14.12C190.34 14.12 191.133 13.7333 191.613 12.96ZM187.813 7.12C187.253 7.12 186.8 7.37333 186.453 7.88C186.12 8.38667 185.953 9.02667 185.953 9.8C185.953 10.24 185.993 10.66 186.073 11.06C186.807 11.1133 187.42 11.08 187.913 10.96C188.833 10.7867 189.293 10.0933 189.293 8.88C189.28 8.38667 189.133 7.97333 188.853 7.64C188.587 7.29333 188.24 7.12 187.813 7.12ZM199.474 6.2C200.047 6.2 200.494 6.37333 200.814 6.72C201.147 7.05333 201.314 7.48667 201.314 8.02C201.314 9.07333 200.887 9.6 200.034 9.6C199.687 9.6 199.414 9.51333 199.214 9.34C199.027 9.15333 198.914 8.95333 198.874 8.74C198.834 8.52667 198.754 8.33333 198.634 8.16C198.514 7.97333 198.334 7.88 198.094 7.88C197.734 7.88 197.467 8.09333 197.294 8.52C197.121 8.94667 197.034 9.46667 197.034 10.08V14.08C197.034 14.32 197.114 14.5333 197.274 14.72C197.447 14.8933 197.614 15.0467 197.774 15.18C197.947 15.3133 198.034 15.4467 198.034 15.58V15.66C198.034 15.8867 197.887 16 197.594 16H193.894C193.587 16 193.434 15.8867 193.434 15.66V15.58C193.434 15.4467 193.561 15.24 193.814 14.96C194.081 14.68 194.214 14.3867 194.214 14.08V9.4C194.214 9.08 194.061 8.79333 193.754 8.54C193.447 8.28667 193.294 8.09333 193.294 7.96V7.88C193.294 7.69333 193.434 7.53333 193.714 7.4L196.114 6.28C196.541 6.08 196.754 6.21333 196.754 6.68V8.18C197.207 6.86 198.114 6.2 199.474 6.2ZM212.328 14.06C212.355 14.38 212.481 14.68 212.708 14.96C212.935 15.24 213.048 15.4533 213.048 15.6V15.68C213.048 15.9067 212.895 16.02 212.588 16.02H209.128C208.821 16.02 208.668 15.9067 208.668 15.68V15.6C208.668 15.4667 208.788 15.26 209.028 14.98C209.281 14.7 209.401 14.3933 209.388 14.06L209.188 10.36C209.095 8.34667 208.515 7.34 207.448 7.34C206.915 7.34 206.495 7.54 206.188 7.94C205.895 8.34 205.748 8.87333 205.748 9.54V14.08C205.748 14.4 205.888 14.7 206.168 14.98C206.461 15.26 206.608 15.4667 206.608 15.6V15.68C206.608 15.9067 206.455 16.02 206.148 16.02H202.428C202.121 16.02 201.968 15.9067 201.968 15.68V15.6C201.968 15.4667 202.108 15.26 202.388 14.98C202.681 14.7 202.828 14.4 202.828 14.08V9.42C202.828 9.22 202.775 9.04 202.668 8.88C202.575 8.72 202.461 8.60667 202.328 8.54C202.208 8.46 202.095 8.36667 201.988 8.26C201.895 8.15333 201.848 8.04667 201.848 7.94V7.86C201.848 7.71333 201.981 7.57333 202.248 7.44L204.628 6.28C204.855 6.17333 205.021 6.16667 205.128 6.26C205.248 6.34 205.308 6.48667 205.308 6.7V7.82C205.881 6.74 206.868 6.2 208.268 6.2C209.281 6.2 210.141 6.54 210.848 7.22C211.568 7.9 211.981 8.98 212.088 10.46L212.328 14.06ZM13.66 35.9C13.98 35.9 14.14 36.0133 14.14 36.24V36.3C14.14 36.4067 14.08 36.52 13.96 36.64C13.8533 36.7467 13.7333 36.8467 13.6 36.94C13.48 37.02 13.36 37.1467 13.24 37.32C13.1333 37.48 13.08 37.66 13.08 37.86V42.72C13.08 42.8533 13.04 42.9667 12.96 43.06C12.88 43.1533 12.78 43.2 12.66 43.2C12.4467 43.2 12.2733 43.1267 12.14 42.98L11.42 41.96C10.9667 42.3467 10.3867 42.6533 9.68 42.88C8.98667 43.0933 8.30667 43.2 7.64 43.2C5.6 43.2 3.92 42.48 2.6 41.04C1.28 39.6 0.62 37.8733 0.62 35.86C0.62 33.7267 1.3 31.9867 2.66 30.64C4.02 29.2933 5.58667 28.62 7.36 28.62C9 28.62 10.3667 28.9933 11.46 29.74C12.5667 30.4867 13.12 31.34 13.12 32.3C13.12 32.7267 13 33.0667 12.76 33.32C12.52 33.56 12.1933 33.68 11.78 33.68C11.38 33.68 11.0067 33.5467 10.66 33.28C10.3267 33.0133 10.0267 32.6933 9.76 32.32C9.50667 31.9467 9.24 31.5733 8.96 31.2C8.69333 30.8267 8.36 30.5067 7.96 30.24C7.56 29.9733 7.10667 29.84 6.6 29.84C5.76 29.84 5.04667 30.2333 4.46 31.02C3.88667 31.7933 3.6 32.76 3.6 33.92C3.6 35.88 4.08 37.5533 5.04 38.94C6 40.3267 7.14667 41.02 8.48 41.02C9.26667 41.02 9.86 40.88 10.26 40.6V37.84C10.26 37.52 10.06 37.22 9.66 36.94C9.27333 36.6467 9.08 36.4267 9.08 36.28V36.22C9.08 35.9933 9.24 35.88 9.56 35.88L13.66 35.9ZM25.2341 41.04C25.2607 41.36 25.3874 41.66 25.6141 41.94C25.8407 42.22 25.9541 42.4333 25.9541 42.58V42.66C25.9541 42.8867 25.8074 43 25.5141 43H22.0341C21.7407 43 21.5941 42.8867 21.5941 42.66V42.58C21.5941 42.4467 21.7141 42.24 21.9541 41.96C22.2074 41.68 22.3274 41.38 22.3141 41.06L22.1141 37.22C22.0207 35.3 21.4407 34.34 20.3741 34.34C19.8407 34.34 19.4207 34.54 19.1141 34.94C18.8207 35.34 18.6741 35.8733 18.6741 36.54V41.08C18.6741 41.3867 18.8141 41.68 19.0941 41.96C19.3874 42.24 19.5341 42.4467 19.5341 42.58V42.66C19.5341 42.8867 19.3741 43 19.0541 43H15.3541C15.0474 43 14.8941 42.8867 14.8941 42.66V42.58C14.8941 42.4467 15.0341 42.24 15.3141 41.96C15.5941 41.68 15.7341 41.3867 15.7341 41.08V31.12C15.7341 30.8 15.5807 30.5133 15.2741 30.26C14.9807 30.0067 14.8341 29.8133 14.8341 29.68V29.62C14.8341 29.42 14.9674 29.2533 15.2341 29.12L17.8741 27.96C18.1007 27.8667 18.2741 27.8533 18.3941 27.92C18.5274 27.9867 18.5941 28.12 18.5941 28.32L18.5741 34.32C19.2007 33.5733 20.0741 33.2 21.1941 33.2C22.2074 33.2 23.0674 33.5333 23.7741 34.2C24.4807 34.8533 24.8807 35.8867 24.9741 37.3L25.2341 41.04ZM37.5291 34.24C37.5291 34.32 37.3891 34.5133 37.1091 34.82C36.8291 35.1267 36.6891 35.4667 36.6891 35.84V41.08C36.6891 41.3867 36.8157 41.6867 37.0691 41.98C37.3357 42.26 37.4691 42.4667 37.4691 42.6V42.66C37.4691 42.8867 37.3357 43 37.0691 43H34.6091C34.4757 43 34.3624 42.96 34.2691 42.88C34.1891 42.8 34.1491 42.6933 34.1491 42.56V42.08C33.5224 42.8267 32.6424 43.2 31.5091 43.2C30.2157 43.2 29.1091 42.7533 28.1891 41.86C27.2691 40.9533 26.8091 39.7267 26.8091 38.18C26.8091 36.7267 27.2691 35.5333 28.1891 34.6C29.1091 33.6667 30.2224 33.2 31.5291 33.2C32.5957 33.2 33.4691 33.54 34.1491 34.22V33.82C34.1491 33.6333 34.2291 33.4933 34.3891 33.4C34.5491 33.2933 34.7557 33.2667 35.0091 33.32L37.1091 33.68C37.3891 33.7333 37.5291 33.9 37.5291 34.18V34.24ZM32.1691 42.34C32.6224 42.34 33.0157 42.1533 33.3491 41.78C33.6957 41.3933 33.8691 40.8667 33.8691 40.2V36.68C33.8691 35.9733 33.6491 35.36 33.2091 34.84C32.7824 34.32 32.2757 34.06 31.6891 34.06C31.0757 34.06 30.5891 34.32 30.2291 34.84C29.8691 35.3467 29.6824 36.0667 29.6691 37C29.6424 37.76 29.7157 38.54 29.8891 39.34C30.0757 40.14 30.3691 40.84 30.7691 41.44C31.1824 42.0267 31.6491 42.3267 32.1691 42.34ZM42.7041 43.2C41.7707 43.2 41.0307 42.9067 40.4841 42.32C39.9507 41.72 39.6841 40.86 39.6841 39.74V34.56H38.7441C38.4774 34.56 38.3441 34.4267 38.3441 34.16V33.82C38.3441 33.54 38.4774 33.4 38.7441 33.4H39.2441C39.7907 33.4 40.2507 33.22 40.6241 32.86C41.0107 32.5 41.2574 32.02 41.3641 31.42C41.4307 31.1 41.5841 30.94 41.8241 30.94H42.2241C42.5174 30.94 42.6641 31.1 42.6641 31.42L42.6841 33.4H44.9841C45.0907 33.4 45.1841 33.44 45.2641 33.52C45.3441 33.6 45.3841 33.7 45.3841 33.82V34.16C45.3841 34.28 45.3441 34.38 45.2641 34.46C45.1841 34.5267 45.0907 34.56 44.9841 34.56H42.6841V39.78C42.6841 40.1667 42.7774 40.48 42.9641 40.72C43.1641 40.9467 43.4107 41.06 43.7041 41.06C44.3974 41.06 44.8507 40.76 45.0641 40.16C45.1841 39.9867 45.3307 39.92 45.5041 39.96C45.6907 39.9867 45.7841 40.0933 45.7841 40.28C45.7841 41.0533 45.5041 41.7333 44.9441 42.32C44.3974 42.9067 43.6507 43.2 42.7041 43.2ZM50.718 43.18C49.4646 43.18 48.438 42.9533 47.638 42.5C46.838 42.0467 46.438 41.5 46.438 40.86C46.438 40.5 46.5446 40.2267 46.758 40.04C46.9846 39.8533 47.278 39.76 47.638 39.76C48.0246 39.76 48.338 39.9 48.578 40.18C48.818 40.4467 48.9846 40.7467 49.078 41.08C49.1846 41.4133 49.3713 41.72 49.638 42C49.918 42.2667 50.278 42.4 50.718 42.4C51.1446 42.4 51.4913 42.2867 51.758 42.06C52.038 41.8333 52.178 41.5067 52.178 41.08C52.178 40.6 51.9846 40.22 51.598 39.94C51.2246 39.66 50.7646 39.4533 50.218 39.32C49.6713 39.1733 49.1246 39.0133 48.578 38.84C48.0313 38.6533 47.5646 38.34 47.178 37.9C46.8046 37.4467 46.618 36.86 46.618 36.14C46.618 35.2867 46.9913 34.5867 47.738 34.04C48.498 33.48 49.478 33.2 50.678 33.2C51.8913 33.2 52.878 33.44 53.638 33.92C54.4113 34.3867 54.798 34.9467 54.798 35.6C54.798 35.8933 54.6846 36.14 54.458 36.34C54.2446 36.54 53.978 36.64 53.658 36.64C53.2846 36.64 52.9846 36.5067 52.758 36.24C52.5313 35.96 52.3713 35.66 52.278 35.34C52.1846 35.0067 52.018 34.7067 51.778 34.44C51.538 34.16 51.2246 34.02 50.838 34.02C50.4513 34.02 50.138 34.1533 49.898 34.42C49.658 34.6733 49.538 34.9867 49.538 35.36C49.538 35.7333 49.638 36.0467 49.838 36.3C50.038 36.5533 50.298 36.7467 50.618 36.88C50.938 37.0133 51.2913 37.14 51.678 37.26C52.0646 37.3667 52.4513 37.4933 52.838 37.64C53.238 37.7733 53.598 37.94 53.918 38.14C54.238 38.34 54.498 38.6267 54.698 39C54.898 39.36 54.998 39.8 54.998 40.32C54.998 41.1467 54.6113 41.8333 53.838 42.38C53.0646 42.9133 52.0246 43.18 50.718 43.18Z" fill="#00B112"/>
</svg>
