<svg width="260" height="61" viewBox="0 0 260 61" fill="none" xmlns="http://www.w3.org/2000/svg">
<path d="M6.37438 16C6.06771 16 5.84771 15.8733 5.71438 15.62C5.58104 15.3667 5.56771 15.12 5.67438 14.88L11.5544 0.92C11.701 0.56 11.9544 0.38 12.3144 0.38C12.661 0.38 12.9077 0.56 13.0544 0.92L18.9544 14.9C19.0744 15.1533 19.0544 15.4 18.8944 15.64C18.7477 15.88 18.5344 16 18.2544 16C18.0944 16 17.9477 15.96 17.8144 15.88C17.6944 15.8 17.5944 15.68 17.5144 15.52L12.0144 2.18H12.6344L7.09438 15.52C7.02771 15.68 6.92771 15.8 6.79438 15.88C6.67438 15.96 6.53438 16 6.37438 16ZM7.69438 12.28L8.29438 10.94H16.4144L17.0144 12.28H7.69438ZM23.4569 16C22.9235 16 22.4435 15.8533 22.0169 15.56C21.6035 15.2667 21.2769 14.86 21.0369 14.34C20.8102 13.82 20.6969 13.22 20.6969 12.54V1.14C20.6969 0.913332 20.7635 0.733332 20.8969 0.599999C21.0435 0.453333 21.2302 0.38 21.4569 0.38C21.6835 0.38 21.8635 0.453333 21.9969 0.599999C22.1435 0.733332 22.2169 0.913332 22.2169 1.14V12.54C22.2169 13.1133 22.3302 13.58 22.5569 13.94C22.7969 14.3 23.0969 14.48 23.4569 14.48H23.9569C24.1569 14.48 24.3169 14.5533 24.4369 14.7C24.5569 14.8333 24.6169 15.0133 24.6169 15.24C24.6169 15.4667 24.5302 15.6533 24.3569 15.8C24.1969 15.9333 23.9835 16 23.7169 16H23.4569ZM30.5614 16.1C29.7747 16.1 28.9947 15.9667 28.2214 15.7C27.4481 15.4333 26.8214 15.0333 26.3414 14.5C26.1947 14.34 26.1347 14.16 26.1614 13.96C26.1881 13.76 26.2881 13.5867 26.4614 13.44C26.6481 13.3067 26.8414 13.2533 27.0414 13.28C27.2414 13.3067 27.4081 13.3933 27.5414 13.54C27.8614 13.9133 28.2814 14.2 28.8014 14.4C29.3347 14.6 29.9214 14.7 30.5614 14.7C31.5481 14.7 32.2614 14.5333 32.7014 14.2C33.1414 13.8533 33.3681 13.44 33.3814 12.96C33.3814 12.48 33.1547 12.0867 32.7014 11.78C32.2481 11.46 31.5014 11.2133 30.4614 11.04C29.1147 10.8267 28.1281 10.4533 27.5014 9.92C26.8747 9.38667 26.5614 8.75333 26.5614 8.02C26.5614 7.34 26.7414 6.77333 27.1014 6.32C27.4614 5.86667 27.9414 5.52667 28.5414 5.3C29.1414 5.07333 29.8014 4.96 30.5214 4.96C31.4147 4.96 32.1814 5.11333 32.8214 5.42C33.4747 5.72667 34.0014 6.14 34.4014 6.66C34.5347 6.83333 34.5881 7.01333 34.5614 7.2C34.5347 7.38667 34.4281 7.54 34.2414 7.66C34.0814 7.75333 33.8947 7.78667 33.6814 7.76C33.4814 7.72 33.3081 7.62 33.1614 7.46C32.8281 7.07333 32.4414 6.79333 32.0014 6.62C31.5614 6.43333 31.0547 6.34 30.4814 6.34C29.7481 6.34 29.1614 6.49333 28.7214 6.8C28.2814 7.09333 28.0614 7.46667 28.0614 7.92C28.0614 8.22667 28.1414 8.49333 28.3014 8.72C28.4747 8.94667 28.7614 9.14667 29.1614 9.32C29.5747 9.49333 30.1481 9.64 30.8814 9.76C31.8814 9.92 32.6681 10.16 33.2414 10.48C33.8281 10.7867 34.2414 11.1533 34.4814 11.58C34.7347 11.9933 34.8614 12.4467 34.8614 12.94C34.8614 13.5667 34.6747 14.12 34.3014 14.6C33.9414 15.0667 33.4347 15.4333 32.7814 15.7C32.1414 15.9667 31.4014 16.1 30.5614 16.1ZM42.5027 16.1C41.436 16.1 40.4827 15.86 39.6427 15.38C38.8027 14.9 38.1427 14.24 37.6627 13.4C37.1827 12.56 36.9427 11.6067 36.9427 10.54C36.9427 9.46 37.1827 8.5 37.6627 7.66C38.1427 6.82 38.8027 6.16 39.6427 5.68C40.4827 5.2 41.436 4.96 42.5027 4.96C43.5693 4.96 44.516 5.2 45.3427 5.68C46.1827 6.16 46.8427 6.82 47.3227 7.66C47.8027 8.5 48.0493 9.46 48.0627 10.54C48.0627 11.6067 47.816 12.56 47.3227 13.4C46.8427 14.24 46.1827 14.9 45.3427 15.38C44.516 15.86 43.5693 16.1 42.5027 16.1ZM42.5027 14.7C43.276 14.7 43.9693 14.52 44.5827 14.16C45.196 13.8 45.676 13.3067 46.0227 12.68C46.3693 12.0533 46.5427 11.34 46.5427 10.54C46.5427 9.74 46.3693 9.02667 46.0227 8.4C45.676 7.76 45.196 7.26 44.5827 6.9C43.9693 6.54 43.276 6.36 42.5027 6.36C41.7293 6.36 41.036 6.54 40.4227 6.9C39.8093 7.26 39.3227 7.76 38.9627 8.4C38.616 9.02667 38.4427 9.74 38.4427 10.54C38.4427 11.34 38.616 12.0533 38.9627 12.68C39.3227 13.3067 39.8093 13.8 40.4227 14.16C41.036 14.52 41.7293 14.7 42.5027 14.7ZM61.7972 16.1C60.7439 16.1 59.8039 15.86 58.9772 15.38C58.1639 14.8867 57.5172 14.22 57.0372 13.38C56.5705 12.54 56.3372 11.5933 56.3372 10.54C56.3372 9.47333 56.5639 8.52 57.0172 7.68C57.4705 6.84 58.0905 6.18 58.8772 5.7C59.6639 5.20667 60.5705 4.96 61.5972 4.96C62.4105 4.96 63.1572 5.12 63.8372 5.44C64.5305 5.76 65.1372 6.24 65.6572 6.88C65.8039 7.04 65.8572 7.21333 65.8172 7.4C65.7772 7.57333 65.6639 7.72667 65.4772 7.86C65.3305 7.96667 65.1639 8.00667 64.9772 7.98C64.8039 7.94 64.6505 7.84 64.5172 7.68C63.7439 6.8 62.7705 6.36 61.5972 6.36C60.8505 6.36 60.1905 6.54 59.6172 6.9C59.0572 7.26 58.6172 7.75333 58.2972 8.38C57.9905 9.00667 57.8372 9.72667 57.8372 10.54C57.8372 11.34 58.0039 12.0533 58.3372 12.68C58.6705 13.3067 59.1372 13.8 59.7372 14.16C60.3372 14.52 61.0239 14.7 61.7972 14.7C62.3172 14.7 62.7905 14.6333 63.2172 14.5C63.6572 14.3533 64.0439 14.1333 64.3772 13.84C64.5372 13.7067 64.7039 13.6333 64.8772 13.62C65.0505 13.6067 65.2105 13.66 65.3572 13.78C65.5172 13.9267 65.6039 14.0933 65.6172 14.28C65.6439 14.4667 65.5839 14.6267 65.4372 14.76C64.4639 15.6533 63.2505 16.1 61.7972 16.1ZM73.6317 16.1C72.6051 16.1 71.6851 15.86 70.8717 15.38C70.0584 14.8867 69.4117 14.22 68.9317 13.38C68.4651 12.54 68.2317 11.5933 68.2317 10.54C68.2317 9.47333 68.4717 8.52 68.9517 7.68C69.4451 6.84 70.1117 6.18 70.9517 5.7C71.7917 5.20667 72.7384 4.96 73.7917 4.96C74.8451 4.96 75.7851 5.20667 76.6117 5.7C77.4517 6.18 78.1117 6.84 78.5917 7.68C79.0851 8.52 79.3384 9.47333 79.3517 10.54L78.7317 11.02C78.7317 11.98 78.5051 12.8467 78.0517 13.62C77.6117 14.38 77.0051 14.9867 76.2317 15.44C75.4717 15.88 74.6051 16.1 73.6317 16.1ZM73.7917 14.7C74.5651 14.7 75.2517 14.52 75.8517 14.16C76.4651 13.8 76.9451 13.3067 77.2917 12.68C77.6517 12.04 77.8317 11.3267 77.8317 10.54C77.8317 9.74 77.6517 9.02667 77.2917 8.4C76.9451 7.77333 76.4651 7.28 75.8517 6.92C75.2517 6.54667 74.5651 6.36 73.7917 6.36C73.0317 6.36 72.3451 6.54667 71.7317 6.92C71.1184 7.28 70.6317 7.77333 70.2717 8.4C69.9117 9.02667 69.7317 9.74 69.7317 10.54C69.7317 11.3267 69.9117 12.04 70.2717 12.68C70.6317 13.3067 71.1184 13.8 71.7317 14.16C72.3451 14.52 73.0317 14.7 73.7917 14.7ZM78.5717 16C78.3451 16 78.1584 15.9333 78.0117 15.8C77.8651 15.6533 77.7917 15.4667 77.7917 15.24V11.82L78.1717 10.24L79.3517 10.54V15.24C79.3517 15.4667 79.2784 15.6533 79.1317 15.8C78.9851 15.9333 78.7984 16 78.5717 16ZM84.7069 16C84.1735 16 83.6935 15.8533 83.2669 15.56C82.8535 15.2667 82.5269 14.86 82.2869 14.34C82.0602 13.82 81.9469 13.22 81.9469 12.54V1.14C81.9469 0.913332 82.0135 0.733332 82.1469 0.599999C82.2935 0.453333 82.4802 0.38 82.7069 0.38C82.9335 0.38 83.1135 0.453333 83.2469 0.599999C83.3935 0.733332 83.4669 0.913332 83.4669 1.14V12.54C83.4669 13.1133 83.5802 13.58 83.8069 13.94C84.0469 14.3 84.3469 14.48 84.7069 14.48H85.2069C85.4069 14.48 85.5669 14.5533 85.6869 14.7C85.8069 14.8333 85.8669 15.0133 85.8669 15.24C85.8669 15.4667 85.7802 15.6533 85.6069 15.8C85.4469 15.9333 85.2335 16 84.9669 16H84.7069ZM90.3514 16C89.8181 16 89.3381 15.8533 88.9114 15.56C88.4981 15.2667 88.1714 14.86 87.9314 14.34C87.7047 13.82 87.5914 13.22 87.5914 12.54V1.14C87.5914 0.913332 87.6581 0.733332 87.7914 0.599999C87.9381 0.453333 88.1247 0.38 88.3514 0.38C88.5781 0.38 88.7581 0.453333 88.8914 0.599999C89.0381 0.733332 89.1114 0.913332 89.1114 1.14V12.54C89.1114 13.1133 89.2247 13.58 89.4514 13.94C89.6914 14.3 89.9914 14.48 90.3514 14.48H90.8514C91.0514 14.48 91.2114 14.5533 91.3314 14.7C91.4514 14.8333 91.5114 15.0133 91.5114 15.24C91.5114 15.4667 91.4247 15.6533 91.2514 15.8C91.0914 15.9333 90.8781 16 90.6114 16H90.3514ZM97.9905 16.1C96.9105 16.1 95.9505 15.8667 95.1105 15.4C94.2838 14.92 93.6305 14.26 93.1505 13.42C92.6838 12.58 92.4505 11.62 92.4505 10.54C92.4505 9.44667 92.6705 8.48667 93.1105 7.66C93.5638 6.82 94.1838 6.16 94.9705 5.68C95.7571 5.2 96.6638 4.96 97.6905 4.96C98.7038 4.96 99.5838 5.19333 100.33 5.66C101.09 6.11333 101.677 6.74667 102.09 7.56C102.504 8.37333 102.71 9.3 102.71 10.34C102.71 10.5533 102.644 10.7267 102.51 10.86C102.377 10.98 102.204 11.04 101.99 11.04H93.4905V9.76H102.15L101.29 10.38C101.304 9.60667 101.164 8.91333 100.87 8.3C100.577 7.68667 100.157 7.20667 99.6105 6.86C99.0771 6.51333 98.4371 6.34 97.6905 6.34C96.9305 6.34 96.2638 6.52 95.6905 6.88C95.1171 7.24 94.6705 7.74 94.3505 8.38C94.0438 9.00667 93.8905 9.72667 93.8905 10.54C93.8905 11.3533 94.0638 12.0733 94.4105 12.7C94.7705 13.3267 95.2571 13.82 95.8705 14.18C96.4838 14.54 97.1905 14.72 97.9905 14.72C98.4705 14.72 98.9505 14.64 99.4305 14.48C99.9238 14.3067 100.317 14.0933 100.61 13.84C100.757 13.72 100.924 13.66 101.11 13.66C101.297 13.6467 101.457 13.6933 101.59 13.8C101.764 13.96 101.85 14.1333 101.85 14.32C101.864 14.5067 101.79 14.6667 101.63 14.8C101.19 15.1733 100.63 15.4867 99.9505 15.74C99.2705 15.98 98.6171 16.1 97.9905 16.1ZM109.905 16.1C108.852 16.1 107.905 15.86 107.065 15.38C106.225 14.8867 105.558 14.22 105.065 13.38C104.585 12.54 104.345 11.5867 104.345 10.52C104.345 9.46667 104.578 8.52 105.045 7.68C105.525 6.84 106.172 6.18 106.985 5.7C107.798 5.20667 108.718 4.96 109.745 4.96C110.638 4.96 111.445 5.15333 112.165 5.54C112.885 5.91333 113.465 6.41333 113.905 7.04V1.16C113.905 0.919999 113.978 0.733332 114.125 0.599999C114.272 0.453333 114.458 0.38 114.685 0.38C114.912 0.38 115.098 0.453333 115.245 0.599999C115.392 0.733332 115.465 0.919999 115.465 1.16V10.6C115.438 11.64 115.178 12.58 114.685 13.42C114.205 14.2467 113.545 14.9 112.705 15.38C111.878 15.86 110.945 16.1 109.905 16.1ZM109.905 14.7C110.678 14.7 111.365 14.52 111.965 14.16C112.578 13.7867 113.058 13.2867 113.405 12.66C113.765 12.0333 113.945 11.32 113.945 10.52C113.945 9.73333 113.765 9.02667 113.405 8.4C113.058 7.76 112.578 7.26 111.965 6.9C111.365 6.54 110.678 6.36 109.905 6.36C109.145 6.36 108.458 6.54 107.845 6.9C107.232 7.26 106.745 7.76 106.385 8.4C106.025 9.02667 105.845 9.73333 105.845 10.52C105.845 11.32 106.025 12.0333 106.385 12.66C106.745 13.2867 107.232 13.7867 107.845 14.16C108.458 14.52 109.145 14.7 109.905 14.7ZM129.205 16C128.498 16 127.865 15.8333 127.305 15.5C126.758 15.1667 126.325 14.7133 126.005 14.14C125.685 13.5533 125.525 12.8867 125.525 12.14V2.36C125.525 2.13333 125.592 1.94667 125.725 1.8C125.872 1.65333 126.058 1.58 126.285 1.58C126.512 1.58 126.698 1.65333 126.845 1.8C126.992 1.94667 127.065 2.13333 127.065 2.36V12.14C127.065 12.82 127.265 13.38 127.665 13.82C128.065 14.2467 128.578 14.46 129.205 14.46H129.745C129.958 14.46 130.132 14.5333 130.265 14.68C130.398 14.8267 130.465 15.0133 130.465 15.24C130.465 15.4667 130.385 15.6533 130.225 15.8C130.065 15.9333 129.865 16 129.625 16H129.205ZM124.225 6.8C124.025 6.8 123.858 6.74 123.725 6.62C123.592 6.48667 123.525 6.32667 123.525 6.14C123.525 5.94 123.592 5.78 123.725 5.66C123.858 5.52667 124.025 5.46 124.225 5.46H129.325C129.525 5.46 129.692 5.52667 129.825 5.66C129.958 5.78 130.025 5.94 130.025 6.14C130.025 6.32667 129.958 6.48667 129.825 6.62C129.692 6.74 129.525 6.8 129.325 6.8H124.225ZM137.952 16.1C136.885 16.1 135.932 15.86 135.092 15.38C134.252 14.9 133.592 14.24 133.112 13.4C132.632 12.56 132.392 11.6067 132.392 10.54C132.392 9.46 132.632 8.5 133.112 7.66C133.592 6.82 134.252 6.16 135.092 5.68C135.932 5.2 136.885 4.96 137.952 4.96C139.019 4.96 139.965 5.2 140.792 5.68C141.632 6.16 142.292 6.82 142.772 7.66C143.252 8.5 143.499 9.46 143.512 10.54C143.512 11.6067 143.265 12.56 142.772 13.4C142.292 14.24 141.632 14.9 140.792 15.38C139.965 15.86 139.019 16.1 137.952 16.1ZM137.952 14.7C138.725 14.7 139.419 14.52 140.032 14.16C140.645 13.8 141.125 13.3067 141.472 12.68C141.819 12.0533 141.992 11.34 141.992 10.54C141.992 9.74 141.819 9.02667 141.472 8.4C141.125 7.76 140.645 7.26 140.032 6.9C139.419 6.54 138.725 6.36 137.952 6.36C137.179 6.36 136.485 6.54 135.872 6.9C135.259 7.26 134.772 7.76 134.412 8.4C134.065 9.02667 133.892 9.74 133.892 10.54C133.892 11.34 134.065 12.0533 134.412 12.68C134.772 13.3067 135.259 13.8 135.872 14.16C136.485 14.52 137.179 14.7 137.952 14.7ZM147.147 9.26C147.187 8.43333 147.4 7.69333 147.787 7.04C148.187 6.38667 148.7 5.87333 149.327 5.5C149.967 5.12667 150.674 4.94 151.447 4.94C152.06 4.94 152.534 5.02667 152.867 5.2C153.2 5.37333 153.327 5.62667 153.247 5.96C153.194 6.16 153.1 6.29333 152.967 6.36C152.847 6.42667 152.694 6.45333 152.507 6.44C152.334 6.42667 152.134 6.41333 151.907 6.4C151.16 6.33333 150.494 6.41333 149.907 6.64C149.334 6.85333 148.874 7.18667 148.527 7.64C148.194 8.09333 148.027 8.63333 148.027 9.26H147.147ZM147.267 16C147.027 16 146.84 15.9333 146.707 15.8C146.574 15.6667 146.507 15.48 146.507 15.24V5.82C146.507 5.58 146.574 5.39333 146.707 5.26C146.84 5.12667 147.027 5.06 147.267 5.06C147.507 5.06 147.694 5.12667 147.827 5.26C147.96 5.39333 148.027 5.58 148.027 5.82V15.24C148.027 15.48 147.96 15.6667 147.827 15.8C147.694 15.9333 147.507 16 147.267 16ZM156.307 9.26C156.347 8.43333 156.561 7.69333 156.947 7.04C157.347 6.38667 157.861 5.87333 158.487 5.5C159.127 5.12667 159.834 4.94 160.607 4.94C161.221 4.94 161.694 5.02667 162.027 5.2C162.361 5.37333 162.487 5.62667 162.407 5.96C162.354 6.16 162.261 6.29333 162.127 6.36C162.007 6.42667 161.854 6.45333 161.667 6.44C161.494 6.42667 161.294 6.41333 161.067 6.4C160.321 6.33333 159.654 6.41333 159.067 6.64C158.494 6.85333 158.034 7.18667 157.687 7.64C157.354 8.09333 157.187 8.63333 157.187 9.26H156.307ZM156.427 16C156.187 16 156.001 15.9333 155.867 15.8C155.734 15.6667 155.667 15.48 155.667 15.24V5.82C155.667 5.58 155.734 5.39333 155.867 5.26C156.001 5.12667 156.187 5.06 156.427 5.06C156.667 5.06 156.854 5.12667 156.987 5.26C157.121 5.39333 157.187 5.58 157.187 5.82V15.24C157.187 15.48 157.121 15.6667 156.987 15.8C156.854 15.9333 156.667 16 156.427 16ZM168.987 16.1C167.907 16.1 166.947 15.8667 166.107 15.4C165.28 14.92 164.627 14.26 164.147 13.42C163.68 12.58 163.447 11.62 163.447 10.54C163.447 9.44667 163.667 8.48667 164.107 7.66C164.56 6.82 165.18 6.16 165.967 5.68C166.753 5.2 167.66 4.96 168.687 4.96C169.7 4.96 170.58 5.19333 171.327 5.66C172.087 6.11333 172.673 6.74667 173.087 7.56C173.5 8.37333 173.707 9.3 173.707 10.34C173.707 10.5533 173.64 10.7267 173.507 10.86C173.373 10.98 173.2 11.04 172.987 11.04H164.487V9.76H173.147L172.287 10.38C172.3 9.60667 172.16 8.91333 171.867 8.3C171.573 7.68667 171.153 7.20667 170.607 6.86C170.073 6.51333 169.433 6.34 168.687 6.34C167.927 6.34 167.26 6.52 166.687 6.88C166.113 7.24 165.667 7.74 165.347 8.38C165.04 9.00667 164.887 9.72667 164.887 10.54C164.887 11.3533 165.06 12.0733 165.407 12.7C165.767 13.3267 166.253 13.82 166.867 14.18C167.48 14.54 168.187 14.72 168.987 14.72C169.467 14.72 169.947 14.64 170.427 14.48C170.92 14.3067 171.313 14.0933 171.607 13.84C171.753 13.72 171.92 13.66 172.107 13.66C172.293 13.6467 172.453 13.6933 172.587 13.8C172.76 13.96 172.847 14.1333 172.847 14.32C172.86 14.5067 172.787 14.6667 172.627 14.8C172.187 15.1733 171.627 15.4867 170.947 15.74C170.267 15.98 169.613 16.1 168.987 16.1ZM185.692 16C185.465 16 185.278 15.9267 185.132 15.78C184.985 15.6333 184.912 15.4533 184.912 15.24V10.04C184.912 9.21333 184.752 8.53333 184.432 8C184.125 7.46667 183.698 7.06667 183.152 6.8C182.618 6.53333 182.012 6.4 181.332 6.4C180.678 6.4 180.085 6.52667 179.552 6.78C179.032 7.03333 178.618 7.38 178.312 7.82C178.005 8.26 177.852 8.76 177.852 9.32H176.752C176.778 8.48 177.005 7.73333 177.432 7.08C177.858 6.41333 178.425 5.89333 179.132 5.52C179.838 5.13333 180.625 4.94 181.492 4.94C182.438 4.94 183.285 5.14 184.032 5.54C184.778 5.92667 185.365 6.5 185.792 7.26C186.232 8.02 186.452 8.94667 186.452 10.04V15.24C186.452 15.4533 186.378 15.6333 186.232 15.78C186.085 15.9267 185.905 16 185.692 16ZM177.092 16C176.852 16 176.658 15.9333 176.512 15.8C176.378 15.6533 176.312 15.4667 176.312 15.24V5.84C176.312 5.6 176.378 5.41333 176.512 5.28C176.658 5.13333 176.852 5.06 177.092 5.06C177.318 5.06 177.498 5.13333 177.632 5.28C177.778 5.41333 177.852 5.6 177.852 5.84V15.24C177.852 15.4667 177.778 15.6533 177.632 15.8C177.498 15.9333 177.318 16 177.092 16ZM194.127 16C193.42 16 192.787 15.8333 192.227 15.5C191.68 15.1667 191.247 14.7133 190.927 14.14C190.607 13.5533 190.447 12.8867 190.447 12.14V2.36C190.447 2.13333 190.514 1.94667 190.647 1.8C190.794 1.65333 190.98 1.58 191.207 1.58C191.434 1.58 191.62 1.65333 191.767 1.8C191.914 1.94667 191.987 2.13333 191.987 2.36V12.14C191.987 12.82 192.187 13.38 192.587 13.82C192.987 14.2467 193.5 14.46 194.127 14.46H194.667C194.88 14.46 195.054 14.5333 195.187 14.68C195.32 14.8267 195.387 15.0133 195.387 15.24C195.387 15.4667 195.307 15.6533 195.147 15.8C194.987 15.9333 194.787 16 194.547 16H194.127ZM189.147 6.8C188.947 6.8 188.78 6.74 188.647 6.62C188.514 6.48667 188.447 6.32667 188.447 6.14C188.447 5.94 188.514 5.78 188.647 5.66C188.78 5.52667 188.947 5.46 189.147 5.46H194.247C194.447 5.46 194.614 5.52667 194.747 5.66C194.88 5.78 194.947 5.94 194.947 6.14C194.947 6.32667 194.88 6.48667 194.747 6.62C194.614 6.74 194.447 6.8 194.247 6.8H189.147ZM205.113 16C204.913 16 204.74 15.9333 204.593 15.8C204.446 15.6533 204.373 15.46 204.373 15.22V5.08C204.373 4.14667 204.533 3.32667 204.853 2.62C205.173 1.91333 205.646 1.36667 206.273 0.979999C206.9 0.579999 207.666 0.38 208.573 0.38C208.8 0.38 208.986 0.446666 209.133 0.579999C209.28 0.713333 209.353 0.879999 209.353 1.08C209.353 1.28 209.28 1.44667 209.133 1.58C208.986 1.71333 208.8 1.78 208.573 1.78C207.973 1.78 207.473 1.92 207.073 2.2C206.686 2.46667 206.393 2.84667 206.193 3.34C206.006 3.82 205.913 4.37333 205.913 5V15.22C205.913 15.46 205.84 15.6533 205.693 15.8C205.56 15.9333 205.366 16 205.113 16ZM203.093 6.8C202.88 6.8 202.706 6.74 202.573 6.62C202.453 6.48667 202.393 6.32667 202.393 6.14C202.393 5.94 202.453 5.78 202.573 5.66C202.706 5.52667 202.88 5.46 203.093 5.46H208.313C208.526 5.46 208.693 5.52667 208.813 5.66C208.946 5.78 209.013 5.94 209.013 6.14C209.013 6.32667 208.946 6.48667 208.813 6.62C208.693 6.74 208.526 6.8 208.313 6.8H203.093ZM211.717 9.26C211.757 8.43333 211.971 7.69333 212.357 7.04C212.757 6.38667 213.271 5.87333 213.897 5.5C214.537 5.12667 215.244 4.94 216.017 4.94C216.631 4.94 217.104 5.02667 217.437 5.2C217.771 5.37333 217.897 5.62667 217.817 5.96C217.764 6.16 217.671 6.29333 217.537 6.36C217.417 6.42667 217.264 6.45333 217.077 6.44C216.904 6.42667 216.704 6.41333 216.477 6.4C215.731 6.33333 215.064 6.41333 214.477 6.64C213.904 6.85333 213.444 7.18667 213.097 7.64C212.764 8.09333 212.597 8.63333 212.597 9.26H211.717ZM211.837 16C211.597 16 211.411 15.9333 211.277 15.8C211.144 15.6667 211.077 15.48 211.077 15.24V5.82C211.077 5.58 211.144 5.39333 211.277 5.26C211.411 5.12667 211.597 5.06 211.837 5.06C212.077 5.06 212.264 5.12667 212.397 5.26C212.531 5.39333 212.597 5.58 212.597 5.82V15.24C212.597 15.48 212.531 15.6667 212.397 15.8C212.264 15.9333 212.077 16 211.837 16ZM224.417 16.1C223.35 16.1 222.397 15.86 221.557 15.38C220.717 14.9 220.057 14.24 219.577 13.4C219.097 12.56 218.857 11.6067 218.857 10.54C218.857 9.46 219.097 8.5 219.577 7.66C220.057 6.82 220.717 6.16 221.557 5.68C222.397 5.2 223.35 4.96 224.417 4.96C225.483 4.96 226.43 5.2 227.257 5.68C228.097 6.16 228.757 6.82 229.237 7.66C229.717 8.5 229.963 9.46 229.977 10.54C229.977 11.6067 229.73 12.56 229.237 13.4C228.757 14.24 228.097 14.9 227.257 15.38C226.43 15.86 225.483 16.1 224.417 16.1ZM224.417 14.7C225.19 14.7 225.883 14.52 226.497 14.16C227.11 13.8 227.59 13.3067 227.937 12.68C228.283 12.0533 228.457 11.34 228.457 10.54C228.457 9.74 228.283 9.02667 227.937 8.4C227.59 7.76 227.11 7.26 226.497 6.9C225.883 6.54 225.19 6.36 224.417 6.36C223.643 6.36 222.95 6.54 222.337 6.9C221.723 7.26 221.237 7.76 220.877 8.4C220.53 9.02667 220.357 9.74 220.357 10.54C220.357 11.34 220.53 12.0533 220.877 12.68C221.237 13.3067 221.723 13.8 222.337 14.16C222.95 14.52 223.643 14.7 224.417 14.7ZM237.792 16.1C236.739 16.1 235.805 15.8667 234.992 15.4C234.179 14.92 233.539 14.26 233.072 13.42C232.619 12.58 232.392 11.62 232.392 10.54C232.392 9.44667 232.632 8.48 233.112 7.64C233.592 6.8 234.252 6.14667 235.092 5.68C235.932 5.2 236.885 4.96 237.952 4.96C239.032 4.96 239.985 5.2 240.812 5.68C241.652 6.14667 242.305 6.8 242.772 7.64C243.252 8.48 243.499 9.44667 243.512 10.54L242.612 11.02C242.612 12.0067 242.405 12.8867 241.992 13.66C241.579 14.42 241.005 15.02 240.272 15.46C239.552 15.8867 238.725 16.1 237.792 16.1ZM237.992 20.32C236.939 20.32 236.012 20.12 235.212 19.72C234.412 19.3333 233.752 18.8 233.232 18.12C233.085 17.96 233.019 17.7867 233.032 17.6C233.059 17.4133 233.159 17.26 233.332 17.14C233.505 17.02 233.699 16.98 233.912 17.02C234.125 17.06 234.292 17.16 234.412 17.32C234.799 17.8 235.292 18.1867 235.892 18.48C236.505 18.7733 237.212 18.92 238.012 18.92C238.759 18.92 239.432 18.74 240.032 18.38C240.632 18.02 241.105 17.5133 241.452 16.86C241.812 16.2067 241.992 15.44 241.992 14.56V11.52L242.572 10.36L243.512 10.54V14.62C243.512 15.7 243.272 16.6667 242.792 17.52C242.312 18.3867 241.659 19.0667 240.832 19.56C240.005 20.0667 239.059 20.32 237.992 20.32ZM237.952 14.7C238.739 14.7 239.432 14.5267 240.032 14.18C240.645 13.82 241.125 13.3267 241.472 12.7C241.819 12.0733 241.992 11.3533 241.992 10.54C241.992 9.72667 241.819 9.00667 241.472 8.38C241.125 7.74 240.645 7.24667 240.032 6.9C239.432 6.54 238.739 6.36 237.952 6.36C237.165 6.36 236.465 6.54 235.852 6.9C235.239 7.24667 234.759 7.74 234.412 8.38C234.065 9.00667 233.892 9.72667 233.892 10.54C233.892 11.3533 234.065 12.0733 234.412 12.7C234.759 13.3267 235.239 13.82 235.852 14.18C236.465 14.5267 237.165 14.7 237.952 14.7ZM250.327 16.1C249.54 16.1 248.76 15.9667 247.987 15.7C247.214 15.4333 246.587 15.0333 246.107 14.5C245.96 14.34 245.9 14.16 245.927 13.96C245.954 13.76 246.054 13.5867 246.227 13.44C246.414 13.3067 246.607 13.2533 246.807 13.28C247.007 13.3067 247.174 13.3933 247.307 13.54C247.627 13.9133 248.047 14.2 248.567 14.4C249.1 14.6 249.687 14.7 250.327 14.7C251.314 14.7 252.027 14.5333 252.467 14.2C252.907 13.8533 253.134 13.44 253.147 12.96C253.147 12.48 252.92 12.0867 252.467 11.78C252.014 11.46 251.267 11.2133 250.227 11.04C248.88 10.8267 247.894 10.4533 247.267 9.92C246.64 9.38667 246.327 8.75333 246.327 8.02C246.327 7.34 246.507 6.77333 246.867 6.32C247.227 5.86667 247.707 5.52667 248.307 5.3C248.907 5.07333 249.567 4.96 250.287 4.96C251.18 4.96 251.947 5.11333 252.587 5.42C253.24 5.72667 253.767 6.14 254.167 6.66C254.3 6.83333 254.354 7.01333 254.327 7.2C254.3 7.38667 254.194 7.54 254.007 7.66C253.847 7.75333 253.66 7.78667 253.447 7.76C253.247 7.72 253.074 7.62 252.927 7.46C252.594 7.07333 252.207 6.79333 251.767 6.62C251.327 6.43333 250.82 6.34 250.247 6.34C249.514 6.34 248.927 6.49333 248.487 6.8C248.047 7.09333 247.827 7.46667 247.827 7.92C247.827 8.22667 247.907 8.49333 248.067 8.72C248.24 8.94667 248.527 9.14667 248.927 9.32C249.34 9.49333 249.914 9.64 250.647 9.76C251.647 9.92 252.434 10.16 253.007 10.48C253.594 10.7867 254.007 11.1533 254.247 11.58C254.5 11.9933 254.627 12.4467 254.627 12.94C254.627 13.5667 254.44 14.12 254.067 14.6C253.707 15.0667 253.2 15.4333 252.547 15.7C251.907 15.9667 251.167 16.1 250.327 16.1ZM257.108 19.24C256.975 19.24 256.868 19.2 256.788 19.12C256.722 19.0533 256.688 18.96 256.688 18.84C256.688 18.64 256.748 18.4533 256.868 18.28C256.988 18.12 257.108 17.9467 257.228 17.76C257.362 17.5733 257.428 17.3467 257.428 17.08C257.428 16.84 257.382 16.64 257.288 16.48C257.195 16.32 257.082 16.1733 256.948 16.04C256.828 15.92 256.722 15.7867 256.628 15.64C256.535 15.48 256.488 15.2867 256.488 15.06C256.488 14.7267 256.595 14.46 256.808 14.26C257.035 14.06 257.315 13.96 257.648 13.96C258.048 13.96 258.375 14.12 258.628 14.44C258.882 14.7467 259.008 15.18 259.008 15.74C259.008 16.1133 258.955 16.5067 258.848 16.92C258.742 17.3333 258.595 17.7133 258.408 18.06C258.222 18.42 258.015 18.7067 257.788 18.92C257.562 19.1333 257.335 19.24 257.108 19.24ZM6.62688 38C5.92021 38 5.28688 37.8333 4.72688 37.5C4.18021 37.1667 3.74688 36.7133 3.42688 36.14C3.10688 35.5533 2.94688 34.8867 2.94688 34.14V24.36C2.94688 24.1333 3.01354 23.9467 3.14688 23.8C3.29354 23.6533 3.48021 23.58 3.70688 23.58C3.93354 23.58 4.12021 23.6533 4.26688 23.8C4.41354 23.9467 4.48688 24.1333 4.48688 24.36V34.14C4.48688 34.82 4.68688 35.38 5.08688 35.82C5.48688 36.2467 6.00021 36.46 6.62688 36.46H7.16688C7.38021 36.46 7.55354 36.5333 7.68688 36.68C7.82021 36.8267 7.88688 37.0133 7.88688 37.24C7.88688 37.4667 7.80688 37.6533 7.64688 37.8C7.48688 37.9333 7.28688 38 7.04688 38H6.62688ZM1.64688 28.8C1.44688 28.8 1.28021 28.74 1.14688 28.62C1.01354 28.4867 0.946875 28.3267 0.946875 28.14C0.946875 27.94 1.01354 27.78 1.14688 27.66C1.28021 27.5267 1.44688 27.46 1.64688 27.46H6.74688C6.94688 27.46 7.11354 27.5267 7.24688 27.66C7.38021 27.78 7.44688 27.94 7.44688 28.14C7.44688 28.3267 7.38021 28.4867 7.24688 28.62C7.11354 28.74 6.94688 28.8 6.74688 28.8H1.64688ZM11.1738 33.54C10.9338 33.54 10.7404 33.4667 10.5938 33.32C10.4604 33.1733 10.3938 32.9867 10.3938 32.76V23.16C10.3938 22.92 10.4604 22.7333 10.5938 22.6C10.7404 22.4533 10.9338 22.38 11.1738 22.38C11.4004 22.38 11.5804 22.4533 11.7138 22.6C11.8604 22.7333 11.9338 22.92 11.9338 23.16V32.76C11.9338 32.9867 11.8604 33.1733 11.7138 33.32C11.5804 33.4667 11.4004 33.54 11.1738 33.54ZM19.7738 38C19.5471 38 19.3604 37.9267 19.2138 37.78C19.0671 37.6333 18.9938 37.4533 18.9938 37.24V32.04C18.9938 31.2133 18.8338 30.5333 18.5138 30C18.2071 29.4667 17.7804 29.0667 17.2338 28.8C16.7004 28.5333 16.0938 28.4 15.4138 28.4C14.7604 28.4 14.1671 28.5267 13.6338 28.78C13.1138 29.0333 12.7004 29.38 12.3938 29.82C12.0871 30.26 11.9338 30.76 11.9338 31.32H10.8338C10.8604 30.48 11.0871 29.7333 11.5138 29.08C11.9404 28.4133 12.5071 27.8933 13.2138 27.52C13.9204 27.1333 14.7071 26.94 15.5738 26.94C16.5204 26.94 17.3671 27.14 18.1138 27.54C18.8604 27.9267 19.4471 28.5 19.8738 29.26C20.3138 30.02 20.5338 30.9467 20.5338 32.04V37.24C20.5338 37.4533 20.4604 37.6333 20.3138 37.78C20.1671 37.9267 19.9871 38 19.7738 38ZM11.1738 38C10.9338 38 10.7404 37.9333 10.5938 37.8C10.4604 37.6533 10.3938 37.4667 10.3938 37.24V27.84C10.3938 27.6 10.4604 27.4133 10.5938 27.28C10.7404 27.1333 10.9338 27.06 11.1738 27.06C11.4004 27.06 11.5804 27.1333 11.7138 27.28C11.8604 27.4133 11.9338 27.6 11.9338 27.84V37.24C11.9338 37.4667 11.8604 37.6533 11.7138 37.8C11.5804 37.9333 11.4004 38 11.1738 38ZM28.8889 38.1C27.8089 38.1 26.8489 37.8667 26.0089 37.4C25.1822 36.92 24.5289 36.26 24.0489 35.42C23.5822 34.58 23.3489 33.62 23.3489 32.54C23.3489 31.4467 23.5689 30.4867 24.0089 29.66C24.4622 28.82 25.0822 28.16 25.8689 27.68C26.6556 27.2 27.5622 26.96 28.5889 26.96C29.6022 26.96 30.4822 27.1933 31.2289 27.66C31.9889 28.1133 32.5756 28.7467 32.9889 29.56C33.4022 30.3733 33.6089 31.3 33.6089 32.34C33.6089 32.5533 33.5422 32.7267 33.4089 32.86C33.2756 32.98 33.1022 33.04 32.8889 33.04H24.3889V31.76H33.0489L32.1889 32.38C32.2022 31.6067 32.0622 30.9133 31.7689 30.3C31.4756 29.6867 31.0556 29.2067 30.5089 28.86C29.9756 28.5133 29.3356 28.34 28.5889 28.34C27.8289 28.34 27.1622 28.52 26.5889 28.88C26.0156 29.24 25.5689 29.74 25.2489 30.38C24.9422 31.0067 24.7889 31.7267 24.7889 32.54C24.7889 33.3533 24.9622 34.0733 25.3089 34.7C25.6689 35.3267 26.1556 35.82 26.7689 36.18C27.3822 36.54 28.0889 36.72 28.8889 36.72C29.3689 36.72 29.8489 36.64 30.3289 36.48C30.8222 36.3067 31.2156 36.0933 31.5089 35.84C31.6556 35.72 31.8222 35.66 32.0089 35.66C32.1956 35.6467 32.3556 35.6933 32.4889 35.8C32.6622 35.96 32.7489 36.1333 32.7489 36.32C32.7622 36.5067 32.6889 36.6667 32.5289 36.8C32.0889 37.1733 31.5289 37.4867 30.8489 37.74C30.1689 37.98 29.5156 38.1 28.8889 38.1ZM38.0941 42.76C37.9874 42.76 37.8674 42.7333 37.7341 42.68C37.2807 42.48 37.1541 42.16 37.3541 41.72L43.8141 27.48C44.0141 27.0533 44.3341 26.9333 44.7741 27.12C45.2274 27.3067 45.3541 27.62 45.1541 28.06L38.6741 42.3C38.5407 42.6067 38.3474 42.76 38.0941 42.76ZM40.3141 37.66C40.1141 37.7533 39.9274 37.7733 39.7541 37.72C39.5807 37.6533 39.4407 37.52 39.3341 37.32L34.8741 28.08C34.7807 27.88 34.7674 27.6933 34.8341 27.52C34.9007 27.3467 35.0341 27.2133 35.2341 27.12C35.4341 27.0267 35.6207 27.0133 35.7941 27.08C35.9674 27.1333 36.1007 27.26 36.1941 27.46L40.5741 36.7C40.6807 36.9 40.7141 37.0867 40.6741 37.26C40.6341 37.4333 40.5141 37.5667 40.3141 37.66ZM58.5705 38.1C57.5305 38.1 56.5905 37.86 55.7505 37.38C54.9238 36.9 54.2638 36.2467 53.7705 35.42C53.2905 34.58 53.0438 33.64 53.0305 32.6V23.16C53.0305 22.92 53.0971 22.7333 53.2305 22.6C53.3771 22.4533 53.5705 22.38 53.8105 22.38C54.0371 22.38 54.2171 22.4533 54.3505 22.6C54.4971 22.7333 54.5705 22.92 54.5705 23.16V29.04C55.0105 28.4133 55.5905 27.9133 56.3105 27.54C57.0438 27.1533 57.8571 26.96 58.7505 26.96C59.7771 26.96 60.6971 27.2067 61.5105 27.7C62.3238 28.18 62.9638 28.84 63.4305 29.68C63.9105 30.52 64.1505 31.4667 64.1505 32.52C64.1505 33.5867 63.9038 34.54 63.4105 35.38C62.9305 36.22 62.2705 36.8867 61.4305 37.38C60.5905 37.86 59.6371 38.1 58.5705 38.1ZM58.5705 36.7C59.3438 36.7 60.0371 36.52 60.6505 36.16C61.2638 35.7867 61.7438 35.2867 62.0905 34.66C62.4505 34.0333 62.6305 33.32 62.6305 32.52C62.6305 31.7333 62.4505 31.0267 62.0905 30.4C61.7438 29.76 61.2638 29.26 60.6505 28.9C60.0371 28.54 59.3438 28.36 58.5705 28.36C57.8105 28.36 57.1238 28.54 56.5105 28.9C55.8971 29.26 55.4171 29.76 55.0705 30.4C54.7238 31.0267 54.5505 31.7333 54.5505 32.52C54.5505 33.32 54.7238 34.0333 55.0705 34.66C55.4171 35.2867 55.8971 35.7867 56.5105 36.16C57.1238 36.52 57.8105 36.7 58.5705 36.7ZM72.1311 38.1C71.0511 38.1 70.0911 37.8667 69.2511 37.4C68.4244 36.92 67.7711 36.26 67.2911 35.42C66.8244 34.58 66.5911 33.62 66.5911 32.54C66.5911 31.4467 66.8111 30.4867 67.2511 29.66C67.7044 28.82 68.3244 28.16 69.1111 27.68C69.8978 27.2 70.8044 26.96 71.8311 26.96C72.8444 26.96 73.7244 27.1933 74.4711 27.66C75.2311 28.1133 75.8178 28.7467 76.2311 29.56C76.6444 30.3733 76.8511 31.3 76.8511 32.34C76.8511 32.5533 76.7844 32.7267 76.6511 32.86C76.5178 32.98 76.3444 33.04 76.1311 33.04H67.6311V31.76H76.2911L75.4311 32.38C75.4444 31.6067 75.3044 30.9133 75.0111 30.3C74.7178 29.6867 74.2978 29.2067 73.7511 28.86C73.2178 28.5133 72.5778 28.34 71.8311 28.34C71.0711 28.34 70.4044 28.52 69.8311 28.88C69.2578 29.24 68.8111 29.74 68.4911 30.38C68.1844 31.0067 68.0311 31.7267 68.0311 32.54C68.0311 33.3533 68.2044 34.0733 68.5511 34.7C68.9111 35.3267 69.3978 35.82 70.0111 36.18C70.6244 36.54 71.3311 36.72 72.1311 36.72C72.6111 36.72 73.0911 36.64 73.5711 36.48C74.0644 36.3067 74.4578 36.0933 74.7511 35.84C74.8978 35.72 75.0644 35.66 75.2511 35.66C75.4378 35.6467 75.5978 35.6933 75.7311 35.8C75.9044 35.96 75.9911 36.1333 75.9911 36.32C76.0044 36.5067 75.9311 36.6667 75.7711 36.8C75.3311 37.1733 74.7711 37.4867 74.0911 37.74C73.4111 37.98 72.7578 38.1 72.1311 38.1ZM81.8163 38C81.2829 38 80.8029 37.8533 80.3763 37.56C79.9629 37.2667 79.6363 36.86 79.3963 36.34C79.1696 35.82 79.0563 35.22 79.0563 34.54V23.14C79.0563 22.9133 79.1229 22.7333 79.2563 22.6C79.4029 22.4533 79.5896 22.38 79.8163 22.38C80.0429 22.38 80.2229 22.4533 80.3563 22.6C80.5029 22.7333 80.5763 22.9133 80.5763 23.14V34.54C80.5763 35.1133 80.6896 35.58 80.9163 35.94C81.1563 36.3 81.4563 36.48 81.8163 36.48H82.3163C82.5163 36.48 82.6763 36.5533 82.7962 36.7C82.9163 36.8333 82.9763 37.0133 82.9763 37.24C82.9763 37.4667 82.8896 37.6533 82.7163 37.8C82.5563 37.9333 82.3429 38 82.0763 38H81.8163ZM89.4753 38.1C88.4086 38.1 87.4553 37.86 86.6153 37.38C85.7753 36.9 85.1153 36.24 84.6353 35.4C84.1553 34.56 83.9153 33.6067 83.9153 32.54C83.9153 31.46 84.1553 30.5 84.6353 29.66C85.1153 28.82 85.7753 28.16 86.6153 27.68C87.4553 27.2 88.4086 26.96 89.4753 26.96C90.542 26.96 91.4886 27.2 92.3153 27.68C93.1553 28.16 93.8153 28.82 94.2953 29.66C94.7753 30.5 95.022 31.46 95.0353 32.54C95.0353 33.6067 94.7886 34.56 94.2953 35.4C93.8153 36.24 93.1553 36.9 92.3153 37.38C91.4886 37.86 90.542 38.1 89.4753 38.1ZM89.4753 36.7C90.2486 36.7 90.942 36.52 91.5553 36.16C92.1686 35.8 92.6486 35.3067 92.9953 34.68C93.342 34.0533 93.5153 33.34 93.5153 32.54C93.5153 31.74 93.342 31.0267 92.9953 30.4C92.6486 29.76 92.1686 29.26 91.5553 28.9C90.942 28.54 90.2486 28.36 89.4753 28.36C88.702 28.36 88.0086 28.54 87.3953 28.9C86.782 29.26 86.2953 29.76 85.9353 30.4C85.5886 31.0267 85.4153 31.74 85.4153 32.54C85.4153 33.34 85.5886 34.0533 85.9353 34.68C86.2953 35.3067 86.782 35.8 87.3953 36.16C88.0086 36.52 88.702 36.7 89.4753 36.7ZM107.41 38C107.184 38 106.997 37.9267 106.85 37.78C106.704 37.6333 106.63 37.4533 106.63 37.24V32.04C106.63 31.2133 106.47 30.5333 106.15 30C105.844 29.4667 105.417 29.0667 104.87 28.8C104.337 28.5333 103.73 28.4 103.05 28.4C102.397 28.4 101.804 28.5267 101.27 28.78C100.75 29.0333 100.337 29.38 100.03 29.82C99.7238 30.26 99.5705 30.76 99.5705 31.32H98.4705C98.4971 30.48 98.7238 29.7333 99.1505 29.08C99.5771 28.4133 100.144 27.8933 100.85 27.52C101.557 27.1333 102.344 26.94 103.21 26.94C104.157 26.94 105.004 27.14 105.75 27.54C106.497 27.9267 107.084 28.5 107.51 29.26C107.95 30.02 108.17 30.9467 108.17 32.04V37.24C108.17 37.4533 108.097 37.6333 107.95 37.78C107.804 37.9267 107.624 38 107.41 38ZM98.8105 38C98.5705 38 98.3771 37.9333 98.2305 37.8C98.0971 37.6533 98.0305 37.4667 98.0305 37.24V27.84C98.0305 27.6 98.0971 27.4133 98.2305 27.28C98.3771 27.1333 98.5705 27.06 98.8105 27.06C99.0371 27.06 99.2171 27.1333 99.3505 27.28C99.4971 27.4133 99.5705 27.6 99.5705 27.84V37.24C99.5705 37.4667 99.4971 37.6533 99.3505 37.8C99.2171 37.9333 99.0371 38 98.8105 38ZM116.386 38.1C115.332 38.1 114.399 37.8667 113.586 37.4C112.772 36.92 112.132 36.26 111.666 35.42C111.212 34.58 110.986 33.62 110.986 32.54C110.986 31.4467 111.226 30.48 111.706 29.64C112.186 28.8 112.846 28.1467 113.686 27.68C114.526 27.2 115.479 26.96 116.546 26.96C117.626 26.96 118.579 27.2 119.406 27.68C120.246 28.1467 120.899 28.8 121.366 29.64C121.846 30.48 122.092 31.4467 122.106 32.54L121.206 33.02C121.206 34.0067 120.999 34.8867 120.586 35.66C120.172 36.42 119.599 37.02 118.866 37.46C118.146 37.8867 117.319 38.1 116.386 38.1ZM116.586 42.32C115.532 42.32 114.606 42.12 113.806 41.72C113.006 41.3333 112.346 40.8 111.826 40.12C111.679 39.96 111.612 39.7867 111.626 39.6C111.652 39.4133 111.752 39.26 111.926 39.14C112.099 39.02 112.292 38.98 112.506 39.02C112.719 39.06 112.886 39.16 113.006 39.32C113.392 39.8 113.886 40.1867 114.486 40.48C115.099 40.7733 115.806 40.92 116.606 40.92C117.352 40.92 118.026 40.74 118.626 40.38C119.226 40.02 119.699 39.5133 120.046 38.86C120.406 38.2067 120.586 37.44 120.586 36.56V33.52L121.166 32.36L122.106 32.54V36.62C122.106 37.7 121.866 38.6667 121.386 39.52C120.906 40.3867 120.252 41.0667 119.426 41.56C118.599 42.0667 117.652 42.32 116.586 42.32ZM116.546 36.7C117.332 36.7 118.026 36.5267 118.626 36.18C119.239 35.82 119.719 35.3267 120.066 34.7C120.412 34.0733 120.586 33.3533 120.586 32.54C120.586 31.7267 120.412 31.0067 120.066 30.38C119.719 29.74 119.239 29.2467 118.626 28.9C118.026 28.54 117.332 28.36 116.546 28.36C115.759 28.36 115.059 28.54 114.446 28.9C113.832 29.2467 113.352 29.74 113.006 30.38C112.659 31.0067 112.486 31.7267 112.486 32.54C112.486 33.3533 112.659 34.0733 113.006 34.7C113.352 35.3267 113.832 35.82 114.446 36.18C115.059 36.5267 115.759 36.7 116.546 36.7ZM135.24 38C134.533 38 133.9 37.8333 133.34 37.5C132.793 37.1667 132.36 36.7133 132.04 36.14C131.72 35.5533 131.56 34.8867 131.56 34.14V24.36C131.56 24.1333 131.627 23.9467 131.76 23.8C131.907 23.6533 132.093 23.58 132.32 23.58C132.547 23.58 132.733 23.6533 132.88 23.8C133.027 23.9467 133.1 24.1333 133.1 24.36V34.14C133.1 34.82 133.3 35.38 133.7 35.82C134.1 36.2467 134.613 36.46 135.24 36.46H135.78C135.993 36.46 136.167 36.5333 136.3 36.68C136.433 36.8267 136.5 37.0133 136.5 37.24C136.5 37.4667 136.42 37.6533 136.26 37.8C136.1 37.9333 135.9 38 135.66 38H135.24ZM130.26 28.8C130.06 28.8 129.893 28.74 129.76 28.62C129.627 28.4867 129.56 28.3267 129.56 28.14C129.56 27.94 129.627 27.78 129.76 27.66C129.893 27.5267 130.06 27.46 130.26 27.46H135.36C135.56 27.46 135.727 27.5267 135.86 27.66C135.993 27.78 136.06 27.94 136.06 28.14C136.06 28.3267 135.993 28.4867 135.86 28.62C135.727 28.74 135.56 28.8 135.36 28.8H130.26ZM143.987 38.1C142.92 38.1 141.967 37.86 141.127 37.38C140.287 36.9 139.627 36.24 139.147 35.4C138.667 34.56 138.427 33.6067 138.427 32.54C138.427 31.46 138.667 30.5 139.147 29.66C139.627 28.82 140.287 28.16 141.127 27.68C141.967 27.2 142.92 26.96 143.987 26.96C145.054 26.96 146 27.2 146.827 27.68C147.667 28.16 148.327 28.82 148.807 29.66C149.287 30.5 149.534 31.46 149.547 32.54C149.547 33.6067 149.3 34.56 148.807 35.4C148.327 36.24 147.667 36.9 146.827 37.38C146 37.86 145.054 38.1 143.987 38.1ZM143.987 36.7C144.76 36.7 145.454 36.52 146.067 36.16C146.68 35.8 147.16 35.3067 147.507 34.68C147.854 34.0533 148.027 33.34 148.027 32.54C148.027 31.74 147.854 31.0267 147.507 30.4C147.16 29.76 146.68 29.26 146.067 28.9C145.454 28.54 144.76 28.36 143.987 28.36C143.214 28.36 142.52 28.54 141.907 28.9C141.294 29.26 140.807 29.76 140.447 30.4C140.1 31.0267 139.927 31.74 139.927 32.54C139.927 33.34 140.1 34.0533 140.447 34.68C140.807 35.3067 141.294 35.8 141.907 36.16C142.52 36.52 143.214 36.7 143.987 36.7ZM162.682 38C161.975 38 161.342 37.8333 160.782 37.5C160.235 37.1667 159.802 36.7133 159.482 36.14C159.162 35.5533 159.002 34.8867 159.002 34.14V24.36C159.002 24.1333 159.068 23.9467 159.202 23.8C159.348 23.6533 159.535 23.58 159.762 23.58C159.988 23.58 160.175 23.6533 160.322 23.8C160.468 23.9467 160.542 24.1333 160.542 24.36V34.14C160.542 34.82 160.742 35.38 161.142 35.82C161.542 36.2467 162.055 36.46 162.682 36.46H163.222C163.435 36.46 163.608 36.5333 163.742 36.68C163.875 36.8267 163.942 37.0133 163.942 37.24C163.942 37.4667 163.862 37.6533 163.702 37.8C163.542 37.9333 163.342 38 163.102 38H162.682ZM157.702 28.8C157.502 28.8 157.335 28.74 157.202 28.62C157.068 28.4867 157.002 28.3267 157.002 28.14C157.002 27.94 157.068 27.78 157.202 27.66C157.335 27.5267 157.502 27.46 157.702 27.46H162.802C163.002 27.46 163.168 27.5267 163.302 27.66C163.435 27.78 163.502 27.94 163.502 28.14C163.502 28.3267 163.435 28.4867 163.302 28.62C163.168 28.74 163.002 28.8 162.802 28.8H157.702ZM167.228 33.54C166.988 33.54 166.795 33.4667 166.648 33.32C166.515 33.1733 166.448 32.9867 166.448 32.76V23.16C166.448 22.92 166.515 22.7333 166.648 22.6C166.795 22.4533 166.988 22.38 167.228 22.38C167.455 22.38 167.635 22.4533 167.768 22.6C167.915 22.7333 167.988 22.92 167.988 23.16V32.76C167.988 32.9867 167.915 33.1733 167.768 33.32C167.635 33.4667 167.455 33.54 167.228 33.54ZM175.828 38C175.602 38 175.415 37.9267 175.268 37.78C175.122 37.6333 175.048 37.4533 175.048 37.24V32.04C175.048 31.2133 174.888 30.5333 174.568 30C174.262 29.4667 173.835 29.0667 173.288 28.8C172.755 28.5333 172.148 28.4 171.468 28.4C170.815 28.4 170.222 28.5267 169.688 28.78C169.168 29.0333 168.755 29.38 168.448 29.82C168.142 30.26 167.988 30.76 167.988 31.32H166.888C166.915 30.48 167.142 29.7333 167.568 29.08C167.995 28.4133 168.562 27.8933 169.268 27.52C169.975 27.1333 170.762 26.94 171.628 26.94C172.575 26.94 173.422 27.14 174.168 27.54C174.915 27.9267 175.502 28.5 175.928 29.26C176.368 30.02 176.588 30.9467 176.588 32.04V37.24C176.588 37.4533 176.515 37.6333 176.368 37.78C176.222 37.9267 176.042 38 175.828 38ZM167.228 38C166.988 38 166.795 37.9333 166.648 37.8C166.515 37.6533 166.448 37.4667 166.448 37.24V27.84C166.448 27.6 166.515 27.4133 166.648 27.28C166.795 27.1333 166.988 27.06 167.228 27.06C167.455 27.06 167.635 27.1333 167.768 27.28C167.915 27.4133 167.988 27.6 167.988 27.84V37.24C167.988 37.4667 167.915 37.6533 167.768 37.8C167.635 37.9333 167.455 38 167.228 38ZM184.944 38.1C183.864 38.1 182.904 37.8667 182.064 37.4C181.237 36.92 180.584 36.26 180.104 35.42C179.637 34.58 179.404 33.62 179.404 32.54C179.404 31.4467 179.624 30.4867 180.064 29.66C180.517 28.82 181.137 28.16 181.924 27.68C182.71 27.2 183.617 26.96 184.644 26.96C185.657 26.96 186.537 27.1933 187.284 27.66C188.044 28.1133 188.63 28.7467 189.044 29.56C189.457 30.3733 189.664 31.3 189.664 32.34C189.664 32.5533 189.597 32.7267 189.464 32.86C189.33 32.98 189.157 33.04 188.944 33.04H180.444V31.76H189.104L188.244 32.38C188.257 31.6067 188.117 30.9133 187.824 30.3C187.53 29.6867 187.11 29.2067 186.564 28.86C186.03 28.5133 185.39 28.34 184.644 28.34C183.884 28.34 183.217 28.52 182.644 28.88C182.07 29.24 181.624 29.74 181.304 30.38C180.997 31.0067 180.844 31.7267 180.844 32.54C180.844 33.3533 181.017 34.0733 181.364 34.7C181.724 35.3267 182.21 35.82 182.824 36.18C183.437 36.54 184.144 36.72 184.944 36.72C185.424 36.72 185.904 36.64 186.384 36.48C186.877 36.3067 187.27 36.0933 187.564 35.84C187.71 35.72 187.877 35.66 188.064 35.66C188.25 35.6467 188.41 35.6933 188.544 35.8C188.717 35.96 188.804 36.1333 188.804 36.32C188.817 36.5067 188.744 36.6667 188.584 36.8C188.144 37.1733 187.584 37.4867 186.904 37.74C186.224 37.98 185.57 38.1 184.944 38.1ZM202.948 38.1C201.895 38.1 200.961 37.8667 200.148 37.4C199.335 36.92 198.695 36.26 198.228 35.42C197.775 34.58 197.548 33.62 197.548 32.54C197.548 31.4467 197.788 30.48 198.268 29.64C198.748 28.8 199.408 28.1467 200.248 27.68C201.088 27.2 202.041 26.96 203.108 26.96C204.188 26.96 205.141 27.2 205.968 27.68C206.808 28.1467 207.461 28.8 207.928 29.64C208.408 30.48 208.655 31.4467 208.668 32.54L207.768 33.02C207.768 34.0067 207.561 34.8867 207.148 35.66C206.735 36.42 206.161 37.02 205.428 37.46C204.708 37.8867 203.881 38.1 202.948 38.1ZM203.148 42.32C202.095 42.32 201.168 42.12 200.368 41.72C199.568 41.3333 198.908 40.8 198.388 40.12C198.241 39.96 198.175 39.7867 198.188 39.6C198.215 39.4133 198.315 39.26 198.488 39.14C198.661 39.02 198.855 38.98 199.068 39.02C199.281 39.06 199.448 39.16 199.568 39.32C199.955 39.8 200.448 40.1867 201.048 40.48C201.661 40.7733 202.368 40.92 203.168 40.92C203.915 40.92 204.588 40.74 205.188 40.38C205.788 40.02 206.261 39.5133 206.608 38.86C206.968 38.2067 207.148 37.44 207.148 36.56V33.52L207.728 32.36L208.668 32.54V36.62C208.668 37.7 208.428 38.6667 207.948 39.52C207.468 40.3867 206.815 41.0667 205.988 41.56C205.161 42.0667 204.215 42.32 203.148 42.32ZM203.108 36.7C203.895 36.7 204.588 36.5267 205.188 36.18C205.801 35.82 206.281 35.3267 206.628 34.7C206.975 34.0733 207.148 33.3533 207.148 32.54C207.148 31.7267 206.975 31.0067 206.628 30.38C206.281 29.74 205.801 29.2467 205.188 28.9C204.588 28.54 203.895 28.36 203.108 28.36C202.321 28.36 201.621 28.54 201.008 28.9C200.395 29.2467 199.915 29.74 199.568 30.38C199.221 31.0067 199.048 31.7267 199.048 32.54C199.048 33.3533 199.221 34.0733 199.568 34.7C199.915 35.3267 200.395 35.82 201.008 36.18C201.621 36.5267 202.321 36.7 203.108 36.7ZM216.623 38.1C215.543 38.1 214.583 37.8667 213.743 37.4C212.917 36.92 212.263 36.26 211.783 35.42C211.317 34.58 211.083 33.62 211.083 32.54C211.083 31.4467 211.303 30.4867 211.743 29.66C212.197 28.82 212.817 28.16 213.603 27.68C214.39 27.2 215.297 26.96 216.323 26.96C217.337 26.96 218.217 27.1933 218.963 27.66C219.723 28.1133 220.31 28.7467 220.723 29.56C221.137 30.3733 221.343 31.3 221.343 32.34C221.343 32.5533 221.277 32.7267 221.143 32.86C221.01 32.98 220.837 33.04 220.623 33.04H212.123V31.76H220.783L219.923 32.38C219.937 31.6067 219.797 30.9133 219.503 30.3C219.21 29.6867 218.79 29.2067 218.243 28.86C217.71 28.5133 217.07 28.34 216.323 28.34C215.563 28.34 214.897 28.52 214.323 28.88C213.75 29.24 213.303 29.74 212.983 30.38C212.677 31.0067 212.523 31.7267 212.523 32.54C212.523 33.3533 212.697 34.0733 213.043 34.7C213.403 35.3267 213.89 35.82 214.503 36.18C215.117 36.54 215.823 36.72 216.623 36.72C217.103 36.72 217.583 36.64 218.063 36.48C218.557 36.3067 218.95 36.0933 219.243 35.84C219.39 35.72 219.557 35.66 219.743 35.66C219.93 35.6467 220.09 35.6933 220.223 35.8C220.397 35.96 220.483 36.1333 220.483 36.32C220.497 36.5067 220.423 36.6667 220.263 36.8C219.823 37.1733 219.263 37.4867 218.583 37.74C217.903 37.98 217.25 38.1 216.623 38.1ZM233.328 38C233.102 38 232.915 37.9267 232.768 37.78C232.622 37.6333 232.548 37.4533 232.548 37.24V32.04C232.548 31.2133 232.388 30.5333 232.068 30C231.762 29.4667 231.335 29.0667 230.788 28.8C230.255 28.5333 229.648 28.4 228.968 28.4C228.315 28.4 227.722 28.5267 227.188 28.78C226.668 29.0333 226.255 29.38 225.948 29.82C225.642 30.26 225.488 30.76 225.488 31.32H224.388C224.415 30.48 224.642 29.7333 225.068 29.08C225.495 28.4133 226.062 27.8933 226.768 27.52C227.475 27.1333 228.262 26.94 229.128 26.94C230.075 26.94 230.922 27.14 231.668 27.54C232.415 27.9267 233.002 28.5 233.428 29.26C233.868 30.02 234.088 30.9467 234.088 32.04V37.24C234.088 37.4533 234.015 37.6333 233.868 37.78C233.722 37.9267 233.542 38 233.328 38ZM224.728 38C224.488 38 224.295 37.9333 224.148 37.8C224.015 37.6533 223.948 37.4667 223.948 37.24V27.84C223.948 27.6 224.015 27.4133 224.148 27.28C224.295 27.1333 224.488 27.06 224.728 27.06C224.955 27.06 225.135 27.1333 225.268 27.28C225.415 27.4133 225.488 27.6 225.488 27.84V37.24C225.488 37.4667 225.415 37.6533 225.268 37.8C225.135 37.9333 224.955 38 224.728 38ZM242.244 38.12C241.297 38.12 240.45 37.9267 239.704 37.54C238.957 37.14 238.364 36.56 237.924 35.8C237.497 35.04 237.284 34.1133 237.284 33.02V27.82C237.284 27.6067 237.357 27.4267 237.504 27.28C237.65 27.1333 237.83 27.06 238.044 27.06C238.27 27.06 238.457 27.1333 238.604 27.28C238.75 27.4267 238.824 27.6067 238.824 27.82V33.02C238.824 33.8467 238.977 34.5267 239.284 35.06C239.604 35.5933 240.03 35.9933 240.564 36.26C241.11 36.5267 241.724 36.66 242.404 36.66C243.057 36.66 243.644 36.5333 244.164 36.28C244.697 36.0267 245.117 35.68 245.424 35.24C245.73 34.8 245.884 34.3 245.884 33.74H246.984C246.944 34.58 246.71 35.3333 246.284 36C245.87 36.6533 245.31 37.1733 244.604 37.56C243.897 37.9333 243.11 38.12 242.244 38.12ZM246.644 38C246.417 38 246.23 37.9333 246.084 37.8C245.95 37.6533 245.884 37.46 245.884 37.22V27.82C245.884 27.5933 245.95 27.4133 246.084 27.28C246.23 27.1333 246.417 27.06 246.644 27.06C246.87 27.06 247.057 27.1333 247.204 27.28C247.35 27.4133 247.424 27.5933 247.424 27.82V37.22C247.424 37.46 247.35 37.6533 247.204 37.8C247.057 37.9333 246.87 38 246.644 38ZM254.839 38.1C254.052 38.1 253.272 37.9667 252.499 37.7C251.725 37.4333 251.099 37.0333 250.619 36.5C250.472 36.34 250.412 36.16 250.439 35.96C250.465 35.76 250.565 35.5867 250.739 35.44C250.925 35.3067 251.119 35.2533 251.319 35.28C251.519 35.3067 251.685 35.3933 251.819 35.54C252.139 35.9133 252.559 36.2 253.079 36.4C253.612 36.6 254.199 36.7 254.839 36.7C255.825 36.7 256.539 36.5333 256.979 36.2C257.419 35.8533 257.645 35.44 257.659 34.96C257.659 34.48 257.432 34.0867 256.979 33.78C256.525 33.46 255.779 33.2133 254.739 33.04C253.392 32.8267 252.405 32.4533 251.779 31.92C251.152 31.3867 250.839 30.7533 250.839 30.02C250.839 29.34 251.019 28.7733 251.379 28.32C251.739 27.8667 252.219 27.5267 252.819 27.3C253.419 27.0733 254.079 26.96 254.799 26.96C255.692 26.96 256.459 27.1133 257.099 27.42C257.752 27.7267 258.279 28.14 258.679 28.66C258.812 28.8333 258.865 29.0133 258.839 29.2C258.812 29.3867 258.705 29.54 258.519 29.66C258.359 29.7533 258.172 29.7867 257.959 29.76C257.759 29.72 257.585 29.62 257.439 29.46C257.105 29.0733 256.719 28.7933 256.279 28.62C255.839 28.4333 255.332 28.34 254.759 28.34C254.025 28.34 253.439 28.4933 252.999 28.8C252.559 29.0933 252.339 29.4667 252.339 29.92C252.339 30.2267 252.419 30.4933 252.579 30.72C252.752 30.9467 253.039 31.1467 253.439 31.32C253.852 31.4933 254.425 31.64 255.159 31.76C256.159 31.92 256.945 32.16 257.519 32.48C258.105 32.7867 258.519 33.1533 258.759 33.58C259.012 33.9933 259.139 34.4467 259.139 34.94C259.139 35.5667 258.952 36.12 258.579 36.6C258.219 37.0667 257.712 37.4333 257.059 37.7C256.419 37.9667 255.679 38.1 254.839 38.1Z" fill="black"/>
<path d="M148.726 43.42C148.939 43.42 149.099 43.5067 149.206 43.68C149.313 43.8533 149.319 44.04 149.226 44.24C148.999 44.7467 148.859 45.1733 148.806 45.52C148.766 45.8667 148.766 46.1667 148.806 46.42C148.846 46.66 148.893 46.8933 148.946 47.12C149.013 47.3333 149.046 47.58 149.046 47.86C149.046 48.1933 148.933 48.4733 148.706 48.7C148.479 48.9133 148.213 49.02 147.906 49.02C147.519 49.02 147.219 48.86 147.006 48.54C146.793 48.2067 146.686 47.7867 146.686 47.28C146.686 46.9467 146.753 46.5667 146.886 46.14C147.019 45.7 147.193 45.2733 147.406 44.86C147.619 44.4467 147.839 44.1067 148.066 43.84C148.306 43.56 148.526 43.42 148.726 43.42ZM152.491 60C152.224 60 151.997 59.9133 151.811 59.74C151.637 59.5533 151.551 59.3267 151.551 59.06V45.32C151.551 45.04 151.637 44.8133 151.811 44.64C151.997 44.4667 152.224 44.38 152.491 44.38C152.864 44.38 153.144 44.5467 153.331 44.88L159.771 57.74H159.111L165.411 44.88C165.611 44.5467 165.891 44.38 166.251 44.38C166.517 44.38 166.737 44.4667 166.911 44.64C167.097 44.8133 167.191 45.04 167.191 45.32V59.06C167.191 59.3267 167.097 59.5533 166.911 59.74C166.724 59.9133 166.504 60 166.251 60C165.984 60 165.757 59.9133 165.571 59.74C165.397 59.5533 165.311 59.3267 165.311 59.06V47.86L165.671 47.82L160.191 59.02C159.991 59.34 159.717 59.5 159.371 59.5C158.971 59.5 158.684 59.3067 158.511 58.92L153.031 47.96L153.431 47.86V59.06C153.431 59.3267 153.337 59.5533 153.151 59.74C152.977 59.9133 152.757 60 152.491 60ZM172.179 60C171.899 60 171.673 59.9133 171.499 59.74C171.326 59.5667 171.239 59.3467 171.239 59.08V49.98C171.239 49.7 171.326 49.48 171.499 49.32C171.673 49.1467 171.899 49.06 172.179 49.06C172.446 49.06 172.666 49.1467 172.839 49.32C173.013 49.48 173.099 49.7 173.099 49.98V59.08C173.099 59.3467 173.013 59.5667 172.839 59.74C172.666 59.9133 172.446 60 172.179 60ZM172.159 47.16C171.826 47.16 171.539 47.04 171.299 46.8C171.059 46.56 170.939 46.2667 170.939 45.92C170.939 45.5733 171.059 45.2867 171.299 45.06C171.553 44.82 171.846 44.7 172.179 44.7C172.499 44.7 172.779 44.82 173.019 45.06C173.273 45.2867 173.399 45.5733 173.399 45.92C173.399 46.2667 173.279 46.56 173.039 46.8C172.799 47.04 172.506 47.16 172.159 47.16ZM181.857 60.08C180.803 60.08 179.863 59.84 179.037 59.36C178.21 58.8667 177.557 58.2067 177.077 57.38C176.61 56.54 176.377 55.5933 176.377 54.54C176.377 53.46 176.603 52.5 177.057 51.66C177.523 50.82 178.157 50.1667 178.957 49.7C179.757 49.22 180.683 48.98 181.737 48.98C182.523 48.98 183.25 49.1333 183.917 49.44C184.583 49.7467 185.177 50.2067 185.697 50.82C185.87 51.0067 185.93 51.2067 185.877 51.42C185.837 51.6333 185.703 51.82 185.477 51.98C185.317 52.1 185.13 52.14 184.917 52.1C184.703 52.06 184.517 51.9467 184.357 51.76C183.65 51 182.777 50.62 181.737 50.62C181.03 50.62 180.403 50.7867 179.857 51.12C179.323 51.4533 178.903 51.9133 178.597 52.5C178.303 53.0733 178.157 53.7533 178.157 54.54C178.157 55.2867 178.31 55.9533 178.617 56.54C178.937 57.1267 179.377 57.5933 179.937 57.94C180.497 58.2733 181.137 58.44 181.857 58.44C182.35 58.44 182.79 58.38 183.177 58.26C183.563 58.14 183.91 57.9467 184.217 57.68C184.403 57.52 184.597 57.4333 184.797 57.42C185.01 57.4067 185.197 57.4667 185.357 57.6C185.557 57.7733 185.67 57.9667 185.697 58.18C185.723 58.3933 185.65 58.58 185.477 58.74C184.517 59.6333 183.31 60.08 181.857 60.08ZM189.749 53.2C189.776 52.3867 189.983 51.66 190.369 51.02C190.769 50.38 191.296 49.8733 191.949 49.5C192.603 49.1267 193.323 48.94 194.109 48.94C194.843 48.94 195.389 49.0533 195.749 49.28C196.123 49.5067 196.263 49.7933 196.169 50.14C196.129 50.34 196.049 50.4867 195.929 50.58C195.809 50.66 195.669 50.7067 195.509 50.72C195.349 50.72 195.176 50.7067 194.989 50.68C194.176 50.5467 193.449 50.5667 192.809 50.74C192.169 50.9133 191.663 51.2133 191.289 51.64C190.916 52.0667 190.729 52.5867 190.729 53.2H189.749ZM189.809 60C189.529 60 189.309 59.9267 189.149 59.78C188.989 59.62 188.909 59.3933 188.909 59.1V49.96C188.909 49.68 188.989 49.46 189.149 49.3C189.309 49.14 189.529 49.06 189.809 49.06C190.116 49.06 190.343 49.14 190.489 49.3C190.649 49.4467 190.729 49.6667 190.729 49.96V59.1C190.729 59.38 190.649 59.6 190.489 59.76C190.343 59.92 190.116 60 189.809 60ZM199.582 60C199.302 60 199.075 59.9133 198.902 59.74C198.728 59.5667 198.642 59.3467 198.642 59.08V49.98C198.642 49.7 198.728 49.48 198.902 49.32C199.075 49.1467 199.302 49.06 199.582 49.06C199.848 49.06 200.068 49.1467 200.242 49.32C200.415 49.48 200.502 49.7 200.502 49.98V59.08C200.502 59.3467 200.415 59.5667 200.242 59.74C200.068 59.9133 199.848 60 199.582 60ZM199.562 47.16C199.228 47.16 198.942 47.04 198.702 46.8C198.462 46.56 198.342 46.2667 198.342 45.92C198.342 45.5733 198.462 45.2867 198.702 45.06C198.955 44.82 199.248 44.7 199.582 44.7C199.902 44.7 200.182 44.82 200.422 45.06C200.675 45.2867 200.802 45.5733 200.802 45.92C200.802 46.2667 200.682 46.56 200.442 46.8C200.202 47.04 199.908 47.16 199.562 47.16ZM211.999 60C211.852 60 211.726 59.98 211.619 59.94C211.512 59.8867 211.406 59.7933 211.299 59.66L207.799 55.38L207.139 54.74L203.659 50.5C203.486 50.3133 203.399 50.1067 203.399 49.88C203.399 49.6533 203.466 49.46 203.599 49.3C203.732 49.14 203.932 49.06 204.199 49.06C204.479 49.06 204.712 49.16 204.899 49.36L208.299 53.52L208.819 54L212.559 58.6C212.746 58.8267 212.832 59.0467 212.819 59.26C212.806 59.4733 212.719 59.6533 212.559 59.8C212.412 59.9333 212.226 60 211.999 60ZM204.259 60C204.006 60 203.806 59.9267 203.659 59.78C203.526 59.62 203.459 59.4333 203.459 59.22C203.459 58.9933 203.539 58.7733 203.699 58.56L207.219 54.16L208.219 55.54L204.899 59.72C204.739 59.9067 204.526 60 204.259 60ZM209.099 54.84L207.879 53.72L211.179 49.4C211.286 49.2667 211.392 49.18 211.499 49.14C211.619 49.0867 211.752 49.06 211.899 49.06C212.166 49.06 212.366 49.1467 212.499 49.32C212.632 49.48 212.692 49.6733 212.679 49.9C212.679 50.1267 212.599 50.3467 212.439 50.56L209.099 54.84ZM219.077 60.08C218.077 60.08 217.184 59.84 216.397 59.36C215.611 58.88 214.991 58.22 214.537 57.38C214.084 56.54 213.857 55.5933 213.857 54.54C213.857 53.4733 214.097 52.5267 214.577 51.7C215.071 50.86 215.731 50.2 216.557 49.72C217.397 49.2267 218.337 48.98 219.377 48.98C220.431 48.98 221.371 49.2267 222.197 49.72C223.024 50.2 223.677 50.86 224.157 51.7C224.651 52.54 224.904 53.4867 224.917 54.54L224.197 54.72C224.197 55.7333 223.971 56.6467 223.517 57.46C223.064 58.2733 222.451 58.9133 221.677 59.38C220.917 59.8467 220.051 60.08 219.077 60.08ZM219.377 58.44C220.097 58.44 220.737 58.2733 221.297 57.94C221.857 57.5933 222.297 57.1267 222.617 56.54C222.951 55.94 223.117 55.2733 223.117 54.54C223.117 53.7933 222.951 53.1267 222.617 52.54C222.297 51.94 221.857 51.4733 221.297 51.14C220.737 50.7933 220.097 50.62 219.377 50.62C218.684 50.62 218.051 50.7933 217.477 51.14C216.904 51.4733 216.451 51.94 216.117 52.54C215.797 53.1267 215.637 53.7933 215.637 54.54C215.637 55.2733 215.797 55.94 216.117 56.54C216.451 57.1267 216.904 57.5933 217.477 57.94C218.051 58.2733 218.684 58.44 219.377 58.44ZM223.977 60.02C223.711 60.02 223.491 59.9333 223.317 59.76C223.144 59.5867 223.057 59.3667 223.057 59.1V55.9L223.437 53.98L224.917 54.54V59.1C224.917 59.3667 224.824 59.5867 224.637 59.76C224.464 59.9333 224.244 60.02 223.977 60.02ZM230.433 60C229.873 60 229.373 59.8467 228.933 59.54C228.493 59.2333 228.146 58.8133 227.893 58.28C227.653 57.7333 227.533 57.1067 227.533 56.4V45.28C227.533 45.0133 227.613 44.8 227.773 44.64C227.946 44.4667 228.166 44.38 228.433 44.38C228.713 44.38 228.933 44.4667 229.093 44.64C229.266 44.8 229.353 45.0133 229.353 45.28V56.4C229.353 56.92 229.453 57.3467 229.653 57.68C229.866 58.0133 230.126 58.18 230.433 58.18H230.933C231.186 58.18 231.386 58.2667 231.533 58.44C231.679 58.6 231.753 58.82 231.753 59.1C231.753 59.3667 231.639 59.5867 231.413 59.76C231.199 59.92 230.919 60 230.573 60H230.433ZM238.452 60.1C237.519 60.1 236.686 59.9067 235.952 59.52C235.219 59.12 234.639 58.54 234.212 57.78C233.786 57.02 233.572 56.0933 233.572 55V49.96C233.572 49.7067 233.659 49.4933 233.832 49.32C234.019 49.1333 234.239 49.04 234.492 49.04C234.759 49.04 234.979 49.1333 235.152 49.32C235.339 49.4933 235.432 49.7067 235.432 49.96V55C235.432 55.7733 235.579 56.4133 235.872 56.92C236.166 57.4267 236.559 57.8067 237.052 58.06C237.559 58.3 238.126 58.42 238.752 58.42C239.366 58.42 239.906 58.3 240.372 58.06C240.852 57.82 241.232 57.5 241.512 57.1C241.806 56.6867 241.952 56.2267 241.952 55.72H243.152C243.126 56.5467 242.906 57.2933 242.492 57.96C242.092 58.6267 241.539 59.1533 240.832 59.54C240.126 59.9133 239.332 60.1 238.452 60.1ZM242.872 60C242.606 60 242.386 59.9133 242.212 59.74C242.039 59.5667 241.952 59.3467 241.952 59.08V49.96C241.952 49.6933 242.039 49.4733 242.212 49.3C242.386 49.1267 242.606 49.04 242.872 49.04C243.139 49.04 243.359 49.1267 243.532 49.3C243.706 49.4733 243.792 49.6933 243.792 49.96V59.08C243.792 59.3467 243.706 59.5667 243.532 59.74C243.359 59.9133 243.139 60 242.872 60ZM251.306 60.08C250.426 60.08 249.593 59.9467 248.806 59.68C248.019 59.4 247.399 59.02 246.946 58.54C246.773 58.34 246.699 58.12 246.726 57.88C246.753 57.64 246.873 57.4333 247.086 57.26C247.313 57.0867 247.546 57.0133 247.786 57.04C248.026 57.0667 248.226 57.1733 248.386 57.36C248.653 57.6533 249.039 57.9067 249.546 58.12C250.066 58.3333 250.633 58.44 251.246 58.44C252.113 58.44 252.753 58.3 253.166 58.02C253.593 57.7267 253.813 57.3667 253.826 56.94C253.826 56.5 253.619 56.1333 253.206 55.84C252.793 55.5333 252.066 55.2933 251.026 55.12C249.679 54.8667 248.699 54.4733 248.086 53.94C247.473 53.4067 247.166 52.76 247.166 52C247.166 51.32 247.353 50.76 247.726 50.32C248.113 49.8667 248.613 49.5333 249.226 49.32C249.853 49.0933 250.513 48.98 251.206 48.98C252.086 48.98 252.859 49.1267 253.526 49.42C254.193 49.7 254.726 50.0933 255.126 50.6C255.299 50.8 255.373 51.0067 255.346 51.22C255.333 51.4333 255.226 51.6133 255.026 51.76C254.826 51.88 254.593 51.92 254.326 51.88C254.073 51.84 253.859 51.7267 253.686 51.54C253.353 51.1933 252.979 50.9533 252.566 50.82C252.166 50.6733 251.699 50.6 251.166 50.6C250.526 50.6 249.993 50.72 249.566 50.96C249.153 51.2 248.946 51.5267 248.946 51.94C248.946 52.2067 249.013 52.44 249.146 52.64C249.293 52.84 249.559 53.0267 249.946 53.2C250.333 53.36 250.886 53.5067 251.606 53.64C252.606 53.8267 253.393 54.0733 253.966 54.38C254.553 54.6867 254.973 55.0467 255.226 55.46C255.479 55.8733 255.606 56.34 255.606 56.86C255.606 57.4733 255.433 58.0267 255.086 58.52C254.753 59 254.266 59.38 253.626 59.66C252.986 59.94 252.213 60.08 251.306 60.08ZM256.966 49.74C256.766 49.74 256.606 49.6533 256.486 49.48C256.38 49.3067 256.373 49.1133 256.466 48.9C256.693 48.3933 256.826 47.9733 256.866 47.64C256.92 47.2933 256.926 47 256.886 46.76C256.846 46.52 256.793 46.2867 256.726 46.06C256.673 45.8333 256.646 45.58 256.646 45.3C256.646 44.9533 256.753 44.6733 256.966 44.46C257.193 44.2467 257.466 44.14 257.786 44.14C258.173 44.14 258.473 44.3067 258.686 44.64C258.9 44.96 259.006 45.3733 259.006 45.88C259.006 46.2133 258.933 46.6 258.786 47.04C258.653 47.4667 258.48 47.8867 258.266 48.3C258.066 48.7133 257.846 49.06 257.606 49.34C257.38 49.6067 257.166 49.74 256.966 49.74Z" fill="#3C6342"/>
</svg>
