<svg width="227" height="75" viewBox="0 0 227 75" fill="none" xmlns="http://www.w3.org/2000/svg">
<path d="M7.45813 16.2C5.40479 16.2 3.70479 15.4733 2.35813 14.02C1.01146 12.5667 0.338125 10.8467 0.338125 8.86C0.338125 6.76667 0.991458 5.03333 2.29813 3.66C3.60479 2.28667 5.27813 1.6 7.31813 1.6C9.33146 1.6 10.9915 2.32 12.2981 3.76C13.6048 5.2 14.2581 6.94 14.2581 8.98C14.2581 10.9667 13.5981 12.6667 12.2781 14.08C10.9715 15.4933 9.36479 16.2 7.45813 16.2ZM7.89813 15.34C9.20479 15.34 10.2915 14.8267 11.1581 13.8C12.0248 12.7733 12.4581 11.5667 12.4581 10.18C12.4581 8.02 11.9181 6.19333 10.8381 4.7C9.75813 3.20667 8.37813 2.46 6.69813 2.46C5.36479 2.46 4.27146 2.95333 3.41813 3.94C2.56479 4.92667 2.13813 6.16 2.13813 7.64C2.13813 9.76 2.67813 11.5733 3.75813 13.08C4.85146 14.5867 6.23146 15.34 7.89813 15.34ZM20.3473 1.26C21.054 1.26 21.6673 1.45333 22.1873 1.84C22.7207 2.22667 22.9873 2.68667 22.9873 3.22C22.9873 3.40667 22.9207 3.57333 22.7873 3.72C22.654 3.85333 22.474 3.92 22.2473 3.92C21.9007 3.92 21.6473 3.82 21.4873 3.62C21.3407 3.40667 21.254 3.17333 21.2273 2.92C21.214 2.66667 21.114 2.43333 20.9273 2.22C20.754 2.00667 20.4673 1.9 20.0673 1.9C19.414 1.88667 18.9807 2.28667 18.7673 3.1C18.5673 3.91333 18.594 4.83333 18.8473 5.86V6.4H21.6273C21.7073 6.4 21.774 6.43333 21.8273 6.5C21.8807 6.55333 21.9073 6.61333 21.9073 6.68V6.94C21.9073 7.11333 21.814 7.2 21.6273 7.2H18.8473V14.58C18.8473 14.78 18.9207 14.9467 19.0673 15.08C19.214 15.2133 19.3607 15.3267 19.5073 15.42C19.6673 15.5133 19.7473 15.6067 19.7473 15.7V15.76C19.7473 15.92 19.6473 16 19.4473 16H16.6273C16.4273 16 16.3273 15.92 16.3273 15.76V15.7C16.3273 15.6067 16.3873 15.5133 16.5073 15.42C16.6407 15.3267 16.7673 15.2133 16.8873 15.08C17.0207 14.9467 17.0873 14.78 17.0873 14.58V7.2H15.4273C15.2273 7.2 15.1273 7.11333 15.1273 6.94V6.68C15.1273 6.49333 15.2273 6.4 15.4273 6.4H17.0873V4.66C17.0873 3.64667 17.374 2.82667 17.9473 2.2C18.5207 1.57333 19.3207 1.26 20.3473 1.26ZM30.1095 16.2C29.3095 16.2 28.6762 15.9467 28.2095 15.44C27.7562 14.92 27.5295 14.1667 27.5295 13.18V7.2H26.2095C26.0095 7.2 25.9095 7.1 25.9095 6.9V6.7C25.9095 6.5 26.0095 6.4 26.2095 6.4H26.9295C27.8362 6.4 28.3429 5.76667 28.4495 4.5C28.4762 4.23333 28.5895 4.1 28.7895 4.1H28.9895C29.2029 4.1 29.3095 4.23333 29.3095 4.5L29.3295 6.4H32.0895C32.1695 6.4 32.2362 6.43333 32.2895 6.5C32.3562 6.55333 32.3895 6.62 32.3895 6.7V6.9C32.3895 7.1 32.2895 7.2 32.0895 7.2H29.3295V13.2C29.3295 13.7333 29.4429 14.1467 29.6695 14.44C29.8962 14.7333 30.2029 14.88 30.5895 14.88C31.0162 14.88 31.3562 14.7733 31.6095 14.56C31.8762 14.3333 32.0295 14.04 32.0695 13.68C32.1362 13.52 32.2495 13.4533 32.4095 13.48C32.5829 13.4933 32.6695 13.5867 32.6695 13.76C32.6695 14.4133 32.4295 14.9867 31.9495 15.48C31.4829 15.96 30.8695 16.2 30.1095 16.2ZM43.0384 14.56C43.0651 14.8267 43.1918 15.0533 43.4184 15.24C43.6451 15.4267 43.7584 15.5733 43.7584 15.68V15.76C43.7584 15.92 43.6251 16 43.3584 16H40.9584C40.6918 16 40.5584 15.92 40.5584 15.76V15.68C40.5584 15.5867 40.6184 15.4933 40.7384 15.4C40.8718 15.3067 40.9984 15.2 41.1184 15.08C41.2384 14.9467 41.2918 14.78 41.2784 14.58L41.0784 10.5C41.0251 9.35333 40.7784 8.48 40.3384 7.88C39.8984 7.28 39.3251 6.98 38.6184 6.98C37.8851 6.98 37.2851 7.24 36.8184 7.76C36.3518 8.28 36.1184 8.94 36.1184 9.74V14.6C36.1184 14.8533 36.2518 15.0733 36.5184 15.26C36.7851 15.4333 36.9184 15.5733 36.9184 15.68V15.74C36.9184 15.9133 36.7784 16 36.4984 16H33.9984C33.7451 16 33.6184 15.9133 33.6184 15.74V15.68C33.6184 15.5733 33.7384 15.4333 33.9784 15.26C34.2318 15.0733 34.3584 14.8533 34.3584 14.6V3.3C34.3584 3.07333 34.2918 2.89333 34.1584 2.76C34.0384 2.61333 33.9118 2.5 33.7784 2.42C33.6584 2.32667 33.5984 2.24 33.5984 2.16V2.1C33.5984 1.95333 33.6918 1.84 33.8784 1.76L35.5184 1.04C35.6918 0.96 35.8318 0.946666 35.9384 0.999999C36.0451 1.04 36.0984 1.14 36.0984 1.3L36.0584 7.78C36.7384 6.72667 37.7318 6.2 39.0384 6.2C40.0784 6.2 40.9451 6.56667 41.6384 7.3C42.3451 8.02 42.7384 9.1 42.8184 10.54L43.0384 14.56ZM53.1056 13.18C53.199 13.0333 53.3256 12.98 53.4856 13.02C53.6456 13.0467 53.719 13.1533 53.7056 13.34C53.5456 14.06 53.1256 14.72 52.4456 15.32C51.7656 15.9067 50.8656 16.2 49.7456 16.2C48.3456 16.2 47.1923 15.7333 46.2856 14.8C45.3923 13.8533 44.9456 12.6267 44.9456 11.12C44.9456 9.68 45.3923 8.50667 46.2856 7.6C47.179 6.68 48.3256 6.21333 49.7256 6.2C50.7523 6.18667 51.5923 6.42 52.2456 6.9C52.9123 7.36667 53.2456 8.02 53.2456 8.86C53.2456 9.54 52.959 10.1467 52.3856 10.68C51.8123 11.2 51.0523 11.5533 50.1056 11.74C49.1723 11.9133 48.0456 11.9467 46.7256 11.84C46.9523 12.7867 47.3723 13.54 47.9856 14.1C48.599 14.6467 49.339 14.92 50.2056 14.92C50.9256 14.92 51.5323 14.76 52.0256 14.44C52.519 14.12 52.879 13.7 53.1056 13.18ZM49.4256 6.88C48.5856 6.88 47.899 7.22 47.3656 7.9C46.8323 8.58 46.5656 9.41333 46.5656 10.4C46.5656 10.56 46.579 10.8 46.6056 11.12C47.9123 11.2133 48.9656 11.1733 49.7656 11C50.9656 10.7467 51.559 10.0333 51.5456 8.86C51.5323 8.27333 51.3256 7.8 50.9256 7.44C50.539 7.06667 50.039 6.88 49.4256 6.88ZM69.2192 12.96C69.3259 12.96 69.4059 12.9933 69.4592 13.06C69.5126 13.1267 69.5259 13.22 69.4992 13.34L68.9392 15.58C68.8459 15.86 68.6859 16 68.4592 16H59.7792C59.5259 16 59.3992 15.88 59.3992 15.64V15.48C59.3992 14.8533 59.5792 14.22 59.9392 13.58C60.3126 12.94 60.7726 12.3667 61.3192 11.86C61.8792 11.34 62.4792 10.8 63.1192 10.24C63.7726 9.66667 64.3726 9.13333 64.9192 8.64C65.4792 8.14667 65.9392 7.6 66.2992 7C66.6726 6.38667 66.8592 5.78667 66.8592 5.2C66.8592 4.36 66.5992 3.68667 66.0792 3.18C65.5726 2.67333 64.9926 2.42 64.3392 2.42C63.6992 2.42 63.1592 2.6 62.7192 2.96C62.2926 3.30667 61.9992 3.69333 61.8392 4.12C61.6792 4.53333 61.4859 4.92 61.2592 5.28C61.0326 5.62667 60.7792 5.8 60.4992 5.8C60.2192 5.8 59.9926 5.72 59.8192 5.56C59.6459 5.4 59.5592 5.18 59.5592 4.9C59.5592 4.15333 59.9992 3.42 60.8792 2.7C61.7592 1.96667 62.8792 1.6 64.2392 1.6C65.5459 1.6 66.6059 1.92667 67.4192 2.58C68.2459 3.23333 68.6592 4.15333 68.6592 5.34C68.6592 6.11333 68.4126 6.86 67.9192 7.58C67.4259 8.3 66.8126 8.94 66.0792 9.5C65.3592 10.06 64.6326 10.6067 63.8992 11.14C63.1659 11.6733 62.5126 12.2467 61.9392 12.86C61.3659 13.4733 61.0259 14.0867 60.9192 14.7H67.2992C67.6459 14.7 67.9259 14.56 68.1392 14.28C68.3659 13.9867 68.5459 13.6933 68.6792 13.4C68.8259 13.1067 68.9592 12.96 69.0792 12.96H69.2192ZM80.5859 11.74C80.7726 11.74 80.8659 11.8267 80.8659 12V12.36C80.8659 12.5333 80.7726 12.62 80.5859 12.62H78.9459V14.56C78.9459 14.8 79.0126 14.9867 79.1459 15.12C79.2926 15.2533 79.4326 15.3667 79.5659 15.46C79.7126 15.54 79.7859 15.6267 79.7859 15.72V15.76C79.7859 15.92 79.6659 16 79.4259 16H76.7059C76.4526 16 76.3259 15.92 76.3259 15.76V15.72C76.3259 15.6267 76.4593 15.4867 76.7259 15.3C76.9926 15.1133 77.1259 14.8667 77.1259 14.56V12.62H70.7459C70.3993 12.62 70.2259 12.4733 70.2259 12.18V12.12C70.2259 11.8667 70.2859 11.6467 70.4059 11.46L76.7459 2.36C76.9859 1.98667 77.2793 1.8 77.6259 1.8H78.6059C78.8326 1.8 78.9459 1.92 78.9459 2.16V11.74H80.5859ZM71.3259 11.74H77.1259L77.1459 3.36L71.3259 11.74ZM82.5964 18.7C82.4497 18.7933 82.3164 18.78 82.1964 18.66C82.0897 18.54 82.1031 18.4133 82.2364 18.28C82.8497 17.68 83.2164 17.0867 83.3364 16.5C83.3764 16.3 83.3231 16.2 83.1764 16.2C82.8831 16.2 82.6431 16.0933 82.4564 15.88C82.2697 15.6533 82.1764 15.36 82.1764 15C82.1764 14.6133 82.2831 14.3 82.4964 14.06C82.7231 13.82 83.0231 13.7 83.3964 13.7C83.7431 13.7 84.0364 13.84 84.2764 14.12C84.5297 14.3867 84.6564 14.74 84.6564 15.18C84.6564 16.58 83.9697 17.7533 82.5964 18.7ZM193.8 14.56C193.827 14.8267 193.953 15.0533 194.18 15.24C194.407 15.4267 194.52 15.5733 194.52 15.68V15.76C194.52 15.92 194.387 16 194.12 16H191.72C191.453 16 191.32 15.92 191.32 15.76V15.68C191.32 15.5867 191.38 15.4933 191.5 15.4C191.633 15.3067 191.76 15.2 191.88 15.08C192 14.9467 192.053 14.78 192.04 14.58L191.84 10.5C191.787 9.35333 191.54 8.48 191.1 7.88C190.66 7.28 190.087 6.98 189.38 6.98C188.647 6.98 188.047 7.24 187.58 7.76C187.113 8.28 186.88 8.94 186.88 9.74V14.6C186.88 14.8533 187.013 15.0733 187.28 15.26C187.547 15.4333 187.68 15.5733 187.68 15.68V15.74C187.68 15.9133 187.54 16 187.26 16H184.76C184.507 16 184.38 15.9133 184.38 15.74V15.68C184.38 15.5733 184.5 15.4333 184.74 15.26C184.993 15.0733 185.12 14.8533 185.12 14.6V3.3C185.12 3.07333 185.053 2.89333 184.92 2.76C184.8 2.61333 184.673 2.5 184.54 2.42C184.42 2.32667 184.36 2.24 184.36 2.16V2.1C184.36 1.95333 184.453 1.84 184.64 1.76L186.28 1.04C186.453 0.96 186.593 0.946666 186.7 0.999999C186.807 1.04 186.86 1.14 186.86 1.3L186.82 7.78C187.5 6.72667 188.493 6.2 189.8 6.2C190.84 6.2 191.707 6.56667 192.4 7.3C193.107 8.02 193.5 9.1 193.58 10.54L193.8 14.56ZM205.747 7.04C205.747 7.12 205.681 7.20667 205.547 7.3C205.427 7.39333 205.301 7.52 205.167 7.68C205.047 7.82667 204.987 8.01333 204.987 8.24V14.6C204.987 14.8667 205.107 15.1 205.347 15.3C205.601 15.5 205.727 15.64 205.727 15.72V15.78C205.727 15.9267 205.634 16 205.447 16H203.747C203.534 16 203.427 15.8933 203.427 15.68V14.56C203.107 15.0933 202.667 15.5 202.107 15.78C201.561 16.06 200.967 16.2 200.327 16.2C199.061 16.2 197.974 15.7333 197.067 14.8C196.161 13.8667 195.707 12.66 195.707 11.18C195.707 9.72667 196.154 8.53333 197.047 7.6C197.941 6.66667 199.061 6.2 200.407 6.2C201.687 6.2 202.701 6.7 203.447 7.7V6.62C203.447 6.46 203.501 6.34667 203.607 6.28C203.727 6.21333 203.881 6.21333 204.067 6.28L205.447 6.64C205.647 6.69333 205.747 6.80667 205.747 6.98V7.04ZM200.747 15.54C201.387 15.54 201.967 15.2867 202.487 14.78C203.021 14.26 203.287 13.5533 203.287 12.66V9.64C203.287 8.97333 202.994 8.34 202.407 7.74C201.834 7.14 201.161 6.84 200.387 6.84C199.521 6.84 198.814 7.18667 198.267 7.88C197.721 8.56 197.441 9.46 197.427 10.58C197.401 11.9667 197.701 13.14 198.327 14.1C198.954 15.0467 199.761 15.5267 200.747 15.54ZM210.87 16.2C210.003 16.2 209.297 15.92 208.75 15.36C208.217 14.7867 207.95 13.9067 207.95 12.72V8.1C207.95 7.80667 207.83 7.56 207.59 7.36C207.35 7.16 207.23 7.02 207.23 6.94V6.88C207.23 6.72 207.323 6.62 207.51 6.58L209.19 6.28C209.563 6.21333 209.75 6.29333 209.75 6.52L209.71 13.16C209.71 14.6533 210.21 15.4067 211.21 15.42C212.237 15.42 213.157 14.9267 213.97 13.94C214.797 12.94 215.21 11.6733 215.21 10.14C215.21 9.67333 215.13 9.27333 214.97 8.94C214.823 8.59333 214.657 8.34667 214.47 8.2C214.283 8.05333 214.11 7.88 213.95 7.68C213.803 7.46667 213.73 7.24 213.73 7C213.73 6.76 213.803 6.56667 213.95 6.42C214.11 6.27333 214.33 6.2 214.61 6.2C215.063 6.2 215.45 6.44667 215.77 6.94C216.103 7.42 216.27 8.24667 216.27 9.42C216.27 11.4733 215.737 13.12 214.67 14.36C213.617 15.5867 212.35 16.2 210.87 16.2ZM225.899 13.18C225.992 13.0333 226.119 12.98 226.279 13.02C226.439 13.0467 226.512 13.1533 226.499 13.34C226.339 14.06 225.919 14.72 225.239 15.32C224.559 15.9067 223.659 16.2 222.539 16.2C221.139 16.2 219.985 15.7333 219.079 14.8C218.185 13.8533 217.739 12.6267 217.739 11.12C217.739 9.68 218.185 8.50667 219.079 7.6C219.972 6.68 221.119 6.21333 222.519 6.2C223.545 6.18667 224.385 6.42 225.039 6.9C225.705 7.36667 226.039 8.02 226.039 8.86C226.039 9.54 225.752 10.1467 225.179 10.68C224.605 11.2 223.845 11.5533 222.899 11.74C221.965 11.9133 220.839 11.9467 219.519 11.84C219.745 12.7867 220.165 13.54 220.779 14.1C221.392 14.6467 222.132 14.92 222.999 14.92C223.719 14.92 224.325 14.76 224.819 14.44C225.312 14.12 225.672 13.7 225.899 13.18ZM222.219 6.88C221.379 6.88 220.692 7.22 220.159 7.9C219.625 8.58 219.359 9.41333 219.359 10.4C219.359 10.56 219.372 10.8 219.399 11.12C220.705 11.2133 221.759 11.1733 222.559 11C223.759 10.7467 224.352 10.0333 224.339 8.86C224.325 8.27333 224.119 7.8 223.719 7.44C223.332 7.06667 222.832 6.88 222.219 6.88ZM61.4691 34.5C62.1624 33.6333 63.1424 33.2 64.4091 33.2C65.6757 33.2 66.7557 33.6533 67.6491 34.56C68.5557 35.4533 69.0091 36.62 69.0091 38.06C69.0091 39.5267 68.5624 40.7533 67.6691 41.74C66.7891 42.7133 65.7091 43.2 64.4291 43.2C63.1091 43.2 62.0824 42.6933 61.3491 41.68L61.3691 42.7C61.3691 42.9133 61.2557 43.02 61.0291 43.02L59.2891 43C59.0891 43 58.9891 42.9267 58.9891 42.78V42.72C58.9891 42.6267 59.1091 42.48 59.3491 42.28C59.6024 42.08 59.7291 41.8467 59.7291 41.58V30.38C59.7291 30.14 59.6624 29.9467 59.5291 29.8C59.3957 29.6533 59.2624 29.54 59.1291 29.46C58.9957 29.3667 58.9291 29.2733 58.9291 29.18V29.12C58.9291 29 59.0424 28.8933 59.2691 28.8L60.8491 28.04C61.0357 27.9467 61.1824 27.9267 61.2891 27.98C61.4091 28.0333 61.4691 28.1467 61.4691 28.32V34.5ZM64.1691 42.56C65.1024 42.56 65.8424 42.2 66.3891 41.48C66.9491 40.7467 67.2291 39.7667 67.2291 38.54C67.2291 37.1533 66.9224 36.0267 66.3091 35.16C65.7091 34.28 64.9224 33.84 63.9491 33.84C63.2824 33.84 62.7024 34.0933 62.2091 34.6C61.7157 35.0933 61.4691 35.68 61.4691 36.36V39.2L61.4491 39.48H61.4691C61.4691 40.28 61.7424 40.9933 62.2891 41.62C62.8491 42.2467 63.4757 42.56 64.1691 42.56ZM78.5158 40.18C78.6091 40.0333 78.7358 39.98 78.8958 40.02C79.0558 40.0467 79.1291 40.1533 79.1158 40.34C78.9558 41.06 78.5358 41.72 77.8558 42.32C77.1758 42.9067 76.2758 43.2 75.1558 43.2C73.7558 43.2 72.6024 42.7333 71.6958 41.8C70.8024 40.8533 70.3558 39.6267 70.3558 38.12C70.3558 36.68 70.8024 35.5067 71.6958 34.6C72.5891 33.68 73.7358 33.2133 75.1358 33.2C76.1624 33.1867 77.0024 33.42 77.6558 33.9C78.3224 34.3667 78.6558 35.02 78.6558 35.86C78.6558 36.54 78.3691 37.1467 77.7958 37.68C77.2224 38.2 76.4624 38.5533 75.5158 38.74C74.5824 38.9133 73.4558 38.9467 72.1358 38.84C72.3624 39.7867 72.7824 40.54 73.3958 41.1C74.0091 41.6467 74.7491 41.92 75.6158 41.92C76.3358 41.92 76.9424 41.76 77.4358 41.44C77.9291 41.12 78.2891 40.7 78.5158 40.18ZM74.8358 33.88C73.9958 33.88 73.3091 34.22 72.7758 34.9C72.2424 35.58 71.9758 36.4133 71.9758 37.4C71.9758 37.56 71.9891 37.8 72.0158 38.12C73.3224 38.2133 74.3758 38.1733 75.1758 38C76.3758 37.7467 76.9691 37.0333 76.9558 35.86C76.9424 35.2733 76.7358 34.8 76.3358 34.44C75.9491 34.0667 75.4491 33.88 74.8358 33.88ZM88.4572 40.18C88.5505 40.0333 88.6772 39.98 88.8372 40.02C88.9972 40.0467 89.0705 40.1533 89.0572 40.34C88.8972 41.06 88.4772 41.72 87.7972 42.32C87.1172 42.9067 86.2172 43.2 85.0972 43.2C83.6972 43.2 82.5439 42.7333 81.6372 41.8C80.7439 40.8533 80.2972 39.6267 80.2972 38.12C80.2972 36.68 80.7439 35.5067 81.6372 34.6C82.5305 33.68 83.6772 33.2133 85.0772 33.2C86.1039 33.1867 86.9439 33.42 87.5972 33.9C88.2639 34.3667 88.5972 35.02 88.5972 35.86C88.5972 36.54 88.3105 37.1467 87.7372 37.68C87.1639 38.2 86.4039 38.5533 85.4572 38.74C84.5239 38.9133 83.3972 38.9467 82.0772 38.84C82.3039 39.7867 82.7239 40.54 83.3372 41.1C83.9505 41.6467 84.6905 41.92 85.5572 41.92C86.2772 41.92 86.8839 41.76 87.3772 41.44C87.8705 41.12 88.2305 40.7 88.4572 40.18ZM84.7772 33.88C83.9372 33.88 83.2505 34.22 82.7172 34.9C82.1839 35.58 81.9172 36.4133 81.9172 37.4C81.9172 37.56 81.9305 37.8 81.9572 38.12C83.2639 38.2133 84.3172 38.1733 85.1172 38C86.3172 37.7467 86.9105 37.0333 86.8972 35.86C86.8839 35.2733 86.6772 34.8 86.2772 34.44C85.8905 34.0667 85.3905 33.88 84.7772 33.88ZM99.8386 41.56C99.8519 41.7733 99.9186 41.9467 100.039 42.08C100.159 42.2133 100.272 42.3267 100.379 42.42C100.499 42.5 100.559 42.5867 100.559 42.68V42.76C100.559 42.9333 100.419 43.02 100.139 43.02H97.7586C97.4786 43.02 97.3386 42.9333 97.3386 42.76V42.68C97.3386 42.5867 97.4586 42.4467 97.6986 42.26C97.9519 42.0733 98.0719 41.8467 98.0586 41.58L97.8586 37.58C97.8053 36.3933 97.5586 35.5 97.1186 34.9C96.6919 34.2867 96.1186 33.98 95.3986 33.98C94.6653 33.98 94.0653 34.24 93.5986 34.76C93.1319 35.28 92.8986 35.94 92.8986 36.74V41.6C92.8986 41.76 92.9386 41.9 93.0186 42.02C93.1119 42.1267 93.2053 42.2067 93.2986 42.26C93.3919 42.3133 93.4786 42.38 93.5586 42.46C93.6519 42.5267 93.6986 42.6 93.6986 42.68V42.76C93.6986 42.9333 93.5586 43.02 93.2786 43.02H90.7786C90.5119 43.02 90.3786 42.9333 90.3786 42.76V42.68C90.3786 42.5733 90.5053 42.4333 90.7586 42.26C91.0253 42.0867 91.1586 41.8667 91.1586 41.6V35.54C91.1586 35.2867 91.0853 35.0933 90.9386 34.96C90.8053 34.8133 90.6653 34.7 90.5186 34.62C90.3853 34.54 90.3186 34.4533 90.3186 34.36V34.3C90.3186 34.18 90.4253 34.08 90.6386 34L92.1386 33.28C92.3253 33.1867 92.4653 33.1733 92.5586 33.24C92.6519 33.3067 92.6986 33.42 92.6986 33.58V35.04C92.9919 34.48 93.4119 34.0333 93.9586 33.7C94.5186 33.3667 95.1386 33.2 95.8186 33.2C96.8586 33.2 97.7253 33.5667 98.4186 34.3C99.1253 35.0333 99.5253 36.14 99.6186 37.62L99.8386 41.56ZM115.495 41.6C115.495 41.8667 115.615 42.1 115.855 42.3C116.108 42.5 116.235 42.64 116.235 42.72V42.78C116.235 42.9267 116.135 43 115.935 43H114.255C114.055 43 113.942 42.8933 113.915 42.68L113.875 41.68C113.542 42.1733 113.102 42.5533 112.555 42.82C112.022 43.0733 111.448 43.2 110.835 43.2C109.568 43.2 108.482 42.7333 107.575 41.8C106.668 40.8667 106.215 39.66 106.215 38.18C106.215 36.7267 106.662 35.5333 107.555 34.6C108.448 33.6667 109.562 33.2 110.895 33.2C112.068 33.2 113.035 33.6333 113.795 34.5V30.14C113.795 29.9 113.722 29.7067 113.575 29.56C113.442 29.4133 113.302 29.3 113.155 29.22C113.022 29.14 112.955 29.0533 112.955 28.96V28.92C112.955 28.7867 113.055 28.6733 113.255 28.58L114.875 28.04C115.288 27.88 115.495 27.98 115.495 28.34V41.6ZM111.255 42.54C111.895 42.54 112.475 42.2867 112.995 41.78C113.528 41.26 113.795 40.5533 113.795 39.66H113.815L113.795 38.64V36.64C113.795 35.96 113.502 35.3267 112.915 34.74C112.342 34.14 111.662 33.84 110.875 33.84C110.008 33.84 109.302 34.1867 108.755 34.88C108.222 35.56 107.948 36.46 107.935 37.58C107.908 38.9667 108.208 40.14 108.835 41.1C109.462 42.0467 110.268 42.5267 111.255 42.54ZM119.302 31.5C118.889 31.5 118.562 31.3867 118.322 31.16C118.082 30.9333 117.962 30.6333 117.962 30.26C117.962 29.8867 118.082 29.5867 118.322 29.36C118.576 29.12 118.902 29 119.302 29C119.689 29 120.002 29.12 120.242 29.36C120.482 29.5867 120.602 29.8867 120.602 30.26C120.602 30.6333 120.482 30.9333 120.242 31.16C120.002 31.3867 119.689 31.5 119.302 31.5ZM118.142 43C117.889 43 117.762 42.9133 117.762 42.74V42.66C117.762 42.5667 117.822 42.48 117.942 42.4C118.062 42.3067 118.182 42.2 118.302 42.08C118.422 41.9467 118.482 41.78 118.482 41.58V35.62C118.482 35.3133 118.362 35.0467 118.122 34.82C117.882 34.5933 117.762 34.4467 117.762 34.38V34.34C117.762 34.2467 117.862 34.1467 118.062 34.04L119.602 33.28C119.816 33.2 119.969 33.1867 120.062 33.24C120.169 33.2933 120.222 33.4 120.222 33.56V41.58C120.222 41.74 120.262 41.88 120.342 42C120.422 42.1067 120.516 42.1867 120.622 42.24C120.729 42.2933 120.822 42.36 120.902 42.44C120.982 42.5067 121.022 42.58 121.022 42.66V42.74C121.022 42.9133 120.882 43 120.602 43H118.142ZM126.446 43.18C125.219 43.18 124.232 42.9333 123.486 42.44C122.752 41.9467 122.386 41.4333 122.386 40.9C122.386 40.4067 122.646 40.16 123.166 40.16C123.392 40.16 123.572 40.2467 123.706 40.42C123.852 40.58 123.979 40.78 124.086 41.02C124.192 41.26 124.319 41.5 124.466 41.74C124.626 41.98 124.872 42.1867 125.206 42.36C125.539 42.52 125.952 42.6 126.446 42.6C127.112 42.6 127.659 42.4467 128.086 42.14C128.512 41.82 128.726 41.3867 128.726 40.84C128.726 40.3067 128.512 39.8933 128.086 39.6C127.672 39.3067 127.166 39.1 126.566 38.98C125.966 38.8467 125.366 38.7 124.766 38.54C124.166 38.38 123.652 38.0867 123.226 37.66C122.812 37.2333 122.606 36.66 122.606 35.94C122.606 35.1667 122.959 34.52 123.666 34C124.372 33.4667 125.272 33.2 126.366 33.2C127.526 33.2 128.466 33.4467 129.186 33.94C129.906 34.4333 130.266 34.9733 130.266 35.56C130.266 35.76 130.192 35.9267 130.046 36.06C129.912 36.1933 129.746 36.26 129.546 36.26C129.306 36.26 129.099 36.1333 128.926 35.88C128.752 35.6267 128.606 35.3467 128.486 35.04C128.379 34.7333 128.152 34.4533 127.806 34.2C127.459 33.9467 127.006 33.82 126.446 33.82C125.859 33.82 125.366 33.9867 124.966 34.32C124.579 34.6533 124.386 35.0667 124.386 35.56C124.386 36.08 124.592 36.4867 125.006 36.78C125.432 37.06 125.946 37.2667 126.546 37.4C127.146 37.5333 127.739 37.68 128.326 37.84C128.926 38 129.432 38.3 129.846 38.74C130.272 39.1667 130.486 39.7467 130.486 40.48C130.486 41.2533 130.112 41.9 129.366 42.42C128.632 42.9267 127.659 43.18 126.446 43.18ZM136.682 43.2C135.282 43.2 134.095 42.72 133.122 41.76C132.162 40.7867 131.682 39.58 131.682 38.14C131.682 36.6733 132.148 35.4867 133.082 34.58C134.028 33.6733 135.202 33.2133 136.602 33.2C137.642 33.1867 138.548 33.4533 139.322 34C140.108 34.5333 140.502 35.0933 140.502 35.68C140.502 36.16 140.235 36.3933 139.702 36.38C139.448 36.3667 139.208 36.2333 138.982 35.98C138.768 35.7133 138.575 35.4267 138.402 35.12C138.242 34.8 137.975 34.5067 137.602 34.24C137.242 33.9733 136.802 33.84 136.282 33.84C135.455 33.84 134.775 34.18 134.242 34.86C133.708 35.5267 133.442 36.36 133.442 37.36C133.442 38.7467 133.795 39.86 134.502 40.7C135.208 41.5267 136.122 41.94 137.242 41.94C137.895 41.94 138.455 41.7667 138.922 41.42C139.402 41.06 139.768 40.6067 140.022 40.06C140.102 39.9 140.228 39.84 140.402 39.88C140.575 39.92 140.642 40.0333 140.602 40.22C140.442 41.0333 140.015 41.7333 139.322 42.32C138.642 42.9067 137.762 43.2 136.682 43.2ZM147.021 43.2C145.474 43.2 144.214 42.7 143.241 41.7C142.281 40.6867 141.801 39.4733 141.801 38.06C141.801 36.6733 142.267 35.52 143.201 34.6C144.134 33.6667 145.287 33.2 146.661 33.2C148.141 33.2 149.354 33.6933 150.301 34.68C151.261 35.6533 151.741 36.8533 151.741 38.28C151.741 39.68 151.301 40.8533 150.421 41.8C149.541 42.7333 148.407 43.2 147.021 43.2ZM147.261 42.54C148.047 42.54 148.694 42.2067 149.201 41.54C149.721 40.8733 149.981 39.9867 149.981 38.88C149.981 37.4667 149.647 36.28 148.981 35.32C148.314 34.3467 147.474 33.86 146.461 33.86C145.607 33.86 144.914 34.1933 144.381 34.86C143.847 35.5133 143.581 36.3933 143.581 37.5C143.581 38.8333 143.927 40.0067 144.621 41.02C145.314 42.0333 146.194 42.54 147.261 42.54ZM156.729 43.2C155.863 43.2 155.156 42.92 154.609 42.36C154.076 41.7867 153.809 40.9067 153.809 39.72V35.1C153.809 34.8067 153.689 34.56 153.449 34.36C153.209 34.16 153.089 34.02 153.089 33.94V33.88C153.089 33.72 153.183 33.62 153.369 33.58L155.049 33.28C155.423 33.2133 155.609 33.2933 155.609 33.52L155.569 40.16C155.569 41.6533 156.069 42.4067 157.069 42.42C158.096 42.42 159.016 41.9267 159.829 40.94C160.656 39.94 161.069 38.6733 161.069 37.14C161.069 36.6733 160.989 36.2733 160.829 35.94C160.683 35.5933 160.516 35.3467 160.329 35.2C160.143 35.0533 159.969 34.88 159.809 34.68C159.663 34.4667 159.589 34.24 159.589 34C159.589 33.76 159.663 33.5667 159.809 33.42C159.969 33.2733 160.189 33.2 160.469 33.2C160.923 33.2 161.309 33.4467 161.629 33.94C161.963 34.42 162.129 35.2467 162.129 36.42C162.129 38.4733 161.596 40.12 160.529 41.36C159.476 42.5867 158.209 43.2 156.729 43.2ZM171.758 40.18C171.851 40.0333 171.978 39.98 172.138 40.02C172.298 40.0467 172.371 40.1533 172.358 40.34C172.198 41.06 171.778 41.72 171.098 42.32C170.418 42.9067 169.518 43.2 168.398 43.2C166.998 43.2 165.845 42.7333 164.938 41.8C164.045 40.8533 163.598 39.6267 163.598 38.12C163.598 36.68 164.045 35.5067 164.938 34.6C165.831 33.68 166.978 33.2133 168.378 33.2C169.405 33.1867 170.245 33.42 170.898 33.9C171.565 34.3667 171.898 35.02 171.898 35.86C171.898 36.54 171.611 37.1467 171.038 37.68C170.465 38.2 169.705 38.5533 168.758 38.74C167.825 38.9133 166.698 38.9467 165.378 38.84C165.605 39.7867 166.025 40.54 166.638 41.1C167.251 41.6467 167.991 41.92 168.858 41.92C169.578 41.92 170.185 41.76 170.678 41.44C171.171 41.12 171.531 40.7 171.758 40.18ZM168.078 33.88C167.238 33.88 166.551 34.22 166.018 34.9C165.485 35.58 165.218 36.4133 165.218 37.4C165.218 37.56 165.231 37.8 165.258 38.12C166.565 38.2133 167.618 38.1733 168.418 38C169.618 37.7467 170.211 37.0333 170.198 35.86C170.185 35.2733 169.978 34.8 169.578 34.44C169.191 34.0667 168.691 33.88 168.078 33.88ZM178.579 33.2C179.153 33.2 179.599 33.3467 179.919 33.64C180.253 33.9333 180.419 34.3 180.419 34.74C180.419 35.3667 180.153 35.68 179.619 35.68C179.393 35.68 179.213 35.6067 179.079 35.46C178.946 35.3133 178.853 35.1533 178.799 34.98C178.759 34.8067 178.659 34.6467 178.499 34.5C178.339 34.3533 178.119 34.28 177.839 34.28C177.306 34.28 176.886 34.5467 176.579 35.08C176.286 35.6 176.139 36.2533 176.139 37.04V41.6C176.139 41.8667 176.279 42.0933 176.559 42.28C176.839 42.4533 176.979 42.5867 176.979 42.68V42.76C176.979 42.92 176.846 43 176.579 43H174.099C173.833 43 173.699 42.92 173.699 42.76V42.68C173.699 42.5867 173.819 42.4533 174.059 42.28C174.313 42.0933 174.439 41.8667 174.439 41.6V35.52C174.439 35.24 174.306 35 174.039 34.8C173.773 34.6 173.639 34.4533 173.639 34.36V34.32C173.639 34.1867 173.739 34.0667 173.939 33.96L175.459 33.28C175.806 33.12 175.979 33.2133 175.979 33.56V35.16C176.433 33.8533 177.299 33.2 178.579 33.2ZM189.141 40.18C189.234 40.0333 189.361 39.98 189.521 40.02C189.681 40.0467 189.754 40.1533 189.741 40.34C189.581 41.06 189.161 41.72 188.481 42.32C187.801 42.9067 186.901 43.2 185.781 43.2C184.381 43.2 183.227 42.7333 182.321 41.8C181.427 40.8533 180.981 39.6267 180.981 38.12C180.981 36.68 181.427 35.5067 182.321 34.6C183.214 33.68 184.361 33.2133 185.761 33.2C186.787 33.1867 187.627 33.42 188.281 33.9C188.947 34.3667 189.281 35.02 189.281 35.86C189.281 36.54 188.994 37.1467 188.421 37.68C187.847 38.2 187.087 38.5533 186.141 38.74C185.207 38.9133 184.081 38.9467 182.761 38.84C182.987 39.7867 183.407 40.54 184.021 41.1C184.634 41.6467 185.374 41.92 186.241 41.92C186.961 41.92 187.567 41.76 188.061 41.44C188.554 41.12 188.914 40.7 189.141 40.18ZM185.461 33.88C184.621 33.88 183.934 34.22 183.401 34.9C182.867 35.58 182.601 36.4133 182.601 37.4C182.601 37.56 182.614 37.8 182.641 38.12C183.947 38.2133 185.001 38.1733 185.801 38C187.001 37.7467 187.594 37.0333 187.581 35.86C187.567 35.2733 187.361 34.8 186.961 34.44C186.574 34.0667 186.074 33.88 185.461 33.88ZM200.202 41.6C200.202 41.8667 200.322 42.1 200.562 42.3C200.816 42.5 200.942 42.64 200.942 42.72V42.78C200.942 42.9267 200.842 43 200.642 43H198.962C198.762 43 198.649 42.8933 198.622 42.68L198.582 41.68C198.249 42.1733 197.809 42.5533 197.262 42.82C196.729 43.0733 196.156 43.2 195.542 43.2C194.276 43.2 193.189 42.7333 192.282 41.8C191.376 40.8667 190.922 39.66 190.922 38.18C190.922 36.7267 191.369 35.5333 192.262 34.6C193.156 33.6667 194.269 33.2 195.602 33.2C196.776 33.2 197.742 33.6333 198.502 34.5V30.14C198.502 29.9 198.429 29.7067 198.282 29.56C198.149 29.4133 198.009 29.3 197.862 29.22C197.729 29.14 197.662 29.0533 197.662 28.96V28.92C197.662 28.7867 197.762 28.6733 197.962 28.58L199.582 28.04C199.996 27.88 200.202 27.98 200.202 28.34V41.6ZM195.962 42.54C196.602 42.54 197.182 42.2867 197.702 41.78C198.236 41.26 198.502 40.5533 198.502 39.66H198.522L198.502 38.64V36.64C198.502 35.96 198.209 35.3267 197.622 34.74C197.049 34.14 196.369 33.84 195.582 33.84C194.716 33.84 194.009 34.1867 193.462 34.88C192.929 35.56 192.656 36.46 192.642 37.58C192.616 38.9667 192.916 40.14 193.542 41.1C194.169 42.0467 194.976 42.5267 195.962 42.54ZM216.822 34.04C216.822 34.12 216.755 34.2067 216.622 34.3C216.502 34.3933 216.375 34.52 216.242 34.68C216.122 34.8267 216.062 35.0133 216.062 35.24V41.6C216.062 41.8667 216.182 42.1 216.422 42.3C216.675 42.5 216.802 42.64 216.802 42.72V42.78C216.802 42.9267 216.708 43 216.522 43H214.822C214.608 43 214.502 42.8933 214.502 42.68V41.56C214.182 42.0933 213.742 42.5 213.182 42.78C212.635 43.06 212.042 43.2 211.402 43.2C210.135 43.2 209.048 42.7333 208.142 41.8C207.235 40.8667 206.782 39.66 206.782 38.18C206.782 36.7267 207.228 35.5333 208.122 34.6C209.015 33.6667 210.135 33.2 211.482 33.2C212.762 33.2 213.775 33.7 214.522 34.7V33.62C214.522 33.46 214.575 33.3467 214.682 33.28C214.802 33.2133 214.955 33.2133 215.142 33.28L216.522 33.64C216.722 33.6933 216.822 33.8067 216.822 33.98V34.04ZM211.822 42.54C212.462 42.54 213.042 42.2867 213.562 41.78C214.095 41.26 214.362 40.5533 214.362 39.66V36.64C214.362 35.9733 214.068 35.34 213.482 34.74C212.908 34.14 212.235 33.84 211.462 33.84C210.595 33.84 209.888 34.1867 209.342 34.88C208.795 35.56 208.515 36.46 208.502 37.58C208.475 38.9667 208.775 40.14 209.402 41.1C210.028 42.0467 210.835 42.5267 211.822 42.54ZM222.344 43.18C221.117 43.18 220.131 42.9333 219.384 42.44C218.651 41.9467 218.284 41.4333 218.284 40.9C218.284 40.4067 218.544 40.16 219.064 40.16C219.291 40.16 219.471 40.2467 219.604 40.42C219.751 40.58 219.877 40.78 219.984 41.02C220.091 41.26 220.217 41.5 220.364 41.74C220.524 41.98 220.771 42.1867 221.104 42.36C221.437 42.52 221.851 42.6 222.344 42.6C223.011 42.6 223.557 42.4467 223.984 42.14C224.411 41.82 224.624 41.3867 224.624 40.84C224.624 40.3067 224.411 39.8933 223.984 39.6C223.571 39.3067 223.064 39.1 222.464 38.98C221.864 38.8467 221.264 38.7 220.664 38.54C220.064 38.38 219.551 38.0867 219.124 37.66C218.711 37.2333 218.504 36.66 218.504 35.94C218.504 35.1667 218.857 34.52 219.564 34C220.271 33.4667 221.171 33.2 222.264 33.2C223.424 33.2 224.364 33.4467 225.084 33.94C225.804 34.4333 226.164 34.9733 226.164 35.56C226.164 35.76 226.091 35.9267 225.944 36.06C225.811 36.1933 225.644 36.26 225.444 36.26C225.204 36.26 224.997 36.1333 224.824 35.88C224.651 35.6267 224.504 35.3467 224.384 35.04C224.277 34.7333 224.051 34.4533 223.704 34.2C223.357 33.9467 222.904 33.82 222.344 33.82C221.757 33.82 221.264 33.9867 220.864 34.32C220.477 34.6533 220.284 35.0667 220.284 35.56C220.284 36.08 220.491 36.4867 220.904 36.78C221.331 37.06 221.844 37.2667 222.444 37.4C223.044 37.5333 223.637 37.68 224.224 37.84C224.824 38 225.331 38.3 225.744 38.74C226.171 39.1667 226.384 39.7467 226.384 40.48C226.384 41.2533 226.011 41.9 225.264 42.42C224.531 42.9267 223.557 43.18 222.344 43.18ZM90.0052 60.2C90.5785 60.2 91.0252 60.3467 91.3452 60.64C91.6785 60.9333 91.8452 61.3 91.8452 61.74C91.8452 62.3667 91.5785 62.68 91.0452 62.68C90.8185 62.68 90.6385 62.6067 90.5052 62.46C90.3718 62.3133 90.2785 62.1533 90.2252 61.98C90.1852 61.8067 90.0852 61.6467 89.9252 61.5C89.7652 61.3533 89.5452 61.28 89.2652 61.28C88.7318 61.28 88.3118 61.5467 88.0052 62.08C87.7118 62.6 87.5652 63.2533 87.5652 64.04V68.6C87.5652 68.8667 87.7052 69.0933 87.9852 69.28C88.2652 69.4533 88.4052 69.5867 88.4052 69.68V69.76C88.4052 69.92 88.2718 70 88.0052 70H85.5252C85.2585 70 85.1252 69.92 85.1252 69.76V69.68C85.1252 69.5867 85.2452 69.4533 85.4852 69.28C85.7385 69.0933 85.8652 68.8667 85.8652 68.6V62.52C85.8652 62.24 85.7318 62 85.4652 61.8C85.1985 61.6 85.0652 61.4533 85.0652 61.36V61.32C85.0652 61.1867 85.1652 61.0667 85.3652 60.96L86.8852 60.28C87.2318 60.12 87.4052 60.2133 87.4052 60.56V62.16C87.8585 60.8533 88.7252 60.2 90.0052 60.2ZM100.567 67.18C100.66 67.0333 100.787 66.98 100.947 67.02C101.107 67.0467 101.18 67.1533 101.167 67.34C101.007 68.06 100.587 68.72 99.9066 69.32C99.2266 69.9067 98.3266 70.2 97.2066 70.2C95.8066 70.2 94.6532 69.7333 93.7466 68.8C92.8532 67.8533 92.4066 66.6267 92.4066 65.12C92.4066 63.68 92.8532 62.5067 93.7466 61.6C94.6399 60.68 95.7866 60.2133 97.1866 60.2C98.2132 60.1867 99.0532 60.42 99.7066 60.9C100.373 61.3667 100.707 62.02 100.707 62.86C100.707 63.54 100.42 64.1467 99.8466 64.68C99.2732 65.2 98.5132 65.5533 97.5666 65.74C96.6332 65.9133 95.5066 65.9467 94.1866 65.84C94.4132 66.7867 94.8332 67.54 95.4466 68.1C96.0599 68.6467 96.7999 68.92 97.6666 68.92C98.3866 68.92 98.9932 68.76 99.4866 68.44C99.9799 68.12 100.34 67.7 100.567 67.18ZM96.8866 60.88C96.0466 60.88 95.3599 61.22 94.8266 61.9C94.2932 62.58 94.0266 63.4133 94.0266 64.4C94.0266 64.56 94.0399 64.8 94.0666 65.12C95.3732 65.2133 96.4266 65.1733 97.2266 65C98.4266 64.7467 99.0199 64.0333 99.0066 62.86C98.9932 62.2733 98.7866 61.8 98.3866 61.44C97.9999 61.0667 97.4999 60.88 96.8866 60.88ZM107.248 70.2C105.848 70.2 104.661 69.72 103.688 68.76C102.728 67.7867 102.248 66.58 102.248 65.14C102.248 63.6733 102.715 62.4867 103.648 61.58C104.595 60.6733 105.768 60.2133 107.168 60.2C108.208 60.1867 109.115 60.4533 109.888 61C110.675 61.5333 111.068 62.0933 111.068 62.68C111.068 63.16 110.801 63.3933 110.268 63.38C110.015 63.3667 109.775 63.2333 109.548 62.98C109.335 62.7133 109.141 62.4267 108.968 62.12C108.808 61.8 108.541 61.5067 108.168 61.24C107.808 60.9733 107.368 60.84 106.848 60.84C106.021 60.84 105.341 61.18 104.808 61.86C104.275 62.5267 104.008 63.36 104.008 64.36C104.008 65.7467 104.361 66.86 105.068 67.7C105.775 68.5267 106.688 68.94 107.808 68.94C108.461 68.94 109.021 68.7667 109.488 68.42C109.968 68.06 110.335 67.6067 110.588 67.06C110.668 66.9 110.795 66.84 110.968 66.88C111.141 66.92 111.208 67.0333 111.168 67.22C111.008 68.0333 110.581 68.7333 109.888 69.32C109.208 69.9067 108.328 70.2 107.248 70.2ZM120.547 67.18C120.64 67.0333 120.767 66.98 120.927 67.02C121.087 67.0467 121.16 67.1533 121.147 67.34C120.987 68.06 120.567 68.72 119.887 69.32C119.207 69.9067 118.307 70.2 117.187 70.2C115.787 70.2 114.634 69.7333 113.727 68.8C112.834 67.8533 112.387 66.6267 112.387 65.12C112.387 63.68 112.834 62.5067 113.727 61.6C114.62 60.68 115.767 60.2133 117.167 60.2C118.194 60.1867 119.034 60.42 119.687 60.9C120.354 61.3667 120.687 62.02 120.687 62.86C120.687 63.54 120.4 64.1467 119.827 64.68C119.254 65.2 118.494 65.5533 117.547 65.74C116.614 65.9133 115.487 65.9467 114.167 65.84C114.394 66.7867 114.814 67.54 115.427 68.1C116.04 68.6467 116.78 68.92 117.647 68.92C118.367 68.92 118.974 68.76 119.467 68.44C119.96 68.12 120.32 67.7 120.547 67.18ZM116.867 60.88C116.027 60.88 115.34 61.22 114.807 61.9C114.274 62.58 114.007 63.4133 114.007 64.4C114.007 64.56 114.02 64.8 114.047 65.12C115.354 65.2133 116.407 65.1733 117.207 65C118.407 64.7467 119 64.0333 118.987 62.86C118.974 62.2733 118.767 61.8 118.367 61.44C117.98 61.0667 117.48 60.88 116.867 60.88ZM131.928 68.56C131.942 68.7733 132.008 68.9467 132.128 69.08C132.248 69.2133 132.362 69.3267 132.468 69.42C132.588 69.5 132.648 69.5867 132.648 69.68V69.76C132.648 69.9333 132.508 70.02 132.228 70.02H129.848C129.568 70.02 129.428 69.9333 129.428 69.76V69.68C129.428 69.5867 129.548 69.4467 129.788 69.26C130.042 69.0733 130.162 68.8467 130.148 68.58L129.948 64.58C129.895 63.3933 129.648 62.5 129.208 61.9C128.782 61.2867 128.208 60.98 127.488 60.98C126.755 60.98 126.155 61.24 125.688 61.76C125.222 62.28 124.988 62.94 124.988 63.74V68.6C124.988 68.76 125.028 68.9 125.108 69.02C125.202 69.1267 125.295 69.2067 125.388 69.26C125.482 69.3133 125.568 69.38 125.648 69.46C125.742 69.5267 125.788 69.6 125.788 69.68V69.76C125.788 69.9333 125.648 70.02 125.368 70.02H122.868C122.602 70.02 122.468 69.9333 122.468 69.76V69.68C122.468 69.5733 122.595 69.4333 122.848 69.26C123.115 69.0867 123.248 68.8667 123.248 68.6V62.54C123.248 62.2867 123.175 62.0933 123.028 61.96C122.895 61.8133 122.755 61.7 122.608 61.62C122.475 61.54 122.408 61.4533 122.408 61.36V61.3C122.408 61.18 122.515 61.08 122.728 61L124.228 60.28C124.415 60.1867 124.555 60.1733 124.648 60.24C124.742 60.3067 124.788 60.42 124.788 60.58V62.04C125.082 61.48 125.502 61.0333 126.048 60.7C126.608 60.3667 127.228 60.2 127.908 60.2C128.948 60.2 129.815 60.5667 130.508 61.3C131.215 62.0333 131.615 63.14 131.708 64.62L131.928 68.56ZM137.317 70.2C136.517 70.2 135.883 69.9467 135.417 69.44C134.963 68.92 134.737 68.1667 134.737 67.18V61.2H133.417C133.217 61.2 133.117 61.1 133.117 60.9V60.7C133.117 60.5 133.217 60.4 133.417 60.4H134.137C135.043 60.4 135.55 59.7667 135.657 58.5C135.683 58.2333 135.797 58.1 135.997 58.1H136.197C136.41 58.1 136.517 58.2333 136.517 58.5L136.537 60.4H139.297C139.377 60.4 139.443 60.4333 139.497 60.5C139.563 60.5533 139.597 60.62 139.597 60.7V60.9C139.597 61.1 139.497 61.2 139.297 61.2H136.537V67.2C136.537 67.7333 136.65 68.1467 136.877 68.44C137.103 68.7333 137.41 68.88 137.797 68.88C138.223 68.88 138.563 68.7733 138.817 68.56C139.083 68.3333 139.237 68.04 139.277 67.68C139.343 67.52 139.457 67.4533 139.617 67.48C139.79 67.4933 139.877 67.5867 139.877 67.76C139.877 68.4133 139.637 68.9867 139.157 69.48C138.69 69.96 138.077 70.2 137.317 70.2ZM141.245 70C140.992 70 140.865 69.9133 140.865 69.74V69.68C140.865 69.5733 140.979 69.4333 141.205 69.26C141.445 69.0733 141.565 68.8533 141.565 68.6V57.36C141.565 57.1333 141.505 56.9467 141.385 56.8C141.279 56.64 141.165 56.5133 141.045 56.42C140.925 56.3267 140.865 56.24 140.865 56.16V56.12C140.865 56.0133 140.959 55.9067 141.145 55.8L142.705 55.04C142.905 54.96 143.059 54.9533 143.165 55.02C143.272 55.0733 143.325 55.1733 143.325 55.32V68.6C143.325 68.8533 143.452 69.0733 143.705 69.26C143.972 69.4333 144.105 69.5733 144.105 69.68V69.74C144.105 69.9133 143.972 70 143.705 70H141.245ZM153.972 60.24C154.332 60.1867 154.512 60.28 154.512 60.52V69.14C154.512 70.7267 154.099 71.94 153.272 72.78C152.445 73.62 151.345 74.04 149.972 74.04C148.785 74.04 147.812 73.7267 147.052 73.1C146.305 72.4867 145.932 71.8267 145.932 71.12C145.932 70.9067 146.005 70.7267 146.152 70.58C146.299 70.4467 146.492 70.38 146.732 70.38C146.945 70.38 147.125 70.48 147.272 70.68C147.419 70.8933 147.545 71.1467 147.652 71.44C147.772 71.7333 147.919 72.0267 148.092 72.32C148.265 72.6133 148.532 72.8667 148.892 73.08C149.265 73.2933 149.719 73.4 150.252 73.4C151.919 73.4 152.752 72.0467 152.752 69.34V68.52C152.125 69.5067 151.145 70 149.812 70C148.732 70 147.852 69.6 147.172 68.8C146.492 68 146.152 66.9467 146.152 65.64V62.1C146.152 61.8067 146.025 61.56 145.772 61.36C145.532 61.16 145.412 61.02 145.412 60.94V60.88C145.412 60.72 145.512 60.62 145.712 60.58L147.392 60.28C147.752 60.2133 147.932 60.2933 147.932 60.52L147.912 65.78C147.912 66.8467 148.112 67.6867 148.512 68.3C148.925 68.9133 149.492 69.22 150.212 69.22C150.932 69.22 151.532 68.9467 152.012 68.4C152.505 67.84 152.752 67.1267 152.752 66.26V62.1C152.752 61.82 152.625 61.58 152.372 61.38C152.119 61.18 151.992 61.0333 151.992 60.94V60.88C151.992 60.72 152.085 60.62 152.272 60.58L153.972 60.24ZM170.943 61.04C170.943 61.12 170.876 61.2067 170.743 61.3C170.623 61.3933 170.496 61.52 170.363 61.68C170.243 61.8267 170.183 62.0133 170.183 62.24V68.6C170.183 68.8667 170.303 69.1 170.543 69.3C170.796 69.5 170.923 69.64 170.923 69.72V69.78C170.923 69.9267 170.829 70 170.643 70H168.943C168.729 70 168.623 69.8933 168.623 69.68V68.56C168.303 69.0933 167.863 69.5 167.303 69.78C166.756 70.06 166.163 70.2 165.523 70.2C164.256 70.2 163.169 69.7333 162.263 68.8C161.356 67.8667 160.903 66.66 160.903 65.18C160.903 63.7267 161.349 62.5333 162.243 61.6C163.136 60.6667 164.256 60.2 165.603 60.2C166.883 60.2 167.896 60.7 168.643 61.7V60.62C168.643 60.46 168.696 60.3467 168.803 60.28C168.923 60.2133 169.076 60.2133 169.263 60.28L170.643 60.64C170.843 60.6933 170.943 60.8067 170.943 60.98V61.04ZM165.943 69.54C166.583 69.54 167.163 69.2867 167.683 68.78C168.216 68.26 168.483 67.5533 168.483 66.66V63.64C168.483 62.9733 168.189 62.34 167.603 61.74C167.029 61.14 166.356 60.84 165.583 60.84C164.716 60.84 164.009 61.1867 163.463 61.88C162.916 62.56 162.636 63.46 162.623 64.58C162.596 65.9667 162.896 67.14 163.523 68.1C164.149 69.0467 164.956 69.5267 165.943 69.54ZM176.465 70.18C175.238 70.18 174.252 69.9333 173.505 69.44C172.772 68.9467 172.405 68.4333 172.405 67.9C172.405 67.4067 172.665 67.16 173.185 67.16C173.412 67.16 173.592 67.2467 173.725 67.42C173.872 67.58 173.998 67.78 174.105 68.02C174.212 68.26 174.338 68.5 174.485 68.74C174.645 68.98 174.892 69.1867 175.225 69.36C175.558 69.52 175.972 69.6 176.465 69.6C177.132 69.6 177.678 69.4467 178.105 69.14C178.532 68.82 178.745 68.3867 178.745 67.84C178.745 67.3067 178.532 66.8933 178.105 66.6C177.692 66.3067 177.185 66.1 176.585 65.98C175.985 65.8467 175.385 65.7 174.785 65.54C174.185 65.38 173.672 65.0867 173.245 64.66C172.832 64.2333 172.625 63.66 172.625 62.94C172.625 62.1667 172.978 61.52 173.685 61C174.392 60.4667 175.292 60.2 176.385 60.2C177.545 60.2 178.485 60.4467 179.205 60.94C179.925 61.4333 180.285 61.9733 180.285 62.56C180.285 62.76 180.212 62.9267 180.065 63.06C179.932 63.1933 179.765 63.26 179.565 63.26C179.325 63.26 179.118 63.1333 178.945 62.88C178.772 62.6267 178.625 62.3467 178.505 62.04C178.398 61.7333 178.172 61.4533 177.825 61.2C177.478 60.9467 177.025 60.82 176.465 60.82C175.878 60.82 175.385 60.9867 174.985 61.32C174.598 61.6533 174.405 62.0667 174.405 62.56C174.405 63.08 174.612 63.4867 175.025 63.78C175.452 64.06 175.965 64.2667 176.565 64.4C177.165 64.5333 177.758 64.68 178.345 64.84C178.945 65 179.452 65.3 179.865 65.74C180.292 66.1667 180.505 66.7467 180.505 67.48C180.505 68.2533 180.132 68.9 179.385 69.42C178.652 69.9267 177.678 70.18 176.465 70.18ZM196.133 66.96C196.24 66.96 196.32 66.9933 196.373 67.06C196.427 67.1267 196.44 67.22 196.413 67.34L195.853 69.58C195.76 69.86 195.6 70 195.373 70H186.693C186.44 70 186.313 69.88 186.313 69.64V69.48C186.313 68.8533 186.493 68.22 186.853 67.58C187.227 66.94 187.687 66.3667 188.233 65.86C188.793 65.34 189.393 64.8 190.033 64.24C190.687 63.6667 191.287 63.1333 191.833 62.64C192.393 62.1467 192.853 61.6 193.213 61C193.587 60.3867 193.773 59.7867 193.773 59.2C193.773 58.36 193.513 57.6867 192.993 57.18C192.487 56.6733 191.907 56.42 191.253 56.42C190.613 56.42 190.073 56.6 189.633 56.96C189.207 57.3067 188.913 57.6933 188.753 58.12C188.593 58.5333 188.4 58.92 188.173 59.28C187.947 59.6267 187.693 59.8 187.413 59.8C187.133 59.8 186.907 59.72 186.733 59.56C186.56 59.4 186.473 59.18 186.473 58.9C186.473 58.1533 186.913 57.42 187.793 56.7C188.673 55.9667 189.793 55.6 191.153 55.6C192.46 55.6 193.52 55.9267 194.333 56.58C195.16 57.2333 195.573 58.1533 195.573 59.34C195.573 60.1133 195.327 60.86 194.833 61.58C194.34 62.3 193.727 62.94 192.993 63.5C192.273 64.06 191.547 64.6067 190.813 65.14C190.08 65.6733 189.427 66.2467 188.853 66.86C188.28 67.4733 187.94 68.0867 187.833 68.7H194.213C194.56 68.7 194.84 68.56 195.053 68.28C195.28 67.9867 195.46 67.6933 195.593 67.4C195.74 67.1067 195.873 66.96 195.993 66.96H196.133ZM203.72 70.2C202.013 70.2 200.613 69.5333 199.52 68.2C198.427 66.8533 197.88 65.06 197.88 62.82C197.88 60.58 198.38 58.82 199.38 57.54C200.393 56.2467 201.793 55.6 203.58 55.6C205.233 55.6 206.6 56.28 207.68 57.64C208.76 59 209.3 60.76 209.3 62.92C209.3 65.16 208.78 66.9333 207.74 68.24C206.7 69.5467 205.36 70.2 203.72 70.2ZM203.98 69.4C205.02 69.4 205.867 68.8933 206.52 67.88C207.187 66.8533 207.52 65.4667 207.52 63.72C207.52 61.68 207.113 59.9533 206.3 58.54C205.5 57.1267 204.487 56.42 203.26 56.42C202.193 56.42 201.327 56.9333 200.66 57.96C199.993 58.9867 199.66 60.3867 199.66 62.16C199.66 64.24 200.06 65.9667 200.86 67.34C201.673 68.7133 202.713 69.4 203.98 69.4ZM211.588 70C211.348 70 211.228 69.92 211.228 69.76V69.72C211.228 69.6267 211.302 69.5333 211.448 69.44C211.608 69.3333 211.762 69.2067 211.908 69.06C212.068 68.9133 212.148 68.72 212.148 68.48V58.34C212.148 58.0733 212.082 57.88 211.948 57.76C211.815 57.6267 211.668 57.5667 211.508 57.58C211.362 57.58 211.222 57.56 211.088 57.52C210.955 57.4667 210.888 57.3733 210.888 57.24V57.18C210.888 57.02 211.015 56.8933 211.268 56.8L213.468 55.86C213.735 55.7533 213.942 55.7333 214.088 55.8C214.248 55.8667 214.328 55.9867 214.328 56.16C214.328 56.2533 214.242 56.4267 214.068 56.68C213.908 56.92 213.828 57.2133 213.828 57.56V68.48C213.828 68.72 213.908 68.9133 214.068 69.06C214.228 69.2067 214.388 69.3333 214.548 69.44C214.722 69.5333 214.808 69.6267 214.808 69.72V69.76C214.808 69.92 214.688 70 214.448 70H211.588ZM226.27 65.74C226.456 65.74 226.55 65.8267 226.55 66V66.36C226.55 66.5333 226.456 66.62 226.27 66.62H224.63V68.56C224.63 68.8 224.696 68.9867 224.83 69.12C224.976 69.2533 225.116 69.3667 225.25 69.46C225.396 69.54 225.47 69.6267 225.47 69.72V69.76C225.47 69.92 225.35 70 225.11 70H222.39C222.136 70 222.01 69.92 222.01 69.76V69.72C222.01 69.6267 222.143 69.4867 222.41 69.3C222.676 69.1133 222.81 68.8667 222.81 68.56V66.62H216.43C216.083 66.62 215.91 66.4733 215.91 66.18V66.12C215.91 65.8667 215.97 65.6467 216.09 65.46L222.43 56.36C222.67 55.9867 222.963 55.8 223.31 55.8H224.29C224.516 55.8 224.63 55.92 224.63 56.16V65.74H226.27ZM217.01 65.74H222.81L222.83 57.36L217.01 65.74Z" fill="black"/>
<path d="M91.3883 16C91.0949 16 90.9483 15.8867 90.9483 15.66V15.6C90.9483 15.4667 91.1283 15.24 91.4883 14.92C91.8483 14.5867 92.0283 14.2533 92.0283 13.92V5.22C92.0283 4.94 91.9549 4.72667 91.8083 4.58C91.6616 4.42 91.5016 4.32667 91.3283 4.3C91.1683 4.26 91.0149 4.2 90.8683 4.12C90.7216 4.02667 90.6483 3.90667 90.6483 3.76V3.66C90.6483 3.46 90.8283 3.28 91.1883 3.12L93.9883 1.9C94.4149 1.74 94.7483 1.72 94.9883 1.84C95.2416 1.94667 95.3683 2.13333 95.3683 2.4C95.3683 2.54667 95.2883 2.76667 95.1283 3.06C94.9816 3.35333 94.9083 3.7 94.9083 4.1V13.92C94.9083 14.12 94.9683 14.3133 95.0883 14.5C95.2083 14.6733 95.3349 14.8133 95.4683 14.92C95.6149 15.0133 95.7483 15.1267 95.8683 15.26C95.9883 15.38 96.0483 15.4933 96.0483 15.6V15.66C96.0483 15.8867 95.9083 16 95.6283 16H91.3883ZM107.528 11.32C107.768 11.32 107.888 11.44 107.888 11.68V12.26C107.888 12.5 107.768 12.62 107.528 12.62H106.188V14.04C106.188 14.3867 106.334 14.7 106.628 14.98C106.921 15.26 107.068 15.4667 107.068 15.6V15.66C107.068 15.8867 106.921 16 106.628 16H102.808C102.514 16 102.368 15.8867 102.368 15.66V15.6C102.368 15.4667 102.501 15.26 102.768 14.98C103.034 14.7 103.168 14.3867 103.168 14.04V12.62H97.5475C97.0142 12.62 96.7475 12.4067 96.7475 11.98V11.88C96.7475 11.52 96.8408 11.1933 97.0275 10.9L102.588 2.56C102.921 2.05333 103.368 1.8 103.928 1.8H105.728C106.034 1.8 106.188 1.95333 106.188 2.26V11.32H107.528ZM98.3675 11.32H103.168L103.188 4.14L98.3675 11.32ZM117.23 16.18C115.976 16.18 114.95 15.9533 114.15 15.5C113.35 15.0467 112.95 14.5 112.95 13.86C112.95 13.5 113.056 13.2267 113.27 13.04C113.496 12.8533 113.79 12.76 114.15 12.76C114.536 12.76 114.85 12.9 115.09 13.18C115.33 13.4467 115.496 13.7467 115.59 14.08C115.696 14.4133 115.883 14.72 116.15 15C116.43 15.2667 116.79 15.4 117.23 15.4C117.656 15.4 118.003 15.2867 118.27 15.06C118.55 14.8333 118.69 14.5067 118.69 14.08C118.69 13.6 118.496 13.22 118.11 12.94C117.736 12.66 117.276 12.4533 116.73 12.32C116.183 12.1733 115.636 12.0133 115.09 11.84C114.543 11.6533 114.076 11.34 113.69 10.9C113.316 10.4467 113.13 9.86 113.13 9.14C113.13 8.28667 113.503 7.58667 114.25 7.04C115.01 6.48 115.99 6.2 117.19 6.2C118.403 6.2 119.39 6.44 120.15 6.92C120.923 7.38667 121.31 7.94667 121.31 8.6C121.31 8.89333 121.196 9.14 120.97 9.34C120.756 9.54 120.49 9.64 120.17 9.64C119.796 9.64 119.496 9.50667 119.27 9.24C119.043 8.96 118.883 8.66 118.79 8.34C118.696 8.00667 118.53 7.70667 118.29 7.44C118.05 7.16 117.736 7.02 117.35 7.02C116.963 7.02 116.65 7.15333 116.41 7.42C116.17 7.67333 116.05 7.98667 116.05 8.36C116.05 8.73333 116.15 9.04667 116.35 9.3C116.55 9.55333 116.81 9.74667 117.13 9.88C117.45 10.0133 117.803 10.14 118.19 10.26C118.576 10.3667 118.963 10.4933 119.35 10.64C119.75 10.7733 120.11 10.94 120.43 11.14C120.75 11.34 121.01 11.6267 121.21 12C121.41 12.36 121.51 12.8 121.51 13.32C121.51 14.1467 121.123 14.8333 120.35 15.38C119.576 15.9133 118.536 16.18 117.23 16.18ZM128.52 6.2C129.773 6.2 130.867 6.63333 131.8 7.5C132.733 8.36667 133.2 9.54667 133.2 11.04C133.2 12.5467 132.74 13.7867 131.82 14.76C130.913 15.72 129.82 16.2 128.54 16.2C127.607 16.2 126.827 15.94 126.2 15.42V18.4C126.2 18.72 126.34 19.02 126.62 19.3C126.9 19.58 127.04 19.7867 127.04 19.92V20C127.04 20.2267 126.887 20.34 126.58 20.34H122.96C122.653 20.34 122.5 20.2267 122.5 20V19.92C122.5 19.7867 122.627 19.58 122.88 19.3C123.147 19.02 123.28 18.72 123.28 18.4V9.4C123.28 9.10667 123.127 8.84 122.82 8.6C122.513 8.34667 122.36 8.14667 122.36 8V7.9C122.36 7.71333 122.493 7.55333 122.76 7.42L125 6.32C125.507 6.06667 125.76 6.18667 125.76 6.68L125.74 7.52C126.3 6.64 127.227 6.2 128.52 6.2ZM128.24 15.34C128.88 15.34 129.373 15.0733 129.72 14.54C130.08 14.0067 130.26 13.24 130.26 12.24C130.26 10.88 130.04 9.68 129.6 8.64C129.16 7.58667 128.567 7.06 127.82 7.06C127.407 7.06 127.047 7.21333 126.74 7.52C126.433 7.81333 126.253 8.2 126.2 8.68V12.5C126.2 13.2733 126.407 13.94 126.82 14.5C127.233 15.06 127.707 15.34 128.24 15.34ZM142.598 12.96C142.718 12.8 142.864 12.7467 143.038 12.8C143.211 12.8533 143.291 12.98 143.278 13.18C143.211 13.8867 142.831 14.5667 142.138 15.22C141.458 15.8733 140.511 16.2 139.298 16.2C137.818 16.2 136.611 15.7333 135.678 14.8C134.744 13.8533 134.278 12.6267 134.278 11.12C134.278 9.68 134.751 8.50667 135.698 7.6C136.644 6.68 137.804 6.21333 139.178 6.2C140.311 6.18667 141.231 6.43333 141.938 6.94C142.644 7.44667 142.998 8.13333 142.998 9C142.998 9.70667 142.698 10.3267 142.098 10.86C141.511 11.38 140.744 11.7267 139.798 11.9C139.051 12.06 138.231 12.1 137.338 12.02C137.604 12.6733 137.984 13.1867 138.478 13.56C138.984 13.9333 139.564 14.12 140.218 14.12C141.324 14.12 142.118 13.7333 142.598 12.96ZM138.798 7.12C138.238 7.12 137.784 7.37333 137.438 7.88C137.104 8.38667 136.938 9.02667 136.938 9.8C136.938 10.24 136.978 10.66 137.058 11.06C137.791 11.1133 138.404 11.08 138.898 10.96C139.818 10.7867 140.278 10.0933 140.278 8.88C140.264 8.38667 140.118 7.97333 139.838 7.64C139.571 7.29333 139.224 7.12 138.798 7.12ZM149.318 16.2C147.838 16.2 146.605 15.7067 145.618 14.72C144.645 13.7333 144.158 12.5533 144.158 11.18C144.158 9.68667 144.645 8.48667 145.618 7.58C146.605 6.67333 147.798 6.21333 149.198 6.2C150.345 6.18667 151.318 6.45333 152.118 7C152.932 7.54667 153.338 8.21333 153.338 9C153.338 9.29333 153.238 9.54 153.038 9.74C152.838 9.92667 152.525 10.0133 152.098 10C151.778 9.98667 151.498 9.87333 151.258 9.66C151.018 9.44667 150.818 9.2 150.658 8.92C150.512 8.64 150.358 8.36 150.198 8.08C150.038 7.8 149.838 7.56667 149.598 7.38C149.358 7.18 149.078 7.08 148.758 7.08C148.198 7.08 147.745 7.33333 147.398 7.84C147.065 8.34667 146.898 8.98 146.898 9.74C146.898 11.0733 147.205 12.14 147.818 12.94C148.445 13.74 149.272 14.14 150.298 14.14C151.352 14.14 152.152 13.6733 152.698 12.74C152.778 12.6333 152.872 12.5733 152.978 12.56C153.098 12.5333 153.198 12.56 153.278 12.64C153.372 12.7067 153.412 12.8067 153.398 12.94C153.332 13.8333 152.938 14.6 152.218 15.24C151.512 15.88 150.545 16.2 149.318 16.2ZM158.175 4.5C157.829 4.82 157.362 4.98 156.775 4.98C156.189 4.98 155.709 4.82 155.335 4.5C154.975 4.16667 154.795 3.74 154.795 3.22C154.795 2.71333 154.975 2.3 155.335 1.98C155.709 1.64667 156.189 1.48 156.775 1.48C157.362 1.48 157.829 1.64667 158.175 1.98C158.535 2.3 158.715 2.71333 158.715 3.22C158.715 3.74 158.535 4.16667 158.175 4.5ZM154.955 16C154.662 16 154.515 15.8867 154.515 15.66V15.58C154.515 15.4467 154.642 15.24 154.895 14.96C155.149 14.68 155.275 14.38 155.275 14.06V9.54C155.275 9.20667 155.149 8.89333 154.895 8.6C154.642 8.30667 154.515 8.10667 154.515 8V7.94C154.515 7.80667 154.655 7.66667 154.935 7.52L157.435 6.28C157.689 6.17333 157.889 6.16667 158.035 6.26C158.182 6.34 158.255 6.48 158.255 6.68V14.06C158.255 14.38 158.395 14.68 158.675 14.96C158.955 15.24 159.095 15.4467 159.095 15.58V15.66C159.095 15.8867 158.942 16 158.635 16H154.955ZM168.457 12.96C168.577 12.8 168.724 12.7467 168.897 12.8C169.071 12.8533 169.151 12.98 169.137 13.18C169.071 13.8867 168.691 14.5667 167.997 15.22C167.317 15.8733 166.371 16.2 165.157 16.2C163.677 16.2 162.471 15.7333 161.537 14.8C160.604 13.8533 160.137 12.6267 160.137 11.12C160.137 9.68 160.611 8.50667 161.557 7.6C162.504 6.68 163.664 6.21333 165.037 6.2C166.171 6.18667 167.091 6.43333 167.797 6.94C168.504 7.44667 168.857 8.13333 168.857 9C168.857 9.70667 168.557 10.3267 167.957 10.86C167.371 11.38 166.604 11.7267 165.657 11.9C164.911 12.06 164.091 12.1 163.197 12.02C163.464 12.6733 163.844 13.1867 164.337 13.56C164.844 13.9333 165.424 14.12 166.077 14.12C167.184 14.12 167.977 13.7333 168.457 12.96ZM164.657 7.12C164.097 7.12 163.644 7.37333 163.297 7.88C162.964 8.38667 162.797 9.02667 162.797 9.8C162.797 10.24 162.837 10.66 162.917 11.06C163.651 11.1133 164.264 11.08 164.757 10.96C165.677 10.7867 166.137 10.0933 166.137 8.88C166.124 8.38667 165.977 7.97333 165.697 7.64C165.431 7.29333 165.084 7.12 164.657 7.12ZM174.398 16.18C173.144 16.18 172.118 15.9533 171.318 15.5C170.518 15.0467 170.118 14.5 170.118 13.86C170.118 13.5 170.224 13.2267 170.438 13.04C170.664 12.8533 170.958 12.76 171.318 12.76C171.704 12.76 172.018 12.9 172.258 13.18C172.498 13.4467 172.664 13.7467 172.758 14.08C172.864 14.4133 173.051 14.72 173.318 15C173.598 15.2667 173.958 15.4 174.398 15.4C174.824 15.4 175.171 15.2867 175.438 15.06C175.718 14.8333 175.858 14.5067 175.858 14.08C175.858 13.6 175.664 13.22 175.278 12.94C174.904 12.66 174.444 12.4533 173.898 12.32C173.351 12.1733 172.804 12.0133 172.258 11.84C171.711 11.6533 171.244 11.34 170.858 10.9C170.484 10.4467 170.298 9.86 170.298 9.14C170.298 8.28667 170.671 7.58667 171.418 7.04C172.178 6.48 173.158 6.2 174.358 6.2C175.571 6.2 176.558 6.44 177.318 6.92C178.091 7.38667 178.478 7.94667 178.478 8.6C178.478 8.89333 178.364 9.14 178.138 9.34C177.924 9.54 177.658 9.64 177.338 9.64C176.964 9.64 176.664 9.50667 176.438 9.24C176.211 8.96 176.051 8.66 175.958 8.34C175.864 8.00667 175.698 7.70667 175.458 7.44C175.218 7.16 174.904 7.02 174.518 7.02C174.131 7.02 173.818 7.15333 173.578 7.42C173.338 7.67333 173.218 7.98667 173.218 8.36C173.218 8.73333 173.318 9.04667 173.518 9.3C173.718 9.55333 173.978 9.74667 174.298 9.88C174.618 10.0133 174.971 10.14 175.358 10.26C175.744 10.3667 176.131 10.4933 176.518 10.64C176.918 10.7733 177.278 10.94 177.598 11.14C177.918 11.34 178.178 11.6267 178.378 12C178.578 12.36 178.678 12.8 178.678 13.32C178.678 14.1467 178.291 14.8333 177.518 15.38C176.744 15.9133 175.704 16.18 174.398 16.18Z" fill="#00B112"/>
</svg>
