<svg width="265" height="65" viewBox="0 0 265 65" fill="none" xmlns="http://www.w3.org/2000/svg">
<path d="M8.06766 16.2C6.90766 16.2 5.84099 16 4.86766 15.6C3.89432 15.2 3.04766 14.64 2.32766 13.92C1.62099 13.2 1.06766 12.3533 0.667656 11.38C0.28099 10.4067 0.0876563 9.34 0.0876563 8.18C0.0876563 7.03333 0.28099 5.97333 0.667656 5C1.06766 4.02667 1.62099 3.18 2.32766 2.46C3.04766 1.74 3.89432 1.18 4.86766 0.779999C5.84099 0.38 6.90766 0.18 8.06766 0.18C9.21432 0.18 10.2743 0.38 11.2477 0.779999C12.221 1.18 13.0677 1.74 13.7877 2.46C14.5077 3.18 15.061 4.02667 15.4477 5C15.8477 5.97333 16.0477 7.03333 16.0477 8.18C16.0477 9.34 15.8477 10.4067 15.4477 11.38C15.061 12.3533 14.5077 13.2 13.7877 13.92C13.0677 14.64 12.221 15.2 11.2477 15.6C10.2743 16 9.21432 16.2 8.06766 16.2ZM8.06766 14.72C8.98766 14.72 9.84099 14.56 10.6277 14.24C11.4143 13.9067 12.0943 13.4467 12.6677 12.86C13.2543 12.26 13.7077 11.5667 14.0277 10.78C14.3477 9.98 14.5077 9.11333 14.5077 8.18C14.5077 7.26 14.3477 6.40667 14.0277 5.62C13.7077 4.82 13.2543 4.12667 12.6677 3.54C12.0943 2.94 11.4143 2.48 10.6277 2.16C9.84099 1.82667 8.98766 1.66 8.06766 1.66C7.13432 1.66 6.27432 1.82667 5.48766 2.16C4.70099 2.48 4.01432 2.94 3.42766 3.54C2.85432 4.12667 2.40766 4.82 2.08766 5.62C1.76766 6.40667 1.60766 7.26 1.60766 8.18C1.60766 9.11333 1.76766 9.98 2.08766 10.78C2.40766 11.5667 2.85432 12.26 3.42766 12.86C4.01432 13.4467 4.70099 13.9067 5.48766 14.24C6.27432 14.56 7.13432 14.72 8.06766 14.72ZM20.4256 16C20.2256 16 20.0523 15.9333 19.9056 15.8C19.759 15.6533 19.6856 15.46 19.6856 15.22V5.08C19.6856 4.14667 19.8456 3.32667 20.1656 2.62C20.4856 1.91333 20.959 1.36667 21.5856 0.979999C22.2123 0.579999 22.979 0.38 23.8856 0.38C24.1123 0.38 24.299 0.446666 24.4456 0.579999C24.5923 0.713333 24.6656 0.879999 24.6656 1.08C24.6656 1.28 24.5923 1.44667 24.4456 1.58C24.299 1.71333 24.1123 1.78 23.8856 1.78C23.2856 1.78 22.7856 1.92 22.3856 2.2C21.999 2.46667 21.7056 2.84667 21.5056 3.34C21.319 3.82 21.2256 4.37333 21.2256 5V15.22C21.2256 15.46 21.1523 15.6533 21.0056 15.8C20.8723 15.9333 20.679 16 20.4256 16ZM18.4056 6.8C18.1923 6.8 18.019 6.74 17.8856 6.62C17.7656 6.48667 17.7056 6.32667 17.7056 6.14C17.7056 5.94 17.7656 5.78 17.8856 5.66C18.019 5.52667 18.1923 5.46 18.4056 5.46H23.6256C23.839 5.46 24.0056 5.52667 24.1256 5.66C24.259 5.78 24.3256 5.94 24.3256 6.14C24.3256 6.32667 24.259 6.48667 24.1256 6.62C24.0056 6.74 23.839 6.8 23.6256 6.8H18.4056ZM36.5292 16C35.8226 16 35.1892 15.8333 34.6292 15.5C34.0826 15.1667 33.6492 14.7133 33.3292 14.14C33.0092 13.5533 32.8492 12.8867 32.8492 12.14V2.36C32.8492 2.13333 32.9159 1.94667 33.0492 1.8C33.1959 1.65333 33.3826 1.58 33.6092 1.58C33.8359 1.58 34.0226 1.65333 34.1692 1.8C34.3159 1.94667 34.3892 2.13333 34.3892 2.36V12.14C34.3892 12.82 34.5892 13.38 34.9892 13.82C35.3892 14.2467 35.9026 14.46 36.5292 14.46H37.0692C37.2826 14.46 37.4559 14.5333 37.5892 14.68C37.7226 14.8267 37.7892 15.0133 37.7892 15.24C37.7892 15.4667 37.7092 15.6533 37.5492 15.8C37.3892 15.9333 37.1892 16 36.9492 16H36.5292ZM31.5492 6.8C31.3492 6.8 31.1826 6.74 31.0492 6.62C30.9159 6.48667 30.8492 6.32667 30.8492 6.14C30.8492 5.94 30.9159 5.78 31.0492 5.66C31.1826 5.52667 31.3492 5.46 31.5492 5.46H36.6492C36.8492 5.46 37.0159 5.52667 37.1492 5.66C37.2826 5.78 37.3492 5.94 37.3492 6.14C37.3492 6.32667 37.2826 6.48667 37.1492 6.62C37.0159 6.74 36.8492 6.8 36.6492 6.8H31.5492ZM41.0761 11.54C40.8361 11.54 40.6428 11.4667 40.4961 11.32C40.3628 11.1733 40.2961 10.9867 40.2961 10.76V1.16C40.2961 0.919999 40.3628 0.733332 40.4961 0.599999C40.6428 0.453333 40.8361 0.38 41.0761 0.38C41.3028 0.38 41.4828 0.453333 41.6161 0.599999C41.7628 0.733332 41.8361 0.919999 41.8361 1.16V10.76C41.8361 10.9867 41.7628 11.1733 41.6161 11.32C41.4828 11.4667 41.3028 11.54 41.0761 11.54ZM49.6761 16C49.4494 16 49.2628 15.9267 49.1161 15.78C48.9694 15.6333 48.8961 15.4533 48.8961 15.24V10.04C48.8961 9.21333 48.7361 8.53333 48.4161 8C48.1094 7.46667 47.6828 7.06667 47.1361 6.8C46.6028 6.53333 45.9961 6.4 45.3161 6.4C44.6628 6.4 44.0694 6.52667 43.5361 6.78C43.0161 7.03333 42.6028 7.38 42.2961 7.82C41.9894 8.26 41.8361 8.76 41.8361 9.32H40.7361C40.7628 8.48 40.9894 7.73333 41.4161 7.08C41.8428 6.41333 42.4094 5.89333 43.1161 5.52C43.8228 5.13333 44.6094 4.94 45.4761 4.94C46.4228 4.94 47.2694 5.14 48.0161 5.54C48.7628 5.92667 49.3494 6.5 49.7761 7.26C50.2161 8.02 50.4361 8.94667 50.4361 10.04V15.24C50.4361 15.4533 50.3628 15.6333 50.2161 15.78C50.0694 15.9267 49.8894 16 49.6761 16ZM41.0761 16C40.8361 16 40.6428 15.9333 40.4961 15.8C40.3628 15.6533 40.2961 15.4667 40.2961 15.24V5.84C40.2961 5.6 40.3628 5.41333 40.4961 5.28C40.6428 5.13333 40.8361 5.06 41.0761 5.06C41.3028 5.06 41.4828 5.13333 41.6161 5.28C41.7628 5.41333 41.8361 5.6 41.8361 5.84V15.24C41.8361 15.4667 41.7628 15.6533 41.6161 15.8C41.4828 15.9333 41.3028 16 41.0761 16ZM58.7913 16.1C57.7113 16.1 56.7513 15.8667 55.9113 15.4C55.0846 14.92 54.4312 14.26 53.9513 13.42C53.4846 12.58 53.2513 11.62 53.2513 10.54C53.2513 9.44667 53.4713 8.48667 53.9113 7.66C54.3646 6.82 54.9846 6.16 55.7713 5.68C56.5579 5.2 57.4646 4.96 58.4913 4.96C59.5046 4.96 60.3846 5.19333 61.1313 5.66C61.8913 6.11333 62.4779 6.74667 62.8913 7.56C63.3046 8.37333 63.5113 9.3 63.5113 10.34C63.5113 10.5533 63.4446 10.7267 63.3113 10.86C63.1779 10.98 63.0046 11.04 62.7913 11.04H54.2913V9.76H62.9513L62.0913 10.38C62.1046 9.60667 61.9646 8.91333 61.6713 8.3C61.3779 7.68667 60.9579 7.20667 60.4113 6.86C59.8779 6.51333 59.2379 6.34 58.4913 6.34C57.7313 6.34 57.0646 6.52 56.4913 6.88C55.9179 7.24 55.4713 7.74 55.1513 8.38C54.8446 9.00667 54.6913 9.72667 54.6913 10.54C54.6913 11.3533 54.8646 12.0733 55.2113 12.7C55.5713 13.3267 56.0579 13.82 56.6713 14.18C57.2846 14.54 57.9913 14.72 58.7913 14.72C59.2713 14.72 59.7513 14.64 60.2313 14.48C60.7246 14.3067 61.1179 14.0933 61.4113 13.84C61.5579 13.72 61.7246 13.66 61.9113 13.66C62.0979 13.6467 62.2579 13.6933 62.3913 13.8C62.5646 13.96 62.6513 14.1333 62.6513 14.32C62.6646 14.5067 62.5913 14.6667 62.4313 14.8C61.9913 15.1733 61.4313 15.4867 60.7513 15.74C60.0713 15.98 59.4179 16.1 58.7913 16.1ZM72.3758 16C72.1624 16 71.9758 15.9267 71.8158 15.78C71.6691 15.6333 71.5958 15.4467 71.5958 15.22C71.5958 15.02 71.6691 14.84 71.8158 14.68L77.8758 7.52C78.2091 7.16 78.4758 6.76 78.6758 6.32C78.8758 5.86667 78.9758 5.44667 78.9758 5.06C78.9758 4.43333 78.8491 3.88 78.5958 3.4C78.3558 2.92 78.0091 2.54667 77.5558 2.28C77.1158 2 76.6091 1.86 76.0358 1.86C75.4758 1.86 74.9624 2.00667 74.4958 2.3C74.0424 2.58 73.6824 2.96 73.4158 3.44C73.1624 3.92 73.0358 4.46 73.0358 5.06C73.0358 5.27333 72.9624 5.45333 72.8158 5.6C72.6691 5.74667 72.4824 5.82 72.2558 5.82C72.0424 5.82 71.8558 5.74667 71.6958 5.6C71.5491 5.45333 71.4758 5.27333 71.4758 5.06C71.4758 4.16667 71.6758 3.36667 72.0758 2.66C72.4758 1.95333 73.0158 1.39333 73.6958 0.979999C74.3891 0.566665 75.1691 0.359999 76.0358 0.359999C76.9024 0.359999 77.6691 0.559999 78.3358 0.959999C79.0158 1.36 79.5424 1.91333 79.9158 2.62C80.3024 3.32667 80.4958 4.14 80.4958 5.06C80.4958 5.5 80.4224 5.92 80.2758 6.32C80.1424 6.72 79.9558 7.10667 79.7158 7.48C79.4758 7.84 79.2158 8.18 78.9358 8.5L73.8158 14.44H80.0758C80.2891 14.44 80.4691 14.52 80.6158 14.68C80.7758 14.84 80.8558 15.02 80.8558 15.22C80.8558 15.4467 80.7758 15.6333 80.6158 15.78C80.4691 15.9267 80.2891 16 80.0758 16H72.3758ZM90.7569 16C90.5569 16 90.3835 15.9267 90.2369 15.78C90.0902 15.6333 90.0169 15.4467 90.0169 15.22V12.26H82.8569C82.6435 12.26 82.4635 12.1933 82.3169 12.06C82.1835 11.9133 82.1035 11.7467 82.0769 11.56C82.0635 11.3733 82.1169 11.2 82.2369 11.04L90.1569 0.679999C90.2235 0.586666 90.3035 0.513332 90.3969 0.46C90.5035 0.393332 90.6369 0.359999 90.7969 0.359999C91.0102 0.359999 91.1835 0.439999 91.3169 0.599999C91.4635 0.746666 91.5369 0.933332 91.5369 1.16V10.86H93.1169C93.3302 10.86 93.5102 10.9133 93.6569 11.02C93.8035 11.1267 93.8769 11.3133 93.8769 11.58C93.8769 11.7533 93.8035 11.9133 93.6569 12.06C93.5102 12.1933 93.3302 12.26 93.1169 12.26H91.5369V15.22C91.5369 15.4467 91.4635 15.6333 91.3169 15.78C91.1702 15.9267 90.9835 16 90.7569 16ZM83.6969 11.46L83.4169 10.86H90.0169V2.28L90.4169 2.7L83.6969 11.46ZM96.3661 19.24C96.2328 19.24 96.1261 19.2 96.0461 19.12C95.9794 19.0533 95.9461 18.96 95.9461 18.84C95.9461 18.64 96.0061 18.4533 96.1261 18.28C96.2461 18.12 96.3661 17.9467 96.4861 17.76C96.6194 17.5733 96.6861 17.3467 96.6861 17.08C96.6861 16.84 96.6394 16.64 96.5461 16.48C96.4528 16.32 96.3394 16.1733 96.2061 16.04C96.0861 15.92 95.9794 15.7867 95.8861 15.64C95.7928 15.48 95.7461 15.2867 95.7461 15.06C95.7461 14.7267 95.8528 14.46 96.0661 14.26C96.2928 14.06 96.5728 13.96 96.9061 13.96C97.3061 13.96 97.6328 14.12 97.8861 14.44C98.1394 14.7467 98.2661 15.18 98.2661 15.74C98.2661 16.1133 98.2128 16.5067 98.1061 16.92C97.9994 17.3333 97.8528 17.7133 97.6661 18.06C97.4794 18.42 97.2728 18.7067 97.0461 18.92C96.8194 19.1333 96.5928 19.24 96.3661 19.24ZM218.166 11.54C217.926 11.54 217.733 11.4667 217.586 11.32C217.453 11.1733 217.386 10.9867 217.386 10.76V1.16C217.386 0.919999 217.453 0.733332 217.586 0.599999C217.733 0.453333 217.926 0.38 218.166 0.38C218.393 0.38 218.573 0.453333 218.706 0.599999C218.853 0.733332 218.926 0.919999 218.926 1.16V10.76C218.926 10.9867 218.853 11.1733 218.706 11.32C218.573 11.4667 218.393 11.54 218.166 11.54ZM226.766 16C226.539 16 226.353 15.9267 226.206 15.78C226.059 15.6333 225.986 15.4533 225.986 15.24V10.04C225.986 9.21333 225.826 8.53333 225.506 8C225.199 7.46667 224.773 7.06667 224.226 6.8C223.693 6.53333 223.086 6.4 222.406 6.4C221.753 6.4 221.159 6.52667 220.626 6.78C220.106 7.03333 219.693 7.38 219.386 7.82C219.079 8.26 218.926 8.76 218.926 9.32H217.826C217.853 8.48 218.079 7.73333 218.506 7.08C218.933 6.41333 219.499 5.89333 220.206 5.52C220.913 5.13333 221.699 4.94 222.566 4.94C223.513 4.94 224.359 5.14 225.106 5.54C225.853 5.92667 226.439 6.5 226.866 7.26C227.306 8.02 227.526 8.94667 227.526 10.04V15.24C227.526 15.4533 227.453 15.6333 227.306 15.78C227.159 15.9267 226.979 16 226.766 16ZM218.166 16C217.926 16 217.733 15.9333 217.586 15.8C217.453 15.6533 217.386 15.4667 217.386 15.24V5.84C217.386 5.6 217.453 5.41333 217.586 5.28C217.733 5.13333 217.926 5.06 218.166 5.06C218.393 5.06 218.573 5.13333 218.706 5.28C218.853 5.41333 218.926 5.6 218.926 5.84V15.24C218.926 15.4667 218.853 15.6533 218.706 15.8C218.573 15.9333 218.393 16 218.166 16ZM235.741 16.1C234.714 16.1 233.794 15.86 232.981 15.38C232.168 14.8867 231.521 14.22 231.041 13.38C230.574 12.54 230.341 11.5933 230.341 10.54C230.341 9.47333 230.581 8.52 231.061 7.68C231.554 6.84 232.221 6.18 233.061 5.7C233.901 5.20667 234.848 4.96 235.901 4.96C236.954 4.96 237.894 5.20667 238.721 5.7C239.561 6.18 240.221 6.84 240.701 7.68C241.194 8.52 241.448 9.47333 241.461 10.54L240.841 11.02C240.841 11.98 240.614 12.8467 240.161 13.62C239.721 14.38 239.114 14.9867 238.341 15.44C237.581 15.88 236.714 16.1 235.741 16.1ZM235.901 14.7C236.674 14.7 237.361 14.52 237.961 14.16C238.574 13.8 239.054 13.3067 239.401 12.68C239.761 12.04 239.941 11.3267 239.941 10.54C239.941 9.74 239.761 9.02667 239.401 8.4C239.054 7.77333 238.574 7.28 237.961 6.92C237.361 6.54667 236.674 6.36 235.901 6.36C235.141 6.36 234.454 6.54667 233.841 6.92C233.228 7.28 232.741 7.77333 232.381 8.4C232.021 9.02667 231.841 9.74 231.841 10.54C231.841 11.3267 232.021 12.04 232.381 12.68C232.741 13.3067 233.228 13.8 233.841 14.16C234.454 14.52 235.141 14.7 235.901 14.7ZM240.681 16C240.454 16 240.268 15.9333 240.121 15.8C239.974 15.6533 239.901 15.4667 239.901 15.24V11.82L240.281 10.24L241.461 10.54V15.24C241.461 15.4667 241.388 15.6533 241.241 15.8C241.094 15.9333 240.908 16 240.681 16ZM247.591 16C247.271 16 247.031 15.8267 246.871 15.48L242.431 6.06C242.351 5.88667 242.344 5.71333 242.411 5.54C242.477 5.36667 242.611 5.23333 242.811 5.14C242.997 5.04667 243.177 5.03333 243.351 5.1C243.524 5.16667 243.657 5.28667 243.751 5.46L248.011 14.68H247.191L251.391 5.46C251.471 5.27333 251.604 5.15333 251.791 5.1C251.991 5.03333 252.184 5.04 252.371 5.12C252.557 5.21333 252.684 5.35333 252.751 5.54C252.817 5.71333 252.811 5.88 252.731 6.04L248.351 15.48C248.191 15.8267 247.937 16 247.591 16ZM259.475 16.1C258.395 16.1 257.435 15.8667 256.595 15.4C255.768 14.92 255.115 14.26 254.635 13.42C254.168 12.58 253.935 11.62 253.935 10.54C253.935 9.44667 254.155 8.48667 254.595 7.66C255.048 6.82 255.668 6.16 256.455 5.68C257.242 5.2 258.148 4.96 259.175 4.96C260.188 4.96 261.068 5.19333 261.815 5.66C262.575 6.11333 263.162 6.74667 263.575 7.56C263.988 8.37333 264.195 9.3 264.195 10.34C264.195 10.5533 264.128 10.7267 263.995 10.86C263.862 10.98 263.688 11.04 263.475 11.04H254.975V9.76H263.635L262.775 10.38C262.788 9.60667 262.648 8.91333 262.355 8.3C262.062 7.68667 261.642 7.20667 261.095 6.86C260.562 6.51333 259.922 6.34 259.175 6.34C258.415 6.34 257.748 6.52 257.175 6.88C256.602 7.24 256.155 7.74 255.835 8.38C255.528 9.00667 255.375 9.72667 255.375 10.54C255.375 11.3533 255.548 12.0733 255.895 12.7C256.255 13.3267 256.742 13.82 257.355 14.18C257.968 14.54 258.675 14.72 259.475 14.72C259.955 14.72 260.435 14.64 260.915 14.48C261.408 14.3067 261.802 14.0933 262.095 13.84C262.242 13.72 262.408 13.66 262.595 13.66C262.782 13.6467 262.942 13.6933 263.075 13.8C263.248 13.96 263.335 14.1333 263.335 14.32C263.348 14.5067 263.275 14.6667 263.115 14.8C262.675 15.1733 262.115 15.4867 261.435 15.74C260.755 15.98 260.102 16.1 259.475 16.1ZM71.5783 38.1C70.5383 38.1 69.5983 37.86 68.7583 37.38C67.9316 36.9 67.2716 36.2467 66.7783 35.42C66.2983 34.58 66.0516 33.64 66.0383 32.6V23.16C66.0383 22.92 66.1049 22.7333 66.2383 22.6C66.3849 22.4533 66.5783 22.38 66.8183 22.38C67.0449 22.38 67.2249 22.4533 67.3583 22.6C67.5049 22.7333 67.5783 22.92 67.5783 23.16V29.04C68.0183 28.4133 68.5983 27.9133 69.3183 27.54C70.0516 27.1533 70.8649 26.96 71.7583 26.96C72.7849 26.96 73.7049 27.2067 74.5183 27.7C75.3316 28.18 75.9716 28.84 76.4383 29.68C76.9183 30.52 77.1583 31.4667 77.1583 32.52C77.1583 33.5867 76.9116 34.54 76.4183 35.38C75.9383 36.22 75.2783 36.8867 74.4383 37.38C73.5983 37.86 72.6449 38.1 71.5783 38.1ZM71.5783 36.7C72.3516 36.7 73.0449 36.52 73.6583 36.16C74.2716 35.7867 74.7516 35.2867 75.0983 34.66C75.4583 34.0333 75.6383 33.32 75.6383 32.52C75.6383 31.7333 75.4583 31.0267 75.0983 30.4C74.7516 29.76 74.2716 29.26 73.6583 28.9C73.0449 28.54 72.3516 28.36 71.5783 28.36C70.8183 28.36 70.1316 28.54 69.5183 28.9C68.9049 29.26 68.4249 29.76 68.0783 30.4C67.7316 31.0267 67.5583 31.7333 67.5583 32.52C67.5583 33.32 67.7316 34.0333 68.0783 34.66C68.4249 35.2867 68.9049 35.7867 69.5183 36.16C70.1316 36.52 70.8183 36.7 71.5783 36.7ZM85.1389 38.1C84.0589 38.1 83.0989 37.8667 82.2589 37.4C81.4322 36.92 80.7789 36.26 80.2989 35.42C79.8322 34.58 79.5989 33.62 79.5989 32.54C79.5989 31.4467 79.8189 30.4867 80.2589 29.66C80.7122 28.82 81.3322 28.16 82.1189 27.68C82.9056 27.2 83.8122 26.96 84.8389 26.96C85.8522 26.96 86.7322 27.1933 87.4789 27.66C88.2389 28.1133 88.8256 28.7467 89.2389 29.56C89.6522 30.3733 89.8589 31.3 89.8589 32.34C89.8589 32.5533 89.7922 32.7267 89.6589 32.86C89.5256 32.98 89.3522 33.04 89.1389 33.04H80.6389V31.76H89.2989L88.4389 32.38C88.4522 31.6067 88.3122 30.9133 88.0189 30.3C87.7256 29.6867 87.3056 29.2067 86.7589 28.86C86.2256 28.5133 85.5856 28.34 84.8389 28.34C84.0789 28.34 83.4122 28.52 82.8389 28.88C82.2656 29.24 81.8189 29.74 81.4989 30.38C81.1922 31.0067 81.0389 31.7267 81.0389 32.54C81.0389 33.3533 81.2122 34.0733 81.5589 34.7C81.9189 35.3267 82.4056 35.82 83.0189 36.18C83.6322 36.54 84.3389 36.72 85.1389 36.72C85.6189 36.72 86.0989 36.64 86.5789 36.48C87.0722 36.3067 87.4656 36.0933 87.7589 35.84C87.9056 35.72 88.0722 35.66 88.2589 35.66C88.4456 35.6467 88.6056 35.6933 88.7389 35.8C88.9122 35.96 88.9989 36.1333 88.9989 36.32C89.0122 36.5067 88.9389 36.6667 88.7789 36.8C88.3389 37.1733 87.7789 37.4867 87.0989 37.74C86.4189 37.98 85.7656 38.1 85.1389 38.1ZM97.0334 38.1C95.9534 38.1 94.9934 37.8667 94.1534 37.4C93.3268 36.92 92.6734 36.26 92.1934 35.42C91.7268 34.58 91.4934 33.62 91.4934 32.54C91.4934 31.4467 91.7134 30.4867 92.1534 29.66C92.6068 28.82 93.2268 28.16 94.0134 27.68C94.8001 27.2 95.7068 26.96 96.7334 26.96C97.7468 26.96 98.6268 27.1933 99.3734 27.66C100.133 28.1133 100.72 28.7467 101.133 29.56C101.547 30.3733 101.753 31.3 101.753 32.34C101.753 32.5533 101.687 32.7267 101.553 32.86C101.42 32.98 101.247 33.04 101.033 33.04H92.5334V31.76H101.193L100.333 32.38C100.347 31.6067 100.207 30.9133 99.9134 30.3C99.6201 29.6867 99.2001 29.2067 98.6534 28.86C98.1201 28.5133 97.4801 28.34 96.7334 28.34C95.9734 28.34 95.3068 28.52 94.7334 28.88C94.1601 29.24 93.7134 29.74 93.3934 30.38C93.0868 31.0067 92.9334 31.7267 92.9334 32.54C92.9334 33.3533 93.1068 34.0733 93.4534 34.7C93.8134 35.3267 94.3001 35.82 94.9134 36.18C95.5268 36.54 96.2334 36.72 97.0334 36.72C97.5134 36.72 97.9934 36.64 98.4734 36.48C98.9668 36.3067 99.3601 36.0933 99.6534 35.84C99.8001 35.72 99.9668 35.66 100.153 35.66C100.34 35.6467 100.5 35.6933 100.633 35.8C100.807 35.96 100.893 36.1333 100.893 36.32C100.907 36.5067 100.833 36.6667 100.673 36.8C100.233 37.1733 99.6734 37.4867 98.9934 37.74C98.3134 37.98 97.6601 38.1 97.0334 38.1ZM113.739 38C113.512 38 113.325 37.9267 113.179 37.78C113.032 37.6333 112.959 37.4533 112.959 37.24V32.04C112.959 31.2133 112.799 30.5333 112.479 30C112.172 29.4667 111.745 29.0667 111.199 28.8C110.665 28.5333 110.059 28.4 109.379 28.4C108.725 28.4 108.132 28.5267 107.599 28.78C107.079 29.0333 106.665 29.38 106.359 29.82C106.052 30.26 105.899 30.76 105.899 31.32H104.799C104.825 30.48 105.052 29.7333 105.479 29.08C105.905 28.4133 106.472 27.8933 107.179 27.52C107.885 27.1333 108.672 26.94 109.539 26.94C110.485 26.94 111.332 27.14 112.079 27.54C112.825 27.9267 113.412 28.5 113.839 29.26C114.279 30.02 114.499 30.9467 114.499 32.04V37.24C114.499 37.4533 114.425 37.6333 114.279 37.78C114.132 37.9267 113.952 38 113.739 38ZM105.139 38C104.899 38 104.705 37.9333 104.559 37.8C104.425 37.6533 104.359 37.4667 104.359 37.24V27.84C104.359 27.6 104.425 27.4133 104.559 27.28C104.705 27.1333 104.899 27.06 105.139 27.06C105.365 27.06 105.545 27.1333 105.679 27.28C105.825 27.4133 105.899 27.6 105.899 27.84V37.24C105.899 37.4667 105.825 37.6533 105.679 37.8C105.545 37.9333 105.365 38 105.139 38ZM128.733 38.1C127.68 38.1 126.733 37.86 125.893 37.38C125.053 36.8867 124.386 36.22 123.893 35.38C123.413 34.54 123.173 33.5867 123.173 32.52C123.173 31.4667 123.406 30.52 123.873 29.68C124.353 28.84 125 28.18 125.813 27.7C126.626 27.2067 127.546 26.96 128.573 26.96C129.466 26.96 130.273 27.1533 130.993 27.54C131.713 27.9133 132.293 28.4133 132.733 29.04V23.16C132.733 22.92 132.806 22.7333 132.953 22.6C133.1 22.4533 133.286 22.38 133.513 22.38C133.74 22.38 133.926 22.4533 134.073 22.6C134.22 22.7333 134.293 22.92 134.293 23.16V32.6C134.266 33.64 134.006 34.58 133.513 35.42C133.033 36.2467 132.373 36.9 131.533 37.38C130.706 37.86 129.773 38.1 128.733 38.1ZM128.733 36.7C129.506 36.7 130.193 36.52 130.793 36.16C131.406 35.7867 131.886 35.2867 132.233 34.66C132.593 34.0333 132.773 33.32 132.773 32.52C132.773 31.7333 132.593 31.0267 132.233 30.4C131.886 29.76 131.406 29.26 130.793 28.9C130.193 28.54 129.506 28.36 128.733 28.36C127.973 28.36 127.286 28.54 126.673 28.9C126.06 29.26 125.573 29.76 125.213 30.4C124.853 31.0267 124.673 31.7333 124.673 32.52C124.673 33.32 124.853 34.0333 125.213 34.66C125.573 35.2867 126.06 35.7867 126.673 36.16C127.286 36.52 127.973 36.7 128.733 36.7ZM138.994 38C138.754 38 138.56 37.9333 138.414 37.8C138.28 37.6533 138.214 37.46 138.214 37.22V27.84C138.214 27.6 138.28 27.4133 138.414 27.28C138.56 27.1333 138.754 27.06 138.994 27.06C139.22 27.06 139.4 27.1333 139.534 27.28C139.68 27.4133 139.754 27.6 139.754 27.84V37.22C139.754 37.46 139.68 37.6533 139.534 37.8C139.4 37.9333 139.22 38 138.994 38ZM138.974 24.98C138.68 24.98 138.427 24.8733 138.214 24.66C138 24.4467 137.894 24.1867 137.894 23.88C137.894 23.5467 138 23.2867 138.214 23.1C138.44 22.9 138.7 22.8 138.994 22.8C139.274 22.8 139.52 22.9 139.734 23.1C139.96 23.2867 140.074 23.5467 140.074 23.88C140.074 24.1867 139.967 24.4467 139.754 24.66C139.54 24.8733 139.28 24.98 138.974 24.98ZM147.495 38.1C146.708 38.1 145.928 37.9667 145.155 37.7C144.382 37.4333 143.755 37.0333 143.275 36.5C143.128 36.34 143.068 36.16 143.095 35.96C143.122 35.76 143.222 35.5867 143.395 35.44C143.582 35.3067 143.775 35.2533 143.975 35.28C144.175 35.3067 144.342 35.3933 144.475 35.54C144.795 35.9133 145.215 36.2 145.735 36.4C146.268 36.6 146.855 36.7 147.495 36.7C148.482 36.7 149.195 36.5333 149.635 36.2C150.075 35.8533 150.302 35.44 150.315 34.96C150.315 34.48 150.088 34.0867 149.635 33.78C149.182 33.46 148.435 33.2133 147.395 33.04C146.048 32.8267 145.062 32.4533 144.435 31.92C143.808 31.3867 143.495 30.7533 143.495 30.02C143.495 29.34 143.675 28.7733 144.035 28.32C144.395 27.8667 144.875 27.5267 145.475 27.3C146.075 27.0733 146.735 26.96 147.455 26.96C148.348 26.96 149.115 27.1133 149.755 27.42C150.408 27.7267 150.935 28.14 151.335 28.66C151.468 28.8333 151.522 29.0133 151.495 29.2C151.468 29.3867 151.362 29.54 151.175 29.66C151.015 29.7533 150.828 29.7867 150.615 29.76C150.415 29.72 150.242 29.62 150.095 29.46C149.762 29.0733 149.375 28.7933 148.935 28.62C148.495 28.4333 147.988 28.34 147.415 28.34C146.682 28.34 146.095 28.4933 145.655 28.8C145.215 29.0933 144.995 29.4667 144.995 29.92C144.995 30.2267 145.075 30.4933 145.235 30.72C145.408 30.9467 145.695 31.1467 146.095 31.32C146.508 31.4933 147.082 31.64 147.815 31.76C148.815 31.92 149.602 32.16 150.175 32.48C150.762 32.7867 151.175 33.1533 151.415 33.58C151.668 33.9933 151.795 34.4467 151.795 34.94C151.795 35.5667 151.608 36.12 151.235 36.6C150.875 37.0667 150.368 37.4333 149.715 37.7C149.075 37.9667 148.335 38.1 147.495 38.1ZM159.336 38.1C158.283 38.1 157.343 37.86 156.516 37.38C155.703 36.8867 155.056 36.22 154.576 35.38C154.11 34.54 153.876 33.5933 153.876 32.54C153.876 31.4733 154.103 30.52 154.556 29.68C155.01 28.84 155.63 28.18 156.416 27.7C157.203 27.2067 158.11 26.96 159.136 26.96C159.95 26.96 160.696 27.12 161.376 27.44C162.07 27.76 162.676 28.24 163.196 28.88C163.343 29.04 163.396 29.2133 163.356 29.4C163.316 29.5733 163.203 29.7267 163.016 29.86C162.87 29.9667 162.703 30.0067 162.516 29.98C162.343 29.94 162.19 29.84 162.056 29.68C161.283 28.8 160.31 28.36 159.136 28.36C158.39 28.36 157.73 28.54 157.156 28.9C156.596 29.26 156.156 29.7533 155.836 30.38C155.53 31.0067 155.376 31.7267 155.376 32.54C155.376 33.34 155.543 34.0533 155.876 34.68C156.21 35.3067 156.676 35.8 157.276 36.16C157.876 36.52 158.563 36.7 159.336 36.7C159.856 36.7 160.33 36.6333 160.756 36.5C161.196 36.3533 161.583 36.1333 161.916 35.84C162.076 35.7067 162.243 35.6333 162.416 35.62C162.59 35.6067 162.75 35.66 162.896 35.78C163.056 35.9267 163.143 36.0933 163.156 36.28C163.183 36.4667 163.123 36.6267 162.976 36.76C162.003 37.6533 160.79 38.1 159.336 38.1ZM171.331 38.1C170.264 38.1 169.311 37.86 168.471 37.38C167.631 36.9 166.971 36.24 166.491 35.4C166.011 34.56 165.771 33.6067 165.771 32.54C165.771 31.46 166.011 30.5 166.491 29.66C166.971 28.82 167.631 28.16 168.471 27.68C169.311 27.2 170.264 26.96 171.331 26.96C172.397 26.96 173.344 27.2 174.171 27.68C175.011 28.16 175.671 28.82 176.151 29.66C176.631 30.5 176.877 31.46 176.891 32.54C176.891 33.6067 176.644 34.56 176.151 35.4C175.671 36.24 175.011 36.9 174.171 37.38C173.344 37.86 172.397 38.1 171.331 38.1ZM171.331 36.7C172.104 36.7 172.797 36.52 173.411 36.16C174.024 35.8 174.504 35.3067 174.851 34.68C175.197 34.0533 175.371 33.34 175.371 32.54C175.371 31.74 175.197 31.0267 174.851 30.4C174.504 29.76 174.024 29.26 173.411 28.9C172.797 28.54 172.104 28.36 171.331 28.36C170.557 28.36 169.864 28.54 169.251 28.9C168.637 29.26 168.151 29.76 167.791 30.4C167.444 31.0267 167.271 31.74 167.271 32.54C167.271 33.34 167.444 34.0533 167.791 34.68C168.151 35.3067 168.637 35.8 169.251 36.16C169.864 36.52 170.557 36.7 171.331 36.7ZM183.02 38C182.7 38 182.46 37.8267 182.3 37.48L177.86 28.06C177.78 27.8867 177.774 27.7133 177.84 27.54C177.907 27.3667 178.04 27.2333 178.24 27.14C178.427 27.0467 178.607 27.0333 178.78 27.1C178.954 27.1667 179.087 27.2867 179.18 27.46L183.44 36.68H182.62L186.82 27.46C186.9 27.2733 187.034 27.1533 187.22 27.1C187.42 27.0333 187.614 27.04 187.8 27.12C187.987 27.2133 188.114 27.3533 188.18 27.54C188.247 27.7133 188.24 27.88 188.16 28.04L183.78 37.48C183.62 37.8267 183.367 38 183.02 38ZM194.905 38.1C193.825 38.1 192.865 37.8667 192.025 37.4C191.198 36.92 190.545 36.26 190.065 35.42C189.598 34.58 189.365 33.62 189.365 32.54C189.365 31.4467 189.585 30.4867 190.025 29.66C190.478 28.82 191.098 28.16 191.885 27.68C192.671 27.2 193.578 26.96 194.605 26.96C195.618 26.96 196.498 27.1933 197.245 27.66C198.005 28.1133 198.591 28.7467 199.005 29.56C199.418 30.3733 199.625 31.3 199.625 32.34C199.625 32.5533 199.558 32.7267 199.425 32.86C199.291 32.98 199.118 33.04 198.905 33.04H190.405V31.76H199.065L198.205 32.38C198.218 31.6067 198.078 30.9133 197.785 30.3C197.491 29.6867 197.071 29.2067 196.525 28.86C195.991 28.5133 195.351 28.34 194.605 28.34C193.845 28.34 193.178 28.52 192.605 28.88C192.031 29.24 191.585 29.74 191.265 30.38C190.958 31.0067 190.805 31.7267 190.805 32.54C190.805 33.3533 190.978 34.0733 191.325 34.7C191.685 35.3267 192.171 35.82 192.785 36.18C193.398 36.54 194.105 36.72 194.905 36.72C195.385 36.72 195.865 36.64 196.345 36.48C196.838 36.3067 197.231 36.0933 197.525 35.84C197.671 35.72 197.838 35.66 198.025 35.66C198.211 35.6467 198.371 35.6933 198.505 35.8C198.678 35.96 198.765 36.1333 198.765 36.32C198.778 36.5067 198.705 36.6667 198.545 36.8C198.105 37.1733 197.545 37.4867 196.865 37.74C196.185 37.98 195.531 38.1 194.905 38.1ZM202.87 31.26C202.91 30.4333 203.123 29.6933 203.51 29.04C203.91 28.3867 204.423 27.8733 205.05 27.5C205.69 27.1267 206.396 26.94 207.17 26.94C207.783 26.94 208.256 27.0267 208.59 27.2C208.923 27.3733 209.05 27.6267 208.97 27.96C208.916 28.16 208.823 28.2933 208.69 28.36C208.57 28.4267 208.416 28.4533 208.23 28.44C208.056 28.4267 207.856 28.4133 207.63 28.4C206.883 28.3333 206.216 28.4133 205.63 28.64C205.056 28.8533 204.596 29.1867 204.25 29.64C203.916 30.0933 203.75 30.6333 203.75 31.26H202.87ZM202.99 38C202.75 38 202.563 37.9333 202.43 37.8C202.296 37.6667 202.23 37.48 202.23 37.24V27.82C202.23 27.58 202.296 27.3933 202.43 27.26C202.563 27.1267 202.75 27.06 202.99 27.06C203.23 27.06 203.416 27.1267 203.55 27.26C203.683 27.3933 203.75 27.58 203.75 27.82V37.24C203.75 37.48 203.683 37.6667 203.55 37.8C203.416 37.9333 203.23 38 202.99 38ZM215.549 38.1C214.469 38.1 213.509 37.8667 212.669 37.4C211.842 36.92 211.189 36.26 210.709 35.42C210.242 34.58 210.009 33.62 210.009 32.54C210.009 31.4467 210.229 30.4867 210.669 29.66C211.122 28.82 211.742 28.16 212.529 27.68C213.316 27.2 214.222 26.96 215.249 26.96C216.262 26.96 217.142 27.1933 217.889 27.66C218.649 28.1133 219.236 28.7467 219.649 29.56C220.062 30.3733 220.269 31.3 220.269 32.34C220.269 32.5533 220.202 32.7267 220.069 32.86C219.936 32.98 219.762 33.04 219.549 33.04H211.049V31.76H219.709L218.849 32.38C218.862 31.6067 218.722 30.9133 218.429 30.3C218.136 29.6867 217.716 29.2067 217.169 28.86C216.636 28.5133 215.996 28.34 215.249 28.34C214.489 28.34 213.822 28.52 213.249 28.88C212.676 29.24 212.229 29.74 211.909 30.38C211.602 31.0067 211.449 31.7267 211.449 32.54C211.449 33.3533 211.622 34.0733 211.969 34.7C212.329 35.3267 212.816 35.82 213.429 36.18C214.042 36.54 214.749 36.72 215.549 36.72C216.029 36.72 216.509 36.64 216.989 36.48C217.482 36.3067 217.876 36.0933 218.169 35.84C218.316 35.72 218.482 35.66 218.669 35.66C218.856 35.6467 219.016 35.6933 219.149 35.8C219.322 35.96 219.409 36.1333 219.409 36.32C219.422 36.5067 219.349 36.6667 219.189 36.8C218.749 37.1733 218.189 37.4867 217.509 37.74C216.829 37.98 216.176 38.1 215.549 38.1ZM227.464 38.1C226.41 38.1 225.464 37.86 224.624 37.38C223.784 36.8867 223.117 36.22 222.624 35.38C222.144 34.54 221.904 33.5867 221.904 32.52C221.904 31.4667 222.137 30.52 222.604 29.68C223.084 28.84 223.73 28.18 224.544 27.7C225.357 27.2067 226.277 26.96 227.304 26.96C228.197 26.96 229.004 27.1533 229.724 27.54C230.444 27.9133 231.024 28.4133 231.464 29.04V23.16C231.464 22.92 231.537 22.7333 231.684 22.6C231.83 22.4533 232.017 22.38 232.244 22.38C232.47 22.38 232.657 22.4533 232.804 22.6C232.95 22.7333 233.024 22.92 233.024 23.16V32.6C232.997 33.64 232.737 34.58 232.244 35.42C231.764 36.2467 231.104 36.9 230.264 37.38C229.437 37.86 228.504 38.1 227.464 38.1ZM227.464 36.7C228.237 36.7 228.924 36.52 229.524 36.16C230.137 35.7867 230.617 35.2867 230.964 34.66C231.324 34.0333 231.504 33.32 231.504 32.52C231.504 31.7333 231.324 31.0267 230.964 30.4C230.617 29.76 230.137 29.26 229.524 28.9C228.924 28.54 228.237 28.36 227.464 28.36C226.704 28.36 226.017 28.54 225.404 28.9C224.79 29.26 224.304 29.76 223.944 30.4C223.584 31.0267 223.404 31.7333 223.404 32.52C223.404 33.32 223.584 34.0333 223.944 34.66C224.304 35.2867 224.79 35.7867 225.404 36.16C226.017 36.52 226.704 36.7 227.464 36.7ZM247.304 38.1C246.277 38.1 245.357 37.86 244.544 37.38C243.73 36.8867 243.084 36.22 242.604 35.38C242.137 34.54 241.904 33.5933 241.904 32.54C241.904 31.4733 242.144 30.52 242.624 29.68C243.117 28.84 243.784 28.18 244.624 27.7C245.464 27.2067 246.41 26.96 247.464 26.96C248.517 26.96 249.457 27.2067 250.284 27.7C251.124 28.18 251.784 28.84 252.264 29.68C252.757 30.52 253.01 31.4733 253.024 32.54L252.404 33.02C252.404 33.98 252.177 34.8467 251.724 35.62C251.284 36.38 250.677 36.9867 249.904 37.44C249.144 37.88 248.277 38.1 247.304 38.1ZM247.464 36.7C248.237 36.7 248.924 36.52 249.524 36.16C250.137 35.8 250.617 35.3067 250.964 34.68C251.324 34.04 251.504 33.3267 251.504 32.54C251.504 31.74 251.324 31.0267 250.964 30.4C250.617 29.7733 250.137 29.28 249.524 28.92C248.924 28.5467 248.237 28.36 247.464 28.36C246.704 28.36 246.017 28.5467 245.404 28.92C244.79 29.28 244.304 29.7733 243.944 30.4C243.584 31.0267 243.404 31.74 243.404 32.54C243.404 33.3267 243.584 34.04 243.944 34.68C244.304 35.3067 244.79 35.8 245.404 36.16C246.017 36.52 246.704 36.7 247.464 36.7ZM252.244 38C252.017 38 251.83 37.9333 251.684 37.8C251.537 37.6533 251.464 37.4667 251.464 37.24V33.82L251.844 32.24L253.024 32.54V37.24C253.024 37.4667 252.95 37.6533 252.804 37.8C252.657 37.9333 252.47 38 252.244 38ZM259.839 38.1C259.052 38.1 258.272 37.9667 257.499 37.7C256.725 37.4333 256.099 37.0333 255.619 36.5C255.472 36.34 255.412 36.16 255.439 35.96C255.465 35.76 255.565 35.5867 255.739 35.44C255.925 35.3067 256.119 35.2533 256.319 35.28C256.519 35.3067 256.685 35.3933 256.819 35.54C257.139 35.9133 257.559 36.2 258.079 36.4C258.612 36.6 259.199 36.7 259.839 36.7C260.825 36.7 261.539 36.5333 261.979 36.2C262.419 35.8533 262.645 35.44 262.659 34.96C262.659 34.48 262.432 34.0867 261.979 33.78C261.525 33.46 260.779 33.2133 259.739 33.04C258.392 32.8267 257.405 32.4533 256.779 31.92C256.152 31.3867 255.839 30.7533 255.839 30.02C255.839 29.34 256.019 28.7733 256.379 28.32C256.739 27.8667 257.219 27.5267 257.819 27.3C258.419 27.0733 259.079 26.96 259.799 26.96C260.692 26.96 261.459 27.1133 262.099 27.42C262.752 27.7267 263.279 28.14 263.679 28.66C263.812 28.8333 263.865 29.0133 263.839 29.2C263.812 29.3867 263.705 29.54 263.519 29.66C263.359 29.7533 263.172 29.7867 262.959 29.76C262.759 29.72 262.585 29.62 262.439 29.46C262.105 29.0733 261.719 28.7933 261.279 28.62C260.839 28.4333 260.332 28.34 259.759 28.34C259.025 28.34 258.439 28.4933 257.999 28.8C257.559 29.0933 257.339 29.4667 257.339 29.92C257.339 30.2267 257.419 30.4933 257.579 30.72C257.752 30.9467 258.039 31.1467 258.439 31.32C258.852 31.4933 259.425 31.64 260.159 31.76C261.159 31.92 261.945 32.16 262.519 32.48C263.105 32.7867 263.519 33.1533 263.759 33.58C264.012 33.9933 264.139 34.4467 264.139 34.94C264.139 35.5667 263.952 36.12 263.579 36.6C263.219 37.0667 262.712 37.4333 262.059 37.7C261.419 37.9667 260.679 38.1 259.839 38.1ZM106.034 53.26C106.074 52.4333 106.287 51.6933 106.674 51.04C107.074 50.3867 107.587 49.8733 108.214 49.5C108.854 49.1267 109.56 48.94 110.334 48.94C110.947 48.94 111.42 49.0267 111.754 49.2C112.087 49.3733 112.214 49.6267 112.134 49.96C112.08 50.16 111.987 50.2933 111.854 50.36C111.734 50.4267 111.58 50.4533 111.394 50.44C111.22 50.4267 111.02 50.4133 110.794 50.4C110.047 50.3333 109.38 50.4133 108.794 50.64C108.22 50.8533 107.76 51.1867 107.414 51.64C107.08 52.0933 106.914 52.6333 106.914 53.26H106.034ZM106.154 60C105.914 60 105.727 59.9333 105.594 59.8C105.46 59.6667 105.394 59.48 105.394 59.24V49.82C105.394 49.58 105.46 49.3933 105.594 49.26C105.727 49.1267 105.914 49.06 106.154 49.06C106.394 49.06 106.58 49.1267 106.714 49.26C106.847 49.3933 106.914 49.58 106.914 49.82V59.24C106.914 59.48 106.847 59.6667 106.714 59.8C106.58 59.9333 106.394 60 106.154 60ZM118.713 60.1C117.633 60.1 116.673 59.8667 115.833 59.4C115.006 58.92 114.353 58.26 113.873 57.42C113.406 56.58 113.173 55.62 113.173 54.54C113.173 53.4467 113.393 52.4867 113.833 51.66C114.286 50.82 114.906 50.16 115.693 49.68C116.48 49.2 117.386 48.96 118.413 48.96C119.426 48.96 120.306 49.1933 121.053 49.66C121.813 50.1133 122.4 50.7467 122.813 51.56C123.226 52.3733 123.433 53.3 123.433 54.34C123.433 54.5533 123.366 54.7267 123.233 54.86C123.1 54.98 122.926 55.04 122.713 55.04H114.213V53.76H122.873L122.013 54.38C122.026 53.6067 121.886 52.9133 121.593 52.3C121.3 51.6867 120.88 51.2067 120.333 50.86C119.8 50.5133 119.16 50.34 118.413 50.34C117.653 50.34 116.986 50.52 116.413 50.88C115.84 51.24 115.393 51.74 115.073 52.38C114.766 53.0067 114.613 53.7267 114.613 54.54C114.613 55.3533 114.786 56.0733 115.133 56.7C115.493 57.3267 115.98 57.82 116.593 58.18C117.206 58.54 117.913 58.72 118.713 58.72C119.193 58.72 119.673 58.64 120.153 58.48C120.646 58.3067 121.04 58.0933 121.333 57.84C121.48 57.72 121.646 57.66 121.833 57.66C122.02 57.6467 122.18 57.6933 122.313 57.8C122.486 57.96 122.573 58.1333 122.573 58.32C122.586 58.5067 122.513 58.6667 122.353 58.8C121.913 59.1733 121.353 59.4867 120.673 59.74C119.993 59.98 119.34 60.1 118.713 60.1ZM130.528 60.1C129.474 60.1 128.534 59.86 127.708 59.38C126.894 58.8867 126.248 58.22 125.768 57.38C125.301 56.54 125.068 55.5933 125.068 54.54C125.068 53.4733 125.294 52.52 125.748 51.68C126.201 50.84 126.821 50.18 127.608 49.7C128.394 49.2067 129.301 48.96 130.328 48.96C131.141 48.96 131.888 49.12 132.568 49.44C133.261 49.76 133.868 50.24 134.388 50.88C134.534 51.04 134.588 51.2133 134.548 51.4C134.508 51.5733 134.394 51.7267 134.208 51.86C134.061 51.9667 133.894 52.0067 133.708 51.98C133.534 51.94 133.381 51.84 133.248 51.68C132.474 50.8 131.501 50.36 130.328 50.36C129.581 50.36 128.921 50.54 128.348 50.9C127.788 51.26 127.348 51.7533 127.028 52.38C126.721 53.0067 126.568 53.7267 126.568 54.54C126.568 55.34 126.734 56.0533 127.068 56.68C127.401 57.3067 127.868 57.8 128.468 58.16C129.068 58.52 129.754 58.7 130.528 58.7C131.048 58.7 131.521 58.6333 131.948 58.5C132.388 58.3533 132.774 58.1333 133.108 57.84C133.268 57.7067 133.434 57.6333 133.608 57.62C133.781 57.6067 133.941 57.66 134.088 57.78C134.248 57.9267 134.334 58.0933 134.348 58.28C134.374 58.4667 134.314 58.6267 134.168 58.76C133.194 59.6533 131.981 60.1 130.528 60.1ZM142.502 60.1C141.422 60.1 140.462 59.8667 139.622 59.4C138.796 58.92 138.142 58.26 137.662 57.42C137.196 56.58 136.962 55.62 136.962 54.54C136.962 53.4467 137.182 52.4867 137.622 51.66C138.076 50.82 138.696 50.16 139.482 49.68C140.269 49.2 141.176 48.96 142.202 48.96C143.216 48.96 144.096 49.1933 144.842 49.66C145.602 50.1133 146.189 50.7467 146.602 51.56C147.016 52.3733 147.222 53.3 147.222 54.34C147.222 54.5533 147.156 54.7267 147.022 54.86C146.889 54.98 146.716 55.04 146.502 55.04H138.002V53.76H146.662L145.802 54.38C145.816 53.6067 145.676 52.9133 145.382 52.3C145.089 51.6867 144.669 51.2067 144.122 50.86C143.589 50.5133 142.949 50.34 142.202 50.34C141.442 50.34 140.776 50.52 140.202 50.88C139.629 51.24 139.182 51.74 138.862 52.38C138.556 53.0067 138.402 53.7267 138.402 54.54C138.402 55.3533 138.576 56.0733 138.922 56.7C139.282 57.3267 139.769 57.82 140.382 58.18C140.996 58.54 141.702 58.72 142.502 58.72C142.982 58.72 143.462 58.64 143.942 58.48C144.436 58.3067 144.829 58.0933 145.122 57.84C145.269 57.72 145.436 57.66 145.622 57.66C145.809 57.6467 145.969 57.6933 146.102 57.8C146.276 57.96 146.362 58.1333 146.362 58.32C146.376 58.5067 146.302 58.6667 146.142 58.8C145.702 59.1733 145.142 59.4867 144.462 59.74C143.782 59.98 143.129 60.1 142.502 60.1ZM159.207 60C158.981 60 158.794 59.9267 158.647 59.78C158.501 59.6333 158.427 59.4533 158.427 59.24V54.04C158.427 53.2133 158.267 52.5333 157.947 52C157.641 51.4667 157.214 51.0667 156.667 50.8C156.134 50.5333 155.527 50.4 154.847 50.4C154.194 50.4 153.601 50.5267 153.067 50.78C152.547 51.0333 152.134 51.38 151.827 51.82C151.521 52.26 151.367 52.76 151.367 53.32H150.267C150.294 52.48 150.521 51.7333 150.947 51.08C151.374 50.4133 151.941 49.8933 152.647 49.52C153.354 49.1333 154.141 48.94 155.007 48.94C155.954 48.94 156.801 49.14 157.547 49.54C158.294 49.9267 158.881 50.5 159.307 51.26C159.747 52.02 159.967 52.9467 159.967 54.04V59.24C159.967 59.4533 159.894 59.6333 159.747 59.78C159.601 59.9267 159.421 60 159.207 60ZM150.607 60C150.367 60 150.174 59.9333 150.027 59.8C149.894 59.6533 149.827 59.4667 149.827 59.24V49.84C149.827 49.6 149.894 49.4133 150.027 49.28C150.174 49.1333 150.367 49.06 150.607 49.06C150.834 49.06 151.014 49.1333 151.147 49.28C151.294 49.4133 151.367 49.6 151.367 49.84V59.24C151.367 59.4667 151.294 59.6533 151.147 59.8C151.014 59.9333 150.834 60 150.607 60ZM167.643 60C166.936 60 166.303 59.8333 165.743 59.5C165.196 59.1667 164.763 58.7133 164.443 58.14C164.123 57.5533 163.963 56.8867 163.963 56.14V46.36C163.963 46.1333 164.029 45.9467 164.163 45.8C164.309 45.6533 164.496 45.58 164.723 45.58C164.949 45.58 165.136 45.6533 165.283 45.8C165.429 45.9467 165.503 46.1333 165.503 46.36V56.14C165.503 56.82 165.703 57.38 166.103 57.82C166.503 58.2467 167.016 58.46 167.643 58.46H168.183C168.396 58.46 168.569 58.5333 168.703 58.68C168.836 58.8267 168.903 59.0133 168.903 59.24C168.903 59.4667 168.823 59.6533 168.663 59.8C168.503 59.9333 168.303 60 168.063 60H167.643ZM162.663 50.8C162.463 50.8 162.296 50.74 162.163 50.62C162.029 50.4867 161.963 50.3267 161.963 50.14C161.963 49.94 162.029 49.78 162.163 49.66C162.296 49.5267 162.463 49.46 162.663 49.46H167.763C167.963 49.46 168.129 49.5267 168.263 49.66C168.396 49.78 168.463 49.94 168.463 50.14C168.463 50.3267 168.396 50.4867 168.263 50.62C168.129 50.74 167.963 50.8 167.763 50.8H162.663ZM173.769 60C173.236 60 172.756 59.8533 172.329 59.56C171.916 59.2667 171.589 58.86 171.349 58.34C171.123 57.82 171.009 57.22 171.009 56.54V45.14C171.009 44.9133 171.076 44.7333 171.209 44.6C171.356 44.4533 171.543 44.38 171.769 44.38C171.996 44.38 172.176 44.4533 172.309 44.6C172.456 44.7333 172.529 44.9133 172.529 45.14V56.54C172.529 57.1133 172.643 57.58 172.869 57.94C173.109 58.3 173.409 58.48 173.769 58.48H174.269C174.469 58.48 174.629 58.5533 174.749 58.7C174.869 58.8333 174.929 59.0133 174.929 59.24C174.929 59.4667 174.843 59.6533 174.669 59.8C174.509 59.9333 174.296 60 174.029 60H173.769ZM178.934 64.76C178.827 64.76 178.707 64.7333 178.574 64.68C178.121 64.48 177.994 64.16 178.194 63.72L184.654 49.48C184.854 49.0533 185.174 48.9333 185.614 49.12C186.067 49.3067 186.194 49.62 185.994 50.06L179.514 64.3C179.381 64.6067 179.187 64.76 178.934 64.76ZM181.154 59.66C180.954 59.7533 180.767 59.7733 180.594 59.72C180.421 59.6533 180.281 59.52 180.174 59.32L175.714 50.08C175.621 49.88 175.607 49.6933 175.674 49.52C175.741 49.3467 175.874 49.2133 176.074 49.12C176.274 49.0267 176.461 49.0133 176.634 49.08C176.807 49.1333 176.941 49.26 177.034 49.46L181.414 58.7C181.521 58.9 181.554 59.0867 181.514 59.26C181.474 59.4333 181.354 59.5667 181.154 59.66ZM198.69 60.1C197.664 60.1 196.744 59.86 195.93 59.38C195.117 58.8867 194.47 58.22 193.99 57.38C193.524 56.54 193.29 55.5933 193.29 54.54C193.29 53.4733 193.53 52.52 194.01 51.68C194.504 50.84 195.17 50.18 196.01 49.7C196.85 49.2067 197.797 48.96 198.85 48.96C199.904 48.96 200.844 49.2067 201.67 49.7C202.51 50.18 203.17 50.84 203.65 51.68C204.144 52.52 204.397 53.4733 204.41 54.54L203.79 55.02C203.79 55.98 203.564 56.8467 203.11 57.62C202.67 58.38 202.064 58.9867 201.29 59.44C200.53 59.88 199.664 60.1 198.69 60.1ZM198.85 58.7C199.624 58.7 200.31 58.52 200.91 58.16C201.524 57.8 202.004 57.3067 202.35 56.68C202.71 56.04 202.89 55.3267 202.89 54.54C202.89 53.74 202.71 53.0267 202.35 52.4C202.004 51.7733 201.524 51.28 200.91 50.92C200.31 50.5467 199.624 50.36 198.85 50.36C198.09 50.36 197.404 50.5467 196.79 50.92C196.177 51.28 195.69 51.7733 195.33 52.4C194.97 53.0267 194.79 53.74 194.79 54.54C194.79 55.3267 194.97 56.04 195.33 56.68C195.69 57.3067 196.177 57.8 196.79 58.16C197.404 58.52 198.09 58.7 198.85 58.7ZM203.63 60C203.404 60 203.217 59.9333 203.07 59.8C202.924 59.6533 202.85 59.4667 202.85 59.24V55.82L203.23 54.24L204.41 54.54V59.24C204.41 59.4667 204.337 59.6533 204.19 59.8C204.044 59.9333 203.857 60 203.63 60ZM211.225 60.1C210.439 60.1 209.659 59.9667 208.885 59.7C208.112 59.4333 207.485 59.0333 207.005 58.5C206.859 58.34 206.799 58.16 206.825 57.96C206.852 57.76 206.952 57.5867 207.125 57.44C207.312 57.3067 207.505 57.2533 207.705 57.28C207.905 57.3067 208.072 57.3933 208.205 57.54C208.525 57.9133 208.945 58.2 209.465 58.4C209.999 58.6 210.585 58.7 211.225 58.7C212.212 58.7 212.925 58.5333 213.365 58.2C213.805 57.8533 214.032 57.44 214.045 56.96C214.045 56.48 213.819 56.0867 213.365 55.78C212.912 55.46 212.165 55.2133 211.125 55.04C209.779 54.8267 208.792 54.4533 208.165 53.92C207.539 53.3867 207.225 52.7533 207.225 52.02C207.225 51.34 207.405 50.7733 207.765 50.32C208.125 49.8667 208.605 49.5267 209.205 49.3C209.805 49.0733 210.465 48.96 211.185 48.96C212.079 48.96 212.845 49.1133 213.485 49.42C214.139 49.7267 214.665 50.14 215.065 50.66C215.199 50.8333 215.252 51.0133 215.225 51.2C215.199 51.3867 215.092 51.54 214.905 51.66C214.745 51.7533 214.559 51.7867 214.345 51.76C214.145 51.72 213.972 51.62 213.825 51.46C213.492 51.0733 213.105 50.7933 212.665 50.62C212.225 50.4333 211.719 50.34 211.145 50.34C210.412 50.34 209.825 50.4933 209.385 50.8C208.945 51.0933 208.725 51.4667 208.725 51.92C208.725 52.2267 208.805 52.4933 208.965 52.72C209.139 52.9467 209.425 53.1467 209.825 53.32C210.239 53.4933 210.812 53.64 211.545 53.76C212.545 53.92 213.332 54.16 213.905 54.48C214.492 54.7867 214.905 55.1533 215.145 55.58C215.399 55.9933 215.525 56.4467 215.525 56.94C215.525 57.5667 215.339 58.12 214.965 58.6C214.605 59.0667 214.099 59.4333 213.445 59.7C212.805 59.9667 212.065 60.1 211.225 60.1ZM224.446 60C224.233 60 224.046 59.9267 223.886 59.78C223.739 59.6333 223.666 59.4467 223.666 59.22C223.666 59.02 223.739 58.84 223.886 58.68L229.946 51.52C230.279 51.16 230.546 50.76 230.746 50.32C230.946 49.8667 231.046 49.4467 231.046 49.06C231.046 48.4333 230.919 47.88 230.666 47.4C230.426 46.92 230.079 46.5467 229.626 46.28C229.186 46 228.679 45.86 228.106 45.86C227.546 45.86 227.033 46.0067 226.566 46.3C226.113 46.58 225.753 46.96 225.486 47.44C225.233 47.92 225.106 48.46 225.106 49.06C225.106 49.2733 225.033 49.4533 224.886 49.6C224.739 49.7467 224.553 49.82 224.326 49.82C224.113 49.82 223.926 49.7467 223.766 49.6C223.619 49.4533 223.546 49.2733 223.546 49.06C223.546 48.1667 223.746 47.3667 224.146 46.66C224.546 45.9533 225.086 45.3933 225.766 44.98C226.459 44.5667 227.239 44.36 228.106 44.36C228.973 44.36 229.739 44.56 230.406 44.96C231.086 45.36 231.613 45.9133 231.986 46.62C232.373 47.3267 232.566 48.14 232.566 49.06C232.566 49.5 232.493 49.92 232.346 50.32C232.213 50.72 232.026 51.1067 231.786 51.48C231.546 51.84 231.286 52.18 231.006 52.5L225.886 58.44H232.146C232.359 58.44 232.539 58.52 232.686 58.68C232.846 58.84 232.926 59.02 232.926 59.22C232.926 59.4467 232.846 59.6333 232.686 59.78C232.539 59.9267 232.359 60 232.146 60H224.446ZM239.567 60C238.581 60 237.734 59.6867 237.027 59.06C236.321 58.4333 235.781 57.54 235.407 56.38C235.047 55.2067 234.867 53.8 234.867 52.16C234.867 50.5467 235.047 49.1533 235.407 47.98C235.781 46.8067 236.321 45.9067 237.027 45.28C237.734 44.6533 238.581 44.34 239.567 44.34C240.581 44.34 241.434 44.66 242.127 45.3C242.834 45.9267 243.367 46.8267 243.727 48C244.101 49.1733 244.287 50.56 244.287 52.16C244.287 53.7867 244.101 55.1867 243.727 56.36C243.367 57.52 242.834 58.42 242.127 59.06C241.434 59.6867 240.581 60 239.567 60ZM239.567 58.44C240.287 58.44 240.881 58.1733 241.347 57.64C241.814 57.0933 242.161 56.3467 242.387 55.4C242.614 54.4533 242.727 53.3733 242.727 52.16C242.727 50.96 242.607 49.8933 242.367 48.96C242.141 48.0133 241.794 47.2667 241.327 46.72C240.861 46.1733 240.274 45.9 239.567 45.9C238.861 45.9 238.274 46.1733 237.807 46.72C237.354 47.2533 237.007 47.9933 236.767 48.94C236.541 49.8867 236.427 50.96 236.427 52.16C236.427 53.3867 236.541 54.4733 236.767 55.42C237.007 56.3533 237.354 57.0933 237.807 57.64C238.274 58.1733 238.861 58.44 239.567 58.44ZM249.272 60C249.059 60 248.872 59.9267 248.712 59.78C248.566 59.6333 248.492 59.4467 248.492 59.22V46.22L246.492 46.92C246.346 46.9867 246.212 47.02 246.092 47.02C245.866 47.02 245.679 46.9467 245.532 46.8C245.386 46.6533 245.312 46.4733 245.312 46.26C245.312 46.1 245.346 45.9533 245.412 45.82C245.492 45.6867 245.626 45.5867 245.812 45.52L248.892 44.46C248.959 44.4333 249.026 44.4133 249.092 44.4C249.172 44.3733 249.239 44.36 249.292 44.36C249.519 44.36 249.699 44.44 249.832 44.6C249.979 44.7467 250.052 44.9267 250.052 45.14V59.22C250.052 59.4467 249.979 59.6333 249.832 59.78C249.686 59.9267 249.499 60 249.272 60ZM261.011 60C260.811 60 260.637 59.9267 260.491 59.78C260.344 59.6333 260.271 59.4467 260.271 59.22V56.26H253.111C252.897 56.26 252.717 56.1933 252.571 56.06C252.437 55.9133 252.357 55.7467 252.331 55.56C252.317 55.3733 252.371 55.2 252.491 55.04L260.411 44.68C260.477 44.5867 260.557 44.5133 260.651 44.46C260.757 44.3933 260.891 44.36 261.051 44.36C261.264 44.36 261.437 44.44 261.571 44.6C261.717 44.7467 261.791 44.9333 261.791 45.16V54.86H263.371C263.584 54.86 263.764 54.9133 263.911 55.02C264.057 55.1267 264.131 55.3133 264.131 55.58C264.131 55.7533 264.057 55.9133 263.911 56.06C263.764 56.1933 263.584 56.26 263.371 56.26H261.791V59.22C261.791 59.4467 261.717 59.6333 261.571 59.78C261.424 59.9267 261.237 60 261.011 60ZM253.951 55.46L253.671 54.86H260.271V46.28L260.671 46.7L253.951 55.46Z" fill="black"/>
<path d="M109.917 16C109.677 16 109.464 15.9133 109.277 15.74C109.091 15.5533 108.997 15.3333 108.997 15.08V2.56L107.337 3.22C107.137 3.3 106.957 3.34 106.797 3.34C106.531 3.34 106.304 3.25333 106.117 3.08C105.944 2.90667 105.857 2.69333 105.857 2.44C105.857 2.24 105.904 2.06 105.997 1.9C106.091 1.74 106.244 1.62667 106.457 1.56L109.557 0.46C109.624 0.433333 109.691 0.413333 109.757 0.399999C109.837 0.386666 109.904 0.38 109.957 0.38C110.237 0.38 110.457 0.466666 110.617 0.64C110.777 0.813333 110.857 1.04 110.857 1.32V15.08C110.857 15.3333 110.764 15.5533 110.577 15.74C110.404 15.9133 110.184 16 109.917 16ZM121.852 16C121.612 16 121.405 15.9133 121.232 15.74C121.072 15.5533 120.992 15.3333 120.992 15.08V12.38H114.132C113.865 12.38 113.652 12.3 113.492 12.14C113.332 11.9667 113.238 11.7667 113.212 11.54C113.198 11.3133 113.258 11.1067 113.392 10.92L121.152 0.76C121.245 0.639999 121.352 0.546666 121.472 0.48C121.592 0.413333 121.738 0.38 121.912 0.38C122.165 0.38 122.372 0.473333 122.532 0.66C122.692 0.833333 122.772 1.05333 122.772 1.32V10.72H124.132C124.385 10.72 124.598 10.78 124.772 10.9C124.958 11.02 125.052 11.24 125.052 11.56C125.052 11.7733 124.958 11.9667 124.772 12.14C124.598 12.3 124.385 12.38 124.132 12.38H122.772V15.08C122.772 15.3333 122.685 15.5533 122.512 15.74C122.352 15.9133 122.132 16 121.852 16ZM115.192 11.28L114.752 10.72H120.992V2.34L121.512 3L115.192 11.28ZM137.458 16.08C136.578 16.08 135.745 15.9467 134.958 15.68C134.172 15.4 133.552 15.02 133.098 14.54C132.925 14.34 132.852 14.12 132.878 13.88C132.905 13.64 133.025 13.4333 133.238 13.26C133.465 13.0867 133.698 13.0133 133.938 13.04C134.178 13.0667 134.378 13.1733 134.538 13.36C134.805 13.6533 135.192 13.9067 135.698 14.12C136.218 14.3333 136.785 14.44 137.398 14.44C138.265 14.44 138.905 14.3 139.318 14.02C139.745 13.7267 139.965 13.3667 139.978 12.94C139.978 12.5 139.772 12.1333 139.358 11.84C138.945 11.5333 138.218 11.2933 137.178 11.12C135.832 10.8667 134.852 10.4733 134.238 9.94C133.625 9.40667 133.318 8.76 133.318 8C133.318 7.32 133.505 6.76 133.878 6.32C134.265 5.86667 134.765 5.53333 135.378 5.32C136.005 5.09333 136.665 4.98 137.358 4.98C138.238 4.98 139.012 5.12667 139.678 5.42C140.345 5.7 140.878 6.09333 141.278 6.6C141.452 6.8 141.525 7.00667 141.498 7.22C141.485 7.43333 141.378 7.61333 141.178 7.76C140.978 7.88 140.745 7.92 140.478 7.88C140.225 7.84 140.012 7.72667 139.838 7.54C139.505 7.19333 139.132 6.95333 138.718 6.82C138.318 6.67333 137.852 6.6 137.318 6.6C136.678 6.6 136.145 6.72 135.718 6.96C135.305 7.2 135.098 7.52667 135.098 7.94C135.098 8.20667 135.165 8.44 135.298 8.64C135.445 8.84 135.712 9.02667 136.098 9.2C136.485 9.36 137.038 9.50667 137.758 9.64C138.758 9.82667 139.545 10.0733 140.118 10.38C140.705 10.6867 141.125 11.0467 141.378 11.46C141.632 11.8733 141.758 12.34 141.758 12.86C141.758 13.4733 141.585 14.0267 141.238 14.52C140.905 15 140.418 15.38 139.778 15.66C139.138 15.94 138.365 16.08 137.458 16.08ZM145.279 20.68C145.012 20.68 144.792 20.5933 144.619 20.42C144.445 20.2467 144.359 20.0267 144.359 19.76V10.5C144.372 9.46 144.619 8.52 145.099 7.68C145.592 6.84 146.252 6.18 147.079 5.7C147.905 5.22 148.839 4.98 149.879 4.98C150.932 4.98 151.872 5.22667 152.699 5.72C153.539 6.2 154.199 6.86 154.679 7.7C155.172 8.52667 155.419 9.47333 155.419 10.54C155.419 11.5933 155.185 12.54 154.719 13.38C154.265 14.22 153.645 14.88 152.859 15.36C152.072 15.84 151.185 16.08 150.199 16.08C149.359 16.08 148.599 15.9067 147.919 15.56C147.239 15.2133 146.665 14.7467 146.199 14.16V19.76C146.199 20.0267 146.112 20.2467 145.939 20.42C145.779 20.5933 145.559 20.68 145.279 20.68ZM149.879 14.44C150.585 14.44 151.219 14.2733 151.779 13.94C152.352 13.5933 152.799 13.1267 153.119 12.54C153.452 11.94 153.619 11.2733 153.619 10.54C153.619 9.79333 153.452 9.12667 153.119 8.54C152.799 7.94 152.352 7.47333 151.779 7.14C151.219 6.79333 150.585 6.62 149.879 6.62C149.172 6.62 148.532 6.79333 147.959 7.14C147.399 7.48667 146.959 7.95333 146.639 8.54C146.319 9.12667 146.159 9.79333 146.159 10.54C146.159 11.2733 146.319 11.94 146.639 12.54C146.959 13.1267 147.399 13.5933 147.959 13.94C148.532 14.2733 149.172 14.44 149.879 14.44ZM163.54 16.08C162.433 16.08 161.453 15.8467 160.6 15.38C159.76 14.9 159.1 14.2467 158.62 13.42C158.14 12.58 157.9 11.62 157.9 10.54C157.9 9.44667 158.127 8.48667 158.58 7.66C159.033 6.82 159.66 6.16667 160.46 5.7C161.26 5.22 162.187 4.98 163.24 4.98C164.267 4.98 165.153 5.21333 165.9 5.68C166.647 6.13333 167.22 6.76667 167.62 7.58C168.02 8.38 168.22 9.30667 168.22 10.36C168.22 10.5867 168.14 10.78 167.98 10.94C167.833 11.0867 167.633 11.16 167.38 11.16H159.16V9.68H167.4L166.58 10.26C166.567 9.55333 166.427 8.92 166.16 8.36C165.893 7.8 165.513 7.36 165.02 7.04C164.527 6.72 163.933 6.56 163.24 6.56C162.48 6.56 161.82 6.73333 161.26 7.08C160.713 7.42667 160.293 7.9 160 8.5C159.707 9.1 159.56 9.78 159.56 10.54C159.56 11.3 159.727 11.98 160.06 12.58C160.407 13.1667 160.873 13.6333 161.46 13.98C162.06 14.3267 162.753 14.5 163.54 14.5C163.967 14.5 164.407 14.42 164.86 14.26C165.327 14.1 165.693 13.9133 165.96 13.7C166.147 13.5533 166.347 13.48 166.56 13.48C166.773 13.4667 166.96 13.5267 167.12 13.66C167.32 13.8467 167.427 14.0533 167.44 14.28C167.453 14.4933 167.36 14.68 167.16 14.84C166.707 15.2 166.14 15.5 165.46 15.74C164.793 15.9667 164.153 16.08 163.54 16.08ZM175.353 16.08C174.299 16.08 173.359 15.84 172.533 15.36C171.706 14.8667 171.053 14.2067 170.573 13.38C170.106 12.54 169.873 11.5933 169.873 10.54C169.873 9.46 170.099 8.5 170.553 7.66C171.019 6.82 171.653 6.16667 172.453 5.7C173.253 5.22 174.179 4.98 175.233 4.98C176.019 4.98 176.746 5.13333 177.413 5.44C178.079 5.74667 178.673 6.20667 179.193 6.82C179.366 7.00667 179.426 7.20667 179.373 7.42C179.333 7.63333 179.199 7.82 178.973 7.98C178.813 8.1 178.626 8.14 178.413 8.1C178.199 8.06 178.013 7.94667 177.853 7.76C177.146 7 176.273 6.62 175.233 6.62C174.526 6.62 173.899 6.78667 173.353 7.12C172.819 7.45333 172.399 7.91333 172.093 8.5C171.799 9.07333 171.653 9.75333 171.653 10.54C171.653 11.2867 171.806 11.9533 172.113 12.54C172.433 13.1267 172.873 13.5933 173.433 13.94C173.993 14.2733 174.633 14.44 175.353 14.44C175.846 14.44 176.286 14.38 176.673 14.26C177.059 14.14 177.406 13.9467 177.713 13.68C177.899 13.52 178.093 13.4333 178.293 13.42C178.506 13.4067 178.693 13.4667 178.853 13.6C179.053 13.7733 179.166 13.9667 179.193 14.18C179.219 14.3933 179.146 14.58 178.973 14.74C178.013 15.6333 176.806 16.08 175.353 16.08ZM183.585 16C183.305 16 183.079 15.9133 182.905 15.74C182.732 15.5667 182.645 15.3467 182.645 15.08V5.98C182.645 5.7 182.732 5.48 182.905 5.32C183.079 5.14667 183.305 5.06 183.585 5.06C183.852 5.06 184.072 5.14667 184.245 5.32C184.419 5.48 184.505 5.7 184.505 5.98V15.08C184.505 15.3467 184.419 15.5667 184.245 15.74C184.072 15.9133 183.852 16 183.585 16ZM183.565 3.16C183.232 3.16 182.945 3.04 182.705 2.8C182.465 2.56 182.345 2.26667 182.345 1.92C182.345 1.57333 182.465 1.28667 182.705 1.06C182.959 0.819999 183.252 0.699999 183.585 0.699999C183.905 0.699999 184.185 0.819999 184.425 1.06C184.679 1.28667 184.805 1.57333 184.805 1.92C184.805 2.26667 184.685 2.56 184.445 2.8C184.205 3.04 183.912 3.16 183.565 3.16ZM193.423 16.08C192.316 16.08 191.336 15.8467 190.483 15.38C189.643 14.9 188.983 14.2467 188.503 13.42C188.023 12.58 187.783 11.62 187.783 10.54C187.783 9.44667 188.01 8.48667 188.463 7.66C188.916 6.82 189.543 6.16667 190.343 5.7C191.143 5.22 192.07 4.98 193.123 4.98C194.15 4.98 195.036 5.21333 195.783 5.68C196.53 6.13333 197.103 6.76667 197.503 7.58C197.903 8.38 198.103 9.30667 198.103 10.36C198.103 10.5867 198.023 10.78 197.863 10.94C197.716 11.0867 197.516 11.16 197.263 11.16H189.043V9.68H197.283L196.463 10.26C196.45 9.55333 196.31 8.92 196.043 8.36C195.776 7.8 195.396 7.36 194.903 7.04C194.41 6.72 193.816 6.56 193.123 6.56C192.363 6.56 191.703 6.73333 191.143 7.08C190.596 7.42667 190.176 7.9 189.883 8.5C189.59 9.1 189.443 9.78 189.443 10.54C189.443 11.3 189.61 11.98 189.943 12.58C190.29 13.1667 190.756 13.6333 191.343 13.98C191.943 14.3267 192.636 14.5 193.423 14.5C193.85 14.5 194.29 14.42 194.743 14.26C195.21 14.1 195.576 13.9133 195.843 13.7C196.03 13.5533 196.23 13.48 196.443 13.48C196.656 13.4667 196.843 13.5267 197.003 13.66C197.203 13.8467 197.31 14.0533 197.323 14.28C197.336 14.4933 197.243 14.68 197.043 14.84C196.59 15.2 196.023 15.5 195.343 15.74C194.676 15.9667 194.036 16.08 193.423 16.08ZM204.626 16.08C203.746 16.08 202.913 15.9467 202.126 15.68C201.34 15.4 200.72 15.02 200.266 14.54C200.093 14.34 200.02 14.12 200.046 13.88C200.073 13.64 200.193 13.4333 200.406 13.26C200.633 13.0867 200.866 13.0133 201.106 13.04C201.346 13.0667 201.546 13.1733 201.706 13.36C201.973 13.6533 202.36 13.9067 202.866 14.12C203.386 14.3333 203.953 14.44 204.566 14.44C205.433 14.44 206.073 14.3 206.486 14.02C206.913 13.7267 207.133 13.3667 207.146 12.94C207.146 12.5 206.94 12.1333 206.526 11.84C206.113 11.5333 205.386 11.2933 204.346 11.12C203 10.8667 202.02 10.4733 201.406 9.94C200.793 9.40667 200.486 8.76 200.486 8C200.486 7.32 200.673 6.76 201.046 6.32C201.433 5.86667 201.933 5.53333 202.546 5.32C203.173 5.09333 203.833 4.98 204.526 4.98C205.406 4.98 206.18 5.12667 206.846 5.42C207.513 5.7 208.046 6.09333 208.446 6.6C208.62 6.8 208.693 7.00667 208.666 7.22C208.653 7.43333 208.546 7.61333 208.346 7.76C208.146 7.88 207.913 7.92 207.646 7.88C207.393 7.84 207.18 7.72667 207.006 7.54C206.673 7.19333 206.3 6.95333 205.886 6.82C205.486 6.67333 205.02 6.6 204.486 6.6C203.846 6.6 203.313 6.72 202.886 6.96C202.473 7.2 202.266 7.52667 202.266 7.94C202.266 8.20667 202.333 8.44 202.466 8.64C202.613 8.84 202.88 9.02667 203.266 9.2C203.653 9.36 204.206 9.50667 204.926 9.64C205.926 9.82667 206.713 10.0733 207.286 10.38C207.873 10.6867 208.293 11.0467 208.546 11.46C208.8 11.8733 208.926 12.34 208.926 12.86C208.926 13.4733 208.753 14.0267 208.406 14.52C208.073 15 207.586 15.38 206.946 15.66C206.306 15.94 205.533 16.08 204.626 16.08Z" fill="#3C6342"/>
</svg>
