<svg width="218" height="71" viewBox="0 0 218 71" fill="none" xmlns="http://www.w3.org/2000/svg">
<path d="M1.87984 16C1.61318 16 1.47984 15.92 1.47984 15.76V15.72C1.47984 15.6133 1.60651 15.4733 1.85984 15.3C2.12651 15.1133 2.31318 14.88 2.41984 14.6L6.85984 3.26C6.93984 3.04667 6.84651 2.82 6.57984 2.58C6.32651 2.32667 6.19984 2.16 6.19984 2.08V2.04C6.19984 1.88 6.31318 1.8 6.53984 1.8H9.09984C9.31318 1.8 9.41984 1.88 9.41984 2.04V2.08C9.41984 2.17333 9.34651 2.28 9.19984 2.4C9.05318 2.50667 8.92651 2.62667 8.81984 2.76C8.71318 2.89333 8.69318 3.04667 8.75984 3.22L13.6998 14.6C13.8065 14.8667 13.9932 15.0933 14.2598 15.28C14.5265 15.4533 14.6598 15.6 14.6598 15.72V15.76C14.6598 15.92 14.5265 16 14.2598 16H11.5598C11.2932 16 11.1598 15.92 11.1598 15.76V15.72C11.1598 15.64 11.2065 15.56 11.2998 15.48C11.4065 15.4 11.5065 15.3333 11.5998 15.28C11.7065 15.2267 11.7865 15.14 11.8398 15.02C11.9065 14.9 11.9065 14.76 11.8398 14.6L10.8598 12.24H4.41984L3.51984 14.6C3.45318 14.76 3.44651 14.9 3.49984 15.02C3.56651 15.14 3.64651 15.2267 3.73984 15.28C3.84651 15.3333 3.94651 15.4 4.03984 15.48C4.14651 15.56 4.19984 15.64 4.19984 15.72V15.76C4.19984 15.92 4.05984 16 3.77984 16H1.87984ZM4.73984 11.38H10.5598L7.51984 4.04L4.73984 11.38ZM15.8197 16C15.5664 16 15.4397 15.9133 15.4397 15.74V15.68C15.4397 15.5733 15.553 15.4333 15.7797 15.26C16.0197 15.0733 16.1397 14.8533 16.1397 14.6V3.36C16.1397 3.13333 16.0797 2.94667 15.9597 2.8C15.853 2.64 15.7397 2.51333 15.6197 2.42C15.4997 2.32667 15.4397 2.24 15.4397 2.16V2.12C15.4397 2.01333 15.533 1.90667 15.7197 1.8L17.2797 1.04C17.4797 0.96 17.633 0.953333 17.7397 1.02C17.8464 1.07333 17.8997 1.17333 17.8997 1.32V14.6C17.8997 14.8533 18.0264 15.0733 18.2797 15.26C18.5464 15.4333 18.6797 15.5733 18.6797 15.68V15.74C18.6797 15.9133 18.5464 16 18.2797 16H15.8197ZM24.0863 16.18C22.8596 16.18 21.8729 15.9333 21.1263 15.44C20.3929 14.9467 20.0263 14.4333 20.0263 13.9C20.0263 13.4067 20.2863 13.16 20.8063 13.16C21.0329 13.16 21.2129 13.2467 21.3463 13.42C21.4929 13.58 21.6196 13.78 21.7263 14.02C21.8329 14.26 21.9596 14.5 22.1063 14.74C22.2663 14.98 22.5129 15.1867 22.8463 15.36C23.1796 15.52 23.5929 15.6 24.0863 15.6C24.7529 15.6 25.2996 15.4467 25.7263 15.14C26.1529 14.82 26.3663 14.3867 26.3663 13.84C26.3663 13.3067 26.1529 12.8933 25.7263 12.6C25.3129 12.3067 24.8063 12.1 24.2063 11.98C23.6063 11.8467 23.0063 11.7 22.4063 11.54C21.8063 11.38 21.2929 11.0867 20.8663 10.66C20.4529 10.2333 20.2463 9.66 20.2463 8.94C20.2463 8.16667 20.5996 7.52 21.3063 7C22.0129 6.46667 22.9129 6.2 24.0063 6.2C25.1663 6.2 26.1063 6.44667 26.8263 6.94C27.5463 7.43333 27.9063 7.97333 27.9063 8.56C27.9063 8.76 27.8329 8.92667 27.6863 9.06C27.5529 9.19333 27.3863 9.26 27.1863 9.26C26.9463 9.26 26.7396 9.13333 26.5663 8.88C26.3929 8.62667 26.2463 8.34667 26.1263 8.04C26.0196 7.73333 25.7929 7.45333 25.4463 7.2C25.0996 6.94667 24.6463 6.82 24.0863 6.82C23.4996 6.82 23.0063 6.98667 22.6063 7.32C22.2196 7.65333 22.0263 8.06667 22.0263 8.56C22.0263 9.08 22.2329 9.48667 22.6463 9.78C23.0729 10.06 23.5863 10.2667 24.1863 10.4C24.7863 10.5333 25.3796 10.68 25.9663 10.84C26.5663 11 27.0729 11.3 27.4863 11.74C27.9129 12.1667 28.1263 12.7467 28.1263 13.48C28.1263 14.2533 27.7529 14.9 27.0063 15.42C26.2729 15.9267 25.2996 16.18 24.0863 16.18ZM34.6222 16.2C33.0755 16.2 31.8155 15.7 30.8422 14.7C29.8822 13.6867 29.4022 12.4733 29.4022 11.06C29.4022 9.67333 29.8689 8.52 30.8022 7.6C31.7355 6.66667 32.8889 6.2 34.2622 6.2C35.7422 6.2 36.9555 6.69333 37.9022 7.68C38.8622 8.65333 39.3422 9.85333 39.3422 11.28C39.3422 12.68 38.9022 13.8533 38.0222 14.8C37.1422 15.7333 36.0089 16.2 34.6222 16.2ZM34.8622 15.54C35.6489 15.54 36.2955 15.2067 36.8022 14.54C37.3222 13.8733 37.5822 12.9867 37.5822 11.88C37.5822 10.4667 37.2489 9.28 36.5822 8.32C35.9155 7.34667 35.0755 6.86 34.0622 6.86C33.2089 6.86 32.5155 7.19333 31.9822 7.86C31.4489 8.51333 31.1822 9.39333 31.1822 10.5C31.1822 11.8333 31.5289 13.0067 32.2222 14.02C32.9155 15.0333 33.7955 15.54 34.8622 15.54ZM50.123 16.2C48.723 16.2 47.5363 15.72 46.563 14.76C45.603 13.7867 45.123 12.58 45.123 11.14C45.123 9.67333 45.5896 8.48667 46.523 7.58C47.4696 6.67333 48.643 6.21333 50.043 6.2C51.083 6.18667 51.9896 6.45333 52.763 7C53.5496 7.53333 53.943 8.09333 53.943 8.68C53.943 9.16 53.6763 9.39333 53.143 9.38C52.8896 9.36667 52.6496 9.23333 52.423 8.98C52.2096 8.71333 52.0163 8.42667 51.843 8.12C51.683 7.8 51.4163 7.50667 51.043 7.24C50.683 6.97333 50.243 6.84 49.723 6.84C48.8963 6.84 48.2163 7.18 47.683 7.86C47.1496 8.52667 46.883 9.36 46.883 10.36C46.883 11.7467 47.2363 12.86 47.943 13.7C48.6496 14.5267 49.563 14.94 50.683 14.94C51.3363 14.94 51.8963 14.7667 52.363 14.42C52.843 14.06 53.2096 13.6067 53.463 13.06C53.543 12.9 53.6696 12.84 53.843 12.88C54.0163 12.92 54.083 13.0333 54.043 13.22C53.883 14.0333 53.4563 14.7333 52.763 15.32C52.083 15.9067 51.203 16.2 50.123 16.2ZM65.302 7.04C65.302 7.12 65.2354 7.20667 65.102 7.3C64.982 7.39333 64.8554 7.52 64.722 7.68C64.602 7.82667 64.542 8.01333 64.542 8.24V14.6C64.542 14.8667 64.662 15.1 64.902 15.3C65.1554 15.5 65.282 15.64 65.282 15.72V15.78C65.282 15.9267 65.1887 16 65.002 16H63.302C63.0887 16 62.982 15.8933 62.982 15.68V14.56C62.662 15.0933 62.222 15.5 61.662 15.78C61.1154 16.06 60.522 16.2 59.882 16.2C58.6154 16.2 57.5287 15.7333 56.622 14.8C55.7154 13.8667 55.262 12.66 55.262 11.18C55.262 9.72667 55.7087 8.53333 56.602 7.6C57.4954 6.66667 58.6154 6.2 59.962 6.2C61.242 6.2 62.2554 6.7 63.002 7.7V6.62C63.002 6.46 63.0554 6.34667 63.162 6.28C63.282 6.21333 63.4354 6.21333 63.622 6.28L65.002 6.64C65.202 6.69333 65.302 6.80667 65.302 6.98V7.04ZM60.302 15.54C60.942 15.54 61.522 15.2867 62.042 14.78C62.5754 14.26 62.842 13.5533 62.842 12.66V9.64C62.842 8.97333 62.5487 8.34 61.962 7.74C61.3887 7.14 60.7154 6.84 59.942 6.84C59.0754 6.84 58.3687 7.18667 57.822 7.88C57.2754 8.56 56.9954 9.46 56.982 10.58C56.9554 11.9667 57.2554 13.14 57.882 14.1C58.5087 15.0467 59.3154 15.5267 60.302 15.54ZM67.2845 16C67.0312 16 66.9045 15.9133 66.9045 15.74V15.68C66.9045 15.5733 67.0179 15.4333 67.2445 15.26C67.4845 15.0733 67.6045 14.8533 67.6045 14.6V3.36C67.6045 3.13333 67.5445 2.94667 67.4245 2.8C67.3179 2.64 67.2045 2.51333 67.0845 2.42C66.9645 2.32667 66.9045 2.24 66.9045 2.16V2.12C66.9045 2.01333 66.9979 1.90667 67.1845 1.8L68.7445 1.04C68.9445 0.96 69.0979 0.953333 69.2045 1.02C69.3112 1.07333 69.3645 1.17333 69.3645 1.32V14.6C69.3645 14.8533 69.4912 15.0733 69.7445 15.26C70.0112 15.4333 70.1445 15.5733 70.1445 15.68V15.74C70.1445 15.9133 70.0112 16 69.7445 16H67.2845ZM72.0111 16C71.7578 16 71.6311 15.9133 71.6311 15.74V15.68C71.6311 15.5733 71.7444 15.4333 71.9711 15.26C72.2111 15.0733 72.3311 14.8533 72.3311 14.6V3.36C72.3311 3.13333 72.2711 2.94667 72.1511 2.8C72.0444 2.64 71.9311 2.51333 71.8111 2.42C71.6911 2.32667 71.6311 2.24 71.6311 2.16V2.12C71.6311 2.01333 71.7244 1.90667 71.9111 1.8L73.4711 1.04C73.6711 0.96 73.8244 0.953333 73.9311 1.02C74.0378 1.07333 74.0911 1.17333 74.0911 1.32V14.6C74.0911 14.8533 74.2178 15.0733 74.4711 15.26C74.7378 15.4333 74.8711 15.5733 74.8711 15.68V15.74C74.8711 15.9133 74.7378 16 74.4711 16H72.0111ZM84.4377 13.18C84.531 13.0333 84.6577 12.98 84.8177 13.02C84.9777 13.0467 85.051 13.1533 85.0377 13.34C84.8777 14.06 84.4577 14.72 83.7777 15.32C83.0977 15.9067 82.1977 16.2 81.0777 16.2C79.6777 16.2 78.5243 15.7333 77.6177 14.8C76.7243 13.8533 76.2777 12.6267 76.2777 11.12C76.2777 9.68 76.7243 8.50667 77.6177 7.6C78.511 6.68 79.6577 6.21333 81.0577 6.2C82.0843 6.18667 82.9243 6.42 83.5777 6.9C84.2443 7.36667 84.5777 8.02 84.5777 8.86C84.5777 9.54 84.291 10.1467 83.7177 10.68C83.1443 11.2 82.3843 11.5533 81.4377 11.74C80.5043 11.9133 79.3777 11.9467 78.0577 11.84C78.2843 12.7867 78.7043 13.54 79.3177 14.1C79.931 14.6467 80.671 14.92 81.5377 14.92C82.2577 14.92 82.8643 14.76 83.3577 14.44C83.851 14.12 84.211 13.7 84.4377 13.18ZM80.7577 6.88C79.9177 6.88 79.231 7.22 78.6977 7.9C78.1643 8.58 77.8977 9.41333 77.8977 10.4C77.8977 10.56 77.911 10.8 77.9377 11.12C79.2443 11.2133 80.2977 11.1733 81.0977 11C82.2977 10.7467 82.891 10.0333 82.8777 8.86C82.8643 8.27333 82.6577 7.8 82.2577 7.44C81.871 7.06667 81.371 6.88 80.7577 6.88ZM95.4991 14.6C95.4991 14.8667 95.6191 15.1 95.8591 15.3C96.1124 15.5 96.2391 15.64 96.2391 15.72V15.78C96.2391 15.9267 96.1391 16 95.9391 16H94.2591C94.0591 16 93.9457 15.8933 93.9191 15.68L93.8791 14.68C93.5457 15.1733 93.1057 15.5533 92.5591 15.82C92.0257 16.0733 91.4524 16.2 90.8391 16.2C89.5724 16.2 88.4857 15.7333 87.5791 14.8C86.6724 13.8667 86.2191 12.66 86.2191 11.18C86.2191 9.72667 86.6657 8.53333 87.5591 7.6C88.4524 6.66667 89.5657 6.2 90.8991 6.2C92.0724 6.2 93.0391 6.63333 93.7991 7.5V3.14C93.7991 2.9 93.7257 2.70667 93.5791 2.56C93.4457 2.41333 93.3057 2.3 93.1591 2.22C93.0257 2.14 92.9591 2.05333 92.9591 1.96V1.92C92.9591 1.78667 93.0591 1.67333 93.2591 1.58L94.8791 1.04C95.2924 0.879999 95.4991 0.979999 95.4991 1.34V14.6ZM91.2591 15.54C91.8991 15.54 92.4791 15.2867 92.9991 14.78C93.5324 14.26 93.7991 13.5533 93.7991 12.66H93.8191L93.7991 11.64V9.64C93.7991 8.96 93.5057 8.32667 92.9191 7.74C92.3457 7.14 91.6657 6.84 90.8791 6.84C90.0124 6.84 89.3057 7.18667 88.7591 7.88C88.2257 8.56 87.9524 9.46 87.9391 10.58C87.9124 11.9667 88.2124 13.14 88.8391 14.1C89.4657 15.0467 90.2724 15.5267 91.2591 15.54ZM105.524 16.2C104.724 16.2 104.09 15.9467 103.624 15.44C103.17 14.92 102.944 14.1667 102.944 13.18V7.2H101.624C101.424 7.2 101.324 7.1 101.324 6.9V6.7C101.324 6.5 101.424 6.4 101.624 6.4H102.344C103.25 6.4 103.757 5.76667 103.864 4.5C103.89 4.23333 104.004 4.1 104.204 4.1H104.404C104.617 4.1 104.724 4.23333 104.724 4.5L104.744 6.4H107.504C107.584 6.4 107.65 6.43333 107.704 6.5C107.77 6.55333 107.804 6.62 107.804 6.7V6.9C107.804 7.1 107.704 7.2 107.504 7.2H104.744V13.2C104.744 13.7333 104.857 14.1467 105.084 14.44C105.31 14.7333 105.617 14.88 106.004 14.88C106.43 14.88 106.77 14.7733 107.024 14.56C107.29 14.3333 107.444 14.04 107.484 13.68C107.55 13.52 107.664 13.4533 107.824 13.48C107.997 13.4933 108.084 13.5867 108.084 13.76C108.084 14.4133 107.844 14.9867 107.364 15.48C106.897 15.96 106.284 16.2 105.524 16.2ZM114.114 16.2C112.568 16.2 111.308 15.7 110.334 14.7C109.374 13.6867 108.894 12.4733 108.894 11.06C108.894 9.67333 109.361 8.52 110.294 7.6C111.228 6.66667 112.381 6.2 113.754 6.2C115.234 6.2 116.448 6.69333 117.394 7.68C118.354 8.65333 118.834 9.85333 118.834 11.28C118.834 12.68 118.394 13.8533 117.514 14.8C116.634 15.7333 115.501 16.2 114.114 16.2ZM114.354 15.54C115.141 15.54 115.788 15.2067 116.294 14.54C116.814 13.8733 117.074 12.9867 117.074 11.88C117.074 10.4667 116.741 9.28 116.074 8.32C115.408 7.34667 114.568 6.86 113.554 6.86C112.701 6.86 112.008 7.19333 111.474 7.86C110.941 8.51333 110.674 9.39333 110.674 10.5C110.674 11.8333 111.021 13.0067 111.714 14.02C112.408 15.0333 113.288 15.54 114.354 15.54ZM125.263 6.2C125.836 6.2 126.283 6.34667 126.603 6.64C126.936 6.93333 127.103 7.3 127.103 7.74C127.103 8.36667 126.836 8.68 126.303 8.68C126.076 8.68 125.896 8.60667 125.763 8.46C125.63 8.31333 125.536 8.15333 125.483 7.98C125.443 7.80667 125.343 7.64667 125.183 7.5C125.023 7.35333 124.803 7.28 124.523 7.28C123.99 7.28 123.57 7.54667 123.263 8.08C122.97 8.6 122.823 9.25333 122.823 10.04V14.6C122.823 14.8667 122.963 15.0933 123.243 15.28C123.523 15.4533 123.663 15.5867 123.663 15.68V15.76C123.663 15.92 123.53 16 123.263 16H120.783C120.516 16 120.383 15.92 120.383 15.76V15.68C120.383 15.5867 120.503 15.4533 120.743 15.28C120.996 15.0933 121.123 14.8667 121.123 14.6V8.52C121.123 8.24 120.99 8 120.723 7.8C120.456 7.6 120.323 7.45333 120.323 7.36V7.32C120.323 7.18667 120.423 7.06667 120.623 6.96L122.143 6.28C122.49 6.12 122.663 6.21333 122.663 6.56V8.16C123.116 6.85333 123.983 6.2 125.263 6.2ZM132.88 6.2C133.453 6.2 133.9 6.34667 134.22 6.64C134.553 6.93333 134.72 7.3 134.72 7.74C134.72 8.36667 134.453 8.68 133.92 8.68C133.693 8.68 133.513 8.60667 133.38 8.46C133.247 8.31333 133.153 8.15333 133.1 7.98C133.06 7.80667 132.96 7.64667 132.8 7.5C132.64 7.35333 132.42 7.28 132.14 7.28C131.607 7.28 131.187 7.54667 130.88 8.08C130.587 8.6 130.44 9.25333 130.44 10.04V14.6C130.44 14.8667 130.58 15.0933 130.86 15.28C131.14 15.4533 131.28 15.5867 131.28 15.68V15.76C131.28 15.92 131.147 16 130.88 16H128.4C128.133 16 128 15.92 128 15.76V15.68C128 15.5867 128.12 15.4533 128.36 15.28C128.613 15.0933 128.74 14.8667 128.74 14.6V8.52C128.74 8.24 128.607 8 128.34 7.8C128.073 7.6 127.94 7.45333 127.94 7.36V7.32C127.94 7.18667 128.04 7.06667 128.24 6.96L129.76 6.28C130.107 6.12 130.28 6.21333 130.28 6.56V8.16C130.733 6.85333 131.6 6.2 132.88 6.2ZM143.442 13.18C143.535 13.0333 143.662 12.98 143.822 13.02C143.982 13.0467 144.055 13.1533 144.042 13.34C143.882 14.06 143.462 14.72 142.782 15.32C142.102 15.9067 141.202 16.2 140.082 16.2C138.682 16.2 137.528 15.7333 136.622 14.8C135.728 13.8533 135.282 12.6267 135.282 11.12C135.282 9.68 135.728 8.50667 136.622 7.6C137.515 6.68 138.662 6.21333 140.062 6.2C141.088 6.18667 141.928 6.42 142.582 6.9C143.248 7.36667 143.582 8.02 143.582 8.86C143.582 9.54 143.295 10.1467 142.722 10.68C142.148 11.2 141.388 11.5533 140.442 11.74C139.508 11.9133 138.382 11.9467 137.062 11.84C137.288 12.7867 137.708 13.54 138.322 14.1C138.935 14.6467 139.675 14.92 140.542 14.92C141.262 14.92 141.868 14.76 142.362 14.44C142.855 14.12 143.215 13.7 143.442 13.18ZM139.762 6.88C138.922 6.88 138.235 7.22 137.702 7.9C137.168 8.58 136.902 9.41333 136.902 10.4C136.902 10.56 136.915 10.8 136.942 11.12C138.248 11.2133 139.302 11.1733 140.102 11C141.302 10.7467 141.895 10.0333 141.882 8.86C141.868 8.27333 141.662 7.8 141.262 7.44C140.875 7.06667 140.375 6.88 139.762 6.88ZM154.823 14.56C154.836 14.7733 154.903 14.9467 155.023 15.08C155.143 15.2133 155.256 15.3267 155.363 15.42C155.483 15.5 155.543 15.5867 155.543 15.68V15.76C155.543 15.9333 155.403 16.02 155.123 16.02H152.743C152.463 16.02 152.323 15.9333 152.323 15.76V15.68C152.323 15.5867 152.443 15.4467 152.683 15.26C152.936 15.0733 153.056 14.8467 153.043 14.58L152.843 10.58C152.79 9.39333 152.543 8.5 152.103 7.9C151.676 7.28667 151.103 6.98 150.383 6.98C149.65 6.98 149.05 7.24 148.583 7.76C148.116 8.28 147.883 8.94 147.883 9.74V14.6C147.883 14.76 147.923 14.9 148.003 15.02C148.096 15.1267 148.19 15.2067 148.283 15.26C148.376 15.3133 148.463 15.38 148.543 15.46C148.636 15.5267 148.683 15.6 148.683 15.68V15.76C148.683 15.9333 148.543 16.02 148.263 16.02H145.763C145.496 16.02 145.363 15.9333 145.363 15.76V15.68C145.363 15.5733 145.49 15.4333 145.743 15.26C146.01 15.0867 146.143 14.8667 146.143 14.6V8.54C146.143 8.28667 146.07 8.09333 145.923 7.96C145.79 7.81333 145.65 7.7 145.503 7.62C145.37 7.54 145.303 7.45333 145.303 7.36V7.3C145.303 7.18 145.41 7.08 145.623 7L147.123 6.28C147.31 6.18667 147.45 6.17333 147.543 6.24C147.636 6.30667 147.683 6.42 147.683 6.58V8.04C147.976 7.48 148.396 7.03333 148.943 6.7C149.503 6.36667 150.123 6.2 150.803 6.2C151.843 6.2 152.71 6.56667 153.403 7.3C154.11 8.03333 154.51 9.14 154.603 10.62L154.823 14.56ZM160.211 16.2C159.411 16.2 158.778 15.9467 158.311 15.44C157.858 14.92 157.631 14.1667 157.631 13.18V7.2H156.311C156.111 7.2 156.011 7.1 156.011 6.9V6.7C156.011 6.5 156.111 6.4 156.311 6.4H157.031C157.938 6.4 158.444 5.76667 158.551 4.5C158.578 4.23333 158.691 4.1 158.891 4.1H159.091C159.304 4.1 159.411 4.23333 159.411 4.5L159.431 6.4H162.191C162.271 6.4 162.338 6.43333 162.391 6.5C162.458 6.55333 162.491 6.62 162.491 6.7V6.9C162.491 7.1 162.391 7.2 162.191 7.2H159.431V13.2C159.431 13.7333 159.544 14.1467 159.771 14.44C159.998 14.7333 160.304 14.88 160.691 14.88C161.118 14.88 161.458 14.7733 161.711 14.56C161.978 14.3333 162.131 14.04 162.171 13.68C162.238 13.52 162.351 13.4533 162.511 13.48C162.684 13.4933 162.771 13.5867 162.771 13.76C162.771 14.4133 162.531 14.9867 162.051 15.48C161.584 15.96 160.971 16.2 160.211 16.2ZM172.812 1.26C173.519 1.26 174.132 1.45333 174.652 1.84C175.186 2.22667 175.452 2.68667 175.452 3.22C175.452 3.40667 175.386 3.57333 175.252 3.72C175.119 3.85333 174.939 3.92 174.712 3.92C174.366 3.92 174.112 3.82 173.952 3.62C173.806 3.40667 173.719 3.17333 173.692 2.92C173.679 2.66667 173.579 2.43333 173.392 2.22C173.219 2.00667 172.932 1.9 172.532 1.9C171.879 1.88667 171.446 2.28667 171.232 3.1C171.032 3.91333 171.059 4.83333 171.312 5.86V6.4H174.092C174.172 6.4 174.239 6.43333 174.292 6.5C174.346 6.55333 174.372 6.61333 174.372 6.68V6.94C174.372 7.11333 174.279 7.2 174.092 7.2H171.312V14.58C171.312 14.78 171.386 14.9467 171.532 15.08C171.679 15.2133 171.826 15.3267 171.972 15.42C172.132 15.5133 172.212 15.6067 172.212 15.7V15.76C172.212 15.92 172.112 16 171.912 16H169.092C168.892 16 168.792 15.92 168.792 15.76V15.7C168.792 15.6067 168.852 15.5133 168.972 15.42C169.106 15.3267 169.232 15.2133 169.352 15.08C169.486 14.9467 169.552 14.78 169.552 14.58V7.2H167.892C167.692 7.2 167.592 7.11333 167.592 6.94V6.68C167.592 6.49333 167.692 6.4 167.892 6.4H169.552V4.66C169.552 3.64667 169.839 2.82667 170.412 2.2C170.986 1.57333 171.786 1.26 172.812 1.26ZM180.029 6.2C180.602 6.2 181.049 6.34667 181.369 6.64C181.702 6.93333 181.869 7.3 181.869 7.74C181.869 8.36667 181.602 8.68 181.069 8.68C180.842 8.68 180.662 8.60667 180.529 8.46C180.395 8.31333 180.302 8.15333 180.249 7.98C180.209 7.80667 180.109 7.64667 179.949 7.5C179.789 7.35333 179.569 7.28 179.289 7.28C178.755 7.28 178.335 7.54667 178.029 8.08C177.735 8.6 177.589 9.25333 177.589 10.04V14.6C177.589 14.8667 177.729 15.0933 178.009 15.28C178.289 15.4533 178.429 15.5867 178.429 15.68V15.76C178.429 15.92 178.295 16 178.029 16H175.549C175.282 16 175.149 15.92 175.149 15.76V15.68C175.149 15.5867 175.269 15.4533 175.509 15.28C175.762 15.0933 175.889 14.8667 175.889 14.6V8.52C175.889 8.24 175.755 8 175.489 7.8C175.222 7.6 175.089 7.45333 175.089 7.36V7.32C175.089 7.18667 175.189 7.06667 175.389 6.96L176.909 6.28C177.255 6.12 177.429 6.21333 177.429 6.56V8.16C177.882 6.85333 178.749 6.2 180.029 6.2ZM187.63 16.2C186.083 16.2 184.823 15.7 183.85 14.7C182.89 13.6867 182.41 12.4733 182.41 11.06C182.41 9.67333 182.877 8.52 183.81 7.6C184.743 6.66667 185.897 6.2 187.27 6.2C188.75 6.2 189.963 6.69333 190.91 7.68C191.87 8.65333 192.35 9.85333 192.35 11.28C192.35 12.68 191.91 13.8533 191.03 14.8C190.15 15.7333 189.017 16.2 187.63 16.2ZM187.87 15.54C188.657 15.54 189.303 15.2067 189.81 14.54C190.33 13.8733 190.59 12.9867 190.59 11.88C190.59 10.4667 190.257 9.28 189.59 8.32C188.923 7.34667 188.083 6.86 187.07 6.86C186.217 6.86 185.523 7.19333 184.99 7.86C184.457 8.51333 184.19 9.39333 184.19 10.5C184.19 11.8333 184.537 13.0067 185.23 14.02C185.923 15.0333 186.803 15.54 187.87 15.54ZM203.519 6.64C203.719 6.69333 203.819 6.80667 203.819 6.98V7.04C203.819 7.12 203.752 7.20667 203.619 7.3C203.499 7.39333 203.372 7.52 203.239 7.68C203.119 7.82667 203.059 8.01333 203.059 8.24V15.02C203.059 16.6467 202.659 17.8867 201.859 18.74C201.059 19.6067 200.012 20.04 198.719 20.04C197.439 20.04 196.399 19.7267 195.599 19.1C194.812 18.4867 194.419 17.8467 194.419 17.18C194.419 16.98 194.485 16.8067 194.619 16.66C194.765 16.5133 194.965 16.44 195.219 16.44C195.459 16.44 195.672 16.5933 195.859 16.9C196.059 17.2067 196.232 17.54 196.379 17.9C196.539 18.2733 196.825 18.6133 197.239 18.92C197.665 19.24 198.205 19.4 198.859 19.4C199.619 19.4 200.225 19.0667 200.679 18.4C201.132 17.7467 201.359 16.7533 201.359 15.42V14.56C201.025 15.0133 200.592 15.3667 200.059 15.62C199.525 15.8733 198.965 16 198.379 16C197.112 16 196.019 15.5467 195.099 14.64C194.192 13.72 193.739 12.5667 193.739 11.18C193.739 9.72667 194.185 8.53333 195.079 7.6C195.972 6.66667 197.092 6.2 198.439 6.2C199.745 6.2 200.779 6.71333 201.539 7.74L201.519 6.62C201.519 6.46 201.572 6.34667 201.679 6.28C201.799 6.21333 201.952 6.21333 202.139 6.28L203.519 6.64ZM198.799 15.34C199.425 15.34 200.005 15.0867 200.539 14.58C201.085 14.06 201.359 13.3533 201.359 12.46V9.64C201.359 8.97333 201.065 8.34 200.479 7.74C199.892 7.14 199.212 6.84 198.439 6.84C197.572 6.84 196.859 7.18667 196.299 7.88C195.752 8.56 195.472 9.46 195.459 10.58C195.432 11.8867 195.732 13.0067 196.359 13.94C196.999 14.8733 197.812 15.34 198.799 15.34ZM209.164 16.18C207.938 16.18 206.951 15.9333 206.204 15.44C205.471 14.9467 205.104 14.4333 205.104 13.9C205.104 13.4067 205.364 13.16 205.884 13.16C206.111 13.16 206.291 13.2467 206.424 13.42C206.571 13.58 206.698 13.78 206.804 14.02C206.911 14.26 207.038 14.5 207.184 14.74C207.344 14.98 207.591 15.1867 207.924 15.36C208.258 15.52 208.671 15.6 209.164 15.6C209.831 15.6 210.378 15.4467 210.804 15.14C211.231 14.82 211.444 14.3867 211.444 13.84C211.444 13.3067 211.231 12.8933 210.804 12.6C210.391 12.3067 209.884 12.1 209.284 11.98C208.684 11.8467 208.084 11.7 207.484 11.54C206.884 11.38 206.371 11.0867 205.944 10.66C205.531 10.2333 205.324 9.66 205.324 8.94C205.324 8.16667 205.678 7.52 206.384 7C207.091 6.46667 207.991 6.2 209.084 6.2C210.244 6.2 211.184 6.44667 211.904 6.94C212.624 7.43333 212.984 7.97333 212.984 8.56C212.984 8.76 212.911 8.92667 212.764 9.06C212.631 9.19333 212.464 9.26 212.264 9.26C212.024 9.26 211.818 9.13333 211.644 8.88C211.471 8.62667 211.324 8.34667 211.204 8.04C211.098 7.73333 210.871 7.45333 210.524 7.2C210.178 6.94667 209.724 6.82 209.164 6.82C208.578 6.82 208.084 6.98667 207.684 7.32C207.298 7.65333 207.104 8.06667 207.104 8.56C207.104 9.08 207.311 9.48667 207.724 9.78C208.151 10.06 208.664 10.2667 209.264 10.4C209.864 10.5333 210.458 10.68 211.044 10.84C211.644 11 212.151 11.3 212.564 11.74C212.991 12.1667 213.204 12.7467 213.204 13.48C213.204 14.2533 212.831 14.9 212.084 15.42C211.351 15.9267 210.378 16.18 209.164 16.18ZM215.1 18.7C214.954 18.7933 214.82 18.78 214.7 18.66C214.594 18.54 214.607 18.4133 214.74 18.28C215.354 17.68 215.72 17.0867 215.84 16.5C215.88 16.3 215.827 16.2 215.68 16.2C215.387 16.2 215.147 16.0933 214.96 15.88C214.774 15.6533 214.68 15.36 214.68 15C214.68 14.6133 214.787 14.3 215 14.06C215.227 13.82 215.527 13.7 215.9 13.7C216.247 13.7 216.54 13.84 216.78 14.12C217.034 14.3867 217.16 14.74 217.16 15.18C217.16 16.58 216.474 17.7533 215.1 18.7ZM4.89859 43.2C4.09859 43.2 3.46526 42.9467 2.99859 42.44C2.54526 41.92 2.31859 41.1667 2.31859 40.18V34.2H0.998594C0.798594 34.2 0.698594 34.1 0.698594 33.9V33.7C0.698594 33.5 0.798594 33.4 0.998594 33.4H1.71859C2.62526 33.4 3.13193 32.7667 3.23859 31.5C3.26526 31.2333 3.37859 31.1 3.57859 31.1H3.77859C3.99193 31.1 4.09859 31.2333 4.09859 31.5L4.11859 33.4H6.87859C6.95859 33.4 7.02526 33.4333 7.07859 33.5C7.14526 33.5533 7.17859 33.62 7.17859 33.7V33.9C7.17859 34.1 7.07859 34.2 6.87859 34.2H4.11859V40.2C4.11859 40.7333 4.23193 41.1467 4.45859 41.44C4.68526 41.7333 4.99193 41.88 5.37859 41.88C5.80526 41.88 6.14526 41.7733 6.39859 41.56C6.66526 41.3333 6.81859 41.04 6.85859 40.68C6.92526 40.52 7.03859 40.4533 7.19859 40.48C7.37193 40.4933 7.45859 40.5867 7.45859 40.76C7.45859 41.4133 7.21859 41.9867 6.73859 42.48C6.27193 42.96 5.65859 43.2 4.89859 43.2ZM17.8275 41.56C17.8542 41.8267 17.9808 42.0533 18.2075 42.24C18.4342 42.4267 18.5475 42.5733 18.5475 42.68V42.76C18.5475 42.92 18.4142 43 18.1475 43H15.7475C15.4808 43 15.3475 42.92 15.3475 42.76V42.68C15.3475 42.5867 15.4075 42.4933 15.5275 42.4C15.6608 42.3067 15.7875 42.2 15.9075 42.08C16.0275 41.9467 16.0808 41.78 16.0675 41.58L15.8675 37.5C15.8142 36.3533 15.5675 35.48 15.1275 34.88C14.6875 34.28 14.1142 33.98 13.4075 33.98C12.6742 33.98 12.0742 34.24 11.6075 34.76C11.1408 35.28 10.9075 35.94 10.9075 36.74V41.6C10.9075 41.8533 11.0408 42.0733 11.3075 42.26C11.5742 42.4333 11.7075 42.5733 11.7075 42.68V42.74C11.7075 42.9133 11.5675 43 11.2875 43H8.7875C8.53417 43 8.4075 42.9133 8.4075 42.74V42.68C8.4075 42.5733 8.5275 42.4333 8.7675 42.26C9.02083 42.0733 9.1475 41.8533 9.1475 41.6V30.3C9.1475 30.0733 9.08083 29.8933 8.9475 29.76C8.8275 29.6133 8.70083 29.5 8.5675 29.42C8.4475 29.3267 8.3875 29.24 8.3875 29.16V29.1C8.3875 28.9533 8.48083 28.84 8.6675 28.76L10.3075 28.04C10.4808 27.96 10.6208 27.9467 10.7275 28C10.8342 28.04 10.8875 28.14 10.8875 28.3L10.8475 34.78C11.5275 33.7267 12.5208 33.2 13.8275 33.2C14.8675 33.2 15.7342 33.5667 16.4275 34.3C17.1342 35.02 17.5275 36.1 17.6075 37.54L17.8275 41.56ZM27.8947 40.18C27.988 40.0333 28.1147 39.98 28.2747 40.02C28.4347 40.0467 28.508 40.1533 28.4947 40.34C28.3347 41.06 27.9147 41.72 27.2347 42.32C26.5547 42.9067 25.6547 43.2 24.5347 43.2C23.1347 43.2 21.9814 42.7333 21.0747 41.8C20.1814 40.8533 19.7347 39.6267 19.7347 38.12C19.7347 36.68 20.1814 35.5067 21.0747 34.6C21.968 33.68 23.1147 33.2133 24.5147 33.2C25.5414 33.1867 26.3814 33.42 27.0347 33.9C27.7014 34.3667 28.0347 35.02 28.0347 35.86C28.0347 36.54 27.748 37.1467 27.1747 37.68C26.6014 38.2 25.8414 38.5533 24.8947 38.74C23.9614 38.9133 22.8347 38.9467 21.5147 38.84C21.7414 39.7867 22.1614 40.54 22.7747 41.1C23.388 41.6467 24.128 41.92 24.9947 41.92C25.7147 41.92 26.3214 41.76 26.8147 41.44C27.308 41.12 27.668 40.7 27.8947 40.18ZM24.2147 33.88C23.3747 33.88 22.688 34.22 22.1547 34.9C21.6214 35.58 21.3547 36.4133 21.3547 37.4C21.3547 37.56 21.368 37.8 21.3947 38.12C22.7014 38.2133 23.7547 38.1733 24.5547 38C25.7547 37.7467 26.348 37.0333 26.3347 35.86C26.3214 35.2733 26.1147 34.8 25.7147 34.44C25.328 34.0667 24.828 33.88 24.2147 33.88ZM38.1361 33.24C38.4961 33.1867 38.6761 33.28 38.6761 33.52V42.14C38.6761 43.7267 38.2628 44.94 37.4361 45.78C36.6094 46.62 35.5094 47.04 34.1361 47.04C32.9494 47.04 31.9761 46.7267 31.2161 46.1C30.4694 45.4867 30.0961 44.8267 30.0961 44.12C30.0961 43.9067 30.1694 43.7267 30.3161 43.58C30.4628 43.4467 30.6561 43.38 30.8961 43.38C31.1094 43.38 31.2894 43.48 31.4361 43.68C31.5828 43.8933 31.7094 44.1467 31.8161 44.44C31.9361 44.7333 32.0828 45.0267 32.2561 45.32C32.4294 45.6133 32.6961 45.8667 33.0561 46.08C33.4294 46.2933 33.8828 46.4 34.4161 46.4C36.0828 46.4 36.9161 45.0467 36.9161 42.34V41.52C36.2894 42.5067 35.3094 43 33.9761 43C32.8961 43 32.0161 42.6 31.3361 41.8C30.6561 41 30.3161 39.9467 30.3161 38.64V35.1C30.3161 34.8067 30.1894 34.56 29.9361 34.36C29.6961 34.16 29.5761 34.02 29.5761 33.94V33.88C29.5761 33.72 29.6761 33.62 29.8761 33.58L31.5561 33.28C31.9161 33.2133 32.0961 33.2933 32.0961 33.52L32.0761 38.78C32.0761 39.8467 32.2761 40.6867 32.6761 41.3C33.0894 41.9133 33.6561 42.22 34.3761 42.22C35.0961 42.22 35.6961 41.9467 36.1761 41.4C36.6694 40.84 36.9161 40.1267 36.9161 39.26V35.1C36.9161 34.82 36.7894 34.58 36.5361 34.38C36.2828 34.18 36.1561 34.0333 36.1561 33.94V33.88C36.1561 33.72 36.2494 33.62 36.4361 33.58L38.1361 33.24ZM47.5667 34.5C48.2601 33.6333 49.2401 33.2 50.5067 33.2C51.7734 33.2 52.8534 33.6533 53.7467 34.56C54.6534 35.4533 55.1067 36.62 55.1067 38.06C55.1067 39.5267 54.6601 40.7533 53.7667 41.74C52.8867 42.7133 51.8067 43.2 50.5267 43.2C49.2067 43.2 48.1801 42.6933 47.4467 41.68L47.4667 42.7C47.4667 42.9133 47.3534 43.02 47.1267 43.02L45.3867 43C45.1867 43 45.0867 42.9267 45.0867 42.78V42.72C45.0867 42.6267 45.2067 42.48 45.4467 42.28C45.7001 42.08 45.8267 41.8467 45.8267 41.58V30.38C45.8267 30.14 45.7601 29.9467 45.6267 29.8C45.4934 29.6533 45.3601 29.54 45.2267 29.46C45.0934 29.3667 45.0267 29.2733 45.0267 29.18V29.12C45.0267 29 45.1401 28.8933 45.3667 28.8L46.9467 28.04C47.1334 27.9467 47.2801 27.9267 47.3867 27.98C47.5067 28.0333 47.5667 28.1467 47.5667 28.32V34.5ZM50.2667 42.56C51.2001 42.56 51.9401 42.2 52.4867 41.48C53.0467 40.7467 53.3267 39.7667 53.3267 38.54C53.3267 37.1533 53.0201 36.0267 52.4067 35.16C51.8067 34.28 51.0201 33.84 50.0467 33.84C49.3801 33.84 48.8001 34.0933 48.3067 34.6C47.8134 35.0933 47.5667 35.68 47.5667 36.36V39.2L47.5467 39.48H47.5667C47.5667 40.28 47.8401 40.9933 48.3867 41.62C48.9467 42.2467 49.5734 42.56 50.2667 42.56ZM64.6134 40.18C64.7068 40.0333 64.8334 39.98 64.9934 40.02C65.1534 40.0467 65.2268 40.1533 65.2134 40.34C65.0534 41.06 64.6334 41.72 63.9534 42.32C63.2734 42.9067 62.3734 43.2 61.2534 43.2C59.8534 43.2 58.7001 42.7333 57.7934 41.8C56.9001 40.8533 56.4534 39.6267 56.4534 38.12C56.4534 36.68 56.9001 35.5067 57.7934 34.6C58.6868 33.68 59.8334 33.2133 61.2334 33.2C62.2601 33.1867 63.1001 33.42 63.7534 33.9C64.4201 34.3667 64.7534 35.02 64.7534 35.86C64.7534 36.54 64.4668 37.1467 63.8934 37.68C63.3201 38.2 62.5601 38.5533 61.6134 38.74C60.6801 38.9133 59.5534 38.9467 58.2334 38.84C58.4601 39.7867 58.8801 40.54 59.4934 41.1C60.1068 41.6467 60.8468 41.92 61.7134 41.92C62.4334 41.92 63.0401 41.76 63.5334 41.44C64.0268 41.12 64.3868 40.7 64.6134 40.18ZM60.9334 33.88C60.0934 33.88 59.4068 34.22 58.8734 34.9C58.3401 35.58 58.0734 36.4133 58.0734 37.4C58.0734 37.56 58.0868 37.8 58.1134 38.12C59.4201 38.2133 60.4734 38.1733 61.2734 38C62.4734 37.7467 63.0668 37.0333 63.0534 35.86C63.0401 35.2733 62.8334 34.8 62.4334 34.44C62.0468 34.0667 61.5468 33.88 60.9334 33.88ZM66.8548 43C66.6015 43 66.4748 42.9133 66.4748 42.74V42.68C66.4748 42.5733 66.5882 42.4333 66.8148 42.26C67.0548 42.0733 67.1748 41.8533 67.1748 41.6V30.36C67.1748 30.1333 67.1148 29.9467 66.9948 29.8C66.8882 29.64 66.7748 29.5133 66.6548 29.42C66.5348 29.3267 66.4748 29.24 66.4748 29.16V29.12C66.4748 29.0133 66.5682 28.9067 66.7548 28.8L68.3148 28.04C68.5148 27.96 68.6682 27.9533 68.7748 28.02C68.8815 28.0733 68.9348 28.1733 68.9348 28.32V41.6C68.9348 41.8533 69.0615 42.0733 69.3148 42.26C69.5815 42.4333 69.7148 42.5733 69.7148 42.68V42.74C69.7148 42.9133 69.5815 43 69.3148 43H66.8548ZM76.3214 43.2C74.7747 43.2 73.5147 42.7 72.5414 41.7C71.5814 40.6867 71.1014 39.4733 71.1014 38.06C71.1014 36.6733 71.5681 35.52 72.5014 34.6C73.4347 33.6667 74.5881 33.2 75.9614 33.2C77.4414 33.2 78.6547 33.6933 79.6014 34.68C80.5614 35.6533 81.0414 36.8533 81.0414 38.28C81.0414 39.68 80.6014 40.8533 79.7214 41.8C78.8414 42.7333 77.7081 43.2 76.3214 43.2ZM76.5614 42.54C77.3481 42.54 77.9947 42.2067 78.5014 41.54C79.0214 40.8733 79.2814 39.9867 79.2814 38.88C79.2814 37.4667 78.9481 36.28 78.2814 35.32C77.6147 34.3467 76.7747 33.86 75.7614 33.86C74.9081 33.86 74.2147 34.1933 73.6814 34.86C73.1481 35.5133 72.8814 36.3933 72.8814 37.5C72.8814 38.8333 73.2281 40.0067 73.9214 41.02C74.6147 42.0333 75.4947 42.54 76.5614 42.54ZM92.03 41.56C92.0433 41.7733 92.11 41.9467 92.23 42.08C92.35 42.2133 92.4633 42.3267 92.57 42.42C92.69 42.5 92.75 42.5867 92.75 42.68V42.76C92.75 42.9333 92.61 43.02 92.33 43.02H89.95C89.67 43.02 89.53 42.9333 89.53 42.76V42.68C89.53 42.5867 89.65 42.4467 89.89 42.26C90.1433 42.0733 90.2633 41.8467 90.25 41.58L90.05 37.58C89.9967 36.3933 89.75 35.5 89.31 34.9C88.8833 34.2867 88.31 33.98 87.59 33.98C86.8567 33.98 86.2567 34.24 85.79 34.76C85.3233 35.28 85.09 35.94 85.09 36.74V41.6C85.09 41.76 85.13 41.9 85.21 42.02C85.3033 42.1267 85.3967 42.2067 85.49 42.26C85.5833 42.3133 85.67 42.38 85.75 42.46C85.8433 42.5267 85.89 42.6 85.89 42.68V42.76C85.89 42.9333 85.75 43.02 85.47 43.02H82.97C82.7033 43.02 82.57 42.9333 82.57 42.76V42.68C82.57 42.5733 82.6967 42.4333 82.95 42.26C83.2167 42.0867 83.35 41.8667 83.35 41.6V35.54C83.35 35.2867 83.2767 35.0933 83.13 34.96C82.9967 34.8133 82.8567 34.7 82.71 34.62C82.5767 34.54 82.51 34.4533 82.51 34.36V34.3C82.51 34.18 82.6167 34.08 82.83 34L84.33 33.28C84.5167 33.1867 84.6567 33.1733 84.75 33.24C84.8433 33.3067 84.89 33.42 84.89 33.58V35.04C85.1833 34.48 85.6033 34.0333 86.15 33.7C86.71 33.3667 87.33 33.2 88.01 33.2C89.05 33.2 89.9167 33.5667 90.61 34.3C91.3167 35.0333 91.7167 36.14 91.81 37.62L92.03 41.56ZM103.694 33.64C103.894 33.6933 103.994 33.8067 103.994 33.98V34.04C103.994 34.12 103.928 34.2067 103.794 34.3C103.674 34.3933 103.548 34.52 103.414 34.68C103.294 34.8267 103.234 35.0133 103.234 35.24V42.02C103.234 43.6467 102.834 44.8867 102.034 45.74C101.234 46.6067 100.188 47.04 98.8944 47.04C97.6144 47.04 96.5744 46.7267 95.7744 46.1C94.9877 45.4867 94.5944 44.8467 94.5944 44.18C94.5944 43.98 94.661 43.8067 94.7944 43.66C94.941 43.5133 95.141 43.44 95.3944 43.44C95.6344 43.44 95.8477 43.5933 96.0344 43.9C96.2344 44.2067 96.4077 44.54 96.5544 44.9C96.7144 45.2733 97.001 45.6133 97.4144 45.92C97.841 46.24 98.381 46.4 99.0344 46.4C99.7944 46.4 100.401 46.0667 100.854 45.4C101.308 44.7467 101.534 43.7533 101.534 42.42V41.56C101.201 42.0133 100.768 42.3667 100.234 42.62C99.701 42.8733 99.141 43 98.5544 43C97.2877 43 96.1944 42.5467 95.2744 41.64C94.3677 40.72 93.9144 39.5667 93.9144 38.18C93.9144 36.7267 94.361 35.5333 95.2544 34.6C96.1477 33.6667 97.2677 33.2 98.6144 33.2C99.921 33.2 100.954 33.7133 101.714 34.74L101.694 33.62C101.694 33.46 101.748 33.3467 101.854 33.28C101.974 33.2133 102.128 33.2133 102.314 33.28L103.694 33.64ZM98.9744 42.34C99.601 42.34 100.181 42.0867 100.714 41.58C101.261 41.06 101.534 40.3533 101.534 39.46V36.64C101.534 35.9733 101.241 35.34 100.654 34.74C100.068 34.14 99.3877 33.84 98.6144 33.84C97.7477 33.84 97.0344 34.1867 96.4744 34.88C95.9277 35.56 95.6477 36.46 95.6344 37.58C95.6077 38.8867 95.9077 40.0067 96.5344 40.94C97.1744 41.8733 97.9877 42.34 98.9744 42.34ZM113.278 43.2C112.478 43.2 111.844 42.9467 111.378 42.44C110.924 41.92 110.698 41.1667 110.698 40.18V34.2H109.378C109.178 34.2 109.078 34.1 109.078 33.9V33.7C109.078 33.5 109.178 33.4 109.378 33.4H110.098C111.004 33.4 111.511 32.7667 111.618 31.5C111.644 31.2333 111.758 31.1 111.958 31.1H112.158C112.371 31.1 112.478 31.2333 112.478 31.5L112.498 33.4H115.258C115.338 33.4 115.404 33.4333 115.458 33.5C115.524 33.5533 115.558 33.62 115.558 33.7V33.9C115.558 34.1 115.458 34.2 115.258 34.2H112.498V40.2C112.498 40.7333 112.611 41.1467 112.838 41.44C113.064 41.7333 113.371 41.88 113.758 41.88C114.184 41.88 114.524 41.7733 114.778 41.56C115.044 41.3333 115.198 41.04 115.238 40.68C115.304 40.52 115.418 40.4533 115.578 40.48C115.751 40.4933 115.838 40.5867 115.838 40.76C115.838 41.4133 115.598 41.9867 115.118 42.48C114.651 42.96 114.038 43.2 113.278 43.2ZM121.868 43.2C120.322 43.2 119.062 42.7 118.088 41.7C117.128 40.6867 116.648 39.4733 116.648 38.06C116.648 36.6733 117.115 35.52 118.048 34.6C118.982 33.6667 120.135 33.2 121.508 33.2C122.988 33.2 124.202 33.6933 125.148 34.68C126.108 35.6533 126.588 36.8533 126.588 38.28C126.588 39.68 126.148 40.8533 125.268 41.8C124.388 42.7333 123.255 43.2 121.868 43.2ZM122.108 42.54C122.895 42.54 123.542 42.2067 124.048 41.54C124.568 40.8733 124.828 39.9867 124.828 38.88C124.828 37.4667 124.495 36.28 123.828 35.32C123.162 34.3467 122.322 33.86 121.308 33.86C120.455 33.86 119.762 34.1933 119.228 34.86C118.695 35.5133 118.428 36.3933 118.428 37.5C118.428 38.8333 118.775 40.0067 119.468 41.02C120.162 42.0333 121.042 42.54 122.108 42.54ZM135.914 43.2C135.114 43.2 134.481 42.9467 134.014 42.44C133.561 41.92 133.334 41.1667 133.334 40.18V34.2H132.014C131.814 34.2 131.714 34.1 131.714 33.9V33.7C131.714 33.5 131.814 33.4 132.014 33.4H132.734C133.641 33.4 134.148 32.7667 134.254 31.5C134.281 31.2333 134.394 31.1 134.594 31.1H134.794C135.008 31.1 135.114 31.2333 135.114 31.5L135.134 33.4H137.894C137.974 33.4 138.041 33.4333 138.094 33.5C138.161 33.5533 138.194 33.62 138.194 33.7V33.9C138.194 34.1 138.094 34.2 137.894 34.2H135.134V40.2C135.134 40.7333 135.248 41.1467 135.474 41.44C135.701 41.7333 136.008 41.88 136.394 41.88C136.821 41.88 137.161 41.7733 137.414 41.56C137.681 41.3333 137.834 41.04 137.874 40.68C137.941 40.52 138.054 40.4533 138.214 40.48C138.388 40.4933 138.474 40.5867 138.474 40.76C138.474 41.4133 138.234 41.9867 137.754 42.48C137.288 42.96 136.674 43.2 135.914 43.2ZM148.843 41.56C148.87 41.8267 148.996 42.0533 149.223 42.24C149.45 42.4267 149.563 42.5733 149.563 42.68V42.76C149.563 42.92 149.43 43 149.163 43H146.763C146.496 43 146.363 42.92 146.363 42.76V42.68C146.363 42.5867 146.423 42.4933 146.543 42.4C146.676 42.3067 146.803 42.2 146.923 42.08C147.043 41.9467 147.096 41.78 147.083 41.58L146.883 37.5C146.83 36.3533 146.583 35.48 146.143 34.88C145.703 34.28 145.13 33.98 144.423 33.98C143.69 33.98 143.09 34.24 142.623 34.76C142.156 35.28 141.923 35.94 141.923 36.74V41.6C141.923 41.8533 142.056 42.0733 142.323 42.26C142.59 42.4333 142.723 42.5733 142.723 42.68V42.74C142.723 42.9133 142.583 43 142.303 43H139.803C139.55 43 139.423 42.9133 139.423 42.74V42.68C139.423 42.5733 139.543 42.4333 139.783 42.26C140.036 42.0733 140.163 41.8533 140.163 41.6V30.3C140.163 30.0733 140.096 29.8933 139.963 29.76C139.843 29.6133 139.716 29.5 139.583 29.42C139.463 29.3267 139.403 29.24 139.403 29.16V29.1C139.403 28.9533 139.496 28.84 139.683 28.76L141.323 28.04C141.496 27.96 141.636 27.9467 141.743 28C141.85 28.04 141.903 28.14 141.903 28.3L141.863 34.78C142.543 33.7267 143.536 33.2 144.843 33.2C145.883 33.2 146.75 33.5667 147.443 34.3C148.15 35.02 148.543 36.1 148.623 37.54L148.843 41.56ZM158.91 40.18C159.004 40.0333 159.13 39.98 159.29 40.02C159.45 40.0467 159.524 40.1533 159.51 40.34C159.35 41.06 158.93 41.72 158.25 42.32C157.57 42.9067 156.67 43.2 155.55 43.2C154.15 43.2 152.997 42.7333 152.09 41.8C151.197 40.8533 150.75 39.6267 150.75 38.12C150.75 36.68 151.197 35.5067 152.09 34.6C152.984 33.68 154.13 33.2133 155.53 33.2C156.557 33.1867 157.397 33.42 158.05 33.9C158.717 34.3667 159.05 35.02 159.05 35.86C159.05 36.54 158.764 37.1467 158.19 37.68C157.617 38.2 156.857 38.5533 155.91 38.74C154.977 38.9133 153.85 38.9467 152.53 38.84C152.757 39.7867 153.177 40.54 153.79 41.1C154.404 41.6467 155.144 41.92 156.01 41.92C156.73 41.92 157.337 41.76 157.83 41.44C158.324 41.12 158.684 40.7 158.91 40.18ZM155.23 33.88C154.39 33.88 153.704 34.22 153.17 34.9C152.637 35.58 152.37 36.4133 152.37 37.4C152.37 37.56 152.384 37.8 152.41 38.12C153.717 38.2133 154.77 38.1733 155.57 38C156.77 37.7467 157.364 37.0333 157.35 35.86C157.337 35.2733 157.13 34.8 156.73 34.44C156.344 34.0667 155.844 33.88 155.23 33.88ZM174.964 33.64C175.164 33.6933 175.264 33.8067 175.264 33.98V34.04C175.264 34.12 175.197 34.2067 175.064 34.3C174.944 34.3933 174.817 34.52 174.684 34.68C174.564 34.8267 174.504 35.0133 174.504 35.24V42.02C174.504 43.6467 174.104 44.8867 173.304 45.74C172.504 46.6067 171.457 47.04 170.164 47.04C168.884 47.04 167.844 46.7267 167.044 46.1C166.257 45.4867 165.864 44.8467 165.864 44.18C165.864 43.98 165.931 43.8067 166.064 43.66C166.211 43.5133 166.411 43.44 166.664 43.44C166.904 43.44 167.117 43.5933 167.304 43.9C167.504 44.2067 167.677 44.54 167.824 44.9C167.984 45.2733 168.271 45.6133 168.684 45.92C169.111 46.24 169.651 46.4 170.304 46.4C171.064 46.4 171.671 46.0667 172.124 45.4C172.577 44.7467 172.804 43.7533 172.804 42.42V41.56C172.471 42.0133 172.037 42.3667 171.504 42.62C170.971 42.8733 170.411 43 169.824 43C168.557 43 167.464 42.5467 166.544 41.64C165.637 40.72 165.184 39.5667 165.184 38.18C165.184 36.7267 165.631 35.5333 166.524 34.6C167.417 33.6667 168.537 33.2 169.884 33.2C171.191 33.2 172.224 33.7133 172.984 34.74L172.964 33.62C172.964 33.46 173.017 33.3467 173.124 33.28C173.244 33.2133 173.397 33.2133 173.584 33.28L174.964 33.64ZM170.244 42.34C170.871 42.34 171.451 42.0867 171.984 41.58C172.531 41.06 172.804 40.3533 172.804 39.46V36.64C172.804 35.9733 172.511 35.34 171.924 34.74C171.337 34.14 170.657 33.84 169.884 33.84C169.017 33.84 168.304 34.1867 167.744 34.88C167.197 35.56 166.917 36.46 166.904 37.58C166.877 38.8867 167.177 40.0067 167.804 40.94C168.444 41.8733 169.257 42.34 170.244 42.34ZM184.77 40.18C184.863 40.0333 184.99 39.98 185.15 40.02C185.31 40.0467 185.383 40.1533 185.37 40.34C185.21 41.06 184.79 41.72 184.11 42.32C183.43 42.9067 182.53 43.2 181.41 43.2C180.01 43.2 178.856 42.7333 177.95 41.8C177.056 40.8533 176.61 39.6267 176.61 38.12C176.61 36.68 177.056 35.5067 177.95 34.6C178.843 33.68 179.99 33.2133 181.39 33.2C182.416 33.1867 183.256 33.42 183.91 33.9C184.576 34.3667 184.91 35.02 184.91 35.86C184.91 36.54 184.623 37.1467 184.05 37.68C183.476 38.2 182.716 38.5533 181.77 38.74C180.836 38.9133 179.71 38.9467 178.39 38.84C178.616 39.7867 179.036 40.54 179.65 41.1C180.263 41.6467 181.003 41.92 181.87 41.92C182.59 41.92 183.196 41.76 183.69 41.44C184.183 41.12 184.543 40.7 184.77 40.18ZM181.09 33.88C180.25 33.88 179.563 34.22 179.03 34.9C178.496 35.58 178.23 36.4133 178.23 37.4C178.23 37.56 178.243 37.8 178.27 38.12C179.576 38.2133 180.63 38.1733 181.43 38C182.63 37.7467 183.223 37.0333 183.21 35.86C183.196 35.2733 182.99 34.8 182.59 34.44C182.203 34.0667 181.703 33.88 181.09 33.88ZM196.151 41.56C196.164 41.7733 196.231 41.9467 196.351 42.08C196.471 42.2133 196.584 42.3267 196.691 42.42C196.811 42.5 196.871 42.5867 196.871 42.68V42.76C196.871 42.9333 196.731 43.02 196.451 43.02H194.071C193.791 43.02 193.651 42.9333 193.651 42.76V42.68C193.651 42.5867 193.771 42.4467 194.011 42.26C194.264 42.0733 194.384 41.8467 194.371 41.58L194.171 37.58C194.118 36.3933 193.871 35.5 193.431 34.9C193.004 34.2867 192.431 33.98 191.711 33.98C190.978 33.98 190.378 34.24 189.911 34.76C189.444 35.28 189.211 35.94 189.211 36.74V41.6C189.211 41.76 189.251 41.9 189.331 42.02C189.424 42.1267 189.518 42.2067 189.611 42.26C189.704 42.3133 189.791 42.38 189.871 42.46C189.964 42.5267 190.011 42.6 190.011 42.68V42.76C190.011 42.9333 189.871 43.02 189.591 43.02H187.091C186.824 43.02 186.691 42.9333 186.691 42.76V42.68C186.691 42.5733 186.818 42.4333 187.071 42.26C187.338 42.0867 187.471 41.8667 187.471 41.6V35.54C187.471 35.2867 187.398 35.0933 187.251 34.96C187.118 34.8133 186.978 34.7 186.831 34.62C186.698 34.54 186.631 34.4533 186.631 34.36V34.3C186.631 34.18 186.738 34.08 186.951 34L188.451 33.28C188.638 33.1867 188.778 33.1733 188.871 33.24C188.964 33.3067 189.011 33.42 189.011 33.58V35.04C189.304 34.48 189.724 34.0333 190.271 33.7C190.831 33.3667 191.451 33.2 192.131 33.2C193.171 33.2 194.038 33.5667 194.731 34.3C195.438 35.0333 195.838 36.14 195.931 37.62L196.151 41.56ZM207.075 41.28C207.075 41.6133 207.135 41.8667 207.255 42.04C207.375 42.2133 207.502 42.3133 207.635 42.34C207.769 42.3533 207.895 42.3867 208.015 42.44C208.135 42.4933 208.195 42.58 208.195 42.7C208.195 42.98 207.782 43.12 206.955 43.12C205.942 43.12 205.455 42.6267 205.495 41.64L205.455 41.52C204.842 42.64 203.815 43.2 202.375 43.2C201.255 43.2 200.355 42.8067 199.675 42.02C199.009 41.22 198.675 40.0933 198.675 38.64V35.1C198.675 34.8067 198.549 34.56 198.295 34.36C198.055 34.16 197.935 34.02 197.935 33.94V33.88C197.935 33.72 198.035 33.62 198.235 33.58L199.915 33.28C200.275 33.2133 200.455 33.2933 200.455 33.52L200.435 38.78C200.435 39.94 200.635 40.84 201.035 41.48C201.449 42.1067 202.035 42.42 202.795 42.42C203.515 42.42 204.115 42.14 204.595 41.58C205.089 41.02 205.335 40.2867 205.335 39.38V35.1C205.335 34.82 205.202 34.58 204.935 34.38C204.682 34.18 204.555 34.0333 204.555 33.94V33.88C204.555 33.72 204.655 33.62 204.855 33.58L206.555 33.28C206.902 33.2133 207.075 33.2933 207.075 33.52V41.28ZM213.344 43.18C212.117 43.18 211.131 42.9333 210.384 42.44C209.651 41.9467 209.284 41.4333 209.284 40.9C209.284 40.4067 209.544 40.16 210.064 40.16C210.291 40.16 210.471 40.2467 210.604 40.42C210.751 40.58 210.877 40.78 210.984 41.02C211.091 41.26 211.217 41.5 211.364 41.74C211.524 41.98 211.771 42.1867 212.104 42.36C212.437 42.52 212.851 42.6 213.344 42.6C214.011 42.6 214.557 42.4467 214.984 42.14C215.411 41.82 215.624 41.3867 215.624 40.84C215.624 40.3067 215.411 39.8933 214.984 39.6C214.571 39.3067 214.064 39.1 213.464 38.98C212.864 38.8467 212.264 38.7 211.664 38.54C211.064 38.38 210.551 38.0867 210.124 37.66C209.711 37.2333 209.504 36.66 209.504 35.94C209.504 35.1667 209.857 34.52 210.564 34C211.271 33.4667 212.171 33.2 213.264 33.2C214.424 33.2 215.364 33.4467 216.084 33.94C216.804 34.4333 217.164 34.9733 217.164 35.56C217.164 35.76 217.091 35.9267 216.944 36.06C216.811 36.1933 216.644 36.26 216.444 36.26C216.204 36.26 215.997 36.1333 215.824 35.88C215.651 35.6267 215.504 35.3467 215.384 35.04C215.277 34.7333 215.051 34.4533 214.704 34.2C214.357 33.9467 213.904 33.82 213.344 33.82C212.757 33.82 212.264 33.9867 211.864 34.32C211.477 34.6533 211.284 35.0667 211.284 35.56C211.284 36.08 211.491 36.4867 211.904 36.78C212.331 37.06 212.844 37.2667 213.444 37.4C214.044 37.5333 214.637 37.68 215.224 37.84C215.824 38 216.331 38.3 216.744 38.74C217.171 39.1667 217.384 39.7467 217.384 40.48C217.384 41.2533 217.011 41.9 216.264 42.42C215.531 42.9267 214.557 43.18 213.344 43.18Z" fill="black"/>
<path d="M115.184 54.46C115.384 54.34 115.564 54.3667 115.724 54.54C115.897 54.7133 115.904 54.8867 115.744 55.06C115.357 55.4333 115.077 55.7467 114.904 56C114.744 56.24 114.644 56.5 114.604 56.78C114.564 57.0467 114.637 57.18 114.824 57.18C115.184 57.18 115.491 57.3333 115.744 57.64C115.997 57.9467 116.124 58.34 116.124 58.82C116.124 59.38 115.964 59.8333 115.644 60.18C115.324 60.5133 114.897 60.68 114.364 60.68C113.844 60.68 113.404 60.4933 113.044 60.12C112.697 59.7333 112.524 59.2133 112.524 58.56C112.524 56.9333 113.411 55.5667 115.184 54.46ZM133.221 68.04C133.274 68.3467 133.421 68.6467 133.661 68.94C133.901 69.2333 134.021 69.4533 134.021 69.6V69.66C134.021 69.8867 133.874 70 133.581 70H129.961C129.667 70 129.521 69.8867 129.521 69.66V69.6C129.521 69.48 129.647 69.2733 129.901 68.98C130.167 68.6733 130.274 68.36 130.221 68.04L128.801 59.92L125.441 69.44C125.321 69.8 125.101 69.98 124.781 69.98C124.434 69.98 124.194 69.8067 124.061 69.46L120.341 59.64L119.061 68.04C119.007 68.36 119.114 68.6733 119.381 68.98C119.661 69.2733 119.801 69.48 119.801 69.6V69.66C119.801 69.8867 119.647 70 119.341 70H117.101C116.794 70 116.641 69.8867 116.641 69.66V69.6C116.641 69.4533 116.761 69.2333 117.001 68.94C117.254 68.6333 117.401 68.3333 117.441 68.04L119.101 57.74C119.141 57.42 119.027 57.12 118.761 56.84C118.507 56.5467 118.381 56.3333 118.381 56.2V56.14C118.381 55.9133 118.514 55.8 118.781 55.8H122.561C122.841 55.8 122.981 55.9133 122.981 56.14V56.2C122.981 56.2667 122.861 56.4733 122.621 56.82C122.394 57.1533 122.334 57.4733 122.441 57.78L125.201 65.82L128.001 57.64C128.081 57.36 127.987 57.0733 127.721 56.78C127.467 56.4733 127.341 56.28 127.341 56.2V56.14C127.341 55.9133 127.474 55.8 127.741 55.8H131.621C131.901 55.8 132.041 55.9067 132.041 56.12V56.2C132.041 56.3333 131.961 56.4733 131.801 56.62C131.654 56.7667 131.521 56.94 131.401 57.14C131.281 57.3267 131.247 57.5533 131.301 57.82L133.221 68.04ZM138.629 58.5C138.282 58.82 137.815 58.98 137.229 58.98C136.642 58.98 136.162 58.82 135.789 58.5C135.429 58.1667 135.249 57.74 135.249 57.22C135.249 56.7133 135.429 56.3 135.789 55.98C136.162 55.6467 136.642 55.48 137.229 55.48C137.815 55.48 138.282 55.6467 138.629 55.98C138.989 56.3 139.169 56.7133 139.169 57.22C139.169 57.74 138.989 58.1667 138.629 58.5ZM135.409 70C135.115 70 134.969 69.8867 134.969 69.66V69.58C134.969 69.4467 135.095 69.24 135.349 68.96C135.602 68.68 135.729 68.38 135.729 68.06V63.54C135.729 63.2067 135.602 62.8933 135.349 62.6C135.095 62.3067 134.969 62.1067 134.969 62V61.94C134.969 61.8067 135.109 61.6667 135.389 61.52L137.889 60.28C138.142 60.1733 138.342 60.1667 138.489 60.26C138.635 60.34 138.709 60.48 138.709 60.68V68.06C138.709 68.38 138.849 68.68 139.129 68.96C139.409 69.24 139.549 69.4467 139.549 69.58V69.66C139.549 69.8867 139.395 70 139.089 70H135.409ZM145.65 70.2C144.17 70.2 142.937 69.7067 141.95 68.72C140.977 67.7333 140.49 66.5533 140.49 65.18C140.49 63.6867 140.977 62.4867 141.95 61.58C142.937 60.6733 144.13 60.2133 145.53 60.2C146.677 60.1867 147.65 60.4533 148.45 61C149.264 61.5467 149.67 62.2133 149.67 63C149.67 63.2933 149.57 63.54 149.37 63.74C149.17 63.9267 148.857 64.0133 148.43 64C148.11 63.9867 147.83 63.8733 147.59 63.66C147.35 63.4467 147.15 63.2 146.99 62.92C146.844 62.64 146.69 62.36 146.53 62.08C146.37 61.8 146.17 61.5667 145.93 61.38C145.69 61.18 145.41 61.08 145.09 61.08C144.53 61.08 144.077 61.3333 143.73 61.84C143.397 62.3467 143.23 62.98 143.23 63.74C143.23 65.0733 143.537 66.14 144.15 66.94C144.777 67.74 145.604 68.14 146.63 68.14C147.684 68.14 148.484 67.6733 149.03 66.74C149.11 66.6333 149.204 66.5733 149.31 66.56C149.43 66.5333 149.53 66.56 149.61 66.64C149.704 66.7067 149.744 66.8067 149.73 66.94C149.664 67.8333 149.27 68.6 148.55 69.24C147.844 69.88 146.877 70.2 145.65 70.2ZM156.908 60.2C157.481 60.2 157.928 60.3733 158.248 60.72C158.581 61.0533 158.748 61.4867 158.748 62.02C158.748 63.0733 158.321 63.6 157.468 63.6C157.121 63.6 156.848 63.5133 156.648 63.34C156.461 63.1533 156.348 62.9533 156.308 62.74C156.268 62.5267 156.188 62.3333 156.067 62.16C155.948 61.9733 155.768 61.88 155.528 61.88C155.168 61.88 154.901 62.0933 154.728 62.52C154.554 62.9467 154.468 63.4667 154.468 64.08V68.08C154.468 68.32 154.548 68.5333 154.708 68.72C154.881 68.8933 155.048 69.0467 155.208 69.18C155.381 69.3133 155.467 69.4467 155.467 69.58V69.66C155.467 69.8867 155.321 70 155.028 70H151.328C151.021 70 150.868 69.8867 150.868 69.66V69.58C150.868 69.4467 150.994 69.24 151.248 68.96C151.514 68.68 151.648 68.3867 151.648 68.08V63.4C151.648 63.08 151.494 62.7933 151.188 62.54C150.881 62.2867 150.728 62.0933 150.728 61.96V61.88C150.728 61.6933 150.868 61.5333 151.148 61.4L153.548 60.28C153.974 60.08 154.188 60.2133 154.188 60.68V62.18C154.641 60.86 155.548 60.2 156.908 60.2ZM163.082 58.5C162.735 58.82 162.268 58.98 161.682 58.98C161.095 58.98 160.615 58.82 160.242 58.5C159.882 58.1667 159.702 57.74 159.702 57.22C159.702 56.7133 159.882 56.3 160.242 55.98C160.615 55.6467 161.095 55.48 161.682 55.48C162.268 55.48 162.735 55.6467 163.082 55.98C163.442 56.3 163.622 56.7133 163.622 57.22C163.622 57.74 163.442 58.1667 163.082 58.5ZM159.862 70C159.568 70 159.422 69.8867 159.422 69.66V69.58C159.422 69.4467 159.548 69.24 159.802 68.96C160.055 68.68 160.182 68.38 160.182 68.06V63.54C160.182 63.2067 160.055 62.8933 159.802 62.6C159.548 62.3067 159.422 62.1067 159.422 62V61.94C159.422 61.8067 159.562 61.6667 159.842 61.52L162.342 60.28C162.595 60.1733 162.795 60.1667 162.942 60.26C163.088 60.34 163.162 60.48 163.162 60.68V68.06C163.162 68.38 163.302 68.68 163.582 68.96C163.862 69.24 164.002 69.4467 164.002 69.58V69.66C164.002 69.8867 163.848 70 163.542 70H159.862ZM173.903 68.04C174.05 68.2133 174.243 68.4067 174.483 68.62C174.723 68.8333 174.91 69.0133 175.043 69.16C175.177 69.2933 175.243 69.4333 175.243 69.58V69.66C175.243 69.8867 175.103 70 174.823 70H170.783C170.53 70 170.403 69.88 170.403 69.64V69.58C170.403 69.4733 170.49 69.3467 170.663 69.2C170.85 69.04 170.963 68.8933 171.003 68.76C171.057 68.6267 170.957 68.3667 170.703 67.98L169.283 66.24L167.703 68.1C167.517 68.3133 167.417 68.5 167.403 68.66C167.39 68.82 167.43 68.94 167.523 69.02C167.617 69.1 167.71 69.1933 167.803 69.3C167.91 69.3933 167.963 69.4867 167.963 69.58V69.64C167.963 69.88 167.83 70 167.563 70H164.843C164.577 70 164.443 69.8867 164.443 69.66V69.58C164.443 69.4467 164.517 69.32 164.663 69.2C164.81 69.0667 165.023 68.8933 165.303 68.68C165.597 68.4667 165.85 68.2467 166.063 68.02L168.543 65.32L166.143 62.38C165.957 62.1533 165.763 61.9533 165.563 61.78C165.377 61.6067 165.223 61.48 165.103 61.4C164.997 61.32 164.903 61.2333 164.823 61.14C164.757 61.0467 164.723 60.94 164.723 60.82V60.72C164.723 60.5067 164.857 60.4 165.123 60.4H169.143C169.41 60.4 169.543 60.5133 169.543 60.74V60.82C169.543 60.94 169.483 61.1 169.363 61.3C169.243 61.5 169.163 61.6667 169.123 61.8C169.097 61.92 169.17 62.1267 169.343 62.42L170.763 64.18L172.343 62.42C172.503 62.2467 172.583 62.08 172.583 61.92C172.583 61.7467 172.537 61.6133 172.443 61.52C172.35 61.4133 172.25 61.2933 172.143 61.16C172.05 61.0267 172.003 60.9133 172.003 60.82V60.74C172.003 60.5133 172.13 60.4 172.383 60.4H174.683C174.95 60.4 175.083 60.5067 175.083 60.72V60.82C175.083 60.9667 175.03 61.1067 174.923 61.24C174.83 61.36 174.657 61.5333 174.403 61.76C174.163 61.9867 173.963 62.1933 173.803 62.38L171.503 65.08L173.903 68.04ZM186.095 61.24C186.095 61.32 185.955 61.5133 185.675 61.82C185.395 62.1267 185.255 62.4667 185.255 62.84V68.08C185.255 68.3867 185.382 68.6867 185.635 68.98C185.902 69.26 186.035 69.4667 186.035 69.6V69.66C186.035 69.8867 185.902 70 185.635 70H183.175C183.042 70 182.929 69.96 182.835 69.88C182.755 69.8 182.715 69.6933 182.715 69.56V69.08C182.089 69.8267 181.209 70.2 180.075 70.2C178.782 70.2 177.675 69.7533 176.755 68.86C175.835 67.9533 175.375 66.7267 175.375 65.18C175.375 63.7267 175.835 62.5333 176.755 61.6C177.675 60.6667 178.789 60.2 180.095 60.2C181.162 60.2 182.035 60.54 182.715 61.22V60.82C182.715 60.6333 182.795 60.4933 182.955 60.4C183.115 60.2933 183.322 60.2667 183.575 60.32L185.675 60.68C185.955 60.7333 186.095 60.9 186.095 61.18V61.24ZM180.735 69.34C181.189 69.34 181.582 69.1533 181.915 68.78C182.262 68.3933 182.435 67.8667 182.435 67.2V63.68C182.435 62.9733 182.215 62.36 181.775 61.84C181.349 61.32 180.842 61.06 180.255 61.06C179.642 61.06 179.155 61.32 178.795 61.84C178.435 62.3467 178.249 63.0667 178.235 64C178.209 64.76 178.282 65.54 178.455 66.34C178.642 67.14 178.935 67.84 179.335 68.44C179.749 69.0267 180.215 69.3267 180.735 69.34ZM187.71 70C187.404 70 187.25 69.8867 187.25 69.66V69.58C187.25 69.4467 187.377 69.24 187.63 68.96C187.897 68.68 188.03 68.3867 188.03 68.08V58.24C188.03 57.8933 187.897 57.58 187.63 57.3C187.377 57.02 187.25 56.8267 187.25 56.72V56.64C187.25 56.48 187.384 56.3467 187.65 56.24L190.17 55C190.437 54.8933 190.637 54.88 190.77 54.96C190.917 55.04 190.99 55.1733 190.99 55.36V68.08C190.99 68.3867 191.13 68.68 191.41 68.96C191.704 69.24 191.85 69.4467 191.85 69.58V69.66C191.85 69.8867 191.697 70 191.39 70H187.71ZM202.716 67.96C202.716 68.32 202.763 68.5933 202.856 68.78C202.963 68.9533 203.076 69.0533 203.196 69.08C203.316 69.0933 203.423 69.1333 203.516 69.2C203.623 69.2667 203.676 69.38 203.676 69.54C203.676 69.9267 203.083 70.12 201.896 70.12C201.309 70.12 200.869 70.0267 200.576 69.84C200.296 69.64 200.143 69.3 200.116 68.82C199.556 69.74 198.589 70.2 197.216 70.2C196.136 70.2 195.243 69.84 194.536 69.12C193.843 68.3867 193.496 67.36 193.496 66.04V62.66C193.496 62.3267 193.363 62.02 193.096 61.74C192.843 61.4467 192.716 61.2467 192.716 61.14V61.08C192.716 60.84 192.856 60.7 193.136 60.66L195.656 60.28C196.203 60.2133 196.476 60.3333 196.476 60.64L196.416 66.34C196.416 68.1533 196.969 69.06 198.076 69.06C198.569 69.06 198.976 68.8467 199.296 68.42C199.629 67.98 199.796 67.4133 199.796 66.72V62.66C199.796 62.3267 199.663 62.02 199.396 61.74C199.129 61.4467 198.996 61.2467 198.996 61.14V61.08C198.996 60.84 199.129 60.7 199.396 60.66L201.956 60.28C202.463 60.2267 202.716 60.3467 202.716 60.64V67.96ZM208.835 70.18C207.582 70.18 206.555 69.9533 205.755 69.5C204.955 69.0467 204.555 68.5 204.555 67.86C204.555 67.5 204.662 67.2267 204.875 67.04C205.102 66.8533 205.395 66.76 205.755 66.76C206.142 66.76 206.455 66.9 206.695 67.18C206.935 67.4467 207.102 67.7467 207.195 68.08C207.302 68.4133 207.488 68.72 207.755 69C208.035 69.2667 208.395 69.4 208.835 69.4C209.262 69.4 209.608 69.2867 209.875 69.06C210.155 68.8333 210.295 68.5067 210.295 68.08C210.295 67.6 210.102 67.22 209.715 66.94C209.342 66.66 208.882 66.4533 208.335 66.32C207.788 66.1733 207.242 66.0133 206.695 65.84C206.148 65.6533 205.682 65.34 205.295 64.9C204.922 64.4467 204.735 63.86 204.735 63.14C204.735 62.2867 205.108 61.5867 205.855 61.04C206.615 60.48 207.595 60.2 208.795 60.2C210.008 60.2 210.995 60.44 211.755 60.92C212.528 61.3867 212.915 61.9467 212.915 62.6C212.915 62.8933 212.802 63.14 212.575 63.34C212.362 63.54 212.095 63.64 211.775 63.64C211.402 63.64 211.102 63.5067 210.875 63.24C210.648 62.96 210.488 62.66 210.395 62.34C210.302 62.0067 210.135 61.7067 209.895 61.44C209.655 61.16 209.342 61.02 208.955 61.02C208.568 61.02 208.255 61.1533 208.015 61.42C207.775 61.6733 207.655 61.9867 207.655 62.36C207.655 62.7333 207.755 63.0467 207.955 63.3C208.155 63.5533 208.415 63.7467 208.735 63.88C209.055 64.0133 209.408 64.14 209.795 64.26C210.182 64.3667 210.568 64.4933 210.955 64.64C211.355 64.7733 211.715 64.94 212.035 65.14C212.355 65.34 212.615 65.6267 212.815 66C213.015 66.36 213.115 66.8 213.115 67.32C213.115 68.1467 212.728 68.8333 211.955 69.38C211.182 69.9133 210.142 70.18 208.835 70.18ZM214.876 61.12C214.676 61.24 214.489 61.2133 214.316 61.04C214.156 60.8667 214.162 60.6933 214.336 60.52C214.722 60.1333 214.996 59.82 215.156 59.58C215.316 59.34 215.416 59.0733 215.456 58.78C215.496 58.5267 215.422 58.4 215.236 58.4C214.876 58.4 214.569 58.2467 214.316 57.94C214.062 57.6333 213.936 57.24 213.936 56.76C213.936 56.2 214.096 55.7533 214.416 55.42C214.736 55.0733 215.162 54.9 215.696 54.9C216.216 54.9 216.649 55.0933 216.996 55.48C217.356 55.8533 217.536 56.36 217.536 57C217.536 58.6267 216.649 60 214.876 61.12Z" fill="#00B112"/>
</svg>
