<svg width="250" height="61" viewBox="0 0 250 61" fill="none" xmlns="http://www.w3.org/2000/svg">
<path d="M1.78 16C1.55333 16 1.36667 15.9267 1.22 15.78C1.07333 15.6333 1 15.4467 1 15.22V1.16C1 0.933332 1.07333 0.746666 1.22 0.599999C1.36667 0.453333 1.55333 0.38 1.78 0.38H11.16C11.3733 0.38 11.5533 0.453333 11.7 0.599999C11.86 0.733332 11.94 0.913332 11.94 1.14C11.94 1.34 11.86 1.51333 11.7 1.66C11.5533 1.80667 11.3733 1.88 11.16 1.88H2.56V7.4H8.82C9.04667 7.4 9.23333 7.47333 9.38 7.62C9.52667 7.76667 9.6 7.94667 9.6 8.16C9.6 8.37333 9.52667 8.55333 9.38 8.7C9.23333 8.84667 9.04667 8.92 8.82 8.92H2.56V14.5H11.16C11.3733 14.5 11.5533 14.5733 11.7 14.72C11.86 14.8667 11.94 15.04 11.94 15.24C11.94 15.4667 11.86 15.6533 11.7 15.8C11.5533 15.9333 11.3733 16 11.16 16H1.78ZM24.0277 16C23.801 16 23.6143 15.9267 23.4677 15.78C23.321 15.6333 23.2477 15.4533 23.2477 15.24V10.04C23.2477 9.21333 23.0877 8.53333 22.7677 8C22.461 7.46667 22.0343 7.06667 21.4877 6.8C20.9543 6.53333 20.3477 6.4 19.6677 6.4C19.0143 6.4 18.421 6.52667 17.8877 6.78C17.3677 7.03333 16.9543 7.38 16.6477 7.82C16.341 8.26 16.1877 8.76 16.1877 9.32H15.0877C15.1143 8.48 15.341 7.73333 15.7677 7.08C16.1943 6.41333 16.761 5.89333 17.4677 5.52C18.1743 5.13333 18.961 4.94 19.8277 4.94C20.7743 4.94 21.621 5.14 22.3677 5.54C23.1143 5.92667 23.701 6.5 24.1277 7.26C24.5677 8.02 24.7877 8.94667 24.7877 10.04V15.24C24.7877 15.4533 24.7143 15.6333 24.5677 15.78C24.421 15.9267 24.241 16 24.0277 16ZM15.4277 16C15.1877 16 14.9943 15.9333 14.8477 15.8C14.7143 15.6533 14.6477 15.4667 14.6477 15.24V5.84C14.6477 5.6 14.7143 5.41333 14.8477 5.28C14.9943 5.13333 15.1877 5.06 15.4277 5.06C15.6543 5.06 15.8343 5.13333 15.9677 5.28C16.1143 5.41333 16.1877 5.6 16.1877 5.84V15.24C16.1877 15.4667 16.1143 15.6533 15.9677 15.8C15.8343 15.9333 15.6543 16 15.4277 16ZM33.1628 16.1C32.1095 16.1 31.1628 15.86 30.3228 15.38C29.4828 14.8867 28.8161 14.22 28.3228 13.38C27.8428 12.54 27.6028 11.5867 27.6028 10.52C27.6028 9.46667 27.8361 8.52 28.3028 7.68C28.7828 6.84 29.4295 6.18 30.2428 5.7C31.0561 5.20667 31.9761 4.96 33.0028 4.96C33.8961 4.96 34.7028 5.15333 35.4228 5.54C36.1428 5.91333 36.7228 6.41333 37.1628 7.04V1.16C37.1628 0.919999 37.2361 0.733332 37.3828 0.599999C37.5295 0.453333 37.7161 0.38 37.9428 0.38C38.1695 0.38 38.3561 0.453333 38.5028 0.599999C38.6495 0.733332 38.7228 0.919999 38.7228 1.16V10.6C38.6961 11.64 38.4361 12.58 37.9428 13.42C37.4628 14.2467 36.8028 14.9 35.9628 15.38C35.1361 15.86 34.2028 16.1 33.1628 16.1ZM33.1628 14.7C33.9361 14.7 34.6228 14.52 35.2228 14.16C35.8361 13.7867 36.3161 13.2867 36.6628 12.66C37.0228 12.0333 37.2028 11.32 37.2028 10.52C37.2028 9.73333 37.0228 9.02667 36.6628 8.4C36.3161 7.76 35.8361 7.26 35.2228 6.9C34.6228 6.54 33.9361 6.36 33.1628 6.36C32.4028 6.36 31.7161 6.54 31.1028 6.9C30.4895 7.26 30.0028 7.76 29.6428 8.4C29.2828 9.02667 29.1028 9.73333 29.1028 10.52C29.1028 11.32 29.2828 12.0333 29.6428 12.66C30.0028 13.2867 30.4895 13.7867 31.1028 14.16C31.7161 14.52 32.4028 14.7 33.1628 14.7ZM47.2834 16.1C46.2034 16.1 45.2434 15.8667 44.4034 15.4C43.5768 14.92 42.9234 14.26 42.4434 13.42C41.9768 12.58 41.7434 11.62 41.7434 10.54C41.7434 9.44667 41.9634 8.48667 42.4034 7.66C42.8568 6.82 43.4768 6.16 44.2634 5.68C45.0501 5.2 45.9568 4.96 46.9834 4.96C47.9968 4.96 48.8768 5.19333 49.6234 5.66C50.3834 6.11333 50.9701 6.74667 51.3834 7.56C51.7968 8.37333 52.0034 9.3 52.0034 10.34C52.0034 10.5533 51.9368 10.7267 51.8034 10.86C51.6701 10.98 51.4968 11.04 51.2834 11.04H42.7834V9.76H51.4434L50.5834 10.38C50.5968 9.60667 50.4568 8.91333 50.1634 8.3C49.8701 7.68667 49.4501 7.20667 48.9034 6.86C48.3701 6.51333 47.7301 6.34 46.9834 6.34C46.2234 6.34 45.5568 6.52 44.9834 6.88C44.4101 7.24 43.9634 7.74 43.6434 8.38C43.3368 9.00667 43.1834 9.72667 43.1834 10.54C43.1834 11.3533 43.3568 12.0733 43.7034 12.7C44.0634 13.3267 44.5501 13.82 45.1634 14.18C45.7768 14.54 46.4834 14.72 47.2834 14.72C47.7634 14.72 48.2434 14.64 48.7234 14.48C49.2168 14.3067 49.6101 14.0933 49.9034 13.84C50.0501 13.72 50.2168 13.66 50.4034 13.66C50.5901 13.6467 50.7501 13.6933 50.8834 13.8C51.0568 13.96 51.1434 14.1333 51.1434 14.32C51.1568 14.5067 51.0834 14.6667 50.9234 14.8C50.4834 15.1733 49.9234 15.4867 49.2434 15.74C48.5634 15.98 47.9101 16.1 47.2834 16.1ZM69.3886 16C69.1619 16 68.9753 15.9333 68.8286 15.8C68.6819 15.6533 68.6086 15.4667 68.6086 15.24V9.48C68.6086 8.53333 68.3619 7.78667 67.8686 7.24C67.3753 6.68 66.7419 6.4 65.9686 6.4C65.1419 6.4 64.4619 6.68 63.9286 7.24C63.4086 7.78667 63.1553 8.52 63.1686 9.44H61.7886C61.8019 8.54667 61.9953 7.76 62.3686 7.08C62.7419 6.4 63.2553 5.87333 63.9086 5.5C64.5619 5.12667 65.3019 4.94 66.1286 4.94C66.9153 4.94 67.6086 5.12667 68.2086 5.5C68.8219 5.87333 69.2953 6.4 69.6286 7.08C69.9753 7.76 70.1486 8.56 70.1486 9.48V15.24C70.1486 15.4667 70.0753 15.6533 69.9286 15.8C69.7953 15.9333 69.6153 16 69.3886 16ZM55.3886 16C55.1486 16 54.9553 15.9333 54.8086 15.8C54.6753 15.6533 54.6086 15.4667 54.6086 15.24V5.84C54.6086 5.61333 54.6753 5.42667 54.8086 5.28C54.9553 5.13333 55.1486 5.06 55.3886 5.06C55.6153 5.06 55.7953 5.13333 55.9286 5.28C56.0753 5.42667 56.1486 5.61333 56.1486 5.84V15.24C56.1486 15.4667 56.0753 15.6533 55.9286 15.8C55.7953 15.9333 55.6153 16 55.3886 16ZM62.4086 16C62.1819 16 61.9953 15.9333 61.8486 15.8C61.7019 15.6533 61.6286 15.4667 61.6286 15.24V9.48C61.6286 8.53333 61.3819 7.78667 60.8886 7.24C60.3953 6.68 59.7619 6.4 58.9886 6.4C58.1619 6.4 57.4819 6.67333 56.9486 7.22C56.4153 7.75333 56.1486 8.45333 56.1486 9.32H55.0486C55.0753 8.46667 55.2619 7.71333 55.6086 7.06C55.9686 6.39333 56.4553 5.87333 57.0686 5.5C57.6819 5.12667 58.3753 4.94 59.1486 4.94C59.9353 4.94 60.6286 5.12667 61.2286 5.5C61.8419 5.87333 62.3153 6.4 62.6486 7.08C62.9953 7.76 63.1686 8.56 63.1686 9.48V15.24C63.1686 15.4667 63.0953 15.6533 62.9486 15.8C62.8153 15.9333 62.6353 16 62.4086 16ZM74.6539 16C74.4139 16 74.2206 15.9333 74.0739 15.8C73.9406 15.6533 73.8739 15.46 73.8739 15.22V5.84C73.8739 5.6 73.9406 5.41333 74.0739 5.28C74.2206 5.13333 74.4139 5.06 74.6539 5.06C74.8806 5.06 75.0606 5.13333 75.1939 5.28C75.3406 5.41333 75.4139 5.6 75.4139 5.84V15.22C75.4139 15.46 75.3406 15.6533 75.1939 15.8C75.0606 15.9333 74.8806 16 74.6539 16ZM74.6339 2.98C74.3406 2.98 74.0872 2.87333 73.8739 2.66C73.6606 2.44667 73.5539 2.18667 73.5539 1.88C73.5539 1.54667 73.6606 1.28667 73.8739 1.1C74.1006 0.899999 74.3606 0.799999 74.6539 0.799999C74.9339 0.799999 75.1806 0.899999 75.3939 1.1C75.6206 1.28667 75.7339 1.54667 75.7339 1.88C75.7339 2.18667 75.6272 2.44667 75.4139 2.66C75.2006 2.87333 74.9406 2.98 74.6339 2.98ZM84.2152 16.1C83.1618 16.1 82.2218 15.86 81.3952 15.38C80.5818 14.8867 79.9352 14.22 79.4552 13.38C78.9885 12.54 78.7552 11.5933 78.7552 10.54C78.7552 9.47333 78.9818 8.52 79.4352 7.68C79.8885 6.84 80.5085 6.18 81.2952 5.7C82.0818 5.20667 82.9885 4.96 84.0152 4.96C84.8285 4.96 85.5752 5.12 86.2552 5.44C86.9485 5.76 87.5552 6.24 88.0752 6.88C88.2218 7.04 88.2752 7.21333 88.2352 7.4C88.1952 7.57333 88.0818 7.72667 87.8952 7.86C87.7485 7.96667 87.5818 8.00667 87.3952 7.98C87.2218 7.94 87.0685 7.84 86.9352 7.68C86.1618 6.8 85.1885 6.36 84.0152 6.36C83.2685 6.36 82.6085 6.54 82.0352 6.9C81.4752 7.26 81.0352 7.75333 80.7152 8.38C80.4085 9.00667 80.2552 9.72667 80.2552 10.54C80.2552 11.34 80.4218 12.0533 80.7552 12.68C81.0885 13.3067 81.5552 13.8 82.1552 14.16C82.7552 14.52 83.4418 14.7 84.2152 14.7C84.7352 14.7 85.2085 14.6333 85.6352 14.5C86.0752 14.3533 86.4618 14.1333 86.7952 13.84C86.9552 13.7067 87.1218 13.6333 87.2952 13.62C87.4685 13.6067 87.6285 13.66 87.7752 13.78C87.9352 13.9267 88.0218 14.0933 88.0352 14.28C88.0618 14.4667 88.0018 14.6267 87.8552 14.76C86.8818 15.6533 85.6685 16.1 84.2152 16.1ZM101.369 16C100.662 16 100.029 15.8333 99.4691 15.5C98.9224 15.1667 98.4891 14.7133 98.1691 14.14C97.8491 13.5533 97.6891 12.8867 97.6891 12.14V2.36C97.6891 2.13333 97.7557 1.94667 97.8891 1.8C98.0357 1.65333 98.2224 1.58 98.4491 1.58C98.6757 1.58 98.8624 1.65333 99.0091 1.8C99.1557 1.94667 99.2291 2.13333 99.2291 2.36V12.14C99.2291 12.82 99.4291 13.38 99.8291 13.82C100.229 14.2467 100.742 14.46 101.369 14.46H101.909C102.122 14.46 102.296 14.5333 102.429 14.68C102.562 14.8267 102.629 15.0133 102.629 15.24C102.629 15.4667 102.549 15.6533 102.389 15.8C102.229 15.9333 102.029 16 101.789 16H101.369ZM96.3891 6.8C96.1891 6.8 96.0224 6.74 95.8891 6.62C95.7557 6.48667 95.6891 6.32667 95.6891 6.14C95.6891 5.94 95.7557 5.78 95.8891 5.66C96.0224 5.52667 96.1891 5.46 96.3891 5.46H101.489C101.689 5.46 101.856 5.52667 101.989 5.66C102.122 5.78 102.189 5.94 102.189 6.14C102.189 6.32667 102.122 6.48667 101.989 6.62C101.856 6.74 101.689 6.8 101.489 6.8H96.3891ZM110.116 16.1C109.049 16.1 108.096 15.86 107.256 15.38C106.416 14.9 105.756 14.24 105.276 13.4C104.796 12.56 104.556 11.6067 104.556 10.54C104.556 9.46 104.796 8.5 105.276 7.66C105.756 6.82 106.416 6.16 107.256 5.68C108.096 5.2 109.049 4.96 110.116 4.96C111.183 4.96 112.129 5.2 112.956 5.68C113.796 6.16 114.456 6.82 114.936 7.66C115.416 8.5 115.663 9.46 115.676 10.54C115.676 11.6067 115.429 12.56 114.936 13.4C114.456 14.24 113.796 14.9 112.956 15.38C112.129 15.86 111.183 16.1 110.116 16.1ZM110.116 14.7C110.889 14.7 111.583 14.52 112.196 14.16C112.809 13.8 113.289 13.3067 113.636 12.68C113.983 12.0533 114.156 11.34 114.156 10.54C114.156 9.74 113.983 9.02667 113.636 8.4C113.289 7.76 112.809 7.26 112.196 6.9C111.583 6.54 110.889 6.36 110.116 6.36C109.343 6.36 108.649 6.54 108.036 6.9C107.423 7.26 106.936 7.76 106.576 8.4C106.229 9.02667 106.056 9.74 106.056 10.54C106.056 11.34 106.229 12.0533 106.576 12.68C106.936 13.3067 107.423 13.8 108.036 14.16C108.649 14.52 109.343 14.7 110.116 14.7ZM128.81 16C128.104 16 127.47 15.8333 126.91 15.5C126.364 15.1667 125.93 14.7133 125.61 14.14C125.29 13.5533 125.13 12.8867 125.13 12.14V2.36C125.13 2.13333 125.197 1.94667 125.33 1.8C125.477 1.65333 125.664 1.58 125.89 1.58C126.117 1.58 126.304 1.65333 126.45 1.8C126.597 1.94667 126.67 2.13333 126.67 2.36V12.14C126.67 12.82 126.87 13.38 127.27 13.82C127.67 14.2467 128.184 14.46 128.81 14.46H129.35C129.564 14.46 129.737 14.5333 129.87 14.68C130.004 14.8267 130.07 15.0133 130.07 15.24C130.07 15.4667 129.99 15.6533 129.83 15.8C129.67 15.9333 129.47 16 129.23 16H128.81ZM123.83 6.8C123.63 6.8 123.464 6.74 123.33 6.62C123.197 6.48667 123.13 6.32667 123.13 6.14C123.13 5.94 123.197 5.78 123.33 5.66C123.464 5.52667 123.63 5.46 123.83 5.46H128.93C129.13 5.46 129.297 5.52667 129.43 5.66C129.564 5.78 129.63 5.94 129.63 6.14C129.63 6.32667 129.564 6.48667 129.43 6.62C129.297 6.74 129.13 6.8 128.93 6.8H123.83ZM133.357 11.54C133.117 11.54 132.924 11.4667 132.777 11.32C132.644 11.1733 132.577 10.9867 132.577 10.76V1.16C132.577 0.919999 132.644 0.733332 132.777 0.599999C132.924 0.453333 133.117 0.38 133.357 0.38C133.584 0.38 133.764 0.453333 133.897 0.599999C134.044 0.733332 134.117 0.919999 134.117 1.16V10.76C134.117 10.9867 134.044 11.1733 133.897 11.32C133.764 11.4667 133.584 11.54 133.357 11.54ZM141.957 16C141.731 16 141.544 15.9267 141.397 15.78C141.251 15.6333 141.177 15.4533 141.177 15.24V10.04C141.177 9.21333 141.017 8.53333 140.697 8C140.391 7.46667 139.964 7.06667 139.417 6.8C138.884 6.53333 138.277 6.4 137.597 6.4C136.944 6.4 136.351 6.52667 135.817 6.78C135.297 7.03333 134.884 7.38 134.577 7.82C134.271 8.26 134.117 8.76 134.117 9.32H133.017C133.044 8.48 133.271 7.73333 133.697 7.08C134.124 6.41333 134.691 5.89333 135.397 5.52C136.104 5.13333 136.891 4.94 137.757 4.94C138.704 4.94 139.551 5.14 140.297 5.54C141.044 5.92667 141.631 6.5 142.057 7.26C142.497 8.02 142.717 8.94667 142.717 10.04V15.24C142.717 15.4533 142.644 15.6333 142.497 15.78C142.351 15.9267 142.171 16 141.957 16ZM133.357 16C133.117 16 132.924 15.9333 132.777 15.8C132.644 15.6533 132.577 15.4667 132.577 15.24V5.84C132.577 5.6 132.644 5.41333 132.777 5.28C132.924 5.13333 133.117 5.06 133.357 5.06C133.584 5.06 133.764 5.13333 133.897 5.28C134.044 5.41333 134.117 5.6 134.117 5.84V15.24C134.117 15.4667 134.044 15.6533 133.897 15.8C133.764 15.9333 133.584 16 133.357 16ZM151.073 16.1C149.993 16.1 149.033 15.8667 148.193 15.4C147.366 14.92 146.712 14.26 146.233 13.42C145.766 12.58 145.533 11.62 145.533 10.54C145.533 9.44667 145.753 8.48667 146.193 7.66C146.646 6.82 147.266 6.16 148.053 5.68C148.839 5.2 149.746 4.96 150.773 4.96C151.786 4.96 152.666 5.19333 153.413 5.66C154.173 6.11333 154.759 6.74667 155.173 7.56C155.586 8.37333 155.793 9.3 155.793 10.34C155.793 10.5533 155.726 10.7267 155.593 10.86C155.459 10.98 155.286 11.04 155.073 11.04H146.573V9.76H155.233L154.373 10.38C154.386 9.60667 154.246 8.91333 153.953 8.3C153.659 7.68667 153.239 7.20667 152.693 6.86C152.159 6.51333 151.519 6.34 150.773 6.34C150.013 6.34 149.346 6.52 148.773 6.88C148.199 7.24 147.753 7.74 147.433 8.38C147.126 9.00667 146.973 9.72667 146.973 10.54C146.973 11.3533 147.146 12.0733 147.493 12.7C147.853 13.3267 148.339 13.82 148.953 14.18C149.566 14.54 150.273 14.72 151.073 14.72C151.553 14.72 152.033 14.64 152.513 14.48C153.006 14.3067 153.399 14.0933 153.693 13.84C153.839 13.72 154.006 13.66 154.193 13.66C154.379 13.6467 154.539 13.6933 154.673 13.8C154.846 13.96 154.933 14.1333 154.933 14.32C154.946 14.5067 154.873 14.6667 154.713 14.8C154.273 15.1733 153.713 15.4867 153.033 15.74C152.353 15.98 151.699 16.1 151.073 16.1ZM62.0848 41.24C61.9515 41.24 61.8448 41.2 61.7648 41.12C61.6982 41.0533 61.6648 40.96 61.6648 40.84C61.6648 40.64 61.7248 40.4533 61.8448 40.28C61.9648 40.12 62.0848 39.9467 62.2048 39.76C62.3382 39.5733 62.4048 39.3467 62.4048 39.08C62.4048 38.84 62.3582 38.64 62.2648 38.48C62.1715 38.32 62.0582 38.1733 61.9248 38.04C61.8048 37.92 61.6982 37.7867 61.6048 37.64C61.5115 37.48 61.4648 37.2867 61.4648 37.06C61.4648 36.7267 61.5715 36.46 61.7848 36.26C62.0115 36.06 62.2915 35.96 62.6248 35.96C63.0248 35.96 63.3515 36.12 63.6048 36.44C63.8582 36.7467 63.9848 37.18 63.9848 37.74C63.9848 38.1133 63.9315 38.5067 63.8248 38.92C63.7182 39.3333 63.5715 39.7133 63.3848 40.06C63.1982 40.42 62.9915 40.7067 62.7648 40.92C62.5382 41.1333 62.3115 41.24 62.0848 41.24ZM76.9159 38C76.2093 38 75.5759 37.8333 75.0159 37.5C74.4693 37.1667 74.0359 36.7133 73.7159 36.14C73.3959 35.5533 73.2359 34.8867 73.2359 34.14V24.36C73.2359 24.1333 73.3026 23.9467 73.4359 23.8C73.5826 23.6533 73.7693 23.58 73.9959 23.58C74.2226 23.58 74.4093 23.6533 74.5559 23.8C74.7026 23.9467 74.7759 24.1333 74.7759 24.36V34.14C74.7759 34.82 74.9759 35.38 75.3759 35.82C75.7759 36.2467 76.2893 36.46 76.9159 36.46H77.4559C77.6693 36.46 77.8426 36.5333 77.9759 36.68C78.1093 36.8267 78.1759 37.0133 78.1759 37.24C78.1759 37.4667 78.0959 37.6533 77.9359 37.8C77.7759 37.9333 77.5759 38 77.3359 38H76.9159ZM71.9359 28.8C71.7359 28.8 71.5693 28.74 71.4359 28.62C71.3026 28.4867 71.2359 28.3267 71.2359 28.14C71.2359 27.94 71.3026 27.78 71.4359 27.66C71.5693 27.5267 71.7359 27.46 71.9359 27.46H77.0359C77.2359 27.46 77.4026 27.5267 77.5359 27.66C77.6693 27.78 77.7359 27.94 77.7359 28.14C77.7359 28.3267 77.6693 28.4867 77.5359 28.62C77.4026 28.74 77.2359 28.8 77.0359 28.8H71.9359ZM81.4628 33.54C81.2228 33.54 81.0295 33.4667 80.8828 33.32C80.7495 33.1733 80.6828 32.9867 80.6828 32.76V23.16C80.6828 22.92 80.7495 22.7333 80.8828 22.6C81.0295 22.4533 81.2228 22.38 81.4628 22.38C81.6895 22.38 81.8695 22.4533 82.0028 22.6C82.1495 22.7333 82.2228 22.92 82.2228 23.16V32.76C82.2228 32.9867 82.1495 33.1733 82.0028 33.32C81.8695 33.4667 81.6895 33.54 81.4628 33.54ZM90.0628 38C89.8361 38 89.6495 37.9267 89.5028 37.78C89.3561 37.6333 89.2828 37.4533 89.2828 37.24V32.04C89.2828 31.2133 89.1228 30.5333 88.8028 30C88.4961 29.4667 88.0695 29.0667 87.5228 28.8C86.9895 28.5333 86.3828 28.4 85.7028 28.4C85.0495 28.4 84.4561 28.5267 83.9228 28.78C83.4028 29.0333 82.9895 29.38 82.6828 29.82C82.3761 30.26 82.2228 30.76 82.2228 31.32H81.1228C81.1495 30.48 81.3761 29.7333 81.8028 29.08C82.2295 28.4133 82.7961 27.8933 83.5028 27.52C84.2095 27.1333 84.9961 26.94 85.8628 26.94C86.8095 26.94 87.6561 27.14 88.4028 27.54C89.1495 27.9267 89.7361 28.5 90.1628 29.26C90.6028 30.02 90.8228 30.9467 90.8228 32.04V37.24C90.8228 37.4533 90.7495 37.6333 90.6028 37.78C90.4561 37.9267 90.2761 38 90.0628 38ZM81.4628 38C81.2228 38 81.0295 37.9333 80.8828 37.8C80.7495 37.6533 80.6828 37.4667 80.6828 37.24V27.84C80.6828 27.6 80.7495 27.4133 80.8828 27.28C81.0295 27.1333 81.2228 27.06 81.4628 27.06C81.6895 27.06 81.8695 27.1333 82.0028 27.28C82.1495 27.4133 82.2228 27.6 82.2228 27.84V37.24C82.2228 37.4667 82.1495 37.6533 82.0028 37.8C81.8695 37.9333 81.6895 38 81.4628 38ZM99.178 38.1C98.098 38.1 97.138 37.8667 96.298 37.4C95.4713 36.92 94.818 36.26 94.338 35.42C93.8713 34.58 93.638 33.62 93.638 32.54C93.638 31.4467 93.858 30.4867 94.298 29.66C94.7513 28.82 95.3713 28.16 96.158 27.68C96.9446 27.2 97.8513 26.96 98.878 26.96C99.8913 26.96 100.771 27.1933 101.518 27.66C102.278 28.1133 102.865 28.7467 103.278 29.56C103.691 30.3733 103.898 31.3 103.898 32.34C103.898 32.5533 103.831 32.7267 103.698 32.86C103.565 32.98 103.391 33.04 103.178 33.04H94.678V31.76H103.338L102.478 32.38C102.491 31.6067 102.351 30.9133 102.058 30.3C101.765 29.6867 101.345 29.2067 100.798 28.86C100.265 28.5133 99.6246 28.34 98.878 28.34C98.118 28.34 97.4513 28.52 96.878 28.88C96.3046 29.24 95.858 29.74 95.538 30.38C95.2313 31.0067 95.078 31.7267 95.078 32.54C95.078 33.3533 95.2513 34.0733 95.598 34.7C95.958 35.3267 96.4446 35.82 97.058 36.18C97.6713 36.54 98.378 36.72 99.178 36.72C99.658 36.72 100.138 36.64 100.618 36.48C101.111 36.3067 101.505 36.0933 101.798 35.84C101.945 35.72 102.111 35.66 102.298 35.66C102.485 35.6467 102.645 35.6933 102.778 35.8C102.951 35.96 103.038 36.1333 103.038 36.32C103.051 36.5067 102.978 36.6667 102.818 36.8C102.378 37.1733 101.818 37.4867 101.138 37.74C100.458 37.98 99.8046 38.1 99.178 38.1ZM108.383 42.76C108.276 42.76 108.156 42.7333 108.023 42.68C107.57 42.48 107.443 42.16 107.643 41.72L114.103 27.48C114.303 27.0533 114.623 26.9333 115.063 27.12C115.516 27.3067 115.643 27.62 115.443 28.06L108.963 42.3C108.83 42.6067 108.636 42.76 108.383 42.76ZM110.603 37.66C110.403 37.7533 110.216 37.7733 110.043 37.72C109.87 37.6533 109.73 37.52 109.623 37.32L105.163 28.08C105.07 27.88 105.056 27.6933 105.123 27.52C105.19 27.3467 105.323 27.2133 105.523 27.12C105.723 27.0267 105.91 27.0133 106.083 27.08C106.256 27.1333 106.39 27.26 106.483 27.46L110.863 36.7C110.97 36.9 111.003 37.0867 110.963 37.26C110.923 37.4333 110.803 37.5667 110.603 37.66ZM138.1 38C137.873 38 137.686 37.9333 137.54 37.8C137.393 37.6533 137.32 37.4667 137.32 37.24V31.48C137.32 30.5333 137.073 29.7867 136.58 29.24C136.086 28.68 135.453 28.4 134.68 28.4C133.853 28.4 133.173 28.68 132.64 29.24C132.12 29.7867 131.866 30.52 131.88 31.44H130.5C130.513 30.5467 130.706 29.76 131.08 29.08C131.453 28.4 131.966 27.8733 132.62 27.5C133.273 27.1267 134.013 26.94 134.84 26.94C135.626 26.94 136.32 27.1267 136.92 27.5C137.533 27.8733 138.006 28.4 138.34 29.08C138.686 29.76 138.86 30.56 138.86 31.48V37.24C138.86 37.4667 138.786 37.6533 138.64 37.8C138.506 37.9333 138.326 38 138.1 38ZM124.1 38C123.86 38 123.666 37.9333 123.52 37.8C123.386 37.6533 123.32 37.4667 123.32 37.24V27.84C123.32 27.6133 123.386 27.4267 123.52 27.28C123.666 27.1333 123.86 27.06 124.1 27.06C124.326 27.06 124.506 27.1333 124.64 27.28C124.786 27.4267 124.86 27.6133 124.86 27.84V37.24C124.86 37.4667 124.786 37.6533 124.64 37.8C124.506 37.9333 124.326 38 124.1 38ZM131.12 38C130.893 38 130.706 37.9333 130.56 37.8C130.413 37.6533 130.34 37.4667 130.34 37.24V31.48C130.34 30.5333 130.093 29.7867 129.6 29.24C129.106 28.68 128.473 28.4 127.7 28.4C126.873 28.4 126.193 28.6733 125.66 29.22C125.126 29.7533 124.86 30.4533 124.86 31.32H123.76C123.786 30.4667 123.973 29.7133 124.32 29.06C124.68 28.3933 125.166 27.8733 125.78 27.5C126.393 27.1267 127.086 26.94 127.86 26.94C128.646 26.94 129.34 27.1267 129.94 27.5C130.553 27.8733 131.026 28.4 131.36 29.08C131.706 29.76 131.88 30.56 131.88 31.48V37.24C131.88 37.4667 131.806 37.6533 131.66 37.8C131.526 37.9333 131.346 38 131.12 38ZM147.225 38.1C146.145 38.1 145.185 37.8667 144.345 37.4C143.518 36.92 142.865 36.26 142.385 35.42C141.918 34.58 141.685 33.62 141.685 32.54C141.685 31.4467 141.905 30.4867 142.345 29.66C142.798 28.82 143.418 28.16 144.205 27.68C144.992 27.2 145.898 26.96 146.925 26.96C147.938 26.96 148.818 27.1933 149.565 27.66C150.325 28.1133 150.912 28.7467 151.325 29.56C151.738 30.3733 151.945 31.3 151.945 32.34C151.945 32.5533 151.878 32.7267 151.745 32.86C151.612 32.98 151.438 33.04 151.225 33.04H142.725V31.76H151.385L150.525 32.38C150.538 31.6067 150.398 30.9133 150.105 30.3C149.812 29.6867 149.392 29.2067 148.845 28.86C148.312 28.5133 147.672 28.34 146.925 28.34C146.165 28.34 145.498 28.52 144.925 28.88C144.352 29.24 143.905 29.74 143.585 30.38C143.278 31.0067 143.125 31.7267 143.125 32.54C143.125 33.3533 143.298 34.0733 143.645 34.7C144.005 35.3267 144.492 35.82 145.105 36.18C145.718 36.54 146.425 36.72 147.225 36.72C147.705 36.72 148.185 36.64 148.665 36.48C149.158 36.3067 149.552 36.0933 149.845 35.84C149.992 35.72 150.158 35.66 150.345 35.66C150.532 35.6467 150.692 35.6933 150.825 35.8C150.998 35.96 151.085 36.1333 151.085 36.32C151.098 36.5067 151.025 36.6667 150.865 36.8C150.425 37.1733 149.865 37.4867 149.185 37.74C148.505 37.98 147.852 38.1 147.225 38.1ZM158.979 38.1C157.953 38.1 157.033 37.86 156.219 37.38C155.406 36.8867 154.759 36.22 154.279 35.38C153.813 34.54 153.579 33.5933 153.579 32.54C153.579 31.4733 153.819 30.52 154.299 29.68C154.793 28.84 155.459 28.18 156.299 27.7C157.139 27.2067 158.086 26.96 159.139 26.96C160.193 26.96 161.133 27.2067 161.959 27.7C162.799 28.18 163.459 28.84 163.939 29.68C164.433 30.52 164.686 31.4733 164.699 32.54L164.079 33.02C164.079 33.98 163.853 34.8467 163.399 35.62C162.959 36.38 162.353 36.9867 161.579 37.44C160.819 37.88 159.953 38.1 158.979 38.1ZM159.139 36.7C159.913 36.7 160.599 36.52 161.199 36.16C161.813 35.8 162.293 35.3067 162.639 34.68C162.999 34.04 163.179 33.3267 163.179 32.54C163.179 31.74 162.999 31.0267 162.639 30.4C162.293 29.7733 161.813 29.28 161.199 28.92C160.599 28.5467 159.913 28.36 159.139 28.36C158.379 28.36 157.693 28.5467 157.079 28.92C156.466 29.28 155.979 29.7733 155.619 30.4C155.259 31.0267 155.079 31.74 155.079 32.54C155.079 33.3267 155.259 34.04 155.619 34.68C155.979 35.3067 156.466 35.8 157.079 36.16C157.693 36.52 158.379 36.7 159.139 36.7ZM163.919 38C163.693 38 163.506 37.9333 163.359 37.8C163.213 37.6533 163.139 37.4667 163.139 37.24V33.82L163.519 32.24L164.699 32.54V37.24C164.699 37.4667 164.626 37.6533 164.479 37.8C164.333 37.9333 164.146 38 163.919 38ZM171.515 38.1C170.728 38.1 169.948 37.9667 169.175 37.7C168.401 37.4333 167.775 37.0333 167.295 36.5C167.148 36.34 167.088 36.16 167.115 35.96C167.141 35.76 167.241 35.5867 167.415 35.44C167.601 35.3067 167.795 35.2533 167.995 35.28C168.195 35.3067 168.361 35.3933 168.495 35.54C168.815 35.9133 169.235 36.2 169.755 36.4C170.288 36.6 170.875 36.7 171.515 36.7C172.501 36.7 173.215 36.5333 173.655 36.2C174.095 35.8533 174.321 35.44 174.335 34.96C174.335 34.48 174.108 34.0867 173.655 33.78C173.201 33.46 172.455 33.2133 171.415 33.04C170.068 32.8267 169.081 32.4533 168.455 31.92C167.828 31.3867 167.515 30.7533 167.515 30.02C167.515 29.34 167.695 28.7733 168.055 28.32C168.415 27.8667 168.895 27.5267 169.495 27.3C170.095 27.0733 170.755 26.96 171.475 26.96C172.368 26.96 173.135 27.1133 173.775 27.42C174.428 27.7267 174.955 28.14 175.355 28.66C175.488 28.8333 175.541 29.0133 175.515 29.2C175.488 29.3867 175.381 29.54 175.195 29.66C175.035 29.7533 174.848 29.7867 174.635 29.76C174.435 29.72 174.261 29.62 174.115 29.46C173.781 29.0733 173.395 28.7933 172.955 28.62C172.515 28.4333 172.008 28.34 171.435 28.34C170.701 28.34 170.115 28.4933 169.675 28.8C169.235 29.0933 169.015 29.4667 169.015 29.92C169.015 30.2267 169.095 30.4933 169.255 30.72C169.428 30.9467 169.715 31.1467 170.115 31.32C170.528 31.4933 171.101 31.64 171.835 31.76C172.835 31.92 173.621 32.16 174.195 32.48C174.781 32.7867 175.195 33.1533 175.435 33.58C175.688 33.9933 175.815 34.4467 175.815 34.94C175.815 35.5667 175.628 36.12 175.255 36.6C174.895 37.0667 174.388 37.4333 173.735 37.7C173.095 37.9667 172.355 38.1 171.515 38.1ZM183.236 38.12C182.289 38.12 181.442 37.9267 180.696 37.54C179.949 37.14 179.356 36.56 178.916 35.8C178.489 35.04 178.276 34.1133 178.276 33.02V27.82C178.276 27.6067 178.349 27.4267 178.496 27.28C178.642 27.1333 178.822 27.06 179.036 27.06C179.262 27.06 179.449 27.1333 179.596 27.28C179.742 27.4267 179.816 27.6067 179.816 27.82V33.02C179.816 33.8467 179.969 34.5267 180.276 35.06C180.596 35.5933 181.022 35.9933 181.556 36.26C182.102 36.5267 182.716 36.66 183.396 36.66C184.049 36.66 184.636 36.5333 185.156 36.28C185.689 36.0267 186.109 35.68 186.416 35.24C186.722 34.8 186.876 34.3 186.876 33.74H187.976C187.936 34.58 187.702 35.3333 187.276 36C186.862 36.6533 186.302 37.1733 185.596 37.56C184.889 37.9333 184.102 38.12 183.236 38.12ZM187.636 38C187.409 38 187.222 37.9333 187.076 37.8C186.942 37.6533 186.876 37.46 186.876 37.22V27.82C186.876 27.5933 186.942 27.4133 187.076 27.28C187.222 27.1333 187.409 27.06 187.636 27.06C187.862 27.06 188.049 27.1333 188.196 27.28C188.342 27.4133 188.416 27.5933 188.416 27.82V37.22C188.416 37.46 188.342 37.6533 188.196 37.8C188.049 37.9333 187.862 38 187.636 38ZM192.651 31.26C192.691 30.4333 192.904 29.6933 193.291 29.04C193.691 28.3867 194.204 27.8733 194.831 27.5C195.471 27.1267 196.178 26.94 196.951 26.94C197.564 26.94 198.038 27.0267 198.371 27.2C198.704 27.3733 198.831 27.6267 198.751 27.96C198.698 28.16 198.604 28.2933 198.471 28.36C198.351 28.4267 198.198 28.4533 198.011 28.44C197.838 28.4267 197.638 28.4133 197.411 28.4C196.664 28.3333 195.998 28.4133 195.411 28.64C194.838 28.8533 194.378 29.1867 194.031 29.64C193.698 30.0933 193.531 30.6333 193.531 31.26H192.651ZM192.771 38C192.531 38 192.344 37.9333 192.211 37.8C192.078 37.6667 192.011 37.48 192.011 37.24V27.82C192.011 27.58 192.078 27.3933 192.211 27.26C192.344 27.1267 192.531 27.06 192.771 27.06C193.011 27.06 193.198 27.1267 193.331 27.26C193.464 27.3933 193.531 27.58 193.531 27.82V37.24C193.531 37.48 193.464 37.6667 193.331 37.8C193.198 37.9333 193.011 38 192.771 38ZM205.33 38.1C204.25 38.1 203.29 37.8667 202.45 37.4C201.624 36.92 200.97 36.26 200.49 35.42C200.024 34.58 199.79 33.62 199.79 32.54C199.79 31.4467 200.01 30.4867 200.45 29.66C200.904 28.82 201.524 28.16 202.31 27.68C203.097 27.2 204.004 26.96 205.03 26.96C206.044 26.96 206.924 27.1933 207.67 27.66C208.43 28.1133 209.017 28.7467 209.43 29.56C209.844 30.3733 210.05 31.3 210.05 32.34C210.05 32.5533 209.984 32.7267 209.85 32.86C209.717 32.98 209.544 33.04 209.33 33.04H200.83V31.76H209.49L208.63 32.38C208.644 31.6067 208.504 30.9133 208.21 30.3C207.917 29.6867 207.497 29.2067 206.95 28.86C206.417 28.5133 205.777 28.34 205.03 28.34C204.27 28.34 203.604 28.52 203.03 28.88C202.457 29.24 202.01 29.74 201.69 30.38C201.384 31.0067 201.23 31.7267 201.23 32.54C201.23 33.3533 201.404 34.0733 201.75 34.7C202.11 35.3267 202.597 35.82 203.21 36.18C203.824 36.54 204.53 36.72 205.33 36.72C205.81 36.72 206.29 36.64 206.77 36.48C207.264 36.3067 207.657 36.0933 207.95 35.84C208.097 35.72 208.264 35.66 208.45 35.66C208.637 35.6467 208.797 35.6933 208.93 35.8C209.104 35.96 209.19 36.1333 209.19 36.32C209.204 36.5067 209.13 36.6667 208.97 36.8C208.53 37.1733 207.97 37.4867 207.29 37.74C206.61 37.98 205.957 38.1 205.33 38.1ZM5.62 60.1C4.59333 60.1 3.67333 59.86 2.86 59.38C2.04667 58.8867 1.4 58.22 0.92 57.38C0.453333 56.54 0.22 55.5933 0.22 54.54C0.22 53.4733 0.46 52.52 0.94 51.68C1.43333 50.84 2.1 50.18 2.94 49.7C3.78 49.2067 4.72667 48.96 5.78 48.96C6.83333 48.96 7.77333 49.2067 8.6 49.7C9.44 50.18 10.1 50.84 10.58 51.68C11.0733 52.52 11.3267 53.4733 11.34 54.54L10.72 55.02C10.72 55.98 10.4933 56.8467 10.04 57.62C9.6 58.38 8.99333 58.9867 8.22 59.44C7.46 59.88 6.59333 60.1 5.62 60.1ZM5.78 58.7C6.55333 58.7 7.24 58.52 7.84 58.16C8.45333 57.8 8.93333 57.3067 9.28 56.68C9.64 56.04 9.82 55.3267 9.82 54.54C9.82 53.74 9.64 53.0267 9.28 52.4C8.93333 51.7733 8.45333 51.28 7.84 50.92C7.24 50.5467 6.55333 50.36 5.78 50.36C5.02 50.36 4.33333 50.5467 3.72 50.92C3.10667 51.28 2.62 51.7733 2.26 52.4C1.9 53.0267 1.72 53.74 1.72 54.54C1.72 55.3267 1.9 56.04 2.26 56.68C2.62 57.3067 3.10667 57.8 3.72 58.16C4.33333 58.52 5.02 58.7 5.78 58.7ZM10.56 60C10.3333 60 10.1467 59.9333 10 59.8C9.85333 59.6533 9.78 59.4667 9.78 59.24V55.82L10.16 54.24L11.34 54.54V59.24C11.34 59.4667 11.2667 59.6533 11.12 59.8C10.9733 59.9333 10.7867 60 10.56 60ZM19.8752 60.1C18.8352 60.1 17.8952 59.86 17.0552 59.38C16.2285 58.9 15.5685 58.2467 15.0752 57.42C14.5952 56.58 14.3485 55.64 14.3352 54.6V45.16C14.3352 44.92 14.4018 44.7333 14.5352 44.6C14.6818 44.4533 14.8752 44.38 15.1152 44.38C15.3418 44.38 15.5218 44.4533 15.6552 44.6C15.8018 44.7333 15.8752 44.92 15.8752 45.16V51.04C16.3152 50.4133 16.8952 49.9133 17.6152 49.54C18.3485 49.1533 19.1618 48.96 20.0552 48.96C21.0818 48.96 22.0018 49.2067 22.8152 49.7C23.6285 50.18 24.2685 50.84 24.7352 51.68C25.2152 52.52 25.4552 53.4667 25.4552 54.52C25.4552 55.5867 25.2085 56.54 24.7152 57.38C24.2352 58.22 23.5752 58.8867 22.7352 59.38C21.8952 59.86 20.9418 60.1 19.8752 60.1ZM19.8752 58.7C20.6485 58.7 21.3418 58.52 21.9552 58.16C22.5685 57.7867 23.0485 57.2867 23.3952 56.66C23.7552 56.0333 23.9352 55.32 23.9352 54.52C23.9352 53.7333 23.7552 53.0267 23.3952 52.4C23.0485 51.76 22.5685 51.26 21.9552 50.9C21.3418 50.54 20.6485 50.36 19.8752 50.36C19.1152 50.36 18.4285 50.54 17.8152 50.9C17.2018 51.26 16.7218 51.76 16.3752 52.4C16.0285 53.0267 15.8552 53.7333 15.8552 54.52C15.8552 55.32 16.0285 56.0333 16.3752 56.66C16.7218 57.2867 17.2018 57.7867 17.8152 58.16C18.4285 58.52 19.1152 58.7 19.8752 58.7ZM33.4558 60.1C32.3891 60.1 31.4358 59.86 30.5958 59.38C29.7558 58.9 29.0958 58.24 28.6158 57.4C28.1358 56.56 27.8958 55.6067 27.8958 54.54C27.8958 53.46 28.1358 52.5 28.6158 51.66C29.0958 50.82 29.7558 50.16 30.5958 49.68C31.4358 49.2 32.3891 48.96 33.4558 48.96C34.5224 48.96 35.4691 49.2 36.2958 49.68C37.1358 50.16 37.7958 50.82 38.2758 51.66C38.7558 52.5 39.0024 53.46 39.0158 54.54C39.0158 55.6067 38.7691 56.56 38.2758 57.4C37.7958 58.24 37.1358 58.9 36.2958 59.38C35.4691 59.86 34.5224 60.1 33.4558 60.1ZM33.4558 58.7C34.2291 58.7 34.9224 58.52 35.5358 58.16C36.1491 57.8 36.6291 57.3067 36.9758 56.68C37.3224 56.0533 37.4958 55.34 37.4958 54.54C37.4958 53.74 37.3224 53.0267 36.9758 52.4C36.6291 51.76 36.1491 51.26 35.5358 50.9C34.9224 50.54 34.2291 50.36 33.4558 50.36C32.6824 50.36 31.9891 50.54 31.3758 50.9C30.7624 51.26 30.2758 51.76 29.9158 52.4C29.5691 53.0267 29.3958 53.74 29.3958 54.54C29.3958 55.34 29.5691 56.0533 29.9158 56.68C30.2758 57.3067 30.7624 57.8 31.3758 58.16C31.9891 58.52 32.6824 58.7 33.4558 58.7ZM46.7709 60.12C45.8243 60.12 44.9776 59.9267 44.2309 59.54C43.4843 59.14 42.8909 58.56 42.4509 57.8C42.0243 57.04 41.8109 56.1133 41.8109 55.02V49.82C41.8109 49.6067 41.8843 49.4267 42.0309 49.28C42.1776 49.1333 42.3576 49.06 42.5709 49.06C42.7976 49.06 42.9843 49.1333 43.1309 49.28C43.2776 49.4267 43.3509 49.6067 43.3509 49.82V55.02C43.3509 55.8467 43.5043 56.5267 43.8109 57.06C44.1309 57.5933 44.5576 57.9933 45.0909 58.26C45.6376 58.5267 46.2509 58.66 46.9309 58.66C47.5843 58.66 48.1709 58.5333 48.6909 58.28C49.2243 58.0267 49.6443 57.68 49.9509 57.24C50.2576 56.8 50.4109 56.3 50.4109 55.74H51.5109C51.4709 56.58 51.2376 57.3333 50.8109 58C50.3976 58.6533 49.8376 59.1733 49.1309 59.56C48.4243 59.9333 47.6376 60.12 46.7709 60.12ZM51.1709 60C50.9443 60 50.7576 59.9333 50.6109 59.8C50.4776 59.6533 50.4109 59.46 50.4109 59.22V49.82C50.4109 49.5933 50.4776 49.4133 50.6109 49.28C50.7576 49.1333 50.9443 49.06 51.1709 49.06C51.3976 49.06 51.5843 49.1333 51.7309 49.28C51.8776 49.4133 51.9509 49.5933 51.9509 49.82V59.22C51.9509 59.46 51.8776 59.6533 51.7309 59.8C51.5843 59.9333 51.3976 60 51.1709 60ZM59.8261 60C59.1194 60 58.4861 59.8333 57.9261 59.5C57.3794 59.1667 56.9461 58.7133 56.6261 58.14C56.3061 57.5533 56.1461 56.8867 56.1461 56.14V46.36C56.1461 46.1333 56.2128 45.9467 56.3461 45.8C56.4928 45.6533 56.6794 45.58 56.9061 45.58C57.1328 45.58 57.3194 45.6533 57.4661 45.8C57.6128 45.9467 57.6861 46.1333 57.6861 46.36V56.14C57.6861 56.82 57.8861 57.38 58.2861 57.82C58.6861 58.2467 59.1994 58.46 59.8261 58.46H60.3661C60.5794 58.46 60.7528 58.5333 60.8861 58.68C61.0194 58.8267 61.0861 59.0133 61.0861 59.24C61.0861 59.4667 61.0061 59.6533 60.8461 59.8C60.6861 59.9333 60.4861 60 60.2461 60H59.8261ZM54.8461 50.8C54.6461 50.8 54.4794 50.74 54.3461 50.62C54.2128 50.4867 54.1461 50.3267 54.1461 50.14C54.1461 49.94 54.2128 49.78 54.3461 49.66C54.4794 49.5267 54.6461 49.46 54.8461 49.46H59.9461C60.1461 49.46 60.3128 49.5267 60.4461 49.66C60.5794 49.78 60.6461 49.94 60.6461 50.14C60.6461 50.3267 60.5794 50.4867 60.4461 50.62C60.3128 50.74 60.1461 50.8 59.9461 50.8H54.8461ZM73.7323 60C73.0257 60 72.3923 59.8333 71.8323 59.5C71.2857 59.1667 70.8523 58.7133 70.5323 58.14C70.2123 57.5533 70.0523 56.8867 70.0523 56.14V46.36C70.0523 46.1333 70.119 45.9467 70.2523 45.8C70.399 45.6533 70.5857 45.58 70.8123 45.58C71.039 45.58 71.2257 45.6533 71.3723 45.8C71.519 45.9467 71.5923 46.1333 71.5923 46.36V56.14C71.5923 56.82 71.7923 57.38 72.1923 57.82C72.5923 58.2467 73.1057 58.46 73.7323 58.46H74.2723C74.4857 58.46 74.659 58.5333 74.7923 58.68C74.9257 58.8267 74.9923 59.0133 74.9923 59.24C74.9923 59.4667 74.9123 59.6533 74.7523 59.8C74.5923 59.9333 74.3923 60 74.1523 60H73.7323ZM68.7523 50.8C68.5523 50.8 68.3857 50.74 68.2523 50.62C68.119 50.4867 68.0523 50.3267 68.0523 50.14C68.0523 49.94 68.119 49.78 68.2523 49.66C68.3857 49.5267 68.5523 49.46 68.7523 49.46H73.8523C74.0523 49.46 74.219 49.5267 74.3523 49.66C74.4857 49.78 74.5523 49.94 74.5523 50.14C74.5523 50.3267 74.4857 50.4867 74.3523 50.62C74.219 50.74 74.0523 50.8 73.8523 50.8H68.7523ZM78.2792 55.54C78.0392 55.54 77.8459 55.4667 77.6992 55.32C77.5659 55.1733 77.4992 54.9867 77.4992 54.76V45.16C77.4992 44.92 77.5659 44.7333 77.6992 44.6C77.8459 44.4533 78.0392 44.38 78.2792 44.38C78.5059 44.38 78.6859 44.4533 78.8192 44.6C78.9659 44.7333 79.0392 44.92 79.0392 45.16V54.76C79.0392 54.9867 78.9659 55.1733 78.8192 55.32C78.6859 55.4667 78.5059 55.54 78.2792 55.54ZM86.8792 60C86.6526 60 86.4659 59.9267 86.3192 59.78C86.1726 59.6333 86.0992 59.4533 86.0992 59.24V54.04C86.0992 53.2133 85.9392 52.5333 85.6192 52C85.3126 51.4667 84.8859 51.0667 84.3392 50.8C83.8059 50.5333 83.1992 50.4 82.5192 50.4C81.8659 50.4 81.2726 50.5267 80.7392 50.78C80.2192 51.0333 79.8059 51.38 79.4992 51.82C79.1926 52.26 79.0392 52.76 79.0392 53.32H77.9392C77.9659 52.48 78.1926 51.7333 78.6192 51.08C79.0459 50.4133 79.6126 49.8933 80.3192 49.52C81.0259 49.1333 81.8126 48.94 82.6792 48.94C83.6259 48.94 84.4726 49.14 85.2192 49.54C85.9659 49.9267 86.5526 50.5 86.9792 51.26C87.4192 52.02 87.6392 52.9467 87.6392 54.04V59.24C87.6392 59.4533 87.5659 59.6333 87.4192 59.78C87.2726 59.9267 87.0926 60 86.8792 60ZM78.2792 60C78.0392 60 77.8459 59.9333 77.6992 59.8C77.5659 59.6533 77.4992 59.4667 77.4992 59.24V49.84C77.4992 49.6 77.5659 49.4133 77.6992 49.28C77.8459 49.1333 78.0392 49.06 78.2792 49.06C78.5059 49.06 78.6859 49.1333 78.8192 49.28C78.9659 49.4133 79.0392 49.6 79.0392 49.84V59.24C79.0392 59.4667 78.9659 59.6533 78.8192 59.8C78.6859 59.9333 78.5059 60 78.2792 60ZM91.6744 53.26C91.7144 52.4333 91.9277 51.6933 92.3144 51.04C92.7144 50.3867 93.2277 49.8733 93.8544 49.5C94.4944 49.1267 95.201 48.94 95.9744 48.94C96.5877 48.94 97.061 49.0267 97.3944 49.2C97.7277 49.3733 97.8544 49.6267 97.7744 49.96C97.721 50.16 97.6277 50.2933 97.4944 50.36C97.3744 50.4267 97.221 50.4533 97.0344 50.44C96.861 50.4267 96.661 50.4133 96.4344 50.4C95.6877 50.3333 95.021 50.4133 94.4344 50.64C93.861 50.8533 93.401 51.1867 93.0544 51.64C92.721 52.0933 92.5544 52.6333 92.5544 53.26H91.6744ZM91.7944 60C91.5544 60 91.3677 59.9333 91.2344 59.8C91.101 59.6667 91.0344 59.48 91.0344 59.24V49.82C91.0344 49.58 91.101 49.3933 91.2344 49.26C91.3677 49.1267 91.5544 49.06 91.7944 49.06C92.0344 49.06 92.221 49.1267 92.3544 49.26C92.4877 49.3933 92.5544 49.58 92.5544 49.82V59.24C92.5544 59.48 92.4877 59.6667 92.3544 59.8C92.221 59.9333 92.0344 60 91.7944 60ZM104.354 60.1C103.274 60.1 102.314 59.8667 101.474 59.4C100.647 58.92 99.9937 58.26 99.5138 57.42C99.0471 56.58 98.8138 55.62 98.8138 54.54C98.8138 53.4467 99.0338 52.4867 99.4738 51.66C99.9271 50.82 100.547 50.16 101.334 49.68C102.12 49.2 103.027 48.96 104.054 48.96C105.067 48.96 105.947 49.1933 106.694 49.66C107.454 50.1133 108.04 50.7467 108.454 51.56C108.867 52.3733 109.074 53.3 109.074 54.34C109.074 54.5533 109.007 54.7267 108.874 54.86C108.74 54.98 108.567 55.04 108.354 55.04H99.8538V53.76H108.514L107.654 54.38C107.667 53.6067 107.527 52.9133 107.234 52.3C106.94 51.6867 106.52 51.2067 105.974 50.86C105.44 50.5133 104.8 50.34 104.054 50.34C103.294 50.34 102.627 50.52 102.054 50.88C101.48 51.24 101.034 51.74 100.714 52.38C100.407 53.0067 100.254 53.7267 100.254 54.54C100.254 55.3533 100.427 56.0733 100.774 56.7C101.134 57.3267 101.62 57.82 102.234 58.18C102.847 58.54 103.554 58.72 104.354 58.72C104.834 58.72 105.314 58.64 105.794 58.48C106.287 58.3067 106.68 58.0933 106.974 57.84C107.12 57.72 107.287 57.66 107.474 57.66C107.66 57.6467 107.82 57.6933 107.954 57.8C108.127 57.96 108.214 58.1333 108.214 58.32C108.227 58.5067 108.154 58.6667 107.994 58.8C107.554 59.1733 106.994 59.4867 106.314 59.74C105.634 59.98 104.98 60.1 104.354 60.1ZM116.248 60.1C115.168 60.1 114.208 59.8667 113.368 59.4C112.542 58.92 111.888 58.26 111.408 57.42C110.942 56.58 110.708 55.62 110.708 54.54C110.708 53.4467 110.928 52.4867 111.368 51.66C111.822 50.82 112.442 50.16 113.228 49.68C114.015 49.2 114.922 48.96 115.948 48.96C116.962 48.96 117.842 49.1933 118.588 49.66C119.348 50.1133 119.935 50.7467 120.348 51.56C120.762 52.3733 120.968 53.3 120.968 54.34C120.968 54.5533 120.902 54.7267 120.768 54.86C120.635 54.98 120.462 55.04 120.248 55.04H111.748V53.76H120.408L119.548 54.38C119.562 53.6067 119.422 52.9133 119.128 52.3C118.835 51.6867 118.415 51.2067 117.868 50.86C117.335 50.5133 116.695 50.34 115.948 50.34C115.188 50.34 114.522 50.52 113.948 50.88C113.375 51.24 112.928 51.74 112.608 52.38C112.302 53.0067 112.148 53.7267 112.148 54.54C112.148 55.3533 112.322 56.0733 112.668 56.7C113.028 57.3267 113.515 57.82 114.128 58.18C114.742 58.54 115.448 58.72 116.248 58.72C116.728 58.72 117.208 58.64 117.688 58.48C118.182 58.3067 118.575 58.0933 118.868 57.84C119.015 57.72 119.182 57.66 119.368 57.66C119.555 57.6467 119.715 57.6933 119.848 57.8C120.022 57.96 120.108 58.1333 120.108 58.32C120.122 58.5067 120.048 58.6667 119.888 58.8C119.448 59.1733 118.888 59.4867 118.208 59.74C117.528 59.98 116.875 60.1 116.248 60.1ZM134.313 60.1C133.259 60.1 132.319 59.86 131.493 59.38C130.679 58.8867 130.033 58.22 129.553 57.38C129.086 56.54 128.853 55.5933 128.853 54.54C128.853 53.4733 129.079 52.52 129.533 51.68C129.986 50.84 130.606 50.18 131.393 49.7C132.179 49.2067 133.086 48.96 134.113 48.96C134.926 48.96 135.673 49.12 136.353 49.44C137.046 49.76 137.653 50.24 138.173 50.88C138.319 51.04 138.373 51.2133 138.333 51.4C138.293 51.5733 138.179 51.7267 137.993 51.86C137.846 51.9667 137.679 52.0067 137.493 51.98C137.319 51.94 137.166 51.84 137.033 51.68C136.259 50.8 135.286 50.36 134.113 50.36C133.366 50.36 132.706 50.54 132.133 50.9C131.573 51.26 131.133 51.7533 130.813 52.38C130.506 53.0067 130.353 53.7267 130.353 54.54C130.353 55.34 130.519 56.0533 130.853 56.68C131.186 57.3067 131.653 57.8 132.253 58.16C132.853 58.52 133.539 58.7 134.313 58.7C134.833 58.7 135.306 58.6333 135.733 58.5C136.173 58.3533 136.559 58.1333 136.893 57.84C137.053 57.7067 137.219 57.6333 137.393 57.62C137.566 57.6067 137.726 57.66 137.873 57.78C138.033 57.9267 138.119 58.0933 138.133 58.28C138.159 58.4667 138.099 58.6267 137.953 58.76C136.979 59.6533 135.766 60.1 134.313 60.1ZM146.287 60.1C145.207 60.1 144.247 59.8667 143.407 59.4C142.581 58.92 141.927 58.26 141.447 57.42C140.981 56.58 140.747 55.62 140.747 54.54C140.747 53.4467 140.967 52.4867 141.407 51.66C141.861 50.82 142.481 50.16 143.267 49.68C144.054 49.2 144.961 48.96 145.987 48.96C147.001 48.96 147.881 49.1933 148.627 49.66C149.387 50.1133 149.974 50.7467 150.387 51.56C150.801 52.3733 151.007 53.3 151.007 54.34C151.007 54.5533 150.941 54.7267 150.807 54.86C150.674 54.98 150.501 55.04 150.287 55.04H141.787V53.76H150.447L149.587 54.38C149.601 53.6067 149.461 52.9133 149.167 52.3C148.874 51.6867 148.454 51.2067 147.907 50.86C147.374 50.5133 146.734 50.34 145.987 50.34C145.227 50.34 144.561 50.52 143.987 50.88C143.414 51.24 142.967 51.74 142.647 52.38C142.341 53.0067 142.187 53.7267 142.187 54.54C142.187 55.3533 142.361 56.0733 142.707 56.7C143.067 57.3267 143.554 57.82 144.167 58.18C144.781 58.54 145.487 58.72 146.287 58.72C146.767 58.72 147.247 58.64 147.727 58.48C148.221 58.3067 148.614 58.0933 148.907 57.84C149.054 57.72 149.221 57.66 149.407 57.66C149.594 57.6467 149.754 57.6933 149.887 57.8C150.061 57.96 150.147 58.1333 150.147 58.32C150.161 58.5067 150.087 58.6667 149.927 58.8C149.487 59.1733 148.927 59.4867 148.247 59.74C147.567 59.98 146.914 60.1 146.287 60.1ZM162.993 60C162.766 60 162.579 59.9267 162.433 59.78C162.286 59.6333 162.213 59.4533 162.213 59.24V54.04C162.213 53.2133 162.053 52.5333 161.733 52C161.426 51.4667 160.999 51.0667 160.453 50.8C159.919 50.5333 159.313 50.4 158.633 50.4C157.979 50.4 157.386 50.5267 156.853 50.78C156.333 51.0333 155.919 51.38 155.613 51.82C155.306 52.26 155.153 52.76 155.153 53.32H154.053C154.079 52.48 154.306 51.7333 154.733 51.08C155.159 50.4133 155.726 49.8933 156.433 49.52C157.139 49.1333 157.926 48.94 158.793 48.94C159.739 48.94 160.586 49.14 161.333 49.54C162.079 49.9267 162.666 50.5 163.093 51.26C163.533 52.02 163.753 52.9467 163.753 54.04V59.24C163.753 59.4533 163.679 59.6333 163.533 59.78C163.386 59.9267 163.206 60 162.993 60ZM154.393 60C154.153 60 153.959 59.9333 153.813 59.8C153.679 59.6533 153.613 59.4667 153.613 59.24V49.84C153.613 49.6 153.679 49.4133 153.813 49.28C153.959 49.1333 154.153 49.06 154.393 49.06C154.619 49.06 154.799 49.1333 154.933 49.28C155.079 49.4133 155.153 49.6 155.153 49.84V59.24C155.153 59.4667 155.079 59.6533 154.933 59.8C154.799 59.9333 154.619 60 154.393 60ZM171.428 60C170.721 60 170.088 59.8333 169.528 59.5C168.981 59.1667 168.548 58.7133 168.228 58.14C167.908 57.5533 167.748 56.8867 167.748 56.14V46.36C167.748 46.1333 167.814 45.9467 167.948 45.8C168.094 45.6533 168.281 45.58 168.508 45.58C168.734 45.58 168.921 45.6533 169.068 45.8C169.214 45.9467 169.288 46.1333 169.288 46.36V56.14C169.288 56.82 169.488 57.38 169.888 57.82C170.288 58.2467 170.801 58.46 171.428 58.46H171.968C172.181 58.46 172.354 58.5333 172.488 58.68C172.621 58.8267 172.688 59.0133 172.688 59.24C172.688 59.4667 172.608 59.6533 172.448 59.8C172.288 59.9333 172.088 60 171.848 60H171.428ZM166.448 50.8C166.248 50.8 166.081 50.74 165.948 50.62C165.814 50.4867 165.748 50.3267 165.748 50.14C165.748 49.94 165.814 49.78 165.948 49.66C166.081 49.5267 166.248 49.46 166.448 49.46H171.548C171.748 49.46 171.914 49.5267 172.048 49.66C172.181 49.78 172.248 49.94 172.248 50.14C172.248 50.3267 172.181 50.4867 172.048 50.62C171.914 50.74 171.748 50.8 171.548 50.8H166.448ZM176.295 60C176.055 60 175.861 59.9333 175.715 59.8C175.581 59.6533 175.515 59.46 175.515 59.22V49.84C175.515 49.6 175.581 49.4133 175.715 49.28C175.861 49.1333 176.055 49.06 176.295 49.06C176.521 49.06 176.701 49.1333 176.835 49.28C176.981 49.4133 177.055 49.6 177.055 49.84V59.22C177.055 59.46 176.981 59.6533 176.835 59.8C176.701 59.9333 176.521 60 176.295 60ZM176.275 46.98C175.981 46.98 175.728 46.8733 175.515 46.66C175.301 46.4467 175.195 46.1867 175.195 45.88C175.195 45.5467 175.301 45.2867 175.515 45.1C175.741 44.9 176.001 44.8 176.295 44.8C176.575 44.8 176.821 44.9 177.035 45.1C177.261 45.2867 177.375 45.5467 177.375 45.88C177.375 46.1867 177.268 46.4467 177.055 46.66C176.841 46.8733 176.581 46.98 176.275 46.98ZM195.756 60C195.529 60 195.342 59.9333 195.196 59.8C195.049 59.6533 194.976 59.4667 194.976 59.24V53.48C194.976 52.5333 194.729 51.7867 194.236 51.24C193.742 50.68 193.109 50.4 192.336 50.4C191.509 50.4 190.829 50.68 190.296 51.24C189.776 51.7867 189.522 52.52 189.536 53.44H188.156C188.169 52.5467 188.362 51.76 188.736 51.08C189.109 50.4 189.622 49.8733 190.276 49.5C190.929 49.1267 191.669 48.94 192.496 48.94C193.282 48.94 193.976 49.1267 194.576 49.5C195.189 49.8733 195.662 50.4 195.996 51.08C196.342 51.76 196.516 52.56 196.516 53.48V59.24C196.516 59.4667 196.442 59.6533 196.296 59.8C196.162 59.9333 195.982 60 195.756 60ZM181.756 60C181.516 60 181.322 59.9333 181.176 59.8C181.042 59.6533 180.976 59.4667 180.976 59.24V49.84C180.976 49.6133 181.042 49.4267 181.176 49.28C181.322 49.1333 181.516 49.06 181.756 49.06C181.982 49.06 182.162 49.1333 182.296 49.28C182.442 49.4267 182.516 49.6133 182.516 49.84V59.24C182.516 59.4667 182.442 59.6533 182.296 59.8C182.162 59.9333 181.982 60 181.756 60ZM188.776 60C188.549 60 188.362 59.9333 188.216 59.8C188.069 59.6533 187.996 59.4667 187.996 59.24V53.48C187.996 52.5333 187.749 51.7867 187.256 51.24C186.762 50.68 186.129 50.4 185.356 50.4C184.529 50.4 183.849 50.6733 183.316 51.22C182.782 51.7533 182.516 52.4533 182.516 53.32H181.416C181.442 52.4667 181.629 51.7133 181.976 51.06C182.336 50.3933 182.822 49.8733 183.436 49.5C184.049 49.1267 184.742 48.94 185.516 48.94C186.302 48.94 186.996 49.1267 187.596 49.5C188.209 49.8733 188.682 50.4 189.016 51.08C189.362 51.76 189.536 52.56 189.536 53.48V59.24C189.536 59.4667 189.462 59.6533 189.316 59.8C189.182 59.9333 189.002 60 188.776 60ZM204.881 60.1C203.801 60.1 202.841 59.8667 202.001 59.4C201.174 58.92 200.521 58.26 200.041 57.42C199.574 56.58 199.341 55.62 199.341 54.54C199.341 53.4467 199.561 52.4867 200.001 51.66C200.454 50.82 201.074 50.16 201.861 49.68C202.648 49.2 203.554 48.96 204.581 48.96C205.594 48.96 206.474 49.1933 207.221 49.66C207.981 50.1133 208.568 50.7467 208.981 51.56C209.394 52.3733 209.601 53.3 209.601 54.34C209.601 54.5533 209.534 54.7267 209.401 54.86C209.268 54.98 209.094 55.04 208.881 55.04H200.381V53.76H209.041L208.181 54.38C208.194 53.6067 208.054 52.9133 207.761 52.3C207.468 51.6867 207.048 51.2067 206.501 50.86C205.968 50.5133 205.328 50.34 204.581 50.34C203.821 50.34 203.154 50.52 202.581 50.88C202.008 51.24 201.561 51.74 201.241 52.38C200.934 53.0067 200.781 53.7267 200.781 54.54C200.781 55.3533 200.954 56.0733 201.301 56.7C201.661 57.3267 202.148 57.82 202.761 58.18C203.374 58.54 204.081 58.72 204.881 58.72C205.361 58.72 205.841 58.64 206.321 58.48C206.814 58.3067 207.208 58.0933 207.501 57.84C207.648 57.72 207.814 57.66 208.001 57.66C208.188 57.6467 208.348 57.6933 208.481 57.8C208.654 57.96 208.741 58.1333 208.741 58.32C208.754 58.5067 208.681 58.6667 208.521 58.8C208.081 59.1733 207.521 59.4867 206.841 59.74C206.161 59.98 205.508 60.1 204.881 60.1ZM216.486 60C215.78 60 215.146 59.8333 214.586 59.5C214.04 59.1667 213.606 58.7133 213.286 58.14C212.966 57.5533 212.806 56.8867 212.806 56.14V46.36C212.806 46.1333 212.873 45.9467 213.006 45.8C213.153 45.6533 213.34 45.58 213.566 45.58C213.793 45.58 213.98 45.6533 214.126 45.8C214.273 45.9467 214.346 46.1333 214.346 46.36V56.14C214.346 56.82 214.546 57.38 214.946 57.82C215.346 58.2467 215.86 58.46 216.486 58.46H217.026C217.24 58.46 217.413 58.5333 217.546 58.68C217.68 58.8267 217.746 59.0133 217.746 59.24C217.746 59.4667 217.666 59.6533 217.506 59.8C217.346 59.9333 217.146 60 216.906 60H216.486ZM211.506 50.8C211.306 50.8 211.14 50.74 211.006 50.62C210.873 50.4867 210.806 50.3267 210.806 50.14C210.806 49.94 210.873 49.78 211.006 49.66C211.14 49.5267 211.306 49.46 211.506 49.46H216.606C216.806 49.46 216.973 49.5267 217.106 49.66C217.24 49.78 217.306 49.94 217.306 50.14C217.306 50.3267 217.24 50.4867 217.106 50.62C216.973 50.74 216.806 50.8 216.606 50.8H211.506ZM225.213 60.1C224.133 60.1 223.173 59.8667 222.333 59.4C221.506 58.92 220.853 58.26 220.373 57.42C219.906 56.58 219.673 55.62 219.673 54.54C219.673 53.4467 219.893 52.4867 220.333 51.66C220.786 50.82 221.406 50.16 222.193 49.68C222.98 49.2 223.886 48.96 224.913 48.96C225.926 48.96 226.806 49.1933 227.553 49.66C228.313 50.1133 228.9 50.7467 229.313 51.56C229.726 52.3733 229.933 53.3 229.933 54.34C229.933 54.5533 229.866 54.7267 229.733 54.86C229.6 54.98 229.426 55.04 229.213 55.04H220.713V53.76H229.373L228.513 54.38C228.526 53.6067 228.386 52.9133 228.093 52.3C227.8 51.6867 227.38 51.2067 226.833 50.86C226.3 50.5133 225.66 50.34 224.913 50.34C224.153 50.34 223.486 50.52 222.913 50.88C222.34 51.24 221.893 51.74 221.573 52.38C221.266 53.0067 221.113 53.7267 221.113 54.54C221.113 55.3533 221.286 56.0733 221.633 56.7C221.993 57.3267 222.48 57.82 223.093 58.18C223.706 58.54 224.413 58.72 225.213 58.72C225.693 58.72 226.173 58.64 226.653 58.48C227.146 58.3067 227.54 58.0933 227.833 57.84C227.98 57.72 228.146 57.66 228.333 57.66C228.52 57.6467 228.68 57.6933 228.813 57.8C228.986 57.96 229.073 58.1333 229.073 58.32C229.086 58.5067 229.013 58.6667 228.853 58.8C228.413 59.1733 227.853 59.4867 227.173 59.74C226.493 59.98 225.84 60.1 225.213 60.1ZM233.178 53.26C233.218 52.4333 233.432 51.6933 233.818 51.04C234.218 50.3867 234.732 49.8733 235.358 49.5C235.998 49.1267 236.705 48.94 237.478 48.94C238.092 48.94 238.565 49.0267 238.898 49.2C239.232 49.3733 239.358 49.6267 239.278 49.96C239.225 50.16 239.132 50.2933 238.998 50.36C238.878 50.4267 238.725 50.4533 238.538 50.44C238.365 50.4267 238.165 50.4133 237.938 50.4C237.192 50.3333 236.525 50.4133 235.938 50.64C235.365 50.8533 234.905 51.1867 234.558 51.64C234.225 52.0933 234.058 52.6333 234.058 53.26H233.178ZM233.298 60C233.058 60 232.872 59.9333 232.738 59.8C232.605 59.6667 232.538 59.48 232.538 59.24V49.82C232.538 49.58 232.605 49.3933 232.738 49.26C232.872 49.1267 233.058 49.06 233.298 49.06C233.538 49.06 233.725 49.1267 233.858 49.26C233.992 49.3933 234.058 49.58 234.058 49.82V59.24C234.058 59.48 233.992 59.6667 233.858 59.8C233.725 59.9333 233.538 60 233.298 60ZM245.518 60.1C244.732 60.1 243.952 59.9667 243.178 59.7C242.405 59.4333 241.778 59.0333 241.298 58.5C241.152 58.34 241.092 58.16 241.118 57.96C241.145 57.76 241.245 57.5867 241.418 57.44C241.605 57.3067 241.798 57.2533 241.998 57.28C242.198 57.3067 242.365 57.3933 242.498 57.54C242.818 57.9133 243.238 58.2 243.758 58.4C244.292 58.6 244.878 58.7 245.518 58.7C246.505 58.7 247.218 58.5333 247.658 58.2C248.098 57.8533 248.325 57.44 248.338 56.96C248.338 56.48 248.112 56.0867 247.658 55.78C247.205 55.46 246.458 55.2133 245.418 55.04C244.072 54.8267 243.085 54.4533 242.458 53.92C241.832 53.3867 241.518 52.7533 241.518 52.02C241.518 51.34 241.698 50.7733 242.058 50.32C242.418 49.8667 242.898 49.5267 243.498 49.3C244.098 49.0733 244.758 48.96 245.478 48.96C246.372 48.96 247.138 49.1133 247.778 49.42C248.432 49.7267 248.958 50.14 249.358 50.66C249.492 50.8333 249.545 51.0133 249.518 51.2C249.492 51.3867 249.385 51.54 249.198 51.66C249.038 51.7533 248.852 51.7867 248.638 51.76C248.438 51.72 248.265 51.62 248.118 51.46C247.785 51.0733 247.398 50.7933 246.958 50.62C246.518 50.4333 246.012 50.34 245.438 50.34C244.705 50.34 244.118 50.4933 243.678 50.8C243.238 51.0933 243.018 51.4667 243.018 51.92C243.018 52.2267 243.098 52.4933 243.258 52.72C243.432 52.9467 243.718 53.1467 244.118 53.32C244.532 53.4933 245.105 53.64 245.838 53.76C246.838 53.92 247.625 54.16 248.198 54.48C248.785 54.7867 249.198 55.1533 249.438 55.58C249.692 55.9933 249.818 56.4467 249.818 56.94C249.818 57.5667 249.632 58.12 249.258 58.6C248.898 59.0667 248.392 59.4333 247.738 59.7C247.098 59.9667 246.358 60.1 245.518 60.1Z" fill="black"/>
<path d="M167.777 16C167.564 16 167.37 15.9333 167.197 15.8C167.037 15.6667 166.917 15.48 166.837 15.24L162.797 1.7C162.677 1.3 162.684 0.979999 162.817 0.74C162.964 0.5 163.204 0.38 163.537 0.38C163.737 0.38 163.917 0.44 164.077 0.56C164.25 0.666666 164.377 0.846665 164.457 1.1L168.017 13.56H167.577L170.917 1.3C170.97 1.11333 171.077 0.966666 171.237 0.859999C171.41 0.739999 171.604 0.679999 171.817 0.679999C172.004 0.679999 172.184 0.733333 172.357 0.84C172.544 0.933333 172.657 1.08667 172.697 1.3L176.057 13.56H175.637L179.237 0.999999C179.357 0.586666 179.664 0.38 180.157 0.38C180.49 0.38 180.71 0.513333 180.817 0.779999C180.924 1.03333 180.93 1.34 180.837 1.7L176.797 15.22C176.717 15.46 176.59 15.6533 176.417 15.8C176.257 15.9333 176.07 16 175.857 16C175.63 16 175.43 15.9267 175.257 15.78C175.097 15.6333 174.984 15.4533 174.917 15.24L171.597 2.7H172.077L168.737 15.22C168.657 15.46 168.53 15.6533 168.357 15.8C168.197 15.9333 168.004 16 167.777 16ZM185.9 16.08C184.793 16.08 183.813 15.8467 182.96 15.38C182.12 14.9 181.46 14.2467 180.98 13.42C180.5 12.58 180.26 11.62 180.26 10.54C180.26 9.44667 180.486 8.48667 180.94 7.66C181.393 6.82 182.02 6.16667 182.82 5.7C183.62 5.22 184.546 4.98 185.6 4.98C186.626 4.98 187.513 5.21333 188.26 5.68C189.006 6.13333 189.58 6.76667 189.98 7.58C190.38 8.38 190.58 9.30667 190.58 10.36C190.58 10.5867 190.5 10.78 190.34 10.94C190.193 11.0867 189.993 11.16 189.74 11.16H181.52V9.68H189.76L188.94 10.26C188.926 9.55333 188.786 8.92 188.52 8.36C188.253 7.8 187.873 7.36 187.38 7.04C186.886 6.72 186.293 6.56 185.6 6.56C184.84 6.56 184.18 6.73333 183.62 7.08C183.073 7.42667 182.653 7.9 182.36 8.5C182.066 9.1 181.92 9.78 181.92 10.54C181.92 11.3 182.086 11.98 182.42 12.58C182.766 13.1667 183.233 13.6333 183.82 13.98C184.42 14.3267 185.113 14.5 185.9 14.5C186.326 14.5 186.766 14.42 187.22 14.26C187.686 14.1 188.053 13.9133 188.32 13.7C188.506 13.5533 188.706 13.48 188.92 13.48C189.133 13.4667 189.32 13.5267 189.48 13.66C189.68 13.8467 189.786 14.0533 189.8 14.28C189.813 14.4933 189.72 14.68 189.52 14.84C189.066 15.2 188.5 15.5 187.82 15.74C187.153 15.9667 186.513 16.08 185.9 16.08ZM197.103 16.08C196.223 16.08 195.389 15.9467 194.603 15.68C193.816 15.4 193.196 15.02 192.743 14.54C192.569 14.34 192.496 14.12 192.523 13.88C192.549 13.64 192.669 13.4333 192.883 13.26C193.109 13.0867 193.343 13.0133 193.583 13.04C193.823 13.0667 194.023 13.1733 194.183 13.36C194.449 13.6533 194.836 13.9067 195.343 14.12C195.863 14.3333 196.429 14.44 197.043 14.44C197.909 14.44 198.549 14.3 198.963 14.02C199.389 13.7267 199.609 13.3667 199.623 12.94C199.623 12.5 199.416 12.1333 199.003 11.84C198.589 11.5333 197.863 11.2933 196.823 11.12C195.476 10.8667 194.496 10.4733 193.883 9.94C193.269 9.40667 192.963 8.76 192.963 8C192.963 7.32 193.149 6.76 193.523 6.32C193.909 5.86667 194.409 5.53333 195.023 5.32C195.649 5.09333 196.309 4.98 197.003 4.98C197.883 4.98 198.656 5.12667 199.323 5.42C199.989 5.7 200.523 6.09333 200.923 6.6C201.096 6.8 201.169 7.00667 201.143 7.22C201.129 7.43333 201.023 7.61333 200.823 7.76C200.623 7.88 200.389 7.92 200.123 7.88C199.869 7.84 199.656 7.72667 199.483 7.54C199.149 7.19333 198.776 6.95333 198.363 6.82C197.963 6.67333 197.496 6.6 196.963 6.6C196.323 6.6 195.789 6.72 195.363 6.96C194.949 7.2 194.743 7.52667 194.743 7.94C194.743 8.20667 194.809 8.44 194.943 8.64C195.089 8.84 195.356 9.02667 195.743 9.2C196.129 9.36 196.683 9.50667 197.403 9.64C198.403 9.82667 199.189 10.0733 199.763 10.38C200.349 10.6867 200.769 11.0467 201.023 11.46C201.276 11.8733 201.403 12.34 201.403 12.86C201.403 13.4733 201.229 14.0267 200.883 14.52C200.549 15 200.063 15.38 199.423 15.66C198.783 15.94 198.009 16.08 197.103 16.08ZM208.103 16C207.423 16 206.81 15.8333 206.263 15.5C205.716 15.1533 205.29 14.6933 204.983 14.12C204.676 13.5333 204.523 12.8667 204.523 12.12V2.5C204.523 2.23333 204.603 2.01333 204.763 1.84C204.936 1.66667 205.156 1.58 205.423 1.58C205.69 1.58 205.91 1.66667 206.083 1.84C206.256 2.01333 206.343 2.23333 206.343 2.5V12.12C206.343 12.72 206.51 13.2133 206.843 13.6C207.176 13.9867 207.596 14.18 208.103 14.18H208.723C208.95 14.18 209.136 14.2667 209.283 14.44C209.443 14.6133 209.523 14.8333 209.523 15.1C209.523 15.3667 209.423 15.5867 209.223 15.76C209.036 15.92 208.79 16 208.483 16H208.103ZM203.443 7.04C203.203 7.04 203.003 6.96667 202.843 6.82C202.683 6.67333 202.603 6.48667 202.603 6.26C202.603 6.02 202.683 5.82667 202.843 5.68C203.003 5.53333 203.203 5.46 203.443 5.46H208.263C208.503 5.46 208.703 5.53333 208.863 5.68C209.023 5.82667 209.103 6.02 209.103 6.26C209.103 6.48667 209.023 6.67333 208.863 6.82C208.703 6.96667 208.503 7.04 208.263 7.04H203.443ZM217.11 16.08C216.004 16.08 215.024 15.8467 214.17 15.38C213.33 14.9 212.67 14.2467 212.19 13.42C211.71 12.58 211.47 11.62 211.47 10.54C211.47 9.44667 211.697 8.48667 212.15 7.66C212.604 6.82 213.23 6.16667 214.03 5.7C214.83 5.22 215.757 4.98 216.81 4.98C217.837 4.98 218.724 5.21333 219.47 5.68C220.217 6.13333 220.79 6.76667 221.19 7.58C221.59 8.38 221.79 9.30667 221.79 10.36C221.79 10.5867 221.71 10.78 221.55 10.94C221.404 11.0867 221.204 11.16 220.95 11.16H212.73V9.68H220.97L220.15 10.26C220.137 9.55333 219.997 8.92 219.73 8.36C219.464 7.8 219.084 7.36 218.59 7.04C218.097 6.72 217.504 6.56 216.81 6.56C216.05 6.56 215.39 6.73333 214.83 7.08C214.284 7.42667 213.864 7.9 213.57 8.5C213.277 9.1 213.13 9.78 213.13 10.54C213.13 11.3 213.297 11.98 213.63 12.58C213.977 13.1667 214.444 13.6333 215.03 13.98C215.63 14.3267 216.324 14.5 217.11 14.5C217.537 14.5 217.977 14.42 218.43 14.26C218.897 14.1 219.264 13.9133 219.53 13.7C219.717 13.5533 219.917 13.48 220.13 13.48C220.344 13.4667 220.53 13.5267 220.69 13.66C220.89 13.8467 220.997 14.0533 221.01 14.28C221.024 14.4933 220.93 14.68 220.73 14.84C220.277 15.2 219.71 15.5 219.03 15.74C218.364 15.9667 217.724 16.08 217.11 16.08ZM225.234 9.2C225.26 8.38667 225.467 7.66 225.854 7.02C226.254 6.38 226.78 5.87333 227.434 5.5C228.087 5.12667 228.807 4.94 229.594 4.94C230.327 4.94 230.874 5.05333 231.234 5.28C231.607 5.50667 231.747 5.79333 231.654 6.14C231.614 6.34 231.534 6.48667 231.414 6.58C231.294 6.66 231.154 6.70667 230.994 6.72C230.834 6.72 230.66 6.70667 230.474 6.68C229.66 6.54667 228.934 6.56667 228.294 6.74C227.654 6.91333 227.147 7.21333 226.774 7.64C226.4 8.06667 226.214 8.58667 226.214 9.2H225.234ZM225.294 16C225.014 16 224.794 15.9267 224.634 15.78C224.474 15.62 224.394 15.3933 224.394 15.1V5.96C224.394 5.68 224.474 5.46 224.634 5.3C224.794 5.14 225.014 5.06 225.294 5.06C225.6 5.06 225.827 5.14 225.974 5.3C226.134 5.44667 226.214 5.66667 226.214 5.96V15.1C226.214 15.38 226.134 15.6 225.974 15.76C225.827 15.92 225.6 16 225.294 16ZM243.186 16.02C242.919 16.02 242.693 15.9333 242.506 15.76C242.333 15.5733 242.246 15.3533 242.246 15.1V10.06C242.246 9.27333 242.099 8.63333 241.806 8.14C241.513 7.63333 241.119 7.26 240.626 7.02C240.133 6.76667 239.566 6.64 238.926 6.64C238.326 6.64 237.786 6.76 237.306 7C236.826 7.24 236.439 7.56 236.146 7.96C235.866 8.36 235.726 8.82 235.726 9.34H234.526C234.539 8.5 234.753 7.75333 235.166 7.1C235.579 6.43333 236.139 5.91333 236.846 5.54C237.553 5.15333 238.346 4.96 239.226 4.96C240.159 4.96 240.993 5.16 241.726 5.56C242.459 5.94667 243.039 6.52 243.466 7.28C243.893 8.04 244.106 8.96667 244.106 10.06V15.1C244.106 15.3533 244.013 15.5733 243.826 15.76C243.653 15.9333 243.439 16.02 243.186 16.02ZM234.806 16.02C234.539 16.02 234.319 15.9333 234.146 15.76C233.973 15.5867 233.886 15.3667 233.886 15.1V5.98C233.886 5.7 233.973 5.48 234.146 5.32C234.319 5.14667 234.539 5.06 234.806 5.06C235.086 5.06 235.306 5.14667 235.466 5.32C235.639 5.48 235.726 5.7 235.726 5.98V15.1C235.726 15.3667 235.639 15.5867 235.466 15.76C235.306 15.9333 235.086 16.02 234.806 16.02ZM8 38.2C6.92 38.2 5.90667 38 4.96 37.6C4.02667 37.1867 3.20667 36.6133 2.5 35.88C1.80667 35.1467 1.26 34.2933 0.86 33.32C0.46 32.3467 0.26 31.3 0.26 30.18C0.26 29.0733 0.453333 28.04 0.84 27.08C1.24 26.1067 1.79333 25.2533 2.5 24.52C3.20667 23.7867 4.02667 23.2133 4.96 22.8C5.89333 22.3867 6.90667 22.18 8 22.18C9 22.18 9.88 22.32 10.64 22.6C11.4 22.8667 12.1533 23.3067 12.9 23.92C13.0067 24 13.08 24.0933 13.12 24.2C13.1733 24.2933 13.1933 24.3933 13.18 24.5C13.18 24.5933 13.16 24.6867 13.12 24.78C13.1067 24.98 13.02 25.1467 12.86 25.28C12.7133 25.4 12.5333 25.46 12.32 25.46C12.1067 25.46 11.9067 25.3867 11.72 25.24C11.2133 24.8 10.68 24.4667 10.12 24.24C9.56 24.0133 8.85333 23.9 8 23.9C7.18667 23.9 6.42 24.0667 5.7 24.4C4.99333 24.7333 4.36667 25.1867 3.82 25.76C3.27333 26.3333 2.84667 27 2.54 27.76C2.23333 28.52 2.08 29.3267 2.08 30.18C2.08 31.06 2.23333 31.88 2.54 32.64C2.84667 33.3867 3.27333 34.0533 3.82 34.64C4.36667 35.2133 4.99333 35.66 5.7 35.98C6.42 36.3 7.18667 36.46 8 36.46C8.70667 36.46 9.37333 36.3467 10 36.12C10.6267 35.88 11.22 35.5467 11.78 35.12C11.9933 34.96 12.2067 34.8933 12.42 34.92C12.6333 34.9333 12.8133 35.02 12.96 35.18C13.1067 35.3267 13.18 35.5333 13.18 35.8C13.18 35.92 13.16 36.04 13.12 36.16C13.0933 36.2667 13.02 36.3667 12.9 36.46C12.2067 37.0733 11.44 37.52 10.6 37.8C9.77333 38.0667 8.90667 38.2 8 38.2ZM13.18 35.8L11.38 35.42V31.68H8.48C8.21333 31.68 7.98667 31.6 7.8 31.44C7.62667 31.28 7.54 31.08 7.54 30.84C7.54 30.6 7.62667 30.4067 7.8 30.26C7.98667 30.1 8.21333 30.02 8.48 30.02H12.26C12.54 30.02 12.76 30.1067 12.92 30.28C13.0933 30.4533 13.18 30.6733 13.18 30.94V35.8ZM17.2083 33.84C16.9416 33.84 16.7216 33.7533 16.5483 33.58C16.3749 33.3933 16.2883 33.1667 16.2883 32.9V23.3C16.2883 23.02 16.3749 22.8 16.5483 22.64C16.7216 22.4667 16.9416 22.38 17.2083 22.38C17.4883 22.38 17.7083 22.4667 17.8683 22.64C18.0416 22.8 18.1283 23.02 18.1283 23.3V32.9C18.1283 33.1667 18.0416 33.3933 17.8683 33.58C17.7083 33.7533 17.4883 33.84 17.2083 33.84ZM25.5883 38.02C25.3216 38.02 25.0949 37.9333 24.9083 37.76C24.7349 37.5733 24.6483 37.3533 24.6483 37.1V32.06C24.6483 31.2733 24.5016 30.6333 24.2083 30.14C23.9149 29.6333 23.5216 29.26 23.0283 29.02C22.5349 28.7667 21.9683 28.64 21.3283 28.64C20.7283 28.64 20.1883 28.76 19.7083 29C19.2283 29.24 18.8416 29.56 18.5483 29.96C18.2683 30.36 18.1283 30.82 18.1283 31.34H16.9283C16.9416 30.5 17.1549 29.7533 17.5683 29.1C17.9816 28.4333 18.5416 27.9133 19.2483 27.54C19.9549 27.1533 20.7483 26.96 21.6283 26.96C22.5616 26.96 23.3949 27.16 24.1283 27.56C24.8616 27.9467 25.4416 28.52 25.8683 29.28C26.2949 30.04 26.5083 30.9667 26.5083 32.06V37.1C26.5083 37.3533 26.4149 37.5733 26.2283 37.76C26.0549 37.9333 25.8416 38.02 25.5883 38.02ZM17.2083 38.02C16.9416 38.02 16.7216 37.9333 16.5483 37.76C16.3749 37.5867 16.2883 37.3667 16.2883 37.1V27.98C16.2883 27.7 16.3749 27.48 16.5483 27.32C16.7216 27.1467 16.9416 27.06 17.2083 27.06C17.4883 27.06 17.7083 27.1467 17.8683 27.32C18.0416 27.48 18.1283 27.7 18.1283 27.98V37.1C18.1283 37.3667 18.0416 37.5867 17.8683 37.76C17.7083 37.9333 17.4883 38.02 17.2083 38.02ZM34.5616 38.08C33.5616 38.08 32.6682 37.84 31.8816 37.36C31.0949 36.88 30.4749 36.22 30.0216 35.38C29.5682 34.54 29.3416 33.5933 29.3416 32.54C29.3416 31.4733 29.5816 30.5267 30.0616 29.7C30.5549 28.86 31.2149 28.2 32.0416 27.72C32.8816 27.2267 33.8216 26.98 34.8616 26.98C35.9149 26.98 36.8549 27.2267 37.6816 27.72C38.5082 28.2 39.1616 28.86 39.6416 29.7C40.1349 30.54 40.3882 31.4867 40.4016 32.54L39.6816 32.72C39.6816 33.7333 39.4549 34.6467 39.0016 35.46C38.5482 36.2733 37.9349 36.9133 37.1616 37.38C36.4016 37.8467 35.5349 38.08 34.5616 38.08ZM34.8616 36.44C35.5816 36.44 36.2216 36.2733 36.7816 35.94C37.3416 35.5933 37.7816 35.1267 38.1016 34.54C38.4349 33.94 38.6016 33.2733 38.6016 32.54C38.6016 31.7933 38.4349 31.1267 38.1016 30.54C37.7816 29.94 37.3416 29.4733 36.7816 29.14C36.2216 28.7933 35.5816 28.62 34.8616 28.62C34.1682 28.62 33.5349 28.7933 32.9616 29.14C32.3882 29.4733 31.9349 29.94 31.6016 30.54C31.2816 31.1267 31.1216 31.7933 31.1216 32.54C31.1216 33.2733 31.2816 33.94 31.6016 34.54C31.9349 35.1267 32.3882 35.5933 32.9616 35.94C33.5349 36.2733 34.1682 36.44 34.8616 36.44ZM39.4616 38.02C39.1949 38.02 38.9749 37.9333 38.8016 37.76C38.6282 37.5867 38.5416 37.3667 38.5416 37.1V33.9L38.9216 31.98L40.4016 32.54V37.1C40.4016 37.3667 40.3082 37.5867 40.1216 37.76C39.9482 37.9333 39.7282 38.02 39.4616 38.02ZM47.5172 38C46.8372 38 46.2239 37.8333 45.6772 37.5C45.1305 37.1533 44.7039 36.6933 44.3972 36.12C44.0905 35.5333 43.9372 34.8667 43.9372 34.12V24.5C43.9372 24.2333 44.0172 24.0133 44.1772 23.84C44.3505 23.6667 44.5705 23.58 44.8372 23.58C45.1039 23.58 45.3239 23.6667 45.4972 23.84C45.6705 24.0133 45.7572 24.2333 45.7572 24.5V34.12C45.7572 34.72 45.9239 35.2133 46.2572 35.6C46.5905 35.9867 47.0105 36.18 47.5172 36.18H48.1372C48.3639 36.18 48.5505 36.2667 48.6972 36.44C48.8572 36.6133 48.9372 36.8333 48.9372 37.1C48.9372 37.3667 48.8372 37.5867 48.6372 37.76C48.4505 37.92 48.2039 38 47.8972 38H47.5172ZM42.8572 29.04C42.6172 29.04 42.4172 28.9667 42.2572 28.82C42.0972 28.6733 42.0172 28.4867 42.0172 28.26C42.0172 28.02 42.0972 27.8267 42.2572 27.68C42.4172 27.5333 42.6172 27.46 42.8572 27.46H47.6772C47.9172 27.46 48.1172 27.5333 48.2772 27.68C48.4372 27.8267 48.5172 28.02 48.5172 28.26C48.5172 28.4867 48.4372 28.6733 48.2772 28.82C48.1172 28.9667 47.9172 29.04 47.6772 29.04H42.8572ZM55.3645 38.08C54.4845 38.08 53.6512 37.9467 52.8645 37.68C52.0779 37.4 51.4579 37.02 51.0045 36.54C50.8312 36.34 50.7579 36.12 50.7845 35.88C50.8112 35.64 50.9312 35.4333 51.1445 35.26C51.3712 35.0867 51.6045 35.0133 51.8445 35.04C52.0845 35.0667 52.2845 35.1733 52.4445 35.36C52.7112 35.6533 53.0979 35.9067 53.6045 36.12C54.1245 36.3333 54.6912 36.44 55.3045 36.44C56.1712 36.44 56.8112 36.3 57.2245 36.02C57.6512 35.7267 57.8712 35.3667 57.8845 34.94C57.8845 34.5 57.6779 34.1333 57.2645 33.84C56.8512 33.5333 56.1245 33.2933 55.0845 33.12C53.7379 32.8667 52.7579 32.4733 52.1445 31.94C51.5312 31.4067 51.2245 30.76 51.2245 30C51.2245 29.32 51.4112 28.76 51.7845 28.32C52.1712 27.8667 52.6712 27.5333 53.2845 27.32C53.9112 27.0933 54.5712 26.98 55.2645 26.98C56.1445 26.98 56.9179 27.1267 57.5845 27.42C58.2512 27.7 58.7845 28.0933 59.1845 28.6C59.3579 28.8 59.4312 29.0067 59.4045 29.22C59.3912 29.4333 59.2845 29.6133 59.0845 29.76C58.8845 29.88 58.6512 29.92 58.3845 29.88C58.1312 29.84 57.9179 29.7267 57.7445 29.54C57.4112 29.1933 57.0379 28.9533 56.6245 28.82C56.2245 28.6733 55.7579 28.6 55.2245 28.6C54.5845 28.6 54.0512 28.72 53.6245 28.96C53.2112 29.2 53.0045 29.5267 53.0045 29.94C53.0045 30.2067 53.0712 30.44 53.2045 30.64C53.3512 30.84 53.6179 31.0267 54.0045 31.2C54.3912 31.36 54.9445 31.5067 55.6645 31.64C56.6645 31.8267 57.4512 32.0733 58.0245 32.38C58.6112 32.6867 59.0312 33.0467 59.2845 33.46C59.5379 33.8733 59.6645 34.34 59.6645 34.86C59.6645 35.4733 59.4912 36.0267 59.1445 36.52C58.8112 37 58.3245 37.38 57.6845 37.66C57.0445 37.94 56.2712 38.08 55.3645 38.08Z" fill="#3C6342"/>
</svg>
