<svg width="219" height="231" viewBox="0 0 219 231" fill="none" xmlns="http://www.w3.org/2000/svg">
<path d="M1.296 22.86C1.008 21.816 1.404 17.928 1.728 16.092L2.376 16.056C1.296 22.176 5.688 26.856 10.944 26.964C15.372 26.892 17.856 24.3 17.856 20.7C17.856 17.028 14.364 14.868 10.548 13.824C6.552 12.672 2.556 11.016 2.556 7.128C2.556 2.52 7.272 1.512 11.088 1.512C14.364 1.512 16.668 2.088 19.188 3.204C19.188 4.896 18.936 6.804 18.612 8.748H18.288C18.828 4.716 15.876 2.052 11.088 1.908C7.524 1.98 6.372 4.212 6.192 6.444C6.192 9.324 8.784 10.332 11.664 11.16C16.128 12.42 21.024 14.04 21.024 19.404C21.024 24.084 16.416 27.396 10.908 27.36C8.028 27.324 2.952 26.136 1.296 22.86ZM31.5478 27C26.0758 27.036 23.1598 25.488 23.1598 21.924C23.1598 18.324 26.7598 16.488 31.7998 16.632C32.7718 16.668 33.7798 16.92 34.5358 17.136V15.804C34.5358 13.248 34.2118 10.116 30.7198 10.116C28.8838 10.116 28.1998 11.16 27.7318 12.168C27.6598 12.276 27.6238 12.384 27.5518 12.492C27.5158 12.636 27.4438 12.744 27.3358 12.852C27.2278 13.032 27.1558 13.212 27.0118 13.392C26.8318 13.68 26.5438 13.86 26.0038 13.86C25.2478 13.86 24.8878 13.5 24.8878 12.78C24.8878 10.548 29.3878 9.864 31.0798 9.864C32.5918 9.864 35.1118 10.296 36.2638 11.268C37.4158 12.384 37.8118 13.896 37.8118 15.444L37.7758 21.924C37.7758 23.076 37.8118 25.344 38.2078 26.136C38.5318 26.64 38.9998 26.892 39.5038 27H31.5478ZM31.7278 16.92C27.1198 16.92 26.3278 19.512 26.3278 21.924C26.3278 24.336 26.9758 26.784 31.5478 26.784C32.3038 26.784 33.3838 26.784 33.8878 26.244C33.8878 26.208 33.9238 26.172 33.9598 26.1C34.3918 25.236 34.4638 23.04 34.4638 21.672L34.4998 17.352C33.8158 17.172 32.8798 16.92 31.7278 16.92ZM42.383 11.448C41.879 10.728 41.195 10.332 40.331 10.152C41.879 10.008 44.507 9.864 46.235 9.864V12.528C47.387 11.196 49.547 9.756 51.635 9.756C54.299 9.756 56.099 10.728 57.071 12.636C58.187 11.268 60.419 9.756 62.543 9.756C66.719 9.756 69.167 12.888 69.167 16.524V21.24C69.167 22.32 69.203 25.308 69.635 26.136C69.923 26.604 70.355 26.856 70.823 27H64.127C64.631 26.856 65.099 26.604 65.351 26.1C65.747 25.236 65.783 22.032 65.783 20.916L65.747 16.668C65.747 14.472 65.855 10.368 62.327 10.368C60.347 10.368 58.259 11.7 57.251 13.032C57.683 14.076 57.899 15.336 57.899 16.884V21.24C57.899 22.32 57.971 25.308 58.403 26.136C58.619 26.604 59.087 26.856 59.555 27H52.895C53.363 26.856 53.795 26.604 54.083 26.1C54.515 25.236 54.623 22.032 54.623 20.916C54.587 18.216 55.271 10.368 51.455 10.368C49.367 10.368 47.171 11.808 46.235 13.176V21.636C46.235 22.68 46.235 25.308 46.631 26.136C46.955 26.64 47.459 26.892 47.999 27H41.051C41.591 26.892 42.095 26.64 42.419 26.1C42.887 25.092 42.887 22.356 42.887 21.168C42.887 16.416 43.031 12.996 42.383 11.448ZM71.3748 10.116C72.9228 9.972 75.5508 9.828 77.2428 9.828V11.304C78.4308 10.476 80.0508 9.864 81.7068 9.864C86.7468 9.864 90.2388 13.392 90.2388 18.648C90.2388 23.832 86.5668 27.36 81.5268 27.36C79.9068 27.36 78.2868 27.252 77.1348 26.712L77.0988 31.536C77.0988 32.58 77.0988 35.208 77.4948 36.036C77.8188 36.54 78.3228 36.792 78.8268 36.9H71.9508C72.4548 36.792 72.9588 36.54 73.2828 36C73.7508 34.992 73.7508 32.256 73.7508 31.068C73.7508 26.316 74.0748 12.96 73.4268 11.412C72.9228 10.692 72.2388 10.296 71.3748 10.116ZM77.1348 26.316C78.3588 26.928 80.0508 27.072 81.5268 27.072C86.0628 27.072 86.7468 21.384 86.7468 18.648C86.7468 15.876 86.2788 10.152 81.7428 10.152C80.0508 10.152 78.3948 10.908 77.2428 11.916L77.1348 26.316ZM90.6773 0.864H90.7133C92.1893 0.719999 94.7093 0.611999 96.2213 0.611999V20.916C96.2213 22.104 96.2213 25.092 96.6893 26.064C97.0133 26.604 97.5173 26.856 98.0213 27H91.1093C91.5773 26.856 92.1173 26.604 92.4053 26.1C92.9093 25.164 92.9453 22.104 92.9453 20.916V6.912C92.9453 5.904 92.9453 2.52 92.4413 1.836C92.2973 1.512 92.1173 1.404 91.8293 1.26L91.7933 1.224C91.4333 1.008 91.1453 0.899999 90.6773 0.864ZM100.646 18.828C100.646 13.536 103.922 9.864 109.358 9.864C114.434 9.864 117.602 13.392 117.71 18.432H104.354C104.354 22.608 105.074 26.892 110.402 26.892C112.814 26.892 115.658 25.272 117.098 22.896H117.35C116.126 25.74 112.706 27.36 109.826 27.36C104.534 27.36 100.646 24.12 100.646 18.828ZM109.538 10.224C105.614 10.224 104.678 15.3 104.39 18.072H114.182C114.074 15.372 113.678 10.224 109.538 10.224ZM0.72 46.944H9.216C14.256 46.944 19.908 49.212 19.908 55.116C19.908 61.092 15.156 63.792 9.792 64.332C12.312 64.62 13.932 65.592 15.66 68.22C16.2 69.084 17.46 70.884 18.684 70.884C20.412 70.848 21.312 69.552 21.312 69.552H21.636C21.168 70.848 19.404 72.072 16.956 72.072H16.812C14.04 72 13.104 70.416 12.024 68.652C10.98 66.996 9.9 65.196 7.884 64.44C7.344 64.44 6.804 64.404 6.264 64.368V65.16C6.264 66.528 6.3 70.704 7.02 71.388C7.452 71.748 7.848 71.928 8.244 72H0.72C1.08 71.928 1.512 71.748 1.908 71.388C2.7 70.74 2.736 65.448 2.736 64.008V53.748C2.736 52.344 2.7 48.204 1.908 47.556C1.512 47.196 1.116 47.016 0.72 46.944ZM6.264 63.864C6.84 63.972 7.38 64.008 7.92 64.008C12.096 64.008 16.128 61.38 16.128 55.764V55.692C16.092 48.888 12.6 47.304 6.3 47.304L6.264 63.864ZM22.9154 63.828C22.9154 58.536 26.1914 54.864 31.6274 54.864C36.7034 54.864 39.8714 58.392 39.9794 63.432H26.6234C26.6234 67.608 27.3434 71.892 32.6714 71.892C35.0834 71.892 37.9274 70.272 39.3674 67.896H39.6194C38.3954 70.74 34.9754 72.36 32.0954 72.36C26.8034 72.36 22.9154 69.12 22.9154 63.828ZM31.8074 55.224C27.8834 55.224 26.9474 60.3 26.6594 63.072H36.4514C36.3434 60.372 35.9474 55.224 31.8074 55.224ZM41.9768 59.148C41.9768 55.764 45.7928 54.108 49.1048 54.252C50.4368 54.324 52.8488 54.828 54.1088 55.368L54.1448 56.196C54.1448 57.168 54.0728 58.104 54.0008 59.04L53.7848 59.076C53.4608 56.808 51.4448 54.684 48.3848 54.684C46.4408 54.684 44.8928 56.268 44.8928 58.392C44.8928 62.892 55.2248 61.488 55.2248 67.644C55.2248 71.316 51.0128 73.008 47.5928 72.9C45.2888 72.828 43.7408 72.144 42.3728 71.28C42.3368 70.74 42.3368 70.2 42.3368 69.66C42.3368 69.084 42.3368 68.544 42.3728 67.968L42.6248 67.932C43.0928 70.38 44.9648 72.54 48.2048 72.396C50.6168 72.288 52.3448 70.92 52.3088 68.58C52.2368 63.972 41.9768 65.592 41.9768 59.148ZM58.6696 56.448C58.2016 55.728 57.5176 55.332 56.6896 55.152C58.2016 55.008 60.8296 54.864 62.5216 54.864L62.5576 61.632L62.5216 66.636C62.5216 67.68 62.5216 70.308 62.9896 71.136C63.2776 71.64 63.7816 71.892 64.2856 72H57.3736C57.9496 71.892 58.4176 71.64 58.7056 71.1C59.2456 70.092 59.2456 67.356 59.2456 66.168C59.2456 61.416 59.3896 57.996 58.6696 56.448ZM60.6136 51.48C59.4256 51.48 58.4896 50.508 58.4896 49.356C58.4896 48.276 59.4256 47.34 60.6136 47.34C61.8736 47.34 62.8096 48.276 62.8096 49.356C62.8096 50.508 61.8736 51.48 60.6136 51.48ZM66.9637 63.648C66.9637 58.392 70.4557 54.864 75.5317 54.864C77.3677 54.864 79.2037 55.62 80.3917 56.628C80.3917 51.948 80.3557 47.376 79.9597 46.512C79.4197 45.792 78.8077 45.396 77.9077 45.216C79.4197 45.072 82.0837 44.928 83.8117 44.928L83.6317 66.636C83.6317 67.68 83.6317 70.308 84.0637 71.136C84.3517 71.64 84.8557 71.892 85.3597 72H79.2757C78.2317 72.288 76.9357 72.36 75.6757 72.36C70.6357 72.36 66.9637 68.832 66.9637 63.648ZM70.4557 63.648C70.4557 66.384 71.1397 72.072 75.6757 72.072C76.8637 72.072 78.2317 72 79.3837 71.604C79.5277 71.46 79.6717 71.316 79.8157 71.1C80.3197 70.092 80.3197 67.356 80.3197 66.168C80.3197 64.188 80.3917 60.768 80.3917 57.312C79.2037 56.088 77.3677 55.152 75.4957 55.152C70.9237 55.152 70.4557 60.876 70.4557 63.648ZM87.0053 63.828C87.0053 58.536 90.2812 54.864 95.7173 54.864C100.793 54.864 103.961 58.392 104.069 63.432H90.7133C90.7133 67.608 91.4333 71.892 96.7613 71.892C99.1733 71.892 102.017 70.272 103.457 67.896H103.709C102.485 70.74 99.0653 72.36 96.1853 72.36C90.8933 72.36 87.0053 69.12 87.0053 63.828ZM95.8973 55.224C91.9733 55.224 91.0373 60.3 90.7493 63.072H100.541C100.433 60.372 100.037 55.224 95.8973 55.224ZM107.147 56.448C106.643 55.728 105.959 55.332 105.095 55.152C106.643 55.008 109.271 54.864 110.963 54.864V57.6C112.187 56.268 114.599 54.756 116.975 54.756C121.547 54.756 123.815 57.888 123.815 61.524V66.24C123.815 67.32 123.887 70.308 124.355 71.136C124.679 71.604 125.111 71.856 125.651 72H118.739C119.279 71.856 119.747 71.604 120.035 71.1C120.503 70.236 120.539 67.032 120.539 65.916L120.503 62.028C120.503 59.832 120.611 55.296 116.759 55.296C114.455 55.296 112.007 56.844 110.963 58.248L110.999 61.632L110.963 66.636C110.963 67.68 110.963 70.308 111.431 71.136C111.719 71.64 112.223 71.892 112.727 72H105.815C106.391 71.892 106.859 71.64 107.183 71.1C107.687 70.092 107.687 67.356 107.687 66.168C107.687 61.416 107.831 57.996 107.147 56.448ZM126.255 55.116C130.863 54.972 131.439 52.092 131.655 49.32H133.347V54.936H138.171V55.476H133.347V69.336C133.347 70.848 133.995 71.424 134.823 71.424C136.011 71.424 137.595 70.164 137.883 68.94L138.171 69.192C136.479 72.396 134.679 72.36 133.455 72.36C131.655 72.36 129.963 70.848 129.963 69.156V55.476H126.255V55.116ZM141.463 56.448C140.995 55.728 140.311 55.332 139.483 55.152C140.995 55.008 143.623 54.864 145.315 54.864L145.351 61.632L145.315 66.636C145.315 67.68 145.315 70.308 145.783 71.136C146.071 71.64 146.575 71.892 147.079 72H140.167C140.743 71.892 141.211 71.64 141.499 71.1C142.039 70.092 142.039 67.356 142.039 66.168C142.039 61.416 142.183 57.996 141.463 56.448ZM143.407 51.48C142.219 51.48 141.283 50.508 141.283 49.356C141.283 48.276 142.219 47.34 143.407 47.34C144.667 47.34 145.603 48.276 145.603 49.356C145.603 50.508 144.667 51.48 143.407 51.48ZM158.181 72C152.709 72.036 149.793 70.488 149.793 66.924C149.793 63.324 153.393 61.488 158.433 61.632C159.405 61.668 160.413 61.92 161.169 62.136V60.804C161.169 58.248 160.845 55.116 157.353 55.116C155.517 55.116 154.833 56.16 154.365 57.168C154.293 57.276 154.257 57.384 154.185 57.492C154.149 57.636 154.077 57.744 153.969 57.852C153.861 58.032 153.789 58.212 153.645 58.392C153.465 58.68 153.177 58.86 152.637 58.86C151.881 58.86 151.521 58.5 151.521 57.78C151.521 55.548 156.021 54.864 157.713 54.864C159.225 54.864 161.745 55.296 162.897 56.268C164.049 57.384 164.445 58.896 164.445 60.444L164.409 66.924C164.409 68.076 164.445 70.344 164.841 71.136C165.165 71.64 165.633 71.892 166.137 72H158.181ZM158.361 61.92C153.753 61.92 152.961 64.512 152.961 66.924C152.961 69.336 153.609 71.784 158.181 71.784C158.937 71.784 160.017 71.784 160.521 71.244C160.521 71.208 160.557 71.172 160.593 71.1C161.025 70.236 161.097 68.04 161.097 66.672L161.133 62.352C160.449 62.172 159.513 61.92 158.361 61.92ZM167.072 45.864H167.108C168.584 45.72 171.104 45.612 172.616 45.612V65.916C172.616 67.104 172.616 70.092 173.084 71.064C173.408 71.604 173.912 71.856 174.416 72H167.504C167.972 71.856 168.512 71.604 168.8 71.1C169.304 70.164 169.34 67.104 169.34 65.916V51.912C169.34 50.904 169.34 47.52 168.836 46.836C168.692 46.512 168.512 46.404 168.224 46.26L168.188 46.224C167.828 46.008 167.54 45.9 167.072 45.864ZM8.244 117H0.72C1.08 116.928 1.512 116.748 1.908 116.388C2.7 115.74 2.736 110.448 2.736 109.008V98.748C2.736 97.344 2.7 93.204 1.908 92.556C1.512 92.196 1.116 92.016 0.72 91.944H9.18C14.184 91.944 20.628 94.212 20.628 100.116C20.628 106.884 13.932 109.44 7.704 109.44C7.272 109.44 6.768 109.404 6.264 109.368V110.16C6.264 111.528 6.3 115.704 7.02 116.388C7.452 116.748 7.848 116.928 8.244 117ZM6.3 92.304L6.264 108.864C6.84 108.972 7.38 109.008 7.884 109.008C12.312 109.008 16.848 106.38 16.848 100.728V100.692C16.812 93.816 12.42 92.304 6.3 92.304ZM21.9116 90.864H21.9476C23.4236 90.72 25.9436 90.612 27.4556 90.612V110.916C27.4556 112.104 27.4556 115.092 27.9236 116.064C28.2476 116.604 28.7516 116.856 29.2556 117H22.3436C22.8116 116.856 23.3516 116.604 23.6396 116.1C24.1436 115.164 24.1796 112.104 24.1796 110.916V96.912C24.1796 95.904 24.1796 92.52 23.6756 91.836C23.5316 91.512 23.3516 91.404 23.0636 91.26L23.0276 91.224C22.6676 91.008 22.3796 90.9 21.9116 90.864ZM40.1963 117C34.7243 117.036 31.8083 115.488 31.8083 111.924C31.8083 108.324 35.4082 106.488 40.4483 106.632C41.4203 106.668 42.4283 106.92 43.1843 107.136V105.804C43.1843 103.248 42.8603 100.116 39.3683 100.116C37.5323 100.116 36.8483 101.16 36.3803 102.168C36.3083 102.276 36.2723 102.384 36.2003 102.492C36.1643 102.636 36.0923 102.744 35.9843 102.852C35.8763 103.032 35.8043 103.212 35.6603 103.392C35.4803 103.68 35.1923 103.86 34.6523 103.86C33.8963 103.86 33.5363 103.5 33.5363 102.78C33.5363 100.548 38.0363 99.864 39.7283 99.864C41.2402 99.864 43.7603 100.296 44.9123 101.268C46.0643 102.384 46.4603 103.896 46.4603 105.444L46.4243 111.924C46.4243 113.076 46.4603 115.344 46.8563 116.136C47.1803 116.64 47.6483 116.892 48.1523 117H40.1963ZM40.3763 106.92C35.7683 106.92 34.9763 109.512 34.9763 111.924C34.9763 114.336 35.6243 116.784 40.1963 116.784C40.9523 116.784 42.0323 116.784 42.5363 116.244C42.5363 116.208 42.5723 116.172 42.6083 116.1C43.0403 115.236 43.1123 113.04 43.1123 111.672L43.1483 107.352C42.4643 107.172 41.5283 106.92 40.3763 106.92ZM51.2834 101.448C50.7794 100.728 50.0954 100.332 49.2314 100.152C50.7794 100.008 53.4074 99.864 55.0994 99.864V102.6C56.3234 101.268 58.7354 99.756 61.1114 99.756C65.6834 99.756 67.9514 102.888 67.9514 106.524V111.24C67.9514 112.32 68.0234 115.308 68.4914 116.136C68.8154 116.604 69.2474 116.856 69.7874 117H62.8754C63.4154 116.856 63.8834 116.604 64.1714 116.1C64.6394 115.236 64.6754 112.032 64.6754 110.916L64.6394 107.028C64.6394 104.832 64.7474 100.296 60.8954 100.296C58.5914 100.296 56.1434 101.844 55.0994 103.248L55.1354 106.632L55.0994 111.636C55.0994 112.68 55.0994 115.308 55.5674 116.136C55.8554 116.64 56.3594 116.892 56.8634 117H49.9514C50.5274 116.892 50.9954 116.64 51.3194 116.1C51.8234 115.092 51.8234 112.356 51.8234 111.168C51.8234 106.416 51.9674 102.996 51.2834 101.448ZM12.043 162.84C11.6803 162.84 11.3443 162.749 11.035 162.568C10.7363 162.387 10.4963 162.147 10.315 161.848C10.1337 161.539 10.043 161.203 10.043 160.84C10.043 160.467 10.1337 160.131 10.315 159.832C10.507 159.523 10.7523 159.283 11.051 159.112C11.3603 158.931 11.691 158.84 12.043 158.84C12.4057 158.84 12.7363 158.936 13.035 159.128C13.3337 159.309 13.5737 159.549 13.755 159.848C13.947 160.147 14.043 160.477 14.043 160.84C14.043 161.192 13.9523 161.523 13.771 161.832C13.6003 162.131 13.3603 162.376 13.051 162.568C12.7523 162.749 12.4163 162.84 12.043 162.84ZM25.424 167C25.1893 167 24.992 166.92 24.832 166.76C24.672 166.6 24.592 166.403 24.592 166.168V155.336C24.592 155.091 24.672 154.893 24.832 154.744C24.992 154.584 25.1893 154.504 25.424 154.504H32.656C32.9013 154.504 33.0987 154.579 33.248 154.728C33.3973 154.867 33.472 155.053 33.472 155.288C33.472 155.512 33.3973 155.693 33.248 155.832C33.0987 155.971 32.9013 156.04 32.656 156.04H26.256V159.928H30.848C31.0933 159.928 31.2907 160.003 31.44 160.152C31.5893 160.291 31.664 160.472 31.664 160.696C31.664 160.92 31.5893 161.107 31.44 161.256C31.2907 161.395 31.0933 161.464 30.848 161.464H26.256V166.168C26.256 166.403 26.176 166.6 26.016 166.76C25.856 166.92 25.6587 167 25.424 167ZM39.92 167.08C39.184 167.08 38.5227 166.925 37.936 166.616C37.36 166.296 36.9013 165.832 36.56 165.224C36.2293 164.616 36.064 163.869 36.064 162.984V159.048C36.064 158.813 36.1387 158.621 36.288 158.472C36.448 158.312 36.6453 158.232 36.88 158.232C37.1147 158.232 37.3067 158.312 37.456 158.472C37.616 158.621 37.696 158.813 37.696 159.048V162.984C37.696 163.581 37.808 164.077 38.032 164.472C38.256 164.856 38.56 165.144 38.944 165.336C39.328 165.517 39.76 165.608 40.24 165.608C40.6987 165.608 41.104 165.517 41.456 165.336C41.8187 165.155 42.1067 164.909 42.32 164.6C42.5333 164.291 42.64 163.944 42.64 163.56H43.648C43.648 164.221 43.4827 164.819 43.152 165.352C42.832 165.885 42.3893 166.307 41.824 166.616C41.2693 166.925 40.6347 167.08 39.92 167.08ZM43.456 167C43.2213 167 43.024 166.925 42.864 166.776C42.7147 166.616 42.64 166.419 42.64 166.184V159.048C42.64 158.803 42.7147 158.605 42.864 158.456C43.024 158.307 43.2213 158.232 43.456 158.232C43.7013 158.232 43.8987 158.307 44.048 158.456C44.1973 158.605 44.272 158.803 44.272 159.048V166.184C44.272 166.419 44.1973 166.616 44.048 166.776C43.8987 166.925 43.7013 167 43.456 167ZM55.3382 167.016C55.1036 167.016 54.9062 166.941 54.7462 166.792C54.5969 166.632 54.5222 166.435 54.5222 166.2V162.264C54.5222 161.656 54.4102 161.16 54.1862 160.776C53.9622 160.392 53.6582 160.109 53.2742 159.928C52.9009 159.736 52.4689 159.64 51.9782 159.64C51.5302 159.64 51.1249 159.731 50.7622 159.912C50.3996 160.093 50.1116 160.339 49.8982 160.648C49.6849 160.947 49.5782 161.293 49.5782 161.688H48.5702C48.5702 161.016 48.7302 160.419 49.0502 159.896C49.3809 159.363 49.8289 158.941 50.3942 158.632C50.9596 158.323 51.5942 158.168 52.2982 158.168C53.0342 158.168 53.6902 158.328 54.2662 158.648C54.8529 158.957 55.3116 159.416 55.6422 160.024C55.9836 160.632 56.1542 161.379 56.1542 162.264V166.2C56.1542 166.435 56.0742 166.632 55.9142 166.792C55.7649 166.941 55.5729 167.016 55.3382 167.016ZM48.7622 167.016C48.5276 167.016 48.3302 166.941 48.1702 166.792C48.0209 166.632 47.9462 166.435 47.9462 166.2V159.064C47.9462 158.819 48.0209 158.621 48.1702 158.472C48.3302 158.323 48.5276 158.248 48.7622 158.248C49.0076 158.248 49.2049 158.323 49.3542 158.472C49.5036 158.621 49.5782 158.819 49.5782 159.064V166.2C49.5782 166.435 49.5036 166.632 49.3542 166.792C49.2049 166.941 49.0076 167.016 48.7622 167.016ZM63.6205 167.064C62.7672 167.064 62.0045 166.872 61.3325 166.488C60.6712 166.093 60.1485 165.565 59.7645 164.904C59.3912 164.232 59.2045 163.475 59.2045 162.632C59.2045 161.768 59.3912 161 59.7645 160.328C60.1378 159.656 60.6498 159.133 61.3005 158.76C61.9512 158.376 62.6978 158.184 63.5405 158.184C64.1698 158.184 64.7458 158.307 65.2685 158.552C65.7912 158.787 66.2605 159.144 66.6765 159.624C66.8258 159.795 66.8792 159.971 66.8365 160.152C66.7938 160.333 66.6765 160.493 66.4845 160.632C66.3352 160.739 66.1698 160.776 65.9885 160.744C65.8072 160.701 65.6418 160.605 65.4925 160.456C64.9698 159.901 64.3192 159.624 63.5405 159.624C62.9965 159.624 62.5165 159.752 62.1005 160.008C61.6845 160.253 61.3592 160.6 61.1245 161.048C60.8898 161.496 60.7725 162.024 60.7725 162.632C60.7725 163.208 60.8898 163.72 61.1245 164.168C61.3698 164.616 61.7058 164.973 62.1325 165.24C62.5592 165.496 63.0552 165.624 63.6205 165.624C63.9938 165.624 64.3192 165.581 64.5965 165.496C64.8845 165.4 65.1458 165.256 65.3805 165.064C65.5512 164.925 65.7272 164.851 65.9085 164.84C66.0898 164.819 66.2498 164.867 66.3885 164.984C66.5698 165.133 66.6712 165.304 66.6925 165.496C66.7138 165.677 66.6498 165.843 66.5005 165.992C65.7325 166.707 64.7725 167.064 63.6205 167.064ZM73.2459 167C72.7125 167 72.2325 166.867 71.8059 166.6C71.3792 166.323 71.0432 165.949 70.7979 165.48C70.5525 165.011 70.4299 164.483 70.4299 163.896V156.264C70.4299 156.029 70.5045 155.837 70.6539 155.688C70.8032 155.539 70.9952 155.464 71.2299 155.464C71.4645 155.464 71.6565 155.539 71.8059 155.688C71.9552 155.837 72.0299 156.029 72.0299 156.264V163.896C72.0299 164.323 72.1472 164.68 72.3819 164.968C72.6165 165.256 72.9045 165.4 73.2459 165.4H73.7899C73.9819 165.4 74.1419 165.475 74.2699 165.624C74.4085 165.773 74.4779 165.965 74.4779 166.2C74.4779 166.435 74.3872 166.627 74.2059 166.776C74.0352 166.925 73.8112 167 73.5339 167H73.2459ZM69.6939 159.944C69.4699 159.944 69.2885 159.88 69.1499 159.752C69.0112 159.624 68.9419 159.464 68.9419 159.272C68.9419 159.059 69.0112 158.888 69.1499 158.76C69.2885 158.632 69.4699 158.568 69.6939 158.568H73.3899C73.6139 158.568 73.7952 158.632 73.9339 158.76C74.0725 158.888 74.1419 159.059 74.1419 159.272C74.1419 159.464 74.0725 159.624 73.9339 159.752C73.7952 159.88 73.6139 159.944 73.3899 159.944H69.6939ZM78.2598 167C78.0251 167 77.8278 166.925 77.6678 166.776C77.5184 166.616 77.4438 166.419 77.4438 166.184V159.064C77.4438 158.819 77.5184 158.621 77.6678 158.472C77.8278 158.323 78.0251 158.248 78.2598 158.248C78.5051 158.248 78.7024 158.323 78.8518 158.472C79.0011 158.621 79.0758 158.819 79.0758 159.064V166.184C79.0758 166.419 79.0011 166.616 78.8518 166.776C78.7024 166.925 78.5051 167 78.2598 167ZM78.2598 156.824C77.9718 156.824 77.7211 156.723 77.5078 156.52C77.3051 156.307 77.2038 156.056 77.2038 155.768C77.2038 155.48 77.3051 155.235 77.5078 155.032C77.7211 154.819 77.9718 154.712 78.2598 154.712C78.5478 154.712 78.7931 154.819 78.9958 155.032C79.2091 155.235 79.3158 155.48 79.3158 155.768C79.3158 156.056 79.2091 156.307 78.9958 156.52C78.7931 156.723 78.5478 156.824 78.2598 156.824ZM86.8799 167.064C86.0159 167.064 85.2532 166.877 84.5919 166.504C83.9305 166.12 83.4079 165.597 83.0239 164.936C82.6505 164.264 82.4639 163.496 82.4639 162.632C82.4639 161.757 82.6505 160.989 83.0239 160.328C83.4079 159.656 83.9305 159.133 84.5919 158.76C85.2532 158.376 86.0159 158.184 86.8799 158.184C87.7332 158.184 88.4905 158.376 89.1519 158.76C89.8132 159.133 90.3305 159.656 90.7039 160.328C91.0879 160.989 91.2799 161.757 91.2799 162.632C91.2799 163.496 91.0932 164.264 90.7199 164.936C90.3465 165.597 89.8292 166.12 89.1679 166.504C88.5065 166.877 87.7439 167.064 86.8799 167.064ZM86.8799 165.624C87.4345 165.624 87.9252 165.496 88.3519 165.24C88.7785 164.984 89.1092 164.632 89.3439 164.184C89.5892 163.736 89.7119 163.219 89.7119 162.632C89.7119 162.045 89.5892 161.528 89.3439 161.08C89.1092 160.621 88.7785 160.264 88.3519 160.008C87.9252 159.752 87.4345 159.624 86.8799 159.624C86.3252 159.624 85.8345 159.752 85.4079 160.008C84.9812 160.264 84.6452 160.621 84.3999 161.08C84.1545 161.528 84.0319 162.045 84.0319 162.632C84.0319 163.219 84.1545 163.736 84.3999 164.184C84.6452 164.632 84.9812 164.984 85.4079 165.24C85.8345 165.496 86.3252 165.624 86.8799 165.624ZM101.901 167.016C101.666 167.016 101.469 166.941 101.309 166.792C101.159 166.632 101.085 166.435 101.085 166.2V162.264C101.085 161.656 100.973 161.16 100.749 160.776C100.525 160.392 100.221 160.109 99.8367 159.928C99.4634 159.736 99.0314 159.64 98.5407 159.64C98.0927 159.64 97.6874 159.731 97.3247 159.912C96.9621 160.093 96.6741 160.339 96.4607 160.648C96.2474 160.947 96.1407 161.293 96.1407 161.688H95.1327C95.1327 161.016 95.2927 160.419 95.6127 159.896C95.9434 159.363 96.3914 158.941 96.9567 158.632C97.5221 158.323 98.1567 158.168 98.8607 158.168C99.5967 158.168 100.253 158.328 100.829 158.648C101.415 158.957 101.874 159.416 102.205 160.024C102.546 160.632 102.717 161.379 102.717 162.264V166.2C102.717 166.435 102.637 166.632 102.477 166.792C102.327 166.941 102.135 167.016 101.901 167.016ZM95.3247 167.016C95.0901 167.016 94.8927 166.941 94.7327 166.792C94.5834 166.632 94.5087 166.435 94.5087 166.2V159.064C94.5087 158.819 94.5834 158.621 94.7327 158.472C94.8927 158.323 95.0901 158.248 95.3247 158.248C95.5701 158.248 95.7674 158.323 95.9167 158.472C96.0661 158.621 96.1407 158.819 96.1407 159.064V166.2C96.1407 166.435 96.0661 166.632 95.9167 166.792C95.7674 166.941 95.5701 167.016 95.3247 167.016ZM109.863 167.064C109.084 167.064 108.386 166.872 107.767 166.488C107.148 166.093 106.658 165.565 106.295 164.904C105.943 164.232 105.767 163.475 105.767 162.632C105.767 161.789 105.959 161.032 106.343 160.36C106.738 159.688 107.266 159.16 107.927 158.776C108.599 158.381 109.351 158.184 110.183 158.184C111.015 158.184 111.762 158.381 112.423 158.776C113.084 159.16 113.607 159.688 113.991 160.36C114.386 161.032 114.583 161.789 114.583 162.632H113.959C113.959 163.475 113.778 164.232 113.415 164.904C113.063 165.565 112.578 166.093 111.959 166.488C111.34 166.872 110.642 167.064 109.863 167.064ZM110.183 165.624C110.727 165.624 111.212 165.496 111.639 165.24C112.066 164.973 112.402 164.616 112.647 164.168C112.892 163.709 113.015 163.197 113.015 162.632C113.015 162.056 112.892 161.544 112.647 161.096C112.402 160.637 112.066 160.28 111.639 160.024C111.212 159.757 110.727 159.624 110.183 159.624C109.65 159.624 109.164 159.757 108.727 160.024C108.3 160.28 107.959 160.637 107.703 161.096C107.458 161.544 107.335 162.056 107.335 162.632C107.335 163.197 107.458 163.709 107.703 164.168C107.959 164.616 108.3 164.973 108.727 165.24C109.164 165.496 109.65 165.624 110.183 165.624ZM113.767 167.016C113.532 167.016 113.335 166.941 113.175 166.792C113.026 166.632 112.951 166.435 112.951 166.2V163.752L113.255 162.056L114.583 162.632V166.2C114.583 166.435 114.503 166.632 114.343 166.792C114.194 166.941 114.002 167.016 113.767 167.016ZM119.892 167C119.423 167 119.007 166.872 118.644 166.616C118.281 166.36 117.999 166.013 117.796 165.576C117.593 165.128 117.492 164.616 117.492 164.04V155.304C117.492 155.069 117.567 154.877 117.716 154.728C117.865 154.579 118.057 154.504 118.292 154.504C118.527 154.504 118.719 154.579 118.868 154.728C119.017 154.877 119.092 155.069 119.092 155.304V164.04C119.092 164.435 119.167 164.76 119.316 165.016C119.465 165.272 119.657 165.4 119.892 165.4H120.292C120.505 165.4 120.676 165.475 120.804 165.624C120.943 165.773 121.012 165.965 121.012 166.2C121.012 166.435 120.911 166.627 120.708 166.776C120.505 166.925 120.244 167 119.924 167H119.892ZM12.043 182.84C11.6803 182.84 11.3443 182.749 11.035 182.568C10.7363 182.387 10.4963 182.147 10.315 181.848C10.1337 181.539 10.043 181.203 10.043 180.84C10.043 180.467 10.1337 180.131 10.315 179.832C10.507 179.523 10.7523 179.283 11.051 179.112C11.3603 178.931 11.691 178.84 12.043 178.84C12.4057 178.84 12.7363 178.936 13.035 179.128C13.3337 179.309 13.5737 179.549 13.755 179.848C13.947 180.147 14.043 180.477 14.043 180.84C14.043 181.192 13.9523 181.523 13.771 181.832C13.6003 182.131 13.3603 182.376 13.051 182.568C12.7523 182.749 12.4163 182.84 12.043 182.84ZM28.256 187C28.064 187 27.8933 186.941 27.744 186.824C27.5947 186.707 27.488 186.547 27.424 186.344L24.208 175.656C24.1013 175.304 24.1067 175.027 24.224 174.824C24.352 174.611 24.5547 174.504 24.832 174.504C25.0133 174.504 25.1787 174.557 25.328 174.664C25.4773 174.76 25.584 174.915 25.648 175.128L28.448 184.888H28.096L30.688 175.224C30.7307 175.064 30.8267 174.931 30.976 174.824C31.1253 174.717 31.296 174.664 31.488 174.664C31.6587 174.664 31.8187 174.712 31.968 174.808C32.128 174.893 32.2293 175.027 32.272 175.208L34.88 184.888H34.56L37.376 175.048C37.4827 174.685 37.7547 174.504 38.192 174.504C38.4907 174.504 38.6827 174.621 38.768 174.856C38.8533 175.08 38.8533 175.347 38.768 175.656L35.552 186.328C35.4773 186.531 35.3653 186.696 35.216 186.824C35.0773 186.941 34.912 187 34.72 187C34.5173 187 34.3413 186.936 34.192 186.808C34.0533 186.68 33.952 186.525 33.888 186.344L31.312 176.392H31.696L29.088 186.328C29.0133 186.531 28.9013 186.696 28.752 186.824C28.6133 186.941 28.448 187 28.256 187ZM43.602 187.064C42.7167 187.064 41.9273 186.877 41.234 186.504C40.5513 186.12 40.0127 185.597 39.618 184.936C39.234 184.264 39.042 183.496 39.042 182.632C39.042 181.757 39.2233 180.989 39.586 180.328C39.9593 179.656 40.4713 179.133 41.122 178.76C41.7727 178.376 42.5193 178.184 43.362 178.184C44.194 178.184 44.9087 178.371 45.506 178.744C46.1033 179.107 46.5567 179.613 46.866 180.264C47.186 180.904 47.346 181.645 47.346 182.488C47.346 182.691 47.2767 182.861 47.138 183C46.9993 183.128 46.8233 183.192 46.61 183.192H40.162V181.912H46.562L45.906 182.36C45.8953 181.827 45.7887 181.352 45.586 180.936C45.3833 180.509 45.0953 180.173 44.722 179.928C44.3487 179.683 43.8953 179.56 43.362 179.56C42.754 179.56 42.2313 179.693 41.794 179.96C41.3673 180.227 41.042 180.595 40.818 181.064C40.594 181.523 40.482 182.045 40.482 182.632C40.482 183.219 40.6153 183.741 40.882 184.2C41.1487 184.659 41.5167 185.021 41.986 185.288C42.4553 185.555 42.994 185.688 43.602 185.688C43.9327 185.688 44.2687 185.629 44.61 185.512C44.962 185.384 45.2447 185.24 45.458 185.08C45.618 184.963 45.7887 184.904 45.97 184.904C46.162 184.893 46.3273 184.947 46.466 185.064C46.6473 185.224 46.7433 185.4 46.754 185.592C46.7647 185.784 46.6793 185.949 46.498 186.088C46.1353 186.376 45.682 186.611 45.138 186.792C44.6047 186.973 44.0927 187.064 43.602 187.064ZM53.563 187.064C52.7843 187.064 52.0857 186.872 51.467 186.488C50.8483 186.093 50.3577 185.565 49.995 184.904C49.643 184.232 49.467 183.475 49.467 182.632C49.467 181.789 49.659 181.032 50.043 180.36C50.4377 179.688 50.9657 179.16 51.627 178.776C52.299 178.381 53.051 178.184 53.883 178.184C54.715 178.184 55.4617 178.381 56.123 178.776C56.7843 179.16 57.307 179.688 57.691 180.36C58.0857 181.032 58.283 181.789 58.283 182.632H57.659C57.659 183.475 57.4777 184.232 57.115 184.904C56.763 185.565 56.2777 186.093 55.659 186.488C55.0403 186.872 54.3417 187.064 53.563 187.064ZM53.883 185.624C54.427 185.624 54.9123 185.496 55.339 185.24C55.7657 184.973 56.1017 184.616 56.347 184.168C56.5923 183.709 56.715 183.197 56.715 182.632C56.715 182.056 56.5923 181.544 56.347 181.096C56.1017 180.637 55.7657 180.28 55.339 180.024C54.9123 179.757 54.427 179.624 53.883 179.624C53.3497 179.624 52.8643 179.757 52.427 180.024C52.0003 180.28 51.659 180.637 51.403 181.096C51.1577 181.544 51.035 182.056 51.035 182.632C51.035 183.197 51.1577 183.709 51.403 184.168C51.659 184.616 52.0003 184.973 52.427 185.24C52.8643 185.496 53.3497 185.624 53.883 185.624ZM57.467 187.016C57.2323 187.016 57.035 186.941 56.875 186.792C56.7257 186.632 56.651 186.435 56.651 186.2V183.752L56.955 182.056L58.283 182.632V186.2C58.283 186.435 58.203 186.632 58.043 186.792C57.8937 186.941 57.7017 187.016 57.467 187.016ZM64.6959 187C64.1625 187 63.6825 186.867 63.2559 186.6C62.8292 186.323 62.4932 185.949 62.2479 185.48C62.0025 185.011 61.8799 184.483 61.8799 183.896V176.264C61.8799 176.029 61.9545 175.837 62.1039 175.688C62.2532 175.539 62.4452 175.464 62.6799 175.464C62.9145 175.464 63.1065 175.539 63.2559 175.688C63.4052 175.837 63.4799 176.029 63.4799 176.264V183.896C63.4799 184.323 63.5972 184.68 63.8319 184.968C64.0665 185.256 64.3545 185.4 64.6959 185.4H65.2399C65.4319 185.4 65.5919 185.475 65.7199 185.624C65.8585 185.773 65.9279 185.965 65.9279 186.2C65.9279 186.435 65.8372 186.627 65.6559 186.776C65.4852 186.925 65.2612 187 64.9839 187H64.6959ZM61.1439 179.944C60.9199 179.944 60.7385 179.88 60.5999 179.752C60.4612 179.624 60.3919 179.464 60.3919 179.272C60.3919 179.059 60.4612 178.888 60.5999 178.76C60.7385 178.632 60.9199 178.568 61.1439 178.568H64.8399C65.0639 178.568 65.2452 178.632 65.3839 178.76C65.5225 178.888 65.5919 179.059 65.5919 179.272C65.5919 179.464 65.5225 179.624 65.3839 179.752C65.2452 179.88 65.0639 179.944 64.8399 179.944H61.1439ZM69.5497 183.816C69.3151 183.816 69.1177 183.741 68.9577 183.592C68.8084 183.432 68.7337 183.235 68.7337 183V175.32C68.7337 175.075 68.8084 174.877 68.9577 174.728C69.1177 174.579 69.3151 174.504 69.5497 174.504C69.7951 174.504 69.9924 174.579 70.1417 174.728C70.2911 174.877 70.3657 175.075 70.3657 175.32V183C70.3657 183.235 70.2911 183.432 70.1417 183.592C69.9924 183.741 69.7951 183.816 69.5497 183.816ZM76.1257 187.016C75.8911 187.016 75.6937 186.941 75.5337 186.792C75.3844 186.632 75.3097 186.435 75.3097 186.2V182.264C75.3097 181.656 75.1977 181.16 74.9737 180.776C74.7497 180.392 74.4457 180.109 74.0617 179.928C73.6884 179.736 73.2564 179.64 72.7657 179.64C72.3177 179.64 71.9124 179.731 71.5497 179.912C71.1871 180.093 70.8991 180.339 70.6857 180.648C70.4724 180.947 70.3657 181.293 70.3657 181.688H69.3577C69.3577 181.016 69.5177 180.419 69.8377 179.896C70.1684 179.363 70.6164 178.941 71.1817 178.632C71.7471 178.323 72.3817 178.168 73.0857 178.168C73.8217 178.168 74.4777 178.328 75.0537 178.648C75.6404 178.957 76.0991 179.416 76.4297 180.024C76.7711 180.632 76.9417 181.379 76.9417 182.264V186.2C76.9417 186.435 76.8617 186.632 76.7017 186.792C76.5524 186.941 76.3604 187.016 76.1257 187.016ZM69.5497 187.016C69.3151 187.016 69.1177 186.941 68.9577 186.792C68.8084 186.632 68.7337 186.435 68.7337 186.2V179.064C68.7337 178.819 68.8084 178.621 68.9577 178.472C69.1177 178.323 69.3151 178.248 69.5497 178.248C69.7951 178.248 69.9924 178.323 70.1417 178.472C70.2911 178.621 70.3657 178.819 70.3657 179.064V186.2C70.3657 186.435 70.2911 186.632 70.1417 186.792C69.9924 186.941 69.7951 187.016 69.5497 187.016ZM84.5676 187.064C83.6823 187.064 82.893 186.877 82.1996 186.504C81.517 186.12 80.9783 185.597 80.5836 184.936C80.1996 184.264 80.0076 183.496 80.0076 182.632C80.0076 181.757 80.189 180.989 80.5516 180.328C80.925 179.656 81.437 179.133 82.0876 178.76C82.7383 178.376 83.485 178.184 84.3276 178.184C85.1596 178.184 85.8743 178.371 86.4716 178.744C87.069 179.107 87.5223 179.613 87.8316 180.264C88.1516 180.904 88.3116 181.645 88.3116 182.488C88.3116 182.691 88.2423 182.861 88.1036 183C87.965 183.128 87.789 183.192 87.5756 183.192H81.1276V181.912H87.5276L86.8716 182.36C86.861 181.827 86.7543 181.352 86.5516 180.936C86.349 180.509 86.061 180.173 85.6876 179.928C85.3143 179.683 84.861 179.56 84.3276 179.56C83.7196 179.56 83.197 179.693 82.7596 179.96C82.333 180.227 82.0076 180.595 81.7836 181.064C81.5596 181.523 81.4476 182.045 81.4476 182.632C81.4476 183.219 81.581 183.741 81.8476 184.2C82.1143 184.659 82.4823 185.021 82.9516 185.288C83.421 185.555 83.9596 185.688 84.5676 185.688C84.8983 185.688 85.2343 185.629 85.5756 185.512C85.9276 185.384 86.2103 185.24 86.4236 185.08C86.5836 184.963 86.7543 184.904 86.9356 184.904C87.1276 184.893 87.293 184.947 87.4316 185.064C87.613 185.224 87.709 185.4 87.7196 185.592C87.7303 185.784 87.645 185.949 87.4636 186.088C87.101 186.376 86.6476 186.611 86.1036 186.792C85.5703 186.973 85.0583 187.064 84.5676 187.064ZM91.9771 181.528C91.9771 180.888 92.1318 180.317 92.4411 179.816C92.7611 179.304 93.1878 178.899 93.7211 178.6C94.2545 178.301 94.8411 178.152 95.4811 178.152C96.1211 178.152 96.5958 178.259 96.9051 178.472C97.2251 178.675 97.3478 178.92 97.2731 179.208C97.2411 179.357 97.1771 179.475 97.0811 179.56C96.9958 179.635 96.8945 179.683 96.7771 179.704C96.6598 179.725 96.5318 179.72 96.3931 179.688C95.7105 179.549 95.0971 179.539 94.5531 179.656C94.0091 179.773 93.5771 179.992 93.2571 180.312C92.9478 180.632 92.7931 181.037 92.7931 181.528H91.9771ZM91.9931 187C91.7371 187 91.5398 186.936 91.4011 186.808C91.2625 186.669 91.1931 186.467 91.1931 186.2V179.048C91.1931 178.792 91.2625 178.595 91.4011 178.456C91.5398 178.317 91.7371 178.248 91.9931 178.248C92.2598 178.248 92.4571 178.317 92.5851 178.456C92.7238 178.584 92.7931 178.781 92.7931 179.048V186.2C92.7931 186.456 92.7238 186.653 92.5851 186.792C92.4571 186.931 92.2598 187 91.9931 187ZM106.078 190.744C105.843 190.744 105.646 190.664 105.486 190.504C105.337 190.355 105.262 190.163 105.262 189.928V182.632C105.273 181.789 105.47 181.032 105.854 180.36C106.238 179.688 106.761 179.16 107.422 178.776C108.083 178.381 108.83 178.184 109.662 178.184C110.505 178.184 111.257 178.381 111.918 178.776C112.579 179.16 113.102 179.688 113.486 180.36C113.881 181.032 114.078 181.789 114.078 182.632C114.078 183.475 113.897 184.232 113.534 184.904C113.182 185.565 112.697 186.093 112.078 186.488C111.459 186.872 110.761 187.064 109.982 187.064C109.353 187.064 108.771 186.936 108.238 186.68C107.715 186.413 107.267 186.056 106.894 185.608V189.928C106.894 190.163 106.819 190.355 106.67 190.504C106.521 190.664 106.323 190.744 106.078 190.744ZM109.662 185.624C110.206 185.624 110.691 185.496 111.118 185.24C111.545 184.973 111.881 184.616 112.126 184.168C112.382 183.709 112.51 183.197 112.51 182.632C112.51 182.056 112.382 181.544 112.126 181.096C111.881 180.637 111.545 180.28 111.118 180.024C110.691 179.757 110.206 179.624 109.662 179.624C109.129 179.624 108.643 179.757 108.206 180.024C107.779 180.28 107.443 180.637 107.198 181.096C106.953 181.544 106.83 182.056 106.83 182.632C106.83 183.197 106.953 183.709 107.198 184.168C107.443 184.616 107.779 184.973 108.206 185.24C108.643 185.496 109.129 185.624 109.662 185.624ZM118.096 181.528C118.096 180.888 118.251 180.317 118.56 179.816C118.88 179.304 119.307 178.899 119.84 178.6C120.373 178.301 120.96 178.152 121.6 178.152C122.24 178.152 122.715 178.259 123.024 178.472C123.344 178.675 123.467 178.92 123.392 179.208C123.36 179.357 123.296 179.475 123.2 179.56C123.115 179.635 123.013 179.683 122.896 179.704C122.779 179.725 122.651 179.72 122.512 179.688C121.829 179.549 121.216 179.539 120.672 179.656C120.128 179.773 119.696 179.992 119.376 180.312C119.067 180.632 118.912 181.037 118.912 181.528H118.096ZM118.112 187C117.856 187 117.659 186.936 117.52 186.808C117.381 186.669 117.312 186.467 117.312 186.2V179.048C117.312 178.792 117.381 178.595 117.52 178.456C117.659 178.317 117.856 178.248 118.112 178.248C118.379 178.248 118.576 178.317 118.704 178.456C118.843 178.584 118.912 178.781 118.912 179.048V186.2C118.912 186.456 118.843 186.653 118.704 186.792C118.576 186.931 118.379 187 118.112 187ZM129.221 187.064C128.357 187.064 127.594 186.877 126.933 186.504C126.271 186.12 125.749 185.597 125.365 184.936C124.991 184.264 124.805 183.496 124.805 182.632C124.805 181.757 124.991 180.989 125.365 180.328C125.749 179.656 126.271 179.133 126.933 178.76C127.594 178.376 128.357 178.184 129.221 178.184C130.074 178.184 130.831 178.376 131.493 178.76C132.154 179.133 132.671 179.656 133.045 180.328C133.429 180.989 133.621 181.757 133.621 182.632C133.621 183.496 133.434 184.264 133.061 184.936C132.687 185.597 132.17 186.12 131.509 186.504C130.847 186.877 130.085 187.064 129.221 187.064ZM129.221 185.624C129.775 185.624 130.266 185.496 130.693 185.24C131.119 184.984 131.45 184.632 131.685 184.184C131.93 183.736 132.053 183.219 132.053 182.632C132.053 182.045 131.93 181.528 131.685 181.08C131.45 180.621 131.119 180.264 130.693 180.008C130.266 179.752 129.775 179.624 129.221 179.624C128.666 179.624 128.175 179.752 127.749 180.008C127.322 180.264 126.986 180.621 126.741 181.08C126.495 181.528 126.373 182.045 126.373 182.632C126.373 183.219 126.495 183.736 126.741 184.184C126.986 184.632 127.322 184.984 127.749 185.24C128.175 185.496 128.666 185.624 129.221 185.624ZM140.817 187.064C139.953 187.064 139.191 186.877 138.529 186.504C137.868 186.12 137.345 185.597 136.961 184.936C136.588 184.264 136.401 183.496 136.401 182.632C136.401 181.757 136.588 180.989 136.961 180.328C137.345 179.656 137.868 179.133 138.529 178.76C139.191 178.376 139.953 178.184 140.817 178.184C141.671 178.184 142.428 178.376 143.089 178.76C143.751 179.133 144.268 179.656 144.641 180.328C145.025 180.989 145.217 181.757 145.217 182.632C145.217 183.496 145.031 184.264 144.657 184.936C144.284 185.597 143.767 186.12 143.105 186.504C142.444 186.877 141.681 187.064 140.817 187.064ZM140.817 185.624C141.372 185.624 141.863 185.496 142.289 185.24C142.716 184.984 143.047 184.632 143.281 184.184C143.527 183.736 143.649 183.219 143.649 182.632C143.649 182.045 143.527 181.528 143.281 181.08C143.047 180.621 142.716 180.264 142.289 180.008C141.863 179.752 141.372 179.624 140.817 179.624C140.263 179.624 139.772 179.752 139.345 180.008C138.919 180.264 138.583 180.621 138.337 181.08C138.092 181.528 137.969 182.045 137.969 182.632C137.969 183.219 138.092 183.736 138.337 184.184C138.583 184.632 138.919 184.984 139.345 185.24C139.772 185.496 140.263 185.624 140.817 185.624ZM149.39 187C149.188 187 149.006 186.925 148.846 186.776C148.686 186.627 148.606 186.429 148.606 186.184V178.296C148.606 177.528 148.756 176.861 149.054 176.296C149.364 175.731 149.79 175.293 150.334 174.984C150.878 174.664 151.508 174.504 152.222 174.504C152.457 174.504 152.649 174.573 152.798 174.712C152.958 174.851 153.038 175.027 153.038 175.24C153.038 175.443 152.958 175.619 152.798 175.768C152.649 175.907 152.457 175.976 152.222 175.976C151.828 175.976 151.481 176.067 151.182 176.248C150.884 176.429 150.649 176.68 150.478 177C150.318 177.32 150.238 177.699 150.238 178.136V186.184C150.238 186.429 150.164 186.627 150.014 186.776C149.865 186.925 149.657 187 149.39 187ZM147.918 179.944C147.694 179.944 147.513 179.88 147.374 179.752C147.236 179.624 147.166 179.464 147.166 179.272C147.166 179.059 147.236 178.888 147.374 178.76C147.513 178.632 147.694 178.568 147.918 178.568H151.87C152.094 178.568 152.276 178.632 152.414 178.76C152.553 178.888 152.622 179.059 152.622 179.272C152.622 179.464 152.553 179.624 152.414 179.752C152.276 179.88 152.094 179.944 151.87 179.944H147.918ZM12.043 202.84C11.6803 202.84 11.3443 202.749 11.035 202.568C10.7363 202.387 10.4963 202.147 10.315 201.848C10.1337 201.539 10.043 201.203 10.043 200.84C10.043 200.467 10.1337 200.131 10.315 199.832C10.507 199.523 10.7523 199.283 11.051 199.112C11.3603 198.931 11.691 198.84 12.043 198.84C12.4057 198.84 12.7363 198.936 13.035 199.128C13.3337 199.309 13.5737 199.549 13.755 199.848C13.947 200.147 14.043 200.477 14.043 200.84C14.043 201.192 13.9523 201.523 13.771 201.832C13.6003 202.131 13.3603 202.376 13.051 202.568C12.7523 202.749 12.4163 202.84 12.043 202.84ZM26.416 207C26.1813 207 25.984 206.92 25.824 206.76C25.6747 206.6 25.6 206.403 25.6 206.168V195.336C25.6 195.101 25.68 194.904 25.84 194.744C26 194.584 26.192 194.504 26.416 194.504C26.6507 194.504 26.848 194.584 27.008 194.744C27.168 194.904 27.248 195.101 27.248 195.336V205.336H33.04C33.2747 205.336 33.472 205.416 33.632 205.576C33.792 205.736 33.872 205.933 33.872 206.168C33.872 206.403 33.792 206.6 33.632 206.76C33.472 206.92 33.2747 207 33.04 207H26.416ZM40.6176 207.064C39.7323 207.064 38.943 206.877 38.2496 206.504C37.567 206.12 37.0283 205.597 36.6336 204.936C36.2496 204.264 36.0576 203.496 36.0576 202.632C36.0576 201.757 36.239 200.989 36.6016 200.328C36.975 199.656 37.487 199.133 38.1376 198.76C38.7883 198.376 39.535 198.184 40.3776 198.184C41.2096 198.184 41.9243 198.371 42.5216 198.744C43.119 199.107 43.5723 199.613 43.8816 200.264C44.2016 200.904 44.3616 201.645 44.3616 202.488C44.3616 202.691 44.2923 202.861 44.1536 203C44.015 203.128 43.839 203.192 43.6256 203.192H37.1776V201.912H43.5776L42.9216 202.36C42.911 201.827 42.8043 201.352 42.6016 200.936C42.399 200.509 42.111 200.173 41.7376 199.928C41.3643 199.683 40.911 199.56 40.3776 199.56C39.7696 199.56 39.247 199.693 38.8096 199.96C38.383 200.227 38.0576 200.595 37.8336 201.064C37.6096 201.523 37.4976 202.045 37.4976 202.632C37.4976 203.219 37.631 203.741 37.8976 204.2C38.1643 204.659 38.5323 205.021 39.0016 205.288C39.471 205.555 40.0096 205.688 40.6176 205.688C40.9483 205.688 41.2843 205.629 41.6256 205.512C41.9776 205.384 42.2603 205.24 42.4736 205.08C42.6336 204.963 42.8043 204.904 42.9856 204.904C43.1776 204.893 43.343 204.947 43.4816 205.064C43.663 205.224 43.759 205.4 43.7696 205.592C43.7803 205.784 43.695 205.949 43.5136 206.088C43.151 206.376 42.6976 206.611 42.1536 206.792C41.6203 206.973 41.1083 207.064 40.6176 207.064ZM50.5786 207.064C49.8 207.064 49.1013 206.872 48.4826 206.488C47.864 206.093 47.3733 205.565 47.0106 204.904C46.6586 204.232 46.4826 203.475 46.4826 202.632C46.4826 201.789 46.6746 201.032 47.0586 200.36C47.4533 199.688 47.9813 199.16 48.6426 198.776C49.3146 198.381 50.0666 198.184 50.8986 198.184C51.7306 198.184 52.4773 198.381 53.1386 198.776C53.8 199.16 54.3226 199.688 54.7066 200.36C55.1013 201.032 55.2986 201.789 55.2986 202.632H54.6746C54.6746 203.475 54.4933 204.232 54.1306 204.904C53.7786 205.565 53.2933 206.093 52.6746 206.488C52.056 206.872 51.3573 207.064 50.5786 207.064ZM50.8986 205.624C51.4426 205.624 51.928 205.496 52.3546 205.24C52.7813 204.973 53.1173 204.616 53.3626 204.168C53.608 203.709 53.7306 203.197 53.7306 202.632C53.7306 202.056 53.608 201.544 53.3626 201.096C53.1173 200.637 52.7813 200.28 52.3546 200.024C51.928 199.757 51.4426 199.624 50.8986 199.624C50.3653 199.624 49.88 199.757 49.4426 200.024C49.016 200.28 48.6746 200.637 48.4186 201.096C48.1733 201.544 48.0506 202.056 48.0506 202.632C48.0506 203.197 48.1733 203.709 48.4186 204.168C48.6746 204.616 49.016 204.973 49.4426 205.24C49.88 205.496 50.3653 205.624 50.8986 205.624ZM54.4826 207.016C54.248 207.016 54.0506 206.941 53.8906 206.792C53.7413 206.632 53.6666 206.435 53.6666 206.2V203.752L53.9706 202.056L55.2986 202.632V206.2C55.2986 206.435 55.2186 206.632 55.0586 206.792C54.9093 206.941 54.7173 207.016 54.4826 207.016ZM61.7115 207.064C60.9648 207.064 60.2715 206.952 59.6315 206.728C59.0022 206.493 58.5115 206.2 58.1595 205.848C57.9995 205.677 57.9302 205.485 57.9515 205.272C57.9835 205.048 58.0902 204.867 58.2715 204.728C58.4848 204.557 58.6928 204.488 58.8955 204.52C59.1088 204.541 59.2902 204.632 59.4395 204.792C59.6208 204.995 59.9088 205.187 60.3035 205.368C60.7088 205.539 61.1568 205.624 61.6475 205.624C62.2662 205.624 62.7355 205.523 63.0555 205.32C63.3862 205.117 63.5568 204.856 63.5675 204.536C63.5782 204.216 63.4235 203.939 63.1035 203.704C62.7942 203.469 62.2235 203.277 61.3915 203.128C60.3142 202.915 59.5302 202.595 59.0395 202.168C58.5595 201.741 58.3195 201.219 58.3195 200.6C58.3195 200.056 58.4795 199.608 58.7995 199.256C59.1195 198.893 59.5302 198.627 60.0315 198.456C60.5328 198.275 61.0555 198.184 61.5995 198.184C62.3035 198.184 62.9275 198.296 63.4715 198.52C64.0155 198.744 64.4475 199.053 64.7675 199.448C64.9168 199.619 64.9862 199.8 64.9755 199.992C64.9648 200.173 64.8742 200.328 64.7035 200.456C64.5328 200.573 64.3302 200.611 64.0955 200.568C63.8608 200.525 63.6635 200.429 63.5035 200.28C63.2368 200.024 62.9488 199.848 62.6395 199.752C62.3302 199.656 61.9728 199.608 61.5675 199.608C61.0982 199.608 60.6982 199.688 60.3675 199.848C60.0475 200.008 59.8875 200.243 59.8875 200.552C59.8875 200.744 59.9355 200.92 60.0315 201.08C60.1382 201.229 60.3408 201.368 60.6395 201.496C60.9382 201.613 61.3755 201.731 61.9515 201.848C62.7515 202.008 63.3808 202.211 63.8395 202.456C64.3088 202.701 64.6448 202.989 64.8475 203.32C65.0502 203.64 65.1515 204.013 65.1515 204.44C65.1515 204.931 65.0182 205.373 64.7515 205.768C64.4955 206.163 64.1115 206.477 63.5995 206.712C63.0982 206.947 62.4688 207.064 61.7115 207.064ZM71.199 207C70.6657 207 70.1857 206.867 69.759 206.6C69.3323 206.323 68.9963 205.949 68.751 205.48C68.5057 205.011 68.383 204.483 68.383 203.896V196.264C68.383 196.029 68.4577 195.837 68.607 195.688C68.7563 195.539 68.9483 195.464 69.183 195.464C69.4177 195.464 69.6097 195.539 69.759 195.688C69.9083 195.837 69.983 196.029 69.983 196.264V203.896C69.983 204.323 70.1003 204.68 70.335 204.968C70.5697 205.256 70.8577 205.4 71.199 205.4H71.743C71.935 205.4 72.095 205.475 72.223 205.624C72.3617 205.773 72.431 205.965 72.431 206.2C72.431 206.435 72.3403 206.627 72.159 206.776C71.9883 206.925 71.7643 207 71.487 207H71.199ZM67.647 199.944C67.423 199.944 67.2417 199.88 67.103 199.752C66.9643 199.624 66.895 199.464 66.895 199.272C66.895 199.059 66.9643 198.888 67.103 198.76C67.2417 198.632 67.423 198.568 67.647 198.568H71.343C71.567 198.568 71.7483 198.632 71.887 198.76C72.0257 198.888 72.095 199.059 72.095 199.272C72.095 199.464 72.0257 199.624 71.887 199.752C71.7483 199.88 71.567 199.944 71.343 199.944H67.647ZM81.7004 207C81.4657 207 81.2684 206.925 81.1084 206.776C80.959 206.616 80.8844 206.419 80.8844 206.184V199.064C80.8844 198.819 80.959 198.621 81.1084 198.472C81.2684 198.323 81.4657 198.248 81.7004 198.248C81.9457 198.248 82.143 198.323 82.2924 198.472C82.4417 198.621 82.5164 198.819 82.5164 199.064V206.184C82.5164 206.419 82.4417 206.616 82.2924 206.776C82.143 206.925 81.9457 207 81.7004 207ZM81.7004 196.824C81.4124 196.824 81.1617 196.723 80.9484 196.52C80.7457 196.307 80.6444 196.056 80.6444 195.768C80.6444 195.48 80.7457 195.235 80.9484 195.032C81.1617 194.819 81.4124 194.712 81.7004 194.712C81.9884 194.712 82.2337 194.819 82.4364 195.032C82.6497 195.235 82.7564 195.48 82.7564 195.768C82.7564 196.056 82.6497 196.307 82.4364 196.52C82.2337 196.723 81.9884 196.824 81.7004 196.824ZM93.7445 207.016C93.5098 207.016 93.3125 206.941 93.1525 206.792C93.0032 206.632 92.9285 206.435 92.9285 206.2V202.264C92.9285 201.656 92.8165 201.16 92.5925 200.776C92.3685 200.392 92.0645 200.109 91.6805 199.928C91.3072 199.736 90.8752 199.64 90.3845 199.64C89.9365 199.64 89.5312 199.731 89.1685 199.912C88.8058 200.093 88.5178 200.339 88.3045 200.648C88.0912 200.947 87.9845 201.293 87.9845 201.688H86.9765C86.9765 201.016 87.1365 200.419 87.4565 199.896C87.7872 199.363 88.2352 198.941 88.8005 198.632C89.3658 198.323 90.0005 198.168 90.7045 198.168C91.4405 198.168 92.0965 198.328 92.6725 198.648C93.2592 198.957 93.7178 199.416 94.0485 200.024C94.3898 200.632 94.5605 201.379 94.5605 202.264V206.2C94.5605 206.435 94.4805 206.632 94.3205 206.792C94.1712 206.941 93.9792 207.016 93.7445 207.016ZM87.1685 207.016C86.9338 207.016 86.7365 206.941 86.5765 206.792C86.4272 206.632 86.3525 206.435 86.3525 206.2V199.064C86.3525 198.819 86.4272 198.621 86.5765 198.472C86.7365 198.323 86.9338 198.248 87.1685 198.248C87.4138 198.248 87.6112 198.323 87.7605 198.472C87.9098 198.621 87.9845 198.819 87.9845 199.064V206.2C87.9845 206.435 87.9098 206.632 87.7605 206.792C87.6112 206.941 87.4138 207.016 87.1685 207.016ZM101.243 207C100.709 207 100.229 206.867 99.8028 206.6C99.3761 206.323 99.0401 205.949 98.7948 205.48C98.5494 205.011 98.4268 204.483 98.4268 203.896V196.264C98.4268 196.029 98.5014 195.837 98.6508 195.688C98.8001 195.539 98.9921 195.464 99.2268 195.464C99.4614 195.464 99.6534 195.539 99.8028 195.688C99.9521 195.837 100.027 196.029 100.027 196.264V203.896C100.027 204.323 100.144 204.68 100.379 204.968C100.613 205.256 100.901 205.4 101.243 205.4H101.787C101.979 205.4 102.139 205.475 102.267 205.624C102.405 205.773 102.475 205.965 102.475 206.2C102.475 206.435 102.384 206.627 102.203 206.776C102.032 206.925 101.808 207 101.531 207H101.243ZM97.6908 199.944C97.4668 199.944 97.2854 199.88 97.1468 199.752C97.0081 199.624 96.9388 199.464 96.9388 199.272C96.9388 199.059 97.0081 198.888 97.1468 198.76C97.2854 198.632 97.4668 198.568 97.6908 198.568H101.387C101.611 198.568 101.792 198.632 101.931 198.76C102.069 198.888 102.139 199.059 102.139 199.272C102.139 199.464 102.069 199.624 101.931 199.752C101.792 199.88 101.611 199.944 101.387 199.944H97.6908ZM106.065 201.528C106.065 200.888 106.219 200.317 106.529 199.816C106.849 199.304 107.275 198.899 107.809 198.6C108.342 198.301 108.929 198.152 109.569 198.152C110.209 198.152 110.683 198.259 110.993 198.472C111.313 198.675 111.435 198.92 111.361 199.208C111.329 199.357 111.265 199.475 111.169 199.56C111.083 199.635 110.982 199.683 110.865 199.704C110.747 199.725 110.619 199.72 110.481 199.688C109.798 199.549 109.185 199.539 108.641 199.656C108.097 199.773 107.665 199.992 107.345 200.312C107.035 200.632 106.881 201.037 106.881 201.528H106.065ZM106.081 207C105.825 207 105.627 206.936 105.489 206.808C105.35 206.669 105.281 206.467 105.281 206.2V199.048C105.281 198.792 105.35 198.595 105.489 198.456C105.627 198.317 105.825 198.248 106.081 198.248C106.347 198.248 106.545 198.317 106.673 198.456C106.811 198.584 106.881 198.781 106.881 199.048V206.2C106.881 206.456 106.811 206.653 106.673 206.792C106.545 206.931 106.347 207 106.081 207ZM117.542 207.08C116.806 207.08 116.145 206.925 115.558 206.616C114.982 206.296 114.523 205.832 114.182 205.224C113.851 204.616 113.686 203.869 113.686 202.984V199.048C113.686 198.813 113.761 198.621 113.91 198.472C114.07 198.312 114.267 198.232 114.502 198.232C114.737 198.232 114.929 198.312 115.078 198.472C115.238 198.621 115.318 198.813 115.318 199.048V202.984C115.318 203.581 115.43 204.077 115.654 204.472C115.878 204.856 116.182 205.144 116.566 205.336C116.95 205.517 117.382 205.608 117.862 205.608C118.321 205.608 118.726 205.517 119.078 205.336C119.441 205.155 119.729 204.909 119.942 204.6C120.155 204.291 120.262 203.944 120.262 203.56H121.27C121.27 204.221 121.105 204.819 120.774 205.352C120.454 205.885 120.011 206.307 119.446 206.616C118.891 206.925 118.257 207.08 117.542 207.08ZM121.078 207C120.843 207 120.646 206.925 120.486 206.776C120.337 206.616 120.262 206.419 120.262 206.184V199.048C120.262 198.803 120.337 198.605 120.486 198.456C120.646 198.307 120.843 198.232 121.078 198.232C121.323 198.232 121.521 198.307 121.67 198.456C121.819 198.605 121.894 198.803 121.894 199.048V206.184C121.894 206.419 121.819 206.616 121.67 206.776C121.521 206.925 121.323 207 121.078 207ZM128.752 207.064C128.005 207.064 127.312 206.952 126.672 206.728C126.043 206.493 125.552 206.2 125.2 205.848C125.04 205.677 124.971 205.485 124.992 205.272C125.024 205.048 125.131 204.867 125.312 204.728C125.525 204.557 125.733 204.488 125.936 204.52C126.149 204.541 126.331 204.632 126.48 204.792C126.661 204.995 126.949 205.187 127.344 205.368C127.749 205.539 128.197 205.624 128.688 205.624C129.307 205.624 129.776 205.523 130.096 205.32C130.427 205.117 130.597 204.856 130.608 204.536C130.619 204.216 130.464 203.939 130.144 203.704C129.835 203.469 129.264 203.277 128.432 203.128C127.355 202.915 126.571 202.595 126.08 202.168C125.6 201.741 125.36 201.219 125.36 200.6C125.36 200.056 125.52 199.608 125.84 199.256C126.16 198.893 126.571 198.627 127.072 198.456C127.573 198.275 128.096 198.184 128.64 198.184C129.344 198.184 129.968 198.296 130.512 198.52C131.056 198.744 131.488 199.053 131.808 199.448C131.957 199.619 132.027 199.8 132.016 199.992C132.005 200.173 131.915 200.328 131.744 200.456C131.573 200.573 131.371 200.611 131.136 200.568C130.901 200.525 130.704 200.429 130.544 200.28C130.277 200.024 129.989 199.848 129.68 199.752C129.371 199.656 129.013 199.608 128.608 199.608C128.139 199.608 127.739 199.688 127.408 199.848C127.088 200.008 126.928 200.243 126.928 200.552C126.928 200.744 126.976 200.92 127.072 201.08C127.179 201.229 127.381 201.368 127.68 201.496C127.979 201.613 128.416 201.731 128.992 201.848C129.792 202.008 130.421 202.211 130.88 202.456C131.349 202.701 131.685 202.989 131.888 203.32C132.091 203.64 132.192 204.013 132.192 204.44C132.192 204.931 132.059 205.373 131.792 205.768C131.536 206.163 131.152 206.477 130.64 206.712C130.139 206.947 129.509 207.064 128.752 207.064ZM136.032 207C135.797 207 135.6 206.925 135.44 206.776C135.29 206.616 135.216 206.419 135.216 206.184V199.064C135.216 198.819 135.29 198.621 135.44 198.472C135.6 198.323 135.797 198.248 136.032 198.248C136.277 198.248 136.474 198.323 136.624 198.472C136.773 198.621 136.848 198.819 136.848 199.064V206.184C136.848 206.419 136.773 206.616 136.624 206.776C136.474 206.925 136.277 207 136.032 207ZM136.032 196.824C135.744 196.824 135.493 196.723 135.28 196.52C135.077 196.307 134.976 196.056 134.976 195.768C134.976 195.48 135.077 195.235 135.28 195.032C135.493 194.819 135.744 194.712 136.032 194.712C136.32 194.712 136.565 194.819 136.768 195.032C136.981 195.235 137.088 195.48 137.088 195.768C137.088 196.056 136.981 196.307 136.768 196.52C136.565 196.723 136.32 196.824 136.032 196.824ZM143.644 206.984C143.313 206.984 143.057 206.808 142.876 206.456L139.484 199.304C139.398 199.123 139.388 198.947 139.452 198.776C139.526 198.595 139.665 198.456 139.868 198.36C140.049 198.264 140.23 198.248 140.412 198.312C140.604 198.376 140.748 198.499 140.844 198.68L144.012 205.512H143.244L146.38 198.68C146.476 198.499 146.62 198.376 146.812 198.312C147.014 198.248 147.217 198.264 147.42 198.36C147.612 198.445 147.74 198.579 147.804 198.76C147.868 198.941 147.857 199.123 147.772 199.304L144.38 206.456C144.22 206.808 143.974 206.984 143.644 206.984ZM154.049 207.064C153.164 207.064 152.374 206.877 151.681 206.504C150.998 206.12 150.46 205.597 150.065 204.936C149.681 204.264 149.489 203.496 149.489 202.632C149.489 201.757 149.67 200.989 150.033 200.328C150.406 199.656 150.918 199.133 151.569 198.76C152.22 198.376 152.966 198.184 153.809 198.184C154.641 198.184 155.356 198.371 155.953 198.744C156.55 199.107 157.004 199.613 157.313 200.264C157.633 200.904 157.793 201.645 157.793 202.488C157.793 202.691 157.724 202.861 157.585 203C157.446 203.128 157.27 203.192 157.057 203.192H150.609V201.912H157.009L156.353 202.36C156.342 201.827 156.236 201.352 156.033 200.936C155.83 200.509 155.542 200.173 155.169 199.928C154.796 199.683 154.342 199.56 153.809 199.56C153.201 199.56 152.678 199.693 152.241 199.96C151.814 200.227 151.489 200.595 151.265 201.064C151.041 201.523 150.929 202.045 150.929 202.632C150.929 203.219 151.062 203.741 151.329 204.2C151.596 204.659 151.964 205.021 152.433 205.288C152.902 205.555 153.441 205.688 154.049 205.688C154.38 205.688 154.716 205.629 155.057 205.512C155.409 205.384 155.692 205.24 155.905 205.08C156.065 204.963 156.236 204.904 156.417 204.904C156.609 204.893 156.774 204.947 156.913 205.064C157.094 205.224 157.19 205.4 157.201 205.592C157.212 205.784 157.126 205.949 156.945 206.088C156.582 206.376 156.129 206.611 155.585 206.792C155.052 206.973 154.54 207.064 154.049 207.064ZM12.043 222.84C11.6803 222.84 11.3443 222.749 11.035 222.568C10.7363 222.387 10.4963 222.147 10.315 221.848C10.1337 221.539 10.043 221.203 10.043 220.84C10.043 220.467 10.1337 220.131 10.315 219.832C10.507 219.523 10.7523 219.283 11.051 219.112C11.3603 218.931 11.691 218.84 12.043 218.84C12.4057 218.84 12.7363 218.936 13.035 219.128C13.3337 219.309 13.5737 219.549 13.755 219.848C13.947 220.147 14.043 220.477 14.043 220.84C14.043 221.192 13.9523 221.523 13.771 221.832C13.6003 222.131 13.3603 222.376 13.051 222.568C12.7523 222.749 12.4163 222.84 12.043 222.84ZM26.432 227C26.1973 227 26 226.92 25.84 226.76C25.68 226.6 25.6 226.403 25.6 226.168V215.336C25.6 215.091 25.68 214.893 25.84 214.744C26 214.584 26.1973 214.504 26.432 214.504C26.752 214.504 26.9973 214.653 27.168 214.952L32.176 224.984H31.664L36.544 214.952C36.7147 214.653 36.96 214.504 37.28 214.504C37.5147 214.504 37.712 214.584 37.872 214.744C38.032 214.893 38.112 215.091 38.112 215.336V226.168C38.112 226.403 38.0267 226.6 37.856 226.76C37.696 226.92 37.504 227 37.28 227C37.0453 227 36.848 226.92 36.688 226.76C36.528 226.6 36.448 226.403 36.448 226.168V217.64L36.768 217.56L32.576 226.104C32.3947 226.381 32.1547 226.52 31.856 226.52C31.504 226.52 31.248 226.355 31.088 226.024L26.944 217.72L27.264 217.64V226.168C27.264 226.403 27.184 226.6 27.024 226.76C26.864 226.92 26.6667 227 26.432 227ZM45.6067 227.064C44.8281 227.064 44.1294 226.872 43.5107 226.488C42.8921 226.093 42.4014 225.565 42.0387 224.904C41.6867 224.232 41.5107 223.475 41.5107 222.632C41.5107 221.789 41.7027 221.032 42.0867 220.36C42.4814 219.688 43.0094 219.16 43.6707 218.776C44.3427 218.381 45.0947 218.184 45.9267 218.184C46.7587 218.184 47.5054 218.381 48.1667 218.776C48.8281 219.16 49.3507 219.688 49.7347 220.36C50.1294 221.032 50.3267 221.789 50.3267 222.632H49.7027C49.7027 223.475 49.5214 224.232 49.1587 224.904C48.8067 225.565 48.3214 226.093 47.7027 226.488C47.0841 226.872 46.3854 227.064 45.6067 227.064ZM45.9267 225.624C46.4707 225.624 46.9561 225.496 47.3827 225.24C47.8094 224.973 48.1454 224.616 48.3907 224.168C48.6361 223.709 48.7587 223.197 48.7587 222.632C48.7587 222.056 48.6361 221.544 48.3907 221.096C48.1454 220.637 47.8094 220.28 47.3827 220.024C46.9561 219.757 46.4707 219.624 45.9267 219.624C45.3934 219.624 44.9081 219.757 44.4707 220.024C44.0441 220.28 43.7027 220.637 43.4467 221.096C43.2014 221.544 43.0787 222.056 43.0787 222.632C43.0787 223.197 43.2014 223.709 43.4467 224.168C43.7027 224.616 44.0441 224.973 44.4707 225.24C44.9081 225.496 45.3934 225.624 45.9267 225.624ZM49.5107 227.016C49.2761 227.016 49.0787 226.941 48.9187 226.792C48.7694 226.632 48.6947 226.435 48.6947 226.2V223.752L48.9987 222.056L50.3267 222.632V226.2C50.3267 226.435 50.2467 226.632 50.0868 226.792C49.9374 226.941 49.7454 227.016 49.5107 227.016ZM54.5316 227C54.297 227 54.0996 226.925 53.9396 226.776C53.7903 226.616 53.7156 226.419 53.7156 226.184V219.064C53.7156 218.819 53.7903 218.621 53.9396 218.472C54.0996 218.323 54.297 218.248 54.5316 218.248C54.777 218.248 54.9743 218.323 55.1236 218.472C55.273 218.621 55.3476 218.819 55.3476 219.064V226.184C55.3476 226.419 55.273 226.616 55.1236 226.776C54.9743 226.925 54.777 227 54.5316 227ZM54.5316 216.824C54.2436 216.824 53.993 216.723 53.7796 216.52C53.577 216.307 53.4756 216.056 53.4756 215.768C53.4756 215.48 53.577 215.235 53.7796 215.032C53.993 214.819 54.2436 214.712 54.5316 214.712C54.8196 214.712 55.065 214.819 55.2676 215.032C55.481 215.235 55.5876 215.48 55.5876 215.768C55.5876 216.056 55.481 216.307 55.2676 216.52C55.065 216.723 54.8196 216.824 54.5316 216.824ZM66.5758 227.016C66.3411 227.016 66.1438 226.941 65.9838 226.792C65.8344 226.632 65.7598 226.435 65.7598 226.2V222.264C65.7598 221.656 65.6478 221.16 65.4238 220.776C65.1998 220.392 64.8958 220.109 64.5118 219.928C64.1384 219.736 63.7064 219.64 63.2158 219.64C62.7678 219.64 62.3624 219.731 61.9998 219.912C61.6371 220.093 61.3491 220.339 61.1358 220.648C60.9224 220.947 60.8158 221.293 60.8158 221.688H59.8078C59.8078 221.016 59.9678 220.419 60.2878 219.896C60.6184 219.363 61.0664 218.941 61.6318 218.632C62.1971 218.323 62.8318 218.168 63.5358 218.168C64.2718 218.168 64.9278 218.328 65.5038 218.648C66.0904 218.957 66.5491 219.416 66.8798 220.024C67.2211 220.632 67.3918 221.379 67.3918 222.264V226.2C67.3918 226.435 67.3118 226.632 67.1518 226.792C67.0024 226.941 66.8104 227.016 66.5758 227.016ZM59.9998 227.016C59.7651 227.016 59.5678 226.941 59.4078 226.792C59.2584 226.632 59.1838 226.435 59.1838 226.2V219.064C59.1838 218.819 59.2584 218.621 59.4078 218.472C59.5678 218.323 59.7651 218.248 59.9998 218.248C60.2451 218.248 60.4424 218.323 60.5918 218.472C60.7411 218.621 60.8158 218.819 60.8158 219.064V226.2C60.8158 226.435 60.7411 226.632 60.5918 226.792C60.4424 226.941 60.2451 227.016 59.9998 227.016ZM74.074 227C73.5407 227 73.0607 226.867 72.634 226.6C72.2073 226.323 71.8713 225.949 71.626 225.48C71.3807 225.011 71.258 224.483 71.258 223.896V216.264C71.258 216.029 71.3327 215.837 71.482 215.688C71.6313 215.539 71.8233 215.464 72.058 215.464C72.2927 215.464 72.4847 215.539 72.634 215.688C72.7833 215.837 72.858 216.029 72.858 216.264V223.896C72.858 224.323 72.9753 224.68 73.21 224.968C73.4447 225.256 73.7327 225.4 74.074 225.4H74.618C74.81 225.4 74.97 225.475 75.098 225.624C75.2367 225.773 75.306 225.965 75.306 226.2C75.306 226.435 75.2153 226.627 75.034 226.776C74.8633 226.925 74.6393 227 74.362 227H74.074ZM70.522 219.944C70.298 219.944 70.1167 219.88 69.978 219.752C69.8393 219.624 69.77 219.464 69.77 219.272C69.77 219.059 69.8393 218.888 69.978 218.76C70.1167 218.632 70.298 218.568 70.522 218.568H74.218C74.442 218.568 74.6233 218.632 74.762 218.76C74.9007 218.888 74.97 219.059 74.97 219.272C74.97 219.464 74.9007 219.624 74.762 219.752C74.6233 219.88 74.442 219.944 74.218 219.944H70.522ZM82.2239 227.064C81.3385 227.064 80.5492 226.877 79.8559 226.504C79.1732 226.12 78.6345 225.597 78.2399 224.936C77.8559 224.264 77.6639 223.496 77.6639 222.632C77.6639 221.757 77.8452 220.989 78.2079 220.328C78.5812 219.656 79.0932 219.133 79.7439 218.76C80.3945 218.376 81.1412 218.184 81.9839 218.184C82.8159 218.184 83.5305 218.371 84.1279 218.744C84.7252 219.107 85.1785 219.613 85.4879 220.264C85.8079 220.904 85.9679 221.645 85.9679 222.488C85.9679 222.691 85.8985 222.861 85.7599 223C85.6212 223.128 85.4452 223.192 85.2319 223.192H78.7839V221.912H85.1839L84.5279 222.36C84.5172 221.827 84.4105 221.352 84.2079 220.936C84.0052 220.509 83.7172 220.173 83.3439 219.928C82.9705 219.683 82.5172 219.56 81.9839 219.56C81.3759 219.56 80.8532 219.693 80.4159 219.96C79.9892 220.227 79.6639 220.595 79.4399 221.064C79.2159 221.523 79.1039 222.045 79.1039 222.632C79.1039 223.219 79.2372 223.741 79.5039 224.2C79.7705 224.659 80.1385 225.021 80.6079 225.288C81.0772 225.555 81.6159 225.688 82.2239 225.688C82.5545 225.688 82.8905 225.629 83.2319 225.512C83.5839 225.384 83.8665 225.24 84.0799 225.08C84.2399 224.963 84.4105 224.904 84.5919 224.904C84.7839 224.893 84.9492 224.947 85.0879 225.064C85.2692 225.224 85.3652 225.4 85.3759 225.592C85.3865 225.784 85.3012 225.949 85.1199 226.088C84.7572 226.376 84.3039 226.611 83.7599 226.792C83.2265 226.973 82.7145 227.064 82.2239 227.064ZM96.2414 227.016C96.0067 227.016 95.8094 226.941 95.6494 226.792C95.5 226.632 95.4254 226.435 95.4254 226.2V222.264C95.4254 221.656 95.3134 221.16 95.0894 220.776C94.8654 220.392 94.5614 220.109 94.1774 219.928C93.804 219.736 93.372 219.64 92.8814 219.64C92.4334 219.64 92.028 219.731 91.6654 219.912C91.3027 220.093 91.0147 220.339 90.8014 220.648C90.588 220.947 90.4814 221.293 90.4814 221.688H89.4734C89.4734 221.016 89.6334 220.419 89.9534 219.896C90.284 219.363 90.732 218.941 91.2974 218.632C91.8627 218.323 92.4974 218.168 93.2014 218.168C93.9374 218.168 94.5934 218.328 95.1694 218.648C95.756 218.957 96.2147 219.416 96.5454 220.024C96.8867 220.632 97.0574 221.379 97.0574 222.264V226.2C97.0574 226.435 96.9774 226.632 96.8174 226.792C96.668 226.941 96.476 227.016 96.2414 227.016ZM89.6654 227.016C89.4307 227.016 89.2334 226.941 89.0734 226.792C88.924 226.632 88.8494 226.435 88.8494 226.2V219.064C88.8494 218.819 88.924 218.621 89.0734 218.472C89.2334 218.323 89.4307 218.248 89.6654 218.248C89.9107 218.248 90.108 218.323 90.2574 218.472C90.4067 218.621 90.4814 218.819 90.4814 219.064V226.2C90.4814 226.435 90.4067 226.632 90.2574 226.792C90.108 226.941 89.9107 227.016 89.6654 227.016ZM104.204 227.064C103.425 227.064 102.726 226.872 102.108 226.488C101.489 226.093 100.998 225.565 100.636 224.904C100.284 224.232 100.108 223.475 100.108 222.632C100.108 221.789 100.3 221.032 100.684 220.36C101.078 219.688 101.606 219.16 102.268 218.776C102.94 218.381 103.692 218.184 104.524 218.184C105.356 218.184 106.102 218.381 106.764 218.776C107.425 219.16 107.948 219.688 108.332 220.36C108.726 221.032 108.924 221.789 108.924 222.632H108.3C108.3 223.475 108.118 224.232 107.756 224.904C107.404 225.565 106.918 226.093 106.3 226.488C105.681 226.872 104.982 227.064 104.204 227.064ZM104.524 225.624C105.068 225.624 105.553 225.496 105.98 225.24C106.406 224.973 106.742 224.616 106.988 224.168C107.233 223.709 107.356 223.197 107.356 222.632C107.356 222.056 107.233 221.544 106.988 221.096C106.742 220.637 106.406 220.28 105.98 220.024C105.553 219.757 105.068 219.624 104.524 219.624C103.99 219.624 103.505 219.757 103.068 220.024C102.641 220.28 102.3 220.637 102.044 221.096C101.798 221.544 101.676 222.056 101.676 222.632C101.676 223.197 101.798 223.709 102.044 224.168C102.3 224.616 102.641 224.973 103.068 225.24C103.505 225.496 103.99 225.624 104.524 225.624ZM108.108 227.016C107.873 227.016 107.676 226.941 107.516 226.792C107.366 226.632 107.292 226.435 107.292 226.2V223.752L107.596 222.056L108.924 222.632V226.2C108.924 226.435 108.844 226.632 108.684 226.792C108.534 226.941 108.342 227.016 108.108 227.016ZM119.545 227.016C119.31 227.016 119.113 226.941 118.953 226.792C118.803 226.632 118.729 226.435 118.729 226.2V222.264C118.729 221.656 118.617 221.16 118.393 220.776C118.169 220.392 117.865 220.109 117.481 219.928C117.107 219.736 116.675 219.64 116.185 219.64C115.737 219.64 115.331 219.731 114.969 219.912C114.606 220.093 114.318 220.339 114.105 220.648C113.891 220.947 113.785 221.293 113.785 221.688H112.777C112.777 221.016 112.937 220.419 113.257 219.896C113.587 219.363 114.035 218.941 114.601 218.632C115.166 218.323 115.801 218.168 116.505 218.168C117.241 218.168 117.897 218.328 118.473 218.648C119.059 218.957 119.518 219.416 119.849 220.024C120.19 220.632 120.361 221.379 120.361 222.264V226.2C120.361 226.435 120.281 226.632 120.121 226.792C119.971 226.941 119.779 227.016 119.545 227.016ZM112.969 227.016C112.734 227.016 112.537 226.941 112.377 226.792C112.227 226.632 112.153 226.435 112.153 226.2V219.064C112.153 218.819 112.227 218.621 112.377 218.472C112.537 218.323 112.734 218.248 112.969 218.248C113.214 218.248 113.411 218.323 113.561 218.472C113.71 218.621 113.785 218.819 113.785 219.064V226.2C113.785 226.435 113.71 226.632 113.561 226.792C113.411 226.941 113.214 227.016 112.969 227.016ZM127.827 227.064C126.973 227.064 126.211 226.872 125.539 226.488C124.877 226.093 124.355 225.565 123.971 224.904C123.597 224.232 123.411 223.475 123.411 222.632C123.411 221.768 123.597 221 123.971 220.328C124.344 219.656 124.856 219.133 125.507 218.76C126.157 218.376 126.904 218.184 127.747 218.184C128.376 218.184 128.952 218.307 129.475 218.552C129.997 218.787 130.467 219.144 130.883 219.624C131.032 219.795 131.085 219.971 131.043 220.152C131 220.333 130.883 220.493 130.691 220.632C130.541 220.739 130.376 220.776 130.195 220.744C130.013 220.701 129.848 220.605 129.699 220.456C129.176 219.901 128.525 219.624 127.747 219.624C127.203 219.624 126.723 219.752 126.307 220.008C125.891 220.253 125.565 220.6 125.331 221.048C125.096 221.496 124.979 222.024 124.979 222.632C124.979 223.208 125.096 223.72 125.331 224.168C125.576 224.616 125.912 224.973 126.339 225.24C126.765 225.496 127.261 225.624 127.827 225.624C128.2 225.624 128.525 225.581 128.803 225.496C129.091 225.4 129.352 225.256 129.587 225.064C129.757 224.925 129.933 224.851 130.115 224.84C130.296 224.819 130.456 224.867 130.595 224.984C130.776 225.133 130.877 225.304 130.899 225.496C130.92 225.677 130.856 225.843 130.707 225.992C129.939 226.707 128.979 227.064 127.827 227.064ZM138.38 227.064C137.495 227.064 136.705 226.877 136.012 226.504C135.329 226.12 134.791 225.597 134.396 224.936C134.012 224.264 133.82 223.496 133.82 222.632C133.82 221.757 134.001 220.989 134.364 220.328C134.737 219.656 135.249 219.133 135.9 218.76C136.551 218.376 137.297 218.184 138.14 218.184C138.972 218.184 139.687 218.371 140.284 218.744C140.881 219.107 141.335 219.613 141.644 220.264C141.964 220.904 142.124 221.645 142.124 222.488C142.124 222.691 142.055 222.861 141.916 223C141.777 223.128 141.601 223.192 141.388 223.192H134.94V221.912H141.34L140.684 222.36C140.673 221.827 140.567 221.352 140.364 220.936C140.161 220.509 139.873 220.173 139.5 219.928C139.127 219.683 138.673 219.56 138.14 219.56C137.532 219.56 137.009 219.693 136.572 219.96C136.145 220.227 135.82 220.595 135.596 221.064C135.372 221.523 135.26 222.045 135.26 222.632C135.26 223.219 135.393 223.741 135.66 224.2C135.927 224.659 136.295 225.021 136.764 225.288C137.233 225.555 137.772 225.688 138.38 225.688C138.711 225.688 139.047 225.629 139.388 225.512C139.74 225.384 140.023 225.24 140.236 225.08C140.396 224.963 140.567 224.904 140.748 224.904C140.94 224.893 141.105 224.947 141.244 225.064C141.425 225.224 141.521 225.4 141.532 225.592C141.543 225.784 141.457 225.949 141.276 226.088C140.913 226.376 140.46 226.611 139.916 226.792C139.383 226.973 138.871 227.064 138.38 227.064ZM151.437 227C151.234 227 151.053 226.925 150.893 226.776C150.733 226.627 150.653 226.429 150.653 226.184V218.296C150.653 217.528 150.802 216.861 151.101 216.296C151.41 215.731 151.837 215.293 152.381 214.984C152.925 214.664 153.554 214.504 154.269 214.504C154.504 214.504 154.696 214.573 154.845 214.712C155.005 214.851 155.085 215.027 155.085 215.24C155.085 215.443 155.005 215.619 154.845 215.768C154.696 215.907 154.504 215.976 154.269 215.976C153.874 215.976 153.528 216.067 153.229 216.248C152.93 216.429 152.696 216.68 152.525 217C152.365 217.32 152.285 217.699 152.285 218.136V226.184C152.285 226.429 152.21 226.627 152.061 226.776C151.912 226.925 151.704 227 151.437 227ZM149.965 219.944C149.741 219.944 149.56 219.88 149.421 219.752C149.282 219.624 149.213 219.464 149.213 219.272C149.213 219.059 149.282 218.888 149.421 218.76C149.56 218.632 149.741 218.568 149.965 218.568H153.917C154.141 218.568 154.322 218.632 154.461 218.76C154.6 218.888 154.669 219.059 154.669 219.272C154.669 219.464 154.6 219.624 154.461 219.752C154.322 219.88 154.141 219.944 153.917 219.944H149.965ZM157.952 221.528C157.952 220.888 158.107 220.317 158.416 219.816C158.736 219.304 159.163 218.899 159.696 218.6C160.229 218.301 160.816 218.152 161.456 218.152C162.096 218.152 162.571 218.259 162.88 218.472C163.2 218.675 163.323 218.92 163.248 219.208C163.216 219.357 163.152 219.475 163.056 219.56C162.971 219.635 162.869 219.683 162.752 219.704C162.635 219.725 162.507 219.72 162.368 219.688C161.685 219.549 161.072 219.539 160.528 219.656C159.984 219.773 159.552 219.992 159.232 220.312C158.923 220.632 158.768 221.037 158.768 221.528H157.952ZM157.968 227C157.712 227 157.515 226.936 157.376 226.808C157.237 226.669 157.168 226.467 157.168 226.2V219.048C157.168 218.792 157.237 218.595 157.376 218.456C157.515 218.317 157.712 218.248 157.968 218.248C158.235 218.248 158.432 218.317 158.56 218.456C158.699 218.584 158.768 218.781 158.768 219.048V226.2C158.768 226.456 158.699 226.653 158.56 226.792C158.432 226.931 158.235 227 157.968 227ZM166.725 227C166.491 227 166.293 226.925 166.133 226.776C165.984 226.616 165.909 226.419 165.909 226.184V219.064C165.909 218.819 165.984 218.621 166.133 218.472C166.293 218.323 166.491 218.248 166.725 218.248C166.971 218.248 167.168 218.323 167.317 218.472C167.467 218.621 167.541 218.819 167.541 219.064V226.184C167.541 226.419 167.467 226.616 167.317 226.776C167.168 226.925 166.971 227 166.725 227ZM166.725 216.824C166.437 216.824 166.187 216.723 165.973 216.52C165.771 216.307 165.669 216.056 165.669 215.768C165.669 215.48 165.771 215.235 165.973 215.032C166.187 214.819 166.437 214.712 166.725 214.712C167.013 214.712 167.259 214.819 167.461 215.032C167.675 215.235 167.781 215.48 167.781 215.768C167.781 216.056 167.675 216.307 167.461 216.52C167.259 216.723 167.013 216.824 166.725 216.824ZM175.49 227.064C174.604 227.064 173.815 226.877 173.122 226.504C172.439 226.12 171.9 225.597 171.506 224.936C171.122 224.264 170.93 223.496 170.93 222.632C170.93 221.757 171.111 220.989 171.474 220.328C171.847 219.656 172.359 219.133 173.01 218.76C173.66 218.376 174.407 218.184 175.25 218.184C176.082 218.184 176.796 218.371 177.394 218.744C177.991 219.107 178.444 219.613 178.753 220.264C179.074 220.904 179.234 221.645 179.234 222.488C179.234 222.691 179.164 222.861 179.026 223C178.887 223.128 178.711 223.192 178.498 223.192H172.049V221.912H178.45L177.794 222.36C177.783 221.827 177.676 221.352 177.474 220.936C177.271 220.509 176.983 220.173 176.61 219.928C176.236 219.683 175.783 219.56 175.25 219.56C174.642 219.56 174.119 219.693 173.682 219.96C173.255 220.227 172.93 220.595 172.706 221.064C172.482 221.523 172.37 222.045 172.37 222.632C172.37 223.219 172.503 223.741 172.77 224.2C173.036 224.659 173.404 225.021 173.874 225.288C174.343 225.555 174.882 225.688 175.49 225.688C175.82 225.688 176.156 225.629 176.498 225.512C176.85 225.384 177.132 225.24 177.346 225.08C177.506 224.963 177.676 224.904 177.858 224.904C178.05 224.893 178.215 224.947 178.354 225.064C178.535 225.224 178.631 225.4 178.642 225.592C178.652 225.784 178.567 225.949 178.385 226.088C178.023 226.376 177.57 226.611 177.026 226.792C176.492 226.973 175.98 227.064 175.49 227.064ZM189.507 227.016C189.272 227.016 189.075 226.941 188.915 226.792C188.766 226.632 188.691 226.435 188.691 226.2V222.264C188.691 221.656 188.579 221.16 188.355 220.776C188.131 220.392 187.827 220.109 187.443 219.928C187.07 219.736 186.638 219.64 186.147 219.64C185.699 219.64 185.294 219.731 184.931 219.912C184.568 220.093 184.28 220.339 184.067 220.648C183.854 220.947 183.747 221.293 183.747 221.688H182.739C182.739 221.016 182.899 220.419 183.219 219.896C183.55 219.363 183.998 218.941 184.563 218.632C185.128 218.323 185.763 218.168 186.467 218.168C187.203 218.168 187.859 218.328 188.435 218.648C189.022 218.957 189.48 219.416 189.811 220.024C190.152 220.632 190.323 221.379 190.323 222.264V226.2C190.323 226.435 190.243 226.632 190.083 226.792C189.934 226.941 189.742 227.016 189.507 227.016ZM182.931 227.016C182.696 227.016 182.499 226.941 182.339 226.792C182.19 226.632 182.115 226.435 182.115 226.2V219.064C182.115 218.819 182.19 218.621 182.339 218.472C182.499 218.323 182.696 218.248 182.931 218.248C183.176 218.248 183.374 218.323 183.523 218.472C183.672 218.621 183.747 218.819 183.747 219.064V226.2C183.747 226.435 183.672 226.632 183.523 226.792C183.374 226.941 183.176 227.016 182.931 227.016ZM197.789 227.064C196.957 227.064 196.205 226.872 195.533 226.488C194.872 226.093 194.344 225.56 193.949 224.888C193.565 224.216 193.373 223.459 193.373 222.616C193.373 221.773 193.549 221.021 193.901 220.36C194.264 219.688 194.755 219.16 195.373 218.776C195.992 218.381 196.691 218.184 197.469 218.184C198.099 218.184 198.68 218.317 199.213 218.584C199.747 218.84 200.195 219.192 200.557 219.64V215.32C200.557 215.075 200.632 214.877 200.781 214.728C200.941 214.579 201.139 214.504 201.373 214.504C201.619 214.504 201.816 214.579 201.965 214.728C202.115 214.877 202.189 215.075 202.189 215.32V222.616C202.189 223.459 201.992 224.216 201.597 224.888C201.213 225.56 200.691 226.093 200.029 226.488C199.368 226.872 198.621 227.064 197.789 227.064ZM197.789 225.624C198.333 225.624 198.819 225.496 199.245 225.24C199.672 224.973 200.008 224.611 200.253 224.152C200.499 223.693 200.621 223.181 200.621 222.616C200.621 222.04 200.499 221.528 200.253 221.08C200.008 220.632 199.672 220.28 199.245 220.024C198.819 219.757 198.333 219.624 197.789 219.624C197.256 219.624 196.771 219.757 196.333 220.024C195.907 220.28 195.565 220.632 195.309 221.08C195.064 221.528 194.941 222.04 194.941 222.616C194.941 223.181 195.064 223.693 195.309 224.152C195.565 224.611 195.907 224.973 196.333 225.24C196.771 225.496 197.256 225.624 197.789 225.624ZM207.951 227C207.482 227 207.066 226.872 206.703 226.616C206.341 226.36 206.058 226.013 205.855 225.576C205.653 225.128 205.551 224.616 205.551 224.04V215.304C205.551 215.069 205.626 214.877 205.775 214.728C205.925 214.579 206.117 214.504 206.351 214.504C206.586 214.504 206.778 214.579 206.927 214.728C207.077 214.877 207.151 215.069 207.151 215.304V224.04C207.151 224.435 207.226 224.76 207.375 225.016C207.525 225.272 207.717 225.4 207.951 225.4H208.351C208.565 225.4 208.735 225.475 208.863 225.624C209.002 225.773 209.071 225.965 209.071 226.2C209.071 226.435 208.97 226.627 208.767 226.776C208.565 226.925 208.303 227 207.983 227H207.951ZM213.036 230.84C212.929 230.84 212.801 230.808 212.652 230.744C212.183 230.531 212.055 230.195 212.268 229.736L217.148 218.712C217.361 218.264 217.697 218.136 218.156 218.328C218.636 218.531 218.769 218.867 218.556 219.336L213.66 230.344C213.532 230.675 213.324 230.84 213.036 230.84ZM214.924 226.648C214.721 226.733 214.529 226.744 214.348 226.68C214.177 226.605 214.039 226.467 213.932 226.264L210.268 219.304C210.161 219.101 210.145 218.909 210.22 218.728C210.305 218.536 210.449 218.397 210.652 218.312C210.855 218.227 211.047 218.221 211.228 218.296C211.409 218.36 211.548 218.493 211.644 218.696L215.148 225.656C215.255 225.859 215.292 226.056 215.26 226.248C215.239 226.429 215.127 226.563 214.924 226.648Z" fill="white"/>
</svg>
