<svg width="160" height="31" viewBox="0 0 160 31" fill="none" xmlns="http://www.w3.org/2000/svg">
<rect x="0.25" y="0.25" width="159.5" height="30.5" rx="9.75" stroke="black" stroke-width="0.5"/>
<path d="M5.7 9.07C5.58667 9.07 5.53 9.01 5.53 8.89V8.62C5.53 8.50667 5.58667 8.45 5.7 8.45H8.89C9.00333 8.45 9.06 8.50667 9.06 8.62V8.89C9.06 9.01 9.00333 9.07 8.89 9.07H5.7ZM15.3983 12.1C14.5049 12.1 13.7149 11.72 13.0283 10.96C12.3483 10.1933 12.0083 9.33 12.0083 8.37C12.0083 7.33 12.3183 6.47667 12.9383 5.81C13.5583 5.14333 14.3549 4.81 15.3283 4.81C16.0816 4.81 16.7349 5.01333 17.2883 5.42C17.8416 5.82 18.1183 6.24 18.1183 6.68C18.1183 6.84667 18.0683 6.98 17.9683 7.08C17.8683 7.18 17.7283 7.23 17.5483 7.23C17.3816 7.23 17.2316 7.16667 17.0983 7.04C16.9649 6.90667 16.8416 6.74667 16.7283 6.56C16.6216 6.37333 16.5016 6.18667 16.3683 6C16.2416 5.80667 16.0649 5.64667 15.8383 5.52C15.6183 5.38667 15.3583 5.32 15.0583 5.32C14.5449 5.32 14.1049 5.54 13.7383 5.98C13.3783 6.41333 13.1983 6.97667 13.1983 7.67C13.1983 8.63667 13.4516 9.44 13.9583 10.08C14.4649 10.7133 15.0483 11.03 15.7083 11.03C16.2016 11.03 16.6249 10.8833 16.9783 10.59C17.3316 10.2967 17.6016 9.95667 17.7883 9.57C17.8349 9.50333 17.8949 9.46333 17.9683 9.45C18.0416 9.43 18.1049 9.44667 18.1583 9.5C18.2116 9.54667 18.2316 9.61667 18.2183 9.71C18.1249 10.3833 17.8316 10.95 17.3383 11.41C16.8516 11.87 16.2049 12.1 15.3983 12.1ZM23.9568 7.57C23.9568 7.61 23.9235 7.66 23.8568 7.72C23.7901 7.77333 23.7235 7.84667 23.6568 7.94C23.5901 8.03333 23.5568 8.14333 23.5568 8.27V11.17C23.5568 11.3167 23.6201 11.45 23.7468 11.57C23.8735 11.69 23.9368 11.7767 23.9368 11.83V11.86C23.9368 11.9533 23.8801 12 23.7668 12H22.7268C22.6001 12 22.5368 11.9367 22.5368 11.81V11.41C22.2101 11.87 21.7301 12.1 21.0968 12.1C20.4568 12.1 19.9068 11.87 19.4468 11.41C18.9935 10.95 18.7668 10.3433 18.7668 9.59C18.7668 8.86333 18.9901 8.26667 19.4368 7.8C19.8901 7.33333 20.4501 7.1 21.1168 7.1C21.6968 7.1 22.1701 7.31 22.5368 7.73V7.36C22.5368 7.27333 22.5701 7.21 22.6368 7.17C22.7035 7.13 22.7935 7.12333 22.9068 7.15L23.7768 7.33C23.8968 7.36333 23.9568 7.43333 23.9568 7.54V7.57ZM21.3668 11.72C21.6401 11.72 21.8835 11.6067 22.0968 11.38C22.3168 11.1533 22.4268 10.8367 22.4268 10.43V8.83C22.4268 8.49667 22.3001 8.19 22.0468 7.91C21.7935 7.62333 21.4968 7.48 21.1568 7.48C20.7835 7.48 20.4835 7.63333 20.2568 7.94C20.0301 8.24 19.9135 8.65333 19.9068 9.18C19.8935 9.88 20.0201 10.4767 20.2868 10.97C20.5601 11.4633 20.9201 11.7133 21.3668 11.72ZM26.5462 12.1C26.1128 12.1 25.7695 11.9633 25.5162 11.69C25.2695 11.41 25.1462 11.0067 25.1462 10.48V7.69H24.5762C24.4628 7.69 24.4062 7.63333 24.4062 7.52V7.38C24.4062 7.26 24.4628 7.2 24.5762 7.2H24.8862C25.1395 7.2 25.3428 7.11333 25.4962 6.94C25.6562 6.76667 25.7562 6.53 25.7962 6.23C25.8162 6.08333 25.8828 6.01 25.9962 6.01H26.1462C26.2728 6.01 26.3362 6.08333 26.3362 6.23L26.3462 7.2H27.6062C27.6595 7.2 27.7028 7.21667 27.7362 7.25C27.7695 7.28333 27.7862 7.32667 27.7862 7.38V7.52C27.7862 7.63333 27.7262 7.69 27.6062 7.69H26.3462V10.49C26.3462 10.7233 26.3995 10.9067 26.5062 11.04C26.6128 11.1667 26.7495 11.23 26.9162 11.23C27.3162 11.23 27.5528 11.0567 27.6262 10.71C27.6528 10.6567 27.6928 10.6233 27.7462 10.61C27.7995 10.5967 27.8462 10.6033 27.8862 10.63C27.9328 10.6567 27.9562 10.7 27.9562 10.76C27.9562 11.12 27.8262 11.4333 27.5662 11.7C27.3128 11.9667 26.9728 12.1 26.5462 12.1ZM33.4978 7.57C33.4978 7.61 33.4645 7.66 33.3978 7.72C33.3311 7.77333 33.2645 7.84667 33.1978 7.94C33.1311 8.03333 33.0978 8.14333 33.0978 8.27V11.17C33.0978 11.3167 33.1611 11.45 33.2878 11.57C33.4145 11.69 33.4778 11.7767 33.4778 11.83V11.86C33.4778 11.9533 33.4211 12 33.3078 12H32.2678C32.1411 12 32.0778 11.9367 32.0778 11.81V11.41C31.7511 11.87 31.2711 12.1 30.6378 12.1C29.9978 12.1 29.4478 11.87 28.9878 11.41C28.5345 10.95 28.3078 10.3433 28.3078 9.59C28.3078 8.86333 28.5311 8.26667 28.9778 7.8C29.4311 7.33333 29.9911 7.1 30.6578 7.1C31.2378 7.1 31.7111 7.31 32.0778 7.73V7.36C32.0778 7.27333 32.1111 7.21 32.1778 7.17C32.2445 7.13 32.3345 7.12333 32.4478 7.15L33.3178 7.33C33.4378 7.36333 33.4978 7.43333 33.4978 7.54V7.57ZM30.9078 11.72C31.1811 11.72 31.4245 11.6067 31.6378 11.38C31.8578 11.1533 31.9678 10.8367 31.9678 10.43V8.83C31.9678 8.49667 31.8411 8.19 31.5878 7.91C31.3345 7.62333 31.0378 7.48 30.6978 7.48C30.3245 7.48 30.0245 7.63333 29.7978 7.94C29.5711 8.24 29.4545 8.65333 29.4478 9.18C29.4345 9.88 29.5611 10.4767 29.8278 10.97C30.1011 11.4633 30.4611 11.7133 30.9078 11.72ZM34.3972 12C34.2572 12 34.1872 11.95 34.1872 11.85V11.82C34.1872 11.7533 34.2472 11.6633 34.3672 11.55C34.4939 11.4367 34.5572 11.31 34.5572 11.17V5.9C34.5572 5.74 34.4939 5.59667 34.3672 5.47C34.2472 5.34333 34.1872 5.26 34.1872 5.22V5.19C34.1872 5.13 34.2439 5.07 34.3572 5.01L35.3672 4.51C35.4805 4.46333 35.5672 4.46 35.6272 4.5C35.6939 4.53333 35.7272 4.59 35.7272 4.67V11.17C35.7272 11.31 35.7939 11.44 35.9272 11.56C36.0672 11.6733 36.1372 11.76 36.1372 11.82V11.85C36.1372 11.95 36.0639 12 35.9172 12H34.3972ZM39.4355 12.1C38.6155 12.1 37.9589 11.85 37.4655 11.35C36.9722 10.85 36.7255 10.25 36.7255 9.55C36.7255 8.85 36.9655 8.26667 37.4455 7.8C37.9255 7.33333 38.5122 7.1 39.2055 7.1C39.9789 7.1 40.6122 7.34667 41.1055 7.84C41.5989 8.32667 41.8455 8.92333 41.8455 9.63C41.8455 10.33 41.6222 10.9167 41.1755 11.39C40.7289 11.8633 40.1489 12.1 39.4355 12.1ZM39.5855 11.72C39.9055 11.72 40.1655 11.5733 40.3655 11.28C40.5655 10.98 40.6655 10.5667 40.6655 10.04C40.6655 9.33333 40.5122 8.73 40.2055 8.23C39.9055 7.73 39.5289 7.48 39.0755 7.48C38.7155 7.48 38.4289 7.62667 38.2155 7.92C38.0089 8.20667 37.9055 8.62 37.9055 9.16C37.9055 9.81333 38.0622 10.4033 38.3755 10.93C38.6955 11.4567 39.0989 11.72 39.5855 11.72ZM47.4882 7.33C47.6082 7.36333 47.6682 7.43333 47.6682 7.54V7.57C47.6682 7.61 47.6349 7.66 47.5682 7.72C47.5015 7.77333 47.4349 7.84667 47.3682 7.94C47.3015 8.03333 47.2682 8.14333 47.2682 8.27V11.46C47.2682 12.28 47.0549 12.91 46.6282 13.35C46.2082 13.79 45.6615 14.01 44.9882 14.01C44.3215 14.01 43.7782 13.8633 43.3582 13.57C42.9382 13.2767 42.7282 12.9567 42.7282 12.61C42.7282 12.4833 42.7715 12.3733 42.8582 12.28C42.9449 12.1933 43.0682 12.15 43.2282 12.15C43.3549 12.15 43.4649 12.2 43.5582 12.3C43.6515 12.4 43.7349 12.5233 43.8082 12.67C43.8815 12.8167 43.9615 12.9633 44.0482 13.11C44.1349 13.2567 44.2615 13.38 44.4282 13.48C44.6015 13.5867 44.8049 13.64 45.0382 13.64C45.3715 13.64 45.6382 13.4867 45.8382 13.18C46.0382 12.8733 46.1382 12.4033 46.1382 11.77V11.44C45.8049 11.8133 45.3549 12 44.7882 12C44.1549 12 43.6082 11.7767 43.1482 11.33C42.6882 10.8767 42.4582 10.2967 42.4582 9.59C42.4582 8.86333 42.6815 8.26667 43.1282 7.8C43.5815 7.33333 44.1415 7.1 44.8082 7.1C45.4082 7.1 45.8882 7.31333 46.2482 7.74V7.36C46.2482 7.27333 46.2815 7.21 46.3482 7.17C46.4149 7.13 46.5049 7.12333 46.6182 7.15L47.4882 7.33ZM45.0582 11.62C45.3315 11.62 45.5782 11.5067 45.7982 11.28C46.0249 11.0533 46.1382 10.7367 46.1382 10.33V8.83C46.1382 8.49667 46.0082 8.19 45.7482 7.91C45.4882 7.62333 45.1882 7.48 44.8482 7.48C44.4749 7.48 44.1749 7.63333 43.9482 7.94C43.7282 8.24 43.6115 8.65333 43.5982 9.18C43.5849 9.83333 43.7149 10.4033 43.9882 10.89C44.2615 11.3767 44.6182 11.62 45.0582 11.62ZM52.9695 11.06C52.9695 11.2333 52.9961 11.3633 53.0495 11.45C53.1028 11.5367 53.1595 11.5867 53.2195 11.6C53.2861 11.6067 53.3461 11.6267 53.3995 11.66C53.4528 11.6867 53.4795 11.7367 53.4795 11.81C53.4795 11.9767 53.2295 12.06 52.7295 12.06C52.4495 12.06 52.2428 12.0033 52.1095 11.89C51.9761 11.7767 51.9128 11.5867 51.9195 11.32C51.6261 11.84 51.1261 12.1 50.4195 12.1C49.8595 12.1 49.4095 11.9133 49.0695 11.54C48.7295 11.1667 48.5595 10.6267 48.5595 9.92V8.19C48.5595 8.03667 48.4961 7.9 48.3695 7.78C48.2428 7.65333 48.1795 7.56667 48.1795 7.52V7.49C48.1795 7.39 48.2395 7.33 48.3595 7.31L49.4095 7.14C49.6361 7.10667 49.7495 7.15667 49.7495 7.29L49.7295 10.03C49.7295 11.09 50.0628 11.62 50.7295 11.62C51.0361 11.62 51.2895 11.4967 51.4895 11.25C51.6961 10.9967 51.7995 10.67 51.7995 10.27V8.19C51.7995 8.03667 51.7328 7.9 51.5995 7.78C51.4728 7.65333 51.4095 7.56667 51.4095 7.52V7.49C51.4095 7.39 51.4661 7.33 51.5795 7.31L52.6495 7.14C52.8628 7.10667 52.9695 7.15667 52.9695 7.29V11.06ZM55.0214 6.37C54.7747 6.37 54.5747 6.3 54.4214 6.16C54.2681 6.02 54.1914 5.84 54.1914 5.62C54.1914 5.4 54.2681 5.22 54.4214 5.08C54.5747 4.94 54.7747 4.87 55.0214 4.87C55.2614 4.87 55.4547 4.94 55.6014 5.08C55.7547 5.22 55.8314 5.4 55.8314 5.62C55.8314 5.84 55.7547 6.02 55.6014 6.16C55.4547 6.3 55.2614 6.37 55.0214 6.37ZM54.2814 12C54.1414 12 54.0714 11.95 54.0714 11.85V11.81C54.0714 11.75 54.1314 11.6633 54.2514 11.55C54.3781 11.4367 54.4414 11.3067 54.4414 11.16V8.54C54.4414 8.38667 54.3781 8.24333 54.2514 8.11C54.1314 7.97667 54.0714 7.89 54.0714 7.85V7.82C54.0714 7.76667 54.1314 7.70667 54.2514 7.64L55.2514 7.14C55.3647 7.09333 55.4514 7.09 55.5114 7.13C55.5781 7.16333 55.6114 7.22333 55.6114 7.31V11.16C55.6114 11.3067 55.6781 11.4367 55.8114 11.55C55.9514 11.6633 56.0214 11.75 56.0214 11.81V11.85C56.0214 11.95 55.9481 12 55.8014 12H54.2814ZM61.6579 11.16C61.6646 11.3067 61.7246 11.44 61.8379 11.56C61.9579 11.6733 62.0179 11.76 62.0179 11.82V11.86C62.0179 11.96 61.9446 12.01 61.7979 12.01H60.3379C60.1912 12.01 60.1179 11.96 60.1179 11.86V11.82C60.1179 11.76 60.1779 11.6733 60.2979 11.56C60.4246 11.44 60.4846 11.3067 60.4779 11.16L60.3779 9.23C60.3312 8.13 59.9812 7.58 59.3279 7.58C59.0146 7.58 58.7612 7.69667 58.5679 7.93C58.3746 8.15667 58.2779 8.45333 58.2779 8.82V11.17C58.2779 11.3167 58.3446 11.4467 58.4779 11.56C58.6179 11.6733 58.6879 11.76 58.6879 11.82V11.86C58.6879 11.96 58.6146 12.01 58.4679 12.01H56.9179C56.7779 12.01 56.7079 11.96 56.7079 11.86V11.82C56.7079 11.76 56.7746 11.6733 56.9079 11.56C57.0412 11.4467 57.1079 11.3167 57.1079 11.17V8.49C57.1079 8.36333 57.0679 8.26 56.9879 8.18C56.9146 8.1 56.8412 8.03667 56.7679 7.99C56.6946 7.93667 56.6579 7.88 56.6579 7.82V7.79C56.6579 7.72333 56.7179 7.66333 56.8379 7.61L57.8079 7.14C57.9146 7.09333 57.9912 7.09 58.0379 7.13C58.0912 7.16333 58.1179 7.22667 58.1179 7.32V7.97C58.2579 7.69667 58.4612 7.48333 58.7279 7.33C58.9946 7.17667 59.2979 7.1 59.6379 7.1C60.1512 7.1 60.5846 7.27667 60.9379 7.63C61.2912 7.98333 61.4912 8.53 61.5379 9.27L61.6579 11.16ZM67.5468 7.33C67.6668 7.36333 67.7268 7.43333 67.7268 7.54V7.57C67.7268 7.61 67.6935 7.66 67.6268 7.72C67.5601 7.77333 67.4935 7.84667 67.4268 7.94C67.3601 8.03333 67.3268 8.14333 67.3268 8.27V11.46C67.3268 12.28 67.1135 12.91 66.6868 13.35C66.2668 13.79 65.7201 14.01 65.0468 14.01C64.3801 14.01 63.8368 13.8633 63.4168 13.57C62.9968 13.2767 62.7868 12.9567 62.7868 12.61C62.7868 12.4833 62.8301 12.3733 62.9168 12.28C63.0035 12.1933 63.1268 12.15 63.2868 12.15C63.4135 12.15 63.5235 12.2 63.6168 12.3C63.7101 12.4 63.7935 12.5233 63.8668 12.67C63.9401 12.8167 64.0201 12.9633 64.1068 13.11C64.1935 13.2567 64.3201 13.38 64.4868 13.48C64.6601 13.5867 64.8635 13.64 65.0968 13.64C65.4301 13.64 65.6968 13.4867 65.8968 13.18C66.0968 12.8733 66.1968 12.4033 66.1968 11.77V11.44C65.8635 11.8133 65.4135 12 64.8468 12C64.2135 12 63.6668 11.7767 63.2068 11.33C62.7468 10.8767 62.5168 10.2967 62.5168 9.59C62.5168 8.86333 62.7401 8.26667 63.1868 7.8C63.6401 7.33333 64.2001 7.1 64.8668 7.1C65.4668 7.1 65.9468 7.31333 66.3068 7.74V7.36C66.3068 7.27333 66.3401 7.21 66.4068 7.17C66.4735 7.13 66.5635 7.12333 66.6768 7.15L67.5468 7.33ZM65.1168 11.62C65.3901 11.62 65.6368 11.5067 65.8568 11.28C66.0835 11.0533 66.1968 10.7367 66.1968 10.33V8.83C66.1968 8.49667 66.0668 8.19 65.8068 7.91C65.5468 7.62333 65.2468 7.48 64.9068 7.48C64.5335 7.48 64.2335 7.63333 64.0068 7.94C63.7868 8.24 63.6701 8.65333 63.6568 9.18C63.6435 9.83333 63.7735 10.4033 64.0468 10.89C64.3201 11.3767 64.6768 11.62 65.1168 11.62ZM70.8965 12C70.7498 12 70.6765 11.9533 70.6765 11.86V11.83C70.6765 11.77 70.7398 11.6833 70.8665 11.57C70.9932 11.45 71.0565 11.3167 71.0565 11.17V5.73C71.0565 5.58333 70.9932 5.45333 70.8665 5.34C70.7398 5.22 70.6765 5.13 70.6765 5.07V5.04C70.6765 4.94667 70.7432 4.9 70.8765 4.9H75.2465C75.3998 4.9 75.4932 4.98667 75.5265 5.16L75.7665 6.24C75.7998 6.39333 75.7432 6.47 75.5965 6.47H75.5565C75.4498 6.47 75.3298 6.38333 75.1965 6.21C75.0632 6.03 74.9198 5.85333 74.7665 5.68C74.6132 5.5 74.4532 5.41 74.2865 5.41H72.6165C72.3898 5.41 72.2765 5.53333 72.2765 5.78V8.42H73.8465C73.9865 8.42 74.1232 8.31 74.2565 8.09C74.3898 7.87 74.4898 7.76 74.5565 7.76H74.6265C74.7265 7.76 74.7765 7.82333 74.7765 7.95V9.37C74.7765 9.49667 74.7265 9.56 74.6265 9.56H74.5565C74.4898 9.56 74.3898 9.45667 74.2565 9.25C74.1232 9.03667 73.9865 8.93 73.8465 8.93H72.2765V11.17C72.2765 11.3167 72.3432 11.45 72.4765 11.57C72.6165 11.6833 72.6865 11.77 72.6865 11.83V11.86C72.6865 11.9533 72.6132 12 72.4665 12H70.8965ZM78.4102 12.1C77.5902 12.1 76.9335 11.85 76.4402 11.35C75.9468 10.85 75.7002 10.25 75.7002 9.55C75.7002 8.85 75.9402 8.26667 76.4202 7.8C76.9002 7.33333 77.4868 7.1 78.1802 7.1C78.9535 7.1 79.5868 7.34667 80.0802 7.84C80.5735 8.32667 80.8202 8.92333 80.8202 9.63C80.8202 10.33 80.5968 10.9167 80.1502 11.39C79.7035 11.8633 79.1235 12.1 78.4102 12.1ZM78.5602 11.72C78.8802 11.72 79.1402 11.5733 79.3402 11.28C79.5402 10.98 79.6402 10.5667 79.6402 10.04C79.6402 9.33333 79.4868 8.73 79.1802 8.23C78.8802 7.73 78.5035 7.48 78.0502 7.48C77.6902 7.48 77.4035 7.62667 77.1902 7.92C76.9835 8.20667 76.8802 8.62 76.8802 9.16C76.8802 9.81333 77.0368 10.4033 77.3502 10.93C77.6702 11.4567 78.0735 11.72 78.5602 11.72ZM84.2428 7.1C84.5295 7.1 84.7528 7.18 84.9128 7.34C85.0795 7.5 85.1628 7.7 85.1628 7.94C85.1628 8.36 84.9895 8.57 84.6428 8.57C84.4961 8.57 84.3828 8.53 84.3028 8.45C84.2228 8.37 84.1728 8.28 84.1528 8.18C84.1328 8.08 84.0861 7.99 84.0128 7.91C83.9395 7.83 83.8395 7.79 83.7128 7.79C83.4928 7.79 83.3228 7.91 83.2028 8.15C83.0828 8.39 83.0228 8.68333 83.0228 9.03V11.17C83.0228 11.3167 83.0995 11.4467 83.2528 11.56C83.4061 11.6733 83.4828 11.76 83.4828 11.82V11.86C83.4828 11.9533 83.4128 12 83.2728 12H81.7228C81.5828 12 81.5128 11.9533 81.5128 11.86V11.82C81.5128 11.76 81.5761 11.6733 81.7028 11.56C81.8295 11.4467 81.8928 11.3167 81.8928 11.17V8.48C81.8928 8.32667 81.8195 8.19667 81.6728 8.09C81.5328 7.97667 81.4628 7.89 81.4628 7.83V7.8C81.4628 7.72667 81.5228 7.65667 81.6428 7.59L82.6228 7.14C82.8161 7.04667 82.9128 7.10333 82.9128 7.31V8.09C83.1395 7.43 83.5828 7.1 84.2428 7.1ZM89.5274 10.53C89.5808 10.4567 89.6474 10.43 89.7274 10.45C89.8141 10.47 89.8541 10.53 89.8474 10.63C89.7941 10.99 89.5974 11.3267 89.2574 11.64C88.9174 11.9467 88.4641 12.1 87.8974 12.1C87.1574 12.1 86.5574 11.8667 86.0974 11.4C85.6374 10.9333 85.4074 10.32 85.4074 9.56C85.4074 8.84 85.6374 8.25333 86.0974 7.8C86.5574 7.34 87.1341 7.10667 87.8274 7.1C88.3674 7.09333 88.8074 7.21 89.1474 7.45C89.4941 7.69 89.6674 8.02667 89.6674 8.46C89.6674 8.82 89.5174 9.12667 89.2174 9.38C88.9241 9.63333 88.5374 9.81333 88.0574 9.92C87.6641 10.0067 87.1808 10.0233 86.6074 9.97C86.7341 10.37 86.9374 10.6867 87.2174 10.92C87.4974 11.1467 87.8274 11.26 88.2074 11.26C88.5274 11.26 88.8008 11.1933 89.0274 11.06C89.2541 10.92 89.4208 10.7433 89.5274 10.53ZM87.6574 7.5C87.3108 7.5 87.0274 7.65 86.8074 7.95C86.5874 8.24333 86.4774 8.61 86.4774 9.05C86.4774 9.21667 86.4874 9.37667 86.5074 9.53C87.0074 9.57 87.4508 9.55 87.8374 9.47C88.0641 9.41667 88.2408 9.31667 88.3674 9.17C88.4941 9.01667 88.5541 8.78 88.5474 8.46C88.5408 8.19333 88.4541 7.96667 88.2874 7.78C88.1274 7.59333 87.9174 7.5 87.6574 7.5ZM92.4579 12.09C91.8379 12.09 91.3346 11.9733 90.9479 11.74C90.5612 11.5 90.3679 11.2333 90.3679 10.94C90.3679 10.7933 90.4112 10.68 90.4979 10.6C90.5912 10.52 90.7146 10.48 90.8679 10.48C91.0012 10.48 91.1112 10.5233 91.1979 10.61C91.2912 10.6967 91.3646 10.8033 91.4179 10.93C91.4712 11.0567 91.5312 11.1833 91.5979 11.31C91.6712 11.43 91.7779 11.5333 91.9179 11.62C92.0646 11.7067 92.2446 11.75 92.4579 11.75C92.7312 11.75 92.9512 11.6833 93.1179 11.55C93.2912 11.4167 93.3779 11.2267 93.3779 10.98C93.3779 10.7333 93.2779 10.5433 93.0779 10.41C92.8779 10.27 92.6346 10.1667 92.3479 10.1C92.0679 10.0333 91.7846 9.95667 91.4979 9.87C91.2112 9.78333 90.9679 9.63 90.7679 9.41C90.5679 9.18333 90.4679 8.88667 90.4679 8.52C90.4679 8.11333 90.6512 7.77667 91.0179 7.51C91.3846 7.23667 91.8546 7.1 92.4279 7.1C93.0212 7.1 93.5012 7.22333 93.8679 7.47C94.2412 7.71 94.4279 7.98333 94.4279 8.29C94.4279 8.41667 94.3846 8.52 94.2979 8.6C94.2112 8.68 94.1012 8.72 93.9679 8.72C93.8412 8.72 93.7346 8.67667 93.6479 8.59C93.5679 8.50333 93.4979 8.4 93.4379 8.28C93.3846 8.15333 93.3246 8.03 93.2579 7.91C93.1979 7.78333 93.1012 7.67667 92.9679 7.59C92.8412 7.50333 92.6812 7.46 92.4879 7.46C92.2479 7.46 92.0479 7.53333 91.8879 7.68C91.7279 7.82667 91.6479 8.01 91.6479 8.23C91.6479 8.47667 91.7479 8.67 91.9479 8.81C92.1479 8.95 92.3879 9.05667 92.6679 9.13C92.9546 9.19667 93.2412 9.27333 93.5279 9.36C93.8146 9.44667 94.0579 9.6 94.2579 9.82C94.4579 10.04 94.5579 10.3333 94.5579 10.7C94.5579 11.1 94.3646 11.4333 93.9779 11.7C93.5979 11.96 93.0912 12.09 92.4579 12.09ZM97.0052 12.1C96.5718 12.1 96.2285 11.9633 95.9752 11.69C95.7285 11.41 95.6052 11.0067 95.6052 10.48V7.69H95.0352C94.9218 7.69 94.8652 7.63333 94.8652 7.52V7.38C94.8652 7.26 94.9218 7.2 95.0352 7.2H95.3452C95.5985 7.2 95.8018 7.11333 95.9552 6.94C96.1152 6.76667 96.2152 6.53 96.2552 6.23C96.2752 6.08333 96.3418 6.01 96.4552 6.01H96.6052C96.7318 6.01 96.7952 6.08333 96.7952 6.23L96.8052 7.2H98.0652C98.1185 7.2 98.1618 7.21667 98.1952 7.25C98.2285 7.28333 98.2452 7.32667 98.2452 7.38V7.52C98.2452 7.63333 98.1852 7.69 98.0652 7.69H96.8052V10.49C96.8052 10.7233 96.8585 10.9067 96.9652 11.04C97.0718 11.1667 97.2085 11.23 97.3752 11.23C97.7752 11.23 98.0118 11.0567 98.0852 10.71C98.1118 10.6567 98.1518 10.6233 98.2052 10.61C98.2585 10.5967 98.3052 10.6033 98.3452 10.63C98.3918 10.6567 98.4152 10.7 98.4152 10.76C98.4152 11.12 98.2852 11.4333 98.0252 11.7C97.7718 11.9667 97.4318 12.1 97.0052 12.1ZM101.404 12C101.258 12 101.184 11.95 101.184 11.85V11.82C101.184 11.7667 101.248 11.6833 101.374 11.57C101.501 11.45 101.564 11.3167 101.564 11.17V5.73C101.564 5.59 101.501 5.46 101.374 5.34C101.248 5.22 101.184 5.13333 101.184 5.08V5.04C101.184 4.94667 101.258 4.9 101.404 4.9H103.474C104.408 4.9 105.168 5.09 105.754 5.47C106.341 5.84333 106.634 6.42333 106.634 7.21C106.634 7.97 106.374 8.56667 105.854 9C105.341 9.42667 104.634 9.64 103.734 9.64H102.774V11.17C102.774 11.3167 102.841 11.45 102.974 11.57C103.114 11.6833 103.184 11.7667 103.184 11.82V11.85C103.184 11.95 103.114 12 102.974 12H101.404ZM103.164 9.14H103.734C104.248 9.14 104.651 8.99 104.944 8.69C105.244 8.39 105.394 7.99333 105.394 7.5C105.394 6.83333 105.204 6.31667 104.824 5.95C104.451 5.58333 104.001 5.4 103.474 5.4H103.064C102.871 5.4 102.774 5.52667 102.774 5.78V8.74C102.774 9.00667 102.904 9.14 103.164 9.14ZM109.926 7.1C110.213 7.1 110.436 7.18 110.596 7.34C110.763 7.5 110.846 7.7 110.846 7.94C110.846 8.36 110.673 8.57 110.326 8.57C110.18 8.57 110.066 8.53 109.986 8.45C109.906 8.37 109.856 8.28 109.836 8.18C109.816 8.08 109.77 7.99 109.696 7.91C109.623 7.83 109.523 7.79 109.396 7.79C109.176 7.79 109.006 7.91 108.886 8.15C108.766 8.39 108.706 8.68333 108.706 9.03V11.17C108.706 11.3167 108.783 11.4467 108.936 11.56C109.09 11.6733 109.166 11.76 109.166 11.82V11.86C109.166 11.9533 109.096 12 108.956 12H107.406C107.266 12 107.196 11.9533 107.196 11.86V11.82C107.196 11.76 107.26 11.6733 107.386 11.56C107.513 11.4467 107.576 11.3167 107.576 11.17V8.48C107.576 8.32667 107.503 8.19667 107.356 8.09C107.216 7.97667 107.146 7.89 107.146 7.83V7.8C107.146 7.72667 107.206 7.65667 107.326 7.59L108.306 7.14C108.5 7.04667 108.596 7.10333 108.596 7.31V8.09C108.823 7.43 109.266 7.1 109.926 7.1ZM113.791 12.1C112.971 12.1 112.314 11.85 111.821 11.35C111.328 10.85 111.081 10.25 111.081 9.55C111.081 8.85 111.321 8.26667 111.801 7.8C112.281 7.33333 112.868 7.1 113.561 7.1C114.334 7.1 114.968 7.34667 115.461 7.84C115.954 8.32667 116.201 8.92333 116.201 9.63C116.201 10.33 115.978 10.9167 115.531 11.39C115.084 11.8633 114.504 12.1 113.791 12.1ZM113.941 11.72C114.261 11.72 114.521 11.5733 114.721 11.28C114.921 10.98 115.021 10.5667 115.021 10.04C115.021 9.33333 114.868 8.73 114.561 8.23C114.261 7.73 113.884 7.48 113.431 7.48C113.071 7.48 112.784 7.62667 112.571 7.92C112.364 8.20667 112.261 8.62 112.261 9.16C112.261 9.81333 112.418 10.4033 112.731 10.93C113.051 11.4567 113.454 11.72 113.941 11.72ZM121.604 11.17C121.604 11.3167 121.667 11.45 121.794 11.57C121.92 11.69 121.984 11.7767 121.984 11.83V11.86C121.984 11.9533 121.927 12 121.814 12H120.774C120.654 12 120.587 11.9367 120.574 11.81L120.544 11.46C120.21 11.8867 119.744 12.1 119.144 12.1C118.504 12.1 117.954 11.87 117.494 11.41C117.04 10.95 116.814 10.3433 116.814 9.59C116.814 8.86333 117.037 8.26667 117.484 7.8C117.937 7.33333 118.497 7.1 119.164 7.1C119.684 7.1 120.12 7.27 120.474 7.61V5.73C120.474 5.60333 120.434 5.5 120.354 5.42C120.28 5.34 120.204 5.27667 120.124 5.23C120.05 5.17667 120.014 5.12 120.014 5.06V5.04C120.014 4.95333 120.074 4.88667 120.194 4.84L121.254 4.5C121.487 4.42 121.604 4.48 121.604 4.68V11.17ZM119.414 11.72C119.687 11.72 119.93 11.6067 120.144 11.38C120.364 11.1533 120.474 10.8367 120.474 10.43V8.83C120.474 8.49667 120.347 8.19 120.094 7.91C119.84 7.62333 119.544 7.48 119.204 7.48C118.83 7.48 118.53 7.63333 118.304 7.94C118.077 8.24 117.96 8.65333 117.954 9.18C117.94 9.88 118.067 10.4767 118.334 10.97C118.607 11.4633 118.967 11.7133 119.414 11.72ZM127.296 11.06C127.296 11.2333 127.322 11.3633 127.376 11.45C127.429 11.5367 127.486 11.5867 127.546 11.6C127.612 11.6067 127.672 11.6267 127.726 11.66C127.779 11.6867 127.806 11.7367 127.806 11.81C127.806 11.9767 127.556 12.06 127.056 12.06C126.776 12.06 126.569 12.0033 126.436 11.89C126.302 11.7767 126.239 11.5867 126.246 11.32C125.952 11.84 125.452 12.1 124.746 12.1C124.186 12.1 123.736 11.9133 123.396 11.54C123.056 11.1667 122.886 10.6267 122.886 9.92V8.19C122.886 8.03667 122.822 7.9 122.696 7.78C122.569 7.65333 122.506 7.56667 122.506 7.52V7.49C122.506 7.39 122.566 7.33 122.686 7.31L123.736 7.14C123.962 7.10667 124.076 7.15667 124.076 7.29L124.056 10.03C124.056 11.09 124.389 11.62 125.056 11.62C125.362 11.62 125.616 11.4967 125.816 11.25C126.022 10.9967 126.126 10.67 126.126 10.27V8.19C126.126 8.03667 126.059 7.9 125.926 7.78C125.799 7.65333 125.736 7.56667 125.736 7.52V7.49C125.736 7.39 125.792 7.33 125.906 7.31L126.976 7.14C127.189 7.10667 127.296 7.15667 127.296 7.29V11.06ZM130.808 12.1C130.088 12.1 129.478 11.8567 128.978 11.37C128.484 10.8767 128.238 10.28 128.238 9.58C128.238 8.84 128.481 8.24333 128.968 7.79C129.454 7.33667 130.051 7.10667 130.758 7.1C131.304 7.09333 131.774 7.22667 132.168 7.5C132.568 7.76667 132.768 8.07333 132.768 8.42C132.768 8.54667 132.724 8.65333 132.638 8.74C132.558 8.82 132.431 8.85667 132.258 8.85C132.098 8.84333 131.954 8.76667 131.828 8.62C131.701 8.47333 131.598 8.31667 131.518 8.15C131.438 7.98333 131.314 7.83 131.148 7.69C130.988 7.55 130.794 7.48 130.568 7.48C130.228 7.48 129.951 7.62667 129.738 7.92C129.524 8.21333 129.418 8.58 129.418 9.02C129.418 9.7 129.581 10.2467 129.908 10.66C130.234 11.0667 130.664 11.27 131.198 11.27C131.778 11.27 132.208 10.9967 132.488 10.45C132.541 10.37 132.611 10.34 132.698 10.36C132.784 10.38 132.821 10.44 132.808 10.54C132.754 10.9667 132.551 11.3333 132.198 11.64C131.851 11.9467 131.388 12.1 130.808 12.1ZM137.477 10.53C137.53 10.4567 137.597 10.43 137.677 10.45C137.763 10.47 137.803 10.53 137.797 10.63C137.743 10.99 137.547 11.3267 137.207 11.64C136.867 11.9467 136.413 12.1 135.847 12.1C135.107 12.1 134.507 11.8667 134.047 11.4C133.587 10.9333 133.357 10.32 133.357 9.56C133.357 8.84 133.587 8.25333 134.047 7.8C134.507 7.34 135.083 7.10667 135.777 7.1C136.317 7.09333 136.757 7.21 137.097 7.45C137.443 7.69 137.617 8.02667 137.617 8.46C137.617 8.82 137.467 9.12667 137.167 9.38C136.873 9.63333 136.487 9.81333 136.007 9.92C135.613 10.0067 135.13 10.0233 134.557 9.97C134.683 10.37 134.887 10.6867 135.167 10.92C135.447 11.1467 135.777 11.26 136.157 11.26C136.477 11.26 136.75 11.1933 136.977 11.06C137.203 10.92 137.37 10.7433 137.477 10.53ZM135.607 7.5C135.26 7.5 134.977 7.65 134.757 7.95C134.537 8.24333 134.427 8.61 134.427 9.05C134.427 9.21667 134.437 9.37667 134.457 9.53C134.957 9.57 135.4 9.55 135.787 9.47C136.013 9.41667 136.19 9.31667 136.317 9.17C136.443 9.01667 136.503 8.78 136.497 8.46C136.49 8.19333 136.403 7.96667 136.237 7.78C136.077 7.59333 135.867 7.5 135.607 7.5ZM5.7 23.07C5.58667 23.07 5.53 23.01 5.53 22.89V22.62C5.53 22.5067 5.58667 22.45 5.7 22.45H8.89C9.00333 22.45 9.06 22.5067 9.06 22.62V22.89C9.06 23.01 9.00333 23.07 8.89 23.07H5.7ZM20.1483 25.15C20.1749 25.2967 20.2483 25.43 20.3683 25.55C20.4883 25.67 20.5483 25.7633 20.5483 25.83V25.86C20.5483 25.9533 20.4783 26 20.3383 26H18.8183C18.6783 26 18.6083 25.9533 18.6083 25.86V25.83C18.6083 25.7767 18.6716 25.6867 18.7983 25.56C18.9249 25.4333 18.9749 25.2967 18.9483 25.15L18.1483 20.54L16.3083 25.75C16.2483 25.91 16.1516 25.99 16.0183 25.99C15.8649 25.99 15.7583 25.9133 15.6983 25.76L13.7383 20.42L12.9983 25.15C12.9783 25.29 13.0349 25.4267 13.1683 25.56C13.3083 25.6867 13.3783 25.7767 13.3783 25.83V25.86C13.3783 25.9533 13.3049 26 13.1583 26H12.1483C12.0016 26 11.9283 25.9533 11.9283 25.86V25.83C11.9283 25.7633 11.9883 25.6667 12.1083 25.54C12.2349 25.4133 12.3083 25.2833 12.3283 25.15L13.2283 19.75C13.2483 19.6033 13.1949 19.47 13.0683 19.35C12.9483 19.2233 12.8883 19.1333 12.8883 19.08V19.05C12.8883 18.95 12.9483 18.9 13.0683 18.9H14.6783C14.8049 18.9 14.8683 18.95 14.8683 19.05V19.08C14.8683 19.12 14.8349 19.1733 14.7683 19.24C14.7083 19.3067 14.6549 19.3833 14.6083 19.47C14.5616 19.55 14.5583 19.6433 14.5983 19.75L16.1783 24.34L17.7883 19.7C17.8283 19.5667 17.7883 19.44 17.6683 19.32C17.5483 19.1933 17.4883 19.1133 17.4883 19.08V19.05C17.4883 18.95 17.5483 18.9 17.6683 18.9H19.3183C19.4383 18.9 19.4983 18.9467 19.4983 19.04V19.07C19.4983 19.1233 19.4316 19.2167 19.2983 19.35C19.1649 19.4833 19.1149 19.6367 19.1483 19.81L20.1483 25.15ZM26.115 21.57C26.115 21.61 26.0817 21.66 26.015 21.72C25.9483 21.7733 25.8817 21.8467 25.815 21.94C25.7483 22.0333 25.715 22.1433 25.715 22.27V25.17C25.715 25.3167 25.7783 25.45 25.905 25.57C26.0317 25.69 26.095 25.7767 26.095 25.83V25.86C26.095 25.9533 26.0383 26 25.925 26H24.885C24.7583 26 24.695 25.9367 24.695 25.81V25.41C24.3683 25.87 23.8883 26.1 23.255 26.1C22.615 26.1 22.065 25.87 21.605 25.41C21.1517 24.95 20.925 24.3433 20.925 23.59C20.925 22.8633 21.1483 22.2667 21.595 21.8C22.0483 21.3333 22.6083 21.1 23.275 21.1C23.855 21.1 24.3283 21.31 24.695 21.73V21.36C24.695 21.2733 24.7283 21.21 24.795 21.17C24.8617 21.13 24.9517 21.1233 25.065 21.15L25.935 21.33C26.055 21.3633 26.115 21.4333 26.115 21.54V21.57ZM23.525 25.72C23.7983 25.72 24.0417 25.6067 24.255 25.38C24.475 25.1533 24.585 24.8367 24.585 24.43V22.83C24.585 22.4967 24.4583 22.19 24.205 21.91C23.9517 21.6233 23.655 21.48 23.315 21.48C22.9417 21.48 22.6417 21.6333 22.415 21.94C22.1883 22.24 22.0717 22.6533 22.065 23.18C22.0517 23.88 22.1783 24.4767 22.445 24.97C22.7183 25.4633 23.0783 25.7133 23.525 25.72ZM29.5944 21.1C29.881 21.1 30.1044 21.18 30.2644 21.34C30.431 21.5 30.5144 21.7 30.5144 21.94C30.5144 22.36 30.341 22.57 29.9944 22.57C29.8477 22.57 29.7344 22.53 29.6544 22.45C29.5744 22.37 29.5244 22.28 29.5044 22.18C29.4844 22.08 29.4377 21.99 29.3644 21.91C29.291 21.83 29.191 21.79 29.0644 21.79C28.8444 21.79 28.6744 21.91 28.5544 22.15C28.4344 22.39 28.3744 22.6833 28.3744 23.03V25.17C28.3744 25.3167 28.451 25.4467 28.6044 25.56C28.7577 25.6733 28.8344 25.76 28.8344 25.82V25.86C28.8344 25.9533 28.7644 26 28.6244 26H27.0744C26.9344 26 26.8644 25.9533 26.8644 25.86V25.82C26.8644 25.76 26.9277 25.6733 27.0544 25.56C27.181 25.4467 27.2444 25.3167 27.2444 25.17V22.48C27.2444 22.3267 27.171 22.1967 27.0244 22.09C26.8844 21.9767 26.8144 21.89 26.8144 21.83V21.8C26.8144 21.7267 26.8744 21.6567 26.9944 21.59L27.9744 21.14C28.1677 21.0467 28.2644 21.1033 28.2644 21.31V22.09C28.491 21.43 28.9344 21.1 29.5944 21.1ZM35.6771 25.33C35.7104 25.3833 35.7938 25.4567 35.9271 25.55C36.0671 25.6367 36.1371 25.7267 36.1371 25.82V25.85C36.1371 25.95 36.0804 26 35.9671 26H34.4071C34.2871 26 34.2271 25.9467 34.2271 25.84V25.81C34.2271 25.7433 34.2738 25.67 34.3671 25.59C34.4604 25.5033 34.4804 25.4167 34.4271 25.33L33.2871 23.67C33.0271 23.7367 32.7338 23.7767 32.4071 23.79V25.15C32.4071 25.29 32.4771 25.42 32.6171 25.54C32.7571 25.6533 32.8271 25.7433 32.8271 25.81V25.85C32.8271 25.95 32.7538 26 32.6071 26H31.0571C30.9104 26 30.8371 25.95 30.8371 25.85V25.81C30.8371 25.7433 30.9004 25.6533 31.0271 25.54C31.1538 25.42 31.2171 25.29 31.2171 25.15V19.92C31.2171 19.7667 31.1471 19.6233 31.0071 19.49C30.8671 19.35 30.7971 19.2567 30.7971 19.21V19.19C30.7971 19.1167 30.8571 19.0567 30.9771 19.01L32.0671 18.5C32.1738 18.4533 32.2571 18.45 32.3171 18.49C32.3771 18.5233 32.4071 18.5833 32.4071 18.67V23.27C32.7604 23.2567 33.0571 23.1933 33.2971 23.08C33.5438 22.96 33.7204 22.8233 33.8271 22.67C33.9338 22.51 34.0271 22.34 34.1071 22.16C34.1938 21.9733 34.2571 21.8033 34.2971 21.65C34.3371 21.4967 34.4038 21.37 34.4971 21.27C34.5904 21.1633 34.7104 21.11 34.8571 21.11C35.0304 21.11 35.1604 21.1567 35.2471 21.25C35.3404 21.3433 35.3871 21.4667 35.3871 21.62C35.3871 21.86 35.2904 22.14 35.0971 22.46C34.9104 22.7733 34.6304 23.0467 34.2571 23.28L35.6771 25.33ZM40.2305 24.53C40.2839 24.4567 40.3505 24.43 40.4305 24.45C40.5172 24.47 40.5572 24.53 40.5505 24.63C40.4972 24.99 40.3005 25.3267 39.9605 25.64C39.6205 25.9467 39.1672 26.1 38.6005 26.1C37.8605 26.1 37.2605 25.8667 36.8005 25.4C36.3405 24.9333 36.1105 24.32 36.1105 23.56C36.1105 22.84 36.3405 22.2533 36.8005 21.8C37.2605 21.34 37.8372 21.1067 38.5305 21.1C39.0705 21.0933 39.5105 21.21 39.8505 21.45C40.1972 21.69 40.3705 22.0267 40.3705 22.46C40.3705 22.82 40.2205 23.1267 39.9205 23.38C39.6272 23.6333 39.2405 23.8133 38.7605 23.92C38.3672 24.0067 37.8839 24.0233 37.3105 23.97C37.4372 24.37 37.6405 24.6867 37.9205 24.92C38.2005 25.1467 38.5305 25.26 38.9105 25.26C39.2305 25.26 39.5039 25.1933 39.7305 25.06C39.9572 24.92 40.1239 24.7433 40.2305 24.53ZM38.3605 21.5C38.0139 21.5 37.7305 21.65 37.5105 21.95C37.2905 22.2433 37.1805 22.61 37.1805 23.05C37.1805 23.2167 37.1905 23.3767 37.2105 23.53C37.7105 23.57 38.1539 23.55 38.5405 23.47C38.7672 23.4167 38.9439 23.3167 39.0705 23.17C39.1972 23.0167 39.2572 22.78 39.2505 22.46C39.2439 22.1933 39.1572 21.9667 38.9905 21.78C38.8305 21.5933 38.6205 21.5 38.3605 21.5ZM42.9915 26.1C42.5582 26.1 42.2148 25.9633 41.9615 25.69C41.7148 25.41 41.5915 25.0067 41.5915 24.48V21.69H41.0215C40.9082 21.69 40.8515 21.6333 40.8515 21.52V21.38C40.8515 21.26 40.9082 21.2 41.0215 21.2H41.3315C41.5848 21.2 41.7882 21.1133 41.9415 20.94C42.1015 20.7667 42.2015 20.53 42.2415 20.23C42.2615 20.0833 42.3282 20.01 42.4415 20.01H42.5915C42.7182 20.01 42.7815 20.0833 42.7815 20.23L42.7915 21.2H44.0515C44.1048 21.2 44.1482 21.2167 44.1815 21.25C44.2148 21.2833 44.2315 21.3267 44.2315 21.38V21.52C44.2315 21.6333 44.1715 21.69 44.0515 21.69H42.7915V24.49C42.7915 24.7233 42.8448 24.9067 42.9515 25.04C43.0582 25.1667 43.1948 25.23 43.3615 25.23C43.7615 25.23 43.9982 25.0567 44.0715 24.71C44.0982 24.6567 44.1382 24.6233 44.1915 24.61C44.2448 24.5967 44.2915 24.6033 44.3315 24.63C44.3782 24.6567 44.4015 24.7 44.4015 24.76C44.4015 25.12 44.2715 25.4333 44.0115 25.7C43.7582 25.9667 43.4182 26.1 42.9915 26.1ZM49.8406 26.1C48.9406 26.1 48.234 25.91 47.7206 25.53C47.2073 25.1433 46.9506 24.74 46.9506 24.32C46.9506 24.1733 46.994 24.0533 47.0806 23.96C47.1673 23.86 47.2873 23.8133 47.4406 23.82C47.5806 23.8267 47.704 23.8767 47.8106 23.97C47.9173 24.0567 48.0006 24.1667 48.0606 24.3C48.1273 24.4333 48.2073 24.5767 48.3006 24.73C48.4006 24.8833 48.5073 25.0267 48.6206 25.16C48.7406 25.2933 48.9073 25.4033 49.1206 25.49C49.3406 25.5767 49.5973 25.62 49.8906 25.62C50.2973 25.62 50.6273 25.51 50.8806 25.29C51.134 25.07 51.2606 24.78 51.2606 24.42C51.2606 24.1133 51.184 23.86 51.0306 23.66C50.8773 23.46 50.6773 23.3133 50.4306 23.22C50.1906 23.1267 49.9206 23.05 49.6206 22.99C49.3273 22.9233 49.0306 22.85 48.7306 22.77C48.4373 22.6833 48.1673 22.5733 47.9206 22.44C47.6806 22.3067 47.484 22.1033 47.3306 21.83C47.1773 21.5567 47.1006 21.2167 47.1006 20.81C47.1006 20.23 47.3306 19.7533 47.7906 19.38C48.2506 19 48.8806 18.81 49.6806 18.81C50.4806 18.81 51.1273 18.9867 51.6206 19.34C52.1206 19.6867 52.3673 20.07 52.3606 20.49C52.3606 20.83 52.1873 21 51.8406 21C51.694 21 51.5673 20.96 51.4606 20.88C51.3606 20.7933 51.284 20.6867 51.2306 20.56C51.1773 20.4333 51.1073 20.2967 51.0206 20.15C50.9406 19.9967 50.8506 19.8567 50.7506 19.73C50.6573 19.6033 50.514 19.5 50.3206 19.42C50.134 19.3333 49.9106 19.29 49.6506 19.29C49.2306 19.29 48.904 19.4033 48.6706 19.63C48.4373 19.8567 48.3206 20.14 48.3206 20.48C48.3206 20.7733 48.3973 21.0167 48.5506 21.21C48.704 21.3967 48.9006 21.5367 49.1406 21.63C49.3873 21.7233 49.6573 21.8067 49.9506 21.88C50.2506 21.9467 50.5473 22.0267 50.8406 22.12C51.1406 22.2067 51.4106 22.32 51.6506 22.46C51.8973 22.6 52.0973 22.8067 52.2506 23.08C52.404 23.3533 52.4806 23.69 52.4806 24.09C52.4806 24.7033 52.224 25.1933 51.7106 25.56C51.1973 25.92 50.574 26.1 49.8406 26.1ZM54.9641 26.1C54.5308 26.1 54.1875 25.9633 53.9341 25.69C53.6875 25.41 53.5641 25.0067 53.5641 24.48V21.69H52.9941C52.8808 21.69 52.8241 21.6333 52.8241 21.52V21.38C52.8241 21.26 52.8808 21.2 52.9941 21.2H53.3041C53.5575 21.2 53.7608 21.1133 53.9141 20.94C54.0741 20.7667 54.1741 20.53 54.2141 20.23C54.2341 20.0833 54.3008 20.01 54.4141 20.01H54.5641C54.6908 20.01 54.7541 20.0833 54.7541 20.23L54.7641 21.2H56.0241C56.0775 21.2 56.1208 21.2167 56.1541 21.25C56.1875 21.2833 56.2041 21.3267 56.2041 21.38V21.52C56.2041 21.6333 56.1441 21.69 56.0241 21.69H54.7641V24.49C54.7641 24.7233 54.8175 24.9067 54.9241 25.04C55.0308 25.1667 55.1675 25.23 55.3341 25.23C55.7341 25.23 55.9708 25.0567 56.0441 24.71C56.0708 24.6567 56.1108 24.6233 56.1641 24.61C56.2175 24.5967 56.2641 24.6033 56.3041 24.63C56.3508 24.6567 56.3741 24.7 56.3741 24.76C56.3741 25.12 56.2441 25.4333 55.9841 25.7C55.7308 25.9667 55.3908 26.1 54.9641 26.1ZM61.4948 25.06C61.4948 25.2333 61.5215 25.3633 61.5748 25.45C61.6282 25.5367 61.6848 25.5867 61.7448 25.6C61.8115 25.6067 61.8715 25.6267 61.9248 25.66C61.9782 25.6867 62.0048 25.7367 62.0048 25.81C62.0048 25.9767 61.7548 26.06 61.2548 26.06C60.9748 26.06 60.7682 26.0033 60.6348 25.89C60.5015 25.7767 60.4382 25.5867 60.4448 25.32C60.1515 25.84 59.6515 26.1 58.9448 26.1C58.3848 26.1 57.9348 25.9133 57.5948 25.54C57.2548 25.1667 57.0848 24.6267 57.0848 23.92V22.19C57.0848 22.0367 57.0215 21.9 56.8948 21.78C56.7682 21.6533 56.7048 21.5667 56.7048 21.52V21.49C56.7048 21.39 56.7648 21.33 56.8848 21.31L57.9348 21.14C58.1615 21.1067 58.2748 21.1567 58.2748 21.29L58.2548 24.03C58.2548 25.09 58.5882 25.62 59.2548 25.62C59.5615 25.62 59.8148 25.4967 60.0148 25.25C60.2215 24.9967 60.3248 24.67 60.3248 24.27V22.19C60.3248 22.0367 60.2582 21.9 60.1248 21.78C59.9982 21.6533 59.9348 21.5667 59.9348 21.52V21.49C59.9348 21.39 59.9915 21.33 60.1048 21.31L61.1748 21.14C61.3882 21.1067 61.4948 21.1567 61.4948 21.29V25.06ZM67.3068 25.17C67.3068 25.3167 67.3701 25.45 67.4968 25.57C67.6235 25.69 67.6868 25.7767 67.6868 25.83V25.86C67.6868 25.9533 67.6301 26 67.5168 26H66.4768C66.3568 26 66.2901 25.9367 66.2768 25.81L66.2468 25.46C65.9135 25.8867 65.4468 26.1 64.8468 26.1C64.2068 26.1 63.6568 25.87 63.1968 25.41C62.7435 24.95 62.5168 24.3433 62.5168 23.59C62.5168 22.8633 62.7401 22.2667 63.1868 21.8C63.6401 21.3333 64.2001 21.1 64.8668 21.1C65.3868 21.1 65.8235 21.27 66.1768 21.61V19.73C66.1768 19.6033 66.1368 19.5 66.0568 19.42C65.9835 19.34 65.9068 19.2767 65.8268 19.23C65.7535 19.1767 65.7168 19.12 65.7168 19.06V19.04C65.7168 18.9533 65.7768 18.8867 65.8968 18.84L66.9568 18.5C67.1901 18.42 67.3068 18.48 67.3068 18.68V25.17ZM65.1168 25.72C65.3901 25.72 65.6335 25.6067 65.8468 25.38C66.0668 25.1533 66.1768 24.8367 66.1768 24.43V22.83C66.1768 22.4967 66.0501 22.19 65.7968 21.91C65.5435 21.6233 65.2468 21.48 64.9068 21.48C64.5335 21.48 64.2335 21.6333 64.0068 21.94C63.7801 22.24 63.6635 22.6533 63.6568 23.18C63.6435 23.88 63.7701 24.4767 64.0368 24.97C64.3101 25.4633 64.6701 25.7133 65.1168 25.72ZM72.6288 21.12C72.8488 21.0933 72.9588 21.15 72.9588 21.29V25.5C72.9588 26.3067 72.7321 26.9267 72.2788 27.36C71.8321 27.7933 71.2521 28.01 70.5387 28.01C69.9454 28.01 69.4488 27.8633 69.0488 27.57C68.6554 27.2767 68.4588 26.9433 68.4588 26.57C68.4588 26.4367 68.5021 26.3233 68.5888 26.23C68.6821 26.1433 68.8054 26.1 68.9588 26.1C69.1188 26.1 69.2521 26.18 69.3588 26.34C69.4721 26.5 69.5588 26.6733 69.6188 26.86C69.6854 27.0533 69.8088 27.23 69.9888 27.39C70.1688 27.5567 70.4021 27.64 70.6888 27.64C71.4221 27.64 71.7888 26.98 71.7888 25.66V25.41C71.4754 25.8033 71.0154 26 70.4088 26C69.8821 26 69.4454 25.81 69.0988 25.43C68.7588 25.0433 68.5888 24.54 68.5888 23.92V22.19C68.5888 22.0367 68.5254 21.9 68.3988 21.78C68.2721 21.6533 68.2088 21.5667 68.2088 21.52V21.49C68.2088 21.39 68.2688 21.33 68.3888 21.31L69.4387 21.14C69.6654 21.1067 69.7788 21.1567 69.7788 21.29L69.7588 24.03C69.7588 24.5033 69.8421 24.87 70.0088 25.13C70.1754 25.39 70.4121 25.52 70.7188 25.52C71.0254 25.52 71.2788 25.4 71.4788 25.16C71.6854 24.9133 71.7888 24.6033 71.7888 24.23V22.19C71.7888 22.0367 71.7221 21.9 71.5888 21.78C71.4621 21.6533 71.3988 21.5667 71.3988 21.52V21.49C71.3988 21.39 71.4554 21.33 71.5688 21.31L72.6288 21.12ZM78.6543 26.1C77.8343 26.1 77.1776 25.85 76.6843 25.35C76.191 24.85 75.9443 24.25 75.9443 23.55C75.9443 22.85 76.1843 22.2667 76.6643 21.8C77.1443 21.3333 77.731 21.1 78.4243 21.1C79.1976 21.1 79.831 21.3467 80.3243 21.84C80.8176 22.3267 81.0643 22.9233 81.0643 23.63C81.0643 24.33 80.841 24.9167 80.3943 25.39C79.9476 25.8633 79.3676 26.1 78.6543 26.1ZM78.8043 25.72C79.1243 25.72 79.3843 25.5733 79.5843 25.28C79.7843 24.98 79.8843 24.5667 79.8843 24.04C79.8843 23.3333 79.731 22.73 79.4243 22.23C79.1243 21.73 78.7476 21.48 78.2943 21.48C77.9343 21.48 77.6476 21.6267 77.4343 21.92C77.2276 22.2067 77.1243 22.62 77.1243 23.16C77.1243 23.8133 77.281 24.4033 77.5943 24.93C77.9143 25.4567 78.3176 25.72 78.8043 25.72ZM84.0298 18.65C84.4098 18.65 84.7398 18.7567 85.0198 18.97C85.2998 19.1833 85.4398 19.4367 85.4398 19.73C85.4398 19.8367 85.3964 19.9367 85.3098 20.03C85.2298 20.1167 85.1198 20.16 84.9798 20.16C84.7598 20.16 84.5998 20.1033 84.4998 19.99C84.3998 19.87 84.3464 19.74 84.3398 19.6C84.3331 19.4533 84.2898 19.32 84.2098 19.2C84.1298 19.08 83.9964 19.02 83.8098 19.02C83.4898 19.0133 83.2998 19.2367 83.2398 19.69C83.1798 20.1433 83.2264 20.6467 83.3798 21.2H84.6998C84.7464 21.2 84.7864 21.2167 84.8198 21.25C84.8531 21.2833 84.8698 21.3233 84.8698 21.37V21.53C84.8698 21.6367 84.8131 21.69 84.6998 21.69H83.4198V25.16C83.4198 25.3067 83.4998 25.44 83.6598 25.56C83.8198 25.6733 83.8998 25.76 83.8998 25.82V25.86C83.8998 25.9533 83.8431 26 83.7298 26H82.0398C81.9198 26 81.8598 25.9533 81.8598 25.86V25.82C81.8598 25.76 81.9231 25.6733 82.0498 25.56C82.1831 25.44 82.2498 25.3067 82.2498 25.16V21.69H81.4798C81.3598 21.69 81.2998 21.6367 81.2998 21.53V21.37C81.2998 21.3233 81.3164 21.2833 81.3498 21.25C81.3898 21.2167 81.4331 21.2 81.4798 21.2H82.2498V20.45C82.2498 19.9167 82.4031 19.4833 82.7098 19.15C83.0164 18.8167 83.4564 18.65 84.0298 18.65ZM87.6055 26C87.4588 26 87.3855 25.9533 87.3855 25.86V25.83C87.3855 25.77 87.4488 25.6833 87.5755 25.57C87.7021 25.45 87.7655 25.3167 87.7655 25.17V19.73C87.7655 19.5833 87.7021 19.4533 87.5755 19.34C87.4488 19.22 87.3855 19.13 87.3855 19.07V19.04C87.3855 18.9467 87.4521 18.9 87.5855 18.9H91.9555C92.1088 18.9 92.2021 18.9867 92.2355 19.16L92.4755 20.24C92.5088 20.3933 92.4521 20.47 92.3055 20.47H92.2655C92.1588 20.47 92.0388 20.3833 91.9055 20.21C91.7721 20.03 91.6288 19.8533 91.4755 19.68C91.3221 19.5 91.1621 19.41 90.9955 19.41H89.3255C89.0988 19.41 88.9855 19.5333 88.9855 19.78V22.42H90.5555C90.6955 22.42 90.8321 22.31 90.9655 22.09C91.0988 21.87 91.1988 21.76 91.2655 21.76H91.3355C91.4355 21.76 91.4855 21.8233 91.4855 21.95V23.37C91.4855 23.4967 91.4355 23.56 91.3355 23.56H91.2655C91.1988 23.56 91.0988 23.4567 90.9655 23.25C90.8321 23.0367 90.6955 22.93 90.5555 22.93H88.9855V25.17C88.9855 25.3167 89.0521 25.45 89.1855 25.57C89.3255 25.6833 89.3955 25.77 89.3955 25.83V25.86C89.3955 25.9533 89.3221 26 89.1755 26H87.6055ZM95.1191 26.1C94.2991 26.1 93.6425 25.85 93.1491 25.35C92.6558 24.85 92.4091 24.25 92.4091 23.55C92.4091 22.85 92.6491 22.2667 93.1291 21.8C93.6091 21.3333 94.1958 21.1 94.8891 21.1C95.6625 21.1 96.2958 21.3467 96.7891 21.84C97.2825 22.3267 97.5291 22.9233 97.5291 23.63C97.5291 24.33 97.3058 24.9167 96.8591 25.39C96.4125 25.8633 95.8325 26.1 95.1191 26.1ZM95.2691 25.72C95.5891 25.72 95.8491 25.5733 96.0491 25.28C96.2491 24.98 96.3491 24.5667 96.3491 24.04C96.3491 23.3333 96.1958 22.73 95.8891 22.23C95.5891 21.73 95.2125 21.48 94.7591 21.48C94.3991 21.48 94.1125 21.6267 93.8991 21.92C93.6925 22.2067 93.5891 22.62 93.5891 23.16C93.5891 23.8133 93.7458 24.4033 94.0591 24.93C94.3791 25.4567 94.7825 25.72 95.2691 25.72ZM100.952 21.1C101.238 21.1 101.462 21.18 101.622 21.34C101.788 21.5 101.872 21.7 101.872 21.94C101.872 22.36 101.698 22.57 101.352 22.57C101.205 22.57 101.092 22.53 101.012 22.45C100.932 22.37 100.882 22.28 100.862 22.18C100.842 22.08 100.795 21.99 100.722 21.91C100.648 21.83 100.548 21.79 100.422 21.79C100.202 21.79 100.032 21.91 99.9118 22.15C99.7918 22.39 99.7318 22.6833 99.7318 23.03V25.17C99.7318 25.3167 99.8085 25.4467 99.9618 25.56C100.115 25.6733 100.192 25.76 100.192 25.82V25.86C100.192 25.9533 100.122 26 99.9818 26H98.4318C98.2918 26 98.2218 25.9533 98.2218 25.86V25.82C98.2218 25.76 98.2851 25.6733 98.4118 25.56C98.5385 25.4467 98.6018 25.3167 98.6018 25.17V22.48C98.6018 22.3267 98.5285 22.1967 98.3818 22.09C98.2418 21.9767 98.1718 21.89 98.1718 21.83V21.8C98.1718 21.7267 98.2318 21.6567 98.3518 21.59L99.3318 21.14C99.5251 21.0467 99.6218 21.1033 99.6218 21.31V22.09C99.8485 21.43 100.292 21.1 100.952 21.1ZM106.236 24.53C106.29 24.4567 106.356 24.43 106.436 24.45C106.523 24.47 106.563 24.53 106.556 24.63C106.503 24.99 106.306 25.3267 105.966 25.64C105.626 25.9467 105.173 26.1 104.606 26.1C103.866 26.1 103.266 25.8667 102.806 25.4C102.346 24.9333 102.116 24.32 102.116 23.56C102.116 22.84 102.346 22.2533 102.806 21.8C103.266 21.34 103.843 21.1067 104.536 21.1C105.076 21.0933 105.516 21.21 105.856 21.45C106.203 21.69 106.376 22.0267 106.376 22.46C106.376 22.82 106.226 23.1267 105.926 23.38C105.633 23.6333 105.246 23.8133 104.766 23.92C104.373 24.0067 103.89 24.0233 103.316 23.97C103.443 24.37 103.646 24.6867 103.926 24.92C104.206 25.1467 104.536 25.26 104.916 25.26C105.236 25.26 105.51 25.1933 105.736 25.06C105.963 24.92 106.13 24.7433 106.236 24.53ZM104.366 21.5C104.02 21.5 103.736 21.65 103.516 21.95C103.296 22.2433 103.186 22.61 103.186 23.05C103.186 23.2167 103.196 23.3767 103.216 23.53C103.716 23.57 104.16 23.55 104.546 23.47C104.773 23.4167 104.95 23.3167 105.076 23.17C105.203 23.0167 105.263 22.78 105.256 22.46C105.25 22.1933 105.163 21.9667 104.996 21.78C104.836 21.5933 104.626 21.5 104.366 21.5ZM109.167 26.09C108.547 26.09 108.044 25.9733 107.657 25.74C107.27 25.5 107.077 25.2333 107.077 24.94C107.077 24.7933 107.12 24.68 107.207 24.6C107.3 24.52 107.424 24.48 107.577 24.48C107.71 24.48 107.82 24.5233 107.907 24.61C108 24.6967 108.074 24.8033 108.127 24.93C108.18 25.0567 108.24 25.1833 108.307 25.31C108.38 25.43 108.487 25.5333 108.627 25.62C108.774 25.7067 108.954 25.75 109.167 25.75C109.44 25.75 109.66 25.6833 109.827 25.55C110 25.4167 110.087 25.2267 110.087 24.98C110.087 24.7333 109.987 24.5433 109.787 24.41C109.587 24.27 109.344 24.1667 109.057 24.1C108.777 24.0333 108.494 23.9567 108.207 23.87C107.92 23.7833 107.677 23.63 107.477 23.41C107.277 23.1833 107.177 22.8867 107.177 22.52C107.177 22.1133 107.36 21.7767 107.727 21.51C108.094 21.2367 108.564 21.1 109.137 21.1C109.73 21.1 110.21 21.2233 110.577 21.47C110.95 21.71 111.137 21.9833 111.137 22.29C111.137 22.4167 111.094 22.52 111.007 22.6C110.92 22.68 110.81 22.72 110.677 22.72C110.55 22.72 110.444 22.6767 110.357 22.59C110.277 22.5033 110.207 22.4 110.147 22.28C110.094 22.1533 110.034 22.03 109.967 21.91C109.907 21.7833 109.81 21.6767 109.677 21.59C109.55 21.5033 109.39 21.46 109.197 21.46C108.957 21.46 108.757 21.5333 108.597 21.68C108.437 21.8267 108.357 22.01 108.357 22.23C108.357 22.4767 108.457 22.67 108.657 22.81C108.857 22.95 109.097 23.0567 109.377 23.13C109.664 23.1967 109.95 23.2733 110.237 23.36C110.524 23.4467 110.767 23.6 110.967 23.82C111.167 24.04 111.267 24.3333 111.267 24.7C111.267 25.1 111.074 25.4333 110.687 25.7C110.307 25.96 109.8 26.09 109.167 26.09ZM113.714 26.1C113.281 26.1 112.937 25.9633 112.684 25.69C112.437 25.41 112.314 25.0067 112.314 24.48V21.69H111.744C111.631 21.69 111.574 21.6333 111.574 21.52V21.38C111.574 21.26 111.631 21.2 111.744 21.2H112.054C112.307 21.2 112.511 21.1133 112.664 20.94C112.824 20.7667 112.924 20.53 112.964 20.23C112.984 20.0833 113.051 20.01 113.164 20.01H113.314C113.441 20.01 113.504 20.0833 113.504 20.23L113.514 21.2H114.774C114.827 21.2 114.871 21.2167 114.904 21.25C114.937 21.2833 114.954 21.3267 114.954 21.38V21.52C114.954 21.6333 114.894 21.69 114.774 21.69H113.514V24.49C113.514 24.7233 113.567 24.9067 113.674 25.04C113.781 25.1667 113.917 25.23 114.084 25.23C114.484 25.23 114.721 25.0567 114.794 24.71C114.821 24.6567 114.861 24.6233 114.914 24.61C114.967 24.5967 115.014 24.6033 115.054 24.63C115.101 24.6567 115.124 24.7 115.124 24.76C115.124 25.12 114.994 25.4333 114.734 25.7C114.481 25.9667 114.141 26.1 113.714 26.1ZM118.113 26C117.967 26 117.893 25.95 117.893 25.85V25.82C117.893 25.7667 117.957 25.6833 118.083 25.57C118.21 25.45 118.273 25.3167 118.273 25.17V19.73C118.273 19.59 118.21 19.46 118.083 19.34C117.957 19.22 117.893 19.1333 117.893 19.08V19.04C117.893 18.9467 117.967 18.9 118.113 18.9H120.183C121.117 18.9 121.877 19.09 122.463 19.47C123.05 19.8433 123.343 20.4233 123.343 21.21C123.343 21.97 123.083 22.5667 122.563 23C122.05 23.4267 121.343 23.64 120.443 23.64H119.483V25.17C119.483 25.3167 119.55 25.45 119.683 25.57C119.823 25.6833 119.893 25.7667 119.893 25.82V25.85C119.893 25.95 119.823 26 119.683 26H118.113ZM119.873 23.14H120.443C120.957 23.14 121.36 22.99 121.653 22.69C121.953 22.39 122.103 21.9933 122.103 21.5C122.103 20.8333 121.913 20.3167 121.533 19.95C121.16 19.5833 120.71 19.4 120.183 19.4H119.773C119.58 19.4 119.483 19.5267 119.483 19.78V22.74C119.483 23.0067 119.613 23.14 119.873 23.14ZM126.635 21.1C126.922 21.1 127.145 21.18 127.305 21.34C127.472 21.5 127.555 21.7 127.555 21.94C127.555 22.36 127.382 22.57 127.035 22.57C126.889 22.57 126.775 22.53 126.695 22.45C126.615 22.37 126.565 22.28 126.545 22.18C126.525 22.08 126.479 21.99 126.405 21.91C126.332 21.83 126.232 21.79 126.105 21.79C125.885 21.79 125.715 21.91 125.595 22.15C125.475 22.39 125.415 22.6833 125.415 23.03V25.17C125.415 25.3167 125.492 25.4467 125.645 25.56C125.799 25.6733 125.875 25.76 125.875 25.82V25.86C125.875 25.9533 125.805 26 125.665 26H124.115C123.975 26 123.905 25.9533 123.905 25.86V25.82C123.905 25.76 123.969 25.6733 124.095 25.56C124.222 25.4467 124.285 25.3167 124.285 25.17V22.48C124.285 22.3267 124.212 22.1967 124.065 22.09C123.925 21.9767 123.855 21.89 123.855 21.83V21.8C123.855 21.7267 123.915 21.6567 124.035 21.59L125.015 21.14C125.209 21.0467 125.305 21.1033 125.305 21.31V22.09C125.532 21.43 125.975 21.1 126.635 21.1ZM130.5 26.1C129.68 26.1 129.023 25.85 128.53 25.35C128.037 24.85 127.79 24.25 127.79 23.55C127.79 22.85 128.03 22.2667 128.51 21.8C128.99 21.3333 129.577 21.1 130.27 21.1C131.043 21.1 131.677 21.3467 132.17 21.84C132.663 22.3267 132.91 22.9233 132.91 23.63C132.91 24.33 132.687 24.9167 132.24 25.39C131.793 25.8633 131.213 26.1 130.5 26.1ZM130.65 25.72C130.97 25.72 131.23 25.5733 131.43 25.28C131.63 24.98 131.73 24.5667 131.73 24.04C131.73 23.3333 131.577 22.73 131.27 22.23C130.97 21.73 130.593 21.48 130.14 21.48C129.78 21.48 129.493 21.6267 129.28 21.92C129.073 22.2067 128.97 22.62 128.97 23.16C128.97 23.8133 129.127 24.4033 129.44 24.93C129.76 25.4567 130.163 25.72 130.65 25.72ZM138.313 25.17C138.313 25.3167 138.376 25.45 138.503 25.57C138.629 25.69 138.693 25.7767 138.693 25.83V25.86C138.693 25.9533 138.636 26 138.523 26H137.483C137.363 26 137.296 25.9367 137.283 25.81L137.253 25.46C136.919 25.8867 136.453 26.1 135.853 26.1C135.213 26.1 134.663 25.87 134.203 25.41C133.749 24.95 133.523 24.3433 133.523 23.59C133.523 22.8633 133.746 22.2667 134.193 21.8C134.646 21.3333 135.206 21.1 135.873 21.1C136.393 21.1 136.829 21.27 137.183 21.61V19.73C137.183 19.6033 137.143 19.5 137.063 19.42C136.989 19.34 136.913 19.2767 136.833 19.23C136.759 19.1767 136.723 19.12 136.723 19.06V19.04C136.723 18.9533 136.783 18.8867 136.903 18.84L137.963 18.5C138.196 18.42 138.313 18.48 138.313 18.68V25.17ZM136.123 25.72C136.396 25.72 136.639 25.6067 136.853 25.38C137.073 25.1533 137.183 24.8367 137.183 24.43V22.83C137.183 22.4967 137.056 22.19 136.803 21.91C136.549 21.6233 136.253 21.48 135.913 21.48C135.539 21.48 135.239 21.6333 135.013 21.94C134.786 22.24 134.669 22.6533 134.663 23.18C134.649 23.88 134.776 24.4767 135.043 24.97C135.316 25.4633 135.676 25.7133 136.123 25.72ZM144.005 25.06C144.005 25.2333 144.031 25.3633 144.085 25.45C144.138 25.5367 144.195 25.5867 144.255 25.6C144.321 25.6067 144.381 25.6267 144.435 25.66C144.488 25.6867 144.515 25.7367 144.515 25.81C144.515 25.9767 144.265 26.06 143.765 26.06C143.485 26.06 143.278 26.0033 143.145 25.89C143.011 25.7767 142.948 25.5867 142.955 25.32C142.661 25.84 142.161 26.1 141.455 26.1C140.895 26.1 140.445 25.9133 140.105 25.54C139.765 25.1667 139.595 24.6267 139.595 23.92V22.19C139.595 22.0367 139.531 21.9 139.405 21.78C139.278 21.6533 139.215 21.5667 139.215 21.52V21.49C139.215 21.39 139.275 21.33 139.395 21.31L140.445 21.14C140.671 21.1067 140.785 21.1567 140.785 21.29L140.765 24.03C140.765 25.09 141.098 25.62 141.765 25.62C142.071 25.62 142.325 25.4967 142.525 25.25C142.731 24.9967 142.835 24.67 142.835 24.27V22.19C142.835 22.0367 142.768 21.9 142.635 21.78C142.508 21.6533 142.445 21.5667 142.445 21.52V21.49C142.445 21.39 142.501 21.33 142.615 21.31L143.685 21.14C143.898 21.1067 144.005 21.1567 144.005 21.29V25.06ZM147.517 26.1C146.797 26.1 146.187 25.8567 145.687 25.37C145.193 24.8767 144.947 24.28 144.947 23.58C144.947 22.84 145.19 22.2433 145.677 21.79C146.163 21.3367 146.76 21.1067 147.467 21.1C148.013 21.0933 148.483 21.2267 148.877 21.5C149.277 21.7667 149.477 22.0733 149.477 22.42C149.477 22.5467 149.433 22.6533 149.347 22.74C149.267 22.82 149.14 22.8567 148.967 22.85C148.807 22.8433 148.663 22.7667 148.537 22.62C148.41 22.4733 148.307 22.3167 148.227 22.15C148.147 21.9833 148.023 21.83 147.857 21.69C147.697 21.55 147.503 21.48 147.277 21.48C146.937 21.48 146.66 21.6267 146.447 21.92C146.233 22.2133 146.127 22.58 146.127 23.02C146.127 23.7 146.29 24.2467 146.617 24.66C146.943 25.0667 147.373 25.27 147.907 25.27C148.487 25.27 148.917 24.9967 149.197 24.45C149.25 24.37 149.32 24.34 149.407 24.36C149.493 24.38 149.53 24.44 149.517 24.54C149.463 24.9667 149.26 25.3333 148.907 25.64C148.56 25.9467 148.097 26.1 147.517 26.1ZM154.186 24.53C154.239 24.4567 154.306 24.43 154.386 24.45C154.472 24.47 154.512 24.53 154.506 24.63C154.452 24.99 154.256 25.3267 153.916 25.64C153.576 25.9467 153.122 26.1 152.556 26.1C151.816 26.1 151.216 25.8667 150.756 25.4C150.296 24.9333 150.066 24.32 150.066 23.56C150.066 22.84 150.296 22.2533 150.756 21.8C151.216 21.34 151.792 21.1067 152.486 21.1C153.026 21.0933 153.466 21.21 153.806 21.45C154.152 21.69 154.326 22.0267 154.326 22.46C154.326 22.82 154.176 23.1267 153.876 23.38C153.582 23.6333 153.196 23.8133 152.716 23.92C152.322 24.0067 151.839 24.0233 151.266 23.97C151.392 24.37 151.596 24.6867 151.876 24.92C152.156 25.1467 152.486 25.26 152.866 25.26C153.186 25.26 153.459 25.1933 153.686 25.06C153.912 24.92 154.079 24.7433 154.186 24.53ZM152.316 21.5C151.969 21.5 151.686 21.65 151.466 21.95C151.246 22.2433 151.136 22.61 151.136 23.05C151.136 23.2167 151.146 23.3767 151.166 23.53C151.666 23.57 152.109 23.55 152.496 23.47C152.722 23.4167 152.899 23.3167 153.026 23.17C153.152 23.0167 153.212 22.78 153.206 22.46C153.199 22.1933 153.112 21.9667 152.946 21.78C152.786 21.5933 152.576 21.5 152.316 21.5Z" fill="black"/>
</svg>
