<svg width="157" height="37" viewBox="0 0 157 37" fill="none" xmlns="http://www.w3.org/2000/svg">
<rect width="157" height="37" rx="10" fill="#D9D9D9"/>
<path d="M5.81621 19.07C5.70288 19.07 5.64621 19.01 5.64621 18.89V18.62C5.64621 18.5067 5.70288 18.45 5.81621 18.45H9.00621C9.11954 18.45 9.17621 18.5067 9.17621 18.62V18.89C9.17621 19.01 9.11954 19.07 9.00621 19.07H5.81621ZM15.5145 22.1C14.6212 22.1 13.8312 21.72 13.1445 20.96C12.4645 20.1933 12.1245 19.33 12.1245 18.37C12.1245 17.33 12.4345 16.4767 13.0545 15.81C13.6745 15.1433 14.4712 14.81 15.4445 14.81C16.1978 14.81 16.8512 15.0133 17.4045 15.42C17.9578 15.82 18.2345 16.24 18.2345 16.68C18.2345 16.8467 18.1845 16.98 18.0845 17.08C17.9845 17.18 17.8445 17.23 17.6645 17.23C17.4978 17.23 17.3478 17.1667 17.2145 17.04C17.0812 16.9067 16.9578 16.7467 16.8445 16.56C16.7378 16.3733 16.6178 16.1867 16.4845 16C16.3578 15.8067 16.1812 15.6467 15.9545 15.52C15.7345 15.3867 15.4745 15.32 15.1745 15.32C14.6612 15.32 14.2212 15.54 13.8545 15.98C13.4945 16.4133 13.3145 16.9767 13.3145 17.67C13.3145 18.6367 13.5678 19.44 14.0745 20.08C14.5812 20.7133 15.1645 21.03 15.8245 21.03C16.3178 21.03 16.7412 20.8833 17.0945 20.59C17.4478 20.2967 17.7178 19.9567 17.9045 19.57C17.9512 19.5033 18.0112 19.4633 18.0845 19.45C18.1578 19.43 18.2212 19.4467 18.2745 19.5C18.3278 19.5467 18.3478 19.6167 18.3345 19.71C18.2412 20.3833 17.9478 20.95 17.4545 21.41C16.9678 21.87 16.3212 22.1 15.5145 22.1ZM21.583 22.1C20.763 22.1 20.1063 21.85 19.613 21.35C19.1197 20.85 18.873 20.25 18.873 19.55C18.873 18.85 19.113 18.2667 19.593 17.8C20.073 17.3333 20.6597 17.1 21.353 17.1C22.1263 17.1 22.7597 17.3467 23.253 17.84C23.7463 18.3267 23.993 18.9233 23.993 19.63C23.993 20.33 23.7697 20.9167 23.323 21.39C22.8763 21.8633 22.2963 22.1 21.583 22.1ZM21.733 21.72C22.053 21.72 22.313 21.5733 22.513 21.28C22.713 20.98 22.813 20.5667 22.813 20.04C22.813 19.3333 22.6597 18.73 22.353 18.23C22.053 17.73 21.6763 17.48 21.223 17.48C20.863 17.48 20.5763 17.6267 20.363 17.92C20.1563 18.2067 20.053 18.62 20.053 19.16C20.053 19.8133 20.2097 20.4033 20.523 20.93C20.843 21.4567 21.2463 21.72 21.733 21.72ZM32.8157 21.16C32.8223 21.3067 32.8823 21.44 32.9957 21.56C33.1157 21.68 33.1757 21.77 33.1757 21.83V21.87C33.1757 21.9633 33.1057 22.01 32.9657 22.01H31.4957C31.3557 22.01 31.2857 21.9633 31.2857 21.87V21.83C31.2857 21.77 31.3457 21.6833 31.4657 21.57C31.5857 21.45 31.6423 21.3167 31.6357 21.17L31.5357 19.28C31.509 18.68 31.4057 18.2467 31.2257 17.98C31.0523 17.7133 30.8023 17.58 30.4757 17.58C30.2023 17.58 29.969 17.6933 29.7757 17.92C29.589 18.14 29.489 18.42 29.4757 18.76C29.5023 18.8933 29.5157 19.0533 29.5157 19.24V21.17C29.5157 21.3167 29.5723 21.45 29.6857 21.57C29.8057 21.6833 29.8657 21.77 29.8657 21.83V21.87C29.8657 21.9633 29.7957 22.01 29.6557 22.01H28.2057C28.059 22.01 27.9857 21.9633 27.9857 21.87V21.83C27.9857 21.77 28.0423 21.6833 28.1557 21.57C28.2757 21.45 28.3357 21.3167 28.3357 21.17V19.17C28.3357 18.67 28.2357 18.28 28.0357 18C27.8423 17.72 27.5923 17.58 27.2857 17.58C26.9857 17.58 26.739 17.6933 26.5457 17.92C26.3523 18.14 26.249 18.4233 26.2357 18.77L26.2457 21.17C26.2457 21.3167 26.3123 21.45 26.4457 21.57C26.579 21.6833 26.6457 21.77 26.6457 21.83V21.87C26.6457 21.9633 26.5757 22.01 26.4357 22.01H24.8857C24.739 22.01 24.6657 21.9633 24.6657 21.87V21.83C24.6657 21.77 24.7323 21.6833 24.8657 21.57C24.999 21.45 25.0657 21.3167 25.0657 21.17V18.49C25.0657 18.37 25.029 18.27 24.9557 18.19C24.8823 18.11 24.809 18.0433 24.7357 17.99C24.6623 17.9367 24.6257 17.88 24.6257 17.82V17.79C24.6257 17.7233 24.6857 17.6633 24.8057 17.61L25.8257 17.14C25.9323 17.0933 26.0123 17.09 26.0657 17.13C26.119 17.1633 26.1457 17.2267 26.1457 17.32V17.91C26.2923 17.6633 26.489 17.4667 26.7357 17.32C26.989 17.1733 27.269 17.1 27.5757 17.1C27.9423 17.1 28.2723 17.1867 28.5657 17.36C28.8657 17.5333 29.099 17.7767 29.2657 18.09C29.3923 17.7767 29.5957 17.5333 29.8757 17.36C30.1557 17.1867 30.4723 17.1 30.8257 17.1C31.3457 17.1 31.7723 17.2767 32.1057 17.63C32.4457 17.9767 32.6423 18.5367 32.6957 19.31L32.8157 21.16ZM36.5379 17.1C37.1713 17.1 37.7146 17.3233 38.1679 17.77C38.6279 18.21 38.8579 18.7933 38.8579 19.52C38.8579 20.2667 38.6313 20.8833 38.1779 21.37C37.7313 21.8567 37.1879 22.1 36.5479 22.1C36.0079 22.1 35.5679 21.9233 35.2279 21.57V23.38C35.2279 23.5267 35.2946 23.6567 35.4279 23.77C35.5679 23.89 35.6379 23.98 35.6379 24.04V24.07C35.6379 24.17 35.5646 24.22 35.4179 24.22H33.8979C33.7513 24.22 33.6779 24.17 33.6779 24.07V24.04C33.6779 23.98 33.7413 23.89 33.8679 23.77C33.9946 23.6567 34.0579 23.5267 34.0579 23.38V18.48C34.0579 18.34 33.9846 18.2167 33.8379 18.11C33.6979 18.0033 33.6279 17.9167 33.6279 17.85V17.81C33.6279 17.7233 33.6879 17.6533 33.8079 17.6L34.7279 17.15C34.9479 17.0367 35.0579 17.09 35.0579 17.31L35.0479 17.86C35.1879 17.62 35.3879 17.4333 35.6479 17.3C35.9079 17.1667 36.2046 17.1 36.5379 17.1ZM36.4079 21.72C36.8079 21.72 37.1179 21.56 37.3379 21.24C37.5646 20.92 37.6779 20.47 37.6779 19.89C37.6779 19.17 37.5446 18.59 37.2779 18.15C37.0179 17.7033 36.6746 17.48 36.2479 17.48C35.9946 17.48 35.7679 17.5733 35.5679 17.76C35.3746 17.94 35.2613 18.17 35.2279 18.45V20.3C35.2279 20.6667 35.3479 20.9967 35.5879 21.29C35.8279 21.5767 36.1013 21.72 36.4079 21.72ZM39.7087 22C39.5687 22 39.4987 21.95 39.4987 21.85V21.82C39.4987 21.7533 39.5587 21.6633 39.6787 21.55C39.8054 21.4367 39.8687 21.31 39.8687 21.17V15.9C39.8687 15.74 39.8054 15.5967 39.6787 15.47C39.5587 15.3433 39.4987 15.26 39.4987 15.22V15.19C39.4987 15.13 39.5554 15.07 39.6687 15.01L40.6787 14.51C40.792 14.4633 40.8787 14.46 40.9387 14.5C41.0054 14.5333 41.0387 14.59 41.0387 14.67V21.17C41.0387 21.31 41.1054 21.44 41.2387 21.56C41.3787 21.6733 41.4487 21.76 41.4487 21.82V21.85C41.4487 21.95 41.3754 22 41.2287 22H39.7087ZM46.1671 20.53C46.2204 20.4567 46.2871 20.43 46.3671 20.45C46.4537 20.47 46.4937 20.53 46.4871 20.63C46.4337 20.99 46.2371 21.3267 45.8971 21.64C45.5571 21.9467 45.1037 22.1 44.5371 22.1C43.7971 22.1 43.1971 21.8667 42.7371 21.4C42.2771 20.9333 42.0471 20.32 42.0471 19.56C42.0471 18.84 42.2771 18.2533 42.7371 17.8C43.1971 17.34 43.7737 17.1067 44.4671 17.1C45.0071 17.0933 45.4471 17.21 45.7871 17.45C46.1337 17.69 46.3071 18.0267 46.3071 18.46C46.3071 18.82 46.1571 19.1267 45.8571 19.38C45.5637 19.6333 45.1771 19.8133 44.6971 19.92C44.3037 20.0067 43.8204 20.0233 43.2471 19.97C43.3737 20.37 43.5771 20.6867 43.8571 20.92C44.1371 21.1467 44.4671 21.26 44.8471 21.26C45.1671 21.26 45.4404 21.1933 45.6671 21.06C45.8937 20.92 46.0604 20.7433 46.1671 20.53ZM44.2971 17.5C43.9504 17.5 43.6671 17.65 43.4471 17.95C43.2271 18.2433 43.1171 18.61 43.1171 19.05C43.1171 19.2167 43.1271 19.3767 43.1471 19.53C43.6471 19.57 44.0904 19.55 44.4771 19.47C44.7037 19.4167 44.8804 19.3167 45.0071 19.17C45.1337 19.0167 45.1937 18.78 45.1871 18.46C45.1804 18.1933 45.0937 17.9667 44.9271 17.78C44.7671 17.5933 44.5571 17.5 44.2971 17.5ZM48.928 22.1C48.4947 22.1 48.1513 21.9633 47.898 21.69C47.6513 21.41 47.528 21.0067 47.528 20.48V17.69H46.958C46.8447 17.69 46.788 17.6333 46.788 17.52V17.38C46.788 17.26 46.8447 17.2 46.958 17.2H47.268C47.5213 17.2 47.7247 17.1133 47.878 16.94C48.038 16.7667 48.138 16.53 48.178 16.23C48.198 16.0833 48.2647 16.01 48.378 16.01H48.528C48.6547 16.01 48.718 16.0833 48.718 16.23L48.728 17.2H49.988C50.0413 17.2 50.0847 17.2167 50.118 17.25C50.1513 17.2833 50.168 17.3267 50.168 17.38V17.52C50.168 17.6333 50.108 17.69 49.988 17.69H48.728V20.49C48.728 20.7233 48.7813 20.9067 48.888 21.04C48.9947 21.1667 49.1313 21.23 49.298 21.23C49.698 21.23 49.9347 21.0567 50.008 20.71C50.0347 20.6567 50.0747 20.6233 50.128 20.61C50.1813 20.5967 50.228 20.6033 50.268 20.63C50.3147 20.6567 50.338 20.7 50.338 20.76C50.338 21.12 50.208 21.4333 49.948 21.7C49.6947 21.9667 49.3547 22.1 48.928 22.1ZM51.7587 16.37C51.512 16.37 51.312 16.3 51.1587 16.16C51.0054 16.02 50.9287 15.84 50.9287 15.62C50.9287 15.4 51.0054 15.22 51.1587 15.08C51.312 14.94 51.512 14.87 51.7587 14.87C51.9987 14.87 52.192 14.94 52.3387 15.08C52.492 15.22 52.5687 15.4 52.5687 15.62C52.5687 15.84 52.492 16.02 52.3387 16.16C52.192 16.3 51.9987 16.37 51.7587 16.37ZM51.0187 22C50.8787 22 50.8087 21.95 50.8087 21.85V21.81C50.8087 21.75 50.8687 21.6633 50.9887 21.55C51.1154 21.4367 51.1787 21.3067 51.1787 21.16V18.54C51.1787 18.3867 51.1154 18.2433 50.9887 18.11C50.8687 17.9767 50.8087 17.89 50.8087 17.85V17.82C50.8087 17.7667 50.8687 17.7067 50.9887 17.64L51.9887 17.14C52.102 17.0933 52.1887 17.09 52.2487 17.13C52.3154 17.1633 52.3487 17.2233 52.3487 17.31V21.16C52.3487 21.3067 52.4154 21.4367 52.5487 21.55C52.6887 21.6633 52.7587 21.75 52.7587 21.81V21.85C52.7587 21.95 52.6854 22 52.5387 22H51.0187ZM58.3952 21.16C58.4019 21.3067 58.4619 21.44 58.5752 21.56C58.6952 21.6733 58.7552 21.76 58.7552 21.82V21.86C58.7552 21.96 58.6819 22.01 58.5352 22.01H57.0752C56.9285 22.01 56.8552 21.96 56.8552 21.86V21.82C56.8552 21.76 56.9152 21.6733 57.0352 21.56C57.1619 21.44 57.2219 21.3067 57.2152 21.16L57.1152 19.23C57.0685 18.13 56.7185 17.58 56.0652 17.58C55.7519 17.58 55.4985 17.6967 55.3052 17.93C55.1119 18.1567 55.0152 18.4533 55.0152 18.82V21.17C55.0152 21.3167 55.0819 21.4467 55.2152 21.56C55.3552 21.6733 55.4252 21.76 55.4252 21.82V21.86C55.4252 21.96 55.3519 22.01 55.2052 22.01H53.6552C53.5152 22.01 53.4452 21.96 53.4452 21.86V21.82C53.4452 21.76 53.5119 21.6733 53.6452 21.56C53.7785 21.4467 53.8452 21.3167 53.8452 21.17V18.49C53.8452 18.3633 53.8052 18.26 53.7252 18.18C53.6519 18.1 53.5785 18.0367 53.5052 17.99C53.4319 17.9367 53.3952 17.88 53.3952 17.82V17.79C53.3952 17.7233 53.4552 17.6633 53.5752 17.61L54.5452 17.14C54.6519 17.0933 54.7285 17.09 54.7752 17.13C54.8285 17.1633 54.8552 17.2267 54.8552 17.32V17.97C54.9952 17.6967 55.1985 17.4833 55.4652 17.33C55.7319 17.1767 56.0352 17.1 56.3752 17.1C56.8885 17.1 57.3219 17.2767 57.6752 17.63C58.0285 17.9833 58.2285 18.53 58.2752 19.27L58.3952 21.16ZM64.2841 17.33C64.4041 17.3633 64.4641 17.4333 64.4641 17.54V17.57C64.4641 17.61 64.4308 17.66 64.3641 17.72C64.2974 17.7733 64.2308 17.8467 64.1641 17.94C64.0974 18.0333 64.0641 18.1433 64.0641 18.27V21.46C64.0641 22.28 63.8508 22.91 63.4241 23.35C63.0041 23.79 62.4574 24.01 61.7841 24.01C61.1174 24.01 60.5741 23.8633 60.1541 23.57C59.7341 23.2767 59.5241 22.9567 59.5241 22.61C59.5241 22.4833 59.5674 22.3733 59.6541 22.28C59.7408 22.1933 59.8641 22.15 60.0241 22.15C60.1508 22.15 60.2608 22.2 60.3541 22.3C60.4474 22.4 60.5308 22.5233 60.6041 22.67C60.6774 22.8167 60.7574 22.9633 60.8441 23.11C60.9308 23.2567 61.0574 23.38 61.2241 23.48C61.3974 23.5867 61.6008 23.64 61.8341 23.64C62.1674 23.64 62.4341 23.4867 62.6341 23.18C62.8341 22.8733 62.9341 22.4033 62.9341 21.77V21.44C62.6008 21.8133 62.1508 22 61.5841 22C60.9508 22 60.4041 21.7767 59.9441 21.33C59.4841 20.8767 59.2541 20.2967 59.2541 19.59C59.2541 18.8633 59.4774 18.2667 59.9241 17.8C60.3774 17.3333 60.9374 17.1 61.6041 17.1C62.2041 17.1 62.6841 17.3133 63.0441 17.74V17.36C63.0441 17.2733 63.0774 17.21 63.1441 17.17C63.2108 17.13 63.3008 17.1233 63.4141 17.15L64.2841 17.33ZM61.8541 21.62C62.1274 21.62 62.3741 21.5067 62.5941 21.28C62.8208 21.0533 62.9341 20.7367 62.9341 20.33V18.83C62.9341 18.4967 62.8041 18.19 62.5441 17.91C62.2841 17.6233 61.9841 17.48 61.6441 17.48C61.2708 17.48 60.9708 17.6333 60.7441 17.94C60.5241 18.24 60.4074 18.6533 60.3941 19.18C60.3808 19.8333 60.5108 20.4033 60.7841 20.89C61.0574 21.3767 61.4141 21.62 61.8541 21.62ZM70.1538 17.42C70.8071 17.42 71.3505 17.6333 71.7838 18.06C72.2238 18.4867 72.4438 19.0867 72.4438 19.86C72.4438 20.5067 72.2038 21.0433 71.7238 21.47C71.2505 21.89 70.6638 22.1 69.9638 22.1C69.1905 22.1 68.5505 21.7733 68.0438 21.12C67.5371 20.46 67.2838 19.6067 67.2838 18.56C67.2838 17.8733 67.3838 17.2533 67.5838 16.7C67.7838 16.14 68.1005 15.6833 68.5338 15.33C68.9738 14.9767 69.4971 14.8 70.1038 14.8C70.8105 14.8 71.3705 14.97 71.7838 15.31C72.1971 15.65 72.4038 16.01 72.4038 16.39C72.4038 16.5833 72.3471 16.73 72.2338 16.83C72.1271 16.9233 71.9905 16.97 71.8238 16.97C71.6505 16.97 71.5038 16.9133 71.3838 16.8C71.2705 16.6867 71.1771 16.55 71.1038 16.39C71.0305 16.2233 70.9538 16.06 70.8738 15.9C70.8005 15.7333 70.6905 15.5933 70.5438 15.48C70.4038 15.36 70.2305 15.3 70.0238 15.3C69.5771 15.3 69.2138 15.5533 68.9338 16.06C68.6605 16.5667 68.5105 17.2533 68.4838 18.12C68.9105 17.6533 69.4671 17.42 70.1538 17.42ZM70.1038 21.6C70.4571 21.6 70.7405 21.4667 70.9538 21.2C71.1671 20.9267 71.2738 20.5633 71.2738 20.11C71.2738 19.49 71.1371 18.97 70.8638 18.55C70.5971 18.13 70.2471 17.92 69.8138 17.92C69.4671 17.92 69.1705 18.04 68.9238 18.28C68.6771 18.52 68.5371 18.7967 68.5038 19.11C68.5705 19.8767 68.7438 20.4833 69.0238 20.93C69.3105 21.3767 69.6705 21.6 70.1038 21.6ZM81.1188 21.22C81.1255 21.34 81.1955 21.4567 81.3288 21.57C81.4621 21.6767 81.5288 21.7633 81.5288 21.83V21.86C81.5288 21.9533 81.4588 22 81.3188 22H79.7888C79.6488 22 79.5788 21.9533 79.5788 21.86V21.83C79.5788 21.7633 79.6288 21.6833 79.7288 21.59C79.8355 21.4967 79.8888 21.39 79.8888 21.27C79.8755 20.8167 79.7655 20.4067 79.5588 20.04C79.3521 19.6667 79.0621 19.3967 78.6888 19.23C78.5421 19.2433 78.4221 19.25 78.3288 19.25H77.1388V21.17C77.1388 21.3167 77.2055 21.45 77.3388 21.57C77.4788 21.6833 77.5488 21.77 77.5488 21.83V21.86C77.5488 21.9533 77.4755 22 77.3288 22H75.7588C75.6188 22 75.5488 21.9533 75.5488 21.86V21.83C75.5488 21.77 75.6088 21.6833 75.7288 21.57C75.8555 21.45 75.9188 21.3167 75.9188 21.17V15.73C75.9188 15.5833 75.8555 15.4533 75.7288 15.34C75.6088 15.22 75.5488 15.13 75.5488 15.07V15.04C75.5488 14.9467 75.6188 14.9 75.7588 14.9H78.0188C78.9321 14.9 79.6621 15.09 80.2088 15.47C80.7621 15.8433 81.0421 16.3933 81.0488 17.12C81.0488 17.4933 80.9321 17.8433 80.6988 18.17C80.4721 18.4967 80.1555 18.7567 79.7488 18.95C80.1621 19.1767 80.4855 19.4933 80.7188 19.9C80.9588 20.3 81.0921 20.74 81.1188 21.22ZM78.1788 18.76C78.6655 18.76 79.0555 18.63 79.3488 18.37C79.6421 18.1033 79.7888 17.7367 79.7888 17.27C79.7888 16.6833 79.6088 16.2267 79.2488 15.9C78.8888 15.5733 78.4521 15.41 77.9388 15.41H77.4388C77.2388 15.41 77.1388 15.5433 77.1388 15.81V18.17C77.1388 18.5633 77.3021 18.76 77.6288 18.76H78.1788ZM85.9815 20.53C86.0349 20.4567 86.1015 20.43 86.1815 20.45C86.2682 20.47 86.3082 20.53 86.3015 20.63C86.2482 20.99 86.0515 21.3267 85.7115 21.64C85.3715 21.9467 84.9182 22.1 84.3515 22.1C83.6115 22.1 83.0115 21.8667 82.5515 21.4C82.0915 20.9333 81.8615 20.32 81.8615 19.56C81.8615 18.84 82.0915 18.2533 82.5515 17.8C83.0115 17.34 83.5882 17.1067 84.2815 17.1C84.8215 17.0933 85.2615 17.21 85.6015 17.45C85.9482 17.69 86.1215 18.0267 86.1215 18.46C86.1215 18.82 85.9715 19.1267 85.6715 19.38C85.3782 19.6333 84.9915 19.8133 84.5115 19.92C84.1182 20.0067 83.6349 20.0233 83.0615 19.97C83.1882 20.37 83.3915 20.6867 83.6715 20.92C83.9515 21.1467 84.2815 21.26 84.6615 21.26C84.9815 21.26 85.2549 21.1933 85.4815 21.06C85.7082 20.92 85.8749 20.7433 85.9815 20.53ZM84.1115 17.5C83.7649 17.5 83.4815 17.65 83.2615 17.95C83.0415 18.2433 82.9315 18.61 82.9315 19.05C82.9315 19.2167 82.9415 19.3767 82.9615 19.53C83.4615 19.57 83.9049 19.55 84.2915 19.47C84.5182 19.4167 84.6949 19.3167 84.8215 19.17C84.9482 19.0167 85.0082 18.78 85.0015 18.46C84.9949 18.1933 84.9082 17.9667 84.7415 17.78C84.5815 17.5933 84.3715 17.5 84.1115 17.5ZM88.912 22.09C88.292 22.09 87.7887 21.9733 87.402 21.74C87.0153 21.5 86.822 21.2333 86.822 20.94C86.822 20.7933 86.8653 20.68 86.952 20.6C87.0453 20.52 87.1687 20.48 87.322 20.48C87.4553 20.48 87.5653 20.5233 87.652 20.61C87.7453 20.6967 87.8187 20.8033 87.872 20.93C87.9253 21.0567 87.9853 21.1833 88.052 21.31C88.1253 21.43 88.232 21.5333 88.372 21.62C88.5187 21.7067 88.6987 21.75 88.912 21.75C89.1853 21.75 89.4053 21.6833 89.572 21.55C89.7453 21.4167 89.832 21.2267 89.832 20.98C89.832 20.7333 89.732 20.5433 89.532 20.41C89.332 20.27 89.0887 20.1667 88.802 20.1C88.522 20.0333 88.2387 19.9567 87.952 19.87C87.6653 19.7833 87.422 19.63 87.222 19.41C87.022 19.1833 86.922 18.8867 86.922 18.52C86.922 18.1133 87.1053 17.7767 87.472 17.51C87.8387 17.2367 88.3087 17.1 88.882 17.1C89.4753 17.1 89.9553 17.2233 90.322 17.47C90.6953 17.71 90.882 17.9833 90.882 18.29C90.882 18.4167 90.8387 18.52 90.752 18.6C90.6653 18.68 90.5553 18.72 90.422 18.72C90.2953 18.72 90.1887 18.6767 90.102 18.59C90.022 18.5033 89.952 18.4 89.892 18.28C89.8387 18.1533 89.7787 18.03 89.712 17.91C89.652 17.7833 89.5553 17.6767 89.422 17.59C89.2953 17.5033 89.1353 17.46 88.942 17.46C88.702 17.46 88.502 17.5333 88.342 17.68C88.182 17.8267 88.102 18.01 88.102 18.23C88.102 18.4767 88.202 18.67 88.402 18.81C88.602 18.95 88.842 19.0567 89.122 19.13C89.4087 19.1967 89.6953 19.2733 89.982 19.36C90.2687 19.4467 90.512 19.6 90.712 19.82C90.912 20.04 91.012 20.3333 91.012 20.7C91.012 21.1 90.8187 21.4333 90.432 21.7C90.052 21.96 89.5453 22.09 88.912 22.09ZM92.5986 16.37C92.3519 16.37 92.1519 16.3 91.9986 16.16C91.8452 16.02 91.7686 15.84 91.7686 15.62C91.7686 15.4 91.8452 15.22 91.9986 15.08C92.1519 14.94 92.3519 14.87 92.5986 14.87C92.8386 14.87 93.0319 14.94 93.1786 15.08C93.3319 15.22 93.4086 15.4 93.4086 15.62C93.4086 15.84 93.3319 16.02 93.1786 16.16C93.0319 16.3 92.8386 16.37 92.5986 16.37ZM91.8586 22C91.7186 22 91.6486 21.95 91.6486 21.85V21.81C91.6486 21.75 91.7086 21.6633 91.8286 21.55C91.9552 21.4367 92.0186 21.3067 92.0186 21.16V18.54C92.0186 18.3867 91.9552 18.2433 91.8286 18.11C91.7086 17.9767 91.6486 17.89 91.6486 17.85V17.82C91.6486 17.7667 91.7086 17.7067 91.8286 17.64L92.8286 17.14C92.9419 17.0933 93.0286 17.09 93.0886 17.13C93.1552 17.1633 93.1886 17.2233 93.1886 17.31V21.16C93.1886 21.3067 93.2552 21.4367 93.3886 21.55C93.5286 21.6633 93.5986 21.75 93.5986 21.81V21.85C93.5986 21.95 93.5252 22 93.3786 22H91.8586ZM99.005 21.17C99.005 21.3167 99.0684 21.45 99.195 21.57C99.3217 21.69 99.385 21.7767 99.385 21.83V21.86C99.385 21.9533 99.3284 22 99.215 22H98.175C98.055 22 97.9884 21.9367 97.975 21.81L97.945 21.46C97.6117 21.8867 97.145 22.1 96.545 22.1C95.905 22.1 95.355 21.87 94.895 21.41C94.4417 20.95 94.215 20.3433 94.215 19.59C94.215 18.8633 94.4384 18.2667 94.885 17.8C95.3384 17.3333 95.8984 17.1 96.565 17.1C97.085 17.1 97.5217 17.27 97.875 17.61V15.73C97.875 15.6033 97.835 15.5 97.755 15.42C97.6817 15.34 97.605 15.2767 97.525 15.23C97.4517 15.1767 97.415 15.12 97.415 15.06V15.04C97.415 14.9533 97.475 14.8867 97.595 14.84L98.655 14.5C98.8884 14.42 99.005 14.48 99.005 14.68V21.17ZM96.815 21.72C97.0884 21.72 97.3317 21.6067 97.545 21.38C97.765 21.1533 97.875 20.8367 97.875 20.43V18.83C97.875 18.4967 97.7484 18.19 97.495 17.91C97.2417 17.6233 96.945 17.48 96.605 17.48C96.2317 17.48 95.9317 17.6333 95.705 17.94C95.4784 18.24 95.3617 18.6533 95.355 19.18C95.3417 19.88 95.4684 20.4767 95.735 20.97C96.0084 21.4633 96.3684 21.7133 96.815 21.72ZM104.087 20.53C104.14 20.4567 104.207 20.43 104.287 20.45C104.374 20.47 104.414 20.53 104.407 20.63C104.354 20.99 104.157 21.3267 103.817 21.64C103.477 21.9467 103.024 22.1 102.457 22.1C101.717 22.1 101.117 21.8667 100.657 21.4C100.197 20.9333 99.967 20.32 99.967 19.56C99.967 18.84 100.197 18.2533 100.657 17.8C101.117 17.34 101.694 17.1067 102.387 17.1C102.927 17.0933 103.367 17.21 103.707 17.45C104.054 17.69 104.227 18.0267 104.227 18.46C104.227 18.82 104.077 19.1267 103.777 19.38C103.484 19.6333 103.097 19.8133 102.617 19.92C102.224 20.0067 101.74 20.0233 101.167 19.97C101.294 20.37 101.497 20.6867 101.777 20.92C102.057 21.1467 102.387 21.26 102.767 21.26C103.087 21.26 103.36 21.1933 103.587 21.06C103.814 20.92 103.98 20.7433 104.087 20.53ZM102.217 17.5C101.87 17.5 101.587 17.65 101.367 17.95C101.147 18.2433 101.037 18.61 101.037 19.05C101.037 19.2167 101.047 19.3767 101.067 19.53C101.567 19.57 102.01 19.55 102.397 19.47C102.624 19.4167 102.8 19.3167 102.927 19.17C103.054 19.0167 103.114 18.78 103.107 18.46C103.1 18.1933 103.014 17.9667 102.847 17.78C102.687 17.5933 102.477 17.5 102.217 17.5ZM109.967 21.16C109.974 21.3067 110.034 21.44 110.147 21.56C110.267 21.6733 110.327 21.76 110.327 21.82V21.86C110.327 21.96 110.254 22.01 110.107 22.01H108.647C108.501 22.01 108.427 21.96 108.427 21.86V21.82C108.427 21.76 108.487 21.6733 108.607 21.56C108.734 21.44 108.794 21.3067 108.787 21.16L108.687 19.23C108.641 18.13 108.291 17.58 107.637 17.58C107.324 17.58 107.071 17.6967 106.877 17.93C106.684 18.1567 106.587 18.4533 106.587 18.82V21.17C106.587 21.3167 106.654 21.4467 106.787 21.56C106.927 21.6733 106.997 21.76 106.997 21.82V21.86C106.997 21.96 106.924 22.01 106.777 22.01H105.227C105.087 22.01 105.017 21.96 105.017 21.86V21.82C105.017 21.76 105.084 21.6733 105.217 21.56C105.351 21.4467 105.417 21.3167 105.417 21.17V18.49C105.417 18.3633 105.377 18.26 105.297 18.18C105.224 18.1 105.151 18.0367 105.077 17.99C105.004 17.9367 104.967 17.88 104.967 17.82V17.79C104.967 17.7233 105.027 17.6633 105.147 17.61L106.117 17.14C106.224 17.0933 106.301 17.09 106.347 17.13C106.401 17.1633 106.427 17.2267 106.427 17.32V17.97C106.567 17.6967 106.771 17.4833 107.037 17.33C107.304 17.1767 107.607 17.1 107.947 17.1C108.461 17.1 108.894 17.2767 109.247 17.63C109.601 17.9833 109.801 18.53 109.847 19.27L109.967 21.16ZM112.688 22.1C112.254 22.1 111.911 21.9633 111.658 21.69C111.411 21.41 111.288 21.0067 111.288 20.48V17.69H110.718C110.604 17.69 110.548 17.6333 110.548 17.52V17.38C110.548 17.26 110.604 17.2 110.718 17.2H111.028C111.281 17.2 111.484 17.1133 111.638 16.94C111.798 16.7667 111.898 16.53 111.938 16.23C111.958 16.0833 112.024 16.01 112.138 16.01H112.288C112.414 16.01 112.478 16.0833 112.478 16.23L112.488 17.2H113.748C113.801 17.2 113.844 17.2167 113.878 17.25C113.911 17.2833 113.928 17.3267 113.928 17.38V17.52C113.928 17.6333 113.868 17.69 113.748 17.69H112.488V20.49C112.488 20.7233 112.541 20.9067 112.648 21.04C112.754 21.1667 112.891 21.23 113.058 21.23C113.458 21.23 113.694 21.0567 113.768 20.71C113.794 20.6567 113.834 20.6233 113.888 20.61C113.941 20.5967 113.988 20.6033 114.028 20.63C114.074 20.6567 114.098 20.7 114.098 20.76C114.098 21.12 113.968 21.4333 113.708 21.7C113.454 21.9667 113.114 22.1 112.688 22.1ZM115.518 16.37C115.272 16.37 115.072 16.3 114.918 16.16C114.765 16.02 114.688 15.84 114.688 15.62C114.688 15.4 114.765 15.22 114.918 15.08C115.072 14.94 115.272 14.87 115.518 14.87C115.758 14.87 115.952 14.94 116.098 15.08C116.252 15.22 116.328 15.4 116.328 15.62C116.328 15.84 116.252 16.02 116.098 16.16C115.952 16.3 115.758 16.37 115.518 16.37ZM114.778 22C114.638 22 114.568 21.95 114.568 21.85V21.81C114.568 21.75 114.628 21.6633 114.748 21.55C114.875 21.4367 114.938 21.3067 114.938 21.16V18.54C114.938 18.3867 114.875 18.2433 114.748 18.11C114.628 17.9767 114.568 17.89 114.568 17.85V17.82C114.568 17.7667 114.628 17.7067 114.748 17.64L115.748 17.14C115.862 17.0933 115.948 17.09 116.008 17.13C116.075 17.1633 116.108 17.2233 116.108 17.31V21.16C116.108 21.3067 116.175 21.4367 116.308 21.55C116.448 21.6633 116.518 21.75 116.518 21.81V21.85C116.518 21.95 116.445 22 116.298 22H114.778ZM122.325 17.57C122.325 17.61 122.292 17.66 122.225 17.72C122.158 17.7733 122.092 17.8467 122.025 17.94C121.958 18.0333 121.925 18.1433 121.925 18.27V21.17C121.925 21.3167 121.988 21.45 122.115 21.57C122.242 21.69 122.305 21.7767 122.305 21.83V21.86C122.305 21.9533 122.248 22 122.135 22H121.095C120.968 22 120.905 21.9367 120.905 21.81V21.41C120.578 21.87 120.098 22.1 119.465 22.1C118.825 22.1 118.275 21.87 117.815 21.41C117.362 20.95 117.135 20.3433 117.135 19.59C117.135 18.8633 117.358 18.2667 117.805 17.8C118.258 17.3333 118.818 17.1 119.485 17.1C120.065 17.1 120.538 17.31 120.905 17.73V17.36C120.905 17.2733 120.938 17.21 121.005 17.17C121.072 17.13 121.162 17.1233 121.275 17.15L122.145 17.33C122.265 17.3633 122.325 17.4333 122.325 17.54V17.57ZM119.735 21.72C120.008 21.72 120.252 21.6067 120.465 21.38C120.685 21.1533 120.795 20.8367 120.795 20.43V18.83C120.795 18.4967 120.668 18.19 120.415 17.91C120.162 17.6233 119.865 17.48 119.525 17.48C119.152 17.48 118.852 17.6333 118.625 17.94C118.398 18.24 118.282 18.6533 118.275 19.18C118.262 19.88 118.388 20.4767 118.655 20.97C118.928 21.4633 119.288 21.7133 119.735 21.72ZM123.224 22C123.084 22 123.014 21.95 123.014 21.85V21.82C123.014 21.7533 123.074 21.6633 123.194 21.55C123.321 21.4367 123.384 21.31 123.384 21.17V15.9C123.384 15.74 123.321 15.5967 123.194 15.47C123.074 15.3433 123.014 15.26 123.014 15.22V15.19C123.014 15.13 123.071 15.07 123.184 15.01L124.194 14.51C124.308 14.4633 124.394 14.46 124.454 14.5C124.521 14.5333 124.554 14.59 124.554 14.67V21.17C124.554 21.31 124.621 21.44 124.754 21.56C124.894 21.6733 124.964 21.76 124.964 21.82V21.85C124.964 21.95 124.891 22 124.744 22H123.224ZM133.991 21.06C133.991 21.2267 134.018 21.3533 134.071 21.44C134.131 21.5267 134.194 21.5733 134.261 21.58C134.328 21.5867 134.388 21.6067 134.441 21.64C134.501 21.6667 134.531 21.7167 134.531 21.79C134.531 21.97 134.264 22.06 133.731 22.06C133.444 22.06 133.241 21.99 133.121 21.85C133.001 21.71 132.938 21.4 132.931 20.92C132.544 21.7067 131.808 22.1 130.721 22.1C129.954 22.1 129.344 21.8567 128.891 21.37C128.438 20.8767 128.211 20.2 128.211 19.34V15.91C128.211 15.7567 128.148 15.62 128.021 15.5C127.894 15.3733 127.831 15.2867 127.831 15.24V15.21C127.831 15.11 127.891 15.05 128.011 15.03L129.111 14.85C129.344 14.81 129.461 14.86 129.461 15L129.441 19.49C129.434 20.15 129.574 20.67 129.861 21.05C130.148 21.43 130.534 21.62 131.021 21.62C131.588 21.62 132.028 21.4367 132.341 21.07C132.661 20.6967 132.821 20.2233 132.821 19.65V15.91C132.821 15.7567 132.748 15.62 132.601 15.5C132.454 15.3733 132.381 15.2867 132.381 15.24V15.21C132.381 15.1167 132.454 15.0567 132.601 15.03L133.661 14.85C133.881 14.8167 133.991 14.8667 133.991 15V21.06ZM140.231 21.16C140.238 21.3067 140.298 21.44 140.411 21.56C140.531 21.6733 140.591 21.76 140.591 21.82V21.86C140.591 21.96 140.518 22.01 140.371 22.01H138.911C138.764 22.01 138.691 21.96 138.691 21.86V21.82C138.691 21.76 138.751 21.6733 138.871 21.56C138.998 21.44 139.058 21.3067 139.051 21.16L138.951 19.23C138.904 18.13 138.554 17.58 137.901 17.58C137.588 17.58 137.334 17.6967 137.141 17.93C136.948 18.1567 136.851 18.4533 136.851 18.82V21.17C136.851 21.3167 136.918 21.4467 137.051 21.56C137.191 21.6733 137.261 21.76 137.261 21.82V21.86C137.261 21.96 137.188 22.01 137.041 22.01H135.491C135.351 22.01 135.281 21.96 135.281 21.86V21.82C135.281 21.76 135.348 21.6733 135.481 21.56C135.614 21.4467 135.681 21.3167 135.681 21.17V18.49C135.681 18.3633 135.641 18.26 135.561 18.18C135.488 18.1 135.414 18.0367 135.341 17.99C135.268 17.9367 135.231 17.88 135.231 17.82V17.79C135.231 17.7233 135.291 17.6633 135.411 17.61L136.381 17.14C136.488 17.0933 136.564 17.09 136.611 17.13C136.664 17.1633 136.691 17.2267 136.691 17.32V17.97C136.831 17.6967 137.034 17.4833 137.301 17.33C137.568 17.1767 137.871 17.1 138.211 17.1C138.724 17.1 139.158 17.2767 139.511 17.63C139.864 17.9833 140.064 18.53 140.111 19.27L140.231 21.16ZM142.12 16.37C141.873 16.37 141.673 16.3 141.52 16.16C141.367 16.02 141.29 15.84 141.29 15.62C141.29 15.4 141.367 15.22 141.52 15.08C141.673 14.94 141.873 14.87 142.12 14.87C142.36 14.87 142.553 14.94 142.7 15.08C142.853 15.22 142.93 15.4 142.93 15.62C142.93 15.84 142.853 16.02 142.7 16.16C142.553 16.3 142.36 16.37 142.12 16.37ZM141.38 22C141.24 22 141.17 21.95 141.17 21.85V21.81C141.17 21.75 141.23 21.6633 141.35 21.55C141.477 21.4367 141.54 21.3067 141.54 21.16V18.54C141.54 18.3867 141.477 18.2433 141.35 18.11C141.23 17.9767 141.17 17.89 141.17 17.85V17.82C141.17 17.7667 141.23 17.7067 141.35 17.64L142.35 17.14C142.463 17.0933 142.55 17.09 142.61 17.13C142.677 17.1633 142.71 17.2233 142.71 17.31V21.16C142.71 21.3067 142.777 21.4367 142.91 21.55C143.05 21.6633 143.12 21.75 143.12 21.81V21.85C143.12 21.95 143.047 22 142.9 22H141.38ZM145.657 22.1C145.223 22.1 144.88 21.9633 144.627 21.69C144.38 21.41 144.257 21.0067 144.257 20.48V17.69H143.687C143.573 17.69 143.517 17.6333 143.517 17.52V17.38C143.517 17.26 143.573 17.2 143.687 17.2H143.997C144.25 17.2 144.453 17.1133 144.607 16.94C144.767 16.7667 144.867 16.53 144.907 16.23C144.927 16.0833 144.993 16.01 145.107 16.01H145.257C145.383 16.01 145.447 16.0833 145.447 16.23L145.457 17.2H146.717C146.77 17.2 146.813 17.2167 146.847 17.25C146.88 17.2833 146.897 17.3267 146.897 17.38V17.52C146.897 17.6333 146.837 17.69 146.717 17.69H145.457V20.49C145.457 20.7233 145.51 20.9067 145.617 21.04C145.723 21.1667 145.86 21.23 146.027 21.23C146.427 21.23 146.663 21.0567 146.737 20.71C146.763 20.6567 146.803 20.6233 146.857 20.61C146.91 20.5967 146.957 20.6033 146.997 20.63C147.043 20.6567 147.067 20.7 147.067 20.76C147.067 21.12 146.937 21.4333 146.677 21.7C146.423 21.9667 146.083 22.1 145.657 22.1ZM149.527 22.09C148.907 22.09 148.404 21.9733 148.017 21.74C147.631 21.5 147.437 21.2333 147.437 20.94C147.437 20.7933 147.481 20.68 147.567 20.6C147.661 20.52 147.784 20.48 147.937 20.48C148.071 20.48 148.181 20.5233 148.267 20.61C148.361 20.6967 148.434 20.8033 148.487 20.93C148.541 21.0567 148.601 21.1833 148.667 21.31C148.741 21.43 148.847 21.5333 148.987 21.62C149.134 21.7067 149.314 21.75 149.527 21.75C149.801 21.75 150.021 21.6833 150.187 21.55C150.361 21.4167 150.447 21.2267 150.447 20.98C150.447 20.7333 150.347 20.5433 150.147 20.41C149.947 20.27 149.704 20.1667 149.417 20.1C149.137 20.0333 148.854 19.9567 148.567 19.87C148.281 19.7833 148.037 19.63 147.837 19.41C147.637 19.1833 147.537 18.8867 147.537 18.52C147.537 18.1133 147.721 17.7767 148.087 17.51C148.454 17.2367 148.924 17.1 149.497 17.1C150.091 17.1 150.571 17.2233 150.937 17.47C151.311 17.71 151.497 17.9833 151.497 18.29C151.497 18.4167 151.454 18.52 151.367 18.6C151.281 18.68 151.171 18.72 151.037 18.72C150.911 18.72 150.804 18.6767 150.717 18.59C150.637 18.5033 150.567 18.4 150.507 18.28C150.454 18.1533 150.394 18.03 150.327 17.91C150.267 17.7833 150.171 17.6767 150.037 17.59C149.911 17.5033 149.751 17.46 149.557 17.46C149.317 17.46 149.117 17.5333 148.957 17.68C148.797 17.8267 148.717 18.01 148.717 18.23C148.717 18.4767 148.817 18.67 149.017 18.81C149.217 18.95 149.457 19.0567 149.737 19.13C150.024 19.1967 150.311 19.2733 150.597 19.36C150.884 19.4467 151.127 19.6 151.327 19.82C151.527 20.04 151.627 20.3333 151.627 20.7C151.627 21.1 151.434 21.4333 151.047 21.7C150.667 21.96 150.161 22.09 149.527 22.09Z" fill="black"/>
</svg>
