<svg width="264" height="153" viewBox="0 0 264 153" fill="none" xmlns="http://www.w3.org/2000/svg">
<path d="M11.45 35H1C1.5 34.9 2.1 34.65 2.65 34.15C3.75 33.25 3.8 25.9 3.8 23.9V9.65C3.8 7.7 3.75 1.95 2.65 1.05C2.1 0.549999 1.55 0.3 1 0.199998H12.75C19.7 0.199998 28.65 3.35 28.65 11.55C28.65 20.95 19.35 24.5 10.7 24.5C10.1 24.5 9.4 24.45 8.7 24.4V25.5C8.7 27.4 8.75 33.2 9.75 34.15C10.35 34.65 10.9 34.9 11.45 35ZM8.75 0.699998L8.7 23.7C9.5 23.85 10.25 23.9 10.95 23.9C17.1 23.9 23.4 20.25 23.4 12.4V12.35C23.35 2.8 17.25 0.699998 8.75 0.699998ZM33.2828 11.6C36.0328 11.35 38.7328 11.2 41.4328 11.2C41.4328 13.2 41.4328 15.2 41.4828 17.15C42.3828 14.1 45.3328 11.4 48.6828 11.4C49.8828 11.4 52.0328 11.8 52.0328 13.3C52.0328 14.35 51.3828 15 50.5828 15C48.5828 15.05 48.3328 13.1 45.9828 13.3C42.4328 13.6 41.5328 20.85 41.4328 23.3C41.3828 26.8 41.3828 32.6 42.0828 33.8C42.4828 34.45 43.1328 34.85 43.8828 35H34.2828C35.0828 34.85 35.7828 34.45 36.1328 33.75C37.1328 32.15 36.8828 23.85 36.8828 21.55C36.8828 19.95 36.9328 14.7 36.0828 13.4C35.5328 12.45 34.3828 11.85 33.2828 11.6ZM67.5105 35.5C60.4605 35.5 55.7105 30.55 55.7105 23.35C55.7105 16.3 60.3605 11.2 67.2605 11.2C74.2605 11.2 79.1105 16.1 79.1105 23.4C79.1105 30.6 74.5105 35.5 67.5105 35.5ZM67.3105 11.6C60.9605 11.6 60.5605 19.6 60.5605 23.35C60.5605 27.2 61.1605 35.1 67.5105 35.1C73.8105 35.1 74.2605 27.2 74.2605 23.4C74.2605 19.55 73.6105 11.6 67.3105 11.6ZM78.6676 46.7C78.2676 45.4 79.0176 44.4 80.1676 44.4C80.4176 44.4 80.7676 44.45 81.0676 44.6C82.2676 45.05 82.2676 48.1 84.8176 47.65C88.0676 47.1 87.7676 38.7 87.7676 35.45V22.85C87.7676 20.45 88.0676 13.65 85.9676 12.3C85.6176 12.1 84.8676 11.7 84.3176 11.6C85.9676 11.65 90.5176 11.2 92.3676 11.2V32.3C92.3676 39.6 92.6676 49.8 81.7176 48.85C80.6676 48.75 79.1676 48.1 78.6676 46.7ZM89.3676 6.5C87.7176 6.5 86.3676 5.15 86.3676 3.55C86.3676 2.05 87.7176 0.749997 89.3676 0.749997C91.0676 0.749997 92.4176 2.05 92.4176 3.55C92.4176 5.15 91.0676 6.5 89.3676 6.5ZM101.495 23.65C101.495 16.3 106.045 11.2 113.595 11.2C120.645 11.2 125.045 16.1 125.195 23.1H106.645C106.645 28.9 107.645 34.85 115.045 34.85C118.395 34.85 122.345 32.6 124.345 29.3H124.695C122.995 33.25 118.245 35.5 114.245 35.5C106.895 35.5 101.495 31 101.495 23.65ZM113.845 11.7C108.395 11.7 107.095 18.75 106.695 22.6H120.295C120.145 18.85 119.595 11.7 113.845 11.7ZM130.069 23.6C130.069 16.5 134.719 11.2 142.019 11.2C144.269 11.2 150.119 11.95 150.119 14.95C150.119 16 149.369 16.25 148.519 16.25C145.869 16.25 146.569 11.45 142.069 11.45C135.969 11.45 135.419 18.75 135.419 23.25C135.419 27.65 136.719 34.85 142.419 34.85C145.369 34.85 148.419 33.5 149.969 30.95H150.469C148.719 34.2 145.269 35.5 141.719 35.5C135.069 35.5 130.069 30.05 130.069 23.6ZM155.003 11.55C161.403 11.35 162.203 7.35 162.503 3.5H164.853V11.3H171.553V12.05H164.853V31.3C164.853 33.4 165.753 34.2 166.903 34.2C168.553 34.2 170.753 32.45 171.153 30.75L171.553 31.1C169.203 35.55 166.703 35.5 165.003 35.5C162.503 35.5 160.153 33.4 160.153 31.05V12.05H155.003V11.55ZM1 62.05L8 62.2L23.25 88.05L38.4 62.2H47.05C46.45 62.35 45.85 62.6 45.4 63C44.05 64.1 44 71.3 44 73.25V88C44 89.9 44.1 94.95 45.4 96.15C45.9 96.6 46.6 96.85 47.25 97H35.7C36.35 96.85 36.95 96.65 37.5 96.2C38.75 95.25 38.85 89.35 38.85 87.55V63.1L21.3 93L5.8 68.25V87.05C5.8 90.05 5.6 96.25 9.35 97H1.6C1.6 97 1.75 97 1.95 96.95C2 96.95 2 96.95 2.05 96.9C4.9 96.1 4.95 90.5 4.95 88.05V71.05C4.95 68.65 3.85 62.9 1 62.05ZM54.5422 75.4C53.8922 74.4 52.9422 73.85 51.7922 73.6C53.8922 73.4 57.5422 73.2 59.8922 73.2L59.9422 82.6L59.8922 89.55C59.8922 91 59.8922 94.65 60.5422 95.8C60.9422 96.5 61.6422 96.85 62.3422 97H52.7422C53.5422 96.85 54.1922 96.5 54.5922 95.75C55.3422 94.35 55.3422 90.55 55.3422 88.9C55.3422 82.3 55.5422 77.55 54.5422 75.4ZM57.2422 68.5C55.5922 68.5 54.2922 67.15 54.2922 65.55C54.2922 64.05 55.5922 62.75 57.2422 62.75C58.9922 62.75 60.2922 64.05 60.2922 65.55C60.2922 67.15 58.9922 68.5 57.2422 68.5ZM67.5617 60.7H67.6117C69.6617 60.5 73.1617 60.35 75.2617 60.35V88.55C75.2617 90.2 75.2617 94.35 75.9117 95.7C76.3617 96.45 77.0617 96.8 77.7617 97H68.1617C68.8117 96.8 69.5617 96.45 69.9617 95.75C70.6617 94.45 70.7117 90.2 70.7117 88.55V69.1C70.7117 67.7 70.7117 63 70.0117 62.05C69.8117 61.6 69.5617 61.45 69.1617 61.25L69.1117 61.2C68.6117 60.9 68.2117 60.75 67.5617 60.7ZM83.907 85.65C83.907 78.3 88.457 73.2 96.007 73.2C103.057 73.2 107.457 78.1 107.607 85.1H89.057C89.057 90.9 90.057 96.85 97.457 96.85C100.807 96.85 104.757 94.6 106.757 91.3H107.107C105.407 95.25 100.657 97.5 96.657 97.5C89.307 97.5 83.907 93 83.907 85.65ZM96.257 73.7C90.807 73.7 89.507 80.75 89.107 84.6H102.707C102.557 80.85 102.007 73.7 96.257 73.7ZM112.881 79.15C112.881 74.45 118.181 72.15 122.781 72.35C124.631 72.45 127.981 73.15 129.731 73.9L129.781 75.05C129.781 76.4 129.681 77.7 129.581 79L129.281 79.05C128.831 75.9 126.031 72.95 121.781 72.95C119.081 72.95 116.931 75.15 116.931 78.1C116.931 84.35 131.281 82.4 131.281 90.95C131.281 96.05 125.431 98.4 120.681 98.25C117.481 98.15 115.331 97.2 113.431 96C113.381 95.25 113.381 94.5 113.381 93.75C113.381 92.95 113.381 92.2 113.431 91.4L113.781 91.35C114.431 94.75 117.031 97.75 121.531 97.55C124.881 97.4 127.281 95.5 127.231 92.25C127.131 85.85 112.881 88.1 112.881 79.15ZM135.316 73.55C141.716 73.35 142.516 69.35 142.816 65.5H145.166V73.3H151.866V74.05H145.166V93.3C145.166 95.4 146.066 96.2 147.216 96.2C148.866 96.2 151.066 94.45 151.466 92.75L151.866 93.1C149.516 97.55 147.016 97.5 145.316 97.5C142.816 97.5 140.466 95.4 140.466 93.05V74.05H135.316V73.55ZM168.087 97.5C161.037 97.5 156.287 92.55 156.287 85.35C156.287 78.3 160.937 73.2 167.837 73.2C174.837 73.2 179.687 78.1 179.687 85.4C179.687 92.6 175.087 97.5 168.087 97.5ZM167.887 73.6C161.537 73.6 161.137 81.6 161.137 85.35C161.137 89.2 161.737 97.1 168.087 97.1C174.387 97.1 174.837 89.2 174.837 85.4C174.837 81.55 174.187 73.6 167.887 73.6ZM186.383 75.4C185.683 74.4 184.733 73.85 183.533 73.6C185.683 73.4 189.333 73.2 191.683 73.2V77C193.383 75.15 196.733 73.05 200.033 73.05C206.383 73.05 209.533 77.4 209.533 82.45V89C209.533 90.5 209.633 94.65 210.283 95.8C210.733 96.45 211.333 96.8 212.083 97H202.483C203.233 96.8 203.883 96.45 204.283 95.75C204.933 94.55 204.983 90.1 204.983 88.55L204.933 83.15C204.933 80.1 205.083 73.8 199.733 73.8C196.533 73.8 193.133 75.95 191.683 77.9L191.733 82.6L191.683 89.55C191.683 91 191.683 94.65 192.333 95.8C192.733 96.5 193.433 96.85 194.133 97H184.533C185.333 96.85 185.983 96.5 186.433 95.75C187.133 94.35 187.133 90.55 187.133 88.9C187.133 82.3 187.333 77.55 186.383 75.4ZM216.573 85.65C216.573 78.3 221.123 73.2 228.673 73.2C235.723 73.2 240.123 78.1 240.273 85.1H221.723C221.723 90.9 222.723 96.85 230.123 96.85C233.473 96.85 237.423 94.6 239.423 91.3H239.773C238.073 95.25 233.323 97.5 229.323 97.5C221.973 97.5 216.573 93 216.573 85.65ZM228.923 73.7C223.473 73.7 222.173 80.75 221.773 84.6H235.373C235.223 80.85 234.673 73.7 228.923 73.7ZM245.547 79.15C245.547 74.45 250.847 72.15 255.447 72.35C257.297 72.45 260.647 73.15 262.397 73.9L262.447 75.05C262.447 76.4 262.347 77.7 262.247 79L261.947 79.05C261.497 75.9 258.697 72.95 254.447 72.95C251.747 72.95 249.597 75.15 249.597 78.1C249.597 84.35 263.947 82.4 263.947 90.95C263.947 96.05 258.097 98.4 253.347 98.25C250.147 98.15 247.997 97.2 246.097 96C246.047 95.25 246.047 94.5 246.047 93.75C246.047 92.95 246.047 92.2 246.097 91.4L246.447 91.35C247.097 94.75 249.697 97.75 254.197 97.55C257.547 97.4 259.947 95.5 259.897 92.25C259.797 85.85 245.547 88.1 245.547 79.15ZM0.5 133.08H12.2V135.24H12.06C11.84 133.32 8.86 133.28 7.38 133.28V142.56C7.38 142.9 7.38 143.68 7.42 144.44C7.46 145.18 7.56 145.98 7.74 146.3C7.94 146.68 8.3 146.9 8.7 147H4.06C4.22 146.96 4.38 146.9 4.54 146.8C4.68 146.7 4.84 146.54 4.98 146.3C5.38 145.7 5.34 143.64 5.34 142.84V133.28C3.7 133.28 1.14 133.3 0.62 135.18H0.5V133.08ZM16.3391 147C13.2991 147.02 11.6791 146.16 11.6791 144.18C11.6791 142.18 13.6791 141.16 16.4791 141.24C17.0191 141.26 17.5791 141.4 17.9991 141.52V140.78C17.9991 139.36 17.8191 137.62 15.8791 137.62C14.8591 137.62 14.4791 138.2 14.2191 138.76C14.1791 138.82 14.1591 138.88 14.1191 138.94C14.0991 139.02 14.0591 139.08 13.9991 139.14C13.9391 139.24 13.8991 139.34 13.8191 139.44C13.7191 139.6 13.5591 139.7 13.2591 139.7C12.8391 139.7 12.6391 139.5 12.6391 139.1C12.6391 137.86 15.1391 137.48 16.0791 137.48C16.9191 137.48 18.3191 137.72 18.9591 138.26C19.5991 138.88 19.8191 139.72 19.8191 140.58L19.7991 144.18C19.7991 144.82 19.8191 146.08 20.0391 146.52C20.2191 146.8 20.4791 146.94 20.7591 147H16.3391ZM16.4391 141.4C13.8791 141.4 13.4391 142.84 13.4391 144.18C13.4391 145.52 13.7991 146.88 16.3391 146.88C16.7591 146.88 17.3591 146.88 17.6391 146.58C17.6391 146.56 17.6591 146.54 17.6791 146.5C17.9191 146.02 17.9591 144.8 17.9591 144.04L17.9791 141.64C17.5991 141.54 17.0791 141.4 16.4391 141.4ZM22.2386 137.62C23.0986 137.54 24.5586 137.46 25.4986 137.46V138.28C26.1586 137.82 27.0586 137.48 27.9786 137.48C30.7786 137.48 32.7186 139.44 32.7186 142.36C32.7186 145.24 30.6786 147.2 27.8786 147.2C26.9786 147.2 26.0786 147.14 25.4386 146.84L25.4186 149.52C25.4186 150.1 25.4186 151.56 25.6386 152.02C25.8186 152.3 26.0986 152.44 26.3786 152.5H22.5586C22.8386 152.44 23.1186 152.3 23.2986 152C23.5586 151.44 23.5586 149.92 23.5586 149.26C23.5586 146.62 23.7386 139.2 23.3786 138.34C23.0986 137.94 22.7186 137.72 22.2386 137.62ZM25.4386 146.62C26.1186 146.96 27.0586 147.04 27.8786 147.04C30.3986 147.04 30.7786 143.88 30.7786 142.36C30.7786 140.82 30.5186 137.64 27.9986 137.64C27.0586 137.64 26.1386 138.06 25.4986 138.62L25.4386 146.62ZM40.0794 137.62C42.6394 137.54 42.9594 135.94 43.0794 134.4H44.0194V137.52H46.6994V137.82H44.0194V145.52C44.0194 146.36 44.3794 146.68 44.8394 146.68C45.4994 146.68 46.3794 145.98 46.5394 145.3L46.6994 145.44C45.7594 147.22 44.7594 147.2 44.0794 147.2C43.0794 147.2 42.1394 146.36 42.1394 145.42V137.82H40.0794V137.62ZM53.1878 147.2C50.3678 147.2 48.4678 145.22 48.4678 142.34C48.4678 139.52 50.3278 137.48 53.0878 137.48C55.8878 137.48 57.8278 139.44 57.8278 142.36C57.8278 145.24 55.9878 147.2 53.1878 147.2ZM53.1078 137.64C50.5678 137.64 50.4078 140.84 50.4078 142.34C50.4078 143.88 50.6478 147.04 53.1878 147.04C55.7078 147.04 55.8878 143.88 55.8878 142.36C55.8878 140.82 55.6278 137.64 53.1078 137.64ZM64.4087 137.7H68.5088C68.0288 137.84 67.8288 138.2 67.8288 138.7C67.8288 140.26 70.4088 145.52 70.7488 146.3C71.2088 144.84 73.4088 140.06 73.5688 138.78C73.6688 137.96 72.6088 137.88 72.0488 137.7L75.2688 137.72C74.3288 138.06 73.7688 139.46 72.9288 141.6L70.7488 147.06H69.2088L66.4088 140.4C65.9888 139.38 65.6488 138.04 64.4087 137.7ZM77.0981 138.36C76.8381 137.96 76.4581 137.74 75.9981 137.64C76.8381 137.56 78.2981 137.48 79.2381 137.48L79.2581 141.24L79.2381 144.02C79.2381 144.6 79.2381 146.06 79.4981 146.52C79.6581 146.8 79.9381 146.94 80.2181 147H76.3781C76.6981 146.94 76.9581 146.8 77.1181 146.5C77.4181 145.94 77.4181 144.42 77.4181 143.76C77.4181 141.12 77.4981 139.22 77.0981 138.36ZM78.1781 135.6C77.5181 135.6 76.9981 135.06 76.9981 134.42C76.9981 133.82 77.5181 133.3 78.1781 133.3C78.8781 133.3 79.3981 133.82 79.3981 134.42C79.3981 135.06 78.8781 135.6 78.1781 135.6ZM82.7659 142.46C82.7659 139.52 84.5859 137.48 87.6059 137.48C90.4259 137.48 92.1859 139.44 92.2459 142.24H84.8259C84.8259 144.56 85.2259 146.94 88.1859 146.94C89.5259 146.94 91.1059 146.04 91.9059 144.72H92.0459C91.3659 146.3 89.4659 147.2 87.8659 147.2C84.9259 147.2 82.7659 145.4 82.7659 142.46ZM87.7059 137.68C85.5259 137.68 85.0059 140.5 84.8459 142.04H90.2859C90.2259 140.54 90.0059 137.68 87.7059 137.68ZM92.9556 137.7H96.9356C96.4556 137.84 96.2556 138.2 96.2556 138.7C96.2556 140.26 98.7556 145.52 99.0356 146.3C99.3956 145.18 100.716 142.12 101.376 140.18C101.016 139.18 100.696 138.02 99.5556 137.7H103.556C103.056 137.84 102.876 138.2 102.876 138.7C102.876 140.26 105.376 145.52 105.676 146.3C106.116 144.84 108.236 140.06 108.396 138.78C108.496 137.96 107.496 137.88 106.916 137.7L110.036 137.72C109.116 138.06 108.596 139.46 107.756 141.6L105.676 147.06H104.176L101.536 140.56C101.416 140.88 101.276 141.24 101.136 141.6L99.0356 147.06H97.5756L94.8756 140.4C94.4756 139.38 94.1556 138.04 92.9556 137.7Z" fill="black"/>
<path d="M11.45 35V35.5L11.5394 34.5081L11.45 35ZM1 35L0.901942 34.5097L1 35.5V35ZM2.65 34.15L2.33338 33.763L2.3233 33.7713L2.31366 33.78L2.65 34.15ZM2.65 1.05L2.31366 1.41997L2.3233 1.42873L2.33338 1.43698L2.65 1.05ZM1 0.199998V-0.300002L0.910556 0.691933L1 0.199998ZM8.7 24.4L8.73562 23.9013L8.2 23.863V24.4H8.7ZM9.75 34.15L9.40563 34.5125L9.41742 34.5237L9.42991 34.5341L9.75 34.15ZM8.75 0.699998V0.199998H8.25109L8.25 0.698911L8.75 0.699998ZM8.7 23.7L8.2 23.6989L8.1991 24.1148L8.60786 24.1914L8.7 23.7ZM23.4 12.35H23.9L23.9 12.3474L23.4 12.35ZM11.45 34.5H1V35.5H11.45V34.5ZM1.09806 35.4903C1.67798 35.3743 2.36284 35.0868 2.98634 34.52L2.31366 33.78C1.83716 34.2132 1.32202 34.4257 0.901942 34.5097L1.09806 35.4903ZM2.96662 34.537C3.2129 34.3355 3.37159 34.0139 3.48471 33.7052C3.60464 33.378 3.70291 32.9793 3.78512 32.5425C3.94988 31.667 4.06085 30.5787 4.13634 29.4715C4.28756 27.2537 4.3 24.9021 4.3 23.9H3.3C3.3 24.8979 3.28744 27.2213 3.13866 29.4035C3.06415 30.4963 2.95637 31.5392 2.80238 32.3575C2.72522 32.7675 2.63911 33.1064 2.54576 33.3612C2.44559 33.6345 2.3621 33.7395 2.33338 33.763L2.96662 34.537ZM4.3 23.9V9.65H3.3V23.9H4.3ZM4.3 9.65C4.3 8.67315 4.28761 6.73049 4.13576 4.91458C4.05997 4.00823 3.9482 3.1173 3.78114 2.38763C3.69767 2.02308 3.59737 1.68507 3.47433 1.39987C3.35512 1.12359 3.19492 0.849814 2.96662 0.66302L2.33338 1.43698C2.38008 1.47518 2.46206 1.57797 2.55614 1.79602C2.64638 2.00517 2.73045 2.27926 2.80636 2.61081C2.95805 3.27333 3.06503 4.11052 3.13924 4.99792C3.28739 6.76951 3.3 8.67684 3.3 9.65H4.3ZM2.98634 0.680029C2.36957 0.11933 1.73479 -0.174599 1.08944 -0.291937L0.910556 0.691933C1.36521 0.774598 1.83043 0.980669 2.31366 1.41997L2.98634 0.680029ZM1 0.699998H12.75V-0.300002H1V0.699998ZM12.75 0.699998C16.1622 0.699998 20.0441 1.4754 23.0543 3.23186C26.0474 4.97837 28.15 7.67017 28.15 11.55H29.15C29.15 7.22983 26.7776 4.24663 23.5582 2.36814C20.356 0.499601 16.2878 -0.300002 12.75 -0.300002V0.699998ZM28.15 11.55C28.15 16.0502 25.939 19.1367 22.6598 21.1223C19.3568 23.1222 14.9685 24 10.7 24V25C15.0815 25 19.6682 24.1028 23.1777 21.9777C26.711 19.8383 29.15 16.4498 29.15 11.55H28.15ZM10.7 24C10.1214 24 9.44065 23.9516 8.73562 23.9013L8.66438 24.8987C9.35936 24.9484 10.0786 25 10.7 25V24ZM8.2 24.4V25.5H9.2V24.4H8.2ZM8.2 25.5C8.2 26.4522 8.21242 28.393 8.35144 30.2192C8.42084 31.1309 8.52279 32.0283 8.6743 32.7655C8.74999 33.1338 8.84052 33.4745 8.9509 33.7625C9.05739 34.0403 9.20014 34.3173 9.40563 34.5125L10.0944 33.7875C10.0499 33.7452 9.9723 33.6332 9.88465 33.4045C9.80089 33.186 9.72345 32.903 9.65383 32.5642C9.51471 31.8873 9.41666 31.0379 9.34856 30.1433C9.21258 28.357 9.2 26.4478 9.2 25.5H8.2ZM9.42991 34.5341C10.0867 35.0814 10.7142 35.3744 11.3606 35.4919L11.5394 34.5081C11.0858 34.4256 10.6133 34.2186 10.0701 33.7659L9.42991 34.5341ZM8.25 0.698911L8.2 23.6989L9.2 23.7011L9.25 0.701085L8.25 0.698911ZM8.60786 24.1914C9.44419 24.3482 10.2258 24.4 10.95 24.4V23.4C10.2742 23.4 9.55581 23.3518 8.79214 23.2086L8.60786 24.1914ZM10.95 24.4C14.1168 24.4 17.3467 23.4613 19.7955 21.4827C22.258 19.4929 23.9 16.4744 23.9 12.4H22.9C22.9 16.1756 21.392 18.9071 19.167 20.7048C16.9283 22.5137 13.9332 23.4 10.95 23.4V24.4ZM23.9 12.4V12.35H22.9V12.4H23.9ZM23.9 12.3474C23.8744 7.45556 22.2897 4.36233 19.5199 2.52695C16.7963 0.722099 13.0178 0.199998 8.75 0.199998V1.2C12.9822 1.2 16.5037 1.7279 18.9676 3.36054C21.3853 4.96266 22.8756 7.69444 22.9 12.3526L23.9 12.3474ZM33.2828 11.6L33.2375 11.1021L33.172 12.0876L33.2828 11.6ZM41.4328 11.2H41.9328V10.7H41.4328V11.2ZM41.4828 17.15L40.983 17.1628L41.9624 17.2915L41.4828 17.15ZM50.5828 15V14.4998L50.5703 14.5002L50.5828 15ZM45.9828 13.3L46.0249 13.7982L46.0252 13.7982L45.9828 13.3ZM41.4328 23.3L40.9331 23.2796L40.9329 23.2929L41.4328 23.3ZM42.0828 33.8L41.6508 34.052L41.657 34.062L42.0828 33.8ZM43.8828 35V35.5L43.9809 34.5097L43.8828 35ZM34.2828 35L34.1907 34.5086L34.2828 35.5V35ZM36.1328 33.75L35.7088 33.485L35.6962 33.5051L35.6856 33.5264L36.1328 33.75ZM36.0828 13.4L35.6501 13.6505L35.6569 13.6623L35.6643 13.6736L36.0828 13.4ZM33.3281 12.0979C36.0668 11.849 38.7513 11.7 41.4328 11.7V10.7C38.7144 10.7 35.9989 10.851 33.2375 11.1021L33.3281 12.0979ZM40.9328 11.2C40.9328 13.1988 40.9328 15.2053 40.983 17.1628L41.9826 17.1372C41.9328 15.1947 41.9328 13.2012 41.9328 11.2H40.9328ZM41.9624 17.2915C42.8124 14.4109 45.5965 11.9 48.6828 11.9V10.9C45.0692 10.9 41.9532 13.7891 41.0033 17.0085L41.9624 17.2915ZM48.6828 11.9C49.2424 11.9 50.0085 11.9952 50.6149 12.2488C51.2287 12.5055 51.5328 12.8504 51.5328 13.3H52.5328C52.5328 12.2496 51.7619 11.6445 51.0007 11.3262C50.2321 11.0048 49.3232 10.9 48.6828 10.9V11.9ZM51.5328 13.3C51.5328 14.1282 51.0553 14.5 50.5828 14.5V15.5C51.7104 15.5 52.5328 14.5718 52.5328 13.3H51.5328ZM50.5703 14.5002C49.7689 14.5202 49.3399 14.1648 48.7147 13.6942C48.4076 13.4631 48.0486 13.2043 47.5973 13.024C47.1373 12.8402 46.6027 12.7454 45.9404 12.8018L46.0252 13.7982C46.5379 13.7546 46.9158 13.8286 47.2262 13.9526C47.5452 14.0801 47.8142 14.2681 48.1134 14.4933C48.7007 14.9352 49.3968 15.5298 50.5953 15.4998L50.5703 14.5002ZM45.9407 12.8018C44.8685 12.8924 44.031 13.5095 43.3921 14.3395C42.7566 15.165 42.2865 16.2379 41.9373 17.3431C41.2381 19.5561 40.9843 22.0287 40.9332 23.2796L41.9324 23.3204C41.9813 22.1213 42.2275 19.7439 42.8908 17.6444C43.2229 16.5934 43.6496 15.6444 44.1845 14.9495C44.7159 14.2592 45.3221 13.8576 46.0249 13.7982L45.9407 12.8018ZM40.9329 23.2929C40.9078 25.0448 40.8951 27.3809 40.977 29.4324C41.0178 30.4574 41.0826 31.4206 41.1829 32.2084C41.233 32.6022 41.293 32.96 41.3655 33.2639C41.4361 33.5598 41.5263 33.8382 41.6509 34.0519L42.5147 33.5481C42.4644 33.4618 42.4014 33.2965 42.3382 33.0318C42.2769 32.7751 42.2224 32.4556 42.1749 32.0822C42.0799 31.3357 42.0165 30.4051 41.9762 29.3926C41.8955 27.3691 41.9078 25.0552 41.9328 23.3071L40.9329 23.2929ZM41.657 34.062C42.1407 34.8481 42.9205 35.3174 43.7848 35.4903L43.9809 34.5097C43.3452 34.3826 42.8249 34.0519 42.5086 33.538L41.657 34.062ZM43.8828 34.5H34.2828V35.5H43.8828V34.5ZM34.375 35.4914C35.2723 35.3232 36.1379 34.8579 36.58 33.9736L35.6856 33.5264C35.4277 34.0421 34.8933 34.3768 34.1907 34.5086L34.375 35.4914ZM36.5568 34.015C36.7266 33.7433 36.8469 33.3731 36.9393 32.9733C37.0341 32.5632 37.109 32.0782 37.1687 31.5482C37.2883 30.4878 37.3513 29.2116 37.3827 27.9247C37.4453 25.3554 37.3828 22.6813 37.3828 21.55H36.3828C36.3828 22.7187 36.4453 25.3446 36.383 27.9003C36.3518 29.1759 36.2898 30.4185 36.175 31.4362C36.1176 31.9452 36.048 32.3891 35.965 32.7482C35.8796 33.1175 35.789 33.3567 35.7088 33.485L36.5568 34.015ZM37.3828 21.55C37.3828 20.7547 37.3955 19.0266 37.3008 17.3346C37.2535 16.489 37.1788 15.641 37.0598 14.9159C36.9448 14.2148 36.777 13.548 36.5013 13.1264L35.6643 13.6736C35.8137 13.902 35.9583 14.379 36.073 15.0778C36.1837 15.7528 36.2559 16.561 36.3023 17.3904C36.3951 19.0484 36.3828 20.7453 36.3828 21.55H37.3828ZM36.5155 13.1495C35.8668 12.029 34.56 11.3775 33.3936 11.1124L33.172 12.0876C34.2057 12.3225 35.1988 12.871 35.6501 13.6505L36.5155 13.1495ZM67.5105 35C64.1067 35 61.2912 33.8077 59.3261 31.7773C57.3596 29.7454 56.2105 26.8385 56.2105 23.35H55.2105C55.2105 27.0615 56.4365 30.2296 58.6075 32.4727C60.7799 34.7173 63.8644 36 67.5105 36V35ZM56.2105 23.35C56.2105 19.9355 57.3354 17.0256 59.2625 14.9735C61.187 12.9243 63.9396 11.7 67.2605 11.7V10.7C63.6815 10.7 60.6591 12.0257 58.5336 14.289C56.4107 16.5494 55.2105 19.7145 55.2105 23.35H56.2105ZM67.2605 11.7C70.6403 11.7 73.469 12.8805 75.4528 14.9118C77.4374 16.944 78.6105 19.8628 78.6105 23.4H79.6105C79.6105 19.6372 78.3587 16.456 76.1683 14.2132C73.9771 11.9695 70.8808 10.7 67.2605 10.7V11.7ZM78.6105 23.4C78.6105 26.8929 77.4963 29.7874 75.5736 31.8051C73.6531 33.8204 70.8892 35 67.5105 35V36C71.1319 36 74.168 34.7296 76.2975 32.4949C78.4248 30.2626 79.6105 27.1071 79.6105 23.4H78.6105ZM67.3105 11.1C65.6078 11.1 64.2743 11.6401 63.249 12.5312C62.2335 13.4137 61.5489 14.6148 61.0842 15.8985C60.1582 18.4564 60.0605 21.471 60.0605 23.35H61.0605C61.0605 21.479 61.1629 18.6186 62.0244 16.239C62.4534 15.054 63.0595 14.0207 63.9049 13.286C64.7405 12.5599 65.8383 12.1 67.3105 12.1V11.1ZM60.0605 23.35C60.0605 25.2866 60.2092 28.3016 61.1876 30.8481C61.6786 32.126 62.3895 33.3155 63.4233 34.1876C64.4662 35.0674 65.8097 35.6 67.5105 35.6V34.6C66.0364 34.6 64.9237 34.1451 64.0681 33.4233C63.2034 32.6938 62.5738 31.6677 62.121 30.4894C61.2119 28.1234 61.0605 25.2634 61.0605 23.35H60.0605ZM67.5105 35.6C69.2001 35.6 70.5267 35.0666 71.5495 34.185C72.5626 33.3117 73.2492 32.122 73.7174 30.8474C74.6502 28.308 74.7605 25.3057 74.7605 23.4H73.7605C73.7605 25.2943 73.6459 28.142 72.7787 30.5026C72.3469 31.678 71.7397 32.7008 70.8966 33.4275C70.0632 34.1459 68.971 34.6 67.5105 34.6V35.6ZM74.7605 23.4C74.7605 21.4612 74.5991 18.4347 73.6147 15.8767C73.1208 14.5933 72.4088 13.3981 71.3783 12.5215C70.3384 11.6369 69.0008 11.1 67.3105 11.1V12.1C68.7703 12.1 69.8765 12.5568 70.7303 13.2832C71.5935 14.0175 72.2253 15.0505 72.6814 16.2358C73.597 18.6153 73.7605 21.4888 73.7605 23.4H74.7605ZM78.6676 46.7L78.1897 46.847L78.193 46.8577L78.1967 46.8682L78.6676 46.7ZM81.0676 44.6L80.844 45.0472L80.8674 45.059L80.892 45.0682L81.0676 44.6ZM84.8176 47.65L84.7341 47.157L84.7307 47.1576L84.8176 47.65ZM85.9676 12.3L86.238 11.8794L86.227 11.8724L86.2156 11.8659L85.9676 12.3ZM84.3176 11.6L84.3327 11.1002L84.2281 12.0919L84.3176 11.6ZM92.3676 11.2H92.8676V10.7H92.3676V11.2ZM81.7176 48.85L81.6702 49.3478L81.6744 49.3481L81.7176 48.85ZM79.1455 46.553C78.9824 46.0229 79.0678 45.6106 79.2494 45.3442C79.4299 45.0795 79.7438 44.9 80.1676 44.9V43.9C79.4414 43.9 78.8053 44.2205 78.4232 44.7808C78.0424 45.3394 77.9528 46.0771 78.1897 46.847L79.1455 46.553ZM80.1676 44.9C80.3653 44.9 80.633 44.9417 80.844 45.0472L81.2912 44.1528C80.9022 43.9583 80.4699 43.9 80.1676 43.9V44.9ZM80.892 45.0682C81.023 45.1173 81.1733 45.2603 81.3742 45.5899C81.4699 45.7468 81.563 45.9212 81.6685 46.1178C81.7713 46.3095 81.8844 46.5195 82.0104 46.7244C82.2604 47.1311 82.5874 47.5632 83.0646 47.8537C83.5579 48.1539 84.1619 48.2734 84.9045 48.1424L84.7307 47.1576C84.1983 47.2516 83.846 47.1586 83.5846 46.9995C83.3071 46.8306 83.081 46.5564 82.8623 46.2006C82.7538 46.0243 82.6537 45.8389 82.5497 45.6451C82.4483 45.4561 82.3411 45.2548 82.2281 45.0694C82.0118 44.7147 81.7122 44.3077 81.2431 44.1318L80.892 45.0682ZM84.901 48.143C85.9489 47.9657 86.6431 47.1613 87.1024 46.1808C87.5638 45.1957 87.8392 43.9326 88.0072 42.6263C88.3437 40.0106 88.2676 37.0547 88.2676 35.45H87.2676C87.2676 37.0953 87.3414 39.9644 87.0154 42.4987C86.8522 43.7674 86.5932 44.9105 86.1968 45.7567C85.7983 46.6075 85.3113 47.0593 84.7341 47.157L84.901 48.143ZM88.2676 35.45V22.85H87.2676V35.45H88.2676ZM88.2676 22.85C88.2676 21.6727 88.3432 19.3354 88.1532 17.1382C88.0581 16.0384 87.8948 14.9467 87.6125 14.0329C87.3362 13.1386 86.9165 12.3156 86.238 11.8794L85.6972 12.7206C86.0686 12.9594 86.399 13.4927 86.657 14.3281C86.9091 15.1439 87.0645 16.1553 87.1569 17.2243C87.342 19.3646 87.2676 21.6273 87.2676 22.85H88.2676ZM86.2156 11.8659C86.0331 11.7616 85.7441 11.6038 85.4259 11.458C85.1149 11.3154 84.7445 11.1694 84.407 11.1081L84.2281 12.0919C84.4407 12.1306 84.7203 12.2346 85.0093 12.367C85.291 12.4962 85.552 12.6384 85.7195 12.7341L86.2156 11.8659ZM84.3024 12.0998C85.1582 12.1257 86.7389 12.023 88.3012 11.9176C89.8871 11.8106 91.4642 11.7 92.3676 11.7V10.7C91.421 10.7 89.798 10.8144 88.2339 10.9199C86.6463 11.027 85.127 11.1243 84.3327 11.1002L84.3024 12.0998ZM91.8676 11.2V32.3H92.8676V11.2H91.8676ZM91.8676 32.3C91.8676 35.9869 91.9349 40.2516 90.6825 43.4883C90.0635 45.0882 89.1335 46.4016 87.7378 47.2664C86.3412 48.1318 84.4221 48.5828 81.7608 48.3519L81.6744 49.3481C84.488 49.5922 86.6377 49.1245 88.2645 48.1164C89.8923 47.1078 90.9404 45.5931 91.6151 43.8492C92.9503 40.3984 92.8676 35.9131 92.8676 32.3H91.8676ZM81.765 48.3523C80.8146 48.2617 79.5466 47.6747 79.1384 46.5318L78.1967 46.8682C78.7885 48.5253 80.5206 49.2383 81.6702 49.3477L81.765 48.3523ZM89.3676 6C87.9883 6 86.8676 4.86842 86.8676 3.55H85.8676C85.8676 5.43158 87.4469 7 89.3676 7V6ZM86.8676 3.55C86.8676 2.35361 87.9654 1.25 89.3676 1.25V0.249997C87.4697 0.249997 85.8676 1.74639 85.8676 3.55H86.8676ZM89.3676 1.25C90.8253 1.25 91.9176 2.35881 91.9176 3.55H92.9176C92.9176 1.74119 91.3099 0.249997 89.3676 0.249997V1.25ZM91.9176 3.55C91.9176 4.86308 90.8023 6 89.3676 6V7C91.3328 7 92.9176 5.43692 92.9176 3.55H91.9176ZM125.195 23.1V23.6H125.706L125.695 23.0893L125.195 23.1ZM106.645 23.1V22.6H106.145V23.1H106.645ZM124.345 29.3V28.8H124.063L123.917 29.0408L124.345 29.3ZM124.695 29.3L125.154 29.4977L125.454 28.8H124.695V29.3ZM106.695 22.6L106.198 22.5483L106.14 23.1H106.695V22.6ZM120.295 22.6V23.1H120.815L120.795 22.58L120.295 22.6ZM101.995 23.65C101.995 20.0778 103.099 17.0969 105.076 15.0129C107.05 12.9323 109.937 11.7 113.595 11.7V10.7C109.703 10.7 106.54 12.0177 104.351 14.3246C102.166 16.6281 100.995 19.8722 100.995 23.65H101.995ZM113.595 11.7C116.998 11.7 119.725 12.8795 121.62 14.8698C123.52 16.8641 124.622 19.7123 124.695 23.1107L125.695 23.0893C125.618 19.4877 124.445 16.3859 122.344 14.1802C120.24 11.9705 117.241 10.7 113.595 10.7V11.7ZM125.195 22.6H106.645V23.6H125.195V22.6ZM106.145 23.1C106.145 26.0062 106.391 29.054 107.628 31.3845C108.254 32.5618 109.135 33.5619 110.362 34.2638C111.588 34.9643 113.128 35.35 115.045 35.35V34.35C113.262 34.35 111.902 33.992 110.859 33.3956C109.818 32.8006 109.061 31.9507 108.512 30.9155C107.399 28.821 107.145 25.9938 107.145 23.1H106.145ZM115.045 35.35C118.584 35.35 122.69 32.996 124.773 29.5592L123.917 29.0408C122 32.204 118.206 34.35 115.045 34.35V35.35ZM124.345 29.8H124.695V28.8H124.345V29.8ZM124.236 29.1023C122.637 32.8172 118.108 35 114.245 35V36C118.382 36 123.353 33.6828 125.154 29.4977L124.236 29.1023ZM114.245 35C110.67 35 107.609 33.9065 105.448 31.9598C103.293 30.0182 101.995 27.1948 101.995 23.65H100.995C100.995 27.4552 102.397 30.5568 104.779 32.7027C107.156 34.8435 110.47 36 114.245 36V35ZM113.845 11.2C110.845 11.2 109.021 13.1621 107.924 15.4933C106.83 17.8166 106.399 20.6114 106.198 22.5483L107.192 22.6517C107.391 20.7386 107.81 18.0834 108.829 15.9192C109.844 13.7629 111.395 12.2 113.845 12.2V11.2ZM106.695 23.1H120.295V22.1H106.695V23.1ZM120.795 22.58C120.72 20.7072 120.545 17.9054 119.636 15.563C119.18 14.3864 118.527 13.2941 117.58 12.4939C116.624 11.6858 115.396 11.2 113.845 11.2V12.2C115.169 12.2 116.166 12.608 116.935 13.2577C117.713 13.9153 118.285 14.8449 118.704 15.9245C119.545 18.0946 119.72 20.7428 119.795 22.62L120.795 22.58ZM149.969 30.95V30.45H149.688L149.542 30.6903L149.969 30.95ZM150.469 30.95L150.909 31.1871L151.306 30.45H150.469V30.95ZM130.569 23.6C130.569 20.1592 131.695 17.1871 133.671 15.0795C135.645 12.9756 138.496 11.7 142.019 11.7V10.7C138.242 10.7 135.119 12.0744 132.942 14.3955C130.769 16.7129 129.569 19.9408 129.569 23.6H130.569ZM142.019 11.7C143.107 11.7 145.078 11.8835 146.759 12.4259C147.601 12.6974 148.334 13.0475 148.848 13.4807C149.352 13.9058 149.619 14.3858 149.619 14.95H150.619C150.619 14.0142 150.155 13.2755 149.492 12.7162C148.839 12.165 147.968 11.7651 147.066 11.4741C145.26 10.8915 143.181 10.7 142.019 10.7V11.7ZM149.619 14.95C149.619 15.3379 149.492 15.491 149.363 15.5764C149.193 15.6884 148.913 15.75 148.519 15.75V16.75C148.975 16.75 149.496 16.6866 149.913 16.4111C150.371 16.109 150.619 15.6121 150.619 14.95H149.619ZM148.519 15.75C148.045 15.75 147.721 15.5503 147.409 15.1787C147.066 14.7692 146.805 14.2414 146.417 13.5931C146.048 12.9779 145.59 12.3082 144.9 11.798C144.198 11.2789 143.292 10.95 142.069 10.95V11.95C143.097 11.95 143.79 12.2211 144.305 12.602C144.833 12.9918 145.209 13.5221 145.559 14.1069C145.889 14.6586 146.232 15.3308 146.643 15.8213C147.086 16.3497 147.669 16.75 148.519 16.75V15.75ZM142.069 10.95C140.436 10.95 139.143 11.4419 138.137 12.2762C137.141 13.1033 136.458 14.2405 135.989 15.4861C135.054 17.9655 134.919 20.9955 134.919 23.25H135.919C135.919 21.0045 136.059 18.1345 136.925 15.8389C137.355 14.697 137.954 13.7279 138.776 13.0457C139.589 12.3706 140.653 11.95 142.069 11.95V10.95ZM134.919 23.25C134.919 25.4846 135.247 28.4627 136.324 30.9019C137.407 33.3544 139.297 35.35 142.419 35.35V34.35C139.841 34.35 138.231 32.7456 137.239 30.4981C136.241 28.2373 135.919 25.4154 135.919 23.25H134.919ZM142.419 35.35C145.502 35.35 148.736 33.9416 150.396 31.2097L149.542 30.6903C148.102 33.0584 145.237 34.35 142.419 34.35V35.35ZM149.969 31.45H150.469V30.45H149.969V31.45ZM150.029 30.7129C148.397 33.7434 145.161 35 141.719 35V36C145.377 36 149.041 34.6566 150.909 31.1871L150.029 30.7129ZM141.719 35C135.364 35 130.569 29.7935 130.569 23.6H129.569C129.569 30.3065 134.774 36 141.719 36V35ZM155.003 11.55L154.988 11.0502L154.503 11.0654V11.55H155.003ZM162.503 3.5V3H162.041L162.005 3.46115L162.503 3.5ZM164.853 3.5H165.353V3H164.853V3.5ZM164.853 11.3H164.353V11.8H164.853V11.3ZM171.553 11.3H172.053V10.8H171.553V11.3ZM171.553 12.05V12.55H172.053V12.05H171.553ZM164.853 12.05V11.55H164.353V12.05H164.853ZM171.153 30.75L171.482 30.3737L170.857 29.8263L170.666 30.6355L171.153 30.75ZM171.553 31.1L171.995 31.3335L172.18 30.984L171.882 30.7237L171.553 31.1ZM160.153 12.05H160.653V11.55H160.153V12.05ZM155.003 12.05H154.503V12.55H155.003V12.05ZM155.019 12.0498C158.332 11.9462 160.302 10.848 161.452 9.17738C162.574 7.54945 162.852 5.46205 163.002 3.53884L162.005 3.46115C161.854 5.38795 161.583 7.22554 160.629 8.61012C159.705 9.95198 158.074 10.9538 154.988 11.0502L155.019 12.0498ZM162.503 4H164.853V3H162.503V4ZM164.353 3.5V11.3H165.353V3.5H164.353ZM164.853 11.8H171.553V10.8H164.853V11.8ZM171.053 11.3V12.05H172.053V11.3H171.053ZM171.553 11.55H164.853V12.55H171.553V11.55ZM164.353 12.05V31.3H165.353V12.05H164.353ZM164.353 31.3C164.353 32.4115 164.59 33.2648 165.056 33.8492C165.536 34.4507 166.204 34.7 166.903 34.7V33.7C166.453 33.7 166.096 33.5493 165.838 33.2258C165.566 32.8852 165.353 32.2885 165.353 31.3H164.353ZM166.903 34.7C167.884 34.7 168.955 34.1915 169.811 33.5018C170.668 32.8103 171.406 31.8598 171.64 30.8645L170.666 30.6355C170.501 31.3402 169.938 32.1147 169.183 32.7232C168.426 33.3335 167.572 33.7 166.903 33.7V34.7ZM170.824 31.1263L171.224 31.4763L171.882 30.7237L171.482 30.3737L170.824 31.1263ZM171.111 30.8665C169.971 33.0255 168.827 34.0331 167.818 34.5181C166.801 35.0067 165.859 35 165.003 35V36C165.847 36 167.005 36.0183 168.251 35.4194C169.504 34.8169 170.785 33.6245 171.995 31.3335L171.111 30.8665ZM165.003 35C163.891 35 162.795 34.5306 161.977 33.7864C161.158 33.0415 160.653 32.0558 160.653 31.05H159.653C159.653 32.3942 160.323 33.6335 161.304 34.5261C162.286 35.4194 163.616 36 165.003 36V35ZM160.653 31.05V12.05H159.653V31.05H160.653ZM160.153 11.55H155.003V12.55H160.153V11.55ZM155.503 12.05V11.55H154.503V12.05H155.503ZM1 62.05L1.01071 61.5501L0.857097 62.5291L1 62.05ZM8 62.2L8.43065 61.9459L8.28914 61.7061L8.01071 61.7001L8 62.2ZM23.25 88.05L22.8194 88.3041L23.2514 89.0364L23.6814 88.3028L23.25 88.05ZM38.4 62.2V61.7H38.1135L37.9686 61.9472L38.4 62.2ZM47.05 62.2L47.1713 62.6851L47.05 61.7V62.2ZM45.4 63L45.7158 63.3876L45.7242 63.3808L45.7322 63.3737L45.4 63ZM45.4 96.15L45.0608 96.5174L45.0655 96.5216L45.4 96.15ZM47.25 97V97.5L47.3624 96.5128L47.25 97ZM35.7 97L35.5876 96.5128L35.7 97.5V97ZM37.5 96.2L37.1975 95.8019L37.1903 95.8073L37.1834 95.813L37.5 96.2ZM38.85 63.1H39.35V61.2604L38.4188 62.8469L38.85 63.1ZM21.3 93L20.8762 93.2654L21.3139 93.9641L21.7312 93.2531L21.3 93ZM5.8 68.25L6.22376 67.9846L5.3 66.5096V68.25H5.8ZM9.35 97V97.5L9.44806 96.5097L9.35 97ZM1.95 96.95V96.45H1.88845L1.82873 96.4649L1.95 96.95ZM2.05 96.9L1.91487 96.4186L1.78894 96.454L1.69645 96.5464L2.05 96.9ZM0.989288 62.5499L7.98929 62.6999L8.01071 61.7001L1.01071 61.5501L0.989288 62.5499ZM7.56936 62.4541L22.8194 88.3041L23.6806 87.7959L8.43065 61.9459L7.56936 62.4541ZM23.6814 88.3028L38.8314 62.4528L37.9686 61.9472L22.8186 87.7972L23.6814 88.3028ZM38.4 62.7H47.05V61.7H38.4V62.7ZM46.9287 61.7149C46.2865 61.8755 45.6008 62.1525 45.0678 62.6263L45.7322 63.3737C46.0992 63.0475 46.6135 62.8245 47.1713 62.6851L46.9287 61.7149ZM45.0842 62.6124C44.8227 62.8254 44.635 63.1458 44.4924 63.48C44.3456 63.8239 44.225 64.2348 44.124 64.6811C43.922 65.5744 43.7869 66.6649 43.6955 67.7648C43.5124 69.9679 43.5 72.2728 43.5 73.25H44.5C44.5 72.2772 44.5126 70.0071 44.692 67.8477C44.7819 66.7663 44.9124 65.7287 45.0994 64.9017C45.193 64.4878 45.2977 64.1405 45.4121 63.8725C45.5306 63.5948 45.6398 63.4496 45.7158 63.3876L45.0842 62.6124ZM43.5 73.25V88H44.5V73.25H43.5ZM43.5 88C43.5 88.9554 43.525 90.7154 43.7157 92.394C43.811 93.2323 43.9492 94.0658 44.1521 94.775C44.3491 95.4638 44.6294 96.1191 45.0609 96.5174L45.7391 95.7826C45.5206 95.5809 45.3009 95.1549 45.1135 94.5C44.932 93.8655 44.8015 93.0927 44.7093 92.281C44.5251 90.6596 44.5 88.9446 44.5 88H43.5ZM45.0655 96.5216C45.6604 97.0571 46.4604 97.3309 47.1376 97.4872L47.3624 96.5128C46.7396 96.3691 46.1396 96.1429 45.7345 95.7784L45.0655 96.5216ZM47.25 96.5H35.7V97.5H47.25V96.5ZM35.8124 97.4872C36.4909 97.3306 37.1789 97.1088 37.8166 96.587L37.1834 95.813C36.7211 96.1912 36.2091 96.3694 35.5876 96.5128L35.8124 97.4872ZM37.8025 96.5981C38.0495 96.4104 38.2301 96.1334 38.3679 95.8452C38.509 95.5503 38.6251 95.2015 38.7223 94.8262C38.9168 94.0753 39.0496 93.1634 39.1413 92.2433C39.325 90.3999 39.35 88.4555 39.35 87.55H38.35C38.35 88.4445 38.325 90.3501 38.1462 92.1442C38.0567 93.0428 37.9301 93.8966 37.7543 94.5754C37.6663 94.9149 37.5695 95.197 37.4659 95.4136C37.359 95.637 37.263 95.7521 37.1975 95.8019L37.8025 96.5981ZM39.35 87.55V63.1H38.35V87.55H39.35ZM38.4188 62.8469L20.8688 92.7469L21.7312 93.2531L39.2812 63.3531L38.4188 62.8469ZM21.7238 92.7346L6.22376 67.9846L5.37624 68.5154L20.8762 93.2654L21.7238 92.7346ZM5.3 68.25V87.05H6.3V68.25H5.3ZM5.3 87.05C5.3 88.5289 5.24755 90.8895 5.67917 92.9703C6.10506 95.0235 7.05756 97.0514 9.25194 97.4903L9.44806 96.5097C7.89244 96.1986 7.06994 94.7515 6.65833 92.7672C6.25245 90.8105 6.3 88.5711 6.3 87.05H5.3ZM9.35 96.5H1.6V97.5H9.35V96.5ZM1.6 97C1.6 97.5 1.60008 97.5 1.60016 97.5C1.60019 97.5 1.60028 97.5 1.60033 97.5C1.60045 97.5 1.60056 97.5 1.60068 97.5C1.60092 97.5 1.60116 97.5 1.60142 97.5C1.60193 97.5 1.60248 97.5 1.60307 97.5C1.60424 97.5 1.60557 97.5 1.60705 97.5C1.61001 97.4999 1.61357 97.4999 1.6177 97.4998C1.62597 97.4996 1.63656 97.4993 1.64927 97.4987C1.67464 97.4975 1.7087 97.4954 1.74975 97.4913C1.83135 97.4831 1.94334 97.4671 2.07127 97.4351L1.82873 96.4649C1.75666 96.4829 1.69365 96.4919 1.65025 96.4962C1.6288 96.4984 1.61286 96.4993 1.60386 96.4997C1.59938 96.4999 1.59669 96.5 1.59597 96.5C1.59561 96.5 1.59575 96.5 1.59641 96.5C1.59675 96.5 1.59721 96.5 1.5978 96.5C1.5981 96.5 1.59843 96.5 1.5988 96.5C1.59898 96.5 1.59917 96.5 1.59937 96.5C1.59947 96.5 1.59958 96.5 1.59968 96.5C1.59973 96.5 1.59981 96.5 1.59984 96.5C1.59992 96.5 1.6 96.5 1.6 97ZM1.95 97.45C1.95325 97.45 1.99121 97.4506 2.02944 97.4467C2.08139 97.4415 2.14994 97.4278 2.22361 97.391C2.28873 97.3584 2.33385 97.3194 2.3548 97.3006C2.37468 97.2827 2.39484 97.2623 2.40355 97.2536L1.69645 96.5464C1.68016 96.5627 1.68157 96.5611 1.68583 96.5573C1.69115 96.5525 1.72377 96.5228 1.77639 96.4965C1.83756 96.466 1.89362 96.4553 1.92994 96.4517C1.95254 96.4494 1.97176 96.45 1.95 96.45V97.45ZM2.18513 97.3814C3.05621 97.1369 3.68501 96.5301 4.13422 95.7815C4.58044 95.0378 4.86857 94.1248 5.05865 93.1938C5.4388 91.3317 5.45 89.2718 5.45 88.05H4.45C4.45 89.2782 4.4362 91.2433 4.07886 92.9937C3.90018 93.8689 3.64144 94.6591 3.27672 95.267C2.91499 95.8699 2.46879 96.2631 1.91487 96.4186L2.18513 97.3814ZM5.45 88.05V71.05H4.45V88.05H5.45ZM5.45 71.05C5.45 69.7952 5.166 67.703 4.51679 65.8068C4.19165 64.8571 3.76734 63.934 3.22455 63.1841C2.68292 62.4359 1.99758 61.8258 1.1429 61.5709L0.857097 62.5291C1.42742 62.6992 1.94833 63.1265 2.41452 63.7705C2.87954 64.4129 3.2646 65.2366 3.57071 66.1307C4.184 67.922 4.45 69.9048 4.45 71.05H5.45ZM54.5422 75.4L54.9955 75.1891L54.9807 75.1571L54.9614 75.1275L54.5422 75.4ZM51.7922 73.6L51.7448 73.1023L51.686 74.0886L51.7922 73.6ZM59.8922 73.2L60.3922 73.1973L60.3895 72.7H59.8922V73.2ZM59.9422 82.6L60.4422 82.6036L60.4422 82.5973L59.9422 82.6ZM59.8922 89.55L59.3922 89.5464V89.55H59.8922ZM60.5422 95.8L60.1069 96.046L60.1081 96.0481L60.5422 95.8ZM62.3422 97V97.5L62.447 96.5111L62.3422 97ZM52.7422 97L52.65 96.5086L52.7422 97.5V97ZM54.5922 95.75L54.1514 95.5139L54.151 95.5147L54.5922 95.75ZM54.9614 75.1275C54.2252 73.9949 53.1488 73.3832 51.8984 73.1114L51.686 74.0886C52.7355 74.3168 53.5591 74.8051 54.123 75.6725L54.9614 75.1275ZM51.8396 74.0977C53.9263 73.899 57.5603 73.7 59.8922 73.7V72.7C57.5241 72.7 53.8581 72.901 51.7448 73.1023L51.8396 74.0977ZM59.3922 73.2027L59.4422 82.6027L60.4422 82.5973L60.3922 73.1973L59.3922 73.2027ZM59.4422 82.5964L59.3922 89.5464L60.3922 89.5536L60.4422 82.6036L59.4422 82.5964ZM59.3922 89.55C59.3922 90.2739 59.392 91.5642 59.4745 92.8203C59.5157 93.448 59.5781 94.0768 59.6738 94.6277C59.767 95.165 59.9 95.68 60.1069 96.046L60.9775 95.554C60.8593 95.345 60.7486 94.9725 60.659 94.4567C60.5719 93.9544 60.5124 93.3645 60.4724 92.7547C60.3923 91.5358 60.3922 90.2761 60.3922 89.55H59.3922ZM60.1081 96.0481C60.6039 96.9158 61.4575 97.3218 62.2374 97.4889L62.447 96.5111C61.8269 96.3782 61.2805 96.0842 60.9763 95.5519L60.1081 96.0481ZM62.3422 96.5H52.7422V97.5H62.3422V96.5ZM52.8343 97.4914C53.7341 97.3227 54.5412 96.9081 55.0334 95.9853L54.151 95.5147C53.8432 96.0919 53.3503 96.3773 52.65 96.5086L52.8343 97.4914ZM55.0329 95.9861C55.2577 95.5666 55.4094 95.0052 55.5177 94.4107C55.6277 93.8071 55.6996 93.1295 55.7472 92.4539C55.8424 91.1027 55.8422 89.7237 55.8422 88.9H54.8422C54.8422 89.7263 54.842 91.0723 54.7497 92.3836C54.7035 93.0393 54.6348 93.6773 54.5339 94.2315C54.4313 94.7948 54.3017 95.2334 54.1514 95.5139L55.0329 95.9861ZM55.8422 88.9C55.8422 85.614 55.8923 82.7569 55.8169 80.4648C55.7422 78.1927 55.5443 76.369 54.9955 75.1891L54.0888 75.6109C54.5401 76.581 54.7422 78.2073 54.8175 80.4977C54.8921 82.7681 54.8422 85.586 54.8422 88.9H55.8422ZM57.2422 68C55.8738 68 54.7922 66.8794 54.7922 65.55H53.7922C53.7922 67.4206 55.3105 69 57.2422 69V68ZM54.7922 65.55C54.7922 64.3429 55.8512 63.25 57.2422 63.25V62.25C55.3331 62.25 53.7922 63.7571 53.7922 65.55H54.7922ZM57.2422 63.25C58.7443 63.25 59.7922 64.3536 59.7922 65.55H60.7922C60.7922 63.7464 59.24 62.25 57.2422 62.25V63.25ZM59.7922 65.55C59.7922 66.8684 58.7215 68 57.2422 68V69C59.2629 69 60.7922 67.4316 60.7922 65.55H59.7922ZM67.5617 60.7V60.2L67.5234 61.1985L67.5617 60.7ZM67.6117 60.7V61.2H67.6361L67.6603 61.1976L67.6117 60.7ZM75.2617 60.35H75.7617V59.85H75.2617V60.35ZM75.9117 95.7L75.4612 95.9169L75.4712 95.9376L75.483 95.9572L75.9117 95.7ZM77.7617 97V97.5L77.8991 96.5192L77.7617 97ZM68.1617 97L68.0147 96.5221L68.1617 97.5V97ZM69.9617 95.75L70.396 95.9981L70.402 95.987L69.9617 95.75ZM70.0117 62.05L69.5548 62.2531L69.5769 62.3028L69.6092 62.3466L70.0117 62.05ZM69.1617 61.25L68.8082 61.6036L68.8655 61.6609L68.9381 61.6972L69.1617 61.25ZM69.1117 61.2L69.4653 60.8464L69.4217 60.8029L69.369 60.7713L69.1117 61.2ZM67.5617 61.2H67.6117V60.2H67.5617V61.2ZM67.6603 61.1976C69.6917 60.9994 73.1753 60.85 75.2617 60.85V59.85C73.1482 59.85 69.6317 60.0006 67.5632 60.2024L67.6603 61.1976ZM74.7617 60.35V88.55H75.7617V60.35H74.7617ZM74.7617 88.55C74.7617 89.374 74.7616 90.8375 74.8438 92.2662C74.8849 92.9804 74.9469 93.6941 75.0416 94.32C75.1343 94.9338 75.2646 95.5085 75.4612 95.9169L76.3622 95.4831C76.2339 95.2165 76.1204 94.7662 76.0303 94.1706C75.9421 93.5871 75.8823 92.9071 75.8421 92.2088C75.7618 90.8125 75.7617 89.376 75.7617 88.55H74.7617ZM75.483 95.9572C76.0247 96.8602 76.8631 97.2633 77.6244 97.4808L77.8991 96.5192C77.2604 96.3367 76.6987 96.0398 76.3405 95.4428L75.483 95.9572ZM77.7617 96.5H68.1617V97.5H77.7617V96.5ZM68.3088 97.4779C68.9904 97.2682 69.898 96.8693 70.3958 95.9981L69.5276 95.5019C69.2254 96.0307 68.6331 96.3318 68.0147 96.5221L68.3088 97.4779ZM70.402 95.987C70.618 95.5858 70.7626 95.0078 70.8672 94.3923C70.9741 93.7628 71.0474 93.0401 71.098 92.3161C71.1992 90.8671 71.2117 89.3782 71.2117 88.55H70.2117C70.2117 89.3718 70.1992 90.8329 70.1004 92.2464C70.051 92.9536 69.9806 93.6403 69.8813 94.2249C69.7796 94.8235 69.6554 95.2642 69.5215 95.513L70.402 95.987ZM71.2117 88.55V69.1H70.2117V88.55H71.2117ZM71.2117 69.1C71.2117 68.4006 71.2118 66.8619 71.1233 65.3765C71.0791 64.6347 71.0122 63.8948 70.9097 63.274C70.8585 62.9637 70.7969 62.6739 70.7215 62.4239C70.6486 62.1821 70.5521 61.9405 70.4142 61.7534L69.6092 62.3466C69.6463 62.397 69.703 62.5101 69.7641 62.7126C69.8227 62.9069 69.8759 63.1511 69.9231 63.4369C70.0174 64.0083 70.0818 64.709 70.1251 65.436C70.2116 66.8881 70.2117 68.3994 70.2117 69.1H71.2117ZM70.4686 61.8469C70.3431 61.5645 70.1894 61.3513 69.9885 61.1778C69.7988 61.0139 69.5849 60.9026 69.3853 60.8028L68.9381 61.6972C69.1385 61.7974 69.2497 61.8611 69.3349 61.9347C69.409 61.9986 69.4803 62.0855 69.5548 62.2531L70.4686 61.8469ZM69.5153 60.8964L69.4653 60.8464L68.7582 61.5536L68.8082 61.6036L69.5153 60.8964ZM69.369 60.7713C68.8103 60.4361 68.3362 60.2581 67.6001 60.2015L67.5234 61.1985C68.0872 61.2419 68.4131 61.3639 68.8545 61.6287L69.369 60.7713ZM107.607 85.1V85.6H108.118L108.107 85.0893L107.607 85.1ZM89.057 85.1V84.6H88.557V85.1H89.057ZM106.757 91.3V90.8H106.475L106.329 91.0408L106.757 91.3ZM107.107 91.3L107.566 91.4977L107.867 90.8H107.107V91.3ZM89.107 84.6L88.6097 84.5483L88.5524 85.1H89.107V84.6ZM102.707 84.6V85.1H103.227L103.207 84.58L102.707 84.6ZM84.407 85.65C84.407 82.0778 85.5114 79.0969 87.4885 77.0129C89.4624 74.9323 92.3492 73.7 96.007 73.7V72.7C92.1148 72.7 88.9516 74.0177 86.763 76.3246C84.5777 78.6281 83.407 81.8722 83.407 85.65H84.407ZM96.007 73.7C99.4105 73.7 102.137 74.8795 104.032 76.8698C105.932 78.8641 107.034 81.7123 107.107 85.1107L108.107 85.0893C108.03 81.4877 106.857 78.3859 104.757 76.1802C102.652 73.9705 99.6536 72.7 96.007 72.7V73.7ZM107.607 84.6H89.057V85.6H107.607V84.6ZM88.557 85.1C88.557 88.0062 88.8028 91.054 90.0404 93.3845C90.6657 94.5618 91.5467 95.5619 92.7745 96.2638C94 96.9643 95.5398 97.35 97.457 97.35V96.35C95.6743 96.35 94.3141 95.992 93.2708 95.3956C92.2299 94.8006 91.4734 93.9507 90.9236 92.9155C89.8113 90.821 89.557 87.9938 89.557 85.1H88.557ZM97.457 97.35C100.996 97.35 105.102 94.996 107.185 91.5592L106.329 91.0408C104.412 94.204 100.618 96.35 97.457 96.35V97.35ZM106.757 91.8H107.107V90.8H106.757V91.8ZM106.648 91.1023C105.049 94.8172 100.52 97 96.657 97V98C100.794 98 105.765 95.6828 107.566 91.4977L106.648 91.1023ZM96.657 97C93.0824 97 90.0214 95.9065 87.8604 93.9598C85.7052 92.0182 84.407 89.1948 84.407 85.65H83.407C83.407 89.4552 84.8089 92.5568 87.1911 94.7027C89.5676 96.8435 92.8817 98 96.657 98V97ZM96.257 73.2C93.2573 73.2 91.4333 75.1621 90.3359 77.4933C89.2422 79.8166 88.8109 82.6114 88.6097 84.5483L89.6044 84.6517C89.8031 82.7386 90.2218 80.0834 91.2407 77.9192C92.2557 75.7629 93.8068 74.2 96.257 74.2V73.2ZM89.107 85.1H102.707V84.1H89.107V85.1ZM103.207 84.58C103.132 82.7072 102.957 79.9054 102.048 77.563C101.592 76.3864 100.939 75.2941 99.9923 74.4939C99.036 73.6858 97.808 73.2 96.257 73.2V74.2C97.581 74.2 98.578 74.608 99.3468 75.2577C100.125 75.9153 100.697 76.8449 101.116 77.9245C101.957 80.0946 102.132 82.7428 102.207 84.62L103.207 84.58ZM122.781 72.35L122.808 71.8507L122.803 71.8505L122.781 72.35ZM129.731 73.9L130.231 73.8783L130.217 73.5642L129.928 73.4404L129.731 73.9ZM129.781 75.05H130.281V75.0391L130.281 75.0283L129.781 75.05ZM129.581 79L129.663 79.4932L130.05 79.4288L130.08 79.0383L129.581 79ZM129.281 79.05L128.786 79.1207L128.859 79.6273L129.363 79.5432L129.281 79.05ZM120.681 98.25L120.697 97.7502L120.697 97.7502L120.681 98.25ZM113.431 96L112.932 96.0333L112.949 96.287L113.164 96.4227L113.431 96ZM113.431 91.4L113.361 90.905L112.958 90.9626L112.932 91.3688L113.431 91.4ZM113.781 91.35L114.272 91.2561L114.183 90.7876L113.711 90.855L113.781 91.35ZM121.531 97.55L121.553 98.0495L121.554 98.0495L121.531 97.55ZM127.231 92.25L127.731 92.2423L127.731 92.2422L127.231 92.25ZM113.381 79.15C113.381 77.0204 114.571 75.4142 116.363 74.3415C118.166 73.2624 120.54 72.753 122.76 72.8495L122.803 71.8505C120.422 71.747 117.847 72.2876 115.849 73.4835C113.841 74.6858 112.381 76.5796 112.381 79.15H113.381ZM122.754 72.8493C124.556 72.9467 127.847 73.6363 129.534 74.3596L129.928 73.4404C128.116 72.6637 124.707 71.9533 122.808 71.8507L122.754 72.8493ZM129.232 73.9217L129.282 75.0717L130.281 75.0283L130.231 73.8783L129.232 73.9217ZM129.281 75.05C129.281 76.3778 129.183 77.6589 129.083 78.9617L130.08 79.0383C130.18 77.7411 130.281 76.4222 130.281 75.05H129.281ZM129.499 78.5068L129.199 78.5568L129.363 79.5432L129.663 79.4932L129.499 78.5068ZM129.776 78.9793C129.292 75.5886 126.286 72.45 121.781 72.45V73.45C125.777 73.45 128.371 76.2114 128.786 79.1207L129.776 78.9793ZM121.781 72.45C118.782 72.45 116.431 74.8971 116.431 78.1H117.431C117.431 75.4029 119.38 73.45 121.781 73.45V72.45ZM116.431 78.1C116.431 79.9059 117.489 81.091 118.911 81.9678C120.309 82.8298 122.168 83.4611 123.929 84.1299C125.726 84.8124 127.446 85.5409 128.72 86.5987C129.967 87.6348 130.781 88.9817 130.781 90.95H131.781C131.781 88.6433 130.801 87.0277 129.358 85.8294C127.942 84.6528 126.074 83.8751 124.284 83.1951C122.457 82.5014 120.729 81.914 119.436 81.1166C118.167 80.334 117.431 79.4191 117.431 78.1H116.431ZM130.781 90.95C130.781 93.274 129.46 94.9933 127.51 96.1375C125.548 97.2879 122.995 97.8228 120.697 97.7502L120.665 98.7498C123.117 98.8272 125.864 98.2621 128.015 97C130.178 95.7317 131.781 93.726 131.781 90.95H130.781ZM120.697 97.7502C117.606 97.6537 115.542 96.7416 113.698 95.5773L113.164 96.4227C115.121 97.6584 117.356 98.6463 120.666 98.7498L120.697 97.7502ZM113.93 95.9667C113.881 95.2361 113.881 94.5028 113.881 93.75H112.881C112.881 94.4972 112.881 95.2639 112.932 96.0333L113.93 95.9667ZM113.881 93.75C113.881 92.9479 113.881 92.2132 113.93 91.4312L112.932 91.3688C112.881 92.1868 112.881 92.9521 112.881 93.75H113.881ZM113.502 91.895L113.852 91.845L113.711 90.855L113.361 90.905L113.502 91.895ZM113.29 91.4439C113.632 93.2347 114.492 94.9395 115.88 96.1737C117.276 97.4142 119.18 98.155 121.553 98.0495L121.509 97.0505C119.383 97.145 117.737 96.4858 116.545 95.4263C115.346 94.3605 114.58 92.8653 114.272 91.2561L113.29 91.4439ZM121.554 98.0495C123.313 97.9707 124.87 97.4304 125.988 96.4362C127.117 95.4331 127.758 94.0029 127.731 92.2423L126.731 92.2577C126.754 93.7471 126.221 94.8919 125.324 95.6888C124.418 96.4946 123.1 96.9793 121.509 97.0505L121.554 98.0495ZM127.731 92.2422C127.702 90.4057 126.638 89.2133 125.208 88.3356C123.806 87.4746 121.948 86.8536 120.196 86.1888C118.407 85.5101 116.699 84.7777 115.435 83.6932C114.197 82.6313 113.381 81.228 113.381 79.15H112.381C112.381 81.547 113.346 83.2187 114.784 84.4521C116.195 85.6629 118.055 86.4462 119.841 87.1237C121.664 87.8152 123.388 88.3911 124.685 89.1878C125.956 89.968 126.71 90.8943 126.731 92.2578L127.731 92.2422ZM135.316 73.55L135.3 73.0502L134.816 73.0654V73.55H135.316ZM142.816 65.5V65H142.353L142.317 65.4612L142.816 65.5ZM145.166 65.5H145.666V65H145.166V65.5ZM145.166 73.3H144.666V73.8H145.166V73.3ZM151.866 73.3H152.366V72.8H151.866V73.3ZM151.866 74.05V74.55H152.366V74.05H151.866ZM145.166 74.05V73.55H144.666V74.05H145.166ZM151.466 92.75L151.795 92.3737L151.169 91.8263L150.979 92.6355L151.466 92.75ZM151.866 93.1L152.308 93.3335L152.492 92.984L152.195 92.7237L151.866 93.1ZM140.466 74.05H140.966V73.55H140.466V74.05ZM135.316 74.05H134.816V74.55H135.316V74.05ZM135.331 74.0498C138.645 73.9462 140.614 72.848 141.765 71.1774C142.886 69.5495 143.164 67.462 143.314 65.5388L142.317 65.4612C142.167 67.3879 141.895 69.2255 140.941 70.6101C140.017 71.952 138.387 72.9538 135.3 73.0502L135.331 74.0498ZM142.816 66H145.166V65H142.816V66ZM144.666 65.5V73.3H145.666V65.5H144.666ZM145.166 73.8H151.866V72.8H145.166V73.8ZM151.366 73.3V74.05H152.366V73.3H151.366ZM151.866 73.55H145.166V74.55H151.866V73.55ZM144.666 74.05V93.3H145.666V74.05H144.666ZM144.666 93.3C144.666 94.4115 144.902 95.2648 145.368 95.8492C145.848 96.4507 146.516 96.7 147.216 96.7V95.7C146.765 95.7 146.408 95.5493 146.15 95.2258C145.879 94.8852 145.666 94.2885 145.666 93.3H144.666ZM147.216 96.7C148.197 96.7 149.268 96.1915 150.123 95.5018C150.981 94.8103 151.718 93.8598 151.952 92.8645L150.979 92.6355C150.813 93.3402 150.25 94.1147 149.496 94.7232C148.739 95.3335 147.884 95.7 147.216 95.7V96.7ZM151.136 93.1263L151.536 93.4763L152.195 92.7237L151.795 92.3737L151.136 93.1263ZM151.423 92.8665C150.283 95.0255 149.139 96.0331 148.13 96.5181C147.114 97.0067 146.172 97 145.316 97V98C146.16 98 147.317 98.0183 148.563 97.4194C149.817 96.8169 151.098 95.6245 152.308 93.3335L151.423 92.8665ZM145.316 97C144.203 97 143.108 96.5306 142.29 95.7864C141.471 95.0415 140.966 94.0558 140.966 93.05H139.966C139.966 94.3942 140.636 95.6335 141.617 96.5261C142.599 97.4194 143.928 98 145.316 98V97ZM140.966 93.05V74.05H139.966V93.05H140.966ZM140.466 73.55H135.316V74.55H140.466V73.55ZM135.816 74.05V73.55H134.816V74.05H135.816ZM168.087 97C164.683 97 161.867 95.8077 159.902 93.7773C157.936 91.7454 156.787 88.8385 156.787 85.35H155.787C155.787 89.0615 157.013 92.2296 159.184 94.4727C161.356 96.7173 164.441 98 168.087 98V97ZM156.787 85.35C156.787 81.9355 157.912 79.0256 159.839 76.9735C161.763 74.9243 164.516 73.7 167.837 73.7V72.7C164.258 72.7 161.235 74.0257 159.11 76.289C156.987 78.5494 155.787 81.7145 155.787 85.35H156.787ZM167.837 73.7C171.216 73.7 174.045 74.8805 176.029 76.9118C178.014 78.944 179.187 81.8628 179.187 85.4H180.187C180.187 81.6372 178.935 78.456 176.744 76.2132C174.553 73.9695 171.457 72.7 167.837 72.7V73.7ZM179.187 85.4C179.187 88.8929 178.072 91.7874 176.15 93.8051C174.229 95.8204 171.465 97 168.087 97V98C171.708 98 174.744 96.7296 176.874 94.4949C179.001 92.2626 180.187 89.1071 180.187 85.4H179.187ZM167.887 73.1C166.184 73.1 164.851 73.6401 163.825 74.5312C162.81 75.4137 162.125 76.6148 161.66 77.8985C160.734 80.4564 160.637 83.471 160.637 85.35H161.637C161.637 83.479 161.739 80.6186 162.601 78.239C163.03 77.054 163.636 76.0207 164.481 75.286C165.317 74.5599 166.414 74.1 167.887 74.1V73.1ZM160.637 85.35C160.637 87.2866 160.785 90.3016 161.764 92.8481C162.255 94.126 162.966 95.3155 163.999 96.1876C165.042 97.0674 166.386 97.6 168.087 97.6V96.6C166.613 96.6 165.5 96.1451 164.644 95.4233C163.78 94.6938 163.15 93.6677 162.697 92.4894C161.788 90.1234 161.637 87.2634 161.637 85.35H160.637ZM168.087 97.6C169.776 97.6 171.103 97.0666 172.126 96.185C173.139 95.3117 173.825 94.122 174.294 92.8474C175.226 90.308 175.337 87.3057 175.337 85.4H174.337C174.337 87.2943 174.222 90.142 173.355 92.5026C172.923 93.678 172.316 94.7008 171.473 95.4275C170.639 96.1459 169.547 96.6 168.087 96.6V97.6ZM175.337 85.4C175.337 83.4612 175.175 80.4347 174.191 77.8767C173.697 76.5933 172.985 75.3981 171.954 74.5215C170.915 73.6369 169.577 73.1 167.887 73.1V74.1C169.346 74.1 170.453 74.5568 171.306 75.2832C172.17 76.0175 172.801 77.0505 173.258 78.2358C174.173 80.6153 174.337 83.4888 174.337 85.4H175.337ZM186.383 75.4L186.841 75.1979L186.821 75.1533L186.793 75.1133L186.383 75.4ZM183.533 73.6L183.487 73.1021L183.431 74.0895L183.533 73.6ZM191.683 73.2H192.183V72.7H191.683V73.2ZM191.683 77H191.183V78.2831L192.051 77.3383L191.683 77ZM210.283 95.8L209.848 96.046L209.859 96.0659L209.872 96.0846L210.283 95.8ZM212.083 97V97.5L212.212 96.5169L212.083 97ZM202.483 97L202.354 96.5169L202.483 97.5V97ZM204.283 95.75L204.717 95.9981L204.723 95.9881L204.283 95.75ZM204.983 88.55H205.483L205.483 88.5454L204.983 88.55ZM204.933 83.15H204.433L204.433 83.1546L204.933 83.15ZM191.683 77.9L191.282 77.6016L191.181 77.7368L191.183 77.9053L191.683 77.9ZM191.733 82.6L192.233 82.6036L192.233 82.5947L191.733 82.6ZM191.683 89.55L191.183 89.5464V89.55H191.683ZM192.333 95.8L191.898 96.046L191.899 96.0481L192.333 95.8ZM194.133 97V97.5L194.238 96.5111L194.133 97ZM184.533 97L184.441 96.5086L184.533 97.5V97ZM186.433 95.75L186.862 96.0072L186.872 95.9908L186.88 95.9736L186.433 95.75ZM186.793 75.1133C186.008 73.9926 184.939 73.3821 183.635 73.1105L183.431 74.0895C184.528 74.3179 185.358 74.8074 185.974 75.6867L186.793 75.1133ZM183.58 74.0978C185.717 73.899 189.351 73.7 191.683 73.7V72.7C189.315 72.7 185.649 72.901 183.487 73.1021L183.58 74.0978ZM191.183 73.2V77H192.183V73.2H191.183ZM192.051 77.3383C193.69 75.5549 196.916 73.55 200.033 73.55V72.55C196.55 72.55 193.076 74.7451 191.315 76.6617L192.051 77.3383ZM200.033 73.55C203.087 73.55 205.322 74.5918 206.796 76.1948C208.278 77.8048 209.033 80.0261 209.033 82.45H210.033C210.033 79.8239 209.214 77.3452 207.532 75.5177C205.845 73.6832 203.33 72.55 200.033 72.55V73.55ZM209.033 82.45V89H210.033V82.45H209.033ZM209.033 89C209.033 89.7577 209.058 91.184 209.166 92.5699C209.22 93.2624 209.295 93.9535 209.399 94.5497C209.501 95.1287 209.64 95.678 209.848 96.046L210.718 95.554C210.601 95.347 210.484 94.9463 210.384 94.3768C210.287 93.8247 210.215 93.1688 210.163 92.4926C210.058 91.141 210.033 89.7423 210.033 89H209.033ZM209.872 96.0846C210.405 96.854 211.118 97.2602 211.954 97.4831L212.212 96.5169C211.548 96.3398 211.062 96.046 210.694 95.5154L209.872 96.0846ZM212.083 96.5H202.483V97.5H212.083V96.5ZM202.612 97.4831C203.432 97.2645 204.226 96.8582 204.717 95.9981L203.849 95.5019C203.541 96.0418 203.034 96.3355 202.354 96.5169L202.612 97.4831ZM204.723 95.9881C204.93 95.6061 205.064 95.0274 205.161 94.4145C205.26 93.7831 205.329 93.049 205.376 92.3134C205.471 90.8411 205.483 89.3285 205.483 88.55H204.483C204.483 89.3215 204.471 90.8089 204.378 92.2491C204.332 92.9698 204.266 93.6701 204.173 94.2589C204.077 94.8663 203.962 95.2939 203.844 95.5119L204.723 95.9881ZM205.483 88.5454L205.433 83.1454L204.433 83.1546L204.483 88.5546L205.483 88.5454ZM205.433 83.15C205.433 81.6488 205.476 79.2242 204.815 77.1777C204.482 76.1458 203.96 75.1713 203.13 74.4538C202.291 73.7284 201.177 73.3 199.733 73.3V74.3C200.964 74.3 201.838 74.6591 202.476 75.2103C203.122 75.7693 203.565 76.5604 203.864 77.4848C204.466 79.3508 204.433 81.6012 204.433 83.15H205.433ZM199.733 73.3C198.027 73.3 196.294 73.871 194.812 74.6799C193.332 75.4881 192.059 76.5571 191.282 77.6016L192.084 78.1983C192.758 77.2929 193.91 76.3119 195.292 75.5576C196.672 74.804 198.24 74.3 199.733 74.3V73.3ZM191.183 77.9053L191.233 82.6053L192.233 82.5947L192.183 77.8947L191.183 77.9053ZM191.233 82.5964L191.183 89.5464L192.183 89.5536L192.233 82.6036L191.233 82.5964ZM191.183 89.55C191.183 90.2739 191.183 91.5642 191.266 92.8203C191.307 93.448 191.369 94.0768 191.465 94.6277C191.558 95.165 191.691 95.68 191.898 96.046L192.768 95.554C192.65 95.345 192.54 94.9725 192.45 94.4567C192.363 93.9544 192.303 93.3645 192.263 92.7547C192.183 91.5358 192.183 90.2761 192.183 89.55H191.183ZM191.899 96.0481C192.395 96.9158 193.249 97.3218 194.028 97.4889L194.238 96.5111C193.618 96.3782 193.071 96.0842 192.767 95.5519L191.899 96.0481ZM194.133 96.5H184.533V97.5H194.133V96.5ZM184.625 97.4914C185.53 97.3218 186.321 96.908 186.862 96.0072L186.004 95.4928C185.645 96.092 185.136 96.3782 184.441 96.5086L184.625 97.4914ZM186.88 95.9736C187.089 95.5565 187.23 94.998 187.331 94.4049C187.433 93.8028 187.5 93.1265 187.545 92.4515C187.633 91.1017 187.633 89.7238 187.633 88.9H186.633C186.633 89.7262 186.633 91.0733 186.547 92.386C186.504 93.0423 186.439 93.6815 186.345 94.2373C186.249 94.802 186.127 95.2435 185.986 95.5264L186.88 95.9736ZM187.633 88.9C187.633 85.6139 187.683 82.7573 187.614 80.4662C187.546 78.1945 187.36 76.3745 186.841 75.1979L185.926 75.6021C186.356 76.5754 186.546 78.2055 186.615 80.4963C186.683 82.7677 186.633 85.5861 186.633 88.9H187.633ZM240.273 85.1V85.6H240.784L240.773 85.0893L240.273 85.1ZM221.723 85.1V84.6H221.223V85.1H221.723ZM239.423 91.3V90.8H239.141L238.995 91.0408L239.423 91.3ZM239.773 91.3L240.232 91.4977L240.533 90.8H239.773V91.3ZM221.773 84.6L221.276 84.5483L221.218 85.1H221.773V84.6ZM235.373 84.6V85.1H235.893L235.873 84.58L235.373 84.6ZM217.073 85.65C217.073 82.0778 218.177 79.0969 220.155 77.0129C222.128 74.9323 225.015 73.7 228.673 73.7V72.7C224.781 72.7 221.618 74.0177 219.429 76.3246C217.244 78.6281 216.073 81.8722 216.073 85.65H217.073ZM228.673 73.7C232.076 73.7 234.803 74.8795 236.698 76.8698C238.598 78.8641 239.7 81.7123 239.773 85.1107L240.773 85.0893C240.696 81.4877 239.523 78.3859 237.423 76.1802C235.318 73.9705 232.32 72.7 228.673 72.7V73.7ZM240.273 84.6H221.723V85.6H240.273V84.6ZM221.223 85.1C221.223 88.0062 221.469 91.054 222.706 93.3845C223.332 94.5618 224.213 95.5619 225.441 96.2638C226.666 96.9643 228.206 97.35 230.123 97.35V96.35C228.34 96.35 226.98 95.992 225.937 95.3956C224.896 94.8006 224.139 93.9507 223.59 92.9155C222.477 90.821 222.223 87.9938 222.223 85.1H221.223ZM230.123 97.35C233.662 97.35 237.768 94.996 239.851 91.5592L238.995 91.0408C237.078 94.204 233.284 96.35 230.123 96.35V97.35ZM239.423 91.8H239.773V90.8H239.423V91.8ZM239.314 91.1023C237.715 94.8172 233.186 97 229.323 97V98C233.46 98 238.431 95.6828 240.232 91.4977L239.314 91.1023ZM229.323 97C225.748 97 222.687 95.9065 220.526 93.9598C218.371 92.0182 217.073 89.1948 217.073 85.65H216.073C216.073 89.4552 217.475 92.5568 219.857 94.7027C222.234 96.8435 225.548 98 229.323 98V97ZM228.923 73.2C225.923 73.2 224.099 75.1621 223.002 77.4933C221.908 79.8166 221.477 82.6114 221.276 84.5483L222.27 84.6517C222.469 82.7386 222.888 80.0834 223.907 77.9192C224.922 75.7629 226.473 74.2 228.923 74.2V73.2ZM221.773 85.1H235.373V84.1H221.773V85.1ZM235.873 84.58C235.798 82.7072 235.623 79.9054 234.714 77.563C234.258 76.3864 233.605 75.2941 232.658 74.4939C231.702 73.6858 230.474 73.2 228.923 73.2V74.2C230.247 74.2 231.244 74.608 232.013 75.2577C232.791 75.9153 233.363 76.8449 233.782 77.9245C234.623 80.0946 234.798 82.7428 234.873 84.62L235.873 84.58ZM255.447 72.35L255.474 71.8507L255.469 71.8505L255.447 72.35ZM262.397 73.9L262.897 73.8783L262.883 73.5642L262.594 73.4404L262.397 73.9ZM262.447 75.05H262.947V75.0391L262.947 75.0283L262.447 75.05ZM262.247 79L262.329 79.4932L262.716 79.4288L262.746 79.0383L262.247 79ZM261.947 79.05L261.452 79.1207L261.525 79.6273L262.029 79.5432L261.947 79.05ZM253.347 98.25L253.363 97.7502L253.363 97.7502L253.347 98.25ZM246.097 96L245.598 96.0333L245.615 96.287L245.83 96.4227L246.097 96ZM246.097 91.4L246.027 90.905L245.624 90.9626L245.598 91.3688L246.097 91.4ZM246.447 91.35L246.938 91.2561L246.849 90.7876L246.377 90.855L246.447 91.35ZM254.197 97.55L254.219 98.0495L254.22 98.0495L254.197 97.55ZM259.897 92.25L260.397 92.2423L260.397 92.2422L259.897 92.25ZM246.047 79.15C246.047 77.0204 247.237 75.4142 249.029 74.3415C250.832 73.2624 253.206 72.753 255.426 72.8495L255.469 71.8505C253.088 71.747 250.513 72.2876 248.515 73.4835C246.507 74.6858 245.047 76.5796 245.047 79.15H246.047ZM255.42 72.8493C257.222 72.9467 260.513 73.6363 262.2 74.3596L262.594 73.4404C260.782 72.6637 257.373 71.9533 255.474 71.8507L255.42 72.8493ZM261.898 73.9217L261.948 75.0717L262.947 75.0283L262.897 73.8783L261.898 73.9217ZM261.947 75.05C261.947 76.3778 261.849 77.6589 261.749 78.9617L262.746 79.0383C262.846 77.7411 262.947 76.4222 262.947 75.05H261.947ZM262.165 78.5068L261.865 78.5568L262.029 79.5432L262.329 79.4932L262.165 78.5068ZM262.442 78.9793C261.958 75.5886 258.952 72.45 254.447 72.45V73.45C258.443 73.45 261.037 76.2114 261.452 79.1207L262.442 78.9793ZM254.447 72.45C251.448 72.45 249.097 74.8971 249.097 78.1H250.097C250.097 75.4029 252.046 73.45 254.447 73.45V72.45ZM249.097 78.1C249.097 79.9059 250.155 81.091 251.577 81.9678C252.975 82.8298 254.834 83.4611 256.595 84.1299C258.392 84.8124 260.112 85.5409 261.386 86.5987C262.633 87.6348 263.447 88.9817 263.447 90.95H264.447C264.447 88.6433 263.467 87.0277 262.025 85.8294C260.608 84.6528 258.74 83.8751 256.95 83.1951C255.123 82.5014 253.395 81.914 252.102 81.1166C250.833 80.334 250.097 79.4191 250.097 78.1H249.097ZM263.447 90.95C263.447 93.274 262.126 94.9933 260.176 96.1375C258.214 97.2879 255.661 97.8228 253.363 97.7502L253.331 98.7498C255.783 98.8272 258.53 98.2621 260.682 97C262.844 95.7317 264.447 93.726 264.447 90.95H263.447ZM253.363 97.7502C250.272 97.6537 248.208 96.7416 246.364 95.5773L245.83 96.4227C247.787 97.6584 250.022 98.6463 253.332 98.7498L253.363 97.7502ZM246.596 95.9667C246.547 95.2361 246.547 94.5028 246.547 93.75H245.547C245.547 94.4972 245.547 95.2639 245.598 96.0333L246.596 95.9667ZM246.547 93.75C246.547 92.9479 246.547 92.2132 246.596 91.4312L245.598 91.3688C245.547 92.1868 245.547 92.9521 245.547 93.75H246.547ZM246.168 91.895L246.518 91.845L246.377 90.855L246.027 90.905L246.168 91.895ZM245.956 91.4439C246.299 93.2347 247.158 94.9395 248.546 96.1737C249.942 97.4142 251.846 98.155 254.219 98.0495L254.175 97.0505C252.049 97.145 250.403 96.4858 249.211 95.4263C248.012 94.3605 247.246 92.8653 246.938 91.2561L245.956 91.4439ZM254.22 98.0495C255.979 97.9707 257.536 97.4304 258.654 96.4362C259.783 95.4331 260.424 94.0029 260.397 92.2423L259.397 92.2577C259.42 93.7471 258.887 94.8919 257.99 95.6888C257.084 96.4946 255.766 96.9793 254.175 97.0505L254.22 98.0495ZM260.397 92.2422C260.369 90.4057 259.304 89.2133 257.875 88.3356C256.472 87.4746 254.614 86.8536 252.862 86.1888C251.073 85.5101 249.365 84.7777 248.101 83.6932C246.863 82.6313 246.047 81.228 246.047 79.15H245.047C245.047 81.547 246.012 83.2187 247.45 84.4521C248.861 85.6629 250.721 86.4462 252.507 87.1237C254.33 87.8152 256.054 88.3911 257.351 89.1878C258.622 89.968 259.376 90.8943 259.397 92.2578L260.397 92.2422ZM0.5 133.08V132.58H7.45058e-09V133.08H0.5ZM12.2 133.08H12.7V132.58H12.2V133.08ZM12.2 135.24V135.74H12.7V135.24H12.2ZM12.06 135.24L11.5633 135.297L11.614 135.74H12.06V135.24ZM7.38 133.28V132.78H6.88V133.28H7.38ZM7.42 144.44L6.92069 144.466L6.92073 144.467L7.42 144.44ZM7.74 146.3L8.18263 146.067L8.17579 146.055L7.74 146.3ZM8.7 147V147.5L8.82127 146.515L8.7 147ZM4.06 147L3.93873 146.515L4.06 147.5V147ZM4.54 146.8L4.805 147.224L4.81807 147.216L4.83062 147.207L4.54 146.8ZM4.98 146.3L4.56398 146.023L4.55566 146.035L4.54811 146.048L4.98 146.3ZM5.34 133.28H5.84V132.78H5.34V133.28ZM0.62 135.18V135.68H1.00048L1.10191 135.313L0.62 135.18ZM0.5 135.18H7.45058e-09V135.68H0.5V135.18ZM0.5 133.58H12.2V132.58H0.5V133.58ZM11.7 133.08V135.24H12.7V133.08H11.7ZM12.2 134.74H12.06V135.74H12.2V134.74ZM12.5568 135.183C12.4097 133.9 11.3287 133.32 10.3188 133.056C9.29052 132.788 8.11382 132.78 7.38 132.78V133.78C8.12618 133.78 9.17948 133.792 10.0662 134.024C10.9713 134.26 11.4903 134.66 11.5633 135.297L12.5568 135.183ZM6.88 133.28V142.56H7.88V133.28H6.88ZM6.88 142.56C6.88 142.9 6.87992 143.692 6.92069 144.466L7.91931 144.414C7.88008 143.668 7.88 142.9 7.88 142.56H6.88ZM6.92073 144.467C6.94131 144.848 6.97761 145.251 7.03362 145.605C7.08623 145.939 7.16591 146.299 7.30421 146.545L8.17579 146.055C8.13409 145.981 8.07377 145.781 8.02138 145.45C7.97239 145.139 7.93869 144.772 7.91927 144.413L6.92073 144.467ZM7.29754 146.533C7.58196 147.073 8.08356 147.361 8.57873 147.485L8.82127 146.515C8.51644 146.439 8.29804 146.287 8.18246 146.067L7.29754 146.533ZM8.7 146.5H4.06V147.5H8.7V146.5ZM4.18127 147.485C4.38114 147.435 4.59194 147.357 4.805 147.224L4.275 146.376C4.16806 146.443 4.05886 146.485 3.93873 146.515L4.18127 147.485ZM4.83062 147.207C5.02896 147.065 5.23679 146.852 5.41189 146.552L4.54811 146.048C4.44321 146.228 4.33104 146.335 4.24938 146.393L4.83062 147.207ZM5.39603 146.577C5.55631 146.337 5.64249 146.009 5.697 145.708C5.75459 145.39 5.7886 145.029 5.80916 144.674C5.85024 143.965 5.84 143.231 5.84 142.84H4.84C4.84 143.249 4.84976 143.945 4.81084 144.616C4.7914 144.951 4.76041 145.268 4.713 145.53C4.66251 145.809 4.60369 145.963 4.56398 146.023L5.39603 146.577ZM5.84 142.84V133.28H4.84V142.84H5.84ZM5.34 132.78C4.53032 132.78 3.41533 132.782 2.43249 133.042C1.4428 133.303 0.466402 133.86 0.138094 135.047L1.10191 135.313C1.2936 134.62 1.8572 134.227 2.68751 134.008C3.52467 133.788 4.50968 133.78 5.34 133.78V132.78ZM0.62 134.68H0.5V135.68H0.62V134.68ZM1 135.18V133.08H7.45058e-09V135.18H1ZM16.3391 147V146.5L16.3358 146.5L16.3391 147ZM16.4791 141.24L16.4976 140.74L16.4933 140.74L16.4791 141.24ZM17.9991 141.52L17.8617 142.001L18.4991 142.183V141.52H17.9991ZM14.2191 138.76L14.6351 139.037L14.6564 139.005L14.6726 138.971L14.2191 138.76ZM14.1191 138.94L13.703 138.663L13.655 138.735L13.634 138.819L14.1191 138.94ZM13.9991 139.14L13.6455 138.786L13.602 138.83L13.5703 138.883L13.9991 139.14ZM13.8191 139.44L13.4286 139.128L13.4105 139.15L13.3951 139.175L13.8191 139.44ZM18.9591 138.26L19.307 137.901L19.2946 137.889L19.2815 137.878L18.9591 138.26ZM19.8191 140.58L20.3191 140.583V140.58H19.8191ZM19.7991 144.18L19.2991 144.177V144.18H19.7991ZM20.0391 146.52L19.5918 146.744L19.6039 146.768L19.6185 146.79L20.0391 146.52ZM20.7591 147V147.5L20.8638 146.511L20.7591 147ZM17.6391 146.58L18.0046 146.921L18.1391 146.777V146.58H17.6391ZM17.6791 146.5L17.2318 146.276L17.2318 146.276L17.6791 146.5ZM17.9591 144.04L17.4591 144.036V144.04H17.9591ZM17.9791 141.64L18.479 141.644L18.4823 141.255L18.1063 141.156L17.9791 141.64ZM16.3358 146.5C14.8458 146.51 13.7901 146.3 13.1219 145.909C12.4986 145.543 12.1791 145.003 12.1791 144.18H11.1791C11.1791 145.337 11.6695 146.217 12.6163 146.771C13.518 147.3 14.7923 147.51 16.3424 147.5L16.3358 146.5ZM12.1791 144.18C12.1791 143.381 12.5639 142.779 13.2807 142.362C14.0213 141.931 15.1179 141.701 16.4648 141.74L16.4933 140.74C15.0403 140.699 13.7368 140.939 12.7774 141.498C11.7942 142.071 11.1791 142.979 11.1791 144.18H12.1791ZM16.4606 141.74C16.9372 141.757 17.449 141.883 17.8617 142.001L18.1364 141.039C17.7092 140.917 17.1009 140.763 16.4976 140.74L16.4606 141.74ZM18.4991 141.52V140.78H17.4991V141.52H18.4991ZM18.4991 140.78C18.4991 140.07 18.4587 139.178 18.1192 138.455C17.9439 138.082 17.6829 137.739 17.2982 137.493C16.9134 137.247 16.4405 137.12 15.8791 137.12V138.12C16.2876 138.12 16.5647 138.211 16.7593 138.335C16.954 138.46 17.1017 138.641 17.2139 138.88C17.4494 139.382 17.4991 140.07 17.4991 140.78H18.4991ZM15.8791 137.12C15.2644 137.12 14.7966 137.299 14.4418 137.598C14.1011 137.885 13.9038 138.252 13.7656 138.549L14.6726 138.971C14.7943 138.708 14.917 138.505 15.0864 138.362C15.2415 138.231 15.4737 138.12 15.8791 138.12V137.12ZM13.803 138.483C13.7632 138.542 13.7353 138.6 13.7218 138.626C13.7138 138.643 13.7099 138.65 13.7063 138.657C13.7033 138.662 13.7024 138.664 13.703 138.663L14.5351 139.217C14.5749 139.158 14.6029 139.1 14.6163 139.074C14.6243 139.057 14.6282 139.05 14.6318 139.043C14.6349 139.038 14.6358 139.036 14.6351 139.037L13.803 138.483ZM13.634 138.819C13.635 138.815 13.6367 138.809 13.6395 138.803C13.6423 138.796 13.6453 138.79 13.6482 138.785C13.6539 138.776 13.6561 138.776 13.6455 138.786L14.3526 139.494C14.4577 139.388 14.5564 139.252 14.6041 139.061L13.634 138.819ZM13.5703 138.883C13.5347 138.942 13.4929 139.023 13.4785 139.049C13.4571 139.088 13.4429 139.11 13.4286 139.128L14.2095 139.752C14.2752 139.67 14.3211 139.592 14.3547 139.531C14.3952 139.457 14.4034 139.438 14.4278 139.397L13.5703 138.883ZM13.3951 139.175C13.3896 139.184 13.3871 139.186 13.3883 139.185C13.3899 139.183 13.3914 139.182 13.3905 139.183C13.3884 139.184 13.3551 139.2 13.2591 139.2V140.2C13.463 140.2 13.6598 140.166 13.8377 140.077C14.0213 139.985 14.1515 139.852 14.2431 139.705L13.3951 139.175ZM13.2591 139.2C13.1201 139.2 13.1145 139.167 13.1407 139.192C13.1523 139.203 13.1536 139.211 13.1506 139.203C13.1467 139.191 13.1391 139.16 13.1391 139.1H12.1391C12.1391 139.377 12.2088 139.68 12.4424 139.908C12.6736 140.133 12.9781 140.2 13.2591 140.2V139.2ZM13.1391 139.1C13.1391 138.981 13.1925 138.853 13.3667 138.706C13.5481 138.553 13.8239 138.414 14.1661 138.299C14.8489 138.069 15.6538 137.98 16.0791 137.98V136.98C15.5643 136.98 14.6492 137.081 13.847 137.351C13.4467 137.486 13.0388 137.674 12.7221 137.941C12.3981 138.215 12.1391 138.599 12.1391 139.1H13.1391ZM16.0791 137.98C16.4589 137.98 16.98 138.035 17.4782 138.154C17.9904 138.276 18.4075 138.449 18.6366 138.642L19.2815 137.878C18.8706 137.531 18.2677 137.314 17.71 137.181C17.1381 137.045 16.5393 136.98 16.0791 136.98V137.98ZM18.6112 138.619C19.12 139.112 19.3191 139.799 19.3191 140.58H20.3191C20.3191 139.641 20.0781 138.648 19.307 137.901L18.6112 138.619ZM19.3191 140.577L19.2991 144.177L20.2991 144.183L20.3191 140.583L19.3191 140.577ZM19.2991 144.18C19.2991 144.503 19.304 144.993 19.3379 145.461C19.3548 145.695 19.3794 145.932 19.416 146.144C19.451 146.346 19.5032 146.566 19.5918 146.744L20.4863 146.296C20.4649 146.254 20.4321 146.151 20.4015 145.974C20.3725 145.806 20.3509 145.605 20.3353 145.389C20.3041 144.957 20.2991 144.497 20.2991 144.18H19.2991ZM19.6185 146.79C19.8857 147.206 20.2746 147.408 20.6543 147.489L20.8638 146.511C20.6835 146.472 20.5524 146.394 20.4597 146.25L19.6185 146.79ZM20.7591 146.5H16.3391V147.5H20.7591V146.5ZM16.4391 140.9C15.0666 140.9 14.1478 141.289 13.5915 141.972C13.0518 142.634 12.9391 143.472 12.9391 144.18H13.9391C13.9391 143.548 14.0464 142.996 14.3666 142.603C14.6704 142.231 15.2516 141.9 16.4391 141.9V140.9ZM12.9391 144.18C12.9391 144.874 13.027 145.698 13.5467 146.346C14.0846 147.015 14.9852 147.38 16.3391 147.38V146.38C15.153 146.38 14.6035 146.065 14.3264 145.719C14.0311 145.352 13.9391 144.826 13.9391 144.18H12.9391ZM16.3391 147.38C16.5425 147.38 16.8368 147.381 17.1195 147.336C17.3906 147.294 17.7485 147.195 18.0046 146.921L17.2735 146.239C17.2496 146.265 17.1676 146.316 16.9636 146.349C16.7713 146.379 16.5557 146.38 16.3391 146.38V147.38ZM18.1391 146.58C18.1391 146.66 18.1187 146.721 18.1048 146.755C18.0979 146.772 18.0914 146.785 18.0875 146.792C18.0836 146.799 18.0807 146.804 18.0803 146.805C18.0801 146.805 18.0802 146.805 18.083 146.8C18.0851 146.797 18.0889 146.791 18.0931 146.784C18.1019 146.769 18.1138 146.749 18.1263 146.724L17.2318 146.276C17.2333 146.273 17.2435 146.256 17.2228 146.29C17.2163 146.301 17.1972 146.333 17.1802 146.374C17.1619 146.419 17.1391 146.49 17.1391 146.58H18.1391ZM18.1263 146.724C18.2943 146.388 18.3677 145.872 18.4072 145.418C18.449 144.938 18.4591 144.427 18.4591 144.04H17.4591C17.4591 144.413 17.4492 144.892 17.4109 145.332C17.3704 145.798 17.3038 146.132 17.2318 146.276L18.1263 146.724ZM18.459 144.044L18.479 141.644L17.4791 141.636L17.4591 144.036L18.459 144.044ZM18.1063 141.156C17.727 141.057 17.1506 140.9 16.4391 140.9V141.9C17.0075 141.9 17.4712 142.023 17.8518 142.124L18.1063 141.156ZM22.2386 137.62L22.1923 137.122L22.1366 138.109L22.2386 137.62ZM25.4986 137.46H25.9986V136.96H25.4986V137.46ZM25.4986 138.28H24.9986V139.238L25.7845 138.69L25.4986 138.28ZM25.4386 146.84L25.6508 146.387L24.9444 146.056L24.9386 146.836L25.4386 146.84ZM25.4186 149.52L24.9186 149.516V149.52H25.4186ZM25.6386 152.02L25.1875 152.236L25.2011 152.264L25.218 152.29L25.6386 152.02ZM26.3786 152.5V153L26.4834 152.011L26.3786 152.5ZM22.5586 152.5L22.4538 152.011L22.5586 153V152.5ZM23.2986 152L23.7273 152.257L23.741 152.235L23.7521 152.211L23.2986 152ZM23.3786 138.34L23.8398 138.147L23.819 138.097L23.7882 138.053L23.3786 138.34ZM25.4386 146.62L24.9386 146.616L24.9363 146.928L25.215 147.067L25.4386 146.62ZM25.4986 138.62L25.1693 138.244L25.0003 138.392L24.9986 138.616L25.4986 138.62ZM22.2849 138.118C23.1326 138.039 24.5769 137.96 25.4986 137.96V136.96C24.5403 136.96 23.0646 137.041 22.1923 137.122L22.2849 138.118ZM24.9986 137.46V138.28H25.9986V137.46H24.9986ZM25.7845 138.69C26.373 138.28 27.175 137.98 27.9786 137.98V136.98C26.9422 136.98 25.9442 137.36 25.2127 137.87L25.7845 138.69ZM27.9786 137.98C29.2583 137.98 30.3096 138.426 31.0409 139.174C31.773 139.924 32.2186 141.013 32.2186 142.36H33.2186C33.2186 140.787 32.6942 139.436 31.7563 138.476C30.8176 137.514 29.4989 136.98 27.9786 136.98V137.98ZM32.2186 142.36C32.2186 143.678 31.7541 144.756 30.9971 145.504C30.2393 146.253 29.1595 146.7 27.8786 146.7V147.7C29.3977 147.7 30.7379 147.167 31.7001 146.216C32.6631 145.264 33.2186 143.922 33.2186 142.36H32.2186ZM27.8786 146.7C26.9742 146.7 26.1786 146.635 25.6508 146.387L25.2264 147.293C25.9786 147.645 26.983 147.7 27.8786 147.7V146.7ZM24.9386 146.836L24.9186 149.516L25.9186 149.524L25.9386 146.844L24.9386 146.836ZM24.9186 149.52C24.9186 149.809 24.9185 150.332 24.9469 150.843C24.961 151.098 24.9827 151.358 25.0167 151.59C25.0488 151.808 25.0981 152.049 25.1875 152.236L26.0897 151.804C26.0691 151.761 26.0359 151.647 26.0061 151.444C25.9782 151.254 25.9587 151.027 25.9453 150.787C25.9187 150.308 25.9186 149.811 25.9186 149.52H24.9186ZM25.218 152.29C25.4914 152.716 25.9083 152.911 26.2738 152.989L26.4834 152.011C26.2889 151.969 26.1458 151.884 26.0592 151.75L25.218 152.29ZM26.3786 152H22.5586V153H26.3786V152ZM22.6634 152.989C23.0329 152.91 23.4551 152.711 23.7273 152.257L22.8698 151.743C22.7821 151.889 22.6443 151.97 22.4538 152.011L22.6634 152.989ZM23.7521 152.211C23.847 152.006 23.9042 151.751 23.9428 151.506C23.9828 151.253 24.0084 150.973 24.0252 150.698C24.0587 150.148 24.0586 149.589 24.0586 149.26H23.0586C23.0586 149.591 23.0585 150.122 23.027 150.637C23.0113 150.895 22.9882 151.141 22.955 151.35C22.9205 151.569 22.8802 151.714 22.8451 151.789L23.7521 152.211ZM24.0586 149.26C24.0586 148.603 24.0698 147.648 24.0811 146.566C24.0923 145.486 24.1036 144.282 24.1036 143.132C24.1036 141.985 24.0924 140.886 24.0582 140.018C24.0412 139.585 24.0182 139.202 23.9871 138.897C23.9585 138.616 23.9178 138.333 23.8398 138.147L22.9174 138.533C22.9165 138.531 22.9203 138.54 22.9268 138.565C22.9331 138.589 22.9403 138.622 22.9479 138.664C22.9633 138.749 22.9782 138.861 22.9923 138.998C23.0203 139.274 23.0423 139.633 23.059 140.057C23.0923 140.905 23.1036 141.988 23.1036 143.132C23.1036 144.276 23.0924 145.475 23.0811 146.556C23.0699 147.634 23.0586 148.597 23.0586 149.26H24.0586ZM23.7882 138.053C23.4238 137.533 22.9242 137.252 22.3406 137.131L22.1366 138.109C22.513 138.188 22.7734 138.347 22.969 138.627L23.7882 138.053ZM25.215 147.067C26.007 147.463 27.0496 147.54 27.8786 147.54V146.54C27.0676 146.54 26.2301 146.457 25.6622 146.173L25.215 147.067ZM27.8786 147.54C28.6227 147.54 29.2314 147.303 29.712 146.909C30.1841 146.522 30.5094 146.002 30.7349 145.463C31.1823 144.393 31.2786 143.146 31.2786 142.36H30.2786C30.2786 143.094 30.1849 144.187 29.8123 145.077C29.6278 145.518 29.3856 145.883 29.0777 146.136C28.7783 146.382 28.3945 146.54 27.8786 146.54V147.54ZM31.2786 142.36C31.2786 141.576 31.2146 140.32 30.8002 139.243C30.5914 138.7 30.2825 138.173 29.8201 137.78C29.3483 137.379 28.7439 137.14 27.9986 137.14V138.14C28.5133 138.14 28.8864 138.299 29.1721 138.542C29.4672 138.793 29.6958 139.157 29.867 139.602C30.2126 140.5 30.2786 141.604 30.2786 142.36H31.2786ZM27.9986 137.14C26.9175 137.14 25.8843 137.618 25.1693 138.244L25.8278 138.996C26.3929 138.502 27.1996 138.14 27.9986 138.14V137.14ZM24.9986 138.616L24.9386 146.616L25.9386 146.624L25.9986 138.624L24.9986 138.616ZM40.0794 137.62L40.0638 137.12L39.5794 137.135V137.62H40.0794ZM43.0794 134.4V133.9H42.6168L42.5809 134.361L43.0794 134.4ZM44.0194 134.4H44.5194V133.9H44.0194V134.4ZM44.0194 137.52H43.5194V138.02H44.0194V137.52ZM46.6994 137.52H47.1994V137.02H46.6994V137.52ZM46.6994 137.82V138.32H47.1994V137.82H46.6994ZM44.0194 137.82V137.32H43.5194V137.82H44.0194ZM46.5394 145.3L46.8686 144.924L46.2431 144.376L46.0527 145.185L46.5394 145.3ZM46.6994 145.44L47.1415 145.673L47.3261 145.324L47.0286 145.064L46.6994 145.44ZM42.1394 137.82H42.6394V137.32H42.1394V137.82ZM40.0794 137.82H39.5794V138.32H40.0794V137.82ZM40.095 138.12C41.4884 138.076 42.3779 137.608 42.9061 136.841C43.405 136.117 43.518 135.207 43.5779 134.439L42.5809 134.361C42.5207 135.133 42.4138 135.793 42.0826 136.274C41.7808 136.712 41.2304 137.084 40.0638 137.12L40.095 138.12ZM43.0794 134.9H44.0194V133.9H43.0794V134.9ZM43.5194 134.4V137.52H44.5194V134.4H43.5194ZM44.0194 138.02H46.6994V137.02H44.0194V138.02ZM46.1994 137.52V137.82H47.1994V137.52H46.1994ZM46.6994 137.32H44.0194V138.32H46.6994V137.32ZM43.5194 137.82V145.52H44.5194V137.82H43.5194ZM43.5194 145.52C43.5194 146.002 43.6212 146.42 43.8659 146.727C44.1243 147.051 44.4848 147.18 44.8394 147.18V146.18C44.734 146.18 44.6845 146.149 44.6478 146.103C44.5975 146.04 44.5194 145.878 44.5194 145.52H43.5194ZM44.8394 147.18C45.3257 147.18 45.8189 146.934 46.1907 146.634C46.5646 146.333 46.9119 145.9 47.0261 145.415L46.0527 145.185C46.0069 145.38 45.8342 145.637 45.5631 145.856C45.2899 146.076 45.013 146.18 44.8394 146.18V147.18ZM46.2101 145.676L46.3701 145.816L47.0286 145.064L46.8686 144.924L46.2101 145.676ZM46.2572 145.207C45.8221 146.031 45.4056 146.378 45.0753 146.537C44.7375 146.699 44.4253 146.7 44.0794 146.7V147.7C44.4135 147.7 44.9412 147.711 45.5085 147.438C46.0831 147.162 46.6367 146.629 47.1415 145.673L46.2572 145.207ZM44.0794 146.7C43.7169 146.7 43.3489 146.546 43.0708 146.293C42.792 146.039 42.6394 145.721 42.6394 145.42H41.6394C41.6394 146.059 41.9568 146.631 42.3979 147.032C42.8398 147.434 43.4419 147.7 44.0794 147.7V146.7ZM42.6394 145.42V137.82H41.6394V145.42H42.6394ZM42.1394 137.32H40.0794V138.32H42.1394V137.32ZM40.5794 137.82V137.62H39.5794V137.82H40.5794ZM53.1878 146.7C51.899 146.7 50.8534 146.25 50.1296 145.502C49.4043 144.753 48.9678 143.669 48.9678 142.34H47.9678C47.9678 143.891 48.4813 145.237 49.411 146.198C50.3422 147.16 51.6566 147.7 53.1878 147.7V146.7ZM48.9678 142.34C48.9678 141.041 49.3951 139.953 50.1073 139.195C50.8168 138.439 51.8369 137.98 53.0878 137.98V136.98C51.5787 136.98 50.2888 137.541 49.3783 138.51C48.4705 139.477 47.9678 140.819 47.9678 142.34H48.9678ZM53.0878 137.98C54.3675 137.98 55.4188 138.426 56.1501 139.174C56.8822 139.924 57.3278 141.013 57.3278 142.36H58.3278C58.3278 140.787 57.8035 139.436 56.8655 138.476C55.9269 137.514 54.6081 136.98 53.0878 136.98V137.98ZM57.3278 142.36C57.3278 143.693 56.9036 144.772 56.1958 145.515C55.4904 146.255 54.4665 146.7 53.1878 146.7V147.7C54.7091 147.7 56.0053 147.165 56.9198 146.205C57.8321 145.248 58.3278 143.907 58.3278 142.36H57.3278ZM53.1078 137.14C52.3576 137.14 51.7535 137.38 51.2864 137.786C50.8292 138.183 50.5318 138.714 50.3352 139.257C49.9454 140.334 49.9078 141.586 49.9078 142.34H50.9078C50.9078 141.594 50.9502 140.496 51.2755 139.598C51.4363 139.153 51.6552 138.79 51.9423 138.541C52.2196 138.3 52.588 138.14 53.1078 138.14V137.14ZM49.9078 142.34C49.9078 143.122 49.9664 144.374 50.3786 145.447C50.5865 145.988 50.8952 146.513 51.3595 146.904C51.8328 147.304 52.4394 147.54 53.1878 147.54V146.54C52.6662 146.54 52.2903 146.381 52.0043 146.14C51.7091 145.891 51.4817 145.53 51.312 145.088C50.9692 144.196 50.9078 143.098 50.9078 142.34H49.9078ZM53.1878 147.54C53.9324 147.54 54.5333 147.303 54.9993 146.901C55.4555 146.508 55.7539 145.982 55.9521 145.442C56.345 144.373 56.3878 143.126 56.3878 142.36H55.3878C55.3878 143.114 55.3406 144.207 55.0135 145.098C54.8517 145.538 54.6326 145.897 54.3464 146.144C54.0698 146.382 53.7032 146.54 53.1878 146.54V147.54ZM56.3878 142.36C56.3878 141.576 56.3238 140.32 55.9095 139.243C55.7006 138.7 55.3917 138.173 54.9293 137.78C54.4575 137.379 53.8531 137.14 53.1078 137.14V138.14C53.6225 138.14 53.9956 138.299 54.2813 138.542C54.5764 138.793 54.805 139.157 54.9762 139.602C55.3218 140.5 55.3878 141.604 55.3878 142.36H56.3878ZM64.4087 137.7V137.2L64.2765 138.182L64.4087 137.7ZM68.5088 137.7L68.6488 138.18L68.5088 137.2V137.7ZM70.7488 146.3L70.2904 146.5L70.8242 147.724L71.2256 146.45L70.7488 146.3ZM73.5688 138.78L74.0649 138.842L74.0651 138.841L73.5688 138.78ZM72.0488 137.7L72.0519 137.2L71.8957 138.176L72.0488 137.7ZM75.2688 137.72L75.4388 138.19L75.2719 137.22L75.2688 137.72ZM72.9288 141.6L73.3931 141.785L73.3942 141.783L72.9288 141.6ZM70.7488 147.06V147.56H71.0875L71.2131 147.245L70.7488 147.06ZM69.2088 147.06L68.7478 147.254L68.8766 147.56H69.2088V147.06ZM66.4088 140.4L65.9464 140.59L65.9478 140.594L66.4088 140.4ZM64.4087 138.2H68.5088V137.2H64.4087V138.2ZM68.3687 137.22C68.0294 137.319 67.7527 137.509 67.569 137.793C67.3909 138.069 67.3288 138.387 67.3288 138.7H68.3288C68.3288 138.513 68.3666 138.401 68.4085 138.337C68.4448 138.281 68.5081 138.221 68.6488 138.18L68.3687 137.22ZM67.3288 138.7C67.3288 139.183 67.5184 139.877 67.764 140.597C68.017 141.339 68.3557 142.18 68.7015 142.989C69.048 143.799 69.4046 144.583 69.6951 145.212C69.9896 145.85 70.2082 146.311 70.2904 146.5L71.2071 146.1C71.1193 145.899 70.8879 145.41 70.603 144.793C70.3142 144.168 69.962 143.393 69.621 142.596C69.2793 141.797 68.9517 140.982 68.7104 140.275C68.4616 139.545 68.3288 138.997 68.3288 138.7H67.3288ZM71.2256 146.45C71.4474 145.746 72.0972 144.222 72.7342 142.661C73.0483 141.892 73.3559 141.121 73.5954 140.46C73.8288 139.816 74.0169 139.226 74.0649 138.842L73.0726 138.718C73.0406 138.974 72.8937 139.461 72.6552 140.119C72.4229 140.76 72.1217 141.516 71.8083 142.284C71.1903 143.798 70.5101 145.394 70.2719 146.15L71.2256 146.45ZM74.0651 138.841C74.1046 138.517 74.0292 138.227 73.8524 137.991C73.6872 137.77 73.4614 137.634 73.2613 137.544C73.0592 137.453 72.8429 137.392 72.6617 137.345C72.4622 137.294 72.3234 137.263 72.2018 137.224L71.8957 138.176C72.0541 138.227 72.2578 138.274 72.4115 138.313C72.5833 138.358 72.7308 138.402 72.8512 138.456C72.9736 138.511 73.029 138.56 73.0519 138.59C73.0633 138.606 73.0829 138.633 73.0724 138.719L74.0651 138.841ZM72.0456 138.2L75.2656 138.22L75.2719 137.22L72.0519 137.2L72.0456 138.2ZM75.0987 137.25C74.45 137.484 73.9994 138.059 73.623 138.744C73.2417 139.439 72.8793 140.358 72.4633 141.417L73.3942 141.783C73.8182 140.702 74.1558 139.851 74.4995 139.226C74.8481 138.591 75.1475 138.296 75.4388 138.19L75.0987 137.25ZM72.4644 141.415L70.2844 146.875L71.2131 147.245L73.3931 141.785L72.4644 141.415ZM70.7488 146.56H69.2088V147.56H70.7488V146.56ZM69.6697 146.866L66.8697 140.206L65.9478 140.594L68.7478 147.254L69.6697 146.866ZM66.8711 140.21C66.6825 139.752 66.4637 139.088 66.1489 138.544C65.8182 137.973 65.3324 137.435 64.541 137.218L64.2765 138.182C64.7251 138.305 65.0293 138.607 65.2836 139.046C65.5538 139.512 65.715 140.028 65.9464 140.59L66.8711 140.21ZM77.0981 138.36L77.5515 138.149L77.5366 138.117L77.5173 138.088L77.0981 138.36ZM75.9981 137.64L75.9507 137.142L75.8919 138.129L75.9981 137.64ZM79.2381 137.48L79.7381 137.477L79.7355 136.98H79.2381V137.48ZM79.2581 141.24L79.7582 141.244L79.7581 141.237L79.2581 141.24ZM79.2381 144.02L78.7381 144.016V144.02H79.2381ZM79.4981 146.52L79.0628 146.766L79.064 146.768L79.4981 146.52ZM80.2181 147V147.5L80.3229 146.511L80.2181 147ZM76.3781 147L76.286 146.509L76.3781 147.5V147ZM77.1181 146.5L76.6774 146.264L76.6769 146.265L77.1181 146.5ZM77.5173 138.088C77.1712 137.555 76.6648 137.273 76.1043 137.151L75.8919 138.129C76.2515 138.207 76.5051 138.365 76.6789 138.632L77.5173 138.088ZM76.0455 138.138C76.8722 138.059 78.3162 137.98 79.2381 137.98V136.98C78.28 136.98 76.804 137.061 75.9507 137.142L76.0455 138.138ZM78.7381 137.483L78.7581 141.243L79.7581 141.237L79.7381 137.477L78.7381 137.483ZM78.7581 141.236L78.7381 144.016L79.7381 144.024L79.7581 141.244L78.7581 141.236ZM78.7381 144.02C78.7381 144.309 78.738 144.834 78.7717 145.348C78.7885 145.604 78.8144 145.867 78.8552 146.102C78.8936 146.324 78.9535 146.573 79.0628 146.766L79.9334 146.274C79.9128 146.237 79.8751 146.131 79.8404 145.931C79.8081 145.745 79.7852 145.521 79.7696 145.282C79.7383 144.806 79.7381 144.311 79.7381 144.02H78.7381ZM79.064 146.768C79.3198 147.216 79.7535 147.412 80.1134 147.489L80.3229 146.511C80.1228 146.468 79.9964 146.384 79.9322 146.272L79.064 146.768ZM80.2181 146.5H76.3781V147.5H80.2181V146.5ZM76.4703 147.491C76.8901 147.413 77.3072 147.208 77.5593 146.735L76.6769 146.265C76.6091 146.392 76.5062 146.467 76.286 146.509L76.4703 147.491ZM77.5589 146.736C77.6711 146.527 77.7384 146.265 77.7835 146.018C77.8302 145.762 77.8599 145.479 77.8794 145.203C77.9183 144.65 77.9181 144.089 77.9181 143.76H76.9181C76.9181 144.091 76.918 144.62 76.8819 145.132C76.8638 145.389 76.8373 145.632 76.7997 145.839C76.7603 146.055 76.7152 146.193 76.6774 146.264L77.5589 146.736ZM77.9181 143.76C77.9181 142.454 77.9382 141.299 77.9079 140.376C77.8782 139.473 77.8003 138.684 77.5515 138.149L76.6448 138.571C76.796 138.896 76.8781 139.487 76.9084 140.409C76.938 141.311 76.9181 142.426 76.9181 143.76H77.9181ZM78.1781 135.1C77.7998 135.1 77.4981 134.789 77.4981 134.42H76.4981C76.4981 135.331 77.2365 136.1 78.1781 136.1V135.1ZM77.4981 134.42C77.4981 134.113 77.7772 133.8 78.1781 133.8V132.8C77.2591 132.8 76.4981 133.527 76.4981 134.42H77.4981ZM78.1781 133.8C78.6303 133.8 78.8981 134.124 78.8981 134.42H79.8981C79.8981 133.516 79.126 132.8 78.1781 132.8V133.8ZM78.8981 134.42C78.8981 134.778 78.6074 135.1 78.1781 135.1V136.1C79.1488 136.1 79.8981 135.342 79.8981 134.42H78.8981ZM92.2459 142.24V142.74H92.7568L92.7458 142.229L92.2459 142.24ZM84.8259 142.24V141.74H84.3259V142.24H84.8259ZM91.9059 144.72V144.22H91.6243L91.4783 144.461L91.9059 144.72ZM92.0459 144.72L92.5052 144.918L92.8055 144.22H92.0459V144.72ZM84.8459 142.04L84.3486 141.988L84.2913 142.54H84.8459V142.04ZM90.2859 142.04V142.54H90.8063L90.7855 142.02L90.2859 142.04ZM83.2659 142.46C83.2659 141.093 83.6878 139.979 84.4162 139.212C85.1413 138.447 86.2131 137.98 87.6059 137.98V136.98C85.9787 136.98 84.6305 137.533 83.6907 138.523C82.7541 139.511 82.2659 140.887 82.2659 142.46H83.2659ZM87.6059 137.98C88.8944 137.98 89.9033 138.424 90.5989 139.155C91.2982 139.889 91.7182 140.952 91.7461 142.251L92.7458 142.229C92.7136 140.728 92.2237 139.411 91.323 138.465C90.4186 137.516 89.1375 136.98 87.6059 136.98V137.98ZM92.2459 141.74H84.8259V142.74H92.2459V141.74ZM84.3259 142.24C84.3259 143.406 84.4217 144.692 84.9543 145.695C85.2271 146.208 85.6168 146.653 86.1641 146.966C86.7089 147.277 87.3787 147.44 88.1859 147.44V146.44C87.5132 146.44 87.023 146.305 86.6603 146.098C86.3001 145.892 86.0348 145.597 85.8375 145.225C85.4302 144.458 85.3259 143.394 85.3259 142.24H84.3259ZM88.1859 147.44C89.7151 147.44 91.4506 146.436 92.3335 144.979L91.4783 144.461C90.7613 145.644 89.3367 146.44 88.1859 146.44V147.44ZM91.9059 145.22H92.0459V144.22H91.9059V145.22ZM91.5867 144.522C91.0079 145.867 89.3292 146.7 87.8659 146.7V147.7C89.6026 147.7 91.724 146.733 92.5052 144.918L91.5867 144.522ZM87.8659 146.7C86.4963 146.7 85.3479 146.281 84.5481 145.561C83.7541 144.846 83.2659 143.8 83.2659 142.46H82.2659C82.2659 144.06 82.8578 145.384 83.8788 146.304C84.894 147.219 86.2956 147.7 87.8659 147.7V146.7ZM87.7059 137.18C86.3412 137.18 85.5297 138.085 85.0661 139.07C84.6061 140.047 84.4299 141.206 84.3486 141.988L85.3433 142.092C85.422 141.334 85.5858 140.313 85.9708 139.495C86.3522 138.685 86.8907 138.18 87.7059 138.18V137.18ZM84.8459 142.54H90.2859V141.54H84.8459V142.54ZM90.7855 142.02C90.7556 141.272 90.6856 140.105 90.3021 139.117C90.1083 138.617 89.823 138.131 89.3937 137.768C88.9549 137.398 88.3944 137.18 87.7059 137.18V138.18C88.1674 138.18 88.4969 138.32 88.7482 138.532C89.0089 138.752 89.2136 139.075 89.3698 139.478C89.6863 140.295 89.7562 141.308 89.7863 142.06L90.7855 142.02ZM92.9556 137.7V137.2L92.8193 138.181L92.9556 137.7ZM96.9356 137.7L97.0756 138.18L96.9356 137.2V137.7ZM99.0356 146.3L98.565 146.469L99.0618 147.853L99.5116 146.453L99.0356 146.3ZM101.376 140.18L101.849 140.341L101.905 140.175L101.846 140.011L101.376 140.18ZM99.5556 137.7V137.2L99.4205 138.181L99.5556 137.7ZM103.556 137.7L103.69 138.181L103.556 137.2V137.7ZM105.676 146.3L105.209 146.479L105.733 147.842L106.154 146.444L105.676 146.3ZM108.396 138.78L108.892 138.842L108.892 138.841L108.396 138.78ZM106.916 137.7L106.919 137.2L106.767 138.178L106.916 137.7ZM110.036 137.72L110.209 138.189L110.039 137.22L110.036 137.72ZM107.756 141.6L107.29 141.417L107.288 141.422L107.756 141.6ZM105.676 147.06V147.56H106.02L106.143 147.238L105.676 147.06ZM104.176 147.06L103.712 147.248L103.839 147.56H104.176V147.06ZM101.536 140.56L101.999 140.372L101.517 139.186L101.067 140.384L101.536 140.56ZM101.136 141.6L100.67 141.419L100.669 141.421L101.136 141.6ZM99.0356 147.06V147.56H99.379L99.5023 147.239L99.0356 147.06ZM97.5756 147.06L97.1123 147.248L97.2388 147.56H97.5756V147.06ZM94.8756 140.4L94.4101 140.583L94.4123 140.588L94.8756 140.4ZM92.9556 138.2H96.9356V137.2H92.9556V138.2ZM96.7956 137.22C96.4563 137.319 96.1795 137.509 95.9958 137.793C95.8178 138.069 95.7556 138.387 95.7556 138.7H96.7556C96.7556 138.513 96.7934 138.401 96.8354 138.337C96.8717 138.281 96.9349 138.221 97.0756 138.18L96.7956 137.22ZM95.7556 138.7C95.7556 139.18 95.9385 139.872 96.1757 140.592C96.4199 141.334 96.7463 142.174 97.0781 142.982C97.4104 143.792 97.751 144.575 98.0249 145.203C98.3046 145.844 98.5025 146.295 98.565 146.469L99.5062 146.131C99.4288 145.915 99.2092 145.416 98.9414 144.803C98.6677 144.176 98.3309 143.401 98.0032 142.603C97.6749 141.803 97.3588 140.988 97.1255 140.279C96.8852 139.55 96.7556 139 96.7556 138.7H95.7556ZM99.5116 146.453C99.6849 145.914 100.095 144.892 100.558 143.733C101.014 142.588 101.514 141.326 101.849 140.341L100.902 140.019C100.577 140.974 100.087 142.212 99.6287 143.362C99.1758 144.498 98.7464 145.566 98.5596 146.147L99.5116 146.453ZM101.846 140.011C101.677 139.541 101.487 138.938 101.189 138.432C100.878 137.903 100.421 137.424 99.6908 137.219L99.4205 138.181C99.8299 138.296 100.103 138.557 100.327 138.938C100.564 139.342 100.714 139.819 100.905 140.349L101.846 140.011ZM99.5556 138.2H103.556V137.2H99.5556V138.2ZM103.421 137.219C103.071 137.316 102.789 137.507 102.606 137.798C102.429 138.076 102.376 138.396 102.376 138.7H103.376C103.376 138.504 103.412 138.394 103.451 138.332C103.482 138.283 103.54 138.224 103.69 138.181L103.421 137.219ZM102.376 138.7C102.376 139.18 102.559 139.872 102.796 140.593C103.041 141.334 103.368 142.175 103.701 142.983C104.034 143.793 104.377 144.576 104.654 145.205C104.936 145.844 105.14 146.299 105.209 146.479L106.142 146.121C106.062 145.911 105.84 145.416 105.569 144.801C105.293 144.175 104.954 143.4 104.625 142.602C104.296 141.803 103.979 140.987 103.746 140.279C103.505 139.55 103.376 139 103.376 138.7H102.376ZM106.154 146.444C106.366 145.74 106.992 144.216 107.606 142.656C107.909 141.886 108.205 141.115 108.437 140.455C108.663 139.811 108.844 139.223 108.892 138.842L107.899 138.718C107.867 138.977 107.724 139.467 107.493 140.124C107.268 140.766 106.977 141.522 106.675 142.289C106.079 143.804 105.425 145.4 105.197 146.156L106.154 146.444ZM108.892 138.841C108.93 138.525 108.864 138.239 108.696 138.002C108.538 137.778 108.319 137.639 108.122 137.547C107.925 137.455 107.712 137.393 107.533 137.346C107.334 137.294 107.196 137.263 107.064 137.222L106.767 138.178C106.926 138.227 107.13 138.274 107.279 138.313C107.446 138.357 107.587 138.4 107.699 138.453C107.812 138.506 107.86 138.552 107.88 138.579C107.89 138.593 107.911 138.625 107.899 138.719L108.892 138.841ZM106.912 138.2L110.032 138.22L110.039 137.22L106.919 137.2L106.912 138.2ZM109.862 137.251C109.22 137.488 108.785 138.069 108.424 138.751C108.057 139.442 107.705 140.361 107.29 141.417L108.221 141.783C108.647 140.699 108.974 139.848 109.307 139.219C109.646 138.581 109.931 138.292 110.209 138.189L109.862 137.251ZM107.288 141.422L105.208 146.882L106.143 147.238L108.223 141.778L107.288 141.422ZM105.676 146.56H104.176V147.56H105.676V146.56ZM104.639 146.872L101.999 140.372L101.072 140.748L103.712 147.248L104.639 146.872ZM101.067 140.384C100.949 140.701 100.81 141.058 100.67 141.419L101.602 141.781C101.741 141.422 101.883 141.059 102.004 140.736L101.067 140.384ZM100.669 141.421L98.569 146.881L99.5023 147.239L101.602 141.779L100.669 141.421ZM99.0356 146.56H97.5756V147.56H99.0356V146.56ZM98.039 146.872L95.339 140.212L94.4123 140.588L97.1123 147.248L98.039 146.872ZM95.3411 140.217C95.1614 139.759 94.9542 139.096 94.6529 138.553C94.3371 137.983 93.8677 137.439 93.0919 137.219L92.8193 138.181C93.2436 138.301 93.5341 138.597 93.7783 139.037C94.0371 139.504 94.1899 140.021 94.4101 140.583L95.3411 140.217Z" fill="black"/>
</svg>
