<svg width="1187" height="122" viewBox="0 0 1187 122" fill="none" xmlns="http://www.w3.org/2000/svg">
<path d="M8.22 34.62C7.34 34.62 6.6 34.34 6 33.78C5.44 33.22 5.16 32.5 5.16 31.62C5.16 30.7 5.44 29.96 6 29.4C6.6 28.84 7.34 28.56 8.22 28.56H21.6C22.48 28.56 23.2 28.84 23.76 29.4C24.32 29.96 24.6 30.7 24.6 31.62C24.6 32.5 24.32 33.22 23.76 33.78C23.2 34.34 22.48 34.62 21.6 34.62H8.22ZM77.0156 48.6C73.7756 48.6 70.7356 48 67.8956 46.8C65.0956 45.56 62.6356 43.86 60.5156 41.7C58.4356 39.5 56.7956 36.94 55.5956 34.02C54.4356 31.1 53.8556 27.94 53.8556 24.54C53.8556 21.18 54.4356 18.06 55.5956 15.18C56.7956 12.26 58.4356 9.72 60.5156 7.56C62.6356 5.36 65.0956 3.64 67.8956 2.4C70.6956 1.16 73.7356 0.539999 77.0156 0.539999C80.0956 0.539999 82.7356 0.939999 84.9356 1.74C87.1756 2.54 89.4156 3.86 91.6556 5.7C91.9756 5.94 92.2156 6.2 92.3756 6.48C92.5756 6.72 92.6956 6.98 92.7356 7.26C92.8156 7.5 92.8556 7.8 92.8556 8.16C92.8556 8.92 92.5756 9.56 92.0156 10.08C91.4956 10.56 90.8556 10.84 90.0956 10.92C89.3356 10.96 88.5956 10.7 87.8756 10.14C86.3956 8.86 84.8556 7.88 83.2556 7.2C81.6956 6.52 79.6156 6.18 77.0156 6.18C74.6556 6.18 72.4356 6.66 70.3556 7.62C68.2756 8.58 66.4356 9.9 64.8356 11.58C63.2756 13.26 62.0556 15.22 61.1756 17.46C60.2956 19.66 59.8556 22.02 59.8556 24.54C59.8556 27.1 60.2956 29.5 61.1756 31.74C62.0556 33.94 63.2756 35.88 64.8356 37.56C66.4356 39.24 68.2756 40.56 70.3556 41.52C72.4356 42.44 74.6556 42.9 77.0156 42.9C79.0556 42.9 80.9756 42.56 82.7756 41.88C84.6156 41.16 86.3756 40.18 88.0556 38.94C88.7756 38.42 89.4756 38.2 90.1556 38.28C90.8756 38.32 91.4756 38.6 91.9556 39.12C92.4356 39.6 92.6756 40.28 92.6756 41.16C92.6756 41.56 92.5956 41.96 92.4356 42.36C92.2756 42.72 92.0356 43.06 91.7156 43.38C89.5556 45.1 87.2356 46.4 84.7556 47.28C82.3156 48.16 79.7356 48.6 77.0156 48.6ZM117.534 48.24C114.294 48.24 111.434 47.54 108.954 46.14C106.474 44.7 104.514 42.74 103.074 40.26C101.674 37.74 100.974 34.86 100.974 31.62C100.974 28.34 101.674 25.46 103.074 22.98C104.514 20.46 106.474 18.5 108.954 17.1C111.434 15.66 114.294 14.94 117.534 14.94C120.734 14.94 123.574 15.66 126.054 17.1C128.534 18.5 130.474 20.46 131.874 22.98C133.314 25.46 134.034 28.34 134.034 31.62C134.034 34.86 133.334 37.74 131.934 40.26C130.534 42.74 128.594 44.7 126.114 46.14C123.634 47.54 120.774 48.24 117.534 48.24ZM117.534 42.84C119.614 42.84 121.454 42.36 123.054 41.4C124.654 40.44 125.894 39.12 126.774 37.44C127.694 35.76 128.154 33.82 128.154 31.62C128.154 29.42 127.694 27.48 126.774 25.8C125.894 24.08 124.654 22.74 123.054 21.78C121.454 20.82 119.614 20.34 117.534 20.34C115.454 20.34 113.614 20.82 112.014 21.78C110.414 22.74 109.154 24.08 108.234 25.8C107.314 27.48 106.854 29.42 106.854 31.62C106.854 33.82 107.314 35.76 108.234 37.44C109.154 39.12 110.414 40.44 112.014 41.4C113.614 42.36 115.454 42.84 117.534 42.84ZM189.222 48.06C188.342 48.06 187.602 47.78 187.002 47.22C186.442 46.62 186.162 45.88 186.162 45V27.84C186.162 25.32 185.542 23.46 184.302 22.26C183.062 21.02 181.442 20.4 179.442 20.4C177.362 20.4 175.642 21.12 174.282 22.56C172.962 24 172.302 25.84 172.302 28.08H167.322C167.322 25.48 167.882 23.2 169.002 21.24C170.122 19.24 171.682 17.68 173.682 16.56C175.722 15.44 178.042 14.88 180.642 14.88C182.922 14.88 184.942 15.38 186.702 16.38C188.462 17.38 189.822 18.86 190.782 20.82C191.782 22.74 192.282 25.08 192.282 27.84V45C192.282 45.88 192.002 46.62 191.442 47.22C190.882 47.78 190.142 48.06 189.222 48.06ZM149.202 48.06C148.322 48.06 147.582 47.78 146.982 47.22C146.422 46.62 146.142 45.88 146.142 45V18.3C146.142 17.38 146.422 16.64 146.982 16.08C147.582 15.52 148.322 15.24 149.202 15.24C150.122 15.24 150.862 15.52 151.422 16.08C151.982 16.64 152.262 17.38 152.262 18.3V45C152.262 45.88 151.982 46.62 151.422 47.22C150.862 47.78 150.122 48.06 149.202 48.06ZM169.242 48.06C168.362 48.06 167.622 47.78 167.022 47.22C166.462 46.62 166.182 45.88 166.182 45V27.84C166.182 25.32 165.562 23.46 164.322 22.26C163.082 21.02 161.462 20.4 159.462 20.4C157.382 20.4 155.662 21.12 154.302 22.56C152.942 24 152.262 25.84 152.262 28.08H148.482C148.482 25.48 149.002 23.2 150.042 21.24C151.082 19.24 152.522 17.68 154.362 16.56C156.202 15.44 158.302 14.88 160.662 14.88C162.942 14.88 164.962 15.38 166.722 16.38C168.482 17.38 169.842 18.86 170.802 20.82C171.802 22.74 172.302 25.08 172.302 27.84V45C172.302 45.88 172.022 46.62 171.462 47.22C170.902 47.78 170.162 48.06 169.242 48.06ZM208.511 62.04C207.631 62.04 206.891 61.74 206.291 61.14C205.731 60.58 205.451 59.86 205.451 58.98V31.62C205.491 28.46 206.231 25.62 207.671 23.1C209.111 20.58 211.071 18.6 213.551 17.16C216.031 15.68 218.831 14.94 221.951 14.94C225.111 14.94 227.931 15.68 230.411 17.16C232.891 18.6 234.851 20.58 236.291 23.1C237.771 25.62 238.511 28.46 238.511 31.62C238.511 34.78 237.831 37.62 236.471 40.14C235.151 42.62 233.331 44.6 231.011 46.08C228.691 47.52 226.071 48.24 223.151 48.24C220.791 48.24 218.611 47.76 216.611 46.8C214.651 45.8 212.971 44.46 211.571 42.78V58.98C211.571 59.86 211.291 60.58 210.731 61.14C210.171 61.74 209.431 62.04 208.511 62.04ZM221.951 42.84C223.991 42.84 225.811 42.36 227.411 41.4C229.011 40.4 230.271 39.06 231.191 37.38C232.151 35.66 232.631 33.74 232.631 31.62C232.631 29.46 232.151 27.54 231.191 25.86C230.271 24.14 229.011 22.8 227.411 21.84C225.811 20.84 223.991 20.34 221.951 20.34C219.951 20.34 218.131 20.84 216.491 21.84C214.891 22.8 213.631 24.14 212.711 25.86C211.791 27.54 211.331 29.46 211.331 31.62C211.331 33.74 211.791 35.66 212.711 37.38C213.631 39.06 214.891 40.4 216.491 41.4C218.131 42.36 219.951 42.84 221.951 42.84ZM258.438 48C256.678 48 255.118 47.52 253.758 46.56C252.398 45.6 251.338 44.3 250.578 42.66C249.818 40.98 249.438 39.06 249.438 36.9V4.14C249.438 3.26 249.718 2.54 250.278 1.98C250.838 1.42 251.558 1.14 252.438 1.14C253.318 1.14 254.038 1.42 254.598 1.98C255.158 2.54 255.438 3.26 255.438 4.14V36.9C255.438 38.38 255.718 39.6 256.278 40.56C256.838 41.52 257.558 42 258.438 42H259.938C260.738 42 261.378 42.28 261.858 42.84C262.378 43.4 262.638 44.12 262.638 45C262.638 45.88 262.258 46.6 261.498 47.16C260.738 47.72 259.758 48 258.558 48H258.438ZM285.23 48.24C281.91 48.24 278.95 47.54 276.35 46.14C273.79 44.7 271.77 42.74 270.29 40.26C268.85 37.74 268.13 34.86 268.13 31.62C268.13 28.34 268.81 25.46 270.17 22.98C271.57 20.46 273.49 18.5 275.93 17.1C278.37 15.66 281.17 14.94 284.33 14.94C287.45 14.94 290.13 15.64 292.37 17.04C294.61 18.4 296.31 20.3 297.47 22.74C298.67 25.14 299.27 27.92 299.27 31.08C299.27 31.84 299.01 32.48 298.49 33C297.97 33.48 297.31 33.72 296.51 33.72H272.33V28.92H296.33L293.87 30.6C293.83 28.6 293.43 26.82 292.67 25.26C291.91 23.66 290.83 22.4 289.43 21.48C288.03 20.56 286.33 20.1 284.33 20.1C282.05 20.1 280.09 20.6 278.45 21.6C276.85 22.6 275.63 23.98 274.79 25.74C273.95 27.46 273.53 29.42 273.53 31.62C273.53 33.82 274.03 35.78 275.03 37.5C276.03 39.22 277.41 40.58 279.17 41.58C280.93 42.58 282.95 43.08 285.23 43.08C286.47 43.08 287.73 42.86 289.01 42.42C290.33 41.94 291.39 41.4 292.19 40.8C292.79 40.36 293.43 40.14 294.11 40.14C294.83 40.1 295.45 40.3 295.97 40.74C296.65 41.34 297.01 42 297.05 42.72C297.09 43.44 296.77 44.06 296.09 44.58C294.73 45.66 293.03 46.54 290.99 47.22C288.99 47.9 287.07 48.24 285.23 48.24ZM322.016 48C320.016 48 318.216 47.5 316.616 46.5C315.016 45.46 313.756 44.06 312.836 42.3C311.916 40.54 311.456 38.56 311.456 36.36V7.74C311.456 6.86 311.736 6.14 312.296 5.58C312.856 5.02 313.576 4.74 314.456 4.74C315.336 4.74 316.056 5.02 316.616 5.58C317.176 6.14 317.456 6.86 317.456 7.74V36.36C317.456 37.96 317.896 39.3 318.776 40.38C319.656 41.46 320.736 42 322.016 42H324.056C324.776 42 325.376 42.28 325.856 42.84C326.376 43.4 326.636 44.12 326.636 45C326.636 45.88 326.296 46.6 325.616 47.16C324.976 47.72 324.136 48 323.096 48H322.016ZM308.696 21.54C307.856 21.54 307.176 21.3 306.656 20.82C306.136 20.34 305.876 19.74 305.876 19.02C305.876 18.22 306.136 17.58 306.656 17.1C307.176 16.62 307.856 16.38 308.696 16.38H322.556C323.396 16.38 324.076 16.62 324.596 17.1C325.116 17.58 325.376 18.22 325.376 19.02C325.376 19.74 325.116 20.34 324.596 20.82C324.076 21.3 323.396 21.54 322.556 21.54H308.696ZM340.818 48C339.938 48 339.198 47.72 338.598 47.16C338.038 46.56 337.758 45.82 337.758 44.94V18.24C337.758 17.32 338.038 16.58 338.598 16.02C339.198 15.46 339.938 15.18 340.818 15.18C341.738 15.18 342.478 15.46 343.038 16.02C343.598 16.58 343.878 17.32 343.878 18.24V44.94C343.878 45.82 343.598 46.56 343.038 47.16C342.478 47.72 341.738 48 340.818 48ZM340.818 9.84C339.738 9.84 338.798 9.46 337.998 8.7C337.238 7.9 336.858 6.96 336.858 5.88C336.858 4.8 337.238 3.88 337.998 3.12C338.798 2.32 339.738 1.92 340.818 1.92C341.898 1.92 342.818 2.32 343.578 3.12C344.378 3.88 344.778 4.8 344.778 5.88C344.778 6.96 344.378 7.9 343.578 8.7C342.818 9.46 341.898 9.84 340.818 9.84ZM385.983 48.06C385.103 48.06 384.363 47.78 383.763 47.22C383.203 46.62 382.923 45.88 382.923 45V30.24C382.923 27.96 382.503 26.1 381.663 24.66C380.823 23.22 379.683 22.16 378.243 21.48C376.843 20.76 375.223 20.4 373.383 20.4C371.703 20.4 370.183 20.74 368.823 21.42C367.463 22.1 366.383 23.02 365.583 24.18C364.783 25.3 364.383 26.6 364.383 28.08H360.603C360.603 25.56 361.203 23.32 362.403 21.36C363.643 19.36 365.323 17.78 367.443 16.62C369.563 15.46 371.943 14.88 374.583 14.88C377.343 14.88 379.803 15.48 381.963 16.68C384.163 17.84 385.883 19.56 387.123 21.84C388.403 24.12 389.043 26.92 389.043 30.24V45C389.043 45.88 388.743 46.62 388.143 47.22C387.583 47.78 386.863 48.06 385.983 48.06ZM361.323 48.06C360.443 48.06 359.703 47.78 359.103 47.22C358.543 46.62 358.263 45.88 358.263 45V18.24C358.263 17.32 358.543 16.58 359.103 16.02C359.703 15.46 360.443 15.18 361.323 15.18C362.243 15.18 362.983 15.46 363.543 16.02C364.103 16.58 364.383 17.32 364.383 18.24V45C364.383 45.88 364.103 46.62 363.543 47.22C362.983 47.78 362.243 48.06 361.323 48.06ZM415.842 48.24C412.842 48.24 410.182 47.54 407.862 46.14C405.582 44.7 403.782 42.74 402.462 40.26C401.142 37.74 400.482 34.86 400.482 31.62C400.482 28.34 401.182 25.46 402.582 22.98C404.022 20.46 405.982 18.5 408.462 17.1C410.942 15.66 413.802 14.94 417.042 14.94C420.242 14.94 423.082 15.66 425.562 17.1C428.042 18.5 429.982 20.46 431.382 22.98C432.822 25.46 433.542 28.34 433.542 31.62H430.002C430.002 34.86 429.382 37.74 428.142 40.26C426.942 42.74 425.282 44.7 423.162 46.14C421.042 47.54 418.602 48.24 415.842 48.24ZM416.922 61.62C414.082 61.62 411.422 61.06 408.942 59.94C406.462 58.82 404.362 57.18 402.642 55.02C402.122 54.34 401.922 53.64 402.042 52.92C402.202 52.2 402.602 51.62 403.242 51.18C403.962 50.7 404.702 50.54 405.462 50.7C406.262 50.86 406.902 51.26 407.382 51.9C408.462 53.26 409.822 54.32 411.462 55.08C413.102 55.84 414.962 56.22 417.042 56.22C418.962 56.22 420.722 55.76 422.322 54.84C423.962 53.92 425.262 52.56 426.222 50.76C427.182 48.96 427.662 46.76 427.662 44.16V35.64L429.642 30.36L433.542 31.62V44.58C433.542 47.74 432.842 50.6 431.442 53.16C430.042 55.76 428.082 57.82 425.562 59.34C423.082 60.86 420.202 61.62 416.922 61.62ZM417.042 42.84C419.122 42.84 420.962 42.36 422.562 41.4C424.162 40.44 425.402 39.12 426.282 37.44C427.202 35.76 427.662 33.82 427.662 31.62C427.662 29.42 427.202 27.48 426.282 25.8C425.402 24.08 424.162 22.74 422.562 21.78C420.962 20.82 419.122 20.34 417.042 20.34C414.962 20.34 413.122 20.82 411.522 21.78C409.922 22.74 408.662 24.08 407.742 25.8C406.822 27.48 406.362 29.42 406.362 31.62C406.362 33.82 406.822 35.76 407.742 37.44C408.662 39.12 409.922 40.44 411.522 41.4C413.122 42.36 414.962 42.84 417.042 42.84ZM478.888 48C476.128 48 473.668 47.4 471.508 46.2C469.388 44.96 467.728 43.28 466.528 41.16C465.328 39 464.728 36.54 464.728 33.78C464.728 30.98 465.328 28.52 466.528 26.4C467.728 24.24 469.388 22.56 471.508 21.36C473.668 20.12 476.128 19.5 478.888 19.5C481.648 19.5 484.088 20.12 486.208 21.36C488.328 22.56 489.988 24.24 491.188 26.4C492.388 28.52 492.988 30.98 492.988 33.78C492.988 36.54 492.388 39 491.188 41.16C489.988 43.28 488.328 44.96 486.208 46.2C484.088 47.4 481.648 48 478.888 48ZM478.828 42.6C480.468 42.6 481.908 42.24 483.148 41.52C484.428 40.76 485.428 39.72 486.148 38.4C486.868 37.04 487.228 35.5 487.228 33.78C487.228 32.02 486.868 30.48 486.148 29.16C485.428 27.84 484.428 26.8 483.148 26.04C481.908 25.28 480.468 24.9 478.828 24.9C477.188 24.9 475.728 25.28 474.448 26.04C473.208 26.8 472.228 27.84 471.508 29.16C470.828 30.48 470.488 32.02 470.488 33.78C470.488 35.5 470.828 37.04 471.508 38.4C472.228 39.72 473.208 40.76 474.448 41.52C475.728 42.24 477.188 42.6 478.828 42.6ZM466.708 26.1L480.628 2.88C481.348 1.76 482.268 1.2 483.388 1.2C484.228 1.2 484.928 1.44 485.488 1.92C486.048 2.4 486.388 3 486.508 3.72C486.668 4.44 486.528 5.16 486.088 5.88L477.568 20.04L466.708 26.1ZM528.39 48C527.51 48 526.77 47.7 526.17 47.1C525.57 46.5 525.27 45.76 525.27 44.88V4.26C525.27 3.34 525.57 2.6 526.17 2.04C526.77 1.44 527.51 1.14 528.39 1.14H539.19C542.19 1.14 544.85 1.78 547.17 3.06C549.49 4.3 551.29 6.02 552.57 8.22C553.89 10.42 554.55 12.98 554.55 15.9C554.55 18.62 553.89 21.04 552.57 23.16C551.29 25.28 549.49 26.94 547.17 28.14C544.85 29.34 542.19 29.94 539.19 29.94H531.51V44.88C531.51 45.76 531.21 46.5 530.61 47.1C530.05 47.7 529.31 48 528.39 48ZM553.29 48C552.73 48 552.21 47.88 551.73 47.64C551.29 47.4 550.91 47.02 550.59 46.5L539.79 29.1L545.85 27.36L555.69 43.2C556.41 44.36 556.51 45.46 555.99 46.5C555.47 47.5 554.57 48 553.29 48ZM531.51 24.18H539.19C541.03 24.18 542.65 23.84 544.05 23.16C545.45 22.44 546.55 21.46 547.35 20.22C548.15 18.94 548.55 17.5 548.55 15.9C548.55 14.14 548.15 12.58 547.35 11.22C546.55 9.86 545.45 8.8 544.05 8.04C542.65 7.28 541.03 6.9 539.19 6.9H531.51V24.18ZM581 48.24C577.68 48.24 574.72 47.54 572.12 46.14C569.56 44.7 567.54 42.74 566.06 40.26C564.62 37.74 563.9 34.86 563.9 31.62C563.9 28.34 564.58 25.46 565.94 22.98C567.34 20.46 569.26 18.5 571.7 17.1C574.14 15.66 576.94 14.94 580.1 14.94C583.22 14.94 585.9 15.64 588.14 17.04C590.38 18.4 592.08 20.3 593.24 22.74C594.44 25.14 595.04 27.92 595.04 31.08C595.04 31.84 594.78 32.48 594.26 33C593.74 33.48 593.08 33.72 592.28 33.72H568.1V28.92H592.1L589.64 30.6C589.6 28.6 589.2 26.82 588.44 25.26C587.68 23.66 586.6 22.4 585.2 21.48C583.8 20.56 582.1 20.1 580.1 20.1C577.82 20.1 575.86 20.6 574.22 21.6C572.62 22.6 571.4 23.98 570.56 25.74C569.72 27.46 569.3 29.42 569.3 31.62C569.3 33.82 569.8 35.78 570.8 37.5C571.8 39.22 573.18 40.58 574.94 41.58C576.7 42.58 578.72 43.08 581 43.08C582.24 43.08 583.5 42.86 584.78 42.42C586.1 41.94 587.16 41.4 587.96 40.8C588.56 40.36 589.2 40.14 589.88 40.14C590.6 40.1 591.22 40.3 591.74 40.74C592.42 41.34 592.78 42 592.82 42.72C592.86 43.44 592.54 44.06 591.86 44.58C590.5 45.66 588.8 46.54 586.76 47.22C584.76 47.9 582.84 48.24 581 48.24ZM617.785 48.24C614.985 48.24 612.385 47.82 609.985 46.98C607.625 46.1 605.785 45 604.465 43.68C603.865 43.04 603.605 42.32 603.685 41.52C603.805 40.68 604.205 40 604.885 39.48C605.685 38.84 606.465 38.58 607.225 38.7C608.025 38.78 608.705 39.12 609.265 39.72C609.945 40.48 611.025 41.2 612.505 41.88C614.025 42.52 615.705 42.84 617.545 42.84C619.865 42.84 621.625 42.46 622.825 41.7C624.065 40.94 624.705 39.96 624.745 38.76C624.785 37.56 624.205 36.52 623.005 35.64C621.845 34.76 619.705 34.04 616.585 33.48C612.545 32.68 609.605 31.48 607.765 29.88C605.965 28.28 605.065 26.32 605.065 24C605.065 21.96 605.665 20.28 606.865 18.96C608.065 17.6 609.605 16.6 611.485 15.96C613.365 15.28 615.325 14.94 617.365 14.94C620.005 14.94 622.345 15.36 624.385 16.2C626.425 17.04 628.045 18.2 629.245 19.68C629.805 20.32 630.065 21 630.025 21.72C629.985 22.4 629.645 22.98 629.005 23.46C628.365 23.9 627.605 24.04 626.725 23.88C625.845 23.72 625.105 23.36 624.505 22.8C623.505 21.84 622.425 21.18 621.265 20.82C620.105 20.46 618.765 20.28 617.245 20.28C615.485 20.28 613.985 20.58 612.745 21.18C611.545 21.78 610.945 22.66 610.945 23.82C610.945 24.54 611.125 25.2 611.485 25.8C611.885 26.36 612.645 26.88 613.765 27.36C614.885 27.8 616.525 28.24 618.685 28.68C621.685 29.28 624.045 30.04 625.765 30.96C627.525 31.88 628.785 32.96 629.545 34.2C630.305 35.4 630.685 36.8 630.685 38.4C630.685 40.24 630.185 41.9 629.185 43.38C628.225 44.86 626.785 46.04 624.865 46.92C622.985 47.8 620.625 48.24 617.785 48.24ZM645.083 48C644.203 48 643.463 47.72 642.863 47.16C642.303 46.56 642.023 45.82 642.023 44.94V18.24C642.023 17.32 642.303 16.58 642.863 16.02C643.463 15.46 644.203 15.18 645.083 15.18C646.003 15.18 646.743 15.46 647.303 16.02C647.863 16.58 648.143 17.32 648.143 18.24V44.94C648.143 45.82 647.863 46.56 647.303 47.16C646.743 47.72 646.003 48 645.083 48ZM645.083 9.84C644.003 9.84 643.063 9.46 642.263 8.7C641.503 7.9 641.123 6.96 641.123 5.88C641.123 4.8 641.503 3.88 642.263 3.12C643.063 2.32 644.003 1.92 645.083 1.92C646.163 1.92 647.083 2.32 647.843 3.12C648.643 3.88 649.043 4.8 649.043 5.88C649.043 6.96 648.643 7.9 647.843 8.7C647.083 9.46 646.163 9.84 645.083 9.84ZM677.409 48.24C674.289 48.24 671.469 47.52 668.949 46.08C666.469 44.6 664.489 42.6 663.009 40.08C661.569 37.56 660.849 34.72 660.849 31.56C660.849 28.4 661.509 25.58 662.829 23.1C664.189 20.58 666.029 18.6 668.349 17.16C670.669 15.68 673.289 14.94 676.209 14.94C678.569 14.94 680.749 15.44 682.749 16.44C684.749 17.4 686.429 18.72 687.789 20.4V4.2C687.789 3.28 688.069 2.54 688.629 1.98C689.229 1.42 689.969 1.14 690.849 1.14C691.769 1.14 692.509 1.42 693.069 1.98C693.629 2.54 693.909 3.28 693.909 4.2V31.56C693.909 34.72 693.169 37.56 691.689 40.08C690.249 42.6 688.289 44.6 685.809 46.08C683.329 47.52 680.529 48.24 677.409 48.24ZM677.409 42.84C679.449 42.84 681.269 42.36 682.869 41.4C684.469 40.4 685.729 39.04 686.649 37.32C687.569 35.6 688.029 33.68 688.029 31.56C688.029 29.4 687.569 27.48 686.649 25.8C685.729 24.12 684.469 22.8 682.869 21.84C681.269 20.84 679.449 20.34 677.409 20.34C675.409 20.34 673.589 20.84 671.949 21.84C670.349 22.8 669.069 24.12 668.109 25.8C667.189 27.48 666.729 29.4 666.729 31.56C666.729 33.68 667.189 35.6 668.109 37.32C669.069 39.04 670.349 40.4 671.949 41.4C673.589 42.36 675.409 42.84 677.409 42.84ZM723.136 48.24C719.816 48.24 716.856 47.54 714.256 46.14C711.696 44.7 709.676 42.74 708.196 40.26C706.756 37.74 706.036 34.86 706.036 31.62C706.036 28.34 706.716 25.46 708.076 22.98C709.476 20.46 711.396 18.5 713.836 17.1C716.276 15.66 719.076 14.94 722.236 14.94C725.356 14.94 728.036 15.64 730.276 17.04C732.516 18.4 734.216 20.3 735.376 22.74C736.576 25.14 737.176 27.92 737.176 31.08C737.176 31.84 736.916 32.48 736.396 33C735.876 33.48 735.216 33.72 734.416 33.72H710.236V28.92H734.236L731.776 30.6C731.736 28.6 731.336 26.82 730.576 25.26C729.816 23.66 728.736 22.4 727.336 21.48C725.936 20.56 724.236 20.1 722.236 20.1C719.956 20.1 717.996 20.6 716.356 21.6C714.756 22.6 713.536 23.98 712.696 25.74C711.856 27.46 711.436 29.42 711.436 31.62C711.436 33.82 711.936 35.78 712.936 37.5C713.936 39.22 715.316 40.58 717.076 41.58C718.836 42.58 720.856 43.08 723.136 43.08C724.376 43.08 725.636 42.86 726.916 42.42C728.236 41.94 729.296 41.4 730.096 40.8C730.696 40.36 731.336 40.14 732.016 40.14C732.736 40.1 733.356 40.3 733.876 40.74C734.556 41.34 734.916 42 734.956 42.72C734.996 43.44 734.676 44.06 733.996 44.58C732.636 45.66 730.936 46.54 728.896 47.22C726.896 47.9 724.976 48.24 723.136 48.24ZM775.702 48.06C774.822 48.06 774.082 47.78 773.482 47.22C772.922 46.62 772.642 45.88 772.642 45V30.24C772.642 27.96 772.222 26.1 771.382 24.66C770.542 23.22 769.402 22.16 767.962 21.48C766.562 20.76 764.942 20.4 763.102 20.4C761.422 20.4 759.902 20.74 758.542 21.42C757.182 22.1 756.102 23.02 755.302 24.18C754.502 25.3 754.102 26.6 754.102 28.08H750.322C750.322 25.56 750.922 23.32 752.122 21.36C753.362 19.36 755.042 17.78 757.162 16.62C759.282 15.46 761.662 14.88 764.302 14.88C767.062 14.88 769.522 15.48 771.682 16.68C773.882 17.84 775.602 19.56 776.842 21.84C778.122 24.12 778.762 26.92 778.762 30.24V45C778.762 45.88 778.462 46.62 777.862 47.22C777.302 47.78 776.582 48.06 775.702 48.06ZM751.042 48.06C750.162 48.06 749.422 47.78 748.822 47.22C748.262 46.62 747.982 45.88 747.982 45V18.24C747.982 17.32 748.262 16.58 748.822 16.02C749.422 15.46 750.162 15.18 751.042 15.18C751.962 15.18 752.702 15.46 753.262 16.02C753.822 16.58 754.102 17.32 754.102 18.24V45C754.102 45.88 753.822 46.62 753.262 47.22C752.702 47.78 751.962 48.06 751.042 48.06ZM803.82 48C801.82 48 800.02 47.5 798.42 46.5C796.82 45.46 795.56 44.06 794.64 42.3C793.72 40.54 793.26 38.56 793.26 36.36V7.74C793.26 6.86 793.54 6.14 794.1 5.58C794.66 5.02 795.38 4.74 796.26 4.74C797.14 4.74 797.86 5.02 798.42 5.58C798.98 6.14 799.26 6.86 799.26 7.74V36.36C799.26 37.96 799.7 39.3 800.58 40.38C801.46 41.46 802.54 42 803.82 42H805.86C806.58 42 807.18 42.28 807.66 42.84C808.18 43.4 808.44 44.12 808.44 45C808.44 45.88 808.1 46.6 807.42 47.16C806.78 47.72 805.94 48 804.9 48H803.82ZM790.5 21.54C789.66 21.54 788.98 21.3 788.46 20.82C787.94 20.34 787.68 19.74 787.68 19.02C787.68 18.22 787.94 17.58 788.46 17.1C788.98 16.62 789.66 16.38 790.5 16.38H804.36C805.2 16.38 805.88 16.62 806.4 17.1C806.92 17.58 807.18 18.22 807.18 19.02C807.18 19.74 806.92 20.34 806.4 20.82C805.88 21.3 805.2 21.54 804.36 21.54H790.5ZM822.623 48C821.743 48 821.003 47.72 820.403 47.16C819.843 46.56 819.563 45.82 819.563 44.94V18.24C819.563 17.32 819.843 16.58 820.403 16.02C821.003 15.46 821.743 15.18 822.623 15.18C823.543 15.18 824.283 15.46 824.843 16.02C825.403 16.58 825.683 17.32 825.683 18.24V44.94C825.683 45.82 825.403 46.56 824.843 47.16C824.283 47.72 823.543 48 822.623 48ZM822.623 9.84C821.543 9.84 820.603 9.46 819.803 8.7C819.043 7.9 818.663 6.96 818.663 5.88C818.663 4.8 819.043 3.88 819.803 3.12C820.603 2.32 821.543 1.92 822.623 1.92C823.703 1.92 824.623 2.32 825.383 3.12C826.183 3.88 826.583 4.8 826.583 5.88C826.583 6.96 826.183 7.9 825.383 8.7C824.623 9.46 823.703 9.84 822.623 9.84ZM853.748 48.24C850.828 48.24 848.208 47.52 845.888 46.08C843.568 44.6 841.728 42.62 840.368 40.14C839.048 37.62 838.388 34.78 838.388 31.62C838.388 28.46 839.108 25.62 840.548 23.1C842.028 20.58 844.008 18.6 846.488 17.16C849.008 15.68 851.828 14.94 854.948 14.94C858.068 14.94 860.868 15.68 863.348 17.16C865.828 18.6 867.788 20.58 869.228 23.1C870.708 25.62 871.448 28.46 871.448 31.62H869.108C869.108 34.78 868.428 37.62 867.068 40.14C865.748 42.62 863.928 44.6 861.608 46.08C859.288 47.52 856.668 48.24 853.748 48.24ZM854.948 42.84C856.988 42.84 858.808 42.36 860.408 41.4C862.008 40.4 863.268 39.06 864.188 37.38C865.108 35.66 865.568 33.74 865.568 31.62C865.568 29.46 865.108 27.54 864.188 25.86C863.268 24.14 862.008 22.8 860.408 21.84C858.808 20.84 856.988 20.34 854.948 20.34C852.948 20.34 851.128 20.84 849.488 21.84C847.888 22.8 846.608 24.14 845.648 25.86C844.728 27.54 844.268 29.46 844.268 31.62C844.268 33.74 844.728 35.66 845.648 37.38C846.608 39.06 847.888 40.4 849.488 41.4C851.128 42.36 852.948 42.84 854.948 42.84ZM868.388 48.06C867.508 48.06 866.768 47.78 866.168 47.22C865.608 46.62 865.328 45.88 865.328 45V35.82L866.468 29.46L871.448 31.62V45C871.448 45.88 871.148 46.62 870.548 47.22C869.988 47.78 869.268 48.06 868.388 48.06ZM891.356 48C889.596 48 888.036 47.52 886.676 46.56C885.316 45.6 884.256 44.3 883.496 42.66C882.736 40.98 882.356 39.06 882.356 36.9V4.14C882.356 3.26 882.636 2.54 883.196 1.98C883.756 1.42 884.476 1.14 885.356 1.14C886.236 1.14 886.956 1.42 887.516 1.98C888.076 2.54 888.356 3.26 888.356 4.14V36.9C888.356 38.38 888.636 39.6 889.196 40.56C889.756 41.52 890.476 42 891.356 42H892.856C893.656 42 894.296 42.28 894.776 42.84C895.296 43.4 895.556 44.12 895.556 45C895.556 45.88 895.176 46.6 894.416 47.16C893.656 47.72 892.676 48 891.476 48H891.356ZM945.343 48.96C941.503 48.96 938.103 48.26 935.143 46.86C932.183 45.42 929.863 43.44 928.183 40.92C926.543 38.4 925.723 35.52 925.723 32.28V4.26C925.723 3.34 926.023 2.6 926.623 2.04C927.223 1.44 927.963 1.14 928.843 1.14C929.763 1.14 930.503 1.44 931.063 2.04C931.663 2.6 931.963 3.34 931.963 4.26V32.28C931.963 34.44 932.523 36.36 933.643 38.04C934.803 39.68 936.383 40.98 938.383 41.94C940.423 42.86 942.743 43.32 945.343 43.32C947.863 43.32 950.083 42.86 952.003 41.94C953.963 40.98 955.483 39.68 956.563 38.04C957.683 36.36 958.243 34.44 958.243 32.28V4.26C958.243 3.34 958.543 2.6 959.143 2.04C959.743 1.44 960.483 1.14 961.363 1.14C962.283 1.14 963.023 1.44 963.583 2.04C964.143 2.6 964.423 3.34 964.423 4.26V32.28C964.423 35.52 963.603 38.4 961.963 40.92C960.363 43.44 958.123 45.42 955.243 46.86C952.363 48.26 949.063 48.96 945.343 48.96ZM1006.53 48.06C1005.65 48.06 1004.91 47.78 1004.31 47.22C1003.75 46.62 1003.47 45.88 1003.47 45V30.24C1003.47 27.96 1003.05 26.1 1002.21 24.66C1001.37 23.22 1000.23 22.16 998.786 21.48C997.386 20.76 995.766 20.4 993.926 20.4C992.246 20.4 990.726 20.74 989.366 21.42C988.006 22.1 986.926 23.02 986.126 24.18C985.326 25.3 984.926 26.6 984.926 28.08H981.146C981.146 25.56 981.746 23.32 982.946 21.36C984.186 19.36 985.866 17.78 987.986 16.62C990.106 15.46 992.486 14.88 995.126 14.88C997.886 14.88 1000.35 15.48 1002.51 16.68C1004.71 17.84 1006.43 19.56 1007.67 21.84C1008.95 24.12 1009.59 26.92 1009.59 30.24V45C1009.59 45.88 1009.29 46.62 1008.69 47.22C1008.13 47.78 1007.41 48.06 1006.53 48.06ZM981.866 48.06C980.986 48.06 980.246 47.78 979.646 47.22C979.086 46.62 978.806 45.88 978.806 45V18.24C978.806 17.32 979.086 16.58 979.646 16.02C980.246 15.46 980.986 15.18 981.866 15.18C982.786 15.18 983.526 15.46 984.086 16.02C984.646 16.58 984.926 17.32 984.926 18.24V45C984.926 45.88 984.646 46.62 984.086 47.22C983.526 47.78 982.786 48.06 981.866 48.06ZM1026.36 48C1025.48 48 1024.74 47.72 1024.14 47.16C1023.58 46.56 1023.3 45.82 1023.3 44.94V18.24C1023.3 17.32 1023.58 16.58 1024.14 16.02C1024.74 15.46 1025.48 15.18 1026.36 15.18C1027.28 15.18 1028.02 15.46 1028.58 16.02C1029.14 16.58 1029.42 17.32 1029.42 18.24V44.94C1029.42 45.82 1029.14 46.56 1028.58 47.16C1028.02 47.72 1027.28 48 1026.36 48ZM1026.36 9.84C1025.28 9.84 1024.34 9.46 1023.54 8.7C1022.78 7.9 1022.4 6.96 1022.4 5.88C1022.4 4.8 1022.78 3.88 1023.54 3.12C1024.34 2.32 1025.28 1.92 1026.36 1.92C1027.44 1.92 1028.36 2.32 1029.12 3.12C1029.92 3.88 1030.32 4.8 1030.32 5.88C1030.32 6.96 1029.92 7.9 1029.12 8.7C1028.36 9.46 1027.44 9.84 1026.36 9.84ZM1055.75 48C1053.75 48 1051.95 47.5 1050.35 46.5C1048.75 45.46 1047.49 44.06 1046.57 42.3C1045.65 40.54 1045.19 38.56 1045.19 36.36V7.74C1045.19 6.86 1045.47 6.14 1046.03 5.58C1046.59 5.02 1047.31 4.74 1048.19 4.74C1049.07 4.74 1049.79 5.02 1050.35 5.58C1050.91 6.14 1051.19 6.86 1051.19 7.74V36.36C1051.19 37.96 1051.63 39.3 1052.51 40.38C1053.39 41.46 1054.47 42 1055.75 42H1057.79C1058.51 42 1059.11 42.28 1059.59 42.84C1060.11 43.4 1060.37 44.12 1060.37 45C1060.37 45.88 1060.03 46.6 1059.35 47.16C1058.71 47.72 1057.87 48 1056.83 48H1055.75ZM1042.43 21.54C1041.59 21.54 1040.91 21.3 1040.39 20.82C1039.87 20.34 1039.61 19.74 1039.61 19.02C1039.61 18.22 1039.87 17.58 1040.39 17.1C1040.91 16.62 1041.59 16.38 1042.43 16.38H1056.29C1057.13 16.38 1057.81 16.62 1058.33 17.1C1058.85 17.58 1059.11 18.22 1059.11 19.02C1059.11 19.74 1058.85 20.34 1058.33 20.82C1057.81 21.3 1057.13 21.54 1056.29 21.54H1042.43ZM1082.83 48.24C1080.03 48.24 1077.43 47.82 1075.03 46.98C1072.67 46.1 1070.83 45 1069.51 43.68C1068.91 43.04 1068.65 42.32 1068.73 41.52C1068.85 40.68 1069.25 40 1069.93 39.48C1070.73 38.84 1071.51 38.58 1072.27 38.7C1073.07 38.78 1073.75 39.12 1074.31 39.72C1074.99 40.48 1076.07 41.2 1077.55 41.88C1079.07 42.52 1080.75 42.84 1082.59 42.84C1084.91 42.84 1086.67 42.46 1087.87 41.7C1089.11 40.94 1089.75 39.96 1089.79 38.76C1089.83 37.56 1089.25 36.52 1088.05 35.64C1086.89 34.76 1084.75 34.04 1081.63 33.48C1077.59 32.68 1074.65 31.48 1072.81 29.88C1071.01 28.28 1070.11 26.32 1070.11 24C1070.11 21.96 1070.71 20.28 1071.91 18.96C1073.11 17.6 1074.65 16.6 1076.53 15.96C1078.41 15.28 1080.37 14.94 1082.41 14.94C1085.05 14.94 1087.39 15.36 1089.43 16.2C1091.47 17.04 1093.09 18.2 1094.29 19.68C1094.85 20.32 1095.11 21 1095.07 21.72C1095.03 22.4 1094.69 22.98 1094.05 23.46C1093.41 23.9 1092.65 24.04 1091.77 23.88C1090.89 23.72 1090.15 23.36 1089.55 22.8C1088.55 21.84 1087.47 21.18 1086.31 20.82C1085.15 20.46 1083.81 20.28 1082.29 20.28C1080.53 20.28 1079.03 20.58 1077.79 21.18C1076.59 21.78 1075.99 22.66 1075.99 23.82C1075.99 24.54 1076.17 25.2 1076.53 25.8C1076.93 26.36 1077.69 26.88 1078.81 27.36C1079.93 27.8 1081.57 28.24 1083.73 28.68C1086.73 29.28 1089.09 30.04 1090.81 30.96C1092.57 31.88 1093.83 32.96 1094.59 34.2C1095.35 35.4 1095.73 36.8 1095.73 38.4C1095.73 40.24 1095.23 41.9 1094.23 43.38C1093.27 44.86 1091.83 46.04 1089.91 46.92C1088.03 47.8 1085.67 48.24 1082.83 48.24ZM3.48 121.12C2.6 121.12 1.88 120.82 1.32 120.22C0.72 119.62 0.42 118.9 0.42 118.06C0.42 117.18 0.72 116.44 1.32 115.84C1.88 115.28 2.6 115 3.48 115H31.62C32.42 115 33.12 115.28 33.72 115.84C34.32 116.44 34.62 117.18 34.62 118.06C34.62 118.9 34.32 119.62 33.72 120.22C33.12 120.82 32.42 121.12 31.62 121.12H3.48ZM34.605 121.12C33.725 121.12 33.005 120.82 32.445 120.22C31.845 119.62 31.545 118.9 31.545 118.06C31.545 117.18 31.845 116.44 32.445 115.84C33.005 115.28 33.725 115 34.605 115H62.745C63.545 115 64.245 115.28 64.845 115.84C65.445 116.44 65.745 117.18 65.745 118.06C65.745 118.9 65.445 119.62 64.845 120.22C64.245 120.82 63.545 121.12 62.745 121.12H34.605ZM65.73 121.12C64.85 121.12 64.13 120.82 63.57 120.22C62.97 119.62 62.67 118.9 62.67 118.06C62.67 117.18 62.97 116.44 63.57 115.84C64.13 115.28 64.85 115 65.73 115H93.87C94.67 115 95.37 115.28 95.97 115.84C96.57 116.44 96.87 117.18 96.87 118.06C96.87 118.9 96.57 119.62 95.97 120.22C95.37 120.82 94.67 121.12 93.87 121.12H65.73ZM96.855 121.12C95.975 121.12 95.255 120.82 94.695 120.22C94.095 119.62 93.795 118.9 93.795 118.06C93.795 117.18 94.095 116.44 94.695 115.84C95.255 115.28 95.975 115 96.855 115H124.995C125.795 115 126.495 115.28 127.095 115.84C127.695 116.44 127.995 117.18 127.995 118.06C127.995 118.9 127.695 119.62 127.095 120.22C126.495 120.82 125.795 121.12 124.995 121.12H96.855ZM127.98 121.12C127.1 121.12 126.38 120.82 125.82 120.22C125.22 119.62 124.92 118.9 124.92 118.06C124.92 117.18 125.22 116.44 125.82 115.84C126.38 115.28 127.1 115 127.98 115H156.12C156.92 115 157.62 115.28 158.22 115.84C158.82 116.44 159.12 117.18 159.12 118.06C159.12 118.9 158.82 119.62 158.22 120.22C157.62 120.82 156.92 121.12 156.12 121.12H127.98ZM159.105 121.12C158.225 121.12 157.505 120.82 156.945 120.22C156.345 119.62 156.045 118.9 156.045 118.06C156.045 117.18 156.345 116.44 156.945 115.84C157.505 115.28 158.225 115 159.105 115H187.245C188.045 115 188.745 115.28 189.345 115.84C189.945 116.44 190.245 117.18 190.245 118.06C190.245 118.9 189.945 119.62 189.345 120.22C188.745 120.82 188.045 121.12 187.245 121.12H159.105ZM190.23 121.12C189.35 121.12 188.63 120.82 188.07 120.22C187.47 119.62 187.17 118.9 187.17 118.06C187.17 117.18 187.47 116.44 188.07 115.84C188.63 115.28 189.35 115 190.23 115H218.37C219.17 115 219.87 115.28 220.47 115.84C221.07 116.44 221.37 117.18 221.37 118.06C221.37 118.9 221.07 119.62 220.47 120.22C219.87 120.82 219.17 121.12 218.37 121.12H190.23ZM221.355 121.12C220.475 121.12 219.755 120.82 219.195 120.22C218.595 119.62 218.295 118.9 218.295 118.06C218.295 117.18 218.595 116.44 219.195 115.84C219.755 115.28 220.475 115 221.355 115H249.495C250.295 115 250.995 115.28 251.595 115.84C252.195 116.44 252.495 117.18 252.495 118.06C252.495 118.9 252.195 119.62 251.595 120.22C250.995 120.82 250.295 121.12 249.495 121.12H221.355ZM252.48 121.12C251.6 121.12 250.88 120.82 250.32 120.22C249.72 119.62 249.42 118.9 249.42 118.06C249.42 117.18 249.72 116.44 250.32 115.84C250.88 115.28 251.6 115 252.48 115H280.62C281.42 115 282.12 115.28 282.72 115.84C283.32 116.44 283.62 117.18 283.62 118.06C283.62 118.9 283.32 119.62 282.72 120.22C282.12 120.82 281.42 121.12 280.62 121.12H252.48ZM283.605 121.12C282.725 121.12 282.005 120.82 281.445 120.22C280.845 119.62 280.545 118.9 280.545 118.06C280.545 117.18 280.845 116.44 281.445 115.84C282.005 115.28 282.725 115 283.605 115H311.745C312.545 115 313.245 115.28 313.845 115.84C314.445 116.44 314.745 117.18 314.745 118.06C314.745 118.9 314.445 119.62 313.845 120.22C313.245 120.82 312.545 121.12 311.745 121.12H283.605ZM314.73 121.12C313.85 121.12 313.13 120.82 312.57 120.22C311.97 119.62 311.67 118.9 311.67 118.06C311.67 117.18 311.97 116.44 312.57 115.84C313.13 115.28 313.85 115 314.73 115H342.87C343.67 115 344.37 115.28 344.97 115.84C345.57 116.44 345.87 117.18 345.87 118.06C345.87 118.9 345.57 119.62 344.97 120.22C344.37 120.82 343.67 121.12 342.87 121.12H314.73ZM345.855 121.12C344.975 121.12 344.255 120.82 343.695 120.22C343.095 119.62 342.795 118.9 342.795 118.06C342.795 117.18 343.095 116.44 343.695 115.84C344.255 115.28 344.975 115 345.855 115H373.995C374.795 115 375.495 115.28 376.095 115.84C376.695 116.44 376.995 117.18 376.995 118.06C376.995 118.9 376.695 119.62 376.095 120.22C375.495 120.82 374.795 121.12 373.995 121.12H345.855ZM376.98 121.12C376.1 121.12 375.38 120.82 374.82 120.22C374.22 119.62 373.92 118.9 373.92 118.06C373.92 117.18 374.22 116.44 374.82 115.84C375.38 115.28 376.1 115 376.98 115H405.12C405.92 115 406.62 115.28 407.22 115.84C407.82 116.44 408.12 117.18 408.12 118.06C408.12 118.9 407.82 119.62 407.22 120.22C406.62 120.82 405.92 121.12 405.12 121.12H376.98ZM408.105 121.12C407.225 121.12 406.505 120.82 405.945 120.22C405.345 119.62 405.045 118.9 405.045 118.06C405.045 117.18 405.345 116.44 405.945 115.84C406.505 115.28 407.225 115 408.105 115H436.245C437.045 115 437.745 115.28 438.345 115.84C438.945 116.44 439.245 117.18 439.245 118.06C439.245 118.9 438.945 119.62 438.345 120.22C437.745 120.82 437.045 121.12 436.245 121.12H408.105ZM439.23 121.12C438.35 121.12 437.63 120.82 437.07 120.22C436.47 119.62 436.17 118.9 436.17 118.06C436.17 117.18 436.47 116.44 437.07 115.84C437.63 115.28 438.35 115 439.23 115H467.37C468.17 115 468.87 115.28 469.47 115.84C470.07 116.44 470.37 117.18 470.37 118.06C470.37 118.9 470.07 119.62 469.47 120.22C468.87 120.82 468.17 121.12 467.37 121.12H439.23ZM470.355 121.12C469.475 121.12 468.755 120.82 468.195 120.22C467.595 119.62 467.295 118.9 467.295 118.06C467.295 117.18 467.595 116.44 468.195 115.84C468.755 115.28 469.475 115 470.355 115H498.495C499.295 115 499.995 115.28 500.595 115.84C501.195 116.44 501.495 117.18 501.495 118.06C501.495 118.9 501.195 119.62 500.595 120.22C499.995 120.82 499.295 121.12 498.495 121.12H470.355ZM501.48 121.12C500.6 121.12 499.88 120.82 499.32 120.22C498.72 119.62 498.42 118.9 498.42 118.06C498.42 117.18 498.72 116.44 499.32 115.84C499.88 115.28 500.6 115 501.48 115H529.62C530.42 115 531.12 115.28 531.72 115.84C532.32 116.44 532.62 117.18 532.62 118.06C532.62 118.9 532.32 119.62 531.72 120.22C531.12 120.82 530.42 121.12 529.62 121.12H501.48ZM532.605 121.12C531.725 121.12 531.005 120.82 530.445 120.22C529.845 119.62 529.545 118.9 529.545 118.06C529.545 117.18 529.845 116.44 530.445 115.84C531.005 115.28 531.725 115 532.605 115H560.745C561.545 115 562.245 115.28 562.845 115.84C563.445 116.44 563.745 117.18 563.745 118.06C563.745 118.9 563.445 119.62 562.845 120.22C562.245 120.82 561.545 121.12 560.745 121.12H532.605ZM563.73 121.12C562.85 121.12 562.13 120.82 561.57 120.22C560.97 119.62 560.67 118.9 560.67 118.06C560.67 117.18 560.97 116.44 561.57 115.84C562.13 115.28 562.85 115 563.73 115H591.87C592.67 115 593.37 115.28 593.97 115.84C594.57 116.44 594.87 117.18 594.87 118.06C594.87 118.9 594.57 119.62 593.97 120.22C593.37 120.82 592.67 121.12 591.87 121.12H563.73ZM594.855 121.12C593.975 121.12 593.255 120.82 592.695 120.22C592.095 119.62 591.795 118.9 591.795 118.06C591.795 117.18 592.095 116.44 592.695 115.84C593.255 115.28 593.975 115 594.855 115H622.995C623.795 115 624.495 115.28 625.095 115.84C625.695 116.44 625.995 117.18 625.995 118.06C625.995 118.9 625.695 119.62 625.095 120.22C624.495 120.82 623.795 121.12 622.995 121.12H594.855ZM625.98 121.12C625.1 121.12 624.38 120.82 623.82 120.22C623.22 119.62 622.92 118.9 622.92 118.06C622.92 117.18 623.22 116.44 623.82 115.84C624.38 115.28 625.1 115 625.98 115H654.12C654.92 115 655.62 115.28 656.22 115.84C656.82 116.44 657.12 117.18 657.12 118.06C657.12 118.9 656.82 119.62 656.22 120.22C655.62 120.82 654.92 121.12 654.12 121.12H625.98ZM657.105 121.12C656.225 121.12 655.505 120.82 654.945 120.22C654.345 119.62 654.045 118.9 654.045 118.06C654.045 117.18 654.345 116.44 654.945 115.84C655.505 115.28 656.225 115 657.105 115H685.245C686.045 115 686.745 115.28 687.345 115.84C687.945 116.44 688.245 117.18 688.245 118.06C688.245 118.9 687.945 119.62 687.345 120.22C686.745 120.82 686.045 121.12 685.245 121.12H657.105ZM688.23 121.12C687.35 121.12 686.63 120.82 686.07 120.22C685.47 119.62 685.17 118.9 685.17 118.06C685.17 117.18 685.47 116.44 686.07 115.84C686.63 115.28 687.35 115 688.23 115H716.37C717.17 115 717.87 115.28 718.47 115.84C719.07 116.44 719.37 117.18 719.37 118.06C719.37 118.9 719.07 119.62 718.47 120.22C717.87 120.82 717.17 121.12 716.37 121.12H688.23ZM719.355 121.12C718.475 121.12 717.755 120.82 717.195 120.22C716.595 119.62 716.295 118.9 716.295 118.06C716.295 117.18 716.595 116.44 717.195 115.84C717.755 115.28 718.475 115 719.355 115H747.495C748.295 115 748.995 115.28 749.595 115.84C750.195 116.44 750.495 117.18 750.495 118.06C750.495 118.9 750.195 119.62 749.595 120.22C748.995 120.82 748.295 121.12 747.495 121.12H719.355ZM750.48 121.12C749.6 121.12 748.88 120.82 748.32 120.22C747.72 119.62 747.42 118.9 747.42 118.06C747.42 117.18 747.72 116.44 748.32 115.84C748.88 115.28 749.6 115 750.48 115H778.62C779.42 115 780.12 115.28 780.72 115.84C781.32 116.44 781.62 117.18 781.62 118.06C781.62 118.9 781.32 119.62 780.72 120.22C780.12 120.82 779.42 121.12 778.62 121.12H750.48ZM781.605 121.12C780.725 121.12 780.005 120.82 779.445 120.22C778.845 119.62 778.545 118.9 778.545 118.06C778.545 117.18 778.845 116.44 779.445 115.84C780.005 115.28 780.725 115 781.605 115H809.745C810.545 115 811.245 115.28 811.845 115.84C812.445 116.44 812.745 117.18 812.745 118.06C812.745 118.9 812.445 119.62 811.845 120.22C811.245 120.82 810.545 121.12 809.745 121.12H781.605ZM812.73 121.12C811.85 121.12 811.13 120.82 810.57 120.22C809.97 119.62 809.67 118.9 809.67 118.06C809.67 117.18 809.97 116.44 810.57 115.84C811.13 115.28 811.85 115 812.73 115H840.87C841.67 115 842.37 115.28 842.97 115.84C843.57 116.44 843.87 117.18 843.87 118.06C843.87 118.9 843.57 119.62 842.97 120.22C842.37 120.82 841.67 121.12 840.87 121.12H812.73ZM843.855 121.12C842.975 121.12 842.255 120.82 841.695 120.22C841.095 119.62 840.795 118.9 840.795 118.06C840.795 117.18 841.095 116.44 841.695 115.84C842.255 115.28 842.975 115 843.855 115H871.995C872.795 115 873.495 115.28 874.095 115.84C874.695 116.44 874.995 117.18 874.995 118.06C874.995 118.9 874.695 119.62 874.095 120.22C873.495 120.82 872.795 121.12 871.995 121.12H843.855ZM874.98 121.12C874.1 121.12 873.38 120.82 872.82 120.22C872.22 119.62 871.92 118.9 871.92 118.06C871.92 117.18 872.22 116.44 872.82 115.84C873.38 115.28 874.1 115 874.98 115H903.12C903.92 115 904.62 115.28 905.22 115.84C905.82 116.44 906.12 117.18 906.12 118.06C906.12 118.9 905.82 119.62 905.22 120.22C904.62 120.82 903.92 121.12 903.12 121.12H874.98ZM906.105 121.12C905.225 121.12 904.505 120.82 903.945 120.22C903.345 119.62 903.045 118.9 903.045 118.06C903.045 117.18 903.345 116.44 903.945 115.84C904.505 115.28 905.225 115 906.105 115H934.245C935.045 115 935.745 115.28 936.345 115.84C936.945 116.44 937.245 117.18 937.245 118.06C937.245 118.9 936.945 119.62 936.345 120.22C935.745 120.82 935.045 121.12 934.245 121.12H906.105ZM937.23 121.12C936.35 121.12 935.63 120.82 935.07 120.22C934.47 119.62 934.17 118.9 934.17 118.06C934.17 117.18 934.47 116.44 935.07 115.84C935.63 115.28 936.35 115 937.23 115H965.37C966.17 115 966.87 115.28 967.47 115.84C968.07 116.44 968.37 117.18 968.37 118.06C968.37 118.9 968.07 119.62 967.47 120.22C966.87 120.82 966.17 121.12 965.37 121.12H937.23ZM968.355 121.12C967.475 121.12 966.755 120.82 966.195 120.22C965.595 119.62 965.295 118.9 965.295 118.06C965.295 117.18 965.595 116.44 966.195 115.84C966.755 115.28 967.475 115 968.355 115H996.495C997.295 115 997.995 115.28 998.595 115.84C999.195 116.44 999.495 117.18 999.495 118.06C999.495 118.9 999.195 119.62 998.595 120.22C997.995 120.82 997.295 121.12 996.495 121.12H968.355ZM999.48 121.12C998.6 121.12 997.88 120.82 997.32 120.22C996.72 119.62 996.42 118.9 996.42 118.06C996.42 117.18 996.72 116.44 997.32 115.84C997.88 115.28 998.6 115 999.48 115H1027.62C1028.42 115 1029.12 115.28 1029.72 115.84C1030.32 116.44 1030.62 117.18 1030.62 118.06C1030.62 118.9 1030.32 119.62 1029.72 120.22C1029.12 120.82 1028.42 121.12 1027.62 121.12H999.48ZM1030.61 121.12C1029.72 121.12 1029 120.82 1028.44 120.22C1027.84 119.62 1027.54 118.9 1027.54 118.06C1027.54 117.18 1027.84 116.44 1028.44 115.84C1029 115.28 1029.72 115 1030.61 115H1058.75C1059.55 115 1060.25 115.28 1060.85 115.84C1061.45 116.44 1061.75 117.18 1061.75 118.06C1061.75 118.9 1061.45 119.62 1060.85 120.22C1060.25 120.82 1059.55 121.12 1058.75 121.12H1030.61ZM1061.73 121.12C1060.85 121.12 1060.13 120.82 1059.57 120.22C1058.97 119.62 1058.67 118.9 1058.67 118.06C1058.67 117.18 1058.97 116.44 1059.57 115.84C1060.13 115.28 1060.85 115 1061.73 115H1089.87C1090.67 115 1091.37 115.28 1091.97 115.84C1092.57 116.44 1092.87 117.18 1092.87 118.06C1092.87 118.9 1092.57 119.62 1091.97 120.22C1091.37 120.82 1090.67 121.12 1089.87 121.12H1061.73ZM1092.86 121.12C1091.97 121.12 1091.25 120.82 1090.69 120.22C1090.09 119.62 1089.79 118.9 1089.79 118.06C1089.79 117.18 1090.09 116.44 1090.69 115.84C1091.25 115.28 1091.97 115 1092.86 115H1121C1121.8 115 1122.5 115.28 1123.1 115.84C1123.7 116.44 1124 117.18 1124 118.06C1124 118.9 1123.7 119.62 1123.1 120.22C1122.5 120.82 1121.8 121.12 1121 121.12H1092.86ZM1123.98 121.12C1123.1 121.12 1122.38 120.82 1121.82 120.22C1121.22 119.62 1120.92 118.9 1120.92 118.06C1120.92 117.18 1121.22 116.44 1121.82 115.84C1122.38 115.28 1123.1 115 1123.98 115H1152.12C1152.92 115 1153.62 115.28 1154.22 115.84C1154.82 116.44 1155.12 117.18 1155.12 118.06C1155.12 118.9 1154.82 119.62 1154.22 120.22C1153.62 120.82 1152.92 121.12 1152.12 121.12H1123.98ZM1155.11 121.12C1154.22 121.12 1153.5 120.82 1152.94 120.22C1152.34 119.62 1152.04 118.9 1152.04 118.06C1152.04 117.18 1152.34 116.44 1152.94 115.84C1153.5 115.28 1154.22 115 1155.11 115H1183.25C1184.05 115 1184.75 115.28 1185.35 115.84C1185.95 116.44 1186.25 117.18 1186.25 118.06C1186.25 118.9 1185.95 119.62 1185.35 120.22C1184.75 120.82 1184.05 121.12 1183.25 121.12H1155.11Z" fill="black"/>
</svg>
