<svg width="1213" height="189" viewBox="0 0 1213 189" fill="none" xmlns="http://www.w3.org/2000/svg">
<path d="M8.22 34.62C7.34 34.62 6.6 34.34 6 33.78C5.44 33.22 5.16 32.5 5.16 31.62C5.16 30.7 5.44 29.96 6 29.4C6.6 28.84 7.34 28.56 8.22 28.56H21.6C22.48 28.56 23.2 28.84 23.76 29.4C24.32 29.96 24.6 30.7 24.6 31.62C24.6 32.5 24.32 33.22 23.76 33.78C23.2 34.34 22.48 34.62 21.6 34.62H8.22ZM77.0156 48.6C73.7756 48.6 70.7356 48 67.8956 46.8C65.0956 45.56 62.6356 43.86 60.5156 41.7C58.4356 39.5 56.7956 36.94 55.5956 34.02C54.4356 31.1 53.8556 27.94 53.8556 24.54C53.8556 21.18 54.4356 18.06 55.5956 15.18C56.7956 12.26 58.4356 9.72 60.5156 7.56C62.6356 5.36 65.0956 3.64 67.8956 2.4C70.6956 1.16 73.7356 0.539999 77.0156 0.539999C80.0956 0.539999 82.7356 0.939999 84.9356 1.74C87.1756 2.54 89.4156 3.86 91.6556 5.7C91.9756 5.94 92.2156 6.2 92.3756 6.48C92.5756 6.72 92.6956 6.98 92.7356 7.26C92.8156 7.5 92.8556 7.8 92.8556 8.16C92.8556 8.92 92.5756 9.56 92.0156 10.08C91.4956 10.56 90.8556 10.84 90.0956 10.92C89.3356 10.96 88.5956 10.7 87.8756 10.14C86.3956 8.86 84.8556 7.88 83.2556 7.2C81.6956 6.52 79.6156 6.18 77.0156 6.18C74.6556 6.18 72.4356 6.66 70.3556 7.62C68.2756 8.58 66.4356 9.9 64.8356 11.58C63.2756 13.26 62.0556 15.22 61.1756 17.46C60.2956 19.66 59.8556 22.02 59.8556 24.54C59.8556 27.1 60.2956 29.5 61.1756 31.74C62.0556 33.94 63.2756 35.88 64.8356 37.56C66.4356 39.24 68.2756 40.56 70.3556 41.52C72.4356 42.44 74.6556 42.9 77.0156 42.9C79.0556 42.9 80.9756 42.56 82.7756 41.88C84.6156 41.16 86.3756 40.18 88.0556 38.94C88.7756 38.42 89.4756 38.2 90.1556 38.28C90.8756 38.32 91.4756 38.6 91.9556 39.12C92.4356 39.6 92.6756 40.28 92.6756 41.16C92.6756 41.56 92.5956 41.96 92.4356 42.36C92.2756 42.72 92.0356 43.06 91.7156 43.38C89.5556 45.1 87.2356 46.4 84.7556 47.28C82.3156 48.16 79.7356 48.6 77.0156 48.6ZM116.334 48.24C113.414 48.24 110.794 47.52 108.474 46.08C106.154 44.6 104.314 42.62 102.954 40.14C101.634 37.62 100.974 34.78 100.974 31.62C100.974 28.46 101.694 25.62 103.134 23.1C104.614 20.58 106.594 18.6 109.074 17.16C111.594 15.68 114.414 14.94 117.534 14.94C120.654 14.94 123.454 15.68 125.934 17.16C128.414 18.6 130.374 20.58 131.814 23.1C133.294 25.62 134.034 28.46 134.034 31.62H131.694C131.694 34.78 131.014 37.62 129.654 40.14C128.334 42.62 126.514 44.6 124.194 46.08C121.874 47.52 119.254 48.24 116.334 48.24ZM117.534 42.84C119.574 42.84 121.394 42.36 122.994 41.4C124.594 40.4 125.854 39.06 126.774 37.38C127.694 35.66 128.154 33.74 128.154 31.62C128.154 29.46 127.694 27.54 126.774 25.86C125.854 24.14 124.594 22.8 122.994 21.84C121.394 20.84 119.574 20.34 117.534 20.34C115.534 20.34 113.714 20.84 112.074 21.84C110.474 22.8 109.194 24.14 108.234 25.86C107.314 27.54 106.854 29.46 106.854 31.62C106.854 33.74 107.314 35.66 108.234 37.38C109.194 39.06 110.474 40.4 112.074 41.4C113.714 42.36 115.534 42.84 117.534 42.84ZM130.974 48.06C130.094 48.06 129.354 47.78 128.754 47.22C128.194 46.62 127.914 45.88 127.914 45V35.82L129.054 29.46L134.034 31.62V45C134.034 45.88 133.734 46.62 133.134 47.22C132.574 47.78 131.854 48.06 130.974 48.06ZM158.082 48C156.082 48 154.282 47.5 152.682 46.5C151.082 45.46 149.822 44.06 148.902 42.3C147.982 40.54 147.522 38.56 147.522 36.36V7.74C147.522 6.86 147.802 6.14 148.362 5.58C148.922 5.02 149.642 4.74 150.522 4.74C151.402 4.74 152.122 5.02 152.682 5.58C153.242 6.14 153.522 6.86 153.522 7.74V36.36C153.522 37.96 153.962 39.3 154.842 40.38C155.722 41.46 156.802 42 158.082 42H160.122C160.842 42 161.442 42.28 161.922 42.84C162.442 43.4 162.702 44.12 162.702 45C162.702 45.88 162.362 46.6 161.682 47.16C161.042 47.72 160.202 48 159.162 48H158.082ZM144.762 21.54C143.922 21.54 143.242 21.3 142.722 20.82C142.202 20.34 141.942 19.74 141.942 19.02C141.942 18.22 142.202 17.58 142.722 17.1C143.242 16.62 143.922 16.38 144.762 16.38H158.622C159.462 16.38 160.142 16.62 160.662 17.1C161.182 17.58 161.442 18.22 161.442 19.02C161.442 19.74 161.182 20.34 160.662 20.82C160.142 21.3 159.462 21.54 158.622 21.54H144.762ZM186.904 48.24C183.984 48.24 181.364 47.52 179.044 46.08C176.724 44.6 174.884 42.62 173.524 40.14C172.204 37.62 171.544 34.78 171.544 31.62C171.544 28.46 172.264 25.62 173.704 23.1C175.184 20.58 177.164 18.6 179.644 17.16C182.164 15.68 184.984 14.94 188.104 14.94C191.224 14.94 194.024 15.68 196.504 17.16C198.984 18.6 200.944 20.58 202.384 23.1C203.864 25.62 204.604 28.46 204.604 31.62H202.264C202.264 34.78 201.584 37.62 200.224 40.14C198.904 42.62 197.084 44.6 194.764 46.08C192.444 47.52 189.824 48.24 186.904 48.24ZM188.104 42.84C190.144 42.84 191.964 42.36 193.564 41.4C195.164 40.4 196.424 39.06 197.344 37.38C198.264 35.66 198.724 33.74 198.724 31.62C198.724 29.46 198.264 27.54 197.344 25.86C196.424 24.14 195.164 22.8 193.564 21.84C191.964 20.84 190.144 20.34 188.104 20.34C186.104 20.34 184.284 20.84 182.644 21.84C181.044 22.8 179.764 24.14 178.804 25.86C177.884 27.54 177.424 29.46 177.424 31.62C177.424 33.74 177.884 35.66 178.804 37.38C179.764 39.06 181.044 40.4 182.644 41.4C184.284 42.36 186.104 42.84 188.104 42.84ZM201.544 48.06C200.664 48.06 199.924 47.78 199.324 47.22C198.764 46.62 198.484 45.88 198.484 45V35.82L199.624 29.46L204.604 31.62V45C204.604 45.88 204.304 46.62 203.704 47.22C203.144 47.78 202.424 48.06 201.544 48.06ZM224.513 48C222.753 48 221.193 47.52 219.833 46.56C218.473 45.6 217.413 44.3 216.653 42.66C215.893 40.98 215.513 39.06 215.513 36.9V4.14C215.513 3.26 215.793 2.54 216.353 1.98C216.913 1.42 217.633 1.14 218.513 1.14C219.393 1.14 220.113 1.42 220.673 1.98C221.233 2.54 221.513 3.26 221.513 4.14V36.9C221.513 38.38 221.793 39.6 222.353 40.56C222.913 41.52 223.633 42 224.513 42H226.013C226.813 42 227.453 42.28 227.933 42.84C228.453 43.4 228.713 44.12 228.713 45C228.713 45.88 228.333 46.6 227.573 47.16C226.813 47.72 225.833 48 224.633 48H224.513ZM250.764 48.24C247.524 48.24 244.664 47.54 242.184 46.14C239.704 44.7 237.744 42.74 236.304 40.26C234.904 37.74 234.204 34.86 234.204 31.62C234.204 28.34 234.904 25.46 236.304 22.98C237.744 20.46 239.704 18.5 242.184 17.1C244.664 15.66 247.524 14.94 250.764 14.94C253.964 14.94 256.804 15.66 259.284 17.1C261.764 18.5 263.704 20.46 265.104 22.98C266.544 25.46 267.264 28.34 267.264 31.62C267.264 34.86 266.564 37.74 265.164 40.26C263.764 42.74 261.824 44.7 259.344 46.14C256.864 47.54 254.004 48.24 250.764 48.24ZM250.764 42.84C252.844 42.84 254.684 42.36 256.284 41.4C257.884 40.44 259.124 39.12 260.004 37.44C260.924 35.76 261.384 33.82 261.384 31.62C261.384 29.42 260.924 27.48 260.004 25.8C259.124 24.08 257.884 22.74 256.284 21.78C254.684 20.82 252.844 20.34 250.764 20.34C248.684 20.34 246.844 20.82 245.244 21.78C243.644 22.74 242.384 24.08 241.464 25.8C240.544 27.48 240.084 29.42 240.084 31.62C240.084 33.82 240.544 35.76 241.464 37.44C242.384 39.12 243.644 40.44 245.244 41.4C246.844 42.36 248.684 42.84 250.764 42.84ZM293.053 48.24C290.053 48.24 287.393 47.54 285.073 46.14C282.793 44.7 280.993 42.74 279.673 40.26C278.353 37.74 277.693 34.86 277.693 31.62C277.693 28.34 278.393 25.46 279.793 22.98C281.233 20.46 283.193 18.5 285.673 17.1C288.153 15.66 291.013 14.94 294.253 14.94C297.453 14.94 300.293 15.66 302.773 17.1C305.253 18.5 307.193 20.46 308.593 22.98C310.033 25.46 310.753 28.34 310.753 31.62H307.213C307.213 34.86 306.593 37.74 305.353 40.26C304.153 42.74 302.493 44.7 300.373 46.14C298.253 47.54 295.813 48.24 293.053 48.24ZM294.133 61.62C291.293 61.62 288.633 61.06 286.153 59.94C283.673 58.82 281.573 57.18 279.853 55.02C279.333 54.34 279.133 53.64 279.253 52.92C279.413 52.2 279.813 51.62 280.453 51.18C281.173 50.7 281.913 50.54 282.673 50.7C283.473 50.86 284.113 51.26 284.593 51.9C285.673 53.26 287.033 54.32 288.673 55.08C290.313 55.84 292.173 56.22 294.253 56.22C296.173 56.22 297.933 55.76 299.533 54.84C301.173 53.92 302.473 52.56 303.433 50.76C304.393 48.96 304.873 46.76 304.873 44.16V35.64L306.853 30.36L310.753 31.62V44.58C310.753 47.74 310.053 50.6 308.653 53.16C307.253 55.76 305.293 57.82 302.773 59.34C300.293 60.86 297.413 61.62 294.133 61.62ZM294.253 42.84C296.333 42.84 298.173 42.36 299.773 41.4C301.373 40.44 302.613 39.12 303.493 37.44C304.413 35.76 304.873 33.82 304.873 31.62C304.873 29.42 304.413 27.48 303.493 25.8C302.613 24.08 301.373 22.74 299.773 21.78C298.173 20.82 296.333 20.34 294.253 20.34C292.173 20.34 290.333 20.82 288.733 21.78C287.133 22.74 285.873 24.08 284.953 25.8C284.033 27.48 283.573 29.42 283.573 31.62C283.573 33.82 284.033 35.76 284.953 37.44C285.873 39.12 287.133 40.44 288.733 41.4C290.333 42.36 292.173 42.84 294.253 42.84ZM336.661 48.3C333.901 48.3 331.421 47.72 329.221 46.56C327.061 45.36 325.341 43.62 324.061 41.34C322.821 39.06 322.201 36.26 322.201 32.94V18.18C322.201 17.3 322.481 16.58 323.041 16.02C323.641 15.42 324.381 15.12 325.261 15.12C326.141 15.12 326.861 15.42 327.421 16.02C328.021 16.58 328.321 17.3 328.321 18.18V32.94C328.321 35.18 328.741 37.04 329.581 38.52C330.421 39.96 331.561 41.04 333.001 41.76C334.441 42.44 336.061 42.78 337.861 42.78C339.581 42.78 341.101 42.44 342.421 41.76C343.781 41.08 344.861 40.16 345.661 39C346.461 37.84 346.861 36.54 346.861 35.1H350.641C350.641 37.58 350.021 39.82 348.781 41.82C347.581 43.82 345.921 45.4 343.801 46.56C341.721 47.72 339.341 48.3 336.661 48.3ZM349.921 48C349.041 48 348.301 47.72 347.701 47.16C347.141 46.56 346.861 45.82 346.861 44.94V18.18C346.861 17.26 347.141 16.52 347.701 15.96C348.301 15.4 349.041 15.12 349.921 15.12C350.841 15.12 351.581 15.4 352.141 15.96C352.701 16.52 352.981 17.26 352.981 18.18V44.94C352.981 45.82 352.701 46.56 352.141 47.16C351.581 47.72 350.841 48 349.921 48ZM370.419 48C369.539 48 368.799 47.72 368.199 47.16C367.639 46.56 367.359 45.82 367.359 44.94V18.24C367.359 17.32 367.639 16.58 368.199 16.02C368.799 15.46 369.539 15.18 370.419 15.18C371.339 15.18 372.079 15.46 372.639 16.02C373.199 16.58 373.479 17.32 373.479 18.24V44.94C373.479 45.82 373.199 46.56 372.639 47.16C372.079 47.72 371.339 48 370.419 48ZM370.419 9.84C369.339 9.84 368.399 9.46 367.599 8.7C366.839 7.9 366.459 6.96 366.459 5.88C366.459 4.8 366.839 3.88 367.599 3.12C368.399 2.32 369.339 1.92 370.419 1.92C371.499 1.92 372.419 2.32 373.179 3.12C373.979 3.88 374.379 4.8 374.379 5.88C374.379 6.96 373.979 7.9 373.179 8.7C372.419 9.46 371.499 9.84 370.419 9.84ZM415.585 48.06C414.705 48.06 413.965 47.78 413.365 47.22C412.805 46.62 412.525 45.88 412.525 45V30.24C412.525 27.96 412.105 26.1 411.265 24.66C410.425 23.22 409.285 22.16 407.845 21.48C406.445 20.76 404.825 20.4 402.985 20.4C401.305 20.4 399.785 20.74 398.425 21.42C397.065 22.1 395.985 23.02 395.185 24.18C394.385 25.3 393.985 26.6 393.985 28.08H390.205C390.205 25.56 390.805 23.32 392.005 21.36C393.245 19.36 394.925 17.78 397.045 16.62C399.165 15.46 401.545 14.88 404.185 14.88C406.945 14.88 409.405 15.48 411.565 16.68C413.765 17.84 415.485 19.56 416.725 21.84C418.005 24.12 418.645 26.92 418.645 30.24V45C418.645 45.88 418.345 46.62 417.745 47.22C417.185 47.78 416.465 48.06 415.585 48.06ZM390.925 48.06C390.045 48.06 389.305 47.78 388.705 47.22C388.145 46.62 387.865 45.88 387.865 45V18.24C387.865 17.32 388.145 16.58 388.705 16.02C389.305 15.46 390.045 15.18 390.925 15.18C391.845 15.18 392.585 15.46 393.145 16.02C393.705 16.58 393.985 17.32 393.985 18.24V45C393.985 45.88 393.705 46.62 393.145 47.22C392.585 47.78 391.845 48.06 390.925 48.06ZM445.443 48.24C442.443 48.24 439.783 47.54 437.463 46.14C435.183 44.7 433.383 42.74 432.063 40.26C430.743 37.74 430.083 34.86 430.083 31.62C430.083 28.34 430.783 25.46 432.183 22.98C433.623 20.46 435.583 18.5 438.063 17.1C440.543 15.66 443.403 14.94 446.643 14.94C449.843 14.94 452.683 15.66 455.163 17.1C457.643 18.5 459.583 20.46 460.983 22.98C462.423 25.46 463.143 28.34 463.143 31.62H459.603C459.603 34.86 458.983 37.74 457.743 40.26C456.543 42.74 454.883 44.7 452.763 46.14C450.643 47.54 448.203 48.24 445.443 48.24ZM446.523 61.62C443.683 61.62 441.023 61.06 438.543 59.94C436.063 58.82 433.963 57.18 432.243 55.02C431.723 54.34 431.523 53.64 431.643 52.92C431.803 52.2 432.203 51.62 432.843 51.18C433.563 50.7 434.303 50.54 435.063 50.7C435.863 50.86 436.503 51.26 436.983 51.9C438.063 53.26 439.423 54.32 441.063 55.08C442.703 55.84 444.563 56.22 446.643 56.22C448.563 56.22 450.323 55.76 451.923 54.84C453.563 53.92 454.863 52.56 455.823 50.76C456.783 48.96 457.263 46.76 457.263 44.16V35.64L459.243 30.36L463.143 31.62V44.58C463.143 47.74 462.443 50.6 461.043 53.16C459.643 55.76 457.683 57.82 455.163 59.34C452.683 60.86 449.803 61.62 446.523 61.62ZM446.643 42.84C448.723 42.84 450.563 42.36 452.163 41.4C453.763 40.44 455.003 39.12 455.883 37.44C456.803 35.76 457.263 33.82 457.263 31.62C457.263 29.42 456.803 27.48 455.883 25.8C455.003 24.08 453.763 22.74 452.163 21.78C450.563 20.82 448.723 20.34 446.643 20.34C444.563 20.34 442.723 20.82 441.123 21.78C439.523 22.74 438.263 24.08 437.343 25.8C436.423 27.48 435.963 29.42 435.963 31.62C435.963 33.82 436.423 35.76 437.343 37.44C438.263 39.12 439.523 40.44 441.123 41.4C442.723 42.36 444.563 42.84 446.643 42.84ZM495.77 48C494.89 48 494.15 47.7 493.55 47.1C492.95 46.5 492.65 45.76 492.65 44.88V4.26C492.65 3.34 492.95 2.6 493.55 2.04C494.15 1.44 494.89 1.14 495.77 1.14H522.89C523.81 1.14 524.55 1.42 525.11 1.98C525.67 2.5 525.95 3.2 525.95 4.08C525.95 4.92 525.67 5.6 525.11 6.12C524.55 6.64 523.81 6.9 522.89 6.9H498.89V21.48H516.11C517.03 21.48 517.77 21.76 518.33 22.32C518.89 22.84 519.17 23.52 519.17 24.36C519.17 25.2 518.89 25.9 518.33 26.46C517.77 26.98 517.03 27.24 516.11 27.24H498.89V44.88C498.89 45.76 498.59 46.5 497.99 47.1C497.39 47.7 496.65 48 495.77 48ZM551.21 48.24C547.97 48.24 545.11 47.54 542.63 46.14C540.15 44.7 538.19 42.74 536.75 40.26C535.35 37.74 534.65 34.86 534.65 31.62C534.65 28.34 535.35 25.46 536.75 22.98C538.19 20.46 540.15 18.5 542.63 17.1C545.11 15.66 547.97 14.94 551.21 14.94C554.41 14.94 557.25 15.66 559.73 17.1C562.21 18.5 564.15 20.46 565.55 22.98C566.99 25.46 567.71 28.34 567.71 31.62C567.71 34.86 567.01 37.74 565.61 40.26C564.21 42.74 562.27 44.7 559.79 46.14C557.31 47.54 554.45 48.24 551.21 48.24ZM551.21 42.84C553.29 42.84 555.13 42.36 556.73 41.4C558.33 40.44 559.57 39.12 560.45 37.44C561.37 35.76 561.83 33.82 561.83 31.62C561.83 29.42 561.37 27.48 560.45 25.8C559.57 24.08 558.33 22.74 556.73 21.78C555.13 20.82 553.29 20.34 551.21 20.34C549.13 20.34 547.29 20.82 545.69 21.78C544.09 22.74 542.83 24.08 541.91 25.8C540.99 27.48 540.53 29.42 540.53 31.62C540.53 33.82 540.99 35.76 541.91 37.44C542.83 39.12 544.09 40.44 545.69 41.4C547.29 42.36 549.13 42.84 551.21 42.84ZM582.758 27.48C582.758 25.08 583.338 22.94 584.498 21.06C585.698 19.14 587.298 17.62 589.298 16.5C591.298 15.38 593.498 14.82 595.898 14.82C598.298 14.82 600.078 15.22 601.238 16.02C602.438 16.78 602.898 17.7 602.618 18.78C602.498 19.34 602.258 19.78 601.898 20.1C601.578 20.38 601.198 20.56 600.758 20.64C600.318 20.72 599.838 20.7 599.318 20.58C596.758 20.06 594.458 20.02 592.418 20.46C590.378 20.9 588.758 21.72 587.558 22.92C586.398 24.12 585.818 25.64 585.818 27.48H582.758ZM582.818 48C581.858 48 581.118 47.76 580.598 47.28C580.078 46.76 579.818 46 579.818 45V18.18C579.818 17.22 580.078 16.48 580.598 15.96C581.118 15.44 581.858 15.18 582.818 15.18C583.818 15.18 584.558 15.44 585.038 15.96C585.558 16.44 585.818 17.18 585.818 18.18V45C585.818 45.96 585.558 46.7 585.038 47.22C584.558 47.74 583.818 48 582.818 48ZM625.015 48.24C621.695 48.24 618.735 47.54 616.135 46.14C613.575 44.7 611.555 42.74 610.075 40.26C608.635 37.74 607.915 34.86 607.915 31.62C607.915 28.34 608.595 25.46 609.955 22.98C611.355 20.46 613.275 18.5 615.715 17.1C618.155 15.66 620.955 14.94 624.115 14.94C627.235 14.94 629.915 15.64 632.155 17.04C634.395 18.4 636.095 20.3 637.255 22.74C638.455 25.14 639.055 27.92 639.055 31.08C639.055 31.84 638.795 32.48 638.275 33C637.755 33.48 637.095 33.72 636.295 33.72H612.115V28.92H636.115L633.655 30.6C633.615 28.6 633.215 26.82 632.455 25.26C631.695 23.66 630.615 22.4 629.215 21.48C627.815 20.56 626.115 20.1 624.115 20.1C621.835 20.1 619.875 20.6 618.235 21.6C616.635 22.6 615.415 23.98 614.575 25.74C613.735 27.46 613.315 29.42 613.315 31.62C613.315 33.82 613.815 35.78 614.815 37.5C615.815 39.22 617.195 40.58 618.955 41.58C620.715 42.58 622.735 43.08 625.015 43.08C626.255 43.08 627.515 42.86 628.795 42.42C630.115 41.94 631.175 41.4 631.975 40.8C632.575 40.36 633.215 40.14 633.895 40.14C634.615 40.1 635.235 40.3 635.755 40.74C636.435 41.34 636.795 42 636.835 42.72C636.875 43.44 636.555 44.06 635.875 44.58C634.515 45.66 632.815 46.54 630.775 47.22C628.775 47.9 626.855 48.24 625.015 48.24ZM661.801 48.24C659.001 48.24 656.401 47.82 654.001 46.98C651.641 46.1 649.801 45 648.481 43.68C647.881 43.04 647.621 42.32 647.701 41.52C647.821 40.68 648.221 40 648.901 39.48C649.701 38.84 650.481 38.58 651.241 38.7C652.041 38.78 652.721 39.12 653.281 39.72C653.961 40.48 655.041 41.2 656.521 41.88C658.041 42.52 659.721 42.84 661.561 42.84C663.881 42.84 665.641 42.46 666.841 41.7C668.081 40.94 668.721 39.96 668.761 38.76C668.801 37.56 668.221 36.52 667.021 35.64C665.861 34.76 663.721 34.04 660.601 33.48C656.561 32.68 653.621 31.48 651.781 29.88C649.981 28.28 649.081 26.32 649.081 24C649.081 21.96 649.681 20.28 650.881 18.96C652.081 17.6 653.621 16.6 655.501 15.96C657.381 15.28 659.341 14.94 661.381 14.94C664.021 14.94 666.361 15.36 668.401 16.2C670.441 17.04 672.061 18.2 673.261 19.68C673.821 20.32 674.081 21 674.041 21.72C674.001 22.4 673.661 22.98 673.021 23.46C672.381 23.9 671.621 24.04 670.741 23.88C669.861 23.72 669.121 23.36 668.521 22.8C667.521 21.84 666.441 21.18 665.281 20.82C664.121 20.46 662.781 20.28 661.261 20.28C659.501 20.28 658.001 20.58 656.761 21.18C655.561 21.78 654.961 22.66 654.961 23.82C654.961 24.54 655.141 25.2 655.501 25.8C655.901 26.36 656.661 26.88 657.781 27.36C658.901 27.8 660.541 28.24 662.701 28.68C665.701 29.28 668.061 30.04 669.781 30.96C671.541 31.88 672.801 32.96 673.561 34.2C674.321 35.4 674.701 36.8 674.701 38.4C674.701 40.24 674.201 41.9 673.201 43.38C672.241 44.86 670.801 46.04 668.881 46.92C667.001 47.8 664.641 48.24 661.801 48.24ZM697.379 48C695.379 48 693.579 47.5 691.979 46.5C690.379 45.46 689.119 44.06 688.199 42.3C687.279 40.54 686.819 38.56 686.819 36.36V7.74C686.819 6.86 687.099 6.14 687.659 5.58C688.219 5.02 688.939 4.74 689.819 4.74C690.699 4.74 691.419 5.02 691.979 5.58C692.539 6.14 692.819 6.86 692.819 7.74V36.36C692.819 37.96 693.259 39.3 694.139 40.38C695.019 41.46 696.099 42 697.379 42H699.419C700.139 42 700.739 42.28 701.219 42.84C701.739 43.4 701.999 44.12 701.999 45C701.999 45.88 701.659 46.6 700.979 47.16C700.339 47.72 699.499 48 698.459 48H697.379ZM684.059 21.54C683.219 21.54 682.539 21.3 682.019 20.82C681.499 20.34 681.239 19.74 681.239 19.02C681.239 18.22 681.499 17.58 682.019 17.1C682.539 16.62 683.219 16.38 684.059 16.38H697.919C698.759 16.38 699.439 16.62 699.959 17.1C700.479 17.58 700.739 18.22 700.739 19.02C700.739 19.74 700.479 20.34 699.959 20.82C699.439 21.3 698.759 21.54 697.919 21.54H684.059ZM736.819 48C735.939 48 735.199 47.7 734.599 47.1C733.999 46.5 733.699 45.76 733.699 44.88V4.26C733.699 3.34 733.999 2.6 734.599 2.04C735.199 1.44 735.939 1.14 736.819 1.14H748.819C751.819 1.14 754.479 1.8 756.799 3.12C759.119 4.44 760.919 6.28 762.199 8.64C763.519 10.96 764.179 13.64 764.179 16.68C764.179 19.6 763.519 22.2 762.199 24.48C760.919 26.76 759.119 28.54 756.799 29.82C754.479 31.1 751.819 31.74 748.819 31.74H739.939V44.88C739.939 45.76 739.639 46.5 739.039 47.1C738.479 47.7 737.739 48 736.819 48ZM739.939 25.98H748.819C750.659 25.98 752.279 25.58 753.679 24.78C755.079 23.98 756.179 22.88 756.979 21.48C757.779 20.08 758.179 18.48 758.179 16.68C758.179 14.76 757.779 13.08 756.979 11.64C756.179 10.16 755.079 9 753.679 8.16C752.279 7.32 750.659 6.9 748.819 6.9H739.939V25.98ZM776.422 27.48C776.422 25.08 777.002 22.94 778.162 21.06C779.362 19.14 780.962 17.62 782.962 16.5C784.962 15.38 787.162 14.82 789.562 14.82C791.962 14.82 793.742 15.22 794.902 16.02C796.102 16.78 796.562 17.7 796.282 18.78C796.162 19.34 795.922 19.78 795.562 20.1C795.242 20.38 794.862 20.56 794.422 20.64C793.982 20.72 793.502 20.7 792.982 20.58C790.422 20.06 788.122 20.02 786.082 20.46C784.042 20.9 782.422 21.72 781.222 22.92C780.062 24.12 779.482 25.64 779.482 27.48H776.422ZM776.482 48C775.522 48 774.782 47.76 774.262 47.28C773.742 46.76 773.482 46 773.482 45V18.18C773.482 17.22 773.742 16.48 774.262 15.96C774.782 15.44 775.522 15.18 776.482 15.18C777.482 15.18 778.222 15.44 778.702 15.96C779.222 16.44 779.482 17.18 779.482 18.18V45C779.482 45.96 779.222 46.7 778.702 47.22C778.222 47.74 777.482 48 776.482 48ZM818.139 48.24C814.899 48.24 812.039 47.54 809.559 46.14C807.079 44.7 805.119 42.74 803.679 40.26C802.279 37.74 801.579 34.86 801.579 31.62C801.579 28.34 802.279 25.46 803.679 22.98C805.119 20.46 807.079 18.5 809.559 17.1C812.039 15.66 814.899 14.94 818.139 14.94C821.339 14.94 824.179 15.66 826.659 17.1C829.139 18.5 831.079 20.46 832.479 22.98C833.919 25.46 834.639 28.34 834.639 31.62C834.639 34.86 833.939 37.74 832.539 40.26C831.139 42.74 829.199 44.7 826.719 46.14C824.239 47.54 821.379 48.24 818.139 48.24ZM818.139 42.84C820.219 42.84 822.059 42.36 823.659 41.4C825.259 40.44 826.499 39.12 827.379 37.44C828.299 35.76 828.759 33.82 828.759 31.62C828.759 29.42 828.299 27.48 827.379 25.8C826.499 24.08 825.259 22.74 823.659 21.78C822.059 20.82 820.219 20.34 818.139 20.34C816.059 20.34 814.219 20.82 812.619 21.78C811.019 22.74 809.759 24.08 808.839 25.8C807.919 27.48 807.459 29.42 807.459 31.62C807.459 33.82 807.919 35.76 808.839 37.44C809.759 39.12 811.019 40.44 812.619 41.4C814.219 42.36 816.059 42.84 818.139 42.84ZM861.628 48.24C858.508 48.24 855.688 47.52 853.168 46.08C850.688 44.6 848.708 42.6 847.228 40.08C845.788 37.56 845.068 34.72 845.068 31.56C845.068 28.4 845.728 25.58 847.048 23.1C848.408 20.58 850.248 18.6 852.568 17.16C854.888 15.68 857.508 14.94 860.428 14.94C862.788 14.94 864.968 15.44 866.968 16.44C868.968 17.4 870.648 18.72 872.008 20.4V4.2C872.008 3.28 872.288 2.54 872.848 1.98C873.448 1.42 874.188 1.14 875.068 1.14C875.988 1.14 876.728 1.42 877.288 1.98C877.848 2.54 878.128 3.28 878.128 4.2V31.56C878.128 34.72 877.388 37.56 875.908 40.08C874.468 42.6 872.508 44.6 870.028 46.08C867.548 47.52 864.748 48.24 861.628 48.24ZM861.628 42.84C863.668 42.84 865.488 42.36 867.088 41.4C868.688 40.4 869.948 39.04 870.868 37.32C871.788 35.6 872.248 33.68 872.248 31.56C872.248 29.4 871.788 27.48 870.868 25.8C869.948 24.12 868.688 22.8 867.088 21.84C865.488 20.84 863.668 20.34 861.628 20.34C859.628 20.34 857.808 20.84 856.168 21.84C854.568 22.8 853.288 24.12 852.328 25.8C851.408 27.48 850.948 29.4 850.948 31.56C850.948 33.68 851.408 35.6 852.328 37.32C853.288 39.04 854.568 40.4 856.168 41.4C857.808 42.36 859.628 42.84 861.628 42.84ZM905.735 48.3C902.975 48.3 900.495 47.72 898.295 46.56C896.135 45.36 894.415 43.62 893.135 41.34C891.895 39.06 891.275 36.26 891.275 32.94V18.18C891.275 17.3 891.555 16.58 892.115 16.02C892.715 15.42 893.455 15.12 894.335 15.12C895.215 15.12 895.935 15.42 896.495 16.02C897.095 16.58 897.395 17.3 897.395 18.18V32.94C897.395 35.18 897.815 37.04 898.655 38.52C899.495 39.96 900.635 41.04 902.075 41.76C903.515 42.44 905.135 42.78 906.935 42.78C908.655 42.78 910.175 42.44 911.495 41.76C912.855 41.08 913.935 40.16 914.735 39C915.535 37.84 915.935 36.54 915.935 35.1H919.715C919.715 37.58 919.095 39.82 917.855 41.82C916.655 43.82 914.995 45.4 912.875 46.56C910.795 47.72 908.415 48.3 905.735 48.3ZM918.995 48C918.115 48 917.375 47.72 916.775 47.16C916.215 46.56 915.935 45.82 915.935 44.94V18.18C915.935 17.26 916.215 16.52 916.775 15.96C917.375 15.4 918.115 15.12 918.995 15.12C919.915 15.12 920.655 15.4 921.215 15.96C921.775 16.52 922.055 17.26 922.055 18.18V44.94C922.055 45.82 921.775 46.56 921.215 47.16C920.655 47.72 919.915 48 918.995 48ZM950.714 48.24C947.514 48.24 944.654 47.52 942.134 46.08C939.654 44.6 937.694 42.62 936.254 40.14C934.854 37.62 934.154 34.78 934.154 31.62C934.154 28.38 934.854 25.5 936.254 22.98C937.654 20.46 939.574 18.5 942.014 17.1C944.454 15.66 947.254 14.94 950.414 14.94C952.774 14.94 954.934 15.4 956.894 16.32C958.854 17.2 960.614 18.54 962.174 20.34C962.734 20.98 962.934 21.64 962.774 22.32C962.614 23 962.174 23.6 961.454 24.12C960.894 24.52 960.274 24.66 959.594 24.54C958.914 24.38 958.294 24.02 957.734 23.46C955.774 21.38 953.334 20.34 950.414 20.34C948.374 20.34 946.574 20.82 945.014 21.78C943.454 22.7 942.234 24 941.354 25.68C940.474 27.36 940.034 29.34 940.034 31.62C940.034 33.78 940.474 35.7 941.354 37.38C942.274 39.06 943.534 40.4 945.134 41.4C946.734 42.36 948.594 42.84 950.714 42.84C952.114 42.84 953.334 42.68 954.374 42.36C955.454 42 956.434 41.46 957.314 40.74C957.954 40.22 958.614 39.94 959.294 39.9C959.974 39.82 960.574 40 961.094 40.44C961.774 41 962.154 41.64 962.234 42.36C962.314 43.04 962.074 43.66 961.514 44.22C958.634 46.9 955.034 48.24 950.714 48.24ZM990.289 48.24C986.969 48.24 984.009 47.54 981.409 46.14C978.849 44.7 976.829 42.74 975.349 40.26C973.909 37.74 973.189 34.86 973.189 31.62C973.189 28.34 973.869 25.46 975.229 22.98C976.629 20.46 978.549 18.5 980.989 17.1C983.429 15.66 986.229 14.94 989.389 14.94C992.509 14.94 995.189 15.64 997.429 17.04C999.669 18.4 1001.37 20.3 1002.53 22.74C1003.73 25.14 1004.33 27.92 1004.33 31.08C1004.33 31.84 1004.07 32.48 1003.55 33C1003.03 33.48 1002.37 33.72 1001.57 33.72H977.389V28.92H1001.39L998.929 30.6C998.889 28.6 998.489 26.82 997.729 25.26C996.969 23.66 995.889 22.4 994.489 21.48C993.089 20.56 991.389 20.1 989.389 20.1C987.109 20.1 985.149 20.6 983.509 21.6C981.909 22.6 980.689 23.98 979.849 25.74C979.009 27.46 978.589 29.42 978.589 31.62C978.589 33.82 979.089 35.78 980.089 37.5C981.089 39.22 982.469 40.58 984.229 41.58C985.989 42.58 988.009 43.08 990.289 43.08C991.529 43.08 992.789 42.86 994.069 42.42C995.389 41.94 996.449 41.4 997.249 40.8C997.849 40.36 998.489 40.14 999.169 40.14C999.889 40.1 1000.51 40.3 1001.03 40.74C1001.71 41.34 1002.07 42 1002.11 42.72C1002.15 43.44 1001.83 44.06 1001.15 44.58C999.789 45.66 998.089 46.54 996.049 47.22C994.049 47.9 992.129 48.24 990.289 48.24ZM8.22 101.62C7.34 101.62 6.6 101.34 6 100.78C5.44 100.22 5.16 99.5 5.16 98.62C5.16 97.7 5.44 96.96 6 96.4C6.6 95.84 7.34 95.56 8.22 95.56H21.6C22.48 95.56 23.2 95.84 23.76 96.4C24.32 96.96 24.6 97.7 24.6 98.62C24.6 99.5 24.32 100.22 23.76 100.78C23.2 101.34 22.48 101.62 21.6 101.62H8.22ZM59.1356 115C58.2556 115 57.5156 114.7 56.9156 114.1C56.3156 113.5 56.0156 112.76 56.0156 111.88V71.26C56.0156 70.34 56.3156 69.6 56.9156 69.04C57.5156 68.44 58.2556 68.14 59.1356 68.14C60.3356 68.14 61.2556 68.7 61.8956 69.82L80.6756 107.44H78.7556L97.0556 69.82C97.6956 68.7 98.6156 68.14 99.8156 68.14C100.696 68.14 101.436 68.44 102.036 69.04C102.636 69.6 102.936 70.34 102.936 71.26V111.88C102.936 112.76 102.616 113.5 101.976 114.1C101.376 114.7 100.656 115 99.8156 115C98.9356 115 98.1956 114.7 97.5956 114.1C96.9956 113.5 96.6956 112.76 96.6956 111.88V79.9L97.8956 79.6L82.1756 111.64C81.4956 112.68 80.5956 113.2 79.4756 113.2C78.1556 113.2 77.1956 112.58 76.5956 111.34L61.0556 80.2L62.2556 79.9V111.88C62.2556 112.76 61.9556 113.5 61.3556 114.1C60.7556 114.7 60.0156 115 59.1356 115ZM131.041 115.24C128.121 115.24 125.501 114.52 123.181 113.08C120.861 111.6 119.021 109.62 117.661 107.14C116.341 104.62 115.681 101.78 115.681 98.62C115.681 95.46 116.401 92.62 117.841 90.1C119.321 87.58 121.301 85.6 123.781 84.16C126.301 82.68 129.121 81.94 132.241 81.94C135.361 81.94 138.161 82.68 140.641 84.16C143.121 85.6 145.081 87.58 146.521 90.1C148.001 92.62 148.741 95.46 148.741 98.62H146.401C146.401 101.78 145.721 104.62 144.361 107.14C143.041 109.62 141.221 111.6 138.901 113.08C136.581 114.52 133.961 115.24 131.041 115.24ZM132.241 109.84C134.281 109.84 136.101 109.36 137.701 108.4C139.301 107.4 140.561 106.06 141.481 104.38C142.401 102.66 142.861 100.74 142.861 98.62C142.861 96.46 142.401 94.54 141.481 92.86C140.561 91.14 139.301 89.8 137.701 88.84C136.101 87.84 134.281 87.34 132.241 87.34C130.241 87.34 128.421 87.84 126.781 88.84C125.181 89.8 123.901 91.14 122.941 92.86C122.021 94.54 121.561 96.46 121.561 98.62C121.561 100.74 122.021 102.66 122.941 104.38C123.901 106.06 125.181 107.4 126.781 108.4C128.421 109.36 130.241 109.84 132.241 109.84ZM145.681 115.06C144.801 115.06 144.061 114.78 143.461 114.22C142.901 113.62 142.621 112.88 142.621 112V102.82L143.761 96.46L148.741 98.62V112C148.741 112.88 148.441 113.62 147.841 114.22C147.281 114.78 146.561 115.06 145.681 115.06ZM163.789 94.48C163.789 92.08 164.369 89.94 165.529 88.06C166.729 86.14 168.329 84.62 170.329 83.5C172.329 82.38 174.529 81.82 176.929 81.82C179.329 81.82 181.109 82.22 182.269 83.02C183.469 83.78 183.929 84.7 183.649 85.78C183.529 86.34 183.289 86.78 182.929 87.1C182.609 87.38 182.229 87.56 181.789 87.64C181.349 87.72 180.869 87.7 180.349 87.58C177.789 87.06 175.489 87.02 173.449 87.46C171.409 87.9 169.789 88.72 168.589 89.92C167.429 91.12 166.849 92.64 166.849 94.48H163.789ZM163.849 115C162.889 115 162.149 114.76 161.629 114.28C161.109 113.76 160.849 113 160.849 112V85.18C160.849 84.22 161.109 83.48 161.629 82.96C162.149 82.44 162.889 82.18 163.849 82.18C164.849 82.18 165.589 82.44 166.069 82.96C166.589 83.44 166.849 84.18 166.849 85.18V112C166.849 112.96 166.589 113.7 166.069 114.22C165.589 114.74 164.849 115 163.849 115ZM198.789 103L195.069 98.92L213.489 82.48C214.089 81.92 214.749 81.66 215.469 81.7C216.229 81.74 216.869 82.06 217.389 82.66C217.949 83.26 218.209 83.92 218.169 84.64C218.129 85.36 217.809 86 217.209 86.56L198.789 103ZM195.969 115C195.089 115 194.369 114.74 193.809 114.22C193.289 113.66 193.029 112.94 193.029 112.06V71.08C193.029 70.2 193.289 69.5 193.809 68.98C194.369 68.42 195.089 68.14 195.969 68.14C196.849 68.14 197.549 68.42 198.069 68.98C198.629 69.5 198.909 70.2 198.909 71.08V112.06C198.909 112.94 198.629 113.66 198.069 114.22C197.549 114.74 196.849 115 195.969 115ZM217.389 114.7C216.749 115.22 216.029 115.44 215.229 115.36C214.469 115.32 213.829 114.98 213.309 114.34L201.129 99.28L205.329 95.32L217.809 110.68C218.329 111.32 218.549 112.02 218.469 112.78C218.429 113.5 218.069 114.14 217.389 114.7ZM242.621 115.24C239.301 115.24 236.341 114.54 233.741 113.14C231.181 111.7 229.161 109.74 227.681 107.26C226.241 104.74 225.521 101.86 225.521 98.62C225.521 95.34 226.201 92.46 227.561 89.98C228.961 87.46 230.881 85.5 233.321 84.1C235.761 82.66 238.561 81.94 241.721 81.94C244.841 81.94 247.521 82.64 249.761 84.04C252.001 85.4 253.701 87.3 254.861 89.74C256.061 92.14 256.661 94.92 256.661 98.08C256.661 98.84 256.401 99.48 255.881 100C255.361 100.48 254.701 100.72 253.901 100.72H229.721V95.92H253.721L251.261 97.6C251.221 95.6 250.821 93.82 250.061 92.26C249.301 90.66 248.221 89.4 246.821 88.48C245.421 87.56 243.721 87.1 241.721 87.1C239.441 87.1 237.481 87.6 235.841 88.6C234.241 89.6 233.021 90.98 232.181 92.74C231.341 94.46 230.921 96.42 230.921 98.62C230.921 100.82 231.421 102.78 232.421 104.5C233.421 106.22 234.801 107.58 236.561 108.58C238.321 109.58 240.341 110.08 242.621 110.08C243.861 110.08 245.121 109.86 246.401 109.42C247.721 108.94 248.781 108.4 249.581 107.8C250.181 107.36 250.821 107.14 251.501 107.14C252.221 107.1 252.841 107.3 253.361 107.74C254.041 108.34 254.401 109 254.441 109.72C254.481 110.44 254.161 111.06 253.481 111.58C252.121 112.66 250.421 113.54 248.381 114.22C246.381 114.9 244.461 115.24 242.621 115.24ZM279.406 115C277.406 115 275.606 114.5 274.006 113.5C272.406 112.46 271.146 111.06 270.226 109.3C269.306 107.54 268.846 105.56 268.846 103.36V74.74C268.846 73.86 269.126 73.14 269.686 72.58C270.246 72.02 270.966 71.74 271.846 71.74C272.726 71.74 273.446 72.02 274.006 72.58C274.566 73.14 274.846 73.86 274.846 74.74V103.36C274.846 104.96 275.286 106.3 276.166 107.38C277.046 108.46 278.126 109 279.406 109H281.446C282.166 109 282.766 109.28 283.246 109.84C283.766 110.4 284.026 111.12 284.026 112C284.026 112.88 283.686 113.6 283.006 114.16C282.366 114.72 281.526 115 280.486 115H279.406ZM266.086 88.54C265.246 88.54 264.566 88.3 264.046 87.82C263.526 87.34 263.266 86.74 263.266 86.02C263.266 85.22 263.526 84.58 264.046 84.1C264.566 83.62 265.246 83.38 266.086 83.38H279.946C280.786 83.38 281.466 83.62 281.986 84.1C282.506 84.58 282.766 85.22 282.766 86.02C282.766 86.74 282.506 87.34 281.986 87.82C281.466 88.3 280.786 88.54 279.946 88.54H266.086ZM330.607 115.6C328.047 115.6 325.607 115.2 323.287 114.4C320.967 113.6 318.947 112.48 317.227 111.04C315.507 109.6 314.247 107.94 313.447 106.06C313.047 105.22 313.047 104.44 313.447 103.72C313.887 103 314.607 102.54 315.607 102.34C316.327 102.18 317.027 102.3 317.707 102.7C318.427 103.06 318.967 103.62 319.327 104.38C319.807 105.38 320.587 106.3 321.667 107.14C322.787 107.98 324.127 108.66 325.687 109.18C327.247 109.7 328.887 109.96 330.607 109.96C332.527 109.96 334.287 109.66 335.887 109.06C337.527 108.46 338.847 107.6 339.847 106.48C340.847 105.32 341.347 103.9 341.347 102.22C341.347 100.1 340.507 98.2 338.827 96.52C337.187 94.84 334.467 93.8 330.667 93.4C325.707 92.92 321.807 91.46 318.967 89.02C316.127 86.58 314.707 83.56 314.707 79.96C314.707 77.32 315.447 75.08 316.927 73.24C318.407 71.4 320.407 70 322.927 69.04C325.487 68.08 328.327 67.6 331.447 67.6C333.887 67.6 336.007 67.94 337.807 68.62C339.647 69.3 341.247 70.24 342.607 71.44C343.967 72.64 345.147 74.06 346.147 75.7C346.707 76.58 346.927 77.42 346.807 78.22C346.727 78.98 346.347 79.58 345.667 80.02C344.907 80.5 344.087 80.6 343.207 80.32C342.327 80.04 341.667 79.52 341.227 78.76C340.587 77.6 339.807 76.62 338.887 75.82C337.967 75.02 336.887 74.4 335.647 73.96C334.407 73.48 332.947 73.24 331.267 73.24C328.307 73.2 325.827 73.76 323.827 74.92C321.827 76.04 320.827 77.78 320.827 80.14C320.827 81.34 321.127 82.5 321.727 83.62C322.367 84.7 323.507 85.64 325.147 86.44C326.827 87.24 329.227 87.8 332.347 88.12C337.107 88.6 340.807 90.06 343.447 92.5C346.127 94.9 347.467 98.08 347.467 102.04C347.467 104.32 346.987 106.3 346.027 107.98C345.107 109.66 343.847 111.08 342.247 112.24C340.687 113.36 338.887 114.2 336.847 114.76C334.847 115.32 332.767 115.6 330.607 115.6ZM371.375 115C369.375 115 367.575 114.5 365.975 113.5C364.375 112.46 363.115 111.06 362.195 109.3C361.275 107.54 360.815 105.56 360.815 103.36V74.74C360.815 73.86 361.095 73.14 361.655 72.58C362.215 72.02 362.935 71.74 363.815 71.74C364.695 71.74 365.415 72.02 365.975 72.58C366.535 73.14 366.815 73.86 366.815 74.74V103.36C366.815 104.96 367.255 106.3 368.135 107.38C369.015 108.46 370.095 109 371.375 109H373.415C374.135 109 374.735 109.28 375.215 109.84C375.735 110.4 375.995 111.12 375.995 112C375.995 112.88 375.655 113.6 374.975 114.16C374.335 114.72 373.495 115 372.455 115H371.375ZM358.055 88.54C357.215 88.54 356.535 88.3 356.015 87.82C355.495 87.34 355.235 86.74 355.235 86.02C355.235 85.22 355.495 84.58 356.015 84.1C356.535 83.62 357.215 83.38 358.055 83.38H371.915C372.755 83.38 373.435 83.62 373.955 84.1C374.475 84.58 374.735 85.22 374.735 86.02C374.735 86.74 374.475 87.34 373.955 87.82C373.435 88.3 372.755 88.54 371.915 88.54H358.055ZM400.317 115.3C397.557 115.3 395.077 114.72 392.877 113.56C390.717 112.36 388.997 110.62 387.717 108.34C386.477 106.06 385.857 103.26 385.857 99.94V85.18C385.857 84.3 386.137 83.58 386.697 83.02C387.297 82.42 388.037 82.12 388.917 82.12C389.797 82.12 390.517 82.42 391.077 83.02C391.677 83.58 391.977 84.3 391.977 85.18V99.94C391.977 102.18 392.397 104.04 393.237 105.52C394.077 106.96 395.217 108.04 396.657 108.76C398.097 109.44 399.717 109.78 401.517 109.78C403.237 109.78 404.757 109.44 406.077 108.76C407.437 108.08 408.517 107.16 409.317 106C410.117 104.84 410.517 103.54 410.517 102.1H414.297C414.297 104.58 413.677 106.82 412.437 108.82C411.237 110.82 409.577 112.4 407.457 113.56C405.377 114.72 402.997 115.3 400.317 115.3ZM413.577 115C412.697 115 411.957 114.72 411.357 114.16C410.797 113.56 410.517 112.82 410.517 111.94V85.18C410.517 84.26 410.797 83.52 411.357 82.96C411.957 82.4 412.697 82.12 413.577 82.12C414.497 82.12 415.237 82.4 415.797 82.96C416.357 83.52 416.637 84.26 416.637 85.18V111.94C416.637 112.82 416.357 113.56 415.797 114.16C415.237 114.72 414.497 115 413.577 115ZM445.296 115.24C442.176 115.24 439.356 114.52 436.836 113.08C434.356 111.6 432.376 109.6 430.896 107.08C429.456 104.56 428.736 101.72 428.736 98.56C428.736 95.4 429.396 92.58 430.716 90.1C432.076 87.58 433.916 85.6 436.236 84.16C438.556 82.68 441.176 81.94 444.096 81.94C446.456 81.94 448.636 82.44 450.636 83.44C452.636 84.4 454.316 85.72 455.676 87.4V71.2C455.676 70.28 455.956 69.54 456.516 68.98C457.116 68.42 457.856 68.14 458.736 68.14C459.656 68.14 460.396 68.42 460.956 68.98C461.516 69.54 461.796 70.28 461.796 71.2V98.56C461.796 101.72 461.056 104.56 459.576 107.08C458.136 109.6 456.176 111.6 453.696 113.08C451.216 114.52 448.416 115.24 445.296 115.24ZM445.296 109.84C447.336 109.84 449.156 109.36 450.756 108.4C452.356 107.4 453.616 106.04 454.536 104.32C455.456 102.6 455.916 100.68 455.916 98.56C455.916 96.4 455.456 94.48 454.536 92.8C453.616 91.12 452.356 89.8 450.756 88.84C449.156 87.84 447.336 87.34 445.296 87.34C443.296 87.34 441.476 87.84 439.836 88.84C438.236 89.8 436.956 91.12 435.996 92.8C435.076 94.48 434.616 96.4 434.616 98.56C434.616 100.68 435.076 102.6 435.996 104.32C436.956 106.04 438.236 107.4 439.836 108.4C441.476 109.36 443.296 109.84 445.296 109.84ZM481.483 129.4C481.083 129.4 480.603 129.28 480.043 129.04C478.283 128.24 477.803 126.98 478.603 125.26L496.903 83.92C497.703 82.24 498.963 81.76 500.683 82.48C502.483 83.24 502.983 84.5 502.183 86.26L483.823 127.54C483.343 128.78 482.563 129.4 481.483 129.4ZM488.563 113.68C487.803 114 487.083 114.04 486.403 113.8C485.763 113.52 485.243 113 484.843 112.24L471.103 86.14C470.703 85.38 470.643 84.66 470.923 83.98C471.243 83.26 471.783 82.74 472.543 82.42C473.303 82.1 474.023 82.08 474.703 82.36C475.383 82.6 475.903 83.1 476.263 83.86L489.403 109.96C489.803 110.72 489.943 111.46 489.823 112.18C489.743 112.86 489.323 113.36 488.563 113.68ZM546.405 115.24C543.165 115.24 540.305 114.54 537.825 113.14C535.345 111.7 533.385 109.74 531.945 107.26C530.545 104.74 529.845 101.86 529.845 98.62C529.845 95.34 530.545 92.46 531.945 89.98C533.385 87.46 535.345 85.5 537.825 84.1C540.305 82.66 543.165 81.94 546.405 81.94C549.605 81.94 552.445 82.66 554.925 84.1C557.405 85.5 559.345 87.46 560.745 89.98C562.185 92.46 562.905 95.34 562.905 98.62C562.905 101.86 562.205 104.74 560.805 107.26C559.405 109.74 557.465 111.7 554.985 113.14C552.505 114.54 549.645 115.24 546.405 115.24ZM546.405 109.84C548.485 109.84 550.325 109.36 551.925 108.4C553.525 107.44 554.765 106.12 555.645 104.44C556.565 102.76 557.025 100.82 557.025 98.62C557.025 96.42 556.565 94.48 555.645 92.8C554.765 91.08 553.525 89.74 551.925 88.78C550.325 87.82 548.485 87.34 546.405 87.34C544.325 87.34 542.485 87.82 540.885 88.78C539.285 89.74 538.025 91.08 537.105 92.8C536.185 94.48 535.725 96.42 535.725 98.62C535.725 100.82 536.185 102.76 537.105 104.44C538.025 106.12 539.285 107.44 540.885 108.4C542.485 109.36 544.325 109.84 546.405 109.84ZM578.553 115C577.793 115 577.113 114.72 576.513 114.16C575.913 113.6 575.613 112.86 575.613 111.94V82.36C575.613 79.48 576.173 76.98 577.293 74.86C578.453 72.74 580.053 71.1 582.093 69.94C584.133 68.74 586.493 68.14 589.173 68.14C590.053 68.14 590.773 68.4 591.333 68.92C591.933 69.44 592.233 70.1 592.233 70.9C592.233 71.66 591.933 72.32 591.333 72.88C590.773 73.4 590.053 73.66 589.173 73.66C587.693 73.66 586.393 74 585.273 74.68C584.153 75.36 583.273 76.3 582.633 77.5C582.033 78.7 581.733 80.12 581.733 81.76V111.94C581.733 112.86 581.453 113.6 580.893 114.16C580.333 114.72 579.553 115 578.553 115ZM573.033 88.54C572.193 88.54 571.513 88.3 570.993 87.82C570.473 87.34 570.213 86.74 570.213 86.02C570.213 85.22 570.473 84.58 570.993 84.1C571.513 83.62 572.193 83.38 573.033 83.38H587.853C588.693 83.38 589.373 83.62 589.893 84.1C590.413 84.58 590.673 85.22 590.673 86.02C590.673 86.74 590.413 87.34 589.893 87.82C589.373 88.3 588.693 88.54 587.853 88.54H573.033ZM620.563 115C619.683 115 618.943 114.7 618.343 114.1C617.743 113.5 617.443 112.76 617.443 111.88V71.26C617.443 70.34 617.743 69.6 618.343 69.04C618.943 68.44 619.683 68.14 620.563 68.14H647.683C648.603 68.14 649.343 68.42 649.903 68.98C650.463 69.5 650.743 70.2 650.743 71.08C650.743 71.92 650.463 72.6 649.903 73.12C649.343 73.64 648.603 73.9 647.683 73.9H623.683V88.48H640.903C641.823 88.48 642.563 88.76 643.123 89.32C643.683 89.84 643.963 90.52 643.963 91.36C643.963 92.2 643.683 92.9 643.123 93.46C642.563 93.98 641.823 94.24 640.903 94.24H623.683V111.88C623.683 112.76 623.383 113.5 622.783 114.1C622.183 114.7 621.443 115 620.563 115ZM676.003 115.24C672.763 115.24 669.903 114.54 667.423 113.14C664.943 111.7 662.983 109.74 661.543 107.26C660.143 104.74 659.443 101.86 659.443 98.62C659.443 95.34 660.143 92.46 661.543 89.98C662.983 87.46 664.943 85.5 667.423 84.1C669.903 82.66 672.763 81.94 676.003 81.94C679.203 81.94 682.043 82.66 684.523 84.1C687.003 85.5 688.943 87.46 690.343 89.98C691.783 92.46 692.503 95.34 692.503 98.62C692.503 101.86 691.803 104.74 690.403 107.26C689.003 109.74 687.063 111.7 684.583 113.14C682.103 114.54 679.243 115.24 676.003 115.24ZM676.003 109.84C678.083 109.84 679.923 109.36 681.523 108.4C683.123 107.44 684.363 106.12 685.243 104.44C686.163 102.76 686.623 100.82 686.623 98.62C686.623 96.42 686.163 94.48 685.243 92.8C684.363 91.08 683.123 89.74 681.523 88.78C679.923 87.82 678.083 87.34 676.003 87.34C673.923 87.34 672.083 87.82 670.483 88.78C668.883 89.74 667.623 91.08 666.703 92.8C665.783 94.48 665.323 96.42 665.323 98.62C665.323 100.82 665.783 102.76 666.703 104.44C667.623 106.12 668.883 107.44 670.483 108.4C672.083 109.36 673.923 109.84 676.003 109.84ZM707.551 94.48C707.551 92.08 708.131 89.94 709.291 88.06C710.491 86.14 712.091 84.62 714.091 83.5C716.091 82.38 718.291 81.82 720.691 81.82C723.091 81.82 724.871 82.22 726.031 83.02C727.231 83.78 727.691 84.7 727.411 85.78C727.291 86.34 727.051 86.78 726.691 87.1C726.371 87.38 725.991 87.56 725.551 87.64C725.111 87.72 724.631 87.7 724.111 87.58C721.551 87.06 719.251 87.02 717.211 87.46C715.171 87.9 713.551 88.72 712.351 89.92C711.191 91.12 710.611 92.64 710.611 94.48H707.551ZM707.611 115C706.651 115 705.911 114.76 705.391 114.28C704.871 113.76 704.611 113 704.611 112V85.18C704.611 84.22 704.871 83.48 705.391 82.96C705.911 82.44 706.651 82.18 707.611 82.18C708.611 82.18 709.351 82.44 709.831 82.96C710.351 83.44 710.611 84.18 710.611 85.18V112C710.611 112.96 710.351 113.7 709.831 114.22C709.351 114.74 708.611 115 707.611 115ZM749.808 115.24C746.488 115.24 743.528 114.54 740.928 113.14C738.368 111.7 736.348 109.74 734.868 107.26C733.428 104.74 732.708 101.86 732.708 98.62C732.708 95.34 733.388 92.46 734.748 89.98C736.148 87.46 738.068 85.5 740.508 84.1C742.948 82.66 745.748 81.94 748.908 81.94C752.028 81.94 754.708 82.64 756.948 84.04C759.188 85.4 760.888 87.3 762.048 89.74C763.248 92.14 763.848 94.92 763.848 98.08C763.848 98.84 763.588 99.48 763.068 100C762.548 100.48 761.888 100.72 761.088 100.72H736.908V95.92H760.908L758.448 97.6C758.408 95.6 758.008 93.82 757.248 92.26C756.488 90.66 755.408 89.4 754.008 88.48C752.608 87.56 750.908 87.1 748.908 87.1C746.628 87.1 744.668 87.6 743.028 88.6C741.428 89.6 740.208 90.98 739.368 92.74C738.528 94.46 738.108 96.42 738.108 98.62C738.108 100.82 738.608 102.78 739.608 104.5C740.608 106.22 741.988 107.58 743.748 108.58C745.508 109.58 747.528 110.08 749.808 110.08C751.048 110.08 752.308 109.86 753.588 109.42C754.908 108.94 755.968 108.4 756.768 107.8C757.368 107.36 758.008 107.14 758.688 107.14C759.408 107.1 760.028 107.3 760.548 107.74C761.228 108.34 761.588 109 761.628 109.72C761.668 110.44 761.348 111.06 760.668 111.58C759.308 112.66 757.608 113.54 755.568 114.22C753.568 114.9 751.648 115.24 749.808 115.24ZM786.594 115.24C783.794 115.24 781.194 114.82 778.794 113.98C776.434 113.1 774.594 112 773.274 110.68C772.674 110.04 772.414 109.32 772.494 108.52C772.614 107.68 773.014 107 773.694 106.48C774.494 105.84 775.274 105.58 776.034 105.7C776.834 105.78 777.514 106.12 778.074 106.72C778.754 107.48 779.834 108.2 781.314 108.88C782.834 109.52 784.514 109.84 786.354 109.84C788.674 109.84 790.434 109.46 791.634 108.7C792.874 107.94 793.514 106.96 793.554 105.76C793.594 104.56 793.014 103.52 791.814 102.64C790.654 101.76 788.514 101.04 785.394 100.48C781.354 99.68 778.414 98.48 776.574 96.88C774.774 95.28 773.874 93.32 773.874 91C773.874 88.96 774.474 87.28 775.674 85.96C776.874 84.6 778.414 83.6 780.294 82.96C782.174 82.28 784.134 81.94 786.174 81.94C788.814 81.94 791.154 82.36 793.194 83.2C795.234 84.04 796.854 85.2 798.054 86.68C798.614 87.32 798.874 88 798.834 88.72C798.794 89.4 798.454 89.98 797.814 90.46C797.174 90.9 796.414 91.04 795.534 90.88C794.654 90.72 793.914 90.36 793.314 89.8C792.314 88.84 791.234 88.18 790.074 87.82C788.914 87.46 787.574 87.28 786.054 87.28C784.294 87.28 782.794 87.58 781.554 88.18C780.354 88.78 779.754 89.66 779.754 90.82C779.754 91.54 779.934 92.2 780.294 92.8C780.694 93.36 781.454 93.88 782.574 94.36C783.694 94.8 785.334 95.24 787.494 95.68C790.494 96.28 792.854 97.04 794.574 97.96C796.334 98.88 797.594 99.96 798.354 101.2C799.114 102.4 799.494 103.8 799.494 105.4C799.494 107.24 798.994 108.9 797.994 110.38C797.034 111.86 795.594 113.04 793.674 113.92C791.794 114.8 789.434 115.24 786.594 115.24ZM822.172 115C820.172 115 818.372 114.5 816.772 113.5C815.172 112.46 813.912 111.06 812.992 109.3C812.072 107.54 811.612 105.56 811.612 103.36V74.74C811.612 73.86 811.892 73.14 812.452 72.58C813.012 72.02 813.732 71.74 814.612 71.74C815.492 71.74 816.212 72.02 816.772 72.58C817.332 73.14 817.612 73.86 817.612 74.74V103.36C817.612 104.96 818.052 106.3 818.932 107.38C819.812 108.46 820.892 109 822.172 109H824.212C824.932 109 825.532 109.28 826.012 109.84C826.532 110.4 826.792 111.12 826.792 112C826.792 112.88 826.452 113.6 825.772 114.16C825.132 114.72 824.292 115 823.252 115H822.172ZM808.852 88.54C808.012 88.54 807.332 88.3 806.812 87.82C806.292 87.34 806.032 86.74 806.032 86.02C806.032 85.22 806.292 84.58 806.812 84.1C807.332 83.62 808.012 83.38 808.852 83.38H822.712C823.552 83.38 824.232 83.62 824.752 84.1C825.272 84.58 825.532 85.22 825.532 86.02C825.532 86.74 825.272 87.34 824.752 87.82C824.232 88.3 823.552 88.54 822.712 88.54H808.852ZM861.612 115C860.732 115 859.992 114.7 859.392 114.1C858.792 113.5 858.492 112.76 858.492 111.88V71.26C858.492 70.34 858.792 69.6 859.392 69.04C859.992 68.44 860.732 68.14 861.612 68.14H873.612C876.612 68.14 879.272 68.8 881.592 70.12C883.912 71.44 885.712 73.28 886.992 75.64C888.312 77.96 888.972 80.64 888.972 83.68C888.972 86.6 888.312 89.2 886.992 91.48C885.712 93.76 883.912 95.54 881.592 96.82C879.272 98.1 876.612 98.74 873.612 98.74H864.732V111.88C864.732 112.76 864.432 113.5 863.832 114.1C863.272 114.7 862.532 115 861.612 115ZM864.732 92.98H873.612C875.452 92.98 877.072 92.58 878.472 91.78C879.872 90.98 880.972 89.88 881.772 88.48C882.572 87.08 882.972 85.48 882.972 83.68C882.972 81.76 882.572 80.08 881.772 78.64C880.972 77.16 879.872 76 878.472 75.16C877.072 74.32 875.452 73.9 873.612 73.9H864.732V92.98ZM901.215 94.48C901.215 92.08 901.795 89.94 902.955 88.06C904.155 86.14 905.755 84.62 907.755 83.5C909.755 82.38 911.955 81.82 914.355 81.82C916.755 81.82 918.535 82.22 919.695 83.02C920.895 83.78 921.355 84.7 921.075 85.78C920.955 86.34 920.715 86.78 920.355 87.1C920.035 87.38 919.655 87.56 919.215 87.64C918.775 87.72 918.295 87.7 917.775 87.58C915.215 87.06 912.915 87.02 910.875 87.46C908.835 87.9 907.215 88.72 906.015 89.92C904.855 91.12 904.275 92.64 904.275 94.48H901.215ZM901.275 115C900.315 115 899.575 114.76 899.055 114.28C898.535 113.76 898.275 113 898.275 112V85.18C898.275 84.22 898.535 83.48 899.055 82.96C899.575 82.44 900.315 82.18 901.275 82.18C902.275 82.18 903.015 82.44 903.495 82.96C904.015 83.44 904.275 84.18 904.275 85.18V112C904.275 112.96 904.015 113.7 903.495 114.22C903.015 114.74 902.275 115 901.275 115ZM942.932 115.24C939.692 115.24 936.832 114.54 934.352 113.14C931.872 111.7 929.912 109.74 928.472 107.26C927.072 104.74 926.372 101.86 926.372 98.62C926.372 95.34 927.072 92.46 928.472 89.98C929.912 87.46 931.872 85.5 934.352 84.1C936.832 82.66 939.692 81.94 942.932 81.94C946.132 81.94 948.972 82.66 951.452 84.1C953.932 85.5 955.872 87.46 957.272 89.98C958.712 92.46 959.432 95.34 959.432 98.62C959.432 101.86 958.732 104.74 957.332 107.26C955.932 109.74 953.992 111.7 951.512 113.14C949.032 114.54 946.172 115.24 942.932 115.24ZM942.932 109.84C945.012 109.84 946.852 109.36 948.452 108.4C950.052 107.44 951.292 106.12 952.172 104.44C953.092 102.76 953.552 100.82 953.552 98.62C953.552 96.42 953.092 94.48 952.172 92.8C951.292 91.08 950.052 89.74 948.452 88.78C946.852 87.82 945.012 87.34 942.932 87.34C940.852 87.34 939.012 87.82 937.412 88.78C935.812 89.74 934.552 91.08 933.632 92.8C932.712 94.48 932.252 96.42 932.252 98.62C932.252 100.82 932.712 102.76 933.632 104.44C934.552 106.12 935.812 107.44 937.412 108.4C939.012 109.36 940.852 109.84 942.932 109.84ZM986.421 115.24C983.301 115.24 980.481 114.52 977.961 113.08C975.481 111.6 973.501 109.6 972.021 107.08C970.581 104.56 969.861 101.72 969.861 98.56C969.861 95.4 970.521 92.58 971.841 90.1C973.201 87.58 975.041 85.6 977.361 84.16C979.681 82.68 982.301 81.94 985.221 81.94C987.581 81.94 989.761 82.44 991.761 83.44C993.761 84.4 995.441 85.72 996.801 87.4V71.2C996.801 70.28 997.081 69.54 997.641 68.98C998.241 68.42 998.981 68.14 999.861 68.14C1000.78 68.14 1001.52 68.42 1002.08 68.98C1002.64 69.54 1002.92 70.28 1002.92 71.2V98.56C1002.92 101.72 1002.18 104.56 1000.7 107.08C999.261 109.6 997.301 111.6 994.821 113.08C992.341 114.52 989.541 115.24 986.421 115.24ZM986.421 109.84C988.461 109.84 990.281 109.36 991.881 108.4C993.481 107.4 994.741 106.04 995.661 104.32C996.581 102.6 997.041 100.68 997.041 98.56C997.041 96.4 996.581 94.48 995.661 92.8C994.741 91.12 993.481 89.8 991.881 88.84C990.281 87.84 988.461 87.34 986.421 87.34C984.421 87.34 982.601 87.84 980.961 88.84C979.361 89.8 978.081 91.12 977.121 92.8C976.201 94.48 975.741 96.4 975.741 98.56C975.741 100.68 976.201 102.6 977.121 104.32C978.081 106.04 979.361 107.4 980.961 108.4C982.601 109.36 984.421 109.84 986.421 109.84ZM1030.53 115.3C1027.77 115.3 1025.29 114.72 1023.09 113.56C1020.93 112.36 1019.21 110.62 1017.93 108.34C1016.69 106.06 1016.07 103.26 1016.07 99.94V85.18C1016.07 84.3 1016.35 83.58 1016.91 83.02C1017.51 82.42 1018.25 82.12 1019.13 82.12C1020.01 82.12 1020.73 82.42 1021.29 83.02C1021.89 83.58 1022.19 84.3 1022.19 85.18V99.94C1022.19 102.18 1022.61 104.04 1023.45 105.52C1024.29 106.96 1025.43 108.04 1026.87 108.76C1028.31 109.44 1029.93 109.78 1031.73 109.78C1033.45 109.78 1034.97 109.44 1036.29 108.76C1037.65 108.08 1038.73 107.16 1039.53 106C1040.33 104.84 1040.73 103.54 1040.73 102.1H1044.51C1044.51 104.58 1043.89 106.82 1042.65 108.82C1041.45 110.82 1039.79 112.4 1037.67 113.56C1035.59 114.72 1033.21 115.3 1030.53 115.3ZM1043.79 115C1042.91 115 1042.17 114.72 1041.57 114.16C1041.01 113.56 1040.73 112.82 1040.73 111.94V85.18C1040.73 84.26 1041.01 83.52 1041.57 82.96C1042.17 82.4 1042.91 82.12 1043.79 82.12C1044.71 82.12 1045.45 82.4 1046.01 82.96C1046.57 83.52 1046.85 84.26 1046.85 85.18V111.94C1046.85 112.82 1046.57 113.56 1046.01 114.16C1045.45 114.72 1044.71 115 1043.79 115ZM1075.51 115.24C1072.31 115.24 1069.45 114.52 1066.93 113.08C1064.45 111.6 1062.49 109.62 1061.05 107.14C1059.65 104.62 1058.95 101.78 1058.95 98.62C1058.95 95.38 1059.65 92.5 1061.05 89.98C1062.45 87.46 1064.37 85.5 1066.81 84.1C1069.25 82.66 1072.05 81.94 1075.21 81.94C1077.57 81.94 1079.73 82.4 1081.69 83.32C1083.65 84.2 1085.41 85.54 1086.97 87.34C1087.53 87.98 1087.73 88.64 1087.57 89.32C1087.41 90 1086.97 90.6 1086.25 91.12C1085.69 91.52 1085.07 91.66 1084.39 91.54C1083.71 91.38 1083.09 91.02 1082.53 90.46C1080.57 88.38 1078.13 87.34 1075.21 87.34C1073.17 87.34 1071.37 87.82 1069.81 88.78C1068.25 89.7 1067.03 91 1066.15 92.68C1065.27 94.36 1064.83 96.34 1064.83 98.62C1064.83 100.78 1065.27 102.7 1066.15 104.38C1067.07 106.06 1068.33 107.4 1069.93 108.4C1071.53 109.36 1073.39 109.84 1075.51 109.84C1076.91 109.84 1078.13 109.68 1079.17 109.36C1080.25 109 1081.23 108.46 1082.11 107.74C1082.75 107.22 1083.41 106.94 1084.09 106.9C1084.77 106.82 1085.37 107 1085.89 107.44C1086.57 108 1086.95 108.64 1087.03 109.36C1087.11 110.04 1086.87 110.66 1086.31 111.22C1083.43 113.9 1079.83 115.24 1075.51 115.24ZM1115.08 115.24C1111.76 115.24 1108.8 114.54 1106.2 113.14C1103.64 111.7 1101.62 109.74 1100.14 107.26C1098.7 104.74 1097.98 101.86 1097.98 98.62C1097.98 95.34 1098.66 92.46 1100.02 89.98C1101.42 87.46 1103.34 85.5 1105.78 84.1C1108.22 82.66 1111.02 81.94 1114.18 81.94C1117.3 81.94 1119.98 82.64 1122.22 84.04C1124.46 85.4 1126.16 87.3 1127.32 89.74C1128.52 92.14 1129.12 94.92 1129.12 98.08C1129.12 98.84 1128.86 99.48 1128.34 100C1127.82 100.48 1127.16 100.72 1126.36 100.72H1102.18V95.92H1126.18L1123.72 97.6C1123.68 95.6 1123.28 93.82 1122.52 92.26C1121.76 90.66 1120.68 89.4 1119.28 88.48C1117.88 87.56 1116.18 87.1 1114.18 87.1C1111.9 87.1 1109.94 87.6 1108.3 88.6C1106.7 89.6 1105.48 90.98 1104.64 92.74C1103.8 94.46 1103.38 96.42 1103.38 98.62C1103.38 100.82 1103.88 102.78 1104.88 104.5C1105.88 106.22 1107.26 107.58 1109.02 108.58C1110.78 109.58 1112.8 110.08 1115.08 110.08C1116.32 110.08 1117.58 109.86 1118.86 109.42C1120.18 108.94 1121.24 108.4 1122.04 107.8C1122.64 107.36 1123.28 107.14 1123.96 107.14C1124.68 107.1 1125.3 107.3 1125.82 107.74C1126.5 108.34 1126.86 109 1126.9 109.72C1126.94 110.44 1126.62 111.06 1125.94 111.58C1124.58 112.66 1122.88 113.54 1120.84 114.22C1118.84 114.9 1116.92 115.24 1115.08 115.24ZM3.48 188.12C2.6 188.12 1.88 187.82 1.32 187.22C0.72 186.62 0.42 185.9 0.42 185.06C0.42 184.18 0.72 183.44 1.32 182.84C1.88 182.28 2.6 182 3.48 182H31.62C32.42 182 33.12 182.28 33.72 182.84C34.32 183.44 34.62 184.18 34.62 185.06C34.62 185.9 34.32 186.62 33.72 187.22C33.12 187.82 32.42 188.12 31.62 188.12H3.48ZM34.605 188.12C33.725 188.12 33.005 187.82 32.445 187.22C31.845 186.62 31.545 185.9 31.545 185.06C31.545 184.18 31.845 183.44 32.445 182.84C33.005 182.28 33.725 182 34.605 182H62.745C63.545 182 64.245 182.28 64.845 182.84C65.445 183.44 65.745 184.18 65.745 185.06C65.745 185.9 65.445 186.62 64.845 187.22C64.245 187.82 63.545 188.12 62.745 188.12H34.605ZM65.73 188.12C64.85 188.12 64.13 187.82 63.57 187.22C62.97 186.62 62.67 185.9 62.67 185.06C62.67 184.18 62.97 183.44 63.57 182.84C64.13 182.28 64.85 182 65.73 182H93.87C94.67 182 95.37 182.28 95.97 182.84C96.57 183.44 96.87 184.18 96.87 185.06C96.87 185.9 96.57 186.62 95.97 187.22C95.37 187.82 94.67 188.12 93.87 188.12H65.73ZM96.855 188.12C95.975 188.12 95.255 187.82 94.695 187.22C94.095 186.62 93.795 185.9 93.795 185.06C93.795 184.18 94.095 183.44 94.695 182.84C95.255 182.28 95.975 182 96.855 182H124.995C125.795 182 126.495 182.28 127.095 182.84C127.695 183.44 127.995 184.18 127.995 185.06C127.995 185.9 127.695 186.62 127.095 187.22C126.495 187.82 125.795 188.12 124.995 188.12H96.855ZM127.98 188.12C127.1 188.12 126.38 187.82 125.82 187.22C125.22 186.62 124.92 185.9 124.92 185.06C124.92 184.18 125.22 183.44 125.82 182.84C126.38 182.28 127.1 182 127.98 182H156.12C156.92 182 157.62 182.28 158.22 182.84C158.82 183.44 159.12 184.18 159.12 185.06C159.12 185.9 158.82 186.62 158.22 187.22C157.62 187.82 156.92 188.12 156.12 188.12H127.98ZM159.105 188.12C158.225 188.12 157.505 187.82 156.945 187.22C156.345 186.62 156.045 185.9 156.045 185.06C156.045 184.18 156.345 183.44 156.945 182.84C157.505 182.28 158.225 182 159.105 182H187.245C188.045 182 188.745 182.28 189.345 182.84C189.945 183.44 190.245 184.18 190.245 185.06C190.245 185.9 189.945 186.62 189.345 187.22C188.745 187.82 188.045 188.12 187.245 188.12H159.105ZM190.23 188.12C189.35 188.12 188.63 187.82 188.07 187.22C187.47 186.62 187.17 185.9 187.17 185.06C187.17 184.18 187.47 183.44 188.07 182.84C188.63 182.28 189.35 182 190.23 182H218.37C219.17 182 219.87 182.28 220.47 182.84C221.07 183.44 221.37 184.18 221.37 185.06C221.37 185.9 221.07 186.62 220.47 187.22C219.87 187.82 219.17 188.12 218.37 188.12H190.23ZM221.355 188.12C220.475 188.12 219.755 187.82 219.195 187.22C218.595 186.62 218.295 185.9 218.295 185.06C218.295 184.18 218.595 183.44 219.195 182.84C219.755 182.28 220.475 182 221.355 182H249.495C250.295 182 250.995 182.28 251.595 182.84C252.195 183.44 252.495 184.18 252.495 185.06C252.495 185.9 252.195 186.62 251.595 187.22C250.995 187.82 250.295 188.12 249.495 188.12H221.355ZM252.48 188.12C251.6 188.12 250.88 187.82 250.32 187.22C249.72 186.62 249.42 185.9 249.42 185.06C249.42 184.18 249.72 183.44 250.32 182.84C250.88 182.28 251.6 182 252.48 182H280.62C281.42 182 282.12 182.28 282.72 182.84C283.32 183.44 283.62 184.18 283.62 185.06C283.62 185.9 283.32 186.62 282.72 187.22C282.12 187.82 281.42 188.12 280.62 188.12H252.48ZM283.605 188.12C282.725 188.12 282.005 187.82 281.445 187.22C280.845 186.62 280.545 185.9 280.545 185.06C280.545 184.18 280.845 183.44 281.445 182.84C282.005 182.28 282.725 182 283.605 182H311.745C312.545 182 313.245 182.28 313.845 182.84C314.445 183.44 314.745 184.18 314.745 185.06C314.745 185.9 314.445 186.62 313.845 187.22C313.245 187.82 312.545 188.12 311.745 188.12H283.605ZM314.73 188.12C313.85 188.12 313.13 187.82 312.57 187.22C311.97 186.62 311.67 185.9 311.67 185.06C311.67 184.18 311.97 183.44 312.57 182.84C313.13 182.28 313.85 182 314.73 182H342.87C343.67 182 344.37 182.28 344.97 182.84C345.57 183.44 345.87 184.18 345.87 185.06C345.87 185.9 345.57 186.62 344.97 187.22C344.37 187.82 343.67 188.12 342.87 188.12H314.73ZM345.855 188.12C344.975 188.12 344.255 187.82 343.695 187.22C343.095 186.62 342.795 185.9 342.795 185.06C342.795 184.18 343.095 183.44 343.695 182.84C344.255 182.28 344.975 182 345.855 182H373.995C374.795 182 375.495 182.28 376.095 182.84C376.695 183.44 376.995 184.18 376.995 185.06C376.995 185.9 376.695 186.62 376.095 187.22C375.495 187.82 374.795 188.12 373.995 188.12H345.855ZM376.98 188.12C376.1 188.12 375.38 187.82 374.82 187.22C374.22 186.62 373.92 185.9 373.92 185.06C373.92 184.18 374.22 183.44 374.82 182.84C375.38 182.28 376.1 182 376.98 182H405.12C405.92 182 406.62 182.28 407.22 182.84C407.82 183.44 408.12 184.18 408.12 185.06C408.12 185.9 407.82 186.62 407.22 187.22C406.62 187.82 405.92 188.12 405.12 188.12H376.98ZM408.105 188.12C407.225 188.12 406.505 187.82 405.945 187.22C405.345 186.62 405.045 185.9 405.045 185.06C405.045 184.18 405.345 183.44 405.945 182.84C406.505 182.28 407.225 182 408.105 182H436.245C437.045 182 437.745 182.28 438.345 182.84C438.945 183.44 439.245 184.18 439.245 185.06C439.245 185.9 438.945 186.62 438.345 187.22C437.745 187.82 437.045 188.12 436.245 188.12H408.105ZM439.23 188.12C438.35 188.12 437.63 187.82 437.07 187.22C436.47 186.62 436.17 185.9 436.17 185.06C436.17 184.18 436.47 183.44 437.07 182.84C437.63 182.28 438.35 182 439.23 182H467.37C468.17 182 468.87 182.28 469.47 182.84C470.07 183.44 470.37 184.18 470.37 185.06C470.37 185.9 470.07 186.62 469.47 187.22C468.87 187.82 468.17 188.12 467.37 188.12H439.23ZM470.355 188.12C469.475 188.12 468.755 187.82 468.195 187.22C467.595 186.62 467.295 185.9 467.295 185.06C467.295 184.18 467.595 183.44 468.195 182.84C468.755 182.28 469.475 182 470.355 182H498.495C499.295 182 499.995 182.28 500.595 182.84C501.195 183.44 501.495 184.18 501.495 185.06C501.495 185.9 501.195 186.62 500.595 187.22C499.995 187.82 499.295 188.12 498.495 188.12H470.355ZM501.48 188.12C500.6 188.12 499.88 187.82 499.32 187.22C498.72 186.62 498.42 185.9 498.42 185.06C498.42 184.18 498.72 183.44 499.32 182.84C499.88 182.28 500.6 182 501.48 182H529.62C530.42 182 531.12 182.28 531.72 182.84C532.32 183.44 532.62 184.18 532.62 185.06C532.62 185.9 532.32 186.62 531.72 187.22C531.12 187.82 530.42 188.12 529.62 188.12H501.48ZM532.605 188.12C531.725 188.12 531.005 187.82 530.445 187.22C529.845 186.62 529.545 185.9 529.545 185.06C529.545 184.18 529.845 183.44 530.445 182.84C531.005 182.28 531.725 182 532.605 182H560.745C561.545 182 562.245 182.28 562.845 182.84C563.445 183.44 563.745 184.18 563.745 185.06C563.745 185.9 563.445 186.62 562.845 187.22C562.245 187.82 561.545 188.12 560.745 188.12H532.605ZM563.73 188.12C562.85 188.12 562.13 187.82 561.57 187.22C560.97 186.62 560.67 185.9 560.67 185.06C560.67 184.18 560.97 183.44 561.57 182.84C562.13 182.28 562.85 182 563.73 182H591.87C592.67 182 593.37 182.28 593.97 182.84C594.57 183.44 594.87 184.18 594.87 185.06C594.87 185.9 594.57 186.62 593.97 187.22C593.37 187.82 592.67 188.12 591.87 188.12H563.73ZM594.855 188.12C593.975 188.12 593.255 187.82 592.695 187.22C592.095 186.62 591.795 185.9 591.795 185.06C591.795 184.18 592.095 183.44 592.695 182.84C593.255 182.28 593.975 182 594.855 182H622.995C623.795 182 624.495 182.28 625.095 182.84C625.695 183.44 625.995 184.18 625.995 185.06C625.995 185.9 625.695 186.62 625.095 187.22C624.495 187.82 623.795 188.12 622.995 188.12H594.855ZM625.98 188.12C625.1 188.12 624.38 187.82 623.82 187.22C623.22 186.62 622.92 185.9 622.92 185.06C622.92 184.18 623.22 183.44 623.82 182.84C624.38 182.28 625.1 182 625.98 182H654.12C654.92 182 655.62 182.28 656.22 182.84C656.82 183.44 657.12 184.18 657.12 185.06C657.12 185.9 656.82 186.62 656.22 187.22C655.62 187.82 654.92 188.12 654.12 188.12H625.98ZM657.105 188.12C656.225 188.12 655.505 187.82 654.945 187.22C654.345 186.62 654.045 185.9 654.045 185.06C654.045 184.18 654.345 183.44 654.945 182.84C655.505 182.28 656.225 182 657.105 182H685.245C686.045 182 686.745 182.28 687.345 182.84C687.945 183.44 688.245 184.18 688.245 185.06C688.245 185.9 687.945 186.62 687.345 187.22C686.745 187.82 686.045 188.12 685.245 188.12H657.105ZM688.23 188.12C687.35 188.12 686.63 187.82 686.07 187.22C685.47 186.62 685.17 185.9 685.17 185.06C685.17 184.18 685.47 183.44 686.07 182.84C686.63 182.28 687.35 182 688.23 182H716.37C717.17 182 717.87 182.28 718.47 182.84C719.07 183.44 719.37 184.18 719.37 185.06C719.37 185.9 719.07 186.62 718.47 187.22C717.87 187.82 717.17 188.12 716.37 188.12H688.23ZM719.355 188.12C718.475 188.12 717.755 187.82 717.195 187.22C716.595 186.62 716.295 185.9 716.295 185.06C716.295 184.18 716.595 183.44 717.195 182.84C717.755 182.28 718.475 182 719.355 182H747.495C748.295 182 748.995 182.28 749.595 182.84C750.195 183.44 750.495 184.18 750.495 185.06C750.495 185.9 750.195 186.62 749.595 187.22C748.995 187.82 748.295 188.12 747.495 188.12H719.355ZM750.48 188.12C749.6 188.12 748.88 187.82 748.32 187.22C747.72 186.62 747.42 185.9 747.42 185.06C747.42 184.18 747.72 183.44 748.32 182.84C748.88 182.28 749.6 182 750.48 182H778.62C779.42 182 780.12 182.28 780.72 182.84C781.32 183.44 781.62 184.18 781.62 185.06C781.62 185.9 781.32 186.62 780.72 187.22C780.12 187.82 779.42 188.12 778.62 188.12H750.48ZM781.605 188.12C780.725 188.12 780.005 187.82 779.445 187.22C778.845 186.62 778.545 185.9 778.545 185.06C778.545 184.18 778.845 183.44 779.445 182.84C780.005 182.28 780.725 182 781.605 182H809.745C810.545 182 811.245 182.28 811.845 182.84C812.445 183.44 812.745 184.18 812.745 185.06C812.745 185.9 812.445 186.62 811.845 187.22C811.245 187.82 810.545 188.12 809.745 188.12H781.605ZM812.73 188.12C811.85 188.12 811.13 187.82 810.57 187.22C809.97 186.62 809.67 185.9 809.67 185.06C809.67 184.18 809.97 183.44 810.57 182.84C811.13 182.28 811.85 182 812.73 182H840.87C841.67 182 842.37 182.28 842.97 182.84C843.57 183.44 843.87 184.18 843.87 185.06C843.87 185.9 843.57 186.62 842.97 187.22C842.37 187.82 841.67 188.12 840.87 188.12H812.73ZM843.855 188.12C842.975 188.12 842.255 187.82 841.695 187.22C841.095 186.62 840.795 185.9 840.795 185.06C840.795 184.18 841.095 183.44 841.695 182.84C842.255 182.28 842.975 182 843.855 182H871.995C872.795 182 873.495 182.28 874.095 182.84C874.695 183.44 874.995 184.18 874.995 185.06C874.995 185.9 874.695 186.62 874.095 187.22C873.495 187.82 872.795 188.12 871.995 188.12H843.855ZM874.98 188.12C874.1 188.12 873.38 187.82 872.82 187.22C872.22 186.62 871.92 185.9 871.92 185.06C871.92 184.18 872.22 183.44 872.82 182.84C873.38 182.28 874.1 182 874.98 182H903.12C903.92 182 904.62 182.28 905.22 182.84C905.82 183.44 906.12 184.18 906.12 185.06C906.12 185.9 905.82 186.62 905.22 187.22C904.62 187.82 903.92 188.12 903.12 188.12H874.98ZM906.105 188.12C905.225 188.12 904.505 187.82 903.945 187.22C903.345 186.62 903.045 185.9 903.045 185.06C903.045 184.18 903.345 183.44 903.945 182.84C904.505 182.28 905.225 182 906.105 182H934.245C935.045 182 935.745 182.28 936.345 182.84C936.945 183.44 937.245 184.18 937.245 185.06C937.245 185.9 936.945 186.62 936.345 187.22C935.745 187.82 935.045 188.12 934.245 188.12H906.105ZM937.23 188.12C936.35 188.12 935.63 187.82 935.07 187.22C934.47 186.62 934.17 185.9 934.17 185.06C934.17 184.18 934.47 183.44 935.07 182.84C935.63 182.28 936.35 182 937.23 182H965.37C966.17 182 966.87 182.28 967.47 182.84C968.07 183.44 968.37 184.18 968.37 185.06C968.37 185.9 968.07 186.62 967.47 187.22C966.87 187.82 966.17 188.12 965.37 188.12H937.23ZM968.355 188.12C967.475 188.12 966.755 187.82 966.195 187.22C965.595 186.62 965.295 185.9 965.295 185.06C965.295 184.18 965.595 183.44 966.195 182.84C966.755 182.28 967.475 182 968.355 182H996.495C997.295 182 997.995 182.28 998.595 182.84C999.195 183.44 999.495 184.18 999.495 185.06C999.495 185.9 999.195 186.62 998.595 187.22C997.995 187.82 997.295 188.12 996.495 188.12H968.355ZM999.48 188.12C998.6 188.12 997.88 187.82 997.32 187.22C996.72 186.62 996.42 185.9 996.42 185.06C996.42 184.18 996.72 183.44 997.32 182.84C997.88 182.28 998.6 182 999.48 182H1027.62C1028.42 182 1029.12 182.28 1029.72 182.84C1030.32 183.44 1030.62 184.18 1030.62 185.06C1030.62 185.9 1030.32 186.62 1029.72 187.22C1029.12 187.82 1028.42 188.12 1027.62 188.12H999.48ZM1030.61 188.12C1029.72 188.12 1029 187.82 1028.44 187.22C1027.84 186.62 1027.54 185.9 1027.54 185.06C1027.54 184.18 1027.84 183.44 1028.44 182.84C1029 182.28 1029.72 182 1030.61 182H1058.75C1059.55 182 1060.25 182.28 1060.85 182.84C1061.45 183.44 1061.75 184.18 1061.75 185.06C1061.75 185.9 1061.45 186.62 1060.85 187.22C1060.25 187.82 1059.55 188.12 1058.75 188.12H1030.61ZM1061.73 188.12C1060.85 188.12 1060.13 187.82 1059.57 187.22C1058.97 186.62 1058.67 185.9 1058.67 185.06C1058.67 184.18 1058.97 183.44 1059.57 182.84C1060.13 182.28 1060.85 182 1061.73 182H1089.87C1090.67 182 1091.37 182.28 1091.97 182.84C1092.57 183.44 1092.87 184.18 1092.87 185.06C1092.87 185.9 1092.57 186.62 1091.97 187.22C1091.37 187.82 1090.67 188.12 1089.87 188.12H1061.73ZM1092.86 188.12C1091.97 188.12 1091.25 187.82 1090.69 187.22C1090.09 186.62 1089.79 185.9 1089.79 185.06C1089.79 184.18 1090.09 183.44 1090.69 182.84C1091.25 182.28 1091.97 182 1092.86 182H1121C1121.8 182 1122.5 182.28 1123.1 182.84C1123.7 183.44 1124 184.18 1124 185.06C1124 185.9 1123.7 186.62 1123.1 187.22C1122.5 187.82 1121.8 188.12 1121 188.12H1092.86ZM1123.98 188.12C1123.1 188.12 1122.38 187.82 1121.82 187.22C1121.22 186.62 1120.92 185.9 1120.92 185.06C1120.92 184.18 1121.22 183.44 1121.82 182.84C1122.38 182.28 1123.1 182 1123.98 182H1152.12C1152.92 182 1153.62 182.28 1154.22 182.84C1154.82 183.44 1155.12 184.18 1155.12 185.06C1155.12 185.9 1154.82 186.62 1154.22 187.22C1153.62 187.82 1152.92 188.12 1152.12 188.12H1123.98ZM1155.11 188.12C1154.22 188.12 1153.5 187.82 1152.94 187.22C1152.34 186.62 1152.04 185.9 1152.04 185.06C1152.04 184.18 1152.34 183.44 1152.94 182.84C1153.5 182.28 1154.22 182 1155.11 182H1183.25C1184.05 182 1184.75 182.28 1185.35 182.84C1185.95 183.44 1186.25 184.18 1186.25 185.06C1186.25 185.9 1185.95 186.62 1185.35 187.22C1184.75 187.82 1184.05 188.12 1183.25 188.12H1155.11Z" fill="black"/>
</svg>
