<svg width="1210" height="249" viewBox="0 0 1210 249" fill="none" xmlns="http://www.w3.org/2000/svg">
<path d="M98.0638 34.62C97.1838 34.62 96.4438 34.34 95.8438 33.78C95.2838 33.22 95.0038 32.5 95.0038 31.62C95.0038 30.7 95.2838 29.96 95.8438 29.4C96.4438 28.84 97.1838 28.56 98.0638 28.56H111.444C112.324 28.56 113.044 28.84 113.604 29.4C114.164 29.96 114.444 30.7 114.444 31.62C114.444 32.5 114.164 33.22 113.604 33.78C113.044 34.34 112.324 34.62 111.444 34.62H98.0638ZM166.859 48.6C163.619 48.6 160.579 48 157.739 46.8C154.939 45.56 152.479 43.86 150.359 41.7C148.279 39.5 146.639 36.94 145.439 34.02C144.279 31.1 143.699 27.94 143.699 24.54C143.699 21.18 144.279 18.06 145.439 15.18C146.639 12.26 148.279 9.72 150.359 7.56C152.479 5.36 154.939 3.64 157.739 2.4C160.539 1.16 163.579 0.539999 166.859 0.539999C169.939 0.539999 172.579 0.939999 174.779 1.74C177.019 2.54 179.259 3.86 181.499 5.7C181.819 5.94 182.059 6.2 182.219 6.48C182.419 6.72 182.539 6.98 182.579 7.26C182.659 7.5 182.699 7.8 182.699 8.16C182.699 8.92 182.419 9.56 181.859 10.08C181.339 10.56 180.699 10.84 179.939 10.92C179.179 10.96 178.439 10.7 177.719 10.14C176.239 8.86 174.699 7.88 173.099 7.2C171.539 6.52 169.459 6.18 166.859 6.18C164.499 6.18 162.279 6.66 160.199 7.62C158.119 8.58 156.279 9.9 154.679 11.58C153.119 13.26 151.899 15.22 151.019 17.46C150.139 19.66 149.699 22.02 149.699 24.54C149.699 27.1 150.139 29.5 151.019 31.74C151.899 33.94 153.119 35.88 154.679 37.56C156.279 39.24 158.119 40.56 160.199 41.52C162.279 42.44 164.499 42.9 166.859 42.9C168.899 42.9 170.819 42.56 172.619 41.88C174.459 41.16 176.219 40.18 177.899 38.94C178.619 38.42 179.319 38.2 179.999 38.28C180.719 38.32 181.319 38.6 181.799 39.12C182.279 39.6 182.519 40.28 182.519 41.16C182.519 41.56 182.439 41.96 182.279 42.36C182.119 42.72 181.879 43.06 181.559 43.38C179.399 45.1 177.079 46.4 174.599 47.28C172.159 48.16 169.579 48.6 166.859 48.6ZM206.178 48.24C203.258 48.24 200.638 47.52 198.318 46.08C195.998 44.6 194.158 42.62 192.798 40.14C191.478 37.62 190.818 34.78 190.818 31.62C190.818 28.46 191.538 25.62 192.978 23.1C194.458 20.58 196.438 18.6 198.918 17.16C201.438 15.68 204.258 14.94 207.378 14.94C210.498 14.94 213.298 15.68 215.778 17.16C218.258 18.6 220.218 20.58 221.658 23.1C223.138 25.62 223.878 28.46 223.878 31.62H221.538C221.538 34.78 220.858 37.62 219.498 40.14C218.178 42.62 216.358 44.6 214.038 46.08C211.718 47.52 209.098 48.24 206.178 48.24ZM207.378 42.84C209.418 42.84 211.238 42.36 212.838 41.4C214.438 40.4 215.698 39.06 216.618 37.38C217.538 35.66 217.998 33.74 217.998 31.62C217.998 29.46 217.538 27.54 216.618 25.86C215.698 24.14 214.438 22.8 212.838 21.84C211.238 20.84 209.418 20.34 207.378 20.34C205.378 20.34 203.558 20.84 201.918 21.84C200.318 22.8 199.038 24.14 198.078 25.86C197.158 27.54 196.698 29.46 196.698 31.62C196.698 33.74 197.158 35.66 198.078 37.38C199.038 39.06 200.318 40.4 201.918 41.4C203.558 42.36 205.378 42.84 207.378 42.84ZM220.818 48.06C219.938 48.06 219.198 47.78 218.598 47.22C218.038 46.62 217.758 45.88 217.758 45V35.82L218.898 29.46L223.878 31.62V45C223.878 45.88 223.578 46.62 222.978 47.22C222.418 47.78 221.698 48.06 220.818 48.06ZM247.926 48C245.926 48 244.126 47.5 242.526 46.5C240.926 45.46 239.666 44.06 238.746 42.3C237.826 40.54 237.366 38.56 237.366 36.36V7.74C237.366 6.86 237.646 6.14 238.206 5.58C238.766 5.02 239.486 4.74 240.366 4.74C241.246 4.74 241.966 5.02 242.526 5.58C243.086 6.14 243.366 6.86 243.366 7.74V36.36C243.366 37.96 243.806 39.3 244.686 40.38C245.566 41.46 246.646 42 247.926 42H249.966C250.686 42 251.286 42.28 251.766 42.84C252.286 43.4 252.546 44.12 252.546 45C252.546 45.88 252.206 46.6 251.526 47.16C250.886 47.72 250.046 48 249.006 48H247.926ZM234.606 21.54C233.766 21.54 233.086 21.3 232.566 20.82C232.046 20.34 231.786 19.74 231.786 19.02C231.786 18.22 232.046 17.58 232.566 17.1C233.086 16.62 233.766 16.38 234.606 16.38H248.466C249.306 16.38 249.986 16.62 250.506 17.1C251.026 17.58 251.286 18.22 251.286 19.02C251.286 19.74 251.026 20.34 250.506 20.82C249.986 21.3 249.306 21.54 248.466 21.54H234.606ZM276.748 48.24C273.828 48.24 271.208 47.52 268.888 46.08C266.568 44.6 264.728 42.62 263.368 40.14C262.048 37.62 261.388 34.78 261.388 31.62C261.388 28.46 262.108 25.62 263.548 23.1C265.028 20.58 267.008 18.6 269.488 17.16C272.008 15.68 274.828 14.94 277.948 14.94C281.068 14.94 283.868 15.68 286.348 17.16C288.828 18.6 290.788 20.58 292.228 23.1C293.708 25.62 294.448 28.46 294.448 31.62H292.108C292.108 34.78 291.428 37.62 290.068 40.14C288.748 42.62 286.928 44.6 284.608 46.08C282.288 47.52 279.668 48.24 276.748 48.24ZM277.948 42.84C279.988 42.84 281.808 42.36 283.408 41.4C285.008 40.4 286.268 39.06 287.188 37.38C288.108 35.66 288.568 33.74 288.568 31.62C288.568 29.46 288.108 27.54 287.188 25.86C286.268 24.14 285.008 22.8 283.408 21.84C281.808 20.84 279.988 20.34 277.948 20.34C275.948 20.34 274.128 20.84 272.488 21.84C270.888 22.8 269.608 24.14 268.648 25.86C267.728 27.54 267.268 29.46 267.268 31.62C267.268 33.74 267.728 35.66 268.648 37.38C269.608 39.06 270.888 40.4 272.488 41.4C274.128 42.36 275.948 42.84 277.948 42.84ZM291.388 48.06C290.508 48.06 289.768 47.78 289.168 47.22C288.608 46.62 288.328 45.88 288.328 45V35.82L289.468 29.46L294.448 31.62V45C294.448 45.88 294.148 46.62 293.548 47.22C292.988 47.78 292.268 48.06 291.388 48.06ZM314.356 48C312.596 48 311.036 47.52 309.676 46.56C308.316 45.6 307.256 44.3 306.496 42.66C305.736 40.98 305.356 39.06 305.356 36.9V4.14C305.356 3.26 305.636 2.54 306.196 1.98C306.756 1.42 307.476 1.14 308.356 1.14C309.236 1.14 309.956 1.42 310.516 1.98C311.076 2.54 311.356 3.26 311.356 4.14V36.9C311.356 38.38 311.636 39.6 312.196 40.56C312.756 41.52 313.476 42 314.356 42H315.856C316.656 42 317.296 42.28 317.776 42.84C318.296 43.4 318.556 44.12 318.556 45C318.556 45.88 318.176 46.6 317.416 47.16C316.656 47.72 315.676 48 314.476 48H314.356ZM340.608 48.24C337.368 48.24 334.508 47.54 332.028 46.14C329.548 44.7 327.588 42.74 326.148 40.26C324.748 37.74 324.048 34.86 324.048 31.62C324.048 28.34 324.748 25.46 326.148 22.98C327.588 20.46 329.548 18.5 332.028 17.1C334.508 15.66 337.368 14.94 340.608 14.94C343.808 14.94 346.648 15.66 349.128 17.1C351.608 18.5 353.548 20.46 354.948 22.98C356.388 25.46 357.108 28.34 357.108 31.62C357.108 34.86 356.408 37.74 355.008 40.26C353.608 42.74 351.668 44.7 349.188 46.14C346.708 47.54 343.848 48.24 340.608 48.24ZM340.608 42.84C342.688 42.84 344.528 42.36 346.128 41.4C347.728 40.44 348.968 39.12 349.848 37.44C350.768 35.76 351.228 33.82 351.228 31.62C351.228 29.42 350.768 27.48 349.848 25.8C348.968 24.08 347.728 22.74 346.128 21.78C344.528 20.82 342.688 20.34 340.608 20.34C338.528 20.34 336.688 20.82 335.088 21.78C333.488 22.74 332.228 24.08 331.308 25.8C330.388 27.48 329.928 29.42 329.928 31.62C329.928 33.82 330.388 35.76 331.308 37.44C332.228 39.12 333.488 40.44 335.088 41.4C336.688 42.36 338.528 42.84 340.608 42.84ZM382.896 48.24C379.896 48.24 377.236 47.54 374.916 46.14C372.636 44.7 370.836 42.74 369.516 40.26C368.196 37.74 367.536 34.86 367.536 31.62C367.536 28.34 368.236 25.46 369.636 22.98C371.076 20.46 373.036 18.5 375.516 17.1C377.996 15.66 380.856 14.94 384.096 14.94C387.296 14.94 390.136 15.66 392.616 17.1C395.096 18.5 397.036 20.46 398.436 22.98C399.876 25.46 400.596 28.34 400.596 31.62H397.056C397.056 34.86 396.436 37.74 395.196 40.26C393.996 42.74 392.336 44.7 390.216 46.14C388.096 47.54 385.656 48.24 382.896 48.24ZM383.976 61.62C381.136 61.62 378.476 61.06 375.996 59.94C373.516 58.82 371.416 57.18 369.696 55.02C369.176 54.34 368.976 53.64 369.096 52.92C369.256 52.2 369.656 51.62 370.296 51.18C371.016 50.7 371.756 50.54 372.516 50.7C373.316 50.86 373.956 51.26 374.436 51.9C375.516 53.26 376.876 54.32 378.516 55.08C380.156 55.84 382.016 56.22 384.096 56.22C386.016 56.22 387.776 55.76 389.376 54.84C391.016 53.92 392.316 52.56 393.276 50.76C394.236 48.96 394.716 46.76 394.716 44.16V35.64L396.696 30.36L400.596 31.62V44.58C400.596 47.74 399.896 50.6 398.496 53.16C397.096 55.76 395.136 57.82 392.616 59.34C390.136 60.86 387.256 61.62 383.976 61.62ZM384.096 42.84C386.176 42.84 388.016 42.36 389.616 41.4C391.216 40.44 392.456 39.12 393.336 37.44C394.256 35.76 394.716 33.82 394.716 31.62C394.716 29.42 394.256 27.48 393.336 25.8C392.456 24.08 391.216 22.74 389.616 21.78C388.016 20.82 386.176 20.34 384.096 20.34C382.016 20.34 380.176 20.82 378.576 21.78C376.976 22.74 375.716 24.08 374.796 25.8C373.876 27.48 373.416 29.42 373.416 31.62C373.416 33.82 373.876 35.76 374.796 37.44C375.716 39.12 376.976 40.44 378.576 41.4C380.176 42.36 382.016 42.84 384.096 42.84ZM426.505 48.3C423.745 48.3 421.265 47.72 419.065 46.56C416.905 45.36 415.185 43.62 413.905 41.34C412.665 39.06 412.045 36.26 412.045 32.94V18.18C412.045 17.3 412.325 16.58 412.885 16.02C413.485 15.42 414.225 15.12 415.105 15.12C415.985 15.12 416.705 15.42 417.265 16.02C417.865 16.58 418.165 17.3 418.165 18.18V32.94C418.165 35.18 418.585 37.04 419.425 38.52C420.265 39.96 421.405 41.04 422.845 41.76C424.285 42.44 425.905 42.78 427.705 42.78C429.425 42.78 430.945 42.44 432.265 41.76C433.625 41.08 434.705 40.16 435.505 39C436.305 37.84 436.705 36.54 436.705 35.1H440.485C440.485 37.58 439.865 39.82 438.625 41.82C437.425 43.82 435.765 45.4 433.645 46.56C431.565 47.72 429.185 48.3 426.505 48.3ZM439.765 48C438.885 48 438.145 47.72 437.545 47.16C436.985 46.56 436.705 45.82 436.705 44.94V18.18C436.705 17.26 436.985 16.52 437.545 15.96C438.145 15.4 438.885 15.12 439.765 15.12C440.685 15.12 441.425 15.4 441.985 15.96C442.545 16.52 442.825 17.26 442.825 18.18V44.94C442.825 45.82 442.545 46.56 441.985 47.16C441.425 47.72 440.685 48 439.765 48ZM460.263 48C459.383 48 458.643 47.72 458.043 47.16C457.483 46.56 457.203 45.82 457.203 44.94V18.24C457.203 17.32 457.483 16.58 458.043 16.02C458.643 15.46 459.383 15.18 460.263 15.18C461.183 15.18 461.923 15.46 462.483 16.02C463.043 16.58 463.323 17.32 463.323 18.24V44.94C463.323 45.82 463.043 46.56 462.483 47.16C461.923 47.72 461.183 48 460.263 48ZM460.263 9.84C459.183 9.84 458.243 9.46 457.443 8.7C456.683 7.9 456.303 6.96 456.303 5.88C456.303 4.8 456.683 3.88 457.443 3.12C458.243 2.32 459.183 1.92 460.263 1.92C461.343 1.92 462.263 2.32 463.023 3.12C463.823 3.88 464.223 4.8 464.223 5.88C464.223 6.96 463.823 7.9 463.023 8.7C462.263 9.46 461.343 9.84 460.263 9.84ZM505.429 48.06C504.549 48.06 503.809 47.78 503.209 47.22C502.649 46.62 502.369 45.88 502.369 45V30.24C502.369 27.96 501.949 26.1 501.109 24.66C500.269 23.22 499.129 22.16 497.689 21.48C496.289 20.76 494.669 20.4 492.829 20.4C491.149 20.4 489.629 20.74 488.269 21.42C486.909 22.1 485.829 23.02 485.029 24.18C484.229 25.3 483.829 26.6 483.829 28.08H480.049C480.049 25.56 480.649 23.32 481.849 21.36C483.089 19.36 484.769 17.78 486.889 16.62C489.009 15.46 491.389 14.88 494.029 14.88C496.789 14.88 499.249 15.48 501.409 16.68C503.609 17.84 505.329 19.56 506.569 21.84C507.849 24.12 508.489 26.92 508.489 30.24V45C508.489 45.88 508.189 46.62 507.589 47.22C507.029 47.78 506.309 48.06 505.429 48.06ZM480.769 48.06C479.889 48.06 479.149 47.78 478.549 47.22C477.989 46.62 477.709 45.88 477.709 45V18.24C477.709 17.32 477.989 16.58 478.549 16.02C479.149 15.46 479.889 15.18 480.769 15.18C481.689 15.18 482.429 15.46 482.989 16.02C483.549 16.58 483.829 17.32 483.829 18.24V45C483.829 45.88 483.549 46.62 482.989 47.22C482.429 47.78 481.689 48.06 480.769 48.06ZM535.287 48.24C532.287 48.24 529.627 47.54 527.307 46.14C525.027 44.7 523.227 42.74 521.907 40.26C520.587 37.74 519.927 34.86 519.927 31.62C519.927 28.34 520.627 25.46 522.027 22.98C523.467 20.46 525.427 18.5 527.907 17.1C530.387 15.66 533.247 14.94 536.487 14.94C539.687 14.94 542.527 15.66 545.007 17.1C547.487 18.5 549.427 20.46 550.827 22.98C552.267 25.46 552.987 28.34 552.987 31.62H549.447C549.447 34.86 548.827 37.74 547.587 40.26C546.387 42.74 544.727 44.7 542.607 46.14C540.487 47.54 538.047 48.24 535.287 48.24ZM536.367 61.62C533.527 61.62 530.867 61.06 528.387 59.94C525.907 58.82 523.807 57.18 522.087 55.02C521.567 54.34 521.367 53.64 521.487 52.92C521.647 52.2 522.047 51.62 522.687 51.18C523.407 50.7 524.147 50.54 524.907 50.7C525.707 50.86 526.347 51.26 526.827 51.9C527.907 53.26 529.267 54.32 530.907 55.08C532.547 55.84 534.407 56.22 536.487 56.22C538.407 56.22 540.167 55.76 541.767 54.84C543.407 53.92 544.707 52.56 545.667 50.76C546.627 48.96 547.107 46.76 547.107 44.16V35.64L549.087 30.36L552.987 31.62V44.58C552.987 47.74 552.287 50.6 550.887 53.16C549.487 55.76 547.527 57.82 545.007 59.34C542.527 60.86 539.647 61.62 536.367 61.62ZM536.487 42.84C538.567 42.84 540.407 42.36 542.007 41.4C543.607 40.44 544.847 39.12 545.727 37.44C546.647 35.76 547.107 33.82 547.107 31.62C547.107 29.42 546.647 27.48 545.727 25.8C544.847 24.08 543.607 22.74 542.007 21.78C540.407 20.82 538.567 20.34 536.487 20.34C534.407 20.34 532.567 20.82 530.967 21.78C529.367 22.74 528.107 24.08 527.187 25.8C526.267 27.48 525.807 29.42 525.807 31.62C525.807 33.82 526.267 35.76 527.187 37.44C528.107 39.12 529.367 40.44 530.967 41.4C532.567 42.36 534.407 42.84 536.487 42.84ZM585.613 48C584.733 48 583.993 47.7 583.393 47.1C582.793 46.5 582.493 45.76 582.493 44.88V4.26C582.493 3.34 582.793 2.6 583.393 2.04C583.993 1.44 584.733 1.14 585.613 1.14H612.733C613.653 1.14 614.393 1.42 614.953 1.98C615.513 2.5 615.793 3.2 615.793 4.08C615.793 4.92 615.513 5.6 614.953 6.12C614.393 6.64 613.653 6.9 612.733 6.9H588.733V21.48H605.953C606.873 21.48 607.613 21.76 608.173 22.32C608.733 22.84 609.013 23.52 609.013 24.36C609.013 25.2 608.733 25.9 608.173 26.46C607.613 26.98 606.873 27.24 605.953 27.24H588.733V44.88C588.733 45.76 588.433 46.5 587.833 47.1C587.233 47.7 586.493 48 585.613 48ZM641.053 48.24C637.813 48.24 634.953 47.54 632.473 46.14C629.993 44.7 628.033 42.74 626.593 40.26C625.193 37.74 624.493 34.86 624.493 31.62C624.493 28.34 625.193 25.46 626.593 22.98C628.033 20.46 629.993 18.5 632.473 17.1C634.953 15.66 637.813 14.94 641.053 14.94C644.253 14.94 647.093 15.66 649.573 17.1C652.053 18.5 653.993 20.46 655.393 22.98C656.833 25.46 657.553 28.34 657.553 31.62C657.553 34.86 656.853 37.74 655.453 40.26C654.053 42.74 652.113 44.7 649.633 46.14C647.153 47.54 644.293 48.24 641.053 48.24ZM641.053 42.84C643.133 42.84 644.973 42.36 646.573 41.4C648.173 40.44 649.413 39.12 650.293 37.44C651.213 35.76 651.673 33.82 651.673 31.62C651.673 29.42 651.213 27.48 650.293 25.8C649.413 24.08 648.173 22.74 646.573 21.78C644.973 20.82 643.133 20.34 641.053 20.34C638.973 20.34 637.133 20.82 635.533 21.78C633.933 22.74 632.673 24.08 631.753 25.8C630.833 27.48 630.373 29.42 630.373 31.62C630.373 33.82 630.833 35.76 631.753 37.44C632.673 39.12 633.933 40.44 635.533 41.4C637.133 42.36 638.973 42.84 641.053 42.84ZM672.602 27.48C672.602 25.08 673.182 22.94 674.342 21.06C675.542 19.14 677.142 17.62 679.142 16.5C681.142 15.38 683.342 14.82 685.742 14.82C688.142 14.82 689.922 15.22 691.082 16.02C692.282 16.78 692.742 17.7 692.462 18.78C692.342 19.34 692.102 19.78 691.742 20.1C691.422 20.38 691.042 20.56 690.602 20.64C690.162 20.72 689.682 20.7 689.162 20.58C686.602 20.06 684.302 20.02 682.262 20.46C680.222 20.9 678.602 21.72 677.402 22.92C676.242 24.12 675.662 25.64 675.662 27.48H672.602ZM672.662 48C671.702 48 670.962 47.76 670.442 47.28C669.922 46.76 669.662 46 669.662 45V18.18C669.662 17.22 669.922 16.48 670.442 15.96C670.962 15.44 671.702 15.18 672.662 15.18C673.662 15.18 674.402 15.44 674.882 15.96C675.402 16.44 675.662 17.18 675.662 18.18V45C675.662 45.96 675.402 46.7 674.882 47.22C674.402 47.74 673.662 48 672.662 48ZM714.859 48.24C711.539 48.24 708.579 47.54 705.979 46.14C703.419 44.7 701.399 42.74 699.919 40.26C698.479 37.74 697.759 34.86 697.759 31.62C697.759 28.34 698.439 25.46 699.799 22.98C701.199 20.46 703.119 18.5 705.559 17.1C707.999 15.66 710.799 14.94 713.959 14.94C717.079 14.94 719.759 15.64 721.999 17.04C724.239 18.4 725.939 20.3 727.099 22.74C728.299 25.14 728.899 27.92 728.899 31.08C728.899 31.84 728.639 32.48 728.119 33C727.599 33.48 726.939 33.72 726.139 33.72H701.959V28.92H725.959L723.499 30.6C723.459 28.6 723.059 26.82 722.299 25.26C721.539 23.66 720.459 22.4 719.059 21.48C717.659 20.56 715.959 20.1 713.959 20.1C711.679 20.1 709.719 20.6 708.079 21.6C706.479 22.6 705.259 23.98 704.419 25.74C703.579 27.46 703.159 29.42 703.159 31.62C703.159 33.82 703.659 35.78 704.659 37.5C705.659 39.22 707.039 40.58 708.799 41.58C710.559 42.58 712.579 43.08 714.859 43.08C716.099 43.08 717.359 42.86 718.639 42.42C719.959 41.94 721.019 41.4 721.819 40.8C722.419 40.36 723.059 40.14 723.739 40.14C724.459 40.1 725.079 40.3 725.599 40.74C726.279 41.34 726.639 42 726.679 42.72C726.719 43.44 726.399 44.06 725.719 44.58C724.359 45.66 722.659 46.54 720.619 47.22C718.619 47.9 716.699 48.24 714.859 48.24ZM751.645 48.24C748.845 48.24 746.245 47.82 743.845 46.98C741.485 46.1 739.645 45 738.325 43.68C737.725 43.04 737.465 42.32 737.545 41.52C737.665 40.68 738.065 40 738.745 39.48C739.545 38.84 740.325 38.58 741.085 38.7C741.885 38.78 742.565 39.12 743.125 39.72C743.805 40.48 744.885 41.2 746.365 41.88C747.885 42.52 749.565 42.84 751.405 42.84C753.725 42.84 755.485 42.46 756.685 41.7C757.925 40.94 758.565 39.96 758.605 38.76C758.645 37.56 758.065 36.52 756.865 35.64C755.705 34.76 753.565 34.04 750.445 33.48C746.405 32.68 743.465 31.48 741.625 29.88C739.825 28.28 738.925 26.32 738.925 24C738.925 21.96 739.525 20.28 740.725 18.96C741.925 17.6 743.465 16.6 745.345 15.96C747.225 15.28 749.185 14.94 751.225 14.94C753.865 14.94 756.205 15.36 758.245 16.2C760.285 17.04 761.905 18.2 763.105 19.68C763.665 20.32 763.925 21 763.885 21.72C763.845 22.4 763.505 22.98 762.865 23.46C762.225 23.9 761.465 24.04 760.585 23.88C759.705 23.72 758.965 23.36 758.365 22.8C757.365 21.84 756.285 21.18 755.125 20.82C753.965 20.46 752.625 20.28 751.105 20.28C749.345 20.28 747.845 20.58 746.605 21.18C745.405 21.78 744.805 22.66 744.805 23.82C744.805 24.54 744.985 25.2 745.345 25.8C745.745 26.36 746.505 26.88 747.625 27.36C748.745 27.8 750.385 28.24 752.545 28.68C755.545 29.28 757.905 30.04 759.625 30.96C761.385 31.88 762.645 32.96 763.405 34.2C764.165 35.4 764.545 36.8 764.545 38.4C764.545 40.24 764.045 41.9 763.045 43.38C762.085 44.86 760.645 46.04 758.725 46.92C756.845 47.8 754.485 48.24 751.645 48.24ZM787.223 48C785.223 48 783.423 47.5 781.823 46.5C780.223 45.46 778.963 44.06 778.043 42.3C777.123 40.54 776.663 38.56 776.663 36.36V7.74C776.663 6.86 776.943 6.14 777.503 5.58C778.063 5.02 778.783 4.74 779.663 4.74C780.543 4.74 781.263 5.02 781.823 5.58C782.383 6.14 782.663 6.86 782.663 7.74V36.36C782.663 37.96 783.103 39.3 783.983 40.38C784.863 41.46 785.943 42 787.223 42H789.263C789.983 42 790.583 42.28 791.063 42.84C791.583 43.4 791.843 44.12 791.843 45C791.843 45.88 791.503 46.6 790.823 47.16C790.183 47.72 789.343 48 788.303 48H787.223ZM773.903 21.54C773.063 21.54 772.383 21.3 771.863 20.82C771.343 20.34 771.083 19.74 771.083 19.02C771.083 18.22 771.343 17.58 771.863 17.1C772.383 16.62 773.063 16.38 773.903 16.38H787.763C788.603 16.38 789.283 16.62 789.803 17.1C790.323 17.58 790.583 18.22 790.583 19.02C790.583 19.74 790.323 20.34 789.803 20.82C789.283 21.3 788.603 21.54 787.763 21.54H773.903ZM826.663 48C825.783 48 825.043 47.7 824.443 47.1C823.843 46.5 823.543 45.76 823.543 44.88V4.26C823.543 3.34 823.843 2.6 824.443 2.04C825.043 1.44 825.783 1.14 826.663 1.14H838.663C841.663 1.14 844.323 1.8 846.643 3.12C848.963 4.44 850.763 6.28 852.043 8.64C853.363 10.96 854.023 13.64 854.023 16.68C854.023 19.6 853.363 22.2 852.043 24.48C850.763 26.76 848.963 28.54 846.643 29.82C844.323 31.1 841.663 31.74 838.663 31.74H829.783V44.88C829.783 45.76 829.483 46.5 828.883 47.1C828.323 47.7 827.583 48 826.663 48ZM829.783 25.98H838.663C840.503 25.98 842.123 25.58 843.523 24.78C844.923 23.98 846.023 22.88 846.823 21.48C847.623 20.08 848.023 18.48 848.023 16.68C848.023 14.76 847.623 13.08 846.823 11.64C846.023 10.16 844.923 9 843.523 8.16C842.123 7.32 840.503 6.9 838.663 6.9H829.783V25.98ZM866.266 27.48C866.266 25.08 866.846 22.94 868.006 21.06C869.206 19.14 870.806 17.62 872.806 16.5C874.806 15.38 877.006 14.82 879.406 14.82C881.806 14.82 883.586 15.22 884.746 16.02C885.946 16.78 886.406 17.7 886.126 18.78C886.006 19.34 885.766 19.78 885.406 20.1C885.086 20.38 884.706 20.56 884.266 20.64C883.826 20.72 883.346 20.7 882.826 20.58C880.266 20.06 877.966 20.02 875.926 20.46C873.886 20.9 872.266 21.72 871.066 22.92C869.906 24.12 869.326 25.64 869.326 27.48H866.266ZM866.326 48C865.366 48 864.626 47.76 864.106 47.28C863.586 46.76 863.326 46 863.326 45V18.18C863.326 17.22 863.586 16.48 864.106 15.96C864.626 15.44 865.366 15.18 866.326 15.18C867.326 15.18 868.066 15.44 868.546 15.96C869.066 16.44 869.326 17.18 869.326 18.18V45C869.326 45.96 869.066 46.7 868.546 47.22C868.066 47.74 867.326 48 866.326 48ZM907.983 48.24C904.743 48.24 901.883 47.54 899.403 46.14C896.923 44.7 894.963 42.74 893.523 40.26C892.123 37.74 891.423 34.86 891.423 31.62C891.423 28.34 892.123 25.46 893.523 22.98C894.963 20.46 896.923 18.5 899.403 17.1C901.883 15.66 904.743 14.94 907.983 14.94C911.183 14.94 914.023 15.66 916.503 17.1C918.983 18.5 920.923 20.46 922.323 22.98C923.763 25.46 924.483 28.34 924.483 31.62C924.483 34.86 923.783 37.74 922.383 40.26C920.983 42.74 919.043 44.7 916.563 46.14C914.083 47.54 911.223 48.24 907.983 48.24ZM907.983 42.84C910.063 42.84 911.903 42.36 913.503 41.4C915.103 40.44 916.343 39.12 917.223 37.44C918.143 35.76 918.603 33.82 918.603 31.62C918.603 29.42 918.143 27.48 917.223 25.8C916.343 24.08 915.103 22.74 913.503 21.78C911.903 20.82 910.063 20.34 907.983 20.34C905.903 20.34 904.063 20.82 902.463 21.78C900.863 22.74 899.603 24.08 898.683 25.8C897.763 27.48 897.303 29.42 897.303 31.62C897.303 33.82 897.763 35.76 898.683 37.44C899.603 39.12 900.863 40.44 902.463 41.4C904.063 42.36 905.903 42.84 907.983 42.84ZM951.471 48.24C948.351 48.24 945.531 47.52 943.011 46.08C940.531 44.6 938.551 42.6 937.071 40.08C935.631 37.56 934.911 34.72 934.911 31.56C934.911 28.4 935.571 25.58 936.891 23.1C938.251 20.58 940.091 18.6 942.411 17.16C944.731 15.68 947.351 14.94 950.271 14.94C952.631 14.94 954.811 15.44 956.811 16.44C958.811 17.4 960.491 18.72 961.851 20.4V4.2C961.851 3.28 962.131 2.54 962.691 1.98C963.291 1.42 964.031 1.14 964.911 1.14C965.831 1.14 966.571 1.42 967.131 1.98C967.691 2.54 967.971 3.28 967.971 4.2V31.56C967.971 34.72 967.231 37.56 965.751 40.08C964.311 42.6 962.351 44.6 959.871 46.08C957.391 47.52 954.591 48.24 951.471 48.24ZM951.471 42.84C953.511 42.84 955.331 42.36 956.931 41.4C958.531 40.4 959.791 39.04 960.711 37.32C961.631 35.6 962.091 33.68 962.091 31.56C962.091 29.4 961.631 27.48 960.711 25.8C959.791 24.12 958.531 22.8 956.931 21.84C955.331 20.84 953.511 20.34 951.471 20.34C949.471 20.34 947.651 20.84 946.011 21.84C944.411 22.8 943.131 24.12 942.171 25.8C941.251 27.48 940.791 29.4 940.791 31.56C940.791 33.68 941.251 35.6 942.171 37.32C943.131 39.04 944.411 40.4 946.011 41.4C947.651 42.36 949.471 42.84 951.471 42.84ZM995.579 48.3C992.819 48.3 990.339 47.72 988.139 46.56C985.979 45.36 984.259 43.62 982.979 41.34C981.739 39.06 981.119 36.26 981.119 32.94V18.18C981.119 17.3 981.399 16.58 981.959 16.02C982.559 15.42 983.299 15.12 984.179 15.12C985.059 15.12 985.779 15.42 986.339 16.02C986.939 16.58 987.239 17.3 987.239 18.18V32.94C987.239 35.18 987.659 37.04 988.499 38.52C989.339 39.96 990.479 41.04 991.919 41.76C993.359 42.44 994.979 42.78 996.779 42.78C998.499 42.78 1000.02 42.44 1001.34 41.76C1002.7 41.08 1003.78 40.16 1004.58 39C1005.38 37.84 1005.78 36.54 1005.78 35.1H1009.56C1009.56 37.58 1008.94 39.82 1007.7 41.82C1006.5 43.82 1004.84 45.4 1002.72 46.56C1000.64 47.72 998.259 48.3 995.579 48.3ZM1008.84 48C1007.96 48 1007.22 47.72 1006.62 47.16C1006.06 46.56 1005.78 45.82 1005.78 44.94V18.18C1005.78 17.26 1006.06 16.52 1006.62 15.96C1007.22 15.4 1007.96 15.12 1008.84 15.12C1009.76 15.12 1010.5 15.4 1011.06 15.96C1011.62 16.52 1011.9 17.26 1011.9 18.18V44.94C1011.9 45.82 1011.62 46.56 1011.06 47.16C1010.5 47.72 1009.76 48 1008.84 48ZM1040.56 48.24C1037.36 48.24 1034.5 47.52 1031.98 46.08C1029.5 44.6 1027.54 42.62 1026.1 40.14C1024.7 37.62 1024 34.78 1024 31.62C1024 28.38 1024.7 25.5 1026.1 22.98C1027.5 20.46 1029.42 18.5 1031.86 17.1C1034.3 15.66 1037.1 14.94 1040.26 14.94C1042.62 14.94 1044.78 15.4 1046.74 16.32C1048.7 17.2 1050.46 18.54 1052.02 20.34C1052.58 20.98 1052.78 21.64 1052.62 22.32C1052.46 23 1052.02 23.6 1051.3 24.12C1050.74 24.52 1050.12 24.66 1049.44 24.54C1048.76 24.38 1048.14 24.02 1047.58 23.46C1045.62 21.38 1043.18 20.34 1040.26 20.34C1038.22 20.34 1036.42 20.82 1034.86 21.78C1033.3 22.7 1032.08 24 1031.2 25.68C1030.32 27.36 1029.88 29.34 1029.88 31.62C1029.88 33.78 1030.32 35.7 1031.2 37.38C1032.12 39.06 1033.38 40.4 1034.98 41.4C1036.58 42.36 1038.44 42.84 1040.56 42.84C1041.96 42.84 1043.18 42.68 1044.22 42.36C1045.3 42 1046.28 41.46 1047.16 40.74C1047.8 40.22 1048.46 39.94 1049.14 39.9C1049.82 39.82 1050.42 40 1050.94 40.44C1051.62 41 1052 41.64 1052.08 42.36C1052.16 43.04 1051.92 43.66 1051.36 44.22C1048.48 46.9 1044.88 48.24 1040.56 48.24ZM1080.13 48.24C1076.81 48.24 1073.85 47.54 1071.25 46.14C1068.69 44.7 1066.67 42.74 1065.19 40.26C1063.75 37.74 1063.03 34.86 1063.03 31.62C1063.03 28.34 1063.71 25.46 1065.07 22.98C1066.47 20.46 1068.39 18.5 1070.83 17.1C1073.27 15.66 1076.07 14.94 1079.23 14.94C1082.35 14.94 1085.03 15.64 1087.27 17.04C1089.51 18.4 1091.21 20.3 1092.37 22.74C1093.57 25.14 1094.17 27.92 1094.17 31.08C1094.17 31.84 1093.91 32.48 1093.39 33C1092.87 33.48 1092.21 33.72 1091.41 33.72H1067.23V28.92H1091.23L1088.77 30.6C1088.73 28.6 1088.33 26.82 1087.57 25.26C1086.81 23.66 1085.73 22.4 1084.33 21.48C1082.93 20.56 1081.23 20.1 1079.23 20.1C1076.95 20.1 1074.99 20.6 1073.35 21.6C1071.75 22.6 1070.53 23.98 1069.69 25.74C1068.85 27.46 1068.43 29.42 1068.43 31.62C1068.43 33.82 1068.93 35.78 1069.93 37.5C1070.93 39.22 1072.31 40.58 1074.07 41.58C1075.83 42.58 1077.85 43.08 1080.13 43.08C1081.37 43.08 1082.63 42.86 1083.91 42.42C1085.23 41.94 1086.29 41.4 1087.09 40.8C1087.69 40.36 1088.33 40.14 1089.01 40.14C1089.73 40.1 1090.35 40.3 1090.87 40.74C1091.55 41.34 1091.91 42 1091.95 42.72C1091.99 43.44 1091.67 44.06 1090.99 44.58C1089.63 45.66 1087.93 46.54 1085.89 47.22C1083.89 47.9 1081.97 48.24 1080.13 48.24ZM45.9563 101.62C45.0763 101.62 44.3363 101.34 43.7363 100.78C43.1763 100.22 42.8963 99.5 42.8963 98.62C42.8963 97.7 43.1763 96.96 43.7363 96.4C44.3363 95.84 45.0763 95.56 45.9563 95.56H59.3363C60.2163 95.56 60.9363 95.84 61.4963 96.4C62.0563 96.96 62.3363 97.7 62.3363 98.62C62.3363 99.5 62.0563 100.22 61.4963 100.78C60.9363 101.34 60.2163 101.62 59.3363 101.62H45.9563ZM96.872 115C95.992 115 95.252 114.7 94.652 114.1C94.052 113.5 93.752 112.76 93.752 111.88V71.26C93.752 70.34 94.052 69.6 94.652 69.04C95.252 68.44 95.992 68.14 96.872 68.14C98.072 68.14 98.992 68.7 99.632 69.82L118.412 107.44H116.492L134.792 69.82C135.432 68.7 136.352 68.14 137.552 68.14C138.432 68.14 139.172 68.44 139.772 69.04C140.372 69.6 140.672 70.34 140.672 71.26V111.88C140.672 112.76 140.352 113.5 139.712 114.1C139.112 114.7 138.392 115 137.552 115C136.672 115 135.932 114.7 135.332 114.1C134.732 113.5 134.432 112.76 134.432 111.88V79.9L135.632 79.6L119.912 111.64C119.232 112.68 118.332 113.2 117.212 113.2C115.892 113.2 114.932 112.58 114.332 111.34L98.792 80.2L99.992 79.9V111.88C99.992 112.76 99.692 113.5 99.092 114.1C98.492 114.7 97.752 115 96.872 115ZM168.777 115.24C165.857 115.24 163.237 114.52 160.917 113.08C158.597 111.6 156.757 109.62 155.397 107.14C154.077 104.62 153.417 101.78 153.417 98.62C153.417 95.46 154.137 92.62 155.577 90.1C157.057 87.58 159.037 85.6 161.517 84.16C164.037 82.68 166.857 81.94 169.977 81.94C173.097 81.94 175.897 82.68 178.377 84.16C180.857 85.6 182.817 87.58 184.257 90.1C185.737 92.62 186.477 95.46 186.477 98.62H184.137C184.137 101.78 183.457 104.62 182.097 107.14C180.777 109.62 178.957 111.6 176.637 113.08C174.317 114.52 171.697 115.24 168.777 115.24ZM169.977 109.84C172.017 109.84 173.837 109.36 175.437 108.4C177.037 107.4 178.297 106.06 179.217 104.38C180.137 102.66 180.597 100.74 180.597 98.62C180.597 96.46 180.137 94.54 179.217 92.86C178.297 91.14 177.037 89.8 175.437 88.84C173.837 87.84 172.017 87.34 169.977 87.34C167.977 87.34 166.157 87.84 164.517 88.84C162.917 89.8 161.637 91.14 160.677 92.86C159.757 94.54 159.297 96.46 159.297 98.62C159.297 100.74 159.757 102.66 160.677 104.38C161.637 106.06 162.917 107.4 164.517 108.4C166.157 109.36 167.977 109.84 169.977 109.84ZM183.417 115.06C182.537 115.06 181.797 114.78 181.197 114.22C180.637 113.62 180.357 112.88 180.357 112V102.82L181.497 96.46L186.477 98.62V112C186.477 112.88 186.177 113.62 185.577 114.22C185.017 114.78 184.297 115.06 183.417 115.06ZM201.526 94.48C201.526 92.08 202.106 89.94 203.266 88.06C204.466 86.14 206.066 84.62 208.066 83.5C210.066 82.38 212.266 81.82 214.666 81.82C217.066 81.82 218.846 82.22 220.006 83.02C221.206 83.78 221.666 84.7 221.386 85.78C221.266 86.34 221.026 86.78 220.666 87.1C220.346 87.38 219.966 87.56 219.526 87.64C219.086 87.72 218.606 87.7 218.086 87.58C215.526 87.06 213.226 87.02 211.186 87.46C209.146 87.9 207.526 88.72 206.326 89.92C205.166 91.12 204.586 92.64 204.586 94.48H201.526ZM201.586 115C200.626 115 199.886 114.76 199.366 114.28C198.846 113.76 198.586 113 198.586 112V85.18C198.586 84.22 198.846 83.48 199.366 82.96C199.886 82.44 200.626 82.18 201.586 82.18C202.586 82.18 203.326 82.44 203.806 82.96C204.326 83.44 204.586 84.18 204.586 85.18V112C204.586 112.96 204.326 113.7 203.806 114.22C203.326 114.74 202.586 115 201.586 115ZM236.525 103L232.805 98.92L251.225 82.48C251.825 81.92 252.485 81.66 253.205 81.7C253.965 81.74 254.605 82.06 255.125 82.66C255.685 83.26 255.945 83.92 255.905 84.64C255.865 85.36 255.545 86 254.945 86.56L236.525 103ZM233.705 115C232.825 115 232.105 114.74 231.545 114.22C231.025 113.66 230.765 112.94 230.765 112.06V71.08C230.765 70.2 231.025 69.5 231.545 68.98C232.105 68.42 232.825 68.14 233.705 68.14C234.585 68.14 235.285 68.42 235.805 68.98C236.365 69.5 236.645 70.2 236.645 71.08V112.06C236.645 112.94 236.365 113.66 235.805 114.22C235.285 114.74 234.585 115 233.705 115ZM255.125 114.7C254.485 115.22 253.765 115.44 252.965 115.36C252.205 115.32 251.565 114.98 251.045 114.34L238.865 99.28L243.065 95.32L255.545 110.68C256.065 111.32 256.285 112.02 256.205 112.78C256.165 113.5 255.805 114.14 255.125 114.7ZM280.357 115.24C277.037 115.24 274.077 114.54 271.477 113.14C268.917 111.7 266.897 109.74 265.417 107.26C263.977 104.74 263.257 101.86 263.257 98.62C263.257 95.34 263.937 92.46 265.297 89.98C266.697 87.46 268.617 85.5 271.057 84.1C273.497 82.66 276.297 81.94 279.457 81.94C282.577 81.94 285.257 82.64 287.497 84.04C289.737 85.4 291.437 87.3 292.597 89.74C293.797 92.14 294.397 94.92 294.397 98.08C294.397 98.84 294.137 99.48 293.617 100C293.097 100.48 292.437 100.72 291.637 100.72H267.457V95.92H291.457L288.997 97.6C288.957 95.6 288.557 93.82 287.797 92.26C287.037 90.66 285.957 89.4 284.557 88.48C283.157 87.56 281.457 87.1 279.457 87.1C277.177 87.1 275.217 87.6 273.577 88.6C271.977 89.6 270.757 90.98 269.917 92.74C269.077 94.46 268.657 96.42 268.657 98.62C268.657 100.82 269.157 102.78 270.157 104.5C271.157 106.22 272.537 107.58 274.297 108.58C276.057 109.58 278.077 110.08 280.357 110.08C281.597 110.08 282.857 109.86 284.137 109.42C285.457 108.94 286.517 108.4 287.317 107.8C287.917 107.36 288.557 107.14 289.237 107.14C289.957 107.1 290.577 107.3 291.097 107.74C291.777 108.34 292.137 109 292.177 109.72C292.217 110.44 291.897 111.06 291.217 111.58C289.857 112.66 288.157 113.54 286.117 114.22C284.117 114.9 282.197 115.24 280.357 115.24ZM317.143 115C315.143 115 313.343 114.5 311.743 113.5C310.143 112.46 308.883 111.06 307.963 109.3C307.043 107.54 306.583 105.56 306.583 103.36V74.74C306.583 73.86 306.863 73.14 307.423 72.58C307.983 72.02 308.703 71.74 309.583 71.74C310.463 71.74 311.183 72.02 311.743 72.58C312.303 73.14 312.583 73.86 312.583 74.74V103.36C312.583 104.96 313.023 106.3 313.903 107.38C314.783 108.46 315.863 109 317.143 109H319.183C319.903 109 320.503 109.28 320.983 109.84C321.503 110.4 321.763 111.12 321.763 112C321.763 112.88 321.423 113.6 320.743 114.16C320.103 114.72 319.263 115 318.223 115H317.143ZM303.823 88.54C302.983 88.54 302.303 88.3 301.783 87.82C301.263 87.34 301.003 86.74 301.003 86.02C301.003 85.22 301.263 84.58 301.783 84.1C302.303 83.62 302.983 83.38 303.823 83.38H317.683C318.523 83.38 319.203 83.62 319.723 84.1C320.243 84.58 320.503 85.22 320.503 86.02C320.503 86.74 320.243 87.34 319.723 87.82C319.203 88.3 318.523 88.54 317.683 88.54H303.823ZM368.343 115.6C365.783 115.6 363.343 115.2 361.023 114.4C358.703 113.6 356.683 112.48 354.963 111.04C353.243 109.6 351.983 107.94 351.183 106.06C350.783 105.22 350.783 104.44 351.183 103.72C351.623 103 352.343 102.54 353.343 102.34C354.063 102.18 354.763 102.3 355.443 102.7C356.163 103.06 356.703 103.62 357.063 104.38C357.543 105.38 358.323 106.3 359.403 107.14C360.523 107.98 361.863 108.66 363.423 109.18C364.983 109.7 366.623 109.96 368.343 109.96C370.263 109.96 372.023 109.66 373.623 109.06C375.263 108.46 376.583 107.6 377.583 106.48C378.583 105.32 379.083 103.9 379.083 102.22C379.083 100.1 378.243 98.2 376.563 96.52C374.923 94.84 372.203 93.8 368.403 93.4C363.443 92.92 359.543 91.46 356.703 89.02C353.863 86.58 352.443 83.56 352.443 79.96C352.443 77.32 353.183 75.08 354.663 73.24C356.143 71.4 358.143 70 360.663 69.04C363.223 68.08 366.063 67.6 369.183 67.6C371.623 67.6 373.743 67.94 375.543 68.62C377.383 69.3 378.983 70.24 380.343 71.44C381.703 72.64 382.883 74.06 383.883 75.7C384.443 76.58 384.663 77.42 384.543 78.22C384.463 78.98 384.083 79.58 383.403 80.02C382.643 80.5 381.823 80.6 380.943 80.32C380.063 80.04 379.403 79.52 378.963 78.76C378.323 77.6 377.543 76.62 376.623 75.82C375.703 75.02 374.623 74.4 373.383 73.96C372.143 73.48 370.683 73.24 369.003 73.24C366.043 73.2 363.563 73.76 361.563 74.92C359.563 76.04 358.563 77.78 358.563 80.14C358.563 81.34 358.863 82.5 359.463 83.62C360.103 84.7 361.243 85.64 362.883 86.44C364.563 87.24 366.963 87.8 370.083 88.12C374.843 88.6 378.543 90.06 381.183 92.5C383.863 94.9 385.203 98.08 385.203 102.04C385.203 104.32 384.723 106.3 383.763 107.98C382.843 109.66 381.583 111.08 379.983 112.24C378.423 113.36 376.623 114.2 374.583 114.76C372.583 115.32 370.503 115.6 368.343 115.6ZM409.111 115C407.111 115 405.311 114.5 403.711 113.5C402.111 112.46 400.851 111.06 399.931 109.3C399.011 107.54 398.551 105.56 398.551 103.36V74.74C398.551 73.86 398.831 73.14 399.391 72.58C399.951 72.02 400.671 71.74 401.551 71.74C402.431 71.74 403.151 72.02 403.711 72.58C404.271 73.14 404.551 73.86 404.551 74.74V103.36C404.551 104.96 404.991 106.3 405.871 107.38C406.751 108.46 407.831 109 409.111 109H411.151C411.871 109 412.471 109.28 412.951 109.84C413.471 110.4 413.731 111.12 413.731 112C413.731 112.88 413.391 113.6 412.711 114.16C412.071 114.72 411.231 115 410.191 115H409.111ZM395.791 88.54C394.951 88.54 394.271 88.3 393.751 87.82C393.231 87.34 392.971 86.74 392.971 86.02C392.971 85.22 393.231 84.58 393.751 84.1C394.271 83.62 394.951 83.38 395.791 83.38H409.651C410.491 83.38 411.171 83.62 411.691 84.1C412.211 84.58 412.471 85.22 412.471 86.02C412.471 86.74 412.211 87.34 411.691 87.82C411.171 88.3 410.491 88.54 409.651 88.54H395.791ZM438.054 115.3C435.294 115.3 432.814 114.72 430.614 113.56C428.454 112.36 426.734 110.62 425.454 108.34C424.214 106.06 423.594 103.26 423.594 99.94V85.18C423.594 84.3 423.874 83.58 424.434 83.02C425.034 82.42 425.774 82.12 426.654 82.12C427.534 82.12 428.254 82.42 428.814 83.02C429.414 83.58 429.714 84.3 429.714 85.18V99.94C429.714 102.18 430.134 104.04 430.974 105.52C431.814 106.96 432.954 108.04 434.394 108.76C435.834 109.44 437.454 109.78 439.254 109.78C440.974 109.78 442.494 109.44 443.814 108.76C445.174 108.08 446.254 107.16 447.054 106C447.854 104.84 448.254 103.54 448.254 102.1H452.034C452.034 104.58 451.414 106.82 450.174 108.82C448.974 110.82 447.314 112.4 445.194 113.56C443.114 114.72 440.734 115.3 438.054 115.3ZM451.314 115C450.434 115 449.694 114.72 449.094 114.16C448.534 113.56 448.254 112.82 448.254 111.94V85.18C448.254 84.26 448.534 83.52 449.094 82.96C449.694 82.4 450.434 82.12 451.314 82.12C452.234 82.12 452.974 82.4 453.534 82.96C454.094 83.52 454.374 84.26 454.374 85.18V111.94C454.374 112.82 454.094 113.56 453.534 114.16C452.974 114.72 452.234 115 451.314 115ZM483.032 115.24C479.912 115.24 477.092 114.52 474.572 113.08C472.092 111.6 470.112 109.6 468.632 107.08C467.192 104.56 466.472 101.72 466.472 98.56C466.472 95.4 467.132 92.58 468.452 90.1C469.812 87.58 471.652 85.6 473.972 84.16C476.292 82.68 478.912 81.94 481.832 81.94C484.192 81.94 486.372 82.44 488.372 83.44C490.372 84.4 492.052 85.72 493.412 87.4V71.2C493.412 70.28 493.692 69.54 494.252 68.98C494.852 68.42 495.592 68.14 496.472 68.14C497.392 68.14 498.132 68.42 498.692 68.98C499.252 69.54 499.532 70.28 499.532 71.2V98.56C499.532 101.72 498.792 104.56 497.312 107.08C495.872 109.6 493.912 111.6 491.432 113.08C488.952 114.52 486.152 115.24 483.032 115.24ZM483.032 109.84C485.072 109.84 486.892 109.36 488.492 108.4C490.092 107.4 491.352 106.04 492.272 104.32C493.192 102.6 493.652 100.68 493.652 98.56C493.652 96.4 493.192 94.48 492.272 92.8C491.352 91.12 490.092 89.8 488.492 88.84C486.892 87.84 485.072 87.34 483.032 87.34C481.032 87.34 479.212 87.84 477.572 88.84C475.972 89.8 474.692 91.12 473.732 92.8C472.812 94.48 472.352 96.4 472.352 98.56C472.352 100.68 472.812 102.6 473.732 104.32C474.692 106.04 475.972 107.4 477.572 108.4C479.212 109.36 481.032 109.84 483.032 109.84ZM519.219 129.4C518.819 129.4 518.339 129.28 517.779 129.04C516.019 128.24 515.539 126.98 516.339 125.26L534.639 83.92C535.439 82.24 536.699 81.76 538.419 82.48C540.219 83.24 540.719 84.5 539.919 86.26L521.559 127.54C521.079 128.78 520.299 129.4 519.219 129.4ZM526.299 113.68C525.539 114 524.819 114.04 524.139 113.8C523.499 113.52 522.979 113 522.579 112.24L508.839 86.14C508.439 85.38 508.379 84.66 508.659 83.98C508.979 83.26 509.519 82.74 510.279 82.42C511.039 82.1 511.759 82.08 512.439 82.36C513.119 82.6 513.639 83.1 513.999 83.86L527.139 109.96C527.539 110.72 527.679 111.46 527.559 112.18C527.479 112.86 527.059 113.36 526.299 113.68ZM584.141 115.24C580.901 115.24 578.041 114.54 575.561 113.14C573.081 111.7 571.121 109.74 569.681 107.26C568.281 104.74 567.581 101.86 567.581 98.62C567.581 95.34 568.281 92.46 569.681 89.98C571.121 87.46 573.081 85.5 575.561 84.1C578.041 82.66 580.901 81.94 584.141 81.94C587.341 81.94 590.181 82.66 592.661 84.1C595.141 85.5 597.081 87.46 598.481 89.98C599.921 92.46 600.641 95.34 600.641 98.62C600.641 101.86 599.941 104.74 598.541 107.26C597.141 109.74 595.201 111.7 592.721 113.14C590.241 114.54 587.381 115.24 584.141 115.24ZM584.141 109.84C586.221 109.84 588.061 109.36 589.661 108.4C591.261 107.44 592.501 106.12 593.381 104.44C594.301 102.76 594.761 100.82 594.761 98.62C594.761 96.42 594.301 94.48 593.381 92.8C592.501 91.08 591.261 89.74 589.661 88.78C588.061 87.82 586.221 87.34 584.141 87.34C582.061 87.34 580.221 87.82 578.621 88.78C577.021 89.74 575.761 91.08 574.841 92.8C573.921 94.48 573.461 96.42 573.461 98.62C573.461 100.82 573.921 102.76 574.841 104.44C575.761 106.12 577.021 107.44 578.621 108.4C580.221 109.36 582.061 109.84 584.141 109.84ZM616.29 115C615.53 115 614.85 114.72 614.25 114.16C613.65 113.6 613.35 112.86 613.35 111.94V82.36C613.35 79.48 613.91 76.98 615.03 74.86C616.19 72.74 617.79 71.1 619.83 69.94C621.87 68.74 624.23 68.14 626.91 68.14C627.79 68.14 628.51 68.4 629.07 68.92C629.67 69.44 629.97 70.1 629.97 70.9C629.97 71.66 629.67 72.32 629.07 72.88C628.51 73.4 627.79 73.66 626.91 73.66C625.43 73.66 624.13 74 623.01 74.68C621.89 75.36 621.01 76.3 620.37 77.5C619.77 78.7 619.47 80.12 619.47 81.76V111.94C619.47 112.86 619.19 113.6 618.63 114.16C618.07 114.72 617.29 115 616.29 115ZM610.77 88.54C609.93 88.54 609.25 88.3 608.73 87.82C608.21 87.34 607.95 86.74 607.95 86.02C607.95 85.22 608.21 84.58 608.73 84.1C609.25 83.62 609.93 83.38 610.77 83.38H625.59C626.43 83.38 627.11 83.62 627.63 84.1C628.15 84.58 628.41 85.22 628.41 86.02C628.41 86.74 628.15 87.34 627.63 87.82C627.11 88.3 626.43 88.54 625.59 88.54H610.77ZM658.299 115C657.419 115 656.679 114.7 656.079 114.1C655.479 113.5 655.179 112.76 655.179 111.88V71.26C655.179 70.34 655.479 69.6 656.079 69.04C656.679 68.44 657.419 68.14 658.299 68.14H685.419C686.339 68.14 687.079 68.42 687.639 68.98C688.199 69.5 688.479 70.2 688.479 71.08C688.479 71.92 688.199 72.6 687.639 73.12C687.079 73.64 686.339 73.9 685.419 73.9H661.419V88.48H678.639C679.559 88.48 680.299 88.76 680.859 89.32C681.419 89.84 681.699 90.52 681.699 91.36C681.699 92.2 681.419 92.9 680.859 93.46C680.299 93.98 679.559 94.24 678.639 94.24H661.419V111.88C661.419 112.76 661.119 113.5 660.519 114.1C659.919 114.7 659.179 115 658.299 115ZM713.739 115.24C710.499 115.24 707.639 114.54 705.159 113.14C702.679 111.7 700.719 109.74 699.279 107.26C697.879 104.74 697.179 101.86 697.179 98.62C697.179 95.34 697.879 92.46 699.279 89.98C700.719 87.46 702.679 85.5 705.159 84.1C707.639 82.66 710.499 81.94 713.739 81.94C716.939 81.94 719.779 82.66 722.259 84.1C724.739 85.5 726.679 87.46 728.079 89.98C729.519 92.46 730.239 95.34 730.239 98.62C730.239 101.86 729.539 104.74 728.139 107.26C726.739 109.74 724.799 111.7 722.319 113.14C719.839 114.54 716.979 115.24 713.739 115.24ZM713.739 109.84C715.819 109.84 717.659 109.36 719.259 108.4C720.859 107.44 722.099 106.12 722.979 104.44C723.899 102.76 724.359 100.82 724.359 98.62C724.359 96.42 723.899 94.48 722.979 92.8C722.099 91.08 720.859 89.74 719.259 88.78C717.659 87.82 715.819 87.34 713.739 87.34C711.659 87.34 709.819 87.82 708.219 88.78C706.619 89.74 705.359 91.08 704.439 92.8C703.519 94.48 703.059 96.42 703.059 98.62C703.059 100.82 703.519 102.76 704.439 104.44C705.359 106.12 706.619 107.44 708.219 108.4C709.819 109.36 711.659 109.84 713.739 109.84ZM745.287 94.48C745.287 92.08 745.867 89.94 747.027 88.06C748.227 86.14 749.827 84.62 751.827 83.5C753.827 82.38 756.027 81.82 758.427 81.82C760.827 81.82 762.607 82.22 763.767 83.02C764.967 83.78 765.427 84.7 765.147 85.78C765.027 86.34 764.787 86.78 764.427 87.1C764.107 87.38 763.727 87.56 763.287 87.64C762.847 87.72 762.367 87.7 761.847 87.58C759.287 87.06 756.987 87.02 754.947 87.46C752.907 87.9 751.287 88.72 750.087 89.92C748.927 91.12 748.347 92.64 748.347 94.48H745.287ZM745.347 115C744.387 115 743.647 114.76 743.127 114.28C742.607 113.76 742.347 113 742.347 112V85.18C742.347 84.22 742.607 83.48 743.127 82.96C743.647 82.44 744.387 82.18 745.347 82.18C746.347 82.18 747.087 82.44 747.567 82.96C748.087 83.44 748.347 84.18 748.347 85.18V112C748.347 112.96 748.087 113.7 747.567 114.22C747.087 114.74 746.347 115 745.347 115ZM787.545 115.24C784.225 115.24 781.265 114.54 778.665 113.14C776.105 111.7 774.085 109.74 772.605 107.26C771.165 104.74 770.445 101.86 770.445 98.62C770.445 95.34 771.125 92.46 772.485 89.98C773.885 87.46 775.805 85.5 778.245 84.1C780.685 82.66 783.485 81.94 786.645 81.94C789.765 81.94 792.445 82.64 794.685 84.04C796.925 85.4 798.625 87.3 799.785 89.74C800.985 92.14 801.585 94.92 801.585 98.08C801.585 98.84 801.325 99.48 800.805 100C800.285 100.48 799.625 100.72 798.825 100.72H774.645V95.92H798.645L796.185 97.6C796.145 95.6 795.745 93.82 794.985 92.26C794.225 90.66 793.145 89.4 791.745 88.48C790.345 87.56 788.645 87.1 786.645 87.1C784.365 87.1 782.405 87.6 780.765 88.6C779.165 89.6 777.945 90.98 777.105 92.74C776.265 94.46 775.845 96.42 775.845 98.62C775.845 100.82 776.345 102.78 777.345 104.5C778.345 106.22 779.725 107.58 781.485 108.58C783.245 109.58 785.265 110.08 787.545 110.08C788.785 110.08 790.045 109.86 791.325 109.42C792.645 108.94 793.705 108.4 794.505 107.8C795.105 107.36 795.745 107.14 796.425 107.14C797.145 107.1 797.765 107.3 798.285 107.74C798.965 108.34 799.325 109 799.365 109.72C799.405 110.44 799.085 111.06 798.405 111.58C797.045 112.66 795.345 113.54 793.305 114.22C791.305 114.9 789.385 115.24 787.545 115.24ZM824.33 115.24C821.53 115.24 818.93 114.82 816.53 113.98C814.17 113.1 812.33 112 811.01 110.68C810.41 110.04 810.15 109.32 810.23 108.52C810.35 107.68 810.75 107 811.43 106.48C812.23 105.84 813.01 105.58 813.77 105.7C814.57 105.78 815.25 106.12 815.81 106.72C816.49 107.48 817.57 108.2 819.05 108.88C820.57 109.52 822.25 109.84 824.09 109.84C826.41 109.84 828.17 109.46 829.37 108.7C830.61 107.94 831.25 106.96 831.29 105.76C831.33 104.56 830.75 103.52 829.55 102.64C828.39 101.76 826.25 101.04 823.13 100.48C819.09 99.68 816.15 98.48 814.31 96.88C812.51 95.28 811.61 93.32 811.61 91C811.61 88.96 812.21 87.28 813.41 85.96C814.61 84.6 816.15 83.6 818.03 82.96C819.91 82.28 821.87 81.94 823.91 81.94C826.55 81.94 828.89 82.36 830.93 83.2C832.97 84.04 834.59 85.2 835.79 86.68C836.35 87.32 836.61 88 836.57 88.72C836.53 89.4 836.19 89.98 835.55 90.46C834.91 90.9 834.15 91.04 833.27 90.88C832.39 90.72 831.65 90.36 831.05 89.8C830.05 88.84 828.97 88.18 827.81 87.82C826.65 87.46 825.31 87.28 823.79 87.28C822.03 87.28 820.53 87.58 819.29 88.18C818.09 88.78 817.49 89.66 817.49 90.82C817.49 91.54 817.67 92.2 818.03 92.8C818.43 93.36 819.19 93.88 820.31 94.36C821.43 94.8 823.07 95.24 825.23 95.68C828.23 96.28 830.59 97.04 832.31 97.96C834.07 98.88 835.33 99.96 836.09 101.2C836.85 102.4 837.23 103.8 837.23 105.4C837.23 107.24 836.73 108.9 835.73 110.38C834.77 111.86 833.33 113.04 831.41 113.92C829.53 114.8 827.17 115.24 824.33 115.24ZM859.908 115C857.908 115 856.108 114.5 854.508 113.5C852.908 112.46 851.648 111.06 850.728 109.3C849.808 107.54 849.348 105.56 849.348 103.36V74.74C849.348 73.86 849.628 73.14 850.188 72.58C850.748 72.02 851.468 71.74 852.348 71.74C853.228 71.74 853.948 72.02 854.508 72.58C855.068 73.14 855.348 73.86 855.348 74.74V103.36C855.348 104.96 855.788 106.3 856.668 107.38C857.548 108.46 858.628 109 859.908 109H861.948C862.668 109 863.268 109.28 863.748 109.84C864.268 110.4 864.528 111.12 864.528 112C864.528 112.88 864.188 113.6 863.508 114.16C862.868 114.72 862.028 115 860.988 115H859.908ZM846.588 88.54C845.748 88.54 845.068 88.3 844.548 87.82C844.028 87.34 843.768 86.74 843.768 86.02C843.768 85.22 844.028 84.58 844.548 84.1C845.068 83.62 845.748 83.38 846.588 83.38H860.448C861.288 83.38 861.968 83.62 862.488 84.1C863.008 84.58 863.268 85.22 863.268 86.02C863.268 86.74 863.008 87.34 862.488 87.82C861.968 88.3 861.288 88.54 860.448 88.54H846.588ZM899.349 115C898.469 115 897.729 114.7 897.129 114.1C896.529 113.5 896.229 112.76 896.229 111.88V71.26C896.229 70.34 896.529 69.6 897.129 69.04C897.729 68.44 898.469 68.14 899.349 68.14H911.349C914.349 68.14 917.009 68.8 919.329 70.12C921.649 71.44 923.449 73.28 924.729 75.64C926.049 77.96 926.709 80.64 926.709 83.68C926.709 86.6 926.049 89.2 924.729 91.48C923.449 93.76 921.649 95.54 919.329 96.82C917.009 98.1 914.349 98.74 911.349 98.74H902.469V111.88C902.469 112.76 902.169 113.5 901.569 114.1C901.009 114.7 900.269 115 899.349 115ZM902.469 92.98H911.349C913.189 92.98 914.809 92.58 916.209 91.78C917.609 90.98 918.709 89.88 919.509 88.48C920.309 87.08 920.709 85.48 920.709 83.68C920.709 81.76 920.309 80.08 919.509 78.64C918.709 77.16 917.609 76 916.209 75.16C914.809 74.32 913.189 73.9 911.349 73.9H902.469V92.98ZM938.951 94.48C938.951 92.08 939.531 89.94 940.691 88.06C941.891 86.14 943.491 84.62 945.491 83.5C947.491 82.38 949.691 81.82 952.091 81.82C954.491 81.82 956.271 82.22 957.431 83.02C958.631 83.78 959.091 84.7 958.811 85.78C958.691 86.34 958.451 86.78 958.091 87.1C957.771 87.38 957.391 87.56 956.951 87.64C956.511 87.72 956.031 87.7 955.511 87.58C952.951 87.06 950.651 87.02 948.611 87.46C946.571 87.9 944.951 88.72 943.751 89.92C942.591 91.12 942.011 92.64 942.011 94.48H938.951ZM939.011 115C938.051 115 937.311 114.76 936.791 114.28C936.271 113.76 936.011 113 936.011 112V85.18C936.011 84.22 936.271 83.48 936.791 82.96C937.311 82.44 938.051 82.18 939.011 82.18C940.011 82.18 940.751 82.44 941.231 82.96C941.751 83.44 942.011 84.18 942.011 85.18V112C942.011 112.96 941.751 113.7 941.231 114.22C940.751 114.74 940.011 115 939.011 115ZM980.669 115.24C977.429 115.24 974.569 114.54 972.089 113.14C969.609 111.7 967.649 109.74 966.209 107.26C964.809 104.74 964.109 101.86 964.109 98.62C964.109 95.34 964.809 92.46 966.209 89.98C967.649 87.46 969.609 85.5 972.089 84.1C974.569 82.66 977.429 81.94 980.669 81.94C983.869 81.94 986.709 82.66 989.189 84.1C991.669 85.5 993.609 87.46 995.009 89.98C996.449 92.46 997.169 95.34 997.169 98.62C997.169 101.86 996.469 104.74 995.069 107.26C993.669 109.74 991.729 111.7 989.249 113.14C986.769 114.54 983.909 115.24 980.669 115.24ZM980.669 109.84C982.749 109.84 984.589 109.36 986.189 108.4C987.789 107.44 989.029 106.12 989.909 104.44C990.829 102.76 991.289 100.82 991.289 98.62C991.289 96.42 990.829 94.48 989.909 92.8C989.029 91.08 987.789 89.74 986.189 88.78C984.589 87.82 982.749 87.34 980.669 87.34C978.589 87.34 976.749 87.82 975.149 88.78C973.549 89.74 972.289 91.08 971.369 92.8C970.449 94.48 969.989 96.42 969.989 98.62C969.989 100.82 970.449 102.76 971.369 104.44C972.289 106.12 973.549 107.44 975.149 108.4C976.749 109.36 978.589 109.84 980.669 109.84ZM1024.16 115.24C1021.04 115.24 1018.22 114.52 1015.7 113.08C1013.22 111.6 1011.24 109.6 1009.76 107.08C1008.32 104.56 1007.6 101.72 1007.6 98.56C1007.6 95.4 1008.26 92.58 1009.58 90.1C1010.94 87.58 1012.78 85.6 1015.1 84.16C1017.42 82.68 1020.04 81.94 1022.96 81.94C1025.32 81.94 1027.5 82.44 1029.5 83.44C1031.5 84.4 1033.18 85.72 1034.54 87.4V71.2C1034.54 70.28 1034.82 69.54 1035.38 68.98C1035.98 68.42 1036.72 68.14 1037.6 68.14C1038.52 68.14 1039.26 68.42 1039.82 68.98C1040.38 69.54 1040.66 70.28 1040.66 71.2V98.56C1040.66 101.72 1039.92 104.56 1038.44 107.08C1037 109.6 1035.04 111.6 1032.56 113.08C1030.08 114.52 1027.28 115.24 1024.16 115.24ZM1024.16 109.84C1026.2 109.84 1028.02 109.36 1029.62 108.4C1031.22 107.4 1032.48 106.04 1033.4 104.32C1034.32 102.6 1034.78 100.68 1034.78 98.56C1034.78 96.4 1034.32 94.48 1033.4 92.8C1032.48 91.12 1031.22 89.8 1029.62 88.84C1028.02 87.84 1026.2 87.34 1024.16 87.34C1022.16 87.34 1020.34 87.84 1018.7 88.84C1017.1 89.8 1015.82 91.12 1014.86 92.8C1013.94 94.48 1013.48 96.4 1013.48 98.56C1013.48 100.68 1013.94 102.6 1014.86 104.32C1015.82 106.04 1017.1 107.4 1018.7 108.4C1020.34 109.36 1022.16 109.84 1024.16 109.84ZM1068.26 115.3C1065.5 115.3 1063.02 114.72 1060.82 113.56C1058.66 112.36 1056.94 110.62 1055.66 108.34C1054.42 106.06 1053.8 103.26 1053.8 99.94V85.18C1053.8 84.3 1054.08 83.58 1054.64 83.02C1055.24 82.42 1055.98 82.12 1056.86 82.12C1057.74 82.12 1058.46 82.42 1059.02 83.02C1059.62 83.58 1059.92 84.3 1059.92 85.18V99.94C1059.92 102.18 1060.34 104.04 1061.18 105.52C1062.02 106.96 1063.16 108.04 1064.6 108.76C1066.04 109.44 1067.66 109.78 1069.46 109.78C1071.18 109.78 1072.7 109.44 1074.02 108.76C1075.38 108.08 1076.46 107.16 1077.26 106C1078.06 104.84 1078.46 103.54 1078.46 102.1H1082.24C1082.24 104.58 1081.62 106.82 1080.38 108.82C1079.18 110.82 1077.52 112.4 1075.4 113.56C1073.32 114.72 1070.94 115.3 1068.26 115.3ZM1081.52 115C1080.64 115 1079.9 114.72 1079.3 114.16C1078.74 113.56 1078.46 112.82 1078.46 111.94V85.18C1078.46 84.26 1078.74 83.52 1079.3 82.96C1079.9 82.4 1080.64 82.12 1081.52 82.12C1082.44 82.12 1083.18 82.4 1083.74 82.96C1084.3 83.52 1084.58 84.26 1084.58 85.18V111.94C1084.58 112.82 1084.3 113.56 1083.74 114.16C1083.18 114.72 1082.44 115 1081.52 115ZM1113.24 115.24C1110.04 115.24 1107.18 114.52 1104.66 113.08C1102.18 111.6 1100.22 109.62 1098.78 107.14C1097.38 104.62 1096.68 101.78 1096.68 98.62C1096.68 95.38 1097.38 92.5 1098.78 89.98C1100.18 87.46 1102.1 85.5 1104.54 84.1C1106.98 82.66 1109.78 81.94 1112.94 81.94C1115.3 81.94 1117.46 82.4 1119.42 83.32C1121.38 84.2 1123.14 85.54 1124.7 87.34C1125.26 87.98 1125.46 88.64 1125.3 89.32C1125.14 90 1124.7 90.6 1123.98 91.12C1123.42 91.52 1122.8 91.66 1122.12 91.54C1121.44 91.38 1120.82 91.02 1120.26 90.46C1118.3 88.38 1115.86 87.34 1112.94 87.34C1110.9 87.34 1109.1 87.82 1107.54 88.78C1105.98 89.7 1104.76 91 1103.88 92.68C1103 94.36 1102.56 96.34 1102.56 98.62C1102.56 100.78 1103 102.7 1103.88 104.38C1104.8 106.06 1106.06 107.4 1107.66 108.4C1109.26 109.36 1111.12 109.84 1113.24 109.84C1114.64 109.84 1115.86 109.68 1116.9 109.36C1117.98 109 1118.96 108.46 1119.84 107.74C1120.48 107.22 1121.14 106.94 1121.82 106.9C1122.5 106.82 1123.1 107 1123.62 107.44C1124.3 108 1124.68 108.64 1124.76 109.36C1124.84 110.04 1124.6 110.66 1124.04 111.22C1121.16 113.9 1117.56 115.24 1113.24 115.24ZM1152.82 115.24C1149.5 115.24 1146.54 114.54 1143.94 113.14C1141.38 111.7 1139.36 109.74 1137.88 107.26C1136.44 104.74 1135.72 101.86 1135.72 98.62C1135.72 95.34 1136.4 92.46 1137.76 89.98C1139.16 87.46 1141.08 85.5 1143.52 84.1C1145.96 82.66 1148.76 81.94 1151.92 81.94C1155.04 81.94 1157.72 82.64 1159.96 84.04C1162.2 85.4 1163.9 87.3 1165.06 89.74C1166.26 92.14 1166.86 94.92 1166.86 98.08C1166.86 98.84 1166.6 99.48 1166.08 100C1165.56 100.48 1164.9 100.72 1164.1 100.72H1139.92V95.92H1163.92L1161.46 97.6C1161.42 95.6 1161.02 93.82 1160.26 92.26C1159.5 90.66 1158.42 89.4 1157.02 88.48C1155.62 87.56 1153.92 87.1 1151.92 87.1C1149.64 87.1 1147.68 87.6 1146.04 88.6C1144.44 89.6 1143.22 90.98 1142.38 92.74C1141.54 94.46 1141.12 96.42 1141.12 98.62C1141.12 100.82 1141.62 102.78 1142.62 104.5C1143.62 106.22 1145 107.58 1146.76 108.58C1148.52 109.58 1150.54 110.08 1152.82 110.08C1154.06 110.08 1155.32 109.86 1156.6 109.42C1157.92 108.94 1158.98 108.4 1159.78 107.8C1160.38 107.36 1161.02 107.14 1161.7 107.14C1162.42 107.1 1163.04 107.3 1163.56 107.74C1164.24 108.34 1164.6 109 1164.64 109.72C1164.68 110.44 1164.36 111.06 1163.68 111.58C1162.32 112.66 1160.62 113.54 1158.58 114.22C1156.58 114.9 1154.66 115.24 1152.82 115.24ZM15.605 188.12C14.725 188.12 14.005 187.82 13.445 187.22C12.845 186.62 12.545 185.9 12.545 185.06C12.545 184.18 12.845 183.44 13.445 182.84C14.005 182.28 14.725 182 15.605 182H43.745C44.545 182 45.245 182.28 45.845 182.84C46.445 183.44 46.745 184.18 46.745 185.06C46.745 185.9 46.445 186.62 45.845 187.22C45.245 187.82 44.545 188.12 43.745 188.12H15.605ZM46.73 188.12C45.85 188.12 45.13 187.82 44.57 187.22C43.97 186.62 43.67 185.9 43.67 185.06C43.67 184.18 43.97 183.44 44.57 182.84C45.13 182.28 45.85 182 46.73 182H74.87C75.67 182 76.37 182.28 76.97 182.84C77.57 183.44 77.87 184.18 77.87 185.06C77.87 185.9 77.57 186.62 76.97 187.22C76.37 187.82 75.67 188.12 74.87 188.12H46.73ZM77.855 188.12C76.975 188.12 76.255 187.82 75.695 187.22C75.095 186.62 74.795 185.9 74.795 185.06C74.795 184.18 75.095 183.44 75.695 182.84C76.255 182.28 76.975 182 77.855 182H105.995C106.795 182 107.495 182.28 108.095 182.84C108.695 183.44 108.995 184.18 108.995 185.06C108.995 185.9 108.695 186.62 108.095 187.22C107.495 187.82 106.795 188.12 105.995 188.12H77.855ZM108.98 188.12C108.1 188.12 107.38 187.82 106.82 187.22C106.22 186.62 105.92 185.9 105.92 185.06C105.92 184.18 106.22 183.44 106.82 182.84C107.38 182.28 108.1 182 108.98 182H137.12C137.92 182 138.62 182.28 139.22 182.84C139.82 183.44 140.12 184.18 140.12 185.06C140.12 185.9 139.82 186.62 139.22 187.22C138.62 187.82 137.92 188.12 137.12 188.12H108.98ZM140.105 188.12C139.225 188.12 138.505 187.82 137.945 187.22C137.345 186.62 137.045 185.9 137.045 185.06C137.045 184.18 137.345 183.44 137.945 182.84C138.505 182.28 139.225 182 140.105 182H168.245C169.045 182 169.745 182.28 170.345 182.84C170.945 183.44 171.245 184.18 171.245 185.06C171.245 185.9 170.945 186.62 170.345 187.22C169.745 187.82 169.045 188.12 168.245 188.12H140.105ZM171.23 188.12C170.35 188.12 169.63 187.82 169.07 187.22C168.47 186.62 168.17 185.9 168.17 185.06C168.17 184.18 168.47 183.44 169.07 182.84C169.63 182.28 170.35 182 171.23 182H199.37C200.17 182 200.87 182.28 201.47 182.84C202.07 183.44 202.37 184.18 202.37 185.06C202.37 185.9 202.07 186.62 201.47 187.22C200.87 187.82 200.17 188.12 199.37 188.12H171.23ZM202.355 188.12C201.475 188.12 200.755 187.82 200.195 187.22C199.595 186.62 199.295 185.9 199.295 185.06C199.295 184.18 199.595 183.44 200.195 182.84C200.755 182.28 201.475 182 202.355 182H230.495C231.295 182 231.995 182.28 232.595 182.84C233.195 183.44 233.495 184.18 233.495 185.06C233.495 185.9 233.195 186.62 232.595 187.22C231.995 187.82 231.295 188.12 230.495 188.12H202.355ZM233.48 188.12C232.6 188.12 231.88 187.82 231.32 187.22C230.72 186.62 230.42 185.9 230.42 185.06C230.42 184.18 230.72 183.44 231.32 182.84C231.88 182.28 232.6 182 233.48 182H261.62C262.42 182 263.12 182.28 263.72 182.84C264.32 183.44 264.62 184.18 264.62 185.06C264.62 185.9 264.32 186.62 263.72 187.22C263.12 187.82 262.42 188.12 261.62 188.12H233.48ZM264.605 188.12C263.725 188.12 263.005 187.82 262.445 187.22C261.845 186.62 261.545 185.9 261.545 185.06C261.545 184.18 261.845 183.44 262.445 182.84C263.005 182.28 263.725 182 264.605 182H292.745C293.545 182 294.245 182.28 294.845 182.84C295.445 183.44 295.745 184.18 295.745 185.06C295.745 185.9 295.445 186.62 294.845 187.22C294.245 187.82 293.545 188.12 292.745 188.12H264.605ZM295.73 188.12C294.85 188.12 294.13 187.82 293.57 187.22C292.97 186.62 292.67 185.9 292.67 185.06C292.67 184.18 292.97 183.44 293.57 182.84C294.13 182.28 294.85 182 295.73 182H323.87C324.67 182 325.37 182.28 325.97 182.84C326.57 183.44 326.87 184.18 326.87 185.06C326.87 185.9 326.57 186.62 325.97 187.22C325.37 187.82 324.67 188.12 323.87 188.12H295.73ZM326.855 188.12C325.975 188.12 325.255 187.82 324.695 187.22C324.095 186.62 323.795 185.9 323.795 185.06C323.795 184.18 324.095 183.44 324.695 182.84C325.255 182.28 325.975 182 326.855 182H354.995C355.795 182 356.495 182.28 357.095 182.84C357.695 183.44 357.995 184.18 357.995 185.06C357.995 185.9 357.695 186.62 357.095 187.22C356.495 187.82 355.795 188.12 354.995 188.12H326.855ZM357.98 188.12C357.1 188.12 356.38 187.82 355.82 187.22C355.22 186.62 354.92 185.9 354.92 185.06C354.92 184.18 355.22 183.44 355.82 182.84C356.38 182.28 357.1 182 357.98 182H386.12C386.92 182 387.62 182.28 388.22 182.84C388.82 183.44 389.12 184.18 389.12 185.06C389.12 185.9 388.82 186.62 388.22 187.22C387.62 187.82 386.92 188.12 386.12 188.12H357.98ZM389.105 188.12C388.225 188.12 387.505 187.82 386.945 187.22C386.345 186.62 386.045 185.9 386.045 185.06C386.045 184.18 386.345 183.44 386.945 182.84C387.505 182.28 388.225 182 389.105 182H417.245C418.045 182 418.745 182.28 419.345 182.84C419.945 183.44 420.245 184.18 420.245 185.06C420.245 185.9 419.945 186.62 419.345 187.22C418.745 187.82 418.045 188.12 417.245 188.12H389.105ZM420.23 188.12C419.35 188.12 418.63 187.82 418.07 187.22C417.47 186.62 417.17 185.9 417.17 185.06C417.17 184.18 417.47 183.44 418.07 182.84C418.63 182.28 419.35 182 420.23 182H448.37C449.17 182 449.87 182.28 450.47 182.84C451.07 183.44 451.37 184.18 451.37 185.06C451.37 185.9 451.07 186.62 450.47 187.22C449.87 187.82 449.17 188.12 448.37 188.12H420.23ZM451.355 188.12C450.475 188.12 449.755 187.82 449.195 187.22C448.595 186.62 448.295 185.9 448.295 185.06C448.295 184.18 448.595 183.44 449.195 182.84C449.755 182.28 450.475 182 451.355 182H479.495C480.295 182 480.995 182.28 481.595 182.84C482.195 183.44 482.495 184.18 482.495 185.06C482.495 185.9 482.195 186.62 481.595 187.22C480.995 187.82 480.295 188.12 479.495 188.12H451.355ZM482.48 188.12C481.6 188.12 480.88 187.82 480.32 187.22C479.72 186.62 479.42 185.9 479.42 185.06C479.42 184.18 479.72 183.44 480.32 182.84C480.88 182.28 481.6 182 482.48 182H510.62C511.42 182 512.12 182.28 512.72 182.84C513.32 183.44 513.62 184.18 513.62 185.06C513.62 185.9 513.32 186.62 512.72 187.22C512.12 187.82 511.42 188.12 510.62 188.12H482.48ZM513.605 188.12C512.725 188.12 512.005 187.82 511.445 187.22C510.845 186.62 510.545 185.9 510.545 185.06C510.545 184.18 510.845 183.44 511.445 182.84C512.005 182.28 512.725 182 513.605 182H541.745C542.545 182 543.245 182.28 543.845 182.84C544.445 183.44 544.745 184.18 544.745 185.06C544.745 185.9 544.445 186.62 543.845 187.22C543.245 187.82 542.545 188.12 541.745 188.12H513.605ZM544.73 188.12C543.85 188.12 543.13 187.82 542.57 187.22C541.97 186.62 541.67 185.9 541.67 185.06C541.67 184.18 541.97 183.44 542.57 182.84C543.13 182.28 543.85 182 544.73 182H572.87C573.67 182 574.37 182.28 574.97 182.84C575.57 183.44 575.87 184.18 575.87 185.06C575.87 185.9 575.57 186.62 574.97 187.22C574.37 187.82 573.67 188.12 572.87 188.12H544.73ZM575.855 188.12C574.975 188.12 574.255 187.82 573.695 187.22C573.095 186.62 572.795 185.9 572.795 185.06C572.795 184.18 573.095 183.44 573.695 182.84C574.255 182.28 574.975 182 575.855 182H603.995C604.795 182 605.495 182.28 606.095 182.84C606.695 183.44 606.995 184.18 606.995 185.06C606.995 185.9 606.695 186.62 606.095 187.22C605.495 187.82 604.795 188.12 603.995 188.12H575.855ZM606.98 188.12C606.1 188.12 605.38 187.82 604.82 187.22C604.22 186.62 603.92 185.9 603.92 185.06C603.92 184.18 604.22 183.44 604.82 182.84C605.38 182.28 606.1 182 606.98 182H635.12C635.92 182 636.62 182.28 637.22 182.84C637.82 183.44 638.12 184.18 638.12 185.06C638.12 185.9 637.82 186.62 637.22 187.22C636.62 187.82 635.92 188.12 635.12 188.12H606.98ZM638.105 188.12C637.225 188.12 636.505 187.82 635.945 187.22C635.345 186.62 635.045 185.9 635.045 185.06C635.045 184.18 635.345 183.44 635.945 182.84C636.505 182.28 637.225 182 638.105 182H666.245C667.045 182 667.745 182.28 668.345 182.84C668.945 183.44 669.245 184.18 669.245 185.06C669.245 185.9 668.945 186.62 668.345 187.22C667.745 187.82 667.045 188.12 666.245 188.12H638.105ZM669.23 188.12C668.35 188.12 667.63 187.82 667.07 187.22C666.47 186.62 666.17 185.9 666.17 185.06C666.17 184.18 666.47 183.44 667.07 182.84C667.63 182.28 668.35 182 669.23 182H697.37C698.17 182 698.87 182.28 699.47 182.84C700.07 183.44 700.37 184.18 700.37 185.06C700.37 185.9 700.07 186.62 699.47 187.22C698.87 187.82 698.17 188.12 697.37 188.12H669.23ZM700.355 188.12C699.475 188.12 698.755 187.82 698.195 187.22C697.595 186.62 697.295 185.9 697.295 185.06C697.295 184.18 697.595 183.44 698.195 182.84C698.755 182.28 699.475 182 700.355 182H728.495C729.295 182 729.995 182.28 730.595 182.84C731.195 183.44 731.495 184.18 731.495 185.06C731.495 185.9 731.195 186.62 730.595 187.22C729.995 187.82 729.295 188.12 728.495 188.12H700.355ZM731.48 188.12C730.6 188.12 729.88 187.82 729.32 187.22C728.72 186.62 728.42 185.9 728.42 185.06C728.42 184.18 728.72 183.44 729.32 182.84C729.88 182.28 730.6 182 731.48 182H759.62C760.42 182 761.12 182.28 761.72 182.84C762.32 183.44 762.62 184.18 762.62 185.06C762.62 185.9 762.32 186.62 761.72 187.22C761.12 187.82 760.42 188.12 759.62 188.12H731.48ZM762.605 188.12C761.725 188.12 761.005 187.82 760.445 187.22C759.845 186.62 759.545 185.9 759.545 185.06C759.545 184.18 759.845 183.44 760.445 182.84C761.005 182.28 761.725 182 762.605 182H790.745C791.545 182 792.245 182.28 792.845 182.84C793.445 183.44 793.745 184.18 793.745 185.06C793.745 185.9 793.445 186.62 792.845 187.22C792.245 187.82 791.545 188.12 790.745 188.12H762.605ZM793.73 188.12C792.85 188.12 792.13 187.82 791.57 187.22C790.97 186.62 790.67 185.9 790.67 185.06C790.67 184.18 790.97 183.44 791.57 182.84C792.13 182.28 792.85 182 793.73 182H821.87C822.67 182 823.37 182.28 823.97 182.84C824.57 183.44 824.87 184.18 824.87 185.06C824.87 185.9 824.57 186.62 823.97 187.22C823.37 187.82 822.67 188.12 821.87 188.12H793.73ZM824.855 188.12C823.975 188.12 823.255 187.82 822.695 187.22C822.095 186.62 821.795 185.9 821.795 185.06C821.795 184.18 822.095 183.44 822.695 182.84C823.255 182.28 823.975 182 824.855 182H852.995C853.795 182 854.495 182.28 855.095 182.84C855.695 183.44 855.995 184.18 855.995 185.06C855.995 185.9 855.695 186.62 855.095 187.22C854.495 187.82 853.795 188.12 852.995 188.12H824.855ZM855.98 188.12C855.1 188.12 854.38 187.82 853.82 187.22C853.22 186.62 852.92 185.9 852.92 185.06C852.92 184.18 853.22 183.44 853.82 182.84C854.38 182.28 855.1 182 855.98 182H884.12C884.92 182 885.62 182.28 886.22 182.84C886.82 183.44 887.12 184.18 887.12 185.06C887.12 185.9 886.82 186.62 886.22 187.22C885.62 187.82 884.92 188.12 884.12 188.12H855.98ZM887.105 188.12C886.225 188.12 885.505 187.82 884.945 187.22C884.345 186.62 884.045 185.9 884.045 185.06C884.045 184.18 884.345 183.44 884.945 182.84C885.505 182.28 886.225 182 887.105 182H915.245C916.045 182 916.745 182.28 917.345 182.84C917.945 183.44 918.245 184.18 918.245 185.06C918.245 185.9 917.945 186.62 917.345 187.22C916.745 187.82 916.045 188.12 915.245 188.12H887.105ZM918.23 188.12C917.35 188.12 916.63 187.82 916.07 187.22C915.47 186.62 915.17 185.9 915.17 185.06C915.17 184.18 915.47 183.44 916.07 182.84C916.63 182.28 917.35 182 918.23 182H946.37C947.17 182 947.87 182.28 948.47 182.84C949.07 183.44 949.37 184.18 949.37 185.06C949.37 185.9 949.07 186.62 948.47 187.22C947.87 187.82 947.17 188.12 946.37 188.12H918.23ZM949.355 188.12C948.475 188.12 947.755 187.82 947.195 187.22C946.595 186.62 946.295 185.9 946.295 185.06C946.295 184.18 946.595 183.44 947.195 182.84C947.755 182.28 948.475 182 949.355 182H977.495C978.295 182 978.995 182.28 979.595 182.84C980.195 183.44 980.495 184.18 980.495 185.06C980.495 185.9 980.195 186.62 979.595 187.22C978.995 187.82 978.295 188.12 977.495 188.12H949.355ZM980.48 188.12C979.6 188.12 978.88 187.82 978.32 187.22C977.72 186.62 977.42 185.9 977.42 185.06C977.42 184.18 977.72 183.44 978.32 182.84C978.88 182.28 979.6 182 980.48 182H1008.62C1009.42 182 1010.12 182.28 1010.72 182.84C1011.32 183.44 1011.62 184.18 1011.62 185.06C1011.62 185.9 1011.32 186.62 1010.72 187.22C1010.12 187.82 1009.42 188.12 1008.62 188.12H980.48ZM1011.61 188.12C1010.72 188.12 1010 187.82 1009.44 187.22C1008.84 186.62 1008.54 185.9 1008.54 185.06C1008.54 184.18 1008.84 183.44 1009.44 182.84C1010 182.28 1010.72 182 1011.61 182H1039.75C1040.55 182 1041.25 182.28 1041.85 182.84C1042.45 183.44 1042.75 184.18 1042.75 185.06C1042.75 185.9 1042.45 186.62 1041.85 187.22C1041.25 187.82 1040.55 188.12 1039.75 188.12H1011.61ZM1042.73 188.12C1041.85 188.12 1041.13 187.82 1040.57 187.22C1039.97 186.62 1039.67 185.9 1039.67 185.06C1039.67 184.18 1039.97 183.44 1040.57 182.84C1041.13 182.28 1041.85 182 1042.73 182H1070.87C1071.67 182 1072.37 182.28 1072.97 182.84C1073.57 183.44 1073.87 184.18 1073.87 185.06C1073.87 185.9 1073.57 186.62 1072.97 187.22C1072.37 187.82 1071.67 188.12 1070.87 188.12H1042.73ZM1073.86 188.12C1072.97 188.12 1072.25 187.82 1071.69 187.22C1071.09 186.62 1070.79 185.9 1070.79 185.06C1070.79 184.18 1071.09 183.44 1071.69 182.84C1072.25 182.28 1072.97 182 1073.86 182H1102C1102.8 182 1103.5 182.28 1104.1 182.84C1104.7 183.44 1105 184.18 1105 185.06C1105 185.9 1104.7 186.62 1104.1 187.22C1103.5 187.82 1102.8 188.12 1102 188.12H1073.86ZM1104.98 188.12C1104.1 188.12 1103.38 187.82 1102.82 187.22C1102.22 186.62 1101.92 185.9 1101.92 185.06C1101.92 184.18 1102.22 183.44 1102.82 182.84C1103.38 182.28 1104.1 182 1104.98 182H1133.12C1133.92 182 1134.62 182.28 1135.22 182.84C1135.82 183.44 1136.12 184.18 1136.12 185.06C1136.12 185.9 1135.82 186.62 1135.22 187.22C1134.62 187.82 1133.92 188.12 1133.12 188.12H1104.98ZM1136.11 188.12C1135.22 188.12 1134.5 187.82 1133.94 187.22C1133.34 186.62 1133.04 185.9 1133.04 185.06C1133.04 184.18 1133.34 183.44 1133.94 182.84C1134.5 182.28 1135.22 182 1136.11 182H1164.25C1165.05 182 1165.75 182.28 1166.35 182.84C1166.95 183.44 1167.25 184.18 1167.25 185.06C1167.25 185.9 1166.95 186.62 1166.35 187.22C1165.75 187.82 1165.05 188.12 1164.25 188.12H1136.11ZM1167.23 188.12C1166.35 188.12 1165.63 187.82 1165.07 187.22C1164.47 186.62 1164.17 185.9 1164.17 185.06C1164.17 184.18 1164.47 183.44 1165.07 182.84C1165.63 182.28 1166.35 182 1167.23 182H1195.37C1196.17 182 1196.87 182.28 1197.47 182.84C1198.07 183.44 1198.37 184.18 1198.37 185.06C1198.37 185.9 1198.07 186.62 1197.47 187.22C1196.87 187.82 1196.17 188.12 1195.37 188.12H1167.23ZM536.884 249C536.004 249 535.264 248.7 534.664 248.1C534.104 247.5 533.824 246.78 533.824 245.94C533.824 245.06 534.104 244.34 534.664 243.78L551.704 223.86C552.904 222.46 553.824 221.14 554.464 219.9C555.144 218.66 555.484 217.48 555.484 216.36C555.484 214.6 555.184 213.08 554.584 211.8C553.984 210.52 553.124 209.54 552.004 208.86C550.884 208.14 549.544 207.78 547.984 207.78C546.464 207.78 545.084 208.18 543.844 208.98C542.644 209.74 541.684 210.78 540.964 212.1C540.284 213.38 539.944 214.8 539.944 216.36C539.944 217.16 539.644 217.86 539.044 218.46C538.484 219.06 537.764 219.36 536.884 219.36C536.044 219.36 535.324 219.06 534.724 218.46C534.124 217.86 533.824 217.16 533.824 216.36C533.824 213.64 534.444 211.22 535.684 209.1C536.924 206.94 538.604 205.24 540.724 204C542.884 202.76 545.304 202.14 547.984 202.14C550.704 202.14 553.064 202.72 555.064 203.88C557.064 205.04 558.604 206.68 559.684 208.8C560.804 210.92 561.364 213.44 561.364 216.36C561.364 217.64 561.084 218.94 560.524 220.26C560.004 221.58 559.324 222.84 558.484 224.04C557.684 225.24 556.864 226.32 556.024 227.28L542.284 242.88H559.084C559.964 242.88 560.704 243.2 561.304 243.84C561.904 244.44 562.204 245.14 562.204 245.94C562.204 246.78 561.904 247.5 561.304 248.1C560.704 248.7 559.964 249 559.084 249H536.884ZM585.537 249C582.497 249 579.897 248.08 577.737 246.24C575.617 244.36 573.997 241.68 572.877 238.2C571.757 234.68 571.197 230.46 571.197 225.54C571.197 220.62 571.757 216.42 572.877 212.94C573.997 209.42 575.617 206.74 577.737 204.9C579.897 203.02 582.497 202.08 585.537 202.08C588.577 202.08 591.157 203.04 593.277 204.96C595.437 206.84 597.077 209.54 598.197 213.06C599.317 216.54 599.877 220.7 599.877 225.54C599.877 230.38 599.317 234.56 598.197 238.08C597.077 241.56 595.437 244.26 593.277 246.18C591.157 248.06 588.577 249 585.537 249ZM585.537 242.76C587.377 242.76 588.897 242.02 590.097 240.54C591.297 239.02 592.197 236.96 592.797 234.36C593.397 231.76 593.697 228.82 593.697 225.54C593.697 222.26 593.397 219.32 592.797 216.72C592.197 214.12 591.297 212.06 590.097 210.54C588.897 209.02 587.377 208.26 585.537 208.26C583.697 208.26 582.177 209.02 580.977 210.54C579.777 212.02 578.877 214.06 578.277 216.66C577.677 219.26 577.377 222.22 577.377 225.54C577.377 228.86 577.677 231.82 578.277 234.42C578.877 237.02 579.777 239.06 580.977 240.54C582.217 242.02 583.737 242.76 585.537 242.76ZM612.845 249C611.965 249 611.225 248.7 610.625 248.1C610.065 247.5 609.785 246.78 609.785 245.94C609.785 245.06 610.065 244.34 610.625 243.78L627.665 223.86C628.865 222.46 629.785 221.14 630.425 219.9C631.105 218.66 631.445 217.48 631.445 216.36C631.445 214.6 631.145 213.08 630.545 211.8C629.945 210.52 629.085 209.54 627.965 208.86C626.845 208.14 625.505 207.78 623.945 207.78C622.425 207.78 621.045 208.18 619.805 208.98C618.605 209.74 617.645 210.78 616.925 212.1C616.245 213.38 615.905 214.8 615.905 216.36C615.905 217.16 615.605 217.86 615.005 218.46C614.445 219.06 613.725 219.36 612.845 219.36C612.005 219.36 611.285 219.06 610.685 218.46C610.085 217.86 609.785 217.16 609.785 216.36C609.785 213.64 610.405 211.22 611.645 209.1C612.885 206.94 614.565 205.24 616.685 204C618.845 202.76 621.265 202.14 623.945 202.14C626.665 202.14 629.025 202.72 631.025 203.88C633.025 205.04 634.565 206.68 635.645 208.8C636.765 210.92 637.325 213.44 637.325 216.36C637.325 217.64 637.045 218.94 636.485 220.26C635.965 221.58 635.285 222.84 634.445 224.04C633.645 225.24 632.825 226.32 631.985 227.28L618.245 242.88H635.045C635.925 242.88 636.665 243.2 637.265 243.84C637.865 244.44 638.165 245.14 638.165 245.94C638.165 246.78 637.865 247.5 637.265 248.1C636.665 248.7 635.925 249 635.045 249H612.845ZM662.878 249C659.878 249 657.218 248.38 654.898 247.14C652.578 245.86 650.758 244.14 649.438 241.98C648.118 239.78 647.458 237.32 647.458 234.6C647.458 233.68 647.718 232.94 648.238 232.38C648.798 231.78 649.458 231.48 650.218 231.48C651.018 231.48 651.678 231.78 652.198 232.38C652.718 232.94 652.978 233.68 652.978 234.6C652.978 236.24 653.398 237.76 654.238 239.16C655.078 240.52 656.218 241.62 657.658 242.46C659.098 243.26 660.718 243.66 662.518 243.66C665.158 243.66 667.278 242.94 668.878 241.5C670.518 240.02 671.338 237.96 671.338 235.32C671.338 233.64 670.978 232.14 670.258 230.82C669.538 229.46 668.558 228.38 667.318 227.58C666.078 226.78 664.678 226.38 663.118 226.38C662.238 226.38 661.498 226.08 660.898 225.48C660.338 224.88 660.058 224.14 660.058 223.26C660.058 222.38 660.338 221.66 660.898 221.1C661.498 220.5 662.238 220.2 663.118 220.2C664.238 220.2 665.318 219.92 666.358 219.36C667.398 218.76 668.258 217.98 668.938 217.02C669.618 216.02 669.958 214.9 669.958 213.66C669.958 211.9 669.318 210.42 668.038 209.22C666.758 208.02 665.118 207.42 663.118 207.42C661.598 207.42 660.198 207.72 658.918 208.32C657.678 208.92 656.678 209.72 655.918 210.72C655.198 211.72 654.838 212.84 654.838 214.08C654.838 215 654.578 215.78 654.058 216.42C653.538 217.02 652.878 217.32 652.078 217.32C651.318 217.32 650.658 217.04 650.098 216.48C649.578 215.88 649.318 215.14 649.318 214.26C649.318 211.94 649.918 209.86 651.118 208.02C652.318 206.18 653.958 204.74 656.038 203.7C658.118 202.62 660.438 202.08 662.998 202.08C665.358 202.08 667.478 202.6 669.358 203.64C671.278 204.64 672.778 206.02 673.858 207.78C674.978 209.5 675.538 211.46 675.538 213.66C675.538 215.22 675.178 216.6 674.458 217.8C673.778 219 672.898 220.04 671.818 220.92C670.738 221.76 669.598 222.46 668.398 223.02C670.518 223.74 672.238 224.72 673.558 225.96C674.878 227.16 675.838 228.56 676.438 230.16C677.078 231.76 677.398 233.5 677.398 235.38C677.398 237.98 676.738 240.32 675.418 242.4C674.098 244.44 672.338 246.06 670.138 247.26C667.938 248.42 665.518 249 662.878 249Z" fill="black"/>
</svg>
