<svg width="1400" height="452" viewBox="0 0 1400 452" fill="none" xmlns="http://www.w3.org/2000/svg">
<path d="M487.645 101H460.475C461.775 100.74 463.335 100.09 464.765 98.79C467.625 96.45 467.755 77.34 467.755 72.14V35.09C467.755 30.02 467.625 15.07 464.765 12.73C463.335 11.43 461.905 10.78 460.475 10.52H491.025C509.095 10.52 532.365 18.71 532.365 40.03C532.365 64.47 508.185 73.7 485.695 73.7C484.135 73.7 482.315 73.57 480.495 73.44V76.3C480.495 81.24 480.625 96.32 483.225 98.79C484.785 100.09 486.215 100.74 487.645 101ZM480.625 11.82L480.495 71.62C482.575 72.01 484.525 72.14 486.345 72.14C502.335 72.14 518.715 62.65 518.715 42.24V42.11C518.585 17.28 502.725 11.82 480.625 11.82ZM544.41 40.16C551.56 39.51 558.58 39.12 565.6 39.12C565.6 44.32 565.6 49.52 565.73 54.59C568.07 46.66 575.74 39.64 584.45 39.64C587.57 39.64 593.16 40.68 593.16 44.58C593.16 47.31 591.47 49 589.39 49C584.19 49.13 583.54 44.06 577.43 44.58C568.2 45.36 565.86 64.21 565.6 70.58C565.47 79.68 565.47 94.76 567.29 97.88C568.33 99.57 570.02 100.61 571.97 101H547.01C549.09 100.61 550.91 99.57 551.82 97.75C554.42 93.59 553.77 72.01 553.77 66.03C553.77 61.87 553.9 48.22 551.69 44.84C550.26 42.37 547.27 40.81 544.41 40.16ZM633.402 102.3C615.072 102.3 602.722 89.43 602.722 70.71C602.722 52.38 614.812 39.12 632.752 39.12C650.952 39.12 663.562 51.86 663.562 70.84C663.562 89.56 651.602 102.3 633.402 102.3ZM632.882 40.16C616.372 40.16 615.332 60.96 615.332 70.71C615.332 80.72 616.892 101.26 633.402 101.26C649.782 101.26 650.952 80.72 650.952 70.84C650.952 60.83 649.262 40.16 632.882 40.16ZM662.411 131.42C661.371 128.04 663.321 125.44 666.311 125.44C666.961 125.44 667.871 125.57 668.651 125.96C671.771 127.13 671.771 135.06 678.401 133.89C686.851 132.46 686.071 110.62 686.071 102.17V69.41C686.071 63.17 686.851 45.49 681.391 41.98C680.481 41.46 678.531 40.42 677.101 40.16C681.391 40.29 693.221 39.12 698.031 39.12V93.98C698.031 112.96 698.811 139.48 670.341 137.01C667.611 136.75 663.711 135.06 662.411 131.42ZM690.231 26.9C685.941 26.9 682.431 23.39 682.431 19.23C682.431 15.33 685.941 11.95 690.231 11.95C694.651 11.95 698.161 15.33 698.161 19.23C698.161 23.39 694.651 26.9 690.231 26.9ZM721.762 71.49C721.762 52.38 733.592 39.12 753.222 39.12C771.552 39.12 782.992 51.86 783.382 70.06H735.152C735.152 85.14 737.752 100.61 756.992 100.61C765.702 100.61 775.972 94.76 781.172 86.18H782.082C777.662 96.45 765.312 102.3 754.912 102.3C735.802 102.3 721.762 90.6 721.762 71.49ZM753.872 40.42C739.702 40.42 736.322 58.75 735.282 68.76H770.642C770.252 59.01 768.822 40.42 753.872 40.42ZM796.055 71.36C796.055 52.9 808.145 39.12 827.125 39.12C832.975 39.12 848.185 41.07 848.185 48.87C848.185 51.6 846.235 52.25 844.025 52.25C837.135 52.25 838.955 39.77 827.255 39.77C811.395 39.77 809.965 58.75 809.965 70.45C809.965 81.89 813.345 100.61 828.165 100.61C835.835 100.61 843.765 97.1 847.795 90.47H849.095C844.545 98.92 835.575 102.3 826.345 102.3C809.055 102.3 796.055 88.13 796.055 71.36ZM860.883 40.03C877.523 39.51 879.603 29.11 880.383 19.1H886.493V39.38H903.913V41.33H886.493V91.38C886.493 96.84 888.833 98.92 891.823 98.92C896.113 98.92 901.833 94.37 902.873 89.95L903.913 90.86C897.803 102.43 891.303 102.3 886.883 102.3C880.383 102.3 874.273 96.84 874.273 90.73V41.33H860.883V40.03ZM358.189 171.13L376.389 171.52L416.039 238.73L455.429 171.52H477.919C476.359 171.91 474.799 172.56 473.629 173.6C470.119 176.46 469.989 195.18 469.989 200.25V238.6C469.989 243.54 470.249 256.67 473.629 259.79C474.929 260.96 476.749 261.61 478.439 262H448.409C450.099 261.61 451.659 261.09 453.089 259.92C456.339 257.45 456.599 242.11 456.599 237.43V173.86L410.969 251.6L370.669 187.25V236.13C370.669 243.93 370.149 260.05 379.899 262H359.749C359.749 262 360.139 262 360.659 261.87C360.789 261.87 360.789 261.87 360.919 261.74C368.329 259.66 368.459 245.1 368.459 238.73V194.53C368.459 188.29 365.599 173.34 358.189 171.13ZM497.399 205.84C495.709 203.24 493.239 201.81 490.249 201.16C495.709 200.64 505.199 200.12 511.309 200.12L511.439 224.56L511.309 242.63C511.309 246.4 511.309 255.89 512.999 258.88C514.039 260.7 515.859 261.61 517.679 262H492.719C494.799 261.61 496.489 260.7 497.529 258.75C499.479 255.11 499.479 245.23 499.479 240.94C499.479 223.78 499.999 211.43 497.399 205.84ZM504.419 187.9C500.129 187.9 496.749 184.39 496.749 180.23C496.749 176.33 500.129 172.95 504.419 172.95C508.969 172.95 512.349 176.33 512.349 180.23C512.349 184.39 508.969 187.9 504.419 187.9ZM531.249 167.62H531.379C536.709 167.1 545.809 166.71 551.269 166.71V240.03C551.269 244.32 551.269 255.11 552.959 258.62C554.129 260.57 555.949 261.48 557.769 262H532.809C534.499 261.48 536.449 260.57 537.489 258.75C539.309 255.37 539.439 244.32 539.439 240.03V189.46C539.439 185.82 539.439 173.6 537.619 171.13C537.099 169.96 536.449 169.57 535.409 169.05L535.279 168.92C533.979 168.14 532.939 167.75 531.249 167.62ZM573.747 232.49C573.747 213.38 585.577 200.12 605.207 200.12C623.537 200.12 634.977 212.86 635.367 231.06H587.137C587.137 246.14 589.737 261.61 608.977 261.61C617.687 261.61 627.957 255.76 633.157 247.18H634.067C629.647 257.45 617.297 263.3 606.897 263.3C587.787 263.3 573.747 251.6 573.747 232.49ZM605.857 201.42C591.687 201.42 588.307 219.75 587.267 229.76H622.627C622.237 220.01 620.807 201.42 605.857 201.42ZM649.08 215.59C649.08 203.37 662.86 197.39 674.82 197.91C679.63 198.17 688.34 199.99 692.89 201.94L693.02 204.93C693.02 208.44 692.76 211.82 692.5 215.2L691.72 215.33C690.55 207.14 683.27 199.47 672.22 199.47C665.2 199.47 659.61 205.19 659.61 212.86C659.61 229.11 696.92 224.04 696.92 246.27C696.92 259.53 681.71 265.64 669.36 265.25C661.04 264.99 655.45 262.52 650.51 259.4C650.38 257.45 650.38 255.5 650.38 253.55C650.38 251.47 650.38 249.52 650.51 247.44L651.42 247.31C653.11 256.15 659.87 263.95 671.57 263.43C680.28 263.04 686.52 258.1 686.39 249.65C686.13 233.01 649.08 238.86 649.08 215.59ZM707.409 201.03C724.049 200.51 726.129 190.11 726.909 180.1H733.019V200.38H750.439V202.33H733.019V252.38C733.019 257.84 735.359 259.92 738.349 259.92C742.639 259.92 748.359 255.37 749.399 250.95L750.439 251.86C744.329 263.43 737.829 263.3 733.409 263.3C726.909 263.3 720.799 257.84 720.799 251.73V202.33H707.409V201.03ZM792.614 263.3C774.284 263.3 761.934 250.43 761.934 231.71C761.934 213.38 774.024 200.12 791.964 200.12C810.164 200.12 822.774 212.86 822.774 231.84C822.774 250.56 810.814 263.3 792.614 263.3ZM792.094 201.16C775.584 201.16 774.544 221.96 774.544 231.71C774.544 241.72 776.104 262.26 792.614 262.26C808.994 262.26 810.164 241.72 810.164 231.84C810.164 221.83 808.474 201.16 792.094 201.16ZM840.185 205.84C838.365 203.24 835.895 201.81 832.775 201.16C838.365 200.64 847.855 200.12 853.965 200.12V210C858.385 205.19 867.095 199.73 875.675 199.73C892.185 199.73 900.375 211.04 900.375 224.17V241.2C900.375 245.1 900.635 255.89 902.325 258.88C903.495 260.57 905.055 261.48 907.005 262H882.045C883.995 261.48 885.685 260.57 886.725 258.75C888.415 255.63 888.545 244.06 888.545 240.03L888.415 225.99C888.415 218.06 888.805 201.68 874.895 201.68C866.575 201.68 857.735 207.27 853.965 212.34L854.095 224.56L853.965 242.63C853.965 246.4 853.965 255.89 855.655 258.88C856.695 260.7 858.515 261.61 860.335 262H835.375C837.455 261.61 839.145 260.7 840.315 258.75C842.135 255.11 842.135 245.23 842.135 240.94C842.135 223.78 842.655 211.43 840.185 205.84ZM918.679 232.49C918.679 213.38 930.509 200.12 950.139 200.12C968.469 200.12 979.909 212.86 980.299 231.06H932.069C932.069 246.14 934.669 261.61 953.909 261.61C962.619 261.61 972.889 255.76 978.089 247.18H978.999C974.579 257.45 962.229 263.3 951.829 263.3C932.719 263.3 918.679 251.6 918.679 232.49ZM950.789 201.42C936.619 201.42 933.239 219.75 932.199 229.76H967.559C967.169 220.01 965.739 201.42 950.789 201.42ZM994.012 215.59C994.012 203.37 1007.79 197.39 1019.75 197.91C1024.56 198.17 1033.27 199.99 1037.82 201.94L1037.95 204.93C1037.95 208.44 1037.69 211.82 1037.43 215.2L1036.65 215.33C1035.48 207.14 1028.2 199.47 1017.15 199.47C1010.13 199.47 1004.54 205.19 1004.54 212.86C1004.54 229.11 1041.85 224.04 1041.85 246.27C1041.85 259.53 1026.64 265.64 1014.29 265.25C1005.97 264.99 1000.38 262.52 995.442 259.4C995.312 257.45 995.312 255.5 995.312 253.55C995.312 251.47 995.312 249.52 995.442 247.44L996.352 247.31C998.042 256.15 1004.8 263.95 1016.5 263.43C1025.21 263.04 1031.45 258.1 1031.32 249.65C1031.06 233.01 994.012 238.86 994.012 215.59ZM537.613 393.24H572.713V399.72H572.293C571.633 393.96 562.693 393.84 558.253 393.84V421.68C558.253 422.7 558.253 425.04 558.373 427.32C558.493 429.54 558.793 431.94 559.333 432.9C559.933 434.04 561.013 434.7 562.213 435H548.293C548.773 434.88 549.253 434.7 549.733 434.4C550.153 434.1 550.633 433.62 551.053 432.9C552.253 431.1 552.133 424.92 552.133 422.52V393.84C547.213 393.84 539.533 393.9 537.973 399.54H537.613V393.24ZM585.13 435C576.01 435.06 571.15 432.48 571.15 426.54C571.15 420.54 577.15 417.48 585.55 417.72C587.17 417.78 588.85 418.2 590.11 418.56V416.34C590.11 412.08 589.57 406.86 583.75 406.86C580.69 406.86 579.55 408.6 578.77 410.28C578.65 410.46 578.59 410.64 578.47 410.82C578.41 411.06 578.29 411.24 578.11 411.42C577.93 411.72 577.81 412.02 577.57 412.32C577.27 412.8 576.79 413.1 575.89 413.1C574.63 413.1 574.03 412.5 574.03 411.3C574.03 407.58 581.53 406.44 584.35 406.44C586.87 406.44 591.07 407.16 592.99 408.78C594.91 410.64 595.57 413.16 595.57 415.74L595.51 426.54C595.51 428.46 595.57 432.24 596.23 433.56C596.77 434.4 597.55 434.82 598.39 435H585.13ZM585.43 418.2C577.75 418.2 576.43 422.52 576.43 426.54C576.43 430.56 577.51 434.64 585.13 434.64C586.39 434.64 588.19 434.64 589.03 433.74C589.03 433.68 589.09 433.62 589.15 433.5C589.87 432.06 589.99 428.4 589.99 426.12L590.05 418.92C588.91 418.62 587.35 418.2 585.43 418.2ZM602.829 406.86C605.409 406.62 609.789 406.38 612.609 406.38V408.84C614.589 407.46 617.289 406.44 620.049 406.44C628.449 406.44 634.269 412.32 634.269 421.08C634.269 429.72 628.149 435.6 619.749 435.6C617.049 435.6 614.349 435.42 612.429 434.52L612.369 442.56C612.369 444.3 612.369 448.68 613.029 450.06C613.569 450.9 614.409 451.32 615.249 451.5H603.789C604.629 451.32 605.469 450.9 606.009 450C606.789 448.32 606.789 443.76 606.789 441.78C606.789 433.86 607.329 411.6 606.249 409.02C605.409 407.82 604.269 407.16 602.829 406.86ZM612.429 433.86C614.469 434.88 617.289 435.12 619.749 435.12C627.309 435.12 628.449 425.64 628.449 421.08C628.449 416.46 627.669 406.92 620.109 406.92C617.289 406.92 614.529 408.18 612.609 409.86L612.429 433.86ZM656.351 406.86C664.031 406.62 664.991 401.82 665.351 397.2H668.171V406.56H676.211V407.46H668.171V430.56C668.171 433.08 669.251 434.04 670.631 434.04C672.611 434.04 675.251 431.94 675.731 429.9L676.211 430.32C673.391 435.66 670.391 435.6 668.351 435.6C665.351 435.6 662.531 433.08 662.531 430.26V407.46H656.351V406.86ZM695.677 435.6C687.217 435.6 681.517 429.66 681.517 421.02C681.517 412.56 687.097 406.44 695.377 406.44C703.777 406.44 709.597 412.32 709.597 421.08C709.597 429.72 704.077 435.6 695.677 435.6ZM695.437 406.92C687.817 406.92 687.337 416.52 687.337 421.02C687.337 425.64 688.057 435.12 695.677 435.12C703.237 435.12 703.777 425.64 703.777 421.08C703.777 416.46 702.997 406.92 695.437 406.92ZM729.34 407.1H741.64C740.2 407.52 739.6 408.6 739.6 410.1C739.6 414.78 747.34 430.56 748.36 432.9C749.74 428.52 756.34 414.18 756.82 410.34C757.12 407.88 753.94 407.64 752.26 407.1L761.92 407.16C759.1 408.18 757.42 412.38 754.9 418.8L748.36 435.18H743.74L735.34 415.2C734.08 412.14 733.06 408.12 729.34 407.1ZM767.408 409.08C766.628 407.88 765.488 407.22 764.108 406.92C766.628 406.68 771.008 406.44 773.828 406.44L773.888 417.72L773.828 426.06C773.828 427.8 773.828 432.18 774.608 433.56C775.088 434.4 775.928 434.82 776.768 435H765.248C766.208 434.82 766.988 434.4 767.468 433.5C768.368 431.82 768.368 427.26 768.368 425.28C768.368 417.36 768.608 411.66 767.408 409.08ZM770.648 400.8C768.668 400.8 767.108 399.18 767.108 397.26C767.108 395.46 768.668 393.9 770.648 393.9C772.748 393.9 774.308 395.46 774.308 397.26C774.308 399.18 772.748 400.8 770.648 400.8ZM784.411 421.38C784.411 412.56 789.871 406.44 798.931 406.44C807.391 406.44 812.671 412.32 812.851 420.72H790.591C790.591 427.68 791.791 434.82 800.671 434.82C804.691 434.82 809.431 432.12 811.831 428.16H812.251C810.211 432.9 804.511 435.6 799.711 435.6C790.891 435.6 784.411 430.2 784.411 421.38ZM799.231 407.04C792.691 407.04 791.131 415.5 790.651 420.12H806.971C806.791 415.62 806.131 407.04 799.231 407.04ZM814.98 407.1H826.92C825.48 407.52 824.88 408.6 824.88 410.1C824.88 414.78 832.38 430.56 833.22 432.9C834.3 429.54 838.26 420.36 840.24 414.54C839.16 411.54 838.2 408.06 834.78 407.1H846.78C845.28 407.52 844.74 408.6 844.74 410.1C844.74 414.78 852.24 430.56 853.14 432.9C854.46 428.52 860.82 414.18 861.3 410.34C861.6 407.88 858.6 407.64 856.86 407.1L866.22 407.16C863.46 408.18 861.9 412.38 859.38 418.8L853.14 435.18H848.64L840.72 415.68C840.36 416.64 839.94 417.72 839.52 418.8L833.22 435.18H828.84L820.74 415.2C819.54 412.14 818.58 408.12 814.98 407.1Z" fill="black"/>
<path d="M487.645 101V103L488.003 99.0323L487.645 101ZM460.475 101L460.083 99.0388L460.475 103V101ZM464.765 98.79L463.499 97.2421L463.458 97.2751L463.42 97.3101L464.765 98.79ZM464.765 12.73L463.42 14.2099L463.458 14.2449L463.499 14.2779L464.765 12.73ZM460.475 10.52V8.51999L460.117 12.4877L460.475 10.52ZM480.495 73.44L480.637 71.4451L478.495 71.292V73.44H480.495ZM483.225 98.79L481.848 100.24L481.895 100.285L481.945 100.326L483.225 98.79ZM480.625 11.82V9.81999H478.629L478.625 11.8156L480.625 11.82ZM480.495 71.62L478.495 71.6157L478.491 73.2792L480.126 73.5857L480.495 71.62ZM518.715 42.11H520.715L520.715 42.0995L518.715 42.11ZM487.645 99H460.475V103H487.645V99ZM460.867 102.961C462.487 102.637 464.386 101.837 466.11 100.27L463.42 97.3101C462.284 98.3429 461.063 98.8428 460.083 99.0388L460.867 102.961ZM466.031 100.338C466.824 99.6894 467.289 98.7018 467.592 97.8745C467.923 96.9727 468.187 95.8946 468.404 94.7399C468.84 92.4237 469.131 89.5623 469.328 86.6735C469.723 80.8823 469.755 74.7484 469.755 72.14H465.755C465.755 74.7316 465.722 80.7527 465.337 86.4015C465.144 89.2327 464.866 91.9126 464.473 94.0001C464.276 95.0473 464.061 95.8866 463.837 96.4982C463.585 97.1842 463.421 97.3056 463.499 97.2421L466.031 100.338ZM469.755 72.14V35.09H465.755V72.14H469.755ZM469.755 35.09C469.755 32.5476 469.723 27.472 469.326 22.7196C469.127 20.3498 468.833 17.9958 468.388 16.0516C468.166 15.0807 467.894 14.1571 467.551 13.3624C467.223 12.6033 466.752 11.7718 466.031 11.1821L463.499 14.2779C463.493 14.2732 463.651 14.4208 463.878 14.947C464.09 15.4375 464.297 16.1054 464.489 16.9443C464.873 18.6199 465.148 20.759 465.339 23.0529C465.722 27.628 465.755 32.5624 465.755 35.09H469.755ZM466.11 11.2501C464.413 9.70732 462.644 8.8816 460.833 8.55226L460.117 12.4877C461.166 12.6784 462.257 13.1527 463.42 14.2099L466.11 11.2501ZM460.475 12.52H491.025V8.51999H460.475V12.52ZM491.025 12.52C499.809 12.52 509.771 14.5191 517.463 19.0074C525.087 23.456 530.365 30.2507 530.365 40.03H534.365C534.365 28.4893 528.008 20.529 519.479 15.5526C511.019 10.6159 500.311 8.51999 491.025 8.51999V12.52ZM530.365 40.03C530.365 51.4507 524.776 59.2643 516.428 64.3192C507.985 69.4315 496.714 71.7 485.695 71.7V75.7C497.166 75.7 509.23 73.3535 518.5 67.7408C527.864 62.0707 534.365 53.0492 534.365 40.03H530.365ZM485.695 71.7C484.221 71.7 482.478 71.5765 480.637 71.4451L480.353 75.4349C482.152 75.5635 484.049 75.7 485.695 75.7V71.7ZM478.495 73.44V76.3H482.495V73.44H478.495ZM478.495 76.3C478.495 78.7786 478.527 83.8469 478.891 88.6231C479.072 91.0054 479.34 93.3724 479.743 95.3312C479.944 96.3093 480.188 97.2357 480.494 98.033C480.784 98.7896 481.201 99.6254 481.848 100.24L484.603 97.34C484.616 97.3528 484.574 97.3155 484.495 97.1795C484.418 97.0477 484.327 96.8587 484.229 96.6012C484.03 96.0817 483.837 95.3861 483.661 94.526C483.308 92.8083 483.055 90.6334 482.879 88.3194C482.528 83.7031 482.495 78.7614 482.495 76.3H478.495ZM481.945 100.326C483.732 101.816 485.472 102.638 487.287 102.968L488.003 99.0323C486.958 98.8423 485.838 98.3644 484.505 97.2536L481.945 100.326ZM478.625 11.8156L478.495 71.6157L482.495 71.6243L482.625 11.8243L478.625 11.8156ZM480.126 73.5857C482.352 74.003 484.428 74.14 486.345 74.14V70.14C484.622 70.14 482.798 70.017 480.864 69.6543L480.126 73.5857ZM486.345 74.14C494.707 74.14 503.269 71.6628 509.783 66.3994C516.352 61.0918 520.715 53.0425 520.715 42.24H516.715C516.715 51.8475 512.888 58.7482 507.269 63.2881C501.596 67.8722 493.973 70.14 486.345 70.14V74.14ZM520.715 42.24V42.11H516.715V42.24H520.715ZM520.715 42.0995C520.648 29.2172 516.461 20.9218 509.014 15.9866C501.75 11.1734 491.746 9.81999 480.625 9.81999V13.82C491.604 13.82 500.58 15.1966 506.804 19.3209C512.844 23.3232 516.652 30.1727 516.715 42.1205L520.715 42.0995ZM544.41 40.16L544.229 38.1682L543.967 42.1103L544.41 40.16ZM565.6 39.12H567.6V37.12H565.6V39.12ZM565.73 54.59L563.731 54.6413L567.649 55.156L565.73 54.59ZM589.39 49V47H589.365L589.34 47.0006L589.39 49ZM577.43 44.58L577.599 46.5729L577.6 46.5728L577.43 44.58ZM565.6 70.58L563.602 70.4984L563.601 70.5249L563.601 70.5514L565.6 70.58ZM567.29 97.88L565.563 98.8877L565.575 98.9081L565.587 98.9282L567.29 97.88ZM571.97 101V103L572.363 99.0388L571.97 101ZM547.01 101L546.642 99.0343L547.01 103V101ZM551.82 97.75L550.124 96.69L550.074 96.7706L550.031 96.8556L551.82 97.75ZM551.69 44.84L549.959 45.8421L549.987 45.8891L550.016 45.9345L551.69 44.84ZM544.591 42.1518C551.696 41.5059 558.654 41.12 565.6 41.12V37.12C558.506 37.12 551.424 37.5141 544.229 38.1682L544.591 42.1518ZM563.6 39.12C563.6 44.3152 563.6 49.5412 563.731 54.6413L567.73 54.5387C567.6 49.4988 567.6 44.3248 567.6 39.12H563.6ZM567.649 55.156C569.789 47.9035 576.795 41.64 584.45 41.64V37.64C574.686 37.64 566.352 45.4165 563.812 54.024L567.649 55.156ZM584.45 41.64C585.849 41.64 587.741 41.8808 589.204 42.4927C590.696 43.1169 591.16 43.8317 591.16 44.58H595.16C595.16 41.4283 592.829 39.6731 590.747 38.8023C588.635 37.9192 586.172 37.64 584.45 37.64V41.64ZM591.16 44.58C591.16 46.4229 590.16 47 589.39 47V51C592.78 51 595.16 48.1971 595.16 44.58H591.16ZM589.34 47.0006C587.535 47.0458 586.606 46.289 584.954 45.0457C584.15 44.4407 583.154 43.7182 581.888 43.2123C580.587 42.6926 579.088 42.4317 577.261 42.5872L577.6 46.5728C578.828 46.4683 579.701 46.6462 580.403 46.9267C581.14 47.2212 581.777 47.6606 582.549 48.2418C584.049 49.371 586.046 51.0842 589.44 50.9994L589.34 47.0006ZM577.262 42.5871C574.216 42.8445 571.876 44.5999 570.14 46.8558C568.417 49.0935 567.164 51.9696 566.244 54.8812C564.402 60.7143 563.736 67.2098 563.602 70.4984L567.599 70.6616C567.724 67.5802 568.359 61.4657 570.059 56.0863C570.91 53.3916 571.989 51.0108 573.309 49.2958C574.616 47.5989 576.03 46.7055 577.599 46.5729L577.262 42.5871ZM563.601 70.5514C563.535 75.1092 563.502 81.1985 563.716 86.5522C563.822 89.2258 563.992 91.7529 564.256 93.8304C564.388 94.8684 564.548 95.8256 564.744 96.6487C564.933 97.4396 565.187 98.2429 565.563 98.8877L569.018 96.8723C568.939 96.7371 568.794 96.3866 568.635 95.7201C568.484 95.0858 568.346 94.2819 568.224 93.3253C567.981 91.4133 567.817 89.0167 567.712 86.3928C567.503 81.1515 567.535 75.1508 567.6 70.6086L563.601 70.5514ZM565.587 98.9282C566.962 101.163 569.171 102.48 571.578 102.961L572.363 99.0388C570.87 98.7403 569.699 97.9774 568.994 96.8318L565.587 98.9282ZM571.97 99H547.01V103H571.97V99ZM547.379 102.966C549.848 102.503 552.331 101.202 553.609 98.6444L550.031 96.8556C549.49 97.9384 548.332 98.7173 546.642 99.0343L547.379 102.966ZM553.516 98.81C554.021 98.0031 554.354 96.9491 554.599 95.8882C554.854 94.7863 555.052 93.4964 555.209 92.1038C555.524 89.3167 555.688 85.9751 555.77 82.6213C555.933 75.9315 555.77 68.9452 555.77 66.03H551.77C551.77 69.0948 551.933 75.8885 551.771 82.5237C551.69 85.8324 551.53 89.0395 551.234 91.6555C551.087 92.9646 550.909 94.0897 550.702 94.9876C550.485 95.9265 550.27 96.4569 550.124 96.69L553.516 98.81ZM555.77 66.03C555.77 63.9689 555.803 59.4537 555.556 55.0307C555.432 52.8209 555.236 50.5883 554.921 48.6681C554.622 46.8435 554.169 44.977 553.364 43.7455L550.016 45.9345C550.316 46.393 550.676 47.5003 550.974 49.3157C551.256 51.0355 551.442 53.1091 551.562 55.2543C551.802 59.5413 551.77 63.9311 551.77 66.03H555.77ZM553.421 43.8379C551.596 40.6861 547.979 38.92 544.854 38.2097L543.967 42.1103C546.562 42.7 548.924 44.0539 549.959 45.8421L553.421 43.8379ZM633.402 100.3C624.722 100.3 617.59 97.2632 612.626 92.1341C607.656 86.9991 604.722 79.6241 604.722 70.71H600.722C600.722 80.5159 603.964 88.9359 609.752 94.9159C615.545 100.902 623.753 104.3 633.402 104.3V100.3ZM604.722 70.71C604.722 61.987 607.594 54.5999 612.468 49.4104C617.331 44.2321 624.299 41.12 632.752 41.12V37.12C623.266 37.12 615.219 40.6379 609.552 46.6721C603.896 52.6951 600.722 61.103 600.722 70.71H604.722ZM632.752 41.12C641.371 41.12 648.539 44.127 653.552 49.2599C658.567 54.3958 661.562 61.8011 661.562 70.84H665.562C665.562 60.8988 662.252 52.4442 656.413 46.4651C650.571 40.483 642.334 37.12 632.752 37.12V41.12ZM661.562 70.84C661.562 79.7715 658.715 87.1146 653.86 92.2103C649.013 97.2965 642.017 100.3 633.402 100.3V104.3C642.988 104.3 651.072 100.933 656.755 94.9697C662.429 89.0154 665.562 80.6285 665.562 70.84H661.562ZM632.882 38.16C628.294 38.16 624.662 39.6205 621.863 42.0527C619.104 44.4507 617.269 47.691 616.036 51.0979C613.583 57.8729 613.332 65.8189 613.332 70.71H617.332C617.332 65.8511 617.602 58.5221 619.797 52.4596C620.887 49.4478 622.408 46.8787 624.487 45.072C626.527 43.2995 629.216 42.16 632.882 42.16V38.16ZM613.332 70.71C613.332 75.7614 613.717 83.709 616.309 90.4561C617.613 93.8485 619.518 97.0556 622.324 99.4229C625.167 101.821 628.821 103.26 633.402 103.26V99.26C629.728 99.26 626.997 98.1315 624.903 96.3655C622.774 94.5688 621.193 92.0153 620.043 89.0214C617.728 82.996 617.332 75.6686 617.332 70.71H613.332ZM633.402 103.26C637.956 103.26 641.569 101.818 644.361 99.4112C647.114 97.038 648.954 93.828 650.197 90.4446C652.669 83.7169 652.952 75.8029 652.952 70.84H648.952C648.952 75.7571 648.651 83.0531 646.443 89.0654C645.345 92.052 643.822 94.5945 641.749 96.3813C639.715 98.1349 637.039 99.26 633.402 99.26V103.26ZM652.952 70.84C652.952 65.7799 652.534 57.8039 649.926 51.028C648.616 47.6225 646.709 44.4016 643.912 42.0227C641.078 39.612 637.438 38.16 632.882 38.16V42.16C636.516 42.16 639.23 43.2917 641.32 45.0695C643.448 46.879 645.034 49.4512 646.193 52.4645C648.526 58.5261 648.952 65.8901 648.952 70.84H652.952ZM662.411 131.42L660.499 132.008L660.512 132.051L660.527 132.093L662.411 131.42ZM668.651 125.96L667.756 127.749L667.85 127.796L667.948 127.833L668.651 125.96ZM678.401 133.89L678.067 131.918L678.053 131.92L678.401 133.89ZM681.391 41.98L682.472 40.2976L682.428 40.2694L682.383 40.2435L681.391 41.98ZM677.101 40.16L677.161 38.1609L676.743 42.1277L677.101 40.16ZM698.031 39.12H700.031V37.12H698.031V39.12ZM670.341 137.01L670.151 139.001L670.159 139.002L670.168 139.003L670.341 137.01ZM664.322 130.832C663.95 129.622 664.169 128.778 664.502 128.289C664.83 127.808 665.421 127.44 666.311 127.44V123.44C664.211 123.44 662.332 124.372 661.197 126.036C660.067 127.692 659.832 129.838 660.499 132.008L664.322 130.832ZM666.311 127.44C666.751 127.44 667.332 127.537 667.756 127.749L669.545 124.171C668.409 123.603 667.17 123.44 666.311 123.44V127.44ZM667.948 127.833C668.052 127.872 668.339 128.059 668.85 128.898C669.087 129.286 669.319 129.721 669.596 130.237C669.863 130.734 670.166 131.297 670.506 131.85C671.178 132.943 672.098 134.177 673.479 135.017C674.924 135.897 676.671 136.226 678.748 135.86L678.053 131.92C676.816 132.139 676.076 131.916 675.559 131.601C674.977 131.247 674.46 130.644 673.913 129.755C673.644 129.316 673.392 128.852 673.121 128.346C672.86 127.86 672.572 127.318 672.266 126.816C671.693 125.876 670.809 124.633 669.353 124.087L667.948 127.833ZM678.734 135.862C681.788 135.345 683.739 133.007 684.975 130.367C686.22 127.709 686.948 124.34 687.388 120.918C688.27 114.06 688.071 106.314 688.071 102.17H684.071C684.071 106.476 684.261 113.875 683.421 120.407C683 123.68 682.338 126.568 681.353 128.67C680.359 130.792 679.238 131.72 678.067 131.918L678.734 135.862ZM688.071 102.17V69.41H684.071V102.17H688.071ZM688.071 69.41C688.071 66.3806 688.268 60.2517 687.771 54.499C687.522 51.6182 687.092 48.7235 686.336 46.2789C685.605 43.9125 684.451 41.57 682.472 40.2976L680.309 43.6624C681.06 44.145 681.856 45.3288 682.515 47.4596C683.149 49.5121 683.547 52.0856 683.786 54.8435C684.263 60.3683 684.071 66.1994 684.071 69.41H688.071ZM682.383 40.2435C681.898 39.9663 681.127 39.5453 680.274 39.1544C679.45 38.7767 678.423 38.3677 677.458 38.1923L676.743 42.1277C677.208 42.2123 677.871 42.4533 678.607 42.7906C679.315 43.1147 679.974 43.4737 680.398 43.7165L682.383 40.2435ZM677.04 42.1591C679.308 42.2278 683.461 41.957 687.505 41.6842C691.644 41.405 695.712 41.12 698.031 41.12V37.12C695.539 37.12 691.288 37.42 687.236 37.6933C683.09 37.973 679.183 38.2222 677.161 38.1609L677.04 42.1591ZM696.031 39.12V93.98H700.031V39.12H696.031ZM696.031 93.98C696.031 103.618 696.195 114.551 692.997 122.817C691.426 126.876 689.091 130.15 685.625 132.298C682.155 134.448 677.326 135.609 670.514 135.017L670.168 139.003C677.59 139.646 683.341 138.419 687.731 135.698C692.126 132.975 694.934 128.895 696.727 124.26C700.257 115.139 700.031 103.322 700.031 93.98H696.031ZM670.53 135.019C668.199 134.797 665.227 133.359 664.294 130.747L660.527 132.093C662.195 136.761 667.023 138.703 670.151 139.001L670.53 135.019ZM690.231 24.9C687.023 24.9 684.431 22.2637 684.431 19.23H680.431C680.431 24.5163 684.858 28.9 690.231 28.9V24.9ZM684.431 19.23C684.431 16.5444 686.932 13.95 690.231 13.95V9.94999C684.949 9.94999 680.431 14.1156 680.431 19.23H684.431ZM690.231 13.95C693.681 13.95 696.161 16.5652 696.161 19.23H700.161C700.161 14.0948 695.62 9.94999 690.231 9.94999V13.95ZM696.161 19.23C696.161 22.2423 693.59 24.9 690.231 24.9V28.9C695.712 28.9 700.161 24.5377 700.161 19.23H696.161ZM783.382 70.06V72.06H785.425L785.381 70.0172L783.382 70.06ZM735.152 70.06V68.06H733.152V70.06H735.152ZM781.172 86.18V84.18H780.045L779.461 85.1434L781.172 86.18ZM782.082 86.18L783.919 86.9706L785.12 84.18H782.082V86.18ZM735.282 68.76L733.293 68.5533L733.063 70.76H735.282V68.76ZM770.642 68.76V70.76H772.723L772.64 68.6801L770.642 68.76ZM723.762 71.49C723.762 62.3461 726.587 54.78 731.581 49.5153C736.563 44.2641 743.876 41.12 753.222 41.12V37.12C742.938 37.12 734.52 40.6059 728.68 46.7622C722.852 52.905 719.762 61.5239 719.762 71.49H723.762ZM753.222 41.12C761.901 41.12 768.799 44.1228 773.581 49.1443C778.378 54.1815 781.196 61.4092 781.382 70.1028L785.381 70.0172C785.178 60.5108 782.08 52.2685 776.478 46.3857C770.86 40.4872 762.873 37.12 753.222 37.12V41.12ZM783.382 68.06H735.152V72.06H783.382V68.06ZM733.152 70.06C733.152 77.6249 733.785 85.7037 737.09 91.9281C738.769 95.0884 741.147 97.7938 744.47 99.6935C747.784 101.588 751.913 102.61 756.992 102.61V98.61C752.451 98.61 749.04 97.6985 746.455 96.2208C743.88 94.7487 742 92.6441 740.623 90.0519C737.819 84.7713 737.152 77.5751 737.152 70.06H733.152ZM756.992 102.61C766.459 102.61 777.351 96.3439 782.882 87.2166L779.461 85.1434C774.593 93.1761 764.945 98.61 756.992 98.61V102.61ZM781.172 88.18H782.082V84.18H781.172V88.18ZM780.245 85.3894C776.23 94.7188 764.765 100.3 754.912 100.3V104.3C765.859 104.3 779.094 98.1812 783.919 86.9706L780.245 85.3894ZM754.912 100.3C745.758 100.3 737.977 97.5008 732.509 92.5753C727.064 87.6704 723.762 80.5242 723.762 71.49H719.762C719.762 81.5658 723.479 89.8246 729.832 95.5472C736.162 101.249 744.955 104.3 754.912 104.3V100.3ZM753.872 38.42C745.688 38.42 740.754 43.8009 737.844 49.9844C734.948 56.1363 733.817 63.5007 733.293 68.5533L737.271 68.9667C737.786 64.0092 738.866 57.2037 741.463 51.6881C744.044 46.2041 747.886 42.42 753.872 42.42V38.42ZM735.282 70.76H770.642V66.76H735.282V70.76ZM772.64 68.6801C772.446 63.8138 771.99 56.4218 769.581 50.2106C768.369 47.0837 766.615 44.1297 764.035 41.9495C761.418 39.7374 758.063 38.42 753.872 38.42V42.42C757.155 42.42 759.586 43.4263 761.453 45.0046C763.358 46.6146 764.79 48.9176 765.852 51.6569C767.993 57.1782 768.448 63.9562 768.643 68.8399L772.64 68.6801ZM847.795 90.47V88.47H846.67L846.086 89.4312L847.795 90.47ZM849.095 90.47L850.856 91.4182L852.443 88.47H849.095V90.47ZM798.055 71.36C798.055 62.5667 800.93 55.0183 805.931 49.6857C810.919 44.3672 818.144 41.12 827.125 41.12V37.12C817.126 37.12 808.816 40.7628 803.013 46.9493C797.225 53.1217 794.055 61.6933 794.055 71.36H798.055ZM827.125 41.12C829.903 41.12 834.95 41.5914 839.235 42.9734C841.381 43.6659 843.19 44.5414 844.427 45.5848C845.627 46.5962 846.185 47.6631 846.185 48.87H850.185C850.185 46.1769 848.842 44.0751 847.006 42.5271C845.209 41.0111 842.85 39.9366 840.463 39.1666C835.679 37.6236 830.197 37.12 827.125 37.12V41.12ZM846.185 48.87C846.185 49.3159 846.105 49.5554 846.049 49.6719C845.998 49.7758 845.934 49.8468 845.832 49.9142C845.564 50.0911 845.007 50.25 844.025 50.25V54.25C845.253 54.25 846.775 54.0839 848.035 53.2533C849.455 52.3162 850.185 50.7836 850.185 48.87H846.185ZM844.025 50.25C843.054 50.25 842.394 49.8713 841.676 49.0149C840.83 48.0068 840.209 46.7354 839.159 44.9823C838.188 43.3615 836.939 41.5228 835.031 40.1119C833.075 38.6657 830.57 37.77 827.255 37.77V41.77C829.79 41.77 831.444 42.4342 832.653 43.3281C833.91 44.2572 834.83 45.5385 835.728 47.0377C836.546 48.4046 837.494 50.2532 838.611 51.5851C839.855 53.0687 841.55 54.25 844.025 54.25V50.25ZM827.255 37.77C822.856 37.77 819.333 39.0989 816.585 41.3794C813.871 43.6313 812.039 46.7057 810.791 50.017C808.312 56.5921 807.965 64.582 807.965 70.45H811.965C811.965 64.618 812.332 57.2679 814.534 51.428C815.625 48.5318 817.124 46.1299 819.14 44.4575C821.12 42.8136 823.723 41.77 827.255 41.77V37.77ZM807.965 70.45C807.965 76.3083 808.822 84.1606 811.678 90.6278C814.556 97.1477 819.668 102.61 828.165 102.61V98.61C821.842 98.61 817.853 94.7123 815.337 89.0122C812.797 83.2594 811.965 76.0317 811.965 70.45H807.965ZM828.165 102.61C836.365 102.61 845.032 98.8663 849.504 91.5088L846.086 89.4312C842.498 95.3337 835.304 98.61 828.165 98.61V102.61ZM847.795 92.47H849.095V88.47H847.795V92.47ZM847.334 89.5218C843.257 97.0937 835.144 100.3 826.345 100.3V104.3C836.006 104.3 845.833 100.746 850.856 91.4182L847.334 89.5218ZM826.345 100.3C810.236 100.3 798.055 87.1039 798.055 71.36H794.055C794.055 89.1561 807.873 104.3 826.345 104.3V100.3ZM860.883 40.03L860.821 38.031L858.883 38.0915V40.03H860.883ZM880.383 19.1V17.1H878.533L878.389 18.9446L880.383 19.1ZM886.493 19.1H888.493V17.1H886.493V19.1ZM886.493 39.38H884.493V41.38H886.493V39.38ZM903.913 39.38H905.913V37.38H903.913V39.38ZM903.913 41.33V43.33H905.913V41.33H903.913ZM886.493 41.33V39.33H884.493V41.33H886.493ZM902.873 89.95L904.19 88.4448L901.688 86.2553L900.926 89.4919L902.873 89.95ZM903.913 90.86L905.682 91.7939L906.42 90.3959L905.23 89.3548L903.913 90.86ZM874.273 41.33H876.273V39.33H874.273V41.33ZM860.883 41.33H858.883V43.33H860.883V41.33ZM860.946 42.029C869.719 41.7549 875.077 38.8321 878.228 34.2583C881.26 29.8553 881.988 24.2532 882.377 19.2554L878.389 18.9446C877.999 23.9568 877.296 28.5597 874.934 31.9892C872.689 35.2479 868.687 37.7851 860.821 38.031L860.946 42.029ZM880.383 21.1H886.493V17.1H880.383V21.1ZM884.493 19.1V39.38H888.493V19.1H884.493ZM886.493 41.38H903.913V37.38H886.493V41.38ZM901.913 39.38V41.33H905.913V39.38H901.913ZM903.913 39.33H886.493V43.33H903.913V39.33ZM884.493 41.33V91.38H888.493V41.33H884.493ZM884.493 91.38C884.493 94.3561 885.125 96.754 886.473 98.4443C887.875 100.203 889.83 100.92 891.823 100.92V96.92C890.827 96.92 890.116 96.5972 889.601 95.9507C889.031 95.236 888.493 93.8639 888.493 91.38H884.493ZM891.823 100.92C894.594 100.92 897.529 99.4985 899.822 97.6495C902.124 95.7939 904.163 93.1993 904.82 90.4081L900.926 89.4919C900.543 91.1207 899.202 93.0111 897.312 94.5355C895.413 96.0665 893.343 96.92 891.823 96.92V100.92ZM901.556 91.4552L902.596 92.3652L905.23 89.3548L904.19 88.4448L901.556 91.4552ZM902.145 89.9261C899.229 95.4472 896.351 97.9372 893.898 99.1162C891.416 100.309 889.117 100.3 886.883 100.3V104.3C889.069 104.3 892.23 104.356 895.631 102.721C899.061 101.073 902.487 97.8428 905.682 91.7939L902.145 89.9261ZM886.883 100.3C884.183 100.3 881.499 99.1575 879.486 97.3268C877.471 95.4934 876.273 93.1083 876.273 90.73H872.273C872.273 94.4617 874.13 97.8616 876.795 100.286C879.462 102.713 883.083 104.3 886.883 104.3V100.3ZM876.273 90.73V41.33H872.273V90.73H876.273ZM874.273 39.33H860.883V43.33H874.273V39.33ZM862.883 41.33V40.03H858.883V41.33H862.883ZM358.189 171.13L358.232 169.13L357.617 173.047L358.189 171.13ZM376.389 171.52L378.111 170.504L377.545 169.544L376.432 169.52L376.389 171.52ZM416.039 238.73L414.316 239.746L416.045 242.676L417.764 239.741L416.039 238.73ZM455.429 171.52V169.52H454.283L453.703 170.509L455.429 171.52ZM477.919 171.52L478.404 173.46L477.919 169.52V171.52ZM473.629 173.6L474.892 175.15L474.926 175.123L474.958 175.095L473.629 173.6ZM473.629 259.79L472.272 261.26L472.282 261.268L472.291 261.277L473.629 259.79ZM478.439 262V264L478.889 260.051L478.439 262ZM448.409 262L447.959 260.051L448.409 264V262ZM453.089 259.92L451.879 258.328L451.85 258.349L451.822 258.372L453.089 259.92ZM456.599 173.86H458.599V166.502L454.874 172.848L456.599 173.86ZM410.969 251.6L409.274 252.662L411.024 255.457L412.694 252.612L410.969 251.6ZM370.669 187.25L372.364 186.188L368.669 180.288V187.25H370.669ZM379.899 262V264L380.291 260.039L379.899 262ZM360.659 261.87V259.87H360.413L360.174 259.93L360.659 261.87ZM360.919 261.74L360.378 259.814L359.875 259.956L359.505 260.326L360.919 261.74ZM358.146 173.13L376.346 173.52L376.432 169.52L358.232 169.13L358.146 173.13ZM374.666 172.536L414.316 239.746L417.761 237.714L378.111 170.504L374.666 172.536ZM417.764 239.741L457.154 172.531L453.703 170.509L414.313 237.719L417.764 239.741ZM455.429 173.52H477.919V169.52H455.429V173.52ZM477.434 169.58C475.705 170.012 473.802 170.77 472.3 172.105L474.958 175.095C475.796 174.35 477.013 173.808 478.404 173.46L477.434 169.58ZM472.366 172.05C471.556 172.709 471.013 173.665 470.625 174.573C470.221 175.52 469.896 176.633 469.629 177.816C469.093 180.185 468.738 183.058 468.499 185.931C468.021 191.689 467.989 197.706 467.989 200.25H471.989C471.989 197.724 472.022 191.846 472.486 186.262C472.718 183.463 473.054 180.803 473.53 178.699C473.768 177.645 474.029 176.787 474.304 176.143C474.595 175.461 474.824 175.206 474.892 175.15L472.366 172.05ZM467.989 200.25V238.6H471.989V200.25H467.989ZM467.989 238.6C467.989 241.091 468.054 245.699 468.554 250.103C468.804 252.302 469.169 254.511 469.711 256.408C470.23 258.222 471.002 260.087 472.272 261.26L474.985 258.32C474.566 257.933 474.037 256.986 473.557 255.307C473.1 253.71 472.766 251.743 472.529 249.652C472.054 245.476 471.989 241.049 471.989 238.6H467.989ZM472.291 261.277C473.971 262.788 476.191 263.534 477.989 263.949L478.889 260.051C477.307 259.686 475.887 259.132 474.967 258.303L472.291 261.277ZM478.439 260H448.409V264H478.439V260ZM448.859 263.949C450.663 263.532 452.574 262.925 454.355 261.468L451.822 258.372C450.743 259.255 449.535 259.688 447.959 260.051L448.859 263.949ZM454.299 261.512C455.068 260.928 455.597 260.094 455.977 259.3C456.37 258.478 456.685 257.524 456.945 256.524C457.463 254.521 457.813 252.109 458.053 249.702C458.534 244.875 458.599 239.792 458.599 237.43H454.599C454.599 239.748 454.534 244.675 454.072 249.305C453.841 251.627 453.516 253.806 453.072 255.521C452.85 256.378 452.612 257.065 452.369 257.573C452.113 258.109 451.922 258.295 451.879 258.328L454.299 261.512ZM458.599 237.43V173.86H454.599V237.43H458.599ZM454.874 172.848L409.244 250.588L412.694 252.612L458.324 174.872L454.874 172.848ZM412.664 250.538L372.364 186.188L368.974 188.312L409.274 252.662L412.664 250.538ZM368.669 187.25V236.13H372.669V187.25H368.669ZM368.669 236.13C368.669 239.946 368.529 246.168 369.669 251.665C370.787 257.051 373.354 262.731 379.507 263.961L380.291 260.039C376.694 259.319 374.646 255.964 373.586 250.853C372.549 245.852 372.669 240.114 372.669 236.13H368.669ZM379.899 260H359.749V264H379.899V260ZM359.749 262C359.749 264 359.749 264 359.75 264C359.75 264 359.75 264 359.75 264C359.751 264 359.751 264 359.752 264C359.752 264 359.753 264 359.754 264C359.756 264 359.758 264 359.761 264C359.765 264 359.77 264 359.775 264C359.785 264 359.797 264 359.81 263.999C359.837 263.999 359.87 263.998 359.909 263.996C359.986 263.992 360.087 263.986 360.208 263.974C360.447 263.95 360.772 263.903 361.144 263.81L360.174 259.93C360.026 259.967 359.896 259.985 359.81 259.994C359.768 259.998 359.739 259.999 359.727 260C359.721 260 359.72 260 359.723 260C359.725 260 359.728 260 359.732 260C359.734 260 359.737 260 359.739 260C359.741 260 359.742 260 359.744 260C359.745 260 359.746 260 359.746 260C359.747 260 359.747 260 359.748 260C359.748 260 359.748 260 359.748 260C359.749 260 359.749 260 359.749 262ZM360.659 263.87C360.669 263.87 360.705 263.87 360.742 263.869C360.78 263.869 360.85 263.867 360.935 263.858C361.132 263.838 361.397 263.786 361.683 263.643C361.935 263.517 362.107 263.367 362.18 263.302C362.248 263.24 362.316 263.172 362.333 263.154L359.505 260.326C359.457 260.373 359.476 260.354 359.504 260.329C359.536 260.3 359.675 260.175 359.894 260.065C360.148 259.938 360.381 259.894 360.537 259.878C360.638 259.868 360.728 259.87 360.659 259.87V263.87ZM361.459 263.666C363.946 262.968 365.709 261.241 366.938 259.192C368.155 257.163 368.925 254.704 369.427 252.244C370.432 247.324 370.459 241.902 370.459 238.73H366.459C366.459 241.928 366.421 246.971 365.508 251.444C365.051 253.68 364.399 255.649 363.508 257.134C362.629 258.599 361.597 259.472 360.378 259.814L361.459 263.666ZM370.459 238.73V194.53H366.459V238.73H370.459ZM370.459 194.53C370.459 191.191 369.708 185.674 367.995 180.671C367.136 178.163 366.005 175.693 364.54 173.668C363.079 171.65 361.182 169.936 358.76 169.213L357.617 173.047C358.901 173.429 360.14 174.412 361.3 176.014C362.454 177.609 363.428 179.681 364.21 181.967C365.78 186.551 366.459 191.629 366.459 194.53H370.459ZM497.399 205.84L499.212 204.997L499.152 204.868L499.075 204.75L497.399 205.84ZM490.249 201.16L490.059 199.169L489.824 203.114L490.249 201.16ZM511.309 200.12L513.309 200.109L513.298 198.12H511.309V200.12ZM511.439 224.56L513.439 224.574L513.439 224.562L513.439 224.549L511.439 224.56ZM511.309 242.63L509.309 242.616L509.309 242.623V242.63H511.309ZM512.999 258.88L511.257 259.864L511.262 259.872L512.999 258.88ZM517.679 262V264L518.098 260.044L517.679 262ZM492.719 262L492.35 260.034L492.719 264V262ZM497.529 258.75L495.766 257.806L495.764 257.809L497.529 258.75ZM499.075 204.75C497.041 201.62 494.065 199.943 490.673 199.206L489.824 203.114C492.412 203.677 494.376 204.86 495.722 206.93L499.075 204.75ZM490.438 203.151C495.845 202.636 505.271 202.12 511.309 202.12V198.12C505.126 198.12 495.572 198.644 490.059 199.169L490.438 203.151ZM509.309 200.131L509.439 224.571L513.439 224.549L513.309 200.109L509.309 200.131ZM509.439 224.546L509.309 242.616L513.309 242.644L513.439 224.574L509.439 224.546ZM509.309 242.63C509.309 244.51 509.308 247.887 509.524 251.179C509.632 252.823 509.796 254.485 510.051 255.952C510.296 257.364 510.657 258.803 511.257 259.864L514.74 257.896C514.495 257.462 514.222 256.594 513.992 255.268C513.771 253.996 513.619 252.489 513.516 250.916C513.309 247.773 513.309 244.52 513.309 242.63H509.309ZM511.262 259.872C512.685 262.363 515.12 263.497 517.259 263.956L518.098 260.044C516.597 259.723 515.392 259.037 514.735 257.888L511.262 259.872ZM517.679 260H492.719V264H517.679V260ZM493.087 263.966C495.566 263.501 497.885 262.332 499.293 259.691L495.764 257.809C495.092 259.068 494.031 259.719 492.35 260.034L493.087 263.966ZM499.292 259.694C499.928 258.506 500.338 256.961 500.624 255.393C500.916 253.789 501.105 252 501.23 250.229C501.479 246.688 501.479 243.08 501.479 240.94H497.479C497.479 243.09 497.478 246.567 497.24 249.948C497.121 251.639 496.945 253.27 496.688 254.676C496.425 256.119 496.104 257.174 495.766 257.806L499.292 259.694ZM501.479 240.94C501.479 232.416 501.609 224.96 501.412 218.986C501.219 213.091 500.707 208.211 499.212 204.997L495.585 206.683C496.69 209.059 497.218 213.149 497.415 219.117C497.608 225.005 497.479 232.304 497.479 240.94H501.479ZM504.419 185.9C501.255 185.9 498.749 183.308 498.749 180.23H494.749C494.749 185.472 499.002 189.9 504.419 189.9V185.9ZM498.749 180.23C498.749 177.502 501.165 174.95 504.419 174.95V170.95C499.092 170.95 494.749 175.158 494.749 180.23H498.749ZM504.419 174.95C507.977 174.95 510.349 177.544 510.349 180.23H514.349C514.349 175.116 509.96 170.95 504.419 170.95V174.95ZM510.349 180.23C510.349 183.264 507.886 185.9 504.419 185.9V189.9C510.051 189.9 514.349 185.516 514.349 180.23H510.349ZM531.249 167.62V165.62L531.096 169.614L531.249 167.62ZM531.379 167.62V169.62H531.477L531.574 169.611L531.379 167.62ZM551.269 166.71H553.269V164.71H551.269V166.71ZM552.959 258.62L551.157 259.488L551.197 259.57L551.244 259.649L552.959 258.62ZM557.769 262V264L558.319 260.077L557.769 262ZM532.809 262L532.221 260.088L532.809 264V262ZM537.489 258.75L539.226 259.742L539.238 259.72L539.25 259.698L537.489 258.75ZM537.619 171.13L535.792 171.942L535.88 172.141L536.009 172.316L537.619 171.13ZM535.409 169.05L533.995 170.464L534.225 170.694L534.515 170.839L535.409 169.05ZM535.279 168.92L536.694 167.506L536.519 167.332L536.308 167.205L535.279 168.92ZM531.249 169.62H531.379V165.62H531.249V169.62ZM531.574 169.611C536.829 169.098 545.864 168.71 551.269 168.71V164.71C545.755 164.71 536.589 165.102 531.185 165.629L531.574 169.611ZM549.269 166.71V240.03H553.269V166.71H549.269ZM549.269 240.03C549.269 242.171 549.269 245.995 549.484 249.732C549.591 251.6 549.754 253.48 550.005 255.137C550.248 256.745 550.598 258.327 551.157 259.488L554.761 257.752C554.475 257.158 554.192 256.075 553.96 254.539C553.735 253.052 553.581 251.307 553.477 249.503C553.27 245.895 553.269 242.179 553.269 240.03H549.269ZM551.244 259.649C552.781 262.211 555.155 263.333 557.22 263.923L558.319 260.077C556.744 259.627 555.477 258.929 554.674 257.591L551.244 259.649ZM557.769 260H532.809V264H557.769V260ZM533.398 263.912C535.214 263.353 537.795 262.247 539.226 259.742L535.753 257.758C535.104 258.893 533.785 259.607 532.221 260.088L533.398 263.912ZM539.25 259.698C539.869 258.548 540.26 256.949 540.534 255.337C540.817 253.669 541.01 251.765 541.142 249.871C541.407 246.079 541.439 242.188 541.439 240.03H537.439C537.439 242.162 537.407 245.941 537.152 249.592C537.024 251.419 536.843 253.179 536.59 254.667C536.328 256.212 536.019 257.262 535.728 257.802L539.25 259.698ZM541.439 240.03V189.46H537.439V240.03H541.439ZM541.439 189.46C541.439 187.643 541.44 183.623 541.208 179.737C541.093 177.798 540.917 175.847 540.645 174.198C540.509 173.375 540.343 172.589 540.135 171.9C539.937 171.244 539.658 170.526 539.229 169.944L536.009 172.316C536.009 172.315 536.019 172.33 536.038 172.364C536.057 172.398 536.082 172.447 536.111 172.512C536.169 172.644 536.235 172.823 536.305 173.055C536.446 173.521 536.578 174.124 536.698 174.85C536.938 176.301 537.103 178.095 537.215 179.975C537.439 183.727 537.439 187.637 537.439 189.46H541.439ZM539.447 170.318C539.085 169.503 538.628 168.86 538.017 168.333C537.45 167.843 536.822 167.52 536.304 167.261L534.515 170.839C535.037 171.1 535.254 171.232 535.402 171.36C535.506 171.45 535.634 171.587 535.792 171.942L539.447 170.318ZM536.824 167.636L536.694 167.506L533.865 170.334L533.995 170.464L536.824 167.636ZM536.308 167.205C534.774 166.284 533.437 165.782 531.403 165.626L531.096 169.614C532.441 169.718 533.185 169.996 534.25 170.635L536.308 167.205ZM635.367 231.06V233.06H637.41L637.367 231.017L635.367 231.06ZM587.137 231.06V229.06H585.137V231.06H587.137ZM633.157 247.18V245.18H632.031L631.447 246.143L633.157 247.18ZM634.067 247.18L635.904 247.971L637.105 245.18H634.067V247.18ZM587.267 229.76L585.278 229.553L585.049 231.76H587.267V229.76ZM622.627 229.76V231.76H624.709L624.626 229.68L622.627 229.76ZM575.747 232.49C575.747 223.346 578.572 215.78 583.567 210.515C588.549 205.264 595.861 202.12 605.207 202.12V198.12C594.923 198.12 586.506 201.606 580.665 207.762C574.837 213.905 571.747 222.524 571.747 232.49H575.747ZM605.207 202.12C613.886 202.12 620.784 205.123 625.566 210.144C630.364 215.181 633.181 222.409 633.368 231.103L637.367 231.017C637.163 221.511 634.066 213.269 628.463 207.386C622.845 201.487 614.858 198.12 605.207 198.12V202.12ZM635.367 229.06H587.137V233.06H635.367V229.06ZM585.137 231.06C585.137 238.625 585.77 246.704 589.076 252.928C590.754 256.088 593.132 258.794 596.455 260.694C599.769 262.588 603.898 263.61 608.977 263.61V259.61C604.436 259.61 601.025 258.699 598.44 257.221C595.865 255.749 593.985 253.644 592.609 251.052C589.804 245.771 589.137 238.575 589.137 231.06H585.137ZM608.977 263.61C618.444 263.61 629.336 257.344 634.868 248.217L631.447 246.143C626.578 254.176 616.93 259.61 608.977 259.61V263.61ZM633.157 249.18H634.067V245.18H633.157V249.18ZM632.23 246.389C628.215 255.719 616.75 261.3 606.897 261.3V265.3C617.844 265.3 631.079 259.181 635.904 247.971L632.23 246.389ZM606.897 261.3C597.744 261.3 589.962 258.501 584.495 253.575C579.05 248.67 575.747 241.524 575.747 232.49H571.747C571.747 242.566 575.465 250.825 581.817 256.547C588.147 262.249 596.941 265.3 606.897 265.3V261.3ZM605.857 199.42C597.673 199.42 592.74 204.801 589.829 210.984C586.933 217.136 585.803 224.501 585.278 229.553L589.256 229.967C589.771 225.009 590.851 218.204 593.448 212.688C596.03 207.204 599.871 203.42 605.857 203.42V199.42ZM587.267 231.76H622.627V227.76H587.267V231.76ZM624.626 229.68C624.431 224.814 623.976 217.422 621.567 211.211C620.354 208.084 618.6 205.13 616.021 202.949C613.403 200.737 610.049 199.42 605.857 199.42V203.42C609.141 203.42 611.571 204.426 613.439 206.005C615.344 207.615 616.775 209.918 617.837 212.657C619.979 218.178 620.433 224.956 620.629 229.84L624.626 229.68ZM674.82 197.91L674.928 195.913L674.918 195.912L674.907 195.912L674.82 197.91ZM692.89 201.94L694.888 201.853L694.834 200.597L693.678 200.102L692.89 201.94ZM693.02 204.93H695.02V204.887L695.018 204.843L693.02 204.93ZM692.5 215.2L692.829 217.173L694.374 216.915L694.494 215.353L692.5 215.2ZM691.72 215.33L689.74 215.613L690.03 217.639L692.049 217.303L691.72 215.33ZM669.36 265.25L669.423 263.251L669.423 263.251L669.36 265.25ZM650.51 259.4L648.515 259.533L648.582 260.548L649.442 261.091L650.51 259.4ZM650.51 247.44L650.227 245.46L648.616 245.69L648.514 247.315L650.51 247.44ZM651.42 247.31L653.385 246.934L653.026 245.06L651.137 245.33L651.42 247.31ZM671.57 263.43L671.659 265.428L671.66 265.428L671.57 263.43ZM686.39 249.65L688.39 249.619L688.39 249.619L686.39 249.65ZM651.08 215.59C651.08 210.361 653.985 206.387 658.492 203.688C663.042 200.965 669.076 199.662 674.733 199.908L674.907 195.912C668.604 195.638 661.768 197.065 656.438 200.257C651.065 203.473 647.08 208.599 647.08 215.59H651.08ZM674.712 199.907C679.328 200.157 687.802 201.935 692.102 203.778L693.678 200.102C688.878 198.045 679.932 196.183 674.928 195.913L674.712 199.907ZM690.892 202.027L691.022 205.017L695.018 204.843L694.888 201.853L690.892 202.027ZM691.02 204.93C691.02 208.351 690.767 211.656 690.506 215.047L694.494 215.353C694.753 211.984 695.02 208.529 695.02 204.93H691.02ZM692.171 213.227L691.391 213.357L692.049 217.303L692.829 217.173L692.171 213.227ZM693.7 215.047C692.392 205.894 684.288 197.47 672.22 197.47V201.47C682.252 201.47 688.708 208.386 689.74 215.613L693.7 215.047ZM672.22 197.47C664.005 197.47 657.61 204.179 657.61 212.86H661.61C661.61 206.201 666.396 201.47 672.22 201.47V197.47ZM657.61 212.86C657.61 217.896 660.587 221.167 664.39 223.512C668.098 225.799 673.023 227.471 677.555 229.192C682.231 230.968 686.601 232.828 689.813 235.495C692.92 238.076 694.92 241.389 694.92 246.27H698.92C698.92 240.036 696.257 235.647 692.368 232.418C688.584 229.276 683.626 227.219 678.975 225.453C674.18 223.632 669.778 222.135 666.49 220.107C663.297 218.138 661.61 215.949 661.61 212.86H657.61ZM694.92 246.27C694.92 251.996 691.682 256.266 686.759 259.154C681.794 262.067 675.291 263.436 669.423 263.251L669.297 267.249C675.779 267.454 683.056 265.963 688.783 262.604C694.553 259.219 698.92 253.804 698.92 246.27H694.92ZM669.423 263.251C661.54 263.005 656.293 260.687 651.578 257.709L649.442 261.091C654.608 264.353 660.541 266.975 669.298 267.249L669.423 263.251ZM652.506 259.267C652.381 257.394 652.38 255.511 652.38 253.55H648.38C648.38 255.489 648.379 257.506 648.515 259.533L652.506 259.267ZM652.38 253.55C652.38 251.462 652.381 249.573 652.506 247.565L648.514 247.315C648.38 249.467 648.38 251.478 648.38 253.55H652.38ZM650.793 249.42L651.703 249.29L651.137 245.33L650.227 245.46L650.793 249.42ZM649.456 247.686C650.37 252.469 652.67 257.048 656.413 260.375C660.184 263.727 665.314 265.71 671.659 265.428L671.481 261.432C666.126 261.67 662.027 260.013 659.07 257.385C656.085 254.732 654.16 250.991 653.385 246.934L649.456 247.686ZM671.66 265.428C676.352 265.218 680.567 263.774 683.624 261.057C686.72 258.305 688.463 254.386 688.39 249.619L684.39 249.681C684.447 253.364 683.135 256.14 680.966 258.068C678.758 260.031 675.498 261.252 671.481 261.432L671.66 265.428ZM688.39 249.619C688.31 244.513 685.325 241.226 681.497 238.876C677.778 236.592 672.854 234.946 668.347 233.236C663.693 231.471 659.359 229.603 656.176 226.871C653.098 224.23 651.08 220.77 651.08 215.59H647.08C647.08 222.045 649.694 226.58 653.571 229.907C657.343 233.143 662.287 235.215 666.928 236.976C671.716 238.793 676.104 240.258 679.404 242.285C682.597 244.245 684.34 246.467 684.39 249.681L688.39 249.619ZM707.409 201.03L707.347 199.031L705.409 199.092V201.03H707.409ZM726.909 180.1V178.1H725.059L724.916 179.945L726.909 180.1ZM733.019 180.1H735.019V178.1H733.019V180.1ZM733.019 200.38H731.019V202.38H733.019V200.38ZM750.439 200.38H752.439V198.38H750.439V200.38ZM750.439 202.33V204.33H752.439V202.33H750.439ZM733.019 202.33V200.33H731.019V202.33H733.019ZM749.399 250.95L750.717 249.445L748.214 247.255L747.453 250.492L749.399 250.95ZM750.439 251.86L752.208 252.794L752.946 251.396L751.757 250.355L750.439 251.86ZM720.799 202.33H722.799V200.33H720.799V202.33ZM707.409 202.33H705.409V204.33H707.409V202.33ZM707.472 203.029C716.245 202.755 721.604 199.832 724.754 195.258C727.787 190.855 728.514 185.253 728.903 180.255L724.916 179.945C724.525 184.957 723.822 189.56 721.46 192.989C719.215 196.248 715.214 198.785 707.347 199.031L707.472 203.029ZM726.909 182.1H733.019V178.1H726.909V182.1ZM731.019 180.1V200.38H735.019V180.1H731.019ZM733.019 202.38H750.439V198.38H733.019V202.38ZM748.439 200.38V202.33H752.439V200.38H748.439ZM750.439 200.33H733.019V204.33H750.439V200.33ZM731.019 202.33V252.38H735.019V202.33H731.019ZM731.019 252.38C731.019 255.356 731.652 257.754 732.999 259.444C734.402 261.203 736.356 261.92 738.349 261.92V257.92C737.353 257.92 736.642 257.597 736.127 256.951C735.557 256.236 735.019 254.864 735.019 252.38H731.019ZM738.349 261.92C741.12 261.92 744.055 260.498 746.349 258.65C748.65 256.794 750.69 254.199 751.346 251.408L747.453 250.492C747.069 252.121 745.729 254.011 743.838 255.535C741.939 257.067 739.869 257.92 738.349 257.92V261.92ZM748.082 252.455L749.122 253.365L751.757 250.355L750.717 249.445L748.082 252.455ZM748.671 250.926C745.755 256.447 742.877 258.937 740.424 260.116C737.942 261.309 735.643 261.3 733.409 261.3V265.3C735.596 265.3 738.757 265.356 742.157 263.721C745.587 262.073 749.014 258.843 752.208 252.794L748.671 250.926ZM733.409 261.3C730.709 261.3 728.025 260.157 726.013 258.327C723.997 256.493 722.799 254.108 722.799 251.73H718.799C718.799 255.462 720.657 258.862 723.321 261.286C725.989 263.713 729.61 265.3 733.409 265.3V261.3ZM722.799 251.73V202.33H718.799V251.73H722.799ZM720.799 200.33H707.409V204.33H720.799V200.33ZM709.409 202.33V201.03H705.409V202.33H709.409ZM792.614 261.3C783.934 261.3 776.802 258.263 771.838 253.134C766.868 247.999 763.934 240.624 763.934 231.71H759.934C759.934 241.516 763.176 249.936 768.963 255.916C774.757 261.902 782.965 265.3 792.614 265.3V261.3ZM763.934 231.71C763.934 222.987 766.806 215.6 771.68 210.41C776.543 205.232 783.511 202.12 791.964 202.12V198.12C782.478 198.12 774.431 201.638 768.764 207.672C763.108 213.695 759.934 222.103 759.934 231.71H763.934ZM791.964 202.12C800.583 202.12 807.751 205.127 812.763 210.26C817.779 215.396 820.774 222.801 820.774 231.84H824.774C824.774 221.899 821.464 213.444 815.625 207.465C809.783 201.483 801.545 198.12 791.964 198.12V202.12ZM820.774 231.84C820.774 240.771 817.927 248.115 813.071 253.21C808.225 258.297 801.229 261.3 792.614 261.3V265.3C802.2 265.3 810.284 261.933 815.967 255.97C821.641 250.015 824.774 241.629 824.774 231.84H820.774ZM792.094 199.16C787.506 199.16 783.874 200.621 781.075 203.053C778.316 205.451 776.481 208.691 775.248 212.098C772.795 218.873 772.544 226.819 772.544 231.71H776.544C776.544 226.851 776.814 219.522 779.009 213.46C780.099 210.448 781.62 207.879 783.699 206.072C785.739 204.299 788.428 203.16 792.094 203.16V199.16ZM772.544 231.71C772.544 236.761 772.929 244.709 775.521 251.456C776.825 254.848 778.73 258.056 781.536 260.423C784.379 262.821 788.033 264.26 792.614 264.26V260.26C788.94 260.26 786.209 259.131 784.115 257.366C781.986 255.569 780.405 253.015 779.255 250.021C776.94 243.996 776.544 236.669 776.544 231.71H772.544ZM792.614 264.26C797.168 264.26 800.781 262.818 803.573 260.411C806.326 258.038 808.166 254.828 809.409 251.445C811.881 244.717 812.164 236.803 812.164 231.84H808.164C808.164 236.757 807.863 244.053 805.654 250.065C804.557 253.052 803.034 255.595 800.961 257.381C798.927 259.135 796.251 260.26 792.614 260.26V264.26ZM812.164 231.84C812.164 226.78 811.746 218.804 809.138 212.028C807.828 208.623 805.92 205.402 803.124 203.023C800.29 200.612 796.65 199.16 792.094 199.16V203.16C795.728 203.16 798.442 204.292 800.532 206.069C802.659 207.879 804.246 210.451 805.405 213.465C807.738 219.526 808.164 226.89 808.164 231.84H812.164ZM840.185 205.84L842.015 205.032L841.936 204.853L841.824 204.693L840.185 205.84ZM832.775 201.16L832.59 199.169L832.367 203.118L832.775 201.16ZM853.965 200.12H855.965V198.12H853.965V200.12ZM853.965 210H851.965V215.132L855.438 211.353L853.965 210ZM902.325 258.88L900.584 259.864L900.629 259.943L900.681 260.018L902.325 258.88ZM907.005 262V264L907.521 260.068L907.005 262ZM882.045 262L881.53 260.068L882.045 264V262ZM886.725 258.75L888.462 259.742L888.473 259.723L888.484 259.703L886.725 258.75ZM888.545 240.03H890.545V240.021L890.545 240.011L888.545 240.03ZM888.415 225.99H886.415V225.999L886.415 226.009L888.415 225.99ZM853.965 212.34L852.36 211.147L851.958 211.687L851.965 212.361L853.965 212.34ZM854.095 224.56L856.095 224.574L856.095 224.557L856.095 224.539L854.095 224.56ZM853.965 242.63L851.965 242.616L851.965 242.623V242.63H853.965ZM855.655 258.88L853.914 259.864L853.919 259.872L855.655 258.88ZM860.335 262V264L860.754 260.044L860.335 262ZM835.375 262L835.007 260.034L835.375 264V262ZM840.315 258.75L842.03 259.779L842.07 259.713L842.104 259.644L840.315 258.75ZM841.824 204.693C839.666 201.611 836.718 199.938 833.183 199.202L832.367 203.118C835.073 203.682 837.064 204.869 838.547 206.987L841.824 204.693ZM832.96 203.151C838.501 202.636 847.928 202.12 853.965 202.12V198.12C847.782 198.12 838.229 198.644 832.59 199.169L832.96 203.151ZM851.965 200.12V210H855.965V200.12H851.965ZM855.438 211.353C859.613 206.81 867.826 201.73 875.675 201.73V197.73C866.364 197.73 857.157 203.57 852.493 208.647L855.438 211.353ZM875.675 201.73C883.445 201.73 889.059 204.375 892.745 208.38C896.456 212.414 898.375 218.009 898.375 224.17H902.375C902.375 217.201 900.2 210.576 895.688 205.672C891.151 200.74 884.415 197.73 875.675 197.73V201.73ZM898.375 224.17V241.2H902.375V224.17H898.375ZM898.375 241.2C898.375 243.181 898.441 246.909 898.722 250.536C898.863 252.348 899.06 254.169 899.338 255.75C899.603 257.262 899.98 258.795 900.584 259.864L904.066 257.896C903.826 257.47 903.536 256.533 903.277 255.059C903.031 253.654 902.846 251.973 902.71 250.226C902.44 246.736 902.375 243.119 902.375 241.2H898.375ZM900.681 260.018C902.181 262.186 904.195 263.321 906.49 263.932L907.521 260.068C905.915 259.639 904.809 258.954 903.97 257.742L900.681 260.018ZM907.005 260H882.045V264H907.005V260ZM882.561 263.932C884.79 263.338 887.056 262.203 888.462 259.742L884.989 257.758C884.315 258.937 883.2 259.622 881.53 260.068L882.561 263.932ZM888.484 259.703C889.084 258.595 889.447 256.984 889.698 255.387C889.961 253.715 890.141 251.783 890.265 249.86C890.513 246.009 890.545 242.059 890.545 240.03H886.545C886.545 242.031 886.513 245.881 886.273 249.603C886.153 251.466 885.983 253.263 885.747 254.764C885.499 256.34 885.211 257.345 884.967 257.797L888.484 259.703ZM890.545 240.011L890.415 225.971L886.415 226.009L886.545 240.049L890.545 240.011ZM890.415 225.99C890.415 222.12 890.533 215.694 888.775 210.247C887.885 207.489 886.47 204.827 884.184 202.85C881.861 200.842 878.798 199.68 874.895 199.68V203.68C877.948 203.68 880.052 204.565 881.568 205.876C883.121 207.219 884.217 209.147 884.968 211.475C886.493 216.201 886.415 221.93 886.415 225.99H890.415ZM874.895 199.68C870.31 199.68 865.69 201.211 861.766 203.353C857.847 205.492 854.452 208.333 852.36 211.147L855.57 213.533C857.248 211.277 860.159 208.788 863.682 206.864C867.201 204.944 871.161 203.68 874.895 203.68V199.68ZM851.965 212.361L852.095 224.581L856.095 224.539L855.965 212.319L851.965 212.361ZM852.095 224.546L851.965 242.616L855.965 242.644L856.095 224.574L852.095 224.546ZM851.965 242.63C851.965 244.51 851.965 247.887 852.181 251.179C852.289 252.823 852.453 254.485 852.708 255.952C852.953 257.364 853.314 258.803 853.914 259.864L857.396 257.896C857.151 257.462 856.879 256.594 856.649 255.268C856.428 253.996 856.275 252.489 856.172 250.916C855.966 247.773 855.965 244.52 855.965 242.63H851.965ZM853.919 259.872C855.342 262.363 857.777 263.497 859.916 263.956L860.754 260.044C859.254 259.723 858.048 259.037 857.392 257.888L853.919 259.872ZM860.335 260H835.375V264H860.335V260ZM835.744 263.966C838.242 263.497 840.498 262.332 842.03 259.779L838.6 257.721C837.792 259.068 836.668 259.723 835.007 260.034L835.744 263.966ZM842.104 259.644C842.693 258.466 843.074 256.932 843.339 255.37C843.611 253.772 843.787 251.988 843.903 250.22C844.136 246.684 844.135 243.08 844.135 240.94H840.135C840.135 243.09 840.135 246.571 839.912 249.958C839.801 251.651 839.636 253.287 839.396 254.7C839.149 256.148 838.847 257.214 838.526 257.856L842.104 259.644ZM844.135 240.94C844.135 232.416 844.265 224.962 844.086 218.991C843.908 213.098 843.429 208.233 842.015 205.032L838.356 206.648C839.411 209.037 839.907 213.142 840.087 219.111C840.265 225.003 840.135 232.304 840.135 240.94H844.135ZM980.299 231.06V233.06H982.342L982.298 231.017L980.299 231.06ZM932.069 231.06V229.06H930.069V231.06H932.069ZM978.089 247.18V245.18H976.962L976.378 246.143L978.089 247.18ZM978.999 247.18L980.836 247.971L982.037 245.18H978.999V247.18ZM932.199 229.76L930.209 229.553L929.98 231.76H932.199V229.76ZM967.559 229.76V231.76H969.64L969.557 229.68L967.559 229.76ZM920.679 232.49C920.679 223.346 923.504 215.78 928.498 210.515C933.48 205.264 940.793 202.12 950.139 202.12V198.12C939.855 198.12 931.437 201.606 925.597 207.762C919.769 213.905 916.679 222.524 916.679 232.49H920.679ZM950.139 202.12C958.818 202.12 965.716 205.123 970.498 210.144C975.295 215.181 978.113 222.409 978.299 231.103L982.298 231.017C982.095 221.511 978.997 213.269 973.395 207.386C967.777 201.487 959.79 198.12 950.139 198.12V202.12ZM980.299 229.06H932.069V233.06H980.299V229.06ZM930.069 231.06C930.069 238.625 930.702 246.704 934.007 252.928C935.686 256.088 938.064 258.794 941.387 260.694C944.701 262.588 948.83 263.61 953.909 263.61V259.61C949.368 259.61 945.957 258.699 943.372 257.221C940.797 255.749 938.917 253.644 937.54 251.052C934.736 245.771 934.069 238.575 934.069 231.06H930.069ZM953.909 263.61C963.376 263.61 974.268 257.344 979.799 248.217L976.378 246.143C971.51 254.176 961.862 259.61 953.909 259.61V263.61ZM978.089 249.18H978.999V245.18H978.089V249.18ZM977.162 246.389C973.147 255.719 961.682 261.3 951.829 261.3V265.3C962.776 265.3 976.011 259.181 980.836 247.971L977.162 246.389ZM951.829 261.3C942.675 261.3 934.894 258.501 929.426 253.575C923.981 248.67 920.679 241.524 920.679 232.49H916.679C916.679 242.566 920.396 250.825 926.749 256.547C933.079 262.249 941.872 265.3 951.829 265.3V261.3ZM950.789 199.42C942.605 199.42 937.671 204.801 934.761 210.984C931.865 217.136 930.734 224.501 930.209 229.553L934.188 229.967C934.703 225.009 935.783 218.204 938.38 212.688C940.961 207.204 944.803 203.42 950.789 203.42V199.42ZM932.199 231.76H967.559V227.76H932.199V231.76ZM969.557 229.68C969.363 224.814 968.907 217.422 966.498 211.211C965.286 208.084 963.532 205.13 960.952 202.949C958.335 200.737 954.98 199.42 950.789 199.42V203.42C954.072 203.42 956.503 204.426 958.37 206.005C960.275 207.615 961.707 209.918 962.769 212.657C964.91 218.178 965.365 224.956 965.56 229.84L969.557 229.68ZM1019.75 197.91L1019.86 195.913L1019.85 195.912L1019.84 195.912L1019.75 197.91ZM1037.82 201.94L1039.82 201.853L1039.77 200.597L1038.61 200.102L1037.82 201.94ZM1037.95 204.93H1039.95V204.887L1039.95 204.843L1037.95 204.93ZM1037.43 215.2L1037.76 217.173L1039.31 216.915L1039.43 215.353L1037.43 215.2ZM1036.65 215.33L1034.67 215.613L1034.96 217.639L1036.98 217.303L1036.65 215.33ZM1014.29 265.25L1014.35 263.251L1014.35 263.251L1014.29 265.25ZM995.442 259.4L993.446 259.533L993.514 260.548L994.374 261.091L995.442 259.4ZM995.442 247.44L995.159 245.46L993.547 245.69L993.446 247.315L995.442 247.44ZM996.352 247.31L998.316 246.934L997.958 245.06L996.069 245.33L996.352 247.31ZM1016.5 263.43L1016.59 265.428L1016.59 265.428L1016.5 263.43ZM1031.32 249.65L1033.32 249.619L1033.32 249.619L1031.32 249.65ZM996.012 215.59C996.012 210.361 998.917 206.387 1003.42 203.688C1007.97 200.965 1014.01 199.662 1019.66 199.908L1019.84 195.912C1013.54 195.638 1006.7 197.065 1001.37 200.257C995.997 203.473 992.012 208.599 992.012 215.59H996.012ZM1019.64 199.907C1024.26 200.157 1032.73 201.935 1037.03 203.778L1038.61 200.102C1033.81 198.045 1024.86 196.183 1019.86 195.913L1019.64 199.907ZM1035.82 202.027L1035.95 205.017L1039.95 204.843L1039.82 201.853L1035.82 202.027ZM1035.95 204.93C1035.95 208.351 1035.7 211.656 1035.44 215.047L1039.43 215.353C1039.69 211.984 1039.95 208.529 1039.95 204.93H1035.95ZM1037.1 213.227L1036.32 213.357L1036.98 217.303L1037.76 217.173L1037.1 213.227ZM1038.63 215.047C1037.32 205.894 1029.22 197.47 1017.15 197.47V201.47C1027.18 201.47 1033.64 208.386 1034.67 215.613L1038.63 215.047ZM1017.15 197.47C1008.94 197.47 1002.54 204.179 1002.54 212.86H1006.54C1006.54 206.201 1011.33 201.47 1017.15 201.47V197.47ZM1002.54 212.86C1002.54 217.896 1005.52 221.167 1009.32 223.512C1013.03 225.799 1017.95 227.471 1022.49 229.192C1027.16 230.968 1031.53 232.828 1034.74 235.495C1037.85 238.076 1039.85 241.389 1039.85 246.27H1043.85C1043.85 240.036 1041.19 235.647 1037.3 232.418C1033.52 229.276 1028.56 227.219 1023.91 225.453C1019.11 223.632 1014.71 222.135 1011.42 220.107C1008.23 218.138 1006.54 215.949 1006.54 212.86H1002.54ZM1039.85 246.27C1039.85 251.996 1036.61 256.266 1031.69 259.154C1026.73 262.067 1020.22 263.436 1014.35 263.251L1014.23 267.249C1020.71 267.454 1027.99 265.963 1033.71 262.604C1039.48 259.219 1043.85 253.804 1043.85 246.27H1039.85ZM1014.35 263.251C1006.47 263.005 1001.22 260.687 996.51 257.709L994.374 261.091C999.539 264.353 1005.47 266.975 1014.23 267.249L1014.35 263.251ZM997.437 259.267C997.312 257.394 997.312 255.511 997.312 253.55H993.312C993.312 255.489 993.311 257.506 993.446 259.533L997.437 259.267ZM997.312 253.55C997.312 251.462 997.312 249.573 997.438 247.565L993.446 247.315C993.311 249.467 993.312 251.478 993.312 253.55H997.312ZM995.725 249.42L996.635 249.29L996.069 245.33L995.159 245.46L995.725 249.42ZM994.387 247.686C995.302 252.469 997.602 257.048 1001.34 260.375C1005.12 263.727 1010.25 265.71 1016.59 265.428L1016.41 261.432C1011.06 261.67 1006.96 260.013 1004 257.385C1001.02 254.732 999.092 250.991 998.316 246.934L994.387 247.686ZM1016.59 265.428C1021.28 265.218 1025.5 263.774 1028.56 261.057C1031.65 258.305 1033.39 254.386 1033.32 249.619L1029.32 249.681C1029.38 253.364 1028.07 256.14 1025.9 258.068C1023.69 260.031 1020.43 261.252 1016.41 261.432L1016.59 265.428ZM1033.32 249.619C1033.24 244.513 1030.26 241.226 1026.43 238.876C1022.71 236.592 1017.79 234.946 1013.28 233.236C1008.63 231.471 1004.29 229.603 1001.11 226.871C998.03 224.23 996.012 220.77 996.012 215.59H992.012C992.012 222.045 994.625 226.58 998.502 229.907C1002.27 233.143 1007.22 235.215 1011.86 236.976C1016.65 238.793 1021.04 240.258 1024.34 242.285C1027.53 244.245 1029.27 246.467 1029.32 249.681L1033.32 249.619ZM537.613 393.24V391.24H535.613V393.24H537.613ZM572.713 393.24H574.713V391.24H572.713V393.24ZM572.713 399.72V401.72H574.713V399.72H572.713ZM572.293 399.72L570.306 399.948L570.509 401.72H572.293V399.72ZM558.253 393.84V391.84H556.253V393.84H558.253ZM558.373 427.32L556.376 427.425L556.376 427.428L558.373 427.32ZM559.333 432.9L561.103 431.969L561.09 431.944L561.076 431.919L559.333 432.9ZM562.213 435V437L562.698 433.06L562.213 435ZM548.293 435L547.808 433.06L548.293 437V435ZM549.733 434.4L550.793 436.096L550.846 436.063L550.896 436.027L549.733 434.4ZM551.053 432.9L549.389 431.791L549.356 431.84L549.326 431.892L551.053 432.9ZM552.133 393.84H554.133V391.84H552.133V393.84ZM537.973 399.54V401.54H539.495L539.901 400.073L537.973 399.54ZM537.613 399.54H535.613V401.54H537.613V399.54ZM537.613 395.24H572.713V391.24H537.613V395.24ZM570.713 393.24V399.72H574.713V393.24H570.713ZM572.713 397.72H572.293V401.72H572.713V397.72ZM574.28 399.492C573.802 395.319 570.278 393.49 567.196 392.685C564.04 391.861 560.449 391.84 558.253 391.84V395.84C560.498 395.84 563.596 395.879 566.186 396.555C568.849 397.25 570.124 398.361 570.306 399.948L574.28 399.492ZM556.253 393.84V421.68H560.253V393.84H556.253ZM556.253 421.68C556.253 422.699 556.253 425.087 556.376 427.425L560.371 427.215C560.254 424.993 560.253 422.701 560.253 421.68H556.253ZM556.376 427.428C556.439 428.581 556.549 429.808 556.72 430.894C556.878 431.895 557.127 433.057 557.59 433.881L561.076 431.919C561.076 431.92 561.075 431.917 561.072 431.91C561.068 431.904 561.064 431.895 561.059 431.883C561.048 431.858 561.033 431.824 561.017 431.779C560.983 431.688 560.945 431.569 560.904 431.417C560.822 431.111 560.743 430.725 560.671 430.271C560.528 429.362 560.428 428.279 560.37 427.212L556.376 427.428ZM557.563 433.831C558.501 435.613 560.148 436.545 561.728 436.94L562.698 433.06C561.879 432.855 561.365 432.467 561.103 431.969L557.563 433.831ZM562.213 433H548.293V437H562.213V433ZM548.778 436.94C549.418 436.78 550.101 436.529 550.793 436.096L548.673 432.704C548.406 432.871 548.129 432.98 547.808 433.06L548.778 436.94ZM550.896 436.027C551.549 435.561 552.22 434.868 552.781 433.908L549.326 431.892C549.046 432.372 548.757 432.639 548.571 432.773L550.896 436.027ZM552.717 434.009C553.259 433.198 553.531 432.127 553.696 431.213C553.874 430.23 553.978 429.124 554.04 428.051C554.164 425.907 554.133 423.682 554.133 422.52H550.133C550.133 423.758 550.162 425.823 550.047 427.819C549.989 428.816 549.897 429.742 549.76 430.5C549.692 430.878 549.617 431.185 549.541 431.422C549.503 431.539 549.468 431.628 549.439 431.693C549.424 431.725 549.412 431.749 549.403 431.766C549.399 431.774 549.395 431.781 549.393 431.785C549.39 431.789 549.389 431.791 549.389 431.791L552.717 434.009ZM554.133 422.52V393.84H550.133V422.52H554.133ZM552.133 391.84C549.715 391.84 546.305 391.844 543.283 392.641C540.234 393.445 537.099 395.199 536.046 399.007L539.901 400.073C540.408 398.241 541.892 397.145 544.303 396.509C546.742 395.866 549.632 395.84 552.133 395.84V391.84ZM537.973 397.54H537.613V401.54H537.973V397.54ZM539.613 399.54V393.24H535.613V399.54H539.613ZM585.13 435V433L585.117 433L585.13 435ZM585.55 417.72L585.624 415.721L585.616 415.721L585.608 415.721L585.55 417.72ZM590.11 418.56L589.561 420.483L592.11 421.211V418.56H590.11ZM578.77 410.28L580.435 411.389L580.52 411.262L580.584 411.122L578.77 410.28ZM578.47 410.82L576.806 409.711L576.614 409.999L576.53 410.335L578.47 410.82ZM578.11 411.42L576.696 410.006L576.522 410.18L576.395 410.391L578.11 411.42ZM577.57 412.32L576.009 411.071L575.936 411.161L575.874 411.26L577.57 412.32ZM592.99 408.78L594.382 407.344L594.333 407.296L594.28 407.251L592.99 408.78ZM595.57 415.74L597.57 415.751V415.74H595.57ZM595.51 426.54L593.51 426.529V426.54H595.51ZM596.23 433.56L594.442 434.454L594.49 434.551L594.548 434.642L596.23 433.56ZM598.39 435V437L598.81 433.044L598.39 435ZM589.03 433.74L590.493 435.105L591.03 434.528V433.74H589.03ZM589.15 433.5L587.362 432.606L587.362 432.606L589.15 433.5ZM589.99 426.12L587.991 426.103L587.99 426.112V426.12H589.99ZM590.05 418.92L592.05 418.937L592.063 417.382L590.559 416.986L590.05 418.92ZM585.117 433C580.678 433.029 577.62 432.401 575.732 431.294C574.024 430.294 573.15 428.841 573.15 426.54H569.15C569.15 430.179 570.707 432.986 573.709 434.746C576.531 436.399 580.463 437.031 585.144 437L585.117 433ZM573.15 426.54C573.15 424.342 574.19 422.693 576.207 421.518C578.319 420.288 581.506 419.605 585.493 419.719L585.608 415.721C581.195 415.595 577.182 416.322 574.194 418.062C571.111 419.857 569.15 422.738 569.15 426.54H573.15ZM585.476 419.719C586.843 419.769 588.33 420.131 589.561 420.483L590.66 416.637C589.371 416.269 587.498 415.791 585.624 415.721L585.476 419.719ZM592.11 418.56V416.34H588.11V418.56H592.11ZM592.11 416.34C592.11 414.212 591.994 411.434 590.923 409.153C590.366 407.965 589.526 406.856 588.277 406.057C587.028 405.258 585.511 404.86 583.75 404.86V408.86C584.9 408.86 585.633 409.114 586.122 409.427C586.611 409.74 586.997 410.202 587.302 410.852C587.957 412.246 588.11 414.208 588.11 416.34H592.11ZM583.75 404.86C581.802 404.86 580.281 405.429 579.116 406.411C578.009 407.345 577.379 408.527 576.956 409.438L580.584 411.122C580.941 410.353 581.272 409.825 581.695 409.469C582.06 409.161 582.639 408.86 583.75 408.86V404.86ZM577.106 409.171C576.967 409.38 576.87 409.578 576.832 409.656C576.78 409.758 576.787 409.74 576.806 409.711L580.135 411.929C580.274 411.72 580.371 411.522 580.409 411.444C580.461 411.342 580.454 411.36 580.435 411.389L577.106 409.171ZM576.53 410.335C576.55 410.256 576.585 410.171 576.632 410.094C576.675 410.025 576.709 409.993 576.696 410.006L579.525 412.834C579.885 412.474 580.24 411.988 580.411 411.305L576.53 410.335ZM576.395 410.391C576.326 410.506 576.268 410.614 576.222 410.698C576.169 410.797 576.146 410.841 576.111 410.906C576.053 411.012 576.026 411.049 576.009 411.071L579.132 413.569C579.355 413.291 579.508 413.028 579.615 412.834C579.75 412.589 579.758 412.562 579.825 412.449L576.395 410.391ZM575.874 411.26C575.877 411.255 575.896 411.227 575.935 411.19C575.975 411.152 576.02 411.122 576.061 411.101C576.143 411.06 576.125 411.1 575.89 411.1V415.1C576.556 415.1 577.228 414.99 577.85 414.679C578.494 414.357 578.95 413.886 579.266 413.38L575.874 411.26ZM575.89 411.1C575.727 411.1 575.669 411.08 575.68 411.083C575.701 411.09 575.788 411.124 575.885 411.218C575.93 411.263 575.966 411.309 575.993 411.354C576.02 411.397 576.033 411.431 576.039 411.448C576.049 411.477 576.03 411.44 576.03 411.3H572.03C572.03 412.208 572.259 413.27 573.091 414.082C573.914 414.884 574.976 415.1 575.89 415.1V411.1ZM576.03 411.3C576.03 411.132 576.088 410.878 576.536 410.5C577.012 410.098 577.774 409.706 578.771 409.37C580.76 408.701 583.12 408.44 584.35 408.44V404.44C582.761 404.44 579.961 404.749 577.495 405.58C576.265 405.994 574.975 406.584 573.957 407.442C572.91 408.325 572.03 409.608 572.03 411.3H576.03ZM584.35 408.44C585.45 408.44 586.974 408.601 588.432 408.948C589.946 409.309 591.104 409.805 591.701 410.309L594.28 407.251C592.957 406.135 591.055 405.461 589.359 405.057C587.607 404.639 585.771 404.44 584.35 404.44V408.44ZM591.599 410.216C592.994 411.568 593.57 413.478 593.57 415.74H597.57C597.57 412.842 596.827 409.712 594.382 407.344L591.599 410.216ZM593.571 415.729L593.511 426.529L597.51 426.551L597.57 415.751L593.571 415.729ZM593.51 426.54C593.51 427.513 593.525 428.996 593.628 430.419C593.679 431.13 593.755 431.858 593.869 432.517C593.976 433.136 594.142 433.855 594.442 434.454L598.019 432.666C598.019 432.666 598.019 432.664 598.017 432.661C598.016 432.658 598.014 432.654 598.012 432.649C598.007 432.637 598 432.621 597.993 432.6C597.977 432.557 597.958 432.498 597.937 432.423C597.895 432.271 597.852 432.075 597.81 431.836C597.727 431.355 597.664 430.77 597.618 430.131C597.526 428.854 597.51 427.487 597.51 426.54H593.51ZM594.548 434.642C595.437 436.025 596.733 436.69 597.971 436.956L598.81 433.044C598.368 432.95 598.104 432.775 597.913 432.478L594.548 434.642ZM598.39 433H585.13V437H598.39V433ZM585.43 416.2C581.22 416.2 578.295 417.397 576.5 419.599C574.771 421.72 574.43 424.377 574.43 426.54H578.43C578.43 424.683 578.75 423.17 579.601 422.126C580.386 421.163 581.961 420.2 585.43 420.2V416.2ZM574.43 426.54C574.43 428.647 574.692 431.268 576.363 433.35C578.108 435.522 580.985 436.64 585.13 436.64V432.64C581.656 432.64 580.183 431.718 579.482 430.845C578.709 429.882 578.43 428.453 578.43 426.54H574.43ZM585.13 436.64C585.734 436.64 586.657 436.644 587.55 436.503C588.396 436.369 589.608 436.052 590.493 435.105L587.568 432.375C587.613 432.328 587.505 432.461 586.926 432.552C586.394 432.636 585.787 432.64 585.13 432.64V436.64ZM591.03 433.74C591.03 434.065 590.948 434.315 590.89 434.456C590.861 434.526 590.834 434.58 590.817 434.612C590.8 434.644 590.786 434.666 590.783 434.671C590.78 434.676 590.779 434.679 590.787 434.664C590.794 434.654 590.807 434.633 590.821 434.609C590.852 434.558 590.894 434.485 590.939 434.394L587.362 432.606C587.377 432.574 587.428 432.488 587.353 432.614C587.331 432.651 587.257 432.772 587.191 432.933C587.121 433.105 587.03 433.385 587.03 433.74H591.03ZM590.939 434.394C591.491 433.29 591.715 431.652 591.833 430.298C591.96 428.836 591.99 427.286 591.99 426.12H587.99C587.99 427.234 587.961 428.654 587.848 429.952C587.726 431.358 587.529 432.27 587.362 432.606L590.939 434.394ZM591.99 426.137L592.05 418.937L588.051 418.903L587.991 426.103L591.99 426.137ZM590.559 416.986C589.422 416.687 587.637 416.2 585.43 416.2V420.2C587.064 420.2 588.399 420.553 589.541 420.854L590.559 416.986ZM602.829 406.86L602.644 404.869L602.421 408.818L602.829 406.86ZM612.609 406.38H614.609V404.38H612.609V406.38ZM612.609 408.84H610.609V412.672L613.753 410.481L612.609 408.84ZM612.429 434.52L613.278 432.709L610.452 431.385L610.429 434.505L612.429 434.52ZM612.369 442.56L610.369 442.545L610.369 442.553V442.56H612.369ZM613.029 450.06L611.225 450.923L611.279 451.036L611.347 451.142L613.029 450.06ZM615.249 451.5V453.5L615.668 449.544L615.249 451.5ZM603.789 451.5L603.37 449.544L603.789 453.5V451.5ZM606.009 450L607.724 451.029L607.779 450.938L607.823 450.842L606.009 450ZM606.249 409.02L608.094 408.248L608.011 408.049L607.888 407.873L606.249 409.02ZM612.429 433.86L610.429 433.845L610.42 435.091L611.535 435.649L612.429 433.86ZM612.609 409.86L611.292 408.355L610.616 408.947L610.609 409.845L612.609 409.86ZM603.014 408.851C605.545 408.616 609.862 408.38 612.609 408.38V404.38C609.716 404.38 605.273 404.624 602.644 404.869L603.014 408.851ZM610.609 406.38V408.84H614.609V406.38H610.609ZM613.753 410.481C615.447 409.3 617.755 408.44 620.049 408.44V404.44C616.824 404.44 613.731 405.62 611.465 407.199L613.753 410.481ZM620.049 408.44C623.768 408.44 626.788 409.732 628.878 411.872C630.972 414.016 632.269 417.151 632.269 421.08H636.269C636.269 416.249 634.657 412.064 631.74 409.078C628.82 406.088 624.73 404.44 620.049 404.44V408.44ZM632.269 421.08C632.269 424.912 630.921 428.015 628.753 430.158C626.582 432.304 623.473 433.6 619.749 433.6V437.6C624.425 437.6 628.576 435.956 631.565 433.002C634.557 430.045 636.269 425.888 636.269 421.08H632.269ZM619.749 433.6C617.032 433.6 614.749 433.399 613.278 432.709L611.58 436.331C613.949 437.441 617.067 437.6 619.749 437.6V433.6ZM610.429 434.505L610.369 442.545L614.369 442.575L614.429 434.535L610.429 434.505ZM610.369 442.56C610.369 443.426 610.369 445.008 610.455 446.556C610.498 447.329 610.564 448.126 610.669 448.841C610.766 449.504 610.922 450.29 611.225 450.923L614.833 449.197C614.835 449.201 614.826 449.182 614.809 449.133C614.793 449.085 614.774 449.019 614.753 448.932C614.709 448.758 614.666 448.534 614.626 448.26C614.546 447.711 614.488 447.046 614.448 446.334C614.369 444.912 614.369 443.434 614.369 442.56H610.369ZM611.347 451.142C612.26 452.563 613.648 453.202 614.83 453.456L615.668 449.544C615.17 449.438 614.878 449.237 614.711 448.978L611.347 451.142ZM615.249 449.5H603.789V453.5H615.249V449.5ZM604.208 453.456C605.406 453.199 606.815 452.544 607.724 451.029L604.294 448.971C604.196 449.134 604.081 449.243 603.949 449.326C603.806 449.415 603.616 449.492 603.37 449.544L604.208 453.456ZM607.823 450.842C608.138 450.165 608.318 449.343 608.436 448.597C608.559 447.816 608.637 446.958 608.688 446.124C608.79 444.458 608.789 442.765 608.789 441.78H604.789C604.789 442.775 604.789 444.352 604.695 445.881C604.649 446.645 604.581 447.365 604.484 447.973C604.383 448.617 604.27 448.995 604.195 449.158L607.823 450.842ZM608.789 441.78C608.789 439.814 608.823 436.952 608.856 433.704C608.89 430.462 608.924 426.848 608.924 423.397C608.924 419.952 608.89 416.648 608.788 414.035C608.736 412.73 608.667 411.572 608.572 410.641C608.487 409.807 608.361 408.885 608.094 408.248L604.404 409.792C604.386 409.749 604.417 409.816 604.465 410.081C604.508 410.319 604.551 410.64 604.593 411.046C604.675 411.858 604.741 412.923 604.791 414.192C604.89 416.725 604.924 419.966 604.924 423.397C604.924 426.825 604.89 430.421 604.857 433.662C604.823 436.895 604.789 439.786 604.789 441.78H608.789ZM607.888 407.873C606.71 406.191 605.091 405.288 603.237 404.902L602.421 408.818C603.447 409.032 604.108 409.449 604.611 410.167L607.888 407.873ZM611.535 435.649C614.023 436.893 617.253 437.12 619.749 437.12V433.12C617.325 433.12 614.915 432.867 613.323 432.071L611.535 435.649ZM619.749 437.12C622.095 437.12 624.034 436.371 625.566 435.114C627.065 433.884 628.082 432.247 628.779 430.582C630.159 427.284 630.449 423.465 630.449 421.08H626.449C626.449 423.255 626.169 426.456 625.089 429.038C624.556 430.313 623.871 431.331 623.029 432.021C622.222 432.684 621.183 433.12 619.749 433.12V437.12ZM630.449 421.08C630.449 418.715 630.258 414.869 628.981 411.549C628.335 409.872 627.368 408.211 625.897 406.959C624.389 405.676 622.46 404.92 620.109 404.92V408.92C621.538 408.92 622.541 409.356 623.306 410.006C624.107 410.688 624.753 411.701 625.247 412.986C626.25 415.591 626.449 418.825 626.449 421.08H630.449ZM620.109 404.92C616.725 404.92 613.512 406.413 611.292 408.355L613.926 411.365C615.546 409.947 617.853 408.92 620.109 408.92V404.92ZM610.609 409.845L610.429 433.845L614.429 433.875L614.609 409.875L610.609 409.845ZM656.351 406.86L656.289 404.861L654.351 404.922V406.86H656.351ZM665.351 397.2V395.2H663.501L663.357 397.045L665.351 397.2ZM668.171 397.2H670.171V395.2H668.171V397.2ZM668.171 406.56H666.171V408.56H668.171V406.56ZM676.211 406.56H678.211V404.56H676.211V406.56ZM676.211 407.46V409.46H678.211V407.46H676.211ZM668.171 407.46V405.46H666.171V407.46H668.171ZM675.731 429.9L677.048 428.395L674.546 426.205L673.785 429.442L675.731 429.9ZM676.211 430.32L677.98 431.254L678.718 429.856L677.528 428.815L676.211 430.32ZM662.531 407.46H664.531V405.46H662.531V407.46ZM656.351 407.46H654.351V409.46H656.351V407.46ZM656.414 408.859C660.707 408.725 663.546 407.272 665.243 404.807C666.824 402.513 667.166 399.658 667.345 397.355L663.357 397.045C663.177 399.362 662.859 401.217 661.949 402.538C661.157 403.688 659.675 404.755 656.289 404.861L656.414 408.859ZM665.351 399.2H668.171V395.2H665.351V399.2ZM666.171 397.2V406.56H670.171V397.2H666.171ZM668.171 408.56H676.211V404.56H668.171V408.56ZM674.211 406.56V407.46H678.211V406.56H674.211ZM676.211 405.46H668.171V409.46H676.211V405.46ZM666.171 407.46V430.56H670.171V407.46H666.171ZM666.171 430.56C666.171 432.066 666.489 433.449 667.32 434.492C668.206 435.603 669.443 436.04 670.631 436.04V432.04C670.518 432.04 670.471 432.021 670.467 432.019C670.466 432.018 670.465 432.018 670.466 432.018C670.466 432.018 670.466 432.018 670.466 432.018C670.466 432.018 670.465 432.017 670.462 432.015C670.459 432.012 670.454 432.007 670.448 431.998C670.394 431.931 670.171 431.574 670.171 430.56H666.171ZM670.631 436.04C672.247 436.04 673.834 435.231 674.999 434.292C676.172 433.346 677.301 431.959 677.678 430.358L673.785 429.442C673.681 429.881 673.251 430.564 672.489 431.178C671.718 431.799 670.996 432.04 670.631 432.04V436.04ZM674.414 431.405L674.894 431.825L677.528 428.815L677.048 428.395L674.414 431.405ZM674.443 429.386C673.172 431.792 671.992 432.742 671.122 433.16C670.224 433.592 669.395 433.6 668.351 433.6V437.6C669.348 437.6 671.039 437.638 672.855 436.765C674.701 435.878 676.431 434.188 677.98 431.254L674.443 429.386ZM668.351 433.6C667.401 433.6 666.415 433.192 665.662 432.508C664.907 431.821 664.531 430.993 664.531 430.26H660.531C660.531 432.347 661.566 434.189 662.971 435.467C664.378 436.748 666.301 437.6 668.351 437.6V433.6ZM664.531 430.26V407.46H660.531V430.26H664.531ZM662.531 405.46H656.351V409.46H662.531V405.46ZM658.351 407.46V406.86H654.351V407.46H658.351ZM695.677 433.6C691.932 433.6 688.929 432.296 686.861 430.159C684.788 428.017 683.517 424.894 683.517 421.02H679.517C679.517 425.786 681.096 429.953 683.987 432.941C686.884 435.934 690.962 437.6 695.677 437.6V433.6ZM683.517 421.02C683.517 417.232 684.761 414.097 686.8 411.927C688.828 409.767 691.753 408.44 695.377 408.44V404.44C690.72 404.44 686.716 406.173 683.884 409.188C681.062 412.193 679.517 416.348 679.517 421.02H683.517ZM695.377 408.44C699.096 408.44 702.116 409.732 704.206 411.872C706.299 414.016 707.597 417.151 707.597 421.08H711.597C711.597 416.249 709.984 412.064 707.068 409.078C704.148 406.088 700.058 404.44 695.377 404.44V408.44ZM707.597 421.08C707.597 424.971 706.36 428.08 704.339 430.2C702.327 432.312 699.391 433.6 695.677 433.6V437.6C700.362 437.6 704.386 435.948 707.235 432.96C710.074 429.98 711.597 425.829 711.597 421.08H707.597ZM695.437 404.92C693.071 404.92 691.141 405.681 689.645 406.981C688.188 408.247 687.256 409.923 686.649 411.602C685.447 414.92 685.337 418.754 685.337 421.02H689.337C689.337 418.786 689.466 415.57 690.41 412.963C690.874 411.68 691.492 410.675 692.268 410C693.005 409.359 693.993 408.92 695.437 408.92V404.92ZM685.337 421.02C685.337 423.376 685.511 427.212 686.782 430.52C687.425 432.193 688.392 433.849 689.869 435.095C691.383 436.372 693.318 437.12 695.677 437.12V433.12C694.225 433.12 693.213 432.683 692.449 432.038C691.648 431.362 691.006 430.36 690.516 429.085C689.522 426.498 689.337 423.284 689.337 421.02H685.337ZM695.677 437.12C698.025 437.12 699.945 436.369 701.437 435.082C702.891 433.829 703.826 432.168 704.439 430.5C705.65 427.202 705.777 423.383 705.777 421.08H701.777C701.777 423.337 701.633 426.538 700.684 429.12C700.217 430.392 699.6 431.386 698.826 432.053C698.091 432.686 697.108 433.12 695.677 433.12V437.12ZM705.777 421.08C705.777 418.715 705.586 414.869 704.308 411.549C703.663 409.872 702.696 408.211 701.225 406.959C699.717 405.676 697.788 404.92 695.437 404.92V408.92C696.866 408.92 697.869 409.356 698.633 410.006C699.435 410.688 700.081 411.701 700.575 412.986C701.578 415.591 701.777 418.825 701.777 421.08H705.777ZM729.34 407.1V405.1L728.811 409.029L729.34 407.1ZM741.64 407.1L742.2 409.02L741.64 405.1V407.1ZM748.36 432.9L746.526 433.699L748.661 438.598L750.267 433.501L748.36 432.9ZM756.82 410.34L758.804 410.588L758.805 410.582L756.82 410.34ZM752.26 407.1L752.272 405.1L751.648 409.004L752.26 407.1ZM761.92 407.16L762.6 409.041L761.932 405.16L761.92 407.16ZM754.9 418.8L756.757 419.542L756.761 419.531L754.9 418.8ZM748.36 435.18V437.18H749.715L750.217 435.922L748.36 435.18ZM743.74 435.18L741.896 435.955L742.411 437.18H743.74V435.18ZM735.34 415.2L733.49 415.961L733.493 415.968L733.496 415.975L735.34 415.2ZM729.34 409.1H741.64V405.1H729.34V409.1ZM741.08 405.18C739.962 405.506 739.025 406.143 738.4 407.108C737.798 408.039 737.6 409.099 737.6 410.1H741.6C741.6 409.601 741.701 409.371 741.759 409.282C741.794 409.227 741.877 409.114 742.2 409.02L741.08 405.18ZM737.6 410.1C737.6 411.643 738.197 413.798 738.932 415.953C739.697 418.196 740.718 420.733 741.758 423.164C742.8 425.6 743.872 427.958 744.745 429.847C745.633 431.77 746.282 433.14 746.526 433.699L750.193 432.101C749.927 431.49 749.226 430.01 748.376 428.17C747.511 426.296 746.456 423.977 745.436 421.591C744.413 419.2 743.436 416.768 742.718 414.662C741.97 412.469 741.6 410.897 741.6 410.1H737.6ZM750.267 433.501C750.924 431.416 752.858 426.879 754.779 422.173C755.722 419.863 756.647 417.543 757.37 415.551C758.067 413.626 758.652 411.805 758.804 410.588L754.835 410.092C754.747 410.795 754.327 412.207 753.609 414.188C752.915 416.101 752.015 418.36 751.075 420.662C749.231 425.181 747.175 430.004 746.452 432.299L750.267 433.501ZM758.805 410.582C758.938 409.492 758.684 408.492 758.071 407.673C757.504 406.916 756.741 406.463 756.102 406.176C755.455 405.885 754.772 405.693 754.223 405.552C753.602 405.391 753.218 405.307 752.872 405.196L751.648 409.004C752.141 409.163 752.784 409.311 753.223 409.425C753.733 409.557 754.141 409.68 754.462 409.824C754.79 409.972 754.871 410.074 754.869 410.071C754.82 410.006 754.851 409.958 754.834 410.098L758.805 410.582ZM752.247 409.1L761.907 409.16L761.932 405.16L752.272 405.1L752.247 409.1ZM761.239 405.279C759.114 406.048 757.687 407.911 756.544 409.992C755.381 412.109 754.282 414.9 753.038 418.069L756.761 419.531C758.037 416.28 759.038 413.761 760.05 411.918C761.082 410.039 761.905 409.292 762.6 409.041L761.239 405.279ZM753.042 418.058L746.502 434.438L750.217 435.922L756.757 419.542L753.042 418.058ZM748.36 433.18H743.74V437.18H748.36V433.18ZM745.583 434.405L737.183 414.425L733.496 415.975L741.896 435.955L745.583 434.405ZM737.189 414.438C736.645 413.117 735.959 411.052 734.993 409.383C733.962 407.604 732.414 405.869 729.868 405.171L728.811 409.029C729.985 409.351 730.807 410.136 731.531 411.387C732.32 412.748 732.774 414.223 733.49 415.961L737.189 414.438ZM767.408 409.08L769.221 408.237L769.162 408.108L769.085 407.99L767.408 409.08ZM764.108 406.92L763.918 404.929L763.683 408.874L764.108 406.92ZM773.828 406.44L775.828 406.429L775.817 404.44H773.828V406.44ZM773.888 417.72L775.888 417.734L775.888 417.722L775.888 417.709L773.888 417.72ZM773.828 426.06L771.828 426.046L771.828 426.053V426.06H773.828ZM774.608 433.56L772.867 434.544L772.871 434.552L774.608 433.56ZM776.768 435V437L777.187 433.044L776.768 435ZM765.248 435L764.879 433.034L765.248 437V435ZM767.468 433.5L765.705 432.556L765.703 432.559L767.468 433.5ZM769.085 407.99C767.96 406.26 766.314 405.353 764.533 404.966L763.683 408.874C764.661 409.087 765.295 409.5 765.731 410.17L769.085 407.99ZM764.297 408.911C766.764 408.676 771.08 408.44 773.828 408.44V404.44C770.935 404.44 766.491 404.684 763.918 404.929L764.297 408.911ZM771.828 406.451L771.888 417.731L775.888 417.709L775.828 406.429L771.828 406.451ZM771.888 417.706L771.828 426.046L775.828 426.074L775.888 417.734L771.888 417.706ZM771.828 426.06C771.828 426.925 771.827 428.517 771.929 430.076C771.981 430.855 772.06 431.664 772.186 432.393C772.303 433.067 772.494 433.885 772.867 434.544L776.349 432.576C776.354 432.585 776.32 432.524 776.27 432.351C776.222 432.189 776.173 431.975 776.127 431.709C776.034 431.174 775.967 430.52 775.921 429.814C775.828 428.403 775.828 426.935 775.828 426.06H771.828ZM772.871 434.552C773.734 436.063 775.189 436.707 776.349 436.956L777.187 433.044C776.666 432.933 776.441 432.737 776.344 432.568L772.871 434.552ZM776.768 433H765.248V437H776.768V433ZM765.616 436.966C766.975 436.711 768.384 436.032 769.232 434.441L765.703 432.559C765.623 432.708 765.544 432.781 765.46 432.835C765.359 432.9 765.184 432.977 764.879 433.034L765.616 436.966ZM769.231 434.444C769.605 433.746 769.818 432.901 769.956 432.144C770.1 431.35 770.191 430.482 770.25 429.643C770.368 427.966 770.368 426.265 770.368 425.28H766.368C766.368 426.275 766.367 427.844 766.26 429.362C766.207 430.121 766.129 430.831 766.02 431.427C765.905 432.059 765.781 432.414 765.705 432.556L769.231 434.444ZM770.368 425.28C770.368 421.376 770.428 417.893 770.337 415.112C770.248 412.411 770.016 409.946 769.221 408.237L765.594 409.923C765.999 410.794 766.248 412.469 766.339 415.243C766.427 417.937 766.368 421.264 766.368 425.28H770.368ZM770.648 398.8C769.794 398.8 769.108 398.098 769.108 397.26H765.108C765.108 400.262 767.541 402.8 770.648 402.8V398.8ZM769.108 397.26C769.108 396.632 769.704 395.9 770.648 395.9V391.9C767.631 391.9 765.108 394.288 765.108 397.26H769.108ZM770.648 395.9C771.756 395.9 772.308 396.674 772.308 397.26H776.308C776.308 394.246 773.739 391.9 770.648 391.9V395.9ZM772.308 397.26C772.308 398.054 771.665 398.8 770.648 398.8V402.8C773.83 402.8 776.308 400.306 776.308 397.26H772.308ZM812.851 420.72V422.72H814.894L814.851 420.677L812.851 420.72ZM790.591 420.72V418.72H788.591V420.72H790.591ZM811.831 428.16V426.16H810.705L810.121 427.123L811.831 428.16ZM812.251 428.16L814.088 428.951L815.289 426.16H812.251V428.16ZM790.651 420.12L788.662 419.913L788.433 422.12H790.651V420.12ZM806.971 420.12V422.12H809.053L808.969 420.04L806.971 420.12ZM786.411 421.38C786.411 417.381 787.644 414.173 789.725 411.979C791.793 409.799 794.87 408.44 798.931 408.44V404.44C793.932 404.44 789.749 406.141 786.823 409.226C783.909 412.297 782.411 416.559 782.411 421.38H786.411ZM798.931 408.44C802.675 408.44 805.565 409.728 807.548 411.809C809.545 413.906 810.77 416.969 810.852 420.763L814.851 420.677C814.752 416.071 813.247 411.994 810.444 409.051C807.627 406.092 803.647 404.44 798.931 404.44V408.44ZM812.851 418.72H790.591V422.72H812.851V418.72ZM788.591 420.72C788.591 424.225 788.874 428.191 790.535 431.318C791.391 432.93 792.622 434.34 794.357 435.332C796.083 436.318 798.182 436.82 800.671 436.82V432.82C798.72 432.82 797.339 432.429 796.342 431.859C795.355 431.295 794.622 430.485 794.067 429.442C792.908 427.259 792.591 424.175 792.591 420.72H788.591ZM800.671 436.82C805.448 436.82 810.81 433.704 813.541 429.197L810.121 427.123C808.052 430.536 803.934 432.82 800.671 432.82V436.82ZM811.831 430.16H812.251V426.16H811.831V430.16ZM810.414 427.369C808.779 431.169 803.964 433.6 799.711 433.6V437.6C805.058 437.6 811.643 434.631 814.088 428.951L810.414 427.369ZM799.711 433.6C795.703 433.6 792.384 432.376 790.092 430.312C787.824 428.268 786.411 425.269 786.411 421.38H782.411C782.411 426.311 784.239 430.422 787.415 433.283C790.568 436.124 794.9 437.6 799.711 437.6V433.6ZM799.231 405.04C794.862 405.04 792.291 407.953 790.859 410.996C789.442 414.006 788.907 417.556 788.662 419.913L792.64 420.327C792.875 418.064 793.36 415.074 794.478 412.699C795.581 410.357 797.06 409.04 799.231 409.04V405.04ZM790.651 422.12H806.971V418.12H790.651V422.12ZM808.969 420.04C808.88 417.799 808.67 414.222 807.486 411.169C806.886 409.622 805.989 408.083 804.617 406.923C803.207 405.732 801.41 405.04 799.231 405.04V409.04C800.502 409.04 801.375 409.421 802.035 409.978C802.733 410.568 803.307 411.456 803.756 412.616C804.673 414.978 804.882 417.941 804.973 420.2L808.969 420.04ZM814.98 407.1V405.1L814.435 409.024L814.98 407.1ZM826.92 407.1L827.48 409.02L826.92 405.1V407.1ZM833.22 432.9L831.338 433.576L833.325 439.111L835.124 433.512L833.22 432.9ZM840.24 414.54L842.134 415.184L842.359 414.521L842.122 413.863L840.24 414.54ZM834.78 407.1V405.1L834.24 409.026L834.78 407.1ZM846.78 407.1L847.319 409.026L846.78 405.1V407.1ZM853.14 432.9L851.273 433.618L853.37 439.069L855.055 433.477L853.14 432.9ZM861.3 410.34L863.285 410.588L863.285 410.582L861.3 410.34ZM856.86 407.1L856.873 405.1L856.267 409.01L856.86 407.1ZM866.22 407.16L866.913 409.036L866.233 405.16L866.22 407.16ZM859.38 418.8L857.518 418.069L857.515 418.079L857.511 418.088L859.38 418.8ZM853.14 435.18V437.18H854.518L855.009 435.892L853.14 435.18ZM848.64 435.18L846.787 435.933L847.294 437.18H848.64V435.18ZM840.72 415.68L842.573 414.927L840.646 410.182L838.847 414.978L840.72 415.68ZM839.52 418.8L837.656 418.075L837.653 418.082L839.52 418.8ZM833.22 435.18V437.18H834.594L835.087 435.898L833.22 435.18ZM828.84 435.18L826.987 435.931L827.493 437.18H828.84V435.18ZM820.74 415.2L818.878 415.93L818.882 415.941L818.887 415.951L820.74 415.2ZM814.98 409.1H826.92V405.1H814.98V409.1ZM826.36 405.18C825.243 405.506 824.306 406.143 823.681 407.108C823.079 408.039 822.88 409.099 822.88 410.1H826.88C826.88 409.601 826.981 409.371 827.039 409.282C827.074 409.227 827.157 409.114 827.48 409.02L826.36 405.18ZM822.88 410.1C822.88 411.631 823.456 413.778 824.166 415.934C824.904 418.174 825.888 420.708 826.885 423.137C827.884 425.57 828.908 427.926 829.73 429.808C830.575 431.745 831.157 433.073 831.338 433.576L835.103 432.224C834.863 431.557 834.193 430.035 833.396 428.208C832.575 426.328 831.566 424.007 830.585 421.618C829.602 419.224 828.659 416.79 827.965 414.682C827.242 412.489 826.88 410.909 826.88 410.1H822.88ZM835.124 433.512C835.637 431.916 836.86 428.872 838.25 425.383C839.618 421.952 841.124 418.152 842.134 415.184L838.347 413.896C837.376 416.748 835.912 420.448 834.535 423.902C833.181 427.298 831.883 430.524 831.316 432.288L835.124 433.512ZM842.122 413.863C841.626 412.485 841.036 410.614 840.112 409.041C839.135 407.38 837.673 405.835 835.321 405.174L834.24 409.026C835.307 409.325 836.035 410 836.664 411.069C837.344 412.226 837.774 413.595 838.358 415.217L842.122 413.863ZM834.78 409.1H846.78V405.1H834.78V409.1ZM846.241 405.174C845.093 405.496 844.135 406.134 843.507 407.126C842.91 408.07 842.74 409.134 842.74 410.1H846.74C846.74 409.566 846.84 409.34 846.888 409.264C846.909 409.231 846.933 409.203 846.978 409.172C847.028 409.137 847.129 409.079 847.319 409.026L846.241 405.174ZM842.74 410.1C842.74 411.631 843.316 413.779 844.027 415.934C844.766 418.175 845.752 420.71 846.754 423.14C847.757 425.574 848.787 427.93 849.618 429.815C850.469 431.745 851.071 433.093 851.273 433.618L855.007 432.182C854.759 431.537 854.087 430.035 853.278 428.201C852.45 426.324 851.436 424.003 850.452 421.615C849.466 419.222 848.521 416.789 847.825 414.681C847.102 412.489 846.74 410.909 846.74 410.1H842.74ZM855.055 433.477C855.684 431.392 857.546 426.853 859.396 422.15C860.305 419.84 861.198 417.521 861.896 415.531C862.571 413.604 863.134 411.792 863.285 410.588L859.316 410.092C859.226 410.808 858.814 412.228 858.121 414.208C857.45 416.123 856.58 418.383 855.674 420.685C853.895 425.207 851.917 430.028 851.225 432.323L855.055 433.477ZM863.285 410.582C863.414 409.525 863.192 408.54 862.611 407.718C862.068 406.949 861.325 406.484 860.693 406.188C860.057 405.891 859.383 405.697 858.838 405.554C858.216 405.39 857.835 405.309 857.453 405.19L856.267 409.01C856.755 409.161 857.402 409.312 857.822 409.423C858.32 409.553 858.704 409.674 858.998 409.812C859.295 409.951 859.355 410.041 859.344 410.026C859.296 409.957 859.336 409.925 859.315 410.098L863.285 410.582ZM856.847 409.1L866.207 409.16L866.233 405.16L856.873 405.1L856.847 409.1ZM865.527 405.284C863.417 406.064 862.039 407.951 860.943 410.018C859.826 412.125 858.757 414.915 857.518 418.069L861.242 419.531C862.524 416.265 863.494 413.745 864.477 411.892C865.481 409.999 866.264 409.276 866.913 409.036L865.527 405.284ZM857.511 418.088L851.271 434.468L855.009 435.892L861.249 419.512L857.511 418.088ZM853.14 433.18H848.64V437.18H853.14V433.18ZM850.493 434.427L842.573 414.927L838.867 416.433L846.787 435.933L850.493 434.427ZM838.847 414.978C838.493 415.924 838.077 416.992 837.656 418.075L841.384 419.525C841.803 418.448 842.228 417.356 842.593 416.382L838.847 414.978ZM837.653 418.082L831.353 434.462L835.087 435.898L841.387 419.518L837.653 418.082ZM833.22 433.18H828.84V437.18H833.22V433.18ZM830.694 434.429L822.594 414.449L818.887 415.951L826.987 435.931L830.694 434.429ZM822.602 414.47C822.083 413.147 821.434 411.084 820.509 409.415C819.526 407.642 818.028 405.885 815.525 405.176L814.435 409.024C815.532 409.335 816.314 410.098 817.011 411.355C817.766 412.716 818.197 414.193 818.878 415.93L822.602 414.47Z" fill="black"/>
</svg>
