<svg width="338" height="189" viewBox="0 0 338 189" fill="none" xmlns="http://www.w3.org/2000/svg">
<path d="M250.718 105C222.015 130.354 194.5 156.861 167.303 183.886H171.387C144.219 156.861 116.703 130.296 88 105C100.715 119.406 113.807 133.264 127.072 147.065C140.338 160.865 153.777 174.436 167.303 187.977C167.845 188.514 168.58 188.815 169.345 188.815C170.11 188.815 170.844 188.514 171.387 187.977C198.439 160.894 225.23 133.523 250.718 105Z" fill="black"/>
<path d="M38.976 90.12C34.1973 90.12 29.6427 89.3733 25.312 87.88C20.9813 86.3867 17.2107 84.296 14 81.608C10.7893 78.92 8.43733 75.8213 6.944 72.312C6.19733 70.744 6.19733 69.288 6.944 67.944C7.76533 66.6 9.10933 65.7413 10.976 65.368C12.32 65.0693 13.6267 65.2933 14.896 66.04C16.24 66.712 17.248 67.7573 17.92 69.176C18.816 71.0427 20.272 72.76 22.288 74.328C24.3787 75.896 26.88 77.1653 29.792 78.136C32.704 79.1067 35.7653 79.592 38.976 79.592C42.56 79.592 45.8453 79.032 48.832 77.912C51.8933 76.792 54.3573 75.1867 56.224 73.096C58.0907 70.9307 59.024 68.28 59.024 65.144C59.024 61.1867 57.456 57.64 54.32 54.504C51.2587 51.368 46.1813 49.4267 39.088 48.68C29.8293 47.784 22.5493 45.0587 17.248 40.504C11.9467 35.9493 9.296 30.312 9.296 23.592C9.296 18.664 10.6773 14.4827 13.44 11.048C16.2027 7.61333 19.936 5 24.64 3.208C29.4187 1.416 34.72 0.519998 40.544 0.519998C45.0987 0.519998 49.056 1.15466 52.416 2.42399C55.8507 3.69333 58.8373 5.448 61.376 7.688C63.9147 9.928 66.1173 12.5787 67.984 15.64C69.0293 17.2827 69.44 18.8507 69.216 20.344C69.0667 21.7627 68.3573 22.8827 67.088 23.704C65.6693 24.6 64.1387 24.7867 62.496 24.264C60.8533 23.7413 59.6213 22.7707 58.8 21.352C57.6053 19.1867 56.1493 17.3573 54.432 15.864C52.7147 14.3707 50.6987 13.2133 48.384 12.392C46.0693 11.496 43.344 11.048 40.208 11.048C34.6827 10.9733 30.0533 12.0187 26.32 14.184C22.5867 16.2747 20.72 19.5227 20.72 23.928C20.72 26.168 21.28 28.3333 22.4 30.424C23.5947 32.44 25.7227 34.1947 28.784 35.688C31.92 37.1813 36.4 38.2267 42.224 38.824C51.1093 39.72 58.016 42.4453 62.944 47C67.9467 51.48 70.448 57.416 70.448 64.808C70.448 69.064 69.552 72.76 67.76 75.896C66.0427 79.032 63.6907 81.6827 60.704 83.848C57.792 85.9387 54.432 87.5067 50.624 88.552C46.8907 89.5973 43.008 90.12 38.976 90.12ZM114.965 89.448C108.992 89.448 103.653 88.104 98.9494 85.416C94.32 82.6533 90.6614 78.9573 87.9734 74.328C85.36 69.624 84.0534 64.3227 84.0534 58.424C84.0534 52.376 85.36 47 87.9734 42.296C90.5867 37.592 94.1707 33.9333 98.7254 31.32C103.28 28.632 108.507 27.288 114.405 27.288C118.811 27.288 122.843 28.1467 126.501 29.864C130.16 31.5067 133.445 34.008 136.357 37.368C137.403 38.5627 137.776 39.7947 137.477 41.064C137.179 42.3333 136.357 43.4533 135.013 44.424C133.968 45.1707 132.811 45.432 131.541 45.208C130.272 44.9093 129.115 44.2373 128.069 43.192C124.411 39.3093 119.856 37.368 114.405 37.368C110.597 37.368 107.237 38.264 104.325 40.056C101.413 41.7733 99.136 44.2 97.4934 47.336C95.8507 50.472 95.0294 54.168 95.0294 58.424C95.0294 62.456 95.8507 66.04 97.4934 69.176C99.2107 72.312 101.563 74.8133 104.549 76.68C107.536 78.472 111.008 79.368 114.965 79.368C117.579 79.368 119.856 79.0693 121.797 78.472C123.813 77.8 125.643 76.792 127.285 75.448C128.48 74.4773 129.712 73.9547 130.981 73.88C132.251 73.7307 133.371 74.0667 134.341 74.888C135.611 75.9333 136.32 77.128 136.469 78.472C136.619 79.7413 136.171 80.8987 135.125 81.944C129.749 86.9467 123.029 89.448 114.965 89.448ZM159.943 50.696C159.943 46.216 161.026 42.2213 163.191 38.712C165.431 35.128 168.418 32.2907 172.151 30.2C175.884 28.1093 179.991 27.064 184.471 27.064C188.951 27.064 192.274 27.8107 194.439 29.304C196.679 30.7227 197.538 32.44 197.015 34.456C196.791 35.5013 196.343 36.3227 195.671 36.92C195.074 37.4427 194.364 37.7787 193.543 37.928C192.722 38.0773 191.826 38.04 190.855 37.816C186.076 36.8453 181.783 36.7707 177.975 37.592C174.167 38.4133 171.143 39.944 168.903 42.184C166.738 44.424 165.655 47.2613 165.655 50.696H159.943ZM160.055 89C158.263 89 156.882 88.552 155.911 87.656C154.94 86.6853 154.455 85.2667 154.455 83.4V33.336C154.455 31.544 154.94 30.1627 155.911 29.192C156.882 28.2213 158.263 27.736 160.055 27.736C161.922 27.736 163.303 28.2213 164.199 29.192C165.17 30.088 165.655 31.4693 165.655 33.336V83.4C165.655 85.192 165.17 86.5733 164.199 87.544C163.303 88.5147 161.922 89 160.055 89ZM232.215 89.448C226.167 89.448 220.829 88.1413 216.199 85.528C211.57 82.84 207.911 79.1813 205.223 74.552C202.61 69.848 201.303 64.472 201.303 58.424C201.303 52.3013 202.61 46.9253 205.223 42.296C207.911 37.592 211.57 33.9333 216.199 31.32C220.829 28.632 226.167 27.288 232.215 27.288C238.189 27.288 243.49 28.632 248.119 31.32C252.749 33.9333 256.37 37.592 258.983 42.296C261.671 46.9253 263.015 52.3013 263.015 58.424C263.015 64.472 261.709 69.848 259.095 74.552C256.482 79.1813 252.861 82.84 248.231 85.528C243.602 88.1413 238.263 89.448 232.215 89.448ZM232.215 79.368C236.098 79.368 239.533 78.472 242.519 76.68C245.506 74.888 247.821 72.424 249.463 69.288C251.181 66.152 252.039 62.5307 252.039 58.424C252.039 54.3173 251.181 50.696 249.463 47.56C247.821 44.3493 245.506 41.848 242.519 40.056C239.533 38.264 236.098 37.368 232.215 37.368C228.333 37.368 224.898 38.264 221.911 40.056C218.925 41.848 216.573 44.3493 214.855 47.56C213.138 50.696 212.279 54.3173 212.279 58.424C212.279 62.5307 213.138 66.152 214.855 69.288C216.573 72.424 218.925 74.888 221.911 76.68C224.898 78.472 228.333 79.368 232.215 79.368ZM294.578 89C291.292 89 288.38 88.104 285.842 86.312C283.303 84.52 281.324 82.0933 279.906 79.032C278.487 75.896 277.778 72.312 277.778 68.28V7.128C277.778 5.48533 278.3 4.14133 279.346 3.096C280.391 2.05066 281.735 1.528 283.378 1.528C285.02 1.528 286.364 2.05066 287.41 3.096C288.455 4.14133 288.978 5.48533 288.978 7.128V68.28C288.978 71.0427 289.5 73.32 290.546 75.112C291.591 76.904 292.935 77.8 294.578 77.8H297.378C298.871 77.8 300.066 78.3227 300.962 79.368C301.932 80.4133 302.418 81.7573 302.418 83.4C302.418 85.0427 301.708 86.3867 300.29 87.432C298.871 88.4773 297.042 89 294.802 89H294.578ZM328.156 89C324.87 89 321.958 88.104 319.42 86.312C316.881 84.52 314.902 82.0933 313.484 79.032C312.065 75.896 311.356 72.312 311.356 68.28V7.128C311.356 5.48533 311.878 4.14133 312.924 3.096C313.969 2.05066 315.313 1.528 316.956 1.528C318.598 1.528 319.942 2.05066 320.988 3.096C322.033 4.14133 322.556 5.48533 322.556 7.128V68.28C322.556 71.0427 323.078 73.32 324.124 75.112C325.169 76.904 326.513 77.8 328.156 77.8H330.956C332.449 77.8 333.644 78.3227 334.54 79.368C335.51 80.4133 335.996 81.7573 335.996 83.4C335.996 85.0427 335.286 86.3867 333.868 87.432C332.449 88.4773 330.62 89 328.38 89H328.156Z" fill="black"/>
</svg>
